<?xml version="1.0" encoding="UTF-8"?>
<svg id="Layer_1" data-name="Layer 1" xmlns="http://www.w3.org/2000/svg" viewBox="0 0 576 576">
  <defs>
    <style>
      .cls-1 {
        fill: none;
      }

      .cls-1, .cls-2, .cls-3, .cls-4 {
        stroke-width: 0px;
      }

      .cls-5 {
        opacity: .5;
      }

      .cls-2 {
        fill: #2a8bcb;
      }

      .cls-3 {
        fill: #1c3457;
      }

      .cls-4 {
        fill: #fff;
      }
    </style>
  </defs>
  <polygon class="cls-2" points="150.79 432.59 393.34 172.82 479.2 302.39 150.79 432.59"/>
  <g class="cls-5">
    <polygon class="cls-2" points="126.06 449.1 397.56 158.32 493.66 303.36 126.06 449.1"/>
  </g>
  <polygon class="cls-3" points="461.13 137.62 240.48 429.04 115.65 240.05 461.13 137.62"/>
  <g class="cls-5">
    <polygon class="cls-3" points="484.5 121.07 237.52 447.26 97.8 235.72 484.5 121.07"/>
  </g>
  <path class="cls-4" d="m465.55,306.83c-4.75,0-9.49-.07-14.23,0-.91.07-1.79-.37-2.29-1.14-12.77-16.8-25.55-33.6-38.36-50.38-.32-.46-.77-.83-1.28-1.06v52.47h-17.76v-83.25h15.36c.82-.06,1.61.33,2.06,1.03,12.27,16.16,24.54,32.31,36.83,48.45.43.6.99,1.1,1.64,1.45v-51h18.04v83.43Z"/>
  <path class="cls-4" d="m339.54,222.09c16.35.42,29.7,6.66,38.15,21.08,14.12,24.07,2.45,57.17-28.01,63.85-14.37,3.15-27.77.61-39.36-8.83-9.56-7.78-14.42-18.09-15.19-30.37-1.4-20.35,11.85-38.84,31.57-44.06,4.18-1.14,8.5-1.7,12.84-1.67Zm24.87,43.29c.19-2.52-.09-5.05-.83-7.46-5.33-19.78-28.14-24.5-40.94-12.83-7.59,6.91-9.78,15.77-7.97,25.66,2.49,13.7,15.61,22.8,29.32,20.32,1.47-.27,2.91-.66,4.3-1.18,9.91-3.64,16.18-13.15,16.12-24.5h0Z"/>
  <path class="cls-4" d="m93.32,288.02l3.21-5.14c1.98-3.16,4-6.29,5.91-9.5.47-.97,1.51-1.54,2.58-1.41,23.15.06,46.3.07,69.45.06h2.12l-11.08-27.19c-.38.79-.62,1.23-.81,1.74-2.68,6.51-5.35,13.04-8.03,19.58-.3.72-.55,1.22-1.5,1.22h-15.84c-.28-.03-.56-.08-.83-.15.32-.83.61-1.59.92-2.33,5.78-13.55,11.54-27.12,17.3-40.72.21-.83.99-1.39,1.85-1.31,4.75.07,9.5.06,14.24,0,.82-.1,1.59.43,1.79,1.23,11.5,27.09,23.02,54.19,34.56,81.28.16.39.29.8.47,1.31-.47,0-.84.07-1.22.07h-16.42c-.82.12-1.6-.41-1.79-1.22-2.13-5.34-4.37-10.64-6.47-16-.26-.98-1.21-1.61-2.22-1.47-22.47,0-44.95-.03-67.43-.09h-18.65l-2.12.04Z"/>
  <path class="cls-4" d="m185.86,223.6h75.74v16.63c-.57,0-1.14.07-1.7.07h-20.95c-2.85,0-2.67-.49-2.67,2.6v61.48c0,2.92.11,2.44-2.37,2.44h-13.96q-1.85,0-1.85-1.93v-62.11c0-3,.16-2.53-2.6-2.54h-21.38c-.97.13-1.87-.5-2.1-1.45-1.78-4.54-3.69-9.05-5.5-13.57-.22-.46-.39-.95-.67-1.63Z"/>
  <path class="cls-4" d="m268.29,306.73v-83.25h1.51c4.93,0,9.88.06,14.78,0,1.39,0,1.7.42,1.69,1.72v79.6c0,2,0,2-1.94,2l-16.03-.07Z"/>
  <path class="cls-4" d="m145.75,292.75c-1.42,3.54-2.77,6.97-4.2,10.39q-1.43,3.58-5.39,3.58h-14.51c.05-.31.12-.62.22-.92,1.71-4.05,3.44-8.1,5.14-12.15.28-.67.55-1.11,1.44-1.1,5.47.06,10.95,0,16.41,0,.3.04.6.11.89.19Z"/>
  <rect class="cls-1" x="151.8" y="145.51" width="313.05" height="313.05"/>
  <rect class="cls-1" x="147.02" y="169.28" width="313.05" height="314.78"/>
</svg>