<svg id="Layer_1" data-name="Layer 1" xmlns="http://www.w3.org/2000/svg" viewBox="0 0 576 576"><defs><style>.cls-1{fill:#fff;}.cls-2,.cls-3,.cls-4{fill:#050a90;}.cls-2,.cls-3,.cls-4,.cls-5{stroke:#fff;}.cls-2,.cls-3,.cls-4,.cls-5,.cls-6{stroke-miterlimit:10;}.cls-2{stroke-width:15.9px;}.cls-3{stroke-width:7.95px;}.cls-4{stroke-width:18.55px;}.cls-5{stroke-width:14.57px;}.cls-6,.cls-7{fill:#030972;}.cls-6{stroke:#030972;stroke-width:1.32px;}</style></defs><circle class="cls-1" cx="281.08" cy="273.14" r="70.39"/><polygon class="cls-1" points="76.28 288.24 534 287.9 500.86 394.08 41.83 392.65 76.28 288.24"/><polygon class="cls-2" points="504.69 345.94 73.8 345.94 73.8 340.64 506.26 340.64 504.69 345.94"/><path class="cls-3" d="M86.71,378.67l14.9-17.21H109L87.9,386.27h-7l-5.13-24.81h7.51Z"/><path class="cls-3" d="M128.28,386.27l8.07-24.81H162.1L160.28,367H141.52l-1.31,4.05h9.85l-1.87,5.73h-9.85l-1.28,3.89h18.76L154,386.27Z"/><path class="cls-3" d="M203.84,386.27l-9.62-14.87-4.85,14.87h-7.08l8.07-24.81h7.4l9.69,15,4.85-15h7l-8.07,24.81Z"/><path class="cls-3" d="M248.59,386.27,254.83,367h-9.06l1.83-5.57h25.75L271.52,367h-9.7l-6.24,19.24Z"/><path class="cls-3" d="M308.6,361.46l-6.2,19.08h14.91l6.2-19.08h7l-6.63,20.35a5.18,5.18,0,0,1-1.12,1.91,7.23,7.23,0,0,1-1.71,1.41,7.51,7.51,0,0,1-2,.86,8.1,8.1,0,0,1-2,.28H299A6.78,6.78,0,0,1,297,386a3.79,3.79,0,0,1-1.47-.8,2.48,2.48,0,0,1-.78-1.37,4.13,4.13,0,0,1,.18-2l6.64-20.35Z"/><path class="cls-3" d="M375.46,371.8c.45-.13.71-.29.79-.48l1.23-3.81a.32.32,0,0,0-.14-.3A1.29,1.29,0,0,0,377,367H357l1.83-5.57h24.49a1.87,1.87,0,0,1,1,.34,3.16,3.16,0,0,1,.85.86,2.91,2.91,0,0,1,.48,1.13,2.42,2.42,0,0,1,0,1.17l-2.58,8a6,6,0,0,1-1.29,2.19,7.31,7.31,0,0,1-2,1.49,9.54,9.54,0,0,1-2.39.83,12.21,12.21,0,0,1-2.44.26l6.4,8.59h-9.58l-6.88-8.59h-4.25l-2.78,8.59h-7.12l4.69-14.47Z"/><path class="cls-3" d="M407.21,386.27l8.07-24.81H441L439.21,367H420.45l-1.31,4.05H429l-1.87,5.73h-9.85L416,380.7h18.76L433,386.27Z"/><path class="cls-3" d="M468.78,376.81a4.74,4.74,0,0,1-1.57-.26,2.49,2.49,0,0,1-1.17-.82,2.66,2.66,0,0,1-.54-1.45,5.11,5.11,0,0,1,.34-2.2l2.3-7.12a3.15,3.15,0,0,1,.72-1.17,8.82,8.82,0,0,1,1.23-1.13,7.4,7.4,0,0,1,1.41-.86,3.26,3.26,0,0,1,1.29-.34h25.4L496.36,367H475.42l-.8.48-.95,3,.39.43H490.6a4.79,4.79,0,0,1,1.57.26,2.49,2.49,0,0,1,1.73,2.27,6.16,6.16,0,0,1-.32,2.2l-2.31,7.12a3.94,3.94,0,0,1-.71,1.17,7.26,7.26,0,0,1-1.21,1.13,8.54,8.54,0,0,1-1.42.86,3.15,3.15,0,0,1-1.31.34H461.23L463,380.7H484l.79-.48,1-3-.4-.43Z"/><path class="cls-4" d="M107.1,312l1.1-.65,1.36-4.27-.65-.65H81.25l2.52-7.65h33.77a2.54,2.54,0,0,1,1.45.46,4.41,4.41,0,0,1,1.18,1.18,4.16,4.16,0,0,1,.65,1.55,3.52,3.52,0,0,1,0,1.62l-2.85,8.69c-.18.61-.34,1.12-.49,1.5s-.27.69-.38.93a2.31,2.31,0,0,1-.33.54q-.16.2-.33.36l-.1.05a1.1,1.1,0,0,0,.21.5c.15.21.29.45.44.71a4.36,4.36,0,0,1,.36.76,1,1,0,0,1,0,.71l-3.11,9.73a5.2,5.2,0,0,1-1,1.61,9.51,9.51,0,0,1-1.66,1.56,12.13,12.13,0,0,1-1.94,1.18,4.28,4.28,0,0,1-1.81.46H72.67L79.45,312ZM84.91,325.26h19.24l1.09-.66,1.43-4.26-.39-.44H86.66Z"/><path class="cls-4" d="M117.32,332.91l11.1-34.1H138l-8.64,26.45h25.8l-2.46,7.65Z"/><path class="cls-4" d="M178.15,298.81,169.63,325h20.49l8.53-26.23h9.67l-9.12,28a7.35,7.35,0,0,1-1.53,2.62,10.18,10.18,0,0,1-2.36,1.94,10.5,10.5,0,0,1-2.76,1.18,11,11,0,0,1-2.76.38H164.87a9.07,9.07,0,0,1-2.62-.36,5,5,0,0,1-2-1.09,3.39,3.39,0,0,1-1.07-1.88,5.73,5.73,0,0,1,.25-2.79l9.12-28Z"/><path class="cls-4" d="M201.93,332.91,213,298.81h35.42l-2.51,7.65h-25.8L218.32,312h13.56l-2.57,7.87H215.76L214,325.26H239.8l-2.46,7.65Z"/><path class="cls-4" d="M322.5,322.47,343,298.81h10.22l-29.07,34.1h-9.68l-7-34.1h10.33Z"/><path class="cls-4" d="M366.22,298.81l-11.09,34.1h-9.62l11.09-34.1Z"/><path class="cls-4" d="M395.19,315.86l10.54,17.05H393.55l-8.26-13H373.65l-4.21,13h-9.62l11.1-34.1h9.62L376.22,312h11.64L405,298.81h11.86Z"/><path class="cls-4" d="M430,298.81l-11.1,34.1h-9.62l11.1-34.1Z"/><path class="cls-4" d="M453.17,332.91,440,312.47l-6.67,20.44h-9.73l11.1-34.1h10.16l13.34,20.55,6.67-20.55h9.62l-11.1,34.1Z"/><path class="cls-4" d="M490.61,319.9l2.57-7.87h21.48l-4.81,14.76a7.35,7.35,0,0,1-1.53,2.62,10.13,10.13,0,0,1-2.35,1.94,10.64,10.64,0,0,1-2.76,1.18,11.09,11.09,0,0,1-2.76.38H475.53a9.19,9.19,0,0,1-2.63-.36,5.11,5.11,0,0,1-2-1.09,3.38,3.38,0,0,1-1.06-1.88,5.59,5.59,0,0,1,.24-2.79l7.11-21.86a7.86,7.86,0,0,1,1.55-2.79,9.21,9.21,0,0,1,2.3-1.89,10.75,10.75,0,0,1,2.73-1.09,11.86,11.86,0,0,1,2.87-.35H519l-2.57,7.87H486.24l-6,18.36h20.5l1.64-5.14Z"/><path class="cls-5" d="M241.33,281.26c-7.1,0-14.19,0-21.29,0h-1.69c-.92-11.78.72-23,6.12-33.48,6.71-13,16.63-22.92,29.74-30.35,3.76,7.33,7.67,14.43,11.06,21.77s6.22,14.81,9.25,22.13q-1.89-24.48-6-49.19a56.33,56.33,0,0,1,25,0c-1.13,8.28-2.35,16.44-3.35,24.63s-1.78,16.39-2.43,24.64a246.08,246.08,0,0,1,20.48-43.76,72.26,72.26,0,0,1,27.58,26.67c6.73,11.35,9.11,23.68,8.05,37H321.14c-26.7,0-35.21,29.26-40.07,29.17C276.55,310.34,266.68,281.44,241.33,281.26Z"/><path class="cls-5" d="M210.47,260.62a76.64,76.64,0,0,1-20.06-19,53.58,53.58,0,0,1-10.33-28.51c-.65-11.31,2.4-21.69,7.88-31.45,1.12-2,2.42-3.9,3.65-5.83.62-1,3.59,16.33,6.88,23.2,4.09,8.54,10.58,15,18.43,20,3.76,2.41,7.83,4.34,11.76,6.49.17.09.33.21.64.4C219.83,235.71,213.21,247,210.47,260.62Z"/><path class="cls-5" d="M332,226c3.12-1.65,6.1-3.09,8.95-4.76,8.13-4.74,15.19-10.67,20.08-18.86,4.59-7.68,8.05-27.41,8.7-26.47,6.54,9.57,10.88,19.93,11.5,31.65.64,12-2.76,22.87-9.41,32.77a74.48,74.48,0,0,1-20.35,19.88,7.39,7.39,0,0,1-.66.34C348.09,247.05,341.51,235.74,332,226Z"/><path class="cls-6" d="M107.1,312l1.1-.65,1.36-4.27-.65-.65H81.25l2.52-7.65h33.77a2.54,2.54,0,0,1,1.45.46,4.41,4.41,0,0,1,1.18,1.18,4.16,4.16,0,0,1,.65,1.55,3.52,3.52,0,0,1,0,1.62l-2.85,8.69c-.18.61-.34,1.12-.49,1.5s-.27.69-.38.93a2.31,2.31,0,0,1-.33.54q-.16.2-.33.36l-.1.05a1.1,1.1,0,0,0,.21.5c.15.21.29.45.44.71a4.36,4.36,0,0,1,.36.76,1,1,0,0,1,0,.71l-3.11,9.73a5.2,5.2,0,0,1-1,1.61,9.51,9.51,0,0,1-1.66,1.56,12.13,12.13,0,0,1-1.94,1.18,4.28,4.28,0,0,1-1.81.46H72.67L79.45,312ZM84.91,325.26h19.24l1.09-.66,1.43-4.26-.39-.44H86.66Z"/><path class="cls-6" d="M117.32,332.91l11.1-34.1H138l-8.64,26.45h25.8l-2.46,7.65Z"/><path class="cls-6" d="M178.15,298.81,169.63,325h20.49l8.53-26.23h9.67l-9.12,28a7.35,7.35,0,0,1-1.53,2.62,10.18,10.18,0,0,1-2.36,1.94,10.5,10.5,0,0,1-2.76,1.18,11,11,0,0,1-2.76.38H164.87a9.07,9.07,0,0,1-2.62-.36,5,5,0,0,1-2-1.09,3.39,3.39,0,0,1-1.07-1.88,5.73,5.73,0,0,1,.25-2.79l9.12-28Z"/><path class="cls-6" d="M201.93,332.91,213,298.81h35.42l-2.51,7.65h-25.8L218.32,312h13.56l-2.57,7.87H215.76L214,325.26H239.8l-2.46,7.65Z"/><path class="cls-6" d="M322.5,322.47,343,298.81h10.22l-29.07,34.1h-9.68l-7-34.1h10.33Z"/><path class="cls-6" d="M366.22,298.81l-11.09,34.1h-9.62l11.09-34.1Z"/><path class="cls-6" d="M395.19,315.86l10.54,17.05H393.55l-8.26-13H373.65l-4.21,13h-9.62l11.1-34.1h9.62L376.22,312h11.64L405,298.81h11.86Z"/><path class="cls-6" d="M430,298.81l-11.1,34.1h-9.62l11.1-34.1Z"/><path class="cls-6" d="M453.17,332.91,440,312.47l-6.67,20.44h-9.73l11.1-34.1h10.16l13.34,20.55,6.67-20.55h9.62l-11.1,34.1Z"/><path class="cls-6" d="M490.61,319.9l2.57-7.87h21.48l-4.81,14.76a7.35,7.35,0,0,1-1.53,2.62,10.13,10.13,0,0,1-2.35,1.94,10.64,10.64,0,0,1-2.76,1.18,11.09,11.09,0,0,1-2.76.38H475.53a9.19,9.19,0,0,1-2.63-.36,5.11,5.11,0,0,1-2-1.09,3.38,3.38,0,0,1-1.06-1.88,5.59,5.59,0,0,1,.24-2.79l7.11-21.86a7.86,7.86,0,0,1,1.55-2.79,9.21,9.21,0,0,1,2.3-1.89,10.75,10.75,0,0,1,2.73-1.09,11.86,11.86,0,0,1,2.87-.35H519l-2.57,7.87H486.24l-6,18.36h20.5l1.64-5.14Z"/><path class="cls-7" d="M241.75,281.32c-7.09,0-14.19,0-21.28,0h-1.69c-.92-11.78.71-23,6.12-33.47,6.71-13,16.63-22.93,29.74-30.36,3.76,7.34,7.67,14.44,11.06,21.77s6.22,14.82,9.25,22.14q-1.89-24.49-6-49.2a56.48,56.48,0,0,1,24.95,0c-1.14,8.28-2.36,16.44-3.36,24.62s-1.77,16.39-2.42,24.64a245.66,245.66,0,0,1,20.48-43.75,72.31,72.31,0,0,1,27.58,26.66c6.73,11.36,9.11,23.68,8.05,37H321.57c-26.7,0-35.21,29.27-40.07,29.17C277,310.39,267.11,281.5,241.75,281.32Z"/><path class="cls-7" d="M210.9,260.68a76.88,76.88,0,0,1-20.07-19,53.72,53.72,0,0,1-10.33-28.51c-.64-11.3,2.4-21.69,7.89-31.45,1.12-2,2.42-3.89,3.65-5.83.62-1,3.59,16.33,6.88,23.2,4.09,8.55,10.58,15,18.42,20,3.76,2.42,7.84,4.34,11.77,6.49l.64.4C220.26,235.76,213.64,247,210.9,260.68Z"/><path class="cls-7" d="M332.42,226c3.12-1.65,6.1-3.09,8.95-4.75,8.13-4.75,15.19-10.68,20.08-18.87,4.59-7.67,8.05-27.41,8.7-26.46,6.53,9.56,10.88,19.93,11.5,31.64.64,12-2.76,22.87-9.41,32.77a74.51,74.51,0,0,1-20.35,19.89,5.67,5.67,0,0,1-.66.33C348.52,247.1,341.94,235.8,332.42,226Z"/><path class="cls-6" d="M78.66,377.22,93.56,360H101l-21.15,24.8h-7L67.69,360H75.2Z"/><path class="cls-6" d="M121.43,384.81l8.06-24.8h25.76l-1.83,5.56H134.66l-1.31,4.06h9.86l-1.87,5.72h-9.86l-1.27,3.9H149l-1.79,5.56Z"/><path class="cls-6" d="M198.17,384.81,188.56,370l-4.85,14.86h-7.08L184.7,360h7.39l9.7,14.94L206.64,360h7l-8.06,24.8Z"/><path class="cls-6" d="M244.12,384.81l6.24-19.24H241.3l1.83-5.56h25.75l-1.83,5.56h-9.7l-6.24,19.24Z"/><path class="cls-6" d="M305.33,360l-6.2,19.08H314l6.2-19.08h7l-6.64,20.35a5.48,5.48,0,0,1-1.11,1.91,8.23,8.23,0,0,1-1.71,1.41,8.07,8.07,0,0,1-4,1.13H295.67a6.78,6.78,0,0,1-1.91-.26,3.85,3.85,0,0,1-1.47-.79,2.51,2.51,0,0,1-.78-1.38,4.21,4.21,0,0,1,.18-2L298.33,360Z"/><path class="cls-6" d="M373.37,370.34c.45-.13.72-.29.8-.47l1.23-3.82a.36.36,0,0,0-.14-.3,2.63,2.63,0,0,0-.34-.18h-20l1.83-5.56H381.2a1.8,1.8,0,0,1,1.05.34,3.31,3.31,0,0,1,.86.85,3,3,0,0,1,.47,1.13,2.46,2.46,0,0,1,0,1.18L381,371.46a6,6,0,0,1-1.29,2.18,7,7,0,0,1-2,1.49,9.49,9.49,0,0,1-2.38.84,12.28,12.28,0,0,1-2.45.25l6.4,8.59h-9.58l-6.87-8.59h-4.26l-2.78,8.59h-7.11l4.69-14.47Z"/><path class="cls-6" d="M406.32,384.81l8.07-24.8h25.75l-1.83,5.56H419.55l-1.31,4.06h9.86l-1.87,5.72h-9.86l-1.27,3.9h18.76l-1.79,5.56Z"/><path class="cls-6" d="M469.08,375.35a4.85,4.85,0,0,1-1.58-.26,2.48,2.48,0,0,1-1.17-.81,2.77,2.77,0,0,1-.53-1.45,5.28,5.28,0,0,1,.33-2.21l2.31-7.11a3.08,3.08,0,0,1,.71-1.18,10.27,10.27,0,0,1,1.24-1.13,7.34,7.34,0,0,1,1.41-.85,3.1,3.1,0,0,1,1.29-.34h25.4l-1.83,5.56h-21l-.79.48-1,3,.4.44H490.9a4.48,4.48,0,0,1,1.56.26,2.43,2.43,0,0,1,1.73,2.26,6,6,0,0,1-.31,2.21l-2.31,7.11a3.94,3.94,0,0,1-.71,1.17,7,7,0,0,1-1.22,1.14,8,8,0,0,1-1.41.85,3,3,0,0,1-1.31.34h-25.4l1.79-5.56h20.95l.79-.48,1-3-.4-.44Z"/><polygon class="cls-7" points="503.91 348.83 66.94 348.83 68.68 343.53 505.49 343.53 503.91 348.83"/></svg>