<?xml version="1.0" encoding="UTF-8"?>
<svg id="Layer_1" data-name="Layer 1" xmlns="http://www.w3.org/2000/svg" viewBox="0 0 576 576">
  <defs>
    <style>
      .cls-1 {
        stroke: #f1185c;
        stroke-miterlimit: 10;
        stroke-width: 39.77px;
      }

      .cls-2 {
        fill: #fff;
      }

      .cls-2, .cls-3, .cls-4 {
        stroke-width: 0px;
      }

      .cls-3 {
        fill: #f1185c;
      }

      .cls-4 {
        fill: #6b09b8;
      }
    </style>
  </defs>
  <rect class="cls-3" x="227.02" y="165.3" width="120.34" height="28.31"/>
  <path class="cls-1" d="m439.5,263.65c-3.97-5.09-11.56-11.15-25.16-11.15h-1.92c-.08-2.8-.28-5.55-.55-8.27-6.33-62.33-59.1-111.11-123.05-111.11-59.18-.03-108.76,41.75-120.88,97.37-1.56,7.23-2.47,14.59-2.71,21.99h-2.88c-13.6,0-21.19,6.06-25.16,11.15-4.08,5.22-8.2,14.43-4.64,28.65l10.88,43.21c4.71,18.69,18.52,29.84,36.99,29.84h7.04c15.84,46.6,55.33,79.67,101.52,79.67s85.73-33.07,101.56-79.67h5.66c18.47,0,32.28-11.13,36.99-29.79l10.94-43.21c3.59-14.24-.53-23.45-4.61-28.68Zm-242.27-11.15c-1.85,3.36-3.58,6.8-5.17,10.3-.12-2-.19-4-.19-6.01,0-1.14,0-2.25.07-3.42-.02-.29-.02-.57,0-.86.1-2.59.3-5.14.61-7.67h0c.62-4.86,1.61-9.66,2.96-14.36.02-.08.04-.16.06-.24,14.69-51.5,68.34-81.34,119.83-66.65,36.8,10.5,63.99,41.66,69.4,79.54.37,2.57.63,5.18.79,7.81,0,.53.06,1.05.08,1.58.05,1.41.09,2.85.09,4.28,0,1.77-.05,3.53-.15,5.26-1.5-3.26-3.11-6.44-4.82-9.54-19.36-34.69-53.23-57.66-91.81-57.66s-72.39,22.96-91.76,57.64Z"/>
  <path class="cls-4" d="m440.2,263.35c-3.97-5.09-11.57-11.16-25.16-11.16h-1.92c-.08-2.79-.29-5.55-.55-8.27-6.34-62.35-59.1-111.14-123.06-111.14-59.18,0-108.76,41.78-120.87,97.39-1.58,7.23-2.49,14.59-2.74,21.99h-2.9c-13.6,0-21.19,6.07-25.16,11.16-4.07,5.26-8.2,14.45-4.63,28.68l10.94,43.2c4.71,18.65,18.53,29.79,36.99,29.79h7.01c15.84,46.6,55.33,79.67,101.54,79.67s85.69-33.07,101.54-79.67h5.67c18.46,0,32.28-11.14,36.98-29.79l10.94-43.2c3.57-14.23-.54-23.44-4.62-28.66Zm-242.25-11.16c-1.85,3.34-3.58,6.78-5.17,10.32-.13-2-.19-4.01-.19-6.01,0-1.13,0-2.25.06-3.4,0-.29,0-.58.05-.87.1-2.58.3-5.14.61-7.67h0c.6-4.85,1.56-9.64,2.89-14.34.01-.08.04-.17.07-.25,11.59-40.59,49.01-70.41,93.26-70.41s81.64,29.8,93.26,70.37c1.2,4.23,2.12,8.53,2.75,12.88.36,2.57.61,5.18.75,7.81.04.53.07,1.06.09,1.58.05,1.42.08,2.85.08,4.28,0,1.77-.05,3.53-.15,5.26-1.5-3.26-3.11-6.44-4.82-9.55-19.34-34.67-53.16-57.65-91.75-57.65s-72.44,22.98-91.78,57.66h0Z"/>
  <path class="cls-3" d="m423.78,289.22l-3.59,14.39c-.61,2.53-1.72,4.91-3.28,7,.44,2.45.33,4.97-.33,7.37l-3.76,14.44c-3.27,13.06-12.08,20.29-24.8,20.29,0,0-170.62,1.15-220.98.17-7.56-.15,1.5-19.09,3.92-26.57,1.36-4.15,16.02-3.32,16.02-3.32-3.67-.69-6.98-2.68-9.31-5.6-3.35-4.28-4.11-10.18-2.25-17.51l3.62-14.38c3.23-12.93,11.91-20.03,24.44-20.03l142.29-.26,60.42-.14c6.85,0,11.97,2.13,15.24,6.31,3.44,4.37,4.24,10.37,2.37,17.83Z"/>
  <polygon class="cls-2" points="255.69 345.23 323.52 345.23 327.12 330.85 259.29 330.85 255.69 345.23"/>
  <polygon class="cls-2" points="266.6 302.09 263.01 316.47 330.83 316.47 334.43 302.09 266.6 302.09"/>
  <path class="cls-2" d="m337.26,288.04l3.92-14.97-135.99.27c-9.02,0-14.74,4.79-17.17,14.37l-3.61,14.39c-2.39,9.59.93,14.38,9.97,14.38h40.73l-3.76,14.38h-54.25l-3.62,14.38h54.26c9.05,0,14.77-4.79,17.17-14.37l3.76-14.41c2.41-9.59-.92-14.38-9.97-14.38h-40.71l3.61-14.34,135.65.31Z"/>
  <path class="cls-2" d="m407.1,273.33h-54.27l-18.09,71.93h54.26c9.02,0,14.74-4.8,17.17-14.39l3.7-14.42c1.22-4.8-.44-7.19-4.98-7.19,4.51,0,7.36-2.4,8.55-7.2l3.57-14.39c2.43-9.57-.88-14.35-9.91-14.35Zm-14.5,57.53h-40.7l3.68-14.37h40.7l-3.68,14.37Zm7.3-28.77h-40.69l3.6-14.36h40.68l-3.59,14.36Z"/>
  <path class="cls-3" d="m363.41,367.69c-12.71,32.46-41.1,55.07-74.07,55.07h-1.34c-32.27-.75-59.88-23.16-72.38-55.07h147.78Z"/>
</svg>