<?xml version="1.0" encoding="UTF-8"?>
<svg id="Layer_1" data-name="Layer 1" xmlns="http://www.w3.org/2000/svg" viewBox="0 0 576 576">
  <defs>
    <style>
      .cls-1 {
        fill: #e7c7a0;
      }

      .cls-1, .cls-2, .cls-3, .cls-4 {
        stroke-width: 2.79px;
      }

      .cls-1, .cls-2, .cls-3, .cls-4, .cls-5 {
        stroke: #000;
        stroke-miterlimit: 10;
      }

      .cls-2 {
        fill: #deb39f;
      }

      .cls-3 {
        fill: #c17e52;
      }

      .cls-4 {
        fill: #9c5c2e;
      }

      .cls-5 {
        fill: none;
        stroke-width: 15.49px;
      }

      .cls-6, .cls-7 {
        stroke-width: 0px;
      }

      .cls-7 {
        fill: #b1b5ba;
      }
    </style>
  </defs>
  <path class="cls-6" d="m119.11,259.72l33.36,6.49-1.69,8.74-12.9-2.5-1.92,9.88,12.89,2.49-1.7,8.74-33.36-6.49,1.69-8.74,12.13,2.38,1.93-9.92-12.13-2.38,1.7-8.68Z"/>
  <path class="cls-6" d="m126.39,240.05l17.13,7.7c2.86,1.28,6.36,2.83,8.4-1.83s-1.43-6.09-4.3-7.36l-17.13-7.7,3.63-8.12,16.31,7.32c5.43,2.43,15.16,6.78,9.47,19.49-5.69,12.71-15.41,8.31-20.84,5.93l-16.29-7.28,3.61-8.15Z"/>
  <path class="cls-6" d="m162.44,183.93l26.58,21.19-5.56,6.95-13.58-10.84,4.99,13.67-1.59,1.94-14.49-1.87,13.65,10.88-5.56,6.95-26.52-21.17,5.51-6.9,16.94,2.14-5.85-16.04,5.5-6.9Z"/>
  <path class="cls-6" d="m205.97,188.27l-8.74,6.62,1.26,3.07-7.36,5.56-12.59-33.12,9.03-6.85,28.36,21.18-7.36,5.56-2.61-2.02Zm-6.36-4.95l-10.64-8.38,5.16,12.52,5.48-4.14Z"/>
  <path class="cls-6" d="m229.94,141.09l13.84,31.05-8.06,3.59-16.09-11.19,6.84,15.35-8.12,3.61-13.84-31.04,8.12-3.62,16.01,11.19-6.78-15.28,8.09-3.65Z"/>
  <path class="cls-6" d="m248.66,136.17l8.56,32.94-8.6,2.23-8.56-32.93,8.6-2.24Z"/>
  <path class="cls-6" d="m283.3,139.81l-7.55.79,2.59,25.33-8.82.91-2.61-25.36-7.54.79-.9-8.46,23.93-2.46.89,8.45Z"/>
  <path class="cls-6" d="m319.48,133.83l-11.26,19.18-1.36,13.71-8.85-.79,1.36-13.71-7.34-21,9.27.89,3.46,10.38,5.39-9.53,9.33.87Z"/>
  <path class="cls-6" d="m329.55,167.37l6.17-5.51c1.7,2.74,4.2,4.89,7.15,6.19,2.31.91,3.67.68,4.08-.36,1.42-3.59-12.77-9.48-8.79-19.57,2.08-5.29,7.94-7.48,14.93-4.72,3.93,1.52,7.28,4.25,9.58,7.79l-6.01,5.43c-1.76-2.31-3.86-4.48-6.66-5.56-1.95-.79-3.08-.37-3.42.48-1.46,3.71,13.09,8.68,8.89,19.33-2.33,5.89-8.21,7.79-15.26,5-4.38-1.62-8.11-4.6-10.66-8.51Z"/>
  <path class="cls-6" d="m389.71,178.64c-6.93,10.62-16.29,4.5-21.49,1.11l-.33-.21-4.77,7.28-7.44-4.86,18.58-28.46,7.67,5c5.24,3.46,14.7,9.61,7.79,20.15Zm-7.63-5.06c2.29-3.5-.61-5.39-2.8-6.82l-2.14-1.4-4.68,7.15,2.14,1.39c2.38,1.59,5.09,3.38,7.48-.29v-.02Z"/>
  <path class="cls-6" d="m403.66,186.05l-3.18,3.18,8.13,8.02-5.64,5.67-8.13-7.99-3.26,3.3,10.79,10.65-5.93,6.01-17.11-16.9,23.89-24.19,17.11,16.9-5.89,6-10.79-10.65Z"/>
  <path class="cls-6" d="m412.76,232.74l-6-9.2-3.18,1.03-5.04-7.71,33.9-10.25,6.17,9.47-23.08,26.83-5.04-7.72,2.25-2.45Zm5.38-6.01l9.09-9.96-12.84,4.23,3.75,5.73Z"/>
  <path class="cls-6" d="m429.99,252.69l-4.08-1.18-6.16,2.26-3.05-8.35,32-11.68,3.04,8.35-12.53,4.65,15.61,3.97,3.69,10.13-19.57-5.56-11.98,18.27-3.77-10.33,6.8-10.54Z"/>
  <path class="cls-6" d="m430.41,274.4l7.82,2.7c-1.54,2.82-2.2,6.03-1.89,9.23.33,2.46,1.21,3.53,2.31,3.38,3.82-.52,2.02-15.78,12.77-17.23,5.63-.79,10.4,3.27,11.41,10.72.6,4.19-.14,8.46-2.11,12.2l-7.7-2.59c1.16-2.67,2.02-5.56,1.59-8.53-.29-2.07-1.18-2.88-2.09-2.76-3.97.54-1.18,15.67-12.52,17.2-6.28.85-10.8-3.35-11.82-10.87-.72-4.61.06-9.33,2.22-13.47Z"/>
  <path class="cls-7" d="m357.41,198.9l-.6-.66.6.66Z"/>
  <path class="cls-7" d="m173.4,373.85l-.38-.55.38.55Z"/>
  <path class="cls-7" d="m400.92,243.78l-.25-.11.06-.26c.11.1.18.23.2.37Z"/>
  <path class="cls-1" d="m402.65,369.29c-2.21,1.14-2.89,3.23-4.15,4.95-1.49,2.21-3.92,3.97-4.46,6.63-2.18.5-2.86,2.08-3.53,3.67-1.68,1.69-4.04,2.95-4.5,5.39-2.21.64-3.46,2.22-4.85,3.66-.97,1.59-3.31,2.26-3.72,4.23-1.66.28-2.6,1.32-3.47,2.44l-6.89,4.77-1.5.21c-4.66-.67-9.32-1.39-13.99-1.95-1.98-.25-2.27-.87-.99-2.07,4.94-4.62,5.83-10.22,5.71-16.25-.14-6.46,1.34-12.81,2.72-19.14.57-2.64,1.98-3.66,5.28-3.38,13.05,1.13,26.13,2.03,39.2,3,.33,1.44-.89,2.51-.87,3.82Z"/>
  <path class="cls-3" d="m344.6,186.76c-.36,18.04-1.04,36.08-.3,54.13.05,1.11.61,2.62-.42,3.26s-2.09-.54-2.99-1.16c-9.53-6.55-20.22-9.53-31.38-11.12-3.67-.48-7.39-.27-10.98.62-2.06.49-3.08.15-3.35-2.45-1.17-11.04-1.59-22.13-2.31-33.21-.49-7.67-.79-15.36-1.14-23.04l3.88-.27,3.05.06c1.33.9,2.82.7,4.29.67l3.05.09c1.23.3,2.38.9,3.73.69,1.04,1.14,2.38.54,3.61.68,1.23.29,2.38.91,3.72.71l3.06.69,3.71,1.32,3.61.71c1.04.88,2.35,1.36,3.71,1.36.85,1.02,2.03.59,3.07.73.83,1.49,2.38,1.54,3.73,1.92l3.57,1.36,3.09,2.26Z"/>
  <path class="cls-4" d="m348.57,261.26c-.7,1.4,1.75,1.53,2.73,1.98,2.17.99,4.4,1.86,6.24,3.36,3.35,2.74,3.13,8.64-.35,11.19-1.02.74-6.63-1.14-9.33-1.76-1.89-.44,1.64,1.87,2.55,2.22,1.91.73,3.9,1.3,5.83,2,3.18,1.14,6.15,2.45,6.15,6.28.15,4-2.35,7.62-6.14,8.9-.72.4-1.56.48-2.34.24-2.11-.56-4.26-.92-6.43-1.1-.64-.1-1.47-.3-1.64.49s.7.89,1.32.99c1.94.29,3.88.56,5.82.79,6.57.79,9.95,4.63,8.15,9.33-1.04,2.88-3.59,4.94-6.63,5.35-8,1.51-16.26.88-23.95-1.8-7.05-2.49-14.42-2.07-21.45-.37-4.44,1.07-8.36,2.09-13.03,2.11-5.69,0-9.9-2.2-12.62-6.87-1.05-1.8-1.99-3.71-3.74-5.01-1.28-.95-1.26-1.89-.79-3.18,6.86-19.8,7.57-40.18,6.36-60.74-.08-.71-.23-1.42-.44-2.1-.32-1.12-.06-1.95,1.33-1.71,4.64.79,9.06-.79,13.61-.92,11.95-.24,23.76,2.59,34.3,8.21,5.47,3.03,11.15,5.68,16.98,7.94,2.65.91,5,2.54,6.77,4.71,2.72,3.43,1.72,7.86-2.19,10.05-1.14.66-2.54.71-3.73.12-.99-.48-2.69-2-3.34-.71Z"/>
  <path class="cls-4" d="m208.81,203.85c6.84,2.98,13.95,5.31,21.23,6.95,2.84.63,3.46,1.74,2.11,4.07-5.65,9.55-9.81,19.9-12.34,30.7-.25.9-.6,1.76-1.05,2.58-2.65,5.51-3.83,5.68-10.12,3.88-11.65-3.33-23.46-6.23-34.95-10.06,0-.6,0-1.21-.05-1.8,2.61-1.06,2.99-3.43,3.97-5.43,1.99-1.97,4.14-3.87,4.36-6.76,1.96-.32,2.61-1.76,3.37-3.13,1.9-1.84,4.26-3.38,4.96-6.01,1.63-.21,2.98-1.38,3.42-2.97,1.74-1.18,3.52-2.33,4.33-4.27,1.72-.48,2.95-1.39,3.35-3.02,2.21-.6,4.04-2.16,4.97-4.26l2.42-.48Z"/>
  <path class="cls-2" d="m257.96,263c1.83.4,1.42-2.76,1.25-4.1-1.17-8.67,1.08-16.79,3.49-24.94,1.47-4.97,2.54-9.99,1.53-15.32-.58-3.09,1.18-3.97,4.5-2.88,8.29,2.74,10.96,12.24,8.91,19.44-3.25,11.34-3.69,22.94-3.65,34.61,0,1.36-.18,2.72.79,4.15.79,1.21.95-1.63.92-2.5-.44-12.22.21-24.32,3.54-36.15.97-3.05.9-6.33-.19-9.34-.22-.6-.62-1.52.25-1.95.64-.32,1.13.34,1.59.73,5.07,4.34,8.43,9.25,8.37,16.68-.12,16.68-.39,33.26-3.86,49.62-1.69,7.97-5.7,15.25-11.53,20.94-2.53,2.53-4.43,5.61-5.56,9-.79,2.38-1.76,4.77-2.55,7.15s-2.92,3.48-4.88,2.71c-9.38-3.68-19.34-3.18-29.02-4.77-3.33-.52-6.51-1.88-9.93-1.98-1.26,0-1.82-.6-1.74-1.98.68-11.74-3.13-22.53-6.7-33.36-5.77-11.92-13.5-33.36-10.53-37.69-.38-1.95,10.81,3.18,11.78.99,1.59-3.8,2.75-7.77,3.46-11.83.94-4.96,2.46-9.79,4.52-14.39,2.32-5.07,4.41-10.26,6.7-15.34,3.1-6.87,9.1-8.33,14.85-3.69,1.46,1.18,1.93,2.55,1.81,4.66-.48,8.74-3.57,16.68-6.89,24.57-1.88,4.37-3.19,8.97-3.9,13.68-.1.68-.61,1.66.31,1.94,1.05.31.95-.79,1.07-1.48,1.51-7.63,4.41-14.76,7.24-21.92,1.81-4.86,2.98-9.93,3.49-15.09.47-3.88,2.26-5.06,5.95-4.25,6.22,1.37,9.4,5.69,9.66,13.14.14,4.25-.55,8.48-2.04,12.46-3.31,8.89-3.97,18.1-3.51,27.47.04.25-.06.85.49,1Z"/>
  <path class="cls-2" d="m217.09,412.78c-.88-.68-1.66-1.59-2.92-1.38-.17-2.07-2.24-2.25-3.08-3.65,2.09-8.89,3.57-17.92,4.42-27.01.17-2.06.43-2.77,2.5-1.59,4.81,2.73,10.04,4.36,15.26,5.93,4.49,1.21,8.84,2.85,13.01,4.9,3.04,1.57,6.4,2.4,9.81,2.43,2.29.05,2.86,1.2,3.18,3.37.79,5.56.56,11.22.79,16.83.29,6.36.28,12.77.4,19.15-3.92-.09-7.51-1.78-11.12-2.94-5.57-1.76-10.97-4.02-16.12-6.77-.66-.26-1.35-.43-2.06-.51-.81-.72-1.82-1.18-2.9-1.31-.14-.54-.29-1.07-.84-1.28-3.81-1.41-6.68-4.54-10.34-6.17Z"/>
  <path class="cls-1" d="m236.08,356.58c-6.82-1.33-13.83-1.59-20.57-3.4-2.29-.61-4.65-1.13-6.45-2.86-1.94-1.87-3.62-3.84-2.84-6.72.91-3.36,3.18-5.71,6.32-7.29.58-.27,1.27-.18,1.76.24,6.03,3.69,29.61,8.13,34.09,8.04,2.31-.05-2.09-2.16-3.18-2.51-5.87-1.87-12.06-1.88-18.09-2.84-4.62-.73-9.08-1.88-12.92-4.66-1.67-1.07-2.94-2.67-3.59-4.55-1.54-5.12,2.38-9.67,7.81-8.91,10.43,1.45,20.71,3.88,31.32,4.02,3.61.05,6.92,1.72,10.39,2.59,4.49,1.12,10.18-13,11.63-12.07,7.87-1.29,15.24,14.13,20.92,20.35,1.05.86,1.95,2.1,3.18,2.54,4.26,1.54,4.23,4.26,3.04,7.83-1.1,3.3-1.33,6.82-1.51,10.33-.58,11.96-1.28,23.92-1.74,35.88-.11,2.74-2.11,2.51-3.67,2.76-4.91.77-9.92.73-14.82-.13-7.83-1.31-15.76-1.18-23.61-2.03-1.16-.09-2.29-.36-3.37-.79-7.55-3.54-15.75-5.2-23.66-7.71-4.42-1.41-8.74-3.09-12.43-5.92-2.59-1.99-4.46-4.41-3.88-7.88.32-1.91.99-2.68,3.4-1.95,9.65,2.88,19.68,4.61,28.82,9.06.28.09.58,0,.75-.25.79-1.29-1.67-1.64-2.65-2.09-7.48-3.46-15.5-5.23-23.44-7.29-2.38-.62-4.95-.7-6.95-2.49-3.13-2.82-2.92-9.34.46-11.81.49-.4,1.17-.5,1.76-.25,7.41,2.69,30.19,7.27,33.29,5.46.21-.17-6.12-2.02-9.57-2.69Z"/>
  <path class="cls-3" d="m338.79,382.59c-2.5,7.15-2.42,24.37-3.01,28.07s-2.88,5.16-6.36,4.44c-4.07-.84-6.94-5.25-6.93-9.45,0-6.79,1.14-13.5,1.49-20.23.07-1.44-.68-6.65-1.3-4.54-.49,1.66-1.67,16.68-1.37,21.62-.01,1.67-.28,3.32-.79,4.91-.46,1.83-1.78,3.01-3.57,2.89-5.85-.41-10.33-3.5-9.53-10.84.79-7.66,1.97-15.3,1.4-23.04-.04-.5.1-1.53-.79-1.4-1.37.21-.64,2.23-.62,3.34.12,6.9-.79,13.7-1.49,20.54-.29,2.77-1.54,4.55-4.28,4.85s-4.77-1.1-5.85-3.63c-1.21-2.79-1.69-5.84-1.41-8.87.95-11.53,1.65-23.09,1.88-34.65.16-7.94,2.38-15.41,4.19-23.04,1.59-6.69,3.42-14.55,2.97-21.45-.1-1.59,2.88-2.18,4.57-2.69,5.47-1.64,7.58-1.59,12.15-1.84,3.68-.17,7.15-.23,10.55,1.06,5.62,2.13,12.62,3.88,18.64,3.77,1.26,0,1.34.29,1.54,2.12,1.25,11.44,6.26,20.58,11.12,30.69.86,1.78,1.74,3.54,2.48,5.38,1.33,3.28,1.06,11.75-.17,15.19-1.47,7.94-12.12,41.81-13.25,44.03-1.93,3.52-4.23,4.99-7.72,4.29-4.66-.93-6.23-2.08-5.56-7,.96-6.9,2.22-13.8,2.16-20.82.04-1.12-.42-5.82-1.14-3.71Z"/>
  <path class="cls-6" d="m232.59,342.6c1.1.14,2.22.2,3.33.16.96.1,1.9.34,2.8.71.93.29,1.95.22,2.84.57.92.4,1.93.57,2.94.49.61-.02,1.1-.5,1.11-1.11,0-.61-.5-1.1-1.11-1.1-.87.05-1.73-.12-2.52-.48-.48-.14-.98-.22-1.49-.24-.47-.06-.93-.17-1.38-.33-.92-.36-1.89-.6-2.88-.71-1.02.03-2.04,0-3.06-.1-.59-.14-1.19.21-1.36.79-.16.59.2,1.2.79,1.36,0,0,0,0,0,0h0l-.02-.02Z"/>
  <path class="cls-6" d="m226.27,358.52c1.87.06,3.73.28,5.56.66,1.82.41,3.69.58,5.56.5.6-.02,1.09-.51,1.1-1.11,0-.61-.5-1.1-1.1-1.1-1.81.08-3.63-.09-5.4-.49-1.89-.4-3.81-.62-5.74-.67-.6.04-1.06.57-1.02,1.17,0,0,0,0,0,.01h0c.05.54.48.97,1.02,1.02l.02.02Z"/>
  <path class="cls-6" d="m337.19,388.43c.65,4.44-.98,8.87-1.1,13.31.05.61.59,1.07,1.2,1.01.54-.05.97-.47,1.01-1.01.13-4.67,1.72-9.19,1.02-13.9-.12-.61-.71-1-1.31-.89s-1,.71-.89,1.31c0,.05,0,.1,0,.14l.06.02Z"/>
  <circle class="cls-5" cx="287.61" cy="306.81" r="131.47"/>
</svg>