<?xml version="1.0" encoding="UTF-8"?>
<svg id="Layer_1" data-name="Layer 1" xmlns="http://www.w3.org/2000/svg" viewBox="0 0 576 576">
  <defs>
    <style>
      .cls-1 {
        stroke-width: 0px;
      }
    </style>
  </defs>
  <g id="Layer_1-2" data-name="Layer 1-2">
    <path class="cls-1" d="m286.92,450.6c-91.79,0-166.22-74.41-166.22-166.19,0-44.08,17.51-86.35,48.68-117.52,64.81-65.02,170.02-65.21,235.03-.42,65.02,64.79,65.21,170.01.43,235.03l-.4.41c-31.1,31.28-73.42,48.81-117.53,48.69Zm0-324.24c-87.15,0-158.08,70.9-158.08,158.08s70.9,158.01,158.08,158.01,158.08-70.87,158.08-158.01-70.89-158.08-158.04-158.08h-.04Z"/>
    <path class="cls-1" d="m279.91,315.76c-1.82,2.22-4.03,4.1-6.52,5.53-2.56,1.51-5.31,2.66-8.18,3.41-2.49.7-5.07,1.08-7.66,1.14h-115.51c-.31,0-.48-.17-.54-.53-.04-.23-.06-.45-.07-.68.09-.29.25-.56.46-.79.97-.89,2.06-1.65,3.22-2.27,1.85-1.12,4.81-2.76,8.88-4.92,4.06-2.17,9.83-5.12,17.29-8.86h67.62c.77-.04,1.54-.17,2.28-.39,1.01-.24,2-.57,2.96-.98.91-.38,1.78-.86,2.58-1.44.67-.41,1.1-1.12,1.14-1.9v-24.25h34.71v29.56c.01,2.69-.93,5.3-2.66,7.36Zm-51.47-44.32c-7.48-3.74-13.39-7.63-17.44-9.79s-6.99-3.83-8.86-4.93c-1.16-.61-2.26-1.35-3.26-2.2-.23-.21-.39-.49-.45-.79,0-.23.03-.46.07-.69.05-.35.23-.53.54-.53h58.49c2.59.05,5.16.44,7.66,1.14,2.88.75,5.64,1.9,8.2,3.41,2.49,1.44,4.7,3.31,6.52,5.53,1.72,2.06,2.66,4.66,2.66,7.35v1.37l-54.12.13Z"/>
    <path class="cls-1" d="m316.52,295.82c-3.04,0-6.07-.3-9.05-.91-2.79-.54-5.49-1.46-8.03-2.73-2.21-1.07-4.17-2.6-5.76-4.47-1.45-1.71-2.23-3.9-2.2-6.14v-2.73h127.35c4.15.81,7.46,2.28,9.93,4.39,2.4,1.96,3.77,4.91,3.71,8.01v17.13c.02,2.69-.93,5.29-2.66,7.35-1.82,2.22-4.02,4.09-6.5,5.53-2.56,1.51-5.3,2.66-8.17,3.43-2.49.7-5.06,1.08-7.65,1.14h-115.52c-.3,0-.48-.17-.54-.53-.04-.22-.06-.45-.07-.68.09-.29.25-.56.45-.79.99-.89,2.09-1.65,3.26-2.27,1.87-1.11,4.82-2.76,8.87-4.92s9.8-5.11,17.28-8.87h67.61c8.04-.16,8.62-2.7,8.63-3.79.05-2.11,0-8.19,0-8.19l-80.93.02Zm-25.02-25.9c-.02-2.69.93-5.29,2.66-7.35,1.82-2.22,4.03-4.09,6.52-5.53,2.56-1.51,5.31-2.66,8.18-3.41,2.5-.69,5.07-1.07,7.66-1.11h115.63c.21,0,.33.18.39.53.04.23.06.46.07.69-.07.3-.23.58-.46.79-.99.84-2.08,1.58-3.22,2.2-1.88,1.12-4.83,2.76-8.88,4.93-4.04,2.17-9.69,5.96-17.18,9.69l-111.35-.07-.02-1.35Z"/>
  </g>
</svg>