<?xml version="1.0" encoding="UTF-8"?>
<svg id="Layer_1" data-name="Layer 1" xmlns="http://www.w3.org/2000/svg" viewBox="0 0 576 576">
  <defs>
    <style>
      .cls-1 {
        fill: none;
      }

      .cls-1, .cls-2, .cls-3 {
        stroke-width: 0px;
      }

      .cls-4 {
        stroke: #90b297;
      }

      .cls-4, .cls-5 {
        stroke-miterlimit: 10;
        stroke-width: 1.75px;
      }

      .cls-4, .cls-2 {
        fill: #90b297;
      }

      .cls-5 {
        stroke: #2ebcbc;
      }

      .cls-5, .cls-3 {
        fill: #2ebcbc;
      }
    </style>
  </defs>
  <path class="cls-4" d="m180.15,302.92v8.87h-25.24c-2.42,0-4.81-.55-6.98-1.62-5.41-2.69-8.84-8.2-8.88-14.24v-33.94h8.88v34.84c.42,3.17,2.92,5.67,6.09,6.09h26.13Z"/>
  <path class="cls-4" d="m196.11,275.46v4.62h32.05v8.88h-32.05v9.42c0,2.52,2.04,4.57,4.56,4.58h36.4v8.88h-36.4c-7.4-.04-13.38-6.06-13.37-13.47v-22.91c0-7.42,5.99-13.44,13.41-13.46h36.4v8.88h-36.4c-2.53,0-4.58,2.04-4.59,4.56Z"/>
  <path class="cls-5" d="m269.1,262.03c13.75,0,24.9,11.15,24.9,24.9h0c.02,5.88-2.07,11.57-5.89,16.04-.44.53-.92,1.06-1.43,1.57-4.65,4.68-10.97,7.31-17.57,7.31h-24.91v-49.81h24.89Zm-16.04,40.92h16.04c8.85-.2,15.86-7.54,15.65-16.39-.2-8.56-7.09-15.46-15.65-15.65h-16.04v32.05Z"/>
  <path class="cls-5" d="m310,286.91c0,8.86,7.19,16.04,16.04,16.04h16v-9.51h-16.03v-8.94h24.9v27.34h-24.9c-13.76-.25-24.7-11.61-24.45-25.37.25-13.4,11.05-24.2,24.45-24.45h24.9v8.87h-24.9c-8.84.02-16,7.18-16.02,16.02Z"/>
  <path class="cls-5" d="m366.95,275.46v4.62h32.05v8.88h-32.05v9.42c0,2.52,2.04,4.57,4.56,4.58h36.39v8.88h-36.39c-7.42-.02-13.41-6.05-13.41-13.46v-22.91c0-7.42,5.99-13.44,13.41-13.46h36.39v8.88h-36.39c-2.51.01-4.55,2.05-4.56,4.56Z"/>
  <path class="cls-2" d="m154.4,374.5h0c2.52-2.52,6.61-2.52,9.13,0l52.2,52.21c2.52,2.52,2.52,6.61,0,9.13h0c-2.52,2.52-6.61,2.52-9.13,0l-52.2-52.2c-2.53-2.52-2.53-6.61-.02-9.13,0,0,.01-.01.02-.02Z"/>
  <path class="cls-2" d="m341.12,331.11c-2.84-1.96-6.58-1.17-8.85,1.85-.49.67-1.04,1.31-1.76,2.18-1.1-1.33-4.28-5.23-5.26-6.32-2.88-3.19-6.5-3.66-9.39-1.2s-2.98,6.13-.29,9.49c1.48,1.84,5.27,6.39,6.9,8.3-5.35,5.92-11.48,11.08-18.23,15.33-.47.3-1.99-.37-2.55-1-3.56-4.11-6.98-8.31-10.44-12.51l-.85-1.01c1.21,1.41-3.06-3.7-.11-.14l-1.7-2.02c-3.07-3.63-7.47-3.84-10.18-.64-2.19,2.55-1.92,5.9.75,9.13,7.81,9.43,1.27,1.51,9.09,10.93l3.52,4.24c-7.44,3.44-15.28,5.93-23.34,7.4-1.8.52-3.74-.19-4.78-1.76-8.7-10.62-11.82-14.32-20.59-24.87-.79-1.01-1.69-1.93-2.67-2.75-2.74-2.09-6.65-1.56-8.74,1.18-1.37,1.8-1.66,4.2-.75,6.28.52,1.06,1.18,2.05,1.95,2.94,6.68,8.06,7.64,9.27,14.37,17.33.64.8,1.28,1.65,1.92,2.48l-.27.79c-4.33-.58-24.12-2.55-34.66-3.71-1.85-10.31-1.95-20.87-.31-31.21.19-1.64-.14-3.3-.94-4.75-1.23-2.27-3.86-3.4-6.35-2.72-3.07.64-4.66,2.7-5.15,5.75-1.75,10.64-1.88,21.48-.36,32.16-17.92-2.09-49.74-3.26-62.27-.38-6.15,1.41-9.61,4.41-6.63,9.8,1.37,2.49,7.21,2.89,10.29,2.32,7.71-1.11,15.47-1.75,23.26-1.92,5.09.07,29.44,2.38,38.12,3.39.37,1.36.77,2.72,1.2,4.08,4.27,13.09,5.61,26.97,3.91,40.64-.13.99-.36,1.98-.59,3.24,0,0-3.19,13.74-3.83,15.8-.48,1.6-2.63,5.85-3.02,7.45-.57,2.31-1.7,4.73-1.19,7.07.5,1.09,1.29,2.04,2.27,2.73,4.74,3.33,7.98.91,10.3-4.41,10.4-23.91,12.29-48.53,4.93-73.49-.2-.68-.4-1.37-.59-2.04,14,1.81,37.27,3.05,46.67,1.81,25.39-3.39,47.75-13.41,65.7-32.08,4.82-5.02,8.98-10.71,13.17-16.29,2.03-2.66,1.52-6.47-1.15-8.5-.16-.12-.33-.24-.51-.35Z"/>
  <path class="cls-3" d="m237.54,238.42c2.67,2.19,6.46,1.7,8.98-1.1.55-.64,1.15-1.2,1.92-2.02.98,1.42,3.83,5.57,4.7,6.74,2.6,3.44,6.17,4.2,9.27,1.99s3.48-5.85,1.09-9.42c-1.32-1.96-4.72-6.79-6.18-8.87,5.84-5.45,12.41-10.06,19.51-13.72.48-.25,1.92.54,2.44,1.21,3.19,4.39,6.25,8.88,9.33,13.34l.75,1.08c-1.09-1.5,2.74,3.95.1.14l1.54,2.17c2.75,3.88,7.12,4.46,10.18,1.48,2.39-2.32,2.43-5.72,0-9.16-6.99-10.05-1.12-1.61-8.13-11.66l-3.21-4.51c7.7-2.81,15.73-4.63,23.88-5.42,1.85-.36,3.72.52,4.62,2.16,7.76,11.32,10.56,15.27,18.42,26.51.7,1.07,1.51,2.07,2.43,2.97,2.55,2.31,6.5,2.12,8.81-.44,1.52-1.68,2.01-4.05,1.28-6.2-.43-1.1-1-2.13-1.7-3.08-5.94-8.6-6.88-9.88-12.85-18.48-.59-.85-1.11-1.76-1.7-2.63l.34-.77c4.24.94,23.82,4.56,34.22,6.63.99,10.44.23,20.97-2.27,31.16-.32,1.62-.13,3.3.54,4.8,1.03,2.37,3.56,3.72,6.1,3.25,3.11-.38,4.87-2.29,5.62-5.29,2.65-10.45,3.68-21.25,3.08-32.01,17.69,3.62,49.3,7.45,62.03,5.65,6.24-.85,9.95-3.58,7.44-9.21-1.16-2.55-6.94-3.49-10.06-3.19-7.77.45-15.57.43-23.34-.06-5.05-.51-29.13-4.87-37.67-6.6-.25-1.39-.53-2.78-.85-4.17-3.15-13.41-3.31-27.35-.46-40.83.21-.98.52-1.92.85-3.19,0,0,4.36-13.41,5.14-15.43.64-1.55,3.11-5.6,3.64-7.17.76-2.26,2.11-4.56,1.78-6.94-.13-.85-1.36-2.34-2.04-2.92-4.44-3.71-7.87-1.58-10.61,3.51-12.39,22.91-16.36,47.33-11.12,72.8.14.69.28,1.38.41,2.08-13.8-2.99-36.88-6.19-46.35-5.74-25.59,1.2-48.72,9.33-68.17,26.41-5.23,4.6-9.86,9.91-14.5,15.13-2.3,2.45-2.18,6.3.27,8.6.16.15.33.3.51.43Z"/>
  <line class="cls-1" x1="415.4" y1="202.65" x2="416.77" y2="202.52"/>
  <rect class="cls-3" x="391.56" y="133.47" width="13.04" height="82.39" transform="translate(-28.4 258.88) rotate(-34.86)"/>
</svg>