<svg id="Layer_1" data-name="Layer 1" xmlns="http://www.w3.org/2000/svg" viewBox="0 0 576 576"><defs><style>.cls-1,.cls-2,.cls-3,.cls-4{fill:#2494fb;stroke:#2494fb;}.cls-1,.cls-2,.cls-3,.cls-4,.cls-5{stroke-miterlimit:10;}.cls-1{stroke-width:1.18px;}.cls-2{stroke-width:1.2px;}.cls-3{stroke-width:0.31px;}.cls-4{stroke-width:1.25px;}.cls-5{fill:#ef6356;stroke:#ef6356;stroke-width:0.13px;}</style></defs><path d="M87.7,240.52a17,17,0,0,1,17,17v62.36H93.4V257.52a5.67,5.67,0,0,0-5.7-5.65,5.67,5.67,0,0,0-5.65,5.65v62.36H70.7V257.52a5.58,5.58,0,0,0-5.65-5.65,5.67,5.67,0,0,0-5.7,5.65v62.36H48.05V257.52a17,17,0,0,1,17-17,16.22,16.22,0,0,1,11.3,4.34A16.41,16.41,0,0,1,87.7,240.52Z"/><path d="M123.06,319.88H111.71V240.52h11.35Z"/><path d="M164.07,319.88H152.72l-3.79-11.35-3.78-11.31-3.78-11.35v34H130.06V240.52h11.31v22.65l3.17-6.25,2.53-5.05,5.65-11.35h11.35l-5.65,11.35-5.7,11.3-3.83,7.71,1.12,3.64,1.73,5.66,1,3.17.79,2.52,3.5,11.35,3.55,11.31Z"/><path d="M195.59,274.52v11.35H182.42v22.66h13.17v11.35H171.07V240.52h24.52v11.35H182.42v22.65Z"/><path d="M236.65,263.17H225.3v-5.65a5.68,5.68,0,0,0-11.35,0v12.05a4.76,4.76,0,0,0,1.47,3.51,4.87,4.87,0,0,0,3.53,1.44h4.34a13.4,13.4,0,0,1,13.36,13.36v15a17,17,0,0,1-34.05,0v-5.66H214v5.66a5.44,5.44,0,0,0,1.66,4,5.51,5.51,0,0,0,4,1.66,5.67,5.67,0,0,0,5.65-5.65V290.82a4.76,4.76,0,0,0-1.45-3.5,4.84,4.84,0,0,0-3.55-1.45H216a13.38,13.38,0,0,1-13.36-13.35v-15a17,17,0,0,1,34.05,0Z"/><path d="M393.23,240.52a17,17,0,0,1,17,17v62.36h-11.3V257.52a5.68,5.68,0,0,0-11.35,0v62.36H376.23V257.52a5.69,5.69,0,0,0-9.7-4,5.45,5.45,0,0,0-1.65,4v62.36H353.57V257.52a17,17,0,0,1,28.31-12.66A16.41,16.41,0,0,1,393.23,240.52Z"/><path d="M428.59,319.88H417.24V240.52h11.35Z"/><path d="M469.59,274.52H458.24v-17a5.65,5.65,0,0,0-11.3,0v45.36a5.65,5.65,0,0,0,11.3,0v-17h11.35v17a17,17,0,0,1-34,0V257.52a17,17,0,1,1,34,0Z"/><path class="cls-1" d="M267,241.12A14.29,14.29,0,0,1,278.09,246a15.51,15.51,0,0,1-.22,21,15.27,15.27,0,0,1-21.71,0,15.49,15.49,0,0,1-.22-21A14.31,14.31,0,0,1,267,241.12Zm0,3.63a10.73,10.73,0,0,0-8,3.43,11.43,11.43,0,0,0-3.33,8.28,11.71,11.71,0,0,0,1.52,5.85,10.77,10.77,0,0,0,4.1,4.18,11.69,11.69,0,0,0,11.35,0,10.77,10.77,0,0,0,4.1-4.18,11.71,11.71,0,0,0,1.52-5.85,11.4,11.4,0,0,0-3.34-8.28A10.76,10.76,0,0,0,267,244.75Z"/><path class="cls-2" d="M289.37,241.87h3.77v5.25a15.77,15.77,0,0,1,5-4.51,12.25,12.25,0,0,1,6-1.49,10.34,10.34,0,0,1,5.83,1.67,9.91,9.91,0,0,1,3.76,4.5q1.22,2.82,1.21,8.81v15.09h-3.77v-14a34.36,34.36,0,0,0-.42-6.76,7.44,7.44,0,0,0-2.51-4.38,7.61,7.61,0,0,0-4.86-1.47,9.36,9.36,0,0,0-6.13,2.26,10.68,10.68,0,0,0-3.57,5.61,38.86,38.86,0,0,0-.54,8v10.75h-3.77Z"/><path class="cls-3" d="M267.79,318.58a8.89,8.89,0,0,1-4.3.9q-7.58,0-7.57-8.44V294H251v-3.94h4.95V278l4.61-1.49v13.53h7.26V294h-7.26v16.24a6.68,6.68,0,0,0,1,4.13,3.9,3.9,0,0,0,3.26,1.24,4.84,4.84,0,0,0,3-1Z"/><path class="cls-4" d="M273.67,276.43h3.94v17.31a16.82,16.82,0,0,1,5.26-4.71,12.85,12.85,0,0,1,6.22-1.57,10.87,10.87,0,0,1,6.09,1.75,10.38,10.38,0,0,1,3.93,4.68c.84,2,1.26,5,1.26,9.22v15.75h-3.94v-14.6a37.45,37.45,0,0,0-.42-7.06,8,8,0,0,0-2.66-4.57,7.86,7.86,0,0,0-5.05-1.54,9.71,9.71,0,0,0-6.4,2.37,11.06,11.06,0,0,0-3.73,5.85,40.92,40.92,0,0,0-.56,8.33v11.22h-3.94Z"/><path class="cls-4" d="M334.59,308.71l3.32,1.74a18,18,0,0,1-3.78,5.18,14.88,14.88,0,0,1-4.81,3,16.74,16.74,0,0,1-6.06,1q-7.49,0-11.71-4.91a16.75,16.75,0,0,1-.65-21.48,14.64,14.64,0,0,1,12.14-5.8,15.1,15.1,0,0,1,12.5,5.94,16.65,16.65,0,0,1,3.38,10.47H311.37a12.51,12.51,0,0,0,3.41,8.74,10.85,10.85,0,0,0,8.14,3.41,13.11,13.11,0,0,0,4.55-.81,11.77,11.77,0,0,0,3.76-2.16A18.15,18.15,0,0,0,334.59,308.71Zm0-8.25a13,13,0,0,0-2.3-5,10.8,10.8,0,0,0-4-3,12.24,12.24,0,0,0-5.22-1.16,11.23,11.23,0,0,0-7.74,2.9,13.13,13.13,0,0,0-3.58,6.33Z"/><path class="cls-5" d="M507.81,240.9c6,.83,10,6.4,10,12.46v32.06a12.7,12.7,0,0,1-12.4,12.76,12.5,12.5,0,0,1-12.75-11.9c-.18-2.85-.09-5.71-.11-8.56a4.35,4.35,0,0,1,.22-.89h18.62V273h-18.7v-4h18.7v-3.77H492.69v-4.16h18.74v-3.77H492.84c-1.58-9.18,3.41-15.8,10-16.42A16.5,16.5,0,0,1,507.81,240.9Z"/><path class="cls-5" d="M490.6,320.11v-4.6h12V305.46c-.67-.15-1.37-.3-2.07-.47a20.16,20.16,0,0,1-15.37-19.42c0-2.79,0-5.58,0-8.37,0-1.63.68-2.77,2.41-2.75s2.37,1.19,2.37,2.81c0,2.73,0,5.45,0,8.17a15.32,15.32,0,0,0,30.63.36c.08-2.79,0-5.58,0-8.37,0-2,.85-3,2.37-3s2.42,1.07,2.39,3a99.6,99.6,0,0,1-.43,11.73c-1.08,7.71-7.67,14.29-15.4,15.91l-2,.41v9.91h12.7v4.71Z"/></svg>