<?xml version="1.0" encoding="UTF-8"?>
<svg id="Layer_1" data-name="Layer 1" xmlns="http://www.w3.org/2000/svg" viewBox="0 0 576 576">
  <defs>
    <style>
      .cls-1 {
        fill: #fff;
      }

      .cls-1, .cls-2 {
        stroke-width: 0px;
      }

      .cls-2 {
        fill: #ea6307;
      }
    </style>
  </defs>
  <g id="Layer_2" data-name="Layer 2">
    <g id="Text">
      <path class="cls-2" d="m351.05,341.36c0,4.12-.26,4.5-3.36,5.42-30.05,8.99-60.08,18.01-90.11,27.04-1.74.52-2.9.16-3.82-1.24-3.27-4.84-4.95-10.59-4.78-16.43-.06-1.33.88-2.49,2.2-2.7,30.18-8.98,60.36-17.99,90.53-27.04,2.9-.87,3.49-.73,5.12,1.91,2.4,3.96,3.85,8.42,4.22,13.04Zm-94.78,31.2c1.33-4.97-2-15.65-5.31-17.39-1.44,4.14,1.6,14.28,5.31,17.39Z"/>
      <path class="cls-2" d="m298.06,338.53c-12.38,3.53-24.56,7.02-36.76,10.47-.65.13-1.32.09-1.94-.12-2.79-.78-5.54-1.74-8.35-2.44-1.18-.19-2.04-1.23-2.01-2.42-.33-6.12,1.52-12.16,5.23-17.03.72-.71,1.74-1.04,2.75-.87,13.53,3.95,27.04,8.02,40.51,12.07.2.1.39.22.58.36Z"/>
      <path class="cls-2" d="m301.98,361.29l10.06-2.86c8.56-2.42,17.11-4.88,25.69-7.23,1.15-.28,2.34-.28,3.49,0,2.56.61,5.04,1.5,7.59,2.17,1.25.2,2.16,1.29,2.13,2.56.25,6.05-1.53,12.01-5.04,16.94-.69,1.05-2.02,1.47-3.18.99-13.54-4.1-27.1-8.17-40.67-12.21l-.06-.36Zm46.89-6.17c-3.49,2.49-6.7,13.36-5.11,17.35,3.61-2.76,6.85-13.8,5.11-17.34h0Z"/>
      <polygon class="cls-2" points="180.88 157.2 407.73 158.15 407.73 160.34 180.88 159.39 180.88 157.2"/>
      <polygon class="cls-2" points="180.88 162.68 407.73 163.63 407.73 165.34 180.88 164.38 180.88 162.68"/>
      <polygon class="cls-2" points="456.55 156.66 482.82 155.22 483.49 160.78 453.65 162.96 456.55 156.66"/>
      <polygon class="cls-2" points="445.78 157.51 390.07 159.27 391.99 164.96 445.7 163.14 445.78 157.51"/>
      <polygon class="cls-2" points="131.89 156.21 105.66 154.31 105.66 158.84 136.52 162.12 131.89 156.21"/>
      <polygon class="cls-2" points="143.33 156.85 177.77 157.96 178.17 163.55 143.33 162.9 143.33 156.85"/>
      <path class="cls-2" d="m403.82,210.74c3.05,4.86,6.82,9.35,7.11,15.49.16,1,.46,1.97.87,2.89.88-.28,1.74-.64,2.56-1.07,1.4-.92,2.71-1.98,4.03-3.02s2.11-2.12,1.47-3.87c-.2-.49-.18-1.04.05-1.51,2.16-2.54.87-5.08-.87-6.57-5.23-4.61-8.11-10.4-9.72-16.94-.99-4.04-3.4-6.18-7.47-6.67-.96-.17-1.9-.41-2.83-.72v-23.03c.06-8.43-3.49-14.97-10.2-19.9-.42-.31-6.71-4.71-9.15-6.52-4.36-3.24-9.59-4.56-14.91-4.89-4.14-.36-8.29-.34-12.43.04-17.44,2.05-34.95,3.49-52,8.1-5.13,1.34-10.4,2.1-15.7,2.28-17.71.71-35.44,1.06-53.26,1.53l1.9-19.5c-.31-.12-5.58,3.94-8.15,6.31-.77-4.44-1.47-8.52-2.22-12.92-.59.42-8.51,15.24-8.84,18.46-.51,5.08-3.07,7.38-7.08,9.71-4.23,2.45-8.26,4.86-13.15,5.9-4.33.83-8.8.6-13.02-.68-.5-.15-.97-.38-1.39-.7-3.19-2.44-3.38-2.43-5.49,1-1.06,1.74-3.79,5.01-3.28,6.26.94,2.28,1.7,5.03,3.43,6.53,8.72,7.56,17.44,15.16,26.75,22,9.25,6.68,19.57,11.73,30.52,14.93,2.35.72,4.69,1.48,6.98,2.22-1.37,7.26-4.36,13.74-8.01,19.87-2.33,3.89-5.56,6.77-10.42,7.37-1.25.23-2.34,1.02-2.95,2.14-.29.75.59,2.35,1.4,3.06,2.53,2.22,5.01,5.09,8.98,2.62.17-.05.35-.05.52,0q5,.51,9.34-3.31c-.44,2.28-.47,4.76-1.42,6.8-1.01,2.2-2.19,4.51-4.82,5.62-1.02.44-1.6,1.92-2.99,3.7,4.01.87,7.39,2.45,10.54,2.09,2.55-.41,4.94-1.5,6.92-3.15,3.38-2.9,4.88-7.12,3.22-11.51-1.85-4.85-.59-8.35,3.49-11.15,2.62-1.81,5.33-3.49,7.91-5.32,3.87-2.78,7.62-5.73,11.53-8.46.86-.57,1.93-.73,2.91-.44,13.29,5.89,27.37,7.68,41.68,7.65,9.4,0,18.23-3.34,26.75-6.98,9-3.85,17.69-8.38,26.55-12.54.85-.35,1.79-.43,2.69-.24,7.98,1.59,15.01,6.26,19.55,13,1.42,2.3,2.62,4.73,3.57,7.26.74,1.79,1.37,3.63,1.89,5.49.87,2.82,1.81,5.63,2.39,8.51s.78,3.11,3.6,2.12c4.36-1.5,5.74-3.49,5.7-7.85,0-.34-.06-.82.13-1.01,3.11-3.08.6-5.49-.93-8.01-.39-.6-.87-1.13-1.42-1.57-3.41-2.95-2.99-6.94-2.79-10.9Z"/>
      <path class="cls-2" d="m403.5,130.48c-.64-.72-1.74-.79-2.46-.15-.05.05-.11.1-.15.15-.83.87-.55,1.81.28,2.69,2.08,2.19,2.55,4.28,1.51,6.44-1.24,2.42-3.84,3.84-6.55,3.58,1.13-2.59,1.01-5.55-.31-8.04-1.52-3.01-5.19-4.22-8.2-2.7-.22.11-.44.24-.64.38-2.62,1.92-2.87,5.62-.55,8.77.94,1.13,1.97,2.17,3.09,3.12-.74.26-1.51.4-2.29.41l2.48,3.35c2.26-.58,4.16-2,6.84-1.74,5.54.56,9.87-4.13,10.2-9.65.25-3.5-3.02-6.44-3.23-6.6Zm-10.55,11.14c-.31.62-.58.65-1.1.2-.89-.59-1.69-1.31-2.36-2.14-.31-.47-.58-.96-.81-1.47-.36-.92-.57-1.94.48-2.54.95-.6,2.19-.41,2.91.44,1.32,1.51,1.67,3.65.88,5.49Z"/>
      <path class="cls-2" d="m483.66,154.36c-1.6,0-2.9-.09-4.2,0-6.72.52-13.45,1.12-20.17,1.64-2.57.2-2.95-.28-2.29-2.73,1.48-5.62,3.01-11.23,4.47-16.86.18-.72,2.23-7.85-3.02-8.9-4.81-.94-6.88,4.71-7.45,7.11-1.31,5.58-2.92,11.08-4.42,16.62-.17.65-.41,1.3-.63,1.94-.99-3.56-1.6-7.22-1.83-10.91-.17-3.01-2.71-5.98-5.98-5.63-4.2.44-4.7,2.62-4.42,4.87.57,4.61,1.07,9.24,1.67,13.86.19,1.49-.24,2.09-1.81,2.13-8.62.19-17.23.4-25.84.63v2.2l36.63-1.51c-.29,1.91-.22,3.65-2.86,3.72-11.27.33-22.54.68-33.8,1.07v1.74l28.58-.77c.29,2.3.56,4.29.78,6.29.51,4.62,1.54,9.25,1.41,13.85-.28,9.52-1.16,19.05-1.81,28.56-1.34,19.5-2.67,39-4.01,58.5-1.02,15.17-2.02,30.33-3,45.5-.08,1.12-.17,2.23-.25,3.35,2.5.13,3.62-.59,3.71-3.1.2-5.49.75-10.98,1.12-16.47,1.01-15.12,2-30.21,2.98-45.28,1.35-20.27,2.76-40.54,4.09-60.81.55-8.49,1.11-16.94,3.7-25.15,1.6-5.08,2.85-10.29,4.25-15.44,1.85-6.81,3.61-13.64,5.59-20.41.5-1.74,1.66-3.99,3.24-3.71,2.62.46,1.86,3.95,1.41,5.73-2.37,9.44-5.04,18.81-7.55,28.21-1.54,5.76-3.4,11.48-4.36,17.34-.95,5.7-1.07,11.57-1.35,17.38-1.06,22.2-3.38,44.32-4.45,66.52-.7,14.64-1.99,29.25-3.01,43.88-.21,3.07-.36,6.1-.54,9.22,2.28.18,1.9-1.47,1.98-2.54.72-10.29,1.33-20.59,2.04-30.88,1.02-14.83,1.49-29.75,5.76-44.19.4-1.36-.52-3.15-.94-4.72-.31-1.19-1.21-2.35-1.15-3.49.76-13,1.61-26.01,2.49-39.01.27-4.1.26-8.28,1.06-12.27,1.08-5.46,2.88-10.78,4.25-16.19.38-1.52,1.13-1.89,2.62-1.98,6.34-.39,12.69-.87,19.02-1.39,2.91-.23,5.81-.57,8.91-.87-.21-2.45-.4-4.57-.58-6.66Zm-3.27,5.39c-6.72.45-13.44.99-20.16,1.5-1.67.12-3.35.22-4.95.32-.51-3.64,1.53-3.76,4.02-3.9,6.81-.38,13.6-1.04,20.39-1.53,1.06-.08,2.41-.65,2.76,1.16s-.38,2.34-2.05,2.45h0Z"/>
      <path class="cls-2" d="m457.95,128.75s3.81,1,3.41,4.26-6.54,24.6-6.54,24.6l-6.58,24.9-1.86,28.2-2.08,30.02-2.92,45.78-1.74,31-1.08.95s-9.38,3.59-9.12,2.17c.6-1.79,1.33-3.54,2.18-5.23l.98-11.53,5.44-75.81,3.27-52.52,8.35-30.32s4.35-16.06,8.29-16.47Z"/>
      <path class="cls-2" d="m429.43,320.62s-3.68,32.36-1.5,32.77,8.98,0,8.98,0c0,0,4.36-42.49,3.81-44.4s-11.29,11.63-11.29,11.63Z"/>
      <path class="cls-2" d="m104.37,160.05c3.1.31,6,.65,8.91.87,6.34.5,12.68.99,19.02,1.39,1.45.09,2.2.46,2.62,1.98,1.37,5.41,3.17,10.73,4.25,16.19.8,4,.79,8.17,1.06,12.27.87,12.99,1.74,26,2.49,39.01.06,1.13-.87,2.3-1.15,3.49-.42,1.56-1.34,3.35-.94,4.72,4.26,14.44,4.74,29.35,5.76,44.19.71,10.29,1.33,20.59,2.04,30.88.08,1.06-.31,2.72,1.98,2.54-.18-3.08-.33-6.16-.55-9.23-1.01-14.62-2.3-29.22-3-43.87-1.06-22.2-3.39-44.32-4.45-66.52-.28-5.81-.41-11.68-1.35-17.39-.98-5.86-2.83-11.56-4.36-17.33-2.52-9.4-5.23-18.78-7.56-28.22-.44-1.74-1.2-5.23,1.42-5.73,1.58-.27,2.74,1.99,3.24,3.72,1.98,6.77,3.74,13.6,5.59,20.41,1.4,5.15,2.62,10.35,4.25,15.44,2.62,8.2,3.15,16.66,3.71,25.14,1.32,20.28,2.73,40.54,4.09,60.82,1.01,15.09,2,30.18,2.97,45.27.37,5.49.92,10.98,1.12,16.48.09,2.49,1.2,3.22,3.71,3.1-.09-1.13-.17-2.23-.25-3.36-1.01-15.17-2.01-30.33-3-45.5-1.32-19.5-2.66-39-4.01-58.5-.65-9.51-1.53-19.03-1.8-28.55-.14-4.6.87-9.24,1.4-13.86.23-1.99.5-3.99.78-6.3l28.58.78v-1.74c-11.27-.39-22.54-.75-33.8-1.07-2.62-.07-2.62-1.81-2.87-3.72l36.67,1.51v-2.12c-8.62-.23-17.23-.44-25.84-.63-1.58,0-2.01-.64-1.81-2.13.59-4.61,1.1-9.24,1.67-13.86.28-2.28-.22-4.41-4.43-4.87-3.26-.35-5.81,2.62-5.98,5.63-.22,3.69-.83,7.35-1.82,10.92-.21-.65-.45-1.29-.63-1.95-1.51-5.53-3.11-11.04-4.42-16.62-.57-2.4-2.62-8.04-7.45-7.11-5.23,1.02-3.2,8.18-3.02,8.9,1.47,5.63,2.98,11.23,4.47,16.86.65,2.44.28,2.92-2.29,2.72-6.72-.51-13.45-1.12-20.17-1.64-1.3-.1-2.62,0-4.2,0-.24,2.02-.4,4.17-.61,6.59Zm1.74-3.7c.36-1.81,1.74-1.24,2.76-1.16,6.8.5,13.6,1.15,20.41,1.53,2.49.14,4.53.27,4.03,3.91-1.61-.1-3.29-.2-4.96-.32-6.72-.51-13.44-1.05-20.16-1.5-1.64-.11-2.37-.71-2.03-2.45h-.03Z"/>
      <path class="cls-2" d="m130.71,127.93s2.04-.41,4.9,5.72,12.12,45.9,12.12,45.9l4.49,61.05,7.14,79.89-9.72-3s-.41-9.69-.68-13.03-3.68-49.56-3.68-49.56l-2.86-45.09-2.32-29.42-12.11-46.33s-.75-5.31,2.72-6.13Z"/>
      <path class="cls-2" d="m159.12,318.37s3.67,32.36,1.5,32.77-8.99,0-8.99,0c0,0-4.36-42.49-3.81-44.4s11.3,11.63,11.3,11.63Z"/>
      <path class="cls-2" d="m158.41,360.06c90.16,31.76,180.06,31.95,270.14-.04l15.13,67.03c-49.18,17.6-99.11,27.14-150.13,26.7-51.03-.44-101.02-8.72-150.25-26.7,5.05-22.4,10.06-44.65,15.1-66.98Z"/>
      <path class="cls-2" d="m145.34,404.61l-37-15.59c1.69-1.48,2.96-2.56,4.19-3.69,6.04-5.49,12.07-11.01,18.13-16.46,1.13-1.02,1.32-2.08,1-3.77-2-10.82-3.9-21.66-5.83-32.5-.1-.55-.1-1.13-.19-1.99,17.37,8.16,35.21,15.26,53.44,21.25-1.74.36-3.49.77-5.18,1.09-5.23.97-10.47,1.93-15.74,2.84-1.14.2-1.86.66-2.22,2.29-3.36,15.15-6.76,30.28-10.2,45.39-.05.24-.17.46-.4,1.13Z"/>
      <path class="cls-2" d="m478.16,389.32l-36.63,15.43c-.33-1.53-.56-2.69-.82-3.85-3.24-14.26-6.51-28.5-9.7-42.78-.37-1.69-1.08-2.18-2.33-2.4-6.59-1.14-13.19-2.39-19.78-3.62-.37-.12-.72-.27-1.06-.44,18.3-5.75,36.18-12.76,53.51-20.99-.42,2.81-.73,5.23-1.16,7.66-1.64,9.09-3.31,18.16-5,27.23-.36,1.19.01,2.47.96,3.28,6.98,6.25,13.95,12.57,20.88,18.86l1.1.99.03.64Z"/>
      <path class="cls-2" d="m404.1,364.29l-1.74-9.98,19.29,3.91.1.4-17.64,5.67Z"/>
      <path class="cls-2" d="m165.4,358.27l19.19-3.91c-.56,3.28-1.1,6.49-1.69,9.98l-17.5-5.59c-.02-.17,0-.32,0-.48Z"/>
      <path class="cls-1" d="m193.64,383.03l.1.18.15.04.87.1.87.24.36.4.18-.1v-.14c2.62.67,4.48,2.83,6.03,4.91l.55.87c-.06.24.1.63.49,1.18.11,1.63.24,3.26.36,4.88l.15.04c-.08.33-.12.51-.2.87l-.37.81v1.2c-.31-.07-.48,0-.52.17.22,0,.38.19.37.41,0,.04-.01.08-.03.12-.32,1.12-.82,3.68-2.15,4.13v.6c-1.06,1.03-2.23,1.95-3.49,2.73-2.54,1.46-5.55,1.85-8.37,1.09l-1.85-.51c-1.04-.35-1.55-.53-2.62-.87l-.28.98c-.06.19-.24.24-.55.15.05.51.09.76.14,1.26l-.55.75.23.37-.72,1.92c-.15.75-.23,1.12-.37,1.87l-.47.47.24.37c-.07.22-.1.33-.17.56l-.44.32.24.38c-.19.67-.29,1-.49,1.67l-.19.1.11.18-.12.42-.32-.09c-.18,1.48.72,2.89,2.15,3.34l.13.18,1.16.17.48.13.24.37c-1.6.87-3.74,2.27-5.56,1.91-1-.19-2.62-.66-2.76-1.88l-.2.1-.32-.1-1.19-.66c-1,.5-2.16.58-3.23.24-1.76-.64-3.24-1.87-4.18-3.49l-.51-1.74.21-.09.63.21c1.1.36,3.01,1.12,3.85,0,.6-.85,1.07-1.78,1.38-2.77,0-.37,0-.56-.05-.93l.26-.83.75-1.29-.23-.38c.13-.38.18-.58.31-.97l.42-.78-.11-.19.04-.14.72-.68c-.31-.1-.44-.24-.37-.43l.37-.65.16-1.02.87-1.74c-.15-.05.1-1.03,0-2.01-.1-.74-.49-1.41-1.08-1.87l-.28-.7,2.67-1.6.47-.46.39-1.26c.31-.76.45-1.14.75-1.9v-.46l.45-.92.55-2.27.47-.44.2-1.16.28-.37c.45-1.27.87-3.42-.39-4.36l-.92-.14c-.08-.15-.12-.22-.2-.37l-1.4-.14.09-.28c2.44-1.25,4.97-2.08,7.71-1.24.34.1.65.6.97,1.5l.1.18h.14c1.15-.6,2.43-.9,3.72-.87l.39.26c.08-.35.85-.37,2.32-.05Zm-16.89,17.15l-.63.41.31.1c.06-.18.24-.23.54-.13l-.22-.37Zm2.42-.31l-.04.14.46.14.19-.09.04-.14-.16-.05h-.5Zm-4.66,15.78l.16.05.6-.28v-.14l-.76.37Zm.96-.31l.16.04.6-.27.16.04.09-.27-1,.45Zm2.4-1.1v.14l.72-.1.08-.28-.79.24Zm-.31,2.18l-.08.28.63.19v-.14l-.55-.33Zm1.32-2.78v.14l.31.09.2-.09v-.14h-.51Zm1.74-.71l.16.05.87-.19.08-.28c-.42-.02-.83.13-1.14.42h.03Zm12.26-24.95l-.69-.35-2.62,1.23c0,.3,0,.44-.06.74l-.32,1.13-.37.19v.46l-.87,2.48c-.21,1.15-.31,1.74-.51,2.88-.12.21-.18.31-.31.52-.06.46-.1.7-.17,1.16l-.13.42c-.04.17-.62.3-1.74.4,0,.05,0,.09,0,.14l.15.04,1.33-.07-.04.14-.31.51c-.19.65.63,1.25,2.45,1.74l.42.26.19-.1c1.09,0,2.9-.43,3.49-1.31.63-1.06,1.15-2.18,1.56-3.35,0-.36.04-.53.08-.87.13-.5.2-.75.34-1.26l.49-1.22v-.6l.31-.52c.12-1.64,0-4.01-1.92-4.6l-.21-.36-.51.17Zm-1.83-4.61l-.04.14,1.01.29.04-.14-1.01-.29Zm4.36,2.15v.14c.29.08.41.21.36.4l.15.04c0-.11,0-.17.08-.29l-.11-.17-.47-.12Zm.87.37c-.05.19.07.32.36.4h.15v-.14l-.51-.26Zm.73.2v.46l.58.16v-.46l-.58-.16Zm-2.34,11.58l-.19.1-.07.28.15.04.37-.2v-.14l-.26-.09Zm3.24-10.88l.21.36h.15l-.22-.36h-.14Zm1.18,9.94h.64l.72.33-.19-.51s0-.09,0-.14l.96-.65v-.14c-.47.43-1.1.65-1.74.6l-.38.51Zm2.25.58v.14l.98.55.07-.29-.87-.37-.17-.03Zm1.01-2.15c0,.11,0,.17-.07.28l.67-.13.07-.29-.67.14Z"/>
      <path class="cls-1" d="m212.89,387.7c.53.13,1.19.73,1.97,1.82.54-.55,1.29-.83,2.05-.78,2.67.56,5.12,2.13,5.62,4.98-.82-.39-1.22-.59-2.03-1-1.43-.17-2.22.08-2.35.74-.22,1.28-.44,2.56-.65,3.85-.07.34-.11.51-.18.87l-.39,1.14c-.04.49-.06.72-.1,1.21l-.37,1-.13,1.35c-.28,1.35-.43,2.02-.71,3.38.64,1.16,1.28,2.31,1.94,3.44,0,.11,0,.17-.05.29-.95.82-1.65,1.19-2.08,1.09l.16.22v.15c-.74.36-1.3,1.01-1.55,1.8-.17,1.13-.25,1.68-.43,2.81l-.52,2.49-.31-.06-.29,1.35v.87l-.19.1v.15c0,.73,0,1.11-.05,1.85l-.87,3.35c0,.18.04.28.07.46l-.28.53c.87,1.43,1.56,2.18,1.94,2.26.8.11,1.61,0,2.35-.31h.16c-.5,1.7-2.8,1.74-4.23,1.89l-.13-.17h-.17c-.78.42-1.66.61-2.54.54-1.09-.19-2.04-.84-2.62-1.79-.09.43-1.31.59-3.01.1-2.06-.58-3.86-1.82-5.15-3.53l-.63-1.09.19-.1,1.81,1.37c1.14,0,2.78-.27,3.13-1.58l-.12-.17c.08-.36.12-.53.2-.87l.46-.34-.09-1.26.19-.1c.1-.72.15-1.08.25-1.81,0-.11,0-.17.06-.29.4-2.06.98-4.09,1.74-6.04-.06-.38-.09-.57-.15-.93l.36-.87c.08-.59.11-.87.18-1.49l.11-.46c-.58-1.1-1.14-2.21-1.74-3.31,1.18-.87,2.76-1.8,3.38-3.21l.8-2.57-.04-1.4c.04-.17.06-.25.1-.43l1.44-3.89c-.35-.09-.35-1.06,0-2.91l.25-.39c.2-.87-.41-1.64-1.83-2.3l-.18-.04c-.63-.15-1.29-.02-1.83.34l.07-.28c1.46-1.55,3.76-2.17,5.81-2.32l1.2.31Zm-2.15,3.8c-.05.22.08.36.37.43h.15l.04-.18-.57-.24Zm-4.45,19.3s0,.1,0,.15l.31.07.65-.49v-.15l-.79.45-.17-.03Zm1.02-.7v.14l.31.07.59-.46v-.14c-.15,0-.35.12-.59.46l-.31-.07Zm.82,1.41v.15l.66.15c0-.11,0-.17.06-.29h-.72Zm1-2.83l-.25.38.31.07.09-.43-.15-.03Zm1.03-1l-.44.5-.06.29h.16l.46-.65v-.14h-.12Zm3.37-15.87v.14l1.1.1v-.14l-.63-.14-.47.04Zm-6.1,31.49v.14l.61.28c0-.18-.1-.31-.42-.38l-.19-.03Zm.55-.97l-.07.29.48.1v-.14l-.41-.25Zm3.87-16.18c-.1.17-.15.26-.25.43l.31.07c0-.18.06-.28.1-.46l-.16-.03Zm3.14-14.33l.23.35h.15l.06-.29-.44-.06Zm-2.71,13.82c-.1.17-.15.24-.25.4l.31.06.28-.38-.34-.08Zm-3.41,17.36v.15l.61.28h.16v-.14l-.6-.29h-.17Zm4.02-17.97v.15l.37-.22s0-.1,0-.15l-.37.22Zm3.06-13.23l-.06.29h.63v-.14l-.57-.15Zm-3.96,18.31v.14l.56-.32h-.16l-.4.18Zm-3.1,14.37c0,.11,0,.17-.06.29l.61.28-.55-.57Zm5.08-20.54l-.24.43v.14h.16l.47-.53-.38-.03Zm.54-.82l-.07.32h.48l.07-.32h-.48Zm-4.42,20.69l-.06.28.8.17.12.17h.16c0-.11.04-.17.06-.29l-.8-.17-.12-.17h-.16Z"/>
      <path class="cls-1" d="m237.06,392.23l.42.21.43-.08.25.33.34-.24c1.21.41,1.81.78,1.74,1.11h.72c0,.2.57.81,1.81,1.85v.25l-.14-.12-.55-.09v.11c.5.07.96.28,1.33.61.68-.26,1.26-.73,1.67-1.34.19,0,.73-.29,1.6-.92l.12.17c0,.33-.07.5-.11.83s-.16.5-.26.87l.12.17v.14l-.2.37c0,.24.04.36.07.6l-.17.12c0,.28,0,.43.06.71s-.06.44-.1.72l-.23.56c0,.28,0,.42.05.71l-.47,1.25.27.3c-.1.22-.14.33-.23.56l.12.17c-.11.37-.17.57-.28.95l-.04.29v1.28l-.17.13s0,.09,0,.14l.07.6c-.12.5-.19.74-.32,1.24l-.2,2.73c-.08.55-.32.8-.73.75h-.27v-.15h-1.11l-2.69-.37-.27-.34.25-.66c-.2,0-.29-.18-.25-.47.08-.48.21-.71.42-.68,0-.28,0-.42-.05-.71l.12-.87c0-.15.24-.26.67-.34l.13-.1v-.14h-.11l-.5.18c-.05-.46-.09-.7-.14-1.16l.38-.53c.46-2.63-.59-5.3-2.73-6.9l-.65.2-.53-.24c-1.74-.24-2.98.95-3.74,2.42,0,.24,0,.36.06.6l-.31.24c-.1.87-.16,1.37-.27,2.28-.24.42-.36.63-.6,1.05v.99c0,.4-.12.78-.22,1.29-.21,1.12-.92,3.89.29,4.67l1.24,1.94v.14c-1,.58-2.45,1.39-2.9,2.55l.09.17-.28.95v.14l-.09,1.28c-.3,1.06-.44,1.59-.73,2.62l.28.04c-.14.56-.21.83-.36,1.38,0,.24-.05.35-.1.58s0,.51,0,.87l-.21.56c-.05.57-.07.87-.12,1.42l-.14.12v.15c-.06,1.18-.37,2.88.3,3.92.7.72,1.62,1.18,2.62,1.3l.82-.17.46.22c1.34-.25,1.74-1.7,2.22-2.83l.66-.05-.53-.81c.05-.39.09-.58.15-.98.17-1.15.59-1.86,1.26-2.13l.36-.2s0-.1,0-.15l-1.19.67h-.17l.09-.58.29-.8-.05-.75h.16c0-.17-.05-.25-.1-.42l.4-.53c-.18,0-.28-.47-.28-1.33l-.18.12h-.16l-.14-.17h-.16l-.45.08c-.45-.81-1.04-1.54-1.74-2.15l-.78-1.16.47.08.76.26.32-.24.44.22c1.7.18,3.4.35,5.1.51l.93.24c0-.17,1.32,0,2.53-.35.66-.32,1.38-.52,2.11-.59v.14l.98-.17.74.1c1.27.19,2,1.49,2.36,2.62l-.5.09v.14c.32.04.46.16.44.35-.02.43-.33.79-.76.87h-.16c-.08-.72-.68-1.27-1.4-1.31l-1.06-.14c-1.6.32-2.15,2.01-2.34,3.44l-.24,1.84-.17.09h-.16l.14.17v.15l-.3.99.14.17h.16c-.24.87-.37,1.32-.62,2.2.04.17.07.27.1.45h-.16v2.32l-.29.95v1.28l-.43.68.33.04c-.07.51-.1.75-.17,1.26l-.33-.04v.14c.1.25.15.38.25.63-.21.72-.43,1.08-.65,1.05l-.33-.04-.29-.33h-2.43l-.47-.21-1.46-.06c-.96-.19-1.42-.36-1.4-.51h-1l-2.07-.46h-1.97v-.15l-.15-.17-1.29-.06c0-.14-.79-.56-2.44-1.26-1.33-1.51-3.54-3.61-3.54-5.83-.62-1.39-1.06-2.86-1.3-4.36-.13-1.66-.25-3.33-.37-5h.16l.44.23c-.44-.72-.57-1.58-.36-2.4h.16c0-.71-.07-1.06-.11-1.74v-.14l.31-.79-.28-1.09.18-.11v-.11c-.05-.43-.37-.78-.79-.87.08-.41-.16-.75-.72-1.03v-.11c.23-.32.62-.47,1-.39v-.15l-.31-.06-.81.29-.31-.06v-.14l2.92-2.07c.31-.8.58-1.19.82-1.14.07-.38.1-.58.18-.97l.52-1.08-.13-.17v-.1c.07-.55.47-1,1-1.15l-.08-.42c.52-1.23.99-3.12,2.22-3.8.74-1.94,2.42-3.25,3.97-4.51.27-.22.62-.32.97-.27l-.12-.17v-.15c1.27-.62,1.94-1.04,2.01-1.25,1.6-.27,2.28-.36,3.68-.53Zm-16.19,17.39v.14l.47.1c.01-.1.03-.19.05-.29l-.52.05Zm2.02-.76h.16l.36-.23h-.16l-.36.23Zm-.96,11.11v.15l.23.34v-.15l-.23-.34Zm3.57-11.67l-.05.29.49-.05v-.15l-.44-.09Zm-2.08,14.13v.14c.36.73.66,1.13.87,1.16v-.14l-.87-1.16Zm3.04-14.35l-.18.11v.1h.64v-.15l-.45-.07Zm1.15-.24v.14h.16l.65-.33h-.15l-.65.19Zm-3.78,22.91v.15l.65.11.53-.2.78.13.05-.29h-.13l-1.86.11-.03-.02Zm6.82-35.98v.15l.59.1s0-.1,0-.15l-.59-.1Zm-1.74,12.71l-.41.51h.16l.72-.46-.46-.05Zm-2.89,18.44l-.04.29c.47.6.72.87,1.19,1.5h.16c-.46-.72-.69-1.06-1.14-1.74l-.17-.04Zm3.75-18.85l.1.17v.1h.48c0-.11,0-.17.05-.29h-.16l-.47.02Zm-3.66,23.93h.17c.43-.2.91-.27,1.38-.22v-.1l-.32-.05c-.81.09-1.22.2-1.25.34l.03.03Zm8.23-36.74v.1l.59.1v-.11l-.59-.1Zm1.26-.24v.14h1.18v-.14l-.59-.1-.58.1Zm-.83,35.94v.15l.65.1v-.29l-.65.04Zm5.76-35.17v.15l1.25.48c0-.19-.33-.39-1.08-.6l-.17-.03Zm-4.41,34.79v.14l.49.07c0-.11,0-.17.04-.29l-.53.08Zm-.12.83v.14l.65.1v-.14l-.65-.1Zm1.94-7.63v.15h.16l.46-.09v-.29l-.62.23Zm-.66,6.82h.17l.32-.25h-.16l-.33.25Zm3.95-24.33l.13.17v.14l-.17.09.12.17.31.04-.12-.17s0-.07,0-.1l.21-.41-.48.07Zm-.16,1.13h.15l.35-.24h-.15l-.35.24Zm-1.56,15.33c0,.29-.22.41-.53.36l-.18.13s0,.07,0,.1h.16l.87-.58-.31-.02Zm2.67-16.57h.16l.35-.25h-.16l-.35.25Zm-2.4,18.07v.14l.6.09s0-.1,0-.15l-.6-.08Zm-.79,5.65h.16l.37-.24s0-.09,0-.14l-.52.38Zm2.21-7.92c0,.19-.2.26-.51.22,0,.05,0,.1,0,.15h.31l.37-.39-.17.03Zm-.31-.16h.17l.35-.25h-.16l-.36.25Zm2.42-16.24v.15h.15c.05-.36.65-.65,1.79-.87v-.14h-.15c-1.07.31-1.67.61-1.74.87h-.04Zm-2.62,18.79v.15l.64.09v-.15l-.64-.09Zm2.73-17.44s0,.07,0,.1l.61.09v-.11l-.61-.08Zm1.47-9.59s0,.1,0,.15l.59.08v-.14l-.59-.09Zm-2.92,23.63l.42.5c1.01-1.12,1.6-1.66,1.79-1.63.04.06.09.11.14.17l.43.05v-.14l-.43-.05v-.15l.87-.73h-.16c-.92.82-1.95,1.5-3.08,2.01l.02-.02Zm2.95-1.05s0,.1,0,.15h.31l.18-.13v-.14l-.5.12Zm1.34-1.7l-.39.54h.16c.3-.01.57-.21.66-.5l-.43-.04Zm-.18,1.41v.14l.87.12v-.15l-.87-.11Z"/>
      <path class="cls-1" d="m286.87,393.42c2.11.12,4.14.82,5.88,2.01,1.45,1.06,2.73,2.15,3.25,3.95l-.16.15h-.1l-2.54-.6c0,.22.99.52,2.99.87.12.82.17,1.22.3,2.04v1.32c0,2.62-1.88,4.58-3.7,6.24-.68,1.22-1.53,2.33-2.52,3.31v.29c.76,1.08,1.53,2.16,2.29,3.24-1.35.08-3.17.1-4.36.8l-.31-.3-.16.14v.29c1.46,0,2.19-.12,2.2-.24v-.3h.78l.63-.14.63.16h.16c0-.29.26-.44.78-.43,2.13,2.56,4.26,5.4,6.93,7.44h.48c.8-1,1.91-2.15,2.02-3.49l.42-3.79v-.87c-.25-.7-.38-1.05-.65-1.74.13-.46.18-.7.3-1.17l-.04-3.2-.31-.44v-.14c0-.19.15-.3.46-.3,1.53,0,3.06.04,4.6.05l.83-.18c.47.18.73.37.78.57l.04,1.31.31.43v.14l-.3.31c.08.4.11.61.18,1.01v1.02c.1.99.14,1.48.23,2.47.13,4.64-2.12,9.11-4.27,13.08l-.31.87v.44c.74.78,1.63,1.4,2.62,1.83.28.81.42,1.21.71,2.02.1,2.17-1.74,3.85-3.17,5.17l-1.81.87h-.5c-1.51-.17-2.56-1.74-3.33-2.89,0-.29-.22-.53-.66-.72h-.12c-1.5,1.15-3.25,1.95-5.11,2.32-1.25.68-2.6,1.15-3.99,1.4,0,.26-1,.5-2.83.52-3.77.04-7.51-1.89-10.78-3.77-1.82-1.54-3.28-3.46-4.27-5.63-.21-.87-.31-1.33-.51-2.22.14-1.21.21-1.82.36-3.04l.13-2.18c.51-1.01.77-1.53,1.27-2.55,0-.58.55-1.13,1.53-1.66,0-.3.65-.4,1.92-.33v-.15c-.94-.05-1.4-.17-1.4-.37l.35-.57h.31v.44h-.31l.3.31c0-.29.18-.43.5-.41-.1-.3-.16-.44-.27-.74l.99-.82h-.31s0-.1,0-.15c1.1-1.58,2.43-2.99,3.94-4.19v-.15c-1.4-2.25-2.79-4.71-3.03-7.43v-.44c.17-1.5,0-4.56,1.19-5.76h.44s0-.1,0-.15l-.44-.17c1.93-2.9,5.01-5.3,8.56-5.02Zm-10.47,25.67s0,.09,0,.14h.47v-.29l-.47.15Zm.99-.83c0,.19-.27.28-.79.25,0,.05,0,.09,0,.14.31,0,.46.13.45.31h.47l-.15-.15s0-.1,0-.15c0-.19.17-.29.49-.27v-.15h-.47Zm.82-10.47s0,.1,0,.15l.92.18h.15v-.15l-.76-.17h-.31Zm-.18,10.34s0,.09,0,.14l1.26.06,4.11-.43v-.14h-.16c-1.74.13-3.49.26-5.23.37h.03Zm1.53-19.6v.14l.87.04v-.15l-.87-.03Zm1.47-2.71l1.15.78h.15v-.44l-1.3-.34Zm-.87,28.82c-.08,2.52,1.18,4.89,3.31,6.24.83.52,1.76.84,2.73.96h1.79c1.56-.16,5.05-.52,5.23-2.69-1.96-1.38-3.62-3.14-4.88-5.17-.92-1.67-2.06-3.22-3.38-4.6l-1.22-1.06c-1.68.3-2.62,3.25-3.17,4.54-.17.69-.24,1.04-.4,1.74v.03Zm2.32-15.21v.14l3.98,1.15h.31v-.15c-1.43-.13-2.83-.52-4.13-1.15h-.16Zm.78-12.94v.15l1.74.64h.15v-.14l-1.74-.65h-.15Zm.09,1.74v.15h.6l.15-.14v-.15h-.15l-.6.14Zm.79,3.09c0,.65,0,.96-.05,1.6.17,1.66.4,2.49.68,2.49.58.72.87,1.08,1.47,1.8l.6.16c1.6-1.64,3.53-3.58,3.62-6.03v-.15c0-1.51-1.53-2.41-2.79-2.83-1.47,0-2.38.42-2.73,1.38l-.8,1.58h0Zm1.97,16.23l-1.56-.19-.17.14h-.16l-.63-.17v.3l.17-.15.78.17h1.74c.63,0,.95-.22.96-.7l-1.13.59Zm-.36-19.82v.18h.59v-.15l-.59-.03Zm.17-.43v.14l.74.17h.3v-.14l-.87-.17h-.17Zm1.48.33v.14l.59.17h.15v-.15l-.44-.16h-.3Zm-.72,41.78v.29l.5-.13v-.15h-.5Zm1.15-28.23v.15l.77.16h.31v-.14l-.92-.17h-.16Zm.46-13.54v.15l.44.16h.15v-.15l-.44-.16h-.15Zm-.78,41.35h.17c.27-.25.63-.4,1-.42v-.29c-.73.23-1.12.46-1.18.71h0Zm.95-21.69v.15h.63v-.14h-.63Zm.39,20.7v.29l.5-.14v-.12l-.5-.03Zm.81-26.49v.15l.62.16h.31v-.15l-.77-.16h-.16Zm.05,5.69v.14h1.26v-.15h-1.26Zm1.09-18.77v.15l.59.15c0-.19-.14-.29-.44-.3h-.15Zm.36,38.59h.17l.34-.29h-.17l-.34.29Zm.69-38.43c0,.2.14.3.44.3h.44v-.1l-.89-.2Zm.51,20.69h.16l1.11-.43v-.15h-.16c-.73.22-1.11.41-1.11.58Zm-.2,17.18h.1l.33-.29h-.17l-.27.29Zm.83-.43h.15l.33-.29h-.17l-.31.29Zm2.14-1.44v.15h.5v-.3l-.5.15Zm2.94-2.03v.14l1.14-.58v-.15h-.17c-.65.23-.98.42-.98.58h0Zm2.43-1.74v.3l.48-.15v-.15h-.48Zm1.6-.74h.17c.75-.26,1.13-.46,1.13-.6h-.16c-.76.23-1.13.43-1.13.59h0Zm1.93-1.19h.16l.64-.44h-.16l-.64.44Zm.67-15.01v.29l.62-.16v-.15l-.62.02Zm1.54-.32v.14h.47c.51-.13.77-.29.76-.45h-.15l-1.08.31Z"/>
      <path class="cls-1" d="m341.31,394.16l1.87.51c1.12.32,2.14.92,2.97,1.74.58-.08,1.03.31,1.37,1.14h-.15c-.65-.4-1.43-.56-2.19-.44-1.21.15-1.74.71-1.65,1.67l.18,2.64.17.12h.15v2.38c.17.39.25.58.44.98h-.16l.17.12s0,.1,0,.15c.08,1.52.17,3.03.24,4.55l.35.25.18,1.48c1.74-3.65,3.41-7.35,5.49-10.82.31-1.35.47-2.02.78-3.38-.05-.48-.44-.85-.92-.87l-1.28.62v-.14c.35-1.18,1.06-2.23,2.04-2.97l1.04-.15c.66-.14,1.35-.09,1.99.14-.04-.29.45-.73,1.26-.93,1.7-.41,3.43,1.21,4.7,2.53l.44.81v.29h-.15c-.76-.55-1.68-.82-2.62-.75h-.15c-1.34,1.55-1.93,4.06-2.62,5.94-.34,1.18-.73,3.55-2.02,4.16.1.23.14.34.24.56-.26.87-.51,1.38-.77,1.44l-.17-.13h-.16s0,.09,0,.14l.26.7-.27.33c.4,1.86,2.7,2.37,4.24,2.81-.33,1.29-.67,2.62-1.01,3.86v.29c.63,1.41,1.27,2.81,1.92,4.2,1.16,2.41,2.36,4.8,3.59,7.19.25,0,.67,1.18,1.52,2.27.58.73,2.41,1.05,3.49.79v.14c-1.45,1.16-3.05,2.12-4.76,2.83,0,.24-1.79.58-3,1.52-.67.52-1.58,1.56-2.62,1.74-.57-1.31-1.14-2.62-1.74-3.92-.97-1.24-1.72-2.64-2.22-4.14-1.53-3.21-3.05-6.43-4.53-9.65h-.16c-.61,1.11-.86,2.39-.72,3.65l.17.13v.14c-.38,1.74.07,3.86.19,5.59l.18.16v.15l-.1.45c.17,1.43.56,3.42,2.16,3.87l1.31-.17.45-.35.49-.06v.14c-1.42,1.43-3.11,3.26-5.08,3.6-.91.12-1.84.06-2.73-.16,0,.24-.64.71-1.74.95-2.06.47-4.59-.53-6.7-1.42l-1.06-.78v-.15l.3-.31h1.69c1.74-.44,2.56-.81,2.53-1.13l-.21-.45c0-1.06.04-1.59.07-2.62l-.23-.56c0-.37.04-.56.07-.92l-.35-1.87c0-.43,0-.64.06-1.06s-.15-.51-.25-.87l.29-.32-.51-1.85.13-3.42-.5-.24.08-.78-.04-.44c-.8-.92-1.73-1.71-2.76-2.36.87-.99,2.15-2.17,2.16-3.61,0-.31-.05-.45-.08-.76s-.12-.34-.21-.57v-2.78l-.34-.3c-.06-.64-.1-.95-.16-1.6,0-.35,0-.52.06-.87l-.17-.12v-3.25c-.21-1.6-1.28-3.1-3.02-2.97l-1.79.75-.16-.13c1.38-2.06,3.02-4.1,5.66-4.36h.44c.92.13,1.78.49,2.52,1.05.5-.79,1.23-1.4,2.1-1.74Zm-1.74,35.76s0,.09,0,.14h1.51s0-.1,0-.15h-1.51Zm-.09-10.47h.16l.29-.32h-.17l-.28.32Zm2.88.13c.04.38-.3.63-1.04.7-.3.4-.71.7-1.19.87,0,.05,0,.1,0,.15h.16l2.28-1.43.14-.16v-.15l-.36.02Zm-1.13,10.34s0,.09,0,.14l.65-.07s0-.09,0-.14l-.65.07Zm-.87-11.29v.15h.16l.78-.24v-.29l-.93.37Zm.35-1.1v.15c.52-.06.81.06.87.34l.61-.21v-.3h-1.11l-.38.02Zm-1.01-16.3c.13.1.19.16.33.25h.15l-.33-.24h-.15Zm4.32,31.02h.16l.77-.53v-.14h-.16c-.49.24-.74.47-.74.66h-.03Zm-1.44-15.14l.05.43h1.12v-.3l-.63.08v-.15l.14-.17v-.14h-.16l-.52.24Zm-1.3-15.54s0,.1,0,.15l.46.09v-.29l-.46.05Zm3.78,28.44s0,.1,0,.15l.8-.1v-.15l-.8.1Zm-3.17-28.36v.29l.63.07c0-.1,0-.19,0-.29l-.63-.07Zm1.74,15.04h.16l.28-.33h-.16l-.28.33Zm.54.52v.14l.65.07h.16v-.15l-.49-.09-.31.03Zm3.69-.17v.33l.78-.1v-.18l-.78-.04Zm.55-3.15h.15l.27-.37h-.16c-.1.15-.16.22-.26.37h0Zm.75,3.31v.15l.94-.13v-.14l-.94.12Zm.71-4.57h.16l.27-.33h-.16l-.27.33Zm3.82,17.44v.15h.87c0-.19-.21-.26-.53-.22l-.34.07Zm-1.81-18.9h.16l.73-.4v-.14l-.31.04-.58.5Zm1.02,6.1s0,.09,0,.14l1.1-.16v-.14l-.5-.08-.6.24Zm-.46-18.06v.15l.45-.07-.04-.29-.41.21Zm.87,1.79c0,.1,0,.19,0,.29.08.17.12.25.21.41h.15l-.04-.29-.21-.41h-.1Zm4.27,29.1l.04.29.65-.1v-.15l-.69-.04Zm-4.01-31.5h.15l.25-.33h-.15l-.25.33Zm.87-.42c-.18.44-.27.66-.44,1.1v.14h.15c.24-.51.35-.76.58-1.26l-.28.03Zm.52-.56l.34-.05.25-.33v-.29l-.55.67h-.04Zm.95-1.03v.14h.15c.37-.21.55-.38.52-.53l-.7.4h.03Z"/>
      <path class="cls-1" d="m384.57,386.5h.15c.04.18.21.24.5.17.36,1.29.72,2.57,1.08,3.86.17.67-.02,1.37-.49,1.88.03-.06.07-.12.11-.17h.15l.18.1h.15c0-.17-.07-.25-.1-.43l.37.22c.04.46.07.7.12,1.17.32,1.14.65,2.28.98,3.43l.57,2.37c.18.76.07,1.18-.33,1.28l-1.2.13-.57.29-1.21.12-1.18.42-.44-1.25c-.09-.68-.14-1.02-.23-1.7l-.28-.53.26-.92c-.31,0-.53-.28-.64-.76s-.05-.61-.08-1.02c-.59-1.4-2.66-1.67-3.96-1.88l-.87.04c-1.24.24-2.91.67-3.55,1.89h-.16c.31,2.06.87,4.36.69,6.44.23-.05.44.25.65.87v1.6l.36.22-.12.17.18.11v1.01c.23,1.14.69,1.64,1.38,1.5l1.13-.68,1.74-.06c.87-.43,1.13-1.27.87-2.53-.11-.55-.58-.99-1.36-1.34,0-.1,0-.15-.05-.25h.15c1.34.04,3.13.32,3.55,1.83l.28.54v.14c.32,1,.21,2.09-.3,3.01.1.44.36.63.77.54.33.7.51,1.05.87,1.74.15,1.67-.93,3.19-2.55,3.61l-.75.31v-.15c.76-1.07,1.06-1.88.95-2.4-.05-.24-.66-.3-1.83-.2l-.46.1-1.02.37-.18-.11v-.1c-1.31.34-1.91.75-1.81,1.22l.43.51.44,2.96.18.1v.15c0,.48-.04.72-.08,1.2l.09.43.31-.06c.07.32.1.49.17.82s-.09.55-.14.92l.18.11v1.14l.48,1.53h-.17c.3.45.44.69.73,1.15l-.26.35.25.39-.12.17v.15c.18.24.27.37.46.61l-.27.35c.44.29.75.75.87,1.26l2.38.1c2.25-.44,4.18-2.18,5.6-3.86-.08-.63-.11-.94-.18-1.56l-.19-.11v-.14c-.09-.68-.12-1.02-.22-1.7l-.19-.11s0-.09,0-.14l.13-.92-.57-1.03.25-.36-.41-.35-.1-.39.13-.17v-.15l1.74-.1.41-.39,1.6-.23.87-.22.19.1h.16l-.12.87v.14l.59,1.06.09.39-.04,1.2.51.74c0,.17.06.25.1.43-.1.4-.42.71-.82.79l.06.28.7-.61.39.95.13.53c.1,2.41-2.62,4.99-3.96,6.68-1.43,1.17-3.03,2.11-4.75,2.79l-.2-.1-.74.31-.65.14c-2.36.61-4.86.33-7.02-.78-.65.82-1.18,1.26-1.56,1.33l-.82.16c-2.01.4-4.04-.49-5.83-1.28l-.37-.24-.58-.49.14-.17c.7.32,1.45.49,2.22.51l.82-.15c.8-.38,1.24-1.25,1.08-2.12l-.26-.5.27-.35-.45-.65v-1c-.15-.45-.23-.67-.37-1.12l.27-.35-.56-.34c-.07-.74-.1-1.12-.17-1.86l-.24-.37-.07-1.32c-.04-.23-.06-.34-.1-.58l.13-.17-.42-.48-.24-2.28c-.04-.24-.06-.35-.1-.58s-.19-.51-.31-.83c.09-.24.12-.36.22-.6-.21,0-.34-.08-.39-.37v-1.03l-.37-.23.31-.06v-.1c-.58.1-1.18-.33-1.8-1.31l.25-.34-.17-.11-1.09.19v-.15c.61-1.01,1.21-2.03,1.81-3.05-.1-.58-.15-.87-.25-1.44v-.87l-.24-.4v-1.74c-.2.04-.33-.09-.37-.37-.09-.79-.13-1.19-.21-2l-.17-.11v-.15c0-.46.06-.7.1-1.16l-.4-.52v-1.03c-.17-1.28-.5-2.54-.99-3.74-.99-.11-1.48-.17-2.47-.31-.51.51-.76.76-1.27,1.26h-.15v-.14c-.06-2.04,2.3-3.43,3.72-4.43l1.33-.24c.93-.13,1.87.17,2.56.81,1.14-1.14,2.49-2.05,3.98-2.68l2.05-.28,1.51-.61c.05.24.71.24,1.96,0,1.47.26,2.93.52,4.4.77.39-.09,1.03-1.05,1.78-2.79Zm-15.79,23.95l-.12.17v.14h.15l.44-.23s0-.1,0-.15l-.47.06Zm.41,2.26s0,.09,0,.14l.47-.09c-.02-.09-.04-.19-.05-.29l-.42.24Zm-3.03-19.1l-.08.42v.15h.15l.24-.34s0-.08,0-.11l.17.08.56-.1v-.11h-.72l-.13.17-.18-.15Zm5.44,14.98c-.13.44-.51.75-.97.78,0,.11,0,.17.05.29l1.37-1v-.14l-.45.08Zm-.68,2.31h.16l.57-.37v-.14h-.16c-.38.22-.57.39-.54.51h-.03Zm1.89-3.25l.06.29.43-.24-.05-.29-.44.24Zm.56-.41l.37.23.58-.11-.32-.24-.62.12Zm.74-.87v.15l.46-.1c0-.11,0-.17-.05-.28l-.41.23Zm-2.8-15.7c0,.19.2.25.5.19h.15v-.14l-.65-.05Zm3.1,14.75v.15l.36.18.25-.31-.49-.04-.12.03Zm6.98,25.62v.11l.7-.56v-.14h-.16l-.52.57-.02.02Zm-7.03-39.49l.36.22h.15l-.36-.23h-.15Zm8.01,38.7h.16l.27-.35h-.17l-.26.35Zm1.83-1.57h.16l.26-.36h-.16l-.26.36Zm-6.98-36.63v.14l.95.1h.1v-.14l-.92-.1h-.14Zm8.85,34.43v.14h.17l.87-.5-.07-.29-.97.65Zm-4.06-20.06v.14l.47-.81v-.14l-.47.81Zm5.41,19.34h.17l.26-.36h-.17l-.26.36Zm-6.56-32.44l.83.41-.06-.28-.66-.16-.1.03Zm7.66,31.48h.16l.39-.53h-.17l-.38.53Zm-5.15-28.5h.16l.23-.35h-.15c-.09.15-.14.22-.24.36h0Zm6.54,27.32h.16l.22-.35h-.13l-.24.35Zm1.01-1.28c0,.11,0,.17.06.29l.44-.25v-.14l-.51.1Zm.96-.93l-.25.36s0,.1,0,.15l.31-.08.22-.51-.28.08Zm-6.1-25.33c.05.19.53.31,1.47.37l.15-.04v-.14l-1.61-.18Zm-.17-3.37c.04.17.06.25.1.43l.26-.06c0-.17-.06-.25-.1-.43l-.26.06Z"/>
      <path class="cls-1" d="m399.57,382.84h.47l.36-.25.37.2.21-.36c1.29-.14,1.98-.05,2.08.27l.66-.31c.05.18.87.51,2.43.92l.07.24-.17-.06-.55.16v.1c.5-.16,1.04-.16,1.53,0,.51-.53.85-1.2.96-1.93.19-.05.56-.56,1.08-1.5l.18.1.25.79c.04.36.07.53.11.87l.18.1.04.14v.43l.32.51-.1.19.35.61.22.7v.6l.35.61.1,1.34.37.16v.6l.19.1c.05.39.08.58.14.98l.09.28.52,1.18-.1.18.04.14.32.51c.09.51.13.76.23,1.26.37,1.03.57,1.54.95,2.56.17.53.05.87-.35.99l-.26.08v-.14l-1,.46-2.62.79-.38-.19-.04-.71c-.2.05-.34-.05-.43-.33-.14-.47-.1-.73.1-.78l-.35-.62-.25-.87c-.03-.14.12-.34.47-.6l.09-.13-.04-.15h-.11l-.39.51c-.25-.39-.37-.59-.62-.99l.13-.65c-.69-2.58-2.77-4.55-5.39-5.1l-.5.45h-.6c-1.69.51-2.32,2.12-2.4,3.76l.31.52-.18.36.72,2.18c-.05.48-.07.72-.11,1.2l.4.87c.14.5.21.76.35,1.26.28,1.1.79,3.91,2.22,4.11l1.94,1.24v.14c-.64,1-1.66,2.24-1.58,3.49l.16.1c.05.39.09.59.14.99l.04.14.44,1.19c.18,1.08.27,1.63.45,2.71l.27-.08.25,1.4.15.56.34.78v.59c.19.54.3.8.49,1.34-.02.06-.05.11-.08.17v.15c.44,1.1.87,2.78,1.93,3.44.93.36,1.95.39,2.9.1l.68-.5h.65c1.13-.79.87-2.28.87-3.49.24-.12.36-.19.59-.32l-.87-.51-.27-.94c-.32-1.13-.24-1.94.26-2.47l.24-.34v-.14l-.82,1.12-.16.04-.17-.56c0-.34,0-.51-.08-.87s-.21-.39-.36-.65l.16-.05-.27-.34.15-.65c-.18.05-.45-.31-.82-1.09l-.11.18-.16.04-.19-.1-.16.05-.38.26c-.76-.53-1.61-.92-2.51-1.16l-1.2-.72.46-.12.81-.08.19-.36h.5c1.63-.55,3.26-1.11,4.88-1.68l.95-.17c-.04-.16,1.22-.55,2.17-1.38.54-.47,1.11-1.25,1.69-1.44l.04.14.82-.56.72-.24c1.24-.35,2.45.51,3.26,1.37l-.42.29s.04.09.05.14c.31-.1.49-.06.55.12.18.4.05.88-.31,1.13l-.16.05c-.38-.62-1.16-.87-1.83-.6l-1.04.33c-1.33.96-1.13,2.71-.7,4.11l.55,1.74-.13.16-.15.04.19.1.04.14c.06.41.09.61.15,1.02l.2.09.16-.04c.14.87.21,1.35.36,2.25l.28.37-.16.04c.4.87.6,1.26.99,2.09.05.4.09.59.14.99l.53,1.17c-.04.31-.06.47-.1.79l.32-.1.37,1.22-.32.1.04.14.5.46c.11.75.06,1.16-.15,1.22l-.32.1-.4-.17-2.24.99h-.52l-1.37.56c-.95.24-1.45.27-1.49.13l-.92.43-2.08.44-1.66.77-.07-.12-.2-.1-1.2.49c-.04-.14-.96-.17-2.76-.11-1.84-.81-4.74-1.8-5.68-3.81-1.14-.99-2.16-2.12-3.01-3.37-.82-1.45-1.63-2.91-2.44-4.36l.16-.04h.51c-.71-.46-1.19-1.2-1.34-2.03h.16c-.33-.63-.5-.93-.87-1.55v-.14l-.04-.87-.72-.87.12-.17v-.1c-.22-.38-.67-.57-1.1-.48-.1-.4-.46-.61-1.09-.64v-.1c.07-.38.36-.69.74-.78v-.14l-.31.08-.63.6-.31.07v-.14c.6-1.03,1.2-2.07,1.8-3.1-.05-.87,0-1.32.26-1.38l-.24-.95v-1.2l-.18-.1v-.1c-.16-.53,0-1.11.44-1.47l-.25-.35c0-1.33-.41-3.25.44-4.36-.14-2.06.87-3.96,1.74-5.76.16-.31.43-.55.77-.65l-.18-.1v-.14c.87-1.1,1.33-1.74,1.3-1.97l2.85-1.9Zm-7.47,22.59v.14l.45-.11c0-.11,0-.17-.07-.28l-.38.25Zm1.52-1.54h.16l.24-.36h-.16l-.24.36Zm3.79,10.47s0,.09,0,.14l.35.21v-.14l-.35-.21Zm-1.64-12.06l.07.29.42-.26s0-.09,0-.14l-.49.11Zm4.03,13.7s0,.09,0,.14c.64.51,1.08.74,1.31.68,0-.05,0-.1,0-.15l-1.31-.67Zm-3.26-14.31l-.11.18v.1l.15-.04.43-.22s0-.1,0-.15l-.46.12Zm.95-.7v.14l.16-.04.45-.57h-.15l-.46.47Zm6.17,22.39v.14l.65-.17.4-.41.76-.2-.07-.29h-.13l-1.64.87.03.05Zm-8.88-35.53l.04.14.58-.16-.04-.14-.58.16Zm3.73,12.27l-.16.64h.15l.46-.72-.45.09Zm5.1,17.97l.08.28,1.74.87h.16l-1.79-1.13-.19-.02Zm-4.49-18.7l.15.11v.1l.42-.23-.07-.29-.16.04-.34.25Zm6.7,23.27h.17c.31-.36.71-.63,1.16-.77v-.1l-.32.09c-.68.41-1.01.69-.97.83l-.03-.04Zm-7.89-36.82v.1l.58-.16v-.1l-.58.16Zm1.05-.74s0,.09,0,.14h.11l.98-.43s0-.09,0-.14l-.58.16-.51.27Zm14.34,32.97v.14l.64-.18-.08-.28-.56.32Zm-9.51-34.34s0,.09,0,.14l1.35-.1c-.05-.18-.47-.21-1.25-.09l-.1.04Zm10.57,33.4l.04.14.47-.14-.09-.28-.43.28Zm.24.8l.04.14.63-.18s0-.09,0-.14l-.67.18Zm-1.43-7.74l.04.14.16-.04.38-.27-.09-.28-.5.44h0Zm2.26,6.46l.16-.04.19-.36-.16.04-.19.36Zm-6.61-23.74l.19.1v.14l-.11.15.18.1.31-.1-.19-.09v-.58l-.37.28Zm.32,1.08l.16-.04.21-.37-.15.05-.22.37Zm5.01,14.56c.09.28,0,.47-.34.56l-.11.19v.1l.16-.05.58-.87-.28.07Zm-4.53-16.19l.15-.04.21-.37-.15.04-.21.37Zm5.41,17.44v.14l.58-.17v-.14l-.58.17Zm1.64,5.47l.16-.04.24-.37v-.14l-.39.56Zm-1.31-8.12c.06.18-.07.32-.37.42l.04.14.31-.1.18-.51-.17.04Zm-.34,0l.16-.05.23-.37-.16.05-.23.37Zm-4.61-15.76l.04.14.15-.04c-.1-.35.31-.87,1.26-1.57l-.04-.14-.15.05c-.87.73-1.26,1.25-1.26,1.55h0Zm5.52,18.15v.14l.62-.19v-.14l-.62.19Zm-4.83-16.98v.1l.6-.17v-.1l-.6.18Zm-2.69-9.35v.14l.58-.17-.04-.14-.53.17Zm7.25,22.67l.59.27c.45-1.43.77-2.18.95-2.23l.19.09.43-.13v-.14l-.43.13-.04-.14.48-1.02-.16.04c-.49,1.14-1.16,2.19-1.97,3.12h-.04Zm2.27-2.19l.04.14.31-.1.11-.19-.04-.14-.42.29Zm.51-2.11l-.13.65.16-.05c.27-.14.43-.43.39-.73l-.42.13Zm.43,1.35v.14l.87-.28-.05-.14-.82.28Z"/>
      <path class="cls-2" d="m323.04,276.7c.27-.53.52-1.06.73-1.61.52-1.63.74-3.34.65-5.05-.23-3.82-1.04-7.59-2.42-11.16-.07-.15-.11-.32-.1-.49l.31.21c4.95,3.83,9.16,8.53,12.44,13.86,2.14,3.44,3.77,7.18,4.82,11.09,1.27,4.81,1.55,9.82.81,14.74-.79,5.64-3.01,10.98-6.45,15.51-3.06,4-6.89,7.35-11.25,9.87-2.62,1.58-5.41,2.87-8.32,3.82l-.49.12.37-.65c3.39-5.9,5.07-12.63,4.84-19.44-.19-4.83-1.35-9.58-3.42-13.95-2.43-5.07-5.72-9.68-9.71-13.64l-1.27-1.26c-.1-.1-.23-.17-.37-.21l.16.51c.51,1.89.55,3.89.12,5.8-.71,3.48-2.06,6.79-3.98,9.78-1.12,1.81-2.38,3.53-3.58,5.29-.08.11-.17.2-.31.39v-.56c.25-2.38.15-4.79-.31-7.14-.25-1.47-.87-2.85-1.81-4.01-.09-.1-.16-.23-.27-.38-.07.13-.1.17-.1.19.19,1.62-.05,3.27-.71,4.77-1.03,2.58-2.48,4.98-4.31,7.07-1.4,1.66-2.86,3.27-4.36,4.8-2.7,2.63-4.03,6.37-3.59,10.12.43,3.74,1.67,7.33,3.64,10.53.36.62.75,1.21,1.18,1.91-.2,0-.34-.04-.46-.08-5.48-1.52-10.5-4.36-14.63-8.28-4.27-4.04-6.93-9.49-7.51-15.34-.42-4.6.06-9.24,1.41-13.66,1.46-4.9,3.47-9.63,5.99-14.08,1.74-3.24,3.75-6.34,5.83-9.38.11-.17.24-.33.39-.47-.98,5.92-.59,11.98,1.15,17.72.12-.06.24-.13.35-.21,5.75-4.3,10.5-9.78,13.95-16.07,2.24-4.06,3.44-8.62,3.49-13.26-.02-3.7-.84-7.34-2.41-10.69l-.37-.83c.19.03.38.08.56.13,3.04.93,5.91,2.35,8.5,4.19,4.62,3.23,8.61,7.28,11.79,11.93,3.33,4.81,6.04,10.01,8.08,15.5l.75,2.01.17.04Z"/>
      <path class="cls-1" d="m281.68,360.42c1.39-.43,1.57-1.03,2.23-2.19.11.31.2.58.29.87.61,1.94.53,3.1-1.43,3.71-2.15.67-3.11.18-5.14.81-.51.29-.98.64-1.4,1.05-.1-.21-.18-.42-.24-.65-1.34-4.36,4.56-8.3,2.92-13.57-.16-.81-.92-1.36-1.74-1.26-1.33.41-1.41,1.12-1.11,2.1.14.45.57,1.13,1.17,1.12-.28.52-.74.93-1.29,1.14-.81.24-1.62-.19-1.98-1.34-.43-1.34.17-3.24,3.17-4.18,2.71-.87,4.16.1,4.76,2.01,1.38,4.41-3.43,8.04-4.24,11.22h.1c1.21-.4,2.45-.4,3.93-.85Z"/>
      <path class="cls-1" d="m298.65,353.91c-.08.05-.18.05-.26,0-.12-.06-.23-.15-.33-.24-.1-.1-.18-.21-.24-.33-.05-.09-.05-.2,0-.29.58-.34,1.15-.67,1.74-.99s1.16-.61,1.74-.87c.58-.95,1.14-1.88,1.67-2.8.53-.92,1-1.74,1.42-2.5s.77-1.4,1.05-1.92.46-.87.54-1.09c.07-.04.16-.04.23,0,.11.06.22.13.32.21.11.1.21.2.31.31.09.09.16.19.21.31.08,0,.1.04.09.12h0c-.05.33-.12.65-.21.97-.1.37-.21.78-.34,1.24s-.27.93-.44,1.44-.32,1.01-.49,1.55-.34,1.06-.51,1.59-.32,1.06-.47,1.56-.28.98-.4,1.44-.22.87-.29,1.24c-.07.31-.11.63-.14.94-.03.19,0,.38.06.56l.16.14c.1.04.18.12.21.23.03.1.03.21,0,.31-.03.1-.09.19-.17.25-.08.07-.19.09-.29.06-.18.05-.36.05-.54,0-.14-.04-.27-.12-.37-.23-.1-.12-.18-.25-.24-.4-.06-.17-.1-.35-.12-.53-.01-.17-.01-.34,0-.51v-.52c0-.17,0-.33.05-.49s.04-.3.06-.42c.21-.93.45-1.87.75-2.81l-.25.07-.24.08-.35.11-.35.12-.36.58h0l-.45.74-.87,1.41c-.3.48-.61.96-.93,1.44s-.65.93-1,1.38c-.33.43-.68.83-1.06,1.22-.34.35-.72.68-1.12.97-.36.26-.76.48-1.18.64-.49.2-1.01.29-1.53.25-.42-.04-.82-.18-1.16-.42-.33-.25-.59-.57-.77-.93-.2-.4-.33-.83-.39-1.27-.14-1.12.06-2.26.58-3.27.27-.53.63-1,1.06-1.4.45-.43.99-.75,1.59-.94.43-.15.9-.15,1.33,0,.41.16.76.44,1,.81v.05c.04.12.05.24.05.37.02.16.02.32,0,.48-.02.13-.06.26-.12.38-.06.09-.12.1-.22,0-.11-.13-.23-.25-.36-.36-.27-.27-.62-.45-.99-.52-.19-.05-.39-.05-.58,0-.45.12-.87.33-1.22.64-.35.27-.65.61-.87,1-.2.37-.35.77-.43,1.19-.08.39-.09.79-.04,1.19.03.3.12.6.25.87.25.49.74.82,1.29.87.35.03.7-.02,1.04-.13l.15-.04.16-.06c.48-.21.93-.51,1.31-.87.47-.45.92-.93,1.32-1.45.44-.56.87-1.18,1.33-1.86s.87-1.39,1.33-2.12c-.29.17-.57.36-.87.57s-.57.43-.87.68l.03.03Zm4.3-3.36c.27-.09.54-.16.8-.22.14-.44.3-.87.45-1.33s.31-.87.46-1.34l-.87,1.43-.85,1.47Z"/>
      <path class="cls-1" d="m311.21,351.43c-.08.23-.18.5-.32.83-.14.34-.3.66-.48.98-.17.31-.37.61-.6.87-.17.23-.41.4-.68.5-.14.04-.29.06-.44.05-.15,0-.29-.06-.4-.15-.13-.1-.24-.23-.31-.37-.09-.2-.15-.42-.17-.65-.02-.22-.02-.45,0-.67.01-.25.03-.49.07-.73,0-.25.09-.54.15-.87s.12-.65.2-1.04c.04-.15.07-.31.09-.46,0-.11,0-.22,0-.33l-.37.59c-.21.32-.41.65-.58.99-.17.33-.35.68-.51,1.05-.1.51-.18,1.02-.23,1.53-.04.51-.04,1.01,0,1.52,0,.09-.07.15-.19.17-.13.03-.27.03-.4,0-.15-.02-.29-.06-.42-.12-.11-.03-.19-.12-.23-.23-.04-.33-.05-.67-.04-1,0-.33,0-.65.07-.99s.08-.66.14-.99.11-.65.17-.99.13-.77.19-1.13.1-.72.14-1.06c.09-.08.2-.11.31-.1.14,0,.28.02.41.07.14.06.27.13.39.23.12.09.21.2.27.33.21-.33.46-.64.72-.92.23-.26.51-.46.83-.58.11-.03.23-.01.33.04.13.06.25.15.35.24.11.1.2.23.26.37.07.13.1.27.08.41-.07.41-.14.8-.22,1.17s-.15.68-.2.95-.1.44-.15.64-.07.37-.1.57c-.01.19-.01.37,0,.56v.59s.04-.06.06-.09h0c.23-.24.44-.5.62-.78.26-.42.48-.87.65-1.33l.16-.4c0-.13.09-.26.14-.39l.1-.37s.06-.07.15-.08c.08-.02.16-.02.24,0,.08.03.15.07.22.12.05.04.07.11.04.17h0l-.4,1.23-.1.07Z"/>
      <path class="cls-1" d="m316.59,349.76c-.08.22-.18.5-.32.87-.14.33-.3.66-.48.98-.17.31-.38.6-.6.87-.17.23-.41.4-.68.5-.14.04-.29.06-.44.05-.15,0-.29-.06-.4-.15-.14-.09-.25-.23-.31-.38-.1-.2-.16-.42-.17-.64-.01-.23-.01-.45,0-.68.01-.25.04-.49.08-.73,0-.25.09-.54.14-.87l.21-1.04c.04-.15.07-.31.09-.46,0-.11,0-.22,0-.33l-.37.59c-.22.33-.41.66-.58.99s-.34.68-.51,1.06c-.1.5-.18,1.01-.24,1.53-.03.51-.03,1.01,0,1.52,0,.09-.06.15-.18.17-.14.03-.27.03-.41,0-.14-.02-.28-.06-.42-.11-.11-.04-.19-.13-.23-.24-.02-.33-.02-.67,0-1,0-.33,0-.65.06-.99s.09-.66.14-.99.11-.65.17-.99.12-.77.18-1.13.11-.72.15-1.06c.08-.08.19-.11.31-.1.14,0,.28.03.41.08.14.05.28.12.39.22.12.09.21.2.28.33.21-.33.45-.64.72-.92.24-.26.54-.46.87-.58.11-.03.23-.01.32.04.13.06.25.14.35.24.11.11.2.23.27.37.06.13.09.27.08.41-.07.41-.15.8-.23,1.17s-.15.68-.2.95-.1.44-.14.64-.08.38-.1.57,0,.37-.04.56,0,.38,0,.59c0-.03.03-.06.05-.08h0c.23-.24.43-.5.61-.78.26-.42.48-.87.65-1.33.06-.14.11-.27.16-.4s.1-.26.14-.39l.1-.37s.07-.07.15-.08c.08-.01.17-.01.25,0,.08.03.15.07.21.12.06.04.08.11.05.17h0l-.4,1.23-.11.03Z"/>
      <path class="cls-1" d="m319.6,344.48c.1-.09.24-.12.37-.1.17.02.33.08.48.17.15.1.29.22.39.37.11.15.15.33.12.51-.02.1-.04.2-.06.31,0,.15-.07.3-.1.47h0l-.21.92c-.08.35-.15.69-.21,1.03s-.11.65-.15.92c-.03.22-.03.45,0,.67v.1h.1c.2-.15.37-.33.51-.54.15-.23.29-.48.4-.73.12-.27.24-.56.34-.87.1-.3.19-.57.28-.87l.03-.37c.03-.1.11-.18.2-.23.08-.03.17-.03.25,0,.09.04.16.11.2.19.04.12.04.25,0,.37l-.17.5c-.17.49-.36.99-.56,1.51-.2.5-.44.98-.73,1.43l-.18.26c-.18.21-.38.39-.61.54-.12.08-.24.14-.37.18-.26.1-.56.02-.74-.19-.2-.25-.32-.55-.36-.87h0c-.08.17-.17.35-.24.51s-.18.31-.29.46c-.05.09-.11.17-.18.25-.08.1-.17.2-.27.29-.1.09-.22.18-.33.26-.12.08-.24.14-.37.18-.26.1-.56.02-.73-.2-.19-.25-.31-.55-.35-.87v-.26c0-.09,0-.19,0-.28,0-.17,0-.37.04-.59s.05-.46.09-.71.08-.51.13-.77.08-.52.11-.78c.06-.41.12-.8.17-1.18s.09-.69.11-.93l.08-.18c.1-.09.24-.12.37-.1.17.02.34.08.49.17.15.1.29.23.39.37.1.15.14.32.12.5,0,.08,0,.19-.07.34s-.07.31-.11.51h0c-.07.27-.14.58-.22.92s-.15.66-.21.99-.1.64-.13.92c-.03.22-.03.44,0,.65v.1h.1c.19-.15.36-.32.49-.52.15-.23.29-.47.4-.72.12-.26.24-.54.33-.81.1-.28.18-.55.27-.82h0s0-.08,0-.12l.05-.12.11-.71c.07-.44.14-.87.2-1.23s.1-.71.11-.96l.1-.24Z"/>
      <path class="cls-1" d="m326.31,344.33s0,.1-.04.13c-.04.04-.09.08-.15.1l-.19.07c-.06.02-.12.02-.18,0,.12.03.23.08.34.14.11.05.21.12.3.21.09.08.16.17.21.28.05.1.07.21.06.31,0,.06,0,.12-.04.19l-.05.22c0,.16-.07.32-.1.51s-.06.35-.09.51-.04.33-.05.48c-.02.12-.02.24,0,.36h.08c.2-.15.36-.33.5-.53.15-.23.29-.48.4-.73.13-.28.24-.58.33-.87.1-.29.19-.56.28-.83.03-.06.06-.12.08-.18.02-.05.03-.11.04-.17,0-.06.07-.07.15-.08.08-.01.17-.01.25,0,.08.03.15.07.22.12.06.04.08.11.06.17l-.17.52h0c-.17.51-.37,1.01-.57,1.52-.2.5-.45.98-.75,1.43-.05.09-.11.17-.17.25-.08.1-.16.2-.25.29-.1.1-.21.19-.33.27-.12.08-.25.14-.39.17-.28.1-.59.04-.82-.14-.22-.19-.36-.45-.4-.74-.21.38-.45.73-.72,1.06-.21.28-.49.5-.82.63-.23.07-.48.07-.71,0-.19-.06-.36-.17-.49-.32-.13-.15-.24-.32-.31-.51-.06-.18-.11-.36-.15-.54,0-.14,0-.27,0-.41,0-.32.02-.64.08-.96.07-.38.17-.75.3-1.11.13-.39.29-.76.46-1.13.18-.36.38-.7.62-1.03.22-.3.47-.58.75-.83.26-.22.55-.39.87-.49l.27-.06h.29c.17,0,.34.05.47.16.13.1.24.23.31.37.09.16.15.34.19.51.04.22.05.44.04.65Zm-1.23.38c.07-.05.16-.09.24-.1.11-.02.22-.02.32,0-.04-.02-.07-.06-.07-.1,0-.03,0-.05,0-.08,0-.03,0-.06,0-.09,0-.07,0-.14-.06-.22-.02-.08-.05-.15-.1-.21-.04-.05-.1-.09-.16-.12-.07-.03-.15-.03-.23,0-.29.09-.54.27-.71.52-.23.3-.42.63-.57.98-.16.38-.29.76-.39,1.16-.09.35-.16.71-.21,1.07v.32c0,.12,0,.24,0,.37.01.08.03.15.05.23.02.06.05.12.1.17.05.02.11.02.17,0,.09,0,.18-.04.25-.1.13-.1.24-.22.32-.37.13-.2.26-.41.37-.63.13-.24.25-.49.35-.74.1-.25.2-.49.27-.68s.07-.48.1-.71c.02-.19.02-.38,0-.57l-.06-.11Z"/>
      <path class="cls-1" d="m330.16,341.69c-.04.17-.1.37-.17.65s-.16.59-.24.92-.17.7-.24,1.06-.17.72-.23,1.06-.1.65-.14.92c-.03.21-.03.43,0,.65v.06h.08c.19-.14.36-.32.49-.52.15-.23.29-.47.4-.72.12-.26.24-.53.33-.8l.27-.82h0l.08-.23.09-.22c0-.05.06-.08.13-.08.08,0,.17.02.24.04.08.03.15.07.21.12.05.04.08.1.07.17l-.2.58c-.17.49-.35.99-.55,1.5-.2.49-.44.97-.72,1.41-.06.09-.12.18-.18.26l-.27.29-.33.25c-.12.08-.24.14-.37.18-.26.09-.55,0-.73-.2-.09-.11-.17-.24-.22-.37-.06-.16-.1-.33-.12-.51,0-.09,0-.17,0-.26,0-.09,0-.17,0-.26,0-.78.07-1.56.24-2.32.17-.78.36-1.55.56-2.33l.29-1.06c.08-.32.16-.65.23-.97s.14-.65.2-.96.11-.61.16-.87.08-.55.1-.78c.11-.1.25-.14.39-.11.18,0,.35.06.51.15.16.08.3.2.41.35.11.13.17.31.16.48-.03.18-.07.36-.11.53-.05.23-.12.5-.19.78s-.15.59-.24.87-.16.61-.24.87l-.1.2Z"/>
      <path class="cls-1" d="m287.26,349.29c-.06.2-.14.39-.23.58-.1.24-.21.47-.33.69-.12.22-.26.43-.43.62-.12.16-.29.28-.48.35-.1.02-.21.02-.31,0-.1,0-.2-.04-.28-.1-.09-.07-.17-.16-.22-.27-.07-.14-.11-.3-.12-.45,0-.16,0-.31,0-.47,0-.16,0-.33.05-.51s.06-.37.1-.59.1-.46.15-.73c0-.1.04-.21.06-.32,0-.08,0-.16,0-.24l-.26.42c-.15.22-.29.46-.41.7-.12.23-.24.47-.37.73-.07.36-.12.72-.16,1.08-.03.35-.03.71,0,1.06,0,.06-.04.1-.13.12-.09.02-.19.02-.28,0-.1-.01-.2-.04-.3-.09-.08-.02-.13-.08-.16-.16-.06-.47-.06-.94,0-1.4,0-.23.05-.46.1-.69s.08-.46.12-.7.09-.54.12-.8.08-.51.1-.74c.06-.05.14-.08.22-.07.1,0,.2.02.29.05.1.04.19.09.28.15.08.07.14.15.19.24.15-.23.31-.44.5-.65.16-.18.37-.32.59-.41.07-.03.16-.03.23,0,.09.04.18.1.25.17.08.07.14.16.18.25.05.09.07.19.06.29-.05.29-.1.57-.16.82l-.15.66c0,.17-.07.31-.1.45-.03.13-.05.27-.07.4v.81s.02-.04.04-.06h0c.16-.17.3-.35.43-.55.19-.3.34-.61.45-.94.04-.1.08-.19.11-.28l.1-.28.07-.25s.06-.06.1-.05c.06-.01.12-.01.17,0,.05.02.11.05.15.09.03.04.03.09,0,.13h0l-.28.87-.02.08Z"/>
      <path class="cls-1" d="m290.51,348.21c-.04.16-.07.32-.08.49-.02.14-.02.27,0,.41,0,.03,0,.06,0,.1h.08c.14-.1.26-.23.35-.37.11-.16.2-.34.29-.51.09-.19.16-.38.23-.58l.2-.58.05-.12v-.12s.05-.04.1-.05h.18c.06.02.11.05.16.08.03.04.03.09,0,.13l-.12.36h0c-.13.36-.25.72-.39,1.07-.14.35-.32.69-.53,1-.04.06-.08.12-.12.17-.05.08-.12.15-.18.21-.07.07-.15.13-.23.18-.09.05-.18.09-.28.12-.2.07-.41.03-.58-.1-.15-.13-.25-.31-.28-.51-.15.26-.32.51-.51.75-.15.19-.35.35-.58.44-.17.04-.34.04-.51,0-.13-.05-.25-.13-.34-.24-.09-.1-.17-.22-.21-.35-.05-.12-.09-.25-.11-.38v-.29c0-.23.02-.46.06-.68.05-.26.12-.52.2-.78.09-.27.2-.53.33-.78.12-.26.26-.5.43-.73.15-.21.33-.41.53-.58.18-.16.39-.28.61-.35l.19-.04h.21c.14,0,.27.05.37.15v-.12l.15-.51.18-.68c.05-.24.1-.46.14-.68s.08-.44.1-.63.04-.37.06-.54c.07-.07.18-.1.28-.09.25.03.49.15.65.35.08.1.11.22.1.35,0,.07,0,.18-.07.35s-.08.34-.14.55l-.17.65c-.06.23-.12.44-.17.64l-.13.49h0c-.1.37-.22.76-.31,1.16-.09.4-.16.81-.2,1.22Zm-1.88,1.42c.09-.07.17-.15.23-.25.09-.14.17-.28.25-.44l.24-.51.2-.48.04-.3c.07-.38.16-.77.26-1.16-.03-.06-.07-.12-.12-.17-.05-.05-.13-.07-.2-.04-.21.06-.39.19-.51.37-.16.21-.29.44-.39.68-.22.5-.36,1.03-.42,1.57,0,.08,0,.15,0,.23,0,.09,0,.17,0,.26,0,.05,0,.1,0,.16,0,.04.03.09.07.11.04.02.08.02.12,0,.07,0,.13-.04.18-.08l.04.03Z"/>
    </g>
  </g>
</svg>