<svg id="Layer_1" data-name="Layer 1" xmlns="http://www.w3.org/2000/svg" viewBox="0 0 576 576"><defs><style>.cls-1{stroke:#000;stroke-miterlimit:10;stroke-width:2.56px;}</style></defs><path d="M217.69,249.92a37.12,37.12,0,0,1-16.33,9.25q10.8,2.18,14.91,10t2.4,17.89L202.49,390.36,172.3,352.62,181.67,294q1.91-12.76-2.29-18t-16.94-5.29h-18l-2.79,80.6h-47l22.14-124.59A219.14,219.14,0,0,1,123.4,196q3.72-12,10.69-18.86t18.5-9.49Q164.11,165,182.86,165q18,0,28.33,2.52t15,9.37q4.66,6.86,4.56,19t-3.24,31.59Q224.89,243.09,217.69,249.92Zm-21-40.12q.6-7.32-1.09-11.53a10.17,10.17,0,0,0-5.64-5.88q-4-1.68-11.18-1.68a35.7,35.7,0,0,0-11.66,1.56,15.39,15.39,0,0,0-7.45,5.76,34.13,34.13,0,0,0-4.8,11.18q-1.83,7-3.49,17.78l-7,43.72,45.41-31.35c3.68-.16-9.17,6.33-6.85,5.29a21,21,0,0,0,6.85-5.29c2.25-2.49,3.77-6.21,4.56-11.19Q196.07,217.12,196.67,209.8Z"/><path d="M248.32,351.33l-42.46,39.05,30-176.07h43.36Z"/><path d="M384.71,295.26A285.88,285.88,0,0,1,378.82,324q-3,10.93-7.69,17.06a23.17,23.17,0,0,1-11.53,8.29,57.83,57.83,0,0,1-17.15,2.16l-89.16-.15,30.57-137h72.49a119,119,0,0,1,18.38,1.2A18,18,0,0,1,386.5,222q4.22,5.29,4.92,16.21T389,268.86Zm-27.87-49.81a13.65,13.65,0,0,0-3.13-7.46,10.87,10.87,0,0,0-6.49-3.12,67,67,0,0,0-9.61-.6H317l-21.33,97.18,28.07-.15a46.67,46.67,0,0,0,11.05-1.08,12.66,12.66,0,0,0,7.08-4.57,28.4,28.4,0,0,0,4.57-10,159.55,159.55,0,0,0,3.48-17.3l6.24-39.65Q357.56,250.36,356.84,245.45Z"/><path class="cls-1" d="M470,235.06H438.59a37.06,37.06,0,0,0-7.13.61,10.63,10.63,0,0,0-5.56,3,20.5,20.5,0,0,0-4.26,7.21,64.09,64.09,0,0,0-3,13.12l-1.91,11.3h34.58l-2.78,18.42H413.91l-1.56,9.05q-1.58,10.57-2.09,16.94t.61,9.73a6.64,6.64,0,0,0,3.91,4.43,22.54,22.54,0,0,0,7.65,1h32.5l-3.13,19.81H403.48q-7.46,0-11.82-2.08t-6.08-8.09q-1.74-6-1.05-16.77t3.47-28l4.18-25.9q3-19.29,6.34-30t7.83-15.89a17.73,17.73,0,0,1,10.25-6.34,72.64,72.64,0,0,1,13.65-1.13H473Z"/><polygon points="446.86 390.36 210.44 390.36 253.29 355.19 452.41 355.19 446.86 390.36"/></svg>