<?xml version="1.0" encoding="UTF-8"?>
<svg id="Layer_1" data-name="Layer 1" xmlns="http://www.w3.org/2000/svg" viewBox="0 0 576 576">
  <defs>
    <style>
      .cls-1, .cls-2, .cls-3 {
        stroke-width: 0px;
      }

      .cls-2 {
        fill: #c61a2f;
      }

      .cls-3 {
        fill: #de2025;
      }
    </style>
  </defs>
  <g id="Layer_1-2" data-name="Layer 1-2">
    <path class="cls-1" d="m123.84,339.18h-9.69c-.31.01-.61-.13-.79-.39-.21-.19-.33-.45-.34-.73v-7.21c0-.33.14-.65.4-.85.2-.18.46-.29.73-.29h28.85c.32-.01.63.11.85.34.17.23.27.5.27.79v7.21c.02.3-.1.6-.33.79-.21.2-.49.32-.79.33h-9.73v42.15c.01.3-.11.59-.34.79-.22.2-.5.33-.79.34h-7.18c-.31,0-.61-.14-.79-.4-.21-.18-.33-.45-.33-.73v-42.14Z"/>
    <path class="cls-1" d="m147.9,330.85c-.01-.33.13-.65.39-.85.2-.18.46-.28.73-.29h7.22c.32-.01.63.11.85.34.18.22.28.5.28.79v20.48h8.53v-20.48c-.02-.33.13-.65.39-.85.2-.18.46-.29.73-.29h7.21c.32-.01.63.11.85.34.18.22.28.5.28.79v50.49c.01.3-.11.59-.34.79-.21.21-.49.33-.79.34h-7.21c-.31.01-.61-.14-.79-.4-.21-.18-.33-.45-.34-.73v-20.5h-8.53v20.48c.01.3-.11.59-.33.79-.21.21-.5.33-.79.34h-7.22c-.31.01-.61-.14-.79-.4-.21-.18-.33-.45-.34-.73v-50.44Z"/>
    <path class="cls-1" d="m180.47,330.85c-.01-.33.13-.65.39-.85.2-.18.46-.28.73-.29h21.67c.32,0,.63.11.85.34.17.23.27.5.28.79v7.21c.02.31-.11.6-.35.79-.21.21-.49.32-.79.33h-13.32v12.17h9.69c.32,0,.63.12.85.35.17.23.27.5.27.79v7.21c.02.3-.1.6-.33.79-.21.2-.49.32-.79.33h-9.7v12.15h13.32c.32,0,.63.11.85.34.17.23.27.5.28.79v7.2c.01.3-.12.59-.35.79-.21.21-.49.34-.79.35h-21.67c-.31,0-.61-.15-.79-.4-.21-.19-.33-.45-.33-.73v-50.44Z"/>
    <path class="cls-1" d="m249.44,374.13c-.02,4.6-3.75,8.32-8.35,8.34h-7.21c-4.57.04-8.3-3.63-8.34-8.2,0,0,0,0,0,0v-3.74c-.01-.33.13-.65.39-.85.2-.18.46-.28.73-.28h7.21c.32-.01.63.11.85.33.18.23.28.5.29.79v2.46h4.92v-13.94h-6.09c-4.57.03-8.3-3.65-8.34-8.22,0-.04,0-.08,0-.12v-12.63c.01-4.6,3.74-8.32,8.34-8.34h7.21c2.21-.03,4.34.87,5.86,2.47,1.6,1.53,2.5,3.65,2.48,5.86v3.61c.02.3-.11.6-.34.79-.22.2-.49.31-.79.33h-7.22c-.32.02-.62-.13-.79-.4-.21-.18-.33-.45-.33-.73v-2.48h-4.96v10.37h6.05c2.22-.03,4.34.87,5.86,2.48,1.6,1.53,2.49,3.65,2.47,5.86l.06,16.23Z"/>
    <path class="cls-1" d="m262.13,382.46c-4.59.02-8.32-3.68-8.34-8.27,0-.02,0-.05,0-.07v-36.07c.02-4.6,3.74-8.32,8.34-8.34h7.21c2.22-.03,4.34.87,5.87,2.47,1.6,1.53,2.49,3.65,2.47,5.86v36.07c.03,2.23-.86,4.37-2.47,5.9-1.55,1.57-3.67,2.45-5.87,2.43h-7.21Zm6.09-43.28h-4.98v33.79h4.96l.03-33.79Z"/>
    <path class="cls-1" d="m282.45,330.85c0-.33.14-.64.39-.85.2-.18.46-.28.73-.29h14.4c2.22-.03,4.34.87,5.87,2.47,1.6,1.53,2.49,3.65,2.47,5.86v12.63c.03,2.23-.86,4.37-2.47,5.91l.85.85c1.6,1.53,2.49,3.64,2.47,5.85v18.03c.02.3-.1.6-.33.79-.21.2-.49.32-.79.34h-7.22c-.31.01-.61-.14-.79-.4-.21-.19-.33-.45-.34-.73v-18.7h-5.85v18.71c.01.3-.11.59-.34.79-.22.2-.5.33-.79.34h-7.21c-.32,0-.61-.14-.79-.4-.2-.19-.32-.45-.33-.73l.07-50.49Zm14.43,22.28v-13.94h-4.96v13.94h4.96Z"/>
    <path class="cls-1" d="m311.92,330.85c-.01-.33.13-.65.39-.85.2-.18.46-.28.73-.29h14.42c2.21-.03,4.34.87,5.86,2.47,1.6,1.53,2.49,3.65,2.47,5.86v12.63c.04,2.23-.85,4.38-2.47,5.91l.9.85c1.6,1.53,2.49,3.64,2.47,5.85v18.03c.02.3-.11.6-.34.79-.21.2-.49.33-.79.34h-7.21c-.32.01-.62-.14-.79-.4-.21-.19-.33-.45-.33-.73v-18.7h-5.86v18.71c.01.3-.11.59-.33.79-.22.2-.5.33-.79.34h-7.21c-.32.01-.62-.14-.79-.4-.2-.19-.32-.45-.33-.73v-50.49Zm14.42,22.28v-13.94h-4.96v13.94h4.96Z"/>
    <path class="cls-1" d="m356.77,381.34c.01.3-.11.59-.34.79-.21.2-.49.32-.79.34h-7.21c-.32.01-.62-.14-.79-.4-.21-.19-.33-.45-.34-.73v-14.32l-7.68-35.94c-.04-.13-.06-.27-.06-.4,0-.64.39-.96,1.19-.96h7.21c.54-.04,1.02.33,1.13.85l2.99,14.03,2.99-14.03c.11-.54.61-.91,1.16-.85h7.21l.5.06c.19.07.35.21.45.39.23.24.29.6.16.9l-7.68,35.94-.09,14.32Z"/>
    <path class="cls-1" d="m384.55,330.85c0-.33.14-.65.39-.85.2-.18.46-.28.73-.29h14.43c2.21-.03,4.33.87,5.85,2.47,1.6,1.53,2.5,3.65,2.48,5.86v9.02c.04,2.23-.86,4.38-2.48,5.91l.9.85c1.6,1.53,2.5,3.65,2.48,5.86v14.43c.04,2.23-.86,4.37-2.48,5.9-1.54,1.57-3.66,2.45-5.86,2.43h-15.36c-.31.01-.61-.14-.79-.4-.21-.18-.33-.45-.34-.73l.03-50.48Zm14.42,18.7v-10.37h-4.96v10.37h4.96Zm.93,23.42v-13.95h-5.85v13.95h5.85Z"/>
    <path class="cls-1" d="m413.85,330.85c-.01-.33.13-.65.39-.85.2-.18.46-.28.73-.29h14.4c2.21-.03,4.34.87,5.86,2.47,1.6,1.53,2.5,3.65,2.48,5.86v12.63c.04,2.23-.86,4.38-2.48,5.91l.9.85c1.6,1.52,2.5,3.64,2.48,5.85v18.03c.02.3-.11.6-.34.79-.21.2-.49.33-.79.34h-7.21c-.32.02-.62-.13-.79-.4-.21-.18-.34-.45-.35-.73v-18.7h-5.85v18.71c.01.3-.11.59-.33.79-.21.21-.5.33-.79.34h-7.21c-.32.01-.62-.14-.79-.4-.2-.19-.32-.45-.33-.73l.02-50.49Zm14.42,22.28v-13.94h-4.96v13.94h4.96Z"/>
    <path class="cls-1" d="m451.26,382.46c-4.58.03-8.31-3.66-8.34-8.23,0-.03,0-.07,0-.1v-36.07c.01-4.6,3.74-8.32,8.34-8.34h7.21c2.21-.03,4.34.87,5.86,2.47,1.6,1.53,2.49,3.65,2.47,5.86v36.07c.04,2.23-.86,4.37-2.47,5.9-1.54,1.57-3.66,2.45-5.86,2.43h-7.21Zm6.05-43.28h-4.95v33.79h4.96v-33.79Z"/>
    <path class="cls-1" d="m189.23,400.06c.02-.62.52-1.11,1.13-1.13h14.41c2.22-.04,4.35.87,5.87,2.48,1.59,1.52,2.48,3.63,2.47,5.84v16.21c.03,2.23-.86,4.37-2.47,5.91-1.55,1.57-3.67,2.45-5.87,2.42h-6.05v18.7c.02.3-.11.59-.34.79-.21.21-.49.33-.79.34h-7.24c-.3,0-.58-.13-.76-.38-.21-.19-.33-.45-.34-.73l-.03-50.47Zm14.43,8.34h-4.96v13.98h4.96v-13.98Z"/>
    <path class="cls-1" d="m225.44,451.67c-2.22.04-4.36-.84-5.91-2.42-1.57-1.56-2.45-3.7-2.41-5.91v-36.05c0-4.6,3.73-8.33,8.33-8.35h7.22c2.22-.03,4.34.87,5.86,2.48,1.6,1.53,2.49,3.65,2.47,5.86v36.06c.04,2.23-.86,4.38-2.47,5.91-1.55,1.57-3.66,2.44-5.86,2.42h-7.22Zm6.09-43.27h-4.96v33.86h4.96v-33.86Z"/>
    <path class="cls-1" d="m245.74,400.06c0-.33.14-.64.39-.85.2-.18.46-.28.73-.28h15.36c2.21-.02,4.33.88,5.85,2.48,1.61,1.52,2.51,3.64,2.47,5.85v36.07c-.03,4.58-3.74,8.29-8.33,8.3h-15.36c-.31.01-.61-.13-.79-.39-.21-.19-.33-.45-.34-.73v-50.45Zm15.36,8.34h-5.85v33.83h5.85v-33.83Z"/>
    <path class="cls-1" d="m283.27,451.67c-4.57.03-8.3-3.65-8.34-8.22,0-.04,0-.08,0-.12v-36.05c.02-4.6,3.74-8.32,8.34-8.35h7.21c2.22-.03,4.34.87,5.86,2.48,1.6,1.53,2.5,3.65,2.48,5.86v3.6c.01.3-.12.6-.35.79-.21.2-.49.33-.79.34h-7.21c-.32.02-.62-.13-.79-.4-.21-.18-.34-.45-.34-.73v-2.47h-4.96v33.85h4.96v-2.48c-.01-.33.13-.65.39-.85.2-.18.46-.28.73-.28h7.18c.32-.01.63.11.85.33.18.23.28.51.28.79v3.61c.04,2.23-.85,4.38-2.47,5.91-1.55,1.57-3.66,2.44-5.86,2.42l-7.19-.04Z"/>
    <path class="cls-1" d="m331.56,450.41v.28c0,.67-.38,1.01-1.13,1.01h-7.32c-.27,0-.53-.1-.73-.27-.21-.17-.35-.41-.39-.67l-.96-6.25h-9.13l-.96,6.25c-.04.27-.18.51-.39.67-.21.17-.46.27-.73.27h-7.33l-.5-.05c-.19-.07-.36-.22-.45-.4-.11-.18-.17-.4-.16-.61v-.22l8-50.49c.04-.26.18-.5.39-.67.2-.18.46-.28.73-.29h11.95c.27,0,.53.11.73.29.21.16.35.4.39.67l8.01,50.49Zm-15.1-34.54l-3.05,19.18h6.06l-3.01-19.18Z"/>
    <path class="cls-1" d="m358.38,443.37c.03,2.23-.87,4.37-2.48,5.9-1.53,1.58-3.65,2.46-5.85,2.42h-7.22c-2.22.03-4.36-.84-5.91-2.42-.78-.76-1.39-1.68-1.8-2.69-.43-1.01-.64-2.11-.62-3.21v-3.6c0-.33.14-.65.39-.85.2-.18.46-.28.73-.28h7.21c.32,0,.63.11.85.34.18.23.28.5.29.79v2.48h4.96v-13.99h-6.09c-4.58.03-8.31-3.66-8.34-8.23,0-.03,0-.07,0-.1v-12.65c-.03-2.2.84-4.33,2.42-5.86,1.54-1.61,3.68-2.51,5.91-2.48h7.19c2.21-.03,4.34.87,5.85,2.48,1.6,1.53,2.5,3.65,2.48,5.86v3.6c.02.3-.11.6-.34.79-.21.2-.49.32-.79.34h-7.21c-.32.01-.62-.14-.79-.4-.21-.19-.33-.45-.33-.73v-2.47h-4.96v10.37h6.08c2.21-.03,4.34.87,5.85,2.48,1.6,1.53,2.5,3.64,2.48,5.85l.02,16.26Z"/>
    <path class="cls-1" d="m372.64,408.42h-9.69c-.31.02-.62-.13-.79-.39-.21-.19-.34-.45-.35-.73v-7.24c0-.33.14-.64.4-.85.2-.18.46-.28.73-.28h28.84c.32-.01.63.11.85.34.17.23.27.5.28.79v7.19c.02.3-.11.6-.34.79-.22.2-.5.32-.79.33h-9.69v42.15c.01.3-.11.59-.34.79-.21.21-.49.33-.79.34h-7.22c-.31,0-.61-.14-.79-.39-.21-.19-.33-.45-.33-.73v-42.09Z"/>
    <path class="cls-3" d="m199.17,241.99l.18,1.25s-.06.09-.05.14c.03.1.06.2.1.3.6,3.88,1.5,7.7,2.69,11.43,1.77,5.99,3.54,11.98,5.32,17.98l6.58,22.48c-1.04.08-2.08-.19-2.95-.75l-.67-.34c-1.37-.63-2.41-1.82-2.84-3.27-5.01-15.09-11.04-29.87-14.98-45.35-11.54-45.31,7.13-94.68,46.25-119.33,12.99-8.17,27.14-13.18,42.5-14.22,42.83-2.88,74.71,15.29,95.79,51.95,16.56,28.87,18.69,59.73,8.12,91.3-3.93,11.76-7.99,23.47-12.02,35.19-1.2,3.46-3.23,4.8-6.89,4.85,2.92-9.95,5.87-19.89,8.75-29.87,1-3.47,2.43-6.83,2.78-10.47,1.92-3.97,2.51-8.29,3.36-12.54.29-1.34.37-2.79.54-4.19v-.44c.04-.67.09-1.39.13-2.09.37-.35.57-.84.57-1.35.71-6.93.69-13.92-.06-20.85-1.55-14.4-6.13-28.3-13.46-40.8-9.95-16.86-23.58-29.71-41.45-37.96-16.21-7.46-33.21-9.56-50.76-6.92-23.04,3.41-41.7,14.72-56.5,32.51-8.44,10.22-14.73,22.04-18.47,34.75-3.94,12.88-5.23,26.42-3.81,39.82.15,1.38-.26,3.05,1.08,4.18l.07,1.71c-.23.18-.28.51-.1.74,0,0,0,0,0,0,.06.07.14.13.22.16Z"/>
    <path class="cls-3" d="m358.56,295.67c-1.58,5.21-3.15,10.43-4.75,15.63-.79,3.14-3.59,5.37-6.83,5.44-8.21.51-16.43.25-24.64.12.21-.97.47-1.92.79-2.86,2.08-5.6,4.2-11.16,6.31-16.74,8.86-23.35,17.71-46.72,26.56-70.09.55-1.44,1.34-2.83,1.31-4.46.78.05,1.53.35,2.13.85l11.47,6.49c4.58,2.62,5.65,5.35,4.1,10.48-1.29,4.27-2.57,8.53-3.84,12.8-.14.61-.25,1.23-.32,1.85-.26.43-.48.88-.67,1.35-3.84,13.06-7.71,26.1-11.6,39.14Z"/>
    <path class="cls-3" d="m257.92,318.32c-2.6.45-5.23.2-7.85.25-5.24.09-10.49.14-15.74.11-4.22,0-6.72-2.01-7.94-6.02-1.57-5.21-3.14-10.43-4.71-15.65-3.98-13.53-7.96-27.05-11.95-40.57-1.53-5.12-3.07-10.29-4.57-15.47-1.05-3.06.1-6.44,2.8-8.23,4.81-3.23,9.82-6.15,15-8.75.08.7.22,1.39.42,2.07,7.97,21.32,15.97,42.62,23.99,63.9,3.53,9.45,7.04,18.9,10.55,28.34Z"/>
    <path class="cls-2" d="m198.99,239.41c-1.35-1.13-.92-2.8-1.08-4.18-1.43-13.4-.13-26.95,3.81-39.83,3.74-12.73,10.03-24.56,18.47-34.79,14.8-17.8,33.47-29.1,56.5-32.51,17.55-2.6,34.56-.51,50.78,6.98,17.87,8.24,31.5,21.09,41.45,37.96,7.32,12.49,11.91,26.39,13.45,40.79.76,6.93.78,13.92.08,20.85,0,.51-.2.99-.56,1.34-.02-7.37-.69-14.73-2-21.99-7.01-36.69-35.92-66.56-71.17-73.55-41.48-8.2-81.34,11.67-99.93,49.81-6.91,14.08-10.27,29.63-9.8,45.3v3.81Z"/>
    <path class="cls-2" d="m257.92,318.32c-3.52-9.41-7.04-18.84-10.56-28.3-8-21.32-16.01-42.63-24.03-63.94-.19-.68-.33-1.37-.41-2.07,1.68-1.31,3.57-2.32,5.58-3,3.01-.96,5.19.09,6.3,2.99,11.11,29.01,22.2,58.05,33.28,87.11,1.38,3.6,0,6.13-3.81,6.94-2.09.46-4.22.19-6.35.29Z"/>
    <path class="cls-2" d="m357.33,222.71c0,1.63-.76,3.02-1.31,4.46-8.83,23.38-17.68,46.74-26.56,70.09-2.12,5.58-4.27,11.14-6.31,16.74-.31.94-.57,1.89-.79,2.86-2.26.25-4.54.17-6.78-.26-3.52-.85-4.86-3.37-3.56-6.73,11.21-29.01,22.41-58.04,33.6-87.09,1.16-3.02,3.65-4.04,6.9-2.77,1.72.66,3.33,1.57,4.79,2.7Z"/>
    <path class="cls-2" d="m209.68,256.45c3.98,13.53,7.98,27.05,12,40.57l-7.68-.09c-2.2-7.49-4.39-14.98-6.58-22.48-1.76-5.99-3.54-11.98-5.32-17.98l7.58-.03Z"/>
    <path class="cls-2" d="m358.56,295.67c3.87-13.04,7.75-26.09,11.63-39.13.19-.47.41-.92.67-1.35l6.95.05c-.35,3.65-1.79,7.01-2.78,10.48-2.87,9.97-5.82,19.91-8.75,29.87l-7.72.09Z"/>
    <path class="cls-3" d="m199.17,243.33c-.27-.12-.39-.43-.27-.7,0,0,0,0,0,0,.04-.08.09-.14.15-.2.21.25.25.6.12.9Z"/>
    <path class="cls-3" d="m199.41,245.01c-.04-.09-.08-.19-.1-.29.01-.05.03-.1.05-.15l.05.44Z"/>
    <path class="cls-3" d="m210.36,295.84l.67.34-.67-.34Z"/>
  </g>
</svg>