<?xml version="1.0" encoding="UTF-8"?>
<svg id="Layer_1" data-name="Layer 1" xmlns="http://www.w3.org/2000/svg" viewBox="0 0 576 576">
  <defs>
    <style>
      .cls-1 {
        fill: #eead0e;
        stroke-width: 0px;
      }
    </style>
  </defs>
  <path class="cls-1" d="m196.78,402.57l-3.9,7.68-17.93,35.18-17.93-35.18-3.9-7.68h8.58l3.92,7.68,9.34,18.31,9.33-18.34,3.92-7.68,8.57.03Z"/>
  <path class="cls-1" d="m200.48,445.38v-42.81h7.68v42.81h-7.68Z"/>
  <path class="cls-1" d="m257.08,402.57v42.82l-7.62-5.9-27.52-21.21v27.12h-7.68v-42.69l7.68,5.9,27.55,21.21v-27.26h7.59Z"/>
  <path class="cls-1" d="m306.03,402.57v42.82l-7.68-5.89-27.52-21.22v27.13h-7.68v-42.69l7.68,5.9,27.52,21.21v-27.26h7.68Z"/>
  <path class="cls-1" d="m354.94,402.49h0l-16.58,21.47h0l-.92,1.17v20.19h-7.66v-20.02l-1.02-1.3h0l-16.57-21.52h9.63l11.76,15.32,11.77-15.26,9.6-.06Zm-42.84,42.85h.1l-.1.13v-.13Zm42.73,0h.08v.13l-.08-.13Z"/>
  <path class="cls-1" d="m433.68,402.57v7.65h-17.59v35.16h-7.61v-35.14h-17.61v-7.68l42.81.02Z"/>
  <path class="cls-1" d="m258.43,341.03c31.34,10.2,72.59-6.82,84.4-24.24.43.57,9.87,22.45,9.12,23.05-21.13,18.15-40.24,26.63-70.69,28.52-2.33.03-23.39-27.52-22.83-27.33Z"/>
  <path class="cls-1" d="m352.73,350.46c-.18,6.15-1.84,11.32-3.73,16.72-1.18,3.39-4.77,10.72-4.86,11.09-.23.96.06,1.69,1.01,2.53,2.25,1.99,5.68,5.45,8.14,7.88-10.92.91-12.86.89-23.15.32-1.23-.07-3.07-2.1-3.9-2.04-11.77.88-24.48-3.4-37.29-11.14,6.5-.36,12.95-1.31,19.27-2.84,5.34-1.24,10.57-2.95,15.61-5.12,10.38-4.45,20.11-10.31,28.91-17.4Z"/>
  <polygon class="cls-1" points="285.4 274.4 280.88 286.68 267.33 281.14 209.99 257.71 270.47 271.1 285.4 274.4"/>
  <path class="cls-1" d="m280,258.12c-37.23-22.6-109.52-53.51-116.57-54.61-1.64-.25,12.99,20.43,15.74,25.52-1.06-.28-13.98-5.96-13.64-5.25,11.8,24.94,21.66,50.78,47.17,62.97,13.42,6.39,66.85,9.46,98.3,8.92,6.8-.12-21.82-31.97-31.01-37.55Zm17.43,31.03c-66.57-2.87-71.76-3.27-81.92-7.91-27.79-12.72-39.05-45.89-39.26-46.52l14.6,4.71c-4.61-6.78-8.83-15.67-13.06-21.88,0-.09,82.77,37.91,96.31,48.23.57.41,19.8,16.77,23.33,23.36Z"/>
  <path class="cls-1" d="m275.05,294.09c31.44.54,84.88-2.53,98.3-8.92,25.54-12.19,35.35-38.04,47.17-63.01.34-.71-12.58,4.97-13.64,5.26,2.76-5.09,17.39-25.77,15.74-25.53-7.05,1.11-79.34,32.03-116.57,54.62-9.2,5.58-37.81,37.43-31.01,37.58Zm36.88-29.89c13.55-10.32,96.28-48.32,96.31-48.23-4.22,6.2-8.45,15.09-13.06,21.88l14.6-4.71c-.21.61-11.47,33.81-39.26,46.51-10.16,4.65-15.33,5.04-81.92,7.91,3.53-6.64,22.76-22.98,23.31-23.38l.02.02Z"/>
  <polygon class="cls-1" points="297.32 270.99 301.85 283.26 315.39 277.72 372.74 254.3 312.26 267.69 297.32 270.99"/>
  <path class="cls-1" d="m254.79,215.59c0-22.08,14.85-39.96,33.17-39.96s33.17,17.9,33.17,39.96-6.03,35.09-30.44,39.66c-25.57,4.83-35.89-17.57-35.89-39.66Z"/>
  <path class="cls-1" d="m315.53,228.64v-34.17c0-4.85,1.31-28.82-27.77-28.64-23.77.15-27.79,26.98-27.8,28.58v34.37h-1.26c-2.14,0-4.27,0-6.41-.05-4.14-.27-7.56-3.32-8.3-7.4-.1-.63-.15-1.26-.16-1.89v-17.78c-.12-3.47,1.76-6.71,4.84-8.32l.06-.04c1.41-.28,1.61-1.18,1.69-2.47.36-6.58,2.58-12.92,6.41-18.28,5.55-7.81,12.99-13.06,22.52-15.17,10.25-2.31,19.94-.71,28.72,4.99,9.47,6.15,15.11,14.79,16.76,25.89.18,1.23.27,2.52.35,3.78-.04.38.2.73.57.82,3.84,1.54,5.86,4.46,5.92,8.45.12,6.22.08,12.44,0,18.66-.14,4.72-3.91,8.53-8.63,8.71h-7.05c-.15,0-.3-.02-.45-.05Z"/>
  <path class="cls-1" d="m316.46,296.13c14.01-6.01,19.11-30.21,13.75-38.04-4.28-6.29-10.07-10.65-16.94-13.69-2.47-1.08-5.03-1.96-7.82-3.03,1.05-.83,1.88-1.45,2.68-2.11,5.55-4.61,8.15-5.28,11.96-11.07l-59.79,4.03c2.89,4.72,6.67,8.83,11.14,12.1-12.15,6.54-20.67,15.65-19.14,30.4,1.28,12.33,4.73,19.11,22.28,27.19-9.22,3.52-21.11,19.11-19.73,30.49.46,3.91,22.73,4.32,37.06,1.71,25.74-4.71,48.8-21.3,47.47-25.57-1.14-3.63-13.33-11.67-22.91-12.43Z"/>
  <path class="cls-1" d="m467.13,297.17c.05,34.46-10.18,68.15-29.36,96.77h-13.83c20.8-27.97,32.01-61.92,31.97-96.77,0-89.74-73-162.74-162.69-162.74s-162.68,73-162.68,162.74c-.05,34.86,11.17,68.8,31.97,96.77h-13.83c-53.26-79.93-31.68-187.93,48.25-241.24,79.93-53.31,187.93-31.65,241.21,48.28,19.02,28.46,29.12,61.95,29.01,96.18Z"/>
</svg>