<svg xmlns="http://www.w3.org/2000/svg" viewBox="0 0 476.59 476.47"><defs><style>.cls-1{fill:#fff;}</style></defs><title>mailWC</title><g id="Layer_2" data-name="Layer 2"><g id="Layer_1-2" data-name="Layer 1"><path class="cls-1" d="M0,238.22C.1,106.73,106.39.44,238.2,0,369.34-.43,477,107.25,476.59,238.53c-.37,131.6-107.06,238.05-238.46,237.94S-.1,369.52,0,238.22Zm238.57-109q-66.46,0-132.94,0c-10.56,0-14.85,4.3-14.85,14.81q0,94,0,187.92c0,11,4.37,15.33,15.5,15.33H370.18c11.29,0,15.66-4.42,15.66-15.75q0-93.21,0-186.42c0-12-3.87-15.89-15.83-15.89Q304.29,129.24,238.57,129.26Z"/><path class="cls-1" d="M134.32,155.65c-.34-.34-.61-.78-1.27-1.64H343.58c-1.15,1.3-1.95,2.28-2.84,3.18Q292,206,243.36,254.82c-4.21,4.22-6,4.32-10,.3"/><path class="cls-1" d="M346.29,322.57h-216l64.12-72.35c7,7.14,13.85,14.09,20.71,21,15,15.19,31.05,15.22,46.15.14,6.93-6.92,13.89-13.82,21-20.91Z"/><path class="cls-1" d="M361.3,173.3V302.72l-61.12-68.85Z"/><path class="cls-1" d="M115.4,172.81l61.15,60.84-61.15,69Z"/></g></g></svg>