<svg xmlns="http://www.w3.org/2000/svg" viewBox="0 0 458.36 458.37"><defs><style>.cls-1{fill:#fff;}</style></defs><title>instagramWC</title><g id="Layer_2" data-name="Layer 2"><g id="Layer_1-2" data-name="Layer 1"><path class="cls-1" d="M229.82,0c127.47,1.16,229.57,103.84,228.53,229.8C457.3,357.73,354.24,459.55,227,458.36,100.46,457.18-1.18,353.61,0,227,1.2,101,104.59-1.13,229.82,0ZM112.7,228.82q0,44.74,0,89.49c0,17.19,10.14,27.36,27.29,27.37q89.25,0,178.49,0c17,0,27.37-10.43,27.37-27.45q0-89,0-178c0-17.19-10.54-27.73-27.71-27.73h-178c-17.06,0-27.45,10.32-27.46,27.31Q112.69,184.33,112.7,228.82Z"/><path class="cls-1" d="M137.91,207.47h21.68c-7.65,33.32.25,61.48,28.64,81.21,24.77,17.21,51.89,18.29,77.69,2.63,31.5-19.11,40.74-48.32,33-83.84h21.58v5.42q0,47.48,0,95c0,9.66-2.91,12.59-12.43,12.59H150.14c-9.31,0-12.22-2.91-12.22-12.22q0-47.73,0-95.47Z"/><path class="cls-1" d="M276.32,229.12A47.16,47.16,0,1,1,229.89,182,47.16,47.16,0,0,1,276.32,229.12Z"/><path class="cls-1" d="M300.06,172.37c-3.83,0-7.67.18-11.48,0-5-.29-8.53-3.52-8.72-8.52-.31-7.81-.32-15.64-.06-23.44.17-5.19,3.76-8.64,9-8.81,7.48-.25,15-.25,22.45,0,5.24.17,8.85,3.63,9.06,8.83.3,7.64.3,15.31,0,23-.19,5.52-3.82,8.8-9.35,9C307.38,172.49,303.72,172.37,300.06,172.37Z"/></g></g></svg>