<svg xmlns="http://www.w3.org/2000/svg" viewBox="0 0 458.38 458.38"><defs><style>.cls-1{fill:#fff;}</style></defs><title>linkedInWC</title><g id="Layer_2" data-name="Layer 2"><g id="Layer_1-2" data-name="Layer 1"><path class="cls-1" d="M229.11,0C355.59-.16,458.36,102.54,458.38,229.11S355.8,458.32,229.23,458.38.05,355.86,0,229.23,102.3.16,229.11,0ZM357.46,337c.14-1.48.35-2.62.35-3.76,0-29,.35-58-.23-87a112.75,112.75,0,0,0-4.43-29.45c-6.26-21.05-20.57-34.42-42.46-38.24-22.84-4-42.7,1.25-57,21.06-.51.7-1.15,1.31-2.54,2.88V181.46H199.75V336.85h51.61V331c0-27.32.07-54.64-.05-82,0-8,2.2-15.12,7.54-21.09,7.59-8.49,17.09-11.17,28.06-8.58,10.17,2.4,15.21,9.81,17.28,19.3A85.44,85.44,0,0,1,305.94,256c.18,25,.07,50,.08,75V337Zm-187-155.41H119.21V336.93h51.24Zm-25.61-21.89c13.44-.08,23.59-6.47,27.6-17.39a26.62,26.62,0,0,0-15.85-34.58c-16.27-5.82-34.11,1.37-39.22,15.82C110.77,142.24,124.13,159.81,144.84,159.71Z"/></g></g></svg>