<svg id="Layer_1" data-name="Layer 1" xmlns="http://www.w3.org/2000/svg" viewBox="0 0 576 512"><defs><style>.cls-1{fill:#fff;}</style></defs><title>mapW</title><path class="cls-1" d="M288,0A126,126,0,0,0,162,126c0,56.26,82.35,158.8,113.9,196a15.77,15.77,0,0,0,24.2,0C331.65,284.8,414,182.26,414,126A126,126,0,0,0,288,0Zm0,168a42,42,0,1,1,42-42A42,42,0,0,1,288,168ZM20.12,216A32,32,0,0,0,0,245.66V496a16,16,0,0,0,21.94,14.86L160,448V214.92a302.84,302.84,0,0,1-21.25-46.42ZM288,359.67a47.78,47.78,0,0,1-36.51-17C231.83,319.51,210.92,293.09,192,266V448l192,64V266c-18.92,27.09-39.82,53.52-59.49,76.72A47.8,47.8,0,0,1,288,359.67ZM554.06,161.16,416,224V512l139.88-55.95A32,32,0,0,0,576,426.34V176a16,16,0,0,0-21.94-14.86Z"/></svg>