<svg id="Layer_1" data-name="Layer 1" xmlns="http://www.w3.org/2000/svg" viewBox="0 0 448 512"><defs><style>.cls-1{fill:#fff;}</style></defs><title>phoneW</title><path class="cls-1" d="M400,32H48A48,48,0,0,0,0,80V432a48,48,0,0,0,48,48H400a48,48,0,0,0,48-48V80A48,48,0,0,0,400,32ZM94,416a15,15,0,0,1-14.62-11.63l-15-65a15,15,0,0,1,8.7-17.16l70-30a15,15,0,0,1,17.52,4.29l31,37.89A231.91,231.91,0,0,0,302.39,223.61l-37.89-31a15,15,0,0,1-4.29-17.52l30-70a15,15,0,0,1,17.16-8.71l65,15A15,15,0,0,1,384,126C384,286.29,254.05,416,94,416Z"/></svg>