<svg id="Layer_1" data-name="Layer 1" xmlns="http://www.w3.org/2000/svg" viewBox="0 0 1000 1000"><defs><style>.cls-1{fill:#fff;}</style></defs><title>Barber</title><path class="cls-1" d="M593.11,24.31H843.23V988.65H139.7V24.31h416c-3.06.43-6.12.91-9.2,1.29-15.23,1.89-30.43,4-45.7,5.5-8.1.77-16.31.52-24.47.38-6.21-.1-12.54-1.77-18.6-1-62.05,8-120.83,26.13-175.31,57.34-35.72,20.47-64.08,47.27-75.73,88.39a38.34,38.34,0,0,1-1.64,4.37c-9.08,21.45-10.36,43.52-5.66,66.17.6,2.89.7,6.52-.52,9.06-7.21,14.9-5.69,30.39-3.76,45.93,8.31,66.92,27.42,131,51,193.92,10.08,26.89,21.2,53.44,25.53,82.06,2.05,13.58,3.16,27.3,4.83,42.09,32.52-51.39,57-105.49,77.22-163,3.47,3.91,5.81,6.52,8.12,9.17a242.8,242.8,0,0,0,64.68,52.21c15.23,8.57,32.17,6.36,45.18-5.22,2.27-2,3.17-5.58,5.27-9.48-7.11,3.63-12.12,7.06-17.66,8.85-15.51,5-29.05-.61-39.76-11.17a356,356,0,0,1-34.77-39.56C368.46,440,361.77,415.09,364.4,388c1.44-14.79,5.44-28.91,14.21-41.21,13-18.21,33.29-23.08,52.17-11.09,8.4,5.34,15.07,13.52,22.13,20.8,3.48,3.59,6.06,8.06,10.21,13.72-.76-5.5-1.23-8.88-2-14.41,14.15,5.77,26.8,11,39.51,16.09,6.44,2.58,8.19,7.43,7.69,13.91-.87,11.11-1.25,22.25-2.14,33.35-2.82,35.24-2.11,70.84-10.31,105.56C486.63,563.9,477.26,603,468.09,642.2c-2.7,11.54-5.69,23.64.53,34.59s12.86,22.27,21.73,31c19.82,19.51,41,37.6,61.93,56,3.38,3,4.29,5.43,2.74,9.64-11.3,30.7-16.16,62.81-20.14,95-1,7.76-.15,15.74-.15,23.62l2.32,0c1.7-9.15,3.34-18.32,5.1-27.46,5.37-27.84,16.15-53.6,30.17-78.11,2.54-4.44,5.4-6.56,10.68-3.63,9.15,5.07,18.67,9.46,27.81,14.55a457.86,457.86,0,0,0,83.7,36.59c39.34,12.57,76.8,10.36,111.8-13.37,12.29-8.33,12.87-10.06,7.87-24.07a232.12,232.12,0,0,1-13.83-86.54c.72-21.36.94-42.74,1.11-64.11A45.94,45.94,0,0,0,796,623c-6.93-12.7-6-14.32,8.37-17.12,6.26-1.22,9-4.24,8.13-10.5-2.72-19-4.63-38.18-17.92-53.62-1.07-1.23-1.67-2.87-2.88-5,4.28-.79,7.81-2.19,11.21-1.93,18.68,1.44,28-8.86,34.84-24.76,3.85-8.92,3.57-15.46-1.38-23.47Q816.9,455,798.73,422.64a138.75,138.75,0,0,1-10.5-25.11c-3.54-10.85-.24-20.07,8.66-27.4,6.23-5.13,11.79-10.67,6.77-19.89-.71-1.31.16-3.45.18-5.2.06-5.27,1.23-10.86-.11-15.75-10.64-38.84-21.42-77.65-33-116.22-2.6-8.65-2.68-15.33,2.38-23a215.72,215.72,0,0,0,29.44-66.91c3.08-12.34.62-22.71-8.83-30.84-8.24-7.08-16.76-14.07-26-19.74C726.35,47.2,680.56,34.82,632.89,28.5,619.68,26.74,606.38,25.69,593.11,24.31ZM193.46,736.78c2.08.25,4,.59,5.89.68,38.91,1.78,73.89,15.28,104,39.17,35.19,28,69.05,57.61,102.85,87.25,23.61,20.71,45.78,43,69.26,63.91,22.68,20.14,46.7,38.65,73.31,53.48,3.25,1.81,6.72,3.22,10.09,4.81l1.17-1.69c-4.79-5.8-9.34-11.82-14.42-17.34a371.05,371.05,0,0,1-52.83-72.83c-20.95-38.17-44.74-74.53-73.25-107.38-42.22-48.64-92.23-87.67-150.23-116.1-6.73-3.3-12.7-7-11.46-15.83-17.49-1.64-22,.77-29.77,15.45q-17,32.1-34.15,64.12A9.14,9.14,0,0,0,193.46,736.78ZM432.28,934l1.31-1.3c-1.52-1.86-2.94-3.82-4.59-5.57-13.11-14-25.36-28.88-39.6-41.59-25.56-22.81-51.75-45-78.74-66.1-27.6-21.57-60.12-34.56-92.1-48.08-9.36-4-19.81-7-29.93-3.43-13.82,4.9-27.19,11.07-40.7,16.82-2.28,1-4.3,2.55-8,4.8,8.22,1.48,14.55,2.49,20.82,3.77,21.33,4.36,43.54,6.42,63.75,13.85,25.56,9.39,50,22.28,74,35.31,38.08,20.65,72.23,47.31,107,73C414.17,921.94,423.33,927.82,432.28,934ZM378,395.52c.7-.52,1.24-.71,1.33-1,.45-1.71.83-3.44,1.17-5.18,2.1-11,6.71-20.73,15.22-28.28,8.77-7.79,17.49-7.18,24.76,2.07,2.84,3.63,4.88,7.93,7,12.07,2.73,5.35,1.79,10-2.39,14.61a205.43,205.43,0,0,0-16.52,20.07c-5.79,8.24-5.78,17.23-.17,25.7,11.07,16.71,26.43,27.6,46.1,31.52,3.85.77,9.44-.89,12.36-3.51,3.35-3,.78-13.38-4.2-15.08-15-5.13-10.5-22-19.47-30.55-.88-.84-.14-3.44-.05-5.22.42-8.23,1.06-16.45,1.27-24.68.42-16.34-7.51-28.59-19.93-38.13a24.92,24.92,0,0,0-35.09,5.18C380.78,367,377.42,380.58,378,395.52Zm69.6,88.25-49.74-30.15C407.08,471,430.76,485.71,447.63,483.77Z"/><path d="M593.11,24.31c13.27,1.38,26.57,2.43,39.78,4.19,47.67,6.32,93.46,18.7,134.84,44.08,9.24,5.67,17.76,12.66,26,19.74,9.45,8.13,11.91,18.5,8.83,30.84a215.72,215.72,0,0,1-29.44,66.91c-5.06,7.67-5,14.35-2.38,23,11.57,38.57,22.35,77.38,33,116.22,1.34,4.89.17,10.48.11,15.75,0,1.75-.89,3.89-.18,5.2,5,9.22-.54,14.76-6.77,19.89-8.9,7.33-12.2,16.55-8.66,27.4a138.75,138.75,0,0,0,10.5,25.11q18.18,32.31,37.64,63.89c5,8,5.23,14.55,1.38,23.47-6.88,15.9-16.16,26.2-34.84,24.76-3.4-.26-6.93,1.14-11.21,1.93,1.21,2.15,1.81,3.79,2.88,5,13.29,15.44,15.2,34.67,17.92,53.62.91,6.26-1.87,9.28-8.13,10.5-14.36,2.8-15.3,4.42-8.37,17.12a45.94,45.94,0,0,1,5.46,23c-.17,21.37-.39,42.75-1.11,64.11a232.12,232.12,0,0,0,13.83,86.54c5,14,4.42,15.74-7.87,24.07-35,23.73-72.46,25.94-111.8,13.37a457.86,457.86,0,0,1-83.7-36.59c-9.14-5.09-18.66-9.48-27.81-14.55-5.28-2.93-8.14-.81-10.68,3.63-14,24.51-24.8,50.27-30.17,78.11-1.76,9.14-3.4,18.31-5.1,27.46l-2.32,0c0-7.88-.82-15.86.15-23.62,4-32.23,8.84-64.34,20.14-95,1.55-4.21.64-6.66-2.74-9.64-20.88-18.42-42.11-36.51-61.93-56-8.87-8.73-15.52-20-21.73-31s-3.23-23-.53-34.59c9.17-39.18,18.54-78.3,27.78-117.46,8.2-34.72,7.49-70.32,10.31-105.56.89-11.1,1.27-22.24,2.14-33.35.5-6.48-1.25-11.33-7.69-13.91-12.71-5.1-25.36-10.32-39.51-16.09.77,5.53,1.24,8.91,2,14.41-4.15-5.66-6.73-10.13-10.21-13.72-7.06-7.28-13.73-15.46-22.13-20.8-18.88-12-39.18-7.12-52.17,11.09-8.77,12.3-12.77,26.42-14.21,41.21-2.63,27.07,4.06,52,20.3,73.63a356,356,0,0,0,34.77,39.56c10.71,10.56,24.25,16.18,39.76,11.17,5.54-1.79,10.55-5.22,17.66-8.85-2.1,3.9-3,7.46-5.27,9.48-13,11.58-29.95,13.79-45.18,5.22A242.8,242.8,0,0,1,361.76,466c-2.31-2.65-4.65-5.26-8.12-9.17-20.25,57.48-44.7,111.58-77.22,163-1.67-14.79-2.78-28.51-4.83-42.09-4.33-28.62-15.45-55.17-25.53-82.06-23.57-62.89-42.68-127-51-193.92-1.93-15.54-3.45-31,3.76-45.93,1.22-2.54,1.12-6.17.52-9.06-4.7-22.65-3.42-44.72,5.66-66.17a38.34,38.34,0,0,0,1.64-4.37c11.65-41.12,40-67.92,75.73-88.39,54.48-31.21,113.26-49.38,175.31-57.34,6.06-.78,12.39.89,18.6,1,8.16.14,16.37.39,24.47-.38,15.27-1.46,30.47-3.61,45.7-5.5,3.08-.38,6.14-.86,9.2-1.29Zm13.51,144c10.33,11.44,19.55,21.18,28.19,31.4,5.31,6.27,9.74,13.29,14.54,20,14,19.59,8.42,47.91-12.24,61-15.6,9.9-31.21,19.8-47.07,29.28-8.42,5-13.33,12.08-15.6,21.43-8.74,35.87-13.7,72.12-12.38,109.17.5,14.22,5.29,25.68,15.84,35.36,26.94,24.7,53.38,49.94,80.33,74.62,6.93,6.35,10.14,13.77,11,22.75.8,8.19,1.34,16.46,2.93,24.52,1.09,5.53,3.77,10.76,5.74,16.12,1.85-1.26,2-1.89,2.28-2.5,7.91-20,15.46-40.22,23.85-60,5.34-12.6,15.46-19.68,29.27-21.44,4.23-.53,8.32-2.12,14.18-3.69-5.71-5.41-10.33-9.27-14.32-13.7-6.61-7.35-5.15-18.48,2.8-23.24-.07,1-.1,1.86-.21,2.74-1.82,15,.3,17.33,15.36,17.13,10.69-.14,21.4-.73,32.07-.31s21.58.8,29.11,10.51c.77,1,3.33,1.44,4.69,1,11.62-3.82,16.62-18.48,10.36-28.75-10.54-17.29-21.35-34.46-30.89-52.3-5.82-10.89-10.18-22.71-13.94-34.51-5.33-16.74-4.11-32.89,7.35-47.42,5.75-7.28,6.73-15.81,4.26-24.73q-1.86-6.75-3.75-13.5c-8.79-31.48-17.9-62.89-26.19-94.51-2.58-9.87-7.58-16.26-16.49-21.1-30.8-16.73-64.24-24.81-98.31-30.73C635.5,170.4,621.28,169.76,606.62,168.26ZM632.34,44.5l-.3,1c2.1,1.07,4.27,2,6.3,3.23,12,7.11,24.54,13.6,36,21.61,12.23,8.56,18.8,21.12,20.44,36.13.78,7.13,1.87,14.24,2.82,21.36,1.49-6.73,2.89-13.51,2-20-1.29-9.78-4.15-19.36-6.39-29.22C702.63,81.91,706.27,91,712,100.41c.33-15.88-6.93-25.8-18.41-31.31-18.78-9-38.37-16.37-57.65-24.35C634.87,44.31,633.54,44.57,632.34,44.5Zm15.19,72.44c6.51-28.3-45.78-73.06-82.29-71.84C601.09,59.22,633,77.25,647.53,116.94ZM571.82,78.68C545.73,57.86,516.31,45.82,483.24,44ZM755.26,153l2.27.93c4-11,8.58-21.75,11.63-33,2.36-8.65-1.33-15.27-9.25-19.38C769.43,120.3,759.26,136.33,755.26,153Z"/><path d="M193.46,736.78a9.14,9.14,0,0,1,.44-2.3q17.06-32.07,34.15-64.12c7.79-14.68,12.28-17.09,29.77-15.45-1.24,8.88,4.73,12.53,11.46,15.83,58,28.43,108,67.46,150.23,116.1,28.51,32.85,52.3,69.21,73.25,107.38a371.05,371.05,0,0,0,52.83,72.83c5.08,5.52,9.63,11.54,14.42,17.34l-1.17,1.69c-3.37-1.59-6.84-3-10.09-4.81-26.61-14.83-50.63-33.34-73.31-53.48-23.48-20.86-45.65-43.2-69.26-63.91-33.8-29.64-67.66-59.3-102.85-87.25-30.09-23.89-65.07-37.39-104-39.17C197.44,737.37,195.54,737,193.46,736.78Z"/><path d="M432.28,934c-8.95-6.15-18.11-12-26.83-18.49-34.72-25.72-68.87-52.38-106.95-73-24-13-48.45-25.92-74-35.31-20.21-7.43-42.42-9.49-63.75-13.85-6.27-1.28-12.6-2.29-20.82-3.77,3.71-2.25,5.73-3.83,8-4.8,13.51-5.75,26.88-11.92,40.7-16.82,10.12-3.6,20.57-.53,29.93,3.43,32,13.52,64.5,26.51,92.1,48.08,27,21.09,53.18,43.29,78.74,66.1,14.24,12.71,26.49,27.63,39.6,41.59,1.65,1.75,3.07,3.71,4.59,5.57Z"/><path d="M378,395.52c-.61-14.94,2.75-28.52,11.39-40.44a24.92,24.92,0,0,1,35.09-5.18c12.42,9.54,20.35,21.79,19.93,38.13-.21,8.23-.85,16.45-1.27,24.68-.09,1.78-.83,4.38.05,5.22,9,8.55,4.45,25.42,19.47,30.55,5,1.7,7.55,12.07,4.2,15.08-2.92,2.62-8.51,4.28-12.36,3.51-19.67-3.92-35-14.81-46.1-31.52-5.61-8.47-5.62-17.46.17-25.7a205.43,205.43,0,0,1,16.52-20.07c4.18-4.58,5.12-9.26,2.39-14.61-2.12-4.14-4.16-8.44-7-12.07-7.27-9.25-16-9.86-24.76-2.07-8.51,7.55-13.12,17.25-15.22,28.28-.34,1.74-.72,3.47-1.17,5.18C379.27,394.81,378.73,395,378,395.52Z"/><path d="M447.63,483.77c-16.87,1.94-40.55-12.73-49.74-30.15Z"/><path class="cls-1" d="M606.62,168.26c14.66,1.5,28.88,2.14,42.78,4.55,34.07,5.92,67.51,14,98.31,30.73,8.91,4.84,13.91,11.23,16.49,21.1,8.29,31.62,17.4,63,26.19,94.51q1.89,6.75,3.75,13.5c2.47,8.92,1.49,17.45-4.26,24.73-11.46,14.53-12.68,30.68-7.35,47.42,3.76,11.8,8.12,23.62,13.94,34.51,9.54,17.84,20.35,35,30.89,52.3,6.26,10.27,1.26,24.93-10.36,28.75-1.36.45-3.92,0-4.69-1-7.53-9.71-18.47-10.09-29.11-10.51s-21.38.17-32.07.31c-15.06.2-17.18-2.17-15.36-17.13.11-.88.14-1.77.21-2.74-8,4.76-9.41,15.89-2.8,23.24,4,4.43,8.61,8.29,14.32,13.7-5.86,1.57-10,3.16-14.18,3.69-13.81,1.76-23.93,8.84-29.27,21.44-8.39,19.83-15.94,40-23.85,60-.24.61-.43,1.24-2.28,2.5-2-5.36-4.65-10.59-5.74-16.12-1.59-8.06-2.13-16.33-2.93-24.52-.88-9-4.09-16.4-11-22.75-27-24.68-53.39-49.92-80.33-74.62-10.55-9.68-15.34-21.14-15.84-35.36-1.32-37.05,3.64-73.3,12.38-109.17C576.71,322,581.62,315,590,310c15.86-9.48,31.47-19.38,47.07-29.28,20.66-13.11,26.28-41.43,12.24-61-4.8-6.7-9.23-13.72-14.54-20C626.17,189.44,617,179.7,606.62,168.26Zm171,177.27c-4.06-4.23-6.51-9-10.09-10.12-15-4.68-30.38-8.44-45.71-12.11-3.76-.9-8.54-1.55-11.75,0-17.91,8.59-35.48,17.89-53.17,26.94l.81,2.43c2.87-.49,5.77-.83,8.6-1.49,31.1-7.23,61.82-12.05,89.46,10.62,5.89,4.83,12.23,2.47,17.94-1.3,6-4,11.83-8.13,10.2-17.05Zm-22.73,22.36c-16.14-9.95-58.86-4.66-70.1,8.74,12.28,6.45,24.24,12.7,36.16,19,3.88,2.06,7.69,4.26,12.24,6.79,0-2.38-.18-5.22,0-8,.26-3.29-.15-7.27,1.54-9.65,2.47-3.47,6.56-5.8,10-8.59C747.86,373.56,751,371,754.84,367.89Z"/><path class="cls-1" d="M632.34,44.5c1.2.07,2.53-.19,3.58.25,19.28,8,38.87,15.33,57.65,24.35,11.48,5.51,18.74,15.43,18.41,31.31-5.71-9.37-9.35-18.5-18.78-21.85,2.24,9.86,5.1,19.44,6.39,29.22.86,6.49-.54,13.27-2,20-.95-7.12-2-14.23-2.82-21.36-1.64-15-8.21-27.57-20.44-36.13-11.42-8-23.91-14.5-36-21.61-2-1.2-4.2-2.16-6.3-3.23Z"/><path class="cls-1" d="M647.53,116.94C633,77.25,601.09,59.22,565.24,45.1,601.75,43.88,654,88.64,647.53,116.94Z"/><path class="cls-1" d="M571.82,78.68,483.24,44C516.31,45.82,545.73,57.86,571.82,78.68Z"/><path class="cls-1" d="M755.26,153c4-16.71,14.17-32.74,4.65-51.41,7.92,4.11,11.61,10.73,9.25,19.38-3,11.21-7.68,22-11.63,33Z"/><path d="M777.57,345.53l6.29-2.09c1.63,8.92-4.2,13.08-10.2,17.05-5.71,3.77-12,6.13-17.94,1.3-27.64-22.67-58.36-17.85-89.46-10.62-2.83.66-5.73,1-8.6,1.49l-.81-2.43c17.69-9.05,35.26-18.35,53.17-26.94,3.21-1.54,8-.89,11.75,0,15.33,3.67,30.67,7.43,45.71,12.11C771.06,336.52,773.51,341.3,777.57,345.53Z"/><path d="M754.84,367.89c-3.81,3.1-7,5.67-10.14,8.27-3.42,2.79-7.51,5.12-10,8.59-1.69,2.38-1.28,6.36-1.54,9.65-.22,2.81,0,5.65,0,8-4.55-2.53-8.36-4.73-12.24-6.79-11.92-6.31-23.88-12.56-36.16-19C696,363.23,738.7,357.94,754.84,367.89Zm-37,22.12c.49-7.51.84-13,1.31-20.07l-21.92,6.59-.1,2.5Z"/><path class="cls-1" d="M717.85,390l-20.71-11,.1-2.5,21.92-6.59C718.69,377,718.34,382.5,717.85,390Z"/></svg>