<svg xmlns="http://www.w3.org/2000/svg" viewBox="0 0 576 361.51"><defs><style>.cls-1,.cls-2{fill:#090077;}.cls-2{stroke:#090077;stroke-miterlimit:10;stroke-width:1.26px;}</style></defs><title>JimmiesLogo</title><g id="Layer_1" data-name="Layer 1"><path class="cls-1" d="M343,136.69c-4.85,12.14-7,18-19.82,18.41,5.38-22,15.29-45.14,16.1-65.89.05-1.12-2.11-2.42-2.92-1.65a39.17,39.17,0,0,0-6.62,7.59c-12.59,18.24-16.76,39.72-22.44,60.5-2.23,8.13-8.54,10.61-13.56,8.69-1.84-.71-2.54-3.89-2.15-5.4,4.63-18,9.62-35.89,14.38-53.85.59-2.23-.53-7.57-2.92-4.67-6.28,7.65-5.78,7.57-8,13.21-6.17,15.91-11.91,30.43-18.24,46.28-2.5,6.24-5.17,12.94-13.47,14.21-7.31,1.12-13-2.43-12.14-9.56,1.29-10.19,4.22-20.18,6.66-30.21,1.77-7.28,4.76-14.72,5.83-21.71.25-1.62-4,.48-4.89,1.51-6,6.5-5.85,7.16-8.91,11.73-10.11,15.16-14.18,30.59-18.56,47.92-2.5,9.87-6,12.73-18.47,13.5,2.12-7.39,4.23-14.34,6.09-21.36,3.32-12.52,6.63-25.05,9.56-37.67.45-1.94-1.13-5.76-3.45-2.81-13.63,17.41-15.63,23.28-19.22,38.69-1.87,8-4.09,16-6.3,23.89-2.16,7.72-9.08,6.84-16.28,9,2.45-9.56,4.55-17.86,6.73-26.13,3-11.28,6.2-22.49,8.86-33.84.51-2.17.57-6.24-1.72-7.26-2.46-1.11-5.53,3.14-6.41,5.07-5.17,11.37-23.66,55.4-28.84,64.36-2.46,4.27-5.73,6.29-11.24,7.06A16.78,16.78,0,0,1,139.2,203c-2.1-1.82-2.77-6.85-2.1-10,1.9-9,4.83-17.67,7.69-27.66-22.79,17.63-38.81,38-43.34,66.48a39.91,39.91,0,0,1,5.84,4.69c.28.29-.08,1.16-.48,1.1-4.67-.71-4.89-1-7-1.41-7.22,13.55-13.39,27.69-21.83,40.33-9.46,14.18-20.44,27.46-31.79,40.2-6.07,6.82-14.43,10.86-24.57,9.73-8-.9-12.38-4.5-12.48-12.54C8.88,296.36,17,282.07,27,268.53c13.44-18.17,28.15-35,47-48,1.28-.89,1.82-5.05.89-6.58-10-16.4-16.08-34.09-13.84-53.2,2.67-22.67,9.61-44.28,24.89-62,5.34-6.2,11.38-12.49,18.4-16.39C118,74.68,128.13,84.79,130.14,98c3.49,22.91-.66,44.86-6.88,66.69a125.68,125.68,0,0,0-4.07,18.53c10.82-12.65,27.5-20.43,30.68-39.25,1-6.12,4.48-7.95,18.1-11-2.9,11.67-5.56,22.82-8.45,33.9-2.48,9.51-5.35,18.91-7.74,28.44-.45,1.79-1,5.15.86,5.94,2,.86,4.5-2.07,5.27-3.77,4.8-10.66,9-21.59,13.73-32.29,4.86-11,10.08-21.83,15.13-32.74,3.15-6.82,9-9.79,15.8-8.36,3.87.81,7.11,4.61,10.8,7.16,16.77-20.24,23.69-21.8,30.64-4.81,2.58-3.94,4.69-7.55,7.16-10.89,6.18-8.38,13.35-11.81,18.77-9.22,4.64,2.22,7.18,13.58,4.65,21.62-3.51,11.15-7.23,22.25-10.74,33.4-.68,2.2-2.11,4.72-1.2,6.86a2.58,2.58,0,0,0,2.37,1.63c4-.52,6.21-5.69,7.62-9.22,6.32-15.8,11.75-32,18.07-47.77A52.59,52.59,0,0,1,300,97.07c8.32-9.14,16.11-6.65,19.79,7.16,2.95-4.83,5-9,7.8-12.51,2.41-3,5.3-6.25,8.71-7.83,8.07-3.74,12.9-.28,15,11.42,2.93-4,5.16-7,7.37-10A52.47,52.47,0,0,1,363,79.53c5.38-5.58,12.28-7.85,19-4.23,7.25,3.89,4.76,11.68,3.23,17.53-3,11.54-7.44,22.7-11.11,34.08-1,3.18-3.28,6.69-2.14,9.85a2.9,2.9,0,0,0,2.44,1.93c4.08-.06,6.88-4.79,9.25-8,13.51-18.14,21.26-38.86,26.23-60.75,2.2-9.68,4.07-11,16.43-11.25-5,22.07-9.88,43.85-15,66.53,9.31-.28,10.91-7.2,14.71-11.53,9.78-11.14,10.32-25.94,15.63-38.83,5.64-13.72,14.07-25.63,28.55-31.16,3.63-1.39,9.42-.83,12.53,1.29,2.23,1.53,3,7.51,2.1,10.88a46.18,46.18,0,0,1-18.38,26.57c-2.19,1.53-4.24,3.43-6.65,4.46-8.4,3.58-9.15,10.54-7.84,18,.65,3.71,2,9.21,4.46,10.22,3.12,1.26,6.35,1,11.55-2.41,12.6-8.33,21.5-21.16,30.24-33.27,15.17-21,29.86-42.42,43.68-64.38,1.9-3,3.2-6.43,5-10,4.16,17.12,8.94,33.33,11.67,49.88,1,6.26-2.17,13.45-4.33,19.93-1.35,4.05-2.17,6.71,2.12,9.53,6.45,4.25,7.95,11.33,5.89,18-3.89,12.47-11.52,22.34-21.89,30.88C509,159,470.85,168.68,433.55,180.31c-31.15,9.72-62.78,17.88-94,27.22q-65.82,19.68-131.37,40.16c-31.17,9.78-60.37,23.54-85.55,44.9-3.42,2.91-7.31,5.27-9.92,7.12,6.39-26.93,23.7-47,49.61-60.77,26.74-14.22,55.54-22.24,84.33-30.67,33.82-9.92,67.34-20.89,101.13-30.9,30.45-9,61.05-17.51,91.66-26,21.34-5.89,43.27-10,64.08-17.36,16.19-5.72,31.65-14.24,46.32-23.31,11.94-7.39,11-19.26-.47-27-4.76,3.84-9.08,8.68-14.47,11.32-6,2.93-12.91,4.18-19.55,5.53-5.14,1-9.94-1.49-10.24-6.57-.21-3.51,2.37-9.19,5.23-10.47,6.86-3.07,14.58-5.42,22-5.62,7.65-.2,9.93-3.68,10.35-9.93a102.82,102.82,0,0,0,0-14.58c-.66-8.52-1.74-17-2.76-26.56-3.81,6-7.13,11.83-11,17.26-14.77,20.63-29.06,41.66-45,61.38-5.37,6.67-14.45,11.43-22.78,14.34C450,123.69,442.2,118.69,436,106.69c-4.07,5.81-7.79,11.62-12.06,17-2.28,2.87-5.2,6.3-8.41,7.08-4.18,1-10.44,1.28-13.05-1.12-3.29-3-3.78-9.06-5.18-13-1.19,2.06-3.61,6.06-5.87,10.16-4.13,7.51-9.55,13.87-17.91,16.38-3.31,1-8.54,1-10.7-1-2.59-2.36-4.66-7.77-3.81-11,3.82-14.61,8.92-28.89,13.17-43.4C373,85,374.71,80,372,78.56c-3-1.53-6.44,7.91-8.26,10.44M83.24,211c.63,1.19,4.34,1.34,5.12.24,41.18-57.62,31.43-109.7,29.46-119.5-1.36-6.74-5.5-8.78-10.71-4.75-4.59,3.55-37.29,47-30.43,97.58C77.88,193.46,78.41,202,83.24,211Zm-.81,10.26C55,234.11,38,260.12,26,287.26c-2.93,6.64-4.25,14.3-4.76,21.6-.52,7.61,3.82,11.74,11,9.56,5.5-1.68,10.86-6.45,14.48-11.21C65,283.11,73,254,84,226.45,84.46,225.38,84.73,220.16,82.43,221.24ZM454.25,84.72c13.55-6.92,21.51-23.59,17.65-37C462.28,49.38,454.3,66.1,454.25,84.72Zm83.06-1c.48-3.09-.34-4.82-1.78-4.29C526,82.87,522,84.68,516.67,88.74c-1.32,1-1.09,3.33-.63,5.57.25,1.17,4.26,1.81,5.77,1.37C529.47,93.48,534.94,92,537.31,83.71Z"/><path class="cls-1" d="M413.8,30.69c-.41-7.45,3.81-10.41,9.17-10.75s9.71,2.93,10.71,8.58c.75,4.26-6.37,10-11.69,10A7.81,7.81,0,0,1,413.8,30.69Z"/><path class="cls-1" d="M180.73,124.6c-.81-.94-3.88-2.9-4.35-5.37-.75-3.89,5.17-8.78,9.31-8.66S192,112.81,192,117C192,122.12,189,124.73,180.73,124.6Z"/><path class="cls-1" d="M236.44,349.92a2.62,2.62,0,0,0,.58,1.87,2.36,2.36,0,0,0,1.82.62,3.61,3.61,0,0,0,1.64-.35,2.45,2.45,0,0,0,1-1,3.28,3.28,0,0,0,.35-1.55,2.59,2.59,0,0,0-.22-1.11,3.35,3.35,0,0,0-.68-.93,9.43,9.43,0,0,0-1.3-1,9.08,9.08,0,0,1-1.28-1,4,4,0,0,1-.81-1.13,3.15,3.15,0,0,1-.3-1.39,4,4,0,0,1,.59-2.16,3.93,3.93,0,0,1,1.67-1.44,5.81,5.81,0,0,1,2.5-.51,11,11,0,0,1,1.77.13,13,13,0,0,1,1.8.44l-.58,2.67h-1a4,4,0,0,0-.27-1.39,1.48,1.48,0,0,0-.65-.72,2.46,2.46,0,0,0-1.14-.22,3.07,3.07,0,0,0-1.51.36,2.38,2.38,0,0,0-1,1,2.66,2.66,0,0,0-.34,1.35,2.33,2.33,0,0,0,.19,1,2.71,2.71,0,0,0,.59.83,9,9,0,0,0,1.2.95,10.07,10.07,0,0,1,1.55,1.26,3.76,3.76,0,0,1,.79,1.18,3.83,3.83,0,0,1,.26,1.45,4.1,4.1,0,0,1-.61,2.23,4,4,0,0,1-1.71,1.52,5.68,5.68,0,0,1-2.52.53,15.7,15.7,0,0,1-4-.54l.62-2.85Z"/><path class="cls-1" d="M248.07,350.55c-.08.36-.12.61-.15.78a3.43,3.43,0,0,0,0,.41.92.92,0,0,0,.11.48.62.62,0,0,0,.32.27,2.19,2.19,0,0,0,.72.15l-.1.51h-3.22l1.57-7c.09-.4.15-.72.19-1a5.15,5.15,0,0,0,.05-.6,1,1,0,0,0-.09-.46.51.51,0,0,0-.29-.25,2.45,2.45,0,0,0-.72-.11l.11-.55,2.54-.09h.61Zm2.56-11.4-.47,2h-1.84l.48-2Z"/><path class="cls-1" d="M260.37,353.15H257.1l1.32-5.28c.09-.34.17-.71.25-1.12a5.75,5.75,0,0,0,.12-1.1,1.74,1.74,0,0,0-.26-1.06,1,1,0,0,0-.79-.32,1.67,1.67,0,0,0-.94.34,4.89,4.89,0,0,0-1.06,1,9.11,9.11,0,0,0-.93,1.36,6.27,6.27,0,0,0-.58,1.67l-.95,4.5h-1.79l1.57-7.09c0-.16.09-.4.14-.71a4.23,4.23,0,0,0,.09-.78,1,1,0,0,0-.09-.45.49.49,0,0,0-.3-.24,2.85,2.85,0,0,0-.72-.11l.13-.55,2.35-.09h.6l-.7,2.7.12,0a9.15,9.15,0,0,1,2-2.12,3.19,3.19,0,0,1,1.89-.69,2,2,0,0,1,1.52.55,2.32,2.32,0,0,1,.52,1.65,4.75,4.75,0,0,1-.07.81,6.57,6.57,0,0,1-.15.79l-.87,3.69a5.32,5.32,0,0,0-.17,1.19.93.93,0,0,0,.1.48.66.66,0,0,0,.32.27,2.32,2.32,0,0,0,.72.15Z"/><path class="cls-1" d="M269.6,345.71a5.24,5.24,0,0,0-.13-1.14,1.09,1.09,0,0,0-.36-.53,1.14,1.14,0,0,0-.69-.17,2.56,2.56,0,0,0-1.88.83,6.1,6.1,0,0,0-1.37,2.37,9.06,9.06,0,0,0-.53,2.94,4.22,4.22,0,0,0,.08.82,1.75,1.75,0,0,0,.27.67,1.46,1.46,0,0,0,.51.44,1.73,1.73,0,0,0,.8.16,3.51,3.51,0,0,0,1.64-.36,6.13,6.13,0,0,0,1.46-1.12l.63.63a7,7,0,0,1-2,1.58,4.7,4.7,0,0,1-2.13.5,2.84,2.84,0,0,1-2.28-.9,3.82,3.82,0,0,1-.78-2.59,8.42,8.42,0,0,1,.41-2.44,7,7,0,0,1,1.22-2.34,5.19,5.19,0,0,1,1.87-1.51,5.34,5.34,0,0,1,2.28-.49,10.22,10.22,0,0,1,1.45.09,8.36,8.36,0,0,1,1.09.22l-.5,2.34Z"/><path class="cls-1" d="M279.52,351.08a8.65,8.65,0,0,1-1.47,1.33,4.88,4.88,0,0,1-1.41.7,5.51,5.51,0,0,1-1.56.2,3.35,3.35,0,0,1-1.41-.26,2.72,2.72,0,0,1-1-.73,2.88,2.88,0,0,1-.57-1.1,4.7,4.7,0,0,1-.19-1.38,7.92,7.92,0,0,1,.4-2.39,7,7,0,0,1,1.21-2.28,5.63,5.63,0,0,1,1.94-1.57,5.43,5.43,0,0,1,2.41-.56,3,3,0,0,1,1.89.51,1.92,1.92,0,0,1,.62,1.59,2.84,2.84,0,0,1-1.65,2.65,10.76,10.76,0,0,1-4.92.88,7.21,7.21,0,0,0-.12,1.35,2.44,2.44,0,0,0,.42,1.59,1.75,1.75,0,0,0,1.39.49,3.61,3.61,0,0,0,1.74-.42,6.91,6.91,0,0,0,1.63-1.27ZM274,347.79a13.35,13.35,0,0,0,1.67-.11,6.16,6.16,0,0,0,1.25-.27,3.28,3.28,0,0,0,.86-.41,2.07,2.07,0,0,0,.54-.52,1.64,1.64,0,0,0,.28-.6,2.51,2.51,0,0,0,.08-.67,1.56,1.56,0,0,0-.29-1,1.07,1.07,0,0,0-.88-.35,2.36,2.36,0,0,0-1.43.52,4.91,4.91,0,0,0-1.24,1.41A8.51,8.51,0,0,0,274,347.79Z"/><path class="cls-1" d="M291.8,350.15a6.09,6.09,0,0,0-.19,1.21.78.78,0,0,0,.22.62,1.35,1.35,0,0,0,.72.29,11.45,11.45,0,0,0,1.56.12l-.15.76h-7.34l.16-.76c.58,0,1-.06,1.34-.11a3.33,3.33,0,0,0,.75-.2,1.31,1.31,0,0,0,.46-.3,1.69,1.69,0,0,0,.32-.47,4.69,4.69,0,0,0,.26-.87l1.66-7.53c.06-.29.11-.52.14-.7a2.43,2.43,0,0,0,0-.42.54.54,0,0,0-.15-.44.57.57,0,0,0-.38-.13,2.28,2.28,0,0,0-.82.26c-.36.18-.91.48-1.64.91l-.4-.83,5.26-2.75h.72L294,340c-.11.45-.23,1-.35,1.55Z"/><path class="cls-1" d="M304.92,346.45a6.14,6.14,0,0,1-1.5.74,4.91,4.91,0,0,1-1.57.25,3.23,3.23,0,0,1-1.68-.43,2.74,2.74,0,0,1-1.12-1.21,4.06,4.06,0,0,1-.39-1.84,6.47,6.47,0,0,1,.18-1.46,5,5,0,0,1,.57-1.42,4.86,4.86,0,0,1,1-1.18,4.47,4.47,0,0,1,1.43-.81,5.42,5.42,0,0,1,1.79-.28,3.67,3.67,0,0,1,1.64.34,3.17,3.17,0,0,1,1.18.93,4.19,4.19,0,0,1,.7,1.42,6.3,6.3,0,0,1,.24,1.79,10.75,10.75,0,0,1-.2,2,10.46,10.46,0,0,1-.5,1.83,11.68,11.68,0,0,1-.85,1.74,9.08,9.08,0,0,1-1.12,1.51,9.45,9.45,0,0,1-1.33,1.21,8.44,8.44,0,0,1-1.49.9,8.77,8.77,0,0,1-1.65.59,8.9,8.9,0,0,1-1.72.23l-.38-.57.1-.51a8,8,0,0,0,3.1-.82,6.38,6.38,0,0,0,2.2-1.87,10.07,10.07,0,0,0,1.47-3.05Zm-2.35-.06a3.61,3.61,0,0,0,1.23-.23,3.52,3.52,0,0,0,1-.54,2,2,0,0,0,.48-.49,2.27,2.27,0,0,0,.29-.86,8.3,8.3,0,0,0,.1-1.47,3.91,3.91,0,0,0-.57-2.32,1.94,1.94,0,0,0-1.69-.79,2.32,2.32,0,0,0-1.48.55,3.65,3.65,0,0,0-1.06,1.55,5.91,5.91,0,0,0-.38,2.18,2.84,2.84,0,0,0,.49,1.83A2,2,0,0,0,302.57,346.39Z"/><path class="cls-1" d="M314,351.49a4.23,4.23,0,0,0,.6,0,1.3,1.3,0,0,0,.35-.12,1.44,1.44,0,0,0,.28-.24,1.38,1.38,0,0,0,.26-.36,6.58,6.58,0,0,0,.31-.61h1l-.77,3h-8.14l.1-.5a16,16,0,0,1,1.57-2.26,33,33,0,0,1,2.64-2.77c.92-.87,1.57-1.5,1.92-1.87a13.1,13.1,0,0,0,1.44-1.65,5.25,5.25,0,0,0,.71-1.29,3.7,3.7,0,0,0,.21-1.23,1.76,1.76,0,0,0-.5-1.34,1.94,1.94,0,0,0-1.41-.48,2.51,2.51,0,0,0-1.53.51,3.5,3.5,0,0,0-1.09,1.45h-1.34l.44-2a15,15,0,0,1,2.18-.69,9.08,9.08,0,0,1,2-.22,4.16,4.16,0,0,1,1.76.34,2.47,2.47,0,0,1,1.12.93,2.44,2.44,0,0,1,.38,1.31,4.42,4.42,0,0,1-.17,1.24,4.22,4.22,0,0,1-.52,1.1,11.05,11.05,0,0,1-1.34,1.59c-.54.55-1.42,1.37-2.66,2.48a27.83,27.83,0,0,0-3.61,3.69Z"/><path class="cls-1" d="M323.53,345.16a6,6,0,0,1,2.06-.34,3.85,3.85,0,0,1,1.82.41,2.76,2.76,0,0,1,1.17,1.15,3.68,3.68,0,0,1,.41,1.75,6.09,6.09,0,0,1-.62,2.65,4.12,4.12,0,0,1-1.82,1.91,6.18,6.18,0,0,1-2.92.62,10.2,10.2,0,0,1-1.91-.19,8.88,8.88,0,0,1-1.84-.54l.48-2.2h1.2a1.88,1.88,0,0,0,2.13,2.05,2.89,2.89,0,0,0,1.86-.58,3.54,3.54,0,0,0,1.11-1.58,5.63,5.63,0,0,0,.38-2,2.57,2.57,0,0,0-.56-1.78,2.11,2.11,0,0,0-1.63-.61,8.17,8.17,0,0,0-.91.05,7.45,7.45,0,0,0-1,.22l-.89-.66,1.45-6.52h5.18a1.62,1.62,0,0,0,.51-.05.67.67,0,0,0,.28-.19,2.33,2.33,0,0,0,.24-.44h.84l-.67,2.41h-5.4Z"/><path class="cls-2" d="M196,312.21c0,.33-.61,1.1-1.83,2.32q-2.74,2.73-5,2.73a3.71,3.71,0,0,1-1.71-.37q-4.11,5.81-7.72,5.81a4,4,0,0,1-3.19-1.54,5.45,5.45,0,0,1-1.32-3.68q0-4.78,6.28-9.24c2.94-2.09,5.37-3.14,7.27-3.14s2.68,1,2.68,2.86q0,3.59-3.76,8.62A2.63,2.63,0,0,0,189,317a6,6,0,0,0,3.27-1.3,11.24,11.24,0,0,0,3.06-3.13c.23-.29.4-.44.5-.44S196,312.13,196,312.21ZM190.92,308c0-1.68-.76-2.52-2.27-2.52-1.88,0-4.19,1.8-6.9,5.41s-4.07,6.64-4.07,9.11c0,1.43.68,2.14,2,2.14q3.36,0,7.34-5.53a3,3,0,0,1-.91-2.05,5.24,5.24,0,0,1,1.22-3.14c.81-1.08,1.59-1.62,2.36-1.62.33,0,.56.21.68.62A5.6,5.6,0,0,0,190.92,308Z"/><path class="cls-2" d="M217.1,290c0,1.85-1.3,4.16-3.92,7a52,52,0,0,1-10.26,8.19h5.35l-.28.47h-5.41L200,310.51a114.59,114.59,0,0,1-8,13.83,44.73,44.73,0,0,1-7.68,8.28q-6,5-11.17,5c-1.53,0-2.3-.23-2.3-.67,0-.21.11-.31.34-.31a.94.94,0,0,1,.38.06,7.44,7.44,0,0,0,2.11.33q4.2,0,8.46-3.77a24.32,24.32,0,0,0,4.57-5.41q1.62-2.49,7.66-13.55l4.78-8.71h-3.32l.25-.47h3.39a60.32,60.32,0,0,1,8.8-11.67q4.81-4.94,7.43-4.93C216.64,288.5,217.1,289,217.1,290Zm-.37-.06a.91.91,0,0,0-1-1c-1.57,0-3.72,1.81-6.44,5.41a103.64,103.64,0,0,0-6.09,10.2,58,58,0,0,0,9.33-8.08Q216.73,291.86,216.73,289.9Z"/><path class="cls-2" d="M273.26,281.35c0,1-1,2.43-3,4.3a42.37,42.37,0,0,1-7.32,5.4q-.57,1.77-1.65,6.44a57.34,57.34,0,0,1-3.21,10.37,21.81,21.81,0,0,1-4.81,6.23q-9.71,9.18-21.74,9.17a15.07,15.07,0,0,1-6.09-1.15,11.28,11.28,0,0,0-1.47,5,7.71,7.71,0,0,0,1.79,4.92.59.59,0,0,1,.19.44c0,.17-.1.25-.31.25-.48,0-1-.64-1.55-1.93a9.25,9.25,0,0,1-.83-3.61,11.39,11.39,0,0,1,1.59-5.36q-6.51-3.36-6.5-11.54a20.08,20.08,0,0,1,3.11-10.44,32.54,32.54,0,0,1,8.73-9.36q7.19-5.29,14.21-5.29a8.45,8.45,0,0,1,6.08,2.15,7.66,7.66,0,0,1,2.26,5.81,16.07,16.07,0,0,1-.56,4.08q4.56-3.06,8.08-5.17a29.88,29.88,0,0,1,5.63-8.39c2.26-2.34,4.23-3.52,5.91-3.52C272.77,280.13,273.26,280.54,273.26,281.35ZM252.18,293a7,7,0,0,0-2.07-5.26,7.58,7.58,0,0,0-5.46-2q-8.35,0-16.18,8.71t-7.82,18q0,6.13,4.51,8.71a46.19,46.19,0,0,1,6.06-7.62,5.4,5.4,0,0,1-2.05-4.23,4.59,4.59,0,0,1,1.18-3.18,3.68,3.68,0,0,1,2.86-1.33c1.39,0,2.08.65,2.08,1.93a2.32,2.32,0,0,1-.77,1.73,2.58,2.58,0,0,1-1.84.73c-1,0-1.52-.49-1.52-1.46a2,2,0,0,1,.31-1,3.33,3.33,0,0,0,.12-.46c0-.13-.06-.19-.18-.19-.36,0-.72.37-1.09,1.12a4.83,4.83,0,0,0-.56,2.21,4.77,4.77,0,0,0,1.89,3.67q6.25-6.6,19.75-15.4A17.62,17.62,0,0,0,252.18,293Zm7.71-.13q-3.64,2.31-8,5.23a27.09,27.09,0,0,1-7.2,11.56q-5.14,5-9.87,5a7.86,7.86,0,0,1-3.14-.75,44,44,0,0,0-6,7.65,13.84,13.84,0,0,0,5.78,1.15,21.56,21.56,0,0,0,11.32-3.31,29.86,29.86,0,0,0,9.39-9.19,35.13,35.13,0,0,0,2.89-5.08c.71-1.57,1.85-4.51,3.42-8.85C258.92,295.2,259.37,294.06,259.89,292.88Zm-8.8,5.72L249,300q-11.73,8.08-16.92,13.47a6,6,0,0,0,2.8.68q4.35,0,9.11-4.57A28.27,28.27,0,0,0,251.09,298.6Zm21.58-17.19q0-.75-.87-.75-2.08,0-4.65,2.88a20.67,20.67,0,0,0-4,6.73,42.13,42.13,0,0,0,6.8-5Q272.66,282.71,272.67,281.41Z"/><path class="cls-2" d="M282.63,312.24q0,.66-4.54,6-3.68,4.43-5.79,4.42a2.94,2.94,0,0,1-2.34-1.07,4,4,0,0,1-.9-2.69,8,8,0,0,1,1-3.64,43.46,43.46,0,0,1-4.76,5.88,4.86,4.86,0,0,1-3.2,1.52,3.42,3.42,0,0,1-2.77-1.41,5.55,5.55,0,0,1-1.12-3.56q0-6,8.43-10.57a13.31,13.31,0,0,1,6-2.06,1.67,1.67,0,0,1,1.92,1.87,5.58,5.58,0,0,1-.24,1.4l1.58-3a7.08,7.08,0,0,0,1.65.22,13.72,13.72,0,0,0,2.18-.22l-5.51,9.11q-2.87,4.8-2.86,6.31c0,1,.41,1.47,1.22,1.47s2.15-.95,4-2.85a52.12,52.12,0,0,0,5.57-7c.13-.2.24-.31.35-.31A.17.17,0,0,1,282.63,312.24Zm-8.56-5.15c0-1-.47-1.52-1.4-1.52q-2.87,0-7.51,5.6t-4.65,9c0,1.35.6,2,1.8,2q2.15,0,7.44-7.12Q274.07,309.27,274.07,307.09Z"/><path class="cls-2" d="M300.08,312.18c0,.25-.66,1.05-2,2.4q-2.72,2.84-4.74,2.84a2.63,2.63,0,0,1-2.27-1.5,32.49,32.49,0,0,1-4.51,5.31,5.44,5.44,0,0,1-3.52,1.47,3.74,3.74,0,0,1-3.76-3.76c0-1.22.7-3,2.09-5.35l4.91-8.24c1,.11,1.7.16,2.05.16a8.24,8.24,0,0,0,1.84-.16l-6.5,10.51q-2.15,3.54-2.15,4.91t1.65,1.47a4.82,4.82,0,0,0,3.12-1.4,40.73,40.73,0,0,0,4.59-5.29,5.69,5.69,0,0,1-.28-1.65,11.53,11.53,0,0,1,1.74-5.81q1.74-3,3.36-3,.78,0,.78.9,0,2.34-5.16,9.61a2.12,2.12,0,0,0,2,1.4q2.37,0,5.76-4.21.63-.75.81-.75C300,312.05,300.08,312.09,300.08,312.18Z"/><path class="cls-2" d="M310.71,312.24a3,3,0,0,1-.31.5l-1.34,1.84q-5.85,8.12-8.93,8.12a3.21,3.21,0,0,1-2.45-1,3.65,3.65,0,0,1-1-2.6q0-1.8,2.15-5.47l4.85-8.24a7,7,0,0,0,1.52.22,17.31,17.31,0,0,0,2.37-.22L300.53,317a8.49,8.49,0,0,0-1.53,3.89c0,.93.49,1.4,1.47,1.4q2.76,0,9.74-9.88c.11-.2.21-.31.31-.31A.17.17,0,0,1,310.71,312.24Zm-.45-12.86a2.9,2.9,0,0,1-.92,2,2.76,2.76,0,0,1-2,.95,1.24,1.24,0,0,1-1.4-1.4,2.8,2.8,0,0,1,1-2,2.89,2.89,0,0,1,2-.95A1.19,1.19,0,0,1,310.26,299.38Z"/><path class="cls-2" d="M335.68,312.24q0,.66-4.51,6-3.71,4.43-5.82,4.42a3,3,0,0,1-2.36-1.09,3.91,3.91,0,0,1-.94-2.67,6,6,0,0,1,.57-2.6,46.87,46.87,0,0,1,3-4.74c1.68-2.49,2.52-4.07,2.52-4.76s-.45-1.27-1.34-1.27q-4.53,0-14,16.85-1.53-.12-1.83-.12a16.8,16.8,0,0,0-2.06.12l4.85-7.68q4.14-6.58,4.14-8.24,0-.93-.78-.93-1.59,0-6.26,6.7c-.19.27-.33.42-.44.44s-.16-.07-.18-.19a.49.49,0,0,1,.12-.25l.59-.78q4.77-6.39,6.42-6.39a2.21,2.21,0,0,1,1.8,1,3.63,3.63,0,0,1,.75,2.3q0,2-2.33,5.53a54,54,0,0,1,5.64-6.93,5.61,5.61,0,0,1,3.66-1.87,2.9,2.9,0,0,1,2.3,1.12,4.2,4.2,0,0,1,.93,2.77q0,2.08-2.86,6.37c-1.95,2.93-2.92,4.79-2.92,5.6a1.13,1.13,0,0,0,1.27,1.28q2.78,0,9.56-9.88c.11-.2.21-.31.31-.31A.17.17,0,0,1,335.68,312.24Z"/><path class="cls-2" d="M418.5,289.64a16.08,16.08,0,0,1-.43,3.54c-.29,1.28-.56,1.93-.83,1.93a.28.28,0,0,1-.31-.31.94.94,0,0,1,.06-.28,13.14,13.14,0,0,0,.82-4.69,8.56,8.56,0,0,0-2.33-6.29,8.2,8.2,0,0,0-6.15-2.38,19.87,19.87,0,0,0-10.64,3.39q4.6,3.66,4.6,7.95a8,8,0,0,1-2.9,6.2,13.85,13.85,0,0,1-7.67,3.15,5.93,5.93,0,0,1,3.24,5.42,25,25,0,0,1-1.65,7.19,16.36,16.36,0,0,0-1.09,5,4.22,4.22,0,0,0,1.34,3.16,4.53,4.53,0,0,0,3.27,1.29,6.2,6.2,0,0,0,3.77-1.32,1.53,1.53,0,0,1,.56-.25.22.22,0,0,1,.25.25c0,.35-.58.76-1.75,1.22a8.38,8.38,0,0,1-3,.69,6.31,6.31,0,0,1-5-2.38,8.76,8.76,0,0,1-2-5.89c0-1.7.74-4.7,2.24-9a9.13,9.13,0,0,0,.56-2.8,3.14,3.14,0,0,0-1.22-2.49c-1.32.12-2.08.18-2.27.18-2.05,0-3.07-.26-3.07-.77,0-.34.51-.5,1.55-.5a10.18,10.18,0,0,1,3.67.71,9.57,9.57,0,0,0,6.06-3.43,10.15,10.15,0,0,0,2.37-6.7,9,9,0,0,0-2.37-5.84l-.31-.4Q391,290.27,385,303q-3.68,7.68-6.72,11.07a28.16,28.16,0,0,1-8.55,6.12,26.9,26.9,0,0,1-11.6,3.17,11.87,11.87,0,0,1-6.93-1.91,5.63,5.63,0,0,1-2.77-4.77,4.1,4.1,0,0,1,1-2.74,2.9,2.9,0,0,1,2.27-1.15c1.26,0,1.89.71,1.89,2.12a2.71,2.71,0,0,1-.63,1.8,2,2,0,0,1-1.57.75q-1.62,0-1.56-1.68,0-.69-.12-.69c-.34,0-.5.55-.5,1.65a5,5,0,0,0,2.53,4.29,11.18,11.18,0,0,0,6.39,1.71,17.9,17.9,0,0,0,12.33-5,32.28,32.28,0,0,0,4.14-4.51q1.86-2.49,8.14-12.07a83.18,83.18,0,0,1,7.39-9.48,43.57,43.57,0,0,1,7.24-6.81q-4.85-4.14-14.24-4.14a31.55,31.55,0,0,0-22.82,9.49q-8,7.77-8,14.64a7.17,7.17,0,0,0,2.24,5.54,8.6,8.6,0,0,0,6.06,2.05q6.26,0,12.92-6t6.67-11.66q0-4.52-4.63-4.51t-9.94,5.17q-5.29,5.17-5.3,9.71A2.74,2.74,0,0,0,361,307a2.32,2.32,0,0,0,1.75.8c.36,0,.53.1.53.28s-.19.25-.59.25A3.09,3.09,0,0,1,360.2,307a5.27,5.27,0,0,1-1-3.31q0-4.85,5.32-9.44t10.91-4.6q5.36,0,5.35,4.94,0,6-6.81,12.19t-13.43,6.16a8.95,8.95,0,0,1-9.52-9.55q0-8.79,9.94-16.06a36.37,36.37,0,0,1,22-7.26q9.14,0,15.36,4.07a20.84,20.84,0,0,1,11-3.54,9.17,9.17,0,0,1,6.71,2.49A8.78,8.78,0,0,1,418.5,289.64Z"/><path class="cls-2" d="M424.24,312.21c0,.33-.61,1.1-1.84,2.32q-2.75,2.73-5,2.73a3.77,3.77,0,0,1-1.71-.37q-4.11,5.81-7.72,5.81a4.06,4.06,0,0,1-3.19-1.54,5.45,5.45,0,0,1-1.32-3.68q0-4.78,6.28-9.24,4.41-3.14,7.28-3.14c1.78,0,2.67,1,2.67,2.86q0,3.59-3.76,8.62a2.64,2.64,0,0,0,1.4.37,6,6,0,0,0,3.27-1.3,11.34,11.34,0,0,0,3.05-3.13c.23-.29.4-.44.5-.44A.12.12,0,0,1,424.24,312.21ZM419.18,308c0-1.68-.75-2.52-2.27-2.52q-2.82,0-6.9,5.41T405.94,320c0,1.43.68,2.14,2.05,2.14q3.36,0,7.34-5.53a3,3,0,0,1-.9-2.05,5.23,5.23,0,0,1,1.21-3.14c.81-1.08,1.59-1.62,2.36-1.62.33,0,.56.21.69.62A5.75,5.75,0,0,0,419.18,308Z"/><path class="cls-2" d="M439.72,312.24q0,.4-4.39,5.23-4.79,5.23-8.15,5.23a4.91,4.91,0,0,1-3.73-1.66,5.6,5.6,0,0,1-1.56-4,9.06,9.06,0,0,1,2.11-5.41,18.4,18.4,0,0,1,5.69-4.82,10.63,10.63,0,0,1,4.92-1.74c1.53,0,2.3.92,2.3,2.74a7.59,7.59,0,0,1-1.45,4.29c-1,1.43-1.92,2.15-2.87,2.15a1.24,1.24,0,0,1-1.4-1.4c0-1.1.95-2.12,2.86-3.05,1.47-.73,2.2-1.68,2.2-2.86,0-.93-.5-1.4-1.52-1.4q-2.58,0-6.34,5.13t-3.76,8.61c0,1.95.91,2.93,2.73,2.93q4.31,0,11.65-9.69c.27-.33.46-.5.59-.5A.17.17,0,0,1,439.72,312.24Z"/><path class="cls-2" d="M456.22,290.21c-.17.29-.43.71-.78,1.27L453,295.37q-.76,1.33-2.39,4L445.27,308q-2.67,4.32-4.54,7.83c-1.39,2.61-2.51,4.64-3.36,6.06l-.4.63a7.27,7.27,0,0,0-1.65-.19,15.14,15.14,0,0,0-2,.19c.48-.81,1-1.72,1.59-2.74l3.6-6.28,2.43-4.23,11.41-19.09a10.57,10.57,0,0,0,1.9.25A12.28,12.28,0,0,0,456.22,290.21Zm2.69,22a4.85,4.85,0,0,1-.32.5l-1.33,1.84c-3.93,5.41-6.88,8.12-8.88,8.12a3.47,3.47,0,0,1-2.36-.9,2.67,2.67,0,0,1-1-2.06q0-1,1.74-4.45l0-.12a4.24,4.24,0,0,0,.59-1.72c0-.45-.34-.88-1-1.27a5.35,5.35,0,0,1-2,.5c-.73,0-1.09-.21-1.09-.63s.34-.52,1-.52a5.17,5.17,0,0,1,1.83.31q1.56-.69,5-4.63a5.12,5.12,0,0,1,3.76-2.11c1.57,0,2.36.75,2.36,2.24a4.69,4.69,0,0,1-1.2,3,3.22,3.22,0,0,1-2.37,1.48c-.89,0-1.34-.41-1.34-1.21s.67-1.55,2-2.4a1.67,1.67,0,0,0,.84-1.49q0-.75-1-.75c-.9,0-2,.79-3.36,2.36a14.45,14.45,0,0,1-4.2,3.66c2.16,1,3.23,2.15,3.23,3.46a12.51,12.51,0,0,1-1.52,4.2,5.17,5.17,0,0,0-.65,1.81q0,.81,1,.81,2.92,0,9.55-9.88c.14-.2.28-.31.4-.31S458.91,312.12,458.91,312.24Z"/></g></svg>