<svg id="Layer_1" data-name="Layer 1" xmlns="http://www.w3.org/2000/svg" xmlns:xlink="http://www.w3.org/1999/xlink" viewBox="0 0 1000 1000"><defs><style>.cls-1{fill:#fff;}.cls-2{fill:#1b3457;}.cls-3{fill:url(#linear-gradient);}.cls-4{fill:url(#linear-gradient-2);}.cls-5{clip-path:url(#clip-path);}</style><linearGradient id="linear-gradient" x1="207.51" y1="388.55" x2="458.07" y2="402.97" gradientUnits="userSpaceOnUse"><stop offset="0" stop-color="#fff" stop-opacity="0"/><stop offset="0.07" stop-color="#fff" stop-opacity="0.17"/><stop offset="0.16" stop-color="#fff" stop-opacity="0.36"/><stop offset="0.26" stop-color="#fff" stop-opacity="0.53"/><stop offset="0.36" stop-color="#fff" stop-opacity="0.68"/><stop offset="0.47" stop-color="#fff" stop-opacity="0.79"/><stop offset="0.58" stop-color="#fff" stop-opacity="0.88"/><stop offset="0.7" stop-color="#fff" stop-opacity="0.95"/><stop offset="0.83" stop-color="#fff" stop-opacity="0.99"/><stop offset="1" stop-color="#fff"/></linearGradient><linearGradient id="linear-gradient-2" x1="578.7" y1="351.75" x2="797.52" y2="351.75" gradientUnits="userSpaceOnUse"><stop offset="0.21" stop-color="#fff"/><stop offset="0.3" stop-color="#fff" stop-opacity="0.98"/><stop offset="0.4" stop-color="#fff" stop-opacity="0.93"/><stop offset="0.5" stop-color="#fff" stop-opacity="0.85"/><stop offset="0.6" stop-color="#fff" stop-opacity="0.73"/><stop offset="0.71" stop-color="#fff" stop-opacity="0.58"/><stop offset="0.82" stop-color="#fff" stop-opacity="0.4"/><stop offset="0.92" stop-color="#fff" stop-opacity="0.18"/><stop offset="1" stop-color="#fff" stop-opacity="0"/></linearGradient><clipPath id="clip-path"><path class="cls-1" d="M518,516.84a97.7,97.7,0,0,1-97.83-98.16c.08-54.19,44.47-97.94,98.58-97.72,53.35.21,97.86,44.18,97.55,98.46C616,473.35,571.9,517.33,518,516.84Zm.22-26.38c39.8.48,70.61-32.27,71.67-69,1.22-42.3-32.13-74.31-71.49-74.32a71.56,71.56,0,0,0-71.9,71.28C446.16,458.24,479,491.07,518.23,490.46Z"/></clipPath></defs><title>SMACC_late_2018</title><rect class="cls-2" x="-14.24" y="-10.87" width="1022.79" height="1022.79"/><path class="cls-1" d="M474.89,413l50.51,54c6.69,7.16,19,5.16,23.81-3.07l46.64-80.41a15.16,15.16,0,1,0-26.18-15.31Q546.36,408.48,523,448.68l23.81-3.07-50.52-54c-5.59-6-15.78-5.66-21.43,0-6,6-5.61,15.44,0,21.43Z"/><path class="cls-1" d="M448.74,436.68l44.52-21.3c7.38-3.53,9.32-14.09,5.43-20.74-4.41-7.55-13.32-9-20.74-5.43L433.44,410.5c-7.39,3.53-9.33,14.09-5.44,20.74,4.42,7.55,13.33,9,20.74,5.44Z"/><path class="cls-3" d="M207.41,453l67.25-39.62,9.53-5.62-6.56-.84,47.24,42.69a5.48,5.48,0,0,0,8.5-1.1l53.79-93.37,7.73-13.41-9.9-1.29,15.77,87.32L403,440.36c.67,3.73,5.09,4.59,8,3.24l48.55-22.82c6.3-3,.81-12.3-5.46-9.35l-48.55,22.82,8,3.23-15.76-87.32-2.27-12.61c-.85-4.71-7.71-5.09-9.9-1.29l-53.79,93.37L324,443l8.51-1.1-47.25-42.69a5.57,5.57,0,0,0-6.56-.85L211.47,438,202,443.64c-6,3.54-.56,12.9,5.46,9.35Z"/><rect class="cls-1" x="406.39" y="457.54" width="28.32" height="117.61" rx="14.16" ry="14.16" transform="translate(488.29 -146.14) rotate(45)"/><path class="cls-1" d="M389,564.14a16.23,16.23,0,0,1-11.47-27.7l63.14-63.14a16.22,16.22,0,1,1,22.94,22.95l-63.14,63.14A16.19,16.19,0,0,1,389,564.14Zm63.14-91.45a12,12,0,0,0-8.55,3.54l-63.14,63.14a12.09,12.09,0,1,0,17.1,17.1l63.14-63.14a12.09,12.09,0,0,0-8.55-20.64Z"/><path class="cls-4" d="M792.91,270.45l-54.17,56.2-7.67,8,6.56-.85-57-28.47c-3-1.52-7-.33-7.95,3.24L645.92,412.9l-3.85,15L652,426.6l-38.58-79.91-5.58-11.54c-1.76-3.65-7.51-3.4-9.35,0q-11.73,21.8-23.48,43.59c-3.3,6.13,6,11.61,9.35,5.46q11.74-21.78,23.48-43.58h-9.35L637,420.52l5.57,11.54c2.06,4.26,8.8,3,9.9-1.29l26.8-104.37,3.85-15-8,3.23,57,28.47a5.57,5.57,0,0,0,6.56-.84l54.17-56.2,7.67-8c4.84-5-2.8-12.69-7.65-7.66Z"/><path class="cls-1" d="M518,516.84a97.7,97.7,0,0,1-97.83-98.16c.08-54.19,44.47-97.94,98.58-97.72,53.35.21,97.86,44.18,97.55,98.46C616,473.35,571.9,517.33,518,516.84Zm.22-26.38c39.8.48,70.61-32.27,71.67-69,1.22-42.3-32.13-74.31-71.49-74.32a71.56,71.56,0,0,0-71.9,71.28C446.16,458.24,479,491.07,518.23,490.46Z"/><g class="cls-5"><circle class="cls-1" cx="518.24" cy="418.9" r="84.57"/></g><path class="cls-1" d="M112.31,631.19a18.18,18.18,0,0,0,9.22,2.6c5.26,0,8.33-2.77,8.33-6.79,0-3.72-2.13-5.85-7.51-7.92-6.5-2.3-10.52-5.67-10.52-11.29,0-6.2,5.14-10.81,12.89-10.81a18,18,0,0,1,8.8,1.95l-1.42,4.19a15.85,15.85,0,0,0-7.56-1.89c-5.44,0-7.51,3.25-7.51,6,0,3.72,2.43,5.56,7.92,7.68,6.74,2.6,10.17,5.85,10.17,11.7,0,6.15-4.55,11.47-14,11.47-3.84,0-8-1.12-10.16-2.54Z"/><path class="cls-1" d="M175,617.13c0,13.71-8.33,21-18.49,21-10.52,0-17.91-8.16-17.91-20.21,0-12.65,7.86-20.92,18.5-20.92C168,597,175,605.31,175,617.13Zm-30.9.65c0,8.51,4.61,16.13,12.7,16.13s12.77-7.5,12.77-16.54c0-7.92-4.14-16.2-12.71-16.2S144.1,609,144.1,617.78Z"/><path class="cls-1" d="M208.33,636.16a25.6,25.6,0,0,1-10.52,1.89c-11.23,0-19.68-7.09-19.68-20.15,0-12.47,8.45-20.92,20.8-20.92,5,0,8.1,1.06,9.46,1.77l-1.24,4.2a18.67,18.67,0,0,0-8-1.66c-9.34,0-15.54,6-15.54,16.43,0,9.75,5.61,16,15.31,16a20.49,20.49,0,0,0,8.39-1.66Z"/><path class="cls-1" d="M218.73,597.63v39.83h-5.14V597.63Z"/><path class="cls-1" d="M233,624.93l-4.14,12.53h-5.32l13.54-39.83h6.2l13.59,39.83h-5.49l-4.26-12.53Zm13.06-4-3.9-11.46c-.89-2.6-1.48-5-2.07-7.27h-.12c-.59,2.36-1.24,4.78-2,7.21L234,620.91Z"/><path class="cls-1" d="M261.51,597.63h5.14v35.51h17v4.32H261.51Z"/><path class="cls-1" d="M333.13,620c-.3-5.56-.65-12.24-.59-17.2h-.18c-1.36,4.67-3,9.63-5,15.13l-7,19.32h-3.9l-6.44-19c-1.89-5.61-3.49-10.75-4.61-15.48h-.12c-.11,5-.41,11.64-.76,17.61l-1.07,17.08h-4.9l2.77-39.83h6.56l6.8,19.26c1.65,4.91,3,9.28,4,13.42h.18c1-4,2.42-8.39,4.19-13.42l7.09-19.26h6.56l2.49,39.83h-5Z"/><path class="cls-1" d="M366.51,618.78H351v14.36h17.25v4.32H345.89V597.63H367.4v4.31H351v12.59h15.48Z"/><path class="cls-1" d="M373.78,598.16a73.9,73.9,0,0,1,10.93-.83c7.39,0,12.65,1.72,16.13,5s5.62,7.86,5.62,14.3-2,11.82-5.74,15.48-9.87,5.73-17.61,5.73a81.91,81.91,0,0,1-9.33-.47Zm5.14,35.22a32,32,0,0,0,5.2.3c11,0,17-6.15,17-16.9.06-9.4-5.26-15.37-16.13-15.37a29.66,29.66,0,0,0-6,.53Z"/><path class="cls-1" d="M417.09,597.63v39.83H412V597.63Z"/><path class="cls-1" d="M431.33,624.93l-4.14,12.53h-5.32l13.54-39.83h6.2l13.59,39.83h-5.49l-4.26-12.53Zm13.06-4-3.9-11.46c-.89-2.6-1.48-5-2.07-7.27h-.12c-.59,2.36-1.24,4.78-2,7.21l-3.9,11.52Z"/><path class="cls-1" d="M477.66,624.93l-4.14,12.53H468.2l13.53-39.83h6.21l13.59,39.83H496l-4.26-12.53Zm13.06-4-3.9-11.46c-.89-2.6-1.48-5-2.07-7.27h-.12c-.59,2.36-1.24,4.78-2,7.21l-3.9,11.52Z"/><path class="cls-1" d="M506.2,637.46V597.63h5.61l12.77,20.15a114.78,114.78,0,0,1,7.15,12.94l.11-.06c-.47-5.32-.59-10.16-.59-16.37V597.63h4.85v39.83h-5.2l-12.65-20.21A126.38,126.38,0,0,1,510.8,604l-.17.06c.29,5,.41,9.81.41,16.43v17Z"/><path class="cls-1" d="M550.34,624.93l-4.14,12.53h-5.32l13.53-39.83h6.21l13.59,39.83h-5.49l-4.26-12.53Zm13.06-4-3.9-11.46c-.89-2.6-1.48-5-2.07-7.27h-.12c-.59,2.36-1.24,4.78-2,7.21l-3.9,11.52Z"/><path class="cls-1" d="M578.88,597.63H584v35.51h17v4.32H578.88Z"/><path class="cls-1" d="M609.49,637.46v-16.9L596.9,597.63h5.85l5.61,11c1.54,3,2.72,5.44,4,8.21h.12c1.12-2.6,2.48-5.2,4-8.21l5.73-11H628L614.69,620.5v17Z"/><path class="cls-1" d="M641,602H628.86v-4.37h29.49V602H646.18v35.46H641Z"/><path class="cls-1" d="M666.74,597.63v39.83H661.6V597.63Z"/><path class="cls-1" d="M702.38,636.16a25.68,25.68,0,0,1-10.52,1.89c-11.23,0-19.68-7.09-19.68-20.15,0-12.47,8.45-20.92,20.8-20.92,5,0,8.1,1.06,9.45,1.77l-1.24,4.2a18.65,18.65,0,0,0-8-1.66c-9.34,0-15.55,6-15.55,16.43,0,9.75,5.62,16,15.31,16a20.49,20.49,0,0,0,8.39-1.66Z"/><path class="cls-1" d="M706.92,631.19a18.21,18.21,0,0,0,9.22,2.6c5.26,0,8.33-2.77,8.33-6.79,0-3.72-2.12-5.85-7.5-7.92-6.5-2.3-10.52-5.67-10.52-11.29,0-6.2,5.14-10.81,12.88-10.81a18.07,18.07,0,0,1,8.81,1.95l-1.42,4.19a15.86,15.86,0,0,0-7.57-1.89c-5.43,0-7.5,3.25-7.5,6,0,3.72,2.42,5.56,7.92,7.68,6.73,2.6,10.16,5.85,10.16,11.7,0,6.15-4.55,11.47-13.94,11.47-3.85,0-8-1.12-10.17-2.54Z"/><path class="cls-1" d="M129.65,715.5c-2.69,1.34-8.07,2.69-15,2.69-16,0-28-10.08-28-28.64,0-17.72,12-29.73,29.56-29.73,7.06,0,11.51,1.51,13.44,2.52l-1.76,6A26.72,26.72,0,0,0,116.54,666c-13.27,0-22.08,8.48-22.08,23.34,0,13.86,8,22.76,21.75,22.76a29.19,29.19,0,0,0,11.92-2.35Z"/><path class="cls-1" d="M183.73,688.46c0,19.48-11.84,29.81-26.29,29.81-14.95,0-25.45-11.59-25.45-28.72,0-18,11.17-29.73,26.29-29.73C173.73,659.82,183.73,671.66,183.73,688.46Zm-43.93.92c0,12.09,6.55,22.93,18.06,22.93S176,701.64,176,688.79c0-11.25-5.88-23-18.06-23S139.8,677,139.8,689.38Z"/><path class="cls-1" d="M239.24,692.49c-.42-7.9-.93-17.39-.84-24.44h-.26c-1.93,6.63-4.28,13.69-7.13,21.5L221,717h-5.54l-9.16-27c-2.68-8-4.95-15.28-6.55-22h-.16c-.17,7.05-.59,16.54-1.1,25L197,717.35h-7L194,660.74h9.32L213,688.12c2.35,7,4.28,13.18,5.71,19.06h.25c1.43-5.71,3.44-11.92,6-19.06L235,660.74h9.32l3.53,56.61h-7.14Z"/><path class="cls-1" d="M305.07,692.49c-.42-7.9-.92-17.39-.84-24.44H304c-1.93,6.63-4.28,13.69-7.14,21.5l-10,27.46h-5.54l-9.16-27c-2.69-8-4.95-15.28-6.55-22h-.17c-.17,7.05-.59,16.54-1.09,25l-1.51,24.28h-7l3.95-56.61h9.32l9.66,27.38c2.35,7,4.28,13.18,5.71,19.06h.25c1.43-5.71,3.44-11.92,6-19.06l10.08-27.38h9.32l3.53,56.61H306.5Z"/><path class="cls-1" d="M331.52,699.54l-5.88,17.81h-7.56l19.24-56.61h8.82l19.31,56.61h-7.81l-6.05-17.81Zm18.56-5.71-5.54-16.29c-1.26-3.7-2.1-7.06-2.94-10.33h-.17c-.84,3.36-1.76,6.8-2.85,10.24L333,693.83Z"/><path class="cls-1" d="M372.08,717.35V660.74h8l18.14,28.64a158.93,158.93,0,0,1,10.16,18.39l.17-.08c-.67-7.56-.84-14.45-.84-23.27V660.74h6.89v56.61h-7.39l-18-28.73a181.92,181.92,0,0,1-10.58-18.89l-.25.08c.42,7.14.59,13.94.59,23.35v24.19Z"/><path class="cls-1" d="M425.66,661.5a103.51,103.51,0,0,1,15.54-1.18c10.49,0,18,2.44,22.92,7.06s8,11.16,8,20.32-2.85,16.8-8.14,22-14,8.15-25,8.15a117.86,117.86,0,0,1-13.27-.67Zm7.31,50a45.57,45.57,0,0,0,7.39.42c15.62,0,24.1-8.73,24.1-24,.08-13.35-7.48-21.83-22.93-21.83a41.5,41.5,0,0,0-8.56.75Z"/><path class="cls-1" d="M535.59,715.5c-2.69,1.34-8.07,2.69-15,2.69-16,0-28-10.08-28-28.64,0-17.72,12-29.73,29.56-29.73,7.06,0,11.51,1.51,13.44,2.52l-1.76,6A26.72,26.72,0,0,0,522.48,666c-13.27,0-22.08,8.48-22.08,23.34,0,13.86,8,22.76,21.75,22.76a29.19,29.19,0,0,0,11.92-2.35Z"/><path class="cls-1" d="M572.37,690.81h-22v20.4h24.53v6.14H543.06V660.74h30.57v6.13H550.36v17.89h22Z"/><path class="cls-1" d="M582.69,717.35V660.74h8l18.14,28.64A158.93,158.93,0,0,1,619,707.77l.17-.08c-.67-7.56-.84-14.45-.84-23.27V660.74h6.89v56.61H617.8l-18-28.73a180.23,180.23,0,0,1-10.59-18.89l-.25.08c.42,7.14.59,13.94.59,23.35v24.19Z"/><path class="cls-1" d="M647,667H629.8v-6.22h41.91V667h-17.3v50.39H647Z"/><path class="cls-1" d="M705.64,690.81h-22v20.4h24.53v6.14H676.33V660.74H706.9v6.13H683.63v17.89h22Z"/><path class="cls-1" d="M716,661.5a75.8,75.8,0,0,1,14-1.18c7.81,0,12.85,1.43,16.37,4.62a14.08,14.08,0,0,1,4.46,10.75c0,7.47-4.71,12.43-10.67,14.44v.26c4.37,1.51,7,5.54,8.31,11.42,1.85,7.89,3.2,13.35,4.37,15.54h-7.56c-.92-1.6-2.18-6.47-3.78-13.53-1.68-7.81-4.7-10.75-11.33-11h-6.89v24.53H716Zm7.31,25.78h7.47c7.81,0,12.77-4.28,12.77-10.75,0-7.31-5.29-10.5-13-10.58a29.79,29.79,0,0,0-7.22.67Z"/></svg>