<svg id="Layer_1" data-name="Layer 1" xmlns="http://www.w3.org/2000/svg" xmlns:xlink="http://www.w3.org/1999/xlink" viewBox="0 0 1276.45 876.13"><defs><style>.cls-1{fill:#1b3457;}.cls-2{clip-path:url(#clip-path);}</style><clipPath id="clip-path"><path class="cls-1" d="M762.86,469.68a167.19,167.19,0,0,1-167.42-167v-1c.14-92.74,76.11-167.61,168.71-167.24,91.3.36,167.47,75.61,166.94,168.5C930.58,395.26,855.11,470.52,762.86,469.68Zm.38-45.14c68.11.82,120.84-55.23,122.65-118.09,2.09-72.39-55-127.17-122.34-127.18a122.45,122.45,0,0,0-123,121.88v.1c-.58,68.15,55.62,124.33,122.76,123.29Z"/></clipPath></defs><title>SmaccLogo</title><path class="cls-1" d="M689.09,292l86.44,92.42c11.45,12.25,32.51,8.83,40.74-5.26l79.82-137.61a25.95,25.95,0,0,0-44.8-26.2Q811.39,284.25,771.42,353l40.75-5.26-86.46-92.41c-9.57-10.27-27-9.69-36.67,0-10.27,10.27-9.61,26.42,0,36.67Z"/><path class="cls-1" d="M644.33,332.5l76.19-36.45c12.63-6,16-24.12,9.3-35.5-7.55-12.92-22.8-15.4-35.5-9.29L618.15,287.7c-12.65,6-16,24.11-9.31,35.49C616.41,336.11,631.65,338.59,644.33,332.5Z"/><path class="cls-1" d="M231.33,360.43l115.09-67.8L362.73,283l-11.22-1.44,80.84,73.06a9.41,9.41,0,0,0,14.55-1.88L539,193l13.23-23-16.94-2.21,27,149.43,3.84,21.57c1.14,6.38,8.71,7.85,13.69,5.54l83.08-39c10.79-5.13,1.39-21.05-9.34-16l-83.09,39,13.7,5.53-27-149.44-3.88-21.58c-1.46-8.06-13.19-8.71-16.94-2.2L444.24,320.43l-13.38,22.89,14.56-1.89-80.86-73.05a9.52,9.52,0,0,0-11.22-1.46L238.28,334.76l-16.2,9.65c-10.27,6.06-1,22.08,9.34,16Z"/><path class="cls-1" d="M667.26,397.67h0a24.24,24.24,0,0,1,0,34.27L559.21,540a24.24,24.24,0,0,1-34.27,0h0a24.23,24.23,0,0,1,0-34.28l108-108A24.24,24.24,0,0,1,667.26,397.67Z"/><path class="cls-1" d="M542.1,550.63a27.78,27.78,0,0,1-19.63-47.41l108-108a27.77,27.77,0,0,1,39.26,39.28l-108,108.05A27.71,27.71,0,0,1,542.1,550.63Zm108-156.5a20.53,20.53,0,0,0-14.63,6.05l-108,108.06a20.69,20.69,0,0,0,29.26,29.26l108.06-108a20.69,20.69,0,0,0-14.64-35.32Z"/><path class="cls-1" d="M1233.33,48l-92.7,96.18-13.13,13.69,11.23-1.45-97.55-48.73c-5.13-2.6-12-.56-13.6,5.55L981.78,291.8l-6.59,25.67,17-2.22-66-136.75-9.55-19.75c-3-6.25-12.85-5.82-16,0q-20.07,37.31-40.18,74.59c-5.65,10.49,10.27,19.87,16,9.35q20.09-37.27,40.18-74.58h-16l65.9,136.73,9.54,19.75c3.52,7.29,15.06,5.14,16.94-2.2l45.86-178.62,6.59-25.67-13.69,5.53,97.55,48.72a9.51,9.51,0,0,0,11.22-1.44l92.71-96.17L1246.36,61c8.28-8.55-4.8-21.71-13.1-13.1Z"/><path class="cls-1" d="M762.86,469.68a167.19,167.19,0,0,1-167.42-167v-1c.14-92.74,76.11-167.61,168.71-167.24,91.3.36,167.47,75.61,166.94,168.5C930.58,395.26,855.11,470.52,762.86,469.68Zm.38-45.14c68.11.82,120.84-55.23,122.65-118.09,2.09-72.39-55-127.17-122.34-127.18a122.45,122.45,0,0,0-123,121.88v.1c-.58,68.15,55.62,124.33,122.76,123.29Z"/><path class="cls-1" d="M762.86,469.68a167.19,167.19,0,0,1-167.42-167v-1c.14-92.74,76.11-167.61,168.71-167.24,91.3.36,167.47,75.61,166.94,168.5C930.58,395.26,855.11,470.52,762.86,469.68Zm.38-45.14c68.11.82,120.84-55.23,122.65-118.09,2.09-72.39-55-127.17-122.34-127.18a122.45,122.45,0,0,0-123,121.88v.1c-.58,68.15,55.62,124.33,122.76,123.29Z"/><g class="cls-2"><circle class="cls-1" cx="763.27" cy="302.07" r="144.73"/></g><path class="cls-1" d="M68.58,665.38a31.14,31.14,0,0,0,15.78,4.44c9,0,14.26-4.74,14.26-11.62,0-6.36-3.65-10-12.85-13.55-11.13-3.94-18-9.7-18-19.32,0-10.61,8.8-18.5,22.06-18.5a30.85,30.85,0,0,1,15.06,3.34l-2.43,7.17a27.14,27.14,0,0,0-12.94-3.24c-9.31,0-12.85,5.57-12.85,10.27,0,6.37,4.16,9.52,13.56,13.14,11.53,4.45,17.4,10,17.4,20,0,10.52-7.79,19.63-24,19.63-6.57,0-13.69-1.92-17.39-4.35Z"/><path class="cls-1" d="M175.87,641.31c0,23.47-14.26,35.94-31.64,35.94-18,0-30.65-14-30.65-34.58,0-21.65,13.45-35.81,31.66-35.81C163.89,606.86,175.87,621.09,175.87,641.31ZM123,642.43c0,14.56,7.89,27.6,21.73,27.6s21.86-12.83,21.86-28.31c0-13.55-7.09-27.72-21.76-27.72S123,627.4,123,642.43Z"/><path class="cls-1" d="M232.91,673.88a43.89,43.89,0,0,1-18,3.24c-19.21,0-33.67-12.14-33.67-34.49,0-21.34,14.46-35.8,35.59-35.8,8.56,0,13.86,1.81,16.19,3l-2.12,7.19a31.82,31.82,0,0,0-13.69-2.84c-16,0-26.6,10.26-26.6,28.11,0,16.69,9.6,27.39,26.2,27.39a35,35,0,0,0,14.36-2.85Z"/><path class="cls-1" d="M250.71,607.94v68.17h-8.8V607.94Z"/><path class="cls-1" d="M275.13,654.66,268,676.11h-9.1l23.17-68.17h10.61L316,676.11h-9.4l-7.29-21.45Zm22.35-6.84L290.8,628.2c-1.52-4.44-2.53-8.55-3.54-12.44h-.2c-1,4-2.13,8.18-3.43,12.34l-6.79,19.68Z"/><path class="cls-1" d="M323.92,607.94h8.79v60.77h29.1v7.4H323.92Z"/><path class="cls-1" d="M446.49,646.23c-.52-9.52-1.12-21-1-29.44h-.31c-2.33,8-5.14,16.48-8.56,25.89l-12,33.07H418l-11-32.52c-3.24-9.6-6-18.4-7.89-26.49h-.21c-.19,8.56-.7,19.92-1.3,30.14l-1.83,29.23h-8.39l4.74-68.17h11.23l11.64,33c2.82,8.41,5.13,15.88,6.84,23h.31c1.71-6.85,4.14-14.36,7.17-23l12.14-33h11.22l4.26,68.17h-8.55Z"/><path class="cls-1" d="M503.61,644.14H477.07v24.57h29.52v7.4H468.32V607.94h36.81v7.38H477.07v21.54h26.49Z"/><path class="cls-1" d="M516.05,608.85a126,126,0,0,1,18.71-1.42c12.64,0,21.65,2.94,27.6,8.56S572,629.44,572,640.46s-3.42,20.23-9.82,26.49-16.9,9.81-30.14,9.81a142,142,0,0,1-16-.81Zm8.8,60.27a54.06,54.06,0,0,0,8.9.52c18.82,0,29.09-10.53,29.09-28.93.1-16.08-9-26.3-27.6-26.3a50.5,50.5,0,0,0-10.27.91Z"/><path class="cls-1" d="M590.17,607.94v68.17h-8.71V607.94Z"/><path class="cls-1" d="M614.54,654.66l-7.08,21.45h-9.11l23.17-68.17h10.61l23.26,68.17H646l-7.29-21.45Zm22.35-6.84-6.67-19.62c-1.53-4.44-2.54-8.55-3.55-12.44h-.2c-1,4-2.12,8.18-3.42,12.34l-6.68,19.72Z"/><path class="cls-1" d="M693.83,654.66l-7.09,21.45h-9.1l23.15-68.17h10.63l23.26,68.17h-9.47l-7.29-21.45Zm22.35-6.84L709.5,628.2c-1.52-4.44-2.53-8.55-3.54-12.44h-.2c-1,4-2.13,8.18-3.43,12.34l-6.67,19.72Z"/><path class="cls-1" d="M742.67,676.11V607.94h9.6l21.85,34.49a196.31,196.31,0,0,1,12.24,22.14l.19-.1c-.81-9.11-1-17.39-1-28V607.94h8.3v68.17h-8.9l-21.65-34.59a216.51,216.51,0,0,1-12.75-22.68l-.29.11c.5,8.55.7,16.78.7,28.11v29.1Z"/><path class="cls-1" d="M818.21,654.66l-7.09,21.45H802l23.15-68.17H835.8l23.26,68.17h-9.4l-7.29-21.45Zm22.35-6.84-6.68-19.62c-1.52-4.44-2.53-8.55-3.54-12.44h-.2c-1,4-2.13,8.18-3.43,12.34L820,647.82Z"/><path class="cls-1" d="M867.05,607.94h8.76v60.77h29.1v7.4H867.05Z"/><path class="cls-1" d="M919.44,676.11V647.18l-21.55-39.24h10l9.6,18.83c2.64,5.13,4.66,9.31,6.85,14.05h.2c1.92-4.45,4.25-8.9,6.85-14.05l9.8-18.83h9.91l-22.78,39.14v29.09Z"/><path class="cls-1" d="M973.36,615.42H952.58v-7.48h50.47v7.48H982.22v60.69h-8.86Z"/><path class="cls-1" d="M1017.41,607.94v68.17h-8.8V607.94Z"/><path class="cls-1" d="M1078.4,673.88a44,44,0,0,1-18,3.24c-19.22,0-33.68-12.14-33.68-34.49,0-21.34,14.46-35.8,35.6-35.8,8.55,0,13.86,1.81,16.17,3l-2.12,7.19a31.85,31.85,0,0,0-13.69-2.84c-16,0-26.62,10.26-26.62,28.11,0,16.69,9.62,27.39,26.2,27.39a35,35,0,0,0,14.36-2.85Z"/><path class="cls-1" d="M1086.17,665.38a31.14,31.14,0,0,0,15.78,4.44c9,0,14.26-4.74,14.26-11.62,0-6.36-3.63-10-12.84-13.55-11.12-3.94-18-9.7-18-19.32,0-10.61,8.79-18.5,22-18.5a31,31,0,0,1,15.08,3.34l-2.43,7.17a27.25,27.25,0,0,0-13-3.24c-9.29,0-12.83,5.57-12.83,10.27,0,6.37,4.14,9.52,13.55,13.14,11.52,4.45,17.39,10,17.39,20,0,10.52-7.79,19.63-23.86,19.63-6.59,0-13.69-1.92-17.4-4.35Z"/><path class="cls-1" d="M98.26,809.66c-4.6,2.29-13.81,4.6-25.67,4.6-27.38,0-47.92-17.25-47.92-49,0-30.33,20.54-50.88,50.59-50.88,12.08,0,19.7,2.59,23,4.31l-3,10.27a45.8,45.8,0,0,0-19.43-4C53.11,725,38,739.46,38,764.89c0,23.72,13.69,39,37.22,39a49.83,49.83,0,0,0,20.4-4Z"/><path class="cls-1" d="M190.81,763.38c0,33.34-20.26,51-45,51-25.59,0-43.56-19.83-43.56-49.15,0-30.8,19.12-50.88,45-50.88C173.7,714.37,190.81,734.63,190.81,763.38ZM115.63,765c0,20.69,11.21,39.24,30.91,39.24s31-18.26,31-40.25c0-19.25-10.06-39.36-30.91-39.36s-31,19.18-31,40.37Z"/><path class="cls-1" d="M285.81,770.28c-.72-13.52-1.6-29.76-1.44-41.82h-.45c-3.3,11.34-7.32,23.42-12.2,36.79l-17.13,47h-9.48L229.43,766c-4.58-13.69-8.47-26.15-11.21-37.65H218c-.29,12.07-1,28.31-1.88,42.78l-2.55,41.68h-12L208.38,716h16L240.9,762.8c4,12,7.32,22.56,9.77,32.62h.43c2.45-9.77,5.89-20.4,10.27-32.62L278.55,716H294.5l6,96.88H288.32Z"/><path class="cls-1" d="M398.46,770.28c-.71-13.52-1.57-29.76-1.43-41.82h-.4c-3.3,11.34-7.32,23.42-12.22,36.79l-17.11,47h-9.48L342.14,766c-4.6-13.69-8.47-26.15-11.21-37.65h-.29c-.29,12.06-1,28.3-1.86,42.78l-2.59,41.55h-12L321,715.84h15.95l16.54,46.86c4,12,7.32,22.56,9.77,32.62h.43c2.44-9.77,5.88-20.4,10.26-32.62l17.25-46.86h15.95l6.05,96.88H400.91Z"/><path class="cls-1" d="M443.73,782.35l-10.06,30.48H420.73L453.66,716h15.09l33.05,96.88H488.43l-10.35-30.48Zm31.76-9.78L466,744.7c-2.15-6.34-3.59-12.09-5-17.68h-.29c-1.44,5.75-3,11.64-4.88,17.52l-9.55,28Z"/><path class="cls-1" d="M513.14,812.83V716h13.69l31,49a271.41,271.41,0,0,1,17.38,31.47l.3-.14c-1.15-12.93-1.44-24.73-1.44-39.82V716h11.79v96.88H573.26l-30.8-49.17a312,312,0,0,1-18.11-32.33l-.43.14c.72,12.22,1,23.85,1,40v41.4Z"/><path class="cls-1" d="M604.84,717.25a176.65,176.65,0,0,1,26.59-2c18,0,30.81,4.17,39.23,12.08s13.69,19.1,13.69,34.77-4.88,28.75-13.93,37.65-24,13.95-42.79,13.95a200.36,200.36,0,0,1-22.71-1.15Zm12.51,85.56a76.4,76.4,0,0,0,12.64.72c26.74,0,41.25-14.94,41.25-41.07.13-22.85-12.8-37.36-39.24-37.36a71.22,71.22,0,0,0-14.65,1.28Z"/><path class="cls-1" d="M793,809.66c-4.61,2.29-13.81,4.6-25.67,4.6-27.39,0-47.92-17.25-47.92-49,0-30.33,20.53-50.88,50.59-50.88,12.08,0,19.69,2.59,23,4.31L790,729a45.72,45.72,0,0,0-19.42-4c-22.71,0-37.79,14.51-37.79,39.94,0,23.72,13.69,39,37.23,39a49.78,49.78,0,0,0,20.39-4Z"/><path class="cls-1" d="M855.91,767.41H818.26v34.91h42v10.51H805.75V716h52.32v10.49H818.24v30.61h37.65Z"/><path class="cls-1" d="M873.57,812.83V716h13.69l31,49a271.56,271.56,0,0,1,17.4,31.47l.29-.14c-1.15-12.93-1.44-24.73-1.44-39.82V716h11.79v96.88H933.66l-30.81-49.17a309.18,309.18,0,0,1-18.12-32.33l-.43.14c.72,12.22,1,23.85,1,40v41.4Z"/><path class="cls-1" d="M983.63,726.66H954.19V716h71.73v10.65H996.31v86.23H983.63Z"/><path class="cls-1" d="M1084,767.41h-37.65v34.91h42v10.51h-54.49V716h52.32v10.49h-39.83v30.61H1084Z"/><path class="cls-1" d="M1101.71,717.25a129.21,129.21,0,0,1,24-2c13.37,0,22,2.44,28,7.9a24.12,24.12,0,0,1,7.63,18.4c0,12.78-8.06,21.27-18.26,24.71v.45c7.48,2.58,12,9.48,14.22,19.54,3.17,13.5,5.48,22.85,7.48,26.6h-12.94c-1.57-2.74-3.73-11.08-6.47-23.16-2.87-13.36-8-18.4-19.39-18.82h-11.79v42h-12.46Zm12.51,44.12H1127c13.36,0,21.85-7.33,21.85-18.4,0-12.51-9-18-22.25-18.11a50.72,50.72,0,0,0-12.35,1.15Z"/></svg>