<svg id="Layer_2" data-name="Layer 2" xmlns="http://www.w3.org/2000/svg" viewBox="0 0 593.03 146.5"><defs><style>.cls-1,.cls-2{fill:none;stroke:#000;stroke-width:7px;}.cls-1{stroke-linejoin:round;}.cls-2{stroke-miterlimit:10;}</style></defs><title>ZigaLogoB</title><polygon class="cls-1" points="135.2 41.77 135.2 5.72 201.12 58.6 247.44 13.03 267.03 13.21 267.03 141.35 238.16 141.35 238.16 59.5 200.86 95.39 135.2 41.84 135.2 41.77"/><path class="cls-2" d="M164.84,97.83,135.2,73.66v38.52H47.36l73.83-106H6c0,3.17-.34,28-.34,28H68.53L9,116.86v23H164.84Z"/><path d="M346,58.86a33.47,33.47,0,0,1-4.62,5.46v.16a39.62,39.62,0,0,1,4.62-.25h28.68v12.6H322.82V67.59L345,34.75a33.47,33.47,0,0,1,4.62-5.46v-.17a39.62,39.62,0,0,1-4.62.25H322.9V16.77h51.6Z"/><path d="M402.36,16.77h14.7V76.83h-14.7Z"/><path d="M476.72,15.76c15.37,0,23.1,8,23.1,8l-7.05,11a23.88,23.88,0,0,0-14.62-5.55c-12.6,0-17.72,8.07-17.72,17,0,11.43,7.89,18.23,17.22,18.23A20.62,20.62,0,0,0,489.83,60V55.41h-8.49V42.9h21.51V76.83H490.58V75.15c0-1.26.09-2.52.09-2.52h-.17s-5.8,5.21-15.79,5.21c-15.38,0-29.49-11.51-29.49-31.16C445.22,29.2,458.41,15.76,476.72,15.76Z"/><path d="M565.81,64.23H545.58l-3.9,12.6H525.35l22-60.06H564l22,60.06H569.8ZM555.65,30.46S554.2,37,553,40.8l-3.7,11.67h12.79L558.46,40.8c-1.18-3.79-2.63-10.34-2.63-10.34Z"/><path d="M326,94.51h11.28l6.17,12.95,2.11,4.26h.12l2.17-4.26L354,94.51h11.28L368.75,137H358.36l-1.3-19.11a60.57,60.57,0,0,1,0-7.13h-.12l-4.37,7.13-4.45,7.3H343.2l-4.45-7.3-4.37-7.13h-.12a60.57,60.57,0,0,1,0,7.13L333,137H322.51Z"/><path d="M377.41,94.51H387.8V137H377.41Z"/><path d="M397.77,94.51h10.5L420,114.33a77.24,77.24,0,0,1,3.56,7.25h.12s-.48-4.57-.48-7.25V94.51h10.39V137H423.17l-11.81-19.77A78.3,78.3,0,0,1,407.8,110h-.12s.47,4.57.47,7.24V137H397.77Z"/><path d="M443.59,94.51h26.59v8.9H454v7.72h12.94V120H454v8h17v9H443.59Z"/><path d="M478.48,94.51h14.78c4.34,0,6.41.3,8.25,1,4.81,1.84,7.84,6.17,7.84,12.34,0,4.52-2.14,9.44-6.35,11.58v.12a25.93,25.93,0,0,1,1.6,2.55l8.25,14.9H501.28l-7.54-14.31h-4.87V137H478.48Zm14.9,19.23c3.33,0,5.4-1.84,5.4-5.22,0-3.21-1.18-5.11-6.41-5.11h-3.5v10.33Z"/><path d="M542.38,128.05H529.15L526.6,137H515.91l14.43-42.44h10.92L555.68,137H545Zm-6.64-23.87s-1,4.63-1.72,7.31l-2.44,8.25H540l-2.37-8.25c-.77-2.68-1.72-7.31-1.72-7.31Z"/><path d="M560.43,94.51h10.38v33.54h17.34V137H560.43Z"/></svg>