<svg id="Layer_2" data-name="Layer 2" xmlns="http://www.w3.org/2000/svg" viewBox="0 0 276.69 281.5"><defs><style>.cls-1{fill:none;stroke:#000;stroke-miterlimit:10;stroke-width:6px;}</style></defs><title>ZigaLogoLong</title><polygon class="cls-1" points="135.2 41.77 135.2 5.72 201.12 58.6 247.44 13.03 267.03 13.21 267.03 141.35 238.16 141.35 238.16 59.5 200.86 95.39 135.2 41.84 135.2 41.77"/><path class="cls-1" d="M164.84,97.83,135.2,73.66v38.52H47.36l73.83-106H6c0,3.17-.34,28-.34,28H68.53L9,116.86v23H164.84Z"/><path d="M29.64,199.09A33.47,33.47,0,0,1,25,204.55v.16a39.62,39.62,0,0,1,4.62-.25H58.32v12.6H6.46v-9.24L28.64,175a33.47,33.47,0,0,1,4.62-5.46v-.17a39.62,39.62,0,0,1-4.62.25H6.54V157h51.6Z"/><path d="M86,157h14.7v60.06H86Z"/><path d="M160.36,156c15.37,0,23.1,8,23.1,8l-7.05,11a23.94,23.94,0,0,0-14.62-5.55c-12.6,0-17.72,8.07-17.72,17,0,11.43,7.89,18.23,17.22,18.23a20.56,20.56,0,0,0,12.18-4.44v-4.59H165V183.13h21.51v33.93H174.22v-1.68c0-1.26.09-2.52.09-2.52h-.17s-5.8,5.21-15.79,5.21c-15.38,0-29.49-11.51-29.49-31.16C128.86,169.43,142.05,156,160.36,156Z"/><path d="M249.45,204.46H229.22l-3.9,12.6H209L231,157h16.69l22,60.06H253.44Zm-10.16-33.77s-1.45,6.54-2.65,10.34l-3.7,11.67h12.79L242.1,181c-1.18-3.79-2.63-10.34-2.63-10.34Z"/><path d="M9.64,234.74H20.92l6.17,12.95L29.2,252h.12l2.17-4.26,6.15-12.95H48.92l3.47,42.49H42l-1.3-19.11a60.57,60.57,0,0,1,0-7.13h-.12l-4.37,7.13-4.45,7.3H26.84l-4.45-7.3L18,251H17.9a60.57,60.57,0,0,1,0,7.13l-1.26,19.11H6.15Z"/><path d="M61.05,234.74H71.44v42.49H61.05Z"/><path d="M81.41,234.74h10.5l11.73,19.82a77.24,77.24,0,0,1,3.56,7.25h.12s-.48-4.57-.48-7.25V234.74h10.39v42.49H106.81L95,257.46a77.07,77.07,0,0,1-3.56-7.24h-.12s.47,4.57.47,7.24v19.77H81.41Z"/><path d="M127.23,234.74h26.59v8.9H137.64v7.72h12.94v8.87H137.64v8h17v9H127.23Z"/><path d="M162.12,234.74H176.9c4.34,0,6.41.3,8.25,1,4.81,1.84,7.84,6.17,7.84,12.34,0,4.52-2.14,9.44-6.35,11.58v.12a25.93,25.93,0,0,1,1.6,2.55l8.25,14.9H184.92l-7.54-14.31h-4.87v14.31H162.12ZM177,254c3.33,0,5.4-1.84,5.4-5.22,0-3.21-1.18-5.11-6.41-5.11h-3.5V254Z"/><path d="M226,268.28H212.79l-2.55,9H199.55L214,234.79H224.9l14.42,42.44H228.64Zm-6.64-23.87s-1,4.63-1.72,7.31L215.22,260h8.42l-2.37-8.25c-.77-2.68-1.72-7.31-1.72-7.31Z"/><path d="M244.07,234.74h10.38v33.54h17.34v9H244.07Z"/></svg>