<svg xmlns="http://www.w3.org/2000/svg" viewBox="0 0 576 576"><defs><style>.cls-1{fill:#dc8d88;}.cls-2{fill:#ffdb61;}.cls-10,.cls-11,.cls-13,.cls-14,.cls-16,.cls-2,.cls-4,.cls-5,.cls-6,.cls-7,.cls-9{stroke:#000;}.cls-10,.cls-11,.cls-13,.cls-14,.cls-15,.cls-16,.cls-2,.cls-4,.cls-5,.cls-6,.cls-7,.cls-9{stroke-miterlimit:10;}.cls-13,.cls-2,.cls-4,.cls-5,.cls-6,.cls-7,.cls-9{stroke-width:1.57px;}.cls-3{fill:#cecece;}.cls-10,.cls-11,.cls-14,.cls-15,.cls-16,.cls-4{fill:none;}.cls-6{fill:#963;}.cls-18,.cls-7{fill:#fff;}.cls-8{fill:#21536c;}.cls-12,.cls-9{fill:#e2f3fa;}.cls-10{stroke-width:1.04px;}.cls-11{stroke-width:1.55px;}.cls-13{fill:#578da7;}.cls-14{stroke-width:11.02px;}.cls-15{stroke:#578da7;stroke-width:7.87px;}.cls-16{stroke-width:2.74px;}.cls-17{fill:#ae5654;}</style></defs><g id="Back_with_moon" data-name="Back with moon"><path class="cls-1" d="M384.32,369a10.28,10.28,0,0,0,9.95-.94,1.53,1.53,0,0,0,.53-2.05,1.51,1.51,0,0,0-2.05-.54,7.48,7.48,0,0,1-.89.57l-.47.23c-.16.07-.16.08,0,0l-.24.1a9,9,0,0,1-1,.31l-.52.11-.26,0h.07a10.8,10.8,0,0,1-2.05,0c.36,0-.19,0-.25,0l-.52-.12-.5-.15c-.06,0-.57-.22-.26-.09a1.54,1.54,0,0,0-2,.54,1.51,1.51,0,0,0,.53,2Z"/><polygon class="cls-2" points="250.31 286.89 253.11 266.74 259.38 286.75 277.26 291.29 261.12 297.56 257.38 318.52 249.77 297.7 228.42 295.56 250.31 286.89"/><path d="M249.54,351.35h10.54a37.57,37.57,0,0,0-4.27,13.74s-1.11-3.31-1.57-4.39C253.21,358.3,249.54,351.35,249.54,351.35Z"/><rect x="253.44" y="348.31" width="3.34" height="5.61"/><rect x="244.84" y="344.97" width="20.02" height="4.4" rx="1.4"/><path class="cls-3" d="M276.46,317.66a3.45,3.45,0,0,0-1.73.95.59.59,0,0,0,0,.83,2.31,2.31,0,0,0,.59.45,1.23,1.23,0,0,0,.92.08,1,1,0,0,0,.67-.69,3.81,3.81,0,0,0,.07-.59l0,.16a.83.83,0,0,1,0-.15l-.06.14,0-.06-.09.12,0,0-.11.09,0,0-.14.05h.05l-.16,0h0a.57.57,0,0,0,.41-.17.6.6,0,0,0,.18-.42A.62.62,0,0,0,277,318a.57.57,0,0,0-.41-.17.78.78,0,0,0-.76.61,3.56,3.56,0,0,0-.08.57l0-.16a1.06,1.06,0,0,1,0,.19l.06-.14a.56.56,0,0,1-.05.08l.09-.12-.06.07.12-.09-.12.06.14-.06-.13,0,.16,0h-.16l.16,0-.16-.05.14.06a.72.72,0,0,1-.24-.14l.11.09-.25-.22v.83a2.09,2.09,0,0,1,.28-.24l-.12.09a2.8,2.8,0,0,1,.67-.39l-.15.06a3.38,3.38,0,0,1,.54-.17.59.59,0,0,0,.41-.72.6.6,0,0,0-.73-.41Z"/><path class="cls-3" d="M233.79,320.36a7.4,7.4,0,0,0-1.95-3l-.72.93c.27.16.53.32.79.51l.11.08s0,0,0,0l.18.14c.13.11.25.21.37.33a6.86,6.86,0,0,1,.65.67l.15.18.08.09,0,.05c0-.07,0,0,0,.05a.36.36,0,0,1,.07.1l.15.21a.61.61,0,0,0,.81.21.6.6,0,0,0,.21-.81,9.32,9.32,0,0,0-3-2.83.59.59,0,0,0-.72.93,6,6,0,0,1,.56.57l.12.14.06.08c.09.12,0-.06,0,0s.16.21.23.32a7.51,7.51,0,0,1,.39.68,3,3,0,0,1,.17.36c0,.06,0,0,0,0a.42.42,0,0,1,0,.1c0,.07,0,.14.08.2a.59.59,0,1,0,1.13-.31Z"/><path class="cls-3" d="M235.49,323.55c3,0,3-4.73,0-4.73s-3,4.73,0,4.73Z"/><path class="cls-3" d="M240.47,325.74l.4.13a1.77,1.77,0,0,0,.94.05,1.86,1.86,0,0,0,.88-.28,1.93,1.93,0,0,0,.66-.61,1.75,1.75,0,0,0,.42-.81l.09-.62a2.34,2.34,0,0,0-.33-1.19l-.37-.48a2.34,2.34,0,0,0-1-.61l-.4-.13a1.77,1.77,0,0,0-.94-.05,1.9,1.9,0,0,0-.88.28,1.84,1.84,0,0,0-.66.61,1.77,1.77,0,0,0-.42.8l-.08.63a2.26,2.26,0,0,0,.32,1.19l.37.48a2.34,2.34,0,0,0,1,.61Z"/><path class="cls-3" d="M242.62,323.17l-.53-.2.56.24a7,7,0,0,1-1.42-.83l.48.36a6.25,6.25,0,0,1-1.21-1.2l.37.48-.06-.08a1.76,1.76,0,0,0-.61-.66,1.72,1.72,0,0,0-.8-.42,1.78,1.78,0,0,0-.94-.05,1.83,1.83,0,0,0-.88.28,2.44,2.44,0,0,0-1.09,1.41l-.08.63a2.36,2.36,0,0,0,.32,1.19,8.22,8.22,0,0,0,2.26,2.24,8.35,8.35,0,0,0,2.38,1.16,1.76,1.76,0,0,0,.94,0,1.63,1.63,0,0,0,.87-.28,2.52,2.52,0,0,0,1.09-1.41,2.37,2.37,0,0,0-.24-1.82l-.37-.47a2.25,2.25,0,0,0-1-.61Z"/><path class="cls-3" d="M245.5,326.72l17.88.49a2.36,2.36,0,1,0,0-4.72L245.5,322a2.36,2.36,0,0,0,0,4.72Z"/><path class="cls-3" d="M273.93,323.15c3,0,3-4.73,0-4.73s-3,4.73,0,4.73Z"/><path class="cls-3" d="M272.59,323.68c3,0,3.05-4.72,0-4.72s-3,4.72,0,4.72Z"/><path class="cls-3" d="M268.91,323.45a3.85,3.85,0,0,0,0,.83,8.44,8.44,0,0,0,.22,1.41,1.77,1.77,0,0,0,.42.8,1.84,1.84,0,0,0,.66.61,2.67,2.67,0,0,0,1.82.24l.57-.24a2.36,2.36,0,0,0,.84-.85l.24-.56a2.45,2.45,0,0,0,0-1.26,3.84,3.84,0,0,1-.1-.51l.08.63a4.05,4.05,0,0,1,0-1.1,1.86,1.86,0,0,0-.2-.9,1.75,1.75,0,0,0-.49-.76,2.67,2.67,0,0,0-1.67-.7l-.63.09a2.25,2.25,0,0,0-1,.61l-.37.47a2.39,2.39,0,0,0-.32,1.19Z"/><path class="cls-3" d="M268.42,324.9a.54.54,0,0,1-.05-.11l.24.57a1,1,0,0,1-.05-.16l.09.63a1.7,1.7,0,0,1,0-.22l-.08.63a.83.83,0,0,1,.07-.27l-.24.56a1.14,1.14,0,0,1,.18-.3l-.37.47a2.13,2.13,0,0,1,.3-.3l-.48.37a1.92,1.92,0,0,1,.31-.18l-.56.24a3.78,3.78,0,0,1,.88-.22l-.63.09c.52-.07,1-.11,1.55-.23a4.63,4.63,0,0,0,1.33-.53,4.88,4.88,0,0,0,1.89-2,2.5,2.5,0,0,0,.24-1.82A2.42,2.42,0,0,0,272,320.7a2.36,2.36,0,0,0-1.82-.23,2.3,2.3,0,0,0-1.41,1.08,3.3,3.3,0,0,1-.31.51l.37-.48a2.92,2.92,0,0,1-.47.46l.48-.37a2.77,2.77,0,0,1-.57.34l.57-.24a3.34,3.34,0,0,1-.93.23l.62-.08a10.79,10.79,0,0,0-1.69.26,4.33,4.33,0,0,0-1.75,1,3.64,3.64,0,0,0-1,1.66,3.21,3.21,0,0,0,.31,2.46,2.35,2.35,0,0,0,3.23.85,2.42,2.42,0,0,0,1.08-1.41,2.51,2.51,0,0,0-.24-1.82Z"/><path class="cls-3" d="M265.85,340.78a5.85,5.85,0,0,0-.05-2.79c-.17-.67-.48-1.28-.68-1.93,0-.15-.07-.3-.11-.45.06.22,0,.17,0,0s.05-.24,0,0c-.14.43.13-.15,0,.05s.14-.1.17-.14c.22-.23-.26.15,0,0s.59-.4.89-.6c.52-.35,1.07-.69,1.57-1.07a4.51,4.51,0,0,0,1.67-2.33c.51-1.47,1-3,1.44-4.44a2.37,2.37,0,0,0-1.65-2.9,2.4,2.4,0,0,0-2.9,1.65c-.47,1.44-1,2.88-1.41,4.33-.18.61.23-.43.31-.26s-.81.54-.89.6c-.56.37-1.13.73-1.67,1.13a4.75,4.75,0,0,0-2.19,4.34,9,9,0,0,0,.58,2.29c.13.34.26.69.36,1.05,0,.05.07.48.06.28s-.11.47,0,0a2.36,2.36,0,1,0,4.55,1.25Z"/><path class="cls-3" d="M252.17,342.5a20.42,20.42,0,0,1,2.76-.84l.81-.17c.21,0,.57-.15.17,0a2,2,0,0,1,.8,0c-.74-.25.44.18,0,0s.31.16.37.2l.57.32c.4.23.82.44,1.24.63a21.52,21.52,0,0,0,3.11,1.16,2.36,2.36,0,0,0,1.25-4.55c-.51-.15-1-.31-1.52-.5l-.37-.14c.25.11.26.11,0,0l-.54-.26a16.3,16.3,0,0,0-3-1.44A8.28,8.28,0,0,0,254,337a20.42,20.42,0,0,0-3.07.91,2.41,2.41,0,0,0-1.64,2.9,2.38,2.38,0,0,0,2.9,1.65Z"/><path class="cls-3" d="M235.69,326.46l.3.38-.37-.48a19.49,19.49,0,0,1,2.45,4.18,2.32,2.32,0,0,0,1.41,1.08,2.36,2.36,0,0,0,2.91-1.64l.08-.63a2.36,2.36,0,0,0-.32-1.19,21.64,21.64,0,0,0-3.12-5,2.38,2.38,0,0,0-1.67-.69,2.42,2.42,0,0,0-1.67.69,2.38,2.38,0,0,0-.69,1.67l.08.63a2.34,2.34,0,0,0,.61,1Z"/><path class="cls-3" d="M242.22,330.92a8.19,8.19,0,0,0-1.1-5.56c-.49-.69-1-1.35-1.49-2.05s-.93-1.5-1.34-2.29a2.38,2.38,0,0,0-3.23-.84,2.41,2.41,0,0,0-.85,3.23,30.41,30.41,0,0,0,2.65,4.09c.06.08.63,1,.62,1-.13-.34-.16-.39-.07-.16s.06.19.08.28.13.7.07.26,0,.2,0,.28a5.8,5.8,0,0,1,0,.59c0,.4,0,.8-.07,1.19a2.36,2.36,0,0,0,2.36,2.36,2.42,2.42,0,0,0,2.36-2.36Z"/><path class="cls-3" d="M238.26,330.92a9.23,9.23,0,0,0,.13,1c0,.14.06.28.1.42s.09.28.14.42c.13.31.25.63.41.93a2.31,2.31,0,0,0,2.35,1.13,1.83,1.83,0,0,0,.88-.28l.48-.37a2.49,2.49,0,0,0,.61-1l.08-.63a2.36,2.36,0,0,0-.32-1.19A2.3,2.3,0,0,1,243,331l.24.56a4.16,4.16,0,0,1-.29-1l.09.62a2.06,2.06,0,0,1,0-.26,1.92,1.92,0,0,0-.2-.91,1.88,1.88,0,0,0-.49-.76,1.76,1.76,0,0,0-.76-.48,1.79,1.79,0,0,0-.91-.21l-.63.09a2.32,2.32,0,0,0-1,.6l-.37.48a2.39,2.39,0,0,0-.32,1.19Z"/><path class="cls-3" d="M238.79,327.84l1.81,5.05c.14.38.28.77.41,1.15.07.21.14.43.19.64s.14.39.1.49c0-.36-.05-.4,0-.14v.28c0,.14,0,.28,0,.42a3.76,3.76,0,0,0,.58,1.93l3.23-3.23c-.3-.15-.16-.21.07.12a1.9,1.9,0,0,0-.24-.25l.22.28-.13-.2c-.05-.09-.09-.19-.13-.28s.22.58,0,.09c0-.1-.07-.2-.1-.31s-.15-.5-.24-.75a12.85,12.85,0,0,0-1.86-3.65,2.64,2.64,0,0,0-1.41-1.09,2.45,2.45,0,0,0-1.82.24,2.38,2.38,0,0,0-.85,3.23,10.85,10.85,0,0,1,1,1.69c.06.13.24.37.24.5l-.12-.27c0,.1.08.2.11.3q.15.41.27.81a5.51,5.51,0,0,0,2.52,3.62,2.45,2.45,0,0,0,2.86-.37,2.38,2.38,0,0,0,.37-2.86c-.14-.21-.12-.14.05.21-.06-.24-.05-.16,0,.24,0-.14,0-.29,0-.42a10.21,10.21,0,0,0-.18-1.56,15.25,15.25,0,0,0-.73-2.29l-1.75-4.88a2.36,2.36,0,1,0-4.55,1.26Z"/><path class="cls-3" d="M240.22,333.14c3,0,3-4.72,0-4.72s-3,4.72,0,4.72Z"/><path class="cls-3" d="M252.84,329.6l1.95-.07v-4.72c-3,.21-6,.56-9.06.92a2.56,2.56,0,0,0-1.66.69,2.43,2.43,0,0,0-.7,1.67c.06,1.15,1,2.52,2.36,2.36,3-.36,6-.71,9.06-.92a2.36,2.36,0,0,0,0-4.72l-1.95.07a2.36,2.36,0,0,0,0,4.72Z"/><path class="cls-3" d="M246,339l-.05,0,1.2-.32h-.05l.62.09-.05,0,.57.24-.06,0,.48.37-.09-.09.37.48a18.81,18.81,0,0,1-1.89-3.32,2.72,2.72,0,0,0-1.65-1.48,2.43,2.43,0,0,0-2.73,1.14,12.31,12.31,0,0,0-.52,1.31l.23-.57a.48.48,0,0,1-.08.16l.37-.48,0,0,.48-.37h0l.57-.23h1.22l.57.23h0l.48.37L244.2,335a2.49,2.49,0,0,0-1.67-.69,2.36,2.36,0,0,0-2.36,2.36,2.42,2.42,0,0,0,.69,1.67l1.11,1,.55.51a3.05,3.05,0,0,0,.57.45,2.43,2.43,0,0,0,1.84.24,2.66,2.66,0,0,0,1.49-1.14,4.71,4.71,0,0,0,.33-.76c.08-.19.13-.4.22-.59l-.24.56a.39.39,0,0,1,.06-.11l-.37.48,0,0-.48.37h0l-.57.24h0l-.62.08h0l-.63-.08h0l-1-.61,0,0-.37-.48c.24.38.39.81.59,1.21s.41.75.63,1.12.46.72.7,1.08a3.45,3.45,0,0,0,1.11,1.2,2.54,2.54,0,0,0,2.58,0,2.4,2.4,0,0,0,1.09-1.41,2.46,2.46,0,0,0-.24-1.82A2.42,2.42,0,0,0,246,339Z"/><path class="cls-3" d="M256.86,334.26a7.16,7.16,0,0,1,.23-.75c-.32.95-.28.58-.17.41l0-.07c.09-.22-.5.59-.31.4a2.3,2.3,0,0,1-1,.58l-.62.08h0l-.63-.08a2.21,2.21,0,0,1-1.3-1c.14.24-.26-.71-.2-.47a.45.45,0,0,1,0,.11,5.4,5.4,0,0,1,.11.58l-.08-.63a34.44,34.44,0,0,1,.2,3.52c0,.44,0,.89,0,1.33a3.8,3.8,0,0,0,.1.89,2.38,2.38,0,0,0,4.32.57,5.31,5.31,0,0,0,.4-2.2c.07-.89.13-1.77.24-2.66l-.08.63a12.4,12.4,0,0,1,.31-1.59c.07-.28.16-.56.26-.84s-.2.38-.07.14.29-.46,0-.13c-.15.17-.15.18,0,.05l-.32.25a1.53,1.53,0,0,1,.25-.16c.16-.09.33-.17.49-.27a4.11,4.11,0,0,0,.82-.62,3.6,3.6,0,0,0,.8-1.36,2.32,2.32,0,0,0-.6-2.29,2.46,2.46,0,0,0-2.3-.61,68.09,68.09,0,0,0-7.47,1.9,2.36,2.36,0,1,0,1.25,4.55,68.67,68.67,0,0,1,7.47-1.9l-2.9-2.9.16-.4c.28-.33.35-.43.22-.3s.54-.33.21-.17l-.4.22a3.85,3.85,0,0,0-1.14.86,6.92,6.92,0,0,0-1.41,3.23c-.38,1.77-.38,3.56-.59,5.34l.08-.63c-.06.43-.46,0,.6-1l2.3-.61h0l1.42,1.08c.5.78.26.75.23.54l.08.63c-.12-1.07-.05-2.18-.1-3.25-.08-1.83,0-4.33-2.16-5a2.51,2.51,0,0,0-2.85,1.26,5.62,5.62,0,0,0-.54,1.47,2.36,2.36,0,0,0,4.56,1.25Z"/><path class="cls-3" d="M259.12,337.65c-.12.93,0,.11.05-.13,0-.07,0-.13.05-.19-.25,1.28-.28.6-.19.46s-.36.44-.31.38a2.23,2.23,0,0,1-2.44.46,3.78,3.78,0,0,1-.69-.44l0,0s-.43-.65-.29-.35l.09.16a7.52,7.52,0,0,0,1.09,1.8,2.72,2.72,0,0,0,4.42-.85,20.15,20.15,0,0,0,.88-2.62c.16-.47.32-.94.5-1.41a1.17,1.17,0,0,0,.12-.31c-.07.41-.12.29,0,.11s.23-.5.35-.75a13.75,13.75,0,0,1,.78-1.34l.21-.29c.25-.35.06,0-.06.07.13-.05.36-.43.47-.55s.37-.38.56-.55l.22-.19c.4-.34-.21.14,0,0a10.51,10.51,0,0,1,1.3-.76l-2.86-.37a1.65,1.65,0,0,1-.42-1.91c.09-.2.09-.21,0,0,.09-.13.33-.4.1-.13l-.65.77-1.22,1.46-2.46,2.92a2.54,2.54,0,0,0-.69,1.67,2.42,2.42,0,0,0,.69,1.67,2.39,2.39,0,0,0,3.34,0l3.16-3.76a24.86,24.86,0,0,0,1.73-2.11,3.08,3.08,0,0,0-.23-3.88,2.42,2.42,0,0,0-2.86-.36,11.07,11.07,0,0,0-4.6,4.32,25.06,25.06,0,0,0-2.41,6c0,.14-.08.27-.13.4-.11.32.31-.63.11-.27s.36-.39.21-.25a2.73,2.73,0,0,1,.87-.49,2.36,2.36,0,0,1,1.15,0c-.22-.06.7.33.48.21s.58.5.36.27.4.61.24.31a1.74,1.74,0,0,1-.11-.18,6.86,6.86,0,0,0-1.07-1.78,2.52,2.52,0,0,0-3.93.49,5.6,5.6,0,0,0-.59,2.31,2.35,2.35,0,0,0,.69,1.67,2.38,2.38,0,0,0,1.67.69,2.42,2.42,0,0,0,1.67-.69,2.81,2.81,0,0,0,.69-1.67Z"/><path class="cls-3" d="M256.79,337c-.11-1.5-.22-3.28-1.37-4.4a3.31,3.31,0,0,0-2.2-.87c-.25,0-.49,0-.74,0l.63.08a1.93,1.93,0,0,1-.47-.13l.57.24a2.13,2.13,0,0,1-.44-.26l.48.37a3,3,0,0,1-.59-.6l.37.48a8.12,8.12,0,0,1-.89-1.5,2.35,2.35,0,0,0-3.23-.85,2.37,2.37,0,0,0-1.09,1.41,2.68,2.68,0,0,0,.24,1.82,9.86,9.86,0,0,0,1.37,2.12,4.28,4.28,0,0,0,1.34,1.06,4.71,4.71,0,0,0,1.91.5c.22,0,.44,0,.66,0l-.63-.09.24.06-.57-.23a.51.51,0,0,1,.16.09l-.48-.37a.8.8,0,0,1,.13.13l-.37-.48a1.54,1.54,0,0,1,.17.31l-.24-.57a5.18,5.18,0,0,1,.3,1.28l-.08-.63c0,.34.07.69.1,1a2.36,2.36,0,0,0,2.36,2.36,2.42,2.42,0,0,0,1.67-.69,2.4,2.4,0,0,0,.69-1.67Z"/><path class="cls-3" d="M271.83,325.26c-4.32-1.65-9.14-1.11-13.42.41a62.46,62.46,0,0,0-6.23,2.72,14.58,14.58,0,0,1-5.65,1.81c-3,.11-3,4.83,0,4.72,4.37-.16,8-2.65,11.89-4.23s8.1-2.43,12.15-.88a2.39,2.39,0,0,0,2.91-1.65,2.42,2.42,0,0,0-1.65-2.9Z"/><path class="cls-3" d="M267.1,339.09c0-.12.07-.23.1-.34.14-.51-.16.28,0,0s.2-.38.31-.56a1.12,1.12,0,0,0,.16-.22c0,.08-.34.4-.12.17s.26-.29.4-.43a14.47,14.47,0,0,0,2-2.47,53.64,53.64,0,0,0,3.27-6.18,2.42,2.42,0,0,0-.84-3.23,2.38,2.38,0,0,0-3.23.84,50.11,50.11,0,0,1-3.38,6.35,2.9,2.9,0,0,1-.19.29.71.71,0,0,1-.1.14c-.1.14-.06.09.13-.16a3,3,0,0,0-.44.5c-.28.29-.57.57-.84.87a7.72,7.72,0,0,0-1.76,3.13,2.36,2.36,0,1,0,4.55,1.26Z"/><path class="cls-3" d="M249.79,336.81c-.81-1.9-1.63-3.81-2.44-5.72l-.13-.31c.09.22.08.21,0,0l-.26-.62c-.19-.48-.38-1-.56-1.44a30.88,30.88,0,0,1-.95-3,2.36,2.36,0,0,0-4.55,1.26,47.49,47.49,0,0,0,2.3,6.3c.84,2,1.69,4,2.54,5.93A2.36,2.36,0,0,0,249,340a2.43,2.43,0,0,0,.84-3.23Z"/><path class="cls-3" d="M259,335.77a32.31,32.31,0,0,0-4.65-1,4.77,4.77,0,0,0-3.24.34,4.89,4.89,0,0,0-1.58,1.68c-.16.25-.21.08.1-.1-.08.05-.37.25,0,.07a1,1,0,0,1,.48-.25l2.16,2.22c.06-.19.05-.2,0,0s-.07.18,0,0,.33-.49.5-.72c.32-.46-.32.4,0,0l.35-.45a6.49,6.49,0,0,0,1-1.75,5.64,5.64,0,0,0,.21-.7c.06-.32.1-.65.14-1l0-.19a2.34,2.34,0,0,1-.32,1.15L251,336h0l-1.08-1.41c0,.09-.06-.82-.07-.51a1.22,1.22,0,0,0,0,.27c0,.27,0,.54,0,.81,0,.81,0,1.62,0,2.42s0,1.63-.06,2.44c0,.3,0,.6-.05.9s-.1.29.05-.27c0,0,0,.07,0,.1a3.55,3.55,0,0,1,.57-1l1-.61h1.25l.55.23.85.84a13.17,13.17,0,0,0-1-1.35,13.55,13.55,0,0,0-1.71-1.4,14.45,14.45,0,0,0-3.51-1.82,2.37,2.37,0,0,0-2.66,3.47,2.8,2.8,0,0,0,3.84,1.24,3.92,3.92,0,0,0,1.56-1.93c.2-.44.38-.89.56-1.33.09-.21.39-.8,0,0,.06-.14.11-.28.18-.41s.12-.21.17-.32c.2-.4-.44.47-.18.23a2.2,2.2,0,0,1-3,0c.2.19-.41-.59-.25-.32s-.26-.65-.13-.31a2.39,2.39,0,0,0,2.59,1.69,2.35,2.35,0,0,0,2.05-2.32c-.19-1.85-.34-4.71-2.65-5.18a4,4,0,0,0-1-.11c-.11,0,.75.17.35,0-.15-.05.65.35.27.11s.27.21.27.22-.11-.1-.15-.15l-.17-.18c-.27-.27.24.38.13.16-.27-.53-.61-1-.86-1.56a2.38,2.38,0,0,0-3.23-.85,2.43,2.43,0,0,0-.84,3.23c.85,1.85,2.06,3.53,4.23,3.71h.19c.4,0-.39,0-.42-.06.37.07-.57-.29-.37-.16s-.57-.46-.39-.29c-.54-.51-.37-.54-.27-.35s-.21-.7-.09-.18c0,.15.08.29.11.44s.1.67.11.67-.06-.53,0-.11l.06.6,4.64-.63a3.36,3.36,0,0,0-1.34-1.84,2.56,2.56,0,0,0-2.59,0,3.9,3.9,0,0,0-1.5,1.9q-.3.69-.57,1.38c-.16.38.28-.64,0-.07-.06.14-.13.28-.2.42s-.15.23-.2.34.4-.49.23-.3-.33.15.34-.25a2.27,2.27,0,0,1,2,0,1.85,1.85,0,0,1,.52.46c.3.4.09.12,0,0l-2.66,3.47.38.14s-.34-.16-.1,0l.64.31a11.64,11.64,0,0,1,1.3.8c.05,0,.4.29.17.11s0,0,.08.07l.52.46.21.2c.3.3,0,.06,0,0,.07.11.13.24.21.36a2.4,2.4,0,0,0,4.24-.31,4.58,4.58,0,0,0,.27-1.42c.16-1.84.12-3.71.11-5.55,0-1.32.08-2.6-1.21-3.45a2.4,2.4,0,0,0-3.23.85,2.22,2.22,0,0,0-.24.57c-.08.28-.19.9-.07.53s-.05.2-.07.27-.22.57,0,.18-.06.1-.11.17-.13.2-.2.3c-.24.35.35-.44.05-.07l-.54.71a5.85,5.85,0,0,0-1.16,2.1,2.94,2.94,0,0,0,2,3.61A3.27,3.27,0,0,0,253,340a7.66,7.66,0,0,0,.75-1c.23-.35-.38.34,0,.06.13-.13.12-.12-.05,0a1,1,0,0,1-.42.22c-.49.13-.11,0,.11.05.61,0-.49-.08.23,0l1.33.23c1,.19,1.92.42,2.86.7a2.39,2.39,0,0,0,2.9-1.65,2.42,2.42,0,0,0-1.64-2.91Z"/><path d="M254.28,345.24a3.24,3.24,0,0,0,3.26,1.48,8,8,0,0,0,3.38-1.57,29.9,29.9,0,0,0,5.41-5.43c3.06-4.11,4.66-9.12,6.53-14a32.81,32.81,0,0,1,3.51-7.23,10.8,10.8,0,0,1,3-2.93,8.29,8.29,0,0,1,4-1.23,15.69,15.69,0,0,1,4.06.41,8.39,8.39,0,0,1,3.69,1.77,5.18,5.18,0,0,1,1.73,3.65A7.89,7.89,0,0,1,292,324a8.4,8.4,0,0,0,.46-3.83,4.59,4.59,0,0,0-1.8-3.15c-2-1.46-4.77-1.68-7.21-1.57a7.17,7.17,0,0,0-3.38,1.2,9.44,9.44,0,0,0-2.52,2.63,35.42,35.42,0,0,0-3.24,7c-1.81,4.87-3.51,10-6.9,14.33a24.07,24.07,0,0,1-2.78,2.92,19.68,19.68,0,0,1-3.21,2.44,8,8,0,0,1-3.85,1.32,3.66,3.66,0,0,1-2-.5A3.21,3.21,0,0,1,254.28,345.24Z"/><path d="M260.64,345.65c3,0,3.05-4.72,0-4.72s-3,4.72,0,4.72Z"/><path d="M261.54,342.11a4.5,4.5,0,0,0-3.09-2c-1.21-.24-2.43-.48-3.65-.62a8.57,8.57,0,0,0-6.67,2.22,2.38,2.38,0,0,0,0,3.34,2.42,2.42,0,0,0,3.34,0l.24-.21c-.27.2-.31.23-.1.08l.47-.29c.09-.05.41-.28.5-.26l-.13.06.31-.1.46-.12.31-.06c-.37.05-.42.05-.16,0,.42,0,.82,0,1.24,0,.27,0,.25,0-.06,0l.28,0c.22,0,.43.08.65.12l1.23.22c.34.07.68.12,1,.22l.26.09q-.54-.24-.21-.06c.21.13.15.09-.17-.14s-.27-.37-.14-.16a2.38,2.38,0,0,0,3.23.84,2.41,2.41,0,0,0,.84-3.23Z"/><path class="cls-4" d="M263.6,343.34s-8.4-8.82-17.22,0c0,0,4.45,5.78,10.81,1.75h0"/><path d="M257.32,342.25a7.17,7.17,0,0,0-2.26-.15c-.76.09-1.5.27-2.25.39l.62-.09a3.53,3.53,0,0,1-.92,0l.63.09a2.61,2.61,0,0,1-.61-.16l.56.24a2.33,2.33,0,0,1-.34-.2l.48.37-.12-.1a2.54,2.54,0,0,0-1.67-.69,2.42,2.42,0,0,0-1.67.69,2.37,2.37,0,0,0,0,3.34,4.61,4.61,0,0,0,1.69,1,5.08,5.08,0,0,0,1.45.2,21,21,0,0,0,2.73-.43l-.63.08a5.57,5.57,0,0,1,1.29,0l-.63-.08.39.06a2.5,2.5,0,0,0,1.82-.23,2.35,2.35,0,0,0,.85-3.23,2.33,2.33,0,0,0-1.41-1.09Z"/><path d="M258.3,341.84l-.2.16.48-.37a5.71,5.71,0,0,1-1.26.74l.56-.24a6.33,6.33,0,0,1-1.07.33,1.77,1.77,0,0,0-.8.42,1.84,1.84,0,0,0-.61.66,2.67,2.67,0,0,0-.24,1.82,2.41,2.41,0,0,0,1.09,1.41l.56.24a2.45,2.45,0,0,0,1.26,0,8,8,0,0,0,1.9-.69,8.22,8.22,0,0,0,1.67-1.14,2.3,2.3,0,0,0,.49-2.58,1.81,1.81,0,0,0-.49-.76,2.38,2.38,0,0,0-1.67-.69l-.63.08a2.49,2.49,0,0,0-1,.61Z"/><line class="cls-5" x1="252.6" y1="345.32" x2="242.75" y2="321.54"/><line class="cls-5" x1="255.34" y1="345.09" x2="265.32" y2="321.34"/><path d="M255.34,345.09a3.21,3.21,0,0,1-1.33,1.52,3.69,3.69,0,0,1-2,.47,8.22,8.22,0,0,1-3.9-1.38,21.32,21.32,0,0,1-3.23-2.51,24.77,24.77,0,0,1-2.81-3,38.52,38.52,0,0,1-4.31-6.91c-1.22-2.4-2.3-4.85-3.43-7.25a32.66,32.66,0,0,0-4-6.7,8.91,8.91,0,0,0-6.39-3.46,14.47,14.47,0,0,0-3.82.3,6.64,6.64,0,0,0-3.33,1.67,5.12,5.12,0,0,0-1.41,3.44,10.43,10.43,0,0,0,.65,3.89,9.48,9.48,0,0,1-1-3.89,5.64,5.64,0,0,1,1.27-3.91,7.13,7.13,0,0,1,3.6-2.11,14.64,14.64,0,0,1,4.11-.54,9.51,9.51,0,0,1,4.13,1,11.64,11.64,0,0,1,3.29,2.65,30.84,30.84,0,0,1,4.31,7c2.34,4.83,4.27,9.81,7.42,14a30.7,30.7,0,0,0,5.47,5.57,8.38,8.38,0,0,0,3.43,1.64A3.26,3.26,0,0,0,255.34,345.09Z"/><path class="cls-3" d="M279,254.43c-.45-.25-.88-.52-1.31-.81l-.64-.46-.17-.13c-.13-.09.17.14,0,0l-.32-.26a17.67,17.67,0,0,1-2.23-2.18,1.19,1.19,0,0,0-1.67,0,1.21,1.21,0,0,0,0,1.67,19.44,19.44,0,0,0,5.11,4.18,1.18,1.18,0,0,0,1.19-2Z"/><path class="cls-3" d="M280.63,257.71a1.18,1.18,0,0,0,0-2.36,1.18,1.18,0,0,0,0,2.36Z"/><path class="cls-3" d="M279.13,258a1.18,1.18,0,0,0,0-2.36,1.18,1.18,0,0,0,0,2.36Z"/><path class="cls-3" d="M224.68,257.61a1.18,1.18,0,0,0,0-2.36,1.18,1.18,0,0,0,0,2.36Z"/><path class="cls-3" d="M225.68,257.91a1.18,1.18,0,0,0,0-2.36,1.18,1.18,0,0,0,0,2.36Z"/><path class="cls-3" d="M227.69,258.89c3,0,3-4.73,0-4.73s-3.05,4.73,0,4.73Z"/><path class="cls-3" d="M273.42,253.55q-1-.08-1.92-.21l.63.09c-1.44-.2-2.86-.47-4.27-.81a2.5,2.5,0,0,0-1.82.24,2.44,2.44,0,0,0-1.09,1.41,2.41,2.41,0,0,0,1.65,2.91,46.34,46.34,0,0,0,6.82,1.09,2.36,2.36,0,0,0,2.36-2.36,2.42,2.42,0,0,0-.69-1.67,2.67,2.67,0,0,0-1.67-.69Z"/><path class="cls-3" d="M269.28,262.41c.1-.06.88-.55,1-.48-.32.14-.37.16-.13.06l.3-.12.47-.19,2.27-.93c1.61-.66,3.21-1.33,4.78-2.06a2.37,2.37,0,0,0,.85-3.23,2.42,2.42,0,0,0-3.23-.85c-.71.33-1.42.65-2.13.95l-.31.13.1,0-.46.19-1.16.48a39,39,0,0,0-4.69,2,2.36,2.36,0,1,0,2.38,4.07Z"/><path class="cls-3" d="M267.7,262.62a3.82,3.82,0,0,1,.63-.64l-.47.37a6.94,6.94,0,0,1,1.48-.83l-.57.24a22.32,22.32,0,0,0,3.08-1.36,2.49,2.49,0,0,0,1.08-1.41,2.36,2.36,0,0,0-1.64-2.91,2.45,2.45,0,0,0-1.82.24,9.32,9.32,0,0,1-1.14.57l.57-.24c-1.6.67-3.43,1.2-4.54,2.63a1.72,1.72,0,0,0-.49.76,1.67,1.67,0,0,0-.2.91,2.36,2.36,0,0,0,2.36,2.36,2.3,2.3,0,0,0,1.67-.69Z"/><path class="cls-3" d="M267.07,253.92a2.29,2.29,0,0,0,.1.23l-.24-.56a6,6,0,0,1,.39,1.43l-.09-.62a6.08,6.08,0,0,1,0,1.65l.08-.63a6.22,6.22,0,0,1-.41,1.52l.24-.57,0,.08a1.64,1.64,0,0,0-.28.88,1.77,1.77,0,0,0,0,.94,2.36,2.36,0,0,0,2.9,1.65,2.29,2.29,0,0,0,1.41-1.09,8.88,8.88,0,0,0,.62-1.75,9.29,9.29,0,0,0,.2-1.9,8.66,8.66,0,0,0-.87-3.64,2.32,2.32,0,0,0-1.41-1.08,2.41,2.41,0,0,0-1.82.23,2.38,2.38,0,0,0-1.08,1.41l-.09.63a2.27,2.27,0,0,0,.33,1.19Z"/><path class="cls-3" d="M254.61,256.08l-2,.07v4.72c3-.21,6-.57,9-.92a2.64,2.64,0,0,0,1.67-.69,2.4,2.4,0,0,0,.69-1.67c-.05-1.16-1-2.52-2.36-2.36-3,.35-6,.71-9,.92a2.36,2.36,0,1,0,0,4.72l2-.07a2.36,2.36,0,0,0,0-4.72Z"/><path class="cls-3" d="M249.61,263.94l15.11-.19a2.36,2.36,0,0,0,0-4.72l-15.11.19a2.36,2.36,0,1,0,0,4.72Z"/><path class="cls-3" d="M239.7,264.16c3.23,0,6.47,0,9.7-.11a2.36,2.36,0,1,0,0-4.72c-3.23.12-6.47.16-9.7.11a2.36,2.36,0,1,0,0,4.72Z"/><path class="cls-3" d="M264.37,248.72l.37,11.11a2.36,2.36,0,1,0,4.72,0l-.36-11.11a2.37,2.37,0,0,0-4.73,0Z"/><path class="cls-3" d="M266.9,247.05a11.05,11.05,0,0,0,1.15,2.58,17.22,17.22,0,0,0,1.78,2.3l3.51,4a2.38,2.38,0,0,0,3.34,0,2.43,2.43,0,0,0,0-3.34l-3-3.42-.68-.77-.36-.43-.18-.22.11.14a10.19,10.19,0,0,1-1-1.75l.23.56c-.12-.29-.22-.58-.32-.88a2.36,2.36,0,1,0-4.55,1.25Z"/><path class="cls-3" d="M261.77,244l.51,13.52a2.37,2.37,0,0,0,4.73,0L266.49,244a2.36,2.36,0,0,0-4.72,0Z"/><path class="cls-3" d="M264.25,241.82q1.38,3.28,2.78,6.57a17.33,17.33,0,0,0,3.66,5.88,2.35,2.35,0,0,0,3.33,0,2.4,2.4,0,0,0,0-3.33l-.54-.63c-.08-.11-.17-.21-.26-.32.16.2.16.2,0,0a13.9,13.9,0,0,1-.8-1.2,23,23,0,0,1-1.4-3l-2.7-6.36a2.37,2.37,0,0,0-3.22-.85,2.43,2.43,0,0,0-.85,3.23Z"/><path class="cls-3" d="M260.93,235.4a6.45,6.45,0,0,0,1.26,2.78c.26.37.53.72.79,1.09.14.21.28.41.4.63s.09.17.14.26c.19.37-.11-.37,0-.09s.15.53.2.81,0,.13,0-.06c0,.16,0,.32.06.48a8.49,8.49,0,0,0,.43,2.06,12.29,12.29,0,0,0,1.88,3.18,2.65,2.65,0,0,0,1.41,1.08,2.4,2.4,0,0,0,1.82-.23c1-.62,1.66-2.19.85-3.23-.33-.43-.65-.85-.95-1.3-.12-.19-.25-.39-.36-.6l-.2-.39c-.15-.28.11.38,0,.07s-.16-.52-.21-.79,0-.14,0,.06c0-.16,0-.32-.05-.48a9.06,9.06,0,0,0-.41-2.06,11.2,11.2,0,0,0-1.54-2.63,11.82,11.82,0,0,1-.7-1c0-.05-.11-.3-.17-.32s.17.51.08.17a4.41,4.41,0,0,1-.16-.7,2.37,2.37,0,0,0-4.32-.57,2.78,2.78,0,0,0-.24,1.82Z"/><path class="cls-3" d="M261.42,234.05l.06,0-1.82.24h.08l-.57-.23.07,0-.47-.37.06.06-.37-.48a16,16,0,0,1,1,1.57,13.75,13.75,0,0,1,.86,1.66,5.42,5.42,0,0,0,1.42,1.77l1.51,1.39a2.49,2.49,0,0,0,1.67.69,2.36,2.36,0,0,0,2.36-2.36,2.42,2.42,0,0,0-.69-1.67l-1.17-1.07a9.75,9.75,0,0,1-1.08-1.05l.37.48a9.14,9.14,0,0,1-.61-1.21c-.2-.41-.43-.81-.67-1.2s-.48-.76-.72-1.13a3.86,3.86,0,0,0-1.08-1.16,2.31,2.31,0,0,0-1-.33,1.81,1.81,0,0,0-.95,0L259,230a2.36,2.36,0,0,0,.57,4.31l.62.08a2.3,2.3,0,0,0,1.2-.32Z"/><path class="cls-3" d="M256.44,234.56a13.09,13.09,0,0,1,4,8.53c.11,2-.36,3.94-.36,5.92a8.83,8.83,0,0,0,1.94,5.72,2.38,2.38,0,0,0,3.34,0,2.42,2.42,0,0,0,0-3.34c-.93-1.15-.55-3.2-.41-4.54a21.32,21.32,0,0,0-.05-6,17.73,17.73,0,0,0-5.12-9.66c-2.17-2.12-5.52,1.22-3.33,3.34Z"/><path class="cls-3" d="M250.59,240.4a51.65,51.65,0,0,0-1.25,8.66,13.49,13.49,0,0,1-.62,3.43c-.12.31-.12.33,0,0q-.21.35,0,0c.45-.41-.12,0-.26.08a3.53,3.53,0,0,0-1.55,1.51,2.4,2.4,0,0,0,2.67,3.47,68.71,68.71,0,0,0,7.47-1.91,2.36,2.36,0,1,0-1.25-4.55,68.84,68.84,0,0,1-7.48,1.9l2.67,3.47c.18-.35,0-.23-.44.36l.29-.17c.21-.12.41-.22.61-.35a4.48,4.48,0,0,0,1.64-2.17,15.73,15.73,0,0,0,.88-4.34,52.43,52.43,0,0,1,1.15-8.19,2.36,2.36,0,1,0-4.55-1.25Z"/><path class="cls-3" d="M248.33,237a74.31,74.31,0,0,1-2.28,10.86c-.83,2.91-1.89,6-4.8,7.39l3.23.85-.13-.19.32,1.19c0,.32-.36.57,0,.3a3.48,3.48,0,0,0,.5-.58l1.23-1.47,2.35-2.79a2.43,2.43,0,0,0,0-3.34,2.38,2.38,0,0,0-3.34,0L242,253.34c-1.2,1.43-2.89,3.19-1.57,5.15a2.43,2.43,0,0,0,3.23.85c3.76-1.8,5.63-5.72,6.77-9.51A81.27,81.27,0,0,0,253.05,237a2.37,2.37,0,0,0-2.36-2.36,2.42,2.42,0,0,0-2.36,2.36Z"/><path class="cls-3" d="M250.66,237.71a50,50,0,0,0,4.65,17.64,2.39,2.39,0,0,0,3.23.85,2.42,2.42,0,0,0,.85-3.23,44.06,44.06,0,0,1-4-15.26,2.42,2.42,0,0,0-2.36-2.36,2.38,2.38,0,0,0-2.36,2.36Z"/><path class="cls-3" d="M235.62,260.42c4.32,1.65,9.14,1.1,13.41-.41a61.63,61.63,0,0,0,6.24-2.72,14.26,14.26,0,0,1,5.65-1.81c3-.11,3-4.83,0-4.72-4.37.16-8,2.64-11.9,4.23s-8.09,2.42-12.14.88a2.38,2.38,0,0,0-2.91,1.65,2.42,2.42,0,0,0,1.65,2.9Z"/><path class="cls-3" d="M240.34,245a7.76,7.76,0,0,1-.25.82l-.15.39c.1-.23.1-.23,0,0-.22.45-.44.9-.68,1.33-.55,1-1.16,1.89-1.74,2.84a55.1,55.1,0,0,0-3.27,6.17,2.43,2.43,0,0,0,.85,3.23,2.39,2.39,0,0,0,3.23-.85,54.5,54.5,0,0,1,3.38-6.36,24.8,24.8,0,0,0,3.2-6.33,2.37,2.37,0,0,0-4.56-1.26Z"/><path class="cls-3" d="M246.13,234.33c.45,1.79-.32,3.69-.86,5.39-.6,1.9-1.26,3.8-2,5.66a9.76,9.76,0,0,1-2.56,3.82,8.42,8.42,0,0,0-2.95,4.11c-.73,2.95,3.82,4.21,4.55,1.26a2.8,2.8,0,0,1,1-1.35,24.66,24.66,0,0,0,1.82-1.72,18.14,18.14,0,0,0,3-5.53q1.13-2.91,2-5.9a12.93,12.93,0,0,0,.57-7c-.74-3-5.29-1.7-4.55,1.25Z"/><path class="cls-3" d="M244.49,234.32a15.94,15.94,0,0,1-2.07,5.05,23.49,23.49,0,0,1-3.93,4.4,32.91,32.91,0,0,0-6.86,10.4,2.42,2.42,0,0,0,.84,3.23,2.37,2.37,0,0,0,3.23-.84,51.39,51.39,0,0,1,2.85-5.52,24.58,24.58,0,0,1,4.07-4.69,21.58,21.58,0,0,0,6.43-10.77c.68-3-3.87-4.22-4.56-1.26Z"/><path class="cls-3" d="M229.12,259s-1.59-.35-1.09-.07c-.12-.07-.31-.29-.13-.06a4.64,4.64,0,0,0,.5.49,5.83,5.83,0,0,0,1.83,1l.66.23.29.11c.3.11,0,0-.11,0a10.14,10.14,0,0,0,1.24.6,24.2,24.2,0,0,0,2.83,1.31,7.47,7.47,0,0,0,1.23.34,5.4,5.4,0,0,1,.58.11c.11,0,.35.15,0,0a.73.73,0,0,1-.31-.17c-.16-.15-.18-.15,0,0a2.36,2.36,0,0,0,3.33,0,2.42,2.42,0,0,0,0-3.34c-.84-1-2-1-3.17-1.32l-.38-.13-.16-.06c.32.13,0,0-.09,0l-.36-.18-1.38-.7c-.57-.29-1.15-.55-1.74-.79L232,256l-.37-.13c-.27-.08.44.24.07,0,0,0-.2-.15-.26-.15.25.21.31.26.18.14a.57.57,0,0,1-.11-.11c-.17-.16-.32-.34-.49-.5a3.58,3.58,0,0,0-3.15-.86,2.37,2.37,0,0,0-1.65,2.9,2.42,2.42,0,0,0,2.9,1.65Z"/><path class="cls-3" d="M226.52,258.29l.1.1a1.67,1.67,0,0,0,.76.49,1.77,1.77,0,0,0,.91.21,1.82,1.82,0,0,0,.91-.21,1.78,1.78,0,0,0,.76-.49l.37-.47a2.39,2.39,0,0,0,.32-1.19l-.09-.63a2.32,2.32,0,0,0-.6-1l-.1-.1a1.78,1.78,0,0,0-.76-.49,1.71,1.71,0,0,0-.91-.2,2.59,2.59,0,0,0-1.67.69l-.37.47a2.3,2.3,0,0,0-.32,1.2l.08.62a2.34,2.34,0,0,0,.61,1Z"/><path class="cls-3" d="M228.09,259c3,0,3-4.72,0-4.72s-3.05,4.72,0,4.72Z"/><path class="cls-3" d="M258.82,233.16c-2.63-.18-5.36-.16-7.95-.56-2.14-.32-3.85-2-5.91-2.66a2.44,2.44,0,0,0-2.67,1.08,83.72,83.72,0,0,0-7.76,12.88c-1.8,3.69-3.61,7.87-7,10.44a2.43,2.43,0,0,0-.85,3.23,2.39,2.39,0,0,0,3.23.85c3.9-3,6.2-7.1,8.33-11.43a86.65,86.65,0,0,1,8.1-13.58l-2.67,1.08a16.77,16.77,0,0,1,2.88,1.5,10.45,10.45,0,0,0,3.83,1.28c2.78.34,5.61.42,8.41.61a2.36,2.36,0,1,0,0-4.72Z"/><path class="cls-3" d="M257.65,248.86q1.23,2.87,2.45,5.73c0,.1.09.2.13.31-.09-.23-.09-.21,0,0s.17.41.25.61c.2.48.39,1,.57,1.45.36,1,.68,1.95.95,2.95a2.36,2.36,0,0,0,4.55-1.25,45.69,45.69,0,0,0-2.31-6.3c-.84-2-1.69-3.95-2.53-5.93a2.37,2.37,0,0,0-3.23-.85,2.43,2.43,0,0,0-.85,3.23Z"/><path class="cls-3" d="M248.41,237.31a23.56,23.56,0,0,0,5.87,1.14,3.78,3.78,0,0,0,2.76-1.07,7.82,7.82,0,0,0,.67-.85c.57-.81,0,.1-.67.09l-1.19-.32-.12-.11-.61-1c.22-.94.2-1.16,0-.67l-.2.3c-.18.31-.36.63-.51.95a15,15,0,0,0-.91,2.24,10.18,10.18,0,0,0-.49,4.41c.49,3.17,4,5,6.68,6.07,2.08.8,3.51-1.81,2.67-3.47a57.41,57.41,0,0,1-2.75-6.28A2.4,2.4,0,0,0,257,237a2.35,2.35,0,0,0-2.05,2.32c.6,6.06,1.29,12.07,3.79,17.68a2.37,2.37,0,0,0,3.23.84,2.42,2.42,0,0,0,.85-3.23c-2.14-4.78-2.64-10.13-3.15-15.29L255,240a68.53,68.53,0,0,0,3.22,7.41l2.67-3.46a9.7,9.7,0,0,1-2.5-1.43c-.76-.6-.91-.76-.76-1.77a9.47,9.47,0,0,1,.79-2.59c.5-1,1.31-1.94,1.35-3.14.12-3-3.4-3.95-5.3-2-.05.05-.87.94-.86,1.16,0-.39.93-.14.46-.43a2.7,2.7,0,0,0-.58-.08,31.37,31.37,0,0,1-3.84-.87c-2.93-.84-4.18,3.72-1.26,4.55Z"/><path d="M253.16,227.85a3.15,3.15,0,0,0-1.33-1.23,3.61,3.61,0,0,0-1.74-.31,6.76,6.76,0,0,0-3.27,1.37,28,28,0,0,0-5.28,5c-3.08,3.79-5.08,8.34-7.24,12.83a38,38,0,0,1-3.86,6.57,13.35,13.35,0,0,1-2.84,2.72,9.25,9.25,0,0,1-3.68,1.53,12.1,12.1,0,0,1-3.89,0l-.94-.12-1-.19a12.13,12.13,0,0,1-1.85-.52,6.55,6.55,0,0,1-1.71-1,4.08,4.08,0,0,1-.68-.75,3.29,3.29,0,0,1-.37-.94,3.14,3.14,0,0,1,.21-1.92,5.58,5.58,0,0,1,1-1.6A5.74,5.74,0,0,0,214,251a2.91,2.91,0,0,0,0,1.75,2.41,2.41,0,0,0,.38.75,3.48,3.48,0,0,0,.64.57,5.84,5.84,0,0,0,1.58.73,11.84,11.84,0,0,0,1.77.37l.9.12.91,0a11.63,11.63,0,0,0,3.55-.21,9.72,9.72,0,0,0,5.58-4,38.18,38.18,0,0,0,3.62-6.34c2.18-4.44,4.3-9.12,7.73-12.94a26,26,0,0,1,5.81-4.9,7.39,7.39,0,0,1,3.67-1.13,3.85,3.85,0,0,1,1.86.52A3.32,3.32,0,0,1,253.16,227.85Z"/><path class="cls-6" d="M319.92,156.28s-1.75,45.39,5.26,38,1.2-44.84,1.2-44.84L320,158.64"/><path class="cls-7" d="M145.4,227.5s62.46-10,41.64,11.21c0,0-16.42,13,7.21,11.21s-7.81,15.61-4,20.82,16.22,13.21-4.8,13.61-54.85,4.61-37.24-4.8-17.61-15.82-26.82-16-24.22-8.21,1.6-12.41,16-7.81,6.41-14S118.58,229.9,145.4,227.5Z"/><path class="cls-7" d="M90.16,136.08s49.65-4.67,27.22,8.14c0,0-6.4,6,24.43,3.61s26.22-1,21.22,12.81,52,10.81,54.05,20.42-67.87,20-91.29,14.41-10.61-7.95,2.81-15.21c17.74-9.61-15.35-10.28-63.26-12.82-4.69-.24-19.62-6,15.61-10.41s14.41-14.21-2.4-10.41S75.61,137.82,90.16,136.08Z"/><path class="cls-7" d="M383.23,222.29s-38.64,3-39.64,6.81,12.61,8,1.6,11.21-70.86,3.4-44.84,13.61,43.44,13,23.22,19.62,24.23,8.61,32.83,6,19.42-7.41,28-6.41,5.21-51.65,5.21-51.65l-6.41.8"/><path class="cls-7" d="M480.92,239.51s71.06-9.41,51.25,8-15.42,15.21-2.81,15.61,47,10.21,16,11.61-66.46,4-66.46,4l-9.61-38.44,11.61-.8"/><path class="cls-8" d="M377.53,268.28s-14.17-7.87-12.59-17.31c0,0,7.87,6.29,6.29,3.14s0-3.14,0-3.14,4,.93,4.39,2S377.53,268.28,377.53,268.28Z"/><path d="M377.53,268.28a28.65,28.65,0,0,1-5.07-2.69,28,28,0,0,1-4.53-3.66,17.86,17.86,0,0,1-3.5-4.91,11,11,0,0,1-1-6.3l.4-2.53,2.05,1.59c.77.6,1.58,1.2,2.39,1.77s1.63,1.12,2.4,1.58a5.27,5.27,0,0,0,.52.27c.07,0,.13,0,.13.06h-.27a1.26,1.26,0,0,0-.42.13,1.34,1.34,0,0,0-.71.88c-.06.38,0,.31,0,.44s0,0,0,0l-.31-.69a7,7,0,0,1-.54-1.91,2.85,2.85,0,0,1,.24-1.55,2.21,2.21,0,0,1,.75-.87,1.92,1.92,0,0,1,.54-.26,2,2,0,0,1,.66-.11h.17l.17.05a21.88,21.88,0,0,1,2.59.87,11.15,11.15,0,0,1,1.34.67l.35.23c.13.11.26.21.39.33a2.73,2.73,0,0,1,.43.53,3,3,0,0,1,.18.41,1.09,1.09,0,0,1,.06.25c.07.33.08.52.11.74l.06.66.11,1.28c.06.85.14,1.7.17,2.55C377.54,261.45,377.63,264.86,377.53,268.28Zm0,0c-.86-3.32-1.55-6.65-2.19-10-.17-.83-.31-1.66-.47-2.49l-.24-1.23-.13-.61c0-.19-.09-.41-.12-.5s0-.09,0-.06a.33.33,0,0,0,0,.13c.05.07,0,0,0,.05l-.11-.08-.19-.1a8.41,8.41,0,0,0-1-.4,19.27,19.27,0,0,0-2.26-.6l.33,0a1,1,0,0,0,.3,0l.19-.09a.74.74,0,0,0,.27-.3c.08-.18,0-.15.07,0a4.38,4.38,0,0,0,.32,1l.33.69a2.55,2.55,0,0,1,.23.71,3.11,3.11,0,0,1,0,.32,1.73,1.73,0,0,1-.05.49,1.6,1.6,0,0,1-.29.64,1.67,1.67,0,0,1-.64.53,2,2,0,0,1-.6.18h-.35a1.31,1.31,0,0,1-.28,0l-.2,0a3.66,3.66,0,0,1-.59-.2,8.24,8.24,0,0,1-.84-.41,23.51,23.51,0,0,1-2.68-1.78c-.84-.63-1.65-1.25-2.47-1.92l2.45-.93A8.85,8.85,0,0,0,367,256a17.69,17.69,0,0,0,2.63,4.54,37.06,37.06,0,0,0,3.69,4.07C374.62,265.85,376,267.1,377.53,268.28Z"/><path class="cls-8" d="M378.1,268.1s-14.16-7.87-12.59-17.31c0,0,7.87,6.29,6.29,3.15s0-3.15,0-3.15,4.05.93,4.39,2S378.1,268.1,378.1,268.1Z"/><path d="M376.93,363.31v.1l.05-.4s0,.07,0,.11a1,1,0,0,0,0,.6,1.09,1.09,0,0,0,.18.55,1,1,0,0,0,.38.42,1.06,1.06,0,0,0,.51.27l.4.06a1.48,1.48,0,0,0,.76-.21l.3-.23a1.49,1.49,0,0,0,.39-.66.43.43,0,0,0,0-.11l.06-.42v-.08a1.06,1.06,0,0,0-.13-.58,1.08,1.08,0,0,0-.31-.48,1,1,0,0,0-.48-.31,1.06,1.06,0,0,0-.58-.13l-.4.05a1.49,1.49,0,0,0-.66.39l-.23.3a1.48,1.48,0,0,0-.21.76Z"/><path class="cls-9" d="M167.23,198.86s28.32-47.21,70.81-63,89.7-29.9,168.39,11S486.68,276,485.11,298,482,379.83,430,430.19,280.42,504,211.29,444.35c-22.14-19.1-47.21-34.62-64.52-97.57-4.72-31.47,31.47,97.57,143.2,92.85,0,0,55.08,0,81.83-29.9,4.7-5.24-7.86-15.74,12.59-25.18,2.18-1,4.73-7.87-1.57-9.44s-9.44-6.3-6.29-14.16a31.89,31.89,0,0,1-1.58-7.87c0-3.15,4.72-11,0-17.31s0,9.44-26.75,4.72,4.72-9.44,9.44-22,9.44-25.18,17.31-28.33,4.72-17.31,3.15-22-4.72-20.46,3.15-29.9-1.58-53.5-44.07-74S198.7,139.06,159.36,219.32C159.36,219.32,151.49,220.89,167.23,198.86Z"/><path d="M456.78,298a17.74,17.74,0,0,1,1,3.5,25.49,25.49,0,0,1,.43,3.59,20.06,20.06,0,0,1-.11,3.63,11.49,11.49,0,0,1-.36,1.82,3,3,0,0,1-.94,1.62,4.19,4.19,0,0,0,.18-1.72c0-.59-.07-1.17-.1-1.75-.1-1.17-.18-2.34-.24-3.52s-.1-2.36-.08-3.56A26.06,26.06,0,0,1,456.78,298Z"/><path d="M386.75,313a22.4,22.4,0,0,1,4.05-4,17.62,17.62,0,0,1,5-2.8,11.19,11.19,0,0,1,5.83-.39A12.28,12.28,0,0,1,407,308.3a21,21,0,0,1,4,4.29,23.06,23.06,0,0,1,2.81,5.14,13.41,13.41,0,0,1,.91,5.9,11.67,11.67,0,0,1-.64,3,12.93,12.93,0,0,1-1.37,2.7,19.46,19.46,0,0,1-9.44,6.87,16.07,16.07,0,0,1-5.85,1.06,6.55,6.55,0,0,1-3-1,9.9,9.9,0,0,1-2.27-2c-1.31-1.48-2.23-3.22-3.4-4.54a2.72,2.72,0,0,0-.94-.71,1.25,1.25,0,0,0-1,.16c-.88.4-1.76.77-2.64,1.12-3.55,1.36-7.11,2.68-10.71,3.88,3.47-1.53,7-3,10.41-4.59.86-.39,1.72-.78,2.55-1.21a3.34,3.34,0,0,1,.77-.3,1.94,1.94,0,0,1,.93,0,3.78,3.78,0,0,1,1.37.91c1.39,1.47,2.31,3.11,3.59,4.43a6.55,6.55,0,0,0,4.44,2.38,15,15,0,0,0,5.26-1.08,18,18,0,0,0,8.64-6.35,11.16,11.16,0,0,0,1.22-2.35,10.28,10.28,0,0,0,.57-2.57,12.22,12.22,0,0,0-.78-5.26,23.14,23.14,0,0,0-6.15-9,11.39,11.39,0,0,0-4.74-2.54,10.54,10.54,0,0,0-5.4.17A21.16,21.16,0,0,0,386.75,313Z"/><polyline class="cls-4" points="283.34 256.63 280.33 315.18 265.32 322.59 266.19 263.67"/><line class="cls-10" x1="265.32" y1="322.59" x2="242.8" y2="321.99"/><polyline class="cls-4" points="222.08 256.73 227.69 315.68 242.8 321.99 238.3 263.93"/><path d="M246.8,232.16c3,0,3-4.72,0-4.72s-3,4.72,0,4.72Z"/><path d="M245.91,231a4.41,4.41,0,0,0,3.09,2c1.21.25,2.43.48,3.65.62a8.57,8.57,0,0,0,6.67-2.21,2.38,2.38,0,0,0,0-3.34,2.41,2.41,0,0,0-3.34,0l-.24.21c.27-.21.3-.23.1-.08l-.47.29c-.09.05-.41.28-.5.25q.48-.19.12-.06l-.3.1-.46.13-.31.06c.36-.05.42-.06.15,0a10.13,10.13,0,0,1-1.23,0c-.27,0-.25,0,.06,0l-.28-.05-.65-.12-1.23-.23a8.81,8.81,0,0,1-1-.22l-.26-.08c.36.15.42.18.21.06s-.15-.09.17.13.27.38.14.17a2.36,2.36,0,1,0-4.07,2.38Z"/><path class="cls-4" d="M243.85,229.75s8.4,8.82,17.22,0c0,0-4.46-5.78-10.81-1.75h0"/><path d="M250.13,230.84a7.1,7.1,0,0,0,2.25.15c.77-.09,1.5-.28,2.26-.39l-.63.08a4,4,0,0,1,.92,0l-.62-.08a2.61,2.61,0,0,1,.61.16l-.57-.24a2.74,2.74,0,0,1,.34.19l-.47-.36.12.1a2.54,2.54,0,0,0,1.67.69,2.42,2.42,0,0,0,1.67-.69,2.4,2.4,0,0,0,.69-1.67,2.34,2.34,0,0,0-.69-1.67,4.47,4.47,0,0,0-1.69-1,4.77,4.77,0,0,0-1.46-.2,19.47,19.47,0,0,0-2.72.43l.62-.09a5,5,0,0,1-1.28,0l.63.08-.4-.07a2.53,2.53,0,0,0-1.81.24,2.44,2.44,0,0,0-1.09,1.41,2.37,2.37,0,0,0,1.65,2.91Z"/><path d="M249.15,231.25l.2-.17-.48.37a6.08,6.08,0,0,1,1.26-.73l-.56.24a5,5,0,0,1,1.06-.33,1.85,1.85,0,0,0,.81-.42,1.88,1.88,0,0,0,.61-.67,2.58,2.58,0,0,0,.23-1.82,2.39,2.39,0,0,0-1.08-1.41l-.57-.23a2.22,2.22,0,0,0-1.25,0,7.81,7.81,0,0,0-1.91.69,8.16,8.16,0,0,0-1.66,1.14,1.81,1.81,0,0,0-.49.76,1.67,1.67,0,0,0-.2.91,1.69,1.69,0,0,0,.2.91,1.88,1.88,0,0,0,.49.76,2.38,2.38,0,0,0,1.67.69l.63-.09a2.43,2.43,0,0,0,1-.6Z"/><line class="cls-5" x1="254.84" y1="227.77" x2="266.19" y2="263.67"/><line class="cls-5" x1="252.11" y1="228" x2="238.3" y2="263.93"/><polyline class="cls-11" points="221.13 256.13 238.05 263.93 265.54 263.67 283.24 256.27 283.24 256.27"/><path d="M252.11,228a3.24,3.24,0,0,1,1.22-1.43,3.78,3.78,0,0,1,1.86-.53,7.39,7.39,0,0,1,3.67,1.13,25.8,25.8,0,0,1,5.81,4.9c3.44,3.82,5.56,8.51,7.73,12.94a38.23,38.23,0,0,0,3.63,6.34,9.69,9.69,0,0,0,5.57,4,11.32,11.32,0,0,0,3.55.21l.91,0,.9-.12a11.58,11.58,0,0,0,1.77-.37,6,6,0,0,0,1.59-.73,3.39,3.39,0,0,0,.63-.57,2.31,2.31,0,0,0,.38-.75,2.87,2.87,0,0,0,0-1.74,5.68,5.68,0,0,0-.77-1.68,6,6,0,0,1,1,1.6,3.22,3.22,0,0,1,.2,1.92,2.84,2.84,0,0,1-.37.94,4.08,4.08,0,0,1-.68.75,6.66,6.66,0,0,1-1.7,1,11.47,11.47,0,0,1-1.86.52l-.95.2-.94.11a12.1,12.1,0,0,1-3.89,0,9.38,9.38,0,0,1-3.68-1.52,13.35,13.35,0,0,1-2.83-2.73,37.69,37.69,0,0,1-3.86-6.56c-2.17-4.5-4.16-9-7.25-12.83a28,28,0,0,0-5.27-5,6.89,6.89,0,0,0-3.28-1.37,3.55,3.55,0,0,0-1.73.31A3.24,3.24,0,0,0,252.11,228Z"/><rect x="250.41" y="220.69" width="5.71" height="7.72"/><path class="cls-5" d="M252.93,220.76v0c-7.35-.13-15.59-.92-8.67-4.11,10.61-4.9,7.1-10.45,7.1-10.45l2,.31,1.66-.26s-3.5,5.55,7.1,10.45C269.17,219.93,260.39,220.67,252.93,220.76Z"/><path class="cls-6" d="M249.61,131.31s-3.91-3.7-4,3.2.58,21.75.4,25.63c-.12,2.74,3.67,18.39,7,25.92,1.42,3.2.9,12.81.9,12.81l-3.3.2s-.8-9.66-2.4-13.81S242,166.54,241.9,162s-2-25.25.2-31.53c4.1-11.61,7.41-5.11,10.56.35Z"/><path class="cls-6" d="M264.75,126.86s-1.93-6.21-3.73-.15-6.71,18.46-5.51,26.32,3.22-.55,3.22-.55l3.54-.45s-2.6,9.11-5.86,8.61-5.3-4.06-5.1-10.41,4.3-29,10.61-32,6.47,7.72,6.47,7.72Z"/><path class="cls-6" d="M281.12,122.74s-2.34-5.34-5,2.56-7,19.72-7.31,25.93c-.36,6.4,3.51,3.85,4.91.9l2.9.1a15.52,15.52,0,0,1-4.75,7c-1.45,1.1-8.56,3.45-7.81-6.81s4.7-27.18,10.51-35.13,11.76,4,9.51,5.13A7.78,7.78,0,0,1,281.12,122.74Z"/><path class="cls-6" d="M297.25,118.2s-2.05-9.61-7.61,11.41-6.83,28.95-3.6,27.22a9.19,9.19,0,0,0,4.2-4.6l4.16.2s-7.66,11.11-12.46,10.71-4.26-9.16-1.1-23.12,9-26.57,10.81-28c2.8-2.3,6.16-2.23,9.75,4.36,2.71,5,.6,4,.6,4l-4.38.44Z"/><path class="cls-6" d="M315.46,120s-.4-7.74-5.34,5.87-6.41,31.76-8.27,34.43-8.14,9.08-5.88-5.34,10.28-36,16-41.9,13.9,6.94,10.27,6.74c-12.87-.74-6.8.2-6.8.2"/><path class="cls-7" d="M123,383.24s137.53-3.4,75.67,20.42c0,0-78.67,13-30.43,14.41s121.51,11.41,64.86,20.42-56.25,12.21-31.23,15.62,60.86,12.41,19.22,21.62-92.24,10.67-98.89,10.81c-10,.2-41.24-5.21-2-18s-11.55-10-35.64-6.81c-10.4,1.41-25.4-4,3.61-13.21,35.83-11.41-44.19-.77-70.47-9.61-7.79-2.62-9.81-18.81,23.62-27.62s46.25-15.42,22.83-15.62-31.8-8.91-3.21-11.21C88.36,382.24,86.76,381.84,123,383.24Z"/><path class="cls-7" d="M398,433.69s80.28-10.61,46.45,5.2,49,5,44,15.22-45.45,5.2-46.45,10-2,10,16.42,10.41-32.83,19.61-75.27,16.41-44.77-7.85-28.83-11.61c17.55-4.14,54.36-6.08,32-10.41-14.53-2.82-56.45,3-58.85-6.41s60.85-13.21,62.86-16-20.54-.19-23.23-2C364.35,442.56,358.81,436.89,398,433.69Z"/><path class="cls-7" d="M461.5,123.32s58.23-4.72,64.52,6.3-23.88,14.6-28.32,18.88c-2.54,2.44,1.57,11,9.44,11s36.19,6.29,12.59,11-45.43,7.5-25.18,15.74c2.13.86,31.47,7.87,4.72,7.87s-64.52,4.72-66.09,4.72-43.95,3.42,1.57-11c4.38-1.38-6.17-9-15.73-9.44-8.95-.44-34.59-9.36-34.59-9.36s-22.82-9.2,4.8-9.2c0,0,15.11,2.64,20,1.6,2.75-.58,9.61-5.21.4-11.21s41,.68,54.05-2.8c3-.8,16-13.71-4.6-12.62-22.62,1.2-30.15.21-18.22-8.2C445.15,123.6,461.5,123.32,461.5,123.32Z"/><path class="cls-12" d="M486.32,255.1,483,265.21a2.38,2.38,0,0,0,1.65,2.9,2.41,2.41,0,0,0,2.9-1.65l3.3-10.11a2.36,2.36,0,1,0-4.55-1.25Z"/><path class="cls-12" d="M485.93,249.72a49.33,49.33,0,0,0-2.46,10.72,2.34,2.34,0,0,0,.69,1.67,2.38,2.38,0,0,0,1.67.69,2.32,2.32,0,0,0,1.67-.69,2.75,2.75,0,0,0,.69-1.67c0-.06.11-.79.06-.45s.06-.38.07-.44c.05-.38.12-.76.18-1.14.16-.86.33-1.7.53-2.55a46.34,46.34,0,0,1,1.46-4.88,2.38,2.38,0,0,0-1.65-2.91,2.44,2.44,0,0,0-2.91,1.65Z"/><path class="cls-12" d="M480.59,248c.55,3.32,1.24,6.62,2.07,9.88a2.39,2.39,0,0,0,2.91,1.65,2.42,2.42,0,0,0,1.65-2.9c-.84-3.27-1.53-6.56-2.08-9.89a2.36,2.36,0,0,0-2.91-1.64,2.41,2.41,0,0,0-1.64,2.9Z"/><path class="cls-12" d="M477.6,243.88l3.42,1,.71.2c.12,0,.27.11.39.13-.1,0-.45-.23-.19-.06s-.3-.28-.1-.09-.22-.44-.06-.08a1.68,1.68,0,0,0,.16.33l0-.07c-.14-.33-.08-.2.17.42a7.1,7.1,0,0,0,2.05,2.47l.55.49.26.27.1.11-.14-.18a1.16,1.16,0,0,0,.15.26c.25.37-.07-.33,0-.11.1.48,0-.09,0-.14a2,2,0,0,0,0,.43,2.36,2.36,0,0,0,2.36,2.36,2.4,2.4,0,0,0,1.67-.69,2.75,2.75,0,0,0,.69-1.67,5,5,0,0,0-1.83-4.08c-.39-.37-.83-.69-1.21-1.07l-.26-.26c-.11-.14-.07-.07.14.19a1.4,1.4,0,0,1-.12-.18l-.18-.31c-.08-.19-.08-.18,0,0l-.18-.42a4.78,4.78,0,0,0-3.37-2.69l-3.86-1.07a2.36,2.36,0,1,0-1.26,4.55Z"/><path class="cls-12" d="M484.05,247.63a11.32,11.32,0,0,0-1.24-4.21,10.05,10.05,0,0,0-2.4-3,2.54,2.54,0,0,0-1.67-.69,2.42,2.42,0,0,0-1.67.69,2.37,2.37,0,0,0,0,3.34,8.22,8.22,0,0,1,1.26,1.31l-.37-.48a8.54,8.54,0,0,1,1.09,1.87l-.24-.56a8.48,8.48,0,0,1,.58,2.08l-.09-.62,0,.26a2.61,2.61,0,0,0,.69,1.67,2.49,2.49,0,0,0,1.67.69,2.4,2.4,0,0,0,1.67-.69,2.27,2.27,0,0,0,.69-1.67Z"/><path class="cls-12" d="M481.85,260.22l-.25,4.89-.13,2.4-.06,1.15a3.55,3.55,0,0,0,0,.46c.06-.4.07-.48,0-.23a1.72,1.72,0,0,1,.33-.61,2.37,2.37,0,0,0,0,3.33,2.4,2.4,0,0,0,3.34,0,4.28,4.28,0,0,0,1.09-3.14l.15-2.78.28-5.47a2.36,2.36,0,0,0-2.36-2.36,2.41,2.41,0,0,0-2.36,2.36Z"/><path class="cls-12" d="M475,248.27a9,9,0,0,0,2.52,4.18c1,1.05,2,1.86,2.21,3.13a52.7,52.7,0,0,1,.15,6.65q0,3.52,0,7c-.05,3,4.67,3,4.72,0q0-3.51,0-7a61,61,0,0,0-.22-7.28,8.57,8.57,0,0,0-2.56-4.83c-.5-.54-1-1.05-1.52-1.61a3.43,3.43,0,0,1-.75-1.5,2.36,2.36,0,1,0-4.55,1.26Z"/><path class="cls-12" d="M479.49,252.54l3.09,5.4A2.45,2.45,0,0,0,484,259a2.36,2.36,0,0,0,1.82-.24,2.4,2.4,0,0,0,.85-3.23l-3.1-5.4a2.43,2.43,0,0,0-1.41-1.08,2.34,2.34,0,0,0-1.81.24,2.39,2.39,0,0,0-.85,3.23Z"/><path class="cls-8" d="M434.8,283.29s-9.44-1.57-15.73-15.74-7.09-10.23-9.45-17.31c-.45-1.34-3.14,4.72-3.14,4.72s-2.78-6.61-4.73-6.29-.78,2.36-7.86-1.57c-1-.54-3.15,3.14-3.15,3.14s-5.67-2.85-6.3-4.72c-.78-2.36-4.72,4.72,9.45,11s17.31,6.29,23.6,12.59S430.08,283.29,434.8,283.29Z"/><path d="M434.8,283.29A20.09,20.09,0,0,1,424.35,277a38,38,0,0,1-6.75-10.38,51.2,51.2,0,0,0-6.16-10.23,14.25,14.25,0,0,1-1.84-2.74,23.62,23.62,0,0,1-1.25-3,1,1,0,0,0,.32.45,1.27,1.27,0,0,0,.62.26,1.12,1.12,0,0,0,.5,0,.66.66,0,0,0,.19-.09l0,0s0,0,0,0a5.1,5.1,0,0,0-.31.43c-.23.37-.46.79-.69,1.22-.44.86-.87,1.78-1.26,2.67l-1.27,2.91-1.33-2.94a25.16,25.16,0,0,0-2.44-4.36,5.14,5.14,0,0,0-.7-.79,1.39,1.39,0,0,0-.26-.2s0,0,.12,0a.22.22,0,0,0,.1,0l-.07,0-.11,0a1.59,1.59,0,0,0-.35.19,3.9,3.9,0,0,1-1,.47,4.76,4.76,0,0,1-.64.11h-.57a10.5,10.5,0,0,1-3-1c-.87-.4-1.68-.82-2.48-1.25l-.61-.33,0,0,.09,0,.21.06a1.67,1.67,0,0,0,.3,0l.22-.06a2.86,2.86,0,0,0-.55.55,14.21,14.21,0,0,0-1.37,2l-.76,1.26-1.29-.66a34.73,34.73,0,0,1-4.25-2.53,12.64,12.64,0,0,1-2.05-1.8,6.59,6.59,0,0,1-.51-.73c-.08-.17-.16-.34-.23-.51l0-.06h0v0l0,.08a1.2,1.2,0,0,0,.13.15,1.12,1.12,0,0,0,.35.24,1.25,1.25,0,0,0,1.08,0c.41-.27.33-.33.36-.34a2.31,2.31,0,0,0,.11,1.27,6.08,6.08,0,0,0,.87,1.67,13.32,13.32,0,0,0,3,2.94,38.83,38.83,0,0,0,8,4.31l8.61,3.77a41.91,41.91,0,0,1,8.48,4.6,52.21,52.21,0,0,1,6.83,6.7c2.1,2.35,4.15,4.71,6.33,6.93a30.76,30.76,0,0,0,3.48,3.09A8.47,8.47,0,0,0,434.8,283.29Zm0,0a8.68,8.68,0,0,1-4.46-1.47,30.26,30.26,0,0,1-3.82-2.84c-2.4-2.07-4.62-4.31-6.86-6.49a51.16,51.16,0,0,0-6.93-6.09,41.12,41.12,0,0,0-8.21-4c-2.91-1.13-5.85-2.29-8.75-3.51a41,41,0,0,1-8.64-4.45,16.41,16.41,0,0,1-3.71-3.6,9.53,9.53,0,0,1-1.29-2.5,6,6,0,0,1-.31-1.51,4.26,4.26,0,0,1,.24-1.83,2.35,2.35,0,0,1,1.06-1.26,1.87,1.87,0,0,1,1.63-.07,1.79,1.79,0,0,1,.59.4,2.39,2.39,0,0,1,.31.39,2.64,2.64,0,0,1,.17.33l.07.16,0,.08h0s0,0,0,0l.17.23a9.12,9.12,0,0,0,1.5,1.27,39.53,39.53,0,0,0,3.83,2.29l-2.05.6a18.28,18.28,0,0,1,1.72-2.4,5.29,5.29,0,0,1,1.41-1.24,2.4,2.4,0,0,1,.84-.28,1.89,1.89,0,0,1,.63,0l.38.1.17.07.11.06.57.31c.77.42,1.53.82,2.29,1.17a7.9,7.9,0,0,0,2,.72h.1s0,0,0,0l.21-.12a5.15,5.15,0,0,1,.83-.43,2.4,2.4,0,0,1,.52-.16l.26-.06a4.23,4.23,0,0,1,.43,0,2.79,2.79,0,0,1,1.38.41,4.09,4.09,0,0,1,.8.61,8.1,8.1,0,0,1,1,1.23,27.55,27.55,0,0,1,2.66,5l-2.6,0c.45-1,.91-1.89,1.42-2.82.26-.47.53-.94.85-1.42a6,6,0,0,1,.62-.79,2.53,2.53,0,0,1,.28-.25l.2-.15a2.09,2.09,0,0,1,.37-.17,1.79,1.79,0,0,1,.68-.08,1.69,1.69,0,0,1,.79.34,1.71,1.71,0,0,1,.51.78,28.33,28.33,0,0,0,1,2.69,12.88,12.88,0,0,0,1.47,2.38,35.48,35.48,0,0,1,3.35,5.32c1,1.85,1.8,3.73,2.59,5.62.4,1,.81,1.88,1.22,2.78s.87,1.8,1.33,2.68,1,1.71,1.52,2.58,1.13,1.65,1.79,2.4A20.68,20.68,0,0,0,434.8,283.29Z"/><path d="M382.82,293.28a5.55,5.55,0,0,1,2.44-4.12,12.57,12.57,0,0,1,4.51-2c3.25-.77,6.56-.66,9.78-.76s6.49-.09,9.73-.14l9.73,0-.47,1.41c-5.1-3.8-10.34-7.46-15.64-11-2.66-1.76-5.36-3.45-8.14-5-1.39-.78-2.79-1.53-4.25-2.17A15,15,0,0,0,386,268.1a13.62,13.62,0,0,1,4.7,1c1.51.55,3,1.2,4.44,1.88,2.89,1.42,5.67,3,8.43,4.65s5.43,3.41,8.1,5.19,5.26,3.65,7.85,5.55l1.93,1.43H419l-9.73,0c-3.24-.05-6.48-.05-9.73-.14a48.76,48.76,0,0,0-9.61.3,12.22,12.22,0,0,0-4.44,1.61,6.28,6.28,0,0,0-1.74,1.59A4.63,4.63,0,0,0,382.82,293.28Z"/><ellipse class="cls-13" cx="393.05" cy="279.12" rx="5.51" ry="7.87"/><circle cx="392.25" cy="278.65" r="2.04"/><path class="cls-8" d="M434,283.05s-9.44-1.57-15.73-15.74-7.08-10.23-9.44-17.31c-.45-1.34-3.15,4.72-3.15,4.72s-2.78-6.61-4.72-6.29-.79,2.36-7.87-1.57c-1-.54-3.15,3.14-3.15,3.14s-5.67-2.85-6.29-4.72c-.79-2.36-4.72,4.72,9.44,11s17.31,6.29,23.6,12.59S429.24,283.05,434,283.05Z"/><path class="cls-12" d="M473.47,272.48c0-.16,0-.9,0-.23a4.18,4.18,0,0,1,.11-.68q.11-.58.24-1.17a22.7,22.7,0,0,1,.74-2.47c.08-.22.17-.43.25-.65.21-.55-.21.47,0-.07s.38-.83.59-1.24a21.57,21.57,0,0,1,1.33-2.21,2.38,2.38,0,0,0-.85-3.23,2.42,2.42,0,0,0-3.23.85,24.15,24.15,0,0,0-3.95,11.1,2.36,2.36,0,0,0,2.36,2.36,2.42,2.42,0,0,0,2.36-2.36Z"/><path d="M455.21,263.38a40.71,40.71,0,0,1,.6-7.3,36.82,36.82,0,0,1,1.9-7.15,23.34,23.34,0,0,1,4-6.35,15.25,15.25,0,0,1,6.28-4.26,17.25,17.25,0,0,1,7.53-.79,25.72,25.72,0,0,1,7.26,1.87,14.54,14.54,0,0,1,6.09,4.54,13.39,13.39,0,0,1,2.5,7.19,26.2,26.2,0,0,1-.71,7.46,49.71,49.71,0,0,1-2.2,7.05A144.54,144.54,0,0,1,482.38,279c-1.09,2.17-2.19,4.33-3.23,6.51a34.17,34.17,0,0,0-2.54,6.61,3.91,3.91,0,0,0-.16.8l-.07.4v.44c0,.6-.05,1.2,0,1.8a30.7,30.7,0,0,0,.21,3.58,22.36,22.36,0,0,0,.74,3.51,10.44,10.44,0,0,0,1.52,3.26,14.82,14.82,0,0,1-3.07-6.63,31.92,31.92,0,0,1-.6-3.65c-.08-.62-.11-1.23-.16-1.85l0-.46,0-.51a5.3,5.3,0,0,1,.1-1,18.94,18.94,0,0,1,1.16-3.6c.47-1.15,1-2.27,1.5-3.37,1-2.21,2.16-4.38,3.24-6.55a141.68,141.68,0,0,0,6-13.17,47.86,47.86,0,0,0,2.13-6.84,24.49,24.49,0,0,0,.68-7,11.82,11.82,0,0,0-2.2-6.36,12.9,12.9,0,0,0-5.44-4c-4.31-1.74-9.28-2.57-13.64-1a13.61,13.61,0,0,0-5.64,3.84,21.14,21.14,0,0,0-3.72,5.93A43.32,43.32,0,0,0,455.21,263.38Z"/><path d="M461.5,263.38c2.6-5.28,5.68-10.44,10.11-14.58a11.57,11.57,0,0,1,3.92-2.47,5.32,5.32,0,0,1,1.19-.3A4.83,4.83,0,0,1,478,246a6,6,0,0,1,1.26.25,6.07,6.07,0,0,1,1.14.57,9.69,9.69,0,0,1,3,3.67,17,17,0,0,1,1.46,4.4,18.36,18.36,0,0,1-1,9.07,38.83,38.83,0,0,1-4.11,8c-1.62,2.49-3.37,4.86-5,7.28a42.14,42.14,0,0,0-2.38,3.69A10.68,10.68,0,0,0,471,287a9.64,9.64,0,0,1,1.06-4.29,43.29,43.29,0,0,1,2.1-3.92c1.55-2.52,3.19-5,4.66-7.5a42.72,42.72,0,0,0,3.73-7.82,17.1,17.1,0,0,0,.83-8.33,15.25,15.25,0,0,0-1.29-4,8.27,8.27,0,0,0-2.47-3.11,3.9,3.9,0,0,0-3.6-.41,11.66,11.66,0,0,0-3.58,2.09,38.18,38.18,0,0,0-5.9,6.39A87.28,87.28,0,0,0,461.5,263.38Z"/><path d="M469.37,258.66a13.85,13.85,0,0,1,3.5-3.54,3.43,3.43,0,0,1,2.68-.63,2.45,2.45,0,0,1,1.25.9,4.65,4.65,0,0,1,.63,1.26,10.1,10.1,0,0,1,.47,2.56l0,.64a3.23,3.23,0,0,1,0,.69,3.81,3.81,0,0,1-.41,1.44,13.8,13.8,0,0,1-3.61,3.72,36.06,36.06,0,0,0-3.65,3.1,9.37,9.37,0,0,0-1.4,1.78,9.19,9.19,0,0,0-.46,1c-.13.37-.27.74-.38,1.13a38.37,38.37,0,0,0-1.08,4.71c-.32,1.59-.5,3.21-.7,4.84a33.5,33.5,0,0,1,.59-9.87c.09-.41.2-.81.31-1.22a9.64,9.64,0,0,1,.51-1.25,10,10,0,0,1,1.53-2.14,33.93,33.93,0,0,1,3.75-3.31,13.1,13.1,0,0,0,3.27-3.19,2.34,2.34,0,0,0,.31-.87,2.21,2.21,0,0,0,0-.54v-.59a11.85,11.85,0,0,0-.27-2.27,2.13,2.13,0,0,0-1-1.54,2.6,2.6,0,0,0-2,.32A15.8,15.8,0,0,0,469.37,258.66Z"/><circle class="cls-14" cx="473.31" cy="328.69" r="19.67"/><circle class="cls-15" cx="473.45" cy="328.77" r="19.67"/><circle class="cls-16" cx="252.51" cy="203.05" r="3.53"/><path d="M89.16,296.36a27.11,27.11,0,0,1-4.07.51c-1.35.1-2.71.1-4.06.08s-2.7-.12-4-.27a27.19,27.19,0,0,1-4-.72,27.11,27.11,0,0,1,4.07-.51c1.36-.09,2.71-.09,4.06-.07s2.7.11,4.05.27A26.93,26.93,0,0,1,89.16,296.36Z"/><path d="M113.38,296.76a17.39,17.39,0,0,1-3.3.61,28.07,28.07,0,0,1-3.3.18,30.45,30.45,0,0,1-3.31-.17,18.25,18.25,0,0,1-3.3-.62,17.39,17.39,0,0,1,3.3-.61,28.12,28.12,0,0,1,3.31-.17,30.39,30.39,0,0,1,3.3.17A19.12,19.12,0,0,1,113.38,296.76Z"/><path d="M137.2,297.36a22.18,22.18,0,0,1-3.76.56c-1.25.11-2.5.13-3.75.13s-2.51-.08-3.76-.22a23.32,23.32,0,0,1-3.74-.67,23.23,23.23,0,0,1,3.76-.56c1.25-.11,2.51-.13,3.76-.12s2.5.08,3.75.22A23.09,23.09,0,0,1,137.2,297.36Z"/><path d="M165.23,297.16a26.33,26.33,0,0,1-4.09.71c-1.36.16-2.73.23-4.1.28s-2.74,0-4.11-.07a26.53,26.53,0,0,1-4.12-.52,27.8,27.8,0,0,1,4.09-.71c1.37-.16,2.73-.23,4.1-.27s2.74,0,4.11.07A27.77,27.77,0,0,1,165.23,297.16Z"/><path d="M217.08,295.56c-6.66.75-13.33,1-20,1.19s-13.35.1-20-.39c6.66-.75,13.33-1,20-1.18S210.39,295.08,217.08,295.56Z"/><path d="M113.38,365.63a21.15,21.15,0,0,1-2.81,2.23,32.19,32.19,0,0,1-3,1.86,33.35,33.35,0,0,1-3.18,1.55,21.27,21.27,0,0,1-3.4,1.16,21.23,21.23,0,0,1,2.81-2.24,34.34,34.34,0,0,1,3-1.85,33.35,33.35,0,0,1,3.18-1.55A21.27,21.27,0,0,1,113.38,365.63Z"/><path d="M137.4,353.21a24.13,24.13,0,0,1-3.16,2.4c-1.09.72-2.23,1.37-3.37,2s-2.33,1.19-3.54,1.7a24.31,24.31,0,0,1-3.74,1.31,26.48,26.48,0,0,1,3.16-2.39c1.1-.73,2.23-1.38,3.38-2s2.32-1.19,3.53-1.69A25.11,25.11,0,0,1,137.4,353.21Z"/><path d="M171.83,336.4c-1.82,1.29-3.71,2.44-5.62,3.55s-3.87,2.14-5.83,3.16-4,2-6,2.84-4.07,1.75-6.19,2.46c1.82-1.29,3.71-2.45,5.63-3.55s3.87-2.14,5.83-3.16,4-1.95,6-2.84S169.72,337.11,171.83,336.4Z"/><path d="M217.48,313.18c-2.28,1.65-4.63,3.17-7,4.63s-4.79,2.88-7.22,4.26-4.9,2.7-7.39,3.95-5,2.49-7.61,3.57c2.28-1.65,4.63-3.17,7-4.64s4.79-2.87,7.22-4.25,4.89-2.69,7.39-3.95S214.88,314.26,217.48,313.18Z"/><path d="M110.92,446.9c-1.68,1.94-3.47,3.77-5.29,5.56s-3.7,3.52-5.59,5.24-3.84,3.36-5.82,5-4,3.19-6.12,4.65c1.69-1.95,3.47-3.78,5.3-5.56s3.7-3.52,5.59-5.24,3.83-3.36,5.82-5S108.8,448.36,110.92,446.9Z"/><path d="M128,429.28a12.31,12.31,0,0,1-1.46,2.34,20.24,20.24,0,0,1-1.78,2,18.09,18.09,0,0,1-2,1.78,11.79,11.79,0,0,1-2.33,1.47,11.79,11.79,0,0,1,1.47-2.33,19.07,19.07,0,0,1,1.77-2,21.54,21.54,0,0,1,2-1.78A13.14,13.14,0,0,1,128,429.28Z"/><path d="M145.41,411.67a30.15,30.15,0,0,1-2.62,3.48c-.93,1.11-1.92,2.15-2.93,3.18s-2.07,2-3.17,2.93a30.27,30.27,0,0,1-3.49,2.62,30.27,30.27,0,0,1,2.62-3.49c.93-1.1,1.92-2.15,2.93-3.17s2.07-2,3.18-2.93A29.31,29.31,0,0,1,145.41,411.67Z"/><path d="M183.45,374.43c-1.67,2.28-3.44,4.44-5.26,6.58s-3.69,4.21-5.58,6.27-3.84,4.07-5.83,6-4,3.91-6.16,5.74c1.67-2.28,3.44-4.45,5.26-6.58s3.69-4.21,5.58-6.27,3.84-4.07,5.83-6S181.31,376.26,183.45,374.43Z"/><path d="M223.88,332.4c-5.09,6.29-10.52,12.26-16,18.15s-11.2,11.63-17.19,17.08c5.09-6.3,10.52-12.27,16-18.16S217.89,337.84,223.88,332.4Z"/><path d="M196.12,454.24a15.92,15.92,0,0,1-.63,3,26,26,0,0,1-1.05,2.88,23.93,23.93,0,0,1-1.36,2.73,15,15,0,0,1-1.76,2.56,15.2,15.2,0,0,1,.64-3,23.33,23.33,0,0,1,1-2.87,25.85,25.85,0,0,1,1.36-2.74A16,16,0,0,1,196.12,454.24Z"/><path d="M203.6,436.62a12.93,12.93,0,0,1-.36,2.75,21,21,0,0,1-.77,2.6,19.38,19.38,0,0,1-1.1,2.47,12.2,12.2,0,0,1-1.51,2.33,12.32,12.32,0,0,1,.36-2.75,19.41,19.41,0,0,1,.77-2.6,20.89,20.89,0,0,1,1.1-2.47A12.52,12.52,0,0,1,203.6,436.62Z"/><path d="M212.67,414.2a22,22,0,0,1-.62,3.67,35.73,35.73,0,0,1-1,3.53,34.59,34.59,0,0,1-1.36,3.41,22.13,22.13,0,0,1-1.78,3.27,22.32,22.32,0,0,1,.62-3.67,40.31,40.31,0,0,1,2.4-6.94A22.13,22.13,0,0,1,212.67,414.2Z"/><path d="M224.42,381.64c-.36,2.11-.87,4.16-1.42,6.2s-1.19,4.05-1.84,6.06-1.38,4-2.17,6a61.18,61.18,0,0,1-2.58,5.81c.36-2.1.86-4.16,1.42-6.2s1.18-4,1.84-6.06,1.38-4,2.16-5.95S223.44,383.54,224.42,381.64Z"/><path d="M238.3,345.87a56.8,56.8,0,0,1-1.43,5.82c-.55,1.91-1.18,3.79-1.84,5.66s-1.38,3.72-2.16,5.55a57.84,57.84,0,0,1-2.58,5.39,57.22,57.22,0,0,1,1.42-5.81c.55-1.91,1.19-3.79,1.84-5.66s1.38-3.72,2.17-5.55A54.39,54.39,0,0,1,238.3,345.87Z"/><path d="M159.62,112.09a15.05,15.05,0,0,1-2-2.27,26.57,26.57,0,0,1-2.91-5.16,14.89,14.89,0,0,1-.91-2.88,14.58,14.58,0,0,1,2,2.28,23.48,23.48,0,0,1,1.61,2.49,24.41,24.41,0,0,1,1.3,2.67A14.79,14.79,0,0,1,159.62,112.09Z"/><path d="M172.94,134.71a19.61,19.61,0,0,1-2.31-2.71c-.7-.95-1.33-1.94-1.93-2.94a32.91,32.91,0,0,1-1.62-3.12,19.62,19.62,0,0,1-1.25-3.34,21.88,21.88,0,0,1,2.31,2.72,32.93,32.93,0,0,1,1.92,2.94,34.14,34.14,0,0,1,1.63,3.12A21.35,21.35,0,0,1,172.94,134.71Z"/><path d="M182.24,151a10.52,10.52,0,0,1-1.75-1.71,15.43,15.43,0,0,1-1.37-1.94,14.45,14.45,0,0,1-1.08-2.11,9.86,9.86,0,0,1-.7-2.35,9.8,9.8,0,0,1,1.75,1.71,14.53,14.53,0,0,1,1.38,1.94,15.46,15.46,0,0,1,1.07,2.11A9.86,9.86,0,0,1,182.24,151Z"/><path d="M206.27,190.66c-1.65-2.24-3.17-4.55-4.64-6.9s-2.87-4.72-4.25-7.12-2.7-4.83-4-7.29-2.49-4.95-3.57-7.51c1.65,2.24,3.17,4.56,4.64,6.9s2.87,4.73,4.25,7.12,2.7,4.83,3.95,7.3S205.18,188.1,206.27,190.66Z"/><path d="M230.69,236.31c-3.55-5.32-6.68-10.85-9.7-16.45s-5.86-11.28-8.32-17.18c3.55,5.31,6.68,10.85,9.7,16.44S228.23,230.41,230.69,236.31Z"/><path d="M254.71,66.55a9.8,9.8,0,0,1-.61-2.3,14.85,14.85,0,0,1,0-4.61,9,9,0,0,1,.61-2.3,9.48,9.48,0,0,1,.62,2.3,15.27,15.27,0,0,1,0,4.61A8.91,8.91,0,0,1,254.71,66.55Z"/><path d="M255.11,87.77A13.76,13.76,0,0,1,254.5,85a21.4,21.4,0,0,1,0-5.54,12.64,12.64,0,0,1,.61-2.77,13.28,13.28,0,0,1,.62,2.77,21.57,21.57,0,0,1,.17,2.77,19.82,19.82,0,0,1-.18,2.77A12.52,12.52,0,0,1,255.11,87.77Z"/><path d="M255.51,115a35.11,35.11,0,0,1-.61-4.51c-.13-1.5-.16-3-.17-4.5s0-3,.17-4.51a31.57,31.57,0,0,1,.61-4.5,33.1,33.1,0,0,1,.62,4.5c.12,1.5.15,3,.17,4.51s-.05,3-.18,4.5A31.9,31.9,0,0,1,255.51,115Z"/><path d="M254.71,179.45a52.41,52.41,0,0,1-.51-5.71c-.09-1.91-.09-3.81-.07-5.71s.11-3.8.27-5.7a52.81,52.81,0,0,1,.71-5.7,52.85,52.85,0,0,1,.52,5.72c.09,1.9.09,3.81.07,5.71s-.12,3.8-.28,5.7A52.32,52.32,0,0,1,254.71,179.45Z"/><path d="M324.38,127.41a32.57,32.57,0,0,1,1.45-4.38c.55-1.42,1.19-2.8,1.84-4.18s1.38-2.71,2.16-4a34.08,34.08,0,0,1,2.55-3.84,32,32,0,0,1-1.45,4.37c-.55,1.43-1.19,2.81-1.84,4.18s-1.38,2.72-2.16,4A34.08,34.08,0,0,1,324.38,127.41Z"/><path d="M303.56,172.25c.77-2.47,1.68-4.88,2.64-7.26s2-4.74,3.05-7.08,2.18-4.65,3.36-6.94,2.39-4.55,3.76-6.75c-.77,2.47-1.68,4.88-2.65,7.26s-2,4.74-3,7.08-2.18,4.65-3.36,6.94S304.92,170.05,303.56,172.25Z"/><path d="M273.53,229.1c3.26-7.24,6.94-14.24,10.72-21.2s7.75-13.8,12.1-20.44c-3.26,7.24-6.94,14.25-10.72,21.2S277.87,222.46,273.53,229.1Z"/><path d="M366.41,176.25c1.4-2,2.91-3.87,4.46-5.72s3.15-3.64,4.78-5.42,3.3-3.51,5-5.19,3.48-3.34,5.35-4.89c-1.39,2-2.9,3.88-4.45,5.72s-3.15,3.65-4.78,5.43-3.31,3.5-5,5.18S368.29,174.7,366.41,176.25Z"/><path d="M344,198.27a26.43,26.43,0,0,1,2.48-3.24c.88-1,1.83-2,2.78-2.93s2-1.83,3-2.68a27.35,27.35,0,0,1,3.33-2.36,26.47,26.47,0,0,1-2.47,3.25c-.88,1-1.83,2-2.79,2.92s-2,1.84-3,2.68A26.59,26.59,0,0,1,344,198.27Z"/><path d="M294,245.92c5.58-6.19,11.48-12,17.47-17.79s12.12-11.36,18.56-16.65c-5.58,6.19-11.48,12-17.47,17.79S300.38,240.62,294,245.92Z"/><path d="M412.06,217.09a19.25,19.25,0,0,1,2.85-2,30.93,30.93,0,0,1,3-1.56,29.74,29.74,0,0,1,3.17-1.24,18.58,18.58,0,0,1,3.36-.85,19,19,0,0,1-2.85,2,28.94,28.94,0,0,1-3,1.56,32.27,32.27,0,0,1-3.18,1.25A19.55,19.55,0,0,1,412.06,217.09Z"/><path d="M379.23,232.3a27.64,27.64,0,0,1,3.31-2.44c1.15-.74,2.33-1.41,3.53-2.06s2.42-1.22,3.68-1.75a26.26,26.26,0,0,1,3.89-1.35,26.69,26.69,0,0,1-3.32,2.44c-1.14.75-2.33,1.41-3.52,2.06s-2.43,1.22-3.69,1.74A26.57,26.57,0,0,1,379.23,232.3Z"/><path d="M340.79,250.32a48.35,48.35,0,0,1,4.52-3c1.55-.94,3.13-1.8,4.73-2.65s3.22-1.63,4.88-2.35a46.54,46.54,0,0,1,5.09-2,46.48,46.48,0,0,1-4.52,3.05c-1.55.94-3.13,1.81-4.73,2.65s-3.22,1.63-4.88,2.35A49.54,49.54,0,0,1,340.79,250.32Z"/><path d="M293.15,272.34c2.29-1.46,4.65-2.78,7-4s4.8-2.48,7.23-3.67,4.89-2.29,7.38-3.34,5-2.08,7.57-2.95c-2.29,1.46-4.65,2.78-7,4.05s-4.8,2.48-7.23,3.66-4.89,2.29-7.38,3.35S295.72,271.47,293.15,272.34Z"/><path d="M356,295.56a8.4,8.4,0,0,1,2.11-.61,12.34,12.34,0,0,1,4.2,0,7.58,7.58,0,0,1,2.1.61,8,8,0,0,1-2.1.62,12.69,12.69,0,0,1-4.2,0A7.65,7.65,0,0,1,356,295.56Z"/><path d="M324,294.36a50.93,50.93,0,0,1,5.63-.41c1.87-.06,3.74,0,5.61,0s3.74.19,5.6.38a50.86,50.86,0,0,1,5.59.81,48.61,48.61,0,0,1-5.63.41c-1.87.06-3.74,0-5.61,0s-3.74-.19-5.6-.38A50.86,50.86,0,0,1,324,294.36Z"/><path d="M288.74,293.56a50.93,50.93,0,0,1,5.63-.41c1.87-.06,3.74,0,5.61,0s3.74.18,5.6.38a50.68,50.68,0,0,1,5.58.81,48.44,48.44,0,0,1-5.62.41c-1.88.06-3.75,0-5.62,0s-3.73-.19-5.59-.38A50.86,50.86,0,0,1,288.74,293.56Z"/><path d="M326,320a14.59,14.59,0,0,1,2.91.43,23.18,23.18,0,0,1,2.76.84,21.48,21.48,0,0,1,2.65,1.16,14.08,14.08,0,0,1,2.49,1.58,13.9,13.9,0,0,1-2.92-.43,20.42,20.42,0,0,1-2.76-.84,21.35,21.35,0,0,1-2.64-1.16A13.73,13.73,0,0,1,326,320Z"/><path d="M291.14,310.37a41,41,0,0,1,5,.92c1.64.38,3.25.85,4.86,1.34s3.19,1,4.75,1.66a40.65,40.65,0,0,1,4.62,2.09,41.37,41.37,0,0,1-5-.91c-1.63-.39-3.25-.85-4.85-1.34s-3.19-1.05-4.75-1.67A39.85,39.85,0,0,1,291.14,310.37Z"/><path d="M352.8,460.91a34.87,34.87,0,0,1,3.11,3.57c1,1.23,1.87,2.51,2.75,3.8s1.7,2.63,2.46,4a34.9,34.9,0,0,1,2.09,4.25A34.87,34.87,0,0,1,360.1,473c-1-1.23-1.87-2.51-2.75-3.8s-1.69-2.63-2.46-4A36.42,36.42,0,0,1,352.8,460.91Z"/><path d="M340.39,436.09a17.7,17.7,0,0,1,2.13,2.39,29.7,29.7,0,0,1,1.75,2.61,26.48,26.48,0,0,1,1.45,2.8,16.27,16.27,0,0,1,1.08,3,15.93,15.93,0,0,1-2.13-2.39,27.92,27.92,0,0,1-3.2-5.41A15.58,15.58,0,0,1,340.39,436.09Z"/><path d="M325.58,413.27a21.81,21.81,0,0,1,2.42,2.78c.74,1,1.41,2,2.05,3s1.23,2.1,1.76,3.2a21.79,21.79,0,0,1,1.37,3.42,21.81,21.81,0,0,1-2.42-2.78,37.41,37.41,0,0,1-3.8-6.21A20.9,20.9,0,0,1,325.58,413.27Z"/><path d="M306.76,386.44a43.11,43.11,0,0,1,3.31,3.87c1,1.33,2,2.71,2.95,4.11s1.83,2.83,2.66,4.3a40.17,40.17,0,0,1,2.29,4.54,41.42,41.42,0,0,1-3.31-3.86c-1-1.33-2-2.72-3-4.11s-1.83-2.83-2.66-4.3A40.32,40.32,0,0,1,306.76,386.44Z"/><path d="M279.93,344.41c1.75,2.09,3.36,4.26,4.92,6.47s3.07,4.45,4.55,6.71,2.9,4.56,4.26,6.9,2.7,4.69,3.89,7.14c-1.74-2.09-3.35-4.27-4.92-6.47s-3.07-4.45-4.55-6.71-2.89-4.57-4.26-6.91S281.13,346.85,279.93,344.41Z"/><path d="M266.72,510.16a12.5,12.5,0,0,1,.71,2.68,20.92,20.92,0,0,1,.21,5.4,12.52,12.52,0,0,1-.52,2.73,12.5,12.5,0,0,1-.71-2.68,19,19,0,0,1-.27-2.7,20.49,20.49,0,0,1,.07-2.71A12.52,12.52,0,0,1,266.72,510.16Z"/><path d="M266.32,491.74a5.09,5.09,0,0,1,.71,1.57,7.16,7.16,0,0,1,.28,1.59,6.72,6.72,0,0,1-.08,1.61,4.85,4.85,0,0,1-.51,1.64,5.09,5.09,0,0,1-.71-1.57,6.62,6.62,0,0,1-.27-1.59,7.27,7.27,0,0,1,.07-1.61A5.08,5.08,0,0,1,266.32,491.74Z"/><path d="M265.92,464.92a31.65,31.65,0,0,1,.81,4.37c.19,1.47.29,2.93.38,4.4s.08,2.94,0,4.41a31.75,31.75,0,0,1-.42,4.43,31.65,31.65,0,0,1-.81-4.37c-.19-1.47-.29-2.93-.37-4.4s-.09-2.94,0-4.41A31.73,31.73,0,0,1,265.92,464.92Z"/><path d="M262.72,428.08c.46,2.39.76,4.78,1,7.18s.43,4.79.57,7.19.22,4.81.23,7.22,0,4.82-.21,7.24c-.46-2.38-.76-4.78-1-7.17s-.43-4.8-.58-7.2-.21-4.81-.22-7.22S262.53,430.5,262.72,428.08Z"/><path d="M259.92,385.64c.52,2.78.89,5.57,1.21,8.37s.56,5.59.77,8.39.35,5.61.43,8.42.11,5.63,0,8.46c-.53-2.78-.9-5.57-1.21-8.37s-.56-5.59-.78-8.39-.35-5.61-.42-8.42S259.79,388.47,259.92,385.64Z"/><path d="M392,407.26a42.75,42.75,0,0,1,4.39,2.84c1.41,1,2.77,2.07,4.12,3.16s2.63,2.24,3.89,3.44a41.69,41.69,0,0,1,3.61,3.78,44.42,44.42,0,0,1-4.39-2.83c-1.42-1-2.77-2.08-4.12-3.17s-2.63-2.24-3.89-3.44A41.69,41.69,0,0,1,392,407.26Z"/><path d="M365.21,386.44a46.11,46.11,0,0,1,4.58,2.83c1.48,1,2.91,2.07,4.32,3.16s2.77,2.24,4.09,3.44a45.63,45.63,0,0,1,3.83,3.79,46,46,0,0,1-4.58-2.82c-1.48-1-2.91-2.08-4.32-3.17s-2.77-2.24-4.09-3.44A45.63,45.63,0,0,1,365.21,386.44Z"/><path d="M343.19,370.43a10.71,10.71,0,0,1,2.37,1,18.52,18.52,0,0,1,2.11,1.36,18.3,18.3,0,0,1,1.9,1.64,11.11,11.11,0,0,1,1.63,2,11.42,11.42,0,0,1-2.37-1,18.59,18.59,0,0,1-2.11-1.37,17.21,17.21,0,0,1-1.89-1.64A10.67,10.67,0,0,1,343.19,370.43Z"/><path d="M288.34,326c6.91,4.44,13.54,9.27,20.09,14.19s13,10,19.15,15.44c-6.92-4.44-13.54-9.27-20.09-14.19S294.51,331.42,288.34,326Z"/></g><g id="Middle"><path class="cls-4" d="M384.15,384.62c2.17-1,4.72-7.87-1.58-9.44s-9.44-6.3-6.29-14.17a31.89,31.89,0,0,1-1.58-7.86c0-3.15,4.73-11,0-17.31"/><path class="cls-1" d="M377.4,370.55a5.32,5.32,0,0,0,1.22,1.24,7.12,7.12,0,0,0,.81.64c.17.11.37.18.53.3l-.3-.23a1,1,0,0,1,.18.18l-.24-.3a3.17,3.17,0,0,0,.78.81,3.47,3.47,0,0,0,.73.29l-.35-.15.06,0-.3-.23,0,0a1.5,1.5,0,0,0,2.56-1.07,1.58,1.58,0,0,0-.44-1.06,1.89,1.89,0,0,0-.8-.46l-.23-.07.35.15-.1-.06.31.24a1,1,0,0,1-.14-.15l.23.31c-.13-.17-.25-.34-.38-.5a2.24,2.24,0,0,0-.51-.41c-.18-.12-.39-.19-.57-.32l.31.23c-.24-.18-.46-.38-.68-.58a4.76,4.76,0,0,1-.62-.57l.23.31L380,369a1.53,1.53,0,0,0-.89-.69,1.56,1.56,0,0,0-1.16.15,1.52,1.52,0,0,0-.69.9,1.54,1.54,0,0,0,.15,1.15Z"/><path class="cls-1" d="M376.16,365.87a4.69,4.69,0,0,1,0,.53,2.82,2.82,0,0,0,.14.86c.11.35.24.69.36,1a1.63,1.63,0,0,0,.69.9,1,1,0,0,0,.56.17,1.11,1.11,0,0,0,.6,0,1.5,1.5,0,0,0,.89-.69,1.48,1.48,0,0,0,.15-1.16l-.23-.67a4.75,4.75,0,0,1-.2-.64l.06.4c0-.24,0-.48,0-.72a1.15,1.15,0,0,0-.13-.58,1,1,0,0,0-.31-.48,1.14,1.14,0,0,0-.48-.31,1.06,1.06,0,0,0-.58-.13,1.46,1.46,0,0,0-1.06.44l-.24.3a1.54,1.54,0,0,0-.2.76Z"/><path class="cls-1" d="M376.64,363.36a2.07,2.07,0,0,0-.28,1l-.06.41-.11.82a1.11,1.11,0,0,0,.13.57,1.21,1.21,0,0,0,.31.49,1.24,1.24,0,0,0,.48.31,1.29,1.29,0,0,0,.58.13l.4-.06a1.51,1.51,0,0,0,.66-.38l.24-.31a1.5,1.5,0,0,0,.2-.75l.17-1.26-.05.39a.33.33,0,0,1,0-.17l-.15.35,0-.06a1.09,1.09,0,0,0,.18-.55,1.22,1.22,0,0,0,0-.6,1,1,0,0,0-.27-.51,1.13,1.13,0,0,0-.42-.39l-.36-.15a1.51,1.51,0,0,0-.79,0l-.36.15a1.47,1.47,0,0,0-.54.54Z"/><path class="cls-1" d="M377.09,362.48a6.51,6.51,0,0,0-.55,2,2.42,2.42,0,0,0,0,.38c0,.27,0,0,0,.13a3.61,3.61,0,0,0-.16,1.14,7.14,7.14,0,0,0,.84,3.63,9.47,9.47,0,0,0,2.65,2.51,7,7,0,0,0,.67.44l.32.16c.11.06.25.19.09,0a3,3,0,0,0,1.53,1,1.54,1.54,0,0,0,1.84-1.05,1.52,1.52,0,0,0-1.05-1.85c-.18,0-.06,0,0,.05s.1.08,0,0-.3-.28-.47-.41c-.37-.28-.79-.47-1.17-.72l-.33-.24c-.22-.15.13.11-.08-.06l-.51-.4a6.17,6.17,0,0,1-.54-.48l-.21-.22c-.17-.17,0,0-.09-.1a2.27,2.27,0,0,1-.41-1c0-.05,0-.24,0-.08,0-.11,0-.22,0-.32,0-.25,0-.5-.05-.74s.14-.83.16-1.35c0-.1,0-.2,0-.31,0,.17,0,0,0-.06l.09-.37s.13-.34,0-.15a1.5,1.5,0,0,0-2.59-1.52Z"/><path class="cls-1" d="M382.61,370.18a3.87,3.87,0,0,0-.88-.88,6.66,6.66,0,0,0-.59-.38c-.41-.25-.87-.45-1.26-.74l.3.24a2.79,2.79,0,0,1-.39-.38l.24.3a2.11,2.11,0,0,1-.31-.52l.15.35a5.33,5.33,0,0,0-.3-.75c-.08-.15-.19-.27-.26-.43l.15.36a1.16,1.16,0,0,1-.08-.32l.05.4a3.29,3.29,0,0,1,0-.83,1.52,1.52,0,0,0-.44-1.06,1.56,1.56,0,0,0-1.06-.44,1.54,1.54,0,0,0-1.06.44,1.74,1.74,0,0,0-.44,1.06,4.44,4.44,0,0,0,.05,1.26,2.25,2.25,0,0,0,.26.71c.08.15.19.28.26.43l-.15-.36a4.61,4.61,0,0,0,.5,1.11,3.94,3.94,0,0,0,1.1,1.09c.57.39,1.21.65,1.76,1.06l-.3-.24a2,2,0,0,1,.29.29l-.23-.31,0,.06a1.65,1.65,0,0,0,.89.69,1.56,1.56,0,0,0,1.16-.15,1.54,1.54,0,0,0,.54-2.06Z"/><path class="cls-1" d="M384,374.34a1.5,1.5,0,0,0,0-3,1.5,1.5,0,0,0,0,3Z"/><path class="cls-1" d="M377.07,363.47l-.19,2.18A4.22,4.22,0,0,0,377,368a4.77,4.77,0,0,0,1.63,1.49,6.65,6.65,0,0,0,.73.43,5.36,5.36,0,0,1,.79.41l-.54-.54c-.06-.12-.09-.41-.08-.1a4.43,4.43,0,0,0,.06.51,2.8,2.8,0,0,0,.33,1.05,2.65,2.65,0,0,0,2.06,1.14c-.22,0-.08,0,0,0s-.09-.08-.15-.12c.1.11.12.12.05,0a.21.21,0,0,1-.08-.17c.13.28,0-.23,0,.12a1.83,1.83,0,0,0,.56,1.24,1.71,1.71,0,0,0,.76.41l.4,0c.17,0,.14,0-.1,0l-.66-.38.07.06a1.53,1.53,0,0,0,2.12,0,1.51,1.51,0,0,0,0-2.12,2,2,0,0,0-.78-.46,1.31,1.31,0,0,0-.44-.07c-.18,0-.14,0,.09,0l.66.39-.07-.06.38.66c0,.16,0,.19,0,.08l0-.27a2.39,2.39,0,0,0-.09-.45,2.78,2.78,0,0,0-2.1-1.88l-.53-.07c.16,0,.18,0,.08,0s-.09,0,0,0,.3.28.37.42l0-.12c0,.14,0,.15,0,0a2.28,2.28,0,0,0-.91-2.07c-.4-.23-.84-.39-1.23-.63l-.32-.21-.13-.09a3.5,3.5,0,0,1-.3-.24c-.4-.36.29.15.12.47a3.29,3.29,0,0,0,.07-.84l.08-.91.16-1.82a1.51,1.51,0,0,0-1.5-1.5,1.54,1.54,0,0,0-1.5,1.5Z"/><path class="cls-1" d="M411.67,357.63a.38.38,0,0,0,0-.75.38.38,0,0,0,0,.75Z"/><path class="cls-1" d="M411.45,357.65a.38.38,0,0,0,0-.75.38.38,0,0,0,0,.75Z"/><path class="cls-1" d="M411.12,357.69a.38.38,0,0,0,0-.75.38.38,0,0,0,0,.75Z"/><path class="cls-1" d="M412.11,357.57a.38.38,0,0,0,0-.75.38.38,0,0,0,0,.75Z"/><path class="cls-1" d="M412.58,357.5a.38.38,0,0,0,0-.75.38.38,0,0,0,0,.75Z"/><path class="cls-1" d="M413.06,357.46a.38.38,0,0,0,0-.75.38.38,0,0,0,0,.75Z"/><path class="cls-1" d="M413.37,357.45a.38.38,0,0,0,0-.75.38.38,0,0,0,0,.75Z"/><path class="cls-1" d="M413.64,357.44a.38.38,0,0,0,0-.75.38.38,0,0,0,0,.75Z"/><path class="cls-1" d="M413.82,357.4a.38.38,0,0,0,0-.75.38.38,0,0,0,0,.75Z"/><path class="cls-1" d="M414.11,357.35a.38.38,0,0,0,0-.75.38.38,0,0,0,0,.75Z"/><path class="cls-1" d="M414.23,357.34a.38.38,0,0,0,0-.75.38.38,0,0,0,0,.75Z"/><path class="cls-1" d="M414.46,357.32a.38.38,0,0,0,0-.75.38.38,0,0,0,0,.75Z"/><path class="cls-1" d="M414.73,357.29a.38.38,0,0,0,0-.75.38.38,0,0,0,0,.75Z"/><path class="cls-1" d="M415,357.27a.38.38,0,0,0,0-.75.38.38,0,0,0,0,.75Z"/><path class="cls-1" d="M415.2,357.22a.38.38,0,0,0,0-.75.38.38,0,0,0,0,.75Z"/><path class="cls-1" d="M415.42,357.2a.38.38,0,0,0,0-.75.38.38,0,0,0,0,.75Z"/><path class="cls-1" d="M415.55,357.2a.38.38,0,0,0,0-.75.38.38,0,0,0,0,.75Z"/><path class="cls-1" d="M415.72,357.17a.38.38,0,0,0,0-.75.38.38,0,0,0,0,.75Z"/><path class="cls-1" d="M416,357.14a.38.38,0,0,0,0-.75.38.38,0,0,0,0,.75Z"/><path class="cls-1" d="M416,357.14a.38.38,0,0,0,0-.75.38.38,0,0,0,0,.75Z"/><path class="cls-1" d="M415.52,356.5l0,0h0l-.07,0-.17,0a1.13,1.13,0,0,1-.18,0h0l-.16,0a2.29,2.29,0,0,0-.36.07l-.19.05h-.08s-.14,0,0,0a.38.38,0,0,0-.38.38c0,.18.17.4.38.37s.57-.13.86-.17h.18l.2,0a1.69,1.69,0,0,0,.43-.15.37.37,0,0,0,.13-.51.38.38,0,0,0-.51-.14Z"/><path class="cls-1" d="M413.86,357.77l.25-.08.15,0h.05a5.67,5.67,0,0,1,.58,0h.56a1.24,1.24,0,0,0,.6-.12.37.37,0,0,0,.14-.51.38.38,0,0,0-.51-.14s0,0,0,0l-.06,0c.07,0,0,0,0,0h-.26l-.54,0a3.5,3.5,0,0,0-1.11.19.38.38,0,0,0-.26.46.38.38,0,0,0,.46.26Z"/><path class="cls-1" d="M416,357.71a.38.38,0,0,0,0-.75.38.38,0,0,0,0,.75Z"/><path class="cls-1" d="M414,358.28a6.91,6.91,0,0,0,1.2-.25h.08l.19,0a.6.6,0,0,0,.32-.15l.06,0h0c-.06,0,.06,0,0,0s.08,0,.09,0a.66.66,0,0,0,.19-.09l.06,0s-.06,0,0,0l-.19.05h0a.38.38,0,0,0,.37-.37c0-.18-.16-.4-.37-.38a.55.55,0,0,0-.37.18.18.18,0,0,1,.15-.07l-.13,0a.49.49,0,0,0-.17.06l-.16.12s0,0,0,0h-.06l-.2,0a5.09,5.09,0,0,0-.56.14l-.28.07H414a.39.39,0,0,0-.38.38.38.38,0,0,0,.38.37Z"/><path class="cls-1" d="M414.29,358.92a1.51,1.51,0,0,1,.28-.15l.14-.07.1,0,.31-.09h.09l.2,0a.67.67,0,0,0,.17-.08s.14-.07.08-.05a2.26,2.26,0,0,0,.33-.13,2.7,2.7,0,0,0,.25-.18l.14-.07.08,0h0a.39.39,0,0,0,.26-.47.38.38,0,0,0-.46-.26,2.21,2.21,0,0,0-.35.16l-.15.09-.09.07-.05,0h0l0,0-.14.05-.19.08-.06,0s-.07,0,0,0h0l-.14,0-.15,0a1.58,1.58,0,0,0-.31.09,5,5,0,0,0-.66.32.39.39,0,0,0-.14.51.4.4,0,0,0,.52.14Z"/><path class="cls-1" d="M416.49,357.42h0l-.08-.06h0l-.06-.08h0l0-.09h0l0-.1a.17.17,0,0,1,0,.07v0s0,.07,0,.1v0h0l0,.09h0l0,.05,0,0h0l.08.06h0l.09,0h0a.26.26,0,0,0,.15,0,.33.33,0,0,0,.14,0,.36.36,0,0,0,.11-.1.31.31,0,0,0,.06-.13l0-.1a.41.41,0,0,0,0-.19L417,357a.37.37,0,0,0-.17-.1h0l.08,0h0l.07.06h0l0,.08h0l0,.09a0,0,0,0,1,0,0v0s0-.09,0-.13a.11.11,0,0,1,0-.05.08.08,0,0,1,0,0l0,0,0,0-.08-.06a.23.23,0,0,0-.14,0h-.15a.47.47,0,0,0-.12.07.27.27,0,0,0-.1.11l0,.09a.61.61,0,0,0,0,.19l0,.09a.32.32,0,0,0,.14.14Z"/><path class="cls-1" d="M416.4,357.09a.38.38,0,0,0,0-.75.38.38,0,0,0,0,.75Z"/><path class="cls-1" d="M416,357.17a.25.25,0,0,0,.12,0l.12,0h0l.09,0h0l.08-.06a.21.21,0,0,0,.11-.1.23.23,0,0,0,.06-.12.26.26,0,0,0,0-.15.33.33,0,0,0,0-.14l-.06-.08a.35.35,0,0,0-.17-.09l-.1,0a.45.45,0,0,0-.19.05.41.41,0,0,1-.11.07l.09,0h.14a.26.26,0,0,0-.15,0,.39.39,0,0,0-.14.05.28.28,0,0,0-.1.09.33.33,0,0,0-.07.13v.1a.41.41,0,0,0,.05.19l.06.08a.37.37,0,0,0,.16.09Z"/><path class="cls-17" d="M416.37,356.35a.15.15,0,0,0,0-.3.15.15,0,1,0,0,.3Z"/><path class="cls-17" d="M416.3,356.36a.15.15,0,0,0,0-.3.15.15,0,0,0,0,.3Z"/><path class="cls-17" d="M416.32,356.34a.15.15,0,0,0,0-.3.15.15,0,0,0,0,.3Z"/><path class="cls-17" d="M416.11,356a.24.24,0,0,1,0,.08v0a.09.09,0,0,1,0,.06.16.16,0,0,0,0,.12.09.09,0,0,0,0,.05l0,0a.21.21,0,0,0,.11,0,.13.13,0,0,0,.09-.07.51.51,0,0,0,.07-.17.14.14,0,0,0,0-.11l0,0s0,0-.05,0a.17.17,0,0,0-.12,0,.28.28,0,0,0-.07.09Z"/><path class="cls-17" d="M416.11,356.16h.27l.05,0,0,0a.13.13,0,0,0,0-.06.15.15,0,0,0,0-.11.21.21,0,0,0-.11,0h-.27l0,0,0,.05a.13.13,0,0,0,0,.06.12.12,0,0,0,.05.1l0,0,.07,0Z"/><path class="cls-17" d="M416.11,356.38a.15.15,0,0,0,0-.3.15.15,0,1,0,0,.3Z"/><path class="cls-17" d="M416,356.39a.15.15,0,0,0,0-.3.15.15,0,0,0,0,.3Z"/><path class="cls-17" d="M415.89,356.4a.15.15,0,0,0,0-.3.15.15,0,0,0,0,.3Z"/><path class="cls-17" d="M415.94,356.39a.15.15,0,0,0,0-.3.15.15,0,1,0,0,.3Z"/><path class="cls-17" d="M415.8,356.42a.15.15,0,0,0,0-.3.15.15,0,0,0,0,.3Z"/><path class="cls-17" d="M415.69,356.43a.15.15,0,1,0,0-.3.15.15,0,0,0,0,.3Z"/><path class="cls-17" d="M416.09,356.15a.15.15,0,1,0,0-.3.15.15,0,0,0,0,.3Z"/><path class="cls-17" d="M416,356.13a.15.15,0,0,0,0-.3.15.15,0,0,0,0,.3Z"/><path class="cls-17" d="M416,356.2a.15.15,0,0,0,0-.3.15.15,0,0,0,0,.3Z"/><path class="cls-17" d="M415.5,356.45a.38.38,0,0,0,0-.75.38.38,0,0,0,0,.75Z"/><path class="cls-17" d="M415.35,356.46a.38.38,0,0,0,0-.75.38.38,0,0,0,0,.75Z"/><path class="cls-17" d="M415.17,356.49a.38.38,0,0,0,0-.75.38.38,0,0,0,0,.75Z"/><path class="cls-17" d="M415,356.52a.38.38,0,0,0,0-.75.38.38,0,0,0,0,.75Z"/><path class="cls-17" d="M414.73,356.55a.38.38,0,0,0,0-.75.38.38,0,0,0,0,.75Z"/><path class="cls-17" d="M414.58,356.55a.38.38,0,0,0,0-.75.38.38,0,0,0,0,.75Z"/><path class="cls-17" d="M414.32,356.6a.38.38,0,0,0,0-.75.38.38,0,0,0,0,.75Z"/><path class="cls-17" d="M414.08,356.62a.38.38,0,0,0,0-.75.38.38,0,0,0,0,.75Z"/><path class="cls-17" d="M413.87,356.63a.38.38,0,0,0,0-.75.38.38,0,0,0,0,.75Z"/><path class="cls-17" d="M413.69,356.67a.38.38,0,0,0,0-.75.38.38,0,0,0,0,.75Z"/><path class="cls-17" d="M413.42,356.69a.38.38,0,0,0,0-.75.38.38,0,0,0,0,.75Z"/><path class="cls-17" d="M413.23,356.7a.38.38,0,0,0,0-.75.38.38,0,0,0,0,.75Z"/><path class="cls-17" d="M413.05,356.71a.38.38,0,0,0,0-.75.38.38,0,0,0,0,.75Z"/><path class="cls-17" d="M412.78,356.8a.38.38,0,0,0,0-.75.38.38,0,0,0,0,.75Z"/><path class="cls-17" d="M411,356.92l.06,0,.09,0h.59a3.43,3.43,0,0,0,1-.14.38.38,0,0,0,.27-.46.4.4,0,0,0-.47-.26l-.24.06-.11,0h-.06a3.39,3.39,0,0,1-.45,0h-.44a2,2,0,0,0-.58.15.37.37,0,0,0-.13.51.39.39,0,0,0,.51.14Z"/><path class="cls-17" d="M411.39,356.3a12.86,12.86,0,0,0,1.52,0l.76-.05a1.53,1.53,0,0,1,.6.08.37.37,0,0,0,.2-.72,3.61,3.61,0,0,0-1.5-.07,12,12,0,0,1-1.58.05.38.38,0,1,0,0,.75Z"/><path class="cls-17" d="M411.37,356a3.39,3.39,0,0,1,1.84.12c.55.2,1.15,0,1.7.22a.37.37,0,0,0,.46-.26.38.38,0,0,0-.26-.46,2.62,2.62,0,0,0-1-.13,2.52,2.52,0,0,1-.87-.14,3.31,3.31,0,0,0-1-.16,3.83,3.83,0,0,0-1.12.09.37.37,0,0,0,.2.72Z"/><path class="cls-17" d="M415.81,356.08h0l0,0h0l.07,0h0l.07,0,.05,0H416a.13.13,0,0,0,.09-.07.14.14,0,0,0,0-.11s0-.08-.07-.09l-.06,0-.1,0a.28.28,0,0,0-.22,0,.2.2,0,0,0-.07.09.06.06,0,0,0,0,.06.07.07,0,0,0,0,.06.16.16,0,0,0,.09.07.15.15,0,0,0,.11,0Z"/><path class="cls-17" d="M415.68,356.18a.15.15,0,0,0,0-.3.15.15,0,0,0,0,.3Z"/><path class="cls-17" d="M415.43,356.41a.38.38,0,0,0,0-.75.38.38,0,0,0,0,.75Z"/><path class="cls-17" d="M415,356.24a.38.38,0,0,0,0-.75.38.38,0,0,0,0,.75Z"/><path class="cls-17" d="M414.67,356.12a.38.38,0,0,0,0-.75.38.38,0,0,0,0,.75Z"/><path class="cls-17" d="M411.26,355.35c.45.23,1,0,1.46.29a2.6,2.6,0,0,0,.72.17,5.23,5.23,0,0,1,.77.23.38.38,0,0,0,.46-.26.37.37,0,0,0-.26-.46,6,6,0,0,0-.72-.22,1.85,1.85,0,0,0-.41-.07h-.13s-.07,0-.09,0a2,2,0,0,0-.76-.21l-.4,0h-.18l-.08,0a.38.38,0,0,0-.38.65Z"/><path class="cls-17" d="M409.11,357.2a.38.38,0,0,0,0-.75.38.38,0,0,0,0,.75Z"/><path class="cls-17" d="M405.83,357.54a2.85,2.85,0,0,0,.71-.12,5.51,5.51,0,0,1,.71-.08l1.56-.15a.39.39,0,0,0,.38-.38.37.37,0,0,0-.38-.37l-1.56.15-.78.08a3.44,3.44,0,0,1-.64.12.38.38,0,0,0-.37.37.38.38,0,0,0,.37.38Z"/><path class="cls-17" d="M397.59,356.68a1.5,1.5,0,0,0,0-3,1.5,1.5,0,0,0,0,3Z"/><path class="cls-17" d="M410.17,357.07a1.5,1.5,0,0,0,0-3,1.5,1.5,0,0,0,0,3Z"/><path class="cls-17" d="M409.37,357.07a1.5,1.5,0,0,0,0-3,1.5,1.5,0,0,0,0,3Z"/><path class="cls-17" d="M406.58,356.4a1.5,1.5,0,0,0,0-3,1.5,1.5,0,0,0,0,3Z"/><path class="cls-17" d="M407,356.49a1.5,1.5,0,0,0,0-3,1.5,1.5,0,0,0,0,3Z"/><path class="cls-17" d="M408,356.91a1.5,1.5,0,0,0,0-3,1.5,1.5,0,0,0,0,3Z"/><path class="cls-17" d="M405.21,357.48a1.5,1.5,0,0,0,0-3,1.5,1.5,0,0,0,0,3Z"/><path class="cls-17" d="M404.35,357.73a1.5,1.5,0,0,0,0-3,1.5,1.5,0,0,0,0,3Z"/><path class="cls-17" d="M403.65,357.67a1.5,1.5,0,0,0,0-3,1.5,1.5,0,0,0,0,3Z"/><path class="cls-17" d="M400.88,354.8a2.59,2.59,0,0,0,1.73.75,6.47,6.47,0,0,1,1.52.28l-.36-.15a5.27,5.27,0,0,0,1.14.38,1.62,1.62,0,0,0,1.16-.15,1.51,1.51,0,0,0,.53-2.05,1.43,1.43,0,0,0-.89-.69A4,4,0,0,1,405,353l.36.15a4.82,4.82,0,0,0-.9-.32l-.68-.1a5.39,5.39,0,0,1-1.21-.22l.36.15-.17-.1.31.24-.1-.11a1.49,1.49,0,0,0-1.06-.43,1.53,1.53,0,0,0-1.06.43,1.5,1.5,0,0,0-.44,1.07l.05.39a1.47,1.47,0,0,0,.39.67Z"/><path class="cls-17" d="M398.09,354.45a3.91,3.91,0,0,0,1.63.87,9.54,9.54,0,0,1,1.19.34l-.36-.15a1.92,1.92,0,0,1,.44.25l-.31-.24a7,7,0,0,0,.95.77,6.72,6.72,0,0,1,.75.4l-.3-.23.09.08a1.5,1.5,0,0,0,2.12-2.12,3.3,3.3,0,0,0-.79-.55,3,3,0,0,1-.56-.3l.3.23a8.2,8.2,0,0,0-.85-.71,3.67,3.67,0,0,0-.95-.42c-.46-.15-.94-.21-1.38-.4l.36.15a1.87,1.87,0,0,1-.39-.22l.31.24-.13-.11a1.56,1.56,0,0,0-1.06-.44,1.5,1.5,0,0,0-1.06.44,1.52,1.52,0,0,0,0,2.12Z"/><path class="cls-17" d="M393.76,353.81l.28,0-.4-.05a1.86,1.86,0,0,1,.46.13l-.35-.15a9.69,9.69,0,0,0,1.93.83,5.3,5.3,0,0,0,1.32.08,5.31,5.31,0,0,1,.89,0l-.4-.05a1,1,0,0,1,.25.06l-.36-.15.16.1-.3-.24,0,0a1.54,1.54,0,0,0,2.12,0,1.52,1.52,0,0,0,0-2.13,2.52,2.52,0,0,0-1.87-.65,7.4,7.4,0,0,1-1.33,0l.4.06a3.13,3.13,0,0,1-.6-.16l.36.15a6.36,6.36,0,0,0-2.6-.9,1.5,1.5,0,0,0,0,3Z"/><path class="cls-17" d="M384.31,355.25c1.9-.4,3.88.24,5.78.27,1,0,2-.15,3-.16a9,9,0,0,0,3-.29,1.54,1.54,0,0,0,1.05-1.85,1.52,1.52,0,0,0-1.85-1,3.43,3.43,0,0,1-1.13.22c-.51,0-1,0-1.51,0a29.1,29.1,0,0,1-2.95.12c-2.08-.11-4.06-.58-6.15-.14a1.5,1.5,0,0,0,.8,2.89Z"/><path class="cls-17" d="M386.45,353.4c1.94.18,3.9.33,5.85.44a1.52,1.52,0,0,0,1.5-1.5,1.54,1.54,0,0,0-1.5-1.5c-1.95-.11-3.91-.26-5.85-.44a1.5,1.5,0,0,0-1.5,1.5,1.52,1.52,0,0,0,1.5,1.5Z"/><path class="cls-17" d="M380.11,353.76a4.4,4.4,0,0,0,1.8.18,7.4,7.4,0,0,0,1.66-.44c.23-.08.46-.14.69-.2h-.08l.22,0h.32a11,11,0,0,1,1.62.12,1.53,1.53,0,0,0,1.06-.44,1.56,1.56,0,0,0,.44-1.06,1.54,1.54,0,0,0-.44-1.06,1.76,1.76,0,0,0-1.06-.44,7.88,7.88,0,0,0-3.28.11c-.46.14-.89.32-1.34.45s.32,0,0,0h-.41c-.29,0,.31.08,0,0l-.39-.1a1.5,1.5,0,1,0-.8,2.89Z"/><path class="cls-17" d="M377.4,355.44h0l.75.21,0,0,.31.24,0,0,.23.3,0,0,.15.35a4.08,4.08,0,0,1-.11-.7l0,.4c0-.41-.1-.81-.14-1.22a7.46,7.46,0,0,1-.09-1.16l-.05.4v0l-.15.36,0,0-.53.54,0,0-.36.15a2.63,2.63,0,0,0,.86-.32c.26-.17.49-.39.74-.58l-.31.24a3.85,3.85,0,0,1,.71-.41l-.36.15a3.79,3.79,0,0,1,.93-.26l-.4.06a2.92,2.92,0,0,1,.59,0,1.51,1.51,0,0,0,1.5-1.5,1.53,1.53,0,0,0-1.5-1.5,4.71,4.71,0,0,0-1.78.28,5.14,5.14,0,0,0-.92.43,9.37,9.37,0,0,0-.87.65l.3-.23a1.53,1.53,0,0,1-.3.19l.36-.15a1.28,1.28,0,0,1-.28.07,1.68,1.68,0,0,0-1.27,1.72c0,.43.07.87.11,1.3s.13,1.08.21,1.61a2.09,2.09,0,0,0,.23.81,1.6,1.6,0,0,0,.59.62,1.8,1.8,0,0,0,.84.23,1.49,1.49,0,0,0,1.06-.43,1.51,1.51,0,0,0,0-2.13,1.77,1.77,0,0,0-1.06-.44Z"/><path class="cls-17" d="M403.09,357.66a16.2,16.2,0,0,0,2.37-.72,2.54,2.54,0,0,1,1.08-.27,2.23,2.23,0,0,1,1.06.12l.09-.68a2.67,2.67,0,0,1-.85.07h-1l-2,0a.38.38,0,0,0,0,.75l2.1,0H407a2.74,2.74,0,0,0,.9-.1.38.38,0,0,0,.09-.69,2.64,2.64,0,0,0-1.18-.22,3.28,3.28,0,0,0-1.32.19,9.5,9.5,0,0,1-1.26.46l-1.32.37a.37.37,0,0,0,.19.72Z"/><path class="cls-17" d="M402.23,356.77c.94,0,1.87.05,2.81-.06a11.21,11.21,0,0,1,2.77-.19.39.39,0,0,0,.46-.26.37.37,0,0,0-.26-.46,11,11,0,0,0-2.86.15c-1,.12-1.95,0-2.92.07a.38.38,0,0,0,0,.75Z"/><path class="cls-17" d="M402.06,357.93a1.5,1.5,0,0,0,0-3,1.5,1.5,0,0,0,0,3Z"/><path class="cls-17" d="M396.34,357.64h1.36c.43,0,.86,0,1.29,0l-.4,0a1.65,1.65,0,0,1,.32.07l-.36-.15a5.05,5.05,0,0,0,.71.33,2.83,2.83,0,0,0,.82.09h1.17a1.5,1.5,0,0,0,0-3,12.68,12.68,0,0,1-1.51,0l.4.05-.15-.05.36.15a3.4,3.4,0,0,0-1.16-.4,6.75,6.75,0,0,0-1,0h-1.85a1.5,1.5,0,0,0,0,3Z"/><path class="cls-17" d="M379.43,360.12a45.94,45.94,0,0,1,5.5-.17c1.63,0,3.24-.31,4.87-.38a15.65,15.65,0,0,0,2.46-.24,20,20,0,0,1,2.33-.48c1.59-.14,3.51.22,5-.57,1.69-.93.18-3.53-1.51-2.59a6.12,6.12,0,0,1-2.06.09,22.81,22.81,0,0,0-2.48.2c-.69.1-1.36.31-2,.45a16.92,16.92,0,0,1-2.36.17,38.2,38.2,0,0,1-4.53.34,36.81,36.81,0,0,0-5.14.18,1.54,1.54,0,0,0-1.5,1.5,1.51,1.51,0,0,0,1.5,1.5Z"/><path class="cls-17" d="M380.14,358.82a27.4,27.4,0,0,1,6.65-.08,11.39,11.39,0,0,0,3.14,0,7.78,7.78,0,0,1,2.65-.36,1.52,1.52,0,0,0,1.84-1.05,1.5,1.5,0,0,0-1-1.84,8.26,8.26,0,0,0-3.46.2,8.7,8.7,0,0,1-2.88,0,27.47,27.47,0,0,0-6.9.05,1.54,1.54,0,0,0-1.5,1.5c0,.73.69,1.61,1.5,1.5Z"/><path class="cls-17" d="M387,357.39a8.09,8.09,0,0,0,4.34.16c.07,0,.54-.06.22,0h.28q-.23,0-.06,0c.1,0,.09,0-.06,0l.24.1a2.77,2.77,0,0,0,.82.25,10.84,10.84,0,0,0,1.14,0h.19c-.17,0-.18,0,0,0s.57.2.27.07a1.53,1.53,0,0,0,2.05-.54,1.5,1.5,0,0,0-.54-2,5.27,5.27,0,0,0-2.47-.5h-.29a.39.39,0,0,1,.23.07l-.6-.26a3,3,0,0,0-1.26-.15c-.44,0-.86.13-1.29.2s.3,0-.14,0l-.55,0a6,6,0,0,1-1,0c.35,0-.2-.05-.26-.07a4.48,4.48,0,0,1-.52-.16,1.5,1.5,0,0,0-1.84,1.05,1.53,1.53,0,0,0,1.05,1.84Z"/><path class="cls-17" d="M380.15,356.24c.56,0,1.13,0,1.69,0l.21,0H382c.08,0,.33.06.41.07l.4.11.21.06c-.12,0-.11,0,0,0l.18.1a2.5,2.5,0,0,1,.35.21,5.32,5.32,0,0,0,1,.5,3,3,0,0,0,2.22-.11,1.68,1.68,0,0,0,.9-.69,1.51,1.51,0,0,0-1.7-2.21l-.41.16-.21.05c.22,0,.25,0,.08,0,.23,0,.26,0,.1,0s-.12,0,.08.05a1.87,1.87,0,0,1-.26-.15,8.2,8.2,0,0,0-1.68-.83,11,11,0,0,0-3.47-.34,1.5,1.5,0,0,0,0,3Z"/><path class="cls-17" d="M378,355.24v.06l.06-.4a.29.29,0,0,1,0,.09l.15-.36a.41.41,0,0,1-.05.09l.24-.31-.07.07.3-.23-.13.08.35-.15-.15,0,.4-.06h-.17l.4,0-.1,0,.36.15a.46.46,0,0,1-.15-.09l.3.24-.14-.14.23.3a2,2,0,0,1-.16-.29l.15.36a3.88,3.88,0,0,1-.14-.45,1.51,1.51,0,0,0-2.9,0,17,17,0,0,0-.35,5.18,1.58,1.58,0,0,0,.44,1.06,1.5,1.5,0,0,0,2.56-1.06,15.82,15.82,0,0,1,.06-3.44l-.05.39c.06-.45.14-.89.24-1.34h-2.9a2.61,2.61,0,0,0,1.73,2,2,2,0,0,0,2.51-1.86,1.5,1.5,0,0,0-3,0Z"/><path class="cls-1" d="M377.47,363.15A3.81,3.81,0,0,0,377,366a3.91,3.91,0,0,0,1.63,2.38s.29.23.13.09.08.08.11.11a1.31,1.31,0,0,1,.2.21c.12.12-.13-.22,0,0s.41.71.64,1a11.73,11.73,0,0,0,1.9,2,1.5,1.5,0,1,0,2.12-2.13c-.26-.23-.53-.46-.78-.7l-.41-.42-.15-.17c-.19-.21.08.13,0,0a11.4,11.4,0,0,0-1.38-2c-.2-.18-.42-.34-.62-.5l-.08-.06-.12-.1-.15-.15c-.21-.21.1.18,0,0a1.05,1.05,0,0,0-.12-.21c.05,0,.11.3,0,.09l-.06-.23c0-.16,0-.2,0,.07a3.12,3.12,0,0,0,0-.43c0-.18-.07.29,0,.12a1,1,0,0,0,.06-.23c.06-.2,0,.05,0,.09a1.48,1.48,0,0,0,.14-.25,1.51,1.51,0,0,0-.53-2.05,1.54,1.54,0,0,0-2.06.54Z"/><path class="cls-1" d="M410.67,360.05a1.5,1.5,0,0,0,0-3,1.5,1.5,0,0,0,0,3Z"/><path class="cls-1" d="M411.18,360.05a1.5,1.5,0,0,0,0-3,1.5,1.5,0,0,0,0,3Z"/><path class="cls-1" d="M408.72,360.22a1.5,1.5,0,0,0,0-3,1.5,1.5,0,0,0,0,3Z"/><path class="cls-1" d="M409.52,360.1a1.5,1.5,0,0,0,0-3,1.5,1.5,0,0,0,0,3Z"/><path class="cls-1" d="M407.66,360.44a1.5,1.5,0,0,0,0-3,1.5,1.5,0,0,0,0,3Z"/><path class="cls-1" d="M398.41,361.11a33.88,33.88,0,0,0,4.5-.28c.74-.06,1.48-.11,2.21-.1a3.56,3.56,0,0,0,2.29-.44,1.5,1.5,0,1,0-1.51-2.59c-.14.09-.13.1,0,0-.14,0-.15,0,0,0h-.3l-.88,0c-.71,0-1.43.07-2.14.13a29.23,29.23,0,0,1-4.18.25,1.5,1.5,0,0,0-1.5,1.5,1.53,1.53,0,0,0,1.5,1.5Z"/><path class="cls-1" d="M412.58,360a1.5,1.5,0,0,0,0-3,1.5,1.5,0,0,0,0,3Z"/><path class="cls-1" d="M411.26,360.65a1.5,1.5,0,0,0,0-3,1.5,1.5,0,0,0,0,3Z"/><path class="cls-1" d="M409.69,361.33a1.5,1.5,0,0,0,0-3,1.5,1.5,0,0,0,0,3Z"/><path class="cls-1" d="M408,362.13a1.5,1.5,0,0,0,0-3,1.5,1.5,0,0,0,0,3Z"/><path class="cls-1" d="M401.93,362.74c1.12-.31,2.23-.63,3.36-.92.55-.15,1.11-.28,1.67-.4l.78-.14.39-.06c-.37,0,.19,0,.25,0a1.5,1.5,0,0,0,0-3,45.05,45.05,0,0,0-7.25,1.66,1.5,1.5,0,1,0,.8,2.89Z"/><path class="cls-1" d="M391.91,361.85a3.44,3.44,0,0,0,1,.07,5,5,0,0,0,1-.18,9.18,9.18,0,0,1,1.25-.42l-.4.05a5.05,5.05,0,0,1,1.23.05l-.39-.06.53.1a1.56,1.56,0,0,0,1.16-.15,1.5,1.5,0,0,0-.36-2.74,6.74,6.74,0,0,0-2.57-.14,4.06,4.06,0,0,0-.81.27,4.49,4.49,0,0,1-1,.27l.4-.06a2.41,2.41,0,0,1-.6,0l.39.05h-.07a1.67,1.67,0,0,0-1.16.15,1.55,1.55,0,0,0-.69.9,1.57,1.57,0,0,0,.15,1.16,1.43,1.43,0,0,0,.9.68Z"/><path class="cls-1" d="M390.57,369.15a24.72,24.72,0,0,1,2.77-1,26.88,26.88,0,0,0,3.07-.87,7.19,7.19,0,0,0,2.43-1.92,10,10,0,0,1,.88-.86,2.56,2.56,0,0,1,.95-.47,1.5,1.5,0,0,0-.8-2.89,6,6,0,0,0-2.68,1.62,8.24,8.24,0,0,1-1.94,1.78c-.85.36-2,.5-2.9.78a29.77,29.77,0,0,0-3.3,1.24,1.5,1.5,0,0,0-.53,2.05,1.53,1.53,0,0,0,2.05.54Z"/><path class="cls-1" d="M386.56,372.85a24.54,24.54,0,0,0,2.75-1.15c.8-.4,1.6-.68,2.41-1.05,1.82-.85,3.43-2.06,5.33-2.75,3.78-1.38,7-3.78,10.66-5.4a1.51,1.51,0,0,0,.53-2.05,1.53,1.53,0,0,0-2.05-.54c-3.54,1.57-6.66,3.86-10.3,5.23a42,42,0,0,0-5,2.58c-.77.42-1.62.63-2.4,1a18.52,18.52,0,0,1-2.69,1.2c-1.81.63-1,3.53.8,2.89Z"/><path class="cls-1" d="M385,373.86c2.09-.59,2.62-2.95,1.72-4.74-1-2-3-3.51-4.18-5.41l-.54,2.05a5.64,5.64,0,0,1,2.17-.2c.9-.05,1.8-.12,2.69-.22a53.18,53.18,0,0,0,5.32-.89l-1.46-2.51a14.09,14.09,0,0,1-3,1.66,16.64,16.64,0,0,1-3.61,1.62h.8l-.26-.07a1.52,1.52,0,0,0-1.46,2.51c1,1.22,2.38,2.26,4.06,1.82s2.77-1.84,4-2.92a12.83,12.83,0,0,1,4.75-2.2l5.79-1.87c1.83-.59,1-3.49-.8-2.89a77.78,77.78,0,0,0-9.64,3.32,13,13,0,0,0-3.34,2.6c-.28.26-1.06,1.11-1.52,1.07s-.89-.75-1.14-1l-1.46,2.5c1.61.41,3.43-.93,4.85-1.59a19.63,19.63,0,0,0,4.14-2.39c1.25-1-.14-2.8-1.46-2.5a45.62,45.62,0,0,1-5.68.89c-1.72.15-3.65-.09-5.22.72a1.52,1.52,0,0,0-.54,2.05,35.76,35.76,0,0,0,2.86,3.64,10.83,10.83,0,0,1,1.19,1.51,1.2,1.2,0,0,1,.19.47c0,.19-.11.17,0,.13a1.5,1.5,0,0,0,.8,2.89Z"/><path class="cls-1" d="M378.26,365l.21.11c-.14-.12-.15-.12,0,0,.23.29-.12-.26.05.08,0,0,.21.44.14.27s.08.25.09.29a7.07,7.07,0,0,0,.79,1.95,4.19,4.19,0,0,0,2.07,1.49l.39.14.26.09c-.13-.05-.11,0,0,0s.27.13.4.21l.26.15c.24.17.18.09-.17-.24l-.2-.76v.13l.21-.75a4.71,4.71,0,0,0-.64,2.89,2,2,0,0,0,.88,1.53,2.11,2.11,0,0,0,.46.21c.14,0-.1-.06-.14-.09a.61.61,0,0,1-.19-.64,1.5,1.5,0,1,0,2.89.8,2.48,2.48,0,0,0-.29-1.88,2.44,2.44,0,0,0-.74-.76l-.2-.11a3.69,3.69,0,0,0-.42-.17c-.1,0-.07,0,.1,0l.54.54c.06.2.08.25.06.14s0-.07,0,0,0,.07,0-.09v-.29c0,.13,0,.15,0,0s.06-.24.1-.35c-.05.15,0,.05,0,0a3.42,3.42,0,0,0,.21-.43,1.66,1.66,0,0,0-.09-1.5c-.61-1-2-1.35-3-1.73-.11,0-.15-.08,0,0l-.3-.16c-.08-.06-.07,0,0,0l-.1-.1.07.09a1,1,0,0,1-.1-.17c0-.05-.15-.33,0-.08l-.12-.33c-.06-.2-.11-.4-.17-.6a3.9,3.9,0,0,0-1.85-2.53,1.5,1.5,0,1,0-1.51,2.59Z"/><path class="cls-1" d="M387.64,362.9c2.43,0,4.87,0,7.3,0a1.5,1.5,0,0,0,0-3c-2.43,0-4.87,0-7.3,0a1.52,1.52,0,0,0-1.5,1.5,1.54,1.54,0,0,0,1.5,1.5Z"/><path class="cls-1" d="M378.56,363.39a34.81,34.81,0,0,0,4.45-.21l4.46-.35a1.5,1.5,0,0,0,0-3l-4.46.35a34.81,34.81,0,0,1-4.45.21,1.5,1.5,0,0,0,0,3Z"/><path class="cls-1" d="M388.3,362l0,0,.24-.3a.63.63,0,0,1-.12.11l.31-.23a.83.83,0,0,1-.16.09l.36-.15a.8.8,0,0,1-.21.05l.39-.05a1,1,0,0,1-.25,0l.4.05a1.28,1.28,0,0,1-.28-.07l.36.15a1.28,1.28,0,0,1-.25-.15l.3.24-.19-.19.24.31a1.23,1.23,0,0,1-.14-.25l.15.36a1.56,1.56,0,0,1-.1-.37l.06.4a2,2,0,0,1,0-.49l-.05.4a3,3,0,0,1,.21-.77l-.15.36v0a1.69,1.69,0,0,0,.16-1.15,1.14,1.14,0,0,0-.27-.51,1.12,1.12,0,0,0-.42-.39,1.52,1.52,0,0,0-1.16-.15l-.36.15a1.55,1.55,0,0,0-.54.54c-.1.26-.22.51-.3.78a4.66,4.66,0,0,0-.13.82,3.05,3.05,0,0,0,.31,1.6,1,1,0,0,0,.1.17,3.5,3.5,0,0,0,.33.43,2.88,2.88,0,0,0,.27.22,3.21,3.21,0,0,0,.3.21,2.54,2.54,0,0,0,2.42.05,2.18,2.18,0,0,0,.78-.76,1.12,1.12,0,0,0,.18-.56,1.22,1.22,0,0,0,0-.6,1.26,1.26,0,0,0-.27-.51,1,1,0,0,0-.42-.38,1.46,1.46,0,0,0-1.15-.15l-.36.15a1.4,1.4,0,0,0-.54.54Z"/><path class="cls-1" d="M382.85,370.1a1.5,1.5,0,0,0,0-3,1.5,1.5,0,0,0,0,3Z"/><line class="cls-18" x1="382.82" y1="375.11" x2="418.23" y2="357.01"/><path d="M382.82,375.11c5.62-3.57,11.46-6.71,17.35-9.75S412,359.47,418.23,357c-5.62,3.57-11.46,6.72-17.35,9.75S389,372.64,382.82,375.11Z"/><path d="M417.44,356.23c-3.25.41-6.58.84-9.9,1.31L397.4,359c-6.82,1-13.82,1.94-20.75,2.75l-.62.07-.2-.57a28.48,28.48,0,0,1-1.65-6.49,5.3,5.3,0,0,1,.12-1.91,2.37,2.37,0,0,1,.26-.57,1.89,1.89,0,0,1,.23-.28,1.48,1.48,0,0,1,.19-.18,6.44,6.44,0,0,1,.74-.55,10.49,10.49,0,0,1,3.25-1.3,26.29,26.29,0,0,1,6.65-.53,59.26,59.26,0,0,1,6.54.56,130.48,130.48,0,0,1,12.8,2.54C409.17,353.6,413.35,354.79,417.44,356.23Zm0,0c-4.2-1.07-8.42-2.07-12.66-2.91s-8.5-1.61-12.78-2.06-8.63-.72-12.68.18a8.92,8.92,0,0,0-2.75,1.11,4.81,4.81,0,0,0-.56.42l-.11.1s0,0,0,0a.73.73,0,0,0-.07.17,4,4,0,0,0-.06,1.32,28.64,28.64,0,0,0,1.54,6.09l-.82-.51c6.7-.76,13.32-1.4,20.13-2l10.3-.92C410.4,357,413.88,356.6,417.44,356.23Z"/></g><g id="Top"><path d="M426.88,392.42a24.31,24.31,0,0,0,3.62-10.07,17.89,17.89,0,0,0-.16-5.27,14.33,14.33,0,0,0-.74-2.52l-.49-1.22c-.19-.39-.43-.76-.64-1.14a12.85,12.85,0,0,0-.68-1.12l-.81-1c-.51-.7-1.12-1.38-1.72-2.06-1.19-1.36-2.39-2.73-3.56-4.12a40.55,40.55,0,0,1-6.1-9.22,29.35,29.35,0,0,1-2.3-10.85c-.05-1.85,0-3.68.12-5.51l.46-5.41a45.33,45.33,0,0,0-.48-10.73,27.64,27.64,0,0,0-1.32-5.21,17,17,0,0,0-2.51-4.77,15.69,15.69,0,0,1,2.9,4.61,29.72,29.72,0,0,1,1.69,5.22,45.6,45.6,0,0,1,.93,10.93c-.08,1.84-.17,3.66-.29,5.44s-.1,3.58,0,5.36A28.1,28.1,0,0,0,417,354a39.74,39.74,0,0,0,5.8,8.91q1.71,2.1,3.47,4.18c.58.69,1.17,1.37,1.71,2.15l.82,1.14c.27.39.45.83.68,1.23s.45.83.64,1.26l.48,1.32a17.18,17.18,0,0,1,.68,2.72,18.43,18.43,0,0,1-.06,5.55,22.25,22.25,0,0,1-1.61,5.26A22.6,22.6,0,0,1,426.88,392.42Z"/></g></svg>