<svg xmlns="http://www.w3.org/2000/svg" xmlns:xlink="http://www.w3.org/1999/xlink" viewBox="0 0 1222.31 792"><defs><style>.cls-1,.cls-3{fill:none;}.cls-2{fill:#f2936a;}.cls-14,.cls-15,.cls-16,.cls-17,.cls-19,.cls-22,.cls-23,.cls-24,.cls-25,.cls-26,.cls-3,.cls-5,.cls-7,.cls-8,.cls-9{stroke:#231f20;stroke-miterlimit:10;}.cls-22,.cls-4{fill:#f3ddc5;}.cls-10,.cls-5{fill:#231f20;}.cls-6,.cls-8{fill:#f8f7cd;}.cls-7{fill:#eee810;}.cls-9{fill:#e5d4c3;}.cls-11{fill:#ddc6ac;}.cls-12,.cls-26{fill:#f0dabf;}.cls-13{fill:#361800;}.cls-14{fill:#9a3d3d;}.cls-15{fill:#8f3936;}.cls-16,.cls-27{fill:#fff;}.cls-17{fill:#7d4e1c;}.cls-18{fill:#5c3708;}.cls-19{fill:#f9a460;}.cls-20{fill:#472700;}.cls-21{clip-path:url(#clip-path);}.cls-23{fill:#efdbbf;}.cls-24{fill:#fefffe;}.cls-25{fill:#d6a6ae;}.cls-28{fill:#a76529;}</style><clipPath id="clip-path"><rect class="cls-1" x="-67.1" y="-171.77" width="748.68" height="962.88"/></clipPath></defs><title>TZ and GTA</title><g id="Background"><rect class="cls-2" x="-97.97" y="-31.72" width="1452.15" height="849.88"/></g><g id="Layer_3" data-name="Layer 3"><ellipse class="cls-3" cx="987.41" cy="744.72" rx="9.48" ry="11.93"/><polyline class="cls-3" points="981.8 744.21 981.8 748.29 993.12 748.39 993.12 744.32"/><path class="cls-4" d="M853.46,351.12,971.92,518l.81-175.35-15.9,20s-15.5,24.05-30.59,27.32-37.51-7.34-37.51-7.34Z"/><path class="cls-5" d="M957.24,477.63s5.3-38.74,6.11-40.78,5.3-30.58,5.3-30.58l2.45-19.17-1.22-39.55-1-14.34.26-12.47,20.27,26.4,50.16,25.28,59.94,33.85s14.27,6.52,20.39,22,33.44,116.62,33.44,116.62l34.25,115,8.16,27.32s4.48,15.9-6.12,28.95l15.9,95.83L974,831.06l-.4-66.76-1.23-79.11L960.5,544.1Z"/><path class="cls-6" d="M964.78,467.94l46.79-44.34.31-4,16.51,7.34,1.23-2.14s1.35-13.36.61-17.74c-.84-4.95-5.81-15-8.87-18s-22-28.75-22-28.75l32.42,14.07s47.4,21.71,55.66,27.83,22.63,9.17,35.78,51.69,19.88,75.23,19.88,75.23l24.16,83.19,23.24,74s5.82,6.42,3.06,13.76-4.28,9.79-4.28,9.79-19.88-11.32-32.11-12.24-21.72-1.22-21.72-1.22,0-10.7,3.37-16.51l20.8,5.5s-15.3-7.34-15.3-8.26-.3-4.58-.3-4.58L1132.68,664l28.75,4.28-41-19.57L1111.27,579l-2.14-22.32,1.53-21.11s4.59-33,5.51-38.53-.31-16.82-1.53-20.8-18.66-52-18.66-52l16.21,58.11s1.84,22.32,0,31.8l-4.28,17.44-14.07-67,8.26,65.14,3.36,15.6.61,15.6,4.9,40.37,6.73,54.13,2.14,19,2.75,18L1125,717.2s8.25,83.19,4.58,88.08-152.91-3.37-152.91-3.37L974,788.46v-30l-2.75-85.64-8-103.37-4-50.47,1.23-48.33Z"/><path class="cls-5" d="M845.68,308.06l-13.63,12.47-20.49,21.72-99.4,30.89-24.77,7.34S666,398.21,662.31,408.92s-22.63,102.76-22.63,102.76L633.87,630l-.31,19-4.28,13.45s-.94,12.21-.31,16.21c.19,1.16,1.21,3.46.92,4.59-.79,3.13-6.48,7.79-6.73,11C622.56,702,635.09,723,635.09,723s17.13,28.44,26.91,33.34,56.89-2.15,56.89-2.15L718,771.33a60.46,60.46,0,0,0-.92,23.86c2.15,13.15,259.66,6.72,259.66,6.72l-4.9-137.62-7-77.07-4.89-73.71-.31-19.26-4-2.15-58.72-78.9-43.42-62.08Z"/><path class="cls-6" d="M810.59,347.18,751.9,363.71s-60.54,15.71-63.59,19.38-17.13,21.41-20.19,30.58-20.18,97.87-20.18,97.87l-4.29,41.59-5.5,90.53s-3.83,6.68-4.28,9.17c-.68,3.78,1.22,15.3,1.22,15.3s4.28,3,6.73-8l6.73-6.11L640.6,671.8s-7.69,12.41-8,17.12c-.32,5.8,7.34,22,7.34,22S656.2,742.25,666.29,747c7.47,3.54,33-1.83,33-1.83s-32.42-17.13-34.26-22.64-2.44,9.18-2.44,9.18l11.62,4.89S659,737.25,658.33,725l9.79-30s18.35-26.91,41.59-41.59l43.43,5.5s2.45-8.56.61-9.79c-.91-.61-2.9-6-4.66-11.16s-3.29-10.24-3.29-10.24l6.73,6.11.61-9.17-56.27-44.65,55,34.86L746.41,517l.62-24.46-12.85-30,18.35,31.8-1.22,22L758,597.78l-3.47,10s-1.22,10.6.41,13.86,1.22,12.64,1.22,12.64a23.07,23.07,0,0,0-.41,10.6c1.23,5.3,1.23,14.68,1.23,14.68s4.07,2.86,4.48-1.22-.41-11.42,1.23-16.72a124.9,124.9,0,0,1,5.3-13l-2-9s-2.45-7.34-2.45-11-1.63-8.56,1.63-9,11-1.63,14.27.41,11.83,10.19,12.24,14.68S794.12,631,794.12,631l12.24,13.46,20,25.28,4.48,1.22,27.33.41s27.32-3.67,32.21-3.67,21.61-2,24.87,11.42c0,0,2.45,6.52-1.22,8.15s-42,11.83-42,11.83,7.75,1.63,9,1.63,35.07-4.89,35.07-4.89,22.43-5.31,24.87-4.49,6.53-1.63,8.57,8.56-2.86,14.68-6.53,16.31l-3.67,1.64s3.67,4.48,4.08,7.34,4.08,6.11-16.72,16.71l-9,5.31-14.27,13-43.23,9s-12.23,4.89-15.49.81l-26.51.41-48.93-11.83-42-5.3s-5.3,6.53-5.3,28.55v59.82l246.3-22.83,3.67-23.54-1.23-103.16-4.08-64.84s-11.41-108.06-9.37-127.23L903.82,472l-36.7-24.88,8.15-21.2-5.71-.41-38.33,13.05L821,414.9s-8.63-22.06-10.2-29.77C809,375.83,808.71,354.91,810.59,347.18Z"/><path class="cls-4" d="M1137.47,714.14l4.9,99.09,58.31-11.83-6.93-30.58-13-59.53s-7.75-8.16-12.64-8.57S1137.47,714.14,1137.47,714.14Z"/><ellipse class="cls-3" cx="973.85" cy="535.53" rx="9.48" ry="11.93"/><ellipse class="cls-3" cx="984.35" cy="642.57" rx="9.48" ry="11.93"/><polyline class="cls-3" points="967.94 534 967.94 538.08 979.26 538.18 979.26 534.11"/><polyline class="cls-3" points="978.95 641.45 978.95 645.53 990.27 645.63 990.27 641.55"/><polygon class="cls-7" points="970.28 375.89 928.08 415.65 877.09 386.71 883.43 397.3 925.63 422.38 925.63 431.55 929.91 430.94 930.53 421.15 971.1 387.1 970.28 375.89"/><polygon class="cls-7" points="923.19 426.05 932.36 426.05 932.67 439.2 944.29 439.2 944.29 447.45 935.11 447.76 935.11 465.8 925.63 452.65 923.92 448.37 921.04 448.37 915.85 439.81 923.49 439.81 923.19 426.05"/><polyline class="cls-3" points="984.56 738.59 984.56 743.18 995.87 743.3 995.87 738.71"/><ellipse class="cls-3" cx="990.14" cy="738.91" rx="9.48" ry="11.93"/><path class="cls-4" d="M890.36,385.63a221.46,221.46,0,0,1,28.07,14.67,11.23,11.23,0,0,1,3.83,3.3,8,8,0,0,0,1.6,2.38"/><path class="cls-4" d="M924.13,405.89a7.76,7.76,0,0,1,4.4-4.46l-1.7,2.44a43.47,43.47,0,0,1,12-12.05l-6.17,6a60.94,60.94,0,0,0,7.16-7.48c1.84-2.4,3.56-5.26,6.45-6.16a12.18,12.18,0,0,1-4.67,5,42.49,42.49,0,0,0,7-8c.93-1.38,2-3,3.63-3.21a4.93,4.93,0,0,0-2.1,3.33c3.3-2.35,3.9-7.81,7.76-9.06a4.54,4.54,0,0,0-1.94,2.85l8.14-10.63a4.4,4.4,0,0,1-1.43,2.82,23.22,23.22,0,0,1,4-5.9l-1.66,3.74a3.49,3.49,0,0,1-.71,1.19,3.7,3.7,0,0,1-1.6.75L949.9,370.6"/><path class="cls-4" d="M765.68,608.93s-1.22-5.5,1.53-5.81,9.15-.19,11.93.92c3.17,1.27,8.87,6.42,8.87,10.4s2.8,16.15,5.5,20.79c2.92,5,11.9,12.67,15.6,17.13,3.49,4.21,11.93,18.35,11.93,18.35l-17.54,1.37-2,.16,5.82,1.84,53.52-.31S872.93,671.53,877,671c6.75-.85,20.55-1.67,27.21-.31,4.22.87,10.4,4.59,9.49,14.38,0,0-16.21,4-18.35,5.81s-56.89,15-56.89,15l-25.38,2.75.91,4,21.41-.92,39.15-1.22,9.17-6.12,48-9.17s10.13-1.62,13.15-.31c2.68,1.17,4.89,5.51,4,11s-4,8-4,8-8.1,2.58-12.71,4.07h0c-2,.65-3.52,1.18-4.11,1.44-2.14.92-51.69,12.54-51.69,12.54l-18.65,1.83-23.55,3.67,28.44-.3,38.84-8.57,19.27-5.5s11.45-5.11,16.82-2.13c4.16,2.31,5.81,4.34,3.06,9.47-3.28,6.11-35.78,18-35.78,18l-68.51,8-15.6-10.1-1.22,3.37,7,6.42s-12,1.63-15.59,0c-7.89-3.62-22.64-26.3-22.64-26.3l.62-5.2,4.89,4.28s0-6.42,1.22-7-5.5-9.49-5.5-9.49.6-10.39-2.45-12.84c-1.74-1.4-7.65-1.53-7.65-1.53l7,23.55s-6.73,7.65-9.79,6.42-8.56-11.62-9.17-20.79-1.84-18.05-1.84-18.05l-.92,12.54s-1.52,3.06-1.22,8.87,9.18,24.47,9.18,24.47l-7-6.73h-10.4l2.76,15s-5.81-4.28-13.46-16.82l-7.34-8-.61-7.95L722,712l-36.4-23.55-2.44-4.89s9.17-14.68,15-18,11-8,14.68-8,22.63.61,26.92,1.84,20.79,8,20.79,8l2.14,11,.92-18.05,2.45-4,1.83-19.58,1.84-2.14s3.36,1.53,2.44,9.79c0,0,5.2,4.28,9.79,4l4.59-.31S767.82,628.51,765.68,608.93Z"/><path class="cls-8" d="M836.92,318.26s-16.34,16-19.25,21.54c-3.2,6-4.89,26.91-4.89,26.91s-.22,13.16.61,17.44c2.65,13.58,19,52,19,52l31.2-10.4,13.76-1.53-7,22,87.77,55-1.22-6.12-36.4-45.57L857.74,367s-12.85-20.19-13.15-22.63-3-16.62-2.5-22.18C842.22,320.59,845.77,309.1,836.92,318.26Z"/><path class="cls-9" d="M892.91,679c1.23-2.46,12.23-3.06,12.23-3.06l4,8.26-12.54,4.59S890.16,684.47,892.91,679Z"/><path class="cls-9" d="M929.3,704.05l14.07-3.37,3.06,10.71-11.2,5.51S929.61,712.92,929.3,704.05Z"/><path class="cls-9" d="M919.52,728.82l13.15-4.89,4.89,7.64-13.15,7S918.29,734.63,919.52,728.82Z"/><path class="cls-8" d="M974,340.41s1.84,34.25,0,48.32-11,56.89-11,58.72-1.83,20.19-1.83,20.19l16.51-16.21,19.27-17.74,11.62-13.15-19.57-10.4s19,5.81,19.88,6.12,18.66,7.64,18.66,7.64l.3-16.21s-2.14-9.78-9.48-16.82l-43.95-59.76Z"/><path class="cls-10" d="M825.36,193.29s-3.34-1.2-4.27.8-2,11.88-.67,15.08,6.81,6.41,6.54,2.54S825.36,193.29,825.36,193.29Z"/><path class="cls-11" d="M834.86,207.28a1.66,1.66,0,0,0,.14-1.05c-.51-2.69-2.8-14.79-3.49-19.19-.78-5-11.64-2.74-13.36-.56-4.4,5.61-1.44,21.11-.37,25.42s7.25,20.67,10.38,25.43,12.48,11.58,15.65,12.27c1.43.31,1.58.47,1.31.56a1.14,1.14,0,0,1-1.43-1l-2.33-18-1.71-11a2.1,2.1,0,0,0-.23-.65L832,207s-6-11.25-6.64-11.36-2.34.86-2.51,5.72a31.61,31.61,0,0,0,.9,8.65,43.3,43.3,0,0,1-1.44-4.69c-.18-.73-.35-1.5-.48-2.27a10.8,10.8,0,0,1,.13-5.21,16.67,16.67,0,0,1,1.61-3.24,1.92,1.92,0,0,0-1.57-2.92h-.07s2.38-1.86,4.44,3.36a2.21,2.21,0,0,0,.18.34l8.15,12.33Z"/><path class="cls-5" d="M829.63,212.64s-4.54,7.47-2.4,10.41a14.89,14.89,0,0,0,4.81,4.27s2.13-8.54.8-11.21A7.35,7.35,0,0,0,829.63,212.64Z"/><path class="cls-5" d="M991.13,186.88s10.41-5.61,9.21,5.21-2.8,24.82-6,26.82-20.42,16.82-18.82,13.62,4.81-34,4.81-34Z"/><path class="cls-11" d="M986.81,198.73V188.62s4.46-6,9.39-4.7,6.46,1.93,6.62,9.15a56.79,56.79,0,0,1-4.47,21.8c-2.46,5.42-8.62,19.39-11.54,22.28s-13.56,8.72-13.56,8.72l2.1-14.73S987,219,988.19,216s2.77-5.54-.77-9.51c0,0-2.15-1.06,1.54-6.43a70.53,70.53,0,0,1,4.31-6s2.47.36,2.77,7.58l-.3,6.63s1.84-5.16,1.54-8.24a43,43,0,0,0-2.31-8.26s2-3.33,4.62-3.49c0,0-3.08-1.93-7.93,5.05S986.81,198.73,986.81,198.73Z"/><path class="cls-12" d="M843.78,270s1.1,50.53,4,67.08c1.76,10,6.64,22.42,23.25,33.23s25.69,20.41,32.49,28.62c0,0,46-10.78,57.59-23s7.6-30.85,9.2-51.48,4.3-83.18,4.3-83.18Z"/><path class="cls-5" d="M843.78,268.75S852.12,287,858,291.26s15.34,15.9,29.43,19.54c13.48,3.48,35.72,3.73,42.24-1s29.17-28.52,28.37-28.52S843.78,268.75,843.78,268.75Z"/><path class="cls-13" d="M814.82,125.62s4.4-27.63,28-45.25,43.24-32.83,76.07-26.83S975.77,80.77,984,90.78s20,50.12,12.78,89.2c0,0-8.42,19.46-12.78,34.37s-12.6,29.52-19,34.46-120.57-.1-120.57-.1l-4-13.38s-10.81,3.6-14-33.23c0,0-12.81-17.22-14.42-30.84S808.41,151.24,814.82,125.62Z"/><path class="cls-12" d="M843.38,270.56c-2.79-6.82-4-16-4-29.22s-5.21-40.45-5.21-40.45-.8-30.83,2-42,2.41-40.84,16-46.85,18.42-10,37.24-8.41,19,3.39,44.44,6c23.77,2.45,39.51,30.05,39.64,63.67,0,4,3.54,11.75,3.61,15.81.17,9.9-5.77,21.51-3.61,39.44a13,13,0,0,0,2,4c.86,1.25-2.55,29.59-5.2,37.63-7.21,13.89-4.27,14.69-30.63,31.94-11.78,9.41-17.62,12.68-52.26,4.67C873.24,303.49,847.78,281.31,843.38,270.56Z"/><path class="cls-13" d="M839.78,127a8.84,8.84,0,0,0,6.14.27c3.47-1.07-1.56,1.27,4.58-5.94s12-6.73,16.5-4.86,13.62-1,23.23-2.34,12.33-1.61,24.11.55c10.24,1.88,10.26,4.3,15.86,3.77s9.54,4,12.74,8.31,1.1,9.53,10.18,11.67,7.51,7.56,11.91,22.05c4.35,14.33,12.16,20.34,17.27,24.12,6.15,4.55,2.69-77.62-28-81.36S846.45,84,840.58,106.13,839.78,127,839.78,127Z"/><path class="cls-5" d="M883.62,256.25c-4.76.27-9.94,4.09-10.48,5.87s0,2,4.79,2h16.84c6.14,0,30.66-.37,34.4-1.3a27.17,27.17,0,0,0,9.37-4.84c1.07-1.07-.8-1.38-11.47-2.82S883.62,256.25,883.62,256.25Z"/><path class="cls-10" d="M899,205.38c5.88-2.67-7.36,2.22-9.22,5.43s-12.82,12.11-11.54,19.85,14.56,3.5,17,3.77,5.63-.16,9.68-5S899,205.38,899,205.38Z"/><path class="cls-14" d="M878.44,258.29s8.55-5.54,12.82-8,5.86-2.36,10.93,0c0,0,1.07,1,5.61-1.5s20,4.67,23.49,6.54-.29,3-1.07,2.94c-3,0-3.87-1.05-12.66-.64-5.45.25-5.62-.41-7.32.7-4.49,2.91-7.3.68-13.92,0-4-.41-10.41,2.87-15.48,3.67S878.44,258.29,878.44,258.29Z"/><path class="cls-15" d="M884.72,261.48c-1.14.31-4.8,1.34-4.26,3.48s10.67,7.47,21.75,6.67,21.89-3.07,27-7.07c2.34-1.82,4.77-4.44,3.7-4.71s-17.73-1.09-26.14.4C897.64,261.88,898.13,257.76,884.72,261.48Z"/><path class="cls-13" d="M884.89,169.93c-.8-.27-20.82-7.48-27.23-7.21s-16.28,6.41-17.88,11.21,0,4.54,0,4.54,4.8-6.14,8-6.41,9.61-2.4,17.89-.26,21.62,3.47,22.69,1.6S884.89,169.93,884.89,169.93Z"/><path class="cls-13" d="M924.09,166.17c2.08-.29,20.23-7.82,24.38-6.37s15.82,2.9,19.19,13.62-4.67-3.19-10.89-4.93-32.68,4.93-32.68,4.93-8,2.6-8.29,0S924.09,166.17,924.09,166.17Z"/><path class="cls-5" d="M863,186.28c-2.8,0-9.61,4.9-10,5.46s4.6.53,10.41,1.69,17,.62,19.82.06,4.73-2.19,3.8-3c-6.87-5.79-9.81-4.85-15.41-4.25A31.53,31.53,0,0,1,863,186.28Z"/><path class="cls-16" d="M883.22,189.52c-.2-.67-13.37-11-25.23,0a14.44,14.44,0,0,0,12.38,5C878.62,193.89,880.41,192.54,883.22,189.52Z"/><path class="cls-5" d="M930.4,183.28a26.23,26.23,0,0,0-7.74,4.13c-1.47,1.06-4.72,4.64,1.28,4.1s12.81.72,16.58-.37c6.25-1.82,10.3-3,11.64-2.93s-3.43-3.29-4.27-3.82c-4.76-3-11-1.44-16.39-1.44"/><path class="cls-16" d="M933.21,182.14s-5.94,2.61-7.15,4.58,6,4.76,11,5,10.81-4.77,10.81-4.77S945.57,180.6,933.21,182.14Z"/><path class="cls-17" d="M877.74,186.28a16.39,16.39,0,0,0-14.74,0s-.88,9,7.37,8.21S877.06,188.28,877.74,186.28Z"/><path class="cls-10" d="M885.69,191.28c2.06,1.43-5.94-9.27-16.24-7.69a30.92,30.92,0,0,0-15.66,7.83.18.18,0,0,0,.21.28C858.47,189,870.17,180.51,885.69,191.28Z"/><path class="cls-17" d="M944.44,183.48c-.22-.47-8.46-5.13-14.76,1,0,0-.85,8,7.4,7.19S943.76,185.48,944.44,183.48Z"/><circle class="cls-5" cx="870.35" cy="189.52" r="2.08"/><circle class="cls-5" cx="937.06" cy="186.72" r="2.08"/><path class="cls-12" d="M910.45,196.49c.8,12.61,11,21.51,11,21.51,11.75,11.95,1.42,16.37-2.77,16.53-14.57.55-27.86.8-27.86.8-20.48-1.4-5.21-17.33-5.21-17.33a34.18,34.18,0,0,0,10-21.11"/><path class="cls-10" d="M895,227.72s-6-3.6-8-2.4-4.15,6.06,1.33,5.83S894.83,230.32,895,227.72Z"/><path class="cls-10" d="M905.89,228.12s5.15-3.49,8.36-3.05,6.81,2.44,6.61,3.05-3,2.06-6.61,1.83S905.54,230.51,905.89,228.12Z"/><path class="cls-12" d="M970.31,270.16C964.24,284.58,964.9,283,940.48,303c-12.79,7.11-13,12.9-47.58,4.89"/><path class="cls-10" d="M924.23,221.19s2.44,1.36,1.7,6.13c-1.1,7.13-8.76,9.14-20,7.64C905.89,235,930,234.69,924.23,221.19Z"/><path class="cls-5" d="M919.27,184.5c-1,.76,8.8-6.63,15-7.23s18.42,1.35,22,5.68C956.29,183,934.3,173.51,919.27,184.5Z"/><path class="cls-18" d="M899.74,104.24c-.74,4.33,1.48-22,7.77-31.25s21.56-17,21.56-17S904,79.3,899.74,104.24Z"/><path class="cls-18" d="M920.08,107c-1.14,3.78,3.78-19.49,10.39-27s21-12.78,21-12.78S926.7,85.18,920.08,107Z"/><path class="cls-18" d="M937.48,81.94c6.61-7.54,21-12.78,21-12.78s-24.8,18-31.41,39.82"/><path class="cls-18" d="M943.08,110.85c-.94,3.14,3.08-16.19,8.48-22.46s17.15-10.62,17.15-10.62S948.47,92.74,943.08,110.85Z"/><path class="cls-18" d="M948.28,114.06c-.93,3.14,3.08-16.2,8.48-22.47S973.91,81,973.91,81,953.68,96,948.28,114.06Z"/><path class="cls-18" d="M952.12,116.29c-1.21,2.87,4.87-15,10.07-20.33s15.12-8,15.12-8S959.1,99.72,952.12,116.29Z"/><path class="cls-18" d="M982.3,92.54s-19.15,10.11-27.55,26"/><path class="cls-18" d="M959,122.56c-1.46,2.76,6.16-14.56,11.79-19.38s15.76-6.64,15.76-6.64S967.35,106.65,959,122.56Z"/><path class="cls-18" d="M989.31,100.55s-19.15,10.11-27.55,26"/><path class="cls-18" d="M964,129.94c-1.41,2.38,6.21-12.64,11.24-16.68S988.71,108,988.71,108,972.11,116.2,964,129.94Z"/><path class="cls-18" d="M967.5,138.14c-1.67,2.22,7.57-11.86,13-15.33s14-3.7,14-3.7S977.14,125.4,967.5,138.14Z"/><path class="cls-18" d="M971.08,146.91c-1.79,1.92,8.46-10.39,13.6-13.23S997,131.11,997,131.11,981.41,135.84,971.08,146.91Z"/><path class="cls-18" d="M996.34,136.63s-14.38,4.73-24.08,15.29"/><path class="cls-18" d="M973.27,155.32c-1.69,1.84,8-9.88,12.74-12.64S997.34,140,997.34,140,983,144.76,973.27,155.32Z"/><path class="cls-18" d="M973.87,159.33c-1.69,1.83,8-9.89,12.75-12.65S997.94,144,997.94,144,983.56,148.77,973.87,159.33Z"/><path class="cls-18" d="M997.94,150.07s-14.38,4.73-24.07,15.29"/><path class="cls-18" d="M973.16,169.65c-1.85,1.66,8.86-9.11,13.87-11.41s11.52-1.58,11.52-1.58S983.8,160,973.16,169.65Z"/><path class="cls-18" d="M974.11,173.85c-1.68,1.53,8.08-8.34,12.64-10.47s10.44-1.52,10.44-1.52S983.81,165,974.11,173.85Z"/><path class="cls-18" d="M970.06,142.6c-1.65,2,7.71-11,12.63-14.17S994.75,125,994.75,125,979.58,130.82,970.06,142.6Z"/><path class="cls-18" d="M935.67,108.45c-.94,3.14,3.08-16.19,8.48-22.46S961.3,75.37,961.3,75.37,941.06,90.34,935.67,108.45Z"/><path class="cls-18" d="M896.48,102.24c-.36,4.22,0-21.46,4.41-30.43s15.76-16.46,15.76-16.46S898.53,77.94,896.48,102.24Z"/><path class="cls-18" d="M892.58,102.51c0,4.23-2.06-21.36,1.43-30.72S908.1,53.87,908.1,53.87,892.26,78.12,892.58,102.51Z"/><path class="cls-18" d="M886.37,102.11c.06,4.23-2.06-21.36,1.43-30.72s14.09-17.92,14.09-17.92S886.05,77.72,886.37,102.11Z"/><path class="cls-18" d="M871.55,102.92c.09,4.12-2.11-20.78,1.11-29.85s13.16-17.32,13.16-17.32S871.06,79.2,871.55,102.92Z"/><path class="cls-18" d="M856.78,108.39c.22,4-2.5-20.14-.14-28.78S867,63.35,867,63.35,855.53,85.48,856.78,108.39Z"/><path class="cls-18" d="M851,111.43c.31,3.65-2.68-18.53-1.12-26.35s7.55-14.52,7.55-14.52S849.17,90.41,851,111.43Z"/><path class="cls-18" d="M847.33,113.38c.59,3.22-3.82-16.29-3.37-23.23a30.26,30.26,0,0,1,4.43-13S844,94.87,847.33,113.38Z"/><path class="cls-18" d="M843.4,118.57c.85,3.16-5.14-15.92-5.27-22.88a30.31,30.31,0,0,1,3.35-13.3S838.51,100.4,843.4,118.57Z"/><path class="cls-18" d="M840.28,124.15c1,3.11-5.91-15.66-6.37-22.6a30.32,30.32,0,0,1,2.7-13.45S834.52,106.23,840.28,124.15Z"/><path class="cls-18" d="M840.16,129.92c1.55,2.86-8.71-14.3-10.45-21a30.25,30.25,0,0,1,.16-13.71S831.17,113.37,840.16,129.92Z"/><path class="cls-18" d="M839.37,133.73c1.83,2.48-9.94-12.26-12.46-18.29a28.31,28.31,0,0,1-1.75-12.65S828.87,119.43,839.37,133.73Z"/><path class="cls-18" d="M838.07,138.28c1.94,2.23-10.53-10.91-13.43-16.48a27.31,27.31,0,0,1-2.68-12S826.84,125.45,838.07,138.28Z"/><path class="cls-18" d="M837.76,142.75c2.12,1.91-11.33-9.3-14.81-14.19a26.22,26.22,0,0,1-4.2-10.75A91.45,91.45,0,0,0,837.76,142.75Z"/><path class="cls-18" d="M836.35,159.87c2.42,1.46-12.72-6.87-17-11.1a26,26,0,0,1-5.91-10.15S822.44,151.46,836.35,159.87Z"/><path class="cls-18" d="M834.4,163c2.11,1-11-4.48-14.95-7.35a21.33,21.33,0,0,1-5.93-7A78,78,0,0,0,834.4,163Z"/><path class="cls-18" d="M833.71,166.64c2.11,1-11-4.48-15-7.34a21.43,21.43,0,0,1-5.93-7A78.09,78.09,0,0,0,833.71,166.64Z"/><path class="cls-18" d="M836.49,146.8c2.2,1.77-11.72-8.48-15.37-13.22a26,26,0,0,1-4.52-10.84S823.8,136.64,836.49,146.8Z"/><path class="cls-18" d="M835.19,154.74c2.2,1.77-11.71-8.47-15.37-13.22a26,26,0,0,1-4.52-10.84S822.5,144.58,835.19,154.74Z"/><path class="cls-10" d="M952.16,188.21c2,1.47-5.91-7.94-16.29-7.07-8.15.68-11.22,5.64-13.48,7.74-.48.45-2.36.54-2,1.09C922.62,193.49,933.27,174.59,952.16,188.21Z"/><path class="cls-5" d="M887.35,186.64c1,.75-8.8-6.63-15-7.23s-18.42,1.35-22,5.68C850.32,185.09,872.32,175.65,887.35,186.64Z"/><path class="cls-19" d="M824,212.77c1.12,3.16,1.33,3.07,1.33,3.07s-2.8-10.27-2.67-13.34S822.69,209,824,212.77Z"/><path class="cls-10" d="M924,195.29s10.81,4.9,17,4.8,11.41.7,12.11.1-14.5.75-24.72-3.76C927.14,195.89,923.66,194.29,924,195.29Z"/><path class="cls-10" d="M938.53,236.93c5.61,4.41,13.16,17.82,13.16,20.22s-6.81-13.41-11.41-16.82-8.61-10.21-5.61-7.6A17.48,17.48,0,0,1,938.53,236.93Z"/><path class="cls-5" d="M881.42,197.42s-11.75,6.41-18.69,7.21,5,.24,11.68-3.23S887.83,194.75,881.42,197.42Z"/><path class="cls-10" d="M880.75,198.16c-3.7.63-14.8,2.67-21.35,1.92-9.08-1,1.81.61,2.8.61,20.19-.08,12.08-.1,14.75-.51A5.76,5.76,0,0,0,880.75,198.16Z"/><path class="cls-5" d="M866.2,242.12a112.6,112.6,0,0,0-8.39,10c-3.22,4.42-3.6,6.66-1.75,12.6,2.47,7.9-2.47-1.9-.75-8.1s6.5-9.12,9.62-13.12c3.33-4.26,13.58-14.08,8.61-9.9C868.74,237.68,868.92,239.11,866.2,242.12Z"/><path class="cls-13" d="M841.91,126.69c1.87,2.93,2.94,4.53,4.81,4s-3.25,4.32-6.56-.77S841.91,126.69,841.91,126.69Z"/><path class="cls-10" d="M935.34,227.28c3.22,0,3.22-5,0-5s-3.22,5,0,5Z"/><path class="cls-20" d="M917.91,74.51s-14.13,18-13.93,33.08c0,2.62-1.75-12.89,1.38-19.35"/><path class="cls-20" d="M909.06,110.87c0,2.62-1.75-12.89,1.38-19.34"/><path class="cls-20" d="M899.12,108.23c.31,2.6-3.1-12.63-.67-19.38s11-15,11-15S897.33,93.24,899.12,108.23Z"/><path class="cls-20" d="M895.67,107.91c.5,2.57-4-12.37-2.11-19.28s9.89-15.76,9.89-15.76S892.77,93.09,895.67,107.91Z"/><path class="cls-20" d="M893.06,107.56c1,2.42-6.5-11.27-6-18.43s6.43-17.45,6.43-17.45S887.17,93.66,893.06,107.56Z"/><path class="cls-20" d="M886.05,109c1,2.41-6.49-11.27-6-18.43s6.44-17.46,6.44-17.46S880.17,95.1,886.05,109Z"/><path class="cls-20" d="M879.23,109.88c1,2.42-6.5-11.27-6-18.43S879.62,74,879.62,74,873.34,96,879.23,109.88Z"/><path class="cls-20" d="M863.47,114.35c1,2.41-6.5-11.27-6-18.43s6.43-17.46,6.43-17.46S857.58,100.45,863.47,114.35Z"/><path class="cls-20" d="M856.56,114.35c1,2.41-6.49-11.27-6-18.43S857,78.46,857,78.46,850.68,100.45,856.56,114.35Z"/><path class="cls-20" d="M846.18,98.43c.45-7.16,6.43-17.46,6.43-17.46"/><path class="cls-20" d="M847.7,84.89s-6.28,22-.39,35.89"/><path class="cls-20" d="M843.92,124c1.34,2.25-7.95-10.29-8.47-17.45s4-18.16,4-18.16"/><path class="cls-20" d="M843.75,127.42c1.29,1.35-7.17-6.09-8.75-10.56s-.4-11.6-.4-11.6S836.29,119.63,843.75,127.42Z"/><path class="cls-20" d="M839.68,132.06c1.3,1.36-7.16-6.09-8.74-10.56"/><path class="cls-20" d="M828.85,113.33s1.68,14.37,9.14,22.17"/><path class="cls-20" d="M837.86,140.45c1.61,1-8.56-3.9-11.3-7.77S823,121.63,823,121.63,828.56,135,837.86,140.45Z"/><path class="cls-20" d="M822.45,126.27s5.55,13.37,14.86,18.83c1.61,1-8.56-3.9-11.3-7.77"/><path class="cls-20" d="M835.71,149.38c1.61,1-8.56-3.9-11.3-7.77s-3.55-11.05-3.55-11.05S826.41,143.93,835.71,149.38Z"/><path class="cls-20" d="M818.25,138.74s7.31,12.49,17.26,16.64c1.73.72-9-2.71-12.24-6.17"/><path class="cls-20" d="M835.2,161.69c1.72.72-9-2.71-12.25-6.17s-5-10.47-5-10.47S825.24,157.54,835.2,161.69Z"/><path class="cls-20" d="M832.56,164.39c1.73.72-9-2.71-12.24-6.17s-5-10.47-5-10.47S822.61,160.24,832.56,164.39Z"/><path class="cls-20" d="M916.27,112.93c0,2.62-1.76-12.89,1.37-19.34"/><path class="cls-10" d="M926.62,311.7c13.17-4.51,30.13-15.15,31.43-26.29,0,0-2.48,9.95-15.52,15.91C936.75,304,926.62,311.7,926.62,311.7Z"/><path class="cls-20" d="M949.41,80.78S933.28,97,931.72,112c-.27,2.6-.24-13,3.62-19.06"/><path class="cls-20" d="M942.7,121c-.27,2.61-.24-13,3.61-19s14.07-12.18,14.07-12.18"/><path class="cls-20" d="M945.78,129.21c-.27,2.6-.24-13,3.62-19.06S963.46,98,963.46,98,947.34,114.19,945.78,129.21Z"/><path class="cls-20" d="M947.68,134.58c-.27,2.61-.24-13,3.62-19.05s14.07-12.18,14.07-12.18S949.25,119.57,947.68,134.58Z"/><path class="cls-20" d="M953.27,137.21c-.06,2.23-1-11,1.81-16.36s11-11.08,11-11.08S953.62,124.39,953.27,137.21Z"/><path class="cls-20" d="M976.4,114.56s-14,13.1-15.84,25.8c-.32,2.2.25-11.07,3.68-16"/><path class="cls-20" d="M984.23,122.33s-16.5,9.8-21,21.81c-.78,2.08,2.61-10.76,7-14.89"/><path class="cls-20" d="M964.39,149.1c-.74,2.1,2.4-10.8,6.73-15s13.83-7.2,13.83-7.2"/><path class="cls-20" d="M965.18,155.89c-.74,2.1,2.4-10.8,6.74-15"/><path class="cls-20" d="M966.18,160.51c-.74,2.1,2.39-10.81,6.72-15"/><path class="cls-20" d="M967.11,165.37c-.73,2.1,2.37-10.81,6.69-15s13.81-7.24,13.81-7.24S971.34,153.26,967.11,165.37Z"/><path class="cls-20" d="M989.27,146.29s-15.79,10.9-19.46,23.19c-.64,2.13,1.87-10.91,6-15.33"/><path class="cls-20" d="M970.9,170.15c-.57,1.59,1.88-8.22,5.16-11.4"/><path class="cls-20" d="M972,170.58c-.81,1.48,3.15-7.82,6.89-10.44S990,156.46,990,156.46,976.65,162,972,170.58Z"/><path class="cls-20" d="M973.57,174.86c-.88,1.44,3.51-7.66,7.37-10.1s11.3-3.15,11.3-3.15S978.66,166.53,973.57,174.86Z"/><path class="cls-10" d="M885.79,286.58c.78-.47,18.72-14.42,37.21-1.07s-5.09-1.53-5.09-1.53a30.92,30.92,0,0,0-14.46-3C895,281.24,869.86,296.19,885.79,286.58Z"/><path class="cls-4" d="M964.24,371.58l.77-3c1.19-4.58,2.38-9.39,1.2-14a26.87,26.87,0,0,0,.58,7.21c1-1.57.77-3.57.32-5.36a21.4,21.4,0,0,1-1.12-5.38"/><rect class="cls-1" x="607.92" y="2.88" width="612" height="792"/><ellipse class="cls-3" cx="386.75" cy="740.95" rx="9.48" ry="11.93"/><polyline class="cls-3" points="381.15 740.45 381.15 744.52 392.46 744.63 392.46 740.55"/><g class="cls-21"><path class="cls-5" d="M249.33,345l23.25,19.17,15.49,14.68s27.32,14.27,42.82,4.48,31-32.21,31-32.21l12.64-16.72,7.75-12.64,3.67-8.56.41-17.54,5.3-66.06.81-38.33S389.2,166,385.94,161.5s-7.34-17.94-40-28.13c0,0-13.46-1.64-17.54-7.75s-35.07-9-46.89-7.75c0,0-4.9,2.45,1.63,7.34,0,0-15.5,6.93-24.47,9.79s-37.11,18.75-39.15,31.8-1.63,37.11-1.63,37.11l4.9,36.29,12.64,66.47,6.93,23.65Z"/><path class="cls-4" d="M252.8,347.35,371.26,514.23l.81-175.34-15.9,20s-15.5,24.06-30.58,27.32-37.52-7.34-37.52-7.34Z"/><path class="cls-5" d="M356.58,473.86s5.3-38.74,6.11-40.78S368,402.5,368,402.5l2.44-19.17-1.22-39.55,5.3-13,3.26-.82,11,13.46L439,368.65l59.94,33.85s14.27,6.52,20.39,22,33.44,116.62,33.44,116.62l34.25,115,8.16,27.32s4.48,15.9-6.12,28.95l15.91,95.83-231.62,19-.41-66.76-1.22-79.11L359.84,540.33Z"/><path class="cls-6" d="M364.12,464.18l46.79-44.35.31-4,16.52,7.34,1.22-2.14s1.35-13.36.61-17.74c-.84-4.95-5.81-15-8.87-18s-22-28.75-22-28.75l32.42,14.07s47.4,21.71,55.66,27.83,22.63,9.18,35.78,51.69,19.88,75.23,19.88,75.23l24.16,83.19,23.25,74s5.81,6.42,3.06,13.76-4.29,9.79-4.29,9.79-19.88-11.32-32.11-12.23-21.71-1.23-21.71-1.23,0-10.7,3.36-16.51l20.8,5.5s-15.29-7.34-15.29-8.25-.31-4.59-.31-4.59L532,660.21l28.75,4.29-41-19.58-9.17-69.73-2.14-22.32L510,531.76s4.59-33,5.51-38.53-.31-16.82-1.53-20.8-18.66-52-18.66-52l16.21,58.11s1.84,22.33,0,31.81l-4.28,17.43-14.07-67L501.44,526l3.37,15.6.61,15.6,4.89,40.37L517,651.65l2.14,19,2.75,18,2.45,24.77s8.26,83.19,4.59,88.08-152.92-3.36-152.92-3.36l-2.75-13.46v-30l-2.76-85.64-8-103.37-4-50.47,1.22-48.32Z"/><path class="cls-5" d="M237.51,313.71l-6.12,3.05L210.9,338.48l-99.4,30.89-24.77,7.34s-21.41,17.74-25.08,28.44S39,507.91,39,507.91L33.21,626.27l-.31,19-4.28,13.46s-.94,12.2-.3,16.2c.18,1.16,1.2,3.46.91,4.59-.79,3.13-6.47,7.8-6.72,11-.61,7.76,11.92,28.75,11.92,28.75s17.13,28.44,26.92,33.34,56.88-2.14,56.88-2.14l-.92,17.12a60.58,60.58,0,0,0-.91,23.86c2.14,13.15,259.65,6.73,259.65,6.73l-4.89-137.63-7-77.07-4.89-73.71-.31-19.26-4-2.14-58.72-78.91L252.8,347.35Z"/><path class="cls-6" d="M209.93,343.41,151.25,360s-60.54,15.7-63.6,19.37S70.52,400.73,67.46,409.9s-20.18,97.87-20.18,97.87L43,549.36l-5.51,90.53s-3.83,6.69-4.28,9.18c-.68,3.77,1.22,15.29,1.22,15.29s4.29,3.06,6.73-8l6.73-6.12-8,17.74S32.25,680.44,32,685.15c-.33,5.8,7.34,22,7.34,22s16.21,31.31,26.3,36.09c7.47,3.55,33-1.83,33-1.83S66.24,724.3,64.41,718.8,62,728,62,728l11.62,4.89s-15.29.62-15.9-11.62l9.78-30s18.35-26.91,41.6-41.59l43.43,5.5s2.44-8.56.61-9.78c-.92-.62-2.91-6-4.67-11.17S145.15,624,145.15,624l6.72,6.11.62-9.17L96.21,576.28l55.05,34.86-5.5-97.86.61-24.47-12.85-30,18.35,31.8-1.22,22L157.38,594l-3.47,10s-1.22,10.6.41,13.86,1.22,12.64,1.22,12.64a23,23,0,0,0-.4,10.6c1.22,5.31,1.22,14.68,1.22,14.68s4.08,2.86,4.48-1.22-.4-11.42,1.23-16.72a124.9,124.9,0,0,1,5.3-13.05l-2-9s-2.45-7.34-2.45-11-1.63-8.56,1.63-9,11-1.63,14.28.41,11.82,10.19,12.23,14.68,2.45,16.31,2.45,16.31l12.23,13.46,20,25.28,4.49,1.22,27.32.41S284.81,664,289.7,664s21.61-2,24.88,11.42c0,0,2.44,6.52-1.23,8.15s-42,11.83-42,11.83,7.75,1.63,9,1.63,35.07-4.89,35.07-4.89,22.43-5.3,24.88-4.49,6.52-1.63,8.56,8.56-2.85,14.68-6.52,16.32l-3.67,1.63s3.67,4.48,4.07,7.34,4.08,6.11-16.72,16.72l-9,5.3-14.27,13-43.22,9s-12.24,4.89-15.5.81l-26.5.41-48.94-11.83-42-5.3s-5.3,6.53-5.3,28.55V838l246.3-22.84,3.67-23.53L370,688.42,366,623.58s-11.42-108.06-9.38-127.23l-53.42-28.13-36.7-24.88,8.15-21.2-5.7-.41-38.34,13-10.19-23.65s-8.63-22.06-10.19-29.77C208.3,372.06,208.05,351.14,209.93,343.41Z"/><path class="cls-4" d="M536.82,710.37l4.89,99.09L600,797.64l-6.93-30.59L580,707.52s-7.75-8.16-12.64-8.57S536.82,710.37,536.82,710.37Z"/><path class="cls-12" d="M237.1,262.63s-.72,36.61,2.85,48.12c6.27,20.17,29.77,49.34,59.54,59.94s44-8.56,44-8.56,33.25-31.09,38.74-44.86c6.43-16.11,3.26-69.32,3.26-69.32V204.32s-4.68-7.69-4.89-10.6c-.32-4.28,2.85-9.79-.82-17.13s-16.72-29-17.94-30.18S348,137,344.34,136.22s-10.6-2-10.6-2-4.48,6.93-6.52,5.71-5.71-5.3-5.71-5.3l2,6.93-5.3-.41s-5.3-2-7.75-.81-9,4.08-12.23,2a36.41,36.41,0,0,1-6.53-5.71l3.26,6.52H284c-2.44,0-10.19-.41-11.41-3.67s-11-2.85-12.65-1.22S255,142.92,253,144c-1.19.62-2.13.69-5,1.95-4.13,1.81-9.81,4.8-12.93,8.65-5.3,6.52,13.46-5.71,13.46-5.71S244,157,244,158.24v1.22l6.12-4.48s3.26-.82-1.23,8.56-11.36,19.72-10.6,26.91c.19,1.77,2.89,4.75,2.86,6.53-.05,2.6-3.72,6.89-4.49,9.38-1.59,5.16-.41,21.61-.41,21.61l.41,8.16s4,16.89,2.86,22.42C239.3,259.72,237.1,262.63,237.1,262.63Z"/><path class="cls-22" d="M232.61,256.51c-1.29-2.57-5.3-24.87-10.19-25.28s-6.91-.16-7.75,1.63c-3,6.48,2,28.55,2,28.55l12.23,35.47,6.94,2.45S237.51,266.3,232.61,256.51Z"/><path class="cls-23" d="M219.56,239l7.34,19.17s-4.07,3.67-4.07,6.52,3.67,10.19,3.67,10.19"/><line class="cls-3" x1="231.84" y1="269.56" x2="226.87" y2="258.15"/><path class="cls-23" d="M387.57,243.06s.65-12.67,4.08-13.46c1.75-.4,4.39,3.57,4.89,5.3,3.33,11.56,2.15,36.37-.41,48.12-1.19,5.48-6.93,15.5-10.19,20l1-37.51Z"/><path class="cls-23" d="M394.09,240.2s-7.74,21.22-7.13,25.29"/><ellipse class="cls-3" cx="373.2" cy="531.76" rx="9.48" ry="11.93"/><ellipse class="cls-3" cx="383.7" cy="638.81" rx="9.48" ry="11.93"/><polyline class="cls-3" points="367.28 530.24 367.28 534.31 378.6 534.41 378.6 530.34"/><polyline class="cls-3" points="378.29 637.68 378.29 641.76 389.61 641.87 389.61 637.79"/><polygon class="cls-7" points="369.63 372.12 327.42 411.88 272.37 378.85 282.77 393.53 324.98 418.61 324.98 427.78 329.26 427.17 329.87 417.38 370.44 383.33 369.63 372.12"/><polygon class="cls-7" points="322.53 422.28 331.7 422.28 332.01 435.43 343.63 435.43 343.63 443.69 334.46 443.99 334.46 462.04 324.98 448.88 323.27 444.6 320.39 444.6 315.19 436.04 322.83 436.04 322.53 422.28"/><path class="cls-3" d="M291,184.64s12.38-1.34,16.21,0c.71.25,1.53,1.23,2.75,1.23s14.35,1.09,19,0c.83-.2,2.24-1.3,3.06-1.53,3.6-1,15-.31,15-.31"/><path class="cls-3" d="M267.78,197.18s18.36.91,24.47.61c2.54-.12,10.09-1.22,10.09-1.22s28.49-3,37.32,0c1.29.44,2.75,2.14,4.89,2.45s17.13-1.84,17.13-1.84"/><path class="cls-5" d="M269.31,270.58c.08-2.14-1.53,42.51-1.53,42.51s.24,7.75,1.23,10.1c2.84,6.77,18.35,22.93,18.35,22.93a16.76,16.76,0,0,0,.92,3.06c5,8.4,18.65,18.66,36.39,14.38s16.51-12.24,16.51-12.24l12.24-14.68L339,348s-15.59,15.6-36.39,3.36c0,0-26.61-19.57-29.36-28.75S268.09,307,269.31,270.58Z"/><path class="cls-5" d="M305.1,343.37s15,19.88,28.44,2.75C333.54,346.12,313.05,350.41,305.1,343.37Z"/><path class="cls-3" d="M365,287.71a157.46,157.46,0,0,1,1.53,18.35c.32,11.14-4.78,24.16-13.15,30.58"/><path class="cls-5" d="M293.47,314.62c1.84,0,26.61,6.73,37.93,3.37a103,103,0,0,1,18-4s-8.56,7.95-12.23,9.79l-3.67,1.83L332,328.08s2.68,11.61,0,13.76c-.55.44-2.75-.61-2.75-.61l-.92-14.07-3.67-2.44-22.33-.62s-5.5,1.23-5.5-.91,1.83-5.51,1.83-5.51Z"/><path class="cls-10" d="M278.79,232.05c-.76,0-6.88-1.84-6.88-1.84s-6,2.3-8.41,2.45-6.42,2.29-6.42,2.29-.46,7.8,1.07,10.1,6.88,8.1,12.69,8.41,13-6,13-6-6,4.74-12.39,4.59-12.53-8.1-12.53-8.1-1.23-5.51.15-5.51,7,8.1,8.41,7.34c0,0-5.2-3.06-4.59-8.1,0,0,12.85,1.37,16.82.91s10.09-3.21,10.09-3.21,9.94.61,13.16-.46a16.59,16.59,0,0,0,4.74-2.29s-.16,1.22-7.34,1.38a93.45,93.45,0,0,1-15.66-1.38Z"/><path class="cls-5" d="M281.85,299.33s21.41-6.42,28.14-6.12v4.29s-25.08,5.5-26.61,8.56S281.85,299.33,281.85,299.33Z"/><path class="cls-5" d="M357.7,299l-.61,7.34s-20.19-9.79-24.77-9.79v-4s10.39-.3,14.06,1.23S357.7,299,357.7,299Z"/><path class="cls-3" d="M307.24,297.19s8.87-.92,15,3.06c0,0,2.45,2.45,7-3.37s19,3.06,19,3.06"/><path class="cls-24" d="M329.56,304.84c0,4.83,15.6,22.93,15.6,22.93h4.89l-2.42-3.34-15.31-21.12S329.56,302.7,329.56,304.84Z"/><path class="cls-25" d="M345.16,327.77s0,6.43,3.67,8.57,6.12-4,4.28-5.51a24.49,24.49,0,0,1-3.06-3.06Z"/><path class="cls-5" d="M292.56,306.67l18.65-3.36s5.81-2.76,11-.61c0,0,13.15-1.43,17.44-.62,2.45.47,9.17,4,9.17,4l-14.07-.31-12.54-.3s-13.45,0-16.51.92S292.56,306.67,292.56,306.67Z"/><path class="cls-5" d="M297.14,276.39s4,4.29,6.43,3.06,10.7,5.2,10.7,5.2l5.81,1.84s-.3,6.11,1.84,6.42.91-6.12,2.14-6.73,6.73-2.45,10.09-5.2,9.79-4,9.79-4l-1.84-7-43.73.92Z"/><path class="cls-5" d="M322.22,305.45s2.45-3.06,4.28,2.14,1.84,12.54,1.84,12.54h3.36a35.36,35.36,0,0,1-.91-8.87c.3-3.67,6.72-6.42,6.72-6.42Z"/><path class="cls-26" d="M296.53,264.16s-1.81,10.36.61,12.23c2.06,1.59,7.34-1.53,10.4,0s11.62,4.9,11.62,4.9,7.65,1.53,11.93-2.45,6.42-3.06,6.42-3.06,5.82,3.37,8.87,0V263.85"/><path class="cls-3" d="M303.26,265.38s7-3.36,14.38-2.75,19.26.61,19.26.61"/><line class="cls-26" x1="315.19" y1="282.51" x2="315.19" y2="291.69"/><line class="cls-26" x1="328.03" y1="283.12" x2="328.03" y2="292.91"/><path class="cls-5" d="M249.43,220.43s7.65-8.26,8.57-7.65,26.3,12.85,31.5,13.15,7.34-2.45,7.34-2.45l5.81,6.73-3.36,1.84-22-5.2-14.07-1.53-3.67-2.14-5.51,4h-6.73Z"/><path class="cls-5" d="M355.86,221.65l22-8,6.73,4,2.14,4.29L369,224.4l-12.54,2.75-5.2,2.76H338.74l1.53-2.76s-3.37-4.58-1.23-4.89,10.4-2.14,12.54-.92A5.13,5.13,0,0,0,355.86,221.65Z"/><path class="cls-3" d="M249.05,224.45s-.49-11.82,1-16.56c1.11-3.57,6.72-10.71,8.56-12.24"/><path class="cls-27" d="M359.69,228.53s13.91,2.6,15.29,3.82-2.45-.76-3.52.92-3.82,2.29-6.11,2.91-7,1.83-7,1.83-9.33-.92-9.17-2-.16-2.75.61-2.75S359.69,228.53,359.69,228.53Z"/><path class="cls-3" d="M375.74,193.82c.92,1.53,4.29,3.06,5.2,9.79s5.2,9.48,4,18"/><path class="cls-28" d="M354.89,231s-2.75.76-3.06,2.9,2.66,5.34,8.47,3.66c4-1.15,3.89-5,3.38-6.76a1.71,1.71,0,0,0-1.79-1.24C360,229.71,356.42,230.11,354.89,231Z"/><path class="cls-10" d="M312.74,221.34S311.21,233,314,234.49s12.2,2.82,15,.31c2.23-2,2.14-10.4,1.53-11.93s-.68,8-2.45,9.79c-2.08,2.13-10.09,1.83-11.92,0S312.74,221.34,312.74,221.34Z"/><polygon class="cls-27" points="273.14 231.9 269.31 231.9 268.4 232.97 273.14 236.02 279.71 238.62 286.29 238.62 289.96 237.4 289.8 235.41 284.7 232.66 273.14 231.9"/><path class="cls-28" d="M276.26,232.72a2,2,0,0,0-1.5,1.75,2.91,2.91,0,0,0,1.09,2.85c1.77,1.14,9.73,1.73,11.21-.56.34-.54-.18-1.92-.64-2.9a2.1,2.1,0,0,0-1.72-1.2C282.67,232.47,278.5,232.18,276.26,232.72Z"/><circle class="cls-5" cx="281.7" cy="235.11" r="1.99"/><path class="cls-3" d="M273.14,231.89s-5.36-.45-4.74,1.08,10.09,5.35,10.09,5.35c2.29.86,15.44.44,11.31-2.91a17.39,17.39,0,0,0-6.57-2.9Z"/><circle class="cls-5" cx="358.1" cy="232.97" r="1.99"/><path class="cls-3" d="M348.83,233.88s8.87-5.81,16.52-4.74,14.37,6.12,14.37,6.12l-8.26-2s-1.83,1.22-4,2.91-14.23,4.43-18.05.46Z"/><path class="cls-3" d="M348.83,233.12s8.87-5.81,16.52-4.74a24.12,24.12,0,0,1,12.23,5.35l-6.12-1.22s-1.83,1.22-4,2.9-14.23,4.44-18.05.46Z"/><polygon class="cls-10" points="371.46 230.37 371.46 233.27 373.3 232.2 371.46 230.37"/><path class="cls-10" d="M345.47,240s8.1,9.33,12.23,10.4,13.15,1.53,14.07.46,5.35-6,2.9-11-4.58-6.58-4.58-6.58l-.31,1.53L373.3,242s.76,6-1.84,6.73-7.8,3.67-15-.77A78.19,78.19,0,0,1,345.47,240Z"/><path class="cls-10" d="M246.15,265.16v1.22c0,.68,2.9.21,2.9-.77v-1.23c0-.67-2.9-.2-2.9.78Z"/><path class="cls-10" d="M252.55,262.42l.6,1.83c.22.64,1.16.6,1.68.46s1.43-.6,1.22-1.23l-.61-1.84c-.21-.64-1.15-.6-1.67-.46s-1.44.6-1.22,1.24Z"/><path class="cls-10" d="M257.1,256l.32,1.52c.22,1.06,3.13.34,2.9-.77l-.32-1.53c-.22-1.06-3.13-.33-2.9.78Z"/><path class="cls-10" d="M248.9,250.26v1.22c0,.66.74.75,1.27.69s1.63-.39,1.63-1v-1.23c0-.65-.74-.74-1.26-.68s-1.64.39-1.64,1Z"/><path class="cls-10" d="M247,290.25v.3a1.15,1.15,0,0,0,1.37,1c.6-.06,1.58-.47,1.58-1.22v-.31a1.15,1.15,0,0,0-1.36-1c-.6.05-1.59.47-1.59,1.22Z"/><path class="cls-10" d="M373.68,252.93v.3c0,.63,2.9.17,2.9-.77v-.31c0-.63-2.9-.17-2.9.78Z"/><path class="cls-10" d="M370.93,258.43V260c0,.66,2.9.19,2.9-.78v-1.52c0-.67-2.9-.2-2.9.77Z"/><path class="cls-10" d="M375.2,271v.91c0,.7.7,1,1.33.92s1.6-.44,1.6-1.15v-.92c0-.7-.71-1-1.33-.92s-1.6.44-1.6,1.16Z"/><path class="cls-10" d="M372.75,288.4a11.52,11.52,0,0,1-.28,3.75c-.29,1.2,2.65.78,2.91-.31a13,13,0,0,0,.27-4.21c-.1-1.09-3-.44-2.9.77Z"/><polyline class="cls-3" points="383.9 734.83 383.9 739.41 395.21 739.53 395.21 734.94"/></g><ellipse class="cls-3" cx="389.48" cy="735.14" rx="9.48" ry="11.93"/><path class="cls-4" d="M165,605.16s-1.22-5.5,1.53-5.81,9.15-.19,11.93.92c3.17,1.27,8.87,6.42,8.87,10.4s2.8,16.15,5.51,20.8c2.91,5,11.9,12.66,15.59,17.12,3.49,4.22,11.93,18.35,11.93,18.35l-17.54,1.37-2,.16,5.81,1.84,53.52-.31s12.13-2.24,16.21-2.75c6.75-.85,20.55-1.67,27.22-.31,4.21.87,10.4,4.59,9.48,14.38,0,0-16.21,4-18.35,5.81s-56.89,15-56.89,15l-25.38,2.76.92,4,21.4-.92,39.15-1.22,9.18-6.12,48-9.17s10.14-1.62,13.15-.31c2.69,1.17,4.9,5.51,4,11s-4,8-4,8-8.1,2.57-12.71,4.06h0c-1.95.65-3.51,1.19-4.11,1.44-2.14.92-51.68,12.54-51.68,12.54l-18.66,1.83-23.55,3.67,28.44-.3,38.84-8.56,19.27-5.51s11.45-5.11,16.82-2.13c4.16,2.31,5.81,4.34,3.06,9.47-3.28,6.11-35.78,18-35.78,18l-68.51,8-15.6-10.1-1.22,3.37,7,6.42s-12.06,1.63-15.6,0c-7.89-3.62-22.63-26.3-22.63-26.3l.61-5.2,4.89,4.28s0-6.42,1.22-7-5.5-9.48-5.5-9.48.6-10.4-2.45-12.85c-1.74-1.4-7.64-1.53-7.64-1.53l7,23.55s-6.73,7.65-9.79,6.42-8.56-11.62-9.17-20.79S165,685.29,165,685.29l-.91,12.54s-1.53,3.06-1.23,8.87,9.18,24.47,9.18,24.47l-7-6.73H154.63l2.75,15s-5.81-4.29-13.46-16.83l-7.34-8L136,706.7l-14.68,1.53L84.9,684.68l-2.45-4.89s9.17-14.68,15-18,11-8,14.68-8,22.63.61,26.91,1.84,20.8,8,20.8,8l2.14,11,.91-18.05,2.45-4L167.17,633l1.83-2.15s3.36,1.53,2.45,9.79c0,0,5.2,4.28,9.78,4l4.59-.31S167.17,624.74,165,605.16Z"/><path class="cls-8" d="M234.75,318.6S219.93,330.54,217,336c-3.2,6-4.9,26.91-4.9,26.91s-.22,13.16.61,17.44c2.65,13.58,19,52,19,52L262.89,422l13.76-1.53-7,22,87.77,55.05-1.22-6.12-36.39-45.56-62.7-82.58s-12.84-20.18-13.15-22.63-4.89-19-4.89-19S238.42,317.38,234.75,318.6Z"/><path class="cls-9" d="M292.25,675.2c1.23-2.46,12.23-3.06,12.23-3.06l4,8.26L295.92,685S289.5,680.71,292.25,675.2Z"/><path class="cls-9" d="M328.65,700.28l14.06-3.37,3.06,10.71-11.19,5.52S329,709.15,328.65,700.28Z"/><path class="cls-9" d="M318.86,725.05,332,720.16l4.89,7.64-13.15,7S317.64,730.86,318.86,725.05Z"/><path class="cls-8" d="M373.3,336.64s1.83,34.26,0,48.32-11,56.89-11,58.72-1.84,20.19-1.84,20.19L377,447.66l19.26-17.74,11.63-13.15-19.58-10.4s19,5.81,19.88,6.12,18.66,7.65,18.66,7.65l.3-16.21s-2.14-9.79-9.48-16.82l-41.9-53.22Z"/></g></svg>