<svg xmlns="http://www.w3.org/2000/svg" xmlns:xlink="http://www.w3.org/1999/xlink" viewBox="0 0 1222.31 792"><defs><style>.cls-1,.cls-22,.cls-9{fill:none;}.cls-2{fill:#43aee3;}.cls-3{fill:#d1bfdd;}.cls-11,.cls-12,.cls-13,.cls-14,.cls-15,.cls-16,.cls-17,.cls-18,.cls-19,.cls-21,.cls-22,.cls-23,.cls-3,.cls-4,.cls-5,.cls-6,.cls-8,.cls-9{stroke:#231f20;stroke-miterlimit:10;}.cls-4,.cls-7{fill:#231f20;}.cls-5{fill:#b89bc7;}.cls-6{fill:#d0bfdd;}.cls-8{fill:#b49079;}.cls-10{fill:#d5b199;}.cls-11{fill:#f9ed23;}.cls-12{fill:#b5917a;}.cls-13{fill:#be997e;}.cls-14{fill:#712d20;}.cls-15{fill:#7a312a;}.cls-16{fill:#fff;}.cls-17{fill:#7d4e1c;}.cls-18{fill:#f9a460;}.cls-19{fill:#d09988;}.cls-20{clip-path:url(#clip-path);}.cls-21{fill:#5f6062;}.cls-22{stroke-width:2px;}.cls-23{fill:#b4917b;}</style><clipPath id="clip-path"><rect class="cls-1" x="-89.14" y="-172.24" width="746.79" height="965"/></clipPath></defs><title>TZ and GTA</title><g id="Background"><rect class="cls-2" x="-33.08" y="-25.39" width="1279.47" height="830.96"/></g><g id="Layer_3" data-name="Layer 3"><polygon class="cls-3" points="843.21 736.51 785.17 889.72 744.64 805.44 775.76 751.08 843.21 736.51"/><polygon class="cls-3" points="1002.31 804.99 994.09 894.97 890.2 899.92 889.27 885.31 809.11 891.35 800.17 815.73 833.72 730.07 835.5 677.18 839.85 548.17 864.64 617.65 883.61 644.06 890.2 632.51 905.45 626.73 908.11 617.21 930.84 706.84 917.41 793.22 913.7 815.73 935.78 793.44 960.96 768.05 1002.31 804.99"/><path class="cls-3" d="M964.4,461.37l-3.87,44.86-.56,6.48-6.92,80.4-9.71,112.66-7.55,87.67L913.7,815.73l3.71-22.51,13.43-86.38-22.73-89.63h0l3.11-11.1L858,390.45l0,0-1.4-5.7-5.8-23.46c-.58-2-1.13-4-1.62-5.89s-.9-3.55-1.27-5.25a17.94,17.94,0,0,1-1.18-4.19l.07-2,0-1.15.36-10.8.61-18.19,1.86-55.19,4.56,8.07,32.29,57Z"/><path class="cls-3" d="M1190.32,656.47c0,4.14-14-129.24-14-129.24s-5.39-46.44-6.6-59c-1.31-13.58-.48-41.12-3.3-54.47-3.38-16-17.27-46.43-19-62.72-.42-4,1-12.13,0-16-1.92-7.14-14.84-25.58-14.84-25.58l-52.76,29.18V776.12L1089,780l43.61,18.67,10.73,4.58,50.28,21.52V793.22S1190.51,660.45,1190.32,656.47ZM1132.6,786.56V781.9l-7.42-19L1120,740.44l5.21-.64,18.15,42.1A30.54,30.54,0,0,1,1132.6,786.56Z"/><path class="cls-4" d="M1143.33,781.9v53.65h-55.24l.57-35.5.33-20,4-249,12.66,18.15v0l7.13,94.9,7.42,41.28,23.09,96.56-18.15-42.1-5.21.64,5.21,22.48,7.42,19v4.66A30.54,30.54,0,0,0,1143.33,781.9Z"/><path class="cls-3" d="M1125.18,762.92l7.42,19v18.15H1008.93L964.4,611.87l25.09-258L997.64,270c1.55,1.65,135,39.46,135,39.46l-29.68,99.33,2.77,140.31v0l1.36,68.49,7.42,99,5.5,23.75Z"/><path class="cls-4" d="M1132.6,786.56V781.9l-7.42-19L1120,740.44l5.21-.64,18.15,42.1A30.54,30.54,0,0,1,1132.6,786.56Z"/><path class="cls-3" d="M1132.6,781.9v4.66a34,34,0,0,1-16.9-.53L1098,743.1l22-2.66,5.21,22.48Z"/><path class="cls-3" d="M1049.59,497.2l44.26-22.33V497.2s-12.93,9-22.13,13.16-38.88,16.5-38.88,16.5Z"/><path class="cls-3" d="M992.83,688.55c-6.07,9.64-10.28,14.94-10.28,14.94l23.08,65.2L1002.31,805,961,768.05l-25.17,25.39L913.7,815.73l3.71-22.51,13.43-86.38-22.73-89.63h0l3.11-11.1L858,390.45l0,0-.2-3.35-.37-5.73h0l-1.55-24.51-.07-1.18v0l-.2-3-.29-4.69-.51-8.13-.54-8.37-.87-13.74-3.73-59,4-.28,116.11-8.18,8.71-.61,75.85,80.89-14,11.54,21.43,12.39c7.43,45.39-15.65,165.89-28.85,234.14C1024.09,633.76,1004.83,669.57,992.83,688.55Z"/><path class="cls-5" d="M964.4,764.56,961,768.05l-25.17,25.39L913.7,815.73l3.71-22.51,13.43-86.38-22.73-89.63h0l3.11-11.1L858,390.45l0,0-1.4-5.7,1.2,2.35C880.42,432,921.17,522,941.47,567.23c5.9,13.11,10.06,22.46,11.58,25.88l.64,1.43Z"/><path class="cls-5" d="M1032.84,832.25,1002.31,805,961,768.05l-12.22-10.91-5.4-51.37L932.25,600.32l9.22-33.09.67-2.4,18.39-58.6L972,469.76l8.88-72.34,5-78.54,4.95-22.29-1.66,72.63v49.52s4.13,264.12,3.31,267.42a8.58,8.58,0,0,0,.39,2.39c3.83,16.05,33.41,104.67,33.41,104.67Z"/><polygon class="cls-4" points="795.38 716.69 773.12 773.64 779.72 781.9 818.47 730.06 795.38 716.69"/><path class="cls-6" d="M883.61,644.06l-5,14H853.1a46.12,46.12,0,0,1-17.6,19.08A42.4,42.4,0,0,1,823.41,682v0c-1.49-1-97.27-64.46-95.62-76.73s-20.62-274.84-20.62-274.84l107.17-39.62a.39.39,0,0,1-.05.14l-20,55.88c-.11.27-.2.53-.28.76l-.37,1c-.11.3-.2.54-.26.72a3,3,0,0,1-.11.35l0,.12h0l17.8,11.47L788,381.61l35.45,120.5,16.44,46.06,24.79,69.48Z"/><path class="cls-6" d="M823.41,682c-9.06,3.31-23.07,22.29-23.07,22.29l-5,12.37a.18.18,0,0,1,0,0s-6.74,15.25-8.24,20.58c-3,10.88-7.42,44.58-7.42,44.58l-25.55-9.08s-10.8-5.76-14-8.26c-8.3-6.42-29.67-29.7-29.67-29.7s-54.08-42.79-61.85-63.56c-6.51-17.42-3.61-57.37,4.13-74.28,1.1-2.4,5.62-5.8,6.59-8.26.91-2.3-.13-7.43,0-9.9.58-11.2,9.89-43.75,9.89-43.75l5-8.24s6.52-66.19,12.36-87.5c3.54-12.93,16.26-47.28,16.26-47.28s.63-10.75.24-13.79c-1.54-11.91,4.11-47.86,4.11-47.86h9.89L753.33,436.9l20.61,98.21-.81,94.1,12,12.65L823.4,682Z"/><path class="cls-4" d="M978.42,249.55c13.19,46.22,38.15,49.2,50.3,66,3.55,4.92,4.12,23.94,4.12,23.94s-49.46-13.2-47.82-9.07-5.77,93.26-10.72,127.1c-2.08,14.19-8.07,35.37-14.33,55.17-8.66,27.38-17.83,52.12-17.83,52.12L862.17,394s-2.13-5.23-4.81-12.63h0c-2.1-5.84-4.56-13-6.63-20.07-.58-2-1.13-4-1.62-5.89s-.9-3.55-1.27-5.25c-.47-2.19-.85-4.28-1.11-6.18,0-.22-.06-.43-.08-.63,0-.46-.11-.9-.15-1.34a24.08,24.08,0,0,0-2-7.89c-4-8.58-12.06-7-12.06-7-17.77,12.59-30.55,19.21-39.24,22.67h0c-10.67,4.24-15.17,3.74-15.17,3.74s4.09-18,7.42-23.1c13.77-21,28-37.55,28.79-39.48a.39.39,0,0,0,.05-.14h0c3.73-7.63,6.32-13,9.4-17.55,6.23-9.15,23.59-20.26,24.52-25.37"/><polygon class="cls-7" points="773.95 535.12 773.12 629.21 785.17 641.86 785.17 633.34 795.38 634.16 773.95 535.12"/><path class="cls-8" d="M932.25,739.8c5,0,0,7.43,0,7.43s-39.22,20.16-53.6,21.46c-19.39,1.77-55.16-11.16-75.88-17.62-3.84-1.2-6.48-2.24-7.39-3-5.63-4.84-.27-30.15,0-31.32a.18.18,0,0,0,0,0s3.34-9.46,5-12.37c3.9-7,14-19,23.07-22.29,21.44-4.95,21.72-18.7,29.69-23.93,5.34-3.51,25.55,0,25.55,0L867.94,682s4.94,15.68,19.79,20.63,33.8,4.13,33.8,4.13l6.59-14s9.9,5.88,9.9,14.09c0,6-.44,11.6-7.18,16.77C943.45,728.88,932.25,739.8,932.25,739.8Z"/><path class="cls-6" d="M890.2,757.14s37.1-17.34,42-17.34"/><path class="cls-9" d="M896.57,736.51s7.65-.83,24.13-7.43a43.14,43.14,0,0,0,10.14-5.46"/><path class="cls-4" d="M928.12,692.76l-6.59,14s-19,.83-33.8-4.13S867.94,682,867.94,682l10.71-23.93,5-14,6.59-11.55,15.25-5.78,5.77-20.63Z"/><path class="cls-6" d="M911.22,606.1l-3.11,11.1h0l-2.66,9.52-15.25,5.78-6.59,11.55-19-26.41-24.79-69.48-16.44-46.06L788,381.61l23.09-20.34-17.8-11.47c8.69-3.46,21.47-10.08,39.24-22.67,0,0,8.1-1.62,12.06,7a24.08,24.08,0,0,1,2,7.89c0,.44.1.88.15,1.34a8.85,8.85,0,0,0,0,2.62,17.94,17.94,0,0,0,1.18,4.19q.55,2.55,1.27,5.25c.49,1.93,1,3.91,1.62,5.89l5.8,23.46,1.4,5.7,0,0Z"/><path class="cls-6" d="M847.84,350.13a17.94,17.94,0,0,1-1.18-4.19,8.85,8.85,0,0,1,0-2.62c0,.2.06.41.08.63C847,345.85,847.37,347.94,847.84,350.13Z"/><path class="cls-1" d="M850.73,361.27S882,332.9,846.5,313.1c-30.48-17-47.92,22.38-52.2,33.74-.11.27-.2.53-.28.76-.3.77-.49,1.37-.63,1.73a3,3,0,0,1-.11.35l0,.12"/><path class="cls-4" d="M911.22,606.1l16.08-36.32s12.36-9.9,5,14-14.84,47.05-14.84,47.05l27.21,27.24s3.29,6.59-6.6,20.63l-9.9,14"/><path class="cls-4" d="M773.12,629.21,750,600.32s-22.1-11.17-42-12.11a46.74,46.74,0,0,0-8.32.28c-21.43,2.75-30.5,3.58-32.15,6.88s12.36,0,12.36,0,36.6-19.88,70.91,13.3l34.31,33.19"/><path class="cls-4" d="M660.45,616.3c5.7,2.18,18.91-15.47,18.91-15.47v-2.44s-16.19,6.26-18.91,11C659.59,610.9,658.84,615.69,660.45,616.3Z"/><path class="cls-10" d="M890.2,736.51c.27-1.31,6.16-1.87-6.59-3.75l-18.19-2.7s-7.19,7.68,2.52,10.38"/><path class="cls-11" d="M966.93,337.59c-1.42.62-4.88,2.24-3.66,9.37s11,2,11,2,2-4.08,1.62-7.54a10.28,10.28,0,0,1,1-5.9s5.29,2.85,2.44,11-3.86,11.61-11.19,11-13.21-5.91-13.42-9.37-.41-12,6.71-14.66,10.58-1,10.58-1l-.61,5.49Z"/><path class="cls-11" d="M955.34,362.64c-1.42.61-4.88,2.24-3.66,9.36s11,2,11,2,2-4.07,1.63-7.54a10.19,10.19,0,0,1,1-5.9s5.28,2.85,2.44,11-3.87,11.61-11.19,11-13.22-5.91-13.42-9.37-.41-12,6.71-14.66,10.58-1,10.58-1l-.61,5.49Z"/><path class="cls-11" d="M936.5,387.49c-1.54.12-5.34.57-6.44,7.72s9.78,5.41,9.78,5.41,3.21-3.22,3.92-6.63a10.19,10.19,0,0,1,2.84-5.27s4.11,4.38-1.17,11.2-7.33,9.78-14.09,6.88-10.67-9.79-9.76-13.14,3.41-11.52,11-11.78,10.35,2.39,10.35,2.39l-2.32,5Z"/><path class="cls-11" d="M905.72,391c-.82-1.31-3-4.47-9.81-2.14s-.27,11.18-.27,11.18,4.34,1.37,7.69.42a10.22,10.22,0,0,1,6,.07s-2,5.67-10.46,4.15-12.06-2-12.61-9.31,3.73-14,7.11-14.76,11.78-2.3,15.52,4.32,2.68,10.29,2.68,10.29l-5.52.27Z"/><path class="cls-11" d="M879.26,370.25c-.55-1.44-2-5-9.2-4s-2.46,10.91-2.46,10.91,4,2.19,7.46,1.92a10.16,10.16,0,0,1,5.85,1.24s-3,5.18-11.07,2S858.41,378,859.3,370.71s6.4-13,9.86-13.07,12,.05,14.38,7.28.61,10.61.61,10.61l-5.47-.82Z"/><path class="cls-11" d="M861.39,353.83a7,7,0,0,1-5,2.95,3.19,3.19,0,0,1-.54.05,5.77,5.77,0,0,1-1,0,13.47,13.47,0,0,1-4.46-1l-1.21-.48q-.72-2.7-1.27-5.25c.14.35.23.55.23.55a17,17,0,0,0,6.7,1.93,6.27,6.27,0,0,0,.76,0h0a10.91,10.91,0,0,1,2.32.08A9.6,9.6,0,0,1,861.39,353.83Z"/><path class="cls-11" d="M865.08,347.42a6,6,0,0,1-.46,1.65l-4.32-.65-1.13-.17.52-4.1,0-.36a5.91,5.91,0,0,0-5-4,14.05,14.05,0,0,0-4.21,0,4,4,0,0,0-3.76,3,4.37,4.37,0,0,0-.12.52c0-.46-.11-.9-.15-1.34a24.08,24.08,0,0,0-2-7.89,11.61,11.61,0,0,1,2.58-2.09,5.27,5.27,0,0,1,2.51-.83,30.21,30.21,0,0,1,4.56.22c3.38.48,7.3,1.84,9.21,5.64a9.61,9.61,0,0,1,.6,1.42A18.86,18.86,0,0,1,865.08,347.42Z"/><path class="cls-11" d="M963.27,347c1.88-1.56,10.78-6.31,8.34,5.09s-5.37,14.21-9.76,15.47c-2.14.62-7.53.41-6.3-6.31A24.44,24.44,0,0,1,963.27,347Z"/><path class="cls-11" d="M973.85,323.34c3.25-1.22,11-.61,10,3.26-3,11.28-5.37,14.21-9.76,15.47-2.14.62-7.52.41-6.3-6.31S970.06,324.77,973.85,323.34Z"/><path class="cls-11" d="M950.18,372c2.18-1.09,11.93-3.68,7,6.86s-8.47,12.6-13,12.83c-2.22.12-7.42-1.32-4.7-7.58A24.45,24.45,0,0,1,950.18,372Z"/><path class="cls-11" d="M923.06,393.34c2.17,1.13,10,7.49-1.44,9.67s-15.16.57-18-3c-1.4-1.73-3.3-6.78,3.36-8.26A24.39,24.39,0,0,1,923.06,393.34Z"/><path class="cls-11" d="M893.91,384.42c.87,2.28,2.5,12.25-7.5,6.27s-11.71-9.66-11.5-14.23c.11-2.23,2-7.26,8-3.95A24.45,24.45,0,0,1,893.91,384.42Z"/><path class="cls-11" d="M871.66,360.44c.3,2.43-.54,12.49-8.79,4.26s-9-12.22-7.7-16.6c.65-2.14,3.74-6.55,8.72-1.88A24.38,24.38,0,0,1,871.66,360.44Z"/><path class="cls-6" d="M930.53,540c.81,1.83,10.37,24.43,10.37,24.43l.57,2.84"/><path class="cls-6" d="M854.47,376.89c.61.4,3.45,7.73,3.45,7.73l2.85,7.54"/><rect class="cls-1" x="523.17" y="-173" width="746.79" height="965"/><path class="cls-7" d="M827.48,169.48s-3.34-1.2-4.27.8-2,11.88-.67,15.08,6.81,6.41,6.54,2.54S827.48,169.48,827.48,169.48Z"/><path class="cls-12" d="M837,183.48a1.75,1.75,0,0,0,.15-1c-.52-2.7-2.8-14.79-3.5-19.19-.78-5-11.63-2.74-13.35-.56-4.4,5.6-1.44,21.11-.37,25.41s7.25,20.66,10.38,25.43,12.48,11.57,15.65,12.26c1.42.31,1.57.47,1.3.56a1.13,1.13,0,0,1-1.42-1l-2.34-18-1.71-11a1.69,1.69,0,0,0-.23-.65l-7.45-12.47s-6-11.24-6.65-11.35-2.33.85-2.5,5.72a31.57,31.57,0,0,0,.9,8.64,42.19,42.19,0,0,1-1.45-4.68c-.18-.74-.34-1.51-.47-2.28A10.76,10.76,0,0,1,824,174a16.67,16.67,0,0,1,1.61-3.24,1.92,1.92,0,0,0-1.57-2.92H824s2.38-1.87,4.44,3.36a2.11,2.11,0,0,0,.18.33l8.14,12.34Z"/><path class="cls-4" d="M831.75,188.83s-4.54,7.47-2.4,10.41a15,15,0,0,0,4.8,4.27s2.14-8.54.8-11.21A7.31,7.31,0,0,0,831.75,188.83Z"/><path class="cls-4" d="M993.2,163.08s10.41-5.61,9.21,5.2-2.8,24.82-6,26.82S976,211.92,977.59,208.71s4.81-34,4.81-34Z"/><path class="cls-12" d="M988.88,174.93V164.82s4.46-6,9.39-4.7,6.47,1.93,6.62,9.15a57,57,0,0,1-4.46,21.79c-2.47,5.42-8.62,19.38-11.55,22.27s-13.56,8.73-13.56,8.73l2.11-14.73s11.6-12.18,12.84-15.19,2.77-5.53-.77-9.51c0,0-2.16-1.06,1.54-6.43a69.67,69.67,0,0,1,4.31-6s2.46.37,2.77,7.59l-.31,6.62s1.85-5.16,1.54-8.24A42.83,42.83,0,0,0,997,168s2-3.33,4.62-3.49c0,0-3.07-1.93-7.93,5S988.88,174.93,988.88,174.93Z"/><path class="cls-13" d="M845.89,244.93l4,67.06s-.6,6.61,16,17.41,50.84,25.62,57.64,33.83c0,0,18-16.81,29.62-29s17.62-14.21,19.22-34.83,4.3-83.16,4.3-83.16Z"/><path class="cls-4" d="M845.89,244.93s9.61,23.72,15.48,28,18.68,15.78,32.56,16.83,31.31,1,37.82-3.8,29.16-28.5,28.36-28.5S845.89,244.93,845.89,244.93Z"/><path class="cls-7" d="M816.94,101.83s4.4-27.62,28-45.23S888.19,23.77,921,29.78,977.85,57,986.06,67s20,50.1,12.77,89.17c0,0-8.42,19.45-12.77,34.36s-12.6,29.51-19,34.45-120.54-.1-120.54-.1l-4-13.37s-10.81,3.6-14-33.23c0,0-12.81-17.21-14.41-30.82S810.53,127.45,816.94,101.83Z"/><path class="cls-12" d="M845.49,246.74c-2.79-6.82-4-16-4-29.22s-5.2-40.43-5.2-40.43-.8-30.82,2-42,2.4-40.83,16-46.84,18.41-10,37.23-8.4,19,3.38,44.43,6c23.76,2.45,39.5,30,39.63,63.65,0,4.05,3.53,11.75,3.6,15.81.17,9.89-5.76,21.5-3.6,39.43a12.63,12.63,0,0,0,2,4c.86,1.25-2.56,29.59-5.2,37.63-7.21,13.88-4.27,14.68-30.62,31.93-11.78,9.4-12.15,13.8-46.77,5.79C880.81,280.78,849.89,257.49,845.49,246.74Z"/><path class="cls-7" d="M841.89,103.17a8.87,8.87,0,0,0,6.14.26c3.47-1.06-1.55,1.28,4.59-5.93s12-6.73,16.49-4.86,13.61-1,23.22-2.34,12.33-1.61,24.1.55c10.24,1.88,10.26,4.3,15.86,3.77s9.53,4,12.74,8.3,1.1,9.54,10.17,11.67,7.51,7.56,11.91,22c4.35,14.32,12.16,20.33,17.27,24.11,6.14,4.55,2.69-77.6-28-81.33S848.56,60.2,842.69,82.35,841.89,103.17,841.89,103.17Z"/><path class="cls-4" d="M885.72,232.43c-4.76.27-9.94,4.09-10.47,5.87s0,2,4.78,2h16.84c6.13,0,30.65-.37,34.39-1.3a27.26,27.26,0,0,0,9.37-4.84c1.07-1.07-.8-1.38-11.47-2.82S885.72,232.43,885.72,232.43Z"/><path class="cls-7" d="M899.67,182.07c5.88-2.67-7.36,2.22-9.22,5.43s-12.81,12.11-11.53,19.85,14.55,3.5,17,3.76,5.63-.16,9.68-5S899.67,182.07,899.67,182.07Z"/><path class="cls-14" d="M880.54,234.47s8.55-5.54,12.82-8,5.86-2.37,10.93,0c0,0,1.07,1,5.61-1.51s20,4.67,23.48,6.54-.29,2.95-1.07,2.94c-3,0-3.87-1.05-12.66-.64-5.44.25-5.61-.41-7.32.7-4.48,2.91-7.29.68-13.91,0-3.95-.41-10.41,2.87-15.48,3.67S880.54,234.47,880.54,234.47Z"/><path class="cls-15" d="M886.82,237.66c-1.14.31-4.79,1.34-4.26,3.48s10.67,7.47,21.75,6.67,21.88-3.07,27-7.07c2.34-1.82,4.77-4.44,3.7-4.71s-17.72-1.09-26.13.4C899.74,238.06,900.23,233.94,886.82,237.66Z"/><path class="cls-7" d="M887,146.13c-.8-.26-20.81-7.47-27.22-7.2s-16.28,6.4-17.88,11.21,0,4.53,0,4.53,4.8-6.14,8-6.4,9.6-2.4,17.88-.27,21.61,3.47,22.68,1.6S887,146.13,887,146.13Z"/><path class="cls-7" d="M926.19,142.38c2.07-.29,20.22-7.82,24.37-6.37s15.81,2.89,19.18,13.61-4.66-3.19-10.89-4.92-32.66,4.92-32.66,4.92-8,2.61-8.3,0S926.19,142.38,926.19,142.38Z"/><path class="cls-4" d="M865.11,162.48c-2.8,0-9.61,4.9-10,5.45s4.6.54,10.41,1.69,17-.54,19.81.06,7.41.09,3.81-3-9.81-4.84-15.42-4.24A31.47,31.47,0,0,1,865.11,162.48Z"/><path class="cls-16" d="M885.32,165.72c-.2-.67-13.36-11-25.22,0a14.41,14.41,0,0,0,12.37,5C880.72,170.08,882.51,168.74,885.32,165.72Z"/><path class="cls-4" d="M932.49,159.48a26.23,26.23,0,0,0-7.74,4.13c-1.47,1.06-7.34,4.82-1.33,4.28s15.42.54,19.18-.55c6.25-1.82,6-.67,7.37-1.62s3.47-.05,4.81,0,3.06-.46-1.74-3.35-14-3.21-19.45-3.21"/><path class="cls-16" d="M935.3,158.34s-5.94,2.61-7.14,4.58,6,4.76,11,5S950,163.11,950,163.11,947.65,156.8,935.3,158.34Z"/><path class="cls-17" d="M879.84,162.48a16.37,16.37,0,0,0-14.73,0s-.88,9,7.36,8.2S879.16,164.48,879.84,162.48Z"/><path class="cls-7" d="M887.79,167.48c2.06,1.43-5.94-9.27-16.23-7.69a30.92,30.92,0,0,0-15.66,7.83.17.17,0,0,0,.21.27C860.58,165.15,872.27,156.71,887.79,167.48Z"/><path class="cls-17" d="M946.53,159.68c-.22-.47-8.46-5.13-14.76,1,0,0-.85,8,7.39,7.19S945.85,161.68,946.53,159.68Z"/><circle class="cls-4" cx="872.46" cy="165.72" r="2.08"/><circle class="cls-4" cx="939.15" cy="162.92" r="2.08"/><path class="cls-12" d="M912.54,172.69c.8,12.61,11,21.5,11,21.5,11.75,11.95,1.42,16.37-2.77,16.52-14.56.56-27.85.81-27.85.81-20.47-1.41-5.21-17.33-5.21-17.33a34.13,34.13,0,0,0,10-21.1"/><path class="cls-7" d="M897.13,203.91s-6-3.6-8-2.4-4.16,6.06,1.32,5.83S896.93,206.51,897.13,203.91Z"/><path class="cls-7" d="M908,204.3s5.14-3.48,8.35-3,6.81,2.44,6.61,3-3,2.07-6.61,1.84S907.63,206.7,908,204.3Z"/><path class="cls-12" d="M972.39,246.34c-6.07,14.41-5.41,12.81-29.82,32.83-11.78,9.4-13,12.9-47.57,4.89"/><path class="cls-4" d="M926.32,197.38a5.33,5.33,0,0,1,3.24,6.12c-1.1,7.13-10.29,9.15-21.57,7.64C908,211.14,932.09,210.87,926.32,197.38Z"/><path class="cls-4" d="M921.36,160.7c-1,.76,8.8-6.63,15-7.23s18.42,1.35,22,5.68C958.38,159.15,936.39,149.71,921.36,160.7Z"/><path class="cls-7" d="M954.24,164.41c2,1.47-5.9-7.94-16.28-7.07-8.14.68-11.22,5.63-13.48,7.74-.48.45-2.36.54-2,1.09C924.71,169.69,935.36,150.79,954.24,164.41Z"/><path class="cls-4" d="M889.45,162.83c1,.76-8.79-6.62-15-7.22s-18.41,1.35-22,5.68C852.43,161.29,874.43,151.85,889.45,162.83Z"/><path class="cls-18" d="M826.15,189c1.12,3.16,1.33,3.07,1.33,3.07s-2.8-10.27-2.67-13.34S824.81,185.23,826.15,189Z"/><path class="cls-7" d="M926.05,171.49s10.81,4.9,17,4.8,11.4.7,12.11.1-14.5.74-24.72-3.76C929.23,172.09,925.75,170.48,926.05,171.49Z"/><path class="cls-4" d="M883.52,173.62s-11.74,6.4-18.68,7.21,5,.23,11.68-3.24S889.93,171,883.52,173.62Z"/><path class="cls-7" d="M882.86,174.36c-3.71.62-14.81,2.67-21.35,1.92-9.08-1,1.8.61,2.8.61,20.18-.09,12.07-.11,14.74-.51A5.8,5.8,0,0,0,882.86,174.36Z"/><path class="cls-7" d="M844,102.9c1.86,2.94,2.93,4.54,4.8,4s-3.25,4.33-6.56-.77S844,102.9,844,102.9Z"/><path class="cls-7" d="M937.43,203.47c3.22,0,3.22-5,0-5s-3.22,5,0,5Z"/><path class="cls-7" d="M887.89,262.75c.78-.47,18.72-14.41,37.2-1.06s-5.08-1.54-5.08-1.54a31,31,0,0,0-14.46-3C897.13,257.42,872,272.36,887.89,262.75Z"/><path class="cls-19" d="M899.52,151.29l-43.93,2.44s-24.71,4-24.4,18.32,4,33,11.59,35.73,30.51,3.06,34.47,1.22,12.2-6.41,17.69-20.46,7.63-14.66,7.63-14.66H909s8.23,25.05,21,32.68,37.83-2.14,39.66-4,11.59-26.57,10.06-33-8.54-18-31.72-18S899.52,151.29,899.52,151.29Z"/><path class="cls-5" d="M878.93,155.45s-28.37,1.53-33.55,5.19-8.85,3.66-9.15,12.83.61,24.43,4.27,27.79,18.3,6.1,22,6.1,14.34-.3,18.91-4.58,12.51-21.37,12.51-21.37L898.46,171s-3.36-15-7.93-15.27S878.93,155.45,878.93,155.45Z"/><path class="cls-5" d="M937.36,154.27s26.55-.91,33.56,9.47,4.58,17.1,4.58,17.1-3.66,15.27-7.32,18-23.49,8.55-31.43,5.19-16.77-8.55-23.18-28.4l-1.83-7s4.34-11.4,7.63-13.43C923.2,152.82,937.36,154.27,937.36,154.27Z"/><polygon class="cls-12" points="895.16 156.13 913.47 156.44 908.28 166.82 899.74 166.82 895.16 156.13"/><g class="cls-20"><rect class="cls-2" x="-14" y="0.94" width="612" height="791.82"/><path class="cls-21" d="M292.18,183.83s-6.1-8.85-9.76-5.19-9.76,9.16-9.76,9.16l21.66,3.67Z"/><path class="cls-21" d="M325.88,184.41s-8.05-11-12.88-6.47-12.88,11.41-12.88,11.41l28.58,4.56Z"/><path class="cls-4" d="M365.7,58.32c-7.32-15-27.41-32-40.26-36.34-13.24-4.42-39.36-2.75-55.83-.61s-34.78,5.5-34.78,5.5l2.44,14.05s-4,3-4.57-2.14a82.2,82.2,0,0,0-2.14-10.69c-1.52,0-9.46-.61-13.12,5.8s-2.13,55.28-2.13,55.28l-4,42.14,0,.53.9,18.44.74,15.19v0l1.13,22.83.86,17.81s-1.22,15.57,7.63,23.2l14.64,6.42,5.48-.11,112.73-2.21,6.26-.13s11.59-5.49,12.51-11.91c.74-5.19.48-21,.35-26.82,0-1.37-.05-2.19-.05-2.19l.32-19.81h0l.33-20.23.29-17.57h0l.28-17.49S373,73.29,365.7,58.32ZM305.3,186.89c.92-4,11.59-7,11.59-7,1.16-.13,2.31.88,3.26,2.09-3.15,3.13-9.39,5.33-14.48,6.49A1.66,1.66,0,0,1,305.3,186.89Zm-27.22-.46c0-.29.07-.46.07-.46s6.71-5.19,9.76-1.83c2.47,2.71,3.93,4.63,4.42,5.26A45.93,45.93,0,0,1,278.08,186.43Z"/><polygon class="cls-3" points="230.89 737.27 172.86 890.48 132.33 806.2 163.45 751.84 230.89 737.27"/><polygon class="cls-3" points="390 805.75 381.78 895.73 277.88 900.68 276.96 886.07 196.8 892.11 187.85 816.49 221.41 730.83 223.19 677.94 227.54 548.93 252.33 618.41 271.29 644.82 277.88 633.27 293.14 627.49 295.8 617.97 318.53 707.6 305.1 793.98 301.38 816.49 323.47 794.2 348.65 768.81 390 805.75"/><path class="cls-3" d="M352.09,462.13,348.22,507l-.56,6.48-6.92,80.4L331,706.53l-7.56,87.67-22.08,22.29,3.7-22.51,13.44-86.38L295.8,618h0l3.11-11.1L245.63,391.21v0l-1.4-5.7L238.42,362c-.59-2-1.13-4-1.62-5.89s-.91-3.55-1.27-5.25a18.37,18.37,0,0,1-1.19-4.19l.08-2,0-1.15.37-10.8.61-18.19,1.86-55.19,4.56,8.07,32.29,57Z"/><path class="cls-3" d="M578,657.23C578,661.37,564,528,564,528s-5.4-46.44-6.61-59c-1.31-13.58-.47-41.12-3.29-54.47-3.39-16-17.27-46.43-19-62.72-.41-4,1-12.13,0-16-1.92-7.14-14.83-25.58-14.83-25.58l-52.77,29.18V776.88l9.15,3.92,43.62,18.67L531,804.05l50.29,21.52V794S578.2,661.21,578,657.23ZM520.29,787.32v-4.66l-7.42-19-5.21-22.48,5.21-.64L531,782.66A30.42,30.42,0,0,1,520.29,787.32Z"/><path class="cls-4" d="M531,782.66v53.65H475.77l.58-35.5.32-20,4-249,12.67,18.15v0l7.13,94.9,7.42,41.28L531,782.66l-18.14-42.1-5.21.64,5.21,22.48,7.42,19v4.66A30.42,30.42,0,0,0,531,782.66Z"/><path class="cls-3" d="M512.87,763.68l7.42,19v18.15H396.61L352.09,612.63l25.09-258,8.15-83.87c1.55,1.65,135,39.46,135,39.46l-29.68,99.33,2.77,140.31v0l1.35,68.49,7.42,99,5.51,23.75Z"/><path class="cls-4" d="M520.29,787.32v-4.66l-7.42-19-5.21-22.48,5.21-.64L531,782.66A30.42,30.42,0,0,1,520.29,787.32Z"/><path class="cls-3" d="M520.29,782.66v4.66a34,34,0,0,1-16.9-.53l-17.73-42.93,22-2.66,5.21,22.48Z"/><path class="cls-3" d="M437.28,498l44.26-22.33V498s-12.93,9-22.13,13.16-38.88,16.5-38.88,16.5Z"/><path class="cls-3" d="M380.52,689.31c-6.08,9.64-10.29,14.94-10.29,14.94l23.09,65.2L390,805.74l-41.35-36.93L323.47,794.2l-22.08,22.29,3.7-22.51,13.44-86.38L295.8,618h0l3.11-11.1L245.63,391.21v0l-.21-3.35-.36-5.73h0l-1.55-24.51-.08-1.18v0l-.19-3-.29-4.69-.52-8.13-.53-8.37L241,318.41l-3.73-59,4-.28,116.11-8.18,8.71-.61L442,331.2l-14,11.54,21.43,12.39c7.43,45.39-15.66,165.89-28.85,234.14C411.78,634.52,392.51,670.33,380.52,689.31Z"/><path class="cls-5" d="M352.09,765.32l-3.44,3.49L323.47,794.2l-22.08,22.29,3.7-22.51,13.44-86.38L295.8,618h0l3.11-11.1L245.63,391.21v0l-1.4-5.7c.39.77.79,1.55,1.19,2.35,22.7,44.89,63.44,134.9,83.75,180.15,5.89,13.11,10,22.46,11.58,25.88l.63,1.43Z"/><path class="cls-5" d="M420.53,833,390,805.74l-41.35-36.93L336.43,757.9,331,706.53l-11.1-105.45L329.16,568l.67-2.4L348.22,507l11.44-36.47,8.89-72.34,5-78.54,5-22.29L376.82,370V419.5s4.13,264.12,3.31,267.42a8.58,8.58,0,0,0,.39,2.39C384.35,705.36,413.93,794,413.93,794Z"/><polygon class="cls-4" points="183.07 717.45 160.81 774.4 167.4 782.66 206.16 730.82 183.07 717.45"/><path class="cls-6" d="M271.29,644.82l-5,14H240.79a46.12,46.12,0,0,1-17.6,19.08,42.52,42.52,0,0,1-12.09,4.85v0c-1.49-1-97.27-64.46-95.62-76.73S94.85,331.2,94.85,331.2L202,291.58a.39.39,0,0,1-.05.14L182,347.6c-.11.27-.19.53-.28.76l-.36,1c-.11.3-.2.54-.26.72s-.08.27-.11.35l-.05.12h0L198.74,362l-23.09,20.34,35.45,120.5,16.44,46.06,24.79,69.48Z"/><path class="cls-6" d="M211.1,682.79C202,686.1,188,705.08,188,705.08l-5,12.37a.18.18,0,0,1,0,0s-6.75,15.25-8.24,20.58c-3,10.88-7.42,44.58-7.42,44.58l-25.55-9.08s-10.81-5.76-14-8.26c-8.3-6.42-29.68-29.7-29.68-29.7s-54.07-42.79-61.84-63.56c-6.52-17.42-3.61-57.37,4.12-74.28,1.1-2.4,5.62-5.8,6.59-8.26.91-2.3-.12-7.43,0-9.9.58-11.2,9.9-43.75,9.9-43.75l4.95-8.24s6.53-66.19,12.37-87.5c3.54-12.93,16.26-47.28,16.26-47.28s.62-10.75.23-13.79c-1.53-11.91,4.12-47.86,4.12-47.86h9.89L141,437.66l20.61,98.21-.82,94.1,12.05,12.65,38.23,40.15Z"/><path class="cls-4" d="M372.71,331.2c1.65,4.11-5.77,93.26-10.73,127.1-2.07,14.19-8.06,35.37-14.32,55.17-8.67,27.38-17.83,52.12-17.83,52.12l-80-170.85s-2.12-5.23-4.8-12.63h0c-2.1-5.84-4.57-13-6.63-20.07-.59-2-1.13-4-1.62-5.89s-.91-3.55-1.27-5.25c-.48-2.19-.86-4.28-1.11-6.18q0-.33-.09-.63c-.05-.46-.11-.9-.14-1.34a24.06,24.06,0,0,0-2-7.89c-3.95-8.58-12-7-12-7-17.77,12.59-30.56,19.21-39.25,22.67h0c-10.66,4.24-15.17,3.74-15.17,3.74s4.09-18,7.42-23.1c13.77-21,28-37.55,28.8-39.48a.39.39,0,0,0,.05-.14h0c3.74-7.63,6.32-13,9.41-17.55A97.41,97.41,0,0,0,221,256.09c4.95-16.51,17.31-16.51,17.31-16.51l1.67,0,117.79,3.23.92,0,7.42,7.43c13.19,46.22,38.15,49.2,50.3,66,3.55,4.92,4.12,23.94,4.12,23.94S371.06,327.07,372.71,331.2Z"/><polygon class="cls-7" points="161.63 535.88 160.81 629.97 172.85 642.62 172.85 634.1 183.07 634.92 161.63 535.88"/><path class="cls-8" d="M319.93,740.56c5,0,0,7.43,0,7.43s-39.22,20.16-53.59,21.46c-19.4,1.77-55.17-11.16-75.89-17.62-3.83-1.2-6.48-2.24-7.38-3-5.64-4.84-.27-30.15,0-31.32a.18.18,0,0,0,0,0s3.33-9.46,5-12.37c3.91-7,14-19,23.08-22.29,21.44-4.95,21.72-18.7,29.69-23.93,5.34-3.51,25.55,0,25.55,0l-10.71,23.93s4.94,15.68,19.79,20.63,33.8,4.13,33.8,4.13l6.59-14s9.9,5.88,9.9,14.09c0,6-.44,11.6-7.18,16.77C331.14,729.64,319.93,740.56,319.93,740.56Z"/><path class="cls-6" d="M277.88,757.9s37.11-17.34,42.05-17.34"/><path class="cls-9" d="M284.25,737.27s7.65-.83,24.14-7.43a43.34,43.34,0,0,0,10.14-5.46"/><path class="cls-4" d="M315.81,693.52l-6.59,14s-19,.83-33.8-4.13-19.79-20.63-19.79-20.63l10.71-23.93,5-14,6.59-11.55,15.26-5.78,5.77-20.63Z"/><path class="cls-6" d="M298.91,606.86,295.8,618h0l-2.66,9.52-15.26,5.78-6.59,11.55-19-26.41-24.79-69.48L211.1,502.87l-35.45-120.5L198.74,362l-17.81-11.47c8.69-3.46,21.48-10.08,39.25-22.67,0,0,8.1-1.62,12,7a24.06,24.06,0,0,1,2,7.89c0,.44.09.88.14,1.34a9.2,9.2,0,0,0,0,2.62,18.37,18.37,0,0,0,1.19,4.19c.36,1.7.79,3.45,1.27,5.25s1,3.91,1.62,5.89l5.8,23.46,1.4,5.7v0Z"/><path class="cls-6" d="M235.53,350.89a18.37,18.37,0,0,1-1.19-4.19,9.2,9.2,0,0,1,0-2.62q0,.3.09.63C234.67,346.61,235.05,348.7,235.53,350.89Z"/><path class="cls-1" d="M238.42,362s31.23-28.37-4.23-48.17c-30.49-17-47.92,22.38-52.21,33.74-.11.27-.19.53-.28.76-.29.77-.49,1.37-.62,1.73-.05.16-.08.27-.11.35a.64.64,0,0,1,0,.12"/><path class="cls-4" d="M298.91,606.86,315,570.54s12.36-9.9,4.94,14-14.83,47-14.83,47l27.2,27.24s3.3,6.59-6.59,20.63l-9.9,14"/><path class="cls-4" d="M160.81,630l-23.09-28.89s-22.09-11.17-42-12.11a46.71,46.71,0,0,0-8.32.28C66,592,56.92,592.83,55.27,596.13s12.37,0,12.37,0,36.6-19.88,70.91,13.3l34.31,33.19"/><path class="cls-4" d="M48.13,617.06c5.71,2.18,18.92-15.47,18.92-15.47v-2.44s-16.19,6.26-18.92,11C47.27,611.66,46.52,616.45,48.13,617.06Z"/><path class="cls-10" d="M277.88,737.27c.27-1.31,6.16-1.87-6.59-3.75l-18.19-2.7s-7.19,7.68,2.53,10.38"/><path class="cls-13" d="M363.87,153l13.43-21.07s4-6.41,8.23,2.75-2.13,28.09-2.13,28.09l-2.75,25s-4.88,9.47-12.5,8.25S363.87,153,363.87,153Z"/><path class="cls-13" d="M302.75,357.56s-51.67-52-59.78-73.36c-4.33-11.4-3.26-48.66-3.26-48.66l118.57-3.46s1.36,32.91-2,43.16c-7.87,23.77-28.37,59.26-44.5,75.06C310.05,352,302.75,357.56,302.75,357.56Z"/><path class="cls-13" d="M230.56,192.38c-3.05-1.52-22-.3-22-13.13s-1-20.61-3.1-27.15c-.81-2.59-3.31-9.8-3.31-9.8s-6.72-10.61,6.71-11c4.8-.14,9.15,6.72,13.43,13.74s18.3,34.2,18.3,34.2Z"/><path class="cls-12" d="M221.72,158.79c-3.28-2.57-7-15.08-10.47-12.95-3.12,1.89.7,11.42,1,16.31s5.18,12.22,9.46,13.13a68.88,68.88,0,0,0,11.28.92l-3.35-15.88S223.31,160,221.72,158.79Z"/><path class="cls-4" d="M237.27,233.3l50,43.67,19.83,10.39s3.05,1.83,11-7.64,36-44,36-44l11.59-10.39Z"/><path class="cls-12" d="M368.76,158.49s9.57-15.42,13.42-12.83c1.56,1.05-2.17,5.23-2.75,7-1.19,3.71,1.36,11.93,0,15.58-1.28,3.44-10.67,10.08-10.67,10.08l-6.11-7.64Z"/><path class="cls-12" d="M371.1,196c-.39-6.3-1.22-13-1.93-18.05s-1.33-8.47-1.33-8.47-.27-2.94-.73-7.68v0c-.23-2.3-.51-5-.83-8.06h0c-.14-1.23-.27-2.53-.4-3.86a2.6,2.6,0,0,1-.05-.39c-.65-5.93-1.42-12.61-2.26-19.26,0,0,0,0,0,0-.39-3-.79-6.08-1.21-9-1.45-10.22-3-19.4-4.59-24.36-4.88-15.57-5.49-23.82-30.5-22a72.25,72.25,0,0,1-22.58,2.75c-11.9-.61-50.94-.92-60.71,2.75S232.39,95,230.26,104.74a184.76,184.76,0,0,0-3,19.24l-.14,1.66c-.33,4.26-1.19,15.87-1.55,25h0c-.11,2.61-.18,5-.17,7v0c0,.64,0,1.23,0,1.78v.21l.37,16.15h0l.37,15.66.48,20.09s-1.69,7.72,16.15,24c2.24,2,4.76,4.21,7.64,6.52C276.32,262.93,285.47,266,285.47,266S316,270.87,330,257.43c7.58-7.26,17.35-15.6,25.47-24,6.91-7.14,12.63-14.31,14.8-20.89C371.45,209,371.51,202.69,371.1,196Zm-93-9.57c0-.29.07-.46.07-.46s6.71-5.19,9.76-1.83c2.47,2.71,3.93,4.63,4.42,5.26A45.93,45.93,0,0,1,278.08,186.43Zm27.22.46c.92-4,11.59-7,11.59-7,1.16-.13,2.31.88,3.26,2.09-3.15,3.13-9.39,5.33-14.48,6.49A1.66,1.66,0,0,1,305.3,186.89Z"/><path class="cls-11" d="M354.62,338.35c-1.42.62-4.88,2.24-3.66,9.37s11,2,11,2,2-4.08,1.63-7.54a10.19,10.19,0,0,1,1-5.9s5.28,2.85,2.44,11-3.87,11.61-11.19,11-13.22-5.91-13.42-9.37-.41-12,6.71-14.66,10.58-1,10.58-1l-.61,5.49Z"/><path class="cls-11" d="M343,363.4c-1.43.61-4.88,2.24-3.66,9.36s11,2,11,2,2-4.07,1.63-7.54a10.23,10.23,0,0,1,1-5.9s5.29,2.85,2.44,11-3.86,11.61-11.18,11S331,377.44,330.83,374s-.41-12,6.71-14.66,10.57-1,10.57-1l-.61,5.49Z"/><path class="cls-11" d="M324.19,388.25c-1.55.12-5.34.57-6.44,7.72s9.77,5.41,9.77,5.41,3.22-3.22,3.93-6.63a10.22,10.22,0,0,1,2.83-5.27s4.12,4.38-1.16,11.2-7.34,9.78-14.09,6.88-10.67-9.79-9.77-13.14,3.42-11.52,11-11.78S330.62,385,330.62,385l-2.32,5Z"/><path class="cls-11" d="M293.41,391.79c-.83-1.31-3-4.47-9.82-2.14s-.27,11.18-.27,11.18,4.34,1.37,7.69.42a10.24,10.24,0,0,1,6,.07s-2,5.67-10.46,4.15-12.06-2-12.62-9.31,3.73-14,7.12-14.76,11.78-2.3,15.52,4.32S299.24,396,299.24,396l-5.52.27Z"/><path class="cls-11" d="M267,371c-.56-1.44-2.05-5-9.21-4s-2.45,10.91-2.45,10.91,4,2.19,7.45,1.92a10.21,10.21,0,0,1,5.86,1.24s-3.05,5.18-11.07,2S246.1,378.77,247,371.47s6.4-13,9.86-13.07,12,.05,14.38,7.28.6,10.61.6,10.61l-5.46-.82Z"/><path class="cls-11" d="M249.07,354.59a7,7,0,0,1-5,3,3.07,3.07,0,0,1-.53,0,5.77,5.77,0,0,1-1,0,13.36,13.36,0,0,1-4.46-1l-1.21-.48c-.48-1.8-.91-3.55-1.27-5.25.13.35.23.55.23.55a17,17,0,0,0,6.7,1.93,6.35,6.35,0,0,0,.76,0h0a10.91,10.91,0,0,1,2.32.08A9.5,9.5,0,0,1,249.07,354.59Z"/><path class="cls-11" d="M252.77,348.18a6,6,0,0,1-.46,1.65l-4.32-.65-1.14-.17.53-4.1.05-.36a5.93,5.93,0,0,0-5-4,14,14,0,0,0-4.21,0,4,4,0,0,0-3.76,3l-.12.52c-.05-.46-.11-.9-.14-1.34a24.06,24.06,0,0,0-2-7.89,11.88,11.88,0,0,1,2.59-2.09,5.27,5.27,0,0,1,2.5-.83,30.39,30.39,0,0,1,4.57.22c3.38.48,7.29,1.84,9.21,5.64a9.61,9.61,0,0,1,.6,1.42A19,19,0,0,1,252.77,348.18Z"/><path class="cls-11" d="M351,347.72c1.88-1.56,10.78-6.31,8.34,5.09s-5.37,14.21-9.76,15.47c-2.15.62-7.53.41-6.31-6.31A24.45,24.45,0,0,1,351,347.72Z"/><path class="cls-11" d="M361.54,324.1c3.25-1.22,11-.61,10,3.26-3,11.28-5.37,14.21-9.76,15.47-2.14.62-7.53.41-6.31-6.31S357.74,325.53,361.54,324.1Z"/><path class="cls-11" d="M337.87,372.71c2.18-1.09,11.93-3.68,6.95,6.86s-8.47,12.6-13,12.83c-2.23.12-7.42-1.32-4.7-7.58A24.4,24.4,0,0,1,337.87,372.71Z"/><path class="cls-11" d="M310.75,394.1c2.17,1.13,10,7.49-1.44,9.67s-15.17.57-18-3c-1.4-1.73-3.3-6.78,3.36-8.26A24.4,24.4,0,0,1,310.75,394.1Z"/><path class="cls-11" d="M281.59,385.18c.88,2.28,2.51,12.25-7.49,6.27s-11.71-9.66-11.5-14.23c.11-2.23,2-7.26,8-4A24.42,24.42,0,0,1,281.59,385.18Z"/><path class="cls-11" d="M259.35,361.2c.29,2.43-.55,12.49-8.79,4.26s-9-12.22-7.7-16.6c.64-2.14,3.74-6.55,8.72-1.88A24.5,24.5,0,0,1,259.35,361.2Z"/><path class="cls-6" d="M318.22,540.72c.81,1.83,10.37,24.43,10.37,24.43l.57,2.84"/><path class="cls-6" d="M242.15,377.65c.61.4,3.46,7.73,3.46,7.73l2.85,7.54"/><path class="cls-7" d="M271.44,235.14s-2.87,15.43-.61,19.85c2.11,4.13,11.29,7.63,16.47,8.55s33.47-1.09,35.91-2.92,17.53-11.87,17.78-18.46c.16-3.94-2.44-15.57-2.44-15.57v15.57S334,251,327.27,255s-9.77,7.94-40.58,5.19c0,0-11-3.36-12.81-6.72S271.44,235.14,271.44,235.14Z"/><polygon class="cls-4" points="277.54 221.7 292.8 233.91 312.93 232.08 325.74 220.17 318.73 222.92 287 227.2 277.54 221.7"/><path class="cls-4" d="M298.29,192.69l-.31,5.8s-20.74,1.22-24.4,7-5.19,14.66-5.19,14.66-13.73-11,2.14-22.9C270.53,197.27,275.1,192.38,298.29,192.69Z"/><path class="cls-4" d="M301.62,192.69l.3,5.8s20.77.61,24.43,6.41,5.16,15.27,5.16,15.27,13.73-11-2.13-22.9C329.38,197.27,324.8,192.38,301.62,192.69Z"/><path class="cls-9" d="M322.08,178.64a6.38,6.38,0,0,1-1.93,3.31c-.95-1.21-2.1-2.22-3.26-2.09,0,0-10.67,3.06-11.59,7a1.66,1.66,0,0,0,.37,1.55,44.94,44.94,0,0,1-5.25.89,51.91,51.91,0,0,1-8.09.07c-.49-.63-1.95-2.55-4.42-5.26-3.05-3.36-9.76,1.83-9.76,1.83s0,.17-.07.46a18.47,18.47,0,0,1-6-3.82c-6.41-6.41,1.25-12.92,1.25-12.92l2.28-1.81.13-2.37L283.34,153l8.23-18.63h9.16l3.35,9.77L316,164l2.91,4.54A10.93,10.93,0,0,1,322.08,178.64Z"/><path class="cls-22" d="M273,215.9s2.13-9.16,13.72-9.77,39.66-1.23,39.66-1.23"/><path class="cls-19" d="M290.66,114.82l-43.93,2.44s-24.71,4-24.4,18.32,4,33,11.59,35.73,30.5,3.06,34.47,1.22,12.2-6.41,17.69-20.46,7.63-14.65,7.63-14.65h6.41s8.23,25,21.05,32.67,37.82-2.14,39.65-4,11.6-26.57,10.07-33-8.54-18-31.73-18S290.66,114.82,290.66,114.82Z"/><path class="cls-5" d="M269.92,119.09s-28.38,1.53-33.56,5.19-8.85,3.67-9.15,12.83.61,24.43,4.27,27.79,18.3,6.11,22,6.11,14.34-.31,18.92-4.58,12.5-21.38,12.5-21.38l4.58-10.38s-3.36-15-7.93-15.27S269.92,119.09,269.92,119.09Z"/><path class="cls-5" d="M328.79,118.79s26.54-.92,33.56,9.46,4.58,17.1,4.58,17.1-3.67,15.27-7.33,18-23.49,8.55-31.42,5.19S311.4,160,305,140.16l-1.83-7s4.34-11.41,7.62-13.44C314.63,117.34,328.79,118.79,328.79,118.79Z"/><polygon class="cls-23" points="287 118.79 305.3 119.09 300.12 129.47 291.57 129.47 287 118.79"/><path class="cls-9" d="M292.33,189.4a45.93,45.93,0,0,1-14.25-3c0-.29.07-.46.07-.46s6.71-5.19,9.76-1.83C290.38,186.85,291.84,188.77,292.33,189.4Z"/><path class="cls-9" d="M320.15,182c-3.15,3.13-9.39,5.33-14.48,6.49a1.66,1.66,0,0,1-.37-1.55c.92-4,11.59-7,11.59-7C318.05,179.73,319.2,180.74,320.15,182Z"/></g></g></svg>