<svg xmlns="http://www.w3.org/2000/svg" xmlns:xlink="http://www.w3.org/1999/xlink" viewBox="0 0 1222.31 792"><defs><style>.cls-1,.cls-15{fill:none;}.cls-2{fill:#ba1c85;}.cls-3{clip-path:url(#clip-path);}.cls-11,.cls-22,.cls-4{fill:#231f20;}.cls-14,.cls-15,.cls-16,.cls-18,.cls-19,.cls-20,.cls-21,.cls-22,.cls-4,.cls-5,.cls-6,.cls-7,.cls-9{stroke:#231f20;stroke-miterlimit:10;}.cls-14,.cls-15,.cls-16,.cls-18,.cls-21,.cls-4,.cls-5,.cls-6,.cls-7,.cls-9{stroke-width:0.75px;}.cls-10,.cls-5{fill:#f9a460;}.cls-6{fill:#1253a5;}.cls-7{fill:#51c3c7;}.cls-8{fill:#f89f62;}.cls-9{fill:#cfca2a;}.cls-12,.cls-18{fill:#f9a561;}.cls-13,.cls-16{fill:#fff;}.cls-14{fill:#935427;}.cls-17{clip-path:url(#clip-path-2);}.cls-19{fill:#9a3d3d;}.cls-19,.cls-20{stroke-width:1.07px;}.cls-20{fill:#8f3936;}.cls-21{fill:#7d4e1c;}.cls-22{stroke-width:0.74px;}</style><clipPath id="clip-path"><rect class="cls-1" x="14" y="-122.3" width="592.95" height="916.38"/></clipPath><clipPath id="clip-path-2"><polyline class="cls-1" points="618.36 -124.92 1211.31 -124.92 1211.31 791.46 618.36 791.46"/></clipPath></defs><title>TZTommy</title><g id="Background"><rect class="cls-2" x="-54.46" y="-39.22" width="1332.13" height="874.59"/></g><g id="Layer_3" data-name="Layer 3"><g class="cls-3"><path class="cls-4" d="M422.53,341.38l43.17,22.46s59.9,26.2,66.13,32.44,27,24.46,35.69,49.91,11.23,36.94,11.23,36.94L582,498.6l3,45.17,6.74,37.68s4,10,4.74,14.23,6,27.45,4.24,38.93-1.59,14.7-11.73,22.71a113.43,113.43,0,0,0,0,24.21c1.5,12,5.24,28,5.24,28,0,.28,4.1,13.19,4.31,25.83.11,6.33-.81,25.33-.81,25.33L597,815l-128,31.7-41.31-98.08,27.08-368.47-53.16-45.8-5.24-7Z"/><path class="cls-4" d="M264.31,300s-5.74-1.5-12.23,4.49-15.72,23-15.72,23l-2.75,5.49-68.38,21.22s-41.17,10.73-48.91,14.72-33.44,25.46-33.44,25.46-15.47,19.71-20,28.45S44.2,469.4,44.2,469.4l-6,26.71-4,37.93-1.74,57.9L31,625.63s-2.33,5.13,9.47,14.49l.82.65s2.14,19.51.19,27.53c-1.66,6.84-5.74,13-7.24,27.2s-3.43,38.93-3.43,38.93L28,802.06l123.28,1.25,199.15,9.49L456.47,390.29l-60.65-66.38s-2.24-11.48-4.74-15.47-12.72-8.65-12.72-8.65Z"/><path class="cls-5" d="M45.94,644.84,43.7,670.55s-4.49,20-5.74,27-3,41.43-3,41.43l-2.49,59.39h84.6l1-29,1.24-77.11s-4.49,8.23-8.73,10.23S96.85,726,96.85,726s1.25-11.23,5.24-18.72l6.49-7.48s12.48-19,13.48-24v-7l-4.74,2.25.75-6.49-8,2.74s-3.39,2.55-4.74,2.75c-4.77.7-14.73-3.5-19-3.5s-11.48-2.74-11.48-2.74L54.18,653.33s-6-3.75-6-5S45.94,644.84,45.94,644.84Z"/><path class="cls-5" d="M509.25,794.08V729.32l6,7.48v-9.73l-3,3S507.88,721,507,717.71c-1.6-5.89-1.85-14.11-2.09-24.33a49.35,49.35,0,0,1,.22-7.11A75.84,75.84,0,0,0,517.86,693c6,2.24,23.58-.38,23.58-.38l-1.87,2.62s20.59-11.23,28.08-19.09,18-16.84,18-16.84-.74,12.35,3,32.19,5.63,21.51,6.74,28.82c3.24,21.48-1.87,86.85-1.87,86.85l-85.35,2.62Z"/><path class="cls-6" d="M77.26,406.26S55.55,443,51.81,462s-10.11,31.82-11.61,52l-3.74,24.34-2.25,61v23.21s3,13,21.53,22.21c17.16,8.56,39.31,15.61,48.13,16.9.7.1,1.32.17,1.84.2a29.18,29.18,0,0,0,13.1-2.62v-6.74a77.54,77.54,0,0,0,6-28.45c.38-16.47,0-41.55,0-41.55l-17.22-68.13s19.1,52,19.84,67.38c0,0-1.74-47.54-5.36-58L111,471,95.23,412.63l-8.61-16.1S84.7,393,77.26,406.26Z"/><path class="cls-6" d="M263.31,301.7s-8.49,2-10.48,5.74-12,17-12,17l-12.23,25.7s-13.16,26.61-18.47,34.94c-3.07,4.83-13.22,17.47-14.22,18s-5,5,1.25,4.24,27.45-5.36,33.19-11.16,26.45-13.79,30.94-11.55c0,0-3.49,11.11-3.24,11.55s-1.75,2.43,2.49,7.67,50.91,41.67,50.91,41.67l9,10.49,1.5-3.75L296,424s-21-25.45-24.21-31.69-9.73-30.45-12-46.92-4.28-24.73-3.25-32.94C257,309.29,258.57,306.19,263.31,301.7Z"/><path class="cls-6" d="M377.48,304.44s11.23,1.69,14.79,14.79S405.56,354,408.18,357.6s26.39,35.38,37.43,44.92c0,0,2.06,3.56-4.86,1.5S424,401,418.66,399.15c-4.22-1.42-12.07-6.07-15.16-9.36,0,0-7.3-8-17.78-8.79l3.93,16.65-27.52,26-15.72,13.85-20,16.47L322,455.93S335,437.52,343,430.6s21.15-24.71,21.15-24.71l7.86-19.28L376.36,354l2.43-23.2s2.25-13.48,1.13-17.79C379.35,310.89,377.86,309.87,377.48,304.44Z"/><path class="cls-7" d="M398.57,330.4s4.49,15.47,11,24.46,15.47,22.7,25.21,32.44,13.47,15,13.47,15,2.5,4.49-8.73,4.24-26.71-2.24-31.95-6.24-13.7-11.6-16.72-11,3.58,7.19,3.25,9.74c-.86,6.62-20.22,17.47-20.22,17.47L345.16,441l-23.2,17s-2.5,5-3.5,20-1.25,60.89-1.25,60.89v37.93l-1,48.17L315,673.54l-3.25,166.71,178.69-5V631.87l4.24-27.71,5.49-43.67,3-38.93,5-32.44s3.74-21.46,10.48-33.19S537.82,421,537.82,421l5.74-9.24s-10.23-12.22-19.21-17-96.71-47.16-96.71-47.16Z"/><path class="cls-7" d="M143.77,363.59s-54.4,19-55.65,30.94c0,0,7.74,14,8.73,18.47s11.48,38.43,11.48,38.43l10.48,43.43s11,53.4,11,54.65,1.49,61.14,1,66.38-1.49,63.89-1.49,63.89V798.32H308.48l1.8-48.41L311.72,662,314,549l1-46.67,1.74-33.94a30.92,30.92,0,0,1,2.75-12.72S307.23,444,306,444s-28-19-28-19l-18.46-19s-4.75-4.61-3.5-9.91l1.25-5.31s-7.85,4.31-10.73,4.24c-3.37-.07-5-2.24-13.23,2.5s-22.46,13.23-37.18,12,4-16,4-16,13.73-19.22,17.72-30l15.47-27.7S149.61,361.46,143.77,363.59Z"/><path class="cls-6" d="M544.81,413s18.47,23.71,21.46,42.93c0,0,11.73,28.2,12,52.65s2.75,31.95,4.24,42.68,7.24,35.44,7.24,35.44,4.49,7.23,5.62,13.47,4.61,27.7,3.87,31.2,1.74,10-8.74,19.21-40.37,32.94-40.37,32.94-16.53,4.25-28.76,3S504.88,680,504.88,680s1.5-2.5,1.5-10-5.74-21.21-7-23.21l7.74-30.45-7.74,21.46s-1.75-7.23-1.75-9-1.74-10.73,2.5-21.71,13-30.2,13-30.2l-5.24,5.49,5.49-12.72,2-6.49,3-6.24,2-11,10.49-21.22,12.72-17-13.72,15.48-12.23,20.46-7,17.72-3.24,10.73-4,9.48-1.74,8.24-1.5,2.25,1.25-20,3.49-22.34L506.13,531l3.49-38.43s8.49-27.2,9.49-29.7,3.49-12.22,21.71-43.17Z"/><path class="cls-4" d="M378.11,300.45c.25-.66,0-10.48,0-10.48a17.18,17.18,0,0,0,6.48-3.74c2.63-2.62,3.24-5.29,3.94-7.43C389.62,275.45,391,265,391,265s2.12-2.75,4.86-9.49,8.61-22.33,9-28.32,1.37-15.23,0-17.35-1-4.37-8.11-4.74l.75-22.59,2-29.07S399.19,135.12,391,122c0,0-9.73-18.47-19.34-22.46,0,0-8.24-4.87-10-9.86s-25.09-5.12-25.09-5.12-10.85-7.86-33.81-5.11c0,0-12.35,0-27.58,19.34,0,0-20.09,15.1-28.07,27.45s-4.74,38.56-4.74,38.56l2,9,.88,30.57a6.56,6.56,0,0,0-4.75,6.12c-.37,5.11-2.49,12.35-1.12,23.45s5.87,17.72,5.87,17.72a24.48,24.48,0,0,0,8.11,12.23s2.37,9.23,3.24,14,6,8.73,6,8.73l1.25,2.87.25,12.23,30.07,17.09,40.93,18.1Z"/><path class="cls-8" d="M283.27,405.27,322,450.19l24.7-26.46s17.22-20.46,18.72-24.45,5.74-10,6.74-23.21,2-40.18,2-40.18l1.25-41.68-16.47,15.23s-18.83,14.38-21.46,15.72c-2,1-19.47,1.74-22.46,0s-36.19-25.37-36.19-25.37l-13.22-12.07V327.4l-1.75-8.23s-2.07,6.11-2.25,8.23c-.57,6.88,2.75,27.46,2.75,27.46l6.24,26.45s4.16,12.15,9.23,19l5.07,6.82"/><path class="cls-9" d="M264.47,355.56s15.74,19.75,17.68,21.63c2.6,2.52,5,8.36,27.58,13.35S343,387.42,343,387.42s11.83-6,15.35-8.61c4.44-3.31,15.22-14.85,15.35-16s.12,10.86-4.37,14.85-25.58,16-25.58,16-20.21,11.11-47.29,0-31.57-30.07-31.57-30.07Z"/><path class="cls-10" d="M261.56,269.76c.63.62-1.5,9.6,11.48,23.2,0,0,14.35,11.48,17.22,13.11s16.67,13.34,23.21,16c5.85,2.35,17.83,3.37,25.21-.63,5.19-2.81,17.47-11.85,19.34-13.6S377.23,291,379.6,284.6s3.53-13.47,4.33-24.83l1.79-16.34a232.13,232.13,0,0,0,1.87-31.07s-2.5-3.75-3.62-15.6-1.62-43.42-1.62-43.42-3-15.73-7.24-22.09-18.72-6-21.83-4.74-19,7.24-30.45,6-19.84-5.24-22.34-7.24-20.71.5-23.33,2.87-7.36,4.62-10.48,14.23-3.25,21.08-3.25,27.2-.62,20.34-.62,20.34l-5,12,.62,31.56,2,21.09Z"/><path class="cls-10" d="M254.57,226.08s-1.87-14.1-2.37-18.84-10.6-.87-10.85,1.75-1.37,17.34-.63,21.46,5.24,19.84,7.62,24.46,9.6,11.35,12.1,12.1,0,.62,0,.62l-1.5-18.21-1.12-10.86-5.74-12.35s-4.49-10.86-5-11-1.87.75-2.12,5.36a35.57,35.57,0,0,0,.5,8.24s-2.38-8.11-1.13-11.61,2.12-4,2.12-4a2.25,2.25,0,0,0-2-1.87s2-1.74,3.49,3.49L254.2,227Z"/><path class="cls-11" d="M254.08,232.2s-2.38,1.37-.88,8.86,2.36,8.33,4.62,9H259v-1.87s1.32,2.87-1.17-.13-4.62-4.79-2.62-15.12-.38-3-.38-3Z"/><path class="cls-12" d="M390.71,222.46V212s3.62-6.24,7.61-4.86,5.24,2,5.37,9.48a73.48,73.48,0,0,1-3.62,22.58c-2,5.62-7,20.09-9.36,23.09s-5.12,2.74-5.12,2.74l.63-16.59s4.61-5,5.61-8.11,2.25-5.74-.62-9.86c0,0-1.75-1.1,1.25-6.66S396,217.6,396,217.6s2,.37,2.25,7.86l-.25,6.86s1.49-5.34,1.24-8.53a54.1,54.1,0,0,0-1.87-8.56s1.6-3.45,3.75-3.62c0,0-2.49-2-6.43,5.24S390.71,222.46,390.71,222.46Z"/><polygon class="cls-12" points="389.83 230.57 387.6 237.81 386.59 245.8 391.46 238.19 390.83 231.45 389.83 230.57"/><path class="cls-4" d="M326,274.62s9.86.88,12.1,0a29.34,29.34,0,0,0,5.74-3.74,11.35,11.35,0,0,1-7.61,6.49l-.37,3.62,3.74,2.62s-7.11-2.5-11.48-2.13-9.36.13-13.23,2.87c0,0,2.37-1.87,2.37-2.49s.16-2.8-.37-3.49c-1.46-1.92-7.49-3.12-8.24-5a63.29,63.29,0,0,0,7.74,1.25C319.71,274.87,326,274.62,326,274.62Z"/><path class="cls-4" d="M296,261.89s-3,4.12-1.62,4.5a1.2,1.2,0,0,0,1.62-.88l10.61-.49h15s3,2.12,8.86.87a30.47,30.47,0,0,1,11-.25l3.12,1.5s6.11-1.25,8,0l1.87,1.24s-.88-3.87-2-4.86.13,1.62.13,1.62-4.12.12-5.87-.63-8.48-3.49-13.1-2-8.61,2.12-11.36.25-14.1.75-14.1.75l-9.48,1-2.24-.12S297.5,261.64,296,261.89Z"/><path class="cls-4" d="M282.65,267s-.37,11.11,6.36,16.22C289,283.23,282.77,271.38,282.65,267Z"/><path class="cls-4" d="M302.58,237.2s-10.45,12.22-10.95,16.21S294,250,294,250l7.22-9.48s4.37-4.59,3.37-4.59S302.58,237.2,302.58,237.2Z"/><path class="cls-4" d="M365.63,265s2.87,6.23-.75,11C364.88,276,366.5,270,365.63,265Z"/><path class="cls-11" d="M358.77,248.67s6.11,3.49,6.11,9.23c0,0-3.87-6.11-5.49-6.74s-3.59-4.56-5-5.88-5.37-3-6.12-5.22a14.52,14.52,0,0,1-.74-4.09s2.49,5,3.61,5.84,4.25,2.37,6.24,5.86Z"/><path class="cls-11" d="M314.47,228.08s-3.76,3.24-4.19,5.49-.93,7.74,1.07,7.49,1.87-3.12,7.11.62,7.74,3.6,7.74,3.6,2.74.27,6.49-2.6,5.11-.38,5.11-.38a2.72,2.72,0,0,0,2.37.38c1.13-.5,3.62-2.12,3.62-3.12s0-4.12-.62-5.24-1.5-3.25-1.5-3.25V230a11.49,11.49,0,0,1,3.24,6.73c.5,4.25-.87,4-4.24,6.62l-3.37,2.62h-5.11a4.17,4.17,0,0,0-2.5,2.12c-1.12,1.88-1.75,2.62-3.49,2.75l-1.75.12L322.2,260V250s-1.36.63-3.11-4.24c0,0,.62-1.62-5.25-1.75,0,0-5.49-2-5.24-4.62s-1.29-5.76,1.68-8A53.75,53.75,0,0,0,314.47,228.08Z"/><path class="cls-11" d="M316.59,198s-3.37,2.24-.62,11.48l2.12,4.86a97.51,97.51,0,0,1-1.6-12.1C316.22,196.76,316.59,198,316.59,198Z"/><path class="cls-11" d="M354.77,192.64c.88,0,12.36-.87,15.1,2.75l1.87,1.94v3.55l-5.11,4.74s1.49-2.73,2.49-4.74-2.77,1.47-3.74,1.84c-2.48.95-10.61.53-10.61.53s-11.73-1.59-12.35-4.17,1.62-4.44,1.62-4.44l1.41-.54-.44-2.33a13.08,13.08,0,0,1-3.59,0,8.07,8.07,0,0,1-3.49-3.12c-.38-.92-.13-2.5,2.87-2.75s14.72-5.36,14.72-5.36l9.86-4s4.62-1.13,9,3.61l-1.74-7.86-.63-9.73s3.62,16.72,4.74,19,2.25,7.73,2.25,7.73-4-5.36-5.12-5.18-4.74-2.8-12.85.94-6.74,3.74-6.74,3.74l.13,1,11.73-.5a8.68,8.68,0,0,1,5.56,3.57S366.5,190,357.89,191h-5.46s-1.65.5-1.4,1.62Z"/><path class="cls-11" d="M335.81,197.89v13.72a47.32,47.32,0,0,0-2,8.11,47.61,47.61,0,0,0,0,7.69,25.08,25.08,0,0,1,.91-7.07c1.09-4.11,1.83-8.36,1.83-8.36l.5-14.09S335.81,196.64,335.81,197.89Z"/><path class="cls-13" d="M366.13,196.49a20.13,20.13,0,0,0-20.09,0s-3.62,2.61,7.11,6.23c0,0,9.48-.59,13-2.34,0,0,.87-.07,2.37-2.16Z"/><path class="cls-14" d="M351,194.64s-.25,6,5.18,6.24,5.43-6.24,5.43-6.24S353.65,193.39,351,194.64Z"/><path class="cls-11" d="M352.48,194.24s-.7,4.89,3.17,4.64,4.11-3.24,4.11-3.24v-1.25S353.94,193.84,352.48,194.24Z"/><path class="cls-11" d="M295.5,191.39s-8.51-.84-12.44,2.43c-.44.37-4.12,2-3.94,2.8a7.36,7.36,0,0,0,4.78,4.26c3,.81,14.27.71,14.27.71a38.13,38.13,0,0,0,5-.71c1-.33,3.11-1.61,3.94-1.9s2.33-3.17,1.67-3.88-2.53-2.26-2.53-2.26.61-.79,2.69-.51c0,0,.27-.8.5-.94a1,1,0,0,1,.83,0c.24.24.2,1.32.2,1.32s1.21,1.3,3.27-1.88,6.33-6.87,7.68-9.64c.79-1.62.56-2.9-1.78-7a15,15,0,0,1-2-8s-1.28,2.8,1,9.17,1.33,5.94-.19,6.55-2.71,2.25-6.17,2-13.76-2.1-18.16-4.91-9.64-5.06-16.56-1.5-10.11,10.76-10.11,10.76,8.42-5.61,11.6-5.14,7,0,16.1,4.49l1.12.93-13.66.19a6.37,6.37,0,0,0-3.84,4.16s3.84-2.76,6.46-2.85l12.67-.47a5.09,5.09,0,0,1,1.18.84,4.25,4.25,0,0,1,.19,1.22Z"/><path class="cls-15" d="M366.13,196.49a20.13,20.13,0,0,0-20.09,0s-3.12,4.63,8.11,6.13a24.64,24.64,0,0,0,12-2.24s.87-.07,2.37-2.16Z"/><path class="cls-16" d="M286.27,194.51l-4.12,1.86s-.62,1.53,2.06,2.39,2.43,1.49,8.3,1.49,7.73.32,11.48-1.4,2.62-1.46,3.12-3.9S292.51,191.64,286.27,194.51Z"/><path class="cls-11" d="M342,200.88s3.34,4,4.87,4.74c.55.26,1.84.21,2.37.5a20.31,20.31,0,0,1,3.15,3.12s-4.4-1.15-5.89-2.32S342,200.88,342,200.88Z"/><path class="cls-14" d="M288.51,193.82s.38,6,5.37,5.07,5.74-2.07,6-5.75c0,0-1.4-1.31-9.38.26Q289.56,193.58,288.51,193.82Z"/><path class="cls-11" d="M294.19,197.33s2.67.43,3.31-1.94.43-2.55.43-2.55l-8.42.57A4.4,4.4,0,0,0,294.19,197.33Z"/><path class="cls-15" d="M286.27,194.64s-3.34,1-4.12,1.85c-.55.57-.62,1.54,2.06,2.4s2.43,1.49,8.3,1.49,7.73.32,11.48-1.4,2.62-1.46,3.12-3.9S292.51,191.77,286.27,194.64Z"/><path class="cls-11" d="M321,190.52s9-6.11,11.85,0C332.81,190.52,330.81,186.78,321,190.52Z"/><path class="cls-11" d="M275.79,165.56s-3,8.74-3,9.24v3.59s.48-1.87,1.5-6c.43-1.75,2.37-6.81,2.37-6.81S276.29,164.1,275.79,165.56Z"/><path class="cls-11" d="M306.48,202.72a22.12,22.12,0,0,0-7.11,6.52C296.38,213.6,306.86,203.56,306.48,202.72Z"/></g><g class="cls-17"><path class="cls-4" d="M1026.89,338.76l43.17,22.46s59.9,26.2,66.14,32.44,27,24.46,35.68,49.91,11.23,36.94,11.23,36.94l3.25,15.47,3,45.17,6.74,37.69s4,10,4.74,14.22,6,27.45,4.24,38.93-1.58,14.7-11.73,22.71a113.43,113.43,0,0,0,0,24.21c1.5,12,5.25,28,5.25,28,0,.28,4.09,13.19,4.3,25.83.11,6.33-.81,25.33-.81,25.33l-.75,54.4-128,31.7L1032,746l27.07-368.47-53.15-45.8-5.24-7Z"/><path class="cls-4" d="M868.67,297.33s-5.74-1.49-12.23,4.5-15.72,22.95-15.72,22.95l-2.75,5.5-68.38,21.21s-41.17,10.73-48.91,14.72-33.44,25.46-33.44,25.46-15.47,19.71-20,28.45-18.72,46.66-18.72,46.66l-6,26.71-4,37.93-1.75,57.9L635.33,623s-2.33,5.13,9.47,14.49l.83.65s2.13,19.51.18,27.53c-1.66,6.84-5.74,13-7.23,27.2s-3.44,38.94-3.44,38.94l-2.8,67.63,123.28,1.24,199.15,9.49,106.06-422.51-60.64-66.38s-2.25-11.48-4.75-15.47-12.72-8.65-12.72-8.65Z"/><path class="cls-5" d="M650.31,642.22l-2.25,25.71s-4.49,20-5.74,27-3,41.43-3,41.43l-2.49,59.39h84.6l1-29,1.25-77.11s-4.5,8.24-8.74,10.23-13.72,23.46-13.72,23.46,1.24-11.23,5.24-18.72l6.48-7.48s12.48-19,13.48-24v-7l-4.74,2.25.75-6.49-8,2.74s-3.38,2.55-4.74,2.75c-4.77.7-14.72-3.49-19-3.49s-11.48-2.75-11.48-2.75l-20.71-10.48s-6-3.74-6-5S650.31,642.22,650.31,642.22Z"/><path class="cls-5" d="M1113.61,791.46V726.7l6,7.49v-9.74l-3,3s-4.36-9.12-5.25-12.36c-1.6-5.89-1.85-14.11-2.09-24.33a49.35,49.35,0,0,1,.22-7.11,75.84,75.84,0,0,0,12.73,6.74c6,2.24,23.58-.38,23.58-.38l-1.87,2.62s20.59-11.23,28.08-19.09,18-16.84,18-16.84-.75,12.35,3,32.19,5.63,21.51,6.74,28.82c3.25,21.48-1.87,86.85-1.87,86.85l-85.35,2.62Z"/><path class="cls-6" d="M681.62,403.65s-21.71,36.68-25.45,55.77-10.11,31.82-11.6,52l-3.75,24.34-2.24,61V620s3,13,21.52,22.21c17.16,8.56,39.31,15.61,48.13,16.9.7.1,1.32.17,1.84.2a29.24,29.24,0,0,0,13.11-2.62V650a77.78,77.78,0,0,0,6-28.45c.37-16.47,0-41.55,0-41.55L712,511.83s19.09,52,19.84,67.38c0,0-1.75-47.54-5.37-58l-11.1-52.78L699.59,410,691,393.91S689.06,390.34,681.62,403.65Z"/><path class="cls-6" d="M867.67,299.08s-8.48,2-10.48,5.74-12,17-12,17L833,347.49s-13.16,26.61-18.47,34.94c-3.07,4.84-13.22,17.47-14.22,18s-5,5,1.25,4.24,27.45-5.36,33.19-11.16,26.45-13.79,30.94-11.55c0,0-3.49,11.11-3.24,11.55s-1.75,2.43,2.5,7.67,50.91,41.68,50.91,41.68l9,10.48,1.5-3.75-26-28.2s-21-25.45-24.2-31.69-9.74-30.45-12-46.92-4.28-24.73-3.25-32.94C861.33,306.67,862.93,303.57,867.67,299.08Z"/><path class="cls-6" d="M981.84,301.83s11.23,1.68,14.79,14.78,13.29,34.82,15.91,38.37,26.39,35.38,37.43,44.92c0,0,2.06,3.56-4.86,1.5s-16.73-3.06-22.09-4.87c-4.22-1.42-12.07-6.07-15.16-9.36,0,0-7.3-8-17.78-8.79L994,395l-27.51,26L950.77,434.9l-20,16.47-4.43,1.94s13-18.41,21.08-25.33,21.15-24.71,21.15-24.71L976.42,384l4.3-32.56,2.43-23.21s2.25-13.48,1.13-17.78C983.71,308.27,982.22,307.25,981.84,301.83Z"/><path class="cls-7" d="M1002.93,327.78s4.49,15.47,11,24.46,15.47,22.71,25.21,32.44,13.47,15,13.47,15,2.5,4.49-8.73,4.24-26.7-2.24-31.94-6.23-13.71-11.61-16.72-11,3.57,7.18,3.24,9.73c-.85,6.62-20.21,17.47-20.21,17.47l-28.7,24.45-23.21,17s-2.5,5-3.5,20-1.24,60.89-1.24,60.89v37.93l-1,48.17-1.25,48.66-3.24,166.71,178.68-5V629.25l4.24-27.7,5.49-43.68,3-38.93,5-32.44s3.74-21.46,10.48-33.19,19.22-34.94,19.22-34.94l5.74-9.23s-10.24-12.23-19.22-17S1032,345,1032,345Z"/><path class="cls-7" d="M748.13,361s-54.4,19-55.65,30.95c0,0,7.74,14,8.74,18.46s11.47,38.44,11.47,38.44l10.49,43.42s11,53.4,11,54.65,1.49,61.14,1,66.38-1.5,63.89-1.5,63.89V795.7H912.84l1.8-48.41,1.45-87.94,2.24-113,1-46.66,1.75-33.94a30.84,30.84,0,0,1,2.74-12.73s-12.23-11.73-13.47-11.73-28-19-28-19l-18.46-19s-4.74-4.62-3.5-9.92l1.25-5.31s-7.85,4.31-10.73,4.25c-3.36-.08-5-2.25-13.23,2.49s-22.46,13.23-37.18,12,4-16,4-16S818.26,371.7,822.25,361l15.47-27.7S754,358.84,748.13,361Z"/><path class="cls-6" d="M1149.17,410.38s18.47,23.71,21.46,42.93c0,0,11.73,28.2,12,52.65s2.75,31.95,4.25,42.68,7.23,35.44,7.23,35.44,4.5,7.23,5.62,13.47,4.62,27.7,3.87,31.2,1.74,10-8.74,19.21-40.37,32.95-40.37,32.95-16.53,4.24-28.76,3-16.47-6.49-16.47-6.49,1.5-2.49,1.5-10-5.74-21.21-7-23.21l7.74-30.45-7.74,21.47s-1.74-7.24-1.74-9-1.75-10.73,2.49-21.71,13-30.2,13-30.2l-5.24,5.49,5.49-12.72,2-6.49,3-6.24,2-11,10.48-21.21,12.73-17-13.73,15.47L1122,541.15l-7,17.72-3.24,10.73-4,9.49-1.75,8.23-1.5,2.25,1.25-20,3.49-22.34,1.25-18.84L1114,490s8.48-27.2,9.48-29.69,3.49-12.23,21.71-43.18Z"/></g><path class="cls-11" d="M842,185.68s-3.28-1.18-4.19.79-2,11.64-.66,14.78,6.68,6.29,6.42,2.49S842,185.68,842,185.68Z"/><path class="cls-5" d="M851.33,199.41a1.78,1.78,0,0,0,.14-1c-.51-2.64-2.75-14.5-3.43-18.81-.76-4.87-11.41-2.69-13.09-.55-4.32,5.49-1.42,20.7-.37,24.92s7.11,20.27,10.18,24.94,12.24,11.35,15.35,12c1.4.31,1.54.47,1.27.56a1.12,1.12,0,0,1-1.39-1L857.7,222.8,856,212a1.69,1.69,0,0,0-.22-.63l-7.31-12.24s-5.9-11-6.52-11.13-2.29.84-2.45,5.61a30.71,30.71,0,0,0,.87,8.48,43.41,43.41,0,0,1-1.41-4.6c-.18-.72-.34-1.47-.46-2.23a10.49,10.49,0,0,1,.12-5.1,16.65,16.65,0,0,1,1.58-3.18,1.88,1.88,0,0,0-1.54-2.86h-.07s2.34-1.83,4.36,3.29a1.29,1.29,0,0,0,.17.33l8,12.1Z"/><path class="cls-4" d="M846.2,204.66s-4.45,7.33-2.35,10.21a14.64,14.64,0,0,0,4.71,4.18s2.09-8.37.78-11A7.12,7.12,0,0,0,846.2,204.66Z"/><path class="cls-4" d="M1004.56,179.4s10.2-5.5,9,5.1-2.75,24.35-5.89,26.31-20,16.49-18.46,13.35S994,190.79,994,190.79Z"/><path class="cls-18" d="M1000.32,191V181.1s4.37-5.9,9.2-4.6,6.35,1.89,6.5,9a55.8,55.8,0,0,1-4.38,21.37c-2.42,5.32-8.46,19-11.32,21.85s-13.3,8.55-13.3,8.55l2.06-14.44s11.39-11.94,12.59-14.89,2.72-5.44-.75-9.33c0,0-2.11-1,1.51-6.31a65.55,65.55,0,0,1,4.23-5.85s2.41.35,2.71,7.44l-.3,6.49s1.81-5.06,1.51-8.08a42,42,0,0,0-2.26-8.1s1.93-3.26,4.53-3.42c0,0-3-1.89-7.78,5S1000.32,191,1000.32,191Z"/><path class="cls-5" d="M864,325.45s7,54,22.32,73.2c13.7,17.2,35,38.37,41.68,46.42,0,0,40-34.33,47.16-69.37a583.19,583.19,0,0,0,9-62.62c1.57-20.22,4.22-81.56,4.22-81.56L861.49,259.37"/><path class="cls-4" d="M860.08,259.68s9.42,23.26,15.18,27.42,18.32,15.48,31.93,16.51,30.7.95,37.09-3.73,28.6-28,27.82-28S860.08,259.68,860.08,259.68Z"/><path class="cls-4" d="M831.68,119.33S836,92.24,859.16,75s42.4-32.2,74.59-26.31,55.75,26.7,63.8,36.51,19.59,49.14,12.53,87.46c0,0-8.26,19.08-12.53,33.7s-12.36,28.95-18.65,33.79-118.22-.1-118.22-.1l-3.88-13.11s-10.6,3.53-13.74-32.59c0,0-12.56-16.88-14.13-30.23S825.4,144.46,831.68,119.33Z"/><path class="cls-5" d="M859.68,261.45c-2.73-6.69-3.92-15.7-3.92-28.66s-5.11-39.65-5.11-39.65-.78-30.23,2-41.22,2.35-40,15.7-45.94,18.06-9.81,36.51-8.24,18.65,3.31,43.58,5.89c23.3,2.4,38.74,29.46,38.87,62.42,0,4,3.47,11.53,3.53,15.5.17,9.71-5.65,21.09-3.53,38.68a12.49,12.49,0,0,0,2,3.93c.84,1.22-2.51,29-5.1,36.9-7.07,13.61-4.19,14.4-30,31.31-11.55,9.23-11.91,13.54-45.87,5.69C894.32,294.84,864,272,859.68,261.45Z"/><path class="cls-4" d="M856.15,120.64a8.68,8.68,0,0,0,6,.26c3.4-1.05-1.52,1.25,4.5-5.82s11.73-6.6,16.18-4.77,13.34-1,22.77-2.29,12.09-1.58,23.64.54c10,1.84,10.06,4.22,15.55,3.69s9.35,4,12.49,8.15,1.08,9.35,10,11.44,7.37,7.42,11.68,21.62,11.93,19.95,16.94,23.66c6,4.46,2.64-76.11-27.46-79.78S862.69,78.5,856.93,100.22,856.15,120.64,856.15,120.64Z"/><path class="cls-4" d="M899.14,247.42c-4.67.26-9.75,4-10.27,5.75s0,2,4.69,2h16.51c6,0,30.06-.36,33.73-1.27a26.59,26.59,0,0,0,9.19-4.75c1-1-.78-1.34-11.25-2.76S899.14,247.42,899.14,247.42Z"/><path class="cls-11" d="M912.82,198c5.76-2.61-2.72-2.14-4.58,3.27-1.8,5.2-16.13,11.14-14.87,18.73s13.37,6.23,15.79,6.49,5.52-.16,9.5-4.86S912.82,198,912.82,198Z"/><path class="cls-19" d="M894.06,249.41s8.39-5.42,12.57-7.81,5.75-2.32,10.72,0c0,0,1,1,5.5-1.48s19.63,4.58,23,6.42-.28,2.88-1,2.87c-3,0-3.79-1-12.42-.62-5.33.25-5.5-.4-7.17.68-4.4,2.86-7.15.67-13.65,0-3.88-.4-10.2,2.82-15.18,3.61S894.06,249.41,894.06,249.41Z"/><path class="cls-20" d="M900.22,252.54c-1.12.31-4.7,1.32-4.18,3.42s10.46,7.32,21.33,6.54,21.46-3,26.51-6.93c2.3-1.79,4.68-4.36,3.63-4.62s-17.38-1.07-25.63.39C912.89,252.94,913.37,248.9,900.22,252.54Z"/><path class="cls-4" d="M900.38,162.78c-.78-.26-20.41-7.33-26.69-7.07s-16,6.28-17.54,11,0,4.44,0,4.44,4.71-6,7.85-6.28,9.42-2.35,17.54-.26,21.2,3.4,22.25,1.57S900.38,162.78,900.38,162.78Z"/><path class="cls-4" d="M938.82,159.1c2-.29,19.84-7.67,23.91-6.25s15.51,2.84,18.82,13.35-4.58-3.13-10.68-4.83-32,4.83-32,4.83-7.88,2.56-8.13,0S938.82,159.1,938.82,159.1Z"/><path class="cls-4" d="M878.92,178.81c-2.75,0-9.42,4.81-9.81,5.35s4.51.53,10.2,1.66,16.68-.53,19.44.06,7.54-.28,3.73-2.9c-8.62-5.92-9.62-4.76-15.12-4.17A30.85,30.85,0,0,1,878.92,178.81Z"/><path class="cls-16" d="M898.75,182c-.2-.66-13.11-10.76-24.74,0a14.15,14.15,0,0,0,12.13,4.87C894.23,186.27,896,185,898.75,182Z"/><path class="cls-4" d="M945,175.87a25.55,25.55,0,0,0-7.59,4c-1.45,1-7.2,4.73-1.31,4.2s15.12.53,18.82-.54c6.12-1.78,7.1-1.57,8.41-1.53s5.86,0,1.15-2.81-13.1-3.69-18.4-3.69"/><path class="cls-16" d="M947.77,174.75s-5.84,2.56-7,4.49,5.89,4.67,10.79,4.87,10.6-4.68,10.6-4.68S959.88,173.25,947.77,174.75Z"/><path class="cls-21" d="M893.37,178.81a16,16,0,0,0-14.45,0s-.86,8.83,7.22,8.05S892.7,180.77,893.37,178.81Z"/><path class="cls-11" d="M901.17,183.72c2,1.4-5.83-9.09-15.92-7.55a30.37,30.37,0,0,0-15.36,7.68.17.17,0,0,0,.21.27C874.48,181.43,886,173.16,901.17,183.72Z"/><path class="cls-21" d="M958.78,176.06c-.22-.46-8.3-5-14.47,1,0,0-.84,7.84,7.24,7.05S958.11,178,958.78,176.06Z"/><circle class="cls-4" cx="886.13" cy="181.99" r="2.04"/><circle class="cls-4" cx="951.54" cy="179.24" r="2.04"/><path class="cls-10" d="M925.44,188.82c.79,12.37,6.79,16.74,10.8,21.09,9.18,10,1.23,14.48-2.73,15.12a161.24,161.24,0,0,1-27.3,1.88c-20.08-1.38-8.57-14.23-5.11-17,3.69-2.95,7.11-4.3,8.09-17.06"/><path class="cls-11" d="M925.55,188.82a26.92,26.92,0,0,0,4.63,13.78,41,41,0,0,0,4.9,5.49,25.81,25.81,0,0,1,4.74,5.87c.15.28.31.56.44.85l.34.92a9.67,9.67,0,0,1,.45,1.93,6.74,6.74,0,0,1-.91,3.92,8.23,8.23,0,0,1-2.87,2.76,11,11,0,0,1-3.69,1.38c-4.91.84-9.85,1.4-14.82,1.76q-3.72.27-7.45.39c-1.25,0-2.49.06-3.74.06h-1.43l-.48,0c-.64-.06-1.28-.08-1.92-.18a16.5,16.5,0,0,1-7.5-2.43,6.09,6.09,0,0,1-2.49-3.61,7.48,7.48,0,0,1,.42-4.25,15.11,15.11,0,0,1,1.91-3.47,23.67,23.67,0,0,1,2.49-2.95,21.54,21.54,0,0,1,2.94-2.49,21.75,21.75,0,0,0,2.79-2.25,13.85,13.85,0,0,0,3.33-6.19,52.45,52.45,0,0,0,1.46-7.22h.21a42.64,42.64,0,0,1-.73,7.45,15.17,15.17,0,0,1-3.18,7,20.7,20.7,0,0,1-2.84,2.58,18.87,18.87,0,0,0-2.61,2.43,17.86,17.86,0,0,0-3.77,5.85,5.42,5.42,0,0,0-.3,3,3.85,3.85,0,0,0,1.67,2.31,15,15,0,0,0,6.48,2.13c.59.11,1.18.15,1.78.22l.44,0,.43,0,.92,0,3.69,0q3.69,0,7.38-.18c4.92-.25,9.83-.7,14.7-1.42a8.47,8.47,0,0,0,5.73-3.43,5.4,5.4,0,0,0,.81-3.17,8.33,8.33,0,0,0-.35-1.69l-.28-.83c-.12-.27-.27-.53-.4-.79-2.16-4.3-6.49-7.25-9.21-11.48a27.32,27.32,0,0,1-4.32-14.14Z"/><path class="cls-11" d="M910.33,219.45s-5.89-3.54-7.85-2.36-4.08,5.94,1.3,5.72S910.13,222,910.33,219.45Z"/><path class="cls-11" d="M921,219.83s5-3.42,8.2-3,6.68,2.39,6.48,3-2.95,2-6.48,1.8S920.63,222.18,921,219.83Z"/><path class="cls-5" d="M984.14,261.06c-5.95,14.14-5.3,12.57-29.25,32.2-11.55,9.22-12.69,12.65-46.65,4.8"/><path class="cls-4" d="M934.09,177.07c-1,.74,8.63-6.5,14.71-7.09s18.06,1.32,21.6,5.57C970.4,175.55,948.83,166.29,934.09,177.07Z"/><path class="cls-11" d="M966.34,180.71c2,1.44-5.79-7.79-16-6.94-8,.67-11,5.53-13.23,7.59-.47.44-2.31.53-2,1.07C937.38,185.88,947.82,167.35,966.34,180.71Z"/><path class="cls-4" d="M902.8,179.16c1,.74-8.63-6.5-14.72-7.09s-18.06,1.33-21.59,5.57C866.49,177.64,888.06,168.38,902.8,179.16Z"/><path class="cls-5" d="M840.71,204.79c1.1,3.09,1.31,3,1.31,3s-2.75-10.08-2.62-13.09S839.4,201.12,840.71,204.79Z"/><path class="cls-11" d="M938.7,187.64s10.6,4.81,16.68,4.72,11.19.68,11.88.09-14.22.73-24.25-3.69C941.81,188.23,938.4,186.66,938.7,187.64Z"/><path class="cls-11" d="M953,228.48c5.5,4.31,12.9,17.47,12.9,19.82s-6.67-13.15-11.19-16.49-8.44-10-5.49-7.46A17.48,17.48,0,0,1,953,228.48Z"/><path class="cls-4" d="M897,189.74s-11.52,6.28-18.32,7.07,4.91.23,11.45-3.18S903.26,187.12,897,189.74Z"/><path class="cls-11" d="M896.33,190.46c-3.63.61-14.52,2.62-20.94,1.88-8.9-1,1.77.6,2.75.6,19.79-.08,11.84-.1,14.45-.49A5.72,5.72,0,0,0,896.33,190.46Z"/><path class="cls-4" d="M882.06,233.57a108.64,108.64,0,0,0-8.23,9.84c-3.16,4.33-3.53,6.53-1.71,12.36,2.42,7.74-2.42-1.87-.74-8s6.37-8.95,9.43-12.86c3.27-4.18,13.32-13.81,8.44-9.71C884.55,229.21,884.73,230.61,882.06,233.57Z"/><path class="cls-22" d="M847.87,127.31c1.82,2.85,2.85,4.4,4.67,3.88s-3.15,4.2-6.37-.75S847.87,127.31,847.87,127.31Z"/><path class="cls-11" d="M949.85,218.44a1.88,1.88,0,0,0,0-3.75,1.88,1.88,0,0,0,0,3.75Z"/><path class="cls-11" d="M901.26,277.16c.77-.46,18.36-14.14,36.49-1.05s-5-1.5-5-1.5a30.43,30.43,0,0,0-14.19-2.95C910.32,271.92,885.65,286.58,901.26,277.16Z"/><path class="cls-9" d="M868.84,353s15.74,19.74,17.67,21.62c2.6,2.52,5,8.36,27.58,13.35s33.31-3.12,33.31-3.12,11.83-6,15.35-8.61c4.44-3.31,15.23-14.84,15.35-16s.13,10.86-4.37,14.85-25.58,16-25.58,16-20.21,11.11-47.29,0S869.29,361,869.29,361Z"/><path class="cls-4" d="M862,310.33s2.16,2.69,4.5,8.86c0,0-1.76-4.53-3.94-6.17S862,310.33,862,310.33Z"/></g></svg>