<svg id="Layer_1" data-name="Layer 1" xmlns="http://www.w3.org/2000/svg" xmlns:xlink="http://www.w3.org/1999/xlink" viewBox="0 0 792 606"><defs><style>.cls-1,.cls-10,.cls-15,.cls-18,.cls-22,.cls-24{fill:none;}.cls-2{fill:#ede8e7;}.cls-3{fill:#231f20;}.cls-4{clip-path:url(#clip-path);}.cls-5{fill:#2ab794;}.cls-6{fill:#f16251;}.cls-7{opacity:0.5;}.cls-8{fill:#1b597c;}.cls-9{fill:#fff;}.cls-10,.cls-15,.cls-18,.cls-22,.cls-24{stroke:#fff;stroke-miterlimit:10;}.cls-10{stroke-width:0.46px;}.cls-11{clip-path:url(#clip-path-2);}.cls-12{fill:#6b91cb;}.cls-13{fill:#cee8d0;}.cls-14{fill:#7acbc0;}.cls-15{stroke-width:0.38px;}.cls-16{fill:#fcfbfb;}.cls-17{fill:#ee6559;}.cls-18{stroke-width:1.78px;}.cls-19{clip-path:url(#clip-path-3);}.cls-20{fill:#b7b7b7;}.cls-21{fill:#010101;}.cls-22{stroke-width:3.01px;}.cls-23{clip-path:url(#clip-path-4);}.cls-24{stroke-width:2.28px;}</style><clipPath id="clip-path"><rect class="cls-1" x="396" y="35.44" width="75.83" height="75.83"/></clipPath><clipPath id="clip-path-2"><rect class="cls-1" x="634.64" y="156.61" width="7.73" height="6.87" rx="3.32" ry="3.32" transform="translate(350.24 751.83) rotate(-78.1)"/></clipPath><clipPath id="clip-path-3"><rect class="cls-1" x="396" y="121.96" width="75.83" height="76.25"/></clipPath><clipPath id="clip-path-4"><rect class="cls-1" x="245.04" y="321.51" width="44.98" height="50.62" rx="12" ry="12"/></clipPath></defs><title>layouts</title><g id="Back"><rect class="cls-2" x="-12.53" y="-11.89" width="823" height="633"/></g><g id="Stuff"><path class="cls-3" d="M23.38,14.92H27.6v.87H24.39v2.69h3v.86h-3V23h-1Z"/><path class="cls-3" d="M33.73,20.05a2.78,2.78,0,0,1-2.48,3.06,1.72,1.72,0,0,1-.32,0,2.71,2.71,0,0,1-2.71-2.73,2.44,2.44,0,0,1,0-.27,2.8,2.8,0,0,1,2.52-3.06H31a2.7,2.7,0,0,1,2.74,2.68A1.61,1.61,0,0,1,33.73,20.05Zm-4.46.06c0,1.27.71,2.23,1.7,2.23s1.71-.95,1.71-2.25c0-1-.47-2.24-1.68-2.24S29.27,19,29.27,20.11Z"/><path class="cls-3" d="M35,18.77V17.2h.9l.06.95h0a2.06,2.06,0,0,1,1.86-1.09c.78,0,2,.48,2,2.47V23h-1V19.65c0-.93-.34-1.71-1.3-1.71A1.47,1.47,0,0,0,36.1,19a2,2,0,0,0-.06.49V23H35Z"/><path class="cls-3" d="M42.64,15.53V17.2H44.1V18H42.64v3.13c0,.72.2,1.13.77,1.13a2,2,0,0,0,.59-.08V23a2.5,2.5,0,0,1-.9.14,1.42,1.42,0,0,1-1.1-.44,2.25,2.25,0,0,1-.4-1.51V18h-.87v-.8h.87V15.8Z"/><path class="cls-3" d="M45.11,21.92a2.68,2.68,0,0,0,1.35.42c.74,0,1.09-.38,1.09-.86s-.29-.78-1-1.07c-1-.37-1.48-.95-1.48-1.64a1.76,1.76,0,0,1,1.8-1.72H47a2.79,2.79,0,0,1,1.38.36l-.26.77A2.12,2.12,0,0,0,47,17.85a.83.83,0,0,0-.93.71.28.28,0,0,0,0,.09c0,.48.34.69,1.07,1,1,.38,1.48.89,1.48,1.75s-.77,1.74-2.1,1.74a3.12,3.12,0,0,1-1.58-.4Z"/><path class="cls-3" d="M49.6,18.15a.7.7,0,0,1,.75-.65.7.7,0,0,1-.06,1.4.69.69,0,0,1-.69-.71Zm0,4.24A.7.7,0,0,1,51,22.22a.49.49,0,0,1,0,.17.7.7,0,0,1-1.39.17A.49.49,0,0,1,49.6,22.39Z"/><path class="cls-3" d="M396.88,14.92h1v7.2h3.35V23h-4.36Z"/><path class="cls-3" d="M407.25,20.05a2.78,2.78,0,0,1-2.48,3.06,1.72,1.72,0,0,1-.32,0,2.72,2.72,0,0,1-2.7-2.74,2.35,2.35,0,0,1,0-.26,2.8,2.8,0,0,1,2.49-3.07l.29,0a2.71,2.71,0,0,1,2.73,2.69C407.27,19.84,407.26,19.94,407.25,20.05Zm-4.46.06c0,1.27.71,2.23,1.71,2.23s1.71-.95,1.71-2.25c0-1-.48-2.24-1.69-2.24S402.79,19,402.79,20.11Z"/><path class="cls-3" d="M413.38,17.2c0,.41-.05.88-.05,1.59v3.37a3.4,3.4,0,0,1-.8,2.65,2.87,2.87,0,0,1-2,.7,3.51,3.51,0,0,1-1.87-.48l.25-.81a3.21,3.21,0,0,0,1.65.46c1.05,0,1.81-.56,1.81-2V22h0a2,2,0,0,1-1.79,1,2.57,2.57,0,0,1-2.4-2.73s0-.07,0-.1c0-2,1.24-3.09,2.53-3.09a1.85,1.85,0,0,1,1.75,1h0v-.87Zm-1.06,2.29a1.32,1.32,0,0,0-.06-.48,1.46,1.46,0,0,0-1.42-1.12c-1,0-1.68.85-1.68,2.2,0,1.14.56,2.08,1.66,2.08a1.5,1.5,0,0,0,1.42-1.08,1.77,1.77,0,0,0,.08-.56Z"/><path class="cls-3" d="M420.11,20.05a2.78,2.78,0,0,1-2.48,3.06,1.72,1.72,0,0,1-.32,0,2.72,2.72,0,0,1-2.7-2.74,2.35,2.35,0,0,1,0-.26,2.8,2.8,0,0,1,2.49-3.07,1.51,1.51,0,0,1,.3,0,2.72,2.72,0,0,1,2.72,2.7A3,3,0,0,1,420.11,20.05Zm-4.46.06c0,1.27.71,2.23,1.71,2.23s1.71-.95,1.71-2.25c0-1-.48-2.24-1.69-2.24S415.65,19,415.65,20.11Z"/><path class="cls-3" d="M421.26,21.92a2.65,2.65,0,0,0,1.34.42c.75,0,1.1-.38,1.1-.86s-.29-.78-1.05-1.07c-1-.37-1.49-.95-1.49-1.64a1.76,1.76,0,0,1,1.8-1.72h.14a2.8,2.8,0,0,1,1.39.36l-.26.77a2.12,2.12,0,0,0-1.15-.34.83.83,0,0,0-.93.71.28.28,0,0,0,0,.09c0,.48.34.69,1.07,1,1,.38,1.47.89,1.47,1.75s-.76,1.74-2.1,1.74a3.12,3.12,0,0,1-1.58-.4Z"/><path class="cls-3" d="M425.75,18.15a.69.69,0,1,1,1.38,0,.7.7,0,0,1-.63.75h-.06a.69.69,0,0,1-.69-.71Zm0,4.24a.69.69,0,1,1,.76.74h-.07a.69.69,0,0,1-.69-.69Z"/><path class="cls-3" d="M402.35,241.74a5,5,0,0,1-2.06.38,3.71,3.71,0,0,1-3.88-3.55,3.25,3.25,0,0,1,0-.54,4,4,0,0,1,3.74-4.24h.35a4.05,4.05,0,0,1,1.85.36l-.24.86a3.44,3.44,0,0,0-1.58-.34c-1.83,0-3.05,1.21-3.05,3.33s1.1,3.25,3,3.25a3.9,3.9,0,0,0,1.65-.33Z"/><path class="cls-3" d="M408.54,239.05a2.78,2.78,0,0,1-2.48,3.06,1.72,1.72,0,0,1-.32,0,2.72,2.72,0,0,1-2.7-2.74,2.35,2.35,0,0,1,0-.26,2.8,2.8,0,0,1,2.49-3.07l.29,0a2.71,2.71,0,0,1,2.73,2.69C408.56,238.84,408.55,238.94,408.54,239.05Zm-4.46.06c0,1.27.71,2.23,1.71,2.23s1.7-1,1.7-2.25c0-1-.47-2.24-1.68-2.24s-1.73,1.15-1.73,2.26Z"/><path class="cls-3" d="M409.82,233.48h1V242h-1Z"/><path class="cls-3" d="M417.65,239.05a2.78,2.78,0,0,1-2.48,3.06,1.72,1.72,0,0,1-.32,0,2.72,2.72,0,0,1-2.7-2.74,2.35,2.35,0,0,1,0-.26,2.8,2.8,0,0,1,2.49-3.07l.29,0a2.71,2.71,0,0,1,2.73,2.69C417.67,238.84,417.66,238.94,417.65,239.05Zm-4.46.06c0,1.27.71,2.23,1.71,2.23s1.71-1,1.71-2.25c0-1-.48-2.24-1.69-2.24S413.19,238,413.19,239.11Z"/><path class="cls-3" d="M418.94,238c0-.69,0-1.28-.05-1.81h.89v1.13h.05a1.69,1.69,0,0,1,1.55-1.27,1.41,1.41,0,0,1,.29,0v1a2,2,0,0,0-.35,0A1.45,1.45,0,0,0,420,238.4a4.17,4.17,0,0,0,0,.5V242h-1Z"/><path class="cls-3" d="M422.59,240.92a2.68,2.68,0,0,0,1.35.42c.74,0,1.09-.38,1.09-.86s-.29-.78-1-1.07c-1-.37-1.49-.95-1.49-1.64a1.76,1.76,0,0,1,1.8-1.72h.14a2.79,2.79,0,0,1,1.38.36l-.25.77a2.21,2.21,0,0,0-1.15-.34c-.61,0-.95.36-.95.8s.34.69,1.07,1c1,.38,1.48.89,1.48,1.75s-.77,1.74-2.1,1.74a3.12,3.12,0,0,1-1.58-.4Z"/><path class="cls-3" d="M427.08,237.15a.7.7,0,0,1,.65-.75h0a.75.75,0,1,1-.7.8Zm0,4.24a.71.71,0,0,1,.66-.76h0a.69.69,0,0,1,.69.71v0a.7.7,0,0,1-1.39.17A.49.49,0,0,1,427.08,241.39Z"/><path class="cls-3" d="M29.34,241.64a7,7,0,0,1-2.4.44A4,4,0,0,1,24,241a4.25,4.25,0,0,1-1.09-3,4,4,0,0,1,3.81-4.18h.43a4.83,4.83,0,0,1,2,.37l-.25.86a3.81,3.81,0,0,0-1.73-.35A3,3,0,0,0,24,237.56a3.23,3.23,0,0,0,0,.44,2.94,2.94,0,0,0,3,3.26,3.08,3.08,0,0,0,1.34-.22v-2.41H26.76v-.84h2.58Z"/><path class="cls-3" d="M30.85,238c0-.69,0-1.28-.05-1.81h.89v1.13h0a1.69,1.69,0,0,1,1.55-1.27,1.41,1.41,0,0,1,.29,0v1a2,2,0,0,0-.35,0,1.45,1.45,0,0,0-1.37,1.35,4.17,4.17,0,0,0,0,.5V242h-1Z"/><path class="cls-3" d="M37.7,242l-.09-.73h0a2.09,2.09,0,0,1-1.72.86,1.63,1.63,0,0,1-1.72-1.54v-.13c0-1.4,1.21-2.17,3.38-2.15v-.12a1.19,1.19,0,0,0-1-1.34.82.82,0,0,0-.27,0,2.71,2.71,0,0,0-1.46.43l-.23-.69a3.36,3.36,0,0,1,1.85-.52c1.71,0,2.13,1.21,2.13,2.38v2.17a8.05,8.05,0,0,0,.09,1.39Zm-.16-3c-1.11,0-2.38.18-2.38,1.3a.92.92,0,0,0,.83,1h.17a1.42,1.42,0,0,0,1.36-1,1.93,1.93,0,0,0,0-.34Z"/><path class="cls-3" d="M40.18,238.09V236.2h.92l0,1h0a2.2,2.2,0,0,1,2-1.13c1.36,0,2.38,1.19,2.38,3,0,2.09-1.23,3.12-2.56,3.12a2,2,0,0,1-1.73-.91h0v3.15h-1Zm1,1.55a2.1,2.1,0,0,0,0,.43,1.58,1.58,0,0,0,1.53,1.23c1.08,0,1.71-.91,1.71-2.24,0-1.16-.6-2.16-1.68-2.16a1.64,1.64,0,0,0-1.54,1.31,1.55,1.55,0,0,0-.07.43Z"/><path class="cls-3" d="M46.78,233.48h1v3.63h0a2,2,0,0,1,.73-.75,2,2,0,0,1,1-.3c.76,0,2,.48,2,2.49V242h-1v-3.33c0-.94-.33-1.73-1.3-1.73a1.52,1.52,0,0,0-1.41,1.57V242h-1Z"/><path class="cls-3" d="M54.36,234.56a.63.63,0,0,1-1.26,0h0a.63.63,0,0,1,.6-.66h0a.6.6,0,0,1,.62.6ZM53.23,242v-5.8h1V242Z"/><path class="cls-3" d="M60,241.78a3.63,3.63,0,0,1-1.62.34,2.72,2.72,0,0,1-2.81-2.62,2.38,2.38,0,0,1,0-.38A2.9,2.9,0,0,1,58.29,236h.29a3.15,3.15,0,0,1,1.42.3l-.23.81a2.47,2.47,0,0,0-1.19-.27,2.19,2.19,0,0,0,0,4.36,2.86,2.86,0,0,0,1.25-.29Z"/><path class="cls-3" d="M61,240.92a2.68,2.68,0,0,0,1.35.42c.74,0,1.09-.38,1.09-.86s-.29-.78-1-1.07c-1-.37-1.49-.95-1.49-1.64a1.76,1.76,0,0,1,1.8-1.72h.14a2.79,2.79,0,0,1,1.38.36l-.26.77a2.12,2.12,0,0,0-1.15-.34.83.83,0,0,0-.93.71.28.28,0,0,0,0,.09c0,.48.34.69,1.07,1,1,.38,1.48.89,1.48,1.75s-.77,1.74-2.1,1.74a3.12,3.12,0,0,1-1.58-.4Z"/><path class="cls-3" d="M65.49,237.15a.7.7,0,0,1,.75-.65.7.7,0,0,1-.06,1.4.69.69,0,0,1-.69-.71Zm0,4.24a.7.7,0,1,1,1.39-.17.49.49,0,0,1,0,.17.7.7,0,0,1-1.39.17A.49.49,0,0,1,65.49,241.39Z"/><path class="cls-3" d="M34.56,60l-2.11-2.88L29.25,69h-4.5l6-22.5h18q4.5,0,3.31,4.5l-1.2,4.5Q49.68,60,45.25,60H40.68l6.57,9H41.13Zm-.49-9-1.2,4.5h13.5l1.2-4.5Z"/><path class="cls-3" d="M62.26,46.47h13.5q4.5,0,3.31,4.5l-3.62,13.5q-1.2,4.5-5.7,4.5H56.25q-4.5,0-3.3-4.5L56.57,51Q57.76,46.47,62.26,46.47ZM61.07,51,57.45,64.5H71L74.57,51Z"/><path class="cls-3" d="M102,57.72c1.5,0,2,.75,1.66,2.25l-1.23,4.5q-1.2,4.5-5.7,4.5h-18l6-22.5h18q4.5,0,3.31,4.5l-1.2,4.5A2.7,2.7,0,0,1,102,57.72ZM85.68,60l-1.23,4.5H98L99.18,60Zm14.69-4.5,1.2-4.5H88.07l-1.2,4.5Z"/><path class="cls-3" d="M116.26,46.47h13.5q4.5,0,3.31,4.5l-3.62,13.5q-1.2,4.5-5.7,4.5h-13.5q-4.5,0-3.3-4.5L110.57,51Q111.76,46.47,116.26,46.47ZM115.07,51l-3.62,13.5H125L128.57,51Z"/><path class="cls-3" d="M138.76,46.47h22.5L160.07,51h-9l-4.82,18h-4.5l4.82-18h-9Z"/><path class="cls-3" d="M187.56,60l-2.11-2.88L182.25,69h-4.5l6-22.5h18q4.5,0,3.31,4.5l-1.2,4.5q-1.2,4.5-5.62,4.5h-4.57l6.57,9h-6.12Zm-.49-9-1.2,4.5h13.5l1.2-4.5Z"/><path class="cls-3" d="M228.45,64.47l-1.2,4.5h-22.5l1.2-4.5Zm2.42-9L229.68,60h-22.5l1.19-4.5Zm2.39-9L232.07,51h-22.5l1.19-4.5Z"/><path class="cls-3" d="M238.68,60l-2.43,9h-4.5l4.82-18q1.19-4.5,5.69-4.5h13.5q4.5,0,3.31,4.5l-4.82,18h-4.5l2.43-9Zm14.69-4.5,1.2-4.5h-13.5l-1.2,4.5Z"/><path class="cls-3" d="M287.26,46.47l-15,22.5h-4.5l-3-22.5h5.13l1.76,16.38L282,46.47Z"/><path class="cls-3" d="M309.45,64.47l-1.2,4.5h-22.5l1.2-4.5Zm2.42-9L310.68,60h-22.5l1.19-4.5Zm2.39-9L313.07,51h-22.5l1.19-4.5Z"/><path class="cls-3" d="M322.56,60l-2.11-2.88L317.25,69h-4.5l6-22.5h18q4.5,0,3.31,4.5l-1.2,4.5q-1.2,4.5-5.62,4.5h-4.57l6.57,9h-6.12Zm-.49-9-1.2,4.5h13.5l1.2-4.5Z"/><path class="cls-3" d="M367.07,51h-18l-1.2,4.5h13.5q4.5,0,3.31,4.5l-1.23,4.5q-1.2,4.5-5.7,4.5h-18l1.2-4.5h18l1.23-4.5h-13.5c-3,0-4.11-1.5-3.31-4.5l1.2-4.5q1.19-4.5,5.69-4.5h18Z"/><path class="cls-3" d="M30.75,135.83h-7.5l2-7.5h1.5l-1.6,6h6Z"/><path class="cls-3" d="M35.75,128.33h4.5q1.5,0,1.11,1.5l-1.21,4.5a1.82,1.82,0,0,1-1.9,1.5h-4.5c-1,0-1.37-.5-1.1-1.5l1.21-4.5A1.8,1.8,0,0,1,35.75,128.33Zm-.39,1.5-1.21,4.5h4.5l1.21-4.5Z"/><path class="cls-3" d="M44.52,132.83l-.7-1-1.07,4h-1.5l2-7.5h6q1.5,0,1.11,1.5l-.4,1.5a1.8,1.8,0,0,1-1.88,1.5H46.56l2.19,3h-2Zm-.16-3-.4,1.5h4.5l.4-1.5Z"/><path class="cls-3" d="M58.15,134.33l-.4,1.5h-7.5l.4-1.5Zm.81-3-.4,1.5h-7.5l.4-1.5Zm.79-3-.39,1.5h-7.5l.39-1.5Z"/><path class="cls-3" d="M67.25,128.33h3q1.5,0,1.11,1.5l-1.61,6h-1.5l1.61-6h-3l-1.61,6h-1.5l1.61-6h-3l-1.61,6h-1.5l1.61-6a1.8,1.8,0,0,1,1.89-1.5h3c.49,0,.67.25.56.75A.91.91,0,0,1,67.25,128.33Z"/><path class="cls-3" d="M80.75,128.33l-2,7.5h-1.5l2-7.5Z"/><path class="cls-3" d="M81.75,135.83h-1.5l2-7.5h6q1.5,0,1.11,1.5l-.4,1.5a1.82,1.82,0,0,1-1.9,1.5h-4.5Zm5.71-4.5.4-1.5h-4.5l-.4,1.5Z"/><path class="cls-3" d="M98.36,129.83h-6l-.4,1.5h4.5c1,0,1.36.5,1.1,1.5l-.41,1.5a1.82,1.82,0,0,1-1.9,1.5h-6l.4-1.5h6l.41-1.5h-4.5c-1,0-1.37-.5-1.1-1.5l.4-1.5a1.8,1.8,0,0,1,1.89-1.5h6Z"/><path class="cls-3" d="M104.25,135.83h-4.5c-1,0-1.37-.5-1.1-1.5l1.6-6h1.5l-1.6,6h4.5l1.6-6h1.5l-1.6,6A1.82,1.82,0,0,1,104.25,135.83Z"/><path class="cls-3" d="M115.25,128.33h3q1.5,0,1.11,1.5l-1.61,6h-1.5l1.61-6h-3l-1.61,6h-1.5l1.61-6h-3l-1.61,6h-1.5l1.61-6a1.8,1.8,0,0,1,1.89-1.5h3c.49,0,.67.25.56.75A.91.91,0,0,1,115.25,128.33Z"/><path class="cls-3" d="M125.25,135.83l2-7.5h6q1.5,0,1.11,1.5l-1.21,4.5a1.82,1.82,0,0,1-1.9,1.5Zm1.9-1.5h4.5l1.21-4.5h-4.5Z"/><path class="cls-3" d="M137.75,128.33h4.5q1.5,0,1.11,1.5l-1.21,4.5a1.82,1.82,0,0,1-1.9,1.5h-4.5c-1,0-1.37-.5-1.1-1.5l1.21-4.5A1.8,1.8,0,0,1,137.75,128.33Zm-.39,1.5-1.21,4.5h4.5l1.21-4.5Z"/><path class="cls-3" d="M150.75,135.83h-7.5l2-7.5h1.5l-1.6,6h6Z"/><path class="cls-3" d="M155.75,128.33h4.5q1.5,0,1.11,1.5l-1.21,4.5a1.82,1.82,0,0,1-1.9,1.5h-4.5c-1,0-1.37-.5-1.1-1.5l1.21-4.5A1.8,1.8,0,0,1,155.75,128.33Zm-.39,1.5-1.21,4.5h4.5l1.21-4.5Z"/><path class="cls-3" d="M164.52,132.83l-.7-1-1.07,4h-1.5l2-7.5h6q1.5,0,1.11,1.5l-.4,1.5a1.8,1.8,0,0,1-1.88,1.5h-1.52l2.19,3h-2Zm-.16-3-.4,1.5h4.5l.4-1.5Z"/><path class="cls-3" d="M185.36,129.83h-6l-.4,1.5h4.5c1,0,1.36.5,1.1,1.5l-.41,1.5a1.82,1.82,0,0,1-1.9,1.5h-6l.4-1.5h6l.41-1.5h-4.5c-1,0-1.37-.5-1.1-1.5l.4-1.5a1.8,1.8,0,0,1,1.89-1.5h6Z"/><path class="cls-3" d="M188.75,128.33l-2,7.5h-1.5l2-7.5Z"/><path class="cls-3" d="M190.25,128.33h7.5l-.39,1.5h-3l-1.61,6h-1.5l1.61-6h-3Z"/><path class="cls-3" d="M205.56,132.83l-.81,3h-1.5l1.61-6a1.8,1.8,0,0,1,1.89-1.5h4.5q1.5,0,1.11,1.5l-1.61,6h-1.5l.81-3Zm4.9-1.5.4-1.5h-4.5l-.4,1.5Z"/><path class="cls-3" d="M220.25,128.33h3q1.5,0,1.11,1.5l-1.61,6h-1.5l1.61-6h-3l-1.61,6h-1.5l1.61-6h-3l-1.61,6h-1.5l1.61-6a1.8,1.8,0,0,1,1.89-1.5h3c.49,0,.67.25.56.75A.91.91,0,0,1,220.25,128.33Z"/><path class="cls-3" d="M232.15,134.33l-.4,1.5h-7.5l.4-1.5Zm.81-3-.4,1.5h-7.5l.4-1.5Zm.79-3-.39,1.5h-7.5l.39-1.5Z"/><path class="cls-3" d="M235.25,128.33h7.5l-.39,1.5h-3l-1.61,6h-1.5l1.61-6h-3Z"/><path class="cls-3" d="M244.56,132.83l-.81,3h-1.5l.81-3Z"/><path class="cls-3" d="M251.65,134.33l1.21-4.5a1.8,1.8,0,0,1,1.89-1.5h6l-.39,1.5h-6l-1.21,4.5h6l-.4,1.5h-6C251.75,135.83,251.38,135.33,251.65,134.33Z"/><path class="cls-3" d="M263.75,128.33h4.5q1.5,0,1.11,1.5l-1.21,4.5a1.82,1.82,0,0,1-1.9,1.5h-4.5c-1,0-1.37-.5-1.1-1.5l1.21-4.5A1.8,1.8,0,0,1,263.75,128.33Zm-.39,1.5-1.21,4.5h4.5l1.21-4.5Z"/><path class="cls-3" d="M269.25,135.83l2-7.5,4.81,4.5,1.19-4.5h1.5l-2,7.5-4.79-4.5-1.21,4.5Z"/><path class="cls-3" d="M287.36,129.83h-6l-.4,1.5h4.5c1,0,1.36.5,1.1,1.5l-.41,1.5a1.82,1.82,0,0,1-1.9,1.5h-6l.4-1.5h6l.41-1.5h-4.5c-1,0-1.37-.5-1.1-1.5l.4-1.5a1.8,1.8,0,0,1,1.89-1.5h6Z"/><path class="cls-3" d="M295.15,134.33l-.4,1.5h-7.5l.4-1.5Zm.81-3-.4,1.5h-7.5l.4-1.5Zm.79-3-.39,1.5h-7.5l.39-1.5Z"/><path class="cls-3" d="M296.65,134.33l1.21-4.5a1.8,1.8,0,0,1,1.89-1.5h6l-.39,1.5h-6l-1.21,4.5h6l-.4,1.5h-6C296.75,135.83,296.38,135.33,296.65,134.33Z"/><path class="cls-3" d="M306.06,132.83l.4-1.5H311l-.4,1.5Z"/><path class="cls-3" d="M25.25,142.73h7.5l-.39,1.5h-3l-1.61,6h-1.5l1.61-6h-3Z"/><path class="cls-3" d="M40.15,148.73l-.4,1.5h-7.5l.4-1.5Zm.81-3-.4,1.5h-7.5l.4-1.5Zm.79-3-.39,1.5h-7.5l.39-1.5Z"/><path class="cls-3" d="M43.25,142.73h7.5l-.39,1.5h-3l-1.61,6h-1.5l1.61-6h-3Z"/><path class="cls-3" d="M56.25,150.23h-4.5c-1,0-1.37-.5-1.1-1.5l1.6-6h1.5l-1.6,6h4.5l1.6-6h1.5l-1.6,6A1.82,1.82,0,0,1,56.25,150.23Z"/><path class="cls-3" d="M67.15,148.73l-.4,1.5h-7.5l.4-1.5Zm.81-3-.4,1.5h-7.5l.4-1.5Zm.79-3-.39,1.5h-7.5l.39-1.5Z"/><path class="cls-3" d="M71.52,147.23l-.7-1-1.07,4h-1.5l2-7.5h6q1.5,0,1.11,1.5l-.4,1.5a1.8,1.8,0,0,1-1.88,1.5H73.56l2.19,3h-2Zm-.16-3-.4,1.5h4.5l.4-1.5Z"/><path class="cls-3" d="M85.56,147.23l-.81,3h-1.5l1.61-6a1.8,1.8,0,0,1,1.89-1.5h4.5q1.5,0,1.11,1.5l-1.61,6h-1.5l.81-3Zm4.9-1.5.4-1.5h-4.5l-.4,1.5Z"/><path class="cls-3" d="M92.25,150.23l2-7.5h6q1.5,0,1.11,1.5l-1.21,4.5a1.82,1.82,0,0,1-1.9,1.5Zm1.9-1.5h4.5l1.21-4.5h-4.5Z"/><path class="cls-3" d="M104.75,142.73l-2,7.5h-1.5l2-7.5Z"/><path class="cls-3" d="M105.75,150.23h-1.5l2-7.5h6q1.5,0,1.11,1.5l-.4,1.5a1.82,1.82,0,0,1-1.9,1.5h-4.5Zm5.71-4.5.4-1.5h-4.5l-.4,1.5Z"/><path class="cls-3" d="M116.75,142.73l-2,7.5h-1.5l2-7.5Z"/><path class="cls-3" d="M125.36,144.23h-6l-.4,1.5h4.5c1,0,1.36.5,1.1,1.5l-.41,1.5a1.82,1.82,0,0,1-1.9,1.5h-6l.4-1.5h6l.41-1.5h-4.5c-1,0-1.37-.5-1.1-1.5l.4-1.5a1.8,1.8,0,0,1,1.89-1.5h6Z"/><path class="cls-3" d="M125.65,148.73l1.21-4.5a1.8,1.8,0,0,1,1.89-1.5h6l-.39,1.5h-6l-1.21,4.5h6l-.4,1.5h-6C125.75,150.23,125.38,149.73,125.65,148.73Z"/><path class="cls-3" d="M137.75,142.73l-2,7.5h-1.5l2-7.5Z"/><path class="cls-3" d="M137.25,150.23l2-7.5,4.81,4.5,1.19-4.5h1.5l-2,7.5-4.79-4.5-1.21,4.5Z"/><path class="cls-3" d="M153.75,150.23h-6c-1,0-1.37-.5-1.1-1.5l1.21-4.5a1.8,1.8,0,0,1,1.89-1.5h6l-.39,1.5h-6l-1.21,4.5h4.5l.41-1.5h-2.25l.4-1.5H155Z"/><path class="cls-3" d="M169.15,148.73l-.4,1.5h-7.5l.4-1.5Zm.81-3-.4,1.5h-7.5l.4-1.5Zm.79-3-.39,1.5h-7.5l.39-1.5Z"/><path class="cls-3" d="M177.75,150.23h-7.5l2-7.5h1.5l-1.6,6h6Z"/><path class="cls-3" d="M182.75,142.73l-2,7.5h-1.5l2-7.5Z"/><path class="cls-3" d="M184.25,142.73h7.5l-.39,1.5h-3l-1.61,6h-1.5l1.61-6h-3Z"/><path class="cls-3" d="M193.56,147.23l-.81,3h-1.5l.81-3Z"/><path class="cls-3" d="M209.36,144.23h-6l-.4,1.5h4.5c1,0,1.36.5,1.1,1.5l-.41,1.5a1.82,1.82,0,0,1-1.9,1.5h-6l.4-1.5h6l.41-1.5h-4.5c-1,0-1.37-.5-1.1-1.5l.4-1.5a1.8,1.8,0,0,1,1.89-1.5h6Z"/><path class="cls-3" d="M217.15,148.73l-.4,1.5h-7.5l.4-1.5Zm.81-3-.4,1.5h-7.5l.4-1.5Zm.79-3-.39,1.5h-7.5l.39-1.5Z"/><path class="cls-3" d="M218.25,150.23l2-7.5h6q1.5,0,1.11,1.5l-1.21,4.5a1.82,1.82,0,0,1-1.9,1.5Zm1.9-1.5h4.5l1.21-4.5h-4.5Z"/><path class="cls-3" d="M233.25,150.23l2-7.5h6q1.5,0,1.11,1.5l-1.21,4.5a1.82,1.82,0,0,1-1.9,1.5Zm1.9-1.5h4.5l1.21-4.5h-4.5Z"/><path class="cls-3" d="M245.75,142.73l-2,7.5h-1.5l2-7.5Z"/><path class="cls-3" d="M247.56,147.23l-.81,3h-1.5l1.61-6a1.8,1.8,0,0,1,1.89-1.5h4.5q1.5,0,1.11,1.5l-1.61,6h-1.5l.81-3Zm4.9-1.5.4-1.5h-4.5l-.4,1.5Z"/><path class="cls-3" d="M262.25,142.73h3q1.5,0,1.11,1.5l-1.61,6h-1.5l1.61-6h-3l-1.61,6h-1.5l1.61-6h-3l-1.61,6h-1.5l1.61-6a1.8,1.8,0,0,1,1.89-1.5h3c.49,0,.67.25.56.75A.91.91,0,0,1,262.25,142.73Z"/><path class="cls-3" d="M272.25,150.23l2-7.5,4.81,4.5,1.19-4.5h1.5l-2,7.5-4.79-4.5-1.21,4.5Z"/><path class="cls-3" d="M284.75,142.73h4.5q1.5,0,1.11,1.5l-1.21,4.5a1.82,1.82,0,0,1-1.9,1.5h-4.5c-1,0-1.37-.5-1.1-1.5l1.21-4.5A1.8,1.8,0,0,1,284.75,142.73Zm-.39,1.5-1.21,4.5h4.5l1.21-4.5Z"/><path class="cls-3" d="M290.25,150.23l2-7.5,4.81,4.5,1.19-4.5h1.5l-2,7.5-4.79-4.5-1.21,4.5Z"/><path class="cls-3" d="M305.25,150.23h-4.5c-1,0-1.37-.5-1.1-1.5l1.6-6h1.5l-1.6,6h4.5l1.6-6h1.5l-1.6,6A1.82,1.82,0,0,1,305.25,150.23Z"/><path class="cls-3" d="M316.25,142.73h3q1.5,0,1.11,1.5l-1.61,6h-1.5l1.61-6h-3l-1.61,6h-1.5l1.61-6h-3l-1.61,6h-1.5l1.61-6a1.8,1.8,0,0,1,1.89-1.5h3c.49,0,.67.25.56.75A.91.91,0,0,1,316.25,142.73Z"/><path class="cls-3" d="M321.06,147.23l.4-1.5H326l-.4,1.5Z"/><path class="cls-3" d="M31.25,157.13h3q1.5,0,1.11,1.5l-1.61,6h-1.5l1.61-6h-3l-1.61,6h-1.5l1.61-6h-3l-1.61,6h-1.5l1.61-6a1.8,1.8,0,0,1,1.89-1.5h3c.49,0,.67.25.56.75A.91.91,0,0,1,31.25,157.13Z"/><path class="cls-3" d="M41.65,163.13l.41-1.5h-4.5c-1,0-1.37-.5-1.1-1.5l.79-3h1.5l-.79,3h4.5l.79-3h1.5l-1.6,6a1.82,1.82,0,0,1-1.9,1.5h-6l.4-1.5Z"/><path class="cls-3" d="M50.25,164.63l2-7.5,4.81,4.5,1.19-4.5h1.5l-2,7.5L53,160.13l-1.21,4.5Z"/><path class="cls-3" d="M62.75,157.13l-2,7.5h-1.5l2-7.5Z"/><path class="cls-3" d="M70,160.88c.5,0,.68.25.55.75l-.41,1.5a1.82,1.82,0,0,1-1.9,1.5h-6l2-7.5h6q1.5,0,1.11,1.5l-.4,1.5A.91.91,0,0,1,70,160.88Zm-5.45.75-.41,1.5h4.5l.41-1.5Zm4.9-1.5.4-1.5h-4.5l-.4,1.5Z"/><path class="cls-3" d="M74.75,157.13l-.79,3h4.5l.79-3h1.5l-2,7.5h-1.5l.81-3h-4.5l-.81,3h-1.5l2-7.5Z"/><path class="cls-3" d="M94.15,163.13l-.4,1.5h-7.5l.4-1.5Zm.81-3-.4,1.5h-7.5l.4-1.5Zm.79-3-.39,1.5h-7.5l.39-1.5Z"/><path class="cls-3" d="M101.25,164.63h-4.5c-1,0-1.37-.5-1.1-1.5l1.6-6h1.5l-1.6,6h4.5l1.6-6h1.5l-1.6,6A1.82,1.82,0,0,1,101.25,164.63Z"/><path class="cls-3" d="M107.75,157.13l-2,7.5h-1.5l2-7.5Z"/><path class="cls-3" d="M116.36,158.63h-6l-.4,1.5h4.5c1,0,1.36.5,1.1,1.5l-.41,1.5a1.82,1.82,0,0,1-1.9,1.5h-6l.4-1.5h6l.41-1.5h-4.5c-1,0-1.37-.5-1.1-1.5l.4-1.5a1.8,1.8,0,0,1,1.89-1.5h6Z"/><path class="cls-3" d="M124.25,157.13h3q1.5,0,1.11,1.5l-1.61,6h-1.5l1.61-6h-3l-1.61,6h-1.5l1.61-6h-3l-1.61,6h-1.5l1.61-6a1.8,1.8,0,0,1,1.89-1.5h3c.49,0,.67.25.56.75A.91.91,0,0,1,124.25,157.13Z"/><path class="cls-3" d="M131.75,157.13h4.5q1.5,0,1.11,1.5l-1.21,4.5a1.82,1.82,0,0,1-1.9,1.5h-4.5c-1,0-1.37-.5-1.1-1.5l1.21-4.5A1.8,1.8,0,0,1,131.75,157.13Zm-.39,1.5-1.21,4.5h4.5l1.21-4.5Z"/><path class="cls-3" d="M137.25,164.63l2-7.5h6q1.5,0,1.11,1.5l-1.21,4.5a1.82,1.82,0,0,1-1.9,1.5Zm1.9-1.5h4.5l1.21-4.5h-4.5Z"/><path class="cls-3" d="M154.25,157.13h7.5l-.39,1.5h-3l-1.61,6h-1.5l1.61-6h-3Z"/><path class="cls-3" d="M164.75,157.13l-2,7.5h-1.5l2-7.5Z"/><path class="cls-3" d="M164.25,164.63l2-7.5,4.81,4.5,1.19-4.5h1.5l-2,7.5-4.79-4.5-1.21,4.5Z"/><path class="cls-3" d="M173.65,163.13l1.21-4.5a1.8,1.8,0,0,1,1.89-1.5h6l-.39,1.5h-6l-1.21,4.5h6l-.4,1.5h-6C173.75,164.63,173.38,164.13,173.65,163.13Z"/><path class="cls-3" d="M185.75,157.13l-2,7.5h-1.5l2-7.5Z"/><path class="cls-3" d="M185.25,164.63l2-7.5h6q1.5,0,1.11,1.5l-1.21,4.5a1.82,1.82,0,0,1-1.9,1.5Zm1.9-1.5h4.5l1.21-4.5h-4.5Z"/><path class="cls-3" d="M200.25,164.63h-4.5c-1,0-1.37-.5-1.1-1.5l1.6-6h1.5l-1.6,6h4.5l1.6-6h1.5l-1.6,6A1.82,1.82,0,0,1,200.25,164.63Z"/><path class="cls-3" d="M203.25,164.63l2-7.5,4.81,4.5,1.19-4.5h1.5l-2,7.5-4.79-4.5-1.21,4.5Z"/><path class="cls-3" d="M214.25,157.13h7.5l-.39,1.5h-3l-1.61,6h-1.5l1.61-6h-3Z"/><path class="cls-3" d="M233.25,164.63h-4.5c-1,0-1.37-.5-1.1-1.5l1.6-6h1.5l-1.6,6h4.5l1.6-6h1.5l-1.6,6A1.82,1.82,0,0,1,233.25,164.63Z"/><path class="cls-3" d="M238.25,157.13h7.5l-.39,1.5h-3l-1.61,6h-1.5l1.61-6h-3Z"/><path class="cls-3" d="M258.75,164.63h-7.5l2-7.5h1.5l-1.6,6h6Z"/><path class="cls-3" d="M262.56,161.63l-.81,3h-1.5l1.61-6a1.8,1.8,0,0,1,1.89-1.5h4.5q1.5,0,1.11,1.5l-1.61,6h-1.5l.81-3Zm4.9-1.5.4-1.5h-4.5l-.4,1.5Z"/><path class="cls-3" d="M272.75,157.13h4.5q1.5,0,1.11,1.5l-1.21,4.5a1.82,1.82,0,0,1-1.9,1.5h-4.5c-1,0-1.37-.5-1.1-1.5l1.21-4.5A1.8,1.8,0,0,1,272.75,157.13Zm-.39,1.5-1.21,4.5h4.5l1.21-4.5Z"/><path class="cls-3" d="M281.52,161.63l-.7-1-1.07,4h-1.5l2-7.5h6q1.5,0,1.11,1.5l-.4,1.5a1.8,1.8,0,0,1-1.88,1.5h-1.52l2.19,3h-2Zm-.16-3-.4,1.5h4.5l.4-1.5Z"/><path class="cls-3" d="M295.15,163.13l-.4,1.5h-7.5l.4-1.5Zm.81-3-.4,1.5h-7.5l.4-1.5Zm.79-3-.39,1.5h-7.5l.39-1.5Z"/><path class="cls-3" d="M304.15,163.13l-.4,1.5h-7.5l.4-1.5Zm.81-3-.4,1.5h-7.5l.4-1.5Zm.79-3-.39,1.5h-7.5l.39-1.5Z"/><path class="cls-3" d="M307.25,157.13h7.5l-.39,1.5h-3l-1.61,6h-1.5l1.61-6h-3Z"/><path class="cls-3" d="M23.25,179l2-7.5h6q1.5,0,1.11,1.5l-1.21,4.5a1.82,1.82,0,0,1-1.9,1.5Zm1.9-1.5h4.5l1.21-4.5h-4.5Z"/><path class="cls-3" d="M35.75,171.53h4.5q1.5,0,1.11,1.5l-1.21,4.5a1.82,1.82,0,0,1-1.9,1.5h-4.5c-1,0-1.37-.5-1.1-1.5l1.21-4.5A1.8,1.8,0,0,1,35.75,171.53Zm-.39,1.5-1.21,4.5h4.5l1.21-4.5Z"/><path class="cls-3" d="M48.75,179h-7.5l2-7.5h1.5l-1.6,6h6Z"/><path class="cls-3" d="M53.75,171.53h4.5q1.5,0,1.11,1.5l-1.21,4.5a1.82,1.82,0,0,1-1.9,1.5h-4.5c-1,0-1.37-.5-1.1-1.5l1.21-4.5A1.8,1.8,0,0,1,53.75,171.53Zm-.39,1.5-1.21,4.5h4.5l1.21-4.5Z"/><path class="cls-3" d="M62.52,176l-.7-1-1.07,4h-1.5l2-7.5h6q1.5,0,1.11,1.5l-.4,1.5a1.8,1.8,0,0,1-1.88,1.5H64.56l2.19,3h-2Zm-.16-3-.4,1.5h4.5l.4-1.5Z"/><path class="cls-3" d="M76.15,177.53l-.4,1.5h-7.5l.4-1.5Zm.81-3-.4,1.5h-7.5l.4-1.5Zm.79-3-.39,1.5h-7.5l.39-1.5Z"/><path class="cls-3" d="M91.25,171.53h3q1.5,0,1.11,1.5l-1.61,6h-1.5l1.61-6h-3l-1.61,6h-1.5l1.61-6h-3l-1.61,6h-1.5l1.61-6a1.8,1.8,0,0,1,1.89-1.5h3c.49,0,.67.25.56.75A.91.91,0,0,1,91.25,171.53Z"/><path class="cls-3" d="M97.56,176l-.81,3h-1.5l1.61-6a1.8,1.8,0,0,1,1.89-1.5h4.5q1.5,0,1.11,1.5l-1.61,6h-1.5l.81-3Zm4.9-1.5.4-1.5h-4.5l-.4,1.5Z"/><path class="cls-3" d="M111.75,179h-6c-1,0-1.37-.5-1.1-1.5l1.21-4.5a1.8,1.8,0,0,1,1.89-1.5h6l-.39,1.5h-6l-1.21,4.5h4.5l.41-1.5h-2.25l.4-1.5H113Z"/><path class="cls-3" d="M113.25,179l2-7.5,4.81,4.5,1.19-4.5h1.5l-2,7.5L116,174.5l-1.21,4.5Z"/><path class="cls-3" d="M124.56,176l-.81,3h-1.5l1.61-6a1.8,1.8,0,0,1,1.89-1.5h4.5q1.5,0,1.11,1.5l-1.61,6h-1.5l.81-3Zm4.9-1.5.4-1.5h-4.5l-.4,1.5Z"/><path class="cls-3" d="M139.56,176l-.81,3h-1.5l1.61-6a1.8,1.8,0,0,1,1.89-1.5h4.5q1.5,0,1.11,1.5l-1.61,6h-1.5l.81-3Zm4.9-1.5.4-1.5h-4.5l-.4,1.5Z"/><path class="cls-3" d="M153.75,179h-7.5l2-7.5h1.5l-1.6,6h6Z"/><path class="cls-3" d="M158.75,171.53l-2,7.5h-1.5l2-7.5Z"/><path class="cls-3" d="M162.21,179h-2.46c-1,0-1.37-.5-1.1-1.5l1.21-4.5a1.8,1.8,0,0,1,1.89-1.5h4.5q1.5,0,1.11,1.5l-1.21,4.5a1.82,1.82,0,0,1-1.9,1.5l1.1,1.5h-2Zm2.44-1.5,1.21-4.5h-4.5l-1.21,4.5Z"/><path class="cls-3" d="M173.25,179h-4.5c-1,0-1.37-.5-1.1-1.5l1.6-6h1.5l-1.6,6h4.5l1.6-6h1.5l-1.6,6A1.82,1.82,0,0,1,173.25,179Z"/><path class="cls-3" d="M178.56,176l-.81,3h-1.5l1.61-6a1.8,1.8,0,0,1,1.89-1.5h4.5q1.5,0,1.11,1.5l-1.61,6h-1.5l.81-3Zm4.9-1.5.4-1.5h-4.5l-.4,1.5Z"/><path class="cls-3" d="M193.25,171.53h3q1.5,0,1.11,1.5l-1.61,6h-1.5l1.61-6h-3l-1.61,6h-1.5l1.61-6h-3l-1.61,6h-1.5l1.61-6a1.8,1.8,0,0,1,1.89-1.5h3c.49,0,.67.25.56.75A.91.91,0,0,1,193.25,171.53Z"/><path class="cls-3" d="M211.15,177.53l-.4,1.5h-7.5l.4-1.5Zm.81-3-.4,1.5h-7.5l.4-1.5Zm.79-3-.39,1.5h-7.5l.39-1.5Z"/><path class="cls-3" d="M215.52,176l-.7-1-1.07,4h-1.5l2-7.5h6q1.5,0,1.11,1.5l-.4,1.5a1.8,1.8,0,0,1-1.88,1.5h-1.52l2.19,3h-2Zm-.16-3-.4,1.5h4.5l.4-1.5Z"/><path class="cls-3" d="M223.56,176l-.81,3h-1.5l1.61-6a1.8,1.8,0,0,1,1.89-1.5h4.5q1.5,0,1.11,1.5l-1.61,6h-1.5l.81-3Zm4.9-1.5.4-1.5h-4.5l-.4,1.5Z"/><path class="cls-3" d="M232.25,171.53h7.5l-.39,1.5h-3l-1.61,6h-1.5l1.61-6h-3Z"/><path class="cls-3" d="M254.75,171.53l-5,7.5h-1.5l-1-7.5H249l.58,5.46,3.45-5.46Z"/><path class="cls-3" d="M257.75,171.53h4.5q1.5,0,1.11,1.5l-1.21,4.5a1.82,1.82,0,0,1-1.9,1.5h-4.5c-1,0-1.37-.5-1.1-1.5l1.21-4.5A1.8,1.8,0,0,1,257.75,171.53Zm-.39,1.5-1.21,4.5h4.5l1.21-4.5Z"/><path class="cls-3" d="M270.75,179h-7.5l2-7.5h1.5l-1.6,6h6Z"/><path class="cls-3" d="M278.25,179h-4.5c-1,0-1.37-.5-1.1-1.5l1.6-6h1.5l-1.6,6h4.5l1.6-6h1.5l-1.6,6A1.82,1.82,0,0,1,278.25,179Z"/><path class="cls-3" d="M283.25,171.53h7.5l-.39,1.5h-3l-1.61,6h-1.5l1.61-6h-3Z"/><path class="cls-3" d="M291.75,179h-1.5l2-7.5h6q1.5,0,1.11,1.5l-.4,1.5a1.82,1.82,0,0,1-1.9,1.5h-4.5Zm5.71-4.5.4-1.5h-4.5l-.4,1.5Z"/><path class="cls-3" d="M301.56,176l-.81,3h-1.5l1.61-6a1.8,1.8,0,0,1,1.89-1.5h4.5q1.5,0,1.11,1.5l-1.61,6h-1.5l.81-3Zm4.9-1.5.4-1.5h-4.5l-.4,1.5Z"/><path class="cls-3" d="M310.25,171.53h7.5l-.39,1.5h-3l-1.61,6h-1.5l1.61-6h-3Z"/><path class="cls-3" d="M317.25,179l.4-1.5h1.5l-.4,1.5Z"/><path class="cls-3" d="M29.25,193.43h-4.5c-1,0-1.37-.5-1.1-1.5l1.6-6h1.5l-1.6,6h4.5l1.6-6h1.5l-1.6,6A1.82,1.82,0,0,1,29.25,193.43Z"/><path class="cls-3" d="M34.25,185.93h7.5l-.39,1.5h-3l-1.61,6h-1.5l1.61-6h-3Z"/><path class="cls-3" d="M52.7,192.68a.93.93,0,0,1-1,.75h-3c-1,0-1.37-.5-1.1-1.5l1.6-6h1.5l-1.6,6h3l1.6-6h1.5l-1.6,6h3l1.6-6h1.5l-1.6,6a1.82,1.82,0,0,1-1.9,1.5h-3C52.77,193.43,52.58,193.18,52.7,192.68Z"/><path class="cls-3" d="M62.75,185.93l-2,7.5h-1.5l2-7.5Z"/><path class="cls-3" d="M71.36,187.43h-6l-.4,1.5h4.5c1,0,1.36.5,1.1,1.5l-.41,1.5a1.82,1.82,0,0,1-1.9,1.5h-6l.4-1.5h6l.41-1.5h-4.5c-1,0-1.37-.5-1.1-1.5l.4-1.5a1.8,1.8,0,0,1,1.89-1.5h6Z"/><path class="cls-3" d="M74.75,185.93l-2,7.5h-1.5l2-7.5Z"/><path class="cls-3" d="M26.58,88.67l-1.08,4h-2l2.14-8a2.41,2.41,0,0,1,2.53-2h6c1.34,0,1.83.66,1.47,2l-2.14,8h-2l1.08-4Zm6.53-2,.53-2h-6l-.53,2Z"/><path class="cls-3" d="M45.84,87.67c.67,0,.92.33.74,1l-.55,2a2.41,2.41,0,0,1-2.53,2h-8l2.67-10h8c1.34,0,1.83.66,1.47,2l-.53,2A1.21,1.21,0,0,1,45.84,87.67Zm-7.26,1-.55,2h6l.55-2Zm6.53-2,.53-2h-6l-.53,2Z"/><path class="cls-3" d="M48,90.67l1.61-6a2.41,2.41,0,0,1,2.53-2h8l-.53,2h-8l-1.61,6h8l-.53,2h-8C48.17,92.67,47.68,92,48,90.67Z"/><path class="cls-3" d="M59.5,92.67l2.67-10h8c1.34,0,1.83.66,1.47,2l-1.61,6a2.41,2.41,0,0,1-2.53,2Zm2.53-2h6l1.61-6h-6Z"/><path class="cls-3" d="M82,90.67l-.53,2h-10l.53-2Zm1.08-4-.53,2h-10l.53-2Zm1.06-4-.53,2h-10l.53-2Z"/><path class="cls-3" d="M86.17,82.67h10l-.53,2h-8l-.53,2h8l-.53,2h-8l-1.08,4h-2Z"/><path class="cls-3" d="M105.5,92.67h-8c-1.33,0-1.82-.67-1.47-2l1.61-6a2.41,2.41,0,0,1,2.53-2h8l-.53,2h-8l-1.61,6h6l.55-2h-3l.53-2h5Z"/><path class="cls-3" d="M112.17,82.67l-1.06,4h6l1.06-4h2l-2.67,10h-2l1.08-4h-6l-1.08,4h-2l2.67-10Z"/><path class="cls-3" d="M132.17,82.67l-2.14,8a2.41,2.41,0,0,1-2.53,2h-6c-1.33,0-1.82-.67-1.47-2l.55-2h2l-.55,2h6l2.14-8Z"/><path class="cls-3" d="M136.17,82.67l-2.67,10h-2l2.67-10Zm-1,5,6.32-5h2.72l-6.33,5,3.66,5h-2.72Z"/><path class="cls-3" d="M153.5,92.67h-10l2.67-10h2l-2.14,8h8Z"/><path class="cls-3" d="M155.5,92.67l2.67-10,6.41,6,1.59-6h2l-2.67,10-6.39-6-1.61,6Z"/><path class="cls-3" d="M172.17,82.67h6c1.34,0,1.83.66,1.47,2l-1.61,6a2.41,2.41,0,0,1-2.53,2h-6c-1.33,0-1.82-.67-1.47-2l1.61-6A2.41,2.41,0,0,1,172.17,82.67Zm-.53,2-1.61,6h6l1.61-6Z"/><path class="cls-3" d="M181.5,92.67h-2l2.67-10h8c1.34,0,1.83.66,1.47,2l-.53,2a2.41,2.41,0,0,1-2.53,2h-6Zm7.61-6,.53-2h-6l-.53,2Z"/><path class="cls-3" d="M196.78,92.67H193.5c-1.33,0-1.82-.67-1.47-2l1.61-6a2.41,2.41,0,0,1,2.53-2h6c1.34,0,1.83.66,1.47,2l-1.61,6a2.41,2.41,0,0,1-2.53,2l1.47,2h-2.72Zm3.25-2,1.61-6h-6l-1.61,6Z"/><path class="cls-3" d="M207.86,88.67l-.94-1.28-1.42,5.28h-2l2.67-10h8c1.34,0,1.83.66,1.47,2l-.53,2a2.39,2.39,0,0,1-2.5,2h-2l2.92,4h-2.72Zm-.22-4-.53,2h6l.53-2Z"/><path class="cls-3" d="M227.64,84.67h-8l-.53,2h6c1.33,0,1.82.66,1.47,2l-.55,2a2.41,2.41,0,0,1-2.53,2h-8l.53-2h8l.55-2h-6c-1.33,0-1.82-.67-1.47-2l.53-2a2.41,2.41,0,0,1,2.53-2h8Z"/><path class="cls-3" d="M230.17,82.67h10l-.53,2h-4l-2.14,8h-2l2.14-8h-4Z"/><path class="cls-3" d="M247.5,92.67h-6c-1.33,0-1.82-.67-1.47-2l2.14-8h2l-2.14,8h6l2.14-8h2l-2.14,8A2.41,2.41,0,0,1,247.5,92.67Z"/><path class="cls-3" d="M264.17,82.67l-6.67,10h-2l-1.33-10h2.28l.78,7.28,4.6-7.28Z"/><path class="cls-3" d="M270.77,91.67a1.24,1.24,0,0,1-1.27,1h-4c-1.33,0-1.82-.67-1.47-2l2.14-8h2l-2.14,8h4l2.14-8h2l-2.14,8h4l2.14-8h2l-2.14,8a2.41,2.41,0,0,1-2.53,2h-4C270.85,92.67,270.61,92.33,270.77,91.67Z"/><path class="cls-3" d="M284.59,87.67l-2.42-5h2.5L286.28,86l3.39-3.34h2.5l-5.08,5,2.41,5H287l-1.61-3.35L282,92.67h-2.5Z"/><path class="cls-3" d="M300,90.67l.55-2h-6c-1.33,0-1.82-.67-1.47-2l1.06-4h2l-1.06,4h6l1.06-4h2l-2.14,8a2.41,2.41,0,0,1-2.53,2h-8l.53-2Z"/><path class="cls-3" d="M313.5,92.67h-10l8.14-8h-6l.53-2h10l-8.14,8h6Z"/><path class="cls-3" d="M28.17,101.87l-2.67,10h-2l2.67-10Z"/><path class="cls-3" d="M30.17,101.87h8c1.34,0,1.83.66,1.47,2l-.53,2a2.41,2.41,0,0,1-2.53,2h-6l-.55,2h8l-.53,2h-8c-1.33,0-1.82-.67-1.47-2l.55-2a2.4,2.4,0,0,1,2.53-2h6l.53-2h-8Z"/><path class="cls-3" d="M50,109.87a2.41,2.41,0,0,1-2.53,2h-8l.53-2h8l.55-2h-8l.53-2h8l.53-2h-8l.53-2h10Z"/><path class="cls-3" d="M63.64,103.87h-8l-.53,2h6c1.33,0,1.82.66,1.47,2l-.55,2a2.41,2.41,0,0,1-2.53,2h-8l.53-2h8l.55-2h-6c-1.33,0-1.82-.67-1.47-2l1.06-4h10Z"/><path class="cls-3" d="M68.17,101.87h8l-.53,2h-8l-.53,2h6c1.33,0,1.82.66,1.47,2l-.55,2a2.41,2.41,0,0,1-2.53,2h-6c-1.33,0-1.82-.67-1.47-2l1.61-6A2.41,2.41,0,0,1,68.17,101.87Zm-1.59,6-.55,2h6l.55-2Z"/><path class="cls-3" d="M78.17,101.87h10l-7.67,10H78.09l6.24-8H77.64Z"/><path class="cls-3" d="M92.17,101.87h6c1.34,0,1.83.66,1.47,2l-1.61,6a2.41,2.41,0,0,1-2.53,2h-6c-1.33,0-1.82-.67-1.47-2l1.61-6A2.41,2.41,0,0,1,92.17,101.87Zm-1.59,6-.55,2h6l.55-2Zm1.06-4-.53,2h6l.53-2Z"/><path class="cls-3" d="M107.5,111.87h-8l.53-2h8l.55-2h-6c-1.33,0-1.82-.67-1.47-2l.53-2a2.41,2.41,0,0,1,2.53-2h6c1.34,0,1.83.66,1.47,2l-1.61,6A2.41,2.41,0,0,1,107.5,111.87Zm1.61-6,.53-2h-6l-.53,2Z"/><path class="cls-3" d="M116.17,101.87h6c1.34,0,1.83.66,1.47,2l-1.61,6a2.41,2.41,0,0,1-2.53,2h-6c-1.33,0-1.82-.67-1.47-2l1.61-6A2.41,2.41,0,0,1,116.17,101.87Zm-.53,2-1.61,6h6l1.61-6Z"/><g class="cls-4"><rect class="cls-5" x="382.37" y="17.88" width="92.87" height="100.68"/><polygon class="cls-6" points="404.25 115.2 447.68 57.84 472.25 95.04 404.25 115.2"/><g class="cls-7"><polygon class="cls-6" points="399.41 118.46 448.02 54.26 475.52 95.89 399.41 118.46"/></g><polygon class="cls-8" points="493.06 27.2 423.96 118.46 384.87 59.27 493.06 27.2"/><g class="cls-7"><polygon class="cls-8" points="500.76 22.02 423.42 124.16 379.66 57.92 500.76 22.02"/></g><path class="cls-6" d="M405.22,60.56l2.57-9.63h7.71c1.28,0,1.75.64,1.41,1.93l-1.55,5.78a2.32,2.32,0,0,1-2.44,1.92Zm2.44-1.92h5.78L415,52.86h-5.78Z"/><path class="cls-9" d="M421.28,50.93l-2.57,9.63h-1.93l2.57-9.63Z"/><path class="cls-9" d="M430.27,60.56h-7.71c-1.29,0-1.76-.64-1.42-1.92l1.55-5.78a2.33,2.33,0,0,1,2.44-1.93h7.71l-.51,1.93h-7.71l-1.55,5.78h5.78l.53-1.93h-2.89l.51-1.93h4.82Z"/><path class="cls-9" d="M436.69,50.93l-2.57,9.63h-1.93l2.58-9.63Z"/><path class="cls-9" d="M438.62,50.93h9.63l-.51,1.93h-3.85l-2.06,7.7H439.9l2.06-7.7h-3.85Z"/><path class="cls-9" d="M450.57,56.71l-1,3.85h-1.92l2.06-7.7a2.31,2.31,0,0,1,2.44-1.93h5.78c1.28,0,1.75.64,1.41,1.93l-2.06,7.7h-1.93l1-3.85Zm6.3-1.93.51-1.92H451.6l-.52,1.92Z"/><path class="cls-9" d="M468.8,60.56h-9.63l2.57-9.63h1.93l-2.06,7.71h7.7Z"/><path class="cls-6" d="M398,87.37l2.57-9.64h7.71c1.28,0,1.75.65,1.41,1.93l-1.55,5.78a2.31,2.31,0,0,1-2.44,1.93Zm2.43-1.93h5.78l1.56-5.78H402Z"/><path class="cls-9" d="M419.67,85.44l-.51,1.93h-9.63l.51-1.93Zm1-3.85-.51,1.92h-9.63l.51-1.92Zm1-3.86-.52,1.93h-9.63l.51-1.93Z"/><path class="cls-9" d="M432.78,79.66h-7.7l-.52,1.93h5.79q1.92,0,1.41,1.92l-.53,1.93a2.31,2.31,0,0,1-2.44,1.93h-7.7l.51-1.93h7.71l.52-1.93h-5.78q-1.92,0-1.41-1.92l.51-1.93a2.32,2.32,0,0,1,2.44-1.93h7.71Z"/><path class="cls-9" d="M437.15,77.73l-2.57,9.64h-1.93l2.57-9.64Z"/><path class="cls-9" d="M446.14,87.37h-7.71c-1.29,0-1.76-.64-1.42-1.93l1.55-5.78A2.34,2.34,0,0,1,441,77.73h7.71l-.51,1.93h-7.71l-1.55,5.78h5.78l.53-1.93h-2.89l.51-1.92h4.82Z"/><path class="cls-9" d="M448.06,87.37l2.58-9.64,6.17,5.78,1.53-5.78h1.93l-2.57,9.64-6.16-5.78L450,87.37Z"/><path class="cls-6" d="M411.76,64.33h3.86c1.28,0,1.75.64,1.41,1.93L415,74h-2l2.06-7.71h-3.85l-2,7.71h-1.93l2.06-7.71h-3.85L403.41,74h-1.93l2.06-7.71a2.32,2.32,0,0,1,2.46-2h3.85c.63,0,.86.32.71,1A1.19,1.19,0,0,1,411.76,64.33Z"/><path class="cls-9" d="M427,72l-.47,2H416.9l.51-1.93Zm1-3.85-.51,1.92h-9.64l.52-1.92Zm1-3.86-.51,1.93H419l.51-1.93Z"/><path class="cls-9" d="M428.46,74,431,64.33h7.71c1.28,0,1.75.64,1.41,1.93L438.6,72a2.33,2.33,0,0,1-2.44,2Zm2.43-2h5.78l1.56-5.78h-5.79Z"/><path class="cls-9" d="M444.52,64.33,441.94,74H440l2.57-9.64Z"/><path class="cls-9" d="M446.84,70.11l-1,3.86h-1.93L446,66.26a2.32,2.32,0,0,1,2.44-1.93h5.78c1.29,0,1.76.64,1.42,1.93L453.5,74h-1.92l1-3.86Zm6.29-1.92.51-1.93h-5.78l-.51,1.93Z"/></g><circle class="cls-8" cx="623.72" cy="156.43" r="37.43"/><path class="cls-6" d="M606.3,136.23h-6.39l-.42,1.6h4.79q1.59,0,1.17,1.59L605,141a1.94,1.94,0,0,1-2,1.6h-6.38L597,141h6.39l.44-1.6H599c-1.07,0-1.46-.53-1.18-1.59l.43-1.6a1.92,1.92,0,0,1,2-1.6h6.38Z"/><path class="cls-9" d="M614.71,134.63h3.19c1.06,0,1.46.54,1.17,1.6l-1.71,6.39h-1.59l1.71-6.39h-3.2l-1.71,6.39H611l1.71-6.39h-3.2l-1.71,6.39h-1.59l1.71-6.39a1.92,1.92,0,0,1,2-1.6h3.19c.52,0,.71.27.59.8A1,1,0,0,1,614.71,134.63Z"/><path class="cls-9" d="M621.42,139.42l-.86,3.2H619l1.71-6.39a1.93,1.93,0,0,1,2-1.6h4.79c1.06,0,1.46.54,1.17,1.6L627,142.62h-1.59l.86-3.2Zm5.21-1.59.43-1.6h-4.79l-.43,1.6Z"/><path class="cls-9" d="M629,141l1.29-4.79a1.93,1.93,0,0,1,2-1.6h6.39l-.43,1.6h-6.38L630.56,141H637l-.43,1.6h-6.38C629.07,142.62,628.68,142.08,629,141Z"/><path class="cls-9" d="M638.54,141l1.29-4.79a1.93,1.93,0,0,1,2-1.6h6.39l-.43,1.6h-6.38L640.14,141h6.39l-.43,1.6h-6.38C638.65,142.62,638.26,142.08,638.54,141Z"/><rect class="cls-6" x="624.27" y="155.98" width="33.85" height="18.55" rx="8.97" ry="8.97" transform="translate(347.27 758.59) rotate(-78.1)"/><rect class="cls-10" x="627.15" y="155.78" width="28.38" height="16.48" rx="7.97" ry="7.97" transform="translate(348.6 757.76) rotate(-78.1)"/><circle class="cls-9" cx="646.38" cy="159.66" r="2.08"/><path class="cls-9" d="M645.76,162.39l.18,0a2.72,2.72,0,0,1,2.11,3.23l-1,4.89a.64.64,0,0,1-.77.5h0l-4.26-.89a.66.66,0,0,1-.5-.77h0l1-4.89a2.73,2.73,0,0,1,3.24-2.11Z"/><circle class="cls-9" cx="638.01" cy="180.1" r="1.47"/><rect class="cls-9" x="641.46" y="147.05" width="1.21" height="10.7" rx="0.59" ry="0.59" transform="translate(360.54 749.25) rotate(-78.1)"/><rect class="cls-9" x="639.11" y="150.86" width="1.21" height="6.87" rx="0.59" ry="0.59" transform="translate(356.82 748.45) rotate(-78.1)"/><g class="cls-11"><rect class="cls-9" x="634.64" y="156.61" width="7.73" height="6.87" rx="3.32" ry="3.32" transform="translate(350.24 751.83) rotate(-78.1)"/><path class="cls-12" d="M637.45,158.45h0a.44.44,0,0,1,.34.52h0l-1,4.67h0l-.88-.18h0l1-4.68a.44.44,0,0,1,.52-.34h0Z"/><path class="cls-13" d="M637.81,161.12h0a.44.44,0,0,1,.34.52h0l-.47,2.19h0l-.88-.19h0l.47-2.19a.44.44,0,0,1,.52-.34Z"/><path class="cls-13" d="M641,159.22h0a.45.45,0,0,1,.34.53h0l-1,4.63h0l-.83-.17h0l1-4.64a.44.44,0,0,1,.52-.34h0Z"/><path class="cls-14" d="M639.36,162.36h0a.43.43,0,0,1,.33.52h0l-.81,3.8h0l-.88-.19h0l.82-3.82a.43.43,0,0,1,.53-.31Z"/><path class="cls-12" d="M640.25,158.27h0a.44.44,0,0,1,.34.52h0l-1.14,5.41h0l-.88-.18h0l1.14-5.41a.44.44,0,0,1,.52-.34Z"/><path class="cls-14" d="M636.21,159.93h0a.45.45,0,0,1,.34.53h0l-.64,3h0l-.88-.19h0l.64-3a.44.44,0,0,1,.52-.34Z"/></g><rect class="cls-9" x="640.63" y="166.72" width="1.21" height="10.7" rx="0.59" ry="0.59" transform="translate(340.64 764.04) rotate(-78.1)"/><rect class="cls-9" x="641.94" y="171.31" width="1.21" height="6.87" rx="0.59" ry="0.59" transform="translate(339.07 767.45) rotate(-78.1)"/><rect class="cls-6" x="604.51" y="159.4" width="3.3" height="5.2" rx="1.6" ry="1.6" transform="translate(-20.28 126.61) rotate(-11.73)"/><rect class="cls-6" x="590.53" y="147.66" width="27.16" height="14.61" rx="7.06" ry="7.06" transform="translate(-18.89 126.05) rotate(-11.73)"/><rect class="cls-15" x="591.42" y="148.82" width="25.41" height="12.43" rx="6.01" ry="6.01" transform="translate(-18.9 126.06) rotate(-11.73)"/><rect class="cls-6" x="600.81" y="163.6" width="11.45" height="1.71" rx="0.83" ry="0.83" transform="translate(-20.77 126.74) rotate(-11.73)"/><circle class="cls-9" cx="594.33" cy="153.59" r="1.21"/><path class="cls-9" d="M594.62,155.25l.11,0a1.59,1.59,0,0,1,1.87,1.23h0l.59,2.83a.38.38,0,0,1-.3.45h0l-2.47.51A.38.38,0,0,1,594,160h0l-.59-2.83a1.58,1.58,0,0,1,1.22-1.87h0Z"/><circle class="cls-9" cx="612" cy="151.66" r="1.21"/><path class="cls-9" d="M612.3,153.3l.11,0a1.59,1.59,0,0,1,1.87,1.23h0l.58,2.83a.38.38,0,0,1-.29.45h0l-2.47.51a.38.38,0,0,1-.45-.3h0l-.59-2.82a1.59,1.59,0,0,1,1.23-1.87Z"/><path class="cls-8" d="M600.34,150.37l3.6-.74a.39.39,0,0,1,.33.06.58.58,0,0,1,.17.14.48.48,0,0,1,.08.16c.05.25.11.51.15.76a.45.45,0,0,1-.15.45.65.65,0,0,1-.32.16l-7.06,1.46a.89.89,0,0,1-.23,0h-.1a.06.06,0,0,0-.08,0h0a.33.33,0,0,1-.24.14h0a.32.32,0,0,0,0-.27,5.94,5.94,0,0,0-.17-.92.49.49,0,0,1,.18-.49.69.69,0,0,1,.3-.14Z"/><path class="cls-8" d="M601.86,154.67l3.6-.75a.48.48,0,0,1,.33.06c.06.05.13.08.17.15a1.09,1.09,0,0,1,.08.15c.05.26.11.51.15.77a.45.45,0,0,1-.15.45.63.63,0,0,1-.32.15l-7.06,1.47h-.33a.08.08,0,0,0-.09,0,.45.45,0,0,1-.24.14h0a.34.34,0,0,0,0-.28,6,6,0,0,0-.17-.91.5.5,0,0,1,.18-.5.67.67,0,0,1,.3-.13Z"/><path class="cls-9" d="M609.45,152.58h-.05a.3.3,0,0,1-.12-.19c-.08-.31-.14-.63-.2-.94a.54.54,0,0,0-.21-.3.69.69,0,0,0-.28-.11h-.09l-7.27,1.51a.4.4,0,0,0-.26.18.47.47,0,0,0-.11.26v.07a4.13,4.13,0,0,0,.17.82.42.42,0,0,0,.16.25.41.41,0,0,0,.24.11h.22l6.59-1.37.54-.11a.42.42,0,0,0,.27-.16h.08a.61.61,0,0,0,.27,0Z"/><path class="cls-9" d="M610.49,157.09h0a.25.25,0,0,1-.12-.19c-.08-.31-.14-.62-.21-.93a.52.52,0,0,0-.2-.3.69.69,0,0,0-.28-.11h-.1L602.27,157a.5.5,0,0,0-.27.18.64.64,0,0,0-.1.26v.07c.06.27.12.55.17.82a.52.52,0,0,0,.41.37.74.74,0,0,0,.21,0l6.6-1.37.54-.11a.49.49,0,0,0,.27-.15h.07a.62.62,0,0,0,.27,0Z"/><circle class="cls-6" cx="615.66" cy="176.14" r="9.89"/><circle class="cls-6" cx="615.68" cy="176.14" r="10.23"/><circle class="cls-9" cx="615.63" cy="176.23" r="9.13"/><circle class="cls-8" cx="615.68" cy="176.27" r="8.65"/><path class="cls-14" d="M615.68,176.27l-4.45-7.41a8.64,8.64,0,1,1,3,15.93Z"/><path class="cls-12" d="M615.62,176.32l-1.45,8.53a8.65,8.65,0,0,1-7.1-9.83Z"/><circle class="cls-8" cx="532.06" cy="73.29" r="37.43"/><path class="cls-6" d="M536.11,70.42a27.15,27.15,0,0,0-.59,3.09h3.09c.83,0,1.09.44,1.09,1.18v3.37a1.25,1.25,0,0,0,.65,1.21c2.11,1.5,3.82,3.33,4.22,6a2.64,2.64,0,0,1-.48,2c-2.19,2.29-4.5,4.47-6.83,6.75-1-1.44-1.81-2.85-2.8-4.17a8.37,8.37,0,0,0-1.85-1.66c-.17-.12-.69.06-1,.25-1.48,1-1.46,1-2.79-.26-.53-.53-1.1-1-1.65-1.52,1-1,1.88-1.9,2.71-2.85a2.16,2.16,0,0,0,.51-1.2V76c0-.92.3-1.46,1.3-1.57s1.82-.33,2.73-.5c0-.87.53-1.91.57-2.69C535.28,71.19,535.86,70.42,536.11,70.42Zm1.84,4c-1.29.07-1.48.14-2.48.21-.32,0-3.36.38-3.36,1.89v5c2-1.22,2.84-4.13,5.84-3.43Zm-.6,17.68c.34-.1.41-.1.45-.14,1.92-1.83,3.83-3.66,5.73-5.51.11-.1.07-.35.1-.53a.87.87,0,0,0-.55.11q-2.77,2.64-5.52,5.33c-.12.08-.11.34-.21.7Zm-7.25-6.85c1.6-.77,6.2-5.47,6.25-6.13a.81.81,0,0,0-.57.25Q533,82,530.34,84.63c-.15.1-.16.37-.24.58Zm1.58.45a2.36,2.36,0,0,0,.45-.08c1.89-1.82,3.79-3.63,5.66-5.46a.91.91,0,0,0,.23-.77.63.63,0,0,0-.44.14c-1.9,1.82-3.79,3.63-5.67,5.46-.13.08-.13.34-.23.67Zm6.4-4.47-.51-.34c-1.39,1.52-2.79,3-4.16,4.57a4.37,4.37,0,0,0-.43.93c.39-.14.5-.14.56-.2,1.42-1.36,2.84-2.72,4.23-4.11a1.08,1.08,0,0,0,.31-.89Zm0,2.12-.47-.34c-1.06,1.17-2.12,2.33-3.16,3.52-.12.14-.1.4-.14.61.18,0,.43,0,.55-.15,1-.91,1.93-1.83,2.86-2.79a2.61,2.61,0,0,0,.38-.89Zm1.54,4.51.4.25c1-1,1.91-2,2.84-3.08a1.92,1.92,0,0,0,.25-.61c-.23,0-.53,0-.68.17-.85.78-1.67,1.58-2.47,2.41a2.64,2.64,0,0,0-.32.82Zm0-2,.26.09c.79-.75,1.59-1.49,2.36-2.27.13-.13.1-.41.14-.62a.69.69,0,0,0-.54.15c-.65.58-1.3,1.17-1.9,1.81-.15.14-.17.5-.28.78Zm-1.58-.6-.21-.19c-.81.79-1.62,1.57-2.41,2.38-.11.11-.07.36-.11.54a.82.82,0,0,0,.55-.12c.67-.6,1.31-1.22,1.93-1.88a1.85,1.85,0,0,0,.29-.79Zm1.28,3.26a2.2,2.2,0,0,0-2.25,2.09Zm.62-4.37c.49-.54,1-1.07,1.47-1.63a.76.76,0,0,0,.12-.46c0-.06-.25-.16-.36-.13A2.48,2.48,0,0,0,540,84.09Zm-2,2.85-1.81,1.89C536.92,89.19,538,88.07,537.92,87Z"/><path class="cls-6" d="M522.13,101.68l-6.8-9c2.38-2.06,5.25-2.25,8.17-2.23a1,1,0,0,1,.67.34c1.42,2,2.82,4,4.22,6A18.22,18.22,0,0,1,522.13,101.68Z"/><path class="cls-6" d="M529.58,97.77c1.57.1,3.1.17,4.61.32a1,1,0,0,1,.71.6c.28,1.41.49,2.82.68,4.24a2.41,2.41,0,0,1-.11,1c-.33,1.22-.69,2.43-1.05,3.69L526.73,106Z"/><path class="cls-6" d="M530.73,89.69l1.73-1.32a22.44,22.44,0,0,1,1.95,2.19c2.13,3.14,3.1,4.79,5.25,8.06-2.64-.22-4.84-2.46-5.82-4.17S531.81,91.33,530.73,89.69Z"/><path class="cls-6" d="M515.42,85.38c1.71-.14,3.35-.24,5-.42a10.73,10.73,0,0,1,5.36.91c1,.44,1.72,1.7,2.61,2.65-1.56.07-3.1.16-4.65.18a2.22,2.22,0,0,1-.94-.34c-1.19-.61-2.33-1.33-3.56-1.83A39,39,0,0,0,515.42,85.38Z"/><path class="cls-6" d="M504.51,51.75h5.26l-.28,1h-4.21l-.28,1.1h4.21l-.28,1h-4.21L504.16,57h-1.05Z"/><path class="cls-6" d="M511.87,51.75,510.47,57h-1.05l1.4-5.26Z"/><path class="cls-6" d="M516.78,57h-5.26l1.4-5.26H514L512.85,56h4.21Z"/><path class="cls-6" d="M523.44,51.75h2.1c.7,0,1,.33.78,1L525.19,57h-1.05l1.12-4.21h-2.1L522,57h-1l1.13-4.21H520L518.88,57h-1L519,52.8a1.27,1.27,0,0,1,1.34-1h2.1c.34,0,.47.17.38.52A.64.64,0,0,1,523.44,51.75Z"/><path class="cls-9" d="M504.16,64.57h-1.05l1.4-5.26h4.21c.7,0,1,.35.77,1l-.28,1a1.27,1.27,0,0,1-1.33,1.06h-3.16Zm4-3.16.28-1h-3.16l-.28,1Z"/><path class="cls-9" d="M511.71,62.47l-.5-.68-.74,2.78h-1.05l1.4-5.26H515c.7,0,1,.35.77,1l-.28,1a1.25,1.25,0,0,1-1.31,1.06h-1.07l1.53,2.1h-1.43Zm-.12-2.11-.28,1h3.16l.28-1Z"/><path class="cls-9" d="M518.18,59.31h3.16c.7,0,.95.35.77,1l-.85,3.16a1.26,1.26,0,0,1-1.33,1h-3.15c-.67,0-.93-.33-.78-1l.85-3.16A1.27,1.27,0,0,1,518.18,59.31Zm-.28,1-.84,3.16h3.15l.85-3.16Z"/><path class="cls-9" d="M522,64.57l1.4-5.26h4.21c.7,0,1,.35.77,1l-.85,3.16a1.26,1.26,0,0,1-1.33,1Zm1.33-1h3.15l.85-3.16h-3.16Z"/><path class="cls-9" d="M530.8,59.31l-1.4,5.26h-1.06l1.41-5.26Z"/><path class="cls-9" d="M534.66,64.57H531.5c-.7,0-1-.35-.77-1l1.12-4.21h1.06l-1.13,4.21h3.15l1.13-4.21h1.05L536,63.52A1.27,1.27,0,0,1,534.66,64.57Z"/><path class="cls-9" d="M537,63.52l.84-3.16a1.27,1.27,0,0,1,1.33-1h4.21l-.28,1h-4.2l-.85,3.16h4.21l-.28,1h-4.21C537.11,64.57,536.85,64.22,537,63.52Z"/><path class="cls-9" d="M544.47,59.31h5.26l-.28,1h-2.1l-1.13,4.21h-1.05l1.13-4.21h-2.11Z"/><path class="cls-9" d="M551.83,59.31l-1.4,5.26h-1l1.4-5.26Z"/><path class="cls-9" d="M553.94,59.31h3.15c.7,0,1,.35.77,1L557,63.52a1.27,1.27,0,0,1-1.33,1h-3.16c-.7,0-1-.35-.77-1l.85-3.16A1.25,1.25,0,0,1,553.94,59.31Zm-.28,1-.85,3.16H556l.84-3.16Z"/><path class="cls-9" d="M557.79,64.57l1.41-5.26,3.36,3.16.84-3.16h1.05l-1.4,5.26-3.36-3.16-.85,3.16Z"/><path class="cls-6" d="M509.49,67.92h-4.21L505,69h3.16c.7,0,1,.35.77,1l-.29,1a1.26,1.26,0,0,1-1.33,1h-4.2l.27-1h4.21l.29-1h-3.16c-.7,0-1-.35-.77-1l.28-1.06a1.27,1.27,0,0,1,1.33-1h4.21Z"/><path class="cls-6" d="M510.82,66.87h5.26l-.28,1h-2.1l-1.13,4.21h-1.05l1.12-4.21h-2.1Z"/><path class="cls-6" d="M519.93,72.13h-3.15c-.67,0-.93-.33-.78-1l1.13-4.21h1L517,71.13h3.15l1.13-4.21h1l-1.13,4.21A1.26,1.26,0,0,1,519.93,72.13Z"/><path class="cls-6" d="M522,72.13l1.4-5.26h4.21c.7,0,1,.35.77,1L527.53,71a1.26,1.26,0,0,1-1.33,1Zm1.33-1h3.15l.85-3.16h-3.16Z"/><path class="cls-6" d="M530.8,66.87l-1.4,5.26h-1.06l1.41-5.26Z"/><path class="cls-6" d="M532.91,66.87h3.15c.7,0,1,.35.77,1L536,71.08a1.27,1.27,0,0,1-1.33,1H531.5c-.7,0-1-.35-.77-1l.84-3.16A1.27,1.27,0,0,1,532.91,66.87Zm-.28,1L531.78,71h3.15l.85-3.16Z"/><path class="cls-9" d="M556.94,49.48a.37.37,0,0,0-.16-.46.23.23,0,0,1-.13-.21.59.59,0,0,0-.43-.49l-.49-.15-2.65-.7c-.32-.09-.37-.06-.46.27l-.41,1.49c-.13.51-.26,1-.41,1.52a.29.29,0,0,0,.2.41c.2.06.18.13.17.26a1.33,1.33,0,0,0,.31.89.38.38,0,0,1,.07.37l-.27,1c-.8,3-1.61,6.11-2.4,9.08l1,.09,2.64-9.76a.55.55,0,0,1,.39-.45,1,1,0,0,0,.61-.52.29.29,0,0,1,.38-.18l.05,0a1.87,1.87,0,0,0,.34.08c.14,0,.34,0,.39-.09.18-.33.69-.2.78-.66S556.77,50.08,556.94,49.48Zm-3.66,2.6a.61.61,0,0,1-.43-.75.6.6,0,0,1,.74-.43.63.63,0,0,1,.44.74A.62.62,0,0,1,553.28,52.08Z"/><path class="cls-9" d="M549.08,46.16c-.05-.15-.1-.3-.16-.45l-.7-1.92c0-.06-.08-.13,0-.2s.14,0,.2,0l2.42.65a.35.35,0,0,1,.29.27l.39,1.06a.17.17,0,0,0,.12.19c.11-.12.07-.31.22-.45L552.2,47a1,1,0,0,1,0,.53l-.84,3.11a1.4,1.4,0,0,1-.33.61c-.33.37-.65.76-1,1.14,0,0-.08.14-.19.13,0-.25.16-.46.12-.75l-.91.76a.5.5,0,0,1-.53.13l-2.3-.62c-.08,0-.2,0-.21-.12s.08-.12.14-.17l1.55-1.3s.14-.08.1-.16-.12,0-.18,0l-1.53.15c-.33,0-.36,0-.27-.32.43-1.59.87-3.18,1.3-4.77v-.16a.15.15,0,0,1,.23-.08l.52.37,1.1.8Zm1.49.87c0-.17,0-.25-.16-.29l-.87-.23a.21.21,0,0,0-.28.1.19.19,0,0,0,0,.08c-.27,1-.53,2-.8,3-.05.17,0,.26.19.31s.53.13.79.21a.24.24,0,0,0,.32-.1.19.19,0,0,0,0-.1c.12-.49.26-1,.39-1.47h0c.14-.54.27-1,.41-1.54Z"/><circle class="cls-9" cx="553.43" cy="51.48" r="0.88"/><path class="cls-6" d="M529.09,86.22s3.79-6.34,7.12-7.36,8.79,6.11,7.6,7.61c-1.33,1.66-1.7,2.1-3.87,4.47s-3.16,1.9-3.73.25S529.71,85.45,529.09,86.22Z"/><path class="cls-6" d="M525.87,89.31s-1-.12-1,.35,1.4,7.81,8.76,7.11c0,0,1.83,0,1-.65S527.85,97.24,525.87,89.31Z"/><circle class="cls-8" cx="623.72" cy="73.36" r="37.43"/><polygon class="cls-6" points="611.04 94.08 611.04 98.09 599.41 98.09 599.41 87.05 603.66 87.05 603.66 94.08 611.04 94.08"/><polygon class="cls-6" points="648.14 87.05 648.14 98.09 636.67 98.09 636.67 94.08 644.22 94.08 644.22 87.05 648.14 87.05"/><polygon class="cls-6" points="648.14 49.37 648.14 60.51 644.22 60.51 644.22 53.52 636.67 53.52 636.67 49.37 648.14 49.37"/><polygon class="cls-6" points="611.04 49.37 611.04 53.52 603.66 53.52 603.66 60.51 599.41 60.51 599.41 49.37 611.04 49.37"/><path class="cls-9" d="M599.39,83.61l5.3-19.84h15.88q4,0,2.91,4l-3.19,11.9a4.79,4.79,0,0,1-5,4Zm5-4h11.9l3.19-11.9h-11.9Z"/><path class="cls-9" d="M633.31,73.69l-4.81-9.92h5l3.19,6.63,6.73-6.63h5l-10.08,9.92L643,83.61h-5L634.89,77l-6.73,6.64h-5Z"/><path class="cls-6" d="M619.75,98.09h-5.37l1.44-5.37h1.07L615.74,97H620Z"/><path class="cls-6" d="M622.48,95.94l-.58,2.15h-1.07l1.15-4.3a1.29,1.29,0,0,1,1.36-1.07h3.22c.72,0,1,.36.79,1.07l-1.15,4.3h-1.08l.58-2.15ZM626,94.87l.28-1.08h-3.22l-.28,1.08Z"/><path class="cls-6" d="M632.83,95.4q.54,0,.39.54L632.93,97a1.29,1.29,0,0,1-1.36,1.07h-4.3l1.44-5.37H633c.71,0,1,.36.79,1.07l-.29,1.08A.64.64,0,0,1,632.83,95.4Zm-3.9.54-.3,1.08h3.23l.29-1.08Zm3.51-1.07.28-1.08H629.5l-.29,1.08Z"/><circle class="cls-8" cx="719.56" cy="73.36" r="37.43"/><path class="cls-9" d="M715.19,48.66c.54-2.72.54-2.72,3.21-2.72h2.31c2.82,0,2.82,0,3.4,2.71h7.39c8.07.05,13.41,4.42,15.15,12.36.6,2.76,1.26,5.5,1.88,8.17,3.65.47,4.41,1.34,4.41,4.82v2.66c0,3.62-.7,4.46-4.34,5.06-1,3.42-3.07,5.84-6.76,6.57a10.67,10.67,0,0,1-2.11.17H699.47c-4.26,0-7-1.91-8.58-5.86a2.06,2.06,0,0,0-1.32-1c-2.26-.5-3.23-1.57-3.26-3.91V73.08c0-2.28,1.09-3.36,3.37-3.76a1.88,1.88,0,0,0,1.2-1.12c.67-2.5,1.25-5,1.79-7.56a14.5,14.5,0,0,1,14.41-12C709.8,48.61,712.51,48.66,715.19,48.66Zm4.31,37.46h20.93a5.67,5.67,0,0,0,5.92-5.39,4.68,4.68,0,0,0,0-.53V71.68c-.06-4.69-2.33-6.94-7-6.94H700c-4.76,0-7,2.23-7.13,7v7.63c0,4.51,2.27,6.72,6.79,6.73C706.25,86.13,712.88,86.12,719.5,86.12Zm-4.87-23.79.43-7.89c-3,0-5.72-.13-8.42,0a8.5,8.5,0,0,0-8.13,7.86Zm10,0h16.19c-.78-4.3-3.36-7.16-7.51-7.66a77.41,77.41,0,0,0-9.14-.07Zm-3-14a16.68,16.68,0,0,1-2,0c-1.61-.25-2.2.41-2.15,2s-.18,3.41-.21,5.11v6.85h5ZM694.56,63.41l.43.23a10.56,10.56,0,0,0,1.16-2.3c1.44-5.82,5.43-9.06,11.43-9.13,2.13,0,4.26,0,6.38-.05.46,0,.91-.47,1.36-.73l-.25-.56h-6.53C700.18,50.87,695.57,55,694.56,63.41Zm49.76.29.5-.38c-.24-1.15-.41-2.32-.75-3.43-1.34-4.4-4.19-7.58-8.66-8.48-3.64-.73-7.46-.53-11.2-.74l-.22.8c.44.21.87.59,1.31.6,2,.07,4,0,6,0,6.34.06,10.36,3.34,11.82,9.53A8.92,8.92,0,0,0,744.32,63.7Zm-53.86,8c-1.16-.24-1.79.1-1.79,1.28V77.9c.05,1.27.3,1.39,1.78,1.14Zm58.34,7.5c1.33.25,1.83-.26,1.82-1.39V73.07c0-1.24-.59-1.64-1.82-1.33Z"/><path class="cls-9" d="M714.14,66.88h14.71a4.65,4.65,0,0,1,1.56.69,4.7,4.7,0,0,1-1.56.63H700.5c-3.21,0-4,.84-4,4.1v6.91c0,1.77.63,2.94,2.48,3.31.36.08.63.54.95.83-.43.18-.88.54-1.29.5a4,4,0,0,1-3.52-3.64,89.67,89.67,0,0,1,0-9.56c.14-2.36,2-3.81,4.52-3.82Q706.87,66.88,714.14,66.88Z"/><path class="cls-6" d="M706.1,70.63l-3.71,5.55h-1.11l-.74-5.55h1.27l.44,4,2.55-4Z"/><path class="cls-6" d="M708.15,74l-.52-.71-.79,2.93h-1.11l1.48-5.55h4.44c.74,0,1,.37.82,1.11l-.3,1.11A1.33,1.33,0,0,1,710.78,74h-1.12l1.62,2.22h-1.51ZM708,71.74l-.29,1.11H711l.3-1.11Z"/><path class="cls-6" d="M709.76,79.7h-4.44l-.3,1.11h3.33c.74,0,1,.37.82,1.11l-.3,1.11a1.33,1.33,0,0,1-1.41,1.11H703l.29-1.11h4.45l.3-1.11h-3.33c-.74,0-1-.37-.82-1.11l.3-1.11a1.32,1.32,0,0,1,1.4-1.11H710Z"/><path class="cls-6" d="M710.79,84.14h-1.11l1.49-5.55h4.44q1.11,0,.81,1.11l-.29,1.11a1.34,1.34,0,0,1-1.41,1.11h-3.33ZM715,80.81l.29-1.11H712l-.29,1.11Z"/><path class="cls-6" d="M718.06,81.92l-.6,2.22h-1.11l1.19-4.44a1.32,1.32,0,0,1,1.4-1.11h3.33c.74,0,1,.37.82,1.11l-1.19,4.44h-1.11l.6-2.22Zm3.62-1.11.3-1.11h-3.33l-.3,1.11Z"/><path class="cls-6" d="M723.31,83l.89-3.33a1.32,1.32,0,0,1,1.4-1.11h4.45l-.3,1.11h-4.44L724.42,83h4.44l-.3,1.11h-4.44Q723,84.14,723.31,83Z"/><path class="cls-6" d="M735.52,83l-.29,1.11h-5.56L730,83Zm.6-2.22-.29,1.11h-5.56l.3-1.11Zm.59-2.22-.29,1.11h-5.56l.3-1.11Z"/><circle class="cls-8" cx="534.57" cy="158.05" r="37.43"/><path class="cls-6" d="M523.08,128.43h2.22q1.11,0,.81,1.11L524.93,134h-1.11l1.18-4.44h-2.22L521.59,134h-1.11l1.19-4.44h-2.22L518.26,134h-1.11l1.19-4.44a1.34,1.34,0,0,1,1.41-1.11H522c.36,0,.49.18.41.55A.68.68,0,0,1,523.08,128.43Z"/><path class="cls-6" d="M528.63,128.43H532c.74,0,1,.37.82,1.11l-.89,3.33a1.34,1.34,0,0,1-1.41,1.11h-3.33c-.74,0-1-.37-.82-1.11l.9-3.33A1.33,1.33,0,0,1,528.63,128.43Zm-.29,1.11-.9,3.33h3.33l.9-3.33Z"/><path class="cls-9" d="M533,132.87l.89-3.33a1.32,1.32,0,0,1,1.4-1.11h4.45l-.3,1.11H535l-.89,3.33h4.44l-.3,1.11h-4.44Q532.7,134,533,132.87Z"/><path class="cls-9" d="M541.07,131.76l-.59,2.22h-1.11l1.18-4.44a1.34,1.34,0,0,1,1.41-1.11h3.33c.74,0,1,.37.82,1.11L544.92,134h-1.11l.6-2.22Zm3.63-1.11.3-1.11h-3.34l-.29,1.11Z"/><path class="cls-9" d="M547.14,134H546l1.48-5.55H552q1.11,0,.81,1.11l-.29,1.11a1.34,1.34,0,0,1-1.41,1.11h-3.33Zm4.23-3.33.29-1.11h-3.33l-.3,1.11Z"/><path class="cls-6" d="M523.89,136.55h-4.44l-.29,1.11h3.33c.74,0,1,.37.81,1.12l-.3,1.11a1.33,1.33,0,0,1-1.41,1.11h-4.44l.3-1.11h4.44l.3-1.11h-3.33c-.74,0-1-.37-.82-1.12l.3-1.11a1.34,1.34,0,0,1,1.41-1.11h4.44Z"/><path class="cls-6" d="M525.3,135.44h5.55l-.29,1.11h-2.22L527.15,141H526l1.19-4.45H525Z"/><path class="cls-6" d="M534.92,141h-3.33c-.74,0-1-.37-.82-1.11l1.19-4.45h1.11l-1.19,4.45h3.34l1.19-4.45h1.11l-1.19,4.45A1.34,1.34,0,0,1,534.92,141Z"/><path class="cls-6" d="M537.14,141l1.49-5.56h4.44c.74,0,1,.37.82,1.11l-.9,3.34a1.32,1.32,0,0,1-1.4,1.11Zm1.41-1.11h3.33l.89-3.34h-3.33Z"/><path class="cls-6" d="M546.4,135.44,544.92,141h-1.11l1.48-5.56Z"/><path class="cls-6" d="M548.62,135.44H552q1.11,0,.81,1.11l-.89,3.34a1.34,1.34,0,0,1-1.41,1.11h-3.33c-.74,0-1-.37-.82-1.11l.9-3.34A1.33,1.33,0,0,1,548.62,135.44Zm-.29,1.11-.9,3.34h3.34l.89-3.34Z"/><path class="cls-16" d="M533.69,156.93l-.28-.05h-.14a.46.46,0,0,1-.29-.22,1.38,1.38,0,0,1-.18-.39,2.9,2.9,0,0,0-.12-.57,6.52,6.52,0,0,0-.16-1c0-.32-.09-.74-.12-1.11a5.61,5.61,0,0,1,0-.58,2,2,0,0,1,.23-.83,3.28,3.28,0,0,1,.51-.71,1.78,1.78,0,0,1,1-.55,2.15,2.15,0,0,1,.62,0,2.57,2.57,0,0,1,.4.07,1.76,1.76,0,0,1,.87.51,3.17,3.17,0,0,1,.57.88,1.72,1.72,0,0,1,.15.67,7.53,7.53,0,0,1,0,.95,8.42,8.42,0,0,1-.14,1.11c-.05.37-.1.69-.17,1a2,2,0,0,1-.13.42.78.78,0,0,1-.11.2.4.4,0,0,1-.3.2h-2.21Z"/><path class="cls-17" d="M533.69,156.93h1.77l.09.16a1.25,1.25,0,0,1-.12,1.34l-.13.16h-1.44l-.11-.13a1.2,1.2,0,0,1-.16-1.33Z"/><path class="cls-17" d="M544.88,186.86l.37-.17a2.85,2.85,0,0,0,.37-.23l.1-.07.17.09a.75.75,0,0,1,.38.65s0,.07-.06.07a1.14,1.14,0,0,0-.32.07,1.12,1.12,0,0,0-.25.11l-.09.09a.67.67,0,0,0-.27.23v.05a1.29,1.29,0,0,1-.21-.19.79.79,0,0,1-.17-.57A.31.31,0,0,1,544.88,186.86Z"/><path class="cls-16" d="M544.87,187.09h0a.78.78,0,0,1,.27-.24,3.38,3.38,0,0,0,.45,0h.17a.51.51,0,0,1,.31.15m0,.08h0l-1.18.61h-.06a.61.61,0,0,1,0-.42Z"/><path class="cls-16" d="M524,186.76h0a.67.67,0,0,0-.27-.23h-.62a.46.46,0,0,0-.31.15m0,.08h0l1.18.6H524a.64.64,0,0,0,0-.43c0-.06,0-.11,0-.17Z"/><path class="cls-16" d="M533.16,165.05a1,1,0,0,1-.47-.56,2.37,2.37,0,0,1-.09-.36c-.07-.38-.12-.77-.17-1.15a1.19,1.19,0,0,0-.07-.49l-.06-.64v-.17a.61.61,0,0,1,0-.27h0a6,6,0,0,0,0-.85v-.06a3.08,3.08,0,0,1,.16-1,1.08,1.08,0,0,1,.51-.62,2.3,2.3,0,0,1,.66-.25l.24,0h1.44a.54.54,0,0,1,.34.08,2.09,2.09,0,0,1,.63.28,1,1,0,0,1,.4.51,3.38,3.38,0,0,1,.16.7,7.39,7.39,0,0,1,0,1.33,3.25,3.25,0,0,1-.07.82l-.06.52v.37l-.12.82a2.15,2.15,0,0,1-.12.5,1.29,1.29,0,0,1-.19.32.59.59,0,0,1-.3.21l-.51-.07a4.74,4.74,0,0,1-.75-.06h-1Z"/><path class="cls-17" d="M535.87,167.61h-2.65a1.74,1.74,0,0,0-.11-.18,2,2,0,0,1-.34-.84,2,2,0,0,1,.27-1.34l.12-.19.61-.08h1a3.25,3.25,0,0,1,.75.06l.51.07a.52.52,0,0,0,.1.18,2.07,2.07,0,0,1,.29,1A1.89,1.89,0,0,1,535.87,167.61Z"/><path class="cls-16" d="M544.88,186.86h-.12a.33.33,0,0,1-.31-.1,2,2,0,0,1-.28-.37c-.15-.23-.29-.46-.42-.7s-.18-.31-.27-.47c-.19-.34-.38-.68-.58-1s-.33-.59-.5-.89c-.41-.7-.78-1.43-1.14-2.17l-.19-.39-.15-.32a.18.18,0,0,0-.07-.17,5.65,5.65,0,0,1-.29-.67v-.18a.5.5,0,0,1,0-.34,1.6,1.6,0,0,0,.37-.12l.6-.3a2.54,2.54,0,0,0,.34-.23.37.37,0,0,1,.29.14.39.39,0,0,1,.08.1,3.34,3.34,0,0,1,.25.4c.19.34.39.67.57,1l.64,1.26c.17.34.35.68.5,1s.18.4.28.6v.11c.1.26.23.51.34.76l.48,1.06c.07.16.15.32.21.48a4.65,4.65,0,0,1,.2.52.43.43,0,0,0,0,.16.3.3,0,0,1,0,.26h0l-.1.07a2.85,2.85,0,0,1-.37.23Z"/><path class="cls-17" d="M541.86,178.46a2.54,2.54,0,0,1-.34.23l-.6.3a1.6,1.6,0,0,1-.37.12l-.13-.12a.92.92,0,0,1-.24-.43v-.18l.23-.17a10.08,10.08,0,0,1,1-.59l.08.07a.93.93,0,0,1,.29.39.66.66,0,0,1,.06.2A1.1,1.1,0,0,0,541.86,178.46Z"/><path class="cls-16" d="M524.2,186.62h.12a.28.28,0,0,0,.3-.09,1.82,1.82,0,0,0,.29-.38,6,6,0,0,0,.41-.69l.27-.47c.2-.34.38-.68.58-1s.33-.59.5-.89c.41-.71.78-1.44,1.14-2.17.07-.13.14-.26.2-.39l.14-.32a.38.38,0,0,1,.08-.17,5.65,5.65,0,0,0,.29-.67.25.25,0,0,1,.05-.18.41.41,0,0,0-.05-.34,1.26,1.26,0,0,1-.37-.13l-.59-.29a2.64,2.64,0,0,1-.35-.23.34.34,0,0,0-.28.14.39.39,0,0,0-.08.1c-.09.13-.18.26-.26.4-.18.34-.39.67-.56,1s-.44.83-.65,1.26-.34.68-.49,1l-.28.6-.06.11c-.1.26-.23.51-.34.76s-.31.71-.47,1.06c-.07.16-.15.32-.22.47a4.76,4.76,0,0,0-.19.53v.16a.21.21,0,0,0,0,.25h0a.41.41,0,0,1,.11.07,1.72,1.72,0,0,0,.37.22A.82.82,0,0,0,524.2,186.62Z"/><path class="cls-17" d="M527.21,178.22a2.64,2.64,0,0,0,.35.23l.59.29a1.26,1.26,0,0,0,.37.13l.14-.13a.76.76,0,0,0,.23-.42v-.18a1.84,1.84,0,0,0-.22-.17,9.07,9.07,0,0,0-1-.59l-.07.07a.87.87,0,0,0-.29.39.66.66,0,0,0-.06.2Z"/><path class="cls-16" d="M524.49,159c.1-.19.12-.21.33-.23l.6-.06.69-.05.91-.07h.78a10.14,10.14,0,0,1,1.35,0h.47l.41.07.24.08.11,0a.21.21,0,0,1,.1.19v.27h0v.95h0v.31a.17.17,0,0,1-.09.16.51.51,0,0,1-.16.09l-.28.07a6.92,6.92,0,0,1-1.76.1l-.93-.05H527l-.89-.06-.84-.08h-.54a.33.33,0,0,1-.15-.11.36.36,0,0,0-.07-.1,3.21,3.21,0,0,1-.07-.43A2.73,2.73,0,0,1,524.49,159Z"/><path class="cls-16" d="M517.85,159.28a.8.8,0,0,1,.09-.26.2.2,0,0,1,.12-.1h.1l.46,0,.7-.07c.35,0,.7-.06,1-.06h1.8a7.7,7.7,0,0,1,.83,0,.79.79,0,0,1,.3.08.14.14,0,0,1,.09.11v1.5a.24.24,0,0,1-.18.18,1.35,1.35,0,0,1-.4.08h-3a3.65,3.65,0,0,1-.87-.07l-.56,0h-.31a.18.18,0,0,1-.15-.13.29.29,0,0,0-.08-.24c-.08-.08,0,0,0-.06C517.85,159.84,517.85,159.56,517.85,159.28Z"/><path class="cls-16" d="M516.76,160.25a1.74,1.74,0,0,1-.68.34,2,2,0,0,1-.88.07,5,5,0,0,1-.67-.14l-.25-.09-.13-.07a.71.71,0,0,1-.32-.93.48.48,0,0,1,.17-.23,1.09,1.09,0,0,1,.41-.22,3.17,3.17,0,0,1,.44-.12,3,3,0,0,1,.52-.07,1.85,1.85,0,0,1,.47,0,3.11,3.11,0,0,1,.65.22,1,1,0,0,1,.27.19v.14a1.14,1.14,0,0,0,0,.73A.51.51,0,0,0,516.76,160.25Z"/><path class="cls-17" d="M530.47,160.21h0v-1h0s.06,0,.08-.09a1.21,1.21,0,0,1,.38-.43.93.93,0,0,1,.36-.14,1,1,0,0,1,1.05.38,1.27,1.27,0,0,1,.13.19c0,.06.07.11.1.16v.06a6,6,0,0,1,0,.85h0a.47.47,0,0,0-.1.1,1,1,0,0,1-.11.17,1.33,1.33,0,0,1-.27.26.66.66,0,0,1-.27.12h-.12a1,1,0,0,1-.24,0,1,1,0,0,1-.61-.24,1.07,1.07,0,0,1-.3-.37A.21.21,0,0,1,530.47,160.21Z"/><path class="cls-17" d="M523.42,160.4v-1.3a.74.74,0,0,1,.86-.2l.2.11a2.6,2.6,0,0,0-.08,1,3.21,3.21,0,0,0,.07.43,1.11,1.11,0,0,1-.39.16H524a.87.87,0,0,1-.44-.16Z"/><path class="cls-17" d="M516.76,160.25v-.16a1.14,1.14,0,0,1,0-.73v-.14l.13-.1a.69.69,0,0,1,.36-.13.21.21,0,0,1,.11,0,.69.69,0,0,1,.38.19l.11.1v.9l-.11.1a.64.64,0,0,1-.85.06Z"/><path class="cls-16" d="M538.39,159a.32.32,0,0,0-.06-.23.15.15,0,0,1,0-.16.39.39,0,0,1,.23-.19l.26-.08.45-.08a6.16,6.16,0,0,1,1.05,0h.44l.83.06h.2l.93.08.69.05.68.06a.31.31,0,0,1,.29.2h0a4.07,4.07,0,0,1,.08.61,2.8,2.8,0,0,1-.06.71v.14h0a.3.3,0,0,1-.26.17h-.47l-.87.08-.83.06-.89.07h-1a7.74,7.74,0,0,1-1.17-.12,1.11,1.11,0,0,1-.26-.07.66.66,0,0,1-.19-.09.36.36,0,0,1-.15-.19V160a.44.44,0,0,0,.09-.27,1,1,0,0,0,0-.25,5.61,5.61,0,0,0,0-.58h0Z"/><path class="cls-16" d="M545.45,158.74c0-.17,0-.22.28-.27a3.18,3.18,0,0,1,.43-.06H549l.8.06.89.1h.16a.21.21,0,0,1,.15.14,1.22,1.22,0,0,1,0,.27v.72a2,2,0,0,1,0,.35.2.2,0,0,1-.17.16h-.22l-.46,0a2.76,2.76,0,0,0-.7.06H546a2,2,0,0,1-.35-.06.28.28,0,0,1-.2-.22h0v-1.3Z"/><path class="cls-16" d="M552.15,158.92v-.06l.15-.11a2.12,2.12,0,0,1,1.13-.29h.25a5,5,0,0,1,.77.17,1.07,1.07,0,0,1,.38.2.55.55,0,0,1,.22.3,1,1,0,0,1,0,.53.42.42,0,0,1-.11.18.86.86,0,0,1-.26.2,1.94,1.94,0,0,1-.3.13,3.82,3.82,0,0,1-.82.15,2,2,0,0,1-1.25-.28.66.66,0,0,1-.17-.12v0a1.15,1.15,0,0,0,.1-.66A.75.75,0,0,0,552.15,158.92Z"/><path class="cls-17" d="M538.42,159a5.61,5.61,0,0,1,0,.58,1,1,0,0,1,0,.25.59.59,0,0,0-.1.17,1.24,1.24,0,0,1-.41.44,1,1,0,0,1-.73.14,1.15,1.15,0,0,1-.75-.52.49.49,0,0,1-.06-.17,2,2,0,0,0-.07-.43.33.33,0,0,1,0-.14,2.63,2.63,0,0,0,.06-.39.36.36,0,0,1,.07-.17,1.14,1.14,0,0,1,1.05-.54,1.09,1.09,0,0,1,.81.55l.12.21h0Z"/><path class="cls-17" d="M545.45,158.74v1.33l-.14.09a.91.91,0,0,1-.22.11.83.83,0,0,1-.54,0l-.16-.09V160a2.8,2.8,0,0,0,.06-.71,4.07,4.07,0,0,0-.08-.61.77.77,0,0,1,.91,0Z"/><path class="cls-17" d="M552.15,158.92a1.12,1.12,0,0,1,.1.31,1.15,1.15,0,0,1-.1.66L552,160a.66.66,0,0,1-.43.13.63.63,0,0,1-.46-.23.16.16,0,0,1-.05-.09.21.21,0,0,0,0-.11v-.64a.14.14,0,0,0,0-.09.29.29,0,0,1,.08-.14.7.7,0,0,1,.43-.19h.1a.72.72,0,0,1,.39.19Z"/><circle class="cls-18" cx="534.68" cy="167.63" r="22.55"/><circle class="cls-17" cx="537.32" cy="159.39" r="1.15"/><circle class="cls-17" cx="531.58" cy="159.82" r="1.15"/><path class="cls-16" d="M535.56,170.32h-2a10.89,10.89,0,0,1-1.38-.19,11.9,11.9,0,0,1,1.17-2.6H536a7,7,0,0,1,1,2.49l0,.12a.78.78,0,0,1-.49.14h-.53A2.33,2.33,0,0,0,535.56,170.32Z"/><path class="cls-16" d="M533.5,170.32h2a10.8,10.8,0,0,0,1.39-.19,11.94,11.94,0,0,0-1.18-2.6H533.1a7,7,0,0,0-1,2.49v.12a.78.78,0,0,0,.49.14h.53A1.64,1.64,0,0,1,533.5,170.32Z"/><circle class="cls-17" cx="532.41" cy="170.53" r="1.15"/><circle class="cls-17" cx="536.47" cy="170.62" r="1.15"/><path class="cls-16" d="M540.14,178.38l-.11.05a.11.11,0,0,1-.15,0,1.43,1.43,0,0,1-.14-.2c-.15-.27-.32-.52-.49-.77s-.44-.69-.67-1l-.51-.8-.54-.82-.36-.58c-.12-.17-.23-.35-.34-.52l-.12-.2c-.11-.19-.23-.37-.34-.57s-.15-.28-.22-.42v-.12a.5.5,0,0,1,0-.34.18.18,0,0,1,.07-.17,2,2,0,0,1,.42-.3c.28-.17.56-.35.86-.5a1.06,1.06,0,0,1,.25-.09H538a.41.41,0,0,1,.25.13l.13.17a4.66,4.66,0,0,1,.3.47l.34.62.42.79,1.76,3.4.4.75v.09a.08.08,0,0,1,0,.11l-.13.11a10.08,10.08,0,0,0-1,.59Z"/><path class="cls-16" d="M528.93,178.14l.12.05a.14.14,0,0,0,.15,0,1.43,1.43,0,0,1,.14-.2c.15-.27.32-.52.48-.78s.45-.68.67-1,.34-.54.52-.81.36-.54.53-.81l.37-.58.34-.52.11-.2c.12-.19.23-.38.34-.57s.15-.28.22-.42a.61.61,0,0,0,.05-.12.5.5,0,0,0,0-.34c0-.06-.05-.12-.07-.17a2.53,2.53,0,0,0-.42-.31c-.29-.17-.57-.34-.87-.49a1.06,1.06,0,0,0-.25-.09h-.2a.38.38,0,0,0-.25.13,1,1,0,0,0-.13.16,3.88,3.88,0,0,0-.3.48l-.34.62c-.14.26-.29.52-.42.79L528,176.31c-.13.26-.27.5-.4.75v.1a.11.11,0,0,0,0,.11l.12.11a9.07,9.07,0,0,1,1,.59A1.29,1.29,0,0,1,528.93,178.14Z"/><g class="cls-19"><rect class="cls-8" x="388.41" y="104.3" width="92.87" height="101.24"/><path class="cls-6" d="M401.82,157.34l4.49-16.9h13.45c2.24,0,3.06,1.12,2.47,3.38L419.52,154a4,4,0,0,1-4.25,3.38Zm4.25-3.38h10.09l2.71-10.14H408.78Z"/><path class="cls-9" d="M439.94,140.44h6.72c2.24,0,3.07,1.12,2.47,3.38l-3.6,13.52h-3.36l3.6-13.52H439l-3.6,13.52H432l3.6-13.52H429l-3.6,13.52H422l3.6-13.52a4.06,4.06,0,0,1,4.26-3.38h6.72c1.09,0,1.5.56,1.24,1.69A2.07,2.07,0,0,1,439.94,140.44Z"/><path class="cls-6" d="M448.9,157.34l4.49-16.9h13.45c2.24,0,3.06,1.12,2.47,3.38L466.6,154a4,4,0,0,1-4.25,3.38Zm4.25-3.38h10.09L466,143.82H455.86Z"/><path class="cls-6" d="M399,168.85l1.28-4.86h3.86c.65,0,.88.33.71,1l-.77,2.92a1.18,1.18,0,0,1-1.22,1Zm1.22-1h2.89l.78-2.92H401Z"/><path class="cls-6" d="M407,164l-1.29,4.86h-1L406,164Z"/><path class="cls-6" d="M411.49,168.85h-3.86c-.64,0-.88-.33-.71-1l.78-2.92a1.18,1.18,0,0,1,1.22-1h3.86l-.26,1h-3.86l-.77,2.92h2.89l.26-1H409.6l.25-1h2.42Z"/><path class="cls-6" d="M414.71,164l-1.29,4.86h-1L413.7,164Z"/><path class="cls-6" d="M415.67,164h4.83l-.26,1h-1.93l-1,3.89h-1l1-3.89h-1.93Z"/><path class="cls-6" d="M421.66,166.9l-.52,1.95h-1l1-3.89a1.18,1.18,0,0,1,1.22-1h2.9c.64,0,.87.33.7,1l-1,3.89h-1l.52-1.95Zm3.15-1,.26-1h-2.9l-.25,1Z"/><path class="cls-6" d="M430.79,168.85H426l1.28-4.86h1l-1,3.89h3.86Z"/><path class="cls-9" d="M411.81,171h1.93c.65,0,.88.32.71,1l-1,3.88h-1l1-3.88h-1.93l-1,3.88h-1l1-3.88h-1.93l-1,3.88h-1l1-3.88a1.15,1.15,0,0,1,1.22-1h1.93c.31,0,.43.16.35.49a.6.6,0,0,1,.69-.5Z"/><path class="cls-9" d="M419.47,174.85l-.26,1h-4.82l.25-1Zm.52-1.94-.26,1h-4.82l.25-1Zm.51-1.94-.26,1h-4.82l.25-1Z"/><path class="cls-9" d="M420.18,175.82l1.28-4.85h3.87c.64,0,.87.32.7,1l-.77,2.91a1.15,1.15,0,0,1-1.22,1Zm1.22-1h2.89l.78-2.91h-2.9Z"/><path class="cls-9" d="M428.22,171l-1.29,4.85h-1l1.28-4.85Z"/><path class="cls-9" d="M429.38,173.88l-.52,1.94h-1l1-3.88a1.15,1.15,0,0,1,1.22-1H433c.65,0,.88.32.71,1l-1,3.88h-1l.52-1.94Zm3.15-1,.26-1h-2.9l-.25,1Z"/><path class="cls-6" d="M414.39,182.8l1.28-4.85h3.87c.64,0,.87.32.7,1l-.77,2.91a1.15,1.15,0,0,1-1.22,1Zm1.22-1h2.89l.78-2.91h-2.9Z"/><path class="cls-6" d="M425.26,181.83l-.26,1h-4.82l.25-1Zm.52-1.94-.26,1H420.7l.25-1Zm.51-1.94-.26,1h-4.82l.25-1Z"/><path class="cls-6" d="M431.82,178.92H428l-.25,1h2.89c.65,0,.88.32.71,1l-.26,1a1.15,1.15,0,0,1-1.22,1H426l.25-1h3.86l.27-1h-2.9c-.64,0-.88-.32-.71-1l.26-1a1.15,1.15,0,0,1,1.22-1h3.86Z"/><path class="cls-6" d="M434,178l-1.29,4.85h-1L433,178Z"/><path class="cls-6" d="M438.51,182.8h-3.86c-.64,0-.88-.32-.71-1l.78-2.91a1.15,1.15,0,0,1,1.22-1h3.86l-.26,1h-3.86l-.77,2.91h2.89l.27-1h-1.45l.26-1h2.41Z"/><path class="cls-6" d="M439.48,182.8l1.28-4.85,3.1,2.91.77-2.91h1l-1.29,4.85-3.08-2.91-.78,2.91Z"/><polygon class="cls-9" points="464.47 162.44 400.6 162.44 401.51 158.96 465.39 158.96 464.47 162.44"/></g><rect class="cls-8" x="396.95" y="307.18" width="360.03" height="50.75"/><rect class="cls-6" x="396.95" y="363.71" width="360.03" height="50.75"/><rect class="cls-5" x="396.95" y="250.85" width="360.03" height="50.75"/><path class="cls-9" d="M481,278.38l1.2-4.5h-4.5l1.19-4.5h4.5l1.2-4.5h4.5l-1.2,4.5h4.5l1.2-4.5h4.5l-1.2,4.5h4.5l-1.19,4.5h-4.5l-1.2,4.5H499l-1.23,4.5h-4.5l-1.19,4.5h-4.5l1.19-4.5h-4.5l-1.19,4.5h-4.5l1.19-4.5h-4.5l1.23-4.5Zm5.7-4.5-1.2,4.5H490l1.2-4.5Z"/><path class="cls-9" d="M507.09,264.88h18q4.5,0,3.3,4.5l-1.19,4.5q-1.2,4.5-5.7,4.5H508l-1.23,4.5h18l-1.19,4.5h-18c-3,0-4.11-1.5-3.31-4.5l1.23-4.5q1.2-4.5,5.7-4.5h13.5l1.19-4.5h-18Z"/><path class="cls-9" d="M535,278.38l-2.42,9h-4.5l4.81-18q1.2-4.5,5.7-4.5h13.5q4.5,0,3.3,4.5l-4.81,18h-4.5l2.42-9Zm14.7-4.5,1.19-4.5h-13.5l-1.19,4.5Z"/><path class="cls-9" d="M578.35,276.13q2.25,0,1.65,2.25l-1.23,4.5c-.8,3-2.69,4.5-5.69,4.5h-18l6-22.5h18q4.5,0,3.3,4.5l-1.19,4.5A2.7,2.7,0,0,1,578.35,276.13ZM562,278.38l-1.23,4.5h13.5l1.23-4.5Zm14.7-4.5,1.19-4.5h-13.5l-1.19,4.5Z"/><path class="cls-9" d="M588.09,264.88h22.5l-17.26,22.5h-5.42l14-18h-15Z"/><path class="cls-9" d="M627.08,287.38h-18l1.19-4.5h18l1.23-4.5H616q-4.5,0-3.3-4.5l1.19-4.5q1.2-4.5,5.7-4.5h13.5q4.5,0,3.3,4.5l-3.62,13.5C632,285.88,630.08,287.38,627.08,287.38Zm3.62-13.5,1.19-4.5h-13.5l-1.19,4.5Z"/><path class="cls-9" d="M646.59,264.88l-2.39,9h13.5l2.39-9h4.5l-6,22.5h-4.5l2.42-9h-18l3.59-13.5Z"/><path class="cls-9" d="M481,333.75l1.2-4.5h-4.5l1.19-4.5h4.5l1.2-4.5h4.5l-1.2,4.5h4.5l1.2-4.5h4.5l-1.2,4.5h4.5l-1.19,4.5h-4.5l-1.2,4.5H499l-1.23,4.5h-4.5l-1.19,4.5h-4.5l1.19-4.5h-4.5l-1.19,4.5h-4.5l1.19-4.5h-4.5l1.23-4.5Zm5.7-4.5-1.2,4.5H490l1.2-4.5Z"/><path class="cls-9" d="M511.59,320.25l-6,22.5h-4.5l6-22.5Z"/><path class="cls-9" d="M533.35,331.5q2.25,0,1.65,2.25l-1.23,4.5c-.8,3-2.69,4.5-5.69,4.5h-18l6-22.5h18q4.5,0,3.3,4.5l-1.19,4.5A2.7,2.7,0,0,1,533.35,331.5ZM517,333.75l-1.23,4.5h13.5l1.23-4.5Zm14.7-4.5,1.19-4.5h-13.5l-1.19,4.5Z"/><path class="cls-9" d="M564.39,324.75h-18l-1.19,4.5h13.5q4.5,0,3.3,4.5l-1.23,4.5c-.8,3-2.69,4.5-5.69,4.5h-18l1.19-4.5h18l1.23-4.5H544q-4.5,0-3.3-4.5l2.39-9h22.5Z"/><path class="cls-9" d="M582.08,342.75h-18l1.19-4.5h18l1.23-4.5H571q-4.5,0-3.3-4.5l1.19-4.5q1.2-4.5,5.7-4.5h13.5q4.5,0,3.3,4.5l-3.62,13.5C587,341.25,585.08,342.75,582.08,342.75Zm3.62-13.5,1.19-4.5h-13.5l-1.19,4.5Z"/><path class="cls-9" d="M597.09,320.25h22.5l-17.26,22.5h-5.42l14-18h-15Z"/><path class="cls-9" d="M619.27,338.25l3.62-13.5q1.2-4.5,5.7-4.5h18l-1.2,4.5h-18l-3.62,13.5h18l-1.19,4.5h-18C619.58,342.75,618.47,341.25,619.27,338.25Z"/><path class="cls-9" d="M481,393.28l1.2-4.5h-4.5l1.19-4.5h4.5l1.2-4.5h4.5l-1.2,4.5h4.5l1.2-4.5h4.5l-1.2,4.5h4.5l-1.19,4.5h-4.5l-1.2,4.5H499l-1.23,4.5h-4.5l-1.19,4.5h-4.5l1.19-4.5h-4.5l-1.19,4.5h-4.5l1.19-4.5h-4.5l1.23-4.5Zm5.7-4.5-1.2,4.5H490l1.2-4.5Z"/><path class="cls-9" d="M507.09,379.78h22.5l-1.2,4.5h-18l-1.19,4.5h18l-1.2,4.5H508l-2.42,9h-4.5Z"/><path class="cls-9" d="M538.59,379.78l-6,22.5h-4.5l6-22.5Z"/><path class="cls-9" d="M547.59,379.78h18l-1.2,4.5h-18l-1.19,4.5h13.5q4.5,0,3.3,4.5l-1.23,4.5c-.8,3-2.69,4.5-5.69,4.5h-13.5q-4.51,0-3.31-4.5l3.62-13.5Q543.09,379.78,547.59,379.78ZM544,393.28l-1.23,4.5h13.5l1.23-4.5Z"/><path class="cls-9" d="M570.09,379.78h18q4.5,0,3.3,4.5l-1.19,4.5q-1.2,4.5-5.7,4.5H571l-1.23,4.5h18l-1.19,4.5h-18q-4.51,0-3.31-4.5l1.23-4.5q1.2-4.5,5.7-4.5h13.5l1.19-4.5h-18Z"/><path class="cls-9" d="M618.39,384.28h-18l-1.19,4.5h13.5q4.5,0,3.3,4.5l-1.23,4.5c-.8,3-2.69,4.5-5.69,4.5h-18l1.19-4.5h18l1.23-4.5H598q-4.5,0-3.3-4.5l2.39-9h22.5Z"/><path class="cls-9" d="M628.59,379.78l-6,22.5h-4.5l6-22.5Z"/><rect class="cls-20" x="22.5" y="250.85" width="346.5" height="335.15"/><rect class="cls-20" x="358.43" y="434.97" width="398.56" height="151.03"/><path class="cls-16" d="M115.11,322.32a4.17,4.17,0,0,1-2-2.4,9.07,9.07,0,0,1-.41-1.55c-.29-1.63-.51-3.28-.72-4.93-.1-.7-.21-1.41-.29-2.12-.1-.91-.17-1.83-.26-2.74a5.71,5.71,0,0,0-.08-.71,3.18,3.18,0,0,1,0-1.15v-.07a24.69,24.69,0,0,0,.06-3.65,1.1,1.1,0,0,0-.06-.26,12.86,12.86,0,0,1,.7-4.26,4.61,4.61,0,0,1,2.19-2.69,10.17,10.17,0,0,1,2.81-1.06l1-.22c.53,0,1.06.06,1.59.06h4.6a9.27,9.27,0,0,0,1.47.36,8.75,8.75,0,0,1,2.67,1.18,4.36,4.36,0,0,1,1.73,2.19,14.69,14.69,0,0,1,.7,3A30.06,30.06,0,0,1,131,307c-.06,1.18-.16,2.36-.31,3.54-.09.74-.15,1.48-.23,2.21q-.09.79-.21,1.59c-.16,1.18-.33,2.35-.5,3.52a10,10,0,0,1-.53,2.16,4.4,4.4,0,0,1-.8,1.37,2.81,2.81,0,0,1-1.3.9c-.73-.11-1.46-.23-2.19-.32-1.06-.13-2.13-.19-3.19-.24a26.7,26.7,0,0,0-3,.14,7.46,7.46,0,0,0-1,.11Z"/><path class="cls-16" d="M117.42,287.47l-1.23-.21a2.64,2.64,0,0,1-.6-.15,2.09,2.09,0,0,1-1.25-.95,6.65,6.65,0,0,1-.76-1.7,20.3,20.3,0,0,1-.5-2.44c-.24-1.46-.48-2.93-.69-4.4s-.41-3.17-.54-4.77a20.85,20.85,0,0,1,0-2.5,8.24,8.24,0,0,1,1-3.56,13.86,13.86,0,0,1,2.16-3,7.69,7.69,0,0,1,4.37-2.39,10.79,10.79,0,0,1,2.66-.16,13.15,13.15,0,0,1,1.75.33,6.83,6.83,0,0,1,3.69,2.18,13.13,13.13,0,0,1,2.47,3.78,7.6,7.6,0,0,1,.65,2.85,32.83,32.83,0,0,1-.16,4.09c-.16,1.6-.37,3.19-.59,4.77s-.43,2.94-.72,4.39a8.75,8.75,0,0,1-.53,1.79,6.42,6.42,0,0,1-.48.85,1.93,1.93,0,0,1-1.31.85l-1,.18a3.61,3.61,0,0,0-.78.16h-4.35C119.6,287.39,118.51,287.44,117.42,287.47Z"/><path class="cls-16" d="M125.06,352.21c-1.56,0-3.12.06-4.68.07h-4a14.72,14.72,0,0,1-2.65-.2,2.78,2.78,0,0,1-1-.35c-.23-.13-.45-.28-.68-.42l-.6-.36c-.2-.8-.45-1.6-.57-2.42a14.32,14.32,0,0,1-.16-4.08.11.11,0,0,0,0-.08,39.14,39.14,0,0,1,.89-5.89c.24-1.19.51-2.38.78-3.56.07-.32.18-.63.28-.94a.64.64,0,0,1,.56-.5c.23,0,.46-.07.7-.09l1.51-.08a6.42,6.42,0,0,0,1.24,0h10.13l2.22.15h.26a.64.64,0,0,1,.54.41,5.39,5.39,0,0,1,.22.68c.18.81.37,1.62.54,2.43.23,1.13.47,2.26.66,3.4a34.37,34.37,0,0,1,.47,3.62c0,.44.09.88.1,1.33a17.05,17.05,0,0,1-.64,4.92c-.07.26-.13.52-.2.77a2.85,2.85,0,0,1-2.09,1h-2.3A6.67,6.67,0,0,0,125.06,352.21Z"/><path class="cls-16" d="M108.46,391.1c-.17-.06-.34-.11-.5-.18a.62.62,0,0,1-.41-.53,6.61,6.61,0,0,1,0-.89v-20c0-1.75,0-3.5.08-5.26,0-1,.1-2.08.2-3.11a5.79,5.79,0,0,1,.29-1.48,1.86,1.86,0,0,1,.74-1l.67-.44a6.29,6.29,0,0,1,1.14-.11c1.56,0,3.12.09,4.68.19a6.5,6.5,0,0,1,1.64.3l.63.48a1.82,1.82,0,0,1,.77,1.25c0,.36.09.71.1,1.07a31,31,0,0,1-.13,3.2c-.07,1.06-.15,2.13-.24,3.19-.07.86-.17,1.71-.26,2.57v.27c-.15,1.59-.29,3.19-.46,4.78-.2,2-.42,4-.63,6-.14,1.42-.27,2.84-.4,4.25-.1,1-.21,1.95-.3,2.93-.07.7-.11,1.41-.18,2.12a.5.5,0,0,1-.44.49,4.25,4.25,0,0,0-.61.08,5.1,5.1,0,0,0-1.23-.2c-.39,0-.77-.08-1.15-.1a31.1,31.1,0,0,0-3.48-.07A1.06,1.06,0,0,0,108.46,391.1Z"/><path class="cls-16" d="M127.64,391.37h-.53a.52.52,0,0,1-.49-.44,9.3,9.3,0,0,1-.13-1.06c-.08-1.3-.24-2.6-.37-3.9-.17-1.74-.35-3.48-.55-5.23-.15-1.35-.25-2.72-.4-4.07s-.31-2.78-.45-4.16c-.11-1-.18-2-.27-2.93s-.19-1.77-.27-2.66a5.77,5.77,0,0,0-.06-1c-.07-.94-.15-1.89-.19-2.84V361a4.69,4.69,0,0,1,0-.53,2,2,0,0,1,.68-1.31l.61-.52a10.17,10.17,0,0,1,2.19-.33c1.41-.1,2.83-.22,4.25-.2a4.87,4.87,0,0,1,1.14.14l.75.48a1.59,1.59,0,0,1,.7,1c.08.29.14.58.19.87a17.51,17.51,0,0,1,.19,2.4c0,1,.08,2,.11,3,0,1.28.06,2.56.07,3.84,0,5.47.05,10.94.09,16.41,0,1.22,0,2.44.07,3.66v.45a.48.48,0,0,1-.33.38l-.69.16a39.79,39.79,0,0,0-5.12.22C128.45,391.19,128.05,391.29,127.64,391.37Z"/><path class="cls-16" d="M114.76,395a1.46,1.46,0,0,1,.81,1,3.07,3.07,0,0,1,.14.52c.07.61.15,1.23.18,1.85A23.74,23.74,0,0,0,116,401c.18,3.71.09,7.43.07,11.14,0,1.36-.08,2.72-.13,4.09,0,.53,0,1.07-.05,1.6-.07.8-.1,1.6-.13,2.4-.07,1.75-.13,3.5-.24,5.25-.07,1.12-.07,2.25-.17,3.37a17,17,0,0,1-.31,2.47,5.16,5.16,0,0,1-.21.77,1,1,0,0,1-.61.61c-.26.08-.51.13-.77.2a12.49,12.49,0,0,1-4-.08h-.17c-.08-.05-.14-.11-.22-.15a1,1,0,0,1-.55-.67,6.46,6.46,0,0,1-.24-.86c-.09-.55-.16-1.11-.22-1.67-.16-1.51-.18-3-.27-4.54s-.17-3-.25-4.45c-.08-1.66-.14-3.32-.2-5V415c-.12-1.36-.12-2.73-.14-4.1v-6.77a43.71,43.71,0,0,1,.15-4.45c0-.57,0-1.13.08-1.7a8.85,8.85,0,0,1,.13-1.24q.06-.35.15-.69a1.68,1.68,0,0,1,.83-1.11,6.14,6.14,0,0,0,1.65.23h2.93A7.71,7.71,0,0,0,114.76,395Z"/><path class="cls-16" d="M129.18,433c-.14-.14-.33-.12-.5-.16a1.27,1.27,0,0,1-1-.94,9.66,9.66,0,0,1-.37-2c-.11-1.16-.19-2.31-.21-3.47,0-.78-.09-1.55-.13-2.32-.09-1.66-.13-3.33-.25-5-.09-1.45-.1-2.91-.18-4.36-.18-3.51-.16-7-.11-10.52v-1.88a8.83,8.83,0,0,1,.08-1.51V400a27.23,27.23,0,0,1,.2-3.12,7.2,7.2,0,0,1,.16-.78,1.77,1.77,0,0,1,.83-1.21,6.29,6.29,0,0,0,1.67.23h2.84A8.06,8.06,0,0,0,134,395a1.58,1.58,0,0,1,.83,1.1,4.54,4.54,0,0,1,.12.53c.07.67.16,1.35.18,2,0,1.66.16,3.32.15,5v6.06c0,1.64,0,3.27-.13,4.91-.07.94,0,1.9-.08,2.85a4.69,4.69,0,0,1,0,.53c-.12,1.19-.11,2.38-.17,3.57-.1,1.66-.19,3.33-.27,5,0,.74-.05,1.49-.1,2.23a19.23,19.23,0,0,1-.28,2.39c0,.23-.11.46-.16.69a1.16,1.16,0,0,1-.68.88.49.49,0,0,0-.14.11h-.53a8.21,8.21,0,0,1-1.85.15Z"/><path class="cls-16" d="M140.19,302.78a1.43,1.43,0,0,0-.26-1,.59.59,0,0,1,0-.67,1.88,1.88,0,0,1,1-.84,10.68,10.68,0,0,1,1.1-.33c.64-.13,1.28-.24,1.93-.33a28.6,28.6,0,0,1,4.53-.24c.63,0,1.25,0,1.87.05,1.19.08,2.37.18,3.55.27a5.26,5.26,0,0,1,.89.05l4,.32,2.93.22c1,.08,2,.19,2.92.26a1.34,1.34,0,0,1,1.24.86v.08a15.3,15.3,0,0,1,.35,2.61,13.82,13.82,0,0,1-.24,3.08,3.22,3.22,0,0,1-.13.6c0,.2-.05.1-.07.16a1.24,1.24,0,0,1-1.13.73l-2,.19c-1.24.11-2.48.23-3.72.32l-3.55.26c-1.18.09-2.54.23-3.81.28s-2.79.19-4.18.15a32.22,32.22,0,0,1-5-.51c-.38-.07-.75-.19-1.12-.29a3.09,3.09,0,0,1-.8-.38,1.76,1.76,0,0,1-.63-.84.3.3,0,0,1,0-.26,2.32,2.32,0,0,0,.38-1.17c0-.35.1-.69.11-1a19.43,19.43,0,0,0,0-2.53V303h0v-.14Z"/><path class="cls-16" d="M76.74,301.48c.42-.79.52-.87,1.44-1s1.71-.17,2.57-.24l2.93-.21,3.9-.33c1.13-.08,2.25-.12,3.38-.22a41.29,41.29,0,0,1,5.78-.1c.67,0,1.33.11,2,.21s1.17.19,1.75.31a7.21,7.21,0,0,1,1,.31,2.56,2.56,0,0,1,.47.23.87.87,0,0,1,.43.83v1.23a39.27,39.27,0,0,0,0,4.06v1.23a.54.54,0,0,1,0,.18.81.81,0,0,1-.36.68,3.61,3.61,0,0,1-.71.35,10.27,10.27,0,0,1-1.21.32,30.64,30.64,0,0,1-7.53.44l-4-.24-1.24-.11c-1.27-.09-2.54-.17-3.82-.28l-3.63-.31-2-.19a2,2,0,0,1-.35-.05,1,1,0,0,1-.64-.45c-.09-.15-.19-.3-.29-.44a14.45,14.45,0,0,1-.32-1.84A11.53,11.53,0,0,1,76.74,301.48Z"/><path class="cls-16" d="M48.24,302.64a5.13,5.13,0,0,1,.38-1.08.81.81,0,0,1,.53-.44,3.48,3.48,0,0,0,.44-.1l1.94-.21c1-.1,2-.22,3-.3,1.51-.11,3-.24,4.53-.27,1.3,0,2.61-.08,3.91-.06.92,0,1.84.05,2.76.07H66.8a35.22,35.22,0,0,1,3.56.19,3.55,3.55,0,0,1,1.27.36.76.76,0,0,1,.4.46l.15.6v3.91c0,.56-.05,1.12,0,1.68a.38.38,0,0,1-.07.26,1,1,0,0,1-.75.79,6.44,6.44,0,0,1-1.74.32h-.89c-3.09.17-6.18.19-9.27.13-.87,0-1.72-.08-2.58-.14-1.25-.07-2.49-.17-3.73-.31-.8-.09-1.6-.15-2.39-.24a9.87,9.87,0,0,1-1.33-.17h-.17a.9.9,0,0,1-.66-.55c-.12-.34-.23-.68-.34-1a1.13,1.13,0,0,0,0-.26Z"/><path class="cls-16" d="M170.45,301.76c.19-.73.24-.95,1.23-1.2a10.5,10.5,0,0,1,1.86-.22c.83,0,1.66-.06,2.49-.08l1.88-.05q2.67-.09,5.34,0c.74,0,1.49,0,2.23.07,1.15.08,2.31.17,3.46.28s2.54.26,3.81.4a4.36,4.36,0,0,1,.71.11.75.75,0,0,1,.6.59,4.42,4.42,0,0,1,.21,1.13V306a9.38,9.38,0,0,1-.21,1.49.87.87,0,0,1-.74.68l-1,.14c-.65.07-1.3.15-1.95.2-1,.1-2,.16-3,.27s-2,.1-3,.18c-2.43.18-4.86.1-7.29.08-.51,0-1-.05-1.51-.07h-.71a18.62,18.62,0,0,1-2-.07,7.42,7.42,0,0,1-1.48-.27,1.11,1.11,0,0,1-.86-.91.84.84,0,0,0-.05-.17v-5.28A2.9,2.9,0,0,0,170.45,301.76Z"/><path class="cls-17" d="M126.77,333.3H116.64a6.42,6.42,0,0,1-1.24,0c-.16-.25-.31-.5-.48-.74a8.09,8.09,0,0,1-1.45-3.61,8.44,8.44,0,0,1,1.14-5.74c.17-.28.34-.56.5-.84l2.65-.34c.35,0,.7-.09,1-.11,1-.06,2-.18,3-.14s2.13.11,3.19.24c.73.09,1.46.21,2.19.32a2.77,2.77,0,0,0,.43.77,8.74,8.74,0,0,1-.87,10.24Z"/><path class="cls-16" d="M199.22,302.53a1,1,0,0,1,.19-.29,4.21,4.21,0,0,1,.64-.47,9.2,9.2,0,0,1,4.86-1.24,9.5,9.5,0,0,1,1.06.1,18.49,18.49,0,0,1,3.3.72,5.42,5.42,0,0,1,1.65.86,2.52,2.52,0,0,1,.93,1.27,4.24,4.24,0,0,1,0,2.29,2.08,2.08,0,0,1-.44.76,4,4,0,0,1-1.12.88A7.52,7.52,0,0,1,209,308a18.08,18.08,0,0,1-3.49.67,9.07,9.07,0,0,1-5.39-1.2,6,6,0,0,1-.72-.52.74.74,0,0,1-.13-.21,4.84,4.84,0,0,0,.41-2.83A3.1,3.1,0,0,0,199.22,302.53Z"/><path class="cls-16" d="M43.56,306.8a7.6,7.6,0,0,1-2.91,1.49,8.8,8.8,0,0,1-3.78.27A18.66,18.66,0,0,1,34,308c-.37-.11-.73-.24-1.09-.38a5.77,5.77,0,0,1-.55-.29,3.11,3.11,0,0,1-1.37-4,2.34,2.34,0,0,1,.73-1,4.69,4.69,0,0,1,1.78-1c.62-.19,1.25-.36,1.89-.5a20.43,20.43,0,0,1,2.2-.31,7.06,7.06,0,0,1,2,.11,9.78,9.78,0,0,1,2.77,1,4.48,4.48,0,0,1,1.16.81c-.06.19-.11.39-.17.59a4.64,4.64,0,0,0,0,3.12Z"/><path class="cls-17" d="M102.4,306.67v-.08a39.27,39.27,0,0,1,0-4.06v-.08c0-.08.24-.23.32-.4a4.84,4.84,0,0,1,1.66-1.82,4.39,4.39,0,0,1,1.55-.64,4.44,4.44,0,0,1,4.5,1.67c.2.26.36.54.54.81l.44.67a1.1,1.1,0,0,1,.06.26,24.69,24.69,0,0,1-.06,3.65v.07a1.27,1.27,0,0,0-.41.45c-.16.25-.32.5-.5.74a4.79,4.79,0,0,1-1.2,1.09,3,3,0,0,1-1.13.51,4.37,4.37,0,0,0-.52.12,2.52,2.52,0,0,1-1.06.08,4.64,4.64,0,0,1-2.6-1,4.47,4.47,0,0,1-1.28-1.58C102.64,306.91,102.48,306.82,102.4,306.67Z"/><path class="cls-17" d="M140.29,302.83a19.43,19.43,0,0,1,.05,2.53,7.65,7.65,0,0,1-.11,1,3.62,3.62,0,0,0-.45.76,5.09,5.09,0,0,1-1.73,1.87,4.31,4.31,0,0,1-3.15.6,4.85,4.85,0,0,1-3.2-2.21,1.63,1.63,0,0,1-.28-.74,10.63,10.63,0,0,0-.29-1.85,1.26,1.26,0,0,1,0-.61,11.85,11.85,0,0,0,.27-1.67,1.79,1.79,0,0,1,.27-.74,5.11,5.11,0,0,1,1.77-1.72,4.92,4.92,0,0,1,2.74-.57,4.61,4.61,0,0,1,3.49,2.33c.19.3.35.62.52.93h.06Z"/><path class="cls-17" d="M117.42,287.47c1.09,0,2.18-.08,3.28-.09h4.35c.12.23.25.46.37.7a5.3,5.3,0,0,1-.52,5.74c-.18.24-.36.46-.55.69h-4.6a14.09,14.09,0,0,1-1.59-.06c-.15-.18-.31-.36-.45-.54a5.14,5.14,0,0,1-.7-5.72C117.13,288,117.28,287.73,117.42,287.47Z"/><path class="cls-17" d="M132.84,358.26a4.87,4.87,0,0,0-1.14-.14c-1.42,0-2.84.1-4.25.2a10.17,10.17,0,0,0-2.19.33c-.13-.2-.26-.4-.38-.6a5.15,5.15,0,0,1-.24-5,3.74,3.74,0,0,0,.42-.88,6.76,6.76,0,0,1,1.49-.12h2.3a2.85,2.85,0,0,0,2.09-1,.6.6,0,0,1,.59.09,5,5,0,0,1,2.08,3.4A5.15,5.15,0,0,1,132.84,358.26Z"/><path class="cls-17" d="M117.08,358.62a6.5,6.5,0,0,0-1.64-.3c-1.56-.1-3.12-.23-4.68-.19a6.29,6.29,0,0,0-1.14.11c-.13-.26-.28-.52-.4-.8a5.17,5.17,0,0,1,2.09-6.52h.08l.61.36c.23.14.45.29.68.42a2.78,2.78,0,0,0,1,.35,14.72,14.72,0,0,0,2.65.2h1.14c.15.33.31.64.44,1a5.29,5.29,0,0,1-.39,5A.7.7,0,0,1,117.08,358.62Z"/><path class="cls-17" d="M170.45,301.76a3.09,3.09,0,0,1,0,.43v5.28l-.58.38a4.34,4.34,0,0,1-1,.45,3.14,3.14,0,0,1-2.31-.18c-.24-.1-.47-.24-.7-.36a3.22,3.22,0,0,1,.13-.6,13.82,13.82,0,0,0,.24-3.08,15.3,15.3,0,0,0-.35-2.61,3.26,3.26,0,0,1,1.68-.67,3.32,3.32,0,0,1,2.25.55A6.79,6.79,0,0,1,170.45,301.76Z"/><path class="cls-17" d="M72.16,307.46v-5.59a3.23,3.23,0,0,1,3.7-.84c.29.14.57.3.86.45a11.46,11.46,0,0,0-.35,4.4,14.45,14.45,0,0,0,.32,1.84,4.22,4.22,0,0,1-1.7.69,1.57,1.57,0,0,1-.53,0,3.65,3.65,0,0,1-1.88-.69Z"/><path class="cls-17" d="M199.22,302.53a3.14,3.14,0,0,1,.42,1.33,4.84,4.84,0,0,1-.41,2.83c-.24.17-.46.36-.7.53a2.81,2.81,0,0,1-1.81.57,2.89,2.89,0,0,1-2-1,1,1,0,0,1-.19-.39,1.19,1.19,0,0,0-.22-.47v-2.76a.73.73,0,0,0,.2-.39,1,1,0,0,1,.37-.59,3.08,3.08,0,0,1,1.83-.82,1.62,1.62,0,0,1,.44,0,3.08,3.08,0,0,1,1.66.8A3.52,3.52,0,0,0,199.22,302.53Z"/><path class="cls-17" d="M114.76,395a7.83,7.83,0,0,1-1.67.18h-2.93a6.14,6.14,0,0,1-1.65-.23c-.07-.17-.13-.33-.19-.5a4,4,0,0,1,0-2.85c.06-.17.1-.34.15-.51a1.2,1.2,0,0,1,.59-.15,31.1,31.1,0,0,1,3.48.07c.38,0,.76.07,1.15.1a5.1,5.1,0,0,1,1.23.2,1.63,1.63,0,0,0,.11.42,4,4,0,0,1-.12,2.86C114.85,394.74,114.81,394.88,114.76,395Z"/><path class="cls-17" d="M134.06,395a8.06,8.06,0,0,1-1.77.19h-2.84a6.29,6.29,0,0,1-1.67-.23c-.08-.25-.18-.49-.25-.74a3.6,3.6,0,0,1-.08-2.08c.07-.26.13-.51.19-.77.41-.08.81-.18,1.22-.22a39.79,39.79,0,0,1,5.12-.22,3,3,0,0,0,.17.41,4.09,4.09,0,0,1,.34,2.07,3.2,3.2,0,0,1-.17.86Z"/><path class="cls-17" d="M43.56,306.8l-.2-.68a4.64,4.64,0,0,1,0-3.12c.06-.2.11-.4.17-.59l.57-.43a3.08,3.08,0,0,1,1.57-.59,1.62,1.62,0,0,1,.44,0,3,3,0,0,1,1.65.82l.46.41v3.63a1.13,1.13,0,0,1,0,.26l-.45.43a2.77,2.77,0,0,1-3.66.26Z"/><path class="cls-17" d="M109.29,432.88h.17a12.49,12.49,0,0,0,4,.08c.15.26.31.5.44.76a3.22,3.22,0,0,1,0,3.06.29.29,0,0,1-.36.16,5.71,5.71,0,0,0-1.62-.43,2.69,2.69,0,0,0-1.56.15,2.85,2.85,0,0,0-1.25.28,1.75,1.75,0,0,1-.32.12c-.07-.13-.15-.25-.21-.39a3.18,3.18,0,0,1,.31-3.29Z"/><path class="cls-17" d="M129.18,433H131a8.21,8.21,0,0,0,1.85-.15,4.69,4.69,0,0,1,.53,0,5.87,5.87,0,0,1,.46.65,3.25,3.25,0,0,1,.18,3.23.26.26,0,0,1-.32.18h0a6.52,6.52,0,0,0-1.37-.4,4.43,4.43,0,0,0-1.15,0l-.51.15a3,3,0,0,0-1.5.37l-.24.11a4.67,4.67,0,0,1-.45-1.14,3.3,3.3,0,0,1,.49-2.52Z"/><path class="cls-16" d="M128.85,437.12l.24-.11a3,3,0,0,1,1.5-.37,19,19,0,0,0,1.72.93,3.46,3.46,0,0,1,.62.36,2.17,2.17,0,0,1,.89,1.17.21.21,0,0,1-.11.27.18.18,0,0,1-.1,0h-6.14s-.11-.09-.1-.12a3,3,0,0,1,.88-1.61A7.5,7.5,0,0,1,128.85,437.12Z"/><path class="cls-16" d="M108.82,437.06a1.75,1.75,0,0,0,.32-.12,2.85,2.85,0,0,1,1.25-.28,14.29,14.29,0,0,0,1.62.91,3.57,3.57,0,0,1,.74.47,2.08,2.08,0,0,1,.77,1.17.13.13,0,0,1-.08.13.53.53,0,0,1-.25.05h-5.77a.18.18,0,0,1-.13-.2,3.11,3.11,0,0,1,.93-1.59Z"/><path class="cls-21" d="M140.29,302.83v-.06h-.08v.14h0S140.33,302.89,140.29,302.83Z"/><rect class="cls-6" x="232.77" y="264.43" width="121.49" height="221.61" rx="22.23" ry="22.23" transform="translate(-1.7 1.34) rotate(-0.26)"/><rect class="cls-22" x="237.11" y="275.49" width="107.87" height="185.79" rx="15.88" ry="15.88"/><circle class="cls-9" cx="319.08" cy="331.95" r="13.63"/><path class="cls-9" d="M319.34,350.55h0A18.51,18.51,0,0,1,338,368.92l.14,31.89a4.4,4.4,0,0,1-4.38,4.42l-28.23.13a4.4,4.4,0,0,1-4.42-4.38l-.14-31.89a18.5,18.5,0,0,1,18.42-18.59h0Z"/><circle class="cls-9" cx="293.68" cy="474.33" r="9.65"/><rect class="cls-9" x="246.38" y="287.79" width="70.06" height="7.92" rx="3.96" ry="3.96" transform="translate(-1.32 1.28) rotate(-0.26)"/><rect class="cls-9" x="246.45" y="303.14" width="44.98" height="7.92" rx="3.96" ry="3.96" transform="translate(-1.39 1.22) rotate(-0.26)"/><g class="cls-23"><rect class="cls-9" x="245.04" y="321.51" width="44.98" height="50.62" rx="12" ry="12"/><path class="cls-12" d="M260.23,336.8h0a3,3,0,0,1,3,3l.14,31.2h0l-5.92,0h0l-.14-31.2A3,3,0,0,1,260.23,336.8Z"/><path class="cls-13" d="M264.61,354.62h0a3,3,0,0,1,3,3v14.56h-5.92v-14.6A3,3,0,0,1,264.61,354.62Z"/><path class="cls-13" d="M283.84,337h0a3,3,0,0,1,3,3l.14,30.94h0l-5.93,0h0l-.14-31A3,3,0,0,1,283.84,337Z"/><path class="cls-14" d="M272.11,342.53h0a3,3,0,0,1,3,3l.12,25.41h0l-5.92,0h0l-.12-25.45a3,3,0,0,1,3-3Z"/><path class="cls-12" d="M278,331.81h0a3,3,0,0,1,3,3l.17,36.1h0l-5.92,0h0l-.17-36.1A3,3,0,0,1,278,331.81Z"/><path class="cls-14" d="M254.35,348h0a3,3,0,0,1,3,3l.09,20h0l-5.92,0h0l-.09-20A3,3,0,0,1,254.35,348Z"/></g><rect class="cls-9" x="268.09" y="414.83" width="70.06" height="7.92" rx="3.96" ry="3.96" transform="translate(-1.9 1.38) rotate(-0.26)"/><rect class="cls-9" x="292.81" y="430.06" width="44.98" height="7.92" rx="3.96" ry="3.96" transform="translate(-1.97 1.44) rotate(-0.26)"/><path class="cls-6" d="M657.47,531h0a9.93,9.93,0,0,1,9.92,9.94v11.45a9.94,9.94,0,0,1-9.94,9.92h0a9.93,9.93,0,0,1-9.91-9.94V540.94A9.91,9.91,0,0,1,657.47,531Z"/><rect class="cls-6" x="610.24" y="421.3" width="87.9" height="163.49" rx="22.23" ry="22.23" transform="translate(150.46 1156.71) rotate(-89.94)"/><rect class="cls-24" x="616.78" y="427.02" width="74.82" height="152.95" rx="15.88" ry="15.88" transform="translate(150.01 1157.16) rotate(-89.94)"/><path class="cls-6" d="M627.3,556.5l58.64.06a5.14,5.14,0,0,1,5.14,5.14h0a5.15,5.15,0,0,1-5.15,5.13l-58.64-.06a5.14,5.14,0,0,1-5.13-5.14h0A5.12,5.12,0,0,1,627.3,556.5Z"/><circle class="cls-9" cx="597.98" cy="482.87" r="7.25"/><path class="cls-9" d="M598.05,492.72h0a9.85,9.85,0,0,1,9.84,9.86l0,17a2.33,2.33,0,0,1-2.34,2.33h-15a2.34,2.34,0,0,1-2.34-2.34h0l0-17a9.84,9.84,0,0,1,9.86-9.84Z"/><circle class="cls-9" cx="704.48" cy="493.2" r="7.25"/><path class="cls-9" d="M704.6,503.06h0a9.85,9.85,0,0,1,9.84,9.86l0,17a2.34,2.34,0,0,1-2.34,2.34h0l-15.06,0a2.34,2.34,0,0,1-2.34-2.34h0l0-17a9.84,9.84,0,0,1,9.86-9.84Z"/><path class="cls-8" d="M637.37,471.29h22.11a2.59,2.59,0,0,1,1.89.78,3.24,3.24,0,0,1,.85,1.06,2.7,2.7,0,0,1,.23,1v4.72A2.86,2.86,0,0,1,661,481.3a3.73,3.73,0,0,1-2.06.52l-43.43-.05a4.54,4.54,0,0,1-1.37-.2,1.86,1.86,0,0,1-.52-.36.39.39,0,0,0-.53,0,2.44,2.44,0,0,1-1.58.52c-.06,0-.14,0-.15-.06s0-.1.06-.12A2,2,0,0,0,612,480c.13-1.86,0-3.73.08-5.6a3.1,3.1,0,0,1,1.7-2.69,3.85,3.85,0,0,1,1.94-.42Z"/><path class="cls-8" d="M641,498.47h22.11a2.59,2.59,0,0,1,1.89.78,3,3,0,0,1,.84,1.06,2.82,2.82,0,0,1,.24,1V506a2.89,2.89,0,0,1-1.47,2.46,3.9,3.9,0,0,1-2.06.52h-43.4a4.6,4.6,0,0,1-1.38-.19,1.82,1.82,0,0,1-.51-.36.39.39,0,0,0-.53,0,2.5,2.5,0,0,1-1.58.52c-.06,0-.14,0-.16-.06a.21.21,0,0,1,.07-.13,1.93,1.93,0,0,0,.57-1.58c.14-1.86,0-3.73.09-5.59a3.08,3.08,0,0,1,1.7-2.69,3.76,3.76,0,0,1,1.94-.43Z"/><path class="cls-9" d="M688.34,495.49a1.23,1.23,0,0,0-.23-.28,1.63,1.63,0,0,1-.48-1.27c-.1-1.92,0-3.85-.07-5.78a3,3,0,0,0-.83-2,3.81,3.81,0,0,0-1.5-1,1.39,1.39,0,0,0-.57-.09L640,485a2.56,2.56,0,0,0-1.75.74,3,3,0,0,0-1,1.39,1.52,1.52,0,0,0-.06.42v5.05a2.64,2.64,0,0,0,.65,1.7,2.46,2.46,0,0,0,1.27.95,5.66,5.66,0,0,0,1.28.24h43.86a2.68,2.68,0,0,0,1.8-.59.33.33,0,0,1,.45,0,3.47,3.47,0,0,0,1.56.54C688.15,495.51,688.23,495.49,688.34,495.49Z"/><path class="cls-9" d="M688.88,523.36a3.11,3.11,0,0,0-.23-.28,1.64,1.64,0,0,1-.48-1.26c-.1-1.93,0-3.86-.07-5.78a2.94,2.94,0,0,0-.83-2,4.12,4.12,0,0,0-1.5-1,1.58,1.58,0,0,0-.57-.08l-44.68-.05a2.57,2.57,0,0,0-1.76.73,3.16,3.16,0,0,0-.94,1.39,1.2,1.2,0,0,0-.07.42v5a2.69,2.69,0,0,0,.65,1.71,2.58,2.58,0,0,0,1.28,1,5.06,5.06,0,0,0,1.28.23h43.85a2.59,2.59,0,0,0,1.81-.59.31.31,0,0,1,.44,0h0a3.51,3.51,0,0,0,1.57.54A1,1,0,0,0,688.88,523.36Z"/><circle class="cls-6" cx="501.05" cy="512.65" r="49.75"/><circle class="cls-6" cx="501.15" cy="512.65" r="51.47"/><circle class="cls-9" cx="500.89" cy="513.07" r="45.93"/><circle class="cls-8" cx="501.15" cy="513.28" r="43.5" transform="translate(-85.78 925.74) rotate(-80.78)"/><path class="cls-14" d="M501.15,513.28,478.75,476a43.49,43.49,0,1,1,15.14,80.17Z"/><path class="cls-12" d="M500.83,513.56l-7.25,42.89A43.51,43.51,0,0,1,457.83,507Z"/><path class="cls-9" d="M122.5,482.51c1.08-5.44,1.08-5.44,6.44-5.44h4.61c5.65,0,5.65,0,6.81,5.43h14.79c16.17.08,26.85,8.83,30.32,24.74,1.21,5.51,2.54,11,3.78,16.33,7.31,1,8.83,2.69,8.83,9.66v5.33c0,7.24-1.41,8.93-8.69,10.13-1.95,6.85-6.16,11.69-13.54,13.15a21.33,21.33,0,0,1-4.22.33H91c-8.52,0-13.94-3.83-17.16-11.74a4.21,4.21,0,0,0-2.64-2c-4.54-1-6.47-3.14-6.53-7.82v-9.23c.08-4.57,2.18-6.72,6.76-7.54a3.7,3.7,0,0,0,2.39-2.22c1.35-5,2.51-10.07,3.6-15.14,3.1-14.53,14-23.62,28.84-23.93C111.72,482.41,117.15,482.51,122.5,482.51Zm8.63,75h0c14,0,27.94.08,41.91,0,7.08,0,11.71-4.79,11.84-11.86.1-5.68.08-11.36,0-17-.11-9.4-4.67-13.89-14-13.89H92c-9.53,0-14.08,4.47-14.26,14.09-.09,5.08,0,10.18,0,15.27.08,9,4.55,13.46,13.59,13.48q19.94,0,39.8,0Zm-9.75-47.62.87-15.8c-6,0-11.44-.25-16.86.06-8.86.51-16,7.59-16.28,15.74Zm20.08-.09h32.41c-1.56-8.62-6.72-14.34-15-15.35-5.89-.71-11.94-.13-18.31-.13Zm-6.07-28a28.93,28.93,0,0,1-3.95,0c-3.23-.49-4.4.83-4.31,4,.08,3.41-.35,6.83-.41,10.24-.08,4.55,0,9.1,0,13.71h10.06c-.47-9.35-.92-18.37-1.39-28ZM81.2,512l.87.47c.79-1.53,1.92-3,2.32-4.6,2.88-11.67,10.86-18.14,22.88-18.29,4.26-.06,8.52.07,12.78-.09.92,0,1.81-.95,2.71-1.47l-.49-1.12H109.19C92.46,486.94,83.23,495.23,81.2,512Zm99.61.58,1-.76c-.49-2.3-.83-4.64-1.51-6.87-2.68-8.79-8.37-15.16-17.33-17-7.27-1.46-14.93-1-22.41-1.48l-.44,1.61c.87.42,1.73,1.16,2.62,1.19,4,.14,8,0,12,.07,12.7.12,20.74,6.68,23.67,19.07.4,1.59,1.59,2.83,2.4,4.21ZM73,528.63c-2.33-.48-3.59.18-3.59,2.55,0,3.29-.09,6.57,0,9.85.09,2.54.6,2.79,3.56,2.29Zm116.79,15c2.66.49,3.67-.52,3.65-2.78v-9.5c0-2.48-1.18-3.28-3.64-2.67Z"/><path class="cls-9" d="M120.41,519c9.81,0,19.63,0,29.44.06,1.05,0,2.09.89,3.13,1.36-1,.45-2.08,1.27-3.13,1.28-18.91.08-37.83,0-56.75.06-6.43,0-8.07,1.67-8.08,8.21V543.8c0,3.53,1.27,5.88,5,6.62.72.15,1.28,1.08,1.91,1.65-.86.36-1.76,1.08-2.59,1a8,8,0,0,1-7-7.3,179.52,179.52,0,0,1,0-19.13c.28-4.72,4.08-7.62,9.06-7.65Z"/><path class="cls-9" d="M399.68,448.91c-.71,4.38-2.18,8.43-2,10.39h10.39c2.77-.05,3.67,1.48,3.65,4,0,3.78.1,7.57,0,11.34a4.29,4.29,0,0,0,2.18,4.08c7.11,5,12.87,11.21,14.21,20.21.32,2.14-.23,5.21-1.62,6.66-7.37,7.71-15.14,15.05-23,22.69-3.22-4.84-6.11-9.59-9.42-14a27.56,27.56,0,0,0-6.23-5.57c-.59-.42-2.32.2-3.19.81-5,3.53-4.92,3.55-9.37-.87-1.79-1.77-3.71-3.41-5.55-5.09,3.26-3.42,6.3-6.41,9.09-9.61a7,7,0,0,0,1.71-4c.15-7.44.09-14.9,0-22.35,0-3.09,1-4.92,4.37-5.28,3.08-.34,6.12-1.1,9.17-1.68.14-2.92,1.79-6.43,1.92-9C396.87,451.51,398.84,448.91,399.68,448.91Zm6.16,13.32c-4.33.23-5,.47-8.31.69-1.07.07-11.3,1.28-11.31,6.37V486.2c6.83-4.1,9.56-13.89,19.62-11.52Zm-2,59.46a9,9,0,0,0,1.53-.47c6.44-6.16,12.88-12.31,19.26-18.52.36-.35.23-1.19.33-1.81-.63.12-1.47,0-1.86.38q-9.35,8.89-18.54,17.93C404.14,519.61,404.17,520.48,403.84,521.69Zm-24.37-23c5.36-2.58,20.85-18.38,21-20.63a2.74,2.74,0,0,0-1.92.86q-9.19,8.79-18.29,17.69c-.48.39-.54,1.33-.79,2Zm5.31,1.51c1.11-.2,1.38-.17,1.5-.29,6.37-6.09,12.74-12.17,19-18.33a3.06,3.06,0,0,0,.78-2.58c-1,.06-1.3.28-1.49.47-6.37,6.09-12.74,12.18-19.05,18.34-.4.38-.4,1.25-.74,2.35Zm21.52-15-1.73-1.2c-4.67,5.11-9.36,10.21-14,15.37-.57.64-.76,1.62-1.44,3.13a9.59,9.59,0,0,0,1.88-.68c4.76-4.58,9.55-9.13,14.21-13.81a3.71,3.71,0,0,0,1.08-2.89Zm.07,7.13-1.58-1.13c-3.56,3.93-7.14,7.84-10.64,11.82-.41.47-.33,1.36-.47,2.06.62-.15,1.44-.1,1.84-.49,3.27-3.07,6.51-6.17,9.63-9.39a9.77,9.77,0,0,0,1.22-2.95Zm5.16,15.17,1.37.83c3.19-3.43,6.41-6.85,9.55-10.33a6.76,6.76,0,0,0,.83-2.07c-.78.18-1.79.12-2.3.59-2.84,2.61-5.62,5.31-8.28,8.11-.7.61-.79,1.82-1.17,2.79Zm.09-6.78.85.3c2.66-2.53,5.36-5,7.94-7.63.43-.44.34-1.38.5-2.09-.62.15-1.41.12-1.83.5-2.2,2-4.38,3.94-6.38,6.08-.64.61-.7,1.8-1.08,2.76Zm-5.32-2-.71-.63c-2.71,2.65-5.46,5.28-8.11,8-.36.37-.25,1.2-.35,1.82.62-.12,1.45,0,1.85-.4,2.22-2,4.41-4.11,6.46-6.31a6.84,6.84,0,0,0,.86-2.59Zm4.3,11c-3.5-.41-8,3.41-7.58,7Zm2.08-14.7c1.65-1.82,3.34-3.6,4.93-5.46A2.25,2.25,0,0,0,418,488c0-.2-.85-.54-1.22-.45-1.66.28-4.91,4.93-4.13,7.34Zm-6.91,9.65L399.68,511c2.71,1,6.49-2.74,6.09-6.49Z"/><path class="cls-9" d="M352.65,554,329.8,523.65c8-6.95,17.65-7.58,27.46-7.52a3.26,3.26,0,0,1,2.26,1.15c4.79,6.72,9.49,13.51,14.19,20.25A60.69,60.69,0,0,1,352.65,554Z"/><path class="cls-9" d="M377.72,540.9c5.28.33,10.4.57,15.5,1.07a3.36,3.36,0,0,1,2.38,2c.94,4.71,1.64,9.48,2.3,14.25a8.83,8.83,0,0,1-.38,3.35c-1.12,4.11-2.33,8.18-3.54,12.43l-25.86-5.35Z"/><path class="cls-9" d="M381.57,513.7l5.82-4.42c2.24,2.48,4.75,4.69,6.57,7.37,7.16,10.55,10.42,16.1,17.66,27.08-8.88-.74-16.29-8.26-19.58-14C388.92,524.31,385.21,519.22,381.57,513.7Z"/><path class="cls-9" d="M330.09,499.22c5.74-.48,11.28-.82,16.78-1.43a36.4,36.4,0,0,1,18,3.08c3.48,1.47,5.78,5.72,8.79,8.91-5.26.23-10.45.52-15.64.61a7.49,7.49,0,0,1-3.17-1.15c-4-2-7.83-4.48-12-6.17S334.6,500.54,330.09,499.22Z"/><path class="cls-9" d="M376.05,502.05s12.75-21.33,24-24.77,29.56,20.56,25.54,25.6c-4.46,5.59-5.72,7.06-13,15-6.82,7.48-10.65,6.38-12.54.83S378.15,499.47,376.05,502.05Z"/><path class="cls-9" d="M365.24,512.44s-3.32-.42-3.2,1.18,4.7,26.25,29.45,23.89c0,0,6.15.14,3.33-2.19S371.89,539.12,365.24,512.44Z"/></g></svg>