<svg id="Layer_1" data-name="Layer 1" xmlns="http://www.w3.org/2000/svg" viewBox="0 0 576 576"><defs><style>.cls-1{fill:#409c87;}.cls-2,.cls-3{fill:#fff;}.cls-3{stroke:#fff;stroke-miterlimit:10;stroke-width:3.44px;}</style></defs><title>Logos</title><rect class="cls-1" x="-25" y="-5" width="639" height="607"/><path class="cls-2" d="M201.58,236a49.86,49.86,0,0,1-21.91,12.4q14.49,2.91,20,13.38t3.22,24l-21.7,138.57-40.49-50.61,12.57-78.61Q155.82,278,150.19,271t-22.72-7.09H103.3L99.55,372h-63L66.25,204.91q3.87-25.14,8.86-41.25t14.34-25.29q9.35-9.18,24.81-12.73t40.6-3.54q24.16,0,38,3.38T213,138.05q6.27,9.18,6.12,25.45t-4.35,42.37Q211.24,226.83,201.58,236Zm-28.2-53.81q.81-9.83-1.45-15.47a13.72,13.72,0,0,0-7.57-7.89q-5.31-2.25-15-2.25c-6.44,0-11.66.69-15.63,2.09a20.61,20.61,0,0,0-10,7.73q-4,5.64-6.44,15t-4.67,23.84l-9.35,58.64,60.9-42.05c4.94-.21-12.3,8.49-9.18,7.09a28.11,28.11,0,0,0,9.18-7.09q4.52-5,6.12-15Q172.57,192,173.38,182.19Z"/><path class="cls-2" d="M242.66,372l-56.95,52.38L226,188.23h58.15Z"/><path class="cls-2" d="M425.58,296.81a379.51,379.51,0,0,1-7.9,38.5q-4,14.67-10.31,22.88a31,31,0,0,1-15.46,11.12q-9.18,2.9-23,2.9L249.32,372l41-183.74h97.23a159.73,159.73,0,0,1,24.65,1.61q10.14,1.6,15.79,8.7t6.6,21.75q1,14.66-3.22,41.08ZM388.2,230q-1-6.6-4.19-10a14.56,14.56,0,0,0-8.7-4.19,90.94,90.94,0,0,0-12.89-.8l-27.71,0L306.1,345.34l37.64-.2a62.53,62.53,0,0,0,14.82-1.45,17.05,17.05,0,0,0,9.5-6.12q3.7-4.67,6.13-13.37a213.71,213.71,0,0,0,4.67-23.2l8.37-53.17Q389.17,236.57,388.2,230Z"/><path class="cls-3" d="M540,216.06H497.85a50.7,50.7,0,0,0-9.56.82,14.3,14.3,0,0,0-7.46,4.08,27.38,27.38,0,0,0-5.71,9.67,85.69,85.69,0,0,0-4.08,17.6l-2.56,15.15h46.38l-3.73,24.71H464.75l-2.1,12.13q-2.1,14.2-2.8,22.72t.82,13.05c1,3,2.75,5,5.24,5.95a30.23,30.23,0,0,0,10.26,1.4h43.59l-4.2,26.57h-64.8q-10,0-15.85-2.79t-8.16-10.85q-2.34-8-1.4-22.49T430,296.25l5.6-34.73q4-25.87,8.51-40.21T454.61,200q5.94-7,13.75-8.51a97.16,97.16,0,0,1,18.3-1.51H544Z"/><polygon class="cls-2" points="508.94 424.35 191.85 424.35 249.32 377.19 516.39 377.19 508.94 424.35"/></svg>