<svg id="Layer_1" data-name="Layer 1" xmlns="http://www.w3.org/2000/svg" viewBox="0 0 576 488"><defs><style>.cls-1{fill:#409c87;}.cls-2,.cls-3{fill:#fff;}.cls-3{stroke:#fff;stroke-miterlimit:10;stroke-width:3.44px;}</style></defs><title>logos</title><rect class="cls-1" x="-25" y="-94" width="639" height="607"/><path class="cls-2" d="M201.58,147a49.85,49.85,0,0,1-21.91,12.4q14.49,2.91,20,13.38t3.22,24l-21.7,138.57L140.7,284.74l12.57-78.61Q155.82,189,150.19,182t-22.72-7.09H103.3L99.55,283h-63l29.7-167.09q3.87-25.14,8.86-41.25T89.45,49.37q9.35-9.18,24.81-12.73t40.6-3.54q24.16,0,38,3.38T213,49.05q6.27,9.18,6.12,25.45t-4.35,42.37Q211.24,137.82,201.58,147Zm-28.2-53.81q.81-9.82-1.45-15.47a13.7,13.7,0,0,0-7.57-7.89q-5.31-2.25-15-2.25c-6.44,0-11.66.69-15.63,2.09a20.63,20.63,0,0,0-10,7.73q-4,5.64-6.44,15t-4.67,23.84l-9.35,58.64,60.9-42c4.94-.21-12.3,8.49-9.18,7.09a28,28,0,0,0,9.18-7.09q4.52-5,6.12-15Q172.57,103,173.38,93.19Z"/><path class="cls-2" d="M242.66,283l-56.95,52.38L226,99.23h58.15Z"/><path class="cls-2" d="M425.58,207.81a379.65,379.65,0,0,1-7.9,38.5q-4,14.67-10.31,22.88a31,31,0,0,1-15.46,11.12q-9.18,2.9-23,2.9L249.32,283l41-183.74h97.23a160,160,0,0,1,24.65,1.61q10.14,1.6,15.79,8.7t6.6,21.75q1,14.66-3.22,41.08ZM388.2,141q-1-6.6-4.19-10a14.57,14.57,0,0,0-8.7-4.19,91.06,91.06,0,0,0-12.89-.8H334.71L306.1,256.34l37.64-.2a62.54,62.54,0,0,0,14.82-1.45,17.05,17.05,0,0,0,9.5-6.12q3.7-4.66,6.13-13.37a215.52,215.52,0,0,0,4.67-23.2l8.37-53.17Q389.17,147.57,388.2,141Z"/><path class="cls-3" d="M540,127.06H497.85a51,51,0,0,0-9.56.82,14.35,14.35,0,0,0-7.46,4.08,27.32,27.32,0,0,0-5.71,9.67,85.83,85.83,0,0,0-4.08,17.6l-2.56,15.15h46.38l-3.73,24.71H464.75l-2.1,12.13q-2.1,14.21-2.8,22.72t.82,13.05a8.92,8.92,0,0,0,5.24,5.95,30.21,30.21,0,0,0,10.26,1.4h43.59l-4.2,26.57h-64.8q-10,0-15.85-2.79t-8.16-10.85q-2.34-8-1.4-22.49T430,207.25l5.6-34.73q4-25.87,8.51-40.21T454.61,111q5.94-7,13.75-8.51a96.82,96.82,0,0,1,18.3-1.51H544Z"/><polygon class="cls-2" points="508.94 335.35 191.85 335.35 249.32 288.19 516.39 288.19 508.94 335.35"/></svg>