<svg id="Stuff" xmlns="http://www.w3.org/2000/svg" viewBox="0 0 656 656"><defs><style>.cls-1{fill:#ffcb41;}.cls-2{fill:#1c3457;}.cls-3{fill:#fff;stroke:#fff;stroke-miterlimit:10;stroke-width:3.45px;}</style></defs><title>ATION</title><circle class="cls-1" cx="328.85" cy="326.16" r="283.39"/><circle class="cls-2" cx="328.85" cy="326.16" r="263.83"/><path class="cls-3" d="M206.63,267.27h57.09c8.87,0,14.22-3.91,17-12.46q17.14-52.87,34.33-105.75a35.89,35.89,0,0,1,4.76-10c4.82-6.59,13.23-6.6,18.07,0a35.87,35.87,0,0,1,4.73,10q17.24,52.57,34.28,105.21c3.14,9.64,7.9,13,18.16,13q55.23,0,110.45.06A34,34,0,0,1,516,268.55c8.25,2.75,10.72,11.06,5.47,17.95a31.65,31.65,0,0,1-6.61,6.14q-44.57,32.53-89.25,64.94c-9.66,7-11.26,12.05-7.61,23.27q17,52.11,33.77,104.25a35,35,0,0,1,1.9,9.32c.33,9.47-7.23,14.72-16.09,11.25a33.84,33.84,0,0,1-7.37-4.19q-45.33-32.87-90.59-65.82c-7.56-5.5-13.94-5.52-21.49,0-30.06,21.84-60.05,43.76-90.23,65.42a30.31,30.31,0,0,1-12.4,5.37c-6.34,1-11.4-3.88-11.42-10.4a36,36,0,0,1,1.9-10.9q16.85-52.42,33.93-104.76c3.43-10.56,1.72-15.82-7.36-22.43q-44.85-32.61-89.68-65.25a38.83,38.83,0,0,1-5.24-4.51c-3.39-3.55-5.19-7.69-3.38-12.62,2-5.32,6.28-7.75,11.57-8,9.77-.36,19.56-.3,29.34-.35,10.49-.05,21,0,31.48,0Zm17.2,216.25c2.69-1.91,4.29-3,5.87-4.17q39.26-28.52,78.51-57c13.84-10,27.47-10,41.3,0q25.68,18.63,51.33,37.3c10.64,7.73,21.3,15.42,33,23.92C423,450,412.6,417.76,402.08,385.6c-5.69-17.38-1.78-30.18,13.08-41q39-28.41,78.07-56.74c1.45-1.06,2.82-2.25,5.24-4.19-35.34,0-69.12-.06-102.9,0-18,0-29.12-7.75-34.65-24.76Q348,219.2,335.15,179.48c-1.88-5.78-3.85-11.53-6.22-18.63-1.11,3-1.76,4.58-2.28,6.2q-15,46-29.91,92.08c-5.35,16.45-16.64,24.6-33.76,24.57q-49.1-.07-98.18,0c-1.45,0-2.91.21-5.53.4,14,10.23,27.08,19.75,40.14,29.24q22,16,44,31.93c13.17,9.54,17.68,22.94,12.81,38.37-2.68,8.45-5.47,16.86-8.2,25.3C240.11,433.32,232.19,457.75,223.83,483.52Z"/></svg>