<svg id="Layer_1" data-name="Layer 1" xmlns="http://www.w3.org/2000/svg" viewBox="0 0 576 576"><defs><style>.cls-1{fill:#2a8bcb;}.cls-2{opacity:0.5;}.cls-3{fill:#1c3457;}.cls-4{fill:#fff;}.cls-5{fill:none;}</style></defs><polygon class="cls-1" points="129.55 434.27 392.15 153.03 485.1 293.31 129.55 434.27"/><g class="cls-2"><polygon class="cls-1" points="102.78 452.14 396.72 137.33 500.76 294.36 102.78 452.14"/></g><polygon class="cls-3" points="465.54 114.92 226.66 430.42 91.51 225.81 465.54 114.92"/><g class="cls-2"><polygon class="cls-3" points="490.84 97 223.45 450.15 72.18 221.13 490.84 97"/></g><path class="cls-4" d="M470.33,298.11c-5.14,0-10.27-.08-15.41,0a2.73,2.73,0,0,1-2.48-1.23q-20.73-27.29-41.53-54.54a3.38,3.38,0,0,0-1.39-1.15V298H390.29V207.87H397c3.31,0,6.62,0,9.92,0a2.43,2.43,0,0,1,2.23,1.11q19.92,26.24,39.87,52.45A5.26,5.26,0,0,0,450.8,263V207.78h19.53Z"/><path class="cls-4" d="M333.9,206.37c17.7.46,32.15,7.21,41.3,22.82,15.29,26.06,2.65,61.9-30.33,69.13-15.56,3.41-30.07.66-42.61-9.56-10.35-8.42-15.61-19.59-16.44-32.88A46.08,46.08,0,0,1,320,208.18,51.51,51.51,0,0,1,333.9,206.37Zm26.92,46.87a22.09,22.09,0,0,0-.9-8.08c-5.77-21.42-30.47-26.52-44.32-13.89-8.22,7.48-10.59,17.07-8.63,27.78a27.32,27.32,0,0,0,31.74,22,27.7,27.7,0,0,0,4.66-1.28C354.1,275.83,360.89,265.53,360.82,253.24Z"/><path class="cls-4" d="M67.33,277.75l3.48-5.57c2.14-3.42,4.33-6.81,6.4-10.28A2.75,2.75,0,0,1,80,260.37q37.59.09,75.19.06h2.29l-12-29.44c-.41.86-.67,1.33-.88,1.88q-4.35,10.57-8.69,21.2c-.32.78-.6,1.32-1.62,1.32-5.72,0-11.43,0-17.15,0a5.47,5.47,0,0,1-.9-.16c.35-.9.66-1.72,1-2.52q9.38-22,18.73-44.08a1.88,1.88,0,0,1,2-1.42c5.14.08,10.28.07,15.42,0a1.79,1.79,0,0,1,1.94,1.33q18.67,44,37.42,88c.17.42.31.87.51,1.42-.51,0-.91.08-1.32.08-6,0-11.86,0-17.78,0a1.74,1.74,0,0,1-1.94-1.32c-2.31-5.78-4.73-11.52-7-17.32a2.16,2.16,0,0,0-2.4-1.59q-36.49,0-73-.1H69.63Z"/><path class="cls-4" d="M167.52,208h82v18c-.62,0-1.23.08-1.84.08H225c-3.09,0-2.89-.53-2.89,2.82v66.56c0,3.16.12,2.64-2.57,2.64H204.43c-2,0-2,0-2-2.09V228.77c0-3.25.17-2.74-2.82-2.75-7.71,0-15.41,0-23.15,0a2.06,2.06,0,0,1-2.27-1.57c-1.93-4.92-4-9.8-5.95-14.69C168,209.26,167.82,208.73,167.52,208Z"/><path class="cls-4" d="M256.76,298V207.87h1.63c5.34,0,10.7.06,16,0,1.5,0,1.84.46,1.83,1.86,0,11.59,0,23.16,0,34.75v51.43c0,2.16,0,2.17-2.1,2.17Z"/><path class="cls-4" d="M124.1,282.87c-1.54,3.83-3,7.55-4.55,11.25C118,298,118,298,113.71,298H98a6.67,6.67,0,0,1,.24-1c1.85-4.39,3.72-8.77,5.57-13.15.3-.72.6-1.2,1.56-1.19,5.92.06,11.85,0,17.77,0A7,7,0,0,1,124.1,282.87Z"/><rect class="cls-5" x="130.65" y="123.46" width="338.92" height="338.92"/><rect class="cls-5" x="125.47" y="149.2" width="338.92" height="340.8"/></svg>