<svg id="Layer_1" data-name="Layer 1" xmlns="http://www.w3.org/2000/svg" viewBox="0 0 576 576"><defs><style>.cls-1{fill:#ffcb41;}.cls-2{fill:#1c3457;}.cls-3{fill:#eaeaea;}.cls-4{fill:none;stroke:#eaeaea;stroke-miterlimit:10;stroke-width:18.99px;}</style></defs><circle class="cls-1" cx="284.92" cy="283.92" r="210.66"/><circle class="cls-2" cx="284.92" cy="283.92" r="196.12"/><path class="cls-3" d="M430.48,282.1v-3.74a9.63,9.63,0,0,0-.05-1.2c-.05-.39,0-.74-.05-1.08s0-.75-.06-1.1,0-.5-.05-.74c0-.62-.08-1.23-.13-1.84a148.62,148.62,0,0,0-42.23-93.49,143.26,143.26,0,0,0-95.15-43.24q-3.86-.21-7.74-.21t-8,.24a143,143,0,0,0-94.89,43.21A148.57,148.57,0,0,0,155.51,216,146.67,146.67,0,0,0,148,233.63,150.58,150.58,0,0,0,139.71,275c-.14,2.23-.21,4.46-.23,6.73v4.06c0,.62,0,1.16,0,1.73,0,1.08.05,2.15.11,3.22a150.46,150.46,0,0,0,7.58,41.19,148.21,148.21,0,0,0,34.94,57A143.19,143.19,0,0,0,277,432.18c2.67.15,5.33.22,8,.22s5.17-.07,7.74-.21A143.17,143.17,0,0,0,387.92,389a148.69,148.69,0,0,0,27.46-39,144.72,144.72,0,0,0,7.21-17.55,150.33,150.33,0,0,0,7.75-41.69c.05-1.07.09-2.14.1-3.21v-3.59C430.44,283.32,430.49,282.71,430.48,282.1ZM405,335.86a132.84,132.84,0,0,1-8.86,17.44,130.92,130.92,0,0,1-83.47,60.44h0a128.09,128.09,0,0,1-20,2.78c-2.55.16-5.14.23-7.73.23s-5.36-.08-8-.25a126.57,126.57,0,0,1-19.66-2.75c-35.37-7.81-65.42-30.27-83.75-60.83a133.47,133.47,0,0,1-18.85-62.18q-.16-3.37-.17-6.79,0-4.51.3-8.92A133.37,133.37,0,0,1,175,212.59a130.67,130.67,0,0,1,87.11-59.41h0a129.35,129.35,0,0,1,14.83-1.79c2.65-.17,5.31-.25,8-.25s5.21.08,7.74.24a128.58,128.58,0,0,1,15.15,1.81h0c36.36,6.58,67.56,28.56,86.84,59.05A133.56,133.56,0,0,1,415,275c.2,3,.29,5.94.29,8.92,0,2.27-.05,4.54-.17,6.79A133.65,133.65,0,0,1,405,335.86Z"/><ellipse class="cls-4" cx="284.93" cy="284.73" rx="83.46" ry="136.73"/><path class="cls-3" d="M422.08,332.55q-8.32,1.77-17.1,3.31l-1.45.26h0c-12.84,2.23-26.34,4-40.35,5.48l-2.37.24c-4.91.5-9.86.93-14.87,1.32-17.19,1.33-35,2.09-53.19,2.23H286c-3,0-5.95,0-8.92-.05h-.18c-18.2-.21-36-1-53.21-2.41q-7.44-.6-14.68-1.35l-2.36-.24c-14.18-1.48-27.83-3.42-40.79-5.72l-1.19-.21q-8.75-1.57-17-3.37l-.57-.13a150.65,150.65,0,0,0,7.15,17.59l1,.2q8.93,1.73,18.23,3.19c13.1,2.08,26.81,3.77,40.95,5.07,20.07,1.85,41,2.93,62.44,3.16,3,0,6,.05,9.08.05h6.69c21.5-.17,42.53-1.18,62.67-3h0c14.08-1.25,27.71-2.89,40.77-4.9q9.39-1.49,18.33-3.13l.95-.18a145.68,145.68,0,0,0,7.21-17.55ZM165.68,230.14c14.07-2.5,29-4.54,44.44-6.11,21.29-2.14,43.75-3.38,66.79-3.64,3,0,6,0,9.08,0h6.69c23.1.19,45.63,1.37,67,3.45,15.42,1.49,30.25,3.49,44.3,6q8.91,1.53,17.32,3.31l.49.1a145.65,145.65,0,0,0-7.59-17.6l-.92-.18q-9.09-1.69-18.63-3.12l-1.62-.25c-11.27-1.67-23-3.07-34.94-4.19l-4.27-.38q-6.69-.59-13.44-1c-15.41-1.07-31.27-1.67-47.39-1.8h-7c-3,0-6,0-9,0h-.07c-16.11.18-32,.84-47.33,1.93q-6.86.49-13.59,1.09l-5,.46h0c-11.58,1.13-22.85,2.52-33.73,4.16l-2.35.36q-9.5,1.49-18.54,3.21l-1,.19a146.67,146.67,0,0,0-7.53,17.65l.59-.13Q156.84,231.71,165.68,230.14Z"/><path class="cls-3" d="M292.66,135.7V432.22c-2.58.14-5.15.21-7.74.2s-5.35-.07-8-.22V135.72q4-.24,8-.23C287.51,135.49,290.08,135.56,292.66,135.7Z"/><path class="cls-3" d="M430.5,284v3.59c0,1.07-.06,2.14-.11,3.2H139.47c-.05-1.06-.09-2.13-.11-3.22,0-.57,0-1.14,0-1.72s0-1.24,0-1.85v-2.22c0-2.23.09-4.46.23-6.73H430.21c0,.36,0,.75.06,1.1s0,.74,0,1.08,0,.8.05,1.2v3.74A8.44,8.44,0,0,1,430.5,284Z"/></svg>