<svg id="Layer_1" data-name="Layer 1" xmlns="http://www.w3.org/2000/svg" viewBox="0 0 576 576"><defs><style>.cls-1{fill:#ffcb41;}.cls-2{fill:#1c3457;}.cls-3{fill:#eaeaea;}</style></defs><circle class="cls-1" cx="284.92" cy="283.39" r="211.42"/><circle class="cls-2" cx="284.92" cy="283.39" r="196.83"/><path class="cls-3" d="M323.46,366.62H304.67c-.06-10.71,1.68-21,6.14-30.39,5.58-11.75,12-23.12,18.36-34.49,6.71-11.93,13.11-23.92,15.25-37.77,4.91-31.68-15.17-59.84-46.89-65.07-20.77-3.43-40,.11-56.15,14.42-15.1,13.43-19.4,31-17,50.42,1.55,13,7.41,24.36,13.87,35.47,7.57,13,16,25.57,21,39.91a84.89,84.89,0,0,1,5.11,27.4H245.58c-.21-2.12-.37-4.34-.66-6.53-1.68-12.73-7.46-23.88-13.75-34.74-7.73-13.37-16.42-26.29-21.36-41-9-26.77-7.51-52.51,9.7-75.86,11.84-16.09,28.63-24.73,48-28.2,23.48-4.2,45.77-.74,65.74,12.94,20.83,14.25,30.14,34.71,31,59.57.65,19.9-6.27,37.48-15.89,54.31-4.52,7.92-9.25,15.73-13.67,23.7C328.47,341.72,323.55,353.19,323.46,366.62Z"/><rect class="cls-3" x="145.35" y="243.02" width="38.85" height="18.77" rx="2.32"/><rect class="cls-3" x="384.82" y="243" width="38.85" height="18.77" rx="2.32"/><rect class="cls-3" x="157.76" y="302.04" width="38.85" height="18.77" rx="2.32" transform="translate(-112.09 100) rotate(-24.2)"/><rect class="cls-3" x="170.11" y="173.27" width="18.77" height="38.85" rx="2.32" transform="translate(-81.54 227.47) rotate(-54.62)"/><rect class="cls-3" x="275.59" y="119.97" width="18.77" height="38.85" rx="2.32"/><rect class="cls-3" x="381.98" y="292.77" width="18.77" height="38.85" rx="2.32" transform="translate(-53.82 541.19) rotate(-65.8)"/><rect class="cls-3" x="372.71" y="179.48" width="38.85" height="18.77" rx="2.32" transform="translate(-36.94 261.92) rotate(-35.38)"/><rect class="cls-3" x="214.75" y="133.7" width="18.77" height="38.85" rx="2.32" transform="translate(-46.53 132.58) rotate(-30)"/><rect class="cls-3" x="325.53" y="144.15" width="38.98" height="18.84" rx="2.33" transform="translate(39.95 376.18) rotate(-60.11)"/><rect class="cls-3" x="249.8" y="376.62" width="69.27" height="13.99" rx="3.64"/><rect class="cls-3" x="252.67" y="399.93" width="64.41" height="13.99" rx="3.64"/><path class="cls-3" d="M312.4,423.2a27.52,27.52,0,0,1-54.13,0Z"/></svg>