<svg id="Layer_1" data-name="Layer 1" xmlns="http://www.w3.org/2000/svg" viewBox="0 0 576 576"><defs><style>.cls-1{fill:#ffcb41;}.cls-2{fill:#1c3457;}.cls-3,.cls-4{fill:none;stroke:#fff;}.cls-3{stroke-miterlimit:10;stroke-width:11.42px;}.cls-4{stroke-miterlimit:10;stroke-width:11.42px;}</style></defs><circle class="cls-1" cx="285.7" cy="284.93" r="210.64"/><circle class="cls-2" cx="285.7" cy="283.45" r="196.1"/><circle class="cls-3" cx="285.28" cy="181.6" r="42.94"/><path class="cls-4" d="M251.15,243.18l70-.32A23.32,23.32,0,0,1,344.58,266v0l.58,128A21.28,21.28,0,0,1,324,415.45l-74.08.34a21.28,21.28,0,0,1-21.37-21.18l-.58-128A23.31,23.31,0,0,1,251.15,243.18Z"/><circle class="cls-3" cx="172.71" cy="214.43" r="27.04"/><path class="cls-4" d="M150.54,257.12l45.42-.21A14,14,0,0,1,210,270.85l.38,82.73a12,12,0,0,1-11.91,12l-49.5.22a12,12,0,0,1-12-11.91l-.37-82.73a14,14,0,0,1,13.93-14.06Z"/><circle class="cls-3" cx="399.03" cy="212.7" r="27.04"/><path class="cls-4" d="M376.85,255.39l45.43-.21a14,14,0,0,1,14.05,13.92l.38,82.75a12,12,0,0,1-11.9,12h0l-49.51.23a12,12,0,0,1-12-11.91l-.38-82.75a14,14,0,0,1,13.94-14.06Z"/></svg>