<svg id="Layer_1" data-name="Layer 1" xmlns="http://www.w3.org/2000/svg" viewBox="0 0 576 576"><defs><style>.cls-1{fill:#ffcb41;}.cls-2{fill:#1c3457;}.cls-3{fill:#fff;stroke:#fff;stroke-miterlimit:10;stroke-width:2.57px;}</style></defs><circle class="cls-1" cx="285.68" cy="283.16" r="211.42"/><circle class="cls-2" cx="285.68" cy="283.16" r="196.83"/><path class="cls-3" d="M194.5,239.22h42.59c6.62,0,10.61-2.92,12.69-9.29q12.78-39.45,25.61-78.9a26.93,26.93,0,0,1,3.55-7.46c3.59-4.92,9.87-4.92,13.48,0A27.16,27.16,0,0,1,296,151q12.85,39.22,25.57,78.49c2.34,7.19,5.9,9.7,13.55,9.7q41.21,0,82.4.05a25.23,25.23,0,0,1,7.83.91c6.16,2,8,8.25,4.08,13.39a23.58,23.58,0,0,1-4.93,4.58q-33.24,24.27-66.58,48.45c-7.21,5.22-8.4,9-5.68,17.36q12.69,38.87,25.2,77.77a26.18,26.18,0,0,1,1.41,6.95c.25,7.07-5.39,11-12,8.4a25.36,25.36,0,0,1-5.5-3.13q-33.81-24.52-67.58-49.1c-5.64-4.11-10.4-4.12-16,0-22.42,16.29-44.8,32.64-67.31,48.8a22.53,22.53,0,0,1-9.25,4c-4.73.75-8.51-2.9-8.52-7.76a26.77,26.77,0,0,1,1.42-8.13q12.57-39.11,25.31-78.16c2.56-7.87,1.28-11.8-5.49-16.73q-33.47-24.33-66.91-48.68a29.12,29.12,0,0,1-3.91-3.36c-2.52-2.65-3.87-5.74-2.52-9.42,1.49-4,4.69-5.78,8.63-6,7.29-.27,14.6-.22,21.89-.26,7.83,0,15.67,0,23.49,0Zm12.83,161.33c2-1.42,3.2-2.24,4.38-3.11q29.29-21.27,58.57-42.52c10.33-7.46,20.5-7.46,30.82,0q19.15,13.89,38.29,27.82c7.94,5.77,15.89,11.51,24.62,17.85-8.09-25-15.85-49.1-23.7-73.09-4.24-13-1.32-22.52,9.76-30.59q29.1-21.2,58.25-42.33c1.08-.79,2.1-1.68,3.91-3.12-26.37,0-51.57-.05-76.77,0-13.43,0-21.73-5.79-25.85-18.48q-9.64-29.62-19.23-59.25c-1.4-4.32-2.87-8.61-4.64-13.9-.83,2.24-1.31,3.41-1.7,4.62q-11.19,34.32-22.31,68.7c-4,12.27-12.42,18.35-25.19,18.33q-36.63-.06-73.25,0c-1.08,0-2.17.16-4.12.3,10.44,7.63,20.2,14.73,29.94,21.81q16.42,11.94,32.83,23.82c9.83,7.12,13.19,17.12,9.56,28.63-2,6.3-4.08,12.58-6.12,18.87C219.48,363.1,213.57,381.33,207.33,400.55Z"/></svg>