<svg id="Stuff" xmlns="http://www.w3.org/2000/svg" viewBox="0 0 675 690"><defs><style>.cls-1{fill:#2a8bcb;}.cls-2{opacity:0.5;}.cls-3{fill:#1c3457;}.cls-4{fill:#fff;}.cls-5{fill:none;}</style></defs><title>ATION</title><polygon class="cls-1" points="108.86 600.5 505.82 175.36 646.32 387.42 108.86 600.5"/><g class="cls-2"><polygon class="cls-1" points="68.39 627.51 512.73 151.63 670 389 68.39 627.51"/></g><polygon class="cls-3" points="616.75 117.76 255.65 594.68 51.36 285.39 616.75 117.76"/><g class="cls-2"><polygon class="cls-3" points="655 90.67 250.81 624.51 22.14 278.31 655 90.67"/></g><path class="cls-4" d="M624,394.67c-7.77,0-15.53-.12-23.3-.06a4.15,4.15,0,0,1-3.75-1.85q-31.34-41.25-62.77-82.45a5.2,5.2,0,0,0-2.1-1.74v85.86H503V258.26h10.21c5,0,10,.07,15,0a3.68,3.68,0,0,1,3.36,1.68q30.11,39.66,60.27,79.28a8.13,8.13,0,0,0,2.63,2.44V258.13H624Z"/><path class="cls-4" d="M417.76,256c26.76.69,48.6,10.9,62.44,34.49,23.11,39.4,4,93.57-45.86,104.5-23.52,5.16-45.45,1-64.41-14.45-15.64-12.73-23.59-29.62-24.84-49.7-2-33,18.48-63,51.73-72.11A77.61,77.61,0,0,1,417.76,256Zm40.69,70.85a33.53,33.53,0,0,0-1.35-12.22c-8.72-32.38-46.07-40.08-67-21-12.43,11.32-16,25.81-13.05,42A41.3,41.3,0,0,0,432.08,367C448.3,361,458.57,345.42,458.45,326.85Z"/><path class="cls-4" d="M14.81,363.89l5.26-8.42c3.23-5.17,6.55-10.29,9.67-15.53a4.16,4.16,0,0,1,4.14-2.31q56.84.12,113.67.08H151L132.8,293.22c-.61,1.3-1,2-1.32,2.83q-6.58,16-13.14,32.05c-.48,1.18-.91,2-2.45,2-8.64-.06-17.28,0-25.92,0a9.24,9.24,0,0,1-1.37-.24c.54-1.36,1-2.61,1.51-3.82q14.16-33.31,28.3-66.63c.63-1.48,1.34-2.17,3.09-2.14,7.77.12,15.54.1,23.31,0a2.7,2.7,0,0,1,2.93,2q28.23,66.53,56.56,133c.27.64.47,1.31.78,2.15-.78.05-1.38.12-2,.12-9,0-17.92,0-26.87.05a2.65,2.65,0,0,1-2.94-2c-3.49-8.74-7.14-17.42-10.58-26.18C162,364.57,161,364,159.06,364q-55.17,0-110.34-.15c-10.14,0-20.29,0-30.43,0Z"/><path class="cls-4" d="M166.26,258.38H290.18v27.18c-.93.05-1.86.12-2.78.13-11.42,0-22.83,0-34.25,0-4.67,0-4.37-.8-4.37,4.26q0,50.31,0,100.61c0,4.78.18,4-3.89,4-7.61,0-15.22,0-22.83,0-3.05,0-3.06,0-3.06-3.16V289.85c0-4.91.25-4.13-4.26-4.15-11.65,0-23.3-.06-35,0-1.92,0-2.74-.62-3.43-2.37-2.91-7.44-6-14.81-9-22.21C167,260.36,166.71,259.56,166.26,258.38Z"/><path class="cls-4" d="M301.15,394.57V258.26h2.47c8.08,0,16.17.09,24.25-.06,2.26,0,2.78.7,2.77,2.82-.07,17.51,0,35,0,52.53v77.74c0,3.27,0,3.28-3.18,3.28H301.15Z"/><path class="cls-4" d="M100.63,371.64c-2.34,5.78-4.6,11.41-6.89,17-2.4,5.91-2.41,5.91-8.82,5.91H61.23a10.73,10.73,0,0,1,.36-1.48c2.8-6.63,5.63-13.25,8.43-19.88.45-1.09.9-1.81,2.35-1.79,8.95.08,17.91,0,26.87.05A11.54,11.54,0,0,1,100.63,371.64Z"/><rect class="cls-5" x="110.53" y="130.67" width="512.32" height="512.32"/><rect class="cls-5" x="102.7" y="169.57" width="512.32" height="515.17"/></svg>