<svg id="Stuff" xmlns="http://www.w3.org/2000/svg" viewBox="0 0 656 656"><defs><style>.cls-1{fill:#ffcb41;}.cls-2{fill:#1c3457;}.cls-3{fill:#eaeaea;}.cls-4{fill:none;stroke:#eaeaea;stroke-miterlimit:10;stroke-width:25.54px;}</style></defs><title>ATION</title><circle class="cls-1" cx="327.67" cy="327.13" r="283.39"/><circle class="cls-2" cx="327.67" cy="327.13" r="263.83"/><path class="cls-3" d="M523.49,324.68l0-2v-.06l0-1.06c0-.56,0-1.11,0-1.66,0-.08,0-.16,0-.25,0-.53,0-1.08-.07-1.61s0-1-.06-1.46,0-1-.08-1.47,0-.68-.07-1c-.05-.83-.11-1.65-.18-2.47a201.92,201.92,0,0,0-11.11-52.84,199.56,199.56,0,0,0-45.7-72.93c-34.52-35.19-79.65-55.61-128-58.17q-5.19-.28-10.41-.28-5.4,0-10.77.31c-48.23,2.63-93.22,23-127.65,58.14a200,200,0,0,0-35.81,49.86,197.24,197.24,0,0,0-10.13,23.75,202.7,202.7,0,0,0-11.13,55.64c-.18,3-.28,6-.31,9.05,0,.49,0,1,0,1.47,0,.25,0,.5,0,.75v.76c0,.83,0,1.66,0,2.49s0,1.55.05,2.32c0,1.46.07,2.9.14,4.33a202.85,202.85,0,0,0,10.2,55.42,199.41,199.41,0,0,0,47,76.73c34.43,35.08,79.42,55.5,127.65,58.14q5.37.3,10.77.3,5.22,0,10.41-.28c48.37-2.55,93.5-23,128-58.16A200.19,200.19,0,0,0,503.18,416a196.41,196.41,0,0,0,9.7-23.61,202.75,202.75,0,0,0,10.42-56.09c.07-1.43.12-2.87.14-4.31,0-.77,0-1.55,0-2.34s0-1.66,0-2.49S523.5,325.51,523.49,324.68ZM489.17,397a178.74,178.74,0,0,1-11.92,23.46c-24.63,40.82-64.92,70.84-112.29,81.31,0,0,0,0,0,0a169.93,169.93,0,0,1-26.87,3.74c-3.44.22-6.92.32-10.41.32s-7.2-.11-10.77-.34a172.24,172.24,0,0,1-26.45-3.7c-47.58-10.51-88-40.73-112.67-81.83a179.57,179.57,0,0,1-25.35-83.65q-.23-4.54-.23-9.14,0-6.07.4-12a179.46,179.46,0,0,1,27.14-84c25.92-41.28,68-71,117.18-79.92h0a174.45,174.45,0,0,1,19.95-2.4c3.57-.23,7.15-.34,10.77-.34s7,.11,10.41.32a170.81,170.81,0,0,1,20.38,2.44h0c48.91,8.85,90.88,38.41,116.82,79.43a179.62,179.62,0,0,1,27.44,84.44q.4,6,.4,12c0,3.06-.07,6.11-.23,9.14A180,180,0,0,1,489.17,397Z"/><ellipse class="cls-4" cx="327.69" cy="328.22" rx="112.28" ry="183.94"/><path class="cls-3" d="M512.19,392.55q-11.21,2.38-23,4.46l-1.95.34h0c-17.28,3-35.44,5.44-54.29,7.38l-3.19.32q-9.9,1-20,1.77c-23.12,1.8-47.1,2.82-71.56,3h-.06c-3,0-6,0-9,0q-6,0-12-.06h-.25c-24.48-.28-48.46-1.37-71.58-3.24q-10-.81-19.75-1.82l-3.17-.32c-19.08-2-37.44-4.6-54.87-7.7l-1.6-.28q-11.76-2.11-22.93-4.54l-.76-.17a199,199,0,0,0,9.62,23.66l1.4.28q12,2.31,24.52,4.29c17.62,2.79,36.06,5.07,55.09,6.82,27,2.49,55.19,3.94,84,4.25q6.08.06,12.21.07,4.5,0,9,0c28.92-.23,57.21-1.59,84.31-4h0c18.94-1.68,37.28-3.89,54.85-6.59q12.62-2,24.66-4.21l1.27-.24a196.41,196.41,0,0,0,9.7-23.61ZM167.26,254.78c18.93-3.36,39-6.11,59.78-8.21,28.65-2.89,58.86-4.55,89.86-4.9q6.09-.06,12.21-.07,4.5,0,9,0c31.08.26,61.38,1.84,90.16,4.64,20.75,2,40.7,4.7,59.59,8q12,2.07,23.31,4.46l.66.13a199,199,0,0,0-10.21-23.68l-1.24-.23q-12.24-2.28-25.06-4.21l-2.19-.33c-15.16-2.24-30.88-4.13-47-5.63l-5.74-.52q-9-.78-18.08-1.4c-20.73-1.43-42.07-2.24-63.76-2.42h-.4c-3,0-6,0-9,0-4.05,0-8.1,0-12.12.06h-.09c-21.67.24-43,1.12-63.68,2.59q-9.22.66-18.28,1.47l-6.65.62h0c-15.58,1.52-30.74,3.39-45.38,5.6l-3.16.48q-12.77,2-24.94,4.31l-1.36.26a197.24,197.24,0,0,0-10.13,23.75l.79-.18Q155.37,256.89,167.26,254.78Z"/><path class="cls-3" d="M338.08,127.73v398.9q-5.19.29-10.41.28-5.4,0-10.77-.3V127.76q5.37-.32,10.77-.31Q332.89,127.45,338.08,127.73Z"/><path class="cls-3" d="M523.51,327.18c0,.83,0,1.66,0,2.49s0,1.57,0,2.34c0,1.44-.07,2.88-.14,4.31H132c-.07-1.43-.12-2.87-.14-4.33,0-.77,0-1.54-.05-2.32s0-1.66,0-2.49v-.76c0-.25,0-.5,0-.75,0-.49,0-1,0-1.47,0-3,.13-6,.31-9.05h391c0,.48.06,1,.08,1.47s0,1,.06,1.46.06,1.08.07,1.61c0,.09,0,.17,0,.25,0,.55,0,1.1,0,1.66l0,1.06v.06c0,.65,0,1.31,0,2C523.5,325.51,523.51,326.34,523.51,327.18Z"/></svg>