<svg id="Stuff" xmlns="http://www.w3.org/2000/svg" viewBox="0 0 656 656"><defs><style>.cls-1{fill:#ffcb41;}.cls-2{fill:#1c3457;}.cls-3{fill:none;stroke:#fff;stroke-miterlimit:10;stroke-width:15.37px;}</style></defs><title>ATION</title><circle class="cls-1" cx="326.39" cy="329.1" r="283.39"/><circle class="cls-2" cx="326.39" cy="327.1" r="263.83"/><circle class="cls-3" cx="325.83" cy="190.08" r="57.77"/><path class="cls-3" d="M280.45,272.7h94.14A31.36,31.36,0,0,1,406,304.06V476.29a28.62,28.62,0,0,1-28.62,28.62H277.71a28.62,28.62,0,0,1-28.62-28.62V304.06A31.36,31.36,0,0,1,280.45,272.7Z" transform="translate(-1.77 1.5) rotate(-0.26)"/><circle class="cls-3" cx="174.38" cy="234.25" r="36.38"/><path class="cls-3" d="M144.89,291.54H206a18.83,18.83,0,0,1,18.83,18.83V421.68a16.09,16.09,0,0,1-16.09,16.09h-66.6a16.09,16.09,0,0,1-16.09-16.09V310.37a18.83,18.83,0,0,1,18.83-18.83Z" transform="translate(-1.66 0.8) rotate(-0.26)"/><circle class="cls-3" cx="478.87" cy="231.92" r="36.38"/><path class="cls-3" d="M449.36,289.19h61.12A18.83,18.83,0,0,1,529.31,308V419.33a16.09,16.09,0,0,1-16.09,16.09h-66.6a16.09,16.09,0,0,1-16.09-16.09V308a18.83,18.83,0,0,1,18.83-18.83Z" transform="translate(-1.65 2.2) rotate(-0.26)"/></svg>