<svg id="Layer_1" data-name="Layer 1" xmlns="http://www.w3.org/2000/svg" viewBox="0 0 576 576"><defs><style>.cls-1{fill:#ffa951;}.cls-2{fill:#ff975e;}.cls-3{fill:#ff7f54;}.cls-4{fill:#fa6d6f;}.cls-5{fill:#f95c5c;}.cls-6{fill:#e54b4b;}.cls-7{stroke:#000;stroke-miterlimit:10;stroke-width:1.51px;}.cls-8{fill:#fff;}</style></defs><g id="Layer_3" data-name="Layer 3"><path class="cls-1" d="M410.49,136.8H165.89a193.39,193.39,0,0,1,244.6,0Z"/><path class="cls-2" d="M424.26,149.19H152.12a193.83,193.83,0,0,0-35.53,48.18h343.2A194.08,194.08,0,0,0,424.26,149.19Zm-271.65,1.17,1.76-.5c-.39.92-.87,1.42-1.76.51Z"/><path class="cls-3" d="M481.57,286.6a194.12,194.12,0,0,1-1.44,23.62H96.24a196.14,196.14,0,0,1-1.43-23.62,192.59,192.59,0,0,1,13.25-70.42H468.34A192.78,192.78,0,0,1,481.57,286.6Z"/><path class="cls-4" d="M478.13,323.07a192.27,192.27,0,0,1-10.5,35.79H108.77a191.54,191.54,0,0,1-10.51-35.79Z"/><path class="cls-5" d="M458.81,377.67a193.84,193.84,0,0,1-36,47.71H153.52a194,194,0,0,1-36-47.71Z"/><path class="cls-6" d="M408.21,438.23a193.38,193.38,0,0,1-240,0Z"/><path d="M369.44,336.57Zm5.13,3.19Zm1.84,8.07Zm26.18-43.71-.22.44.32-.31ZM427.64,296Zm-53.07,43.77Zm0,0Z"/><path d="M409.53,285.09c1,.1,2.07.13,3.1.32,4.08.72,8.66,3.37,9.82,9.13.05.26.12.52.21.87l1-.58a14.52,14.52,0,0,1,4.48-1.75,12.21,12.21,0,0,1,10,2.33,18.07,18.07,0,0,1,7,11.09,8.13,8.13,0,0,1-.1,3.86,5,5,0,0,1-.26-.64c-1.59-5.6-5.48-8.79-10.93-10.24a15,15,0,0,0-3.42-.24c-4.82-.19-8.54,1.86-11.43,5.61a4.12,4.12,0,0,1-.28.31c.44-6.22-1.83-11-7.07-14.12s-10.51-2.92-15.76,0c.12-.14.23-.29.36-.43a17.88,17.88,0,0,1,9.67-5.25,24.53,24.53,0,0,1,2.56-.21,5,5,0,0,0,.54-.06Z"/><path d="M352,355.78c.11-.94.17-1.89.33-2.82.81-4.72,4.89-11.85,12.41-13.58a10.49,10.49,0,0,1,9.33,1.86c.29.23.62.41,1,.66.11-.31.2-.54.28-.77a12.79,12.79,0,0,1,13.87-9.37,18.4,18.4,0,0,1,10.2,3.87A7.87,7.87,0,0,1,402,338.7c-5.17-3.5-10.51-3.95-15.91-.91s-7.94,7.72-7.59,14c-.1-.13-.22-.25-.31-.38-5.69-7.94-17.06-7.54-23-.9a13.82,13.82,0,0,0-2.87,5.16,8.16,8.16,0,0,1-.34.84Z"/><path d="M410.51,339.92c-3.08-10.56-10.19-16.79-20.83-18.6S370.3,323.18,364,332.11l-.1-.08c.11-.35.21-.7.33-1a29.52,29.52,0,0,1,10.11-13.5A30.23,30.23,0,0,1,388,311.43c4.74-.73,9.44-.55,13.89,1.61a19.64,19.64,0,0,1,8,7.3c.29.46.58.91.86,1.37h.05c.74-.92,1.44-1.87,2.23-2.73a25.68,25.68,0,0,1,6.93-5.73A21.33,21.33,0,0,1,433,311c9.25,1.25,18.67,7.83,22.8,16.06a38.66,38.66,0,0,1,1.65,4.63,3.4,3.4,0,0,1,.08.63l-.13.09c-.19-.25-.39-.49-.58-.76a25.29,25.29,0,0,0-5.25-5.63,24.25,24.25,0,0,0-13.43-5.08,26.94,26.94,0,0,0-13,2.1c-7.16,3.19-12,8.4-14.24,16q-.13.42-.27.81Z"/><path d="M416.07,216.68a10.75,10.75,0,0,0-3.95-6.58c-1.9-1.55-4-2.88-6.35-4.58,4.14.3,7.11,2.24,10.13,4.2a21.85,21.85,0,0,0-8.28-8.85c-3.53-2.15-7.27-4-11-6,4.94-.07,9.34,1.65,13.68,3.62-5.12-5.93-12.3-7.68-19.93-9.43,3.88-2.1,7.58-1.09,11.33-.88-2.68-1.57-12.15-3.27-17.56-3.26a53.7,53.7,0,0,0-17.51,3.22c1.94-2.34,4.71-3,7.43-3.84-.06-.17-.1-.35-.16-.52L358.47,188l-3.8-3.5,8,.45-2.46-3.08,4.82,1.56.25-.28L361,179.57c1.66-.58,1.66-.58,8.51,2.76l.42-.37-5.3-6c2.8-.58,5.49.08,8.4,1.61-1.62-3.19-3.76-5.13-7-5.9,2.44-1.75,3.93-1.54,7.55,1.32a19.53,19.53,0,0,0,.14-3.24,21.55,21.55,0,0,0-.85-3.15c2.46,1.26,2.92,2.34,3.26,6.77,2.46-1.91,3.69-5.63,3.66-11.26,2.19,1.92,2.53,4.41,3.11,7.07a16.39,16.39,0,0,0,.67-3,20.39,20.39,0,0,0-.41-3.38,16.47,16.47,0,0,1,8.49,4.31c-.74-3-3.09-4.41-5.6-6l8.38-.79.07-.26-7.3-2,12.18-5.53c-5,.28-9.28,1.85-13.79,3.25l4.35-4.56c-3.4-.2-6,1.81-9.13,3.15,1.75-3.57,5-5,7.46-7.24a31.79,31.79,0,0,0-10,5.09c-3,2.23-5.88,4.67-9.07,6.85,2.53-3.33,5.06-6.66,7.74-10.17-.89.54-1.71,1-2.46,1.51-9.34,6.48-17.2,14.52-24.84,22.85a15.6,15.6,0,0,1-1.66,1.36v0h0a1.67,1.67,0,0,1-.22.78q-1.59,2-3.27,3.84a118.83,118.83,0,0,1-8.49,8.75c.27-.58.49-1.16.81-1.7,1.89-3.15,3.74-6.32,5.77-9.37a5.48,5.48,0,0,1,2.47-1.43,26.46,26.46,0,0,1,2.92-.86v0c-.73-.28-1.46-.58-2.19-.85a12,12,0,0,1-1.08-.66l7.19-3.29c-2.34-.58-4.67-.5-6.11-2.68,2.57-2.11,5.61-2.4,9.09-2.51l-5.73-4.26c0-.22.07-.44.11-.66l9.88-1.25-3.5-2.12,5.72-1-4.08-3.08c.05-.17.11-.34.17-.52l9.24-1c-3.32-1.71-6.42-3.28-9.5-4.86l.21-.36,10-1.47-3-2.27.15-.59,5.9-.74-2.81-2.4a3.44,3.44,0,0,1,.05-.45h7l.09-.65-7.4-2.63V134l10.62-.65c-1.21-1.23-1.6-1.35-8.3-2.69l16-7.72c-4.88.17-9.68.58-14.34,2.58.42-.73.84-1.45,1.41-2.41A37.62,37.62,0,0,0,361,129.57l3.13-4.67c-6,3-9.44,8.48-13.18,13.82.71-2.6,1.41-5.21,2.12-7.82l-.26-.22c-1.23,2-2.8,3.82-3.64,6-1.45,3.68-2.44,7.58-3.65,11.34a36.22,36.22,0,0,1-1.45,4c-3,6.55-6.11,13.07-9.17,19.6a1.37,1.37,0,0,1-.67.75c.18-1.75.32-3.5.52-5.22,1.69-15.3-.45-29.89-7.75-43.62-2.64-4.94-5.5-9.58-10.68-12.25h-.37c.41.69.78,1.4,1.24,2a33.84,33.84,0,0,1,5.93,12.09c-6.35-6.85-13.08-11.59-22.56-9.59,1.43.58,2.95.89,4.4,1.38s2.79,1.17,4.18,1.75c-9-1.84-20.79-.07-23.29,1.59,4.16.26,8.34.33,12.28,2.51l-8.52.73a48.87,48.87,0,0,1,17.23,6h-6.85l11.8,6.15-6.84,1.35a3.33,3.33,0,0,0,.07.54,16,16,0,0,1,10.84,4.93c-3.93-1.17-7.39-1.49-10.8-.05,6.74,1.06,13.24,2.65,18.59,7.22-6.69-1.51-13.36-2.78-20.27-1.41,6.07,1.68,12.15,3.29,17.14,7.83-5.4,0-10.51,0-15.57,0a1.71,1.71,0,0,1-1.16-.65c-2.46-3.44-4.94-6.87-7.26-10.4-1.49-2.28-2.63-4.81-4.15-7.07a41.35,41.35,0,0,0-3.73-4.23l-.34.26c.58,2.75,1.17,5.51,1.75,8.26l-.63.15-7.84-9.69-.29.23,2.33,5.8c-3.83-3.23-7.81-5.56-12.78-5.68,3.32,2.33,6.9,4.35,9.07,8.61-6.46-2.6-12.3-6.28-19-3.71l8.59,4.36-.18.59a34,34,0,0,0-16.28-.66L264.45,146c-5.8.52-11.21,1.42-15.57,5.48A30.24,30.24,0,0,1,261,150.23c-3.35,1.72-6.32,3.22-8,6.24l5.1.63.26.78-4.79,5.68.21.41,13-7.67.25.12-5.53,8.17c.05.12.12.23.18.35l6.92-4.14L267.11,166a59.08,59.08,0,0,1,5.9-4,69.35,69.35,0,0,1,7.11-2.86l-1.82,4c2.3-1.75,4-3.75,6.92-3.26-.49,3.46-2.73,5.75-5.16,8.26l10.51-2.84.22.45-5.64,5.25,5.13-1.48.15.31-2.75,2.61,8.17.55-2.49,2.79a50.92,50.92,0,0,0,5.68,1.64c3.17.54,3.22.49,1.53,3.42-.27.46-.58.89-.74,1.11-4.95-2.67-9.62-5.58-14.59-7.78a117.77,117.77,0,0,0-15.3-5.31,49.69,49.69,0,0,0-16.1-1.75A27.08,27.08,0,0,1,265.51,173c-3.76-1.31-7.47-1.75-11.59.21,4.35.44,8.36.5,11.92,3-8.65.68-12.4,2.14-13.57,5.16l7.08-2.18-4.22,4.56.39.47a17.84,17.84,0,0,1,10.06-2.57c-1.55,1-2.95,1.83-4.19,2.82s-2.33,2.22-3.45,3.33c5.64-2.4,8.91-3.16,11-2.24-1.05.86-2.08,1.75-3.19,2.56a3.11,3.11,0,0,1-1.49.58c-3.46.38-6.94.66-10.4,1.05-10.43,1.17-20.27,3.83-28.32,11.18-1.67,1.52-3.84,2.49-5.79,3.72l-1.32.78c5.45-.47,9.54-3.28,13.92-5.25l.3.47-20,18.79a26.1,26.1,0,0,0,10.57-5.76c3.83-3.18,7.53-6.52,11.3-9.78.58-.52,1.27-1,1.91-1.46l.61.59-10.39,14.59.29.32,10.35-9.84.35.18c-.92,2-1.86,4.08-2.86,6.27,5.22-3.16,8-8.24,11-13.19-.24,5.34-2.19,10-4.84,14.55a60.09,60.09,0,0,0,5.75-7.45c1.75-2.67,3.19-5.5,4.77-8.25l.9.44-5,12.9.25.24L256,203.64c-.75,2.09-1.41,3.89-2.05,5.68l.59.48,5.74-5.45.8-1.53.34.44-1.14,1c-.47.9-.94,1.81-1.37,2.73-.67,1.44-1.24,2.92-1.85,4.39,3.46-3.77,7-7.18,11.74-9.68-1.3,2.81-2.45,5.32-3.63,7.82a1.09,1.09,0,0,1-.58.45l-14.79,6.64-1,.46c0,.1.06.21.08.31h4.8C235,229.76,223.91,256.42,226,267c1-5.34,1.47-10.5,5.11-14.59.23,1.75.43,3.33.63,4.91h.47c1.07-4.42,2.38-8.75,5.68-12.11l-.54,4.95c1.29-2.44,2.3-4.89,3.46-7.26.52-1.08,1.35-2,2.55-1.1l4-10.34.26.17c.1,1.72.19,3.44.28,5.11l6.86-11.08c.58,2.72,1,4.91,1.58,7.07a2,2,0,0,1-1.17,2.65,20.87,20.87,0,0,0-6.88,5.53l7.17-2.78a47.47,47.47,0,0,1-4.61,4.5,43.55,43.55,0,0,0-4.42,4.79,55.17,55.17,0,0,0-3.18,5.17l.58.43c.65-.76,1.25-1.56,2-2.25a26.18,26.18,0,0,1,2.13-1.64,36.31,36.31,0,0,0-5,12l2.13-1.44c-1.57,4.82-1.42,9.58-1,14.37a102.43,102.43,0,0,1,6-16.34c.87,2.74,1.75,5.38,2.58,8l.42-.17V254.62L256.4,262l.31-.16-.42-7.1,1-.58c.58,1,1.16,1.95,1.75,2.92l.55-.33V251.2l.45-.14,2.39,2.74c.19-3.65.36-6.87.52-10.1l.35-.22c1.75,2.91,3.54,5.79,5.61,9.18V243.1l.5-.22,3.34,3.85c.12-2.08.21-3.82.33-6l2.19,3.12.58-.16v-9.5l.58-.17,4.61,5.22c-.23-3.48-.26-6.54,1.51-9.24l.7-.2c.89,1.88,1.75,3.75,2.61,5.53.72-2.19,1.47-4.47,2.39-7.29.79,1.43,1.25,2.29,1.93,3.5a26.43,26.43,0,0,1,.38-3.19c.24-.92.45-2.12,1.1-2.64,4-3.11,8-6.08,12.09-9.07a14.39,14.39,0,0,1,1.87-1l.37.38a13.82,13.82,0,0,1-1.08,1.72c-8.2,9.62-16.34,19.26-24.66,28.81-3.51,4-7.26,7.86-11.09,11.6-4.09,4-8.42,7.83-12.84,11.88l9.92-2.75c.14.2.29.38.42.59l-8.32,10.67.4.49c3.29-2.38,6.56-4.76,9.73-7.07-2.28,5.3-4.25,10.89-2.86,17,1.6-6.36,3.35-12.67,6.31-18.62,0,2.53-.1,4.94,0,7.34.18,3.56.84,5.58,1.75,6.59.24-2.87.49-6,.74-9.07H275q1.44,4.8,2.89,9.58c1-3.95.26-7.87-.11-11.79a42.6,42.6,0,0,1,2.53,5,3.77,3.77,0,0,1,.17,2.5c-9.8,24.85-18.19,50.19-25.71,75.78-.33,1.17-.7,2.27-1.06,3.4l-.53.11-10.45-18.73.42-.26c2.82,2.64,5.3,5.71,9.07,7.14-5.66-5.58-8.51-13.86-16.68-16.92,1.1-4.73-.33-8.56-3.5-12.29,3.58.65,5.83,2.68,8.11,4.67l.39-.36-4.23-6.17.09-.32,7.3,4.35c-.64-1.36-1.29-2.71-2.12-4.48l5.25,3.5a7.79,7.79,0,0,0-3.89-4.76c-1.75-1-3.67-1.8-5.52-2.68l.07-.59,9.34.71c-2.34-2-5.2-2.57-8.29-2.57v-.65l9.59-1.54c-9.86-2.92-19.84-2.92-29.84-.94A100.76,100.76,0,0,0,190,317.47c2.79-2.64,5.18-5.76,9.34-6.42-.21-1-.4-1.86-.58-2.82l3.35.47-1.47-4,7.14-1.17c-.58-.81-1.09-1.5-1.81-2.49h6.52L210.79,299a3.11,3.11,0,0,0,.23-.28l3.7,1.3-4.29-4.61.25-.36,8.29,2.89c-1.9-2.33-3.5-4.27-3.63-6.88l.49-.54,4.66,2.86c-.29-.85-.61-1.75-1.05-3.07,3.44,2.74,8,2.92,9.92,7.05l.37-.32c-.29-1.43-.58-2.87-.87-4.19l5.21,3.58.21-.29-3.78-6.71.29-.08,9.83,6.79.18-.35-3.41-4.86.33-.55,3.92-.27c.13-.13.24-.26.37-.4l-5.61-5.09v-.39l9.24,2c-3.41-3.46-7.85-4.54-12.6-5.28l9.55-2.18a25.91,25.91,0,0,0-13.14-.49c0-.15-.1-.29-.14-.44l7.17-3.1c-5.48-2.38-10.37.21-15.7,1.89,2-3.27,5-4.67,7.75-6.42-4.09-.28-7.32,1.57-10.56,3.75q1-2.2,2.13-4.41l-.26-.21L213,276.63l-.5-.25,1.9-6.51-.58-.38c-1.76,2.16-3.51,4.26-5.19,6.46-1.83,2.43-3.28,5.2-5.35,7.4a102,102,0,0,0-14.31,20.23c-2,3.5-3.75,7.09-5.73,10.88-1.31-6.42-.38-12,4-16.56l-3.5-1.83c.83-1.17,1.65-2.33,2.5-3.44a2.26,2.26,0,0,1,.59-.42l3.31-2.06c0-.15-.07-.29-.11-.43l-6.36-.36c2.24-2.92,5.6-3.27,8.69-4.16,0-.16-.05-.33-.06-.5H182.4c4.72-3.11,10.08-4,15.42-4.89l-.07-.65H182.17c4-3.65,8.81-5.05,13.65-6.54-5.4-1-10.63.07-15.89,1.12,4.19-3.66,9.34-4.86,14.59-5.78a2.72,2.72,0,0,0-.08-.51h-8.33a31.72,31.72,0,0,1,4-2.43,35.78,35.78,0,0,1,4.52-1.29l.09-.29-5.51-1.13,9.34-5-.07-.28-5.31.28a42.81,42.81,0,0,1,13.65-5.11l-6.81-.53a14.89,14.89,0,0,1,2.34-.95c2.55-.51,5.11-.95,7.49-1.39-3.33-1.53-9.23-1.75-18.68-1.06l6.74-2.41-.05-.5a51.62,51.62,0,0,0-6,.41c-5,.88-8.46,4.23-12.09,8,1-4.47,3.22-7.84,5.39-11.25-7.68,4.08-9.24,12.22-12.81,19.38-.67-2.52-1.6-4.76-1.8-7.06-.26-2.92.15-5.84.17-8.75,0-5.62,0-11.23,0-16.85l-.24,0-.59,12.69h-.25c-.28-2-.55-4-.82-6.06h-.26v12.43c-.59-2.45-1-4.37-1.46-6.3l-.39.08q.34,4.16.71,8.31l-.26,0L165.66,247c.2,2,.34,3.46.49,4.93l-.59.08-4.3-14.59-.31.06c.28,2.13.58,4.26.89,6.65l-4.17-11.56-.46.17q.69,3,1.37,6.06A54.5,54.5,0,0,1,156,233c-.78-1.83-1.75-3.59-2.66-5.39l-.45.22.35.83q5.55,13.74,11.09,27.51a6.85,6.85,0,0,1,.54,2.89,63.93,63.93,0,0,0,.69,13.82,13.89,13.89,0,0,1,0,2c-6.29-10.41-7.51-22.53-10.65-34.07l-.59.13,2.76,12.6-.15.07c-.81-1.86-1.61-3.71-2.41-5.57l-.52.16c1.17,4,2.38,8.07,3.6,12.22-1.12-2.18-2.18-4.27-3.24-6.36l-.41.19c.46,1.27.92,2.54,1.53,4.2l-6.42-5.33c1.3,2.34,3.41,4.09,3.9,7.23-5-4-9.62-7.86-16-8.2,3.46,1.8,6.68,3.86,9,7.06-5.95-3.1-11.82-6.34-18.9-5.16,2.56,1.11,5.28,1.93,7.43,4.38-9.44-2.28-9.44-2.28-11.27-1.26l6.42,2c-3.87,1.17-5.15,1.82-6.1,3.51,3.07-.59,6-.55,8.63,1-1.69.55-3.5.79-4.89,1.66s-2.39,2.39-3.64,3.7l-6.49-3.8-.25.39,5.25,4.09-11.25-5.88-.24.47,4.85,3.26-.11.16-11.71-4.92-.23.59c2,.86,4,1.68,6,2.58s3.91,1.92,5.89,2.83,4,1.72,6,2.61,4,2,6.11,2.78c1.82.68,3.14,2.16,5.1,2.73s3.8,2,5.91,3.11l-3,.81c2.64,1.13,5.35,1.55,6.92,4.27-4.53-.45-8.94-1.32-12.34,2.13l5.74,1.11a26.47,26.47,0,0,0-10.22,4.24l7.76-.36c-2.22,1.45-4.17,2.55-5.91,3.92a2.38,2.38,0,0,1-2.62.38c-2.59-.84-5.25-1.42-7.9-2.09,0,.17-.09.35-.14.52l5.45,2.82c-5.28-.59-10.42-1.46-15.88.58l4.84.64-9.83,3.18.14.53,1.46.38-8.85,6.85.3.36,13.1-5.44L104,311.16l.62.44,5.64-6.18.33.33-2.2,5.83.26.09,4.18-4.45c.07,1.41.11,2.29.16,3.3l4-3.41c-.09,1.5-.15,2.34-.23,3.6l6.15-5.14.38.08-2.07,8.26,6-5.4c-.13,1.88-.22,3.13-.33,4.67,1.29-1.05,2.34-1.92,3.73-3-.26,1.35-.41,2.21-.62,3.32l6-5.28.48.26c-.14,1.81-.26,3.61-.4,5.48,4.72-3.7,4.72-3.7,6.86-3.67-.58,1.63-1.09,3.13-1.64,4.7l5.59-2.34-.94,2.72h0c3.4-3,7.16-1.53,10.85-.87a12.78,12.78,0,0,1,3.94,1.26H146.74c-.2,0-.41-.24-.62-.38l0,0v0a9,9,0,0,1-1.53.38c-6.89.51-13.79.87-20.66,1.52-2.92.28-5.84,1.12-8.76,1.69a2.67,2.67,0,0,1,.11.34l9.78.82c-10.64,1.94-15.14,3.2-17.79,5.37,2.79-.45,5.36-1.64,8.23-.89l-6.74,3.59.25.36h4.86L105,334.28l.28.45,9.25-4.09-2.42,5.05.26.14,5-4.57c-.72,2.7-1.09,4.8,0,6.75q.91-3.67,1.81-7.31l4.23,3.38.34-.44c-2.28-2.52-2.71-3.42-2.43-5.2a11.78,11.78,0,0,0,9,3.82c-2.22-1.6-3.45-3.23-2.92-5.65l3.57,4c.38-4.19,1-5.09,3.14-5.36-1,3.18-1,4.67.07,6.64,1.75-4,2.09-4.42,3.83-5.22a12.45,12.45,0,0,0,.06,3.57c.51,1.61-.2,2.16-1.44,2.83-4.79,2.59-9.52,5.26-14.28,7.95.58,0,1.16-.09,1.75-.11s1.17,0,1.6,0c-11.9,11.27-19.66,24.51-19.53,41.44.9-3.82.78-8,3.5-11.39.33,1.36.62,2.52.9,3.68,1-3.61,1.75-7.16,4.23-10.51v4.63c1.45-2.82.83-6.42,4.47-7.79.74-2.47,1.57-5.22,2.39-8l.33.1c.18,1.28.35,2.55.53,3.85,1.65-3.13,3.23-6.11,4.94-9.34.83,2.8,1.52,5.15,2.13,7.19,1.13-2.29,2.19-4.73,3.54-7,.46-.77,1.64-1.09,2.5-1.62a11.3,11.3,0,0,1,1.42,2.64,23,23,0,0,1,.24,3.89l.49.1,2.26-5.06c.38,1.16.71,2.18,1.2,3.66.41-2,.72-3.41,1.11-5.3.72,1.39,1.17,2.28,1.72,3.36l2-6.61,2,2.44c1.25-1.69,2.23-3.55,3.71-4.87a27,27,0,0,1,4.81-2.92c-5,6.42-10.27,12.94-15.29,19.66a59.37,59.37,0,0,1-6.92,8,50.33,50.33,0,0,0-5.42,6.61,14.88,14.88,0,0,0-1.34,3c1.75-1.66,3.2-3,4.67-4.41-2.27,4.73-4.75,9.28-4.81,15.17l2.17-4.27V391.6l1.05-1.35c1.09,3.6,2.18,7.24,3.29,10.88l.26-.12V387.17l4.17,4.86c.09-.1.19-.2.28-.31l-3.34-7.8.48-.27q2.07,2.34,4.16,4.67l.41-.35L138,382.4l3.14,1.21c-.62-1.68-1.17-3.1-1.67-4.51l.4-.28,2.61,1.2c-.93-2.76-1.72-5.13-2.51-7.5l.27-.34,6.63,4.91c-1-2.57-1.8-4.83-2.63-7.08l.39-.25,3.55,1.81L146.64,367l2.8,1.82-2.76-7.66.51-.28,4.95,2.51c-1.12-2.61-2.18-4.86-1.48-8.12l4,3.64c-.08-1.85-.17-3.76-.28-6.11l2.37,1.91a18.51,18.51,0,0,1-.49-2.18c-.09-.9-.38-2,0-2.68,1.78-3.27,3.74-6.44,5.7-9.62a26.06,26.06,0,0,1,1.95-2.49c-3,8.4-5.94,16.71-9.5,24.77s-7.69,15.81-11.44,23.44l6.28-4.25.49.35-3.5,10.13.5.28,5.48-7.66c-.3,4.83-.37,9.49,2.11,13.84v-16c1.48,3.62,2.15,7.49,5.18,10.36-.59-2.52-1.17-4.88-1.72-7.23l.48-.19,4.54,6.31.51-.28-3.19-8.06,5.35,4.47.21-.32-5.08-7.11.3-.2,4.77,3.53.14-.27-4.41-6.33.54-.43,6.23,5.84.46-.27-5.48-9.81,3.81,2.66-2-4.84.25-.2,4.08,3.66.34-.15-4.32-10.67.5-.27,3.05,2.82.3-.17-2-6.13,2.13,1.33c-1.07-3.47-2-6.46-3.06-9.89l4.09,3.61v0h0c-.89-2.8-1.83-5.6-2.63-8.42a5.07,5.07,0,0,1,.21-2.86l2,3.58a37.18,37.18,0,0,1,2.23-13l.64,0a11.37,11.37,0,0,1,0,1.43q-1,8.59-2,17.2c-.08.66-.28,1.3-.41,2v.07h0a16.8,16.8,0,0,1,.35,2.33A94.92,94.92,0,0,0,175,384.47c1.28,3.87,2.87,7.64,4.31,11.46l.49-.15c-.74-3.44-1.47-6.88-.79-10.42a19.21,19.21,0,0,0,4.94,9.39c-.8-2.12-1.53-3.77-2-5.48s-.75-3.4-1.11-5.11c1.56,1.93,2.72,4,4.09,5.87a11.47,11.47,0,0,0,5.64,4.5l-4.67-5.83,4.72,2.24L184.74,383l.31-.15,6.42,4.43.35-.45a26.16,26.16,0,0,1-6.3-8.62c6.17,4.16,9.24,5,12,3.4-5.3-1.72-8.81-5.37-11.51-10.19l4.82.65-6.42-7.42.39-.41,2.22.8-3.51-4.66.32-.27,3.46,1.26-5.91-8.12,3.51,1.44-5-8.81,3.23,1.52-4.67-11.24,2.46-1.85,2.57,4.53a11.81,11.81,0,0,0,.12-1.45c-.08-.92-.21-1.84-.31-2.76,18.45,36.06,34.74,72.95,41.56,113.59l-5.25-7.88-.58.34,2.73,6.21-.36.17-5.25-3.78-.58.65,8,8.17-.28.27-3.67-2.68c-.12.12-.24.25-.35.38l6.66,8.83c-4.67-2.46-8.95-5.25-13.43-7.73a30,30,0,0,0-15.76-3.95l5.36,7.41-.46.45H200A8.74,8.74,0,0,0,202.6,461c1.45,1.61,3.15,3,4.72,4.52a5.17,5.17,0,0,1,.8.94c-1.31,1.37.54,1.55.86,2.27.25.56.79,1,1,1.53,1.13,2.53,2.21,5.1,3.13,7.23a44.42,44.42,0,0,0-6-2.19c-5.95-1.29-13,2.38-16.42,8.34a2.25,2.25,0,0,1-1.69,1.32H289a2.16,2.16,0,0,1-1.36-.33,29.43,29.43,0,0,0-14.12-7.14c.89-1.17,1.67-2.34,2.61-3.38a2.46,2.46,0,0,1,1.57-.63c1.75-.1,3.57,0,5.34-.11,2.21-.12,4.4-.37,6.88-.58-9.84-7.62-20.67-10.32-33-7.85.84-.48,1.54-.84,2.2-1.26a4.39,4.39,0,0,0,1.72-1.75c-1,.2-2,.37-3,.61a13.1,13.1,0,0,1-3.1.55l13.42-6.95c-.08-.19-.16-.38-.23-.59l-5.54,1.08c4-2.5,8.87-3,12.78-5.56l-.21-.69-7.79,1.46-.18-.42,6.21-5.39c-5.25,1.27-9.15,4.56-12.67,8.4l-.38-.34,2.79-5.46-.52-.37-7.26,8.47c.71-2.43,1.33-4.53,1.94-6.63l-.74-.37-8.58,14-.31-.1c.68-2.08,1.37-4.16,2-6.24l-.48-.28-3.17,4.09c0-4-.18-8,0-11.87,1.59-29.63,8-58.39,16.08-86.83,13.27-47,30.59-92.45,50.64-136.92.28-.62.59-1.22.9-1.83a35,35,0,0,0,4.19,1,37.54,37.54,0,0,0,4.5,0c-.47,4.87-1.07,9.49-3.67,13.61l.32.4,4.08-3-4.41,11.81,3.23-2,.41.13c-1.76,3.43-3.51,6.86-5.36,10.51l4.19-2.52.38.21-3.45,6.6,3.14-1.95a32.43,32.43,0,0,1-6.54,10.65l.25.41,5.67-1.79c-2.27,6.32-5.84,11.49-12,14.66,3.47,1.37,6.37,0,13.92-6.48a31.33,31.33,0,0,1-6.27,12c1.88-.48,3.34-1.75,7.95-6.71-.45,1.22-.83,2.46-1.35,3.64a33,33,0,0,1-2,3.89,20.3,20.3,0,0,0-2.13,3.68c1.68-1.17,3.36-2.37,5.39-3.79-1.56,2.73-2.95,5.18-4.31,7.58,3-.86,5.07-4,9.2-14.15a60.34,60.34,0,0,1-.05,6.45c-.24,2.21-.86,4.37-1.33,6.63,2.11-2,3.37-6,4-12.26,1.54,4.59,1.51,9.31,1.17,14.13.18-.62.38-1.23.58-1.85s.4-1.31.58-2c4.94-18.9,4.67-37.82.2-56.74-.38-1.59-.38-2.78.81-4a20.31,20.31,0,0,0,2.11-3.34c1.67,4,0,7.59-.94,11.24l.62.28,6-9c0,6.28-2.22,12.06-4.52,17.84,4.33-3.88,7-8.83,9.53-14,1.42,5.92.07,11.57-1.51,17.26,4.36-4.5,6.29-10.24,8.08-16.14,1.4,3,.71,7.62-2.66,18.19,2.08-1.07,3-2.5,4.93-7.55,1.17,2.56.89,5.74-.65,10.91l4.2-4.48c0,2.23.08,4.29,0,6.34s-.35,4.06-.25,6.27l3-5.2a44.69,44.69,0,0,1-3.06,16.39l4.51-6.11c0,4.2-2,7.59-3.6,11.09a36.07,36.07,0,0,0,11.48-17l.48.11c-.17,1.39-.28,2.8-.58,4.17s-.72,2.73-.94,4.13c6.34-6.7,5.11-14.45,2.81-22.83a40.26,40.26,0,0,1,7.58,13.05l.59-.09c-.17-1.68,0-3.5-.59-5-1.38-3.58-3.12-7-4.75-10.51-.32-.67-.82-1.25-1.21-1.9-1.13-1.89-2.91-3.71-3.18-5.73s1.1-4.09,1.75-6.12c1.17,2,1.58,4.66,1.42,9.85,2.09-2.28,2.41-8.11,1.11-15.32l5.31,7.51c.58-2.09-.37-5.45-3.5-12.25l.35-.39,5.22,4.67c.8-5.93-3.37-9.55-7-13.48,2.44-.53,3.09-.28,9.21,3.54-1.46-4.15-4.17-6.42-7.83-8.12l5.25-.8.07-.37-9.84-2c2.81-2.47,6.42-2.68,9.12-.59,4.16,3.19,7.49,7,8.27,12.4a25.55,25.55,0,0,1,0,3.5c2-1.44,2.81-4.73,2.44-9.39l3.74,3.66c.28-2.19-1.21-3.68-2.42-5.31,4.67.3,8.21,5.12,8.34,11.23,2.53-2.67,2.16-7-1-11.61,2.54.59,3,1.08,8.05,7.7.63-2.42.28-4.08-1.91-8.58A18.25,18.25,0,0,1,416.07,216.68ZM263.62,231.79l-6.22,2.33c1.17-3.37,2.54-6.2,4.89-8.4.61-.59,1.79-1.17,2.39-.94A3.39,3.39,0,0,1,266.2,227C266.94,230.4,266.75,230.63,263.62,231.79Zm8.68-26a2.88,2.88,0,0,1-.77,1.17c-.14.17-.44.21-.66.3l-5,2.14c2.34-2.53,4.38-4.79,6.79-7.44-.12,1.54-.15,2.7-.33,3.83ZM303,184.61l-2.46-1.75,3.51-.73C303.62,183.17,303.35,183.84,303,184.61ZM131.25,270l4.05.43-.05.66-2.4-.16,1.08,1.27L126.34,269l5.71,4.09c-.11.18-.24.36-.35.54l-7.62-4.39,1.55-.58c1.67-2,5.84-2.53,8.76-1,.49.3,1,.62,1.42,1l-4.67,1Zm-3.4,27.7,3-1.28.19.45C130.23,297.42,129.92,299.23,127.85,297.7Zm11.77-24a8.58,8.58,0,0,1,9.26,4l-2-1,1,3Zm.91,28.6,4.09-3.79c-.1.55-.23,1.33-.4,2.3l3.34-3.73.78.45-1.92,6.53Zm9.14,2.82-2.91-.95,5.12-4,.37.32c-.87,1.55-1.71,3.08-2.58,4.66Zm2.76,1v-.44l4.08-1.16c-.58,1.16-.93,1.82-1.32,2.58Zm8,3.19-4.67-2,5.14-.68c-.16,1-.28,1.78-.47,2.7Zm-21.3,22.06,2.51-5.52.67.31C141,327.69,143.21,330.81,139.09,331.37Zm6.14-2.7,3.22-3.6c-.13,3.22-.13,3.22-3.22,3.6Zm8.41-1.95-2.75.53-.21-.31,3-2.43Zm4.06-.4-2.29.2-.2-.35c.75-.64,1.5-1.3,2.49-2.16Zm6.25.18h0l-4.81-.3,1.75-3.5.64-.11c.69,1.13,1.39,2.27,2.33,3.78l1.22-2.58c1,1.4,3.13,1.23,3.27,3.5Zm71.26,4c-2.8-1.37-5.25-2.53-7.68-3.79a1.82,1.82,0,0,1-.89-1.17c-.25-1.44-.34-2.91-.5-4.54a14.09,14.09,0,0,1,9.07,9.5ZM226,325.25l-.51.59c-1.95-1.49-5.42-.87-5.87-5.11ZM219.54,323l-.21.51c-1.25-.49-3.08.09-3.5-2.52Zm-13.76,10.82c.68-.81,1.08-1.26,1.5-1.76.77,1.44,1.49,2.79,2.28,4.25-2.86-1.58-5.71-3-8.32-4.71-.84-.59-1.06-2.1-1.22-3.36Zm-6.1-3-10.36-4.32C193.37,326.53,196.71,328.26,199.68,330.83Zm-3.36,18.89c-3.65-3.08-.43-5.56,0-8.17l.54,0c-.15,2.62-.32,5.27-.49,8.14Zm56.5,13.6C245.3,389.91,238.5,416.7,234,444a2.81,2.81,0,0,1-.29.54c-.24-.67-.42-1.16-.58-1.64-8.41-28-19.44-55-31.7-81.49-1.23-2.66-3.34-5.25-3.51-7.94s1.63-5.37,2.57-8.06c.14-.41.3-.8.58-1.56,1.75,5,1,9.69.1,14.89,3.34-4.49,4.41-9.29,5.44-14.67,1.69,5.57.63,10.51-.69,15.42l.58.23c1-2.12,2-4.24,3.06-6.48a15.55,15.55,0,0,1,.2,8.52l3-3.85c.26,3.5.5,6.78.76,10.37.72-1.61,1.35-3,2-4.44l.58.07-1.32,12.95,2.63-4.37h.37a43.22,43.22,0,0,1-.63,4.3c-.33,1.38-.91,2.8-1.26,4.25a29.65,29.65,0,0,0,7.73-14.5l.5.11c-.17,2.12-.35,4.24-.58,6.7a11.57,11.57,0,0,0,2.79-8.83,93.17,93.17,0,0,0-1.85-9.27c2.92,2.59,4.79,5.87,6.63,9.18l.64-.27c-.63-1.95-1-4.09-1.93-5.84a64.1,64.1,0,0,0-14.56-17.6c-.85-.73-1.75-1.41-2.65-2.08-2.6-1.92-2.81-2.77-1.36-6,1.13,2.33,2.22,4.57,3.33,6.83l.51-.18c-.29-1.92-.58-3.84-.94-6.2,3.22,3.11,5,6.64,6.85,10.33-.13-1.34-.23-2.69-.41-4s-.46-2.69-.73-4.25l3.5,7.28.44-.14v-4.37l3.89,9.51.34-.11-.74-10.95.77-.12c.38,1.54.78,3.08,1.16,4.63s.64,3.3,1.13,4.9a24.11,24.11,0,0,0,2,4.54c-.7-4-1.21-7.87,0-12.25,1.08,4.92,2,9.43,5.25,13.23-.23-1.93-.43-3.63-.64-5.33l.37-.09,5.51,9.88.32-.18-4.47-13.88.64-.27c1.06,1.66,2.09,3.34,3.16,5,2.28,3.5,4.57,7,6.91,10.41a6.82,6.82,0,0,0,2.1,2.11c2,1.07,1.91,2.41,1.36,4.4ZM282.16,277h-.62q-1-3.69-2-7.37H280a32,32,0,0,1,2.53,4.53c.31.8-.18,1.89-.32,2.84Zm1.22-4.21-1.45-6.17c2.91,2.62,3.15,3.69,1.46,6.17Zm33.24-94.39-3.32-6.82.34-.34a51.3,51.3,0,0,1,4.28,3.35c1.78,1.72,1.33,3-1.29,3.81Zm-3.55-9.33a2,2,0,0,1-1.46-.67c-.81-1.23-1.46-2.56-2.38-4.22,3.9.67,7.23,1.58,9.74,4.6-2.09.12-4,.27-5.89.29Zm-3.22-6a2.18,2.18,0,0,1-1.56-.54c-1-1.4-1.85-2.91-2.91-4.63,5.49,1,10.62,2.14,15.17,5.2-3.56,0-7.13,0-10.69,0Zm30.48,52.11,1.89-1.75c.54,1.25,1,2.28,1.56,3.61Zm8.23,4.76-2.33-1.43,1.08-2.23,1.54,3.39Zm7.76-31.22c-3.75,2.14-4.36,2.18-6.13.36,2-.6,3.95-1.36,6.11-.36Zm-1.41,35.51-2.69-1.9c.78-1.79,1.51-3.46,2.23-5.13l.46.08Zm6.58,5.29-5.84-4.75,4.82-6.27c1.25,2.63-.11,4.51-.58,6.87l2.52-2.66c-.33,2.28-.62,4.44-.94,6.81ZM374,203.5l-15.17-1.4c0-.22,0-.44.06-.66a47.82,47.82,0,0,1,15.17,1.29c0,.27-.06.52-.08.77Z"/><path class="cls-7" d="M236.56,375.93a11.73,11.73,0,0,1,5,.58,9.13,9.13,0,0,1,3.77,2.52,10.46,10.46,0,0,1,2.21,4.19,14.88,14.88,0,0,1,.37,5.6,27.46,27.46,0,0,1-1.57,5.78,45.64,45.64,0,0,1-2.92,6.11,56.81,56.81,0,0,1-4,6.08,69.92,69.92,0,0,1-4.83,5.77,62.13,62.13,0,0,1-5.41,5.1,47.51,47.51,0,0,1-5.73,4.12,34.1,34.1,0,0,1-5.79,2.83,18.66,18.66,0,0,1-5.63,1.17,10.22,10.22,0,0,1-3.21-.36,9.57,9.57,0,0,1-3.09-1.43,9.3,9.3,0,0,1-2.48-2.6,9.49,9.49,0,0,1-1.37-3.9,3,3,0,0,1,.76-2,5.55,5.55,0,0,1,1.78-1.37,5,5,0,0,1,2-.54,1.73,1.73,0,0,1,1.45.46,9.71,9.71,0,0,0,.3,3.35,6.27,6.27,0,0,0,1.24,2.37,4.53,4.53,0,0,0,4.08,1.65,17.72,17.72,0,0,0,5.22-2.13,42.83,42.83,0,0,0,5.87-4.14,63.15,63.15,0,0,0,11.16-12.16,48.26,48.26,0,0,0,4-6.95,25.57,25.57,0,0,0,2.19-6.81,12.81,12.81,0,0,0,.06-3.86,8,8,0,0,0-1.06-3.06,6,6,0,0,0-2-2,5.71,5.71,0,0,0-2.79-.77,12.58,12.58,0,0,0-3.25.75,21.2,21.2,0,0,0-3.46,1.67,5,5,0,0,1,1.23.81,6.83,6.83,0,0,1,1.17,1.29,4.53,4.53,0,0,1,.72,1.56,2.27,2.27,0,0,1-.16,1.58q-2.79,4-5.41,8.13t-5,8.24q-2.4,4.1-4.55,8.17c-1.43,2.73-2.76,5.35-4,7.88l0-.05c-.17.34-.44.38-.83.13a5,5,0,0,1-1.16-1.17,7.18,7.18,0,0,1-1-1.67,2,2,0,0,1-.23-1.39q1.35-3.47,3.4-7.64t4.42-8.54q2.37-4.35,4.87-8.58t4.79-7.72a42.08,42.08,0,0,0-4.54,3.56,56.41,56.41,0,0,0-4.32,4.29q-2.07,2.26-3.87,4.62T211.9,400a35.84,35.84,0,0,0-2.23,4.14,13.2,13.2,0,0,0-1.06,3.35,2.52,2.52,0,0,1-2.17,1.06,2.43,2.43,0,0,1-1.75-1.1,4.69,4.69,0,0,1-.74-2.52,6,6,0,0,1,.93-3.27,47.06,47.06,0,0,1,3.35-6.16,51.13,51.13,0,0,1,9.63-11.12,40.51,40.51,0,0,1,5.84-4.25,33.35,33.35,0,0,1,6.3-2.92A23.34,23.34,0,0,1,236.56,375.93Z"/><path class="cls-7" d="M258.46,403a24.56,24.56,0,0,1-5.79,6.24,24.18,24.18,0,0,1-7.14,3.71,5.61,5.61,0,0,0,.14,2.12,1.54,1.54,0,0,0,1.2,1.21l-.08,0a3.58,3.58,0,0,0,1.92-.12,10,10,0,0,0,2.45-1.17,20.85,20.85,0,0,0,2.81-2.23,29.33,29.33,0,0,0,3-3.25c.51-.66,1-1.35,1.49-2.06l1.37-2a1.45,1.45,0,0,1,1-.59,1.35,1.35,0,0,1,1,.27,1.47,1.47,0,0,1,.49.88,1.73,1.73,0,0,1-.39,1.27l-1,1.49c-.87,1.25-1.93,2.64-3.17,4.15a38.21,38.21,0,0,1-4.24,4.39,13.28,13.28,0,0,1-2.7,1.81,14,14,0,0,1-2.41,1,10.41,10.41,0,0,1-2,.37c-.58,0-1,.06-1.37.06a5.41,5.41,0,0,1-4.61-1.88,6.79,6.79,0,0,1-1-5.11,16.14,16.14,0,0,1,1.78-5.54,34.49,34.49,0,0,1,4-5.87,21.44,21.44,0,0,1,2.24-2.23,23.23,23.23,0,0,1,2.95-2.19,16.62,16.62,0,0,1,3.34-1.62,9.3,9.3,0,0,1,3.34-.59,3.14,3.14,0,0,1,2.54,1.17,3.66,3.66,0,0,1,.53,3,6.53,6.53,0,0,1-.51,1.68,10.83,10.83,0,0,1-1.09,1.82Zm-2.13-3.42a7.47,7.47,0,0,0-2.92,1.33,17.49,17.49,0,0,0-2.7,2.46,25.29,25.29,0,0,0-2.33,3,27.55,27.55,0,0,0-1.75,3,21.4,21.4,0,0,0,5.4-3.27,19.54,19.54,0,0,0,4.26-4.94v0a2.32,2.32,0,0,0,.35-.66l.18-.58c.06-.4-.11-.53-.49-.42Z"/><path class="cls-7" d="M275.37,403a24.6,24.6,0,0,1-5.8,6.24,24.05,24.05,0,0,1-7.14,3.71,6,6,0,0,0,.14,2.12,1.54,1.54,0,0,0,1.21,1.21l-.08,0a3.52,3.52,0,0,0,1.93-.12,10.1,10.1,0,0,0,2.46-1.17,20.15,20.15,0,0,0,2.8-2.23,27.56,27.56,0,0,0,2.95-3.25c.51-.66,1-1.35,1.5-2.06s.93-1.38,1.36-2a1.45,1.45,0,0,1,1-.59,1.34,1.34,0,0,1,.94.27,1.42,1.42,0,0,1,.49.88,1.77,1.77,0,0,1-.39,1.27l-1,1.49c-.88,1.25-1.93,2.64-3.18,4.15a39,39,0,0,1-4.23,4.39,13.56,13.56,0,0,1-2.7,1.81,14.38,14.38,0,0,1-2.42,1,10.31,10.31,0,0,1-2,.37q-.89.06-1.38.06a5.39,5.39,0,0,1-4.6-1.88,6.79,6.79,0,0,1-1-5.11,16.37,16.37,0,0,1,1.75-5.54,35.49,35.49,0,0,1,4-5.87,22.55,22.55,0,0,1,2.25-2.23,22.24,22.24,0,0,1,2.92-2.19,16.62,16.62,0,0,1,3.34-1.62,9.21,9.21,0,0,1,3.33-.59,3.14,3.14,0,0,1,2.54,1.17,3.62,3.62,0,0,1,.53,3,6.16,6.16,0,0,1-.51,1.68,10.77,10.77,0,0,1-1.08,1.82Zm-2.15-3.42a7.47,7.47,0,0,0-2.92,1.33,17.49,17.49,0,0,0-2.7,2.46,27.56,27.56,0,0,0-4.09,6,21.45,21.45,0,0,0,5.41-3.27,19.7,19.7,0,0,0,4.25-4.94v0a2.32,2.32,0,0,0,.35-.66l.18-.58C273.8,399.6,273.62,399.47,273.22,399.58Z"/><path class="cls-7" d="M291.21,412.11c-.76.95-1.61,1.92-2.54,2.92a25.84,25.84,0,0,1-2.94,2.69,16,16,0,0,1-3.24,2,7.18,7.18,0,0,1-3.32.66,3.29,3.29,0,0,1-1.59-.45,2.91,2.91,0,0,1-1-1.11,4.48,4.48,0,0,1-.43-1.56,7.47,7.47,0,0,1,.08-1.83,12.74,12.74,0,0,1,.83-2.58,14.63,14.63,0,0,1,1.25-2.3c.47-.72,1-1.43,1.53-2.12s1.12-1.4,1.72-2.13l1-1.16v0l1.17-1.41a3.35,3.35,0,0,1,.88-.84,6.64,6.64,0,0,1,1.75-.71c-.38.09-.69.15-.94.19l-.66.15-1.06.25a4.61,4.61,0,0,1-1.23.08H282c-.73.95-1.43,1.87-2.08,2.77s-1.27,1.75-1.85,2.56v0c-.11.17-.3.21-.58.13a2.16,2.16,0,0,1-.78-.44,2.51,2.51,0,0,1-.59-.71.59.59,0,0,1,0-.69v0c.8-1.05,1.46-2,2-2.77l1.47-2.1a2.63,2.63,0,0,1-.12-1.66,5.46,5.46,0,0,1,.9-2.3l1.64-2.33.8-1.21a14.21,14.21,0,0,0,.88-1.63l1.17.69a4.46,4.46,0,0,1,1,.84,3.28,3.28,0,0,1,.64,1.1,3.24,3.24,0,0,1,.08,1.42c-.05.24-.12.52-.21.81a4.87,4.87,0,0,1-.45,1l-1.75,1.87c-.13.17-.07.19.21.06s.67-.34,1.17-.64,1.1-.67,1.75-1.09,1.29-.82,1.92-1.24,1.17-.81,1.66-1.17a10,10,0,0,0,1-.83,1.16,1.16,0,0,1,.59.25,6.64,6.64,0,0,1,.71.58l.62.59a3.52,3.52,0,0,1,.31.35,2.32,2.32,0,0,1,0,1.68,10.11,10.11,0,0,1-1.09,2.15,27.91,27.91,0,0,1-1.84,2.48c-.73.87-1.48,1.77-2.27,2.69-.47.49-.92,1-1.36,1.49s-.87,1-1.3,1.54l-1.11,1.34c-.41.49-.81,1-1.17,1.52a11.58,11.58,0,0,0-1,1.52,4.36,4.36,0,0,0-.5,1.25c0,.16.09.25.42.25a2.35,2.35,0,0,0,1.16-.32,9.71,9.71,0,0,0,1.6-1,18.25,18.25,0,0,0,1.75-1.53,16.14,16.14,0,0,0,1.69-1.91h0c.71-.89,1.38-1.76,2-2.62s1.14-1.6,1.51-2.21a.54.54,0,0,1,.62-.06,2.26,2.26,0,0,1,.78.48,2.34,2.34,0,0,1,.58.77.63.63,0,0,1,0,.73l0-.09-1.47,2.08-1.82,2.75Z"/><path class="cls-7" d="M329.83,407.12c-.93,1.61-2,3.22-3.11,4.85a55.65,55.65,0,0,1-3.65,4.62,51.47,51.47,0,0,1-4,4.08,29.78,29.78,0,0,1-4.24,3.25,19,19,0,0,1-4.31,2.06,11.42,11.42,0,0,1-4.22.59,6.65,6.65,0,0,1-5-2.92,8.68,8.68,0,0,1-1.21-2.87,12.45,12.45,0,0,1-.24-3.5,27.17,27.17,0,0,1,1.31-5.39,56.23,56.23,0,0,1,2.62-6.33c1.12-2.3,2.35-4.55,3.69-6.73s2.89-4.49,4.5-6.64a68.4,68.4,0,0,1,5.1-6.06,44.59,44.59,0,0,1,5.44-4.93,27.15,27.15,0,0,1,5.55-3.33,13.26,13.26,0,0,1,5.44-1.23,8.54,8.54,0,0,1,2.66.36,3.65,3.65,0,0,1,1.64,1,3,3,0,0,1,.71,1.54,6,6,0,0,1,0,2,9.6,9.6,0,0,1-.71,2.4,29.28,29.28,0,0,1-1.33,2.62c-.52.9-1.1,1.81-1.72,2.7s-1.27,1.75-1.93,2.61a5.39,5.39,0,0,1-.53.54,5.9,5.9,0,0,1-.74.58,4.24,4.24,0,0,1-.9.46,3.18,3.18,0,0,1-1,.19,2.86,2.86,0,0,1-1.08-.31,13.49,13.49,0,0,1-1.76-1,13.07,13.07,0,0,0,2-1.83c.75-.8,1.5-1.68,2.23-2.62a29.15,29.15,0,0,0,2-2.86,14.87,14.87,0,0,0,1.29-2.51l.27-.71a1.72,1.72,0,0,0,.11-.5.6.6,0,0,0-.31-.71,3.86,3.86,0,0,0-1.25-.29,8,8,0,0,0-3.64,1.5,30.64,30.64,0,0,0-4.09,3.35,57.27,57.27,0,0,0-4.15,4.52q-2.07,2.5-3.89,5t-3.27,4.88c-1,1.57-1.75,2.92-2.37,4s-1.31,2.54-1.95,3.87a36.67,36.67,0,0,0-1.7,4.21c-.29.82-.54,1.62-.73,2.37s-.36,1.44-.49,2.08a8.64,8.64,0,0,0,.08,4,2.1,2.1,0,0,0,2,1.64,7.4,7.4,0,0,0,3.29-.52,15.14,15.14,0,0,0,3.4-1.85,28,28,0,0,0,3.33-2.81q1.65-1.61,3.18-3.42c1-1.21,2-2.42,2.86-3.64s1.69-2.39,2.4-3.5c.11-.16.32-.23.65-.19a3.14,3.14,0,0,1,1,.29,2,2,0,0,1,.74.59.48.48,0,0,1,0,.65Z"/><path class="cls-7" d="M341.89,395.29a3.43,3.43,0,0,1,2.39,1.62,6.28,6.28,0,0,1,.84,2.92,3.68,3.68,0,0,1,.58,1.42,9.86,9.86,0,0,1,.17,1.87,3,3,0,0,0-.1.67,6.83,6.83,0,0,1-.11.79,15.79,15.79,0,0,1-1,3.64,24.68,24.68,0,0,1-1.82,3.59,26,26,0,0,1-2.42,3.29,19.46,19.46,0,0,1-2.82,2.7,14.46,14.46,0,0,1-3,1.82,7.39,7.39,0,0,1-3,.66,6,6,0,0,1-4.38-1.79c-1.16-1.17-1.75-3-1.8-5.41a8.28,8.28,0,0,1,0-1c0-.34.07-.72.12-1.1a14.83,14.83,0,0,1,1.17-3.69,23.83,23.83,0,0,1,4.85-7.06,20.55,20.55,0,0,1,3.3-2.73,14.73,14.73,0,0,1,3.5-1.76A8.89,8.89,0,0,1,341.89,395.29Zm-2.87,11a.72.72,0,0,1-.43-.58,5,5,0,0,1-.1-1,7.7,7.7,0,0,1,.1-1.17c.07-.42.13-.78.19-1.08a2.61,2.61,0,0,1,.51-1.06,5.57,5.57,0,0,1,.83-.92c.29-.24.58-.47.89-.69a5.72,5.72,0,0,1,.67-.41,1,1,0,0,0-.58-.08A5.53,5.53,0,0,0,339,400a11.92,11.92,0,0,0-2.25,1.6,17.53,17.53,0,0,0-2.05,2.34,25.23,25.23,0,0,0-1.7,2.64,21.13,21.13,0,0,0-1.27,2.73,11.57,11.57,0,0,0-.67,2.52,4.83,4.83,0,0,0,.12,2.64,1.83,1.83,0,0,0,1.75,1.17,4.09,4.09,0,0,0,2.05-.52,9.42,9.42,0,0,0,2.08-1.52,17.52,17.52,0,0,0,2-2.23,24.39,24.39,0,0,0,1.75-2.66,22.56,22.56,0,0,0,1.31-2.77,11.24,11.24,0,0,0,.69-2.54l.09-.21a1.45,1.45,0,0,0-.76.27,5,5,0,0,0-.82.64,5.83,5.83,0,0,0-.69.8,3.08,3.08,0,0,0-.44.74Z"/><path class="cls-7" d="M377.29,411.24c-.51.72-1.19,1.6-2,2.62a39.23,39.23,0,0,1-2.76,3,19.88,19.88,0,0,1-3.09,2.48,5.65,5.65,0,0,1-3,1,4.54,4.54,0,0,1-1.63-.31,2.86,2.86,0,0,1-1.27-1,4,4,0,0,1-.67-1.75,6.89,6.89,0,0,1,.1-2.52,22.42,22.42,0,0,1,.71-2.46,26.79,26.79,0,0,1,1.07-2.54c.42-.89.91-1.86,1.45-2.92s1.17-2.21,1.88-3.5a11.36,11.36,0,0,0,.82-1.54,5.75,5.75,0,0,0,.41-1.21c0,.06-.23.22-.53.5s-.78.68-1.43,1.21q-1.76,1.46-3.22,2.92c-1,1-1.95,2-2.92,3.18-.27.47-.53,1-.78,1.46s-.49,1-.73,1.54v-.08c-.6,1.27-1.13,2.56-1.6,3.85a32.73,32.73,0,0,0-1.16,4c-.08.34-.36.5-.82.47a4.29,4.29,0,0,1-1.48-.4,5.44,5.44,0,0,1-1.41-.92,1.37,1.37,0,0,1-.58-1.1,33.37,33.37,0,0,1,2.19-6.83c1-2.19,2-4.39,3.17-6.58q.52-1.08,1-1.92a8.43,8.43,0,0,1,.63-1.08,15.59,15.59,0,0,0-2.17,1.55c-1.16,1-2.2,1.94-3.17,2.91s-2,2.05-3,3.21a56.15,56.15,0,0,0-2.49,5.26,39.7,39.7,0,0,0-1.8,5.43c-.11.31-.4.44-.87.42a4.13,4.13,0,0,1-1.45-.4,5.74,5.74,0,0,1-1.35-.89,1.38,1.38,0,0,1-.55-1.09,28.68,28.68,0,0,1,1-3.64c.39-1.17.83-2.33,1.33-3.5s1-2.3,1.58-3.41l1.7-3.39q1-2,1.92-3.9c.63-1.27,1.17-2.48,1.68-3.64a1.5,1.5,0,0,1,1.21,0,4.62,4.62,0,0,1,1.37.72,5.22,5.22,0,0,1,1.16,1.23,3.69,3.69,0,0,1,.59,1.52,24.21,24.21,0,0,1,3.56-2.54,8.32,8.32,0,0,1,3.6-1.17,1.61,1.61,0,0,1,.92.33,4.22,4.22,0,0,1,.86.88,4.65,4.65,0,0,1,.63,1.21,4.39,4.39,0,0,1,.29,1.29,22.64,22.64,0,0,1,3.54-2.54,8.66,8.66,0,0,1,3.67-1.17,1.67,1.67,0,0,1,1.1.53,4.63,4.63,0,0,1,1,1.29,5,5,0,0,1,.53,1.64,2.41,2.41,0,0,1-.25,1.54v0c-.71,1.53-1.38,2.87-2,4s-1.24,2.22-1.79,3.16c-.43.78-.83,1.5-1.16,2.17s-.69,1.32-1,1.95a19.74,19.74,0,0,0-.79,2,22.13,22.13,0,0,0-.64,2.12l.2-.29a15.65,15.65,0,0,0,3.1-2.13,25.85,25.85,0,0,0,3.74-4.08c.38-.47.74-1,1.09-1.48l1.08-1.6.66-.92a1.39,1.39,0,0,1,1-.58,1.25,1.25,0,0,1,.94.27,1.35,1.35,0,0,1,.47.87,1.83,1.83,0,0,1-.41,1.27c-.46.67-.93,1.33-1.41,2s-.95,1.33-1.42,2Z"/><path class="cls-7" d="M388.77,397.71a17.16,17.16,0,0,1,3.44-1.69,6.77,6.77,0,0,1,3.15-.4,4.8,4.8,0,0,1,2.07.79,3.8,3.8,0,0,1,1.21,1.46,5,5,0,0,1,.45,1.94,11.11,11.11,0,0,1-.16,2.23,16.34,16.34,0,0,1-1.11,3.75,29.29,29.29,0,0,1-2.92,5.06,31.72,31.72,0,0,1-3.89,4.47,22.8,22.8,0,0,1-4.44,3.31A12,12,0,0,1,382,420.2a5.9,5.9,0,0,1-2.44-.54,4.28,4.28,0,0,1-1.57-1.29l-.21.83c-.1.31-.39.44-.85.42a4.34,4.34,0,0,1-1.46-.4,5.49,5.49,0,0,1-1.34-.89,1.36,1.36,0,0,1-.56-1.09,31.44,31.44,0,0,1,1.54-5.12,51,51,0,0,1,2.33-5.16c.89-1.72,1.82-3.45,2.82-5.17s2-3.43,3-5.12l1.64-2.67c.63-1.05,1.25-2.12,1.87-3.22s1.2-2.18,1.75-3.23,1.07-2.07,1.55-3.06.88-1.9,1.21-2.73a1.86,1.86,0,0,1,1.53,0,4.56,4.56,0,0,1,1.6,1.11,5.06,5.06,0,0,1,1.09,1.75,2.57,2.57,0,0,1,0,1.89c-.2.42-.52,1-1,1.8l-1.53,2.6c-.57,1-1.17,1.95-1.82,3s-1.27,2-1.85,2.95ZM384,405.29q-.94,1.54-1.8,3.15c-.58,1.07-1.12,2.14-1.63,3.22a2.64,2.64,0,0,0-.08.49,4.32,4.32,0,0,0,.07,1.86,1.23,1.23,0,0,0,1.24.94,3.68,3.68,0,0,0,2.09-.59,13.68,13.68,0,0,0,2.46-1.81,27.42,27.42,0,0,0,2.53-2.64c.85-1,1.63-2,2.34-3a22.79,22.79,0,0,0,1.75-3,11.46,11.46,0,0,0,.9-2.54c.13-.86-.12-1.3-.78-1.33a5.83,5.83,0,0,0-2.11.33,12.07,12.07,0,0,0-2.37,1.08,18.61,18.61,0,0,0-2.4,1.71,20.87,20.87,0,0,0-2.19,2.12Z"/><path class="cls-7" d="M414.63,403a24.56,24.56,0,0,1-5.79,6.24,24.11,24.11,0,0,1-7.15,3.71,5.82,5.82,0,0,0,.15,2.12,1.53,1.53,0,0,0,1.2,1.21l-.08,0a3.51,3.51,0,0,0,1.9-.13,9.42,9.42,0,0,0,2.46-1.17,18.77,18.77,0,0,0,2.8-2.23,28.36,28.36,0,0,0,3-3.24c.51-.67,1-1.36,1.49-2.07l1.37-2a1.44,1.44,0,0,1,1-.58,1.26,1.26,0,0,1,.94.27,1.37,1.37,0,0,1,.49.87,1.73,1.73,0,0,1-.39,1.27l-1,1.5q-1.31,1.88-3.17,4.14a41,41,0,0,1-4.24,4.4,13.28,13.28,0,0,1-2.68,1.78,14.28,14.28,0,0,1-2.41,1,10.41,10.41,0,0,1-2,.37c-.59,0-1,.06-1.38.06a5.39,5.39,0,0,1-4.6-1.88,6.78,6.78,0,0,1-1-5.11,16.35,16.35,0,0,1,1.78-5.54,35.49,35.49,0,0,1,4-5.87,22.55,22.55,0,0,1,2.25-2.23,22.24,22.24,0,0,1,2.92-2.19,17.17,17.17,0,0,1,3.34-1.62,9.24,9.24,0,0,1,3.33-.59,3.12,3.12,0,0,1,2.54,1.17,3.62,3.62,0,0,1,.53,3,6.16,6.16,0,0,1-.51,1.68,10.77,10.77,0,0,1-1.08,1.82Zm-2.13-3.42a7.47,7.47,0,0,0-2.92,1.33,17.49,17.49,0,0,0-2.7,2.46,28.41,28.41,0,0,0-4.09,6,21.45,21.45,0,0,0,5.41-3.27,19.7,19.7,0,0,0,4.25-4.94v0a2.32,2.32,0,0,0,.35-.66c.07-.22.13-.41.19-.58.06-.4-.11-.53-.49-.42Z"/><path class="cls-7" d="M430.47,412.11c-.76.95-1.61,1.92-2.54,2.92a25.84,25.84,0,0,1-2.94,2.69,16.16,16.16,0,0,1-3.24,2,7.13,7.13,0,0,1-3.32.66,3.29,3.29,0,0,1-1.59-.45,2.81,2.81,0,0,1-1-1.11,4.49,4.49,0,0,1-.44-1.56,7,7,0,0,1,.09-1.83,12.12,12.12,0,0,1,.82-2.58,15.5,15.5,0,0,1,1.25-2.3c.47-.72,1-1.43,1.53-2.12s1.12-1.4,1.72-2.13l1-1.16v0l1.17-1.41a3.35,3.35,0,0,1,.88-.84,6.64,6.64,0,0,1,1.75-.71c-.38.09-.69.15-.94.19l-.66.15-1.06.25a4.53,4.53,0,0,1-1.22.08h-.42c-.73.95-1.43,1.87-2.08,2.77s-1.27,1.75-1.84,2.56v0c-.12.17-.3.21-.59.13a2,2,0,0,1-.77-.44,2.51,2.51,0,0,1-.59-.71.59.59,0,0,1,0-.69v0c.78-1.05,1.45-2,2-2.77l1.48-2.1a2.56,2.56,0,0,1-.13-1.66,5.46,5.46,0,0,1,.9-2.3l1.64-2.33c.25-.36.51-.77.8-1.21a13.42,13.42,0,0,0,.88-1.63l1.16.69a4.3,4.3,0,0,1,1,.84,2.94,2.94,0,0,1,.72,2.52c-.06.24-.13.52-.21.81a4.87,4.87,0,0,1-.45,1l-1.75,1.87c-.13.17-.07.19.21.06s.67-.34,1.16-.64,1.11-.67,1.75-1.09,1.3-.82,1.93-1.24,1.17-.81,1.66-1.17a10,10,0,0,0,1-.83,1.11,1.11,0,0,1,.61.25,5.89,5.89,0,0,1,.72.58c.23.21.44.41.61.59a2,2,0,0,1,.31.35,2.22,2.22,0,0,1,0,1.68,9.63,9.63,0,0,1-1.08,2.15,26.18,26.18,0,0,1-1.85,2.48c-.72.87-1.48,1.77-2.27,2.69-.46.49-.91,1-1.35,1.49s-.87,1-1.31,1.54l-1.1,1.34c-.41.5-.81,1-1.17,1.52a12.7,12.7,0,0,0-1,1.52,4.07,4.07,0,0,0-.49,1.25c-.06.16.08.25.41.25a2.42,2.42,0,0,0,1.17-.32,9.46,9.46,0,0,0,1.6-1,19.55,19.55,0,0,0,1.75-1.53,16.06,16.06,0,0,0,1.68-1.91h0c.71-.89,1.38-1.76,2-2.62s1.13-1.6,1.51-2.21a.57.57,0,0,1,.61-.06,2,2,0,0,1,.78.48,2.23,2.23,0,0,1,.59.77.65.65,0,0,1,0,.73l0-.09-1.48,2.08-1.92,2.79Z"/><path class="cls-8" d="M241.12,379.06a11.86,11.86,0,0,1,4.87.58,8.81,8.81,0,0,1,3.66,2.41,9.94,9.94,0,0,1,2.16,4,14.08,14.08,0,0,1,.35,5.37,25.86,25.86,0,0,1-1.53,5.54,43.07,43.07,0,0,1-2.83,5.84,56.82,56.82,0,0,1-3.89,5.83,63.4,63.4,0,0,1-4.7,5.52A56.39,56.39,0,0,1,234,419a45,45,0,0,1-5.58,4,32.13,32.13,0,0,1-5.64,2.71,18.45,18.45,0,0,1-5.48,1.17,10.31,10.31,0,0,1-3.13-.34,9.47,9.47,0,0,1-3-1.38,8.75,8.75,0,0,1-3.75-6.22,2.88,2.88,0,0,1,.74-1.95,5.54,5.54,0,0,1,1.75-1.32,5.24,5.24,0,0,1,2-.52,1.75,1.75,0,0,1,1.42.45,8.93,8.93,0,0,0,.3,3.21,6,6,0,0,0,1.17,2.27,4.44,4.44,0,0,0,4,1.57,17.22,17.22,0,0,0,5.08-2,41.78,41.78,0,0,0,5.73-4,60.36,60.36,0,0,0,5.72-5.36,59.61,59.61,0,0,0,5.14-6.28,45,45,0,0,0,3.94-6.66,24.1,24.1,0,0,0,2.14-6.52,12,12,0,0,0,.06-3.68,7.64,7.64,0,0,0-1-2.92,5.53,5.53,0,0,0-4.67-2.67,12.36,12.36,0,0,0-3.17.72,19.94,19.94,0,0,0-3.37,1.59,4.6,4.6,0,0,1,1.17.78,7,7,0,0,1,1.14,1.23,4.58,4.58,0,0,1,.7,1.5,2.22,2.22,0,0,1-.16,1.52q-2.72,3.83-5.26,7.77t-4.88,7.89q-2.34,3.94-4.43,7.81c-1.39,2.58-2.68,5.1-3.88,7.54l0,0c-.17.32-.43.36-.8.12a4.76,4.76,0,0,1-1.14-1.1,8,8,0,0,1-1-1.59,2,2,0,0,1-.21-1.34c.87-2.2,2-4.64,3.31-7.31s2.76-5.4,4.3-8.18,3.14-5.51,4.74-8.21,3.17-5.16,4.67-7.39a40.44,40.44,0,0,0-4.43,3.41q-2.19,1.94-4.2,4.08t-3.77,4.43c-1.1,1.41-2.13,2.86-3.09,4.37a33,33,0,0,0-2.17,4,12.56,12.56,0,0,0-1,3.21,2.51,2.51,0,0,1-2.11,1,2.4,2.4,0,0,1-1.69-1.06,4.21,4.21,0,0,1-.72-2.41,5.78,5.78,0,0,1,.89-3.13,47.81,47.81,0,0,1,3.27-5.9,48.34,48.34,0,0,1,4.27-5.62,48.94,48.94,0,0,1,5.08-5,39,39,0,0,1,5.7-4.09,34,34,0,0,1,6.14-2.81A23.42,23.42,0,0,1,241.12,379.06Z"/><path class="cls-8" d="M262.46,405a23.51,23.51,0,0,1-12.59,9.53,5.55,5.55,0,0,0,.14,2,1.5,1.5,0,0,0,1.17,1.17l-.08,0a3.57,3.57,0,0,0,1.86-.13,9.28,9.28,0,0,0,2.38-1.13,20.2,20.2,0,0,0,2.73-2.13,27.28,27.28,0,0,0,2.87-3.12c.51-.63,1-1.29,1.46-2l1.33-1.93a1.46,1.46,0,0,1,1-.58,1.25,1.25,0,0,1,.91.26,1.34,1.34,0,0,1,.48.83,1.69,1.69,0,0,1-.38,1.22l-1,1.43q-1.28,1.8-3.08,4a39.1,39.1,0,0,1-4.13,4.21,14,14,0,0,1-2.63,1.75,14.77,14.77,0,0,1-2.34.92,9.65,9.65,0,0,1-1.93.35c-.58,0-1,.07-1.34.07-2.07,0-3.57-.59-4.48-1.8a6.43,6.43,0,0,1-1-4.9,15.69,15.69,0,0,1,1.75-5.3,34.6,34.6,0,0,1,3.89-5.63,23.17,23.17,0,0,1,2.19-2.13,22,22,0,0,1,2.88-2.09,16.38,16.38,0,0,1,3.24-1.56,9.24,9.24,0,0,1,3.25-.58,3.12,3.12,0,0,1,2.48,1.1,3.43,3.43,0,0,1,.51,2.85,5.68,5.68,0,0,1-.5,1.61,9.66,9.66,0,0,1-1.05,1.75Zm-2.08-3.27a7.2,7.2,0,0,0-2.83,1.28,16.19,16.19,0,0,0-2.63,2.33,26.65,26.65,0,0,0-2.28,2.92,27.08,27.08,0,0,0-1.71,2.89,20.51,20.51,0,0,0,5.25-3.13,18.87,18.87,0,0,0,4.2-4.71h0a2.38,2.38,0,0,0,.34-.65c.06-.21.12-.39.17-.58S260.76,401.59,260.38,401.7Z"/><path class="cls-8" d="M278.93,405a23.58,23.58,0,0,1-12.6,9.53,5.15,5.15,0,0,0,.14,2,1.47,1.47,0,0,0,1.16,1.17l-.08,0a3.57,3.57,0,0,0,1.86-.13,9.28,9.28,0,0,0,2.38-1.13,20.94,20.94,0,0,0,2.74-2.13,29.23,29.23,0,0,0,2.87-3.12c.5-.63,1-1.29,1.45-2l1.37-1.94a1.44,1.44,0,0,1,1-.58,1.31,1.31,0,0,1,.92.26,1.43,1.43,0,0,1,.48.84,1.66,1.66,0,0,1-.38,1.21l-1,1.44q-1.28,1.79-3.09,4a39.86,39.86,0,0,1-4.12,4.2,12.87,12.87,0,0,1-2.64,1.75,14.11,14.11,0,0,1-2.33.92,9.8,9.8,0,0,1-1.93.36c-.59,0-1,.06-1.34.06-2.07,0-3.57-.58-4.49-1.8a6.48,6.48,0,0,1-1-4.9,15.54,15.54,0,0,1,1.75-5.3,33.32,33.32,0,0,1,3.89-5.62,22,22,0,0,1,2.19-2.13,21.76,21.76,0,0,1,2.87-2.1,17,17,0,0,1,3.25-1.55,9.25,9.25,0,0,1,3.25-.59,3.11,3.11,0,0,1,2.47,1.1,3.5,3.5,0,0,1,.52,2.86,6.14,6.14,0,0,1-.5,1.61,9.49,9.49,0,0,1-1.06,1.75Zm-2.08-3.27A7.27,7.27,0,0,0,274,403a16.62,16.62,0,0,0-2.63,2.33,27.91,27.91,0,0,0-4,5.81,20.86,20.86,0,0,0,5.25-3.13,18.89,18.89,0,0,0,4.15-4.72h0a2.69,2.69,0,0,0,.34-.65c.06-.21.12-.39.17-.58S277.22,401.59,276.85,401.7Z"/><path class="cls-8" d="M294.35,413.7c-.74.9-1.57,1.83-2.47,2.77A25,25,0,0,1,289,419a15.44,15.44,0,0,1-3.15,1.88,7,7,0,0,1-3.23.63,3,3,0,0,1-1.55-.43,2.7,2.7,0,0,1-1-1.06,4.31,4.31,0,0,1-.42-1.49,6.81,6.81,0,0,1,.08-1.75,12.5,12.5,0,0,1,.8-2.47,15.16,15.16,0,0,1,1.21-2.2c.47-.69,1-1.36,1.5-2s1.09-1.34,1.67-2l1-1.11v0l1.17-1.35a3.27,3.27,0,0,1,.86-.8,5.93,5.93,0,0,1,1.69-.68l-.92.18a6.4,6.4,0,0,0-.63.14l-1,.24a4.41,4.41,0,0,1-1.2.08h-.4c-.71.9-1.39,1.79-2,2.65l-1.8,2.45v0c-.1.16-.29.2-.58.12a2,2,0,0,1-.76-.42,2.52,2.52,0,0,1-.58-.68.53.53,0,0,1,0-.65v0c.78-1,1.43-1.89,1.95-2.65s1-1.42,1.44-2A2.41,2.41,0,0,1,283,402a5.21,5.21,0,0,1,.88-2.2l1.59-2.23c.24-.34.5-.73.78-1.16a13.14,13.14,0,0,0,.86-1.56q.56.31,1.11.66a4.14,4.14,0,0,1,1,.8,2.71,2.71,0,0,1,.61,1.05,2.85,2.85,0,0,1,.09,1.36c-.06.24-.12.49-.2.77a5.07,5.07,0,0,1-.44,1l-1.68,1.8c-.13.15-.06.18.2.05a13,13,0,0,0,1.17-.61c.51-.3,1.08-.64,1.72-1l1.87-1.19c.61-.41,1.17-.77,1.62-1.12a10.56,10.56,0,0,0,1-.8,1.2,1.2,0,0,1,.58.24,5.22,5.22,0,0,1,.7.54,6.53,6.53,0,0,1,.59.58,2.43,2.43,0,0,1,.3.34,2.14,2.14,0,0,1,0,1.61A9,9,0,0,1,296.2,403a28,28,0,0,1-1.8,2.38c-.7.83-1.44,1.69-2.21,2.57l-1.32,1.43c-.42.48-.85,1-1.28,1.48l-1.07,1.27c-.4.48-.79,1-1.17,1.46a12.46,12.46,0,0,0-1,1.45,3.78,3.78,0,0,0-.48,1.2c-.05.16.07.24.39.24a2.4,2.4,0,0,0,1.17-.3,10.31,10.31,0,0,0,1.56-.95,19.94,19.94,0,0,0,1.71-1.46,15,15,0,0,0,1.63-1.84h0c.69-.84,1.34-1.68,1.95-2.51s1.1-1.52,1.47-2.11a.57.57,0,0,1,.59-.06,2.28,2.28,0,0,1,.76.46,2.33,2.33,0,0,1,.58.74.57.57,0,0,1,0,.69l0-.08-1.43,2-1.88,2.67Z"/><path class="cls-8" d="M332,408.92c-.9,1.56-1.91,3.11-3,4.67a51.89,51.89,0,0,1-3.54,4.42,49.74,49.74,0,0,1-3.91,3.91,30,30,0,0,1-4.13,3.11,18.51,18.51,0,0,1-4.2,2,11.36,11.36,0,0,1-4.09.58,6.67,6.67,0,0,1-2.85-.9,6.39,6.39,0,0,1-2-1.91A7.79,7.79,0,0,1,303,422a11.43,11.43,0,0,1-.23-3.35,24.79,24.79,0,0,1,1.27-5.16,53.57,53.57,0,0,1,2.55-6.06,72.15,72.15,0,0,1,3.59-6.42c1.35-2.17,2.81-4.28,4.38-6.35a63.86,63.86,0,0,1,5-5.8,43.26,43.26,0,0,1,5.3-4.73,27.4,27.4,0,0,1,5.4-3.19,13.28,13.28,0,0,1,5.3-1.17,8.7,8.7,0,0,1,2.59.34,3.52,3.52,0,0,1,1.6,1,2.79,2.79,0,0,1,.69,1.47,6.05,6.05,0,0,1,0,1.9,8.79,8.79,0,0,1-.7,2.29,23.77,23.77,0,0,1-1.29,2.51c-.5.86-1.06,1.73-1.68,2.59s-1.23,1.69-1.87,2.49a4.26,4.26,0,0,1-.52.52,5.31,5.31,0,0,1-.71.54,4.26,4.26,0,0,1-.88.44,2.85,2.85,0,0,1-1,.18,2.81,2.81,0,0,1-1.06-.3,13,13,0,0,1-1.69-1,12.15,12.15,0,0,0,2-1.75c.73-.77,1.46-1.61,2.17-2.52a27.52,27.52,0,0,0,1.94-2.73,15.33,15.33,0,0,0,1.26-2.41c.1-.26.19-.49.25-.67a1.18,1.18,0,0,0,.1-.48.53.53,0,0,0-.29-.68,3.94,3.94,0,0,0-1.22-.28,7.84,7.84,0,0,0-3.55,1.44,28.78,28.78,0,0,0-3.94,3.21,51.72,51.72,0,0,0-4.05,4.32c-1.34,1.6-2.61,3.2-3.79,4.83s-2.25,3.18-3.2,4.67-1.76,2.78-2.34,3.84-1.27,2.44-1.89,3.71a35.06,35.06,0,0,0-1.66,4c-.27.75-.51,1.51-.71,2.28s-.35,1.38-.48,2a8.18,8.18,0,0,0,.08,3.81,2,2,0,0,0,1.95,1.58,7.47,7.47,0,0,0,3.21-.5,15,15,0,0,0,3.31-1.76,27,27,0,0,0,3.25-2.69q1.59-1.51,3.09-3.26t2.79-3.51c.86-1.16,1.64-2.28,2.33-3.35.11-.15.32-.21.64-.17a3,3,0,0,1,.93.28,1.85,1.85,0,0,1,.72.58.44.44,0,0,1,0,.62Z"/><path class="cls-8" d="M343.71,397.6a3.27,3.27,0,0,1,2.33,1.55,6,6,0,0,1,.82,2.79,3.36,3.36,0,0,1,.58,1.36,9,9,0,0,1,.16,1.79,3.41,3.41,0,0,0-.1.64,6.89,6.89,0,0,1-.1.76,15.92,15.92,0,0,1-1,3.5,23.94,23.94,0,0,1-1.75,3.42,25,25,0,0,1-2.34,3.15,19.33,19.33,0,0,1-2.75,2.6,14.4,14.4,0,0,1-2.92,1.75,7.32,7.32,0,0,1-2.91.63,5.91,5.91,0,0,1-4.27-1.71,7.3,7.3,0,0,1-1.75-5.18,7.87,7.87,0,0,1,0-.94c0-.36.06-.68.12-1.06a14,14,0,0,1,1.11-3.5,24,24,0,0,1,2-3.5,22.12,22.12,0,0,1,2.73-3.23,20.69,20.69,0,0,1,3.21-2.61,14.82,14.82,0,0,1,3.41-1.68A8.69,8.69,0,0,1,343.71,397.6Zm-2.79,10.5a.68.68,0,0,1-.42-.58,4,4,0,0,1-.1-1,6.09,6.09,0,0,1,.1-1.13c.06-.39.12-.74.17-1a2.9,2.9,0,0,1,.5-1,6.24,6.24,0,0,1,.82-.88,7.84,7.84,0,0,1,.86-.66c.21-.14.43-.28.65-.4a1.27,1.27,0,0,0-.55-.08,5.51,5.51,0,0,0-2,.77,11.54,11.54,0,0,0-2.2,1.53,17.52,17.52,0,0,0-2,2.22,21.11,21.11,0,0,0-1.65,2.53,19.47,19.47,0,0,0-1.24,2.61,11.33,11.33,0,0,0-.66,2.41,4.58,4.58,0,0,0,.12,2.54A1.75,1.75,0,0,0,335,417a4,4,0,0,0,2-.5,9.38,9.38,0,0,0,2-1.45A17.93,17.93,0,0,0,341,413a23,23,0,0,0,1.69-2.55,21.55,21.55,0,0,0,1.28-2.65,10.82,10.82,0,0,0,.67-2.43l.08-.2a1.53,1.53,0,0,0-.74.26,5.2,5.2,0,0,0-.8.62,6,6,0,0,0-.67.75,3.23,3.23,0,0,0-.42.72Z"/><path class="cls-8" d="M378.19,412.86c-.5.7-1.17,1.54-2,2.51a36.78,36.78,0,0,1-2.7,2.88,19.15,19.15,0,0,1-3,2.37,5.63,5.63,0,0,1-2.91,1,4.37,4.37,0,0,1-1.6-.3,2.79,2.79,0,0,1-1.23-.94,3.71,3.71,0,0,1-.66-1.65,6.56,6.56,0,0,1,.1-2.42,20.82,20.82,0,0,1,.7-2.33,23.67,23.67,0,0,1,1-2.43c.38-.85.86-1.78,1.41-2.77s1.16-2.12,1.83-3.37a11.72,11.72,0,0,0,.8-1.48,5.21,5.21,0,0,0,.4-1.17l-.52.48c-.3.27-.76.66-1.4,1.17-1.16.93-2.18,1.86-3.13,2.77s-1.89,1.93-2.84,3c-.27.45-.52.92-.76,1.39s-.48,1-.72,1.48V413c-.58,1.22-1.1,2.45-1.55,3.69a29.23,29.23,0,0,0-1.12,3.81c-.08.31-.35.46-.8.44a4.21,4.21,0,0,1-1.43-.38,5.68,5.68,0,0,1-1.38-.88,1.32,1.32,0,0,1-.58-1.06,32.06,32.06,0,0,1,2.13-6.54q1.41-3.13,3.09-6.29c.34-.69.66-1.31.94-1.84a8.12,8.12,0,0,1,.58-1,16.31,16.31,0,0,0-2.11,1.48q-1.66,1.39-3.09,2.79c-.94.93-1.91,2-2.89,3.07a55.58,55.58,0,0,0-2.43,5,38,38,0,0,0-1.75,5.21q-.17.44-.84.39a3.83,3.83,0,0,1-1.41-.37,5.26,5.26,0,0,1-1.32-.86,1.33,1.33,0,0,1-.54-1,28.71,28.71,0,0,1,.94-3.5c.38-1.13.82-2.24,1.3-3.35s1-2.19,1.53-3.27,1.09-2.15,1.65-3.25c.64-1.27,1.26-2.51,1.88-3.72s1.16-2.38,1.63-3.5a1.58,1.58,0,0,1,1.17,0,4.43,4.43,0,0,1,1.33.69,5.19,5.19,0,0,1,1.12,1.17,3.46,3.46,0,0,1,.58,1.45,24,24,0,0,1,3.47-2.43,8.18,8.18,0,0,1,3.5-1.11,1.51,1.51,0,0,1,.89.32,3.49,3.49,0,0,1,.84.83,4.69,4.69,0,0,1,.62,1.17,4.3,4.3,0,0,1,.28,1.24,21.93,21.93,0,0,1,3.45-2.44,8.48,8.48,0,0,1,3.57-1.11,1.62,1.62,0,0,1,1.07.49,4.76,4.76,0,0,1,1.48,2.82,2.28,2.28,0,0,1-.24,1.47v0c-.7,1.46-1.35,2.75-2,3.87s-1.21,2.13-1.75,3l-1.17,2.07c-.36.64-.66,1.26-1,1.88s-.55,1.23-.78,1.87-.43,1.31-.61,2l.2-.28a14.86,14.86,0,0,0,3-2,25,25,0,0,0,3.64-3.91,16.22,16.22,0,0,0,1.06-1.41c.33-.49.68-1,1.06-1.54l.64-.87a1.39,1.39,0,0,1,1-.59,1.25,1.25,0,0,1,1.38,1.1h0a1.71,1.71,0,0,1-.4,1.21c-.45.65-.91,1.28-1.37,1.92s-.93,1.28-1.38,1.91Z"/><path class="cls-8" d="M389.39,399.91a17.25,17.25,0,0,1,3.35-1.62,6.55,6.55,0,0,1,3.07-.38,4.83,4.83,0,0,1,2,.76,3.7,3.7,0,0,1,1.17,1.4,4.73,4.73,0,0,1,.43,1.85,10.09,10.09,0,0,1-.15,2.13,15.49,15.49,0,0,1-1.08,3.59,27.16,27.16,0,0,1-2.85,4.85,30.15,30.15,0,0,1-3.79,4.28,22,22,0,0,1-4.32,3.17,12,12,0,0,1-4.47,1.5,5.84,5.84,0,0,1-2.37-.52,4.13,4.13,0,0,1-1.54-1.24l-.2.8c-.1.29-.38.43-.83.4a4.16,4.16,0,0,1-1.42-.38,5.21,5.21,0,0,1-1.31-.86,1.26,1.26,0,0,1-.54-1,29.93,29.93,0,0,1,1.5-4.91,48.88,48.88,0,0,1,2.25-4.94q1.26-2.47,2.75-4.95l2.94-4.9,1.6-2.55c.59-1,1.22-2,1.81-3.09s1.17-2.08,1.72-3.09,1.05-2,1.52-2.92.85-1.81,1.16-2.61a1.79,1.79,0,0,1,1.5,0,4.37,4.37,0,0,1,1.55,1.06,4.76,4.76,0,0,1,1.06,1.66,2.37,2.37,0,0,1,0,1.81c-.19.4-.5,1-.94,1.71s-.93,1.58-1.49,2.49-1.17,1.88-1.75,2.87-1.23,1.95-1.82,2.85Zm-4.63,7.25c-.61,1-1.19,2-1.75,3s-1.09,2.06-1.6,3.09a2.65,2.65,0,0,0-.07.48,4,4,0,0,0,.06,1.75,1.2,1.2,0,0,0,1.21.9,3.69,3.69,0,0,0,2-.58,13.27,13.27,0,0,0,2.39-1.76,25.67,25.67,0,0,0,2.47-2.53,35.4,35.4,0,0,0,2.25-2.92,19.87,19.87,0,0,0,1.69-2.84,10,10,0,0,0,.89-2.44c.12-.82-.13-1.25-.76-1.27a5.77,5.77,0,0,0-2.06.32,11.25,11.25,0,0,0-2.33,1,16.64,16.64,0,0,0-2.34,1.64A19,19,0,0,0,384.76,407.16Z"/><path class="cls-8" d="M414.55,405A23.58,23.58,0,0,1,402,414.5a5.15,5.15,0,0,0,.14,2,1.47,1.47,0,0,0,1.16,1.17l-.08,0a3.52,3.52,0,0,0,1.85-.13,9.19,9.19,0,0,0,2.39-1.13,20.94,20.94,0,0,0,2.74-2.13,29.23,29.23,0,0,0,2.87-3.12c.5-.63,1-1.29,1.45-2l1.34-1.93a1.42,1.42,0,0,1,1-.58,1.25,1.25,0,0,1,.91.26,1.34,1.34,0,0,1,.48.83,1.64,1.64,0,0,1-.38,1.22l-1,1.43q-1.28,1.8-3.08,4a39.1,39.1,0,0,1-4.13,4.21,14,14,0,0,1-2.63,1.75,14.77,14.77,0,0,1-2.34.92,9.78,9.78,0,0,1-1.93.35c-.59,0-1,.07-1.33.07q-3.12,0-4.49-1.8a6.47,6.47,0,0,1-1-4.9,15.69,15.69,0,0,1,1.75-5.3,34.6,34.6,0,0,1,3.89-5.63,22.13,22.13,0,0,1,2.2-2.13,21.83,21.83,0,0,1,2.86-2.09,18,18,0,0,1,3.25-1.56,9.24,9.24,0,0,1,3.25-.58,3.05,3.05,0,0,1,2.47,1.1,3.4,3.4,0,0,1,.52,2.85,5.68,5.68,0,0,1-.5,1.61,9.66,9.66,0,0,1-1.05,1.75Zm-2.08-3.27a7.2,7.2,0,0,0-2.83,1.28,16.19,16.19,0,0,0-2.63,2.33,24.56,24.56,0,0,0-2.27,2.92,25.51,25.51,0,0,0-1.71,2.89,20.86,20.86,0,0,0,5.25-3.13,18.89,18.89,0,0,0,4.15-4.72h0a2.69,2.69,0,0,0,.34-.65c.06-.21.12-.39.17-.58S412.84,401.59,412.47,401.7Z"/><path class="cls-8" d="M430,413.7c-.74.9-1.57,1.83-2.47,2.77a25,25,0,0,1-2.87,2.57,15.44,15.44,0,0,1-3.15,1.88,7,7,0,0,1-3.23.63,3.08,3.08,0,0,1-1.56-.43,2.75,2.75,0,0,1-1-1.06,3.92,3.92,0,0,1-.42-1.49,6.81,6.81,0,0,1,.08-1.75,12.47,12.47,0,0,1,.82-2.46,15,15,0,0,1,1.17-2.21c.47-.69,1-1.37,1.49-2s1.09-1.35,1.68-2l1-1.12V407l1.16-1.36a3.64,3.64,0,0,1,.86-.8,6.18,6.18,0,0,1,1.69-.68c-.37.09-.67.14-.91.19a4.56,4.56,0,0,0-.64.14l-1,.23a4.1,4.1,0,0,1-1.16.08h-.4c-.72.91-1.4,1.79-2,2.65s-1.24,1.68-1.8,2.46v0c-.1.15-.29.19-.58.11a1.9,1.9,0,0,1-.76-.42,2.37,2.37,0,0,1-.59-.67.54.54,0,0,1,0-.66v0c.78-1,1.43-1.9,2-2.65s1-1.43,1.44-2a2.35,2.35,0,0,1-.13-1.59,5.25,5.25,0,0,1,.88-2.19c.45-.64,1-1.38,1.6-2.23.24-.35.49-.73.77-1.17a13.14,13.14,0,0,0,.86-1.56l1.12.66a4.7,4.7,0,0,1,1,.8,3,3,0,0,1,.58,1.06,2.68,2.68,0,0,1,.08,1.35,7.49,7.49,0,0,1-.2.78,4.42,4.42,0,0,1-.43,1l-1.6,1.81c-.14.16-.07.18.2.06a12.91,12.91,0,0,0,1.16-.62c.51-.29,1.08-.64,1.72-1l1.87-1.2c.59-.4,1.17-.77,1.62-1.12a9.28,9.28,0,0,0,1-.79,1.06,1.06,0,0,1,.59.24,7.15,7.15,0,0,1,.7.53,6.37,6.37,0,0,1,.58.59,1.63,1.63,0,0,1,.3.34,2,2,0,0,1,0,1.61,9.45,9.45,0,0,1-1.05,2,28,28,0,0,1-1.8,2.38l-2.21,2.56c-.45.48-.89,1-1.31,1.44s-.86,1-1.28,1.48l-1.08,1.27c-.39.48-.78,1-1.16,1.46a10.71,10.71,0,0,0-1,1.45,3.69,3.69,0,0,0-.48,1.2c-.06.15.08.24.4.24a2.33,2.33,0,0,0,1.16-.3,9.61,9.61,0,0,0,1.56-1,18.3,18.3,0,0,0,1.71-1.46,15,15,0,0,0,1.64-1.83h0c.69-.85,1.34-1.69,2-2.51s1.1-1.53,1.48-2.11a.51.51,0,0,1,.58-.06,2.25,2.25,0,0,1,.76.45,2.36,2.36,0,0,1,.58.75.57.57,0,0,1,0,.69l0-.08-1.43,2-1.88,2.68Z"/><path class="cls-8" d="M349.09,449.23v1.08h-1.42v2.17h1.42v1.09h-2.64V446h2.64v1.07h-1.42v2.17Z"/><path class="cls-8" d="M353.47,448.14h-1.22v-.51a.49.49,0,0,0-.18-.38.67.67,0,0,0-.86,0,.49.49,0,0,0-.18.38v1.17a.46.46,0,0,0,.16.34.57.57,0,0,0,.38.14H352a1.48,1.48,0,0,1,1,.37,1.18,1.18,0,0,1,.41.9V452a1.47,1.47,0,0,1-.53,1.17,2,2,0,0,1-2.58,0,1.51,1.51,0,0,1-.54-1.17v-.53H351V452a.5.5,0,0,0,.18.39.67.67,0,0,0,.86,0,.52.52,0,0,0,.17-.39v-1.16a.4.4,0,0,0-.15-.34.57.57,0,0,0-.38-.14h-.47a1.39,1.39,0,0,1-1-.38,1.15,1.15,0,0,1-.42-.89v-1.44a1.5,1.5,0,0,1,.53-1.17,2,2,0,0,1,2.59,0,1.5,1.5,0,0,1,.53,1.17Z"/><path class="cls-8" d="M357.87,447.05h-1.19v6.5h-1.22v-6.5h-1.22V446h3.65Z"/><path class="cls-8" d="M359.84,453.57h-1.22v-1.09h1.22Z"/><path class="cls-8" d="M367,447.93a4.76,4.76,0,0,1-.43,1.82,9,9,0,0,1-.93,1.65l-.17.32-.27.35-.33.45H367v1.07h-3.64a3.24,3.24,0,0,1,.67-2l.13-.18.41-.55.4-.54a3.87,3.87,0,0,0,.81-2.38v-.33a.46.46,0,0,0-.17-.38.68.68,0,0,0-.87,0,.49.49,0,0,0-.17.38v.54h-1.21v-.54a1.47,1.47,0,0,1,.53-1.17,2,2,0,0,1,2.58,0,1.47,1.47,0,0,1,.53,1.17Z"/><path class="cls-8" d="M370.15,446.07a1.8,1.8,0,0,1,.88.58,1.42,1.42,0,0,1,.34,1v4.33a1.48,1.48,0,0,1-.54,1.17,1.64,1.64,0,0,1-.68.38,2,2,0,0,1-1.22,0,1.73,1.73,0,0,1-.87-.58,1.37,1.37,0,0,1-.34-.95v-4.32a1.5,1.5,0,0,1,.53-1.17,2,2,0,0,1,1.9-.38Zm0,5.87v-4.31a.46.46,0,0,0-.18-.38.66.66,0,0,0-.86,0,.49.49,0,0,0-.18.38V452a.49.49,0,0,0,.18.38.62.62,0,0,0,.43.16.65.65,0,0,0,.44-.16A.49.49,0,0,0,370.15,451.94Z"/><path class="cls-8" d="M375.78,453.57h-3.66v-1.08h1.22v-5.13a.25.25,0,0,0-.1-.21.32.32,0,0,0-.22-.1h-.45V446h.73a1.27,1.27,0,0,1,.9.34,1.06,1.06,0,0,1,.38.81v5.36h1.22Z"/><path class="cls-8" d="M379.64,446.46a1.48,1.48,0,0,1,.54,1.17v.86a1.73,1.73,0,0,1-.59,1.31h0a1.73,1.73,0,0,1,.59,1.31V452a1.45,1.45,0,0,1-.54,1.16,2,2,0,0,1-2.58,0,1.47,1.47,0,0,1-.53-1.16v-.86a1.77,1.77,0,0,0,0-2.62v-.86a1.5,1.5,0,0,1,.53-1.17A2,2,0,0,1,379.64,446.46Zm-.68,2v-.86a.46.46,0,0,0-.18-.38.66.66,0,0,0-.86,0,.49.49,0,0,0-.18.38v.88a.62.62,0,0,0,1.22.23.89.89,0,0,0,0-.23Zm0,2.92v-.34a.62.62,0,0,0-1.22-.17v1a.49.49,0,0,0,.18.38.63.63,0,0,0,.86,0,.46.46,0,0,0,.18-.38Z"/></g></svg>