<svg xmlns="http://www.w3.org/2000/svg" viewBox="0 0 792 792"><defs><style>.cls-1{fill:#ffa951;}.cls-2{fill:#ff975e;}.cls-3{fill:#ff7f54;}.cls-4{fill:#fa6d6f;}.cls-5{fill:#f95c5c;}.cls-6{fill:#e54b4b;}.cls-7{stroke:#000;stroke-miterlimit:10;stroke-width:2.58px;}.cls-8{fill:#fff;}</style></defs><g id="Layer_3" data-name="Layer 3"><path class="cls-1" d="M607.21,134.41H188.09a331.36,331.36,0,0,1,419.12,0Z"/><path class="cls-2" d="M630.8,155.64H164.5a332.1,332.1,0,0,0-60.88,82.54H691.68A332.1,332.1,0,0,0,630.8,155.64Zm-465.45,2,3-.86C167.69,158.36,166.87,159.21,165.35,157.66Z"/><path class="cls-3" d="M729,391.08a331.94,331.94,0,0,1-2.46,40.48H68.76a334,334,0,0,1-2.46-40.48A330.29,330.29,0,0,1,89,270.41H706.34A330.49,330.49,0,0,1,729,391.08Z"/><path class="cls-4" d="M723.11,453.57a327.94,327.94,0,0,1-18,61.32H90.22a328,328,0,0,1-18-61.32Z"/><path class="cls-5" d="M690,547.12a332.05,332.05,0,0,1-61.63,81.76H166.91a332.3,332.3,0,0,1-61.63-81.76Z"/><path class="cls-6" d="M603.31,650.89a331.37,331.37,0,0,1-411.31,0Z"/><path d="M536.87,476.7v0l0,0Zm8.79,5.46,0,0h.06ZM548.81,496h0Zm44.87-74.9-.39.75.56-.53ZM636.6,407.2v0h0Zm-90.94,75,0,0h.06Zm0,0,0,0h.06Z"/><path d="M605.56,388.5c1.77.17,3.56.22,5.31.54,7,1.24,14.85,5.78,16.83,15.65.09.44.21.88.36,1.49l1.81-1a25,25,0,0,1,7.67-3,20.9,20.9,0,0,1,17.13,4,31,31,0,0,1,12,19,14,14,0,0,1-.18,6.61,8.7,8.7,0,0,1-.44-1.1c-2.73-9.59-9.39-15.05-18.72-17.54a26.56,26.56,0,0,0-5.87-.41c-8.25-.32-14.63,3.19-19.58,9.61a7.05,7.05,0,0,1-.49.53c.76-10.65-3.12-18.79-12.11-24.19s-18-5-27,0c.2-.24.39-.5.61-.73a30.63,30.63,0,0,1,16.57-9,42.79,42.79,0,0,1,4.4-.37c.3,0,.6-.07.91-.1Z"/><path d="M507.06,509.61c.19-1.61.29-3.23.57-4.83,1.38-8.09,8.37-20.29,21.25-23.27,5.78-1.33,11.24-.58,16,3.2.49.39,1.05.7,1.7,1.13.2-.54.35-.93.48-1.32,1.82-5.39,4.73-10,9.72-13a23.15,23.15,0,0,1,14.06-3.06,31.49,31.49,0,0,1,17.47,6.63,13.31,13.31,0,0,1,4.33,5.26c-8.85-6-18-6.77-27.26-1.55s-13.6,13.22-13,24c-.18-.23-.37-.43-.53-.66-9.75-13.59-29.24-12.91-39.37-1.54a23.8,23.8,0,0,0-4.93,8.85c-.16.49-.38,1-.58,1.44Z"/><path d="M607.24,482.44c-5.28-18.1-17.46-28.77-35.69-31.87s-33.21,3.19-44.09,18.49l-.17-.14c.19-.6.36-1.2.57-1.79A50.55,50.55,0,0,1,545.18,444a51.68,51.68,0,0,1,23.43-10.37c8.11-1.26,16.17-.95,23.79,2.75a33.58,33.58,0,0,1,13.68,12.52c.5.78,1,1.56,1.47,2.34,0,0,.06,0,.09,0,1.27-1.57,2.46-3.2,3.82-4.68,3.5-3.81,7.22-7.38,11.87-9.82a36.58,36.58,0,0,1,22.48-3.92c15.85,2.15,32,13.42,39.07,27.52a66.13,66.13,0,0,1,2.83,7.94,6.38,6.38,0,0,1,.14,1.08l-.22.14c-.33-.43-.68-.84-1-1.29a43.19,43.19,0,0,0-9-9.65,41.36,41.36,0,0,0-23-8.7,46.21,46.21,0,0,0-22.24,3.59c-12.26,5.46-20.59,14.4-24.4,27.37-.14.47-.3.93-.45,1.39Z"/><path d="M616.77,271.28A18.42,18.42,0,0,0,610,260c-3.25-2.66-6.82-4.94-10.88-7.84,7.09.5,12.18,3.83,17.36,7.19a37.52,37.52,0,0,0-14.19-15.17c-6.05-3.68-12.45-6.77-18.89-10.22,8.46-.13,16,2.83,23.43,6.2C598.06,230,585.76,227,572.68,224c6.65-3.59,13-1.86,19.41-1.51-4.58-2.69-20.81-5.6-30.08-5.58a91.67,91.67,0,0,0-30,5.51c3.32-4,8.07-5.19,12.72-6.57-.09-.3-.17-.6-.26-.9l-26.39,7.17-6.52-6,13.73.77-4.21-5.27,8.26,2.67.43-.48-7.43-6.12c2.85-1,2.85-1,14.58,4.72l.72-.63c-3-3.38-6-6.77-9.07-10.22,4.79-1,9.4.14,14.39,2.76-2.78-5.47-6.45-8.8-12-10.11,4.18-3,6.74-2.64,12.94,2.25a34,34,0,0,0,.24-5.54,36.19,36.19,0,0,0-1.46-5.4c4.21,2.15,5,4,5.59,11.59,4.21-3.26,6.32-9.64,6.27-19.29,3.75,3.3,4.34,7.56,5.32,12.12a28.29,28.29,0,0,0,1.16-5.19,34.59,34.59,0,0,0-.71-5.79c5.87.88,10.36,3.73,14.55,7.38-1.27-5.1-5.29-7.56-9.6-10.3l14.37-1.35.12-.44-12.52-3.42,20.88-9.47c-8.52.47-15.91,3.17-23.64,5.57,2.43-2.54,4.85-5.09,7.46-7.81-5.82-.35-10.23,3.1-15.64,5.39,3-6.11,8.57-8.49,12.77-12.41a54.48,54.48,0,0,0-17.18,8.73c-5.18,3.81-10.08,8-15.54,11.74,4.34-5.71,8.67-11.42,13.26-17.44-1.52.93-2.92,1.7-4.22,2.6-16,11.1-29.47,24.88-42.55,39.14a27,27,0,0,1-2.84,2.34s0,0,0,.06l.09,0-.11,0a3.06,3.06,0,0,1-.38,1.35c-1.82,2.23-3.68,4.43-5.61,6.57a200.8,200.8,0,0,1-14.54,15c.46-1,.83-2,1.38-2.92,3.25-5.39,6.41-10.83,9.9-16.05.81-1.22,2.71-1.84,4.22-2.45a47.65,47.65,0,0,1,5-1.48s0,0,0-.06c-1.25-.49-2.5-1-3.74-1.47a17.15,17.15,0,0,1-1.85-1.13L506.66,191c-4-1-8-.86-10.46-4.6,4.39-3.6,9.61-4.1,15.57-4.29l-9.81-7.3c.05-.38.12-.76.18-1.14l16.93-2.13-6-3.64,9.81-1.68-7-5.27c.09-.3.19-.59.29-.89L532,158.35c-5.69-2.92-11-5.62-16.27-8.32l.36-.62,17.06-2.52L528,143c.08-.33.17-.66.25-1l10.12-1.27c-1.87-1.6-3.34-2.86-4.83-4.12,0-.26.06-.51.1-.76h12c.06-.37.11-.75.16-1.12l-12.68-4.5c0-.21,0-.42,0-.63l18.2-1.1c-2.08-2.12-2.75-2.32-14.22-4.62l27.38-13.23c-8.37.29-16.59,1-24.58,4.42.72-1.24,1.45-2.48,2.42-4.13a64.67,64.67,0,0,0-20,11.08q2.67-4,5.36-8c-10.31,5.18-16.17,14.53-22.57,23.68q1.81-6.7,3.62-13.41l-.43-.37c-2.12,3.38-4.81,6.55-6.25,10.22-2.48,6.31-4.17,13-6.25,19.43a61.31,61.31,0,0,1-2.49,6.88c-5.19,11.22-10.46,22.4-15.7,33.59a2.46,2.46,0,0,1-1.15,1.28c.3-3,.55-6,.88-8.95,2.9-26.21-.77-51.22-13.28-74.73-4.51-8.47-9.42-16.43-18.29-21h-.64c.71,1.18,1.34,2.4,2.13,3.5,4.4,6.07,8.12,12.46,10.16,20.72C446.54,103.11,435,95,418.76,98.42c2.45,1,5.05,1.52,7.55,2.37s4.78,2,7.16,3c-15.39-3.15-35.63-.13-39.92,2.72,7.14.45,14.3.57,21.05,4.3L400,112.06a83.54,83.54,0,0,1,29.53,10.27H417.78L438,132.86l-11.71,2.31c0,.31.07.62.11.93a27.47,27.47,0,0,1,18.58,8.44c-6.74-2-12.66-2.54-18.51-.07,11.56,1.81,22.69,4.53,31.86,12.37-11.47-2.6-22.9-4.77-34.74-2.42,10.41,2.87,20.83,5.63,29.37,13.42-9.25,0-18,0-26.67-.05a3,3,0,0,1-2-1.13c-4.2-5.89-8.45-11.76-12.43-17.81-2.56-3.91-4.51-8.24-7.12-12.12-1.78-2.65-4.24-4.85-6.39-7.25l-.57.45q1.49,7.08,3,14.15l-1.08.27-13.44-16.61c-.17.12-.34.26-.5.39l4,9.94c-6.57-5.54-13.38-9.52-21.91-9.74,5.69,4,11.83,7.47,15.55,14.76-11.08-4.45-21.08-10.76-32.59-6.35l14.71,7.47-.3,1a58.36,58.36,0,0,0-27.89-1.13l19.64,6.05c-9.94.9-19.21,2.44-26.68,9.39,6.57-1.84,13.16-3,20.8-2.11-5.75,2.95-10.83,5.53-13.66,10.69l8.73,1.09.45,1.34-8.21,9.72.37.71,22.28-13.15.43.21-9.48,14c.1.2.21.39.32.6l11.86-7.1-2.64,8.83c3.34-2.29,6.52-4.93,10.11-6.8,3.82-2,8-3.27,12.18-4.91l-3.12,6.79c3.94-3,6.86-6.42,11.86-5.59-.85,5.94-4.68,9.86-8.84,14.16l18-4.87.37.78-9.65,9,8.78-2.54.27.53-4.72,4.47,14,.94-4.27,4.79c3.42,1,6.52,2.26,9.74,2.81,5.43.92,5.52.84,2.62,5.86-.46.78-1,1.51-1.27,1.9-8.48-4.58-16.49-9.57-25-13.34a205,205,0,0,0-26.21-9.1,85.35,85.35,0,0,0-27.59-3c7.41,2,14.24,4.93,20,10.19-6.45-2.25-12.81-3-19.87.35,7.46.76,14.32.86,20.42,5.17-14.81,1.16-21.24,3.65-23.24,8.83l12.13-3.74L341,214.85l.67.81c5.18-3.26,10.83-4.47,17.24-4.4-2.66,1.77-5.06,3.12-7.17,4.83s-4,3.79-5.92,5.7c9.67-4.12,15.27-5.41,18.83-3.84-1.8,1.47-3.57,3-5.46,4.39a5.55,5.55,0,0,1-2.55,1c-5.93.64-11.89,1.13-17.82,1.8-17.88,2-34.74,6.56-48.53,19.14-2.87,2.61-6.59,4.28-9.92,6.38L278.11,252c9.34-.8,16.34-5.62,23.85-9l.51.8-34.22,32.2c6.8-1.58,12.69-5.37,18.11-9.86,6.57-5.45,12.9-11.17,19.36-16.76,1-.9,2.18-1.66,3.28-2.5l1.05,1q-8.9,12.49-17.81,25l.5.55,17.74-16.85.6.3c-1.59,3.5-3.19,7-4.91,10.74,8.95-5.41,13.73-14.11,18.8-22.6-.41,9.16-3.76,17.19-8.29,24.94a103.73,103.73,0,0,0,9.85-12.77c3-4.58,5.46-9.42,8.17-14.14l1.54.75-8.56,22.11.42.41,14.38-17.38c-1.29,3.58-2.41,6.66-3.51,9.73l1,.82q4.92-4.68,9.85-9.35l1.36-2.62.59.76L349.82,250c-.81,1.54-1.61,3.09-2.35,4.67-1.15,2.47-2.13,5-3.18,7.53,5.94-6.47,12-12.31,20.13-16.6-2.23,4.83-4.2,9.13-6.22,13.41a1.89,1.89,0,0,1-1,.76q-12.67,5.71-25.35,11.38l-1.77.8c.05.17.09.35.13.52h8.22c-31.85,21.22-50.92,66.89-47.31,85,1.75-9.16,2.52-18,8.77-25,.38,3,.73,5.7,1.07,8.41h.8c1.85-7.58,4.09-15,9.74-20.75l-.93,8.48c2.21-4.18,3.95-8.38,5.93-12.45.9-1.85,2.32-3.35,4.37-1.87l6.78-17.73c.15.1.31.19.46.3.16,2.94.32,5.89.47,8.76,3.94-6.36,7.68-12.4,11.75-19,1,4.67,1.77,8.42,2.71,12.12.55,2.18.18,3.44-2,4.54a35.86,35.86,0,0,0-11.79,9.48L341.53,308c-2.42,3-5.29,5.23-7.89,7.71a72.58,72.58,0,0,0-7.58,8.21,96,96,0,0,0-5.45,8.86l1,.72c1.12-1.29,2.15-2.67,3.38-3.84a41.72,41.72,0,0,1,3.65-2.82,62.11,62.11,0,0,0-8.6,20.55l3.64-2.47c-2.69,8.26-2.43,16.42-1.74,24.63,2.86-9.65,5.93-19.16,10.29-28,1.5,4.69,3,9.22,4.42,13.76l.73-.29V336.29L343.19,349l.53-.28c-.25-4.05-.48-8.11-.73-12.16l1.66-1q1.5,2.52,3,5c.31-.17.63-.36.94-.55v-9.58l.77-.25,4.1,4.7c.33-6.26.62-11.78.9-17.31l.59-.38c3,5,6.07,9.93,9.62,15.73V316.55l.85-.38,5.73,6.59c.2-3.56.36-6.54.57-10.31l3.74,5.34,1-.26V301.25q.5-.13,1-.3l7.89,8.94c-.39-5.95-.44-11.2,2.58-15.83l1.21-.33c1.52,3.21,3,6.42,4.47,9.47,1.24-3.76,2.52-7.66,4.1-12.49,1.34,2.44,2.14,3.92,3.3,6a44.54,44.54,0,0,1,.65-5.47c.42-1.58.77-3.63,1.89-4.52,6.79-5.34,13.76-10.42,20.72-15.54a23.6,23.6,0,0,1,3.2-1.67l.63.66a23.88,23.88,0,0,1-1.85,2.94c-14.05,16.48-28,33-42.26,49.36-6,6.9-12.44,13.47-19,19.88-7,6.89-14.43,13.41-22,20.36L360,358c.24.33.48.65.71,1l-14.26,18.29.69.83c5.63-4.07,11.24-8.15,16.68-12.1-3.91,9.08-7.29,18.66-4.9,29.18,2.74-10.91,5.74-21.71,10.8-31.91,0,4.34-.16,8.47.05,12.58.31,6.1,1.45,9.55,3,11.28.41-4.91.84-10.22,1.27-15.53h1q2.46,8.21,4.94,16.41c1.75-6.77.45-13.48-.18-20.2a73.21,73.21,0,0,1,4.34,8.56,6.45,6.45,0,0,1,.29,4.29c-16.79,42.58-31.18,86-44.05,129.85-.57,2-1.21,3.89-1.82,5.83l-.92.18-17.89-32.09.71-.44c4.84,4.51,9.09,9.78,15.54,12.23-9.7-9.56-14.57-23.75-28.58-29,1.89-8.1-.57-14.67-6-21.06,6.14,1.12,10,4.59,13.9,8l.67-.61L308.74,443l.15-.55,12.51,7.46c-1.1-2.33-2.2-4.65-3.63-7.69l9,6a13.42,13.42,0,0,0-6.66-8.16c-3-1.76-6.3-3.08-9.46-4.59l.11-1,16,1.21c-4-3.47-8.91-4.41-14.2-4.4,0-.37,0-.75,0-1.12l16.44-2.63c-16.9-5-34-5-51.13-1.62s-33.15,9.79-48.51,18.07c4.77-4.53,8.88-9.88,16-11-.36-1.71-.68-3.2-1-4.83l5.74.79-2.51-6.86,12.24-2c-1-1.39-1.88-2.58-3.11-4.27h11.18l-2.86-3.53c.13-.16.26-.32.38-.49l6.35,2.23-7.36-7.9.44-.61,14.2,4.95c-3.26-4-6-7.32-6.22-11.79l.83-.92c2.66,1.64,5.33,3.26,8,4.9-.5-1.46-1.05-3-1.81-5.26,5.9,4.69,13.69,5,17,12.08l.64-.55c-.51-2.46-1-4.92-1.49-7.19l8.92,6.15c.11-.17.24-.34.36-.51l-6.48-11.5.5-.13,16.85,11.64.3-.6-5.84-8.34.57-.93,6.71-.46c.22-.23.42-.46.63-.7l-9.6-8.71,0-.68,15.82,3.37c-5.83-5.93-13.44-7.79-21.59-9.05l16.37-3.73a44.36,44.36,0,0,0-22.51-.85c-.09-.25-.17-.5-.25-.75l12.29-5.31c-9.39-4.08-17.77.36-26.9,3.24,3.43-5.61,8.55-8,13.27-11-7-.48-12.53,2.68-18.09,6.43q1.81-3.78,3.65-7.56l-.45-.37L268.73,374l-.86-.43q1.63-5.58,3.26-11.16l-1-.64c-3,3.69-6,7.29-8.89,11.06-3.13,4.17-5.62,8.92-9.17,12.68-9.83,10.42-17.52,22.29-24.52,34.66-3.39,6-6.41,12.16-9.81,18.65-2.25-11-.65-20.65,6.78-28.37l-6-3.14c1.43-2,2.84-4,4.3-5.89a3.79,3.79,0,0,1,1-.73l5.68-3.53c-.06-.25-.13-.49-.2-.74l-10.9-.61c3.85-5,9.61-5.6,14.89-7.13,0-.28-.07-.57-.1-.85h-16.8c8.09-5.34,17.26-6.82,26.41-8.39l-.12-1.11H216c6.77-6.25,15.09-8.65,23.38-11.21-9.26-1.65-18.22.12-27.22,1.92,7.18-6.26,16-8.32,25-9.9,0-.3-.1-.59-.14-.88H222.75a53.87,53.87,0,0,1,6.8-4.15,57.25,57.25,0,0,1,7.74-2.21l.15-.5L228,349.46l16-8.62-.12-.48-9.09.49c7.54-4.71,15.36-6.93,23.39-8.76l-11.67-.92a26.05,26.05,0,0,1,4-1.62c4.37-.88,8.76-1.63,12.84-2.38-5.71-2.62-15.81-3-32-1.81l11.55-4.13-.09-.87c-3.42.22-6.9.11-10.25.71-8.54,1.5-14.5,7.24-20.72,13.77,1.71-7.66,5.52-13.43,9.24-19.28-13.15,7-15.83,20.94-21.94,33.22-1.16-4.33-2.75-8.16-3.1-12.1-.43-5,.27-10,.3-15,.07-9.62,0-19.24,0-28.86l-.42-.06-1,21.74-.44,0q-.71-5.17-1.39-10.37h-.46v21.29c-1-4.19-1.73-7.49-2.5-10.8-.22.06-.44.1-.66.14q.6,7.13,1.21,14.25l-.44.07-2.53-5.8c.33,3.4.58,5.92.83,8.44l-1,.14-7.38-25-.53.1c.48,3.66,1,7.31,1.52,11.4l-7.14-19.8-.78.28q1.17,5.19,2.35,10.39c-1.9-3.25-3-6.7-4.44-10-1.35-3.15-3-6.16-4.56-9.24l-.78.38.6,1.41q9.51,23.56,19,47.15a11.51,11.51,0,0,1,.93,4.95,109.75,109.75,0,0,0,1.18,23.68,22.71,22.71,0,0,1,0,3.49c-10.77-17.83-12.87-38.6-18.25-58.38l-1,.22q2.35,10.8,4.73,21.6l-.27.11q-2.06-4.77-4.12-9.54l-.89.27c2,6.92,4.07,13.84,6.17,20.94-1.92-3.74-3.74-7.32-5.56-10.89l-.7.33c.79,2.17,1.58,4.34,2.62,7.18l-11-9.12c2.23,4,5.84,7,6.68,12.39-8.52-6.89-16.48-13.48-27.44-14.05,5.92,3.08,11.44,6.6,15.45,12.09-10.19-5.31-20.25-10.87-32.39-8.84,4.4,1.9,9.06,3.3,12.73,7.5-16.17-3.9-16.17-3.9-19.31-2.15l11,3.36c-6.62,2-8.82,3.11-10.44,6,5.25-1,10.28-.94,14.78,1.66-2.9.93-6,1.34-8.38,2.84s-4.09,4.09-6.24,6.34l-11.11-6.51c-.14.22-.29.44-.43.67l9,7L93.86,352l-.41.81,8.31,5.58-.19.28L81.5,350.24l-.4,1c3.41,1.48,6.85,2.88,10.22,4.43s6.7,3.28,10.09,4.84,6.86,2.95,10.26,4.47,6.89,3.41,10.47,4.76c3.13,1.18,5.38,3.71,8.75,4.69s6.51,3.36,10.12,5.33l-5.1,1.39c4.52,1.93,9.16,2.64,11.86,7.31-7.77-.78-15.32-2.26-21.15,3.65l9.84,1.9c-6.43,1.43-12.24,3.42-17.51,7.26l13.28-.61c-3.8,2.48-7.13,4.37-10.11,6.71-1.59,1.25-2.67,1.23-4.49.65-4.45-1.43-9-2.42-13.55-3.58-.07.3-.15.6-.23.9l9.33,4.82c-9.05-1-17.85-2.5-27.21,1l8.29,1.1-16.84,5.44.24.92,2.5.64L65,431l.51.62c7.35-3.06,14.71-6.11,22.46-9.32l-5.85,10.87c.36.24.72.49,1.07.75l9.65-10.59.57.56-3.77,10,.44.15,7.17-7.63c.12,2.42.19,3.92.28,5.66l6.89-5.84c-.17,2.56-.27,4-.41,6.16l10.55-8.8.65.14-3.55,14.14L122,428.63c-.23,3.22-.38,5.36-.57,8,2.21-1.81,4-3.29,6.39-5.21-.44,2.31-.71,3.79-1.07,5.69l10.37-9.06.82.46c-.23,3.09-.45,6.17-.69,9.38,8.1-6.33,8.1-6.33,11.77-6.29-1,2.79-1.87,5.37-2.81,8.05l9.57-4c-.78,2.27-1.2,3.47-1.61,4.65l.06,0c5.81-5.08,12.26-2.62,18.58-1.49a22.24,22.24,0,0,1,6.75,2.17c-8.09,0-16.18,0-24.27,0-.35,0-.7-.42-1.06-.65l-.08.07,0-.05a15.63,15.63,0,0,1-2.62.64c-11.8.87-23.62,1.5-35.4,2.61-5,.48-10,1.91-15,2.9.07.2.13.39.18.58l16.76,1.41c-18.23,3.31-25.95,5.47-30.49,9.19,4.79-.77,9.19-2.8,14.1-1.52l-11.54,6.15c.15.21.29.42.42.62h8.33l-15.17,9.84c.15.26.31.52.47.78l15.85-7L95.9,475.2l.44.23,8.65-7.82c-1.23,4.62-1.87,8.21.09,11.56q1.56-6.3,3.1-12.53l7.25,5.79.59-.74c-3.91-4.33-4.65-5.87-4.17-8.92,4,4.24,8.79,6.48,15.47,6.55-3.81-2.74-5.91-5.53-5-9.69l6.11,6.81c.65-7.18,1.67-8.73,5.38-9.19-1.73,5.45-1.7,8,.13,11.39,3-6.82,3.57-7.58,6.55-8.95,0,2.11-.47,4.28.11,6.11.88,2.77-.35,3.7-2.47,4.86-8.21,4.43-16.31,9-24.47,13.61,1-.06,2-.15,3-.18s2,0,2.74,0c-20.39,19.31-33.68,42-33.46,71,1.54-6.54,1.34-13.68,6-19.51.57,2.32,1.06,4.31,1.54,6.3,1.78-6.18,3-12.26,7.25-18v7.93c2.49-4.84,1.42-11,7.65-13.35,1.27-4.23,2.69-8.94,4.1-13.66l.57.17c.3,2.19.6,4.37.91,6.6,2.83-5.36,5.53-10.46,8.46-16,1.42,4.8,2.61,8.82,3.65,12.32,1.94-3.92,3.75-8.11,6.07-12,.78-1.31,2.81-1.87,4.28-2.77.84,1.5,2.06,2.91,2.43,4.52a38.75,38.75,0,0,1,.42,6.67l.83.16,3.87-8.67c.65,2,1.22,3.74,2.06,6.28.71-3.38,1.23-5.84,1.91-9.09,1.22,2.39,2,3.92,2.94,5.77l3.48-11.33c1.7,2.05,2.61,3.15,3.45,4.18,2.13-2.89,3.82-6.08,6.35-8.35s5.91-3.63,8.25-5c-8.57,11-17.6,22.17-26.2,33.69a102.68,102.68,0,0,1-11.86,13.74c-3.54,3.31-6.35,7.42-9.29,11.32-1,1.31-1.4,3.07-2.3,5.17,3-2.85,5.48-5.22,8-7.57-3.89,8.12-8.14,15.9-8.23,26l3.71-7.32V571l1.8-2.32c1.86,6.17,3.74,12.4,5.63,18.64l.46-.21v-23.7l7.14,8.32c.16-.17.32-.35.47-.53q-2.85-6.68-5.72-13.36l.82-.47c2.38,2.67,4.75,5.34,7.14,8l.7-.59-4.46-9.55,5.38,2.08c-1.06-2.88-2-5.31-2.85-7.73l.67-.49,4.48,2.07c-1.59-4.74-2.94-8.8-4.3-12.86.16-.19.31-.38.46-.58l11.36,8.41c-1.64-4.4-3.08-8.27-4.51-12.13l.67-.42,6.09,3.09c-.91-2.8-1.63-5-2.56-7.86l4.8,3.12c-1.72-4.76-3.23-9-4.73-13.13l.88-.47,8.47,4.3c-1.92-4.48-3.72-8.33-2.53-13.92l6.81,6.23c-.15-3.16-.3-6.44-.49-10.47,1.77,1.43,2.75,2.21,4.06,3.28a31.13,31.13,0,0,1-.84-3.74c-.15-1.53-.64-3.4,0-4.58,3.06-5.61,6.42-11.05,9.77-16.49a45.43,45.43,0,0,1,3.35-4.26c-5.13,14.39-10.19,28.63-16.28,42.43s-13.18,27.1-19.6,40.17L159.54,554l.84.59-6,17.37.85.48,9.39-13.13c-.51,8.27-.64,16.26,3.62,23.72v-27.4c2.54,6.19,3.68,12.82,8.87,17.75-1-4.33-2-8.36-2.94-12.39l.82-.32,7.77,10.81.89-.48-5.48-13.81,9.17,7.66c.12-.18.25-.36.37-.55L179,552.11l.52-.34,8.16,6.05.25-.47-7.56-10.84.93-.73,10.67,10,.79-.47-9.39-16.81,6.53,4.57-3.49-8.29.43-.35,7,6.27.58-.26q-3.69-9.13-7.4-18.28l.86-.46,5.22,4.83.51-.29-3.48-10.5,3.66,2.27c-1.83-5.94-3.42-11.07-5.24-16.95,2.74,2.43,4.86,4.31,7,6.2v-.05a.06.06,0,0,1,0,0c-1.52-4.81-3.13-9.6-4.5-14.44a8.59,8.59,0,0,1,.36-4.9L194.8,494a63.72,63.72,0,0,1,3.81-22.22l1.11.08a22,22,0,0,1,0,2.44q-1.68,14.74-3.41,29.48c-.14,1.12-.48,2.22-.71,3.35a.56.56,0,0,0,0,.12l-.05,0a29.34,29.34,0,0,1,.6,4c.35,16.19,2.53,32.11,7.59,47.53,2.19,6.63,4.92,13.09,7.39,19.63l.84-.25c-1.28-5.89-2.52-11.79-1.36-17.85,1.45,5.83,3.65,11.18,8.46,16.08-1.36-3.63-2.61-6.45-3.47-9.38s-1.28-5.84-1.9-8.76c2.67,3.3,4.66,6.8,7,10.06a19.69,19.69,0,0,0,9.67,7.71l-8-10,8.08,3.84-10.05-13.58.53-.26,11,7.59c.2-.26.39-.52.59-.77-4.23-4.14-8.12-8.51-10.79-14.78,10.58,7.14,15.84,8.59,20.6,5.84-9.08-2.95-15.09-9.2-19.73-17.47l8.26,1.11-11-12.71c.22-.23.45-.46.67-.7l3.8,1.38-6-8,.54-.45,5.93,2.15-10.12-13.91c2.59,1.07,4.18,1.72,6,2.47l-8.54-15.1,5.53,2.6-8-19.26,4.21-3.16,4.41,7.76a18.74,18.74,0,0,0,.2-2.49c-.14-1.58-.35-3.15-.53-4.72,31.62,61.79,59.52,125,71.22,194.63l-9-13.5-1,.58q2.35,5.31,4.69,10.63l-.62.3-9-6.48-1,1.11,13.72,14-.48.47-6.3-4.6c-.2.22-.4.43-.59.65L291,686.33c-8-4.21-15.33-9-23-13.25a51.47,51.47,0,0,0-27-6.77l9.18,12.7-.79.77h-2.9c.05,4.25,2,7.42,4.5,10.17s5.4,5.15,8.09,7.73a10,10,0,0,1,1.38,1.61c-2.24,2.35.93,2.66,1.47,3.9.42.95,1.36,1.67,1.78,2.62,1.94,4.34,3.79,8.73,5.36,12.39-2.76-1-6.4-2.92-10.26-3.76-10.19-2.2-22.32,4.08-28.13,14.29a3.87,3.87,0,0,1-2.9,2.27H399a3.7,3.7,0,0,1-2.33-.57c-6.89-6.46-15.12-10.23-24.19-12.24,1.52-2,2.87-4,4.47-5.78a4.27,4.27,0,0,1,2.7-1.08c3-.17,6.11,0,9.15-.19,3.78-.21,7.54-.63,11.79-1-16.87-13.06-35.42-17.68-56.61-13.45,1.44-.82,2.64-1.44,3.78-2.16a7.58,7.58,0,0,0,2.95-3c-1.71.35-3.42.64-5.11,1.05a22,22,0,0,1-5.32.94l23-11.91c-.14-.32-.27-.65-.4-1l-9.48,1.85c6.84-4.29,15.2-5.08,21.89-9.54l-.36-1.18-13.34,2.5-.31-.72,10.64-9.22c-9,2.17-15.68,7.8-21.71,14.38l-.66-.58,4.79-9.35c-.31-.21-.6-.43-.89-.64l-12.44,14.52c1.22-4.16,2.27-7.77,3.32-11.37l-1.26-.62q-7.35,12-14.71,24l-.53-.17c1.16-3.56,2.34-7.13,3.5-10.7l-.82-.47-5.44,7c0-6.86-.31-13.62.05-20.33,2.73-50.78,13.78-100.06,27.55-148.78,22.75-80.48,52.42-158.42,86.78-234.61.48-1.06,1-2.09,1.53-3.14a61.81,61.81,0,0,0,7.19,1.73,65.15,65.15,0,0,0,7.71.07c-.8,8.34-1.83,16.26-6.3,23.32l.55.68,7-5.08-7.56,20.23,5.54-3.46.69.23c-3,5.87-6,11.74-9.18,18l7.19-4.32.64.37c-1.88,3.6-3.76,7.2-5.91,11.3l5.38-3.34a55.5,55.5,0,0,1-11.2,18.25c.13.24.28.47.42.71l9.72-3.07c-3.88,10.83-10,19.69-20.59,25.11,5.94,2.35,10.91,0,23.84-11.09-1.93,8-6,14.45-10.73,20.52,3.22-.83,5.72-3,13.61-11.49-.76,2.08-1.41,4.2-2.31,6.23A56.52,56.52,0,0,1,453.3,395c-1.21,2-2.72,3.8-3.64,6.31,2.88-2,5.75-4.06,9.23-6.5-2.67,4.68-5.05,8.88-7.39,13,5.22-1.48,8.7-6.9,15.77-24.26a104.59,104.59,0,0,1-.09,11.06c-.4,3.78-1.47,7.49-2.28,11.36,3.62-3.4,5.78-10.3,6.86-21,2.64,7.86,2.59,15.94,2,24.21.32-1.06.65-2.11,1-3.17s.69-2.25,1-3.38c8.46-32.38,8-64.8.34-97.23-.65-2.71-.65-4.76,1.39-6.9,1.42-1.49,2.27-3.54,3.61-5.72,2.86,6.89.06,13-1.61,19.26l1.06.48c3.37-5.07,6.75-10.13,10.23-15.37-.06,10.76-3.81,20.66-7.75,30.57,7.42-6.65,12.07-15.14,16.33-24,2.44,10.16.12,19.84-2.59,29.58,7.47-7.7,10.78-17.55,13.86-27.65,2.39,5.19,1.21,13.06-4.57,31.16,3.57-1.83,5.17-4.28,8.45-12.93,2,4.38,1.53,9.84-1.12,18.7l7.21-7.68c0,3.81.13,7.34,0,10.86s-.61,6.95-.44,10.74c1.61-2.77,3.21-5.55,5.15-8.9.21,10.08-2,19.07-5.25,28.07l7.73-10.46c-.07,7.2-3.43,13-6.17,19,9.21-7.91,16.09-17.36,19.67-29.07l.83.18c-.3,2.38-.48,4.79-1,7.14s-1.24,4.69-1.61,7.09c10.86-11.48,8.76-24.76,4.81-39.12,6.34,7,9.95,14.52,13,22.36l1-.16c-.29-2.88,0-6-1-8.59-2.37-6.13-5.36-12-8.15-18-.55-1.15-1.4-2.14-2.06-3.25-1.94-3.25-5-6.37-5.46-9.83s1.88-7,3-10.49c2,3.39,2.71,8,2.44,16.88,3.57-3.91,4.13-13.89,1.9-26.24,3.09,4.36,6.17,8.72,9.09,12.87,1-3.58-.63-9.35-6-21l.61-.67c3,2.69,6,5.38,8.94,8,1.38-10.16-5.77-16.36-12-23.09,4.18-.91,5.3-.48,15.79,6.07-2.51-7.12-7.14-11-13.42-13.91L561,260l.12-.63L544.25,256c4.83-4.22,11-4.58,15.64-1,7.13,5.46,12.83,11.94,14.16,21.24a42.37,42.37,0,0,1,0,6c3.47-2.47,4.82-8.1,4.19-16.08l6.4,6.26c.48-3.75-2.07-6.31-4.14-9.1,8,.52,14.07,8.77,14.29,19.25,4.33-4.57,3.69-11.93-1.71-19.89,4.34,1,5.18,1.84,13.79,13.19,1.08-4.15.48-7-3.28-14.7C608.93,263.58,613.12,266.37,616.77,271.28ZM355.56,297.16c-3.36,1.25-6.71,2.53-10.66,4,2-5.78,4.34-10.62,8.37-14.4,1.05-1,3.08-2,4.1-1.61,1.21.48,2.28,2.39,2.6,3.85C361.25,294.79,360.92,295.18,355.56,297.16Zm14.86-44.61a4.76,4.76,0,0,1-1.31,2c-.25.29-.75.36-1.14.52l-8.61,3.67c4-4.34,7.5-8.21,11.64-12.76C370.79,248.63,370.73,250.61,370.42,252.55Zm52.63-36.22-4.21-3,6-1.25C424.1,213.85,423.63,215,423.05,216.33ZM128.74,362.63l6.94.74-.09,1.13-4.1-.27,1.84,2.18-13-5.57,9.79,7c-.2.31-.41.62-.6.93l-13.06-7.52c1.32-.48,2-.73,2.66-1,2.86-3.49,10-4.33,15-1.72a28.94,28.94,0,0,1,2.43,1.64l-8,1.71Zm-5.83,47.47,5.18-2.19.33.77C127,409.62,126.47,412.73,122.91,410.1ZM143.08,369c5.46-1.62,13,1.39,15.87,6.8l-3.48-1.69,1.74,5.09Zm1.57,49,7-6.49c-.17.93-.4,2.28-.68,3.94l5.72-6.39,1.33.77-3.28,11.19Zm15.66,4.83-5-1.63,8.78-6.85.63.54C163.24,417.55,161.8,420.17,160.31,422.88Zm4.72,1.69c0-.25,0-.5,0-.74l7-2c-1,2-1.6,3.12-2.26,4.43Zm13.64,5.48c-2.64-1.12-4.93-2.1-8-3.42l8.81-1.17C179.2,427.09,179,428.47,178.67,430.05ZM142.18,467.8c1.57-3.47,2.93-6.47,4.3-9.47l1.15.53C145.46,461.49,149.24,466.84,142.18,467.8Zm10.52-4.63,5.51-6.17C158,462.52,158,462.52,152.7,463.17Zm14.41-3.34-4.71.91-.36-.54,5.07-4.17Zm6.95-.69-3.92.35-.35-.61c1.29-1.1,2.57-2.22,4.27-3.7Zm10.71.31,0,0-8.24-.52,3-6,1.09-.19c1.19,1.94,2.39,3.89,4,6.48.69-1.44,1.26-2.67,2.09-4.42,1.68,2.41,5.36,2.11,5.61,6Zm122.11,6.86c-4.8-2.35-9-4.35-13.17-6.5a3.2,3.2,0,0,1-1.52-2c-.42-2.47-.58-5-.86-7.79C298.94,452.92,304.27,457.9,306.88,466.31Zm-15.85-9c-.3.32-.59.66-.88,1-3.34-2.54-9.29-1.48-10.06-8.75Zm-11-3.84c-.12.29-.24.58-.37.87-2.13-.84-5.27.15-6-4.31ZM256.45,472c1.17-1.38,1.84-2.16,2.56-3,1.32,2.46,2.56,4.77,3.91,7.27-4.89-2.71-9.78-5.07-14.26-8.07-1.44-1-1.8-3.6-2.08-5.75ZM246,466.86l-17.75-7.39C235.19,459.5,240.9,462.47,246,466.86Zm-5.77,32.37c-6.25-5.28-.73-9.52-.06-14l.92.05C240.83,489.78,240.55,494.31,240.25,499.23Zm96.81,23.31C324.17,568.1,312.52,614,304.79,660.72a5.62,5.62,0,0,1-.5.94c-.41-1.15-.73-2-1-2.82-14.4-48-33.31-94.22-54.32-139.63-2.1-4.55-5.72-9-6-13.61-.3-4.48,2.78-9.19,4.39-13.8.24-.7.52-1.38,1-2.68,3,8.57,1.76,16.6.17,25.51,5.73-7.68,7.56-15.91,9.33-25.12,2.88,9.53,1.08,18-1.19,26.42l1,.39c1.72-3.63,3.43-7.27,5.24-11.11,1.63,4.68,1.42,9.43.34,14.61l5.19-6.61c.44,6,.85,11.63,1.31,17.77,1.22-2.75,2.3-5.18,3.37-7.61l1,.13-2.27,22.19,4.51-7.5.63,0c-.34,2.47-.49,5-1.07,7.37s-1.56,4.8-2.17,7.29A50.7,50.7,0,0,0,287,528l.86.2c-.3,3.62-.61,7.25-1,11.48a19.88,19.88,0,0,0,4.78-15.14c-.55-5.23-2-10.36-3.16-15.89,5,4.45,8.2,10.07,11.36,15.73l1.08-.46c-1.07-3.33-1.63-7-3.3-10a109.77,109.77,0,0,0-24.95-30.16c-1.46-1.25-3-2.42-4.53-3.56-4.46-3.29-4.82-4.75-2.33-10.25,1.93,4,3.8,7.84,5.69,11.7l.89-.3c-.5-3.3-1-6.59-1.62-10.62,5.52,5.32,8.59,11.37,11.74,17.69-.23-2.3-.4-4.61-.71-6.89s-.78-4.6-1.24-7.28l6,12.47.75-.24V479c2.36,5.78,4.51,11,6.67,16.3.19-.07.37-.14.57-.2l-1.26-18.75,1.31-.22c.66,2.64,1.35,5.28,2,7.94s1.09,5.66,1.93,8.4a41.41,41.41,0,0,0,3.39,7.78c-1.19-6.8-2.07-13.49,0-21,1.85,8.44,3.41,16.16,9,22.68-.4-3.32-.74-6.23-1.1-9.14l.64-.15,9.44,16.92.54-.31-7.65-23.77,1.1-.47c1.8,2.85,3.57,5.72,5.41,8.54,3.91,6,7.82,11.94,11.84,17.83a11.56,11.56,0,0,0,3.59,3.61C338.11,516.84,338,519.13,337.06,522.54Zm50.28-147.91h-1.06Q384.6,368.3,382.9,362l.65,0c1.49,2.57,3.29,5,4.34,7.76C388.41,371.13,387.57,373,387.34,374.63Zm2.09-7.22c-.83-3.55-1.59-6.76-2.48-10.57C391.91,361.34,392.33,363.16,389.43,367.41Zm56.95-161.72L440.67,194l.59-.58a84.27,84.27,0,0,1,7.33,5.74C451.64,202.11,450.87,204.34,446.38,205.69Zm-6.08-16a3.4,3.4,0,0,1-2.49-1.14c-1.4-2.1-2.51-4.38-4.09-7.23,6.69,1.14,12.39,2.7,16.7,7.88C446.81,189.4,443.56,189.66,440.3,189.7Zm-5.52-10.22a3.71,3.71,0,0,1-2.66-.92c-1.73-2.4-3.18-5-5-7.94,9.41,1.69,18.2,3.66,26,8.91C447,179.53,440.89,179.56,434.78,179.48ZM487,268.75l3.23-3c.92,2.15,1.69,3.91,2.67,6.19Zm14.1,8.16-4-2.45,1.85-3.82,2.65,5.81Zm13.3-53.5c-6.43,3.67-7.48,3.74-10.51.62C507.33,223,510.65,221.7,514.36,223.41Zm-2.43,60.86-4.6-3.26c1.33-3.07,2.58-5.93,3.82-8.8l.78.14Zm11.28,9.06-10-8.14,8.26-10.74c2.13,4.51-.2,7.73-1,11.77l4.32-4.56C524.26,285.57,523.76,289.26,523.21,293.33Zm21.46-44.63-26-2.4c0-.38.07-.76.1-1.14a81.74,81.74,0,0,1,26,2.22C544.74,247.83,544.7,248.26,544.67,248.7Z"/><path class="cls-7" d="M309.19,544.14a20.33,20.33,0,0,1,8.55,1,15.56,15.56,0,0,1,6.46,4.32,17.85,17.85,0,0,1,3.78,7.17,25.52,25.52,0,0,1,.64,9.6,47.39,47.39,0,0,1-2.7,9.91,77.53,77.53,0,0,1-5,10.46,99.41,99.41,0,0,1-6.83,10.42,116.69,116.69,0,0,1-8.28,9.88,104.14,104.14,0,0,1-9.26,8.74,81.82,81.82,0,0,1-9.82,7.06,57.77,57.77,0,0,1-9.92,4.86,32.19,32.19,0,0,1-9.65,2,18,18,0,0,1-5.51-.61,16.57,16.57,0,0,1-5.29-2.46,15.89,15.89,0,0,1-4.24-4.46,16.1,16.1,0,0,1-2.35-6.67,5.21,5.21,0,0,1,1.29-3.5,9.64,9.64,0,0,1,3.05-2.35,8.78,8.78,0,0,1,3.48-.93,3,3,0,0,1,2.49.79,16.44,16.44,0,0,0,.52,5.74,11,11,0,0,0,2.11,4.07,7.78,7.78,0,0,0,7,2.82,30.2,30.2,0,0,0,8.94-3.64,73.46,73.46,0,0,0,10.06-7.1,107.92,107.92,0,0,0,19.12-20.84,81.73,81.73,0,0,0,6.94-11.91,43.4,43.4,0,0,0,3.75-11.67,21.64,21.64,0,0,0,.11-6.6,13.78,13.78,0,0,0-1.82-5.25,10.28,10.28,0,0,0-3.48-3.46,9.73,9.73,0,0,0-4.77-1.32,21.14,21.14,0,0,0-5.57,1.29,35.91,35.91,0,0,0-5.93,2.85,8.76,8.76,0,0,1,2.11,1.39,12.09,12.09,0,0,1,2,2.22,7.71,7.71,0,0,1,1.23,2.67,3.84,3.84,0,0,1-.28,2.71q-4.77,6.86-9.26,13.92t-8.59,14.13q-4.11,7-7.79,14t-6.83,13.49l.07-.08c-.28.58-.75.65-1.41.22a8.69,8.69,0,0,1-2-2,13.42,13.42,0,0,1-1.68-2.86,3.63,3.63,0,0,1-.39-2.39q2.32-5.93,5.83-13.09t7.57-14.63q4.06-7.46,8.35-14.7t8.21-13.23a70.4,70.4,0,0,0-7.79,6.1,100.56,100.56,0,0,0-7.4,7.35q-3.54,3.89-6.63,7.92t-5.44,7.81a59.46,59.46,0,0,0-3.82,7.1,22.53,22.53,0,0,0-1.82,5.74q-1.89,2.07-3.72,1.82a4.2,4.2,0,0,1-3-1.89,7.89,7.89,0,0,1-1.26-4.32,10.37,10.37,0,0,1,1.58-5.6,82,82,0,0,1,5.75-10.56,85.58,85.58,0,0,1,7.5-10.06,89,89,0,0,1,9-9,68.86,68.86,0,0,1,10-7.28,58,58,0,0,1,10.8-5A40.36,40.36,0,0,1,309.19,544.14Z"/><path class="cls-7" d="M346.71,590.52a41.74,41.74,0,0,1-9.92,10.7,41.08,41.08,0,0,1-12.24,6.35,10,10,0,0,0,.24,3.64,2.65,2.65,0,0,0,2.07,2.07l-.14-.07A6,6,0,0,0,330,613a16.52,16.52,0,0,0,4.21-2,34.47,34.47,0,0,0,4.81-3.82,50,50,0,0,0,5.05-5.56c.88-1.14,1.74-2.32,2.56-3.54s1.6-2.36,2.35-3.46a2.45,2.45,0,0,1,1.71-1,2.2,2.2,0,0,1,1.62.46,2.44,2.44,0,0,1,.84,1.5,2.89,2.89,0,0,1-.67,2.17l-1.75,2.57q-2.25,3.21-5.44,7.1a66.39,66.39,0,0,1-7.26,7.53,23.09,23.09,0,0,1-4.63,3.1,24.61,24.61,0,0,1-4.13,1.65,17.62,17.62,0,0,1-3.41.64c-1,.07-1.78.11-2.34.11-3.65,0-6.28-1.08-7.9-3.22s-2.18-5.06-1.71-8.77a28.09,28.09,0,0,1,3.05-9.49,60.3,60.3,0,0,1,6.84-10.06,38.68,38.68,0,0,1,3.85-3.82,39.12,39.12,0,0,1,5.05-3.75,29.61,29.61,0,0,1,5.72-2.78,15.7,15.7,0,0,1,5.72-1,5.39,5.39,0,0,1,4.35,2,6.26,6.26,0,0,1,.91,5.1,10.76,10.76,0,0,1-.88,2.89,17.33,17.33,0,0,1-1.86,3.11Zm-3.65-5.85a12.65,12.65,0,0,0-5,2.28,29.29,29.29,0,0,0-4.62,4.21,43.72,43.72,0,0,0-4,5.17,46.55,46.55,0,0,0-3,5.18,36.32,36.32,0,0,0,9.26-5.61,33.85,33.85,0,0,0,7.3-8.45v.07a3.88,3.88,0,0,0,.59-1.14c.12-.38.22-.71.32-1C344,584.71,343.72,584.48,343.06,584.67Z"/><path class="cls-7" d="M375.68,590.52a41.77,41.77,0,0,1-9.93,10.7,41.08,41.08,0,0,1-12.24,6.35,10.18,10.18,0,0,0,.25,3.64,2.63,2.63,0,0,0,2.07,2.07l-.14-.07A6,6,0,0,0,359,613a16.52,16.52,0,0,0,4.21-2,33.86,33.86,0,0,0,4.8-3.82,48.13,48.13,0,0,0,5.05-5.56q1.33-1.71,2.57-3.54c.81-1.21,1.6-2.36,2.34-3.46a2.48,2.48,0,0,1,1.72-1,2.21,2.21,0,0,1,1.62.46,2.44,2.44,0,0,1,.84,1.5,3,3,0,0,1-.67,2.17l-1.75,2.57q-2.25,3.21-5.44,7.1a68.17,68.17,0,0,1-7.26,7.53,23.09,23.09,0,0,1-4.63,3.1,24.35,24.35,0,0,1-4.14,1.65,17.4,17.4,0,0,1-3.4.64c-1,.07-1.79.11-2.35.11-3.64,0-6.27-1.08-7.89-3.22s-2.18-5.06-1.72-8.77a28.31,28.31,0,0,1,3-9.49,61.55,61.55,0,0,1,6.84-10.06,40,40,0,0,1,3.86-3.82,38.45,38.45,0,0,1,5-3.75,29.61,29.61,0,0,1,5.72-2.78,15.69,15.69,0,0,1,5.71-1,5.36,5.36,0,0,1,4.35,2,6.23,6.23,0,0,1,.92,5.1,10.76,10.76,0,0,1-.88,2.89,18.59,18.59,0,0,1-1.86,3.11ZM372,584.67a12.65,12.65,0,0,0-5,2.28,29.79,29.79,0,0,0-4.63,4.21,47.45,47.45,0,0,0-7,10.35,36.5,36.5,0,0,0,9.26-5.61,33.62,33.62,0,0,0,7.29-8.45v.07a3.93,3.93,0,0,0,.6-1.14c.11-.38.22-.71.31-1C373,584.71,372.69,584.48,372,584.67Z"/><path class="cls-7" d="M402.83,606.14c-1.31,1.62-2.76,3.28-4.35,5a44.55,44.55,0,0,1-5.05,4.61,27.16,27.16,0,0,1-5.55,3.35,12.15,12.15,0,0,1-5.68,1.14,5.51,5.51,0,0,1-2.73-.78,4.77,4.77,0,0,1-1.72-1.9,7.41,7.41,0,0,1-.74-2.67,12.44,12.44,0,0,1,.14-3.14,22.17,22.17,0,0,1,1.41-4.42,25.7,25.7,0,0,1,2.14-3.93c.81-1.23,1.69-2.45,2.63-3.64s1.91-2.4,2.94-3.64l1.69-2v.08l2-2.43a5.94,5.94,0,0,1,1.51-1.43,10.86,10.86,0,0,1,3-1.21c-.66.14-1.19.25-1.61.32a10.82,10.82,0,0,0-1.13.25l-1.82.43a7.38,7.38,0,0,1-2.11.14h-.7q-1.89,2.43-3.57,4.75c-1.13,1.54-2.18,3-3.16,4.39v-.08c-.19.29-.52.36-1,.22a3.75,3.75,0,0,1-1.34-.75,4.43,4.43,0,0,1-1-1.21,1,1,0,0,1,0-1.18v.07c1.36-1.81,2.5-3.39,3.44-4.75l2.52-3.6a4.5,4.5,0,0,1-.21-2.85,9.33,9.33,0,0,1,1.55-3.93c.79-1.14,1.73-2.47,2.8-4,.42-.62.88-1.31,1.37-2.07a24.66,24.66,0,0,0,1.51-2.79l2,1.18a7.75,7.75,0,0,1,1.72,1.43,5.41,5.41,0,0,1,1.09,1.89,5.24,5.24,0,0,1,.14,2.43c-.09.42-.21.89-.35,1.39a8.52,8.52,0,0,1-.77,1.75l-3,3.21c-.23.28-.12.32.35.1s1.15-.58,2-1.1,1.89-1.14,3-1.86,2.22-1.42,3.3-2.14,2-1.38,2.84-2a16.68,16.68,0,0,0,1.72-1.42,2,2,0,0,1,1,.43,10.78,10.78,0,0,1,1.23,1c.39.36.74.69,1.05,1a4.64,4.64,0,0,1,.53.6,3.88,3.88,0,0,1,0,2.89,17,17,0,0,1-1.86,3.68,46.28,46.28,0,0,1-3.16,4.24q-1.86,2.25-3.89,4.61c-.8.85-1.57,1.71-2.32,2.56s-1.49,1.74-2.24,2.64l-1.9,2.29c-.7.85-1.38,1.72-2,2.6a20.42,20.42,0,0,0-1.68,2.61,7.27,7.27,0,0,0-.85,2.14c-.09.28.15.43.71.43a4.17,4.17,0,0,0,2-.54,16.59,16.59,0,0,0,2.74-1.71,32.3,32.3,0,0,0,3-2.61,27.59,27.59,0,0,0,2.88-3.28h-.07q1.82-2.28,3.44-4.49t2.59-3.79a.94.94,0,0,1,1.05-.1,4,4,0,0,1,1.34.82,4.21,4.21,0,0,1,1,1.32,1.1,1.1,0,0,1-.07,1.25l.07-.15-2.53,3.57L403,606.07Z"/><path class="cls-7" d="M469,597.58q-2.39,4.14-5.33,8.31a92.67,92.67,0,0,1-6.25,7.92,85.83,85.83,0,0,1-6.87,7,51.6,51.6,0,0,1-7.26,5.56,33.07,33.07,0,0,1-7.4,3.54,19.38,19.38,0,0,1-7.22,1,11.32,11.32,0,0,1-8.6-5A14.42,14.42,0,0,1,418,621a21,21,0,0,1-.42-6,46.9,46.9,0,0,1,2.25-9.24,94.88,94.88,0,0,1,4.49-10.84,131.37,131.37,0,0,1,6.31-11.53q3.58-5.85,7.72-11.38a116.47,116.47,0,0,1,8.73-10.38,77.59,77.59,0,0,1,9.33-8.46,47,47,0,0,1,9.5-5.7,22.91,22.91,0,0,1,9.33-2.11,14.46,14.46,0,0,1,4.56.61,6.28,6.28,0,0,1,2.81,1.71,5.12,5.12,0,0,1,1.22,2.64,10.74,10.74,0,0,1,0,3.39,16.42,16.42,0,0,1-1.23,4.1,45.42,45.42,0,0,1-2.28,4.5c-.89,1.54-1.87,3.09-2.94,4.63s-2.18,3-3.3,4.46a8.66,8.66,0,0,1-.91.93,10.86,10.86,0,0,1-1.27,1,7.41,7.41,0,0,1-1.54.78,5,5,0,0,1-1.75.32,4.84,4.84,0,0,1-1.86-.53,23.71,23.71,0,0,1-3-1.75,23,23,0,0,0,3.47-3.14q1.94-2.07,3.82-4.5a50.07,50.07,0,0,0,3.4-4.89,25.31,25.31,0,0,0,2.21-4.31c.19-.48.34-.88.46-1.21a2.64,2.64,0,0,0,.18-.86,1,1,0,0,0-.53-1.21,6.47,6.47,0,0,0-2.14-.5,13.69,13.69,0,0,0-6.24,2.57,52.05,52.05,0,0,0-7,5.74,96.94,96.94,0,0,0-7.12,7.74q-3.54,4.29-6.66,8.63T442,584.56c-1.68,2.69-3,5-4.06,6.89q-1.7,3.21-3.34,6.63a60.94,60.94,0,0,0-2.91,7.21c-.51,1.42-.93,2.78-1.26,4.06s-.61,2.48-.84,3.57a14.82,14.82,0,0,0,.14,6.82,3.6,3.6,0,0,0,3.44,2.82,12.94,12.94,0,0,0,5.64-.9,25.72,25.72,0,0,0,5.82-3.17,48,48,0,0,0,5.72-4.82q2.81-2.74,5.44-5.85t4.91-6.24c1.52-2.1,2.88-4.09,4.1-6,.19-.28.56-.39,1.12-.32a5.31,5.31,0,0,1,1.65.5,3.37,3.37,0,0,1,1.26,1,.81.81,0,0,1,0,1.11Z"/><path class="cls-7" d="M489.66,577.32a5.84,5.84,0,0,1,4.1,2.78,10.67,10.67,0,0,1,1.44,5,6.18,6.18,0,0,1,1,2.43,16.46,16.46,0,0,1,.28,3.21,6.41,6.41,0,0,0-.17,1.14,12.22,12.22,0,0,1-.18,1.36,27.66,27.66,0,0,1-1.79,6.24,40.73,40.73,0,0,1-3.12,6.14,42.94,42.94,0,0,1-4.14,5.64,33.26,33.26,0,0,1-4.84,4.63,23.87,23.87,0,0,1-5.15,3.11,12.75,12.75,0,0,1-5.09,1.14,10.3,10.3,0,0,1-7.5-3.07c-2-2-3-5.09-3.09-9.27,0-.53,0-1.09.07-1.68s.12-1.23.21-1.89a25.06,25.06,0,0,1,2-6.32A41.27,41.27,0,0,1,472,585.81a36.43,36.43,0,0,1,5.65-4.68,26,26,0,0,1,6-3A15,15,0,0,1,489.66,577.32Zm-4.91,18.83a1.26,1.26,0,0,1-.74-1,8.59,8.59,0,0,1-.17-1.75,13.46,13.46,0,0,1,.17-2c.12-.71.22-1.33.32-1.85a4.71,4.71,0,0,1,.88-1.82,9.86,9.86,0,0,1,1.43-1.57,17.94,17.94,0,0,1,1.51-1.18,11.49,11.49,0,0,1,1.16-.71,2,2,0,0,0-1-.14,9.62,9.62,0,0,0-3.58,1.24,20.51,20.51,0,0,0-3.86,2.75,30.44,30.44,0,0,0-3.51,4,41.49,41.49,0,0,0-2.91,4.53,36.15,36.15,0,0,0-2.17,4.68,20,20,0,0,0-1.16,4.31,8.38,8.38,0,0,0,.21,4.53,3.12,3.12,0,0,0,3,2,6.9,6.9,0,0,0,3.51-.9,16.49,16.49,0,0,0,3.57-2.6,30,30,0,0,0,3.41-3.82,40.58,40.58,0,0,0,3-4.56,39.75,39.75,0,0,0,2.24-4.75,19.29,19.29,0,0,0,1.19-4.35l.14-.36a2.52,2.52,0,0,0-1.29.47,8.41,8.41,0,0,0-1.41,1.1,10.83,10.83,0,0,0-1.19,1.36,5.31,5.31,0,0,0-.74,1.28Z"/><path class="cls-7" d="M550.33,604.65q-1.33,1.85-3.5,4.49a64.67,64.67,0,0,1-4.74,5.14,33.45,33.45,0,0,1-5.29,4.24,9.64,9.64,0,0,1-5.13,1.75,7.57,7.57,0,0,1-2.8-.53,4.94,4.94,0,0,1-2.17-1.68,6.81,6.81,0,0,1-1.16-3,12.19,12.19,0,0,1,.17-4.32,38.29,38.29,0,0,1,1.23-4.21,46.84,46.84,0,0,1,1.82-4.35c.73-1.52,1.56-3.18,2.49-5s2-3.79,3.23-6a20,20,0,0,0,1.4-2.64,9.27,9.27,0,0,0,.7-2.07c-.09.1-.39.38-.91.86s-1.33,1.16-2.45,2.07q-3,2.49-5.51,5t-5,5.45c-.47.81-.91,1.65-1.34,2.5s-.84,1.74-1.26,2.64v-.14q-1.54,3.28-2.73,6.6a55.47,55.47,0,0,0-2,6.81c-.14.57-.61.84-1.4.79a7.1,7.1,0,0,1-2.53-.68,9.67,9.67,0,0,1-2.42-1.57,2.38,2.38,0,0,1-1-1.89,58.24,58.24,0,0,1,3.75-11.7q2.49-5.64,5.44-11.28c.6-1.23,1.15-2.33,1.64-3.28a13.43,13.43,0,0,1,1.09-1.85,25.64,25.64,0,0,0-3.72,2.64c-2,1.66-3.77,3.33-5.43,5s-3.36,3.5-5.09,5.5a97.63,97.63,0,0,0-4.28,9,68.55,68.55,0,0,0-3.08,9.31c-.19.53-.68.76-1.48.72a7.06,7.06,0,0,1-2.49-.68,9.37,9.37,0,0,1-2.31-1.53,2.36,2.36,0,0,1-.95-1.86,49.29,49.29,0,0,1,1.65-6.24q1-3,2.28-6t2.7-5.85l2.91-5.81c1.12-2.29,2.22-4.51,3.3-6.68s2-4.24,2.87-6.24a2.67,2.67,0,0,1,2.07,0,7.72,7.72,0,0,1,2.35,1.24,9,9,0,0,1,2,2.11,6.38,6.38,0,0,1,1,2.6,41.42,41.42,0,0,1,6.1-4.35,14.38,14.38,0,0,1,6.17-2,2.74,2.74,0,0,1,1.58.57,6.81,6.81,0,0,1,1.48,1.5,8.83,8.83,0,0,1,1.08,2.07,7.68,7.68,0,0,1,.49,2.21,38.26,38.26,0,0,1,6.07-4.35,14.65,14.65,0,0,1,6.28-2,2.85,2.85,0,0,1,1.89.9,7.94,7.94,0,0,1,1.69,2.21,8.64,8.64,0,0,1,.91,2.82,4.15,4.15,0,0,1-.42,2.64v-.07q-1.83,3.92-3.47,6.92t-3.06,5.42c-.74,1.33-1.42,2.57-2,3.71s-1.17,2.26-1.68,3.35a34.79,34.79,0,0,0-1.37,3.36c-.4,1.14-.76,2.35-1.09,3.64l.35-.5a26.73,26.73,0,0,0,5.3-3.64,44.75,44.75,0,0,0,6.42-7c.65-.8,1.27-1.65,1.86-2.53s1.2-1.79,1.85-2.75l1.13-1.57a2.45,2.45,0,0,1,1.71-1,2.2,2.2,0,0,1,1.62.46,2.27,2.27,0,0,1,.8,1.5,3.06,3.06,0,0,1-.7,2.17c-.79,1.15-1.6,2.29-2.42,3.43s-1.62,2.28-2.42,3.42Z"/><path class="cls-7" d="M570,581.46a29.39,29.39,0,0,1,5.89-2.89,11.34,11.34,0,0,1,5.4-.68,8.3,8.3,0,0,1,3.55,1.35,6.49,6.49,0,0,1,2.07,2.5,8.74,8.74,0,0,1,.77,3.32,18.86,18.86,0,0,1-.28,3.82,27.77,27.77,0,0,1-1.9,6.42,49,49,0,0,1-5,8.67,55.06,55.06,0,0,1-6.66,7.67,38.64,38.64,0,0,1-7.62,5.67A20.72,20.72,0,0,1,558.4,620a10,10,0,0,1-4.18-.93,7.35,7.35,0,0,1-2.7-2.21l-.35,1.42c-.18.53-.67.76-1.47.72a7.06,7.06,0,0,1-2.49-.68,9,9,0,0,1-2.31-1.53,2.33,2.33,0,0,1-.95-1.86,55.75,55.75,0,0,1,2.63-8.78c1.14-2.94,2.47-5.89,4-8.84s3.11-5.9,4.84-8.85,3.46-5.88,5.19-8.78l2.81-4.57c1.07-1.8,2.14-3.64,3.19-5.52s2.06-3.73,3-5.54,1.84-3.55,2.66-5.24,1.51-3.25,2.07-4.67a3.1,3.1,0,0,1,2.63,0,7.94,7.94,0,0,1,2.74,1.89,8.88,8.88,0,0,1,1.86,3,4.35,4.35,0,0,1,0,3.25c-.33.71-.88,1.74-1.65,3.07s-1.65,2.82-2.63,4.46-2,3.35-3.12,5.14S572,578.41,571,580Zm-8.13,13q-1.62,2.64-3.09,5.39T556,605.36a4.26,4.26,0,0,0-.14.85,7.64,7.64,0,0,0,.11,3.18,2.14,2.14,0,0,0,2.14,1.61,6.37,6.37,0,0,0,3.58-1,23.79,23.79,0,0,0,4.2-3.11,47.45,47.45,0,0,0,4.35-4.53q2.18-2.57,4-5.17a39.25,39.25,0,0,0,3-5.1,18.88,18.88,0,0,0,1.54-4.36c.23-1.47-.21-2.23-1.33-2.28a10.36,10.36,0,0,0-3.62.57,20.51,20.51,0,0,0-4.06,1.86,30.23,30.23,0,0,0-4.11,2.92A34.54,34.54,0,0,0,561.91,594.44Z"/><path class="cls-7" d="M614.3,590.52a41.74,41.74,0,0,1-9.92,10.7,41.2,41.2,0,0,1-12.24,6.35,10,10,0,0,0,.24,3.64,2.65,2.65,0,0,0,2.07,2.07l-.14-.07a6,6,0,0,0,3.26-.22,16.52,16.52,0,0,0,4.21-2,33.86,33.86,0,0,0,4.8-3.82,49.09,49.09,0,0,0,5.06-5.56c.88-1.14,1.74-2.32,2.56-3.54s1.6-2.36,2.35-3.46a2.45,2.45,0,0,1,1.71-1,2.2,2.2,0,0,1,1.62.46,2.44,2.44,0,0,1,.84,1.5,3,3,0,0,1-.67,2.17l-1.75,2.57q-2.25,3.21-5.44,7.1a68.17,68.17,0,0,1-7.26,7.53A23.09,23.09,0,0,1,601,618a24.61,24.61,0,0,1-4.13,1.65,17.62,17.62,0,0,1-3.41.64c-1,.07-1.78.11-2.35.11-3.64,0-6.27-1.08-7.89-3.22s-2.18-5.06-1.72-8.77a28.33,28.33,0,0,1,3.06-9.49,60.81,60.81,0,0,1,6.83-10.06,40,40,0,0,1,3.86-3.82,39.12,39.12,0,0,1,5-3.75,29.61,29.61,0,0,1,5.72-2.78,15.7,15.7,0,0,1,5.72-1,5.35,5.35,0,0,1,4.34,2,6.23,6.23,0,0,1,.92,5.1,10.76,10.76,0,0,1-.88,2.89,17.93,17.93,0,0,1-1.86,3.11Zm-3.65-5.85a12.65,12.65,0,0,0-5,2.28,29.79,29.79,0,0,0-4.63,4.21,48.42,48.42,0,0,0-7,10.35,36.32,36.32,0,0,0,9.26-5.61,33.62,33.62,0,0,0,7.29-8.45v.07a3.93,3.93,0,0,0,.6-1.14c.12-.38.22-.71.32-1C611.59,584.71,611.31,584.48,610.65,584.67Z"/><path class="cls-7" d="M641.45,606.14c-1.31,1.62-2.76,3.28-4.35,5a44.55,44.55,0,0,1-5.05,4.61,27.36,27.36,0,0,1-5.54,3.35,12.21,12.21,0,0,1-5.69,1.14,5.54,5.54,0,0,1-2.73-.78,4.77,4.77,0,0,1-1.72-1.9,7.41,7.41,0,0,1-.74-2.67,12.44,12.44,0,0,1,.14-3.14,22.17,22.17,0,0,1,1.41-4.42,25.7,25.7,0,0,1,2.14-3.93c.81-1.23,1.69-2.45,2.63-3.64s1.91-2.4,2.94-3.64l1.69-2v.08l2-2.43a5.94,5.94,0,0,1,1.51-1.43,10.86,10.86,0,0,1,3-1.21c-.66.14-1.19.25-1.61.32a11.43,11.43,0,0,0-1.13.25l-1.82.43a7.34,7.34,0,0,1-2.1.14h-.71q-1.89,2.43-3.57,4.75c-1.12,1.54-2.18,3-3.16,4.39v-.08c-.19.29-.51.36-1,.22a3.63,3.63,0,0,1-1.33-.75,4.3,4.3,0,0,1-1-1.21,1,1,0,0,1,0-1.18v.07q2-2.72,3.44-4.75t2.53-3.6a4.37,4.37,0,0,1-.21-2.85,9.19,9.19,0,0,1,1.54-3.93c.79-1.14,1.73-2.47,2.8-4,.43-.62.88-1.31,1.37-2.07a23.16,23.16,0,0,0,1.51-2.79l2,1.18a7.75,7.75,0,0,1,1.72,1.43,5,5,0,0,1,1.23,4.32c-.09.42-.21.89-.35,1.39a8.52,8.52,0,0,1-.77,1.75l-3,3.21c-.23.28-.12.32.35.1s1.15-.58,2-1.1,1.89-1.14,3-1.86,2.22-1.42,3.3-2.14,2-1.38,2.84-2a16.68,16.68,0,0,0,1.72-1.42,2,2,0,0,1,1.05.43,10.78,10.78,0,0,1,1.23,1c.4.36.75.69,1.05,1a4.64,4.64,0,0,1,.53.6,3.88,3.88,0,0,1,0,2.89,17,17,0,0,1-1.86,3.68,46.28,46.28,0,0,1-3.16,4.24q-1.86,2.25-3.89,4.61c-.8.85-1.57,1.71-2.32,2.56s-1.49,1.74-2.24,2.64c-.56.67-1.19,1.43-1.89,2.29s-1.38,1.72-2,2.6a21.57,21.57,0,0,0-1.68,2.61,6.94,6.94,0,0,0-.84,2.14c-.1.28.14.43.7.43a4.17,4.17,0,0,0,2-.54,16.19,16.19,0,0,0,2.74-1.71,32.3,32.3,0,0,0,3-2.61,27.59,27.59,0,0,0,2.88-3.28H638q1.82-2.28,3.44-4.49c1.07-1.48,1.94-2.74,2.59-3.79a1,1,0,0,1,1.05-.1,3.88,3.88,0,0,1,1.34.82,4.21,4.21,0,0,1,1,1.32,1.1,1.1,0,0,1-.07,1.25l.07-.15-2.53,3.57-3.29,4.78Z"/><path class="cls-8" d="M317,549.5a20.36,20.36,0,0,1,8.34,1,15,15,0,0,1,6.28,4.13,17.07,17.07,0,0,1,3.69,6.86,24,24,0,0,1,.61,9.19,44.2,44.2,0,0,1-2.63,9.5,72.09,72.09,0,0,1-4.85,10,95.15,95.15,0,0,1-6.66,10,109.7,109.7,0,0,1-8.06,9.46,99.68,99.68,0,0,1-9,8.36,79.82,79.82,0,0,1-9.57,6.77,56,56,0,0,1-9.66,4.64,31.89,31.89,0,0,1-9.39,2,17.65,17.65,0,0,1-5.37-.58,16.36,16.36,0,0,1-5.15-2.36,15,15,0,0,1-6.42-10.66,4.89,4.89,0,0,1,1.26-3.34,9.24,9.24,0,0,1,3-2.26,8.81,8.81,0,0,1,3.38-.89,3,3,0,0,1,2.43.76,15.37,15.37,0,0,0,.51,5.5,10.58,10.58,0,0,0,2,3.89,7.66,7.66,0,0,0,6.8,2.7,29.43,29.43,0,0,0,8.7-3.49,70.93,70.93,0,0,0,9.81-6.79,102.76,102.76,0,0,0,9.8-9.19,100.7,100.7,0,0,0,8.81-10.76,78.14,78.14,0,0,0,6.76-11.41,41.17,41.17,0,0,0,3.66-11.17,20.37,20.37,0,0,0,.1-6.31,13,13,0,0,0-1.78-5,9.44,9.44,0,0,0-8-4.58,21.09,21.09,0,0,0-5.43,1.23,34.86,34.86,0,0,0-5.77,2.73,8.38,8.38,0,0,1,2,1.33,11.92,11.92,0,0,1,1.95,2.12,7.58,7.58,0,0,1,1.2,2.56,3.7,3.7,0,0,1-.28,2.6q-4.64,6.56-9,13.32t-8.37,13.52q-4,6.76-7.58,13.39t-6.66,12.91l.07-.07c-.28.55-.73.62-1.37.21a8.27,8.27,0,0,1-1.95-1.88,13,13,0,0,1-1.64-2.73,3.31,3.31,0,0,1-.37-2.29q2.25-5.67,5.67-12.54t7.37-14q4-7.14,8.13-14.07t8-12.67a67.91,67.91,0,0,0-7.59,5.84q-3.75,3.32-7.2,7t-6.46,7.59a91.61,91.61,0,0,0-5.29,7.48,56.25,56.25,0,0,0-3.73,6.79,21.67,21.67,0,0,0-1.77,5.5c-1.23,1.32-2.44,1.9-3.62,1.74a4.09,4.09,0,0,1-2.9-1.81,7.3,7.3,0,0,1-1.23-4.13,9.83,9.83,0,0,1,1.53-5.36,80.86,80.86,0,0,1,5.6-10.11,83.57,83.57,0,0,1,7.31-9.63,86,86,0,0,1,8.71-8.57,67,67,0,0,1,9.77-7,57.54,57.54,0,0,1,10.52-4.82A40.35,40.35,0,0,1,317,549.5Z"/><path class="cls-8" d="M353.57,593.91a40.64,40.64,0,0,1-9.67,10.24A40.15,40.15,0,0,1,332,610.23a9.32,9.32,0,0,0,.24,3.48,2.55,2.55,0,0,0,2,2l-.14-.07a6,6,0,0,0,3.18-.21,16.39,16.39,0,0,0,4.09-1.94,34.29,34.29,0,0,0,4.68-3.66,47,47,0,0,0,4.92-5.33c.87-1.09,1.7-2.22,2.49-3.38l2.29-3.31a2.45,2.45,0,0,1,1.68-1,2.23,2.23,0,0,1,1.57.45,2.32,2.32,0,0,1,.82,1.43,2.82,2.82,0,0,1-.65,2.08l-1.71,2.46q-2.19,3.07-5.29,6.8a67.39,67.39,0,0,1-7.07,7.21,23.26,23.26,0,0,1-4.51,3,24.71,24.71,0,0,1-4,1.57,16.51,16.51,0,0,1-3.31.61c-1,.07-1.75.11-2.29.11-3.55,0-6.12-1-7.69-3.08s-2.13-4.85-1.67-8.4a26.75,26.75,0,0,1,3-9.08,58.1,58.1,0,0,1,6.66-9.64,39.1,39.1,0,0,1,3.76-3.65,37.91,37.91,0,0,1,4.92-3.59,28.93,28.93,0,0,1,5.56-2.66,15.71,15.71,0,0,1,5.57-1,5.3,5.3,0,0,1,4.24,1.88,5.91,5.91,0,0,1,.88,4.89,9.94,9.94,0,0,1-.85,2.76,16.91,16.91,0,0,1-1.81,3ZM350,588.3a12.42,12.42,0,0,0-4.85,2.19,28.28,28.28,0,0,0-4.51,4,44.69,44.69,0,0,0-3.9,5,45.73,45.73,0,0,0-2.93,4.95,35.49,35.49,0,0,0,9-5.36A32.35,32.35,0,0,0,350,591V591a3.9,3.9,0,0,0,.58-1.1c.11-.36.21-.68.3-1C350.93,588.35,350.65,588.12,350,588.3Z"/><path class="cls-8" d="M381.78,593.91a40.64,40.64,0,0,1-9.67,10.24,40.15,40.15,0,0,1-11.92,6.08,9.32,9.32,0,0,0,.24,3.48,2.55,2.55,0,0,0,2,2l-.14-.07a6,6,0,0,0,3.18-.21,16.39,16.39,0,0,0,4.09-1.94,34.29,34.29,0,0,0,4.68-3.66,47,47,0,0,0,4.92-5.33c.87-1.09,1.7-2.22,2.49-3.38L384,597.8a2.45,2.45,0,0,1,1.68-1,2.23,2.23,0,0,1,1.57.45,2.32,2.32,0,0,1,.82,1.43,2.82,2.82,0,0,1-.65,2.08l-1.71,2.46q-2.19,3.07-5.29,6.8a67.39,67.39,0,0,1-7.07,7.21,23.26,23.26,0,0,1-4.51,3,24.71,24.71,0,0,1-4,1.57,16.51,16.51,0,0,1-3.31.61c-1,.07-1.75.11-2.29.11-3.55,0-6.12-1-7.69-3.08s-2.13-4.85-1.67-8.4a26.75,26.75,0,0,1,3-9.08,58.1,58.1,0,0,1,6.66-9.64,39.1,39.1,0,0,1,3.76-3.65,37.91,37.91,0,0,1,4.92-3.59,28.93,28.93,0,0,1,5.56-2.66,15.71,15.71,0,0,1,5.57-1,5.3,5.3,0,0,1,4.24,1.88,5.91,5.91,0,0,1,.88,4.89,9.94,9.94,0,0,1-.85,2.76,16.91,16.91,0,0,1-1.81,3Zm-3.55-5.61a12.42,12.42,0,0,0-4.85,2.19,28.28,28.28,0,0,0-4.51,4,44.69,44.69,0,0,0-3.9,5,45.73,45.73,0,0,0-2.93,4.95,35.49,35.49,0,0,0,9-5.36,32.35,32.35,0,0,0,7.11-8.09V591a3.9,3.9,0,0,0,.58-1.1c.11-.36.21-.68.3-1C379.14,588.35,378.86,588.12,378.23,588.3Z"/><path class="cls-8" d="M408.21,608.86c-1.27,1.55-2.69,3.14-4.23,4.75a42.42,42.42,0,0,1-4.92,4.41,26.33,26.33,0,0,1-5.4,3.21,12.15,12.15,0,0,1-5.53,1.09,5.33,5.33,0,0,1-2.66-.75,4.64,4.64,0,0,1-1.68-1.81,6.93,6.93,0,0,1-.71-2.56,11,11,0,0,1,.13-3,21.15,21.15,0,0,1,1.37-4.23,24.52,24.52,0,0,1,2.08-3.76q1.2-1.77,2.56-3.48t2.87-3.49l1.64-1.91v.07l2-2.32a5.9,5.9,0,0,1,1.47-1.37,10.3,10.3,0,0,1,2.9-1.16c-.63.14-1.16.24-1.57.31a10.65,10.65,0,0,0-1.09.24l-1.78.41a7.34,7.34,0,0,1-2.05.13h-.68c-1.23,1.55-2.39,3.07-3.48,4.54s-2.12,2.88-3.08,4.21v-.07c-.18.27-.5.34-1,.2a3.43,3.43,0,0,1-1.3-.72,4.19,4.19,0,0,1-1-1.16.9.9,0,0,1,0-1.12v.06q2-2.6,3.35-4.54t2.46-3.45a4.2,4.2,0,0,1-.21-2.73,8.86,8.86,0,0,1,1.51-3.76q1.15-1.64,2.73-3.82c.41-.59.85-1.25,1.33-2a22.54,22.54,0,0,0,1.47-2.67c.64.37,1.27.74,1.91,1.13a7.51,7.51,0,0,1,1.68,1.37,4.9,4.9,0,0,1,1.05,1.81,4.79,4.79,0,0,1,.14,2.32c-.09.41-.2.85-.34,1.33a8,8,0,0,1-.75,1.67l-2.87,3.08c-.23.27-.11.31.34.1a21.62,21.62,0,0,0,2-1.06q1.31-.75,2.94-1.77l3.21-2.05c1.05-.69,2-1.32,2.77-1.92a17.09,17.09,0,0,0,1.67-1.36,2,2,0,0,1,1,.41,11.26,11.26,0,0,1,1.2.92q.58.51,1,1a3.5,3.5,0,0,1,.52.58,3.64,3.64,0,0,1,0,2.76,16,16,0,0,1-1.81,3.52,45.5,45.5,0,0,1-3.08,4.07c-1.2,1.43-2.47,2.9-3.79,4.4q-1.15,1.23-2.25,2.46c-.73.82-1.46,1.66-2.19,2.53-.54.64-1.16,1.36-1.84,2.18s-1.35,1.65-2,2.5a20.08,20.08,0,0,0-1.64,2.49,6.61,6.61,0,0,0-.82,2.05c-.09.27.13.41.68.41a4.11,4.11,0,0,0,2-.51,17.1,17.1,0,0,0,2.67-1.64,31.33,31.33,0,0,0,2.93-2.5,25.59,25.59,0,0,0,2.8-3.14h-.06c1.18-1.45,2.29-2.89,3.34-4.3s1.89-2.62,2.53-3.62a.92.92,0,0,1,1-.1,3.92,3.92,0,0,1,1.3.78,4.06,4.06,0,0,1,1,1.27,1,1,0,0,1-.07,1.19l.07-.14-2.46,3.42-3.21,4.58Z"/><path class="cls-8" d="M472.69,600.67q-2.31,4-5.19,8a90.41,90.41,0,0,1-6.08,7.58,84.45,84.45,0,0,1-6.69,6.69,51,51,0,0,1-7.07,5.33,32.34,32.34,0,0,1-7.21,3.38,19.38,19.38,0,0,1-7,1,11.59,11.59,0,0,1-4.89-1.54,11.35,11.35,0,0,1-3.48-3.28,13.4,13.4,0,0,1-2-4.68,19.86,19.86,0,0,1-.4-5.74,43.35,43.35,0,0,1,2.18-8.84,92.59,92.59,0,0,1,4.37-10.38q2.67-5.43,6.15-11t7.51-10.89a114.25,114.25,0,0,1,8.51-9.94,75.08,75.08,0,0,1,9.08-8.09,46.66,46.66,0,0,1,9.26-5.47,22.77,22.77,0,0,1,9.08-2,14.36,14.36,0,0,1,4.44.58,6.09,6.09,0,0,1,2.74,1.64,4.89,4.89,0,0,1,1.19,2.52,10.45,10.45,0,0,1,0,3.25,15.47,15.47,0,0,1-1.2,3.93,41.14,41.14,0,0,1-2.22,4.3q-1.29,2.22-2.87,4.44c-1.05,1.48-2.11,2.9-3.21,4.27a8.26,8.26,0,0,1-.89.89,11.1,11.1,0,0,1-1.22.92,7.33,7.33,0,0,1-1.51.75,4.67,4.67,0,0,1-1.71.31,4.78,4.78,0,0,1-1.81-.51,23.54,23.54,0,0,1-2.9-1.68,21.61,21.61,0,0,0,3.38-3c1.25-1.32,2.5-2.76,3.72-4.31a49.63,49.63,0,0,0,3.32-4.68,25.12,25.12,0,0,0,2.15-4.13c.18-.45.33-.84.44-1.16a2.35,2.35,0,0,0,.17-.82.9.9,0,0,0-.51-1.16,6.44,6.44,0,0,0-2.08-.48,13.54,13.54,0,0,0-6.08,2.46,50.63,50.63,0,0,0-6.76,5.5,91.05,91.05,0,0,0-6.94,7.41q-3.45,4.1-6.49,8.27t-5.49,8c-1.64,2.57-3,4.77-4,6.59q-1.64,3.08-3.24,6.36a58.12,58.12,0,0,0-2.84,6.89,39.87,39.87,0,0,0-1.22,3.9c-.32,1.23-.6,2.37-.82,3.41a14,14,0,0,0,.13,6.53,3.51,3.51,0,0,0,3.35,2.7,12.87,12.87,0,0,0,5.5-.86,25.74,25.74,0,0,0,5.67-3,46.33,46.33,0,0,0,5.56-4.61q2.73-2.62,5.3-5.6t4.78-6q2.22-3,4-5.74c.18-.27.54-.37,1.09-.3a5.17,5.17,0,0,1,1.6.48,3.26,3.26,0,0,1,1.23,1,.77.77,0,0,1,0,1.06Z"/><path class="cls-8" d="M492.78,581.27a5.67,5.67,0,0,1,4,2.66,10.22,10.22,0,0,1,1.4,4.78,5.91,5.91,0,0,1,1,2.33,15.87,15.87,0,0,1,.27,3.07,5.88,5.88,0,0,0-.17,1.09,10.84,10.84,0,0,1-.17,1.3,27,27,0,0,1-1.74,6,40.34,40.34,0,0,1-3,5.87,42.56,42.56,0,0,1-4,5.4,33,33,0,0,1-4.71,4.44,23.79,23.79,0,0,1-5,3,12.58,12.58,0,0,1-5,1.09,10.13,10.13,0,0,1-7.31-2.93q-2.87-2.88-3-8.88c0-.51,0-1,.07-1.61s.11-1.17.2-1.81a23.84,23.84,0,0,1,1.91-6,39.63,39.63,0,0,1,3.49-6,38.62,38.62,0,0,1,4.68-5.53,35.63,35.63,0,0,1,5.5-4.48,25.28,25.28,0,0,1,5.84-2.87A14.88,14.88,0,0,1,492.78,581.27Zm-4.78,18a1.17,1.17,0,0,1-.72-1,7.15,7.15,0,0,1-.17-1.67,11.35,11.35,0,0,1,.17-1.95q.17-1,.3-1.77a4.71,4.71,0,0,1,.86-1.74,10.14,10.14,0,0,1,1.4-1.51,15.1,15.1,0,0,1,1.47-1.12,13.07,13.07,0,0,1,1.12-.69,2.06,2.06,0,0,0-.95-.13A9.51,9.51,0,0,0,488,589a19.76,19.76,0,0,0-3.76,2.63,29.56,29.56,0,0,0-3.42,3.79,38,38,0,0,0-2.83,4.34,33.52,33.52,0,0,0-2.12,4.48,18.91,18.91,0,0,0-1.13,4.13,7.9,7.9,0,0,0,.21,4.34,3,3,0,0,0,2.94,1.87,6.75,6.75,0,0,0,3.41-.85,15.82,15.82,0,0,0,3.48-2.49,29.06,29.06,0,0,0,3.32-3.66,37.61,37.61,0,0,0,2.9-4.37,36.15,36.15,0,0,0,2.19-4.54,18.59,18.59,0,0,0,1.16-4.17l.13-.34a2.55,2.55,0,0,0-1.26.44,9,9,0,0,0-1.37,1.06,10.81,10.81,0,0,0-1.16,1.3,5.07,5.07,0,0,0-.71,1.23Z"/><path class="cls-8" d="M551.86,607.43q-1.29,1.79-3.41,4.3a60.6,60.6,0,0,1-4.62,4.92,32.35,32.35,0,0,1-5.15,4.07,9.55,9.55,0,0,1-5,1.67,7.4,7.4,0,0,1-2.73-.51,4.78,4.78,0,0,1-2.12-1.61,6.57,6.57,0,0,1-1.13-2.83,11.45,11.45,0,0,1,.18-4.14,34.34,34.34,0,0,1,1.19-4,43.61,43.61,0,0,1,1.78-4.16q1-2.19,2.42-4.75t3.14-5.77a20.52,20.52,0,0,0,1.37-2.53,9.49,9.49,0,0,0,.68-2c-.09.09-.38.37-.89.82s-1.29,1.12-2.39,2c-2,1.59-3.74,3.18-5.36,4.75s-3.24,3.31-4.88,5.22c-.46.78-.89,1.57-1.3,2.39s-.82,1.67-1.23,2.53v-.14q-1.5,3.15-2.66,6.32a51.59,51.59,0,0,0-1.92,6.53c-.13.54-.59.79-1.36.75a7,7,0,0,1-2.46-.65,9.65,9.65,0,0,1-2.36-1.5,2.32,2.32,0,0,1-1-1.81,55.06,55.06,0,0,1,3.66-11.21q2.42-5.38,5.29-10.79c.59-1.18,1.13-2.23,1.61-3.14a12.81,12.81,0,0,1,1-1.78,27.07,27.07,0,0,0-3.62,2.53c-1.91,1.59-3.67,3.19-5.29,4.78s-3.27,3.35-4.95,5.26a92.56,92.56,0,0,0-4.17,8.64,64.5,64.5,0,0,0-3,8.92c-.19.5-.67.73-1.44.68a6.79,6.79,0,0,1-2.42-.65,8.72,8.72,0,0,1-2.26-1.47,2.22,2.22,0,0,1-.92-1.77,47.4,47.4,0,0,1,1.61-6c.65-1.94,1.4-3.85,2.22-5.74s1.69-3.76,2.63-5.6,1.87-3.7,2.83-5.57q1.63-3.27,3.21-6.38t2.8-6a2.68,2.68,0,0,1,2,0,7.56,7.56,0,0,1,2.28,1.19,8.61,8.61,0,0,1,1.92,2,6,6,0,0,1,1,2.49,40.68,40.68,0,0,1,5.94-4.17,14.11,14.11,0,0,1,6-1.91,2.63,2.63,0,0,1,1.53.55,6.28,6.28,0,0,1,1.44,1.43,8.51,8.51,0,0,1,1.06,2,7.39,7.39,0,0,1,.47,2.12,37.48,37.48,0,0,1,5.91-4.17,14.43,14.43,0,0,1,6.12-1.91,2.82,2.82,0,0,1,1.84.85,7.84,7.84,0,0,1,1.64,2.12,8.18,8.18,0,0,1,.89,2.7,3.94,3.94,0,0,1-.41,2.53v-.07c-1.19,2.5-2.31,4.71-3.38,6.62s-2.07,3.65-3,5.2c-.72,1.27-1.38,2.45-2,3.55s-1.13,2.16-1.64,3.21a34.44,34.44,0,0,0-1.33,3.21c-.39,1.09-.74,2.25-1.06,3.48l.35-.48a25.56,25.56,0,0,0,5.15-3.48,42.21,42.21,0,0,0,6.25-6.69c.64-.78,1.24-1.59,1.81-2.43s1.17-1.72,1.81-2.63l1.1-1.5a2.43,2.43,0,0,1,1.67-1,2.13,2.13,0,0,1,2.36,1.88,2.93,2.93,0,0,1-.69,2.08c-.77,1.1-1.56,2.19-2.35,3.28s-1.59,2.19-2.36,3.28Z"/><path class="cls-8" d="M571.06,585.23a28.91,28.91,0,0,1,5.73-2.77,11.36,11.36,0,0,1,5.26-.65,8.14,8.14,0,0,1,3.45,1.3,6.27,6.27,0,0,1,2,2.39,8.25,8.25,0,0,1,.75,3.18,17.81,17.81,0,0,1-.27,3.65,26,26,0,0,1-1.85,6.15,46,46,0,0,1-4.88,8.3,51.66,51.66,0,0,1-6.49,7.34,37.39,37.39,0,0,1-7.41,5.43,20.49,20.49,0,0,1-7.65,2.57,10,10,0,0,1-4.07-.89,7.08,7.08,0,0,1-2.63-2.12l-.34,1.37c-.18.5-.66.73-1.43.68a6.79,6.79,0,0,1-2.43-.65,8.83,8.83,0,0,1-2.25-1.47,2.2,2.2,0,0,1-.92-1.77,52.39,52.39,0,0,1,2.56-8.41,91.92,91.92,0,0,1,3.86-8.47q2.17-4.23,4.71-8.47t5.05-8.4l2.74-4.37c1-1.73,2.08-3.49,3.1-5.29s2-3.57,2.94-5.3,1.8-3.4,2.6-5,1.47-3.11,2-4.47a3,3,0,0,1,2.56,0,7.67,7.67,0,0,1,2.67,1.81,8.4,8.4,0,0,1,1.81,2.84,4.08,4.08,0,0,1,0,3.11c-.32.68-.86,1.66-1.61,2.93s-1.6,2.7-2.56,4.27-2,3.21-3,4.92-2.1,3.34-3.11,4.88Zm-7.93,12.43q-1.57,2.54-3,5.16c-1,1.75-1.87,3.52-2.74,5.29a3.77,3.77,0,0,0-.13.82,7.15,7.15,0,0,0,.1,3,2.06,2.06,0,0,0,2.08,1.54,6.25,6.25,0,0,0,3.49-1,23,23,0,0,0,4.1-3,45,45,0,0,0,4.23-4.34,61,61,0,0,0,3.86-5,35.88,35.88,0,0,0,2.9-4.88,17.27,17.27,0,0,0,1.51-4.17c.22-1.41-.21-2.14-1.3-2.18a10.18,10.18,0,0,0-3.52.54,19.61,19.61,0,0,0-4,1.78,28.48,28.48,0,0,0-4,2.8A32.33,32.33,0,0,0,563.13,597.66Z"/><path class="cls-8" d="M614.16,593.91a40.64,40.64,0,0,1-9.67,10.24,40.15,40.15,0,0,1-11.92,6.08,9.12,9.12,0,0,0,.24,3.48,2.55,2.55,0,0,0,2,2l-.14-.07a5.92,5.92,0,0,0,3.17-.21,16.28,16.28,0,0,0,4.1-1.94,34.29,34.29,0,0,0,4.68-3.66,47,47,0,0,0,4.92-5.33c.86-1.09,1.7-2.22,2.49-3.38l2.29-3.31a2.45,2.45,0,0,1,1.68-1,2.23,2.23,0,0,1,1.57.45,2.32,2.32,0,0,1,.82,1.43,2.82,2.82,0,0,1-.65,2.08l-1.71,2.46q-2.19,3.07-5.29,6.8a67.39,67.39,0,0,1-7.07,7.21,23.56,23.56,0,0,1-4.51,3,24.71,24.71,0,0,1-4,1.57,16.47,16.47,0,0,1-3.32.61c-1,.07-1.74.11-2.28.11q-5.34,0-7.69-3.08t-1.67-8.4a26.75,26.75,0,0,1,3-9.08,58.1,58.1,0,0,1,6.66-9.64,39.1,39.1,0,0,1,3.76-3.65,38.49,38.49,0,0,1,4.91-3.59,29.3,29.3,0,0,1,5.57-2.66,15.71,15.71,0,0,1,5.57-1,5.26,5.26,0,0,1,4.23,1.88,5.88,5.88,0,0,1,.89,4.89,9.94,9.94,0,0,1-.85,2.76,17.54,17.54,0,0,1-1.81,3Zm-3.56-5.61a12.48,12.48,0,0,0-4.85,2.19,28.66,28.66,0,0,0-4.5,4,43.54,43.54,0,0,0-3.9,5,45.73,45.73,0,0,0-2.93,4.95,35.49,35.49,0,0,0,9-5.36,32.35,32.35,0,0,0,7.11-8.09V591a3.9,3.9,0,0,0,.58-1.1c.11-.36.21-.68.3-1C611.51,588.35,611.24,588.12,610.6,588.3Z"/><path class="cls-8" d="M640.59,608.86c-1.27,1.55-2.69,3.14-4.23,4.75a42.42,42.42,0,0,1-4.92,4.41,26.33,26.33,0,0,1-5.4,3.21,12.15,12.15,0,0,1-5.53,1.09,5.4,5.4,0,0,1-2.67-.75,4.69,4.69,0,0,1-1.67-1.81,6.93,6.93,0,0,1-.72-2.56,11.44,11.44,0,0,1,.14-3A20.53,20.53,0,0,1,617,610,24.52,24.52,0,0,1,619,606.2q1.2-1.77,2.56-3.48t2.87-3.49l1.64-1.91v.07l2-2.32a5.73,5.73,0,0,1,1.47-1.37,10.3,10.3,0,0,1,2.9-1.16c-.64.14-1.16.24-1.57.31a10.65,10.65,0,0,0-1.09.24l-1.78.41a7.34,7.34,0,0,1-2,.13h-.68c-1.23,1.55-2.39,3.07-3.48,4.54s-2.12,2.88-3.08,4.21v-.07c-.18.27-.5.34-1,.2a3.43,3.43,0,0,1-1.3-.72,4.19,4.19,0,0,1-1-1.16.9.9,0,0,1,0-1.12v.06q2-2.6,3.35-4.54t2.46-3.45a4.13,4.13,0,0,1-.21-2.73,8.86,8.86,0,0,1,1.51-3.76q1.15-1.64,2.73-3.82c.41-.59.85-1.25,1.33-2a22.54,22.54,0,0,0,1.47-2.67c.64.37,1.27.74,1.91,1.13a7.51,7.51,0,0,1,1.68,1.37,4.9,4.9,0,0,1,1,1.81,4.79,4.79,0,0,1,.14,2.32c-.09.41-.2.85-.34,1.33a8,8,0,0,1-.75,1.67L629,589.33c-.23.27-.12.31.34.1a21.62,21.62,0,0,0,2-1.06q1.31-.75,2.94-1.77l3.21-2.05c1-.69,2-1.32,2.77-1.92a17.09,17.09,0,0,0,1.67-1.36,2,2,0,0,1,1,.41,11.26,11.26,0,0,1,1.2.92q.58.51,1,1a3.5,3.5,0,0,1,.52.58,3.64,3.64,0,0,1,0,2.76,16,16,0,0,1-1.81,3.52,45.5,45.5,0,0,1-3.08,4.07q-1.82,2.14-3.79,4.4c-.77.82-1.53,1.64-2.25,2.46s-1.46,1.66-2.19,2.53c-.55.64-1.16,1.36-1.84,2.18s-1.35,1.65-2,2.5a20.08,20.08,0,0,0-1.64,2.49,6.61,6.61,0,0,0-.82,2.05c-.1.27.13.41.68.41a4.11,4.11,0,0,0,2-.51,16.6,16.6,0,0,0,2.66-1.64,30.16,30.16,0,0,0,2.94-2.5,25.59,25.59,0,0,0,2.8-3.14h-.07c1.19-1.45,2.3-2.89,3.35-4.3s1.89-2.62,2.53-3.62a.92.92,0,0,1,1-.1,3.92,3.92,0,0,1,1.3.78,4.06,4.06,0,0,1,1,1.27,1,1,0,0,1-.07,1.19l.07-.14-2.46,3.42-3.21,4.58Z"/><path class="cls-8" d="M502,669.74v1.86h-2.43v3.71H502v1.86h-4.52v-13H502V666h-2.43v3.72Z"/><path class="cls-8" d="M509.5,667.88h-2.09V667a.85.85,0,0,0-.3-.66,1.14,1.14,0,0,0-1.47,0,.86.86,0,0,0-.31.66v2a.74.74,0,0,0,.27.58.93.93,0,0,0,.65.24H507a2.52,2.52,0,0,1,1.75.64,2,2,0,0,1,.71,1.54v2.46a2.54,2.54,0,0,1-.91,2,3.4,3.4,0,0,1-4.43,0,2.54,2.54,0,0,1-.91-2v-.92h2.08v.92a.86.86,0,0,0,.31.66,1.14,1.14,0,0,0,1.47,0,.85.85,0,0,0,.3-.66v-2a.73.73,0,0,0-.26-.58.94.94,0,0,0-.65-.23h-.8A2.52,2.52,0,0,1,504,671a2,2,0,0,1-.71-1.54V667a2.54,2.54,0,0,1,.91-2,3.4,3.4,0,0,1,4.43,0,2.54,2.54,0,0,1,.91,2Z"/><path class="cls-8" d="M517.05,666H515v11.15h-2.09V666h-2.09v-1.86h6.26Z"/><path class="cls-8" d="M520.43,677.17h-2.09v-1.86h2.09Z"/><path class="cls-8" d="M532.63,667.51a8.22,8.22,0,0,1-.74,3.12,16.11,16.11,0,0,1-1.59,2.83L530,674c-.15.2-.3.41-.46.61l-.57.76h3.71v1.85h-6.25a5.67,5.67,0,0,1,1.15-3.4l.23-.31.7-.94.69-.92a6.8,6.8,0,0,0,1.39-4.09V667a.85.85,0,0,0-.3-.66,1.15,1.15,0,0,0-1.48,0,.85.85,0,0,0-.3.66v.93h-2.08V667a2.54,2.54,0,0,1,.91-2,3.4,3.4,0,0,1,4.43,0,2.54,2.54,0,0,1,.91,2Z"/><path class="cls-8" d="M538.09,664.32a3.19,3.19,0,0,1,1.51,1,2.46,2.46,0,0,1,.58,1.62v7.43a2.55,2.55,0,0,1-.92,2,3.07,3.07,0,0,1-1.17.66,3.49,3.49,0,0,1-2.09,0,3.11,3.11,0,0,1-1.5-1,2.46,2.46,0,0,1-.58-1.62V667a2.6,2.6,0,0,1,.91-2,3.45,3.45,0,0,1,3.26-.65Zm0,10.06V667a.83.83,0,0,0-.31-.66,1,1,0,0,0-.73-.27,1.07,1.07,0,0,0-.74.27.83.83,0,0,0-.31.66v7.43a.86.86,0,0,0,.31.66,1.07,1.07,0,0,0,.74.27,1.09,1.09,0,0,0,.74-.27A.85.85,0,0,0,538.09,674.38Z"/><path class="cls-8" d="M547.73,677.17h-6.26v-1.85h2.09v-8.78a.51.51,0,0,0-.17-.37A.64.64,0,0,0,543,666h-.77v-1.86h1.25a2.23,2.23,0,0,1,1.55.58,1.79,1.79,0,0,1,.65,1.39v9.19h2.09Z"/><path class="cls-8" d="M554.35,665a2.51,2.51,0,0,1,.92,2v1.48a3,3,0,0,1-1,2.24h0a3,3,0,0,1,1,2.24v1.47a2.51,2.51,0,0,1-.92,2,3.39,3.39,0,0,1-4.42,0,2.54,2.54,0,0,1-.91-2v-1.47a3,3,0,0,1,1-2.24,3,3,0,0,1-1-2.24V667a2.54,2.54,0,0,1,.91-2,3.39,3.39,0,0,1,4.42,0Zm-1.17,3.47V667a.83.83,0,0,0-.3-.65,1.11,1.11,0,0,0-.74-.28,1.13,1.13,0,0,0-.74.28.83.83,0,0,0-.3.65v1.5a1.06,1.06,0,1,0,2.08,0Zm0,5v-.58a1.05,1.05,0,1,0-2.08,0v1.5a.82.82,0,0,0,.3.65,1.14,1.14,0,0,0,.74.29,1.12,1.12,0,0,0,.74-.29.82.82,0,0,0,.3-.65Z"/></g></svg>