<svg id="Layer_1" data-name="Layer 1" xmlns="http://www.w3.org/2000/svg" viewBox="0 0 2028.69 2116.2"><defs><style>.cls-1{fill:#6b09b8;}.cls-2{stroke:#6b09b8;}.cls-11,.cls-2,.cls-5,.cls-7,.cls-9{stroke-miterlimit:10;stroke-width:45.95px;}.cls-3{fill:#f78f1e;}.cls-4{fill:#fff;}.cls-5{stroke:#f78f1e;}.cls-6{fill:#01dac5;}.cls-7{stroke:#01dac5;}.cls-8{fill:#f1185c;}.cls-9{stroke:#f1185c;}.cls-10{fill:#1ca2b1;}.cls-11{stroke:#1ca2b1;}.cls-12{fill:#ba427e;}</style></defs><g id="Layer_2" data-name="Layer 2"><g id="Layer_1-2" data-name="Layer 1-2"><rect class="cls-1" x="248.1" y="132.78" width="184.99" height="43.53"/><path class="cls-2" d="M574.75,286.23c-6.1-7.82-17.77-17.15-38.68-17.15h-2.94c-.13-4.29-.43-8.54-.84-12.76-9.73-95.8-90.86-170.81-189.18-170.81-91,0-167.19,64.22-185.82,149.72A190.49,190.49,0,0,0,153.08,269h-4.45c-20.92,0-32.57,9.33-38.68,17.15-6.27,8-12.6,22.19-7.12,44l16.8,66.43c7.24,28.67,28.48,45.79,56.87,45.79h10.82c24.34,71.68,85.05,122.47,156.09,122.47s131.73-50.73,156.1-122.41h8.7c28.38,0,49.63-17.12,56.86-45.79l16.81-66.44C587.36,308.44,581,294.27,574.75,286.23ZM202.31,269.1q-4.26,7.74-7.94,15.85c-.19-3.07-.3-6.15-.3-9.27,0-1.75,0-3.51.11-5.25a11.83,11.83,0,0,1,0-1.33q.26-6,.94-11.79h0a146.51,146.51,0,0,1,4.46-22.05,1.51,1.51,0,0,1,.09-.38c17.83-62.42,75.35-108.24,143.39-108.24s125.56,45.82,143.36,108.23a148.49,148.49,0,0,1,4.2,19.79c.55,4,.94,8,1.21,12,.05.81.09,1.62.13,2.43q.14,3.27.13,6.57,0,4.06-.22,8.09-3.45-7.51-7.41-14.67c-29.77-53.32-81.84-88.64-141.1-88.64S232.08,215.78,202.31,269.1Z"/><path class="cls-3" d="M574,287c-6.1-7.82-17.78-17.15-38.68-17.15h-2.94c-.13-4.29-.44-8.53-.84-12.75C521.8,161.3,440.68,86.26,342.35,86.26c-91,0-167.19,64.22-185.81,149.72a188.66,188.66,0,0,0-4.21,33.81h-4.45c-20.92,0-32.58,9.33-38.68,17.15-6.28,8-12.61,22.19-7.12,44l16.8,66.44c7.24,28.66,28.48,45.79,56.86,45.79h10.82c24.35,71.71,85.05,122.5,156.14,122.5s131.75-50.79,156.1-122.47h8.71c28.37,0,49.62-17.12,56.85-45.79L581.17,331C586.6,309.17,580.28,295,574,287ZM201.56,269.83q-4.29,7.69-7.95,15.86c-.19-3.08-.29-6.16-.29-9.27,0-1.76,0-3.52.1-5.26a9.87,9.87,0,0,1,.06-1.33q.22-5.94.94-11.79h0A148,148,0,0,1,198.86,236a1.66,1.66,0,0,1,.11-.38c17.84-62.4,75.33-108.22,143.35-108.22s125.6,45.81,143.4,108.21a152.06,152.06,0,0,1,4.2,19.79c.55,4,.93,8,1.2,12,.05.81.1,1.61.14,2.42q.12,3.27.13,6.58,0,4.06-.23,8.08-3.44-7.51-7.41-14.67c-29.76-53.3-81.83-88.64-141.1-88.64S231.33,216.53,201.56,269.83Z"/><path class="cls-1" d="M544.92,326.88,539.38,349a29.09,29.09,0,0,1-5.06,10.76,25.76,25.76,0,0,1-.51,11.35l-5.68,22.21c-5,20.09-18.58,31.19-38.11,31.19,0,0-262.33,1.77-339.67.27-11.62-.23,2.24-29.36,6-40.85,2.1-6.39,24.63-5.1,24.63-5.1a24.08,24.08,0,0,1-14.32-8.62c-5.14-6.57-6.32-15.64-3.5-26.91l5.55-22.11c5-19.86,18.31-30.8,37.57-30.8L425,290l92.89-.22c10.52,0,18.41,3.27,23.48,9.71C546.57,306.2,547.79,315.42,544.92,326.88Z"/><polygon class="cls-4" points="285 412.99 389.28 412.99 394.82 390.89 290.54 390.89 285 412.99"/><polygon class="cls-4" points="301.78 346.67 296.25 368.77 400.52 368.77 406.06 346.67 301.78 346.67"/><path class="cls-4" d="M410.38,325.06l6-23-209,.36q-20.87,0-26.39,22.11l-5.54,22.11q-5.55,22.11,15.31,22.11h62.57l-5.71,22.1H164.23L158.66,413h83.42q20.85,0,26.41-22.11l5.7-22.11q5.54-22.1-15.32-22.11H196.3l5.54-22.1Z"/><path class="cls-4" d="M517.77,302.43H434.35L406.57,413H490q20.85,0,26.39-22.12l5.69-22.11q2.76-11.06-7.67-11.05,10.43,0,13.15-11.06l5.54-22.11Q538.61,302.44,517.77,302.43Zm-22.28,88.44H432.92l5.69-22.11h62.57Zm11.22-44.21H444.14l5.54-22.11h62.55Z"/><path class="cls-1" d="M457.78,443.9c-19.5,49.92-63.15,84.67-113.87,84.67h-2.05c-49.6-1.17-92.1-35.6-111.26-84.66Z"/><rect class="cls-3" x="897.36" y="131.63" width="184.99" height="43.53"/><path class="cls-5" d="M1224,285.1c-6.1-7.82-17.77-17.15-38.68-17.15h-2.9c-.13-4.29-.43-8.54-.84-12.75-9.74-95.81-90.86-170.81-189.18-170.81-91,0-167.19,64.22-185.82,149.71a189.57,189.57,0,0,0-4.21,33.81h-4.45c-20.92,0-32.58,9.33-38.68,17.16-6.28,8-12.6,22.18-7.12,44l16.8,66.44c7.24,28.66,28.48,45.79,56.86,45.79h10.79C860.92,513,921.64,563.79,992.67,563.79s131.76-50.78,156.1-122.46h8.7c28.38,0,49.63-17.13,56.86-45.79l16.8-66.44C1236.62,307.29,1230.34,293.13,1224,285.1ZM851.57,268q-4.27,7.69-7.94,15.86c-.19-3.07-.29-6.15-.29-9.27,0-1.76,0-3.52.1-5.25a12,12,0,0,1,0-1.34q.25-5.94.94-11.79h0a146.76,146.76,0,0,1,4.46-22.05,1.75,1.75,0,0,1,.09-.38c17.85-62.4,75.33-108.22,143.37-108.22s125.55,45.82,143.35,108.22a148.83,148.83,0,0,1,4.2,19.79c.55,4,.94,8,1.21,12,0,.82.1,1.62.13,2.43.08,2.18.13,4.37.13,6.58q0,4.06-.22,8.08-3.44-7.51-7.4-14.67c-29.78-53.31-81.84-88.64-141.1-88.64S881.34,214.64,851.57,268Z"/><path class="cls-1" d="M1221.2,281.81c-6.11-7.83-17.79-17.15-38.68-17.15h-2.91c-.13-4.3-.44-8.53-.84-12.76C1169,156.09,1087.91,81.09,989.58,81.09c-91,0-167.27,64.25-185.85,149.72a189.55,189.55,0,0,0-4.2,33.82h-4.46c-20.91,0-32.57,9.32-38.68,17.15-6.27,8-12.6,22.18-7.12,44l16.81,66.44c7.23,28.67,28.48,45.79,56.85,45.79h10.82c24.35,71.74,85.06,122.47,156.13,122.47S1121.6,509.78,1146,438.07h8.71c28.37,0,49.62-17.13,56.85-45.79l16.81-66.44C1233.79,304,1227.52,289.84,1221.2,281.81ZM848.75,264.63c-2.82,5.13-5.52,10.41-7.94,15.85-.2-3.07-.29-6.15-.29-9.27,0-1.75,0-3.51.09-5.25a8.47,8.47,0,0,1,.07-1.33c.15-4,.48-7.89.94-11.79h0a147.53,147.53,0,0,1,4.47-22,1.56,1.56,0,0,1,.1-.37C864,168,921.52,122.2,989.55,122.2S1115.11,168,1132.91,230.43a148.16,148.16,0,0,1,4.2,19.79c.55,3.95.94,8,1.2,12,0,.81.11,1.62.13,2.43.09,2.17.14,4.37.14,6.57,0,2.71-.07,5.42-.23,8.09q-3.42-7.51-7.4-14.67c-29.77-53.31-81.83-88.65-141.1-88.65S878.52,211.35,848.75,264.63Z"/><path class="cls-3" d="M1190.41,322.72l-5.55,22.1a29,29,0,0,1-5,10.77,25.56,25.56,0,0,1-.51,11.34l-5.72,22.19c-5,20.08-18.58,31.19-38.11,31.19,0,0-262.32,1.76-339.66.26-11.62-.23,2.24-29.35,6-40.85,2.09-6.38,24.62-5.1,24.62-5.1A24,24,0,0,1,812.17,366c-5.15-6.57-6.32-15.64-3.5-26.92l5.56-22.1c5-19.86,18.3-30.8,37.57-30.8l218.73-.38,92.89-.22c10.52,0,18.41,3.26,23.48,9.7C1192.06,302,1193.28,311.26,1190.41,322.72Z"/><polygon class="cls-4" points="948.03 343.26 942.49 365.36 1046.77 365.36 1052.3 343.26 948.03 343.26"/><polygon class="cls-4" points="931.24 409.58 1035.53 409.58 1041.06 387.48 936.78 387.48 931.24 409.58"/><path class="cls-4" d="M1056.62,321.64l6.05-23L853.62,299q-20.85,0-26.39,22.11l-5.55,22.11q-5.53,22.11,15.32,22.11h62.57l-5.7,22.1h-83.4l-5.53,22.11h83.42q20.85,0,26.39-22.11l5.7-22.1q5.55-22.11-15.32-22.11H842.57L848,321.15Z"/><path class="cls-4" d="M1164,299h-83.42L1052.81,409.6h83.42q20.85,0,26.38-22.12l5.69-22.1q2.82-11.07-7.65-11.06,10.42,0,13.15-11.05l5.53-22.12Q1184.88,299,1164,299Zm-22.29,88.44h-62.56l5.69-22.11h62.56ZM1153,343.25h-62.57l5.53-22.11h62.57Z"/><path class="cls-3" d="M1107,442.76c-19.5,49.91-63.15,84.66-113.87,84.66h-2c-49.6-1.17-92.1-35.6-111.26-84.66Z"/><rect class="cls-6" x="1570.22" y="144.76" width="184.99" height="43.53"/><path class="cls-7" d="M1898.32,284.48c-6.11-7.81-17.77-17.14-38.68-17.14h-2.94c-.14-4.29-.44-8.54-.85-12.75-9.73-95.81-90.86-170.82-189.17-170.82-91,0-167.2,64.22-185.82,149.71a188.66,188.66,0,0,0-4.21,33.81h-4.45c-20.92,0-32.58,9.33-38.69,17.15-6.27,8-12.59,22.19-7.12,44l16.82,66.44c7.22,28.66,28.47,45.79,56.85,45.79h10.82c24.34,71.68,85.06,122.46,156.1,122.46s131.75-50.74,156-122.42h8.71c28.38,0,49.62-17.12,56.85-45.79l16.82-66.43C1910.92,306.68,1904.59,292.51,1898.32,284.48Zm-372.44-17.14q-4.29,7.7-8,15.86-.29-4.6-.29-9.28c0-1.75,0-3.51.1-5.24a9.94,9.94,0,0,1,.06-1.34q.24-5.94.94-11.79h0a148.12,148.12,0,0,1,4.45-22.06,2.22,2.22,0,0,0,.09-.37c17.8-62.4,75.33-108.22,143.37-108.22S1792.24,170.7,1810,233.11a147.26,147.26,0,0,1,4.2,19.79c.55,4,.94,8,1.21,12,0,.82.1,1.62.13,2.43.09,2.18.14,4.38.14,6.58,0,2.72-.07,5.42-.23,8.09q-3.43-7.51-7.4-14.67C1778.31,214,1726.24,178.7,1667,178.7S1555.65,214,1525.88,267.34Z"/><path class="cls-3" d="M1899.41,284.76c-6.11-7.83-17.78-17.15-38.68-17.15h-2.94c-.14-4.29-.45-8.53-.85-12.75-9.74-95.81-90.86-170.81-189.18-170.81-91,0-167.2,64.22-185.82,149.7a188.29,188.29,0,0,0-4.2,33.86h-4.46c-20.91,0-32.57,9.32-38.68,17.15-6.27,8-12.6,22.19-7.12,44l16.81,66.39c7.23,28.68,28.48,45.8,56.85,45.8H1512c24.35,71.68,85.06,122.47,156.1,122.47s131.75-50.79,156.1-122.47h8.71c28.37,0,49.62-17.12,56.85-45.8l16.81-66.43C1912,307,1905.69,292.81,1899.41,284.76ZM1527,267.61c-2.82,5.13-5.52,10.41-7.94,15.86-.2-3.08-.29-6.17-.29-9.28,0-1.75,0-3.5.09-5.24a8.6,8.6,0,0,1,.07-1.34q.22-5.94.94-11.78h0a146.58,146.58,0,0,1,4.44-22.06,1.56,1.56,0,0,1,.1-.37c17.85-62.41,75.33-108.22,143.36-108.22S1793.29,171,1811.09,233.4a148.3,148.3,0,0,1,4.2,19.8c.56,3.95.94,7.95,1.2,12,0,.81.11,1.63.15,2.43.07,2.18.13,4.38.13,6.58q0,4.08-.24,8.09-3.42-7.51-7.4-14.67C1779.36,214.32,1727.3,179,1668,179S1556.73,214.3,1527,267.61Z"/><path class="cls-6" d="M1873,325.89l-5.53,22.1a29.28,29.28,0,0,1-5,10.76,25.41,25.41,0,0,1-.5,11.34l-5.72,22.19c-5,20.09-18.57,31.18-38.1,31.18,0,0-262.33,1.78-339.68.27-11.62-.22,2.26-29.35,6-40.85,2.11-6.38,24.64-5.1,24.64-5.1a24,24,0,0,1-14.32-8.61c-5.15-6.57-6.33-15.64-3.51-26.91l5.55-22.11c5-19.87,18.31-30.79,37.58-30.79l218.72-.4,92.9-.21c10.52,0,18.4,3.27,23.48,9.7C1874.69,305.2,1875.9,314.41,1873,325.89Z"/><polygon class="cls-4" points="1613.85 409.72 1718.13 409.72 1723.67 387.62 1619.39 387.62 1613.85 409.72"/><polygon class="cls-4" points="1630.64 343.4 1625.09 365.5 1729.38 365.5 1734.92 343.4 1630.64 343.4"/><path class="cls-4" d="M1739.23,321.79l6-23-209,.36q-20.85,0-26.4,22.11l-5.53,22.11q-5.55,22.11,15.31,22.11h62.57l-5.7,22.1h-83.42l-5.55,22.11h83.42q20.86,0,26.4-22.11l5.7-22.1q5.54-22.11-15.31-22.11h-62.57l5.54-22.11Z"/><path class="cls-4" d="M1846.62,299.17H1763.2l-27.82,110.58h83.42q20.85,0,26.39-22.12l5.69-22.1q2.76-11.07-7.66-11.06,10.42,0,13.15-11.05l5.52-22.12Q1867.47,299.16,1846.62,299.17Zm-22.29,88.43h-62.57l5.7-22.11H1830Zm11.22-44.21H1773l5.53-22.1h62.57Z"/><path class="cls-6" d="M1781.35,444.41c-19.5,49.91-63.15,84.67-113.88,84.67h-2c-49.61-1.18-92.11-35.6-111.26-84.66Z"/><rect class="cls-8" x="254.92" y="877.25" width="184.99" height="43.53"/><path class="cls-9" d="M578,1017.05c-6.1-7.82-17.77-17.14-38.68-17.14h-2.94c-.13-4.29-.43-8.54-.84-12.77-9.73-95.8-90.86-170.81-189.18-170.81-91,0-167.19,64.23-185.82,149.72a190.49,190.49,0,0,0-4.21,33.81h-4.44c-20.92,0-32.57,9.32-38.69,17.14-6.27,8-12.59,22.19-7.12,44l16.85,66.48c7.23,28.67,28.47,45.79,56.86,45.79h10.77c24.34,71.69,85.06,122.47,156.1,122.47S478.38,1245,502.72,1173.31h8.71c28.38,0,49.62-17.12,56.85-45.79l16.81-66.43C590.58,1039.24,584.26,1025.08,578,1017.05ZM205.56,999.91q-4.27,7.68-7.94,15.85c-.19-3.08-.3-6.16-.3-9.28,0-1.75,0-3.5.11-5.25a11.56,11.56,0,0,1,0-1.32q.24-6,.94-11.8h0a146.51,146.51,0,0,1,4.46-22.05c0-.13.07-.25.09-.38,17.8-62.41,75.33-108.22,143.36-108.22S471.9,903.26,489.7,965.67a148.58,148.58,0,0,1,4.23,19.79c.55,4,.94,8,1.21,12,0,.8.09,1.61.13,2.43.08,2.17.13,4.38.13,6.57,0,2.72-.06,5.42-.22,8.09q-3.44-7.52-7.41-14.66c-29.76-53.32-81.84-88.65-141.1-88.65S235.31,946.56,205.56,999.91Z"/><path class="cls-3" d="M579.06,1016.56c-6.1-7.81-17.78-17.14-38.68-17.14h-2.94c-.13-4.29-.44-8.54-.84-12.75-9.74-95.81-90.86-170.82-189.2-170.82-91,0-167.2,64.22-185.82,149.71a188.64,188.64,0,0,0-4.2,33.81H153c-20.92,0-32.57,9.33-38.68,17.15-6.27,8-12.6,22.19-7.12,44L124,1127c7.24,28.66,28.48,45.79,56.86,45.79h10.82c24.35,71.67,85.05,122.46,156.09,122.46s131.76-50.79,156.11-122.46h8.7c28.38,0,49.63-17.13,56.86-45.79l16.8-66.44C591.66,1038.76,585.34,1024.59,579.06,1016.56ZM206.62,999.42c-2.81,5.13-5.52,10.41-7.94,15.86-.2-3.07-.29-6.17-.29-9.28,0-1.75,0-3.51.09-5.25a8.47,8.47,0,0,1,.07-1.33q.22-5.94.93-11.79h0a148.12,148.12,0,0,1,4.45-22.06,1.44,1.44,0,0,1,.1-.37C221.86,902.79,279.39,857,347.4,857S473,902.79,490.78,965.19A148.83,148.83,0,0,1,495,985c.55,4,.94,8,1.2,12,.06.82.1,1.62.14,2.43.09,2.18.13,4.38.13,6.58q0,4.08-.23,8.09-3.44-7.51-7.4-14.67c-29.77-53.31-81.84-88.64-141.1-88.64S236.39,946.11,206.62,999.42Z"/><path class="cls-8" d="M551.92,1056.93,546.38,1079a29,29,0,0,1-5,10.76,25.61,25.61,0,0,1-.51,11.35l-5.72,22.18c-5,20.08-18.58,31.19-38.1,31.19,0,0-262.33,1.76-339.67.27-11.62-.23,2.24-29.35,6-40.85,2.09-6.39,24.63-5.1,24.63-5.1a24.07,24.07,0,0,1-14.32-8.61c-5.15-6.58-6.32-15.65-3.5-26.92l5.55-22.11c5-19.86,18.31-30.8,37.52-30.8L432,1020l92.93-.2c10.52,0,18.41,3.27,23.44,9.7C553.57,1036.25,554.79,1045.47,551.92,1056.93Z"/><polygon class="cls-4" points="293.51 1143.04 397.79 1143.04 403.33 1120.94 299.05 1120.94 293.51 1143.04"/><polygon class="cls-4" points="310.29 1076.71 304.75 1098.82 409.03 1098.82 414.57 1076.71 310.29 1076.71"/><path class="cls-4" d="M418.89,1055.11l6-23-209,.36q-20.85,0-26.39,22.11L184,1076.72q-5.55,22.11,15.31,22.11h62.57l-5.71,22.1H172.69L167.14,1143h83.42q20.87,0,26.4-22.11l5.7-22.1q5.54-22.11-15.31-22.11H204.81l5.54-22.11Z"/><path class="cls-4" d="M526.28,1032.48H442.86L415,1143.06h83.42q20.87,0,26.39-22.12l5.69-22.1q2.76-11.05-7.66-11.06,10.43,0,13.19-11.06l5.54-22.11Q547.12,1032.47,526.28,1032.48ZM504,1120.92H441.42l5.7-22.11h62.57Zm11.27-44.21H452.69l5.53-22.11h62.57Z"/><path class="cls-8" d="M461.05,1177c-19.5,49.9-63.15,84.66-113.87,84.66h-2.05c-49.6-1.17-92.1-35.59-111.26-84.65Z"/><rect class="cls-8" x="896.73" y="859.11" width="184.99" height="43.53"/><path class="cls-9" d="M1223.38,1010.31c-6.1-7.82-17.77-17.15-38.68-17.15h-2.94c-.13-4.29-.43-8.53-.84-12.75-9.76-95.85-90.86-170.81-189.17-170.81-91,0-167.19,64.22-185.82,149.7a190.6,190.6,0,0,0-4.21,33.82h-4.4c-20.93,0-32.59,9.33-38.69,17.14-6.28,8-12.6,22.2-7.12,44l16.8,66.44c7.24,28.67,28.48,45.79,56.87,45.79H836c24.34,71.68,85,122.47,156.09,122.47s131.76-50.79,156.09-122.47h8.71c28.38,0,49.62-17.12,56.86-45.79l16.81-66.44C1236,1032.5,1229.66,1018.34,1223.38,1010.31ZM850.94,993.16q-4.28,7.7-7.94,15.86-.29-4.6-.29-9.28c0-1.75,0-3.5.1-5.24a10.09,10.09,0,0,1,.06-1.34c.15-4,.47-7.89.93-11.78h0a148,148,0,0,1,4.46-22.07,2.37,2.37,0,0,0,.09-.36c17.83-62.42,75.36-108.2,143.4-108.2S1117.32,896.57,1135.11,959a148.63,148.63,0,0,1,4.2,19.8c.55,4,.94,8,1.21,12,0,.82.09,1.62.13,2.43.09,2.18.13,4.38.13,6.58,0,2.72-.06,5.42-.22,8.09q-3.43-7.51-7.4-14.67c-29.77-53.31-81.85-88.64-141.11-88.64S880.71,939.85,850.94,993.16Z"/><path class="cls-6" d="M1224.47,1009.83c-6.1-7.83-17.78-17.14-38.68-17.14h-2.94c-.13-4.3-.44-8.54-.84-12.77-9.74-95.81-90.86-170.81-189.19-170.81-91,0-167.19,64.23-185.81,149.71a189.2,189.2,0,0,0-4.21,33.87h-4.45c-20.92,0-32.57,9.31-38.68,17.14-6.27,8-12.6,22.18-7.12,44l16.81,66.47c7.23,28.66,28.48,45.79,56.85,45.79H837c24.35,71.68,85.06,122.46,156.1,122.46s131.75-50.78,156.1-122.46h8.7c28.38,0,49.63-17.13,56.86-45.79l16.8-66.44C1237.07,1032,1230.75,1017.86,1224.47,1009.83ZM852,992.69c-2.81,5.12-5.51,10.4-7.93,15.84-.2-3.07-.29-6.15-.29-9.27,0-1.76,0-3.51.09-5.25a8.28,8.28,0,0,1,.07-1.32q.22-6,.93-11.8h0a147.86,147.86,0,0,1,4.45-22.06,1.56,1.56,0,0,1,.1-.37c17.85-62.41,75.33-108.23,143.36-108.23s125.56,45.82,143.36,108.23a148.16,148.16,0,0,1,4.2,19.79c.55,4,.94,8,1.2,12,0,.81.11,1.62.13,2.44.09,2.17.14,4.37.14,6.57,0,2.71-.07,5.42-.23,8.09q-3.42-7.51-7.4-14.66C1104.43,939.38,1052.37,904,993.1,904S881.8,939.37,852,992.69Z"/><path class="cls-8" d="M1201.1,1049.45l-5.54,22.1a29.24,29.24,0,0,1-5,10.76,25.7,25.7,0,0,1-.51,11.34l-5.72,22.19c-5,20.09-18.58,31.18-38.11,31.18,0,0-262.32,1.78-339.68.27-11.61-.22,2.26-29.35,6-40.85,2.1-6.38,24.63-5.1,24.63-5.1a24,24,0,0,1-14.31-8.61c-5.16-6.57-6.32-15.65-3.51-26.91l5.55-22.11c5-19.87,18.3-30.8,37.57-30.8l218.73-.39,92.89-.21c10.52,0,18.41,3.27,23.48,9.7C1202.76,1028.75,1204,1038,1201.1,1049.45Z"/><polygon class="cls-4" points="941.94 1135.54 1046.21 1135.54 1051.76 1113.44 947.48 1113.44 941.94 1135.54"/><polygon class="cls-4" points="958.72 1069.22 953.19 1091.32 1057.47 1091.32 1063 1069.22 958.72 1069.22"/><path class="cls-4" d="M1067.32,1047.62l6-23-209,.37q-20.85,0-26.4,22.11l-5.54,22.1q-5.53,22.13,15.32,22.11h62.57l-5.71,22.1H821.14l-5.54,22.11H899q20.85,0,26.39-22.11l5.7-22.1q5.53-22.11-15.32-22.11H853.24l5.54-22.1Z"/><path class="cls-4" d="M1174.71,1025h-83.43l-27.81,110.54h83.42q20.85,0,26.38-22.12l5.7-22.1q2.76-11.05-7.67-11,10.42,0,13.15-11.06l5.53-22.11Q1195.59,1025,1174.71,1025Zm-22.29,88.43h-62.57l5.7-22.11h62.56Zm11.27-44.21h-62.56l5.53-22.1h62.56Z"/><path class="cls-8" d="M1106.41,1170.23c-19.5,49.92-63.15,84.67-113.87,84.67h-2c-49.6-1.17-92.1-35.6-111.25-84.66Z"/><rect class="cls-1" x="902.98" y="1593.37" width="184.99" height="43.53"/><path class="cls-2" d="M1229.63,1746.84c-6.11-7.83-17.78-17.15-38.69-17.15H1188c-.13-4.3-.43-8.54-.84-12.76-9.74-95.81-90.86-170.81-189.18-170.81-91,0-167.19,64.22-185.82,149.71a190.6,190.6,0,0,0-4.21,33.82h-4.44c-20.92,0-32.58,9.33-38.68,17.15-6.29,8-12.61,22.19-7.13,44l16.81,66.43c7.23,28.67,28.47,45.79,56.86,45.79h10.82c24.34,71.68,85,122.47,156.09,122.47s131.76-50.79,156.09-122.47h8.71c28.39,0,49.63-17.12,56.86-45.79l16.81-66.43C1242.23,1769,1235.91,1754.86,1229.63,1746.84Zm-372.45-17.15q-4.27,7.69-7.95,15.85c-.18-3.07-.28-6.15-.28-9.28,0-1.75,0-3.5.1-5.24a11.83,11.83,0,0,1,.05-1.33q.24-6,.94-11.79h0a147.86,147.86,0,0,1,4.45-22.06c0-.12.07-.24.1-.37,17.84-62.41,75.33-108.23,143.36-108.23s125.57,45.82,143.37,108.23a149.71,149.71,0,0,1,4.19,19.79q.84,5.94,1.21,12c0,.82.09,1.63.13,2.44.08,2.18.13,4.37.13,6.57,0,2.73-.06,5.42-.22,8.1q-3.43-7.51-7.41-14.67c-29.76-53.32-81.84-88.65-141.1-88.65S887,1676.39,857.18,1729.69Z"/><path class="cls-6" d="M1228.87,1747.57c-6.11-7.82-17.77-17.15-38.68-17.15h-2.94c-.13-4.29-.43-8.53-.85-12.76-9.73-95.8-90.85-170.81-189.17-170.81-91,0-167.2,64.22-185.82,149.72a188.66,188.66,0,0,0-4.21,33.81h-4.45c-20.92,0-32.58,9.33-38.68,17.15-6.28,8-12.6,22.19-7.12,44l16.8,66.43c7.23,28.67,28.48,45.8,56.86,45.8h10.86c24.34,71.67,85.06,122.46,156.1,122.46s131.75-50.79,156.09-122.46h8.71c28.37,0,49.62-17.13,56.85-45.8l16.81-66.43C1241.47,1769.76,1235.14,1755.6,1228.87,1747.57Zm-372.44-17.15q-4.29,7.69-7.95,15.85c-.19-3.07-.29-6.15-.29-9.27,0-1.75,0-3.51.1-5.25a9.87,9.87,0,0,1,.06-1.33q.24-5.94.94-11.79h0a147.73,147.73,0,0,1,4.45-22.05,1.64,1.64,0,0,1,.1-.38C871.64,1633.79,929.17,1588,997.2,1588s125.56,45.81,143.36,108.22a148.49,148.49,0,0,1,4.2,19.79c.55,4,.94,8,1.21,12,0,.8.09,1.61.13,2.42q.14,3.27.13,6.57,0,4.08-.23,8.09-3.43-7.52-7.4-14.67c-29.77-53.31-81.84-88.64-141.1-88.64s-111.3,35.33-141.07,88.64Z"/><path class="cls-1" d="M1201.3,1786.72l-5.54,22.1a29.15,29.15,0,0,1-5,10.77,25.7,25.7,0,0,1-.5,11.34l-5.72,22.19c-5,20.08-18.58,31.18-38.11,31.18,0,0-262.33,1.77-339.67.27-11.62-.23,2.25-29.35,6-40.84,2.1-6.39,24.63-5.11,24.63-5.11a24,24,0,0,1-14.31-8.61c-5.15-6.57-6.33-15.65-3.51-26.92l5.55-22.1c5-19.87,18.31-30.8,37.53-30.8l218.73-.38,92.89-.22c10.52,0,18.41,3.26,23.48,9.69C1203,1766,1204.18,1775.26,1201.3,1786.72Z"/><polygon class="cls-4" points="942.89 1874.33 1047.17 1874.33 1052.71 1852.23 948.43 1852.23 942.89 1874.33"/><polygon class="cls-4" points="959.68 1808.01 954.13 1830.12 1058.42 1830.12 1063.96 1808.01 959.68 1808.01"/><path class="cls-4" d="M1068.27,1786.4l6-23-209,.37q-20.85,0-26.4,22.1L833.34,1808q-5.55,22.11,15.31,22.11h62.57l-5.7,22.11H822.1l-5.54,22.1H900q20.87,0,26.4-22.1l5.7-22.11q5.53-22.11-15.31-22.11H854.19l5.55-22.11Z"/><path class="cls-4" d="M1175.66,1763.75h-83.42l-27.82,110.54h83.42q20.85,0,26.39-22.11l5.69-22.11q2.76-11-7.66-11,10.42,0,13.15-11.06l5.52-22.1Q1196.53,1763.75,1175.66,1763.75Zm-22.29,88.43H1090.8l5.7-22.11h62.56Zm11.27-44.22h-62.57l5.54-22.11h62.56Z"/><path class="cls-1" d="M1112.65,1904.49c-19.45,49.93-63.15,84.69-113.86,84.69h-2.06c-49.6-1.18-92.05-35.6-111.26-84.66Z"/><rect class="cls-1" x="1569.73" y="857.81" width="184.99" height="43.53"/><path class="cls-2" d="M1896.38,1011.27c-6.1-7.82-17.77-17.14-38.68-17.14h-2.94c-.13-4.29-.43-8.54-.84-12.75-9.74-95.81-90.86-170.81-189.18-170.81-91,0-167.19,64.22-185.82,149.7a190.48,190.48,0,0,0-4.21,33.82h-4.44c-20.92,0-32.58,9.31-38.69,17.14-6.27,8-12.6,22.19-7.12,44l16.81,66.43c7.23,28.68,28.47,45.8,56.86,45.8H1509C1533.29,1239.18,1594,1290,1665,1290s131.76-50.78,156.09-122.46h8.71c28.39,0,49.62-17.12,56.86-45.8l16.81-66.43C1909,1033.47,1902.67,1019.31,1896.38,1011.27Zm-372.44-17.14q-4.28,7.7-8,15.85c-.18-3.06-.29-6.15-.29-9.27,0-1.76,0-3.51.11-5.25a11.83,11.83,0,0,1,0-1.33q.26-5.94.94-11.79h0a148,148,0,0,1,4.45-22.05c0-.12.07-.25.1-.38,17.84-62.4,75.33-108.21,143.36-108.21s125.57,45.81,143.37,108.21a150.54,150.54,0,0,1,4.19,19.8q.84,5.94,1.21,12c0,.81.09,1.62.13,2.43.09,2.18.13,4.38.13,6.58,0,2.72-.06,5.42-.22,8.08q-3.42-7.51-7.4-14.66c-29.77-53.31-81.85-88.65-141.11-88.65S1553.72,940.82,1523.94,994.13Z"/><path class="cls-8" d="M1895.63,1012c-6.11-7.82-17.77-17.14-38.68-17.14H1854c-.13-4.3-.43-8.54-.85-12.76C1843.45,886.3,1762.33,811.3,1664,811.3c-91,0-167.2,64.22-185.81,149.7a188.77,188.77,0,0,0-4.21,33.82h-4.45c-20.92,0-32.58,9.33-38.68,17.14-6.28,8-12.6,22.2-7.12,44l16.8,66.44c7.23,28.67,28.48,45.79,56.86,45.79h10.82c24.34,71.68,85.06,122.47,156.1,122.47s131.75-50.79,156.09-122.47h8.71c28.38,0,49.62-17.12,56.85-45.79l16.81-66.44C1908.23,1034.2,1901.93,1020,1895.63,1012Zm-372.44-17.14q-4.29,7.68-8,15.85c-.2-3.07-.29-6.16-.29-9.28,0-1.75,0-3.5.1-5.24a9.87,9.87,0,0,1,.06-1.33q.23-6,.94-11.79h0A148,148,0,0,1,1520.5,961a1.36,1.36,0,0,1,.1-.36c17.84-62.41,75.33-108.23,143.35-108.23s125.6,45.81,143.4,108.23a146.58,146.58,0,0,1,4.19,19.79c.56,3.95.94,7.95,1.22,12,0,.82.09,1.63.13,2.43.08,2.18.13,4.38.13,6.58q0,4.08-.24,8.1-3.42-7.51-7.39-14.68c-29.77-53.31-81.84-88.64-141.1-88.64S1553,941.55,1523.19,994.87Z"/><path class="cls-1" d="M1870.33,1051.92l-5.55,22.1a28.85,28.85,0,0,1-5,10.76,25.6,25.6,0,0,1-.51,11.35l-5.72,22.19c-5,20.08-18.57,31.18-38.11,31.18,0,0-262.31,1.77-339.67.26-11.61-.22,2.25-29.34,6-40.84,2.09-6.38,24.62-5.11,24.62-5.11a24,24,0,0,1-14.31-8.6c-5.15-6.57-6.32-15.65-3.5-26.92l5.55-22.1c5-19.87,18.3-30.8,37.57-30.8l218.72-.39,92.9-.21c10.52,0,18.4,3.26,23.43,9.69C1872,1031.23,1873.2,1040.49,1870.33,1051.92Z"/><polygon class="cls-4" points="1611.91 1139.53 1716.2 1139.53 1721.74 1117.42 1617.46 1117.42 1611.91 1139.53"/><polygon class="cls-4" points="1628.7 1073.2 1623.16 1095.31 1727.44 1095.31 1732.98 1073.2 1628.7 1073.2"/><path class="cls-4" d="M1737.29,1051.6l6-23-209,.38q-20.86,0-26.39,22.1l-5.54,22.11q-5.56,22.11,15.31,22.1h62.56l-5.7,22.11h-83.42l-5.54,22.11H1569q20.85,0,26.39-22.11l5.7-22.11q5.55-22.1-15.31-22.1h-62.56l5.54-22.11Z"/><path class="cls-4" d="M1844.68,1029h-83.42l-27.82,110.55h83.43q20.85,0,26.38-22.11l5.7-22.12q2.76-11-7.67-11,10.42,0,13.15-11.07l5.54-22.1Q1865.54,1029,1844.68,1029Zm-22.29,88.44h-62.55l5.69-22.12h62.56Zm11.27-44.23h-62.55l5.52-22.11h62.57Z"/><path class="cls-1" d="M1779.41,1168.94c-19.5,49.9-63.15,84.66-113.86,84.66h-2.06c-49.6-1.16-92.1-35.6-111.26-84.65Z"/><rect class="cls-10" x="1591.07" y="1596.98" width="184.99" height="43.53"/><path class="cls-11" d="M1919.23,1745.9c-6.1-7.83-17.77-17.15-38.68-17.15h-2.94c-.13-4.29-.43-8.54-.84-12.76-9.73-95.81-90.86-170.81-189.18-170.81-91,0-167.19,64.22-185.82,149.72a187.63,187.63,0,0,0-4.2,33.81h-4.46c-20.92,0-32.57,9.33-38.68,17.15-6.27,8-12.59,22.19-7.12,44l16.81,66.43c7.23,28.67,28.48,45.79,56.85,45.79h10.88c24.34,71.68,85.05,122.47,156.09,122.47S1819.7,1973.8,1844,1902.12h8.71c28.38,0,49.62-17.12,56.86-45.79l16.8-66.43C1931.84,1768.11,1925.51,1754,1919.23,1745.9Zm-372.44-17.15q-4.27,7.7-7.94,15.85c-.2-3.07-.29-6.15-.29-9.27,0-1.75,0-3.51.09-5.25a8.47,8.47,0,0,1,.07-1.33q.24-6,.94-11.79h0a146.86,146.86,0,0,1,4.45-22.06,1.54,1.54,0,0,1,.09-.37c17.85-62.41,75.33-108.23,143.37-108.23s125.55,45.82,143.35,108.23a148.49,148.49,0,0,1,4.2,19.79c.55,4,.94,8,1.21,12,0,.82.1,1.63.13,2.44q.13,3.27.14,6.57,0,4.08-.23,8.09-3.43-7.51-7.4-14.67c-29.78-53.32-81.84-88.64-141.1-88.64s-111.31,35.34-141.08,88.67Z"/><path class="cls-12" d="M1919.56,1749.21c-6.1-7.82-17.77-17.14-38.68-17.14h-2.94c-.13-4.29-.43-8.54-.84-12.76-9.73-95.81-90.86-170.81-189.18-170.81-91,0-167.19,64.23-185.82,149.71a188.65,188.65,0,0,0-4.21,33.82h-4.45c-20.92,0-32.57,9.31-38.68,17.14-6.27,8-12.59,22.18-7.12,44l16.81,66.43c7.23,28.67,28.48,45.79,56.85,45.79h10.83c24.34,71.69,85,122.47,156.09,122.47s131.76-50.78,156.1-122.47h8.7c28.38,0,49.63-17.12,56.86-45.79l16.8-66.43C1932.17,1771.4,1925.84,1757.25,1919.56,1749.21Zm-372.44-17.14q-4.27,7.68-7.94,15.85c-.2-3.07-.29-6.15-.29-9.27,0-1.76,0-3.51.09-5.25a9.87,9.87,0,0,1,.06-1.33c.16-4,.47-7.91.94-11.79h0a146.63,146.63,0,0,1,4.46-22.06,1.75,1.75,0,0,1,.09-.38c17.85-62.4,75.33-108.22,143.37-108.22s125.55,45.82,143.35,108.22a148.78,148.78,0,0,1,4.2,19.81c.55,3.94.94,7.95,1.21,12,0,.81.09,1.61.13,2.43.09,2.17.13,4.38.13,6.58,0,2.72-.07,5.42-.22,8.08q-3.43-7.52-7.4-14.66c-29.78-53.31-81.84-88.65-141.1-88.65S1576.94,1678.76,1547.12,1732.07Z"/><path class="cls-10" d="M1884.09,1787.32l-5.54,22.1a29.31,29.31,0,0,1-5,10.77,25.56,25.56,0,0,1-.51,11.34l-5.72,22.19c-5,20.08-18.57,31.19-38.1,31.19,0,0-262.32,1.76-339.67.26-11.62-.23,2.24-29.35,6-40.85,2.1-6.38,24.62-5.1,24.62-5.1a24.13,24.13,0,0,1-14.31-8.61c-5.15-6.57-6.32-15.64-3.5-26.92l5.55-22.1c5-19.86,18.3-30.8,37.57-30.8l218.72-.38,92.9-.23c10.52,0,18.4,3.27,23.48,9.7C1885.77,1766.63,1887,1775.85,1884.09,1787.32Z"/><polygon class="cls-4" points="1636.95 1830.71 1741.23 1830.71 1746.77 1808.61 1642.49 1808.61 1636.95 1830.71"/><polygon class="cls-4" points="1625.7 1874.93 1729.98 1874.93 1735.53 1852.83 1631.25 1852.83 1625.7 1874.93"/><polygon class="cls-4" points="1653.56 1764.4 1653.43 1764.95 1648.03 1786.51 1752.31 1786.51 1757.85 1764.4 1653.56 1764.4"/><path class="cls-4" d="M1751.09,1787l6-23-209,.36q-20.86,0-26.39,22.12l-5.55,22.1q-5.52,22.11,15.31,22.11H1594l-5.7,22.1h-83.42l-5.54,22.11h83.42q20.85,0,26.39-22.11l5.7-22.1q5.53-22.11-15.31-22.11H1537l5.54-22.1Z"/><path class="cls-4" d="M1858.47,1764.38h-83.42l-27.81,110.54h83.42q20.85,0,26.38-22.11l5.7-22.11q2.76-11.06-7.67-11.06,10.42,0,13.2-11.05l5.53-22.11Q1879.32,1764.37,1858.47,1764.38Zm-22.29,88.43h-62.56l5.7-22.11h62.56Zm11.27-44.21H1784.9l5.53-22.11H1853Z"/><path class="cls-10" d="M1800.75,1908.11c-19.5,49.91-63.15,84.67-113.87,84.67h-2.05c-49.6-1.17-92-35.6-111.26-84.65Z"/><rect class="cls-8" x="216.22" y="1575.71" width="184.99" height="43.53"/><path class="cls-9" d="M542.87,1726.92c-6.11-7.83-17.78-17.16-38.69-17.16h-2.93c-.14-4.29-.44-8.53-.85-12.75-9.73-95.81-90.86-170.81-189.18-170.81-91,0-167.19,64.22-185.81,149.71a188.65,188.65,0,0,0-4.21,33.82h-4.45c-20.92,0-32.57,9.32-38.68,17.15-6.28,8-12.6,22.18-7.13,44l16.82,66.44c7.23,28.67,28.47,45.79,56.85,45.79h10.82c24.34,71.68,85,122.47,156.09,122.47s131.76-50.75,156.11-122.43h8.7c28.39,0,49.64-17.13,56.86-45.79L550,1771C555.47,1749.1,549.15,1734.94,542.87,1726.92Zm-372.45-17.16c-2.82,5.13-5.51,10.42-7.93,15.86-.2-3.07-.3-6.15-.3-9.28,0-1.75,0-3.5.1-5.24a12.09,12.09,0,0,1,.05-1.34q.25-5.94.94-11.78h0a146.63,146.63,0,0,1,4.46-22.06c0-.12.07-.25.09-.37,17.8-62.41,75.33-108.23,143.37-108.23s125.56,45.82,143.36,108.23a146.58,146.58,0,0,1,4.19,19.79q.84,5.92,1.21,12c.05.82.1,1.63.13,2.43.09,2.18.13,4.38.13,6.58,0,2.72-.06,5.42-.22,8.1q-3.44-7.52-7.4-14.68c-29.77-53.31-81.84-88.64-141.1-88.64S200.2,1656.45,170.42,1709.76Z"/><path class="cls-1" d="M544,1726.43c-6.1-7.83-17.77-17.14-38.68-17.14h-2.89c-.13-4.3-.43-8.54-.85-12.77-9.73-95.81-90.85-170.8-189.18-170.8-91,0-167.19,64.22-185.81,149.7a188.77,188.77,0,0,0-4.21,33.82h-4.5c-20.92,0-32.57,9.32-38.68,17.14-6.27,8-12.59,22.19-7.12,44l16.81,66.43c7.23,28.67,28.47,45.79,56.85,45.79h10.82c24.35,71.78,85.06,122.51,156.13,122.51s131.72-50.73,156.07-122.46h8.7c28.38,0,49.63-17.12,56.86-45.79l16.8-66.43C556.55,1748.61,550.23,1734.46,544,1726.43Zm-372.44-17.16q-4.27,7.68-7.94,15.84c-.2-3.07-.3-6.15-.3-9.27,0-1.75,0-3.5.1-5.25a9.72,9.72,0,0,1,.06-1.32q.23-6,.94-11.8h0a148.12,148.12,0,0,1,4.45-22.06,1.56,1.56,0,0,1,.1-.37c17.8-62.41,75.33-108.23,143.36-108.23S437.84,1612.63,455.64,1675a148.63,148.63,0,0,1,4.2,19.8c.55,4,.94,8,1.21,12,.05.81.09,1.62.13,2.44.09,2.17.13,4.37.13,6.57,0,2.72-.07,5.42-.23,8.09q-3.43-7.51-7.39-14.66c-29.78-53.32-81.84-88.66-141.1-88.66S201.28,1656,171.51,1709.27Z"/><path class="cls-8" d="M518.7,1766.22l-5.54,22.11a29.2,29.2,0,0,1-5,10.75,25.75,25.75,0,0,1-.52,11.35l-5.71,22.19c-5,20.08-18.58,31.18-38.11,31.18,0,0-262.32,1.77-339.68.26-11.61-.22,2.26-29.34,6-40.84,2.1-6.39,24.63-5.11,24.63-5.11a24,24,0,0,1-14.31-8.6c-5.16-6.58-6.33-15.65-3.51-26.92l5.55-22.1c5-19.87,18.3-30.8,37.57-30.8l218.73-.39,92.89-.21c10.52,0,18.4,3.25,23.48,9.69C520.36,1745.53,521.58,1754.76,518.7,1766.22Z"/><polygon class="cls-4" points="260.3 1852.32 364.57 1852.32 370.11 1830.22 265.83 1830.22 260.3 1852.32"/><polygon class="cls-4" points="277.08 1786 271.54 1808.1 375.82 1808.1 381.36 1786 277.08 1786"/><path class="cls-4" d="M385.67,1764.38l6.05-23-209.05.38q-20.85,0-26.39,22.11l-5.55,22.1q-5.52,22.11,15.32,22.11h62.57l-5.7,22.1H139.49L134,1852.32h83.42q20.85,0,26.39-22.11l5.7-22.1Q255,1786,234.15,1786H171.6l5.53-22.1Z"/><path class="cls-4" d="M493.06,1741.77H409.64L381.82,1852.3h83.42q20.85,0,26.38-22.12l5.7-22.11q2.82-11-7.66-11,10.43,0,13.15-11.06l5.53-22.11Q513.92,1741.77,493.06,1741.77Zm-22.29,88.43H408.21l5.69-22.11h62.56ZM482,1786H419.43l5.53-22.11h62.57Z"/><path class="cls-8" d="M425.89,1886.79c-19.49,49.92-63.15,84.68-113.86,84.68H310c-49.6-1.17-92.09-35.6-111.26-84.66Z"/></g></g></svg>