<svg id="Layer_1" data-name="Layer 1" xmlns="http://www.w3.org/2000/svg" viewBox="0 0 576 576"><defs><style>.cls-1{fill:#f1185c;}.cls-2{stroke:#f1185c;stroke-miterlimit:10;stroke-width:39.77px;}.cls-3{fill:#6b09b8;}.cls-4{fill:#fff;}</style></defs><rect class="cls-1" x="201.22" y="121.27" width="160.1" height="37.67"/><path class="cls-2" d="M483.91,252.12c-5.28-6.77-15.38-14.83-33.48-14.83h-2.56c-.11-3.72-.37-7.39-.73-11-8.42-82.92-78.63-147.83-163.71-147.83C204.69,78.42,138.73,134,122.61,208A164.75,164.75,0,0,0,119,237.25h-3.83c-18.1,0-28.19,8.06-33.48,14.83-5.43,6.95-10.91,19.2-6.17,38.12L90,347.69c6.26,24.86,24.64,39.7,49.21,39.7h9.36c21.07,62,73.61,106,135.06,106s114.06-44,135.12-106h7.53c24.57,0,42.95-14.81,49.21-39.63l14.55-57.49C494.82,271.32,489.33,259.07,483.91,252.12ZM161.59,237.29Q157.89,244,154.71,251c-.16-2.66-.25-5.32-.25-8,0-1.52,0-3,.09-4.55a8.7,8.7,0,0,1,0-1.14q.19-5.16.81-10.2h0A128.19,128.19,0,0,1,159.3,208a3,3,0,0,0,.08-.32,129,129,0,0,1,251.76,17.15c.49,3.42.84,6.89,1.05,10.39,0,.7.08,1.4.11,2.1.07,1.88.12,3.79.12,5.69,0,2.36-.06,4.69-.2,7q-3-6.5-6.41-12.69c-25.76-46.15-70.82-76.71-122.14-76.71S187.36,191.15,161.59,237.29Z"/><path class="cls-3" d="M484.85,251.71c-5.28-6.77-15.39-14.85-33.47-14.85h-2.55c-.11-3.71-.38-7.38-.73-11C439.67,142.91,369.47,78,284.38,78c-78.74,0-144.7,55.58-160.81,129.57a162.81,162.81,0,0,0-3.64,29.26h-3.86c-18.1,0-28.19,8.07-33.47,14.85-5.41,7-10.91,19.23-6.16,38.16L91,347.31c6.26,24.81,24.65,39.63,49.21,39.63h9.32c21.07,62,73.61,106,135.09,106s114-44,135.09-106h7.54c24.56,0,42.94-14.82,49.2-39.63L491,289.84C495.75,270.91,490.28,258.65,484.85,251.71Zm-322.3-14.85q-3.7,6.66-6.88,13.73c-.17-2.66-.25-5.33-.25-8,0-1.51,0-3,.08-4.53a7.52,7.52,0,0,1,.06-1.16q.19-5.15.81-10.2h0a127.67,127.67,0,0,1,3.84-19.08,1.59,1.59,0,0,1,.09-.33c15.42-54,65.21-93.67,124.08-93.67S393,153.27,408.45,207.24a130.2,130.2,0,0,1,3.66,17.13c.48,3.42.81,6.89,1,10.39q.08,1.06.12,2.1c.07,1.89.11,3.79.11,5.69,0,2.36-.06,4.7-.2,7q-3-6.5-6.41-12.7C381,190.72,336,160.15,284.66,160.15S188.29,190.72,162.55,236.86Z"/><path class="cls-1" d="M463,286.14l-4.78,19.15a25.51,25.51,0,0,1-4.36,9.31,22.12,22.12,0,0,1-.44,9.81l-5,19.21c-4.35,17.38-16.07,27-33,27,0,0-227,1.53-294,.23-10.06-.2,2-25.4,5.22-35.35,1.81-5.52,21.31-4.42,21.31-4.42a20.81,20.81,0,0,1-12.39-7.45c-4.46-5.69-5.47-13.54-3-23.29l4.81-19.13c4.3-17.2,15.84-26.65,32.51-26.65l189.3-.34,80.39-.19c9.11,0,15.93,2.83,20.28,8.39C464.43,268.23,465.49,276.22,463,286.14Z"/><polygon class="cls-4" points="239.37 360.65 329.61 360.65 334.4 341.52 244.15 341.52 239.37 360.65"/><polygon class="cls-4" points="253.88 303.25 249.1 322.39 339.34 322.39 344.13 303.25 253.88 303.25"/><path class="cls-4" d="M347.89,284.56l5.22-19.92L172.19,265q-18,0-22.84,19.12l-4.8,19.14q-4.77,19.13,13.26,19.13H212l-5,19.13H134.82L130,360.65h72.19q18.06,0,22.85-19.12l5-19.17q4.8-19.14-13.26-19.13H162.62l4.8-19.08Z"/><path class="cls-4" d="M440.81,265h-72.2l-24.07,95.7h72.19q18,0,22.84-19.14l4.92-19.18q2.44-9.57-6.62-9.56,9,0,11.38-9.58L454,284.09Q458.84,265,440.81,265Zm-19.29,76.54H367.37l4.9-19.12h54.15Zm9.71-38.27H377.09l4.79-19.1H436Z"/><path class="cls-1" d="M382.68,390.53C365.77,433.72,328,463.8,284.14,463.8h-1.78c-42.93-1-79.66-30.81-96.29-73.26Z"/></svg>