<svg xmlns="http://www.w3.org/2000/svg" viewBox="0 0 2028.69 2116.2"><defs><style>.cls-1{fill:#6b09b8;}.cls-2{stroke:#6b09b8;}.cls-11,.cls-2,.cls-5,.cls-7,.cls-9{stroke-miterlimit:10;stroke-width:48.92px;}.cls-3{fill:#f78f1e;}.cls-4{fill:#fff;}.cls-5{stroke:#f78f1e;}.cls-6{fill:#01dac5;}.cls-7{stroke:#01dac5;}.cls-8{fill:#f1185c;}.cls-9{stroke:#f1185c;}.cls-10{fill:#1ca2b1;}.cls-11{stroke:#1ca2b1;}.cls-12{fill:#ba427e;}</style></defs><title>Asset 2</title><g id="Layer_2" data-name="Layer 2"><g id="Layer_1-2" data-name="Layer 1"><rect class="cls-1" x="215.29" y="76.63" width="196.95" height="46.34"/><path class="cls-2" d="M563.05,240c-6.5-8.33-18.92-18.26-41.18-18.26h-3.13c-.14-4.57-.46-9.09-.9-13.58-10.36-102-96.73-181.85-201.4-181.85-96.86,0-178,68.37-197.83,159.39a201.7,201.7,0,0,0-4.48,36h-4.74c-22.27,0-34.68,9.93-41.18,18.26-6.68,8.54-13.41,23.62-7.58,46.88l17.89,70.73c7.7,30.52,30.32,48.75,60.54,48.75h11.52c25.91,76.31,90.55,130.38,166.18,130.38S457,482.69,482.94,406.38h9.27c30.21,0,52.83-18.23,60.53-48.75l17.9-70.73C576.47,263.64,569.73,248.56,563.05,240ZM166.54,221.76Q162,230,158.08,238.64c-.2-3.27-.31-6.55-.31-9.87,0-1.87,0-3.74.11-5.59,0-.48,0-.94.06-1.42q.26-6.33,1-12.55h0a157.23,157.23,0,0,1,4.74-23.48c0-.14.07-.27.1-.4C182.76,118.88,244,70.1,316.44,70.1s133.67,48.78,152.62,115.22a157.93,157.93,0,0,1,4.47,21.07c.59,4.21,1,8.47,1.29,12.78.05.87.1,1.73.14,2.59q.14,3.48.14,7,0,4.33-.24,8.61-3.66-8-7.88-15.62c-31.7-56.76-87.13-94.37-150.22-94.37S198.23,165,166.54,221.76Z"/><path class="cls-3" d="M562.25,240.8c-6.5-8.33-18.93-18.26-41.18-18.26h-3.13c-.14-4.57-.47-9.08-.9-13.58C506.67,107,420.31,27.11,315.63,27.11c-96.86,0-178,68.37-197.82,159.39a200.91,200.91,0,0,0-4.48,36h-4.74c-22.27,0-34.68,9.93-41.18,18.26-6.68,8.55-13.42,23.62-7.58,46.88l17.89,70.73c7.7,30.52,30.32,48.75,60.53,48.75h11.52C175.69,483.47,240.32,537.54,316,537.54s140.27-54.07,166.19-130.38h9.27c30.21,0,52.83-18.23,60.53-48.75l17.89-70.73C575.66,264.42,568.93,249.35,562.25,240.8ZM165.74,222.54q-4.56,8.19-8.46,16.88c-.21-3.27-.31-6.55-.31-9.87,0-1.87,0-3.74.1-5.59,0-.48,0-.94.07-1.42q.24-6.33,1-12.55h0a157.21,157.21,0,0,1,4.73-23.48c0-.14.08-.27.11-.4,19-66.44,80.2-115.22,152.62-115.22S449.31,119.66,468.26,186.1a159.52,159.52,0,0,1,4.47,21.07c.59,4.21,1,8.47,1.28,12.79q.09,1.29.15,2.58.13,3.48.14,7,0,4.33-.25,8.61-3.65-8-7.88-15.62c-31.69-56.75-87.12-94.37-150.22-94.37S197.43,165.79,165.74,222.54Z"/><path class="cls-1" d="M531.29,283.28l-5.9,23.54A30.93,30.93,0,0,1,520,318.27a27.32,27.32,0,0,1-.54,12.08L513.41,354c-5.36,21.39-19.78,33.2-40.57,33.2,0,0-279.28,1.89-361.62.29-12.37-.24,2.39-31.25,6.41-43.49,2.23-6.8,26.22-5.43,26.22-5.43-6.49-1.43-11.6-4.5-15.24-9.17-5.48-7-6.73-16.66-3.73-28.65l5.91-23.54c5.29-21.15,19.49-32.79,40-32.79L403.61,244l98.89-.23c11.2,0,19.6,3.48,25,10.33C533.05,261.26,534.35,271.08,531.29,283.28Z"/><polygon class="cls-4" points="254.57 374.95 365.59 374.95 371.49 351.42 260.47 351.42 254.57 374.95"/><polygon class="cls-4" points="272.44 304.34 266.55 327.87 377.56 327.87 383.46 304.34 272.44 304.34"/><path class="cls-4" d="M388.06,281.34l6.43-24.46-222.55.39q-22.22,0-28.1,23.54l-5.9,23.53q-5.9,23.55,16.3,23.54h66.61l-6.07,23.53H126L120.07,375h88.81q22.2,0,28.11-23.54l6.07-23.53q5.9-23.53-16.31-23.54H160.14l5.9-23.53Z"/><path class="cls-4" d="M502.38,257.25l-88.81,0L384,375l88.81,0q22.2,0,28.09-23.55l6.06-23.53q2.94-11.78-8.16-11.77,11.1,0,14-11.77l5.89-23.54Q524.58,257.25,502.38,257.25ZM478.66,351.4l-66.61,0,6.06-23.54,66.61,0Zm11.95-47.07-66.61,0,5.89-23.53,66.6,0Z"/><path class="cls-1" d="M438.52,407.86C417.76,461,371.29,498,317.29,498l-2.18,0c-52.81-1.25-98.06-37.9-118.45-90.13Z"/><rect class="cls-3" x="906.51" y="75.41" width="196.95" height="46.34"/><path class="cls-5" d="M1254.27,238.8c-6.5-8.33-18.92-18.26-41.18-18.26H1210c-.14-4.57-.46-9.09-.9-13.58-10.36-102-96.73-181.85-201.4-181.85-96.86,0-178,68.37-197.83,159.39a201.7,201.7,0,0,0-4.48,36h-4.74c-22.27,0-34.68,9.93-41.18,18.26-6.68,8.54-13.41,23.62-7.58,46.88l17.89,70.73c7.7,30.52,30.32,48.75,60.53,48.75H841.8c25.91,76.31,90.55,130.38,166.18,130.38s140.27-54.07,166.18-130.38h9.27c30.21,0,52.83-18.23,60.53-48.75l17.89-70.73C1267.69,262.42,1261,247.34,1254.27,238.8ZM857.76,220.54q-4.56,8.19-8.46,16.88c-.2-3.27-.31-6.55-.31-9.87,0-1.87,0-3.74.11-5.59,0-.48,0-.94.06-1.42q.26-6.33,1-12.55h0a157,157,0,0,1,4.74-23.48c0-.14.07-.27.1-.4,19-66.44,80.2-115.22,152.63-115.22s133.67,48.78,152.62,115.22a157.93,157.93,0,0,1,4.47,21.07c.59,4.21,1,8.47,1.29,12.78,0,.87.1,1.73.14,2.59q.13,3.48.14,7,0,4.33-.24,8.61-3.66-8-7.88-15.62c-31.7-56.76-87.13-94.37-150.22-94.37S889.45,163.78,857.76,220.54Z"/><path class="cls-1" d="M1251.27,235.29c-6.5-8.33-18.93-18.26-41.18-18.26H1207c-.14-4.57-.47-9.08-.9-13.58-10.37-102-96.73-181.85-201.41-181.85C907.79,21.6,826.61,90,806.83,181a200.91,200.91,0,0,0-4.48,36h-4.74c-22.27,0-34.68,9.93-41.18,18.26-6.68,8.55-13.42,23.62-7.58,46.88l17.89,70.73c7.7,30.52,30.32,48.75,60.53,48.75h11.52C864.71,478,929.34,532,1005,532S1145.24,478,1171.16,401.65h9.27c30.21,0,52.83-18.23,60.53-48.75l17.89-70.73C1264.68,258.91,1258,243.84,1251.27,235.29ZM854.75,217c-3,5.46-5.87,11.09-8.45,16.88-.21-3.27-.31-6.55-.31-9.87,0-1.87,0-3.74.1-5.59,0-.48,0-.94.07-1.42.16-4.22.51-8.4,1-12.55h0A158.5,158.5,0,0,1,851.92,181c0-.14.08-.27.11-.4C871,114.15,932.23,65.37,1004.65,65.37s133.68,48.78,152.63,115.22a159.52,159.52,0,0,1,4.47,21.07c.59,4.21,1,8.47,1.28,12.79,0,.86.11,1.72.14,2.58.09,2.32.15,4.66.15,7,0,2.89-.08,5.77-.25,8.61q-3.64-8-7.88-15.62c-31.69-56.75-87.12-94.37-150.22-94.37S886.45,160.28,854.75,217Z"/><path class="cls-3" d="M1218.49,278.85l-5.9,23.53a31,31,0,0,1-5.35,11.46,27.28,27.28,0,0,1-.54,12.07l-6.09,23.63c-5.36,21.38-19.78,33.2-40.57,33.2,0,0-279.28,1.88-361.62.28-12.37-.24,2.39-31.25,6.41-43.49,2.23-6.79,26.22-5.43,26.22-5.43-6.49-1.43-11.6-4.49-15.24-9.16-5.48-7-6.73-16.66-3.73-28.66L818,272.75c5.29-21.15,19.49-32.79,40-32.79l232.87-.41,98.89-.23c11.2,0,19.6,3.47,25,10.32C1220.25,256.82,1221.55,266.65,1218.49,278.85Z"/><polygon class="cls-4" points="960.45 300.71 954.55 324.24 1065.57 324.24 1071.46 300.71 960.45 300.71"/><polygon class="cls-4" points="942.58 371.32 1053.6 371.32 1059.49 347.79 948.47 347.79 942.58 371.32"/><path class="cls-4" d="M1076.06,277.7l6.44-24.46-222.56.4q-22.2,0-28.1,23.54l-5.9,23.53q-5.9,23.54,16.31,23.54h66.61l-6.07,23.53H814l-5.89,23.54h88.81q22.2,0,28.1-23.54l6.07-23.53q5.9-23.53-16.31-23.54h-66.6L854,277.18Z"/><path class="cls-4" d="M1190.39,253.62l-88.81,0L1072,371.34l88.81,0q22.2,0,28.09-23.55l6.06-23.53q3-11.78-8.15-11.77,11.1,0,14-11.77l5.89-23.54Q1212.6,253.61,1190.39,253.62Zm-23.73,94.15-66.61,0,6.06-23.54,66.61,0Zm11.95-47.07-66.61,0,5.89-23.54,66.61,0Z"/><path class="cls-3" d="M1129.74,406.64c-20.76,53.14-67.23,90.14-121.23,90.14h-2.18c-52.81-1.25-98.06-37.9-118.45-90.13Z"/><rect class="cls-6" x="1622.85" y="89.39" width="196.95" height="46.34"/><path class="cls-7" d="M1972.15,238.14c-6.5-8.32-18.92-18.25-41.18-18.25h-3.13c-.14-4.57-.46-9.09-.9-13.58-10.36-102-96.73-181.85-201.4-181.85-96.86,0-178,68.37-197.83,159.38a201.93,201.93,0,0,0-4.48,36h-4.73c-22.28,0-34.69,9.93-41.19,18.25-6.68,8.55-13.41,23.63-7.58,46.89l17.9,70.73c7.69,30.52,30.31,48.75,60.53,48.75h11.52c25.91,76.31,90.55,130.38,166.18,130.38S1866.13,480.82,1892,404.51h9.27c30.22,0,52.83-18.23,60.53-48.75l17.9-70.73C1985.57,261.77,1978.83,246.69,1972.15,238.14Zm-396.51-18.25q-4.56,8.19-8.46,16.88c-.2-3.27-.31-6.56-.31-9.88,0-1.86,0-3.73.11-5.58,0-.48,0-.94.06-1.42q.26-6.33,1-12.55h0a157.36,157.36,0,0,1,4.74-23.49,3.75,3.75,0,0,0,.1-.39c18.95-66.44,80.2-115.22,152.63-115.22S1859.22,117,1878.16,183.45a157.26,157.26,0,0,1,4.47,21.07c.59,4.21,1,8.47,1.29,12.78,0,.87.1,1.73.14,2.59.09,2.32.14,4.66.14,7,0,2.9-.07,5.77-.24,8.62q-3.66-8-7.88-15.62c-31.69-56.76-87.13-94.37-150.22-94.37S1607.34,163.13,1575.64,219.89Z"/><path class="cls-3" d="M1973.31,238.43c-6.5-8.33-18.93-18.25-41.18-18.25H1929c-.14-4.57-.47-9.09-.9-13.58-10.37-102-96.73-181.85-201.41-181.85-96.86,0-178,68.37-197.82,159.38a201,201,0,0,0-4.48,36.05h-4.74c-22.27,0-34.68,9.92-41.18,18.25-6.68,8.55-13.42,23.63-7.58,46.89L1488.78,356c7.7,30.53,30.32,48.76,60.53,48.76h11.52c25.92,76.31,90.55,130.38,166.18,130.38s140.27-54.07,166.19-130.38h9.27c30.21,0,52.83-18.23,60.53-48.76l17.89-70.72C1986.72,262.06,1980,247,1973.31,238.43Zm-396.52-18.25c-3,5.46-5.87,11.08-8.45,16.88q-.31-4.91-.31-9.88c0-1.86,0-3.73.1-5.58,0-.48,0-.94.07-1.42q.24-6.33,1-12.55v0a157.21,157.21,0,0,1,4.73-23.48c0-.14.08-.27.11-.4,19-66.44,80.2-115.21,152.62-115.21s133.68,48.77,152.63,115.21a159.32,159.32,0,0,1,4.47,21.08c.59,4.21,1,8.47,1.28,12.78,0,.86.11,1.73.15,2.59.08,2.32.14,4.66.14,7q0,4.35-.25,8.61-3.64-8-7.88-15.61c-31.69-56.76-87.12-94.38-150.22-94.38S1608.49,163.42,1576.79,220.18Z"/><path class="cls-6" d="M1945.21,282.22l-5.89,23.53a31.22,31.22,0,0,1-5.36,11.46,27.13,27.13,0,0,1-.54,12.07l-6.09,23.62c-5.35,21.39-19.77,33.2-40.56,33.2,0,0-279.28,1.89-361.63.29-12.37-.24,2.4-31.25,6.41-43.49,2.24-6.8,26.23-5.43,26.23-5.43-6.49-1.43-11.6-4.49-15.25-9.17-5.48-7-6.73-16.65-3.73-28.65l5.91-23.54c5.29-21.15,19.49-32.78,40-32.78l232.86-.42,98.9-.23c11.2,0,19.59,3.48,25,10.33C1947,260.19,1948.28,270,1945.21,282.22Z"/><polygon class="cls-4" points="1669.3 371.47 1780.32 371.47 1786.22 347.94 1675.2 347.94 1669.3 371.47"/><polygon class="cls-4" points="1687.17 300.86 1681.27 324.39 1792.29 324.39 1798.19 300.86 1687.17 300.86"/><path class="cls-4" d="M1802.78,277.86l6.44-24.46-222.56.39q-22.2,0-28.1,23.54l-5.89,23.53q-5.91,23.55,16.3,23.54h66.61l-6.07,23.53H1540.7l-5.9,23.54h88.81q22.2,0,28.1-23.54l6.07-23.53q5.9-23.53-16.3-23.54h-66.61l5.9-23.53Z"/><path class="cls-4" d="M1917.11,253.77l-88.81,0L1798.68,371.5l88.81,0q22.21,0,28.1-23.55l6.06-23.53q2.94-11.78-8.16-11.77,11.1,0,14-11.77l5.88-23.54Q1939.31,253.77,1917.11,253.77Zm-23.73,94.15-66.61,0,6.07-23.54,66.6,0Zm11.95-47.07-66.61,0,5.89-23.53,66.61,0Z"/><path class="cls-6" d="M1847.62,408.4c-20.76,53.14-67.23,90.14-121.23,90.14h-2.18c-52.81-1.25-98.06-37.9-118.45-90.13Z"/><rect class="cls-8" x="222.55" y="869.21" width="196.95" height="46.34"/><path class="cls-9" d="M566.48,1018.05c-6.5-8.33-18.92-18.25-41.18-18.25h-3.13c-.14-4.57-.46-9.09-.9-13.59-10.36-102-96.73-181.85-201.4-181.85-96.86,0-178,68.38-197.83,159.39a202.85,202.85,0,0,0-4.48,36h-4.73c-22.27,0-34.68,9.92-41.19,18.25-6.68,8.55-13.41,23.62-7.58,46.88L82,1135.66c7.69,30.52,30.31,48.75,60.53,48.75H154c25.91,76.32,90.55,130.38,166.18,130.38s140.27-54.06,166.18-130.38h9.27c30.22,0,52.83-18.23,60.53-48.75l17.9-70.73C579.9,1041.67,573.17,1026.6,566.48,1018.05ZM170,999.8q-4.56,8.18-8.46,16.87c-.2-3.27-.31-6.55-.31-9.87,0-1.87,0-3.73.11-5.59,0-.48,0-.94.06-1.41q.25-6.34,1-12.56h0a157.23,157.23,0,0,1,4.74-23.48,3.34,3.34,0,0,0,.1-.4c18.95-66.44,80.2-115.22,152.63-115.22S453.55,896.91,472.5,963.35A157.91,157.91,0,0,1,477,984.42c.59,4.21,1,8.48,1.29,12.79.05.86.1,1.72.14,2.59.09,2.31.14,4.66.14,7,0,2.89-.07,5.77-.24,8.61q-3.65-8-7.88-15.61c-31.69-56.76-87.13-94.38-150.22-94.38S201.67,943,170,999.8Z"/><path class="cls-3" d="M567.64,1017.53c-6.5-8.32-18.93-18.25-41.18-18.25h-3.13c-.14-4.57-.47-9.09-.9-13.58C512.06,883.7,425.7,803.85,321,803.85c-96.86,0-178,68.37-197.82,159.38a201,201,0,0,0-4.48,36H114c-22.27,0-34.68,9.93-41.18,18.25-6.68,8.55-13.42,23.63-7.58,46.89l17.89,70.73c7.7,30.52,30.32,48.75,60.53,48.75h11.52c25.92,76.31,90.55,130.38,166.18,130.38s140.27-54.07,166.19-130.38h9.27c30.21,0,52.83-18.23,60.53-48.75l17.89-70.73C581.05,1041.16,574.32,1026.08,567.64,1017.53ZM171.13,999.28c-3,5.46-5.88,11.08-8.46,16.88q-.31-4.9-.31-9.88c0-1.86,0-3.73.1-5.58,0-.48,0-.94.07-1.42q.24-6.33,1-12.55h0a157.34,157.34,0,0,1,4.73-23.49c0-.14.08-.27.11-.39C187.35,896.4,248.6,847.62,321,847.62S454.7,896.4,473.65,962.84a158.84,158.84,0,0,1,4.47,21.07c.59,4.21,1,8.47,1.28,12.78.06.87.11,1.73.15,2.59.09,2.32.14,4.66.14,7q0,4.35-.25,8.62-3.65-8-7.88-15.62c-31.69-56.76-87.12-94.37-150.22-94.37S202.82,942.52,171.13,999.28Z"/><path class="cls-8" d="M538.74,1060.51l-5.9,23.54a30.93,30.93,0,0,1-5.35,11.45,27.32,27.32,0,0,1-.54,12.08l-6.09,23.62c-5.36,21.38-19.78,33.2-40.57,33.2,0,0-279.28,1.88-361.62.29-12.37-.24,2.39-31.25,6.41-43.49,2.23-6.8,26.22-5.43,26.22-5.43-6.49-1.43-11.6-4.5-15.24-9.17-5.48-7-6.73-16.66-3.73-28.66l5.91-23.53c5.29-21.15,19.49-32.79,39.95-32.79l232.87-.41L510,1021c11.2,0,19.6,3.48,24.95,10.32C540.5,1038.49,541.8,1048.31,538.74,1060.51Z"/><polygon class="cls-4" points="263.63 1152.18 374.65 1152.18 380.55 1128.65 269.53 1128.65 263.63 1152.18"/><polygon class="cls-4" points="281.5 1081.57 275.6 1105.1 386.62 1105.1 392.52 1081.57 281.5 1081.57"/><path class="cls-4" d="M397.11,1058.57l6.44-24.46L181,1034.5q-22.2,0-28.1,23.54L147,1081.57q-5.91,23.54,16.3,23.54h66.61l-6.07,23.53H135l-5.9,23.54h88.81q22.2,0,28.1-23.54l6.07-23.53q5.89-23.53-16.3-23.54H169.2l5.9-23.53Z"/><path class="cls-4" d="M511.44,1034.48l-88.81,0L393,1152.2l88.82,0q22.2,0,28.09-23.55l6.06-23.53q2.94-11.77-8.16-11.77,11.1,0,14.05-11.77l5.89-23.54Q533.64,1034.47,511.44,1034.48Zm-23.73,94.15-66.61,0,6.07-23.54,66.61,0Zm12-47.07-66.61,0,5.89-23.53,66.61,0Z"/><path class="cls-8" d="M442,1188.31c-20.76,53.13-67.23,90.14-121.23,90.14l-2.18,0c-52.81-1.25-98.05-37.9-118.45-90.12Z"/><rect class="cls-8" x="905.84" y="849.9" width="196.95" height="46.34"/><path class="cls-9" d="M1253.6,1010.87c-6.5-8.32-18.92-18.25-41.18-18.25h-3.13c-.14-4.57-.46-9.09-.9-13.58C1198,877,1111.66,797.19,1007,797.19c-96.86,0-178,68.37-197.83,159.38a201.93,201.93,0,0,0-4.48,36H800c-22.28,0-34.69,9.93-41.19,18.25-6.68,8.55-13.41,23.63-7.58,46.89l17.89,70.73c7.7,30.52,30.32,48.75,60.54,48.75h11.52c25.91,76.31,90.55,130.38,166.18,130.38s140.27-54.07,166.18-130.38h9.27c30.21,0,52.83-18.23,60.53-48.75l17.9-70.73C1267,1034.5,1260.28,1019.42,1253.6,1010.87ZM857.09,992.62q-4.56,8.19-8.46,16.88c-.2-3.27-.31-6.56-.31-9.88,0-1.86,0-3.73.11-5.58,0-.48,0-.94.06-1.42q.25-6.33,1-12.55h0a157.36,157.36,0,0,1,4.74-23.49,3.75,3.75,0,0,0,.1-.39C873.31,889.74,934.56,841,1007,841s133.68,48.78,152.62,115.22a157.26,157.26,0,0,1,4.47,21.07c.59,4.21,1,8.47,1.29,12.78.05.87.1,1.73.14,2.59.09,2.32.14,4.66.14,7,0,2.9-.07,5.77-.24,8.62q-3.66-8-7.88-15.62c-31.69-56.76-87.13-94.37-150.22-94.37S888.78,935.86,857.09,992.62Z"/><path class="cls-6" d="M1254.76,1010.36c-6.5-8.33-18.93-18.25-41.18-18.25h-3.13c-.14-4.57-.47-9.09-.9-13.59-10.37-102-96.73-181.85-201.41-181.85-96.86,0-178,68.38-197.82,159.39a201,201,0,0,0-4.48,36.05H801.1c-22.27,0-34.68,9.92-41.18,18.25-6.68,8.55-13.42,23.62-7.58,46.88L770.23,1128c7.7,30.52,30.32,48.75,60.53,48.75h11.52c25.92,76.32,90.55,130.38,166.18,130.38s140.27-54.06,166.19-130.38h9.27c30.21,0,52.83-18.23,60.53-48.75l17.89-70.73C1268.17,1034,1261.44,1018.91,1254.76,1010.36ZM858.24,992.11c-3,5.45-5.87,11.08-8.45,16.87-.21-3.27-.31-6.55-.31-9.87,0-1.87,0-3.74.1-5.59,0-.48,0-.94.07-1.41q.24-6.35,1-12.56h0a157.21,157.21,0,0,1,4.73-23.48c0-.14.08-.27.11-.4,19-66.44,80.2-115.22,152.62-115.22s133.68,48.78,152.63,115.22a159.52,159.52,0,0,1,4.47,21.07c.59,4.21,1,8.48,1.28,12.79,0,.86.11,1.72.14,2.59.09,2.31.15,4.66.15,7,0,2.89-.08,5.77-.25,8.61q-3.64-8-7.88-15.61c-31.69-56.76-87.12-94.38-150.22-94.38S889.94,935.35,858.24,992.11Z"/><path class="cls-8" d="M1229.88,1052.54l-5.9,23.53a31.21,31.21,0,0,1-5.35,11.46,27.28,27.28,0,0,1-.54,12.07l-6.09,23.62c-5.36,21.39-19.78,33.2-40.57,33.2,0,0-279.28,1.89-361.63.29-12.36-.24,2.4-31.25,6.42-43.49,2.23-6.8,26.22-5.43,26.22-5.43-6.49-1.43-11.6-4.49-15.24-9.17-5.49-7-6.73-16.66-3.73-28.65l5.9-23.54c5.3-21.15,19.49-32.79,40-32.79l232.87-.41,98.89-.23c11.2,0,19.6,3.48,25,10.33C1231.64,1030.51,1232.94,1040.33,1229.88,1052.54Z"/><polygon class="cls-4" points="953.97 1144.2 1064.98 1144.2 1070.88 1120.67 959.86 1120.67 953.97 1144.2"/><polygon class="cls-4" points="971.83 1073.59 965.94 1097.12 1076.96 1097.12 1082.85 1073.59 971.83 1073.59"/><path class="cls-4" d="M1087.45,1050.59l6.44-24.46-222.56.39q-22.2,0-28.1,23.54l-5.9,23.53q-5.9,23.55,16.31,23.54h66.61l-6.08,23.53H825.36l-5.9,23.54h88.82q22.2,0,28.1-23.54l6.07-23.53q5.89-23.54-16.31-23.54H859.53l5.9-23.53Z"/><path class="cls-4" d="M1201.78,1026.5l-88.82,0-29.61,117.69,88.81,0q22.2,0,28.09-23.55l6.06-23.53q2.94-11.77-8.16-11.77,11.1,0,14-11.77l5.89-23.54Q1224,1026.49,1201.78,1026.5Zm-23.73,94.15-66.61,0,6.06-23.54,66.61,0Zm12-47.07-66.61,0,5.89-23.53,66.61,0Z"/><path class="cls-8" d="M1129.07,1181.13c-20.76,53.14-67.23,90.14-121.23,90.14h-2.18c-52.81-1.25-98.06-37.9-118.45-90.13Z"/><rect class="cls-1" x="912.49" y="1631.61" width="196.95" height="46.34"/><path class="cls-2" d="M1260.25,1795c-6.51-8.33-18.93-18.26-41.19-18.26h-3.13c-.14-4.57-.46-9.09-.9-13.58-10.36-102-96.73-181.85-201.4-181.85-96.86,0-178,68.37-197.83,159.39a202.62,202.62,0,0,0-4.48,36h-4.73c-22.27,0-34.68,9.93-41.18,18.26-6.69,8.54-13.42,23.62-7.59,46.88l17.9,70.73c7.69,30.52,30.31,48.75,60.53,48.75h11.52c25.91,76.31,90.55,130.38,166.18,130.38s140.27-54.07,166.18-130.38h9.27c30.22,0,52.84-18.23,60.53-48.75l17.9-70.73C1273.66,1818.62,1266.93,1803.54,1260.25,1795Zm-396.52-18.26q-4.56,8.19-8.46,16.88c-.2-3.27-.3-6.55-.3-9.88,0-1.86,0-3.73.1-5.58,0-.48,0-.94.06-1.42q.25-6.33,1-12.55h0a157,157,0,0,1,4.74-23.48,3.34,3.34,0,0,0,.1-.4c19-66.44,80.2-115.22,152.63-115.22s133.68,48.78,152.63,115.22a157.91,157.91,0,0,1,4.46,21.07q.9,6.32,1.29,12.78c0,.87.1,1.73.14,2.59.09,2.32.14,4.66.14,7,0,2.9-.07,5.77-.24,8.62q-3.65-8-7.88-15.62c-31.69-56.76-87.13-94.37-150.22-94.37S895.43,1720,863.73,1776.74Z"/><path class="cls-6" d="M1259.44,1795.78c-6.5-8.33-18.92-18.26-41.18-18.26h-3.13c-.14-4.57-.46-9.08-.9-13.58-10.36-102-96.73-181.85-201.4-181.85-96.86,0-178,68.37-197.83,159.39a200.91,200.91,0,0,0-4.48,36h-4.74c-22.27,0-34.68,9.93-41.18,18.26-6.68,8.55-13.41,23.62-7.58,46.88l17.89,70.73c7.7,30.52,30.32,48.75,60.53,48.75H847c25.92,76.31,90.56,130.38,166.19,130.38s140.27-54.07,166.18-130.38h9.27c30.21,0,52.83-18.23,60.53-48.75l17.89-70.73C1272.85,1819.4,1266.12,1804.33,1259.44,1795.78Zm-396.51-18.26q-4.56,8.19-8.46,16.88c-.21-3.27-.31-6.55-.31-9.87,0-1.87,0-3.74.1-5.59,0-.48,0-.94.07-1.42q.25-6.33,1-12.55h0a157.23,157.23,0,0,1,4.74-23.48c0-.14.07-.27.1-.4,18.95-66.44,80.2-115.22,152.63-115.22s133.67,48.78,152.62,115.22a157.93,157.93,0,0,1,4.47,21.07c.59,4.21,1,8.47,1.29,12.79,0,.86.1,1.72.14,2.58q.14,3.48.14,7,0,4.34-.25,8.61-3.65-8-7.87-15.62c-31.7-56.75-87.13-94.37-150.22-94.37S894.62,1720.77,862.93,1777.52Z"/><path class="cls-1" d="M1230.09,1837.46l-5.9,23.53a31,31,0,0,1-5.35,11.46,27.32,27.32,0,0,1-.54,12.08l-6.09,23.62c-5.36,21.38-19.78,33.2-40.57,33.2,0,0-279.28,1.88-361.62.28-12.37-.24,2.39-31.24,6.41-43.48,2.23-6.8,26.22-5.44,26.22-5.44-6.49-1.43-11.6-4.49-15.24-9.16-5.48-7-6.73-16.66-3.73-28.66l5.91-23.53c5.29-21.15,19.49-32.79,39.95-32.79l232.87-.41,98.89-.23c11.2,0,19.6,3.47,25,10.32C1231.85,1815.43,1233.15,1825.26,1230.09,1837.46Z"/><polygon class="cls-4" points="954.98 1930.73 1066 1930.73 1071.9 1907.2 960.88 1907.2 954.98 1930.73"/><polygon class="cls-4" points="972.85 1860.12 966.95 1883.66 1077.97 1883.66 1083.87 1860.12 972.85 1860.12"/><path class="cls-4" d="M1088.46,1837.12l6.44-24.46-222.56.4q-22.2,0-28.1,23.53l-5.89,23.54q-5.91,23.53,16.3,23.53h66.61l-6.07,23.54H826.38l-5.9,23.53h88.81q22.2,0,28.1-23.53l6.07-23.54q5.89-23.54-16.3-23.53H860.55l5.9-23.54Z"/><path class="cls-4" d="M1202.79,1813l-88.81,0-29.62,117.69,88.81,0q22.21,0,28.1-23.54l6.06-23.54q2.94-11.76-8.16-11.76,11.1,0,14-11.78l5.88-23.53Q1225,1813,1202.79,1813Zm-23.73,94.15-66.61,0,6.07-23.54,66.6,0Zm12-47.08-66.61,0,5.89-23.54,66.61,0Z"/><path class="cls-1" d="M1135.71,1962.84C1115,2016,1068.48,2053,1014.49,2053h-2.19c-52.81-1.25-98-37.9-118.45-90.13Z"/><rect class="cls-1" x="1622.33" y="848.52" width="196.95" height="46.34"/><path class="cls-2" d="M1970.09,1011.9c-6.5-8.33-18.92-18.25-41.18-18.25h-3.13c-.14-4.57-.46-9.09-.9-13.58-10.36-102-96.73-181.85-201.4-181.85-96.86,0-178,68.37-197.83,159.38a202.85,202.85,0,0,0-4.48,36h-4.73c-22.27,0-34.68,9.92-41.19,18.25-6.68,8.55-13.41,23.63-7.58,46.89l17.9,70.72c7.69,30.53,30.31,48.76,60.53,48.76h11.52c25.91,76.31,90.55,130.38,166.18,130.38s140.27-54.07,166.18-130.38h9.27c30.22,0,52.83-18.23,60.53-48.76l17.9-70.72C1983.51,1035.53,1976.78,1020.45,1970.09,1011.9Zm-396.51-18.25q-4.56,8.19-8.46,16.87c-.2-3.26-.31-6.55-.31-9.87,0-1.87,0-3.73.11-5.59,0-.47,0-.94.06-1.41q.26-6.33,1-12.55v0a157.23,157.23,0,0,1,4.74-23.48,3.34,3.34,0,0,0,.1-.4c19-66.44,80.2-115.21,152.63-115.21s133.68,48.77,152.63,115.21a157.72,157.72,0,0,1,4.46,21.08q.9,6.32,1.29,12.78c.05.86.1,1.73.14,2.59.09,2.32.14,4.66.14,7,0,2.9-.07,5.77-.24,8.61q-3.64-8-7.88-15.61c-31.69-56.76-87.13-94.38-150.22-94.38S1605.28,936.89,1573.58,993.65Z"/><path class="cls-8" d="M1969.29,1012.68c-6.5-8.32-18.92-18.25-41.18-18.25H1925c-.14-4.57-.46-9.09-.9-13.58-10.36-102-96.73-181.85-201.41-181.85-96.85,0-178,68.37-197.82,159.38a201,201,0,0,0-4.48,36h-4.74c-22.27,0-34.68,9.93-41.18,18.25-6.68,8.55-13.41,23.63-7.58,46.89l17.89,70.73c7.7,30.52,30.32,48.75,60.53,48.75h11.52c25.92,76.31,90.56,130.38,166.19,130.38s140.26-54.07,166.18-130.38h9.27c30.21,0,52.83-18.23,60.53-48.75l17.89-70.73C1982.7,1036.31,1976,1021.23,1969.29,1012.68Zm-396.51-18.25q-4.56,8.19-8.46,16.88-.32-4.9-.31-9.88c0-1.86,0-3.73.1-5.58,0-.48,0-.94.07-1.42q.24-6.33,1-12.55h0a156.1,156.1,0,0,1,4.74-23.49c0-.14.07-.27.1-.39,19-66.44,80.2-115.22,152.62-115.22S1856.35,891.55,1875.3,958a157.26,157.26,0,0,1,4.47,21.07c.59,4.21,1,8.47,1.29,12.78,0,.87.1,1.73.14,2.59.09,2.32.14,4.66.14,7q0,4.35-.25,8.62-3.64-8-7.87-15.62c-31.7-56.76-87.13-94.37-150.22-94.37S1604.47,937.67,1572.78,994.43Z"/><path class="cls-1" d="M1942.35,1055.17l-5.9,23.53a31,31,0,0,1-5.35,11.46,27.18,27.18,0,0,1-.54,12.08l-6.09,23.62c-5.36,21.38-19.77,33.2-40.57,33.2,0,0-279.27,1.88-361.62.28-12.37-.24,2.39-31.24,6.41-43.48,2.23-6.8,26.22-5.44,26.22-5.44-6.49-1.43-11.6-4.49-15.24-9.16-5.48-7-6.73-16.66-3.73-28.66l5.91-23.53c5.29-21.15,19.49-32.79,40-32.79l232.86-.41,98.9-.23c11.2,0,19.59,3.47,24.94,10.32C1944.11,1033.14,1945.41,1043,1942.35,1055.17Z"/><polygon class="cls-4" points="1667.24 1148.44 1778.26 1148.44 1784.16 1124.91 1673.14 1124.91 1667.24 1148.44"/><polygon class="cls-4" points="1685.11 1077.83 1679.21 1101.37 1790.23 1101.37 1796.13 1077.83 1685.11 1077.83"/><path class="cls-4" d="M1800.72,1054.83l6.44-24.46-222.55.4q-22.21,0-28.1,23.53l-5.9,23.54q-5.91,23.54,16.3,23.53h66.61l-6.07,23.54h-88.81l-5.9,23.53h88.81q22.2,0,28.1-23.53l6.07-23.54q5.9-23.53-16.3-23.53h-66.61l5.9-23.54Z"/><path class="cls-4" d="M1915.05,1030.75l-88.81,0-29.62,117.69,88.82,0q22.2,0,28.09-23.54l6.06-23.54q2.94-11.76-8.16-11.76,11.1,0,14-11.78l5.89-23.53Q1937.25,1030.73,1915.05,1030.75Zm-23.73,94.15-66.6,0,6.06-23.54,66.61,0Zm12-47.08-66.6,0,5.88-23.54,66.61,0Z"/><path class="cls-1" d="M1845.56,1179.75c-20.76,53.13-67.23,90.14-121.22,90.14l-2.19,0c-52.81-1.24-98.05-37.9-118.45-90.12Z"/><rect class="cls-10" x="1645.05" y="1635.46" width="196.95" height="46.34"/><path class="cls-11" d="M1994.42,1794c-6.5-8.33-18.92-18.26-41.18-18.26h-3.13c-.14-4.57-.46-9.09-.9-13.58-10.36-102-96.73-181.85-201.4-181.85-96.86,0-178,68.37-197.83,159.39a200.79,200.79,0,0,0-4.48,36h-4.74c-22.27,0-34.68,9.93-41.18,18.26-6.68,8.54-13.41,23.62-7.58,46.88l17.89,70.73c7.7,30.52,30.32,48.75,60.53,48.75H1582c25.91,76.31,90.55,130.38,166.18,130.38s140.27-54.07,166.18-130.38h9.27c30.21,0,52.83-18.23,60.53-48.75l17.89-70.73C2007.84,1817.65,2001.1,1802.57,1994.42,1794Zm-396.51-18.26q-4.56,8.19-8.46,16.88c-.21-3.27-.31-6.55-.31-9.87,0-1.87,0-3.74.1-5.59,0-.48,0-.94.07-1.42q.26-6.33,1-12.55h0a157,157,0,0,1,4.74-23.48c0-.14.07-.27.1-.4,19-66.44,80.2-115.22,152.63-115.22s133.67,48.78,152.62,115.22a157.93,157.93,0,0,1,4.47,21.07c.59,4.21,1,8.47,1.29,12.78,0,.87.1,1.73.14,2.59q.14,3.48.14,7,0,4.34-.24,8.61-3.66-8-7.88-15.62c-31.7-56.76-87.13-94.37-150.22-94.37S1629.6,1719,1597.91,1775.77Z"/><path class="cls-12" d="M1994.77,1797.53c-6.5-8.33-18.92-18.25-41.18-18.25h-3.13c-.14-4.57-.46-9.09-.9-13.59-10.36-102-96.73-181.85-201.4-181.85-96.86,0-178,68.38-197.83,159.39a201,201,0,0,0-4.48,36h-4.74c-22.27,0-34.68,9.92-41.18,18.25-6.68,8.55-13.41,23.62-7.58,46.89l17.89,70.72c7.7,30.52,30.32,48.75,60.53,48.75h11.53c25.91,76.32,90.55,130.38,166.18,130.38s140.27-54.06,166.18-130.38h9.27c30.21,0,52.83-18.23,60.53-48.75l17.89-70.72C2008.19,1821.15,2001.45,1806.08,1994.77,1797.53Zm-396.51-18.25q-4.56,8.17-8.46,16.87c-.21-3.27-.31-6.55-.31-9.87,0-1.87,0-3.73.1-5.59,0-.47,0-.94.07-1.41q.25-6.35,1-12.56h0a157.23,157.23,0,0,1,4.74-23.48c0-.14.07-.27.1-.4,19-66.44,80.2-115.22,152.63-115.22s133.67,48.78,152.62,115.22a157.74,157.74,0,0,1,4.47,21.08c.59,4.2,1,8.47,1.29,12.78,0,.86.1,1.72.14,2.59.09,2.31.14,4.66.14,7q0,4.35-.24,8.61-3.66-8-7.88-15.61c-31.7-56.76-87.13-94.38-150.22-94.38S1630,1722.52,1598.26,1779.28Z"/><path class="cls-10" d="M1957,1838.1l-5.89,23.53a31.22,31.22,0,0,1-5.36,11.46,27.13,27.13,0,0,1-.54,12.07l-6.09,23.63c-5.36,21.38-19.77,33.2-40.56,33.2,0,0-279.28,1.88-361.63.28-12.37-.24,2.39-31.25,6.41-43.49,2.24-6.79,26.22-5.43,26.22-5.43-6.48-1.43-11.59-4.49-15.24-9.16-5.48-7-6.73-16.66-3.73-28.66l5.91-23.53c5.29-21.15,19.49-32.79,40-32.79l232.86-.41,98.9-.24c11.2,0,19.59,3.48,25,10.33C1958.79,1816.07,1960.1,1825.89,1957,1838.1Z"/><polygon class="cls-4" points="1693.89 1884.29 1804.91 1884.29 1810.81 1860.76 1699.79 1860.76 1693.89 1884.29"/><polygon class="cls-4" points="1681.92 1931.37 1792.94 1931.37 1798.84 1907.84 1687.82 1907.84 1681.92 1931.37"/><polygon class="cls-4" points="1711.58 1813.7 1711.44 1814.28 1705.69 1837.23 1816.71 1837.23 1822.6 1813.7 1711.58 1813.7"/><path class="cls-4" d="M1815.41,1837.76l6.43-24.46-222.55.39q-22.21,0-28.1,23.54l-5.9,23.53q-5.89,23.55,16.3,23.54h66.61l-6.07,23.53h-88.81l-5.9,23.54h88.81q22.2,0,28.1-23.54l6.07-23.53q5.89-23.54-16.3-23.54h-66.61l5.9-23.53Z"/><path class="cls-4" d="M1929.73,1813.67l-88.81,0-29.61,117.69,88.81,0q22.2,0,28.09-23.54l6.06-23.54q2.94-11.77-8.16-11.77,11.1,0,14.05-11.77l5.89-23.54Q1951.93,1813.67,1929.73,1813.67ZM1906,1907.82l-66.6,0,6.06-23.54,66.61,0Zm12-47.07-66.6,0,5.89-23.54,66.6,0Z"/><path class="cls-10" d="M1868.28,1966.69c-20.76,53.14-67.23,90.15-121.23,90.15l-2.18,0c-52.81-1.25-98-37.9-118.45-90.13Z"/><rect class="cls-8" x="181.35" y="1612.81" width="196.95" height="46.34"/><path class="cls-9" d="M529.11,1773.79c-6.51-8.33-18.93-18.26-41.19-18.26H484.8c-.15-4.57-.47-9.09-.91-13.58-10.36-102-96.73-181.85-201.4-181.85-96.86,0-178,68.37-197.82,159.39a200.79,200.79,0,0,0-4.48,36H75.45c-22.27,0-34.68,9.93-41.18,18.26-6.69,8.54-13.42,23.62-7.59,46.88l17.9,70.73c7.7,30.52,30.31,48.75,60.53,48.75h11.52c25.91,76.31,90.55,130.38,166.18,130.38S423.08,2016.46,449,1940.15h9.27c30.22,0,52.84-18.23,60.53-48.75l17.9-70.73C542.52,1797.41,535.79,1782.33,529.11,1773.79Zm-396.52-18.26c-3,5.46-5.87,11.09-8.45,16.88-.21-3.27-.31-6.55-.31-9.88,0-1.86,0-3.73.1-5.58,0-.48,0-.94.06-1.42q.26-6.33,1-12.55h0a157,157,0,0,1,4.74-23.48,3.89,3.89,0,0,0,.1-.4c18.95-66.44,80.2-115.22,152.63-115.22s133.68,48.78,152.63,115.22a157.57,157.57,0,0,1,4.46,21.07q.9,6.31,1.29,12.78c.05.87.1,1.73.14,2.59.09,2.32.14,4.66.14,7,0,2.9-.07,5.77-.24,8.62q-3.65-8-7.88-15.62c-31.69-56.76-87.13-94.37-150.22-94.37S164.29,1698.77,132.59,1755.53Z"/><path class="cls-1" d="M530.26,1773.27c-6.5-8.33-18.92-18.25-41.18-18.25H486c-.14-4.57-.46-9.09-.9-13.59-10.36-102-96.73-181.84-201.41-181.84-96.85,0-178,68.37-197.82,159.38a201,201,0,0,0-4.48,36H76.6c-22.27,0-34.68,9.92-41.18,18.25-6.68,8.55-13.41,23.62-7.58,46.89l17.89,70.72c7.7,30.52,30.32,48.75,60.53,48.75h11.52C143.7,2016,208.34,2070,284,2070S424.23,2016,450.15,1939.63h9.27c30.21,0,52.83-18.23,60.53-48.75l17.89-70.72C543.67,1796.89,536.94,1781.82,530.26,1773.27ZM133.75,1755q-4.56,8.18-8.46,16.87c-.21-3.27-.31-6.55-.31-9.87,0-1.87,0-3.73.1-5.59,0-.47,0-.94.07-1.41q.24-6.35,1-12.56h0a157.21,157.21,0,0,1,4.73-23.48c0-.14.08-.27.11-.4,18.95-66.44,80.2-115.22,152.62-115.22s133.68,48.78,152.63,115.22a157.74,157.74,0,0,1,4.47,21.08c.59,4.21,1,8.47,1.29,12.78.05.86.1,1.72.14,2.59.09,2.31.14,4.66.14,7q0,4.35-.25,8.61-3.65-8-7.87-15.61c-31.7-56.76-87.13-94.38-150.22-94.38S165.44,1698.26,133.75,1755Z"/><path class="cls-8" d="M503.38,1815.63l-5.9,23.54a31.08,31.08,0,0,1-5.35,11.45,27.34,27.34,0,0,1-.55,12.08l-6.08,23.62c-5.36,21.38-19.78,33.2-40.57,33.2,0,0-279.28,1.88-361.63.28-12.36-.24,2.4-31.24,6.42-43.48,2.23-6.8,26.22-5.44,26.22-5.44a25.55,25.55,0,0,1-15.24-9.16c-5.49-7-6.74-16.66-3.74-28.66l5.91-23.53c5.29-21.15,19.49-32.79,40-32.79l232.87-.41,98.89-.23c11.2,0,19.59,3.47,25,10.32C505.14,1793.61,506.44,1803.43,503.38,1815.63Z"/><polygon class="cls-4" points="228.27 1907.3 339.29 1907.3 345.18 1883.77 234.16 1883.77 228.27 1907.3"/><polygon class="cls-4" points="246.14 1836.69 240.24 1860.22 351.26 1860.22 357.16 1836.69 246.14 1836.69"/><path class="cls-4" d="M361.75,1813.68l6.44-24.46-222.56.4q-22.2,0-28.1,23.54l-5.9,23.53q-5.89,23.54,16.31,23.54h66.61l-6.07,23.53H99.66l-5.89,23.54h88.81q22.2,0,28.1-23.54l6.07-23.53q5.9-23.54-16.31-23.54h-66.6l5.89-23.53Z"/><path class="cls-4" d="M476.08,1789.6l-88.81,0-29.62,117.68,88.81,0q22.2,0,28.09-23.55l6.06-23.54q3-11.76-8.15-11.76,11.1,0,14-11.77l5.89-23.54Q498.29,1789.6,476.08,1789.6Zm-23.73,94.15-66.61,0,6.06-23.54,66.61,0Zm11.95-47.07-66.61,0,5.89-23.54,66.61,0Z"/><path class="cls-8" d="M404.57,1944c-20.75,53.14-67.23,90.15-121.22,90.15l-2.19,0c-52.81-1.25-98.05-37.9-118.45-90.13Z"/></g></g></svg>