<svg id="Layer_1" data-name="Layer 1" xmlns="http://www.w3.org/2000/svg" viewBox="0 0 576 576"><defs><style>.cls-1{fill:#f1185c;}.cls-2{stroke:#f1185c;stroke-miterlimit:10;stroke-width:48.92px;}.cls-3{fill:#6b09b8;}.cls-4{fill:#fff;}</style></defs><title>DJ SEB Logo</title><rect class="cls-1" x="188.57" y="87.63" width="196.95" height="46.34"/><path class="cls-2" d="M536.33,248.6c-6.5-8.33-18.92-18.25-41.18-18.25H492c-.14-4.57-.46-9.09-.9-13.58-10.36-102-96.73-181.85-201.4-181.85-96.86,0-178,68.37-197.83,159.38a202.85,202.85,0,0,0-4.48,36H82.68c-22.27,0-34.68,9.92-41.19,18.25-6.68,8.55-13.41,23.62-7.58,46.89l17.9,70.72C59.5,396.74,82.12,415,112.34,415h11.52C149.77,491.28,214.41,545.35,290,545.35S430.31,491.28,456.22,415h9.27c30.22,0,52.83-18.22,60.53-48.75l17.9-70.72C549.75,272.22,543,257.15,536.33,248.6ZM139.82,230.35q-4.56,8.19-8.46,16.87c-.2-3.27-.31-6.55-.31-9.87,0-1.87,0-3.73.11-5.59,0-.47,0-.94.06-1.41q.25-6.34,1-12.55v0A157.23,157.23,0,0,1,137,194.3a3.34,3.34,0,0,0,.1-.4C156,127.46,217.29,78.69,289.72,78.69S423.4,127.46,442.35,193.9A157.72,157.72,0,0,1,446.81,215q.9,6.32,1.29,12.78c0,.86.1,1.72.14,2.59.09,2.31.14,4.66.14,7,0,2.9-.07,5.77-.24,8.61q-3.64-8-7.88-15.61C408.57,173.59,353.13,136,290,136S171.52,173.59,139.82,230.35Z"/><path class="cls-3" d="M537.49,248.09c-6.5-8.33-18.93-18.26-41.18-18.26h-3.13c-.14-4.57-.47-9.09-.9-13.58C481.91,114.25,395.55,34.4,290.87,34.4c-96.86,0-178,68.37-197.82,159.39a200.79,200.79,0,0,0-4.48,36H83.83c-22.27,0-34.68,9.93-41.18,18.26C36,256.63,29.23,271.71,35.07,295L53,365.7c7.7,30.52,30.32,48.75,60.53,48.75H125c25.92,76.31,90.55,130.38,166.18,130.38s140.27-54.07,166.19-130.38h9.27c30.21,0,52.83-18.23,60.53-48.75L545.07,295C550.9,271.71,544.17,256.63,537.49,248.09ZM141,229.83q-4.56,8.19-8.46,16.88c-.21-3.27-.31-6.55-.31-9.88,0-1.86,0-3.73.1-5.58,0-.48,0-.94.07-1.42q.24-6.33,1-12.55h0a157,157,0,0,1,4.73-23.48c0-.15.08-.27.11-.4C157.2,127,218.45,78.17,290.87,78.17S424.55,127,443.5,193.39A159.18,159.18,0,0,1,448,214.46c.59,4.21,1,8.47,1.28,12.78.06.87.11,1.73.15,2.59.09,2.32.14,4.66.14,7q0,4.35-.25,8.62-3.65-8-7.88-15.62c-31.69-56.76-87.12-94.37-150.22-94.37S172.67,173.07,141,229.83Z"/><path class="cls-1" d="M510.6,290.45,504.71,314a31.22,31.22,0,0,1-5.36,11.46,27.13,27.13,0,0,1-.54,12.07l-6.09,23.63c-5.35,21.38-19.77,33.2-40.56,33.2,0,0-279.28,1.88-361.63.28-12.37-.24,2.4-31.25,6.42-43.49,2.23-6.79,26.22-5.43,26.22-5.43-6.49-1.43-11.6-4.49-15.24-9.17-5.49-7-6.74-16.65-3.74-28.65l5.91-23.53c5.29-21.16,19.49-32.79,40-32.79l232.87-.41,98.89-.24c11.2,0,19.59,3.48,24.95,10.33C512.37,268.42,513.67,278.24,510.6,290.45Z"/><polygon class="cls-4" points="235.5 382.11 346.52 382.11 352.41 358.58 241.39 358.58 235.5 382.11"/><polygon class="cls-4" points="253.36 311.5 247.47 335.04 358.49 335.04 364.38 311.5 253.36 311.5"/><path class="cls-4" d="M369,288.5,375.42,264l-222.56.4q-22.2,0-28.1,23.53l-5.9,23.54Q113,335,135.17,335h66.61l-6.08,23.54H106.89L101,382.11h88.81q22.2,0,28.1-23.53L224,335q5.9-23.54-16.31-23.53h-66.6L147,288Z"/><path class="cls-4" d="M483.31,264.42l-88.82,0L364.88,382.14l88.81,0q22.2,0,28.09-23.54L487.84,335q3-11.76-8.15-11.76,11.1,0,14-11.78l5.89-23.54Q505.5,264.4,483.31,264.42Zm-23.73,94.15-66.61,0L399,335.05l66.61,0Zm11.95-47.08-66.61,0L410.81,288l66.61,0Z"/><path class="cls-1" d="M411.8,418.86C391,472,344.57,509,290.58,509l-2.19,0c-52.81-1.24-98-37.9-118.45-90.12Z"/></svg>