<svg id="Layer_1" data-name="Layer 1" xmlns="http://www.w3.org/2000/svg" viewBox="0 0 576 576"><defs><style>.cls-1,.cls-4{fill:#fff;}.cls-2{fill:#fefefe;}.cls-3,.cls-4{stroke:#fff;stroke-miterlimit:10;stroke-width:8.73px;}.cls-5{fill:#09264b;}</style></defs><title>fallcrawl</title><path d="M46.33,564c.93-1.46,1.83-2.86,2.7-4.26,4.67-7.51,9.25-15.07,14-22.52a112.39,112.39,0,0,1,16.31-20.58c6.06-5.85,12.87-10.46,21.07-12.77.65-.19,1.3-.36,2-.52s1.23-.27,2.11-.46c-2.21-1.29-4.2-2.47-6.21-3.6A112.26,112.26,0,0,0,74.83,489a64.72,64.72,0,0,0-24.95-2.21c-.65.07-1.3.1-2,.15l-.15-.28c2.11-1.79,4.15-3.67,6.34-5.36,9.18-7,19.65-11.08,30.92-13.23s22.64-2.42,34.05-1.84c3.09.15,6.17.41,9.26.61.3,0,.59,0,1.14,0a41.18,41.18,0,0,0-.67-4.57c-1.19-4.51-2.56-9-3.74-13.48-.57-2.2-.89-4.47-1.32-6.71-.14-.74.06-1.1.9-1.31,13.23-3.26,26.39-6.81,39.68-9.8,11.55-2.61,23.21-4.8,34.88-6.82,9.32-1.62,18.72-2.89,28.12-4,9-1.07,18.13-1.84,27.21-2.54a424,424,0,0,1,42.62-1.51c9.88.24,19.75.82,29.61,1.51,11.73.81,23.4,2.37,35,4.31,10.79,1.8,21.59,3.62,32.29,5.91,19,4.08,38,8.51,57,12.8,1.63.37,1.6.38,1.43,2-.51,4.88-2.31,9.44-3.56,14.13-.71,2.66-1.26,5.35-1.84,8a14.83,14.83,0,0,0-.17,2c.44,0,.79,0,1.14-.06a178.86,178.86,0,0,1,34.24-.09c11.16,1.18,21.88,3.87,31.8,9.28,5.13,2.79,11.46,7.53,14.46,10.92-.63,0-1.1,0-1.57-.08a67.05,67.05,0,0,0-34,5.14,153.19,153.19,0,0,0-20.47,10.61c-.14.08-.27.18-.54.36,1.37.34,2.63.61,3.86,1A48.18,48.18,0,0,1,495.19,515c7.17,6.49,12.9,14.16,18.08,22.24,5.6,8.75,11,17.61,16.51,26.42.06.1.11.22.3.6-2.05-1.44-3.86-2.73-5.69-4A211.58,211.58,0,0,0,489.24,540,119.39,119.39,0,0,0,456,530.65a148.18,148.18,0,0,0-23.26-1c-11.87.38-23.68,1.59-35.49,2.66-2,.19-4.07.35-6.3.53.21-1.93.37-3.73.59-5.51.54-4.34,1.3-8.65,1.13-13A16.62,16.62,0,0,0,391,507a1.87,1.87,0,0,0-1.17-.87C380.9,504.71,372,503,363.05,502c-11.78-1.36-23.61-2.37-35.45-3.17-11.13-.76-22.29-1.08-33.45-1.52a359,359,0,0,0-40.31,1c-12.1.89-24.19,1.93-36.24,3.33-10.47,1.21-20.87,3-31.3,4.57a1.79,1.79,0,0,0-1,.8,17.43,17.43,0,0,0-2.33,12.3c.54,3.41,1.34,6.78,2,10.18.21,1.07.26,2.17.4,3.41l-6.57-.58c-13.5-1.18-27-2.59-40.54-2.71a123.87,123.87,0,0,0-56.63,13,243.64,243.64,0,0,0-34.26,21c-.22.15-.43.31-.66.46C46.61,564.05,46.54,564,46.33,564ZM444.66,447.46a3.38,3.38,0,0,0-.47-.23c-2.25-.67-4.5-1.35-6.76-2-13.36-3.73-26.85-6.89-40.51-9.31q-14.73-2.6-29.53-4.82c-7-1.05-14.05-1.87-21.09-2.67s-14.17-1.51-21.26-2.14c-6.77-.6-13.54-1.08-20.31-1.54-5.64-.38-11.28-.87-16.92-.92a390.69,390.69,0,0,0-46.89,2.7c-8.68,1-17.34,2.14-26,3.42q-21.72,3.23-43.18,8c-10.91,2.4-21.78,5-32.66,7.55-2.45.57-4.87,1.24-7.37,1.89,2.66,10.09,4.83,20.18,5.09,30.6s-1.49,20.61-4.15,30.75c.43-.06.63-.08.82-.12,12-2.45,24.06-5,36.12-7.32,9.66-1.86,19.35-3.59,29.06-5.13q15.17-2.4,30.42-4.29c8.94-1.11,17.9-2.08,26.88-2.74,10-.74,19.94-1.08,29.91-1.55a219.12,219.12,0,0,1,30.64.53c8.66.79,17.32,1.7,25.92,3,11.79,1.76,23.53,3.85,35.26,5.94,10.94,1.95,21.84,4.15,32.77,6.14,9.18,1.67,18.39,3.2,27.59,4.77,1.8.31,3.62.53,5.74.83C437.47,488.1,438.49,467.74,444.66,447.46Zm-371.56,33,.08.23c.12,0,.25.06.38.07a57.57,57.57,0,0,1,19.92,5.71c5.54,2.76,10.45,6.46,15.33,10.21A62.36,62.36,0,0,0,120,504s0,.11,0,.23h-1a38.68,38.68,0,0,0-13.12,2.38c-7.41,2.69-13.73,7.15-19.53,12.38A146.12,146.12,0,0,0,67,541c-1.11,1.49-2.18,3-3.27,4.52a5.92,5.92,0,0,0,1.68-.93A161.3,161.3,0,0,1,89.28,530a73.14,73.14,0,0,1,42.9-7.06c7.81,1.07,15.59,2.45,23.41,3.43,5.83.74,11.71,1.07,17.56,1.57a4.08,4.08,0,0,0,.78,0,107.94,107.94,0,0,1-19.78-5.07C145,519.62,136,516.25,126.89,513c-.56-.2-.59-.55-.55-1,.36-4.52.58-9,1.12-13.55.74-6.16,1.78-12.29,2.57-18.45.29-2.28.25-4.61.35-6.91-.76,0-1.36,0-2-.11-3.35-.5-6.69-1.08-10-1.55a66,66,0,0,0-20.08.37A84.25,84.25,0,0,0,77,478.57C75.67,479.17,74.39,479.81,73.1,480.44ZM402.38,528h1a187.32,187.32,0,0,0,21.66-2.15c7.41-1.08,14.8-2.28,22.24-3.12A68.25,68.25,0,0,1,480,527a130.37,130.37,0,0,1,26.89,14.73c1.87,1.29,3.7,2.61,5.55,3.92a1.49,1.49,0,0,0-.34-.83c-3.72-4.81-7.31-9.73-11.19-14.41a91.92,91.92,0,0,0-19.76-18.31,44.53,44.53,0,0,0-18.64-7.46c-2-.29-4.12-.35-6.21-.52,1.53-.89,3.13-1.66,4.56-2.68,4.31-3.09,8.55-6.3,12.84-9.43a58,58,0,0,1,24.24-10.6c1.74-.31,3.49-.54,5.44-.85-.41-.23-.65-.39-.9-.51a90.38,90.38,0,0,0-18.89-7.16,66.29,66.29,0,0,0-24.21-1.68c-4.45.54-8.87,1.29-13.54,2,.27,3.59.4,7.32.87,11,.83,6.42,1.95,12.81,2.78,19.24.39,3,.41,6.15.6,9.21l-1.12.4c-5.39,1.95-10.78,4-16.19,5.85-6.53,2.28-13,4.61-19.64,6.65C409.61,526.68,405.94,527.21,402.38,528Z"/><path class="cls-1" d="M444.66,447.46c-6.17,20.28-7.19,40.64-.86,61.29-2.12-.3-3.94-.52-5.74-.83-9.2-1.57-18.41-3.1-27.59-4.77-10.93-2-21.83-4.19-32.77-6.14-11.73-2.09-23.47-4.18-35.26-5.94-8.6-1.29-17.26-2.2-25.92-3a219.12,219.12,0,0,0-30.64-.53c-10,.47-20,.81-29.91,1.55-9,.66-17.94,1.63-26.88,2.74q-15.24,1.89-30.42,4.29c-9.71,1.54-19.4,3.27-29.06,5.13-12.06,2.32-24.08,4.87-36.12,7.32-.19,0-.39.06-.82.12,2.66-10.14,4.4-20.31,4.15-30.75s-2.43-20.51-5.09-30.6c2.5-.65,4.92-1.32,7.37-1.89,10.88-2.54,21.75-5.15,32.66-7.55q21.45-4.73,43.18-8c8.64-1.28,17.3-2.45,26-3.42a390.69,390.69,0,0,1,46.89-2.7c5.64.05,11.28.54,16.92.92,6.77.46,13.54.94,20.31,1.54q10.63.94,21.26,2.14c7,.8,14.09,1.62,21.09,2.67q14.81,2.22,29.53,4.82c13.66,2.42,27.15,5.58,40.51,9.31,2.26.64,4.51,1.32,6.76,2A3.38,3.38,0,0,1,444.66,447.46Z"/><path class="cls-1" d="M73.1,480.44c1.29-.63,2.57-1.27,3.86-1.87a84.25,84.25,0,0,1,21.33-6.81,66,66,0,0,1,20.08-.37c3.36.47,6.7,1.05,10,1.55.6.09,1.2.07,2,.11-.1,2.3-.06,4.63-.35,6.91-.79,6.16-1.83,12.29-2.57,18.45-.54,4.5-.76,9-1.12,13.55,0,.45,0,.8.55,1,9.09,3.29,18.15,6.66,27.26,9.91a107.94,107.94,0,0,0,19.78,5.07,4.08,4.08,0,0,1-.78,0c-5.85-.5-11.73-.83-17.56-1.57-7.82-1-15.6-2.36-23.41-3.43A73.14,73.14,0,0,0,89.28,530,161.3,161.3,0,0,0,65.4,544.62a5.92,5.92,0,0,1-1.68.93c1.09-1.51,2.16-3,3.27-4.52a146.12,146.12,0,0,1,19.35-22c5.8-5.23,12.12-9.69,19.53-12.38A38.68,38.68,0,0,1,119,504.27h1c0-.12,0-.22,0-.23a62.36,62.36,0,0,1-11.16-7.38c-4.88-3.75-9.79-7.45-15.33-10.21a57.57,57.57,0,0,0-19.92-5.71c-.13,0-.26-.05-.38-.07Z"/><path class="cls-1" d="M402.38,528c3.56-.77,7.23-1.3,10.73-2.39,6.6-2,13.11-4.37,19.64-6.65,5.41-1.89,10.8-3.9,16.19-5.85l1.12-.4c-.19-3.06-.21-6.16-.6-9.21-.83-6.43-1.95-12.82-2.78-19.24-.47-3.69-.6-7.42-.87-11,4.67-.7,9.09-1.45,13.54-2a66.29,66.29,0,0,1,24.21,1.68,90.38,90.38,0,0,1,18.89,7.16c.25.12.49.28.9.51-2,.31-3.7.54-5.44.85A58,58,0,0,0,473.67,492c-4.29,3.13-8.53,6.34-12.84,9.43-1.43,1-3,1.79-4.56,2.68,2.09.17,4.17.23,6.21.52a44.53,44.53,0,0,1,18.64,7.46,91.92,91.92,0,0,1,19.76,18.31c3.88,4.68,7.47,9.6,11.19,14.41a1.49,1.49,0,0,1,.34.83c-1.85-1.31-3.68-2.63-5.55-3.92A130.37,130.37,0,0,0,480,527a68.25,68.25,0,0,0-32.66-4.32c-7.44.84-14.83,2-22.24,3.12A187.32,187.32,0,0,1,403.41,528Z"/><path d="M150.54,472.39q5.36-1.25,10.72-2.38c.25,1.19.51,2.39.76,3.58q-5.34,1.13-10.65,2.36.94,4.11,1.9,8.2c-1.6.37-3.19.74-4.78,1.13q-2.55-10.66-5.11-21.32,8.26-2,16.58-3.74c.26,1.22.52,2.43.77,3.65q-5.79,1.23-11.56,2.56C149.63,468.42,150.08,470.4,150.54,472.39Z"/><path d="M182.83,457.7q1.72,9.9,3.44,19.79c-1.63.28-3.26.57-4.88.87-.42-2.33-.85-4.66-1.27-7q-4.92.9-9.83,1.87l1.38,7c-1.63.32-3.27.65-4.9,1l-4.08-19.67a20.94,20.94,0,0,1,9.57-4.39A20.65,20.65,0,0,1,182.83,457.7Zm-13.26,11.92q4.94-1,9.89-1.88c-.41-2.27-.83-4.54-1.24-6.81a20.2,20.2,0,0,0-5.17.37,18,18,0,0,0-4.83,1.54Z"/><path d="M184.89,455.49l5-.83q1.47,9,2.92,17.92,5.72-.91,11.45-1.73c.18,1.24.35,2.49.53,3.73q-8.13,1.16-16.23,2.52Z"/><path d="M204.08,452.54c1.67-.23,3.34-.45,5-.66q1.17,9,2.36,18,5.73-.74,11.49-1.37c.13,1.25.27,2.5.41,3.74q-8.16.9-16.29,2Q205.57,463.4,204.08,452.54Z"/><path d="M247.2,455.78c-.07-1.08-.14-2.17-.22-3.25a18.62,18.62,0,0,0-5.12-.32,17.16,17.16,0,0,0-5,1.09q.57,6.65,1.13,13.28a16.8,16.8,0,0,0,5,.3,18.18,18.18,0,0,0,4.9-1.06l-.29-4.17,5-.32q.21,3.33.4,6.65a20,20,0,0,1-9.7,3.12,20.51,20.51,0,0,1-10-1.61q-.84-9.08-1.69-18.17a21.43,21.43,0,0,1,20.34-1.55c.11,1.9.23,3.79.34,5.69Z"/><path d="M265,461.72l-5,.22.36,7.39-4.87.25-1.23-21.88q9.07-.51,18.14-.76A11.92,11.92,0,0,1,274.6,454a12.65,12.65,0,0,1-1.87,7.44l-2.46.08q2.48,3.61,4.9,7.26l-5.22.14Q267.49,465.32,265,461.72Zm3.88-11.23c-3.15.11-6.3.23-9.45.39l.36,7.56q4.64-.22,9.27-.37a11.29,11.29,0,0,0,.66-3.94A9.54,9.54,0,0,0,268.85,450.49Z"/><path d="M297.5,448.6q-.13,10-.26,20.09c-1.65,0-3.29,0-4.94-.05,0-2.37,0-4.73,0-7.1q-5,0-10,0c0,2.37.06,4.73.08,7.1l-5,.08-.39-20.09a20.71,20.71,0,0,1,10.17-2.55A20.48,20.48,0,0,1,297.5,448.6Zm-15.17,9.28c3.34,0,6.69-.05,10,0l0-6.92a19.87,19.87,0,0,0-5.12-.58,17.58,17.58,0,0,0-5,.61C282.28,453.27,282.31,455.57,282.33,457.88Z"/><path d="M299.59,466l.33-19.12,5,.1q-.21,8.67-.43,17.34a5.9,5.9,0,0,0,3.7,1.39,7.45,7.45,0,0,0,3.86-1.15l.66-17.33q2.52.09,5,.21-.39,8.65-.79,17.33a7.78,7.78,0,0,0,3.75,1.46,6,6,0,0,0,3.83-1.07q.5-8.65,1-17.32l5,.32q-.64,9.54-1.27,19.09a11.87,11.87,0,0,1-4.16,2.27,12.54,12.54,0,0,1-10.79-1.31,12.69,12.69,0,0,1-6.26,1.45,14,14,0,0,1-4.66-1A11,11,0,0,1,299.59,466Z"/><path d="M333,448.25l5,.37-1.38,18.1c3.84.31,7.68.64,11.51,1l-.36,3.75q-8.16-.81-16.34-1.37Q332.25,459.18,333,448.25Z"/><path d="M363.7,468.33c0,.28-.07.56-.11.84q7.28.88,14.52,2c-.19,1.32-.39,2.65-.59,4q-9.79-1.46-19.63-2.58c.19-1.69.39-3.37.58-5.06a4.77,4.77,0,0,1,1.25-3,4.93,4.93,0,0,1,2.59-1.14q5.38-1.06,10.82-2a2.12,2.12,0,0,0,1.09-.43,2.29,2.29,0,0,0,.41-1.13l.39-2.79a17.88,17.88,0,0,0-10-1.35c-.06.49-.12,1-.19,1.48l-5-.6.45-3.92a20.29,20.29,0,0,1,10.47-1.19,20,20,0,0,1,9.79,3.85c-.29,1.93-.57,3.86-.86,5.79a5.33,5.33,0,0,1-1.24,3,5.74,5.74,0,0,1-3,1.3q-5.35.93-10.67,2A1.08,1.08,0,0,0,363.7,468.33Z"/><path d="M402.25,458.86l-3.31,18a19.63,19.63,0,0,1-18.85-3.17q1.37-9,2.74-18a21,21,0,0,1,19.42,3.26Zm-14.92-.15-2.16,13.51a17.2,17.2,0,0,0,4.59,1.42,19,19,0,0,0,4.84.17L397,460.33a18.44,18.44,0,0,0-4.72-1.48A17.36,17.36,0,0,0,387.33,458.71Z"/><path d="M407,461.32l-2.65-.5c.2-1.11.41-2.21.62-3.31,2.55.48,5.1,1,7.65,1.49q-2.16,10.74-4.33,21.48l-4.8-.94Z"/><path d="M432.18,476.13l-1.8,7.47a21,21,0,0,1-10.37.12,20.64,20.64,0,0,1-9.13-4.46c.51-2.51,1-5,1.54-7.53a14.47,14.47,0,0,1,3.37-1.49,17.55,17.55,0,0,1-2.5-2.7l1.26-6.15a19.75,19.75,0,0,1,10.5-.31,20.52,20.52,0,0,1,9.59,4.78c-.49,2-1,4.07-1.46,6.11a17.25,17.25,0,0,1-3.42,1.38A14.55,14.55,0,0,1,432.18,476.13Zm-13.11-11.31c-.17.78-.33,1.56-.5,2.33a8.25,8.25,0,0,0,4.56,2.57,10.07,10.07,0,0,0,5.35-.43c.18-.75.35-1.5.53-2.25a19.14,19.14,0,0,0-4.88-1.81A17.39,17.39,0,0,0,419.07,464.82Zm-2,9.38-.78,3.65a16.87,16.87,0,0,0,4.65,1.74A19.58,19.58,0,0,0,426,480c.27-1.2.55-2.4.83-3.6a9.9,9.9,0,0,0-4.6-2.73A8.16,8.16,0,0,0,417.06,474.2Z"/><rect x="403.22" y="95.01" width="42.35" height="19.46" rx="8.39" ry="8.39"/><rect x="133.65" y="95.26" width="42.35" height="19.46" rx="8.39" ry="8.39"/><path class="cls-2" d="M258.12,196c-.14-.63-.6-1.6-.36-1.81.72-.66,1.18,0,1.5.7Q258.71,195.49,258.12,196Z"/><path class="cls-1" d="M321.31,136l51.05-47.41L370,86.08l-51.15,47.37Z"/><path class="cls-1" d="M325.14,231.66c.65,7,1,11.24,1.42,15.45,3.9-.65,9.54,0,11.27-2.26,2.21-2.91,1.25-8.22,1.66-12.5Z"/><path class="cls-1" d="M353.92,191.82l39.77-43.36-1.44-1.24-39.6,43.18Z"/><path class="cls-3" d="M121.5,378.93c-12.42-16.18-12-36.62.37-54,20.14-28.36,41.28-56,62-84,16.75-22.59,33.67-45.06,50.24-67.78,15.41-21.13,35-34.67,61.77-36.83a20.93,20.93,0,0,0,11.16-4.54c15-12.7,30.19-25.28,44.2-39.05,12.44-12.22,29.5-20.49,35.06-39.07.69-2.27,3.95-3.66,5.61-5.78,2.15-2.75,4.66-5.57,5.68-8.78,5.61-17.5,26.46-29.46,44-24.06,21.17,6.52,36.17,20.4,44.33,41,5.8,14.64-2.77,35.8-16.08,43.2-5.58,3.11-10.3,7.78-15.43,11.72-3.08,2.37-6.24,4.65-9.27,7.07-3.45,2.77-7.48,5.14-10.09,8.57-17.77,23.35-35.41,46.81-52.63,70.56-2.76,3.81-3.53,9.19-4.73,14-3.19,12.77-4.76,26.13-9.47,38.3-6.69,17.3-22.86,27-36,38.92q-59.31,53.49-119.35,106.19c-6.6,5.78-15.14,9.85-23.41,13.1a45.56,45.56,0,0,1-39.76-2.93C138.65,398.35,129.26,389,121.5,378.93ZM474.55,48.34c-7.85-11.63-17.3-21.94-32-24.88-13.23-2.63-21.4,5.77-16.37,18.29,4,10,11.22,18.71,16.58,27.3-7.58-2.56-17.53-10.27-25.29,4.47L431,70.58l-.76,13.73,15.15-5c-.89,3.82-1.83,7.91-3.39,14.61l16.82-10.62c-1.25,4.61-2.17,8-3.1,11.48l1.42,1,13.14-12.92c-.7,3.82-1.06,5.78-1.56,8.44C484,76.42,485.74,64.9,474.55,48.34ZM371.84,186.62c-17.78,20.92-43.23,19.84-60.36-2.17l-4.88-6.29c2.22,13.9,17.61,27.94,33.78,31.64,17.37,4,23.71,14.8,14.18,30.06-8.47,13.59-20.29,25.38-31.87,36.69-28.15,27.48-57,54.22-85.59,81.27-8.07,7.64-16.13,15.3-22.87,24.4,13.94-12.32,28-24.55,41.79-37,27.22-24.46,54.31-49.08,81.52-73.56,18.35-16.51,33-34.62,30.61-61.62-.38-4.32,1.83-9.64,4.48-13.32,14-19.38,28.47-38.36,42.72-57.54,2.47-3.33,4.59-6.93,6.87-10.4L420.6,128C404.37,147.54,388.31,167.26,371.84,186.62Zm-104-33.18c-7.59,7.19-15.42,12.9-21.11,20.27-35.13,45.53-69.8,91.41-104.56,137.22-3.62,4.77-6.86,9.82-10.27,14.74l1.58,1.21Zm48.28,117-2.75-2.8L191.08,388l2.11,2ZM372.36,88.62,370,86.08l-51.15,47.37,2.44,2.58Zm-45.8,158.49c3.9-.65,9.54,0,11.27-2.26,2.21-2.91,1.25-8.22,1.66-12.5l-14.35-.69C325.79,238.7,326.17,242.9,326.56,247.11Zm67.13-98.65-1.44-1.24-39.6,43.18,1.27,1.42ZM411.51,102c5.14,10.56,23.68,15,34.14,7.76Z"/><path class="cls-4" d="M468.68,91.3c15.34-14.88,17.06-26.4,5.87-43-7.85-11.63-17.3-21.94-32-24.88-13.23-2.63-21.4,5.77-16.37,18.29,4,10,11.22,18.71,16.58,27.3-7.58-2.56-17.53-10.27-25.29,4.47L431,70.58l-.76,13.73,15.15-5c-.89,3.82-1.83,7.91-3.39,14.61l16.82-10.62c-1.25,4.61-2.17,8-3.1,11.48l1.42,1,13.14-12.92C469.54,86.68,469.18,88.64,468.68,91.3Z"/><path class="cls-4" d="M420.6,128c-16.23,19.56-32.29,39.28-48.76,58.64-17.78,20.92-43.23,19.84-60.36-2.17l-4.88-6.29c2.22,13.9,17.61,27.94,33.78,31.64,17.37,4,23.71,14.8,14.18,30.06-8.47,13.59-20.29,25.38-31.87,36.69-28.15,27.48-57,54.22-85.59,81.27-8.07,7.64-16.13,15.3-22.87,24.4,13.94-12.32,28-24.55,41.79-37,27.22-24.46,54.31-49.08,81.52-73.56,18.35-16.51,33-34.62,30.61-61.62-.38-4.32,1.83-9.64,4.48-13.32,14-19.38,28.47-38.36,42.72-57.54,2.47-3.33,4.59-6.93,6.87-10.4Z"/><path class="cls-4" d="M133.44,326.88,267.8,153.44c-7.59,7.19-15.42,12.9-21.11,20.27-35.13,45.53-69.8,91.41-104.56,137.22-3.62,4.77-6.86,9.82-10.27,14.74Z"/><path class="cls-4" d="M193.19,390.08,316.08,270.41l-2.75-2.8L191.08,388Z"/><path class="cls-4" d="M321.31,136l51.05-47.41L370,86.08l-51.15,47.37Z"/><path class="cls-4" d="M325.14,231.66c.65,7,1,11.24,1.42,15.45,3.9-.65,9.54,0,11.27-2.26,2.21-2.91,1.25-8.22,1.66-12.5Z"/><path class="cls-4" d="M353.92,191.82l39.77-43.36-1.44-1.24-39.6,43.18Z"/><path class="cls-4" d="M445.65,109.77,411.51,102C416.65,112.57,435.19,117,445.65,109.77Z"/><path class="cls-3" d="M121.5,379.72c-12.42-16.17-12-36.62.37-54,20.14-28.36,41.28-56,62-83.95,16.75-22.59,33.67-45.07,50.24-67.79,15.41-21.12,35-34.67,61.77-36.82a21,21,0,0,0,11.16-4.54c15-12.71,30.19-25.29,44.2-39,12.44-12.23,29.5-20.49,35.06-39.08.69-2.27,3.95-3.66,5.61-5.78,2.15-2.74,4.66-5.57,5.68-8.78,5.61-17.5,26.46-29.45,44-24.06,21.17,6.53,36.17,20.4,44.33,41,5.8,14.65-2.77,35.8-16.08,43.2-5.58,3.11-10.3,7.78-15.43,11.72-3.08,2.37-6.24,4.65-9.27,7.08-3.45,2.76-7.48,5.14-10.09,8.57-17.77,23.35-35.41,46.81-52.63,70.56-2.76,3.8-3.53,9.18-4.73,14-3.19,12.77-4.76,26.13-9.47,38.3-6.69,17.3-22.86,27-36,38.92q-59.31,53.51-119.35,106.2c-6.6,5.77-15.14,9.84-23.41,13.1a45.56,45.56,0,0,1-39.76-2.94C138.65,399.15,129.26,389.82,121.5,379.72ZM474.55,49.13c-7.85-11.63-17.3-21.94-32-24.87-13.23-2.64-21.4,5.77-16.37,18.29,4,10,11.22,18.7,16.58,27.29-7.58-2.56-17.53-10.27-25.29,4.48L431,71.37l-.76,13.74,15.15-5c-.89,3.82-1.83,7.92-3.39,14.62l16.82-10.63c-1.25,4.62-2.17,8-3.1,11.48l1.42.95,13.14-12.91c-.7,3.82-1.06,5.77-1.56,8.44C484,77.22,485.74,65.7,474.55,49.13ZM371.84,187.42c-17.78,20.91-43.23,19.84-60.36-2.18L306.6,179c2.22,13.89,17.61,27.94,33.78,31.63,17.37,4,23.71,14.8,14.18,30.07-8.47,13.58-20.29,25.37-31.87,36.68-28.15,27.48-57,54.23-85.59,81.27C229,366.25,221,373.91,214.23,383c13.94-12.32,28-24.55,41.79-37,27.22-24.46,54.31-49.08,81.52-73.55,18.35-16.51,33-34.62,30.61-61.62-.38-4.32,1.83-9.65,4.48-13.33,14-19.38,28.47-38.36,42.72-57.54,2.47-3.33,4.59-6.92,6.87-10.39l-1.62-.83C404.37,148.34,388.31,168.05,371.84,187.42Zm-104-33.19c-7.59,7.19-15.42,12.91-21.11,20.28-35.13,45.52-69.8,91.41-104.56,137.22-3.62,4.76-6.86,9.81-10.27,14.73l1.58,1.21Zm48.28,117-2.75-2.81L191.08,388.84l2.11,2Zm56.28-181.8L370,86.87l-51.15,47.38,2.44,2.58ZM326.56,247.9c3.9-.64,9.54,0,11.27-2.26,2.21-2.91,1.25-8.22,1.66-12.49l-14.35-.7C325.79,239.49,326.17,243.7,326.56,247.9Zm67.13-98.65L392.25,148l-39.6,43.17,1.27,1.43Zm17.82-46.44c5.14,10.56,23.68,15,34.14,7.76Z"/><path d="M121.5,378.93c-12.42-16.18-12-36.62.37-54,20.14-28.36,41.28-56,62-84,16.75-22.59,33.67-45.06,50.24-67.78,15.41-21.13,35-34.67,61.77-36.83a20.93,20.93,0,0,0,11.16-4.54c15-12.7,30.19-25.28,44.2-39.05,12.44-12.22,29.5-20.49,35.06-39.07.69-2.27,3.95-3.66,5.61-5.78,2.15-2.75,4.66-5.57,5.68-8.78,5.61-17.5,26.46-29.46,44-24.06,21.17,6.52,36.17,20.4,44.33,41,5.8,14.64-2.77,35.8-16.08,43.2-5.58,3.11-10.3,7.78-15.43,11.72-3.08,2.37-6.24,4.65-9.27,7.07-3.45,2.77-7.48,5.14-10.09,8.57-17.77,23.35-35.41,46.81-52.63,70.56-2.76,3.81-3.53,9.19-4.73,14-3.19,12.77-4.76,26.13-9.47,38.3-6.69,17.3-22.86,27-36,38.92q-59.31,53.49-119.35,106.19c-6.6,5.78-15.14,9.85-23.41,13.1a45.56,45.56,0,0,1-39.76-2.93C138.65,398.35,129.26,389,121.5,378.93ZM474.55,48.34c-7.85-11.63-17.3-21.94-32-24.88-13.23-2.63-21.4,5.77-16.37,18.29,4,10,11.22,18.71,16.58,27.3-7.58-2.56-17.53-10.27-25.29,4.47L431,70.58l-.76,13.73,15.15-5c-.89,3.82-1.83,7.91-3.39,14.61l16.82-10.62c-1.25,4.61-2.17,8-3.1,11.48l1.42,1,13.14-12.92c-.7,3.82-1.06,5.78-1.56,8.44C484,76.42,485.74,64.9,474.55,48.34ZM371.84,186.62c-17.78,20.92-43.23,19.84-60.36-2.17l-4.88-6.29c2.22,13.9,17.61,27.94,33.78,31.64,17.37,4,23.71,14.8,14.18,30.06-8.47,13.59-20.29,25.38-31.87,36.69-28.15,27.48-57,54.22-85.59,81.27-8.07,7.64-16.13,15.3-22.87,24.4,13.94-12.32,28-24.55,41.79-37,27.22-24.46,54.31-49.08,81.52-73.56,18.35-16.51,33-34.62,30.61-61.62-.38-4.32,1.83-9.64,4.48-13.32,14-19.38,28.47-38.36,42.72-57.54,2.47-3.33,4.59-6.93,6.87-10.4L420.6,128C404.37,147.54,388.31,167.26,371.84,186.62Zm-104-33.18c-7.59,7.19-15.42,12.9-21.11,20.27-35.13,45.53-69.8,91.41-104.56,137.22-3.62,4.77-6.86,9.82-10.27,14.74l1.58,1.21Zm48.28,117-2.75-2.8L191.08,388l2.11,2ZM372.36,88.62,370,86.08l-51.15,47.37,2.44,2.58Zm-45.8,158.49c3.9-.65,9.54,0,11.27-2.26,2.21-2.91,1.25-8.22,1.66-12.5l-14.35-.69C325.79,238.7,326.17,242.9,326.56,247.11Zm67.13-98.65-1.44-1.24-39.6,43.18,1.27,1.42ZM411.51,102c5.14,10.56,23.68,15,34.14,7.76Z"/><path class="cls-1" d="M420.6,128c-16.23,19.56-32.29,39.28-48.76,58.64-17.78,20.92-43.23,19.84-60.36-2.17l-4.88-6.29c2.22,13.9,17.61,27.94,33.78,31.64,17.37,4,23.71,14.8,14.18,30.06-8.47,13.59-20.29,25.38-31.87,36.69-28.15,27.48-57,54.22-85.59,81.27-8.07,7.64-16.13,15.3-22.87,24.4,13.94-12.32,28-24.55,41.79-37,27.22-24.46,54.31-49.08,81.52-73.56,18.35-16.51,33-34.62,30.61-61.62-.38-4.32,1.83-9.64,4.48-13.32,14-19.38,28.47-38.36,42.72-57.54,2.47-3.33,4.59-6.93,6.87-10.4Z"/><path class="cls-1" d="M133.44,326.88,267.8,153.44c-7.59,7.19-15.42,12.9-21.11,20.27-35.13,45.53-69.8,91.41-104.56,137.22-3.62,4.77-6.86,9.82-10.27,14.74Z"/><path class="cls-1" d="M193.19,390.08,316.08,270.41l-2.75-2.8L191.08,388Z"/><path d="M121.5,379.72c-12.42-16.17-12-36.62.37-54,20.14-28.36,41.28-56,62-83.95,16.75-22.59,33.67-45.07,50.24-67.79,15.41-21.12,35-34.67,61.77-36.82a21,21,0,0,0,11.16-4.54c15-12.71,30.19-25.29,44.2-39,12.44-12.23,29.5-20.49,35.06-39.08.69-2.27,3.95-3.66,5.61-5.78,2.15-2.74,4.66-5.57,5.68-8.78,5.61-17.5,26.46-29.45,44-24.06,21.17,6.53,36.17,20.4,44.33,41,5.8,14.65-2.77,35.8-16.08,43.2-5.58,3.11-10.3,7.78-15.43,11.72-3.08,2.37-6.24,4.65-9.27,7.08-3.45,2.76-7.48,5.14-10.09,8.57-17.77,23.35-35.41,46.81-52.63,70.56-2.76,3.8-3.53,9.18-4.73,14-3.19,12.77-4.76,26.13-9.47,38.3-6.69,17.3-22.86,27-36,38.92q-59.31,53.51-119.35,106.2c-6.6,5.77-15.14,9.84-23.41,13.1a45.56,45.56,0,0,1-39.76-2.94C138.65,399.15,129.26,389.82,121.5,379.72ZM474.55,49.13c-7.85-11.63-17.3-21.94-32-24.87-13.23-2.64-21.4,5.77-16.37,18.29,4,10,11.22,18.7,16.58,27.29-7.58-2.56-17.53-10.27-25.29,4.48L431,71.37l-.76,13.74,15.15-5c-.89,3.82-1.83,7.92-3.39,14.62l16.82-10.63c-1.25,4.62-2.17,8-3.1,11.48l1.42.95,13.14-12.91c-.7,3.82-1.06,5.77-1.56,8.44C484,77.22,485.74,65.7,474.55,49.13ZM371.84,187.42c-17.78,20.91-43.23,19.84-60.36-2.18L306.6,179c2.22,13.89,17.61,27.94,33.78,31.63,17.37,4,23.71,14.8,14.18,30.07-8.47,13.58-20.29,25.37-31.87,36.68-28.15,27.48-57,54.23-85.59,81.27C229,366.25,221,373.91,214.23,383c13.94-12.32,28-24.55,41.79-37,27.22-24.46,54.31-49.08,81.52-73.55,18.35-16.51,33-34.62,30.61-61.62-.38-4.32,1.83-9.65,4.48-13.33,14-19.38,28.47-38.36,42.72-57.54,2.47-3.33,4.59-6.92,6.87-10.39l-1.62-.83C404.37,148.34,388.31,168.05,371.84,187.42Zm-104-33.19c-7.59,7.19-15.42,12.91-21.11,20.28-35.13,45.52-69.8,91.41-104.56,137.22-3.62,4.76-6.86,9.81-10.27,14.73l1.58,1.21Zm48.28,117-2.75-2.81L191.08,388.84l2.11,2Zm56.28-181.8L370,86.87l-51.15,47.38,2.44,2.58ZM326.56,247.9c3.9-.64,9.54,0,11.27-2.26,2.21-2.91,1.25-8.22,1.66-12.49l-14.35-.7C325.79,239.49,326.17,243.7,326.56,247.9Zm67.13-98.65L392.25,148l-39.6,43.17,1.27,1.43Zm17.82-46.44c5.14,10.56,23.68,15,34.14,7.76Z"/><path class="cls-1" d="M259.39,135.28l-51-47.42,2.34-2.54,51.15,47.38Z"/><path class="cls-1" d="M255.56,230.91c-.64,7-1,11.24-1.42,15.45-3.9-.65-9.54,0-11.27-2.27-2.21-2.91-1.25-8.22-1.66-12.49Z"/><path class="cls-1" d="M226.78,191.07,187,147.71l1.44-1.24,39.6,43.18Z"/><path class="cls-3" d="M431,404a45.56,45.56,0,0,1-39.76,2.93c-8.27-3.26-16.8-7.33-23.41-13.1q-60.15-52.56-119.35-106.2c-13.17-11.87-29.34-21.62-36-38.92-4.71-12.16-6.28-25.53-9.47-38.3-1.2-4.77-2-10.16-4.73-14-17.22-23.75-34.86-47.21-52.63-70.56-2.61-3.43-6.63-5.8-10.09-8.57-3-2.43-6.19-4.7-9.27-7.07-5.12-3.94-9.84-8.61-15.43-11.72C97.56,91.12,89,70,94.79,55.33c8.16-20.62,23.16-34.5,44.33-41,17.52-5.4,38.37,6.56,44,24,1,3.22,3.53,6,5.68,8.79,1.66,2.12,4.92,3.5,5.61,5.78C200,71.51,217,79.77,229.45,92c14,13.76,29.2,26.34,44.2,39.05a20.93,20.93,0,0,0,11.16,4.54c26.73,2.16,46.36,15.7,61.77,36.82,16.57,22.73,33.49,45.2,50.24,67.79,20.73,27.94,41.87,55.59,62,84,12.35,17.39,12.79,37.84.37,54C451.44,388.28,442.05,397.6,431,404ZM112,90.55c-.5-2.67-.86-4.62-1.56-8.44L123.61,95l1.41-1c-.92-3.43-1.85-6.86-3.1-11.48l16.82,10.63c-1.56-6.7-2.5-10.79-3.39-14.61l15.15,5-.76-13.74,13.49,3c-7.76-14.74-17.71-7-25.29-4.48C143.3,59.7,150.5,51,154.52,41c5-12.52-3.14-20.93-16.37-18.29-14.7,2.93-24.15,13.25-32,24.88C95,64.15,96.68,75.67,112,90.55Zm48.08,36.68-1.62.82c2.28,3.47,4.4,7.07,6.87,10.4,14.25,19.17,28.76,38.15,42.72,57.54,2.65,3.68,4.86,9,4.48,13.32-2.38,27,12.26,45.11,30.61,61.62,27.21,24.48,54.3,49.09,81.52,73.56,13.84,12.43,27.85,24.65,41.79,37-6.73-9.1-14.8-16.75-22.87-24.39C315,330,286.16,303.28,258,275.79c-11.58-11.31-23.4-23.09-31.87-36.68C216.61,223.85,223,213,240.32,209c16.17-3.69,31.56-17.73,33.78-31.63-2,2.54-3.43,4.41-4.88,6.29-17.13,22-42.58,23.08-60.36,2.17C192.39,166.51,176.33,146.79,160.1,127.23ZM447.26,326.12l1.58-1.2c-3.41-4.92-6.65-10-10.27-14.74C403.81,264.37,369.14,218.49,334,173c-5.69-7.37-13.52-13.08-21.11-20.27Zm-59.75,63.2,2.11-2L267.37,266.86l-2.75,2.8Zm-128.12-254,2.44-2.58L210.68,85.32l-2.34,2.54Zm-3.83,95.63-14.35.69c.41,4.27-.55,9.58,1.66,12.49,1.73,2.29,7.37,1.62,11.27,2.27C254.53,242.15,254.92,238,255.56,230.91Zm-28.78-39.84,1.27-1.42-39.6-43.18L187,147.71Zm-91.73-82c10.46,7.26,29,2.8,34.14-7.76Z"/><path class="cls-4" d="M112,90.55c-15.34-14.88-17-26.4-5.87-43,7.85-11.63,17.3-22,32-24.88,13.23-2.64,21.4,5.77,16.37,18.29-4,10-11.22,18.7-16.58,27.29,7.58-2.56,17.53-10.26,25.29,4.48l-13.49-3,.76,13.74-15.15-5c.89,3.82,1.83,7.91,3.39,14.61L121.92,82.59c1.25,4.62,2.18,8,3.1,11.48l-1.41,1L110.46,82.11C111.16,85.93,111.52,87.88,112,90.55Z"/><path class="cls-4" d="M160.1,127.23c16.23,19.56,32.29,39.28,48.76,58.64,17.78,20.91,43.23,19.84,60.36-2.17,1.45-1.88,2.91-3.75,4.88-6.29-2.22,13.9-17.61,27.94-33.78,31.63-17.37,4-23.71,14.81-14.18,30.07,8.47,13.59,20.29,25.37,31.87,36.68,28.15,27.49,57,54.23,85.59,81.28,8.07,7.64,16.14,15.29,22.87,24.39-13.94-12.32-28-24.54-41.79-37-27.22-24.47-54.31-49.08-81.52-73.56-18.35-16.51-33-34.62-30.61-61.62.38-4.32-1.83-9.64-4.48-13.32-14-19.39-28.47-38.37-42.72-57.54-2.47-3.33-4.59-6.93-6.87-10.4Z"/><path class="cls-4" d="M447.26,326.12,312.9,152.69c7.59,7.19,15.42,12.9,21.11,20.27,35.13,45.53,69.8,91.41,104.56,137.22,3.62,4.77,6.86,9.82,10.27,14.74Z"/><path class="cls-4" d="M387.51,389.32,264.62,269.66l2.75-2.8L389.62,387.29Z"/><path class="cls-4" d="M259.39,135.28l-51-47.42,2.34-2.54,51.15,47.38Z"/><path class="cls-4" d="M255.56,230.91c-.64,7-1,11.24-1.42,15.45-3.9-.65-9.54,0-11.27-2.27-2.21-2.91-1.25-8.22-1.66-12.49Z"/><path class="cls-4" d="M226.78,191.07,187,147.71l1.44-1.24,39.6,43.18Z"/><path class="cls-4" d="M135.05,109l34.14-7.76C164.05,111.82,145.51,116.28,135.05,109Z"/><path class="cls-3" d="M431,404.79a45.6,45.6,0,0,1-39.76,2.94c-8.27-3.26-16.8-7.33-23.41-13.11q-60.15-52.56-119.35-106.19c-13.17-11.88-29.34-21.62-36-38.92-4.71-12.17-6.28-25.53-9.47-38.3-1.2-4.78-2-10.16-4.73-14-17.22-23.75-34.86-47.21-52.63-70.56-2.61-3.43-6.63-5.8-10.09-8.57-3-2.42-6.19-4.7-9.27-7.07-5.12-3.94-9.84-8.61-15.43-11.72C97.56,91.92,89,70.76,94.79,56.12,103,35.5,118,21.62,139.12,15.1c17.52-5.4,38.37,6.56,44,24.06,1,3.21,3.53,6,5.68,8.78,1.66,2.12,4.92,3.51,5.61,5.78C200,72.3,217,80.57,229.45,92.79c14,13.77,29.2,26.35,44.2,39.05a20.93,20.93,0,0,0,11.16,4.54c26.73,2.16,46.36,15.7,61.77,36.83,16.57,22.72,33.49,45.19,50.24,67.78,20.73,27.95,41.87,55.6,62,84,12.35,17.4,12.79,37.84.37,54C451.44,389.07,442.05,398.4,431,404.79ZM112,91.34c-.5-2.66-.86-4.62-1.56-8.44l13.15,12.92,1.41-.95c-.92-3.43-1.85-6.87-3.1-11.48L138.74,94c-1.56-6.7-2.5-10.79-3.39-14.61l15.15,4.95-.76-13.73,13.49,2.94c-7.76-14.74-17.71-7-25.29-4.47,5.36-8.59,12.56-17.3,16.58-27.3,5-12.52-3.14-20.92-16.37-18.28-14.7,2.93-24.15,13.24-32,24.87C95,64.94,96.68,76.46,112,91.34ZM160.1,128l-1.62.82c2.28,3.48,4.4,7.07,6.87,10.4,14.25,19.18,28.76,38.16,42.72,57.54,2.65,3.68,4.86,9,4.48,13.32-2.38,27,12.26,45.11,30.61,61.62,27.21,24.48,54.3,49.1,81.52,73.56,13.84,12.43,27.85,24.66,41.79,37-6.73-9.1-14.8-16.76-22.87-24.4C315,330.81,286.16,304.07,258,276.59c-11.58-11.31-23.4-23.1-31.87-36.69-9.53-15.26-3.19-26.09,14.18-30.06,16.17-3.7,31.56-17.74,33.78-31.64l-4.88,6.29c-17.13,22-42.58,23.09-60.36,2.17C192.39,167.3,176.33,147.58,160.1,128Zm287.16,198.9,1.58-1.21c-3.41-4.92-6.65-10-10.27-14.74C403.81,265.16,369.14,219.28,334,173.75c-5.69-7.37-13.52-13.08-21.11-20.27Zm-59.75,63.2,2.11-2L267.37,267.65l-2.75,2.81Zm-128.12-254,2.44-2.58L210.68,86.12l-2.34,2.54Zm-3.83,95.63-14.35.69c.41,4.28-.55,9.59,1.66,12.5,1.73,2.29,7.37,1.62,11.27,2.26C254.53,243,254.92,238.74,255.56,231.7Zm-28.78-39.84,1.27-1.42-39.6-43.18L187,148.5Zm-91.73-82.05c10.46,7.26,29,2.8,34.14-7.75Z"/><path d="M431,404a45.56,45.56,0,0,1-39.76,2.93c-8.27-3.26-16.8-7.33-23.41-13.1q-60.15-52.56-119.35-106.2c-13.17-11.87-29.34-21.62-36-38.92-4.71-12.16-6.28-25.53-9.47-38.3-1.2-4.77-2-10.16-4.73-14-17.22-23.75-34.86-47.21-52.63-70.56-2.61-3.43-6.63-5.8-10.09-8.57-3-2.43-6.19-4.7-9.27-7.07-5.12-3.94-9.84-8.61-15.43-11.72C97.56,91.12,89,70,94.79,55.33c8.16-20.62,23.16-34.5,44.33-41,17.52-5.4,38.37,6.56,44,24,1,3.22,3.53,6,5.68,8.79,1.66,2.12,4.92,3.5,5.61,5.78C200,71.51,217,79.77,229.45,92c14,13.76,29.2,26.34,44.2,39.05a20.93,20.93,0,0,0,11.16,4.54c26.73,2.16,46.36,15.7,61.77,36.82,16.57,22.73,33.49,45.2,50.24,67.79,20.73,27.94,41.87,55.59,62,84,12.35,17.39,12.79,37.84.37,54C451.44,388.28,442.05,397.6,431,404ZM112,90.55c-.5-2.67-.86-4.62-1.56-8.44L123.61,95l1.41-1c-.92-3.43-1.85-6.86-3.1-11.48l16.82,10.63c-1.56-6.7-2.5-10.79-3.39-14.61l15.15,5-.76-13.74,13.49,3c-7.76-14.74-17.71-7-25.29-4.48C143.3,59.7,150.5,51,154.52,41c5-12.52-3.14-20.93-16.37-18.29-14.7,2.93-24.15,13.25-32,24.88C95,64.15,96.68,75.67,112,90.55Zm48.08,36.68-1.62.82c2.28,3.47,4.4,7.07,6.87,10.4,14.25,19.17,28.76,38.15,42.72,57.54,2.65,3.68,4.86,9,4.48,13.32-2.38,27,12.26,45.11,30.61,61.62,27.21,24.48,54.3,49.09,81.52,73.56,13.84,12.43,27.85,24.65,41.79,37-6.73-9.1-14.8-16.75-22.87-24.39C315,330,286.16,303.28,258,275.79c-11.58-11.31-23.4-23.09-31.87-36.68C216.61,223.85,223,213,240.32,209c16.17-3.69,31.56-17.73,33.78-31.63-2,2.54-3.43,4.41-4.88,6.29-17.13,22-42.58,23.08-60.36,2.17C192.39,166.51,176.33,146.79,160.1,127.23ZM447.26,326.12l1.58-1.2c-3.41-4.92-6.65-10-10.27-14.74C403.81,264.37,369.14,218.49,334,173c-5.69-7.37-13.52-13.08-21.11-20.27Zm-59.75,63.2,2.11-2L267.37,266.86l-2.75,2.8Zm-128.12-254,2.44-2.58L210.68,85.32l-2.34,2.54Zm-3.83,95.63-14.35.69c.41,4.27-.55,9.58,1.66,12.49,1.73,2.29,7.37,1.62,11.27,2.27C254.53,242.15,254.92,238,255.56,230.91Zm-28.78-39.84,1.27-1.42-39.6-43.18L187,147.71Zm-91.73-82c10.46,7.26,29,2.8,34.14-7.76Z"/><path class="cls-1" d="M160.1,127.23c16.23,19.56,32.29,39.28,48.76,58.64,17.78,20.91,43.23,19.84,60.36-2.17,1.45-1.88,2.91-3.75,4.88-6.29-2.22,13.9-17.61,27.94-33.78,31.63-17.37,4-23.71,14.81-14.18,30.07,8.47,13.59,20.29,25.37,31.87,36.68,28.15,27.49,57,54.23,85.59,81.28,8.07,7.64,16.14,15.29,22.87,24.39-13.94-12.32-28-24.54-41.79-37-27.22-24.47-54.31-49.08-81.52-73.56-18.35-16.51-33-34.62-30.61-61.62.38-4.32-1.83-9.64-4.48-13.32-14-19.39-28.47-38.37-42.72-57.54-2.47-3.33-4.59-6.93-6.87-10.4Z"/><path class="cls-1" d="M447.26,326.12,312.9,152.69c7.59,7.19,15.42,12.9,21.11,20.27,35.13,45.53,69.8,91.41,104.56,137.22,3.62,4.77,6.86,9.82,10.27,14.74Z"/><path class="cls-1" d="M387.51,389.32,264.62,269.66l2.75-2.8L389.62,387.29Z"/><path d="M431,404.79a45.6,45.6,0,0,1-39.76,2.94c-8.27-3.26-16.8-7.33-23.41-13.11q-60.15-52.56-119.35-106.19c-13.17-11.88-29.34-21.62-36-38.92-4.71-12.17-6.28-25.53-9.47-38.3-1.2-4.78-2-10.16-4.73-14-17.22-23.75-34.86-47.21-52.63-70.56-2.61-3.43-6.63-5.8-10.09-8.57-3-2.42-6.19-4.7-9.27-7.07-5.12-3.94-9.84-8.61-15.43-11.72C97.56,91.92,89,70.76,94.79,56.12,103,35.5,118,21.62,139.12,15.1c17.52-5.4,38.37,6.56,44,24.06,1,3.21,3.53,6,5.68,8.78,1.66,2.12,4.92,3.51,5.61,5.78C200,72.3,217,80.57,229.45,92.79c14,13.77,29.2,26.35,44.2,39.05a20.93,20.93,0,0,0,11.16,4.54c26.73,2.16,46.36,15.7,61.77,36.83,16.57,22.72,33.49,45.19,50.24,67.78,20.73,27.95,41.87,55.6,62,84,12.35,17.4,12.79,37.84.37,54C451.44,389.07,442.05,398.4,431,404.79ZM112,91.34c-.5-2.66-.86-4.62-1.56-8.44l13.15,12.92,1.41-.95c-.92-3.43-1.85-6.87-3.1-11.48L138.74,94c-1.56-6.7-2.5-10.79-3.39-14.61l15.15,4.95-.76-13.73,13.49,2.94c-7.76-14.74-17.71-7-25.29-4.47,5.36-8.59,12.56-17.3,16.58-27.3,5-12.52-3.14-20.92-16.37-18.28-14.7,2.93-24.15,13.24-32,24.87C95,64.94,96.68,76.46,112,91.34ZM160.1,128l-1.62.82c2.28,3.48,4.4,7.07,6.87,10.4,14.25,19.18,28.76,38.16,42.72,57.54,2.65,3.68,4.86,9,4.48,13.32-2.38,27,12.26,45.11,30.61,61.62,27.21,24.48,54.3,49.1,81.52,73.56,13.84,12.43,27.85,24.66,41.79,37-6.73-9.1-14.8-16.76-22.87-24.4C315,330.81,286.16,304.07,258,276.59c-11.58-11.31-23.4-23.1-31.87-36.69-9.53-15.26-3.19-26.09,14.18-30.06,16.17-3.7,31.56-17.74,33.78-31.64l-4.88,6.29c-17.13,22-42.58,23.09-60.36,2.17C192.39,167.3,176.33,147.58,160.1,128Zm287.16,198.9,1.58-1.21c-3.41-4.92-6.65-10-10.27-14.74C403.81,265.16,369.14,219.28,334,173.75c-5.69-7.37-13.52-13.08-21.11-20.27Zm-59.75,63.2,2.11-2L267.37,267.65l-2.75,2.81Zm-128.12-254,2.44-2.58L210.68,86.12l-2.34,2.54Zm-3.83,95.63-14.35.69c.41,4.28-.55,9.59,1.66,12.5,1.73,2.29,7.37,1.62,11.27,2.26C254.53,243,254.92,238.74,255.56,231.7Zm-28.78-39.84,1.27-1.42-39.6-43.18L187,148.5Zm-91.73-82.05c10.46,7.26,29,2.8,34.14-7.75Z"/><rect x="170.63" y="82.87" width="47.4" height="18.96" rx="8.18" ry="8.18"/><rect x="360.24" y="86.03" width="47.4" height="18.96" rx="8.18" ry="8.18"/><path class="cls-2" d="M289.43,146.61c11.53,7.47,14.52,19.64,17.46,31.81.53,2.19-1.09,4.63-2.45,4.58-6.8-.24-8.5,6.48-13.19,9-7.22,3.91-14.06,3.2-20.81-.86-2.7-1.62-4.82-4.54-9.1-3.68,9-3.84,13.49-14.76,25.2-13.22-7.42-10.1-19.63-11.34-31.71-3.54-3.87,2.5-7.45,5.55-12.15,6.35-3.46.59-7,1.13-10.64-2.67,9.64-.07,16.5-4.67,23.12-10.16s15-5.72,23.8-4.78c-1.51-6-7.23-5.83-11.18-8.29,9.18-2.25,18.21,2.5,27.13,14,1.25-7.17-4.35-11.48-6.65-17.06Z"/><path d="M241.25,142.74c-7.67-.11-14.07,4.54-15,11.48-6.27-7.65-11.7-15.27-16-24.3,5.29-.61,6.29,4.23,9.92,6.63-.61-9.16-4-17.26-2-26.09,4,13.57,14.06,22.56,23,32.39Z"/><path class="cls-5" d="M241.13,142.85c6.75,0,10.32-4.37,8.09-10.93,4.57,1.05,8.06,3.1,12.68,6.65-9.91,2.76-15.12,11.14-24.11,13.45l-.1.15c-.25-3.69,6.4-4.77,3.56-9.44Z"/><path class="cls-2" d="M344.26,169.32c-3.72-2.53-6.66-4.72-9.78-6.6-2.23-1.34-2.1-2.44-.69-4.42s2.87-2.07,4.57-.6C341.73,160.6,343.31,164.38,344.26,169.32Z"/><path class="cls-2" d="M284.65,200.63c4.51-2.89,7.25-4.4,9.7-6.29,2-1.51,3.09-1.54,4.36.75,1.51,2.71.47,4.13-2.12,4.53C293.43,200.12,290.21,200.19,284.65,200.63Z"/><path class="cls-5" d="M237.79,152c-.3.43-.62.85-.89,1.3-.08.13,0,.34-.05.52.89-.24,1.47-.64.84-1.66C237.69,152.17,237.79,152,237.79,152Z"/><path class="cls-5" d="M288.26,148.15c-.43-.49-1.33-1.22-1.22-1.43.63-1.25,1.56-.56,2.39-.11Z"/><path d="M359.4,354.55c-.36-3.74,1-7.27-1.24-11.53-7.08,9.39-16,15.72-26.17,20.37-3.95,1.79-5.76,1.9-5.93-3.22a29.2,29.2,0,0,0-3.83-13.63c-6.59,3.52-6.84,20.74-19.88,8.89-2.1,5.23,1.43,9.09,1,14.13l-10.88-2.65c-2.31,2.35,1.47,3.63.73,6.7-16.69-1.75-30.47-9.35-42.91-21.35-6.08,8.32-12.56,16.27-23.64,17.9-7.78,1.14-15-.49-22.65-3.81l4.67-3.74c-1.09-2.51-3.33-2-4.93-2.08-5.27-.24-6.69-2-4.07-7,2-3.76,3-8,5.1-14-6.27,3.22-10.72,6.15-16.51,7.24.43-7.57.84-14.76,1.31-23.16-8.75,4.7-17.08,8.06-28.35,6.51,17.45-19.12,6.95-40,5.88-61.36-5.92,6.9-8.35,14.92-12.9,22.95-4.63-14.85-2.51-28.49.77-41.82-3.23-1.83-3.84,2.15-6.42,1.68-.14-15.9,8-28.6,17-41.78H152.77c4.73-16,12.66-28.64,28.26-36.12-5-6.5-9.38-12.89-11.91-21.2L184,155.34c-1.73-8.34-5.52-16.1-3.93-24.6,3.21-1.26,4.28,3.06,7.74,2.36,1.74-8.6,3.25-17.68,6.8-26.21,7.67-18.4,18.1-21.3,34.09-9.37,1.95,1.45,3.85,3,5.81,4.46,3.22-1.54,1-5.2,3.8-7.5,6.43,6.25,11.21,7.28,17.7,13.67,6.14,6,10.53,13.43,22,12.59,1.06-.07,3.87-.54,4.92-.63,20.83-1.78,32.36-5.67,45-17.73A45.63,45.63,0,0,1,344,92.93c10.49-3.81,17.09-1.24,22.21,8.62,6.24,12,9.87,24.68,9.06,38.5,2.65,1.56,5.75-2,7.47.36s1,5.61-.15,7.87c-5.34,10.68-3.31,20.22,3.09,29.7,1.71,2.53,1.76,6.19,2.56,9.34,1.28,5,.18,7.93-6.08,6,.85,6.8,4.38,11.69,8.63,15.8,4.79,4.66,6.53,7.81-3,8.8,8.26,11.33,14,22.75,13.43,36.53-2.65.48-5.15-1.84-8.51.83l10,7.56c-4.72,4.14-8.65.56-13,1.15,4.13,9.6,8.25,18.79,16.14,27.89l-13.17-3c3.38,17.54,4.12,34.57-5,50.75-1.63-2.63-1-5.79-3.53-7.8-3.64,6.64-7.29,13.24-13,19.32L369.46,346C365.57,348.2,364.6,353.9,359.4,354.55ZM212,352c13-2.14,14.23-13,16.9-24.64,4.81,13.71.12,24.3-6.13,35.27,15.05-4.19,22-14,21.73-27.94-.11-6.14-2.81-12.5.57-19.73,7.53,27.26,17.57,41,32.31,44.81-.1-6.86-3.6-12.31-6.55-18-3.37-6.53-3.92-12.16-2.47-18,9.93,22.09,13.89,27.31,24,31.25-.74-9.92.34-19.35,5.38-27.9,1.09,5.38-.16,11.14,5,15.22,2-4.42.91-9.8,4.86-13.42,3.56,4.6,3.51,10.29,4.73,16.33,6.46-10.25,6.65-16.43.46-29.32,12.85,8.58,15.28,21.22,20.38,33.49,2.31-5.82.58-10.64,1.4-15.67,5,2.43,2.89,7.84,6.21,11.74.13-7.14,2.87-12.87,1-18.91-.45-1.48-1.86-3.18.4-4,1.81-.64,3.15.85,3.59,2.51,1.28,4.93,2.37,9.9,3.67,15.47,6.72-11.62,7.8-22.53.11-33.41l1.56-1.39c9.62,6,12.23,16.19,15.13,27.18,4.4-11.45,1.06-21.55-.8-31.69l0,0c6.82,5.13,8.26,13.14,11.21,22.47,3.14-12.91-.91-22.57-6.38-33.08,9.82,3.72,11.34,12.83,16.83,20,1-17.36-7.07-30.21-14.91-43.53,4.51-.81,5.58,4.46,10.4,4.54-3.72-8.62-7.25-16.81-11-25.56,5.5.17,7.38,4.87,12.09,5.77-1.64-4.93-3.16-9.52-4.65-14,4.7-1.38,6.86,3.5,11.47,3.24-4.17-17.58-20.7-27.57-26.13-44.38,3.39.18,4.12,3,5.95,4.4,2,1.52,3.35,4.13,6.1,4.07-11.21-30.78-28.72-56.37-61.39-71.13,13.87-3,17.47-18,33-19.08-7.39,6.61-13.41,11.58-15.26,19.91,7.52-2.31,10.43-9.08,16.31-13.76-.15,8.65-6,13.52-9.78,19.73,7,1.12,9.86-4.57,14.15-6.91,1.59,4.72,1.19,8.93-2,12.52-2.9,3.29-1.52,5.47,1.27,8a68.5,68.5,0,0,1,14.4,18.64c2.18,4.15,4.83,6.67,10,6.59a22.7,22.7,0,0,0-.74-3.35c-.8-2-1.66-4-2.64-6A19.79,19.79,0,0,1,374,152.9a26.63,26.63,0,0,0,1.28-3.64c-4.78.74-8.86,2.86-13.51,1.46,6.3-14.4,3.56-28.2-2.76-41.61-3.65-7.75-8.54-9.36-15.85-5a96.35,96.35,0,0,0-16.49,11.93c-11.37,10.65-24.43,13.21-39.86,14.52-18.54,1.58-30.87-4.38-41.17-18.25-.18-.24-1,0-1.57,0-1.71,4.47,1.67,9.2-.91,14.37-3.5-12.41-13.06-18.57-23-24.16-7.54-4.22-11.21-2.89-14.77,5a86.61,86.61,0,0,0-7.66,29.85c-.53,7.61,1.82,10.36,10.3,11.52.2-3.15-3.11-5.53-2-10.53l16.08,18.82c-11.54.48-20.4-4.19-29.44-8.14-.33-.67-.79-1.38-1.52-.72-.24.22.22,1.2.36,1.84,2.49,7.51,9.4,10.15,16.35,13.61-8.34,1.86-15.79-.07-23.51.22,3.63,7.89,8.59,9.65,16.12,7.67,8.13-2.14,11.19-1.18,15.34,1.79-18.06,1-33.18,8-45.1,21.66,8.59-1.55,16.24-6.47,26.95-6.07-12.82,9.18-22.35,19.28-28.56,32.16,8.66-3.23,15.77-9.48,26.29-9.73-25,19.83-33,36.63-32.86,46.64,7.57-8.51,13.2-18.37,24.68-21.95-12,31.52-12.05,31.62-8.82,43.51,9.82-18.93,21.32-35.46,44.8-38.1-16.22,9.23-22.69,25-28.24,43.12-1.77-8.11,1.5-14.13.23-21.56-9.13,8.4-11.5,18.4-12.55,29-.9,9.18-1.15,18.51-6.8,28,11.69-3,15.31-11.37,19.16-21.24,4.57,11,3.48,21.22,2.59,32.26,11.91-7.06,14.3-18.16,17.33-29.32.71,16.63-2.11,32.95-3.9,49.34l.09,1.87Z"/><path class="cls-2" d="M349.53,307.17c7.69,10.88,6.61,21.79-.11,33.41-1.3-5.57-2.39-10.54-3.67-15.47-.44-1.66-1.78-3.15-3.59-2.51-2.26.81-.85,2.51-.4,4,1.86,6-.88,11.77-1,18.91-3.32-3.9-1.23-9.31-6.21-11.74-.82,5,.91,9.85-1.4,15.67-5.1-12.27-7.53-24.91-20.38-33.49,6.19,12.89,6,19.07-.46,29.32-1.22-6-1.17-11.73-4.73-16.33-3.95,3.62-2.84,9-4.86,13.42-5.16-4.08-3.91-9.84-5-15.22-5,8.55-6.12,18-5.38,27.9-10.09-3.94-14.05-9.16-24-31.25-1.45,5.83-.9,11.46,2.47,18,2.95,5.72,6.45,11.17,6.55,18C262.63,356,252.59,342.25,245.06,315c-3.38,7.23-.68,13.59-.57,19.73.27,14-6.68,23.75-21.73,27.94,6.25-11,10.94-21.56,6.13-35.27C226.22,339.05,225,349.89,212,352a10.76,10.76,0,0,0-1-.95c1.8-16.38,4.62-32.7,3.91-49.33-3,11.16-5.42,22.26-17.33,29.32.89-11,2-21.27-2.59-32.26-3.85,9.87-7.47,18.28-19.16,21.24,5.65-9.46,5.9-18.79,6.8-28,1.05-10.6,3.42-20.6,12.55-29,1.27,7.43-2,13.45-.23,21.56,5.55-18.07,12-33.89,28.24-43.12-23.48,2.64-35,19.17-44.8,38.1-3.23-11.89-3.21-12,8.82-43.51-11.48,3.58-17.11,13.44-24.68,21.95-.14-10,7.81-26.81,32.86-46.64-10.52.25-17.63,6.5-26.29,9.73,6.21-12.88,15.74-23,28.56-32.16-10.71-.4-18.36,4.52-26.95,6.07,11.92-13.67,27-20.62,45.1-21.66-4.15-3-7.21-3.93-15.34-1.79-7.53,2-12.49.22-16.12-7.67,7.72-.29,15.17,1.64,23.51-.22-6.95-3.46-13.86-6.1-16.35-13.61.4-.37.78-.74,1.16-1.12,9,3.95,17.9,8.62,29.44,8.14l-16.08-18.82c-1.15,5,2.16,7.38,2,10.53-8.48-1.16-10.83-3.91-10.3-11.52a86.61,86.61,0,0,1,7.66-29.85c3.56-7.86,7.23-9.19,14.77-5,10,5.59,19.55,11.75,23,24.16,2.58-5.17-.8-9.9.91-14.37.6,0,1.39-.21,1.57,0,10.3,13.87,22.63,19.83,41.17,18.25,15.43-1.31,28.49-3.87,39.86-14.52a96.35,96.35,0,0,1,16.49-11.93c7.31-4.37,12.2-2.76,15.85,5,6.32,13.41,9.06,27.21,2.76,41.61,4.65,1.4,8.73-.72,13.51-1.46A26.63,26.63,0,0,1,374,152.9a19.79,19.79,0,0,0-.26,17.52c1,1.94,1.84,3.94,2.64,6a22.7,22.7,0,0,1,.74,3.35c-5.2.08-7.85-2.44-10-6.59a68.5,68.5,0,0,0-14.4-18.64c-2.79-2.56-4.17-4.74-1.27-8,3.17-3.59,3.57-7.8,2-12.52-4.29,2.34-7.16,8-14.15,6.91,3.75-6.21,9.63-11.08,9.78-19.73-5.88,4.68-8.79,11.45-16.31,13.76,1.85-8.33,7.87-13.3,15.26-19.91-15.57,1.07-19.17,16.09-33,19.08,32.67,14.76,50.18,40.35,61.39,71.13-2.75.06-4.1-2.55-6.1-4.07-1.83-1.38-2.56-4.22-5.95-4.4,5.43,16.81,22,26.8,26.13,44.38-4.61.26-6.77-4.62-11.47-3.24,1.49,4.5,3,9.09,4.65,14-4.71-.9-6.59-5.6-12.09-5.77,3.76,8.75,7.29,16.94,11,25.56-4.82-.08-5.89-5.35-10.4-4.54,7.84,13.32,15.92,26.17,14.91,43.53-5.49-7.15-7-16.26-16.83-20,5.47,10.51,9.52,20.17,6.38,33.08-2.95-9.33-4.39-17.34-11.21-22.47-.37-.46-.75-.92-1.12-1.39-.11.23-.36.47-.32.67.15.87.66,1.13,1.46.7,1.86,10.14,5.2,20.24.8,31.69-2.9-11-5.51-21.15-15.13-27.18-.75-1.44-1.87-1.47-3.17-.81Z"/><path class="cls-2" d="M237.79,152c9-2.31,14.2-10.69,24.11-13.45-4.62-3.55-8.11-5.6-12.68-6.65,2.23,6.56-1.34,11-8.09,10.93-9-9.83-19.06-18.82-23-32.39-2,8.83,1.44,16.93,2,26.09-3.63-2.4-4.63-7.24-9.92-6.63,4.31,9,9.74,16.65,16,24.3.93-6.94,7.33-11.59,15-11.49,2.84,4.67-3.81,5.75-3.56,9.46.63,1,.05,1.41-.84,1.65,0-.18,0-.39.05-.52C237.17,152.87,237.49,152.45,237.79,152Z"/><path class="cls-2" d="M289.43,146.61c-.83-.45-1.76-1.14-2.39.11-.11.21.79.94,1.22,1.43,2.3,5.58,7.9,9.89,6.65,17.06-8.92-11.54-18-16.29-27.13-14,4,2.46,9.67,2.31,11.18,8.29-8.81-.94-17.06-.8-23.8,4.78S241.68,174.33,232,174.4c3.61,3.8,7.18,3.26,10.64,2.67,4.7-.8,8.28-3.85,12.15-6.35,12.08-7.8,24.29-6.56,31.71,3.54-11.71-1.54-16.23,9.38-25.2,13.22,4.28-.86,6.4,2.06,9.1,3.68,6.75,4.06,13.59,4.77,20.81.86,4.69-2.54,6.39-9.26,13.19-9,1.36.05,3-2.39,2.45-4.58C304,166.25,301,154.08,289.43,146.61Z"/><path class="cls-2" d="M359,224.6l-.16-.18c1.19,5.31-2.08,9.24-4.25,13.47s-4.89,6.86-9,1.82c-1.61-2-2.78-2.32-5.3-.66-13.34,8.8-27.58,8.88-42,3-8.29-3.39-16.33-7.39-24.51-11.05-6.95-3.11-13.38-2.87-19.18,2.79,1.83,2.74,5.4.84,6.74,4.34,3.79,9.93,12.88,14.44,21.6,18.82,11.66,5.86,23.77,10.67,37,12.21,2.68.32,6.61,0,6.26,4.62-.37,4.8-3.85,5.2-7.69,5a33,33,0,0,1-11.75-3.08c-9-3.85-18-7.76-27-11.46-12.92-5.3-27.64-2.2-36.67,8.5,9-3.91,17.05-7.17,26.62-3.76-11.74,6.24-20.37,14.11-22.1,27.56,4.26-3.92,6.79-9.47,11.57-12.86s9-8.16,15.92-6.63c-7.45,11.43-7.45,11.43-7.21,19.17.79-1.7,1.18-2.63,1.65-3.52,8.85-16.65,27.23-17.58,37.24-1.94,3,4.72,7.26,7.93,14,11.35-2.46-5.7-4-9.35-6-13.84,6,.63,11.64,2.19,16.24-1.68,2.81-2.36,5.48-2.34,8.93-1.82,8,1.2,15.62-.52,20.26-7.54s2.94-15.14-1.61-21.48c-3.76-5.24-2.81-8.35.46-13.17,13.36-19.74,11.37-38.81-10.23-47.85A9.59,9.59,0,0,1,346,193a2.58,2.58,0,0,1-.66-1.26c.88-3.2-13.66-14.28-18.69-14.91,1.16-3.3.88-5.65-1.6-5.79L323.94,170c-.35-5.2,3.64-9,5-13.35-7-3.68-6,12.76-14.28,4.9-3.7,15-2.74,17.49,9.71,25.24,6.11,3.81,12.15,7.72,19.29,12.26-3.51.81-5.5,1.24-7.48,1.74-12.58,3.13-15.81,11.56-8.6,22.27,3.46,5.14,8.75,11.1,13.8,10C347.27,231.84,355.27,231.67,359,224.6Z"/><path class="cls-2" d="M206.28,188.72c20.57-2.52,37.81,5.65,55.92,17.64-2.33-6.59-5.21-10-8.72-11.45-4.14-1.78.24-7-2.87-6.95C235.83,188,221.08,181.74,206.28,188.72Z"/><path class="cls-2" d="M207.5,274.09c5.83-7.29,11.55-13.65,18.48-18.88,7.08-5.34,15.13-8.55,23.5-11.24C229.38,241.94,209.93,255.9,207.5,274.09Z"/><path class="cls-2" d="M214.32,211.4c10.48-4.82,21.32-7.86,33-7.84-12.17-6.12-24.43-9.83-38.47-4.17,5.84,1.72,11.48-.74,16.87,2.49C221.44,204.71,216.41,205.92,214.32,211.4Z"/><path class="cls-2" d="M344.26,169.32c-.95-4.94-2.53-8.72-5.9-11.62-1.7-1.47-3.06-1.52-4.57.6s-1.54,3.08.69,4.42C337.6,164.6,340.54,166.79,344.26,169.32Z"/><path class="cls-2" d="M284.65,200.63c5.56-.44,8.78-.51,11.94-1,2.59-.4,3.63-1.82,2.12-4.53-1.27-2.29-2.4-2.26-4.36-.75C291.9,196.23,289.16,197.74,284.65,200.63Z"/><path class="cls-2" d="M324.12,238.76c4.91,0,8.49-.36,11.16-3.45C330,229.51,327.91,234.9,324.12,238.76Z"/><path d="M348.84,196.59c22.93,4.73,23.46,26.29,10.1,46-3.27,4.82-4.22,7.93-.46,13.17,4.55,6.34,6.34,14.34,1.61,21.48s-12.29,8.74-20.26,7.54c-3.45-.52-6.12-.54-8.93,1.82-4.6,3.87-10.26,2.31-16.24,1.68,1.94,4.49,3.53,8.14,6,13.84-6.71-3.42-10.95-6.63-14-11.35-10-15.64-28.39-14.71-37.24,1.94-.47.89-.86,1.82-1.65,3.52-.24-7.74-.24-7.74,7.21-19.17-6.92-1.53-11.14,3.25-15.92,6.63s-7.31,8.94-11.57,12.86c1.73-13.45,10.36-21.32,22.1-27.56-9.57-3.41-17.58-.15-26.62,3.76,9-10.7,23.75-13.8,36.67-8.5,9,3.7,18,7.61,27,11.46a33,33,0,0,0,11.75,3.08c3.84.16,7.32-.24,7.69-5,.35-4.57-3.58-4.3-6.26-4.62-13.18-1.54-25.29-6.35-37-12.21-8.72-4.38-17.81-8.89-21.6-18.82-1.34-3.5-4.91-1.6-6.74-4.34,5.8-5.66,12.23-5.9,19.18-2.79,8.18,3.66,16.22,7.66,24.51,11.05,14.41,5.88,28.65,5.8,42-3,2.52-1.66,3.69-1.31,5.3.66,4.11,5,6.82,2.43,9-1.82s5.44-8.16,4.25-13.47c1.06.64,1.22-.16,1.26-.88,0-.31-.33-.64-.51-1l-.59,2c-3.68,7.07-11.68,7.24-17.53,8.49-5.05,1.08-10.34-4.88-13.8-10-7.21-10.71-4-19.14,8.6-22.27C338.2,200.3,346.07,196,348.84,196.59Zm-6.73,65c-2-.28-2-2.31-2.9-3.48-2.18-2.7-4.13-6.68-8.31-3.77-3.7,2.57-3.39,6.49-1.1,10.11,1.29,2.06,2.8,4,4.21,6,5.55,7.84,10.64,9,17.6,4.1,5-3.53,5.21-10.63.35-17.16-2.06-2.76-4.14-6.6-8.24-5.37-5.49,1.65.31,5.49-1,8.15C342.54,260.55,342.33,261,342.11,261.54Zm12.24-53c-4.75-6.12-10.46-3.47-15.8-3.44s-8.9,2.42-9.15,8.12c-.27,6.11,3.71,9.27,8.75,11.3,2.43,1,4.3-.16,4.81-2.75.58-2.89-.69-5.32-3.7-4.7-3.29.67-6.1,1.62-6.09-3,0-4.22,3.37-5.27,6.76-5.43C344.73,208.41,349.55,208.58,354.35,208.58Zm-52,43.37c3.61,10.46,12,10.09,20.76,10.14C319.53,250.85,308.84,255.89,302.38,252Zm-5.21,5.38c-1.32-7.76-7.41-7.77-10.8-10.81-1.06-.94-3.16-2-4.23-.24-1.17,1.89.25,3.74,1.91,4.65C287.94,253,292,254.83,297.17,257.33Z"/><path class="cls-2" d="M207.5,274.09c2.43-18.19,21.88-32.15,42-30.12-8.37,2.69-16.42,5.9-23.5,11.24C219.05,260.44,213.33,266.8,207.5,274.09Z"/><path class="cls-2" d="M214.32,211.4c2.09-5.48,7.12-6.69,11.37-9.52-5.39-3.23-11-.77-16.87-2.49,14-5.66,26.3-1.95,38.47,4.17C235.64,203.54,224.8,206.58,214.32,211.4Z"/><path class="cls-2" d="M324.12,238.76c3.79-3.86,5.89-9.25,11.16-3.45C332.61,238.4,329,238.75,324.12,238.76Z"/><path class="cls-5" d="M365.42,301.27c-.8.43-1.31.17-1.46-.7,0-.2.21-.44.32-.67.37.47.75.93,1.12,1.39Z"/><path class="cls-2" d="M342.11,261.54c.22-.5.43-1,.66-1.46,1.26-2.66-4.54-6.5,1-8.15,4.1-1.23,6.18,2.61,8.24,5.37,4.86,6.53,4.63,13.63-.35,17.16-7,4.93-12.05,3.74-17.6-4.1-1.41-2-2.92-3.9-4.21-6-2.29-3.62-2.6-7.54,1.1-10.11,4.18-2.91,6.13,1.07,8.31,3.77C340.15,259.23,340.09,261.26,342.11,261.54Z"/><path class="cls-2" d="M354.35,208.58c-4.8,0-9.62-.17-14.42.06-3.39.16-6.75,1.21-6.76,5.43,0,4.66,2.8,3.71,6.09,3,3-.62,4.28,1.81,3.7,4.7-.51,2.59-2.38,3.74-4.81,2.75-5-2-9-5.19-8.75-11.3.25-5.7,3.89-8.1,9.15-8.12S349.6,202.46,354.35,208.58Z"/><path class="cls-2" d="M302.38,252c6.46,3.94,17.15-1.1,20.76,10.14C314.35,262,306,262.41,302.38,252Z"/><path class="cls-2" d="M297.17,257.33c-5.18-2.5-9.23-4.3-13.12-6.4-1.66-.91-3.08-2.76-1.91-4.65,1.07-1.73,3.17-.7,4.23.24C289.76,249.56,295.85,249.57,297.17,257.33Z"/><path d="M359,224.6l.59-2c.18.32.53.65.51,1,0,.72-.2,1.52-1.26.88Z"/><ellipse class="cls-2" cx="288.34" cy="146.84" rx="3.69" ry="3.27"/><path d="M263.57,189.41a87,87,0,0,1-6.14-9.21c-1-1.68-1.54-2.79-1.54-3.77,0-1.54,1.26-2.51,3.63-4.05,3.35-2.23,5.3-3.35,6.84-3.35,2.09,0,3.07,1.68,4.19,3.77a78.5,78.5,0,0,0,5,7.68c5.17-4.33,10.06-8.94,15.08-14a2.44,2.44,0,0,1,2-.7c2.79,0,6.84,2.93,6.84,4.89a1.21,1.21,0,0,1-.42.83,234.48,234.48,0,0,1-17.87,15.78c3.21,3.63,6.7,6.56,9.21,6.56,2.1,0,2.93.84,2.93,2,0,3.21-6.28,9.08-11.3,9.08-4.61,0-8.38-3.49-11.17-6.56a15,15,0,0,1-2-2.24,144,144,0,0,1-13,7.4,4.76,4.76,0,0,1-2.51.56c-3.49,0-7.68-2.37-7.68-3.63a.77.77,0,0,1,.42-.7A164.61,164.61,0,0,0,263.57,189.41Z"/><path d="M323.19,189.41a87,87,0,0,1-6.14-9.21c-1-1.68-1.54-2.79-1.54-3.77,0-1.54,1.26-2.51,3.63-4.05,3.35-2.23,5.31-3.35,6.84-3.35,2.1,0,3.07,1.68,4.19,3.77a77.3,77.3,0,0,0,5,7.68c5.16-4.33,9.17-8.07,14.2-13.09.56-.56,1.27-1.4,2.11-1.4,2.79,0,7.28,5.95,5.52,7.15-.23.16-1.34,1.26-1.62,1.53a152.45,152.45,0,0,1-14.63,12.65c3.21,3.63,7.11,5.18,9.21,6.56,3.27,2.14,8.8,7.88,8.8,9,0,3.21-10.13,1.11-15.15,1.11-4.61,0-8.36-1.26-13.19-5.64a14.38,14.38,0,0,1-1.95-2.24,145.54,145.54,0,0,1-13,7.4,4.73,4.73,0,0,1-2.51.56c-3.49,0-7.68-2.37-7.68-3.63a.77.77,0,0,1,.42-.7A163.61,163.61,0,0,0,323.19,189.41Z"/><rect x="398.17" y="98.67" width="47.4" height="18.96" rx="8.18" ry="8.18"/><rect x="132.7" y="98.67" width="47.4" height="18.96" rx="8.18" ry="8.18"/><rect x="388.69" y="253.52" width="15.8" height="12.64" rx="5.45" ry="5.45"/></svg>