<svg xmlns="http://www.w3.org/2000/svg" viewBox="0 0 576 576"><defs><style>.a{opacity:0.3;}.b,.e{fill:none;stroke-width:25.31px;}.b{stroke:#fec305;}.b,.e,.f{stroke-miterlimit:10;}.c{fill:#fec305;}.d{fill:#969006;}.e{stroke:#969006;}.f{stroke:#fff;stroke-width:12.25px;}.g{fill:#b8730e;}.h{font-size:46.12px;font-family:Kinescope, Kinescope;}.i{letter-spacing:-0.01em;}.j{letter-spacing:0em;}</style></defs><title>Logos</title><g class="a"><polygon class="b" points="277.49 62.87 390.23 270.17 502.97 477.46 277.49 477.46 52.02 477.46 164.76 270.17 277.49 62.87"/></g><polygon class="c" points="277.35 65.48 390.08 272.77 502.82 480.07 277.35 480.07 51.87 480.07 164.61 272.77 277.35 65.48"/><polygon class="d" points="51.44 512.67 363.61 74.96 540.22 358.82 51.44 512.67"/><g class="a"><polygon class="e" points="52.66 511.36 364.84 73.66 541.45 357.52 52.66 511.36"/></g><path class="f" d="M123.21,182.36c-1.28.31-2.32-1-2.69-2.81a4.89,4.89,0,0,1,.68-3.87c10.11-13.15,39.82-36.55,63.52-42.2,4.43-1.06,8.4,0,9.2,3.77a11.73,11.73,0,0,1-.68,6c-5.63,15.92-11.64,37.11-16.59,57,4.76-.21,9.08.35,12.08,1.76a2,2,0,0,1,.91,1.5c.41,1.89-.41,5.14-2.26,5.58a3.15,3.15,0,0,1-1.06,0,40.6,40.6,0,0,0-11.72-.79c-3.45,14.88-6.11,28.51-7.27,37.93a5.26,5.26,0,0,1-4.42,4.64c-6.57,1.56-18.8-3.08-26.85-7.79-7.32-4.08-14.33-11.69-15.39-16.74-1.5-7.07,20.09-18.45,40.18-23.51a552.19,552.19,0,0,1,15.38-56.3c-19.21,7.76-38.15,21-52.1,35.23A1.74,1.74,0,0,1,123.21,182.36Zm36,28.52c-10.63,2.94-21.6,7.81-29.6,14,2.7,6.38,16.43,16.63,25.53,17.11C155.35,233.56,156.93,222.58,159.25,210.88Z"/><path class="f" d="M220,191.75c1.36,6.44-9.59,14.22-15.55,16.57a7,7,0,0,0-.52,4.63c.41,1.89,1.64,3.45,4.21,2.84,3.85-.92,12.5-10.4,14.43-16.17l3.23-9.52a7.48,7.48,0,0,1,5.42-4.87c2.71-.65,7.78-.8,8.32,1.73.67,3.15-3.48,14.75-4,21.5,15-8.61,28.85-26,30.28-26.32s2.82,2,3.06,3.12c.48,2.27.19,3-1.43,4.58-16.19,16.33-31.11,28.77-40.82,31.09-3.57.85-5.95-.44-6.75-4.23a10.9,10.9,0,0,1-.15-3.54c-5.22,7.21-11.73,12.61-17.44,14-6.43,1.53-10.51,0-11.66-5.44-2.32-11,14.52-30.64,23.09-32.69C217.58,188.08,219.64,190,220,191.75Z"/><path class="f" d="M299.83,175.49c1.33-1.51,1.61-1.58,1.9-1.65,1.43-.34,2.85,1.44,3.28,3.46a3.79,3.79,0,0,1-.76,3.5c-16.19,16.33-31.77,29.19-41.49,31.51-4,.95-6-.82-6.74-4.23-.88-4.16,7.59-32.17,12.54-46.34,10.61-30,20.55-51,24.55-52,2.71-.64,5.23,2.73,5.79,5.38,1.6,7.58-14.29,47.3-23.38,63.92a168.76,168.76,0,0,0-6.06,22.39C281.23,194.65,291.18,185,299.83,175.49Z"/><path class="f" d="M306.67,189.37a26.71,26.71,0,0,0,.61,7.15c.24,1.13.91,5.75-8.8,8.06-3.57.85-5.39-1.36-5.79-3.26-1.65-7.82,7.19-34.06,12.14-48.24,10.61-30,20.55-51,24.55-52,2.72-.65,5.23,2.73,5.79,5.38,1.61,7.57-14.29,47.29-23.37,63.91C310,175.19,306.87,186.8,306.67,189.37Z"/><path class="g" d="M123,181.49c-1.29.31-2.32-1-2.7-2.8a5,5,0,0,1,.68-3.87c10.12-13.16,39.82-36.55,63.53-42.21,4.43-1.05,8.4,0,9.2,3.78a11.68,11.68,0,0,1-.68,6c-5.63,15.93-11.65,37.12-16.59,57,4.76-.2,9.08.36,12.07,1.76a2,2,0,0,1,.92,1.51c.4,1.89-.41,5.13-2.27,5.58a3.1,3.1,0,0,1-1.05,0,40.28,40.28,0,0,0-11.72-.78c-3.45,14.87-6.12,28.5-7.27,37.93a5.25,5.25,0,0,1-4.42,4.63c-6.57,1.57-18.8-3.07-26.85-7.78-7.32-4.09-14.33-11.7-15.4-16.74C119,218.39,140.58,207,160.66,202a552.08,552.08,0,0,1,15.39-56.31c-19.21,7.77-38.16,21-52.1,35.24A1.7,1.7,0,0,1,123,181.49Zm36,28.53c-10.63,2.93-21.6,7.8-29.6,13.95,2.7,6.39,16.42,16.64,25.53,17.12C155.17,232.69,156.74,221.71,159.07,210Z"/><path class="g" d="M219.83,190.88c1.36,6.44-9.6,14.22-15.55,16.57a6.92,6.92,0,0,0-.52,4.64c.4,1.89,1.63,3.45,4.2,2.84,3.86-.92,12.5-10.41,14.43-16.17l3.24-9.53a7.5,7.5,0,0,1,5.42-4.87c2.71-.64,7.78-.79,8.31,1.73.67,3.16-3.47,14.75-4,21.5,15-8.61,28.85-26,30.28-26.31s2.82,2,3.06,3.11c.48,2.28.19,3-1.43,4.59-16.2,16.32-31.12,28.77-40.83,31.08-3.57.85-5.94-.44-6.74-4.22a10.68,10.68,0,0,1-.15-3.55c-5.23,7.22-11.74,12.61-17.45,14-6.42,1.53-10.5,0-11.65-5.44-2.32-11,14.52-30.65,23.08-32.69C217.4,187.22,219.45,189.12,219.83,190.88Z"/><path class="g" d="M299.65,174.63c1.33-1.51,1.61-1.58,1.9-1.65,1.42-.34,2.85,1.44,3.28,3.46a3.82,3.82,0,0,1-.76,3.5c-16.2,16.32-31.78,29.19-41.49,31.5-4,1-6-.81-6.74-4.22-.88-4.17,7.59-32.17,12.54-46.35,10.61-30,20.55-51,24.55-52,2.71-.65,5.23,2.73,5.79,5.38,1.6,7.57-14.29,47.29-23.38,63.91a168.94,168.94,0,0,0-6.06,22.4C281.05,193.78,291,184.11,299.65,174.63Z"/><path class="g" d="M306.48,188.51a27.05,27.05,0,0,0,.61,7.14c.25,1.14.92,5.75-8.79,8.07-3.57.85-5.39-1.37-5.79-3.26-1.66-7.83,7.19-34.07,12.14-48.24,10.61-30,20.55-51,24.55-52,2.71-.65,5.23,2.73,5.79,5.38,1.6,7.57-14.29,47.29-23.38,63.91C309.78,174.33,306.69,185.94,306.48,188.51Z"/><path class="f" d="M272.3,282.73c-2.85.68-7.11-.29-7.43-1.81-.08-.38,0-.66.5-1.18,9-9.05,19.92-30.6,18-39.69-.69-3.28-3.12-4.83-7.69-3.73-28.28,6.74-49.9,51.28-45.12,73.87,2.06,9.72,8.95,15.36,22.38,12.16,17.85-4.26,38.61-25.92,40.46-27.82a3.78,3.78,0,0,1,2.13-1.3,2.3,2.3,0,0,1,2.82,2,3.66,3.66,0,0,1-.5,2.64c-2.18,3.83-30.49,31-50.34,35.74-19,4.53-31.29-1.82-34.09-15.07-7.13-33.7,33.7-83.88,63.12-90.9,12-2.86,17.87.78,19.31,7.6,2.43,11.48-7.48,32-21.51,46.49A4,4,0,0,1,272.3,282.73Z"/><path class="f" d="M282.38,307c-.13-.63,1.2-2.14,4-5.07l4.07-4.15-1.07-.81a7.21,7.21,0,0,1-3.26-4.79c-1-4.67,2.45-10.39,8.59-11.86,5.14-1.22,8.31.27,9,3.68a10,10,0,0,1,0,3.45c2.73.15,4.89.43,7.05.71,2.78.39,3.93,1.58,4.28,3.22.94,4.42-4.38,11.92-3.58,15.7,13.64-8.56,25.32-21.42,30.3-27a1.74,1.74,0,0,1,.92-.62c1.28-.3,2.42,1.55,2.85,3.57a4.7,4.7,0,0,1-.45,3.55c-8,8.94-30,29.16-38.83,31.27-3.57.85-6-.44-6.75-4.22-.69-3.28,3.13-10,4-13.69-2.45-.21-4.41-.27-6.26-.49-4,3.87-8.63,6.7-11.63,7.41C283.52,307.37,282.49,307.48,282.38,307Z"/><path class="f" d="M357.35,274.9c1.37,6.44-9.59,14.22-15.54,16.57a6.9,6.9,0,0,0-.52,4.63c.4,1.9,1.63,3.46,4.2,2.84,3.86-.92,12.5-10.4,14.43-16.17l3.23-9.52a7.5,7.5,0,0,1,5.42-4.87c2.72-.65,7.79-.8,8.32,1.73.67,3.15-3.48,14.75-4,21.5,15-8.61,28.86-26,30.29-26.31,1.28-.31,2.81,2,3.06,3.11.48,2.27.18,3-1.44,4.58-16.19,16.33-31.11,28.77-40.82,31.09-3.57.85-5.94-.44-6.75-4.23a10.87,10.87,0,0,1-.15-3.54c-5.22,7.21-11.73,12.61-17.44,14-6.43,1.54-10.51,0-11.65-5.44-2.33-11,14.51-30.64,23.08-32.68C354.93,271.24,357,273.13,357.35,274.9Z"/><path class="f" d="M453.51,265a9,9,0,0,1-4.08-5.79A10,10,0,0,1,457,247.54c3.57-.85,7.31.51,8.19,4.68a14.31,14.31,0,0,1-.75,7.07,31.41,31.41,0,0,0,3.62-.6c8-1.9,14.61-8.25,18.37-12.46a1.4,1.4,0,0,1,.77-.59c1-.24,1.81,1.43,2.18,3.2s.27,3.38-.34,4a44.08,44.08,0,0,1-21,13,37.27,37.27,0,0,1-7,1c-6.48,11.23-16.77,18.59-25.34,20.63-4.71,1.13-8.78-1.08-9.87-6.26a16.17,16.17,0,0,1-.16-5c-3.68,6.71-9.82,16-19.81,18.38-3.29.79-8.87-1.46-9.53-4.62-.88-4.16-1.18-13.37,4.53-27.46.77-2,3.07-3.25,5.49-3.83,4.15-1,9-.15,9.4,1.87a3.33,3.33,0,0,1-.2,1.9c-1.16,3.72-4.47,16.44-3.54,21.53,4.43-3.18,11.27-9.85,17.25-28.38.65-1.88,2.94-3.09,5.37-3.67,4.14-1,9-.15,9.42,2a2.2,2.2,0,0,1-.16,1.36c-1.22,4.14-5,18.17-4,23.09C445.55,276.27,450.84,270.76,453.51,265Z"/><path class="f" d="M492.56,260.94a27.15,27.15,0,0,0,.61,7.15c.25,1.13.92,5.75-8.79,8.06-3.57.85-5.39-1.36-5.79-3.26-1.66-7.82,7.19-34.06,12.14-48.24,10.61-30,20.55-51,24.55-52,2.71-.65,5.23,2.73,5.79,5.38,1.6,7.57-14.29,47.29-23.38,63.91C495.86,246.76,492.77,258.37,492.56,260.94Z"/><path class="g" d="M271.07,284.23c-2.85.68-7.11-.3-7.43-1.81-.08-.38,0-.67.5-1.18,9-9.05,19.92-30.61,18-39.69-.69-3.28-3.12-4.83-7.69-3.74-28.28,6.75-49.9,51.28-45.12,73.88,2.06,9.71,8.95,15.36,22.38,12.16,17.85-4.26,38.62-25.92,40.46-27.82a3.73,3.73,0,0,1,2.13-1.3,2.3,2.3,0,0,1,2.82,2,3.68,3.68,0,0,1-.49,2.63c-2.19,3.84-30.5,31-50.35,35.75-19,4.53-31.28-1.82-34.09-15.07-7.13-33.7,33.7-83.88,63.12-90.9,12-2.86,17.87.78,19.31,7.59,2.43,11.49-7.48,32-21.51,46.5A4,4,0,0,1,271.07,284.23Z"/><path class="g" d="M281.15,308.47c-.13-.63,1.2-2.14,4-5.07l4.07-4.15-1.07-.81a7.21,7.21,0,0,1-3.26-4.79c-1-4.67,2.45-10.39,8.59-11.86,5.14-1.23,8.31.27,9,3.68a10,10,0,0,1,0,3.45c2.73.15,4.89.43,7.05.71,2.78.39,3.93,1.58,4.28,3.22.94,4.42-4.38,11.91-3.58,15.7,13.64-8.56,25.32-21.42,30.3-27a1.74,1.74,0,0,1,.92-.62c1.28-.3,2.42,1.54,2.85,3.56a4.67,4.67,0,0,1-.45,3.56c-8,8.94-30,29.16-38.83,31.27-3.57.85-5.95-.44-6.75-4.22-.69-3.28,3.13-10,4-13.69-2.45-.21-4.41-.27-6.26-.49-4,3.86-8.63,6.7-11.63,7.41C282.29,308.86,281.26,309,281.15,308.47Z"/><path class="g" d="M356.12,276.4c1.37,6.44-9.59,14.22-15.54,16.57a6.9,6.9,0,0,0-.52,4.63c.4,1.89,1.63,3.46,4.2,2.84,3.86-.92,12.5-10.4,14.43-16.17l3.23-9.52a7.5,7.5,0,0,1,5.42-4.87c2.72-.65,7.79-.8,8.32,1.73.67,3.15-3.48,14.75-4,21.5,15-8.61,28.86-26,30.29-26.32s2.82,2,3.06,3.12c.48,2.27.18,3-1.43,4.58-16.2,16.33-31.12,28.77-40.83,31.09-3.57.85-5.94-.44-6.74-4.23a10.61,10.61,0,0,1-.16-3.54c-5.22,7.21-11.73,12.61-17.44,14-6.43,1.53-10.5,0-11.65-5.44-2.33-11,14.51-30.64,23.08-32.68C353.7,272.74,355.75,274.63,356.12,276.4Z"/><path class="g" d="M452.28,266.45a9,9,0,0,1-4.08-5.79A10,10,0,0,1,455.79,249c3.57-.85,7.31.51,8.19,4.68a14.08,14.08,0,0,1-.75,7.07,34.33,34.33,0,0,0,3.63-.6c8-1.91,14.6-8.26,18.36-12.47a1.37,1.37,0,0,1,.78-.58c1-.24,1.8,1.43,2.17,3.19s.27,3.39-.34,4.06a44.16,44.16,0,0,1-21,13,38.11,38.11,0,0,1-7,1c-6.47,11.23-16.77,18.59-25.34,20.63-4.71,1.12-8.78-1.09-9.87-6.26a16.17,16.17,0,0,1-.16-5c-3.68,6.71-9.82,16-19.81,18.38-3.29.78-8.86-1.46-9.53-4.62-.88-4.16-1.18-13.37,4.53-27.47.77-2,3.07-3.25,5.5-3.83,4.14-1,9-.15,9.39,1.87a3.41,3.41,0,0,1-.19,1.91c-1.17,3.72-4.48,16.44-3.55,21.52,4.43-3.17,11.27-9.84,17.25-28.37.65-1.88,2.94-3.09,5.37-3.67,4.14-1,9-.15,9.43,2a2.35,2.35,0,0,1-.17,1.37c-1.22,4.14-5,18.16-4,23.08C444.32,277.76,449.61,272.26,452.28,266.45Z"/><path class="g" d="M491.33,262.44a27,27,0,0,0,.62,7.15c.24,1.13.91,5.74-8.8,8.06-3.57.85-5.39-1.37-5.79-3.26-1.66-7.82,7.19-34.06,12.14-48.24,10.61-30,20.55-51,24.55-52,2.72-.65,5.23,2.73,5.79,5.38,1.6,7.57-14.29,47.29-23.37,63.91C494.63,248.26,491.54,259.87,491.33,262.44Z"/><text class="h" transform="matrix(0.93, -0.19, 0.18, 0.98, 97.28, 135.84)">10th <tspan class="i" x="70.32" y="0">A</tspan><tspan class="j" x="101.96" y="0">nnual</tspan></text></svg>