<svg id="Layer_1" data-name="Layer 1" xmlns="http://www.w3.org/2000/svg" viewBox="0 0 576 576"><defs><style>.cls-1,.cls-4{stroke:#000;stroke-miterlimit:10;}.cls-1{stroke-width:15.82px;}.cls-2{fill:#fff;}.cls-3{fill:#050505;}.cls-4{fill:#f8f8f8;stroke-width:6.03px;}</style></defs><title>fallCrawl2</title><path class="cls-1" d="M138.19,332.44q11.46-14.51,27.89-36.47t25.44-34.9L180,241.56q-3.24-5.3-9.31-14.8l-9.81-15.2q-3.62-5.69-8.13-12.94,12.65.19,25.88.2,10.48,0,22.45-.2,4.31,8.53,10.14,18.48t9.27,17.3q3.92-6.77,10.68-16.81t11.87-19q10.38.19,22.64.2,8,0,22.55-.2-7.06,10.09-21,28.63t-26.37,36.56q15.88,27.06,43.13,68.63-15.48-.19-23.23-.2-12.95,0-25.59.2-3.82-7.85-10.73-19.85t-12-22.11q-3.83,6.86-12.55,19.31t-15.39,22.65q-14.31-.19-22.65-.2Q152.6,332.24,138.19,332.44Z"/><path class="cls-1" d="M275.73,332.44q11.47-14.51,27.89-36.47t25.44-34.9l-11.57-19.51q-3.24-5.3-9.31-14.8l-9.8-15.2q-3.63-5.69-8.14-12.94,12.64.19,25.88.2,10.49,0,22.45-.2,4.31,8.53,10.14,18.48T358,234.4q3.91-6.77,10.68-16.81t11.87-19q10.38.19,22.64.2,7.95,0,22.55-.2-7.07,10.09-21,28.63t-26.37,36.56q15.88,27.06,43.13,68.63-15.48-.19-23.23-.2-12.94,0-25.59.2-3.82-7.85-10.73-19.85t-12-22.11q-3.82,6.86-12.55,19.31T322,332.44q-14.31-.19-22.64-.2Q290.14,332.24,275.73,332.44Z"/><path class="cls-2" d="M139.29,331.12q11.47-14.5,27.89-36.47t25.44-34.9l-11.56-19.51q-3.24-5.3-9.32-14.8l-9.8-15.2q-3.63-5.69-8.14-12.94,12.64.19,25.88.2,10.5,0,22.45-.2,4.32,8.53,10.15,18.48t9.26,17.3q3.93-6.77,10.69-16.81t11.86-19q10.4.19,22.65.2,7.93,0,22.54-.2-7,10.09-21,28.63t-26.37,36.56q15.88,27.06,43.14,68.63-15.49-.19-23.24-.2-12.93,0-25.58.2-3.83-7.85-10.74-19.85t-12-22.11Q209.69,296,201,308.47t-15.4,22.65q-14.31-.19-22.64-.2Q153.71,330.92,139.29,331.12Z"/><path class="cls-2" d="M276.83,331.12q11.48-14.5,27.89-36.47t25.44-34.9L318.6,240.24q-3.24-5.3-9.32-14.8l-9.8-15.2q-3.63-5.69-8.14-12.94,12.65.19,25.88.2,10.5,0,22.45-.2,4.32,8.53,10.15,18.48t9.26,17.3q3.93-6.77,10.69-16.81t11.86-19q10.39.19,22.65.2,7.94,0,22.54-.2-7.05,10.09-21,28.63t-26.38,36.56q15.88,27.06,43.14,68.63-15.5-.19-23.23-.2-12.94,0-25.59.2-3.82-7.85-10.74-19.85t-12-22.11q-3.81,6.85-12.54,19.31t-15.39,22.65q-14.33-.19-22.65-.2Q291.25,330.92,276.83,331.12Z"/><rect class="cls-3" x="239.6" y="192.47" width="102.57" height="4.65"/><path d="M83.45,308.4l11.41,15.82c-4.49-1.43-7.65-2.42-10.8-3.44-7.78-2.5-7.78-2.51-12.74,4.31a39.15,39.15,0,0,1-6.63,7.59c0-4.54-.2-9.09.06-13.61.2-3.37-.74-5.19-4.25-6-4.46-1.07-8.76-2.75-14.38-4.57,5.59-1.86,10.08-3.58,14.7-4.81,3-.8,4.1-2.2,3.93-5.31-.25-4.7-.07-9.42-.07-15.68l11.58,15.83,18.65-5.93Z"/><path d="M113.23,225c-4.28-4.76-7.67-8.29-10.77-12.05-1.7-2.07-3.17-2.48-5.64-1.24-4.47,2.25-9.13,4.11-14.78,6.61,3.58-6.25,6.56-11.43,9.75-17l-13-14.7,19.14,4,9.88-17c.63,6,1.25,10.76,1.57,15.48.2,2.94,1.19,4.51,4.38,5,4.7.67,9.32,1.9,15.55,3.23-5.3,2.35-9.39,4.4-13.65,6-3.51,1.3-5,3-4,7C112.63,214.56,112.65,219.08,113.23,225Z"/><path d="M97.61,273.49l-16.53-10.7c-4.75,3.83-9.52,7.66-15.31,12.31,1.59-6,2.71-10.83,4.2-15.57.8-2.58.26-4-2.07-5.41-4.2-2.48-8.22-5.28-13.48-8.69,6.21-.41,11.15-.94,16.09-1,2.8,0,3.86-1.08,4.44-3.68,1.09-4.79,2.53-9.49,4.14-15.4,2,5.22,4,9.34,5.22,13.66,1.1,3.9,3.24,4.8,7,4.37,4.4-.51,8.86-.51,14.53-.79-4.54,3.72-8.22,7-12.18,9.89-2.52,1.84-2.91,3.56-1.64,6.38C93.93,263.2,95.42,267.72,97.61,273.49Z"/><path d="M461.92,136.45c-2.93,5.75-5.06,10.2-7.45,14.51-1.19,2.15-1.1,3.59.78,5.32,3.72,3.42,7.2,7.09,11.75,11.61-6.23-1-11.18-1.54-16-2.6-2.76-.6-4,.25-5.14,2.65-2.05,4.42-4.38,8.7-7.24,14.3-1-6.08-2-10.8-2.44-15.57-.3-3-1.66-4.07-4.42-4.41-4.73-.6-9.43-1.44-15.54-2.4,5.47-2.82,9.79-5.27,14.29-7.31,2.54-1.15,3.12-2.62,2.62-5.2A65.66,65.66,0,0,1,431.71,132c3.31,3.53,6.75,7,9.88,10.64,2.05,2.42,3.87,2.48,6.5,1C452.17,141.22,456.47,139.23,461.92,136.45Z"/><path d="M513.56,333.39l-10.7-14.66-18.6,6c4.18-5.81,7.75-10.79,11.4-15.85L484.23,293c5.64,1.82,10.26,3.12,14.72,4.82,2.8,1.07,4.55.81,6.26-1.92,2.52-4,5.53-7.71,9.24-12.8,0,5.69.34,10-.09,14.31s1.3,6.21,5.35,7.17,8.14,2.6,13.21,4.27c-5.74,1.92-10.47,3.66-15.31,5-2.43.7-3.3,1.83-3.21,4.34.18,4.92.05,9.85.05,14.78Z"/><path d="M155.16,126.5c5.58-3.24,10-5.6,14.19-8.4a5.44,5.44,0,0,0,1.94-4.35c-.7-5-1.94-9.93-3.25-16.22l14.54,13,16.92-9.69c-2.49,5.68-4.74,10.31-6.5,15.12a5.43,5.43,0,0,0,1,4.68c3.51,3.62,7.42,6.86,12.15,11.13-6.23-.59-11.32-1.27-16.42-1.42a5.45,5.45,0,0,0-4.12,2.39c-2.36,4.43-4.25,9.1-6.86,14.9-1.33-6.07-2.54-10.88-3.37-15.74-.43-2.48-1.42-3.49-4-3.67C166.48,127.92,161.59,127.23,155.16,126.5Z"/><path d="M323.16,84.73c5.91,1.56,10.7,2.56,15.31,4.13,2.89,1,4.32.13,5.75-2.26,2.44-4.07,5.13-8,8.45-13.09.38,5.67,1.09,10.16.87,14.6-.21,4.17,1.69,5.46,5.27,6.19,4.29.87,8.47,2.23,14,3.73-5.85,2.25-10.46,4.14-15.16,5.78-2.33.82-3.09,2-3,4.54.24,5,.07,10,.07,15.38l-11.55-14.24-18.36,7c3-4.69,5.19-8.67,8-12.13,2.68-3.31,2.07-5.65-.58-8.5C329.22,92.62,326.64,89.05,323.16,84.73Z"/><path d="M523.21,372.62c-4.26,0-8.53.13-12.78,0-3.91-.16-6,1.17-6.71,5.32-.71,4.32-2.23,8.5-3.72,13.9-2.23-5.82-4.11-10.48-5.79-15.21-.81-2.28-1.94-3.19-4.54-2.92-4.87.52-9.78.57-16.11.89l15-12.39-6.88-18.24c5.15,3.33,9.44,5.88,13.48,8.8,2.25,1.63,3.71,1.44,5.73-.37,3.64-3.27,7.57-6.22,12.33-10.06-1.44,5.59-2.32,10.21-3.87,14.6-1.2,3.42-.18,5.17,2.74,6.84,4,2.26,7.69,4.92,11.52,7.41Z"/><path d="M500.58,186.93c-4.3,4.8-7.92,8.59-11.18,12.66a4.93,4.93,0,0,0-.47,4.37c2.34,4.64,5.09,9.07,8.28,14.61l-17.94-7.9-13,14.42c.54-5.7.74-10.22,1.47-14.65.58-3.53-.19-5.52-3.83-6.75-4.18-1.41-8.11-3.54-13.48-6,5.74-1.26,10.18-2.4,14.69-3.18,3-.52,4.72-1.51,4.81-5,.12-4.68,1-9.35,1.66-15.27,3.07,5.3,5.64,9.46,7.92,13.77,1.25,2.36,2.63,3.1,5.31,2.39C489.57,189.12,494.42,188.25,500.58,186.93Z"/><path d="M379.94,101c5.13,3,9.12,5,12.78,7.48,3,2,5.07,2.06,7.66-.7,3.13-3.33,6.77-6.18,11.07-10-1.43,6.9-2.64,12.7-4,19.07l16.73,9.84c-6,.69-10.76,1.47-15.57,1.7-3,.15-4.11,1.31-4.58,4.13-.77,4.67-1.92,9.27-3.23,15.37-2.51-5.56-4.62-9.82-6.37-14.23-1-2.62-2.38-3.68-5.31-3.23-4.86.75-9.77,1.08-15.89,1.71,4.5-4,8.12-7.51,12-10.7,2-1.7,2.53-3.17,1.28-5.65C384.33,111.43,382.52,106.88,379.94,101Z"/><path d="M523.71,246.49c-4.1,2.68-8.13,5.49-12.34,8-2.3,1.36-3,2.74-2.15,5.38,1.49,4.68,2.58,9.47,4.18,15.54-5.64-4.55-10.33-8.33-15.21-12.25l-16.43,10.61c2.12-5.59,3.53-10.14,5.57-14.39,1.5-3.12.75-4.78-1.86-6.65a60.44,60.44,0,0,1-10.55-9.59c4.79.27,9.6.34,14.36.87,2.91.33,4.28-.57,5.19-3.33,1.52-4.58,3.43-9,5.66-14.79,1.47,5.37,3,9.38,3.6,13.53.68,4.65,3,6,7.37,5.71,4.07-.28,8.17-.06,12.27-.06C523.48,245.54,523.6,246,523.71,246.49Z"/><path d="M78.64,430.21l13-14.53-9.73-17,17.83,7.89L113,392.14c-.63,5.95-1,10.73-1.69,15.44-.48,3.06.5,4.63,3.36,5.73,4.4,1.69,8.66,3.76,14.22,6.23-6.08,1.33-10.88,2.55-15.74,3.37-2.72.45-3.7,1.65-3.87,4.35-.3,4.84-1,9.66-1.63,15.89-2.82-4.87-5.22-8.39-7-12.2s-3.94-5.07-8.13-3.71C88.46,428.56,84.17,429.07,78.64,430.21Z"/><path d="M471.33,443.54c-.66-6-1.5-10.56-1.55-15.12,0-3.72-1.76-4.86-5-5.39-4.52-.74-9-1.87-14.61-3.08,5.37-2.43,9.57-4.64,14-6.23,3.24-1.15,4-2.92,3.46-6.07-.71-4.55-1-9.15-1.69-15.13,4.07,4.46,7.5,8,10.61,11.73,1.81,2.21,3.34,2.7,6,1.32,4.31-2.24,8.85-4,14.5-6.55-2.88,5-4.92,9.06-7.45,12.79-2,3-2.06,5.12.69,7.72,3.32,3.15,6.19,6.76,10.07,11.07-5.77-1.19-10.52-1.85-15.07-3.21-3.34-1-4.88,0-6.33,2.9C476.86,434.38,474.39,438.25,471.33,443.54Z"/><path d="M244.1,99.85c3.46,5.38,6.72,10.44,10.61,16.5-5.59-2.16-10.31-3.75-14.82-5.8-2.73-1.25-4.21-.6-5.89,1.67-2.87,3.89-6.06,7.53-9.95,12.29.3-5.89.25-10.46.86-14.93.53-3.79-.95-5.37-4.35-6.43-4.29-1.33-8.41-3.17-13.79-5.25,6.1-1.65,10.89-3.08,15.76-4.2,2.44-.56,3.36-1.65,3.39-4.19.07-4.89.51-9.79.88-16.08,3.34,5.08,6.14,9,8.57,13.16,1.48,2.53,3,3,5.79,2.12,4.6-1.53,9.37-2.53,15.2-4Z"/><path d="M65.7,341.82,81,354.11l16.39-10.6c-2.15,5.68-3.75,10.42-5.74,15-1.11,2.54-.63,4,1.52,5.59,3.93,2.91,7.64,6.12,12.51,10.07-6.2-.31-11.16-.39-16.08-.87-2.76-.28-4,.7-4.87,3.21-1.58,4.63-3.46,9.17-5.65,14.89-1.61-5.89-3.08-10.56-4.12-15.31-.62-2.9-2-3.8-4.87-3.81-4.74,0-9.49-.48-15.55-.83,5.06-3.33,9-6.2,13.18-8.59,2.64-1.5,3-3.15,2.16-5.81C68.44,352.5,67.33,347.88,65.7,341.82Z"/><path d="M314.23,84.59l-8.39,6.09c-6.2,4.5-6.19,4.49-3.75,12.06,1.06,3.3,2.08,6.61,3.49,11.08-5.07-3.67-9.11-6.85-13.43-9.57a5.37,5.37,0,0,0-4.74,0c-4.28,2.7-8.27,5.86-13.43,9.61,1.65-5.16,2.68-9.36,4.34-13.3s1.15-6.35-2.66-8.56a45.62,45.62,0,0,1-10.17-8.38c5,0,10-.14,14.92.06,2.53.11,3.69-.79,4.38-3.15,1.39-4.8,3-9.52,5-15.52,2,6,3.62,10.71,5,15.51.69,2.35,1.83,3.27,4.36,3.16,4.9-.21,9.82-.06,14.73-.06C314,83.94,314.11,84.26,314.23,84.59Z"/><path d="M140.85,181.93c-2.93-5.72-5.3-10-7.35-14.48-1.06-2.33-2.46-2.9-4.85-2.46-5,.92-10,1.63-16.46,2.66l14.62-13.18c-3.19-6.31-5.91-11.67-9.2-18.16l18.1,9,12-13,.86.45c-.73,4.93-1.67,9.84-2.07,14.79a5.5,5.5,0,0,0,2.19,4.28c4.31,2.58,8.91,4.71,14.6,7.62-6.08,1-10.93,1.95-15.82,2.5-2.71.31-3.79,1.37-4.09,4.09C142.84,170.93,141.87,175.73,140.85,181.93Z"/><rect class="cls-4" x="30.92" y="333.93" width="517.35" height="162.07" rx="12" ry="12"/><path d="M153.83,384.46V373.6a58.25,58.25,0,0,0-16.3-2.29,53.91,53.91,0,0,0-16.19,2.29V418a53,53,0,0,0,16.19,2.33,57.2,57.2,0,0,0,16.3-2.33V404.05h16.34v22.18q-14.11,8.17-32.64,8.17A65.13,65.13,0,0,1,105,426.23V365.47q14.11-8.33,32.53-8.32t32.64,8.32v19Z"/><path d="M227.48,402.12H194V432H177.79V359H194v30.1h33.5V359h16.09v73H227.48Z"/><path d="M251.29,359h16.24v73H251.18Z"/><path d="M349.76,384.46V373.6a58.25,58.25,0,0,0-16.3-2.29,53.86,53.86,0,0,0-16.19,2.29V418a52.9,52.9,0,0,0,16.19,2.33,57.2,57.2,0,0,0,16.3-2.33V404.05H366.1v22.18q-14.12,8.17-32.64,8.17a65.11,65.11,0,0,1-32.53-8.17V365.47q14.1-8.33,32.53-8.32t32.64,8.32v19Z"/><path d="M423.41,402.12h-33.5V432h-16.2V359h16.2v30.1h33.5V359H439.5v73H423.41Z"/><path d="M447.21,359h16.25v73H447.11Z"/><path d="M194.44,459.47v-2.73a21.61,21.61,0,0,0-5.75-.8,19.16,19.16,0,0,0-5.66.8V461l17.08,2.56v11.56A22.47,22.47,0,0,1,188.69,478a22.06,22.06,0,0,1-11.38-2.89v-6.27H183v3.37a19,19,0,0,0,5.66.86,19.73,19.73,0,0,0,5.75-.86v-4.77l-17.13-2.56v-11a23.86,23.86,0,0,1,22.8,0v5.62Z"/><path d="M216.62,477.16H211V456h-8.18l0-4.35h22V456h-8.19Z"/><path d="M250.31,453.85v21.3A22.36,22.36,0,0,1,238.89,478a22.84,22.84,0,0,1-11.42-2.86v-21.3A22.52,22.52,0,0,1,238.89,451,22.23,22.23,0,0,1,250.31,453.85Zm-17.12,2.89v15.52a19.05,19.05,0,0,0,5.7.82,20.7,20.7,0,0,0,5.72-.82V456.74a21.06,21.06,0,0,0-5.72-.8A19.39,19.39,0,0,0,233.19,456.74Z"/><path d="M264.35,468.57H258.6v8.61H253V451.64h20.24a14.5,14.5,0,0,1,2.35,8.31,14.92,14.92,0,0,1-2.35,8.62h-2.8l5.39,8.61h-6Zm4.85-12.91H258.6v8.82h10.53a13.55,13.55,0,0,0,.89-4.56A11.45,11.45,0,0,0,269.2,455.66Z"/><path d="M289.85,468.57H284.1v8.61h-5.63V451.64h20.24a14.5,14.5,0,0,1,2.34,8.31,14.92,14.92,0,0,1-2.34,8.62H295.9l5.4,8.61h-6Zm4.85-12.91H284.1v8.82h10.53a13.53,13.53,0,0,0,.88-4.56A11.44,11.44,0,0,0,294.7,455.66Z"/><path d="M321.1,459.47v-2.73a21.66,21.66,0,0,0-5.75-.8,19.28,19.28,0,0,0-5.67.8V461l17.08,2.56v11.56A22.4,22.4,0,0,1,315.35,478,22.06,22.06,0,0,1,304,475.12v-6.27h5.71v3.37a19.16,19.16,0,0,0,5.67.86,19.73,19.73,0,0,0,5.75-.86v-4.77L304,464.89v-11a23.84,23.84,0,0,1,22.79,0v5.62Z"/><path d="M333.65,472.58c.52,0,1.05.39,1.58,1.16a4.73,4.73,0,0,1,.79,2.69,7.8,7.8,0,0,1-1.27,4c-.84,1.39-1.66,2.09-2.46,2.09v-.76c.86-.51,1.38-1.64,1.54-3.38a2.86,2.86,0,0,0-2.29-2.86v-.74Z"/><path d="M365.42,460.54v-3.8a20.6,20.6,0,0,0-5.7-.8,19,19,0,0,0-5.66.8v15.52a18.64,18.64,0,0,0,5.66.82,20.25,20.25,0,0,0,5.7-.82v-4.87h5.72v7.76A22.34,22.34,0,0,1,359.72,478a22.74,22.74,0,0,1-11.38-2.86V453.9a23.78,23.78,0,0,1,22.8,0v6.64Z"/><path d="M387.65,477.16H382V456h-8.18l0-4.35h22V456h-8.19Z"/></svg>