<svg id="Layer_1" data-name="Layer 1" xmlns="http://www.w3.org/2000/svg" viewBox="0 0 576 576"><defs><style>.cls-1{opacity:0.3;}.cls-2,.cls-5{fill:none;stroke-width:21.03px;}.cls-2{stroke:#fec305;}.cls-2,.cls-5,.cls-6{stroke-miterlimit:10;}.cls-3{fill:#fec305;}.cls-4{fill:#969006;}.cls-5{stroke:#969006;}.cls-6{stroke:#fff;stroke-width:10.18px;}.cls-7{fill:#b8730e;}.cls-8{isolation:isolate;}</style></defs><g class="cls-1"><polygon class="cls-2" points="270.1 105.59 363.76 277.81 457.42 450.02 270.1 450.02 82.79 450.02 176.45 277.81 270.1 105.59"/></g><polygon class="cls-3" points="269.99 107.76 363.64 279.97 457.3 452.19 269.99 452.19 82.67 452.19 176.32 279.97 269.99 107.76"/><polygon class="cls-4" points="82.31 479.27 341.65 115.64 488.37 351.46 82.31 479.27"/><g class="cls-1"><polygon class="cls-5" points="83.32 478.19 342.67 114.56 489.39 350.38 83.32 478.19"/></g><path class="cls-6" d="M141.93,204.86c-1.06.26-1.93-.83-2.23-2.33a4.07,4.07,0,0,1,.56-3.22c8.4-10.92,33.08-30.36,52.77-35.05,3.68-.88,7,0,7.64,3.13a9.72,9.72,0,0,1-.56,5c-4.68,13.23-9.67,30.83-13.78,47.36,3.95-.18,7.54.29,10,1.46a1.65,1.65,0,0,1,.76,1.24c.34,1.57-.34,4.27-1.88,4.64a2.6,2.6,0,0,1-.88,0,33.9,33.9,0,0,0-9.74-.66c-2.86,12.37-5.07,23.69-6,31.51a4.36,4.36,0,0,1-3.67,3.86c-5.46,1.3-15.62-2.56-22.3-6.47-6.08-3.39-11.91-9.71-12.79-13.91-1.24-5.87,16.69-15.33,33.38-19.53A457.78,457.78,0,0,1,186,175.1a132.81,132.81,0,0,0-43.28,29.27A1.51,1.51,0,0,1,141.93,204.86Zm29.91,23.7c-8.83,2.44-18,6.49-24.59,11.63,2.24,5.3,13.65,13.81,21.21,14.21.17-7,1.48-16.12,3.41-25.84Z"/><path class="cls-6" d="M222.34,212.66c1.13,5.35-8,11.82-12.92,13.77a5.81,5.81,0,0,0-.43,3.85c.34,1.57,1.36,2.86,3.5,2.36,3.2-.77,10.38-8.64,12-13.44l2.68-7.91a6.21,6.21,0,0,1,4.5-4c2.25-.54,6.47-.67,6.91,1.44.56,2.61-2.89,12.25-3.32,17.86,12.46-7.16,24-21.6,25.16-21.87s2.34,1.66,2.54,2.59c.4,1.89.16,2.5-1.19,3.81-13.45,13.56-25.84,23.9-33.91,25.83-3,.7-4.94-.37-5.61-3.52a9.06,9.06,0,0,1-.12-2.94c-4.34,6-9.75,10.48-14.49,11.63-5.34,1.27-8.73,0-9.69-4.52C196,228.42,210,212.11,217.12,210.4,220.33,209.62,222,211.21,222.34,212.66Z"/><path class="cls-6" d="M288.66,199.16c1.11-1.26,1.34-1.32,1.58-1.37,1.19-.29,2.37,1.19,2.72,2.87a3.14,3.14,0,0,1-.63,2.91c-13.45,13.56-26.39,24.25-34.47,26.18-3.32.78-5-.69-5.59-3.52-.74-3.46,6.3-26.72,10.41-38.5,8.82-24.92,17.08-42.37,20.4-43.2,2.25-.53,4.34,2.27,4.81,4.47,1.33,6.3-11.87,39.3-19.42,53.11a138.81,138.81,0,0,0-5,18.6C273.21,215.07,281.48,207.06,288.66,199.16Z"/><path class="cls-6" d="M294.34,210.69a22.39,22.39,0,0,0,.51,5.94c.2.94.76,4.77-7.31,6.69-3,.71-4.48-1.13-4.81-2.71-1.37-6.49,6-28.29,10.09-40.07,8.81-24.92,17.07-42.37,20.39-43.2,2.26-.54,4.35,2.27,4.81,4.47,1.34,6.29-11.87,39.29-19.41,53.09C297.11,198.91,294.51,208.55,294.34,210.69Z"/><path class="cls-7" d="M141.76,204.14c-1.07.26-1.93-.83-2.25-2.33a4.18,4.18,0,0,1,.57-3.21c8.41-10.93,33.08-30.36,52.78-35.07,3.68-.87,7,0,7.64,3.14a9.76,9.76,0,0,1-.56,5c-4.68,13.23-9.68,30.84-13.79,47.35,4-.16,7.55.3,10,1.46a1.63,1.63,0,0,1,.76,1.26c.34,1.57-.34,4.26-1.88,4.63a2.54,2.54,0,0,1-.87,0,33.2,33.2,0,0,0-9.74-.64c-2.87,12.35-5.08,23.67-6,31.51a4.36,4.36,0,0,1-3.67,3.84c-5.46,1.31-15.62-2.55-22.31-6.46-6.08-3.4-11.9-9.72-12.79-13.91-1.21-5.9,16.72-15.37,33.4-19.52a461.32,461.32,0,0,1,12.79-46.78,133,133,0,0,0-43.28,29.28A1.49,1.49,0,0,1,141.76,204.14Zm29.9,23.7c-8.83,2.44-17.94,6.48-24.59,11.59,2.25,5.31,13.65,13.83,21.21,14.22a166.37,166.37,0,0,1,3.44-25.82Z"/><path class="cls-7" d="M222.2,211.94c1.13,5.35-8,11.82-12.92,13.77a5.75,5.75,0,0,0-.43,3.85c.33,1.57,1.35,2.87,3.49,2.36,3.21-.76,10.38-8.65,12-13.43l2.69-7.92a6.19,6.19,0,0,1,4.5-4c2.25-.54,6.46-.66,6.91,1.43.55,2.63-2.89,12.26-3.33,17.86,12.46-7.15,24-21.6,25.16-21.85s2.34,1.66,2.54,2.58c.4,1.89.16,2.49-1.19,3.81-13.46,13.56-25.85,23.9-33.92,25.82-3,.71-4.93-.36-5.6-3.5a8.86,8.86,0,0,1-.12-3c-4.35,6-9.76,10.47-14.5,11.63-5.33,1.27-8.72,0-9.68-4.52-1.93-9.14,12.06-25.46,19.18-27.16C220.18,208.9,221.88,210.48,222.2,211.94Z"/><path class="cls-7" d="M288.51,198.44c1.11-1.25,1.34-1.31,1.58-1.37,1.18-.28,2.37,1.2,2.73,2.88a3.18,3.18,0,0,1-.64,2.9c-13.45,13.56-26.4,24.25-34.46,26.17-3.33.83-5-.67-5.6-3.5-.73-3.47,6.3-26.73,10.41-38.51,8.82-24.92,17.08-42.37,20.4-43.2,2.25-.54,4.34,2.27,4.81,4.47,1.33,6.29-11.87,39.29-19.42,53.09a139.36,139.36,0,0,0-5,18.61C273.06,214.35,281.33,206.32,288.51,198.44Z"/><path class="cls-7" d="M294.19,210a22.28,22.28,0,0,0,.5,5.93c.21.95.77,4.78-7.3,6.71-3,.7-4.48-1.14-4.81-2.71-1.38-6.5,6-28.3,10.09-40.08,8.81-24.92,17.07-42.36,20.39-43.2,2.25-.54,4.35,2.27,4.81,4.47,1.33,6.29-11.87,39.29-19.42,53.1C296.93,198.19,294.36,207.84,294.19,210Z"/><path class="cls-6" d="M265.79,288.25c-2.37.56-5.91-.24-6.17-1.51-.07-.31,0-.54.41-1,7.48-7.51,16.55-25.42,15-33-.58-2.72-2.59-4-6.39-3.1-23.5,5.6-41.46,42.6-37.49,61.37,1.72,8.08,7.44,12.76,18.6,10.1,14.83-3.54,32.07-21.53,33.61-23.11a3.13,3.13,0,0,1,1.77-1.08,1.91,1.91,0,0,1,2.3,1.42,2,2,0,0,1,0,.24,3,3,0,0,1-.41,2.2c-1.81,3.18-25.33,25.75-41.82,29.69-15.79,3.76-26-1.51-28.33-12.52-5.92-28,28-69.69,52.44-75.52,10-2.38,14.85.65,16.05,6.31,2,9.54-6.22,26.59-17.87,38.63A3.44,3.44,0,0,1,265.79,288.25Z"/><path class="cls-6" d="M274.16,308.41c-.1-.52,1-1.78,3.33-4.21l3.38-3.45-.89-.67a6,6,0,0,1-2.71-4c-.83-3.88,2-8.63,7.14-9.85,4.27-1,6.9.22,7.47,3.05a8.14,8.14,0,0,1,0,2.87c2.27.12,4.07.36,5.86.59,2.31.32,3.27,1.31,3.56,2.67.78,3.68-3.64,9.91-3,13.05,11.34-7.11,21-17.8,25.18-22.43a1.43,1.43,0,0,1,.76-.52c1.06-.25,2,1.29,2.37,3a3.9,3.9,0,0,1-.38,2.95c-6.64,7.42-24.92,24.22-32.25,26-3,.71-5-.36-5.61-3.5-.58-2.73,2.6-8.31,3.32-11.37-2-.18-3.66-.23-5.2-.41-3.32,3.21-7.17,5.56-9.66,6.15C275.11,308.72,274.26,308.81,274.16,308.41Z"/><path class="cls-6" d="M336.45,281.74c1.14,5.35-8,11.82-12.91,13.77a5.67,5.67,0,0,0-.43,3.84c.33,1.58,1.35,2.88,3.48,2.36,3.21-.76,10.39-8.64,12-13.43l2.69-7.91a6.23,6.23,0,0,1,4.5-4c2.26-.54,6.47-.67,6.91,1.43.56,2.62-2.89,12.26-3.32,17.86,12.46-7.15,24-21.6,25.16-21.85s2.34,1.66,2.54,2.58c.4,1.89.15,2.49-1.19,3.81C362.42,293.72,350,304.06,342,306c-3,.71-4.94-.36-5.61-3.51a9.08,9.08,0,0,1-.13-2.94c-4.33,6-9.74,10.48-14.49,11.63-5.34,1.28-8.73,0-9.67-4.52-1.94-9.14,12.05-25.45,19.17-27.15C334.44,278.7,336.16,280.27,336.45,281.74Z"/><path class="cls-6" d="M416.33,273.52a7.49,7.49,0,0,1-3.39-4.81,8.32,8.32,0,0,1,6.29-9.7c3-.7,6.08.43,6.81,3.89a11.85,11.85,0,0,1-.63,5.87,25.17,25.17,0,0,0,3-.49c6.65-1.58,12.14-6.86,15.26-10.36a1.25,1.25,0,0,1,.64-.49c.83-.19,1.51,1.19,1.81,2.66s.23,2.81-.28,3.33a36.74,36.74,0,0,1-17.45,10.8,31.54,31.54,0,0,1-5.81.83c-5.38,9.33-13.93,15.44-21,17.14-3.92.93-7.3-.9-8.2-5.21a13.13,13.13,0,0,1-.13-4.15c-3.06,5.58-8.16,13.29-16.46,15.27-2.74.66-7.37-1.21-7.92-3.84-.73-3.45-1-11.11,3.76-22.81.64-1.66,2.55-2.7,4.56-3.18,3.45-.83,7.48-.13,7.81,1.55a2.76,2.76,0,0,1-.16,1.58c-1,3.09-3.72,13.66-2.94,17.89,3.68-2.65,9.36-8.19,14.33-23.58.54-1.56,2.44-2.57,4.46-3,3.44-.83,7.48-.12,7.82,1.66a1.76,1.76,0,0,1-.13,1.13c-1,3.44-4.15,15.1-3.32,19.18C409.72,282.88,414.12,278.3,416.33,273.52Z"/><path class="cls-6" d="M448.78,270.15a22.39,22.39,0,0,0,.5,5.94c.21.93.77,4.77-7.3,6.69-3,.71-4.48-1.13-4.81-2.71-1.38-6.49,6-28.29,10.08-40.07,8.82-24.93,17.08-42.37,20.4-43.2,2.25-.54,4.35,2.26,4.81,4.47,1.33,6.29-11.87,39.28-19.42,53.09C451.52,258.36,449,268,448.78,270.15Z"/><path class="cls-7" d="M264.77,289.49c-2.37.57-5.91-.25-6.17-1.5-.07-.32,0-.56.41-1,7.48-7.52,16.55-25.43,15-33-.58-2.73-2.6-4-6.39-3.11-23.5,5.61-41.46,42.6-37.49,61.38,1.71,8.06,7.44,12.76,18.6,10.1,14.82-3.54,32.08-21.53,33.61-23.11a3,3,0,0,1,1.77-1.08,1.91,1.91,0,0,1,2.3,1.41,2.17,2.17,0,0,1,0,.25,3,3,0,0,1-.41,2.18c-1.82,3.19-25.34,25.76-41.83,29.7-15.78,3.77-26-1.51-28.32-12.52-5.92-28,28-69.68,52.44-75.51,10-2.38,14.85.64,16,6.3,2,9.55-6.21,26.59-17.87,38.63A3.22,3.22,0,0,1,264.77,289.49Z"/><path class="cls-7" d="M273.14,309.63c-.11-.52,1-1.78,3.33-4.21l3.38-3.45-.89-.67a6,6,0,0,1-2.71-4c-.83-3.88,2-8.63,7.14-9.85,4.27-1,6.9.22,7.47,3a8.14,8.14,0,0,1,0,2.87c2.27.12,4.07.36,5.86.59,2.31.32,3.26,1.31,3.56,2.67.78,3.68-3.64,9.9-3,13.05,11.33-7.11,21-17.8,25.17-22.43a1.52,1.52,0,0,1,.77-.52c1.06-.25,2,1.28,2.37,3a3.88,3.88,0,0,1-.38,3c-6.64,7.42-24.92,24.22-32.26,26-3,.7-4.94-.37-5.6-3.51-.58-2.73,2.6-8.31,3.32-11.37-2-.18-3.67-.23-5.2-.41-3.33,3.21-7.17,5.57-9.66,6.16C274.09,310,273.23,310.07,273.14,309.63Z"/><path class="cls-7" d="M335.43,283c1.13,5.35-8,11.81-12.91,13.76a5.76,5.76,0,0,0-.44,3.85c.34,1.57,1.36,2.88,3.49,2.36,3.21-.76,10.39-8.64,12-13.43l2.68-7.91a6.24,6.24,0,0,1,4.51-4.05c2.26-.54,6.47-.66,6.91,1.44.56,2.62-2.89,12.25-3.32,17.86,12.46-7.15,24-21.6,25.16-21.86s2.34,1.66,2.54,2.59c.4,1.88.15,2.49-1.19,3.8C361.4,295,349,305.3,340.93,307.23c-3,.71-4.93-.36-5.6-3.51a9.08,9.08,0,0,1-.13-2.94c-4.34,6-9.74,10.47-14.49,11.63-5.34,1.27-8.72,0-9.68-4.52-1.93-9.14,12.06-25.46,19.18-27.15C333.41,280,335.12,281.52,335.43,283Z"/><path class="cls-7" d="M415.31,274.72a7.49,7.49,0,0,1-3.39-4.81,8.31,8.31,0,0,1,6.31-9.68c3-.71,6.07.42,6.8,3.88a11.66,11.66,0,0,1-.62,5.88,27.78,27.78,0,0,0,3-.5c6.65-1.59,12.13-6.86,15.26-10.36a1.09,1.09,0,0,1,.65-.48c.83-.2,1.49,1.19,1.8,2.65s.22,2.81-.28,3.37a36.71,36.71,0,0,1-17.45,10.8,30.93,30.93,0,0,1-5.82.83c-5.37,9.33-13.93,15.45-21.05,17.14-3.91.93-7.29-.91-8.2-5.2a13.44,13.44,0,0,1-.13-4.15c-3.06,5.57-8.16,13.29-16.46,15.26-2.73.65-7.36-1.21-7.91-3.83-.74-3.46-1-11.11,3.76-22.82.64-1.67,2.55-2.7,4.57-3.19,3.44-.83,7.47-.12,7.8,1.56a2.84,2.84,0,0,1-.16,1.58c-1,3.09-3.72,13.66-2.95,17.88,3.68-2.63,9.36-8.17,14.33-23.57.54-1.56,2.45-2.56,4.46-3,3.44-.83,7.48-.12,7.84,1.67a1.91,1.91,0,0,1-.14,1.13c-1,3.44-4.16,15.09-3.33,19.18C408.7,284.12,413.09,279.55,415.31,274.72Z"/><path class="cls-7" d="M447.75,271.39a22.36,22.36,0,0,0,.52,5.94c.2.94.75,4.77-7.31,6.7-3,.7-4.48-1.14-4.81-2.71-1.38-6.5,6-28.3,10.08-40.08,8.82-24.92,17.08-42.37,20.4-43.2,2.26-.54,4.34,2.27,4.81,4.47,1.33,6.29-11.87,39.29-19.42,53.1C450.49,259.61,447.93,269.26,447.75,271.39Z"/><g class="cls-8"><g class="cls-8"><path d="M127.06,145c.93-.19,2.19.06,2.34.85a.75.75,0,0,1-.06.48c-1.73,5.49-3.94,15.77-4.61,19.21-.07.41-.25.6-.47.64-.71.15-2-1.34-2.22-2.66a1.84,1.84,0,0,1,0-.7c.37-2.6,2.16-10.57,4-17.1C126.09,145.34,126.53,145.09,127.06,145Z"/><path d="M143,142.82c1.58.19,2.48,1.44,2.81,3.25,1,5.56-3.23,16.4-10.39,17.86-2.64.54-4.74-1-5.33-4.21-1.33-7.29,5.17-16.37,11.79-17.72.72-.15,1.09.09,1.16.46A.64.64,0,0,1,143,142.82Zm-3.42,2c-4.3,2.51-6.6,9.72-5.88,13.67.34,1.84,1.32,3,3.07,2.6,4.28-.87,6.73-8.81,6-12.72-.27-1.43-1-2.33-2.16-2.09-.11,0-.17.07-.49.14-.47.09-.76-.08-.82-.42A2.24,2.24,0,0,1,139.55,144.77Z"/><path d="M148,150.33c.42-1.53.91-3.07,1.35-4.49a1.58,1.58,0,0,1,1.23-1c.64-.13,1.94-.08,2.06.55a4.45,4.45,0,0,1-.21,1.29l-.8,2.89,2.46-.5a.37.37,0,0,1,.5.33c.11.6-.41,1.8-.94,1.9l-2.57.53a27.06,27.06,0,0,0-.94,5.53,32.26,32.26,0,0,0,7.35-6.88.5.5,0,0,1,.26-.17c.32-.07.59.39.7,1a1.65,1.65,0,0,1-.21,1.29c-4,4.48-7.88,7.8-10.3,8.3-.9.18-1.49-.24-1.7-1.37s.35-3.77,1.14-6.89l-2.57.52c-.35.07-.52-.05-.57-.31-.11-.6.52-1.82,1-1.92Z"/><path d="M173.67,147c.32-.06.71.64.77,1a1.19,1.19,0,0,1-.35,1.31c-4,4.49-7.72,7.85-10.15,8.35-.89.18-1.48-.24-1.69-1.37s.4-3.24.57-4.32c-2.32,2.42-5,7.1-6,7.3a1.5,1.5,0,0,1-1.6-1c-.22-1.23,2-9.84,3.25-13.9,2.6-8.6,5-14.59,6-14.8.67-.14,1.31.9,1.45,1.69.42,2.26-3.31,13.18-5.8,18.33-.42,1.33-.87,3.53-1.23,4.77,2.13-3.32,4.92-6.81,6.28-7.09a1.62,1.62,0,0,1,1.73,1.21c.31,1.65-.67,3.76-.79,5.73C169.88,151.86,173.31,147,173.67,147Z"/></g><g class="cls-8"><path d="M176.29,155.61c-.5.1-1.26-.44-1.47-1.57-.82-4.47,10.43-29.17,14.91-30.08a2.48,2.48,0,0,1,3.13,2.13,103.3,103.3,0,0,1,.82,15.72,8.31,8.31,0,0,1,3.52.26c.23.07.37.39.44.77.12.67,0,1.48-.52,1.58a5.67,5.67,0,0,1-1-.1,13.09,13.09,0,0,0-2.47,0,63.85,63.85,0,0,1-.46,7.18c-.09.68-.69,1.08-1.54,1.25a13.13,13.13,0,0,1-5.93-.7c-2.56-.84-5.7-2.07-6-3.57-.39-2.1,5.17-4.87,10.33-6.12a131,131,0,0,0-.62-14.48c-5.85,8.63-10.49,17.57-12.74,27.26A.52.52,0,0,1,176.29,155.61ZM190,144.9a17.71,17.71,0,0,0-7.63,3.35c.88.95,5.1,2.19,7.26,2.49C189.84,149.07,190,147.06,190,144.9Z"/></g><g class="cls-8"><path d="M217.85,137.93c.32-.07.7.63.77,1a1.2,1.2,0,0,1-.35,1.32c-4,4.48-7.73,7.85-10.15,8.34-.89.19-1.49-.24-1.69-1.36s.4-3.24.57-4.33c-2.33,2.42-5,7.1-6,7.31-.61.12-2-.3-2.1-.94-.22-1.24.6-4.8,2-8.82a1.67,1.67,0,0,1,1.37-1c1-.21,2.24.12,2.36.76,0,.08,0,.15-.13.73-.21.86-1,3.09-1.38,4.33,2.12-3.31,4.92-6.81,6.27-7.08a1.63,1.63,0,0,1,1.74,1.2c.3,1.65-.68,3.76-.79,5.73C214.05,142.83,217.49,138,217.85,137.93Z"/><path d="M234.24,134.58c.32-.07.71.63.77,1a1.2,1.2,0,0,1-.35,1.32c-4,4.48-7.73,7.85-10.15,8.35-.89.18-1.48-.25-1.69-1.37s.4-3.24.57-4.33c-2.33,2.43-5,7.11-6,7.31-.61.12-2-.3-2.1-.94-.22-1.24.6-4.79,2-8.82a1.64,1.64,0,0,1,1.36-1c1-.21,2.24.13,2.36.76,0,.08,0,.15-.13.73-.21.86-1,3.09-1.38,4.34,2.13-3.32,4.92-6.82,6.27-7.09a1.63,1.63,0,0,1,1.74,1.2c.3,1.65-.68,3.76-.79,5.74C230.44,139.48,233.88,134.65,234.24,134.58Z"/><path d="M250.63,131.23c.32-.06.71.64.77,1a1.2,1.2,0,0,1-.35,1.32c-4,4.48-7.73,7.85-10.15,8.35a1,1,0,0,1-1.27-.87,7.4,7.4,0,0,1,.42-3c-2.05,3.34-4.07,5-5.82,5.36s-2.18-.42-2.39-1.54.43-4.1,1.84-8.13a1.67,1.67,0,0,1,1.36-1c1-.21,2.24.13,2.35.73a.94.94,0,0,1,0,.52c-.28,1.1-1.24,4.53-1.72,6.5,2.54-1.65,4.77-5.61,5.46-8.28a1.43,1.43,0,0,1,1.18-1c1.07-.22,2.14-.21,2.26.43a1.1,1.1,0,0,1,0,.36c-.46,1.92-1.07,4.23-1.4,6.44C246.84,136.14,250.27,131.3,250.63,131.23Z"/><path d="M254.34,130.08c.35,1.92-2.37,4-3.86,4.57a2.34,2.34,0,0,0-.12,1.35c.11.56.42,1,1.06.91,1-.19,3.1-2.81,3.57-4.47l.8-2.73a1.8,1.8,0,0,1,1.34-1.33c.68-.14,1.95-.08,2.08.67.18.94-.84,4.26-1,6.23,3.73-2.24,7.17-7.07,7.52-7.14s.71.63.77,1a1.18,1.18,0,0,1-.35,1.32c-4,4.48-7.72,7.85-10.14,8.34-.89.18-1.49-.24-1.7-1.37a3.85,3.85,0,0,1,0-1c-1.29,2-2.91,3.48-4.34,3.77-1.6.33-2.62-.21-2.92-1.82-.6-3.27,3.58-8.72,5.71-9.15A1.23,1.23,0,0,1,254.34,130.08Z"/><path d="M274.26,126.83c.33-.42.4-.43.47-.45.36-.07.72.48.83,1.08a1.19,1.19,0,0,1-.19,1c-4,4.49-7.89,8-10.31,8.46-1,.2-1.51-.35-1.69-1.37-.23-1.24,1.84-9.3,3.05-13.36,2.6-8.6,5.05-14.59,6-14.79.68-.14,1.32.9,1.46,1.69.41,2.25-3.49,13.6-5.73,18.31a52.22,52.22,0,0,0-1.47,6.46A31,31,0,0,0,274.26,126.83Z"/></g></g></svg>