<svg xmlns="http://www.w3.org/2000/svg" viewBox="0 0 576 576"><defs><style>.a,.b,.i,.j,.k{stroke:#000;stroke-miterlimit:10;}.a,.b,.i,.k{stroke-width:4.36px;}.b{fill:#b9995f;}.c,.j,.k{fill:#d1d3d4;}.d{fill:#df2426;}.e{fill:#ef6843;}.f{fill:#e7c31a;}.g{fill:#ea4b9b;}.h{fill:#1a92bf;}.i{fill:none;}.j{stroke-width:5.23px;}</style></defs><title>rockNRoll</title><path class="a" d="M108.42,245.33C94.3,256.42,56.56,269.1,44.31,277.74c-4.24,3-32.81,20.24-33.13,38.53C10.82,336.8,29.91,364.89,53,387.94s53.9,44.6,66.26,51.14,42.5,6.48,55.46-16.57,18.73-42.85,23.41-51.14c3.27-5.78,11.17-23.76,24.85-28.09s51.5-29.89,43.58-56.18c-6.2-20.57-32.77.72-42.5,0-5-.37-16.92-7.92-9.72-13.68S331.59,143.57,341.79,133.68c11.88-11.52,20.53-23.77,25.57-24.49s10.44,15.13,16.92,11.53,11.53-36,22.33-37.46,41.06-3.6,20.89-31c-4.2-5.69-23-12.73-27.37-7.2-1.31,1.65,4.32,11.52-2.88,7.92s-5.47,6.14-7.92,7.21c-2.74,1.18-8.77-7.22-10.81-5-1.5,1.6,4.32,7.93,1.44,8.65s-12.24-6.49-12.24-1.44-2.88,5-8.65,3.6-1.44-.72-2.88,5-3.6,2.16-7.2,0-8.64,12.24-10.08,15.13-9.37,25.21-33.86,46.81-79.55,66.6-85.71,72.75c-8.28,8.28-32.41,34.93-32.41,34.93s-12.25-9.72-3.6-31.33,33.89-33,3.64-38.06-52.62,28-55.5,37.34S118.5,237.4,108.42,245.33Z"/><path class="b" d="M108.42,238.84c-14.12,11.1-51.86,23.77-64.11,32.42-4.24,3-32.81,20.24-33.13,38.53-.36,20.53,18.73,48.62,41.78,71.67s53.9,44.59,66.26,51.14,42.5,6.48,55.46-16.57,18.73-42.85,23.41-51.14c3.27-5.78,11.17-23.77,24.85-28.09s51.5-29.89,43.58-56.18c-6.2-20.57-32.77.72-42.5,0-5-.37-12.76-10.33-5.55-16.1S335,139.72,345.23,129.83c11.89-11.52,18-22.33,23-23.05s9.52,11.06,16,7.46,11.53-36,22.33-37.46,41.06-3.6,20.89-31c-4.2-5.7-23-12.73-27.37-7.2-1.31,1.65,4.32,11.52-2.88,7.92s-5.47,6.14-7.92,7.2c-2.74,1.19-8.77-7.21-10.81-5-1.5,1.6,4.32,7.92,1.44,8.64s-12.24-6.48-12.24-1.44-2.88,5-8.65,3.61-1.44-.72-2.88,5-3.6,2.16-7.2,0-8.64,12.24-10.08,15.12-9.37,25.21-33.86,46.82-79.55,66.59-85.71,72.75c-8.28,8.28-32.41,34.93-32.41,34.93s-12.25-9.72-3.6-31.33,33.46-29.37,3.21-34.42-52.19,24.34-55.07,33.7S118.5,230.92,108.42,238.84Z"/><path class="c" d="M266.21,285.76s.3,1.5.33,2c1.75,22.56-34,47.07-45.92,50.84-13.83,4.37-17.71,17.33-21,23.16-4.73,8.37-10.55,28.38-23.65,51.66S130.09,441.5,117.73,435,76.3,401.77,53,378.49c-21.73-21.73-40.36-48-39.95-68.39.35-17.77,27.12-33.48,31.22-36.37C56.66,265,94.77,252.2,109,241c10.18-8,20.36-27.65,23.27-37.1s21.83-38.56,52.38-33.47c8.09,1.36,15.11,3,14.62,5.69-1.15,6.32-10.38,11.36-14.62,21.95-2.9,7.27-4.87,13.95-4.85,18.66,0,14,8.11,19,8.11,19s3.53-3.71,7-7.53l25,31.93c-.47,1.35-4,3.3-4.76,4.83a9.25,9.25,0,0,0-1.47,2.72c-1.8,6.49,7.05,14.8,12.14,14.92,9.53.22,32.66-21.7,38.93-.93A34,34,0,0,1,266.21,285.76Z"/><path class="b" d="M335.69,87.34s23.23,0,27,21.6"/><path d="M343.35,88.84c-13.19,31.17-40.86,50.76-66.57,71C249,181.8,222,205.91,202,235.37c-1,1.4,1.31,2.7,2.25,1.32,20.49-30.17,48.41-54.63,76.93-77,25.12-19.68,51.58-39.24,64.4-69.55.65-1.53-1.6-2.87-2.25-1.32Z"/><path d="M349.71,93c-12,31.51-41.27,51-66.87,70.79-28.36,21.92-54.79,46.94-73.85,77.54-.89,1.44,1.36,2.75,2.25,1.32,20-32.17,48.23-57.77,78.12-80.6,24.72-18.87,51.39-38.23,62.87-68.36.6-1.57-1.92-2.25-2.52-.69Z"/><path d="M356.44,96.64c-9.52,25-30.69,42.15-51.43,57.75-22.32,16.78-43.95,33.87-62.67,54.74a274.21,274.21,0,0,0-28.83,38.29c-.89,1.43,1.37,2.75,2.26,1.32,15.88-25.56,36.23-48.07,59.06-67.58C295,163.91,318.18,150,336.78,131c9.5-9.74,17.31-20.87,22.18-33.63.6-1.58-1.93-2.26-2.52-.7Z"/><path class="d" d="M48.31,316.75c3.33,10.49,4.92,14.15,6.34,14.46a12.78,12.78,0,0,0,2.5-.27,1.76,1.76,0,0,1,2,.58c2.09,3.09,2.84,5.8,1.56,9.15-1,2.61-5.06,10.57-10.95,14.14-4.83,2.93-7.8-.84-9.87-2.84s-3.8-5.26-5.1-9.76a4.28,4.28,0,0,1,.18-2.93,8.66,8.66,0,0,0,.77-2.44c.05-1.71-.78-6.87-2.7-14.17-1.71-6.55-3.63-12.31-5.88-15.84-2.51-3.94-5.16-4.78-6.54-4.53-.46.14-1.13.4-1.83.6a2.59,2.59,0,0,1-1.62,0c-.81-.3-.78-1,.39-3.15a33.86,33.86,0,0,1,5.62-7.17c1.07-1.1,2.12-2.14,3.1-3.09,4.6-4.46,8.08-7.47,9.44-8.66,4.92-4.32,10-7.46,14-8.51,5-1.31,6.23,1.39,6.71,5.74A50.43,50.43,0,0,1,54.3,297.6c.54,1.59,1.35,2,2.32,1.23a11.92,11.92,0,0,0,2.16-2.2,4.92,4.92,0,0,1,3.72-.23,15.48,15.48,0,0,1,4.09,3.05c2.63,2.49,4.75,4.42,9.3,5.88a20.29,20.29,0,0,0,4.56.41,12.55,12.55,0,0,1,4.88.73c.67.36.73,1.1.17,2.22a21.25,21.25,0,0,1-1.08,2.45c-.64.83-3,2.36-4.75,4.29-1.47,1.59-2.21,2.68-3,3.7-3.53,4.43-8.17,8.77-12.2,9-2,.12-5.25-1-8.23-6.47-2.49-4.56-4-8.22-5.42-9.58-.48-.4-1.13-.36-1.79.26C47.92,313.42,47.69,314.83,48.31,316.75Zm-10.94-27.9a4.47,4.47,0,0,0-1.57,2,1.52,1.52,0,0,0,.29,1.85,33.81,33.81,0,0,1,5,7.09c.78,1.39,1.57,1.95,2.4,1.52,1.55-.82,2.42-2.42,2.67-4.74a11.3,11.3,0,0,0-.83-5.84C43.45,286.67,40.68,286.42,37.37,288.85Z"/><path class="d" d="M69.5,289.23a27.71,27.71,0,0,1-3.35-17.57c.89-7.14,4.12-11.93,9.94-13.45s10.63,1.8,16.46,7.27a87,87,0,0,0,16.21,12.43c5.24,3,9.76,5.28,13.35,7.63,3.91,2.55,5,4.2-1.12,6.77-9.07,3.8-20.33,6.43-30.16,6.39C80.65,298.66,72.75,294.87,69.5,289.23Zm23.55-11.17c-2.8-2.1-5.67-4.45-8.43-7-3.88-3.59-6-5.42-7.83-5.1-1.31.22-2,1.16-2,2.69a7,7,0,0,0,1.31,3.81,19.93,19.93,0,0,0,6.87,6c4,2.21,7.67,2.84,10.12,2.43,1-.17,1.4-.51,1.36-1.06S94,278.74,93.05,278.06Z"/><path class="e" d="M139.16,272.9a5.2,5.2,0,0,0,2.75-3.59,21.06,21.06,0,0,1,1.27-4c.81-1.35,1.75-2.12,2.82-2.18s2,.7,2.81,2.26a29.47,29.47,0,0,1,3.28,15.18c-.33,5-1.82,8.25-5,10.21-4,2.43-11.44,0-19.3-3.87a152.7,152.7,0,0,1-19.48-11.8c-7-4.86-12.94-9-17.6-13.43-5.13-4.91-5.76-8.63,7.09-12.25a134.11,134.11,0,0,1,22.93-4c8.36-.74,12.54-.08,15.1,2.74a8.17,8.17,0,0,1,2,4.23c.3,1.83,0,3.39-1.4,4.47-1.2.92-3.55,1.2-8,.82s-8.31-.26-10.54.35c-3.41.93-4.77,2.33-4.1,4.29s2.54,3.75,5.32,5.5a42.93,42.93,0,0,0,10.72,4.39C134.23,273.48,137.22,273.78,139.16,272.9Z"/><path class="e" d="M132.67,231.54a12.32,12.32,0,0,1-2.69,1.31l-.35.06a5.13,5.13,0,0,1-3.79-.67c-2.39-1.38-1.43-4.1,1.57-8.52,3.81-5.62,4.93-11.49,7.07-17,.86-2.24,1.5-2.9,2-1.8,1.53,3.22,2.62,5.59,5.15,11.5a8.84,8.84,0,0,1,.74,1.11,10.58,10.58,0,0,0,2.77,2.93c1.4,1.11,2.48,1.47,3,.84s.82-2.44.69-5.29c-.11-2.46-.19-5-.81-6.19-.27-.53-.89-1.25-1.28-2a8.71,8.71,0,0,1-.52-7.55,9.7,9.7,0,0,1,3.49-4.48,4.76,4.76,0,0,1,5.72.08c2.73,2,4.38,5.41,5.16,7.76.63,1.94.22,2.64-1,4.05a10.9,10.9,0,0,0-2.27,6.18c1,2.26,4,5.55,8.79,10.67,4.39,4.74,8.78,9.45,13.41,12.32,5.38,3.33,9.5,3.45,11.46,3.88,3.16.69,3.38,1.7.82,3.72a59.15,59.15,0,0,0-7.63,5.58c-2.93,2.56-5.86,4-9.44,2.5-2-.9-5.28-3.55-10.4-8.78-4.78-4.88-7.9-8.52-9.5-9.72h-.39a10.61,10.61,0,0,0,.82,2.95c.56,1.2,1.14,2.39,1.76,3.57s1,2,1.26,2.5a20.65,20.65,0,0,0,2.44,5c1.46,1.93,2.53,3.4,3.26,4.45,3.91,5.6,5.25,9.93,4.68,13.85-.17,1-1.25,3.2-3.5,6.31a13.85,13.85,0,0,1-2.75,3.17,5.73,5.73,0,0,1-4.2,1.86c-1.21-.05-2.16-.93-3-2.78a35.11,35.11,0,0,1-1.46-4.66c-.45-1.75-1-3.58-1.49-5.46a107.06,107.06,0,0,0-6.55-17A117.32,117.32,0,0,0,138.27,235C135.58,231.17,134.09,230.62,132.67,231.54Z"/><path class="f" d="M97.57,337.49a40.5,40.5,0,0,0-2.94,7c-1.17,3.25-2.22,4.67-2.12,5.23a4.38,4.38,0,0,0,.67,1.67,1.91,1.91,0,0,1,.36,1.93,8.1,8.1,0,0,1-1.42,1.94c-1.46,1.48-4.09,2.21-7.24,2.45-2.53.19-5.41-.11-9.57.63-2,.37-6.45,1.62-13.28,3.45a18.13,18.13,0,0,1-7.5.66c-2.08-.33-3.24-1.38-3.6-2.45a3.93,3.93,0,0,1,.25-3l.31-.62c.12-.22.25-.48.41-.77a4.87,4.87,0,0,1,2.42-1.81c1-.45,2.2-.94,3.42-1.48,6-5.63,12.43-11.48,17.69-16.94A160.41,160.41,0,0,0,86.14,323.2c4.13-5.32,5.25-8.64,4.47-10.28a6.77,6.77,0,0,1-1.13-1.45,3.8,3.8,0,0,1,.65-2.77,8.09,8.09,0,0,1,5.55-4,20.82,20.82,0,0,1,7.41-.39c4.81.51,7.79,1.64,8.92,2.92,1.5,1.67,2.12,4.44,1.58,10.13-.58,6.1-.1,10.25,1.6,11.89.43.37,1,.34,1.8-.11a9.41,9.41,0,0,0,1.75-4.35,29,29,0,0,0,.29-3l.08-.46a.83.83,0,0,1,0-.15c.09-1.4.17-2.86.25-4.37-.21-2.94-.86-4.68-1.84-5.41a2.53,2.53,0,0,1-1-.29c-.23-.19-.2-1.15,0-2.27a23,23,0,0,1,3-6.59,19.32,19.32,0,0,1,4.32-5.7,6,6,0,0,1,7.28-.13,5.18,5.18,0,0,1,2.46,4.1,2.94,2.94,0,0,1-.58,2.28c-.45.44-.92.87-1.41,1.28a4,4,0,0,0-1.15,1.83c-.57,1.2-1.15,2.49-1.72,3.85a23.68,23.68,0,0,0-1.09,8.05c0-.13,0,.3,0,1.26a83,83,0,0,0,2.07,16c1.44,6.75,2.38,11.66,2.49,15,.13,4.43-.12,7.15-.85,8.68-1.17,2.4-2.73,3.7-8.6,3.38-6.51-.37-14.68-3-18.64-7.16-1-1.1-3.51-4.83-3.16-11.89.24-4.44.7-6.52-1.44-6.8C98.76,336.21,98.14,336.62,97.57,337.49Z"/><path class="f" d="M167.05,299c0,4.15-3.89,10.57-8.87,17.52-5.66,7.91-10.52,12-15.52,12.34-2.49.15-3.64-.74-3.7-2.56,0-.5.89-2,2.87-4.45s3-4.57,2.9-6.34c0-.77-1.61-2.47-4.24-5.32s-3.77-5.39-3.92-7.39a7.89,7.89,0,0,1,2.19-6.51c1.89-1.9,4.39-2.49,8.61-2.86,4.75-.41,10.1-.83,14.27.12C165.13,294.32,167.06,296,167.05,299Z"/><path class="g" d="M117.7,399.49c5.82,7.16,8.3,12.09,9.8,13.49.78.63,1.57,1.28,2.36,1.94a5.94,5.94,0,0,1,1.68,2.19c1.81,4.18,2.27,6.88,1.45,8.4-.64,1.2-2.34,3.4-9.4,3.05-5.8-.29-9.72-.6-12.48-1.52a13.47,13.47,0,0,1-6.86-5.58,2.21,2.21,0,0,1,0-2.32,5.17,5.17,0,0,0,.69-2.22c-.2-1.34-2-4.88-7.52-10.91A113.71,113.71,0,0,0,79.6,390.16c-7.68-5.42-14.16-8.38-17-9a32.59,32.59,0,0,1-3.43-.51,10.72,10.72,0,0,1-4-2.26c-2.62-2.08-4.08-4.23-3.29-6.18.65-1.6,3-2.92,8.89-3.63,2.06-.27,4.15-.5,6.13-.69,9.27-.89,16.61-1.25,19.39-1.42a170.09,170.09,0,0,1,26.18.26c7.57.79,8.11,2.75,9.62,6.67,1.88,4.91,2.39,9.62.47,13.9a7.47,7.47,0,0,0,3.44,3c1.71.59,2.38.79,2.4.78a23.46,23.46,0,0,1,3.89,3.89c1,1.26,2.25,3,3.83,5.25,2.34,3.3,4.85,5.46,7.84,6.52.19.08.82.5,2.48,1.44a8.45,8.45,0,0,1,2.81,2.35,2.31,2.31,0,0,1,.18,2.15,10.06,10.06,0,0,1-.56,1.73c-.27.28-1.38.08-2.6,1.76a24.18,24.18,0,0,1-2.6,3.14c-3.21,3.09-5.74,3-8.41-.08-1.31-1.51-3.44-5.31-7-12.09-3-5.69-5.79-9.43-8.33-10.86a1.81,1.81,0,0,0-2.1.16C116.67,397.17,116.63,398.18,117.7,399.49ZM92,375.11c-1.4.12-2.32.49-2.7,1.09s0,1.23,1.24,1.89c5.21,3.2,7.67,4.8,12,8,1.83,1.34,3.34,1.91,4.63,1.72,2.43-.36,3.44-1.43,3.34-3.15a7.26,7.26,0,0,0-2.68-4.76C103.8,376.11,98.29,374.54,92,375.11Z"/><path class="g" d="M138.78,392.1c-3.17-4.3-4.87-9.84-5.61-15.93-.82-6.75.05-11.28,3.31-19.2s6.63-16.52,11.13-20.25c4-3.29,8.19-1,12.2,7.57,4.82,10.34,7.24,22.28,9.48,33.27,1.83,8.94,5.42,21.23,1,28-2.76,4.2-11.76,2-18.2-1.68A39.92,39.92,0,0,1,138.78,392.1Zm11.88-29.24c-1.93-2.85-3.92-4.65-5.9-5.31-2.81-1-4.39.75-5.37,3.38a8.5,8.5,0,0,0-.48,5,6.48,6.48,0,0,0,1.53,3.05,13.65,13.65,0,0,0,4.83,3.26c2.52,1.05,4.68.84,6-1.86a7.52,7.52,0,0,0,.56-3.86A7.69,7.69,0,0,0,150.66,362.86Z"/><path class="h" d="M163.86,284.12c-.57-2.71,0-4.88,1.78-7.8a21.67,21.67,0,0,1,9.2-8.12c1.64-.84,2.81-.16,3.24,3.36,1.43,12.12,1.4,24.31,1.4,36.5.05,1.19.07,1.78.12,2.95.32,8.53,2.5,18.86,6.42,24.2,3.58,4.88,6.52,3.71,9.32,3.41a21.42,21.42,0,0,1,2.9-1,2.46,2.46,0,0,1,2.81.84c2.68,4.81-.84,4.48-8.7,18.35-3,5.27-5.47,12-7.92,18.26-3.37,8.58-6.44,14.65-9,15.67-.6.24-.91-.26-.88-1.53a9.59,9.59,0,0,0-.23-3.15c-1.46-2.46-4.16-6-4.2-23.2,0-15.08.24-30.21-.21-45.31l0-1.34a7.14,7.14,0,0,1-.09-.86c-.51-13.93-1.5-20.83-2.65-23.6a28.81,28.81,0,0,0-1.85-3.61A13.16,13.16,0,0,1,163.86,284.12Z"/><path class="h" d="M190.9,271c-.35-3.51.84-9.15,3.47-15.49,3.44-8.28,6.41-11.23,8.85-9.1,1,.91,1.61,3.28,1.78,7,.42,9.83.65,19.68,1.22,29.5.1.8.15,1.19.25,1.95.74,5.57.74,12.62,8.38,17.27,7,4.24,16.57,5,23,4.76a39,39,0,0,0,5.66-1c2.57-.61,3.78-.83,4.27-.72,4,.88,4.47,3-10.77,15.39a129,129,0,0,1-17.9,12.33c-7.75,4.32-12.82,5.38-15.14,3.12a3,3,0,0,1-.45-2.69,10.43,10.43,0,0,0,.2-3.23c-.84-3.59-2.12-8.36-3.33-16.09s-1.74-16.05-2.36-22.37c0-.32-.05-.48-.08-.8a.74.74,0,0,1-.12-.42c-.8-8.45-1.76-14.65-3-15.46a6.59,6.59,0,0,0-2.39-.66C191.66,274.11,191.09,273,190.9,271Z"/><line class="i" x1="195.54" y1="225.9" x2="222.79" y2="260.2"/><path class="j" d="M457.23,354c15.6-10.35,55.87-20.36,69.31-28.32,4.66-2.75,35.78-18.28,37.65-37.26,2.09-21.3-15.4-52.08-37.41-78s-52.28-50.84-64.57-58.67-43.61-10.29-59,12.57-23,43-28.6,51.18c-3.87,5.73-13.58,23.76-28.16,27.1s-56,26.75-50,54.73c4.72,21.89,34.11,2,44.15,3.55,5.19.81,16.92,9.65,9,15S216.87,441.05,205.44,450.48c-13.31,11-23.31,23-28.61,23.3s-9.59-16.59-16.62-13.39-15,36.46-26.33,37.05-43,.31-24.29,30.43c3.88,6.27,22.79,15.15,27.83,9.77,1.5-1.6-3.52-12.33,3.66-8s6.19-5.92,8.83-6.82c2.94-1,8.5,8.23,10.8,6.14,1.7-1.53-3.82-8.59-.77-9.1s12.18,7.76,12.6,2.52,3.42-5,9.28-3,1.44.87,3.42-5,3.92-2,7.48.6,10-12,11.74-14.87,11.84-25.41,39.09-45.81,88.22-62.54,95.13-68.42c9.3-7.91,36.59-33.58,36.59-33.58s11.91,11.13,1.13,32.85-33.84,27.41-2.83,35.17,52.87-20.6,56.64-30.08S446.09,361.39,457.23,354Z"/><path class="k" d="M459.91,358c15.59-10.35,55.86-20.36,69.31-28.32,4.65-2.75,35.78-18.28,37.64-37.26,2.09-21.3-15.39-52.08-37.41-77.95s-52.28-50.84-64.57-58.67-43.61-10.29-59,12.57-23,43-28.59,51.18c-3.88,5.73-13.59,23.76-28.17,27.1s-56,26.75-50,54.73c4.72,21.89,34.11,2,44.15,3.55,5.2.81,16.93,9.65,9,15S219.54,445.08,208.12,454.51c-13.31,11-23.32,23-28.62,23.3s-9.58-16.59-16.62-13.39-15,36.46-26.33,37.05-43,.31-24.29,30.43c3.89,6.27,22.79,15.15,27.84,9.77,1.5-1.6-3.53-12.33,3.65-8s6.19-5.92,8.84-6.82c2.94-1,8.5,8.23,10.8,6.14,1.69-1.53-3.83-8.59-.78-9.1s12.18,7.76,12.61,2.52,3.41-5,9.28-3,1.43.87,3.41-5,3.92-1.95,7.48.6,10-12,11.75-14.87,11.83-25.41,39.08-45.81,88.22-62.54,95.13-68.42c9.3-7.91,36.6-33.58,36.6-33.58s11.91,11.13,1.12,32.85-33.84,27.41-2.83,35.17,52.87-20.6,56.65-30.08S448.77,365.42,459.91,358Z"/><path d="M528.85,280.74c-2.59-11.18-3.93-15.12-5.39-15.56a13.06,13.06,0,0,0-2.62.07,1.82,1.82,0,0,1-2-.77c-1.91-3.38-2.47-6.26-.86-9.63,1.26-2.63,6.15-10.56,12.56-13.78,5.26-2.63,8,1.53,10,3.78s3.51,5.78,4.48,10.56a4.47,4.47,0,0,1-.43,3,9.25,9.25,0,0,0-1,2.47c-.2,1.78.24,7.21,1.62,14.95,1.24,7,2.75,13.1,4.79,16.95,2.28,4.31,5,5.4,6.42,5.25.48-.1,1.2-.31,2-.47a2.73,2.73,0,0,1,1.67.19c.82.38.72,1.15-.67,3.24a35,35,0,0,1-6.43,7c-1.21,1.06-2.38,2.05-3.48,3-5.15,4.25-9,7.08-10.54,8.2-5.47,4.07-11,6.92-15.27,7.67-5.31.94-6.36-2-6.49-6.52A52.58,52.58,0,0,1,521,300.13c-.43-1.69-1.23-2.23-2.31-1.47a13.26,13.26,0,0,0-2.43,2.1,5.17,5.17,0,0,1-3.88-.06,16.61,16.61,0,0,1-4-3.52c-2.53-2.81-4.57-5-9.18-6.89a21.47,21.47,0,0,0-4.7-.81,13.1,13.1,0,0,1-5-1.16c-.66-.43-.66-1.2,0-2.32a22.41,22.41,0,0,1,1.32-2.46c.74-.8,3.29-2.2,5.3-4.05,1.66-1.54,2.52-2.6,3.45-3.6,4-4.3,9.22-8.42,13.43-8.33,2.05,0,5.37,1.48,8,7.41,2.2,4.93,3.41,8.86,4.83,10.39.47.46,1.14.48,1.88-.12C529,284.22,529.33,282.78,528.85,280.74Zm9,29.9a4.7,4.7,0,0,0,1.81-1.95,1.59,1.59,0,0,0-.15-1.94A35.09,35.09,0,0,1,535,299c-.7-1.51-1.47-2.15-2.37-1.77-1.67.71-2.71,2.3-3.16,4.69a11.64,11.64,0,0,0,.37,6.14C531.38,312.4,534.23,312.89,537.87,310.64Z"/><path d="M504.53,307.56a28.88,28.88,0,0,1,2,18.53c-1.52,7.34-5.28,12.05-11.45,13.14s-10.9-2.75-16.49-8.93A91.4,91.4,0,0,0,462.8,316c-5.2-3.56-9.7-6.3-13.24-9-3.85-3-4.85-4.78,1.73-6.94a91.41,91.41,0,0,1,31.87-4.12C493.31,296.31,501.62,301.43,504.53,307.56Zm-25.4,9.63c2.74,2.42,5.52,5.1,8.17,8,3.74,4.06,5.73,6.13,7.71,6,1.38-.12,2.17-1,2.27-2.63a7.18,7.18,0,0,0-1-4.06,20.72,20.72,0,0,0-6.63-6.83c-3.94-2.64-7.74-3.59-10.31-3.37-1,.09-1.51.41-1.51,1S478.25,316.42,479.13,317.19Z"/><path d="M430.76,318.64a5.45,5.45,0,0,0-3.15,3.5,22.14,22.14,0,0,1-1.65,4c-1,1.33-2,2.06-3.11,2s-2-.9-2.73-2.58A30.66,30.66,0,0,1,418,309.56c.75-5.16,2.58-8.42,6.06-10.18,4.33-2.2,11.89.9,19.74,5.63A161.74,161.74,0,0,1,463,318.89c6.89,5.64,12.68,10.42,17.15,15.43,4.93,5.52,5.28,9.45-8.38,12.13a139.57,139.57,0,0,1-24.16,2.26c-8.74.08-13-1-15.46-4.11a8.44,8.44,0,0,1-1.75-4.56c-.17-1.93.25-3.52,1.82-4.53,1.33-.86,3.79-.95,8.38-.18s8.6,1,11,.51c3.61-.68,5.14-2,4.61-4.11s-2.32-4.11-5.06-6.15a44.44,44.44,0,0,0-10.78-5.47C435.94,318.45,432.86,317.89,430.76,318.64Z"/><path d="M434.05,362.15A12.83,12.83,0,0,1,437,361l.38,0a5.39,5.39,0,0,1,3.87,1c2.37,1.63,1.15,4.38-2.34,8.72-4.43,5.52-6.08,11.52-8.76,17-1.09,2.25-1.8,2.89-2.27,1.69-1.32-3.47-2.26-6-4.39-12.37a9.52,9.52,0,0,1-.68-1.21,11,11,0,0,0-2.63-3.28c-1.37-1.28-2.45-1.74-3.08-1.13s-1.05,2.46-1.15,5.45c-.09,2.55-.22,5.16.32,6.49.23.57.82,1.37,1.15,2.17a9.06,9.06,0,0,1-.08,7.89,10.09,10.09,0,0,1-4,4.36,5,5,0,0,1-5.93-.56c-2.68-2.29-4.11-6-4.71-8.49-.5-2.07,0-2.76,1.42-4.12a11.44,11.44,0,0,0,2.88-6.23c-.9-2.44-3.75-6.1-8.24-11.82-4.16-5.3-8.33-10.56-12.91-13.92-5.31-3.91-9.57-4.38-11.58-5-3.22-1-3.36-2.05-.54-3.94a61.46,61.46,0,0,0,8.39-5.16c3.26-2.41,6.42-3.66,10-1.8,2,1.1,5.19,4.12,10.07,10,4.56,5.47,7.49,9.52,9.06,10.9l.41,0a11.21,11.21,0,0,0-.61-3.13c-.48-1.3-1-2.58-1.53-3.86s-.92-2.19-1.1-2.7a21.31,21.31,0,0,0-2.12-5.37c-1.35-2.12-2.35-3.75-3-4.89-3.59-6.15-4.61-10.76-3.7-14.79.26-1,1.57-3.21,4.16-6.25a14.07,14.07,0,0,1,3.13-3.07,6,6,0,0,1,4.51-1.59c1.26.16,2.17,1.15,2.86,3.15a35.39,35.39,0,0,1,1.12,5c.33,1.86.7,3.81,1.1,5.81a111,111,0,0,0,5.38,18.15,124.07,124.07,0,0,0,6.7,14C431,362.29,432.5,363,434.05,362.15Z"/><path d="M479.54,255a41.51,41.51,0,0,0,3.63-7c1.49-3.28,2.71-4.67,2.65-5.26a4.65,4.65,0,0,0-.56-1.79,2,2,0,0,1-.21-2,8.68,8.68,0,0,1,1.63-1.9c1.64-1.42,4.44-2,7.73-1.94,2.64,0,5.62.57,10,.14,2.13-.21,6.84-1.14,14.09-2.47a18.91,18.91,0,0,1,7.85-.06c2.13.52,3.25,1.71,3.53,2.85a4.06,4.06,0,0,1-.51,3.09l-.37.62-.49.77a5.09,5.09,0,0,1-2.66,1.67c-1.12.39-2.37.79-3.69,1.26-6.65,5.35-13.87,10.89-19.79,16.12a164.87,164.87,0,0,0-12.14,11.72c-4.74,5.17-6.18,8.53-5.51,10.3a6.52,6.52,0,0,1,1.05,1.6c.24.61-.18,1.72-.89,2.82a8.44,8.44,0,0,1-6.11,3.68A21.72,21.72,0,0,1,471,289c-4.95-.93-7.95-2.35-9-3.77-1.41-1.86-1.82-4.79-.78-10.66,1.11-6.29,1-10.64-.67-12.49-.42-.42-1.07-.44-1.88,0a9.78,9.78,0,0,0-2.19,4.38c-.17.69-.36,1.73-.56,3.12,0,.13-.06.28-.11.47l0,.16c-.21,1.44-.42,3-.63,4.52,0,3.07.51,4.93,1.47,5.77a2.77,2.77,0,0,1,1,.4c.22.21.11,1.21-.24,2.35a23.43,23.43,0,0,1-3.65,6.59c-1.41,2-2.88,4.18-5,5.57a6.29,6.29,0,0,1-7.58-.48,5.41,5.41,0,0,1-2.21-4.47,3,3,0,0,1,.79-2.31c.5-.43,1-.83,1.57-1.22a4.25,4.25,0,0,0,1.35-1.8c.7-1.21,1.4-2.49,2.11-3.86a24.86,24.86,0,0,0,1.8-8.27c0,.14,0-.31.12-1.31a87.11,87.11,0,0,0-.81-16.81c-.94-7.14-1.5-12.32-1.33-15.81.23-4.62.72-7.41,1.6-8.94,1.42-2.4,3.15-3.62,9.23-2.79,6.72.92,15,4.3,18.76,9,.93,1.22,3.25,5.31,2.29,12.62-.62,4.59-1.27,6.72.92,7.18C478.19,256.26,478.88,255.88,479.54,255Z"/><path d="M404.14,289.23c.36-4.3,4.91-10.65,10.67-17.46,6.55-7.74,11.94-11.61,17.16-11.51,2.6,0,3.72,1.06,3.63,3,0,.52-1.09,2-3.35,4.38s-3.51,4.5-3.55,6.35c0,.8,1.47,2.7,4,5.88s3.47,5.92,3.46,8a8.21,8.21,0,0,1-2.82,6.57c-2.12,1.82-4.77,2.22-9.18,2.25-5,0-10.57,0-14.82-1.31C405.74,294.23,403.88,292.31,404.14,289.23Z"/><path d="M464.3,194.64c-5.44-7.92-7.61-13.25-9.05-14.83-.77-.72-1.53-1.46-2.29-2.21a6.22,6.22,0,0,1-1.57-2.42c-1.52-4.5-1.78-7.34-.8-8.85.76-1.19,2.72-3.34,10-2.38,6,.79,10,1.43,12.83,2.63a13.94,13.94,0,0,1,6.66,6.36,2.33,2.33,0,0,1-.19,2.42,5.51,5.51,0,0,0-.91,2.25c.1,1.4,1.69,5.23,6.9,12a118.93,118.93,0,0,0,17.19,18c7.53,6.28,14,9.9,16.89,10.8.89.19,2.25.41,3.52.81a11.36,11.36,0,0,1,4,2.68c2.54,2.39,3.87,4.74,2.89,6.7-.81,1.61-3.41,2.78-9.53,3-2.17.11-4.36.17-6.43.2-9.71.15-17.36-.09-20.27-.14A177.68,177.68,0,0,1,467,229.14c-7.81-1.46-8.21-3.54-9.44-7.74-1.55-5.25-1.68-10.19.67-14.47a7.77,7.77,0,0,0-3.33-3.4c-1.72-.75-2.4-1-2.42-1a25.15,25.15,0,0,1-3.72-4.38c-.95-1.39-2.08-3.33-3.54-5.77-2.15-3.63-4.58-6.08-7.59-7.42-.2-.11-.82-.6-2.46-1.71a8.82,8.82,0,0,1-2.73-2.68,2.42,2.42,0,0,1,0-2.25,9.27,9.27,0,0,1,.73-1.74c.29-.27,1.43,0,2.84-1.62a24.82,24.82,0,0,1,3-3c3.59-2.95,6.21-2.67,8.73.78,1.23,1.68,3.13,5.8,6.28,13.15,2.64,6.16,5.22,10.28,7.74,12a1.93,1.93,0,0,0,2.2,0C465.18,197.14,465.3,196.09,464.3,194.64Zm24.62,27.48c1.47,0,2.45-.31,2.9-.9s.06-1.29-1.13-2.08c-5.15-3.76-7.57-5.63-11.82-9.3-1.79-1.54-3.31-2.27-4.67-2.18-2.55.17-3.69,1.2-3.73,3a7.53,7.53,0,0,0,2.38,5.18C476.79,220.09,482.38,222.18,488.92,222.12Z"/><path d="M441.79,200.56c2.92,4.73,4.23,10.63,4.49,17,.29,7.08-1,11.71-5,19.67S433,253.86,428,257.36c-4.41,3.08-8.6.39-12.05-8.88-4.14-11.15-5.37-23.6-7.06-35.37-1.37-9.49-3.86-22.6,1.34-29.18,3.27-4.14,12.38-1.08,18.76,3.28A41.59,41.59,0,0,1,441.79,200.56ZM427,229.94c1.77,3.13,3.68,5.16,5.68,6,2.84,1.25,4.62-.42,5.86-3.07a8.79,8.79,0,0,0,.91-5.15,6.56,6.56,0,0,0-1.33-3.3,14.35,14.35,0,0,0-4.74-3.79c-2.53-1.3-4.79-1.26-6.35,1.44a7.76,7.76,0,0,0-.9,4A7.86,7.86,0,0,0,427,229.94Z"/><path d="M406.05,305c.36,2.87-.37,5.08-2.51,8a22.65,22.65,0,0,1-10.23,7.67c-1.78.73-2.94-.07-3.09-3.77-.47-12.71.58-25.37,1.6-38,0-1.24.07-1.86.12-3.08.38-8.89-1-19.8-4.65-25.67-3.31-5.37-6.46-4.41-9.4-4.32a24.85,24.85,0,0,1-3.1.81,2.56,2.56,0,0,1-2.85-1.11c-2.38-5.22,1.25-4.58,10.58-18.34,3.55-5.22,6.69-12,9.75-18.3,4.22-8.64,7.92-14.69,10.69-15.53.64-.2.92.35.79,1.67a9.58,9.58,0,0,0,0,3.28c1.31,2.68,3.82,6.59,2.42,24.46-1.22,15.66-2.78,31.36-3.57,47.09,0,.56,0,.84-.06,1.39a5.15,5.15,0,0,1,0,.91c-.63,14.51-.18,21.76.78,24.74a30,30,0,0,0,1.62,3.9A14,14,0,0,1,406.05,305Z"/><path d="M376.86,316.39c.06,3.67-1.64,9.43-4.91,15.8-4.26,8.31-7.6,11.13-9.95,8.71-1-1-1.4-3.54-1.27-7.42.38-10.25,1-20.5,1.2-30.75,0-.84-.05-1.25-.1-2.05-.3-5.85.29-13.17-7.26-18.64-6.89-5-16.8-6.53-23.52-6.87a42.33,42.33,0,0,0-6,.6c-2.72.43-4,.56-4.49.4-4.07-1.25-4.39-3.48,12.47-15.09a136.07,136.07,0,0,1,19.63-11.32c8.42-3.83,13.77-4.5,16-2,.51.59.55,1.56.23,2.83a11.13,11.13,0,0,0-.48,3.34c.58,3.8,1.51,8.86,2.12,17s.47,16.83.59,23.45c0,.33,0,.49,0,.83a.84.84,0,0,1,.09.45c.12,8.85.6,15.38,1.8,16.31a6.71,6.71,0,0,0,2.42.88C376.33,313.06,376.82,314.27,376.86,316.39Z"/></svg>