<svg id="Layer_1" data-name="Layer 1" xmlns="http://www.w3.org/2000/svg" xmlns:xlink="http://www.w3.org/1999/xlink" viewBox="0 0 576 576"><defs><style>.cls-1,.cls-11{fill:none;}.cls-2{clip-path:url(#clip-path);}.cls-11,.cls-3,.cls-4{stroke:#000;stroke-miterlimit:10;stroke-width:5.36px;}.cls-4{fill:#b9995f;}.cls-5{fill:#d1d3d4;}.cls-6{fill:#df2426;}.cls-7{fill:#ef6843;}.cls-8{fill:#e7c31a;}.cls-9{fill:#ea4b9b;}.cls-10{fill:#1a92bf;}</style><clipPath id="clip-path"><rect class="cls-1" x="-615" y="68" width="536" height="428.39"/></clipPath></defs><title>git</title><g class="cls-2"><image width="3600" height="3600" transform="translate(-683.29 -52.03) scale(0.21)" xlink:href="../../../../../../../Top Runner Marketing/Logos-Designs/Main Logo/My Ideas/TRM Clean1.png"/></g><path class="cls-3" d="M146.78,295.1c-17.4,13.66-63.88,29.28-79,39.92C62.59,338.71,27.4,360,27,382.49c-.45,25.28,23.06,59.88,51.45,88.27s66.4,54.93,81.62,63,52.35,8,68.32-20.4,23.06-52.79,28.83-63c4-7.12,13.75-29.28,30.61-34.6s63.43-36.82,53.67-69.2c-7.63-25.35-40.36.88-52.34,0-6.19-.46-20.85-9.76-12-16.86s144.47-159.93,157-172.11c14.64-14.2,25.29-29.28,31.5-30.17s12.86,18.63,20.85,14.2,14.19-44.36,27.5-46.14,50.57-4.43,25.73-38.15c-5.17-7-28.28-15.68-33.71-8.87-1.62,2,5.32,14.2-3.55,9.76s-6.73,7.56-9.76,8.87c-3.37,1.46-10.8-8.88-13.31-6.21-1.85,2,5.32,9.76,1.77,10.65s-15.08-8-15.08-1.78-3.55,6.21-10.64,4.44-1.78-.89-3.55,6.21-4.44,2.66-8.87,0S432.45,95.48,430.68,99,419.14,130.08,389,156.7s-98,82-105.58,89.6c-10.2,10.21-39.92,43-39.92,43s-15.08-12-4.44-38.59,41.76-40.68,4.49-46.89-64.82,34.47-68.36,46S159.2,285.34,146.78,295.1Z"/><path class="cls-4" d="M146.78,287.11c-17.4,13.67-63.88,29.28-79,39.93C62.59,330.73,27.4,352,27,374.5c-.45,25.29,23.06,59.89,51.45,88.28s66.4,54.93,81.62,63,52.35,8,68.32-20.41,23.06-52.79,28.83-63c4-7.12,13.75-29.28,30.61-34.6s63.43-36.82,53.67-69.2c-7.63-25.34-40.36.89-52.34,0-6.19-.46-15.72-12.73-6.85-19.82S425.91,165,438.47,152.84c14.64-14.19,22.18-27.5,28.39-28.39s11.72,13.62,19.71,9.18,14.19-44.36,27.5-46.13,50.57-4.44,25.73-38.15c-5.17-7-28.28-15.69-33.71-8.87-1.62,2,5.32,14.19-3.55,9.76s-6.73,7.56-9.76,8.87c-3.37,1.45-10.8-8.89-13.31-6.21-1.85,2,5.32,9.76,1.77,10.64s-15.08-8-15.08-1.77S462.61,68,455.52,66.2s-1.78-.88-3.55,6.22-4.44,2.66-8.87,0S432.45,87.5,430.68,91.05,419.14,122.1,389,148.71s-98,82-105.58,89.61c-10.2,10.2-39.92,43-39.92,43s-15.08-12-4.44-38.6,41.22-36.18,4-42.39-64.29,30-67.83,41.51S159.2,277.36,146.78,287.11Z"/><path class="cls-5" d="M341.13,344.9s.37,1.85.41,2.46c2.16,27.78-41.86,58-56.57,62.62-17,5.38-21.81,21.34-25.87,28.53-5.83,10.31-13,34.94-29.13,63.63s-56.5,34.59-71.73,26.53c-15.38-8.15-51-40.87-79.71-69.54-26.76-26.78-49.72-59.19-49.22-84.24.44-21.89,33.41-41.24,38.47-44.8C83,319.33,130,303.57,147.54,289.76c12.54-9.86,25.08-34.06,28.67-45.7s26.88-47.5,64.52-41.22c10,1.66,18.61,3.7,18,7-1.42,7.79-12.79,14-18,27-3.58,9-6,17.18-6,23,.06,17.24,10,23.45,10,23.45s4.34-4.57,8.63-9.27l30.76,39.34c-.58,1.65-5,4.06-5.86,5.94a10.87,10.87,0,0,0-1.81,3.35c-2.22,8,8.67,18.23,15,18.38,11.74.27,40.23-26.74,47.95-1.14C339.87,341.63,340.8,343,341.13,344.9Z"/><path class="cls-4" d="M426.71,100.5s28.62,0,33.27,26.61"/><path d="M436,102.73c-12.54,29.78-36.47,51.4-61.29,71.05-26.35,20.86-52.81,41.37-76.4,65.41a315.23,315.23,0,0,0-36.23,43.65c-1.16,1.72,1.63,3.33,2.78,1.62,19.76-29.15,45.38-53.95,72.21-76.55,24.58-20.72,51.93-38.68,74.06-62.16a141.71,141.71,0,0,0,28-42.16c.8-1.91-2.32-2.74-3.11-.86Z"/><path d="M444,107.41c-11.43,30.14-36.29,51.67-61.11,70.91-26.94,20.88-53.88,41.38-77.2,66.42a296.11,296.11,0,0,0-35,45.38c-1.1,1.76,1.69,3.38,2.78,1.62,18.91-30.41,44-56.42,71.26-79.41,24.72-20.83,52.54-38.33,74.92-61.83,11.73-12.3,21.43-26.28,27.48-42.24.73-1.94-2.38-2.77-3.1-.85Z"/><path d="M452.27,112c-11.7,30.88-38,52.08-63.61,71.32-27.3,20.51-53.74,41.44-76.65,66.93a336.68,336.68,0,0,0-35.79,47.47c-1.09,1.76,1.69,3.38,2.78,1.62,19.3-31.09,44-58.54,71.73-82.36,24.86-21.38,53.45-38.51,76.55-61.91,12-12.19,22-26.13,28.09-42.22.74-1.93-2.37-2.77-3.1-.85Z"/><path class="cls-6" d="M72.76,383.1c4.11,12.93,6.06,17.43,7.82,17.82a15.25,15.25,0,0,0,3.08-.34,2.15,2.15,0,0,1,2.43.72c2.57,3.8,3.51,7.14,1.93,11.26-1.24,3.22-6.24,13-13.49,17.42-6,3.6-9.61-1-12.17-3.5s-4.67-6.47-6.27-12a5.27,5.27,0,0,1,.22-3.61,10.85,10.85,0,0,0,.95-3c.07-2.11-1-8.46-3.32-17.46-2.12-8.07-4.48-15.16-7.25-19.51C43.6,366,40.34,365,38.63,365.3c-.56.18-1.39.49-2.26.74a3.14,3.14,0,0,1-2-.06c-1-.37-1-1.28.48-3.88a41.54,41.54,0,0,1,6.92-8.83c1.31-1.36,2.61-2.64,3.81-3.81,5.67-5.49,10-9.2,11.64-10.67,6.06-5.31,12.27-9.18,17.26-10.48,6.17-1.61,7.68,1.72,8.27,7.07.74,6.7.11,14.76-2.62,24.13.66,2,1.65,2.51,2.85,1.51a15.38,15.38,0,0,0,2.67-2.7,6,6,0,0,1,4.57-.29,19.18,19.18,0,0,1,5,3.76c3.25,3.07,5.86,5.44,11.47,7.24a24.11,24.11,0,0,0,5.62.51c2.77.07,4.92.31,6,.9.83.44.9,1.35.21,2.74a27.16,27.16,0,0,1-1.33,3c-.79,1-3.67,2.91-5.85,5.28-1.81,2-2.72,3.3-3.73,4.56-4.35,5.46-10.06,10.8-15,11.1-2.42.14-6.46-1.24-10.14-8-3.06-5.61-4.85-10.12-6.67-11.79-.6-.5-1.39-.46-2.2.32C72.29,379,72,380.73,72.76,383.1ZM59.29,348.73a5.57,5.57,0,0,0-1.94,2.47,1.89,1.89,0,0,0,.36,2.28,41.46,41.46,0,0,1,6.12,8.73c1,1.72,1.93,2.4,3,1.87,1.91-1,3-3,3.28-5.83a13.79,13.79,0,0,0-1-7.2C66.78,346.05,63.37,345.74,59.29,348.73Z"/><path class="cls-6" d="M98.86,349.2a34.13,34.13,0,0,1-4.12-21.64c1.09-8.79,5.07-14.7,12.24-16.56s13.1,2.21,20.27,8.95a107.24,107.24,0,0,0,20,15.31c6.46,3.71,12,6.51,16.45,9.4,4.82,3.14,6.18,5.24-1.38,8.34-11.67,4.78-25.25,8.51-37.15,7.87C116,360.38,104.39,358.75,98.86,349.2Zm29-13.75c-3.46-2.59-7-5.49-10.39-8.6-4.78-4.43-7.32-6.68-9.64-6.29-1.62.28-2.46,1.44-2.43,3.32a8.57,8.57,0,0,0,1.61,4.69,24.57,24.57,0,0,0,8.46,7.41c4.89,2.73,9.46,3.5,12.47,3,1.18-.2,1.73-.62,1.68-1.3S129,336.28,127.88,335.45Z"/><path class="cls-7" d="M184.6,329A6.37,6.37,0,0,0,188,324.6a26.62,26.62,0,0,1,1.56-4.89c1-1.66,2.16-2.62,3.48-2.69s2.47.87,3.46,2.78a36.28,36.28,0,0,1,4,18.71c-.4,6.15-2.24,10.16-6.18,12.56-4.89,3-14.08,0-23.78-4.76a186,186,0,0,1-24-14.53c-8.55-6-15.93-11.07-21.67-16.55-6.32-6-7.1-10.63,8.72-15.08a154.08,154.08,0,0,1,28.25-5c10.26-.88,15.45-.09,18.6,3.38a10.11,10.11,0,0,1,2.5,5.21c.38,2.25,0,4.17-1.72,5.51-1.48,1.13-4.37,1.47-9.85,1s-10.23-.32-13,.43c-4.19,1.15-5.87,2.86-5,5.29s3.13,4.61,6.55,6.76a52.92,52.92,0,0,0,13.21,5.42C178.52,329.73,182.2,330.1,184.6,329Z"/><path class="cls-7" d="M176.61,278.07a15.49,15.49,0,0,1-3.32,1.62l-.43.08a6.33,6.33,0,0,1-4.66-.84c-2.95-1.69-1.77-5,1.93-10.49,4.69-6.92,6.07-14.15,8.7-20.92,1.07-2.74,1.85-3.57,2.52-2.21,1.88,4,3.22,6.88,6.34,14.16a11.17,11.17,0,0,1,.91,1.37,13.21,13.21,0,0,0,3.41,3.61c1.73,1.37,3.05,1.82,3.73,1s1-3,.85-6.52c-.14-3-.23-6.12-1-7.62-.33-.66-1.1-1.54-1.57-2.46a10.68,10.68,0,0,1-.65-9.29,11.92,11.92,0,0,1,4.29-5.52,5.87,5.87,0,0,1,7.05.1c3.37,2.45,5.4,6.66,6.35,9.55.79,2.39.28,3.25-1.29,5a13.5,13.5,0,0,0-2.79,7.62c1.28,2.78,5,6.83,10.83,13.14,5.4,5.84,10.81,11.64,16.52,15.17,6.62,4.1,11.69,4.25,14.11,4.78,3.89.85,4.16,2.09,1,4.58a73.38,73.38,0,0,0-9.4,6.88c-3.61,3.15-7.21,4.92-11.63,3.07-2.47-1.1-6.5-4.36-12.81-10.8-5.89-6-9.72-10.5-11.7-12h-.48a13.1,13.1,0,0,0,1,3.63q1,2.22,2.17,4.41c.76,1.45,1.28,2.48,1.55,3.07a25.58,25.58,0,0,0,3,6.12c1.79,2.38,3.12,4.19,4,5.48,4.82,6.9,6.46,12.23,5.77,17.07-.21,1.25-1.54,3.93-4.31,7.76a16.41,16.41,0,0,1-3.39,3.9,7,7,0,0,1-5.17,2.3c-1.49-.07-2.66-1.14-3.67-3.43a43.07,43.07,0,0,1-1.79-5.73c-.56-2.16-1.18-4.42-1.84-6.74a131,131,0,0,0-8.06-20.87,148,148,0,0,0-9.22-15.88C180.19,277.62,178.35,277,176.61,278.07Z"/><path class="cls-8" d="M133.41,408.62a49.82,49.82,0,0,0-3.62,8.57c-1.43,4-2.74,5.76-2.62,6.45a5.65,5.65,0,0,0,.83,2.05,2.39,2.39,0,0,1,.45,2.38,10,10,0,0,1-1.75,2.38c-1.79,1.84-5,2.73-8.91,3-3.12.23-6.68-.14-11.79.78-2.49.44-8,2-16.36,4.24a22.37,22.37,0,0,1-9.24.82c-2.56-.41-4-1.71-4.43-3a4.87,4.87,0,0,1,.3-3.69l.39-.76c.14-.27.3-.59.5-1a6,6,0,0,1,3-2.22c1.27-.55,2.71-1.15,4.22-1.82C91.73,420,99.18,413.19,106.14,406a192.65,192.65,0,0,0,13.19-15c5.09-6.54,6.47-10.63,5.51-12.65a8.12,8.12,0,0,1-1.39-1.79c-.33-.69,0-2,.79-3.41,1.38-2.56,3.61-4.08,6.84-4.91a25.83,25.83,0,0,1,9.13-.48c5.93.63,9.59,2,11,3.6,1.84,2.05,2.61,5.47,1.94,12.47-.71,7.52-.12,12.63,2,14.66.54.45,1.3.41,2.22-.14a11.47,11.47,0,0,0,2.16-5.36c.14-.83.26-2.08.36-3.73,0-.15.06-.34.09-.57l-.05-.18c.11-1.72.22-3.52.31-5.39-.26-3.61-1.06-5.75-2.27-6.65a3.16,3.16,0,0,1-1.26-.37c-.29-.23-.25-1.41.05-2.79.55-2.57,1.88-5.06,3.67-8.12,1.48-2.5,3-5.2,5.33-7a7.43,7.43,0,0,1,9-.16,6.38,6.38,0,0,1,3,5.05,3.58,3.58,0,0,1-.71,2.81c-.55.54-1.13,1.07-1.73,1.58a5,5,0,0,0-1.42,2.25c-.71,1.48-1.41,3.07-2.12,4.74a29.33,29.33,0,0,0-1.34,9.91c0-.16,0,.37,0,1.56a102.63,102.63,0,0,0,2.55,19.73C174.7,414,175.86,420,176,424.14c.17,5.46-.15,8.8-1,10.69-1.45,3-3.36,4.56-10.6,4.16-8-.45-18.08-3.65-23-8.81-1.21-1.36-4.32-6-3.89-14.65.29-5.47.86-8-1.77-8.38C134.88,407,134.11,407.55,133.41,408.62Z"/><path class="cls-8" d="M219,361.18c0,5.1-4.78,13-10.92,21.57-7,9.74-13,14.81-19.12,15.2-3.07.19-4.48-.91-4.56-3.15,0-.62,1.1-2.46,3.53-5.48s3.71-5.63,3.59-7.82c-.06-.94-2-3-5.23-6.54s-4.65-6.65-4.84-9.11a9.72,9.72,0,0,1,2.71-8c2.32-2.35,5.4-3.07,10.6-3.52,5.86-.52,12.44-1,17.58.14C216.63,355.44,219,357.53,219,361.18Z"/><path class="cls-9" d="M158.18,485c7.16,8.82,10.22,14.89,12.06,16.61,1,.78,1.95,1.58,2.92,2.39a7.29,7.29,0,0,1,2.07,2.7c2.22,5.15,2.79,8.47,1.79,10.35-.8,1.47-2.89,4.19-11.59,3.75-7.14-.35-12-.73-15.37-1.87s-6-3.33-8.45-6.87a2.73,2.73,0,0,1,0-2.86,6.52,6.52,0,0,0,.86-2.74c-.25-1.65-2.51-6-9.27-13.43a134.69,134.69,0,0,0-21.95-19.52c-9.57-6.67-17.44-10.33-20.91-11.12-1.07-.14-2.69-.27-4.23-.62a13.63,13.63,0,0,1-5-2.78c-3.22-2.57-5-5.21-4-7.62.8-2,3.76-3.59,11-4.47,2.54-.34,5.11-.61,7.55-.84,11.43-1.1,20.46-1.55,23.89-1.76,10.76-.39,21.51-.78,32.24.32,9.35,1,10,3.39,11.85,8.22,2.32,6,2.95,11.85.58,17.12a9.28,9.28,0,0,0,4.24,3.69c2.11.72,2.93,1,3,.95a29.05,29.05,0,0,1,4.8,4.8c1.25,1.54,2.76,3.73,4.72,6.46,2.88,4.07,6,6.72,9.65,8,.24.11,1,.62,3.05,1.78a10.42,10.42,0,0,1,3.47,2.9,2.85,2.85,0,0,1,.22,2.65,12.14,12.14,0,0,1-.7,2.12c-.32.35-1.69.1-3.19,2.18a30,30,0,0,1-3.21,3.86c-3.95,3.81-7.07,3.72-10.36-.1-1.61-1.86-4.24-6.53-8.64-14.89-3.7-7-7.13-11.61-10.26-13.37a2.27,2.27,0,0,0-2.6.19C156.91,482.1,156.86,483.35,158.18,485Zm-31.61-30c-1.73.16-2.85.61-3.32,1.34s0,1.53,1.53,2.34c6.41,3.94,9.44,5.92,14.8,9.84,2.25,1.65,4.11,2.36,5.7,2.12,3-.44,4.24-1.76,4.11-3.88-.11-1.89-1.11-3.85-3.29-5.86C141.06,456.17,134.27,454.23,126.57,454.92Z"/><path class="cls-9" d="M184.14,475.86c-3.9-5.3-6-12.13-6.91-19.63-1-8.31.21-14,4.08-23.64,3.25-8.14,7.37-19.14,13.71-24.95,4.46-4.08,10.12-1.27,15,9.32,5.94,12.8,8.85,27.26,11.68,41,2,9.65,7.53,26.4,1.18,34.51-4.19,5.36-14.48,2.45-22.41-2.08A49.18,49.18,0,0,1,184.14,475.86Zm14.64-36c-2.39-3.51-4.83-5.73-7.27-6.54-3.46-1.21-5.4.93-6.61,4.16a10.48,10.48,0,0,0-.59,6.16,7.87,7.87,0,0,0,1.88,3.76,17,17,0,0,0,5.94,4c3.11,1.28,5.77,1,7.35-2.3a9.32,9.32,0,0,0,.69-4.76A9.5,9.5,0,0,0,198.78,439.84Z"/><path class="cls-10" d="M215.09,342.91c-.7-3.34-.05-6,2.2-9.61a26.54,26.54,0,0,1,11.32-10c2-1,3.46-.2,4,4.13,1.77,14.94,1.72,29.95,1.73,45,.06,1.46.09,2.19.14,3.64.59,10.52,1.4,21,7.91,29.8,4.42,6,8,4.58,11.49,4.2a27.48,27.48,0,0,1,3.57-1.25c1.86-.42,3.05.3,3.46,1,3.3,5.93-1,5.52-10.72,22.61-3.68,6.49-6.73,14.81-9.75,22.49-4.15,10.56-7.93,18-11.12,19.3-.73.29-1.12-.32-1.08-1.89a11.36,11.36,0,0,0-.28-3.87c-5.64-9.69-5-16.83-5.18-28.58-.23-18.39.39-37.22-.25-55.81,0-.67,0-1-.06-1.65a6.52,6.52,0,0,1-.11-1.06c-.51-9.76-.19-20.59-3.26-29.07a27.16,27.16,0,0,0-2.29-4.44A16.51,16.51,0,0,1,215.09,342.91Z"/><path class="cls-10" d="M248.39,326.71c-.43-4.32,1-11.27,4.28-19.08,4.23-10.2,7.9-13.83,10.9-11.21,1.27,1.12,2,4,2.2,8.63.54,12.11.79,24.23,1.5,36.33.12,1,.18,1.46.3,2.41.91,6.85.95,15.66,10.32,21.26,7.82,4.67,19.27,6.41,28.37,5.87a49.19,49.19,0,0,0,7-1.28c3.17-.76,4.66-1,5.26-.9,4.92,1.09,5.51,3.69-13.26,19a160.27,160.27,0,0,1-22.05,15.2c-9.55,5.32-15.8,6.61-18.65,3.83-.67-.64-.81-1.77-.55-3.3a13.23,13.23,0,0,0,.25-4c-1-4.42-2.61-10.3-4.11-19.81s-2.15-19.78-2.91-27.56l-.1-1a1.18,1.18,0,0,1-.14-.52c-1-10.41-2.16-18.05-3.66-19a7.87,7.87,0,0,0-2.94-.81C249.33,330.57,248.64,329.2,248.39,326.71Z"/><line class="cls-11" x1="254.08" y1="271.17" x2="287.65" y2="313.42"/></svg>