<svg id="Layer_1" data-name="Layer 1" xmlns="http://www.w3.org/2000/svg" viewBox="0 0 576 576"><defs><style>.cls-1{fill:#b1b5ba;}.cls-2{fill:#e7c7a0;}.cls-2,.cls-3,.cls-4,.cls-5,.cls-6{stroke:#000;stroke-miterlimit:10;}.cls-2,.cls-3,.cls-4,.cls-5{stroke-width:2.79px;}.cls-3{fill:#c17e52;}.cls-4{fill:#9c5c2e;}.cls-5{fill:#deb39f;}.cls-6{fill:none;stroke-width:15.49px;}</style></defs><path d="M74.66,257.33l42,8.17-2.13,11-16.24-3.15-2.42,12.44,16.23,3.13-2.14,11-42-8.17,2.13-11,15.27,3,2.43-12.49-15.27-3Z"/><path d="M83.83,232.57l21.56,9.69c3.6,1.61,8,3.56,10.58-2.3s-1.8-7.66-5.41-9.27L89,221l4.57-10.22L114.1,220c6.83,3.06,19.08,8.54,11.92,24.54S106.62,255,99.79,252l-20.51-9.17Z"/><path d="M129.2,161.92l33.46,26.67-7,8.75L138.57,183.7l6.28,17.21-2,2.44L124.61,201l17.18,13.7-7,8.75L101.4,196.8l6.93-8.69,21.32,2.69-7.37-20.19Z"/><path d="M184,167.38l-11,8.33,1.58,3.86-9.26,7-15.85-41.69,11.37-8.62,35.7,26.66-9.26,7Zm-8-6.23L162.61,150.6l6.49,15.76Z"/><path d="M214.18,108l17.42,39.08-10.14,4.52L201.2,137.52l8.61,19.32-10.22,4.55-17.42-39.07,10.22-4.56,20.15,14.08L204,112.6Z"/><path d="M237.74,101.8l10.77,41.46-10.83,2.81-10.77-41.45Z"/><path d="M281.34,106.38l-9.5,1,3.26,31.88L264,140.41l-3.28-31.92-9.49,1L250.1,98.84l30.12-3.1Z"/><path d="M326.89,98.85,312.71,123,311,140.26l-11.14-1L301.57,122l-9.24-26.44L304,96.68l4.35,13.07,6.79-12Z"/><path d="M339.57,141.07l7.77-6.93a20.1,20.1,0,0,0,9,7.79c2.91,1.14,4.62.85,5.13-.45,1.79-4.52-16.08-11.93-11.06-24.63,2.62-6.66,10-9.41,18.79-5.94a25.28,25.28,0,0,1,12.06,9.8l-7.56,6.84c-2.22-2.91-4.86-5.64-8.38-7-2.45-1-3.88-.47-4.31.6-1.84,4.67,16.48,10.93,11.19,24.33-2.93,7.42-10.33,9.81-19.21,6.3A27.3,27.3,0,0,1,339.57,141.07Z"/><path d="M415.3,155.26c-8.72,13.37-20.51,5.67-27.05,1.4l-.42-.27-6,9.17-9.37-6.12,23.39-35.83,9.65,6.29C412.1,134.26,424,142,415.3,155.26Zm-9.6-6.37c2.88-4.41-.77-6.79-3.53-8.59l-2.69-1.76-5.89,9,2.69,1.75c3,2,6.41,4.25,9.42-.37Z"/><path d="M432.86,164.59l-4,4,10.24,10.1-7.1,7.14-10.23-10.06-4.1,4.16,13.58,13.41-7.46,7.56-21.54-21.28,30.07-30.45,21.54,21.28L446.44,178Z"/><path d="M444.31,223.36l-7.55-11.58-4,1.3-6.34-9.71,42.68-12.9,7.77,11.92-29.05,33.78-6.34-9.72Zm6.77-7.56,11.44-12.54-16.16,5.33Z"/><path d="M466,248.48,460.86,247l-7.76,2.85-3.84-10.51,40.28-14.7,3.83,10.51L477.6,241l19.65,5,4.65,12.75-24.64-7-15.08,23-4.74-13Z"/><path d="M466.53,275.81l9.85,3.4A20.18,20.18,0,0,0,474,290.83c.42,3.1,1.52,4.44,2.91,4.26,4.81-.65,2.54-19.86,16.08-21.69,7.09-1,13.09,4.12,14.36,13.5a25.32,25.32,0,0,1-2.66,15.36L495,299c1.46-3.36,2.54-7,2-10.74-.36-2.61-1.49-3.62-2.63-3.47-5,.68-1.49,19.72-15.76,21.65-7.91,1.07-13.6-4.22-14.88-13.68A27.43,27.43,0,0,1,466.53,275.81Z"/><path class="cls-1" d="M374.64,180.76l-.76-.83Z"/><path class="cls-1" d="M143,401l-.48-.69Z"/><path class="cls-1" d="M429.41,237.26l-.32-.14.07-.33A.83.83,0,0,1,429.41,237.26Z"/><path class="cls-2" d="M431.59,395.26c-2.78,1.43-3.64,4.06-5.22,6.23-1.88,2.78-4.94,5-5.61,8.35-2.74.63-3.6,2.62-4.44,4.62-2.11,2.13-5.09,3.71-5.67,6.79-2.78.81-4.36,2.79-6.11,4.61-1.22,2-4.17,2.85-4.68,5.32-2.09.35-3.27,1.66-4.37,3.07l-8.67,6-1.89.27c-5.87-.84-11.73-1.75-17.61-2.46-2.49-.31-2.86-1.09-1.25-2.6,6.22-5.81,7.34-12.86,7.19-20.45-.17-8.13,1.69-16.12,3.43-24.09.72-3.32,2.49-4.61,6.65-4.25,16.43,1.42,32.89,2.55,49.34,3.78C433.1,392.26,431.56,393.61,431.59,395.26Z"/><path class="cls-3" d="M358.51,165.49c-.45,22.71-1.31,45.42-.38,68.14.06,1.4.77,3.3-.53,4.1s-2.63-.68-3.76-1.46c-12-8.25-25.45-12-39.5-14a37.39,37.39,0,0,0-13.82.78c-2.59.62-3.88.19-4.22-3.08-1.47-13.9-2-27.86-2.91-41.8-.62-9.65-1-19.33-1.43-29l4.88-.34,3.84.07c1.68,1.13,3.55.88,5.4.84l3.84.11c1.55.38,3,1.13,4.7.87,1.31,1.43,3,.68,4.54.86,1.55.37,3,1.15,4.68.89l3.85.87,4.67,1.66,4.55.89a7.19,7.19,0,0,0,4.67,1.71c1.07,1.29,2.55.74,3.86.92,1.05,1.88,3,1.94,4.69,2.42l4.49,1.71Z"/><path class="cls-4" d="M363.51,259.26c-.88,1.76,2.2,1.92,3.44,2.49,2.73,1.24,5.54,2.34,7.86,4.23,4.22,3.45,3.94,10.88-.44,14.08-1.29.93-8.34-1.43-11.74-2.22-2.38-.56,2.06,2.35,3.21,2.79,2.41.92,4.91,1.64,7.34,2.52,4,1.43,7.74,3.09,7.74,7.91a11.38,11.38,0,0,1-7.73,11.2,3.75,3.75,0,0,1-2.95.3,46.23,46.23,0,0,0-8.09-1.38c-.8-.12-1.85-.38-2.06.62s.88,1.12,1.66,1.24c2.44.36,4.88.71,7.33,1,8.27,1,12.52,5.83,10.26,11.75a10.37,10.37,0,0,1-8.34,6.74,58.54,58.54,0,0,1-30.15-2.27c-8.88-3.13-18.15-2.61-27-.46-5.59,1.35-10.52,2.63-16.4,2.66-7.16,0-12.46-2.77-15.89-8.65-1.32-2.27-2.5-4.67-4.71-6.31-1.61-1.19-1.58-2.38-1-4,8.64-24.93,9.53-50.58,8-76.46a13.2,13.2,0,0,0-.56-2.64c-.4-1.41-.08-2.45,1.68-2.15,5.84,1,11.4-1,17.13-1.16a88,88,0,0,1,43.18,10.34,175.22,175.22,0,0,0,21.37,10,18.89,18.89,0,0,1,8.52,5.93c3.42,4.32,2.17,9.89-2.76,12.65a4.94,4.94,0,0,1-4.69.15C366.47,259.55,364.33,257.64,363.51,259.26Z"/><path class="cls-4" d="M187.58,187a149.24,149.24,0,0,0,26.73,8.75c3.57.79,4.35,2.19,2.66,5.12a137,137,0,0,0-15.53,38.65,15.82,15.82,0,0,1-1.32,3.25c-3.34,6.94-4.82,7.15-12.74,4.89-14.67-4.19-29.53-7.84-44-12.66,0-.76,0-1.52-.06-2.27,3.29-1.34,3.76-4.32,5-6.84,2.51-2.48,5.21-4.87,5.49-8.51,2.47-.4,3.29-2.22,4.24-3.94,2.39-2.32,5.36-4.26,6.24-7.57a5.17,5.17,0,0,0,4.31-3.74c2.19-1.48,4.43-2.93,5.45-5.37,2.17-.6,3.71-1.75,4.22-3.8a9.61,9.61,0,0,0,6.26-5.36Z"/><path class="cls-5" d="M249.45,261.45c2.3.5,1.79-3.47,1.57-5.16-1.47-10.92,1.36-21.14,4.39-31.39,1.85-6.26,3.2-12.58,1.92-19.28-.73-3.89,1.49-5,5.66-3.63,10.43,3.45,13.8,15.41,11.21,24.47-4.09,14.28-4.65,28.88-4.59,43.57,0,1.71-.23,3.43,1,5.22,1,1.52,1.2-2.05,1.16-3.15-.56-15.38.26-30.62,4.46-45.5a18.29,18.29,0,0,0-.24-11.76c-.28-.75-.78-1.91.32-2.46.81-.4,1.42.43,2,.92,6.38,5.46,10.61,11.65,10.54,21-.15,21-.49,41.87-4.86,62.46a51.87,51.87,0,0,1-14.52,26.36,29,29,0,0,0-7,11.33c-1,3-2.21,6-3.21,9s-3.68,4.38-6.14,3.41c-11.81-4.63-24.35-4-36.53-6-4.19-.66-8.2-2.37-12.5-2.49-1.59,0-2.29-.76-2.19-2.49.85-14.78-3.94-28.36-8.43-42-7.26-15-17-42-13.25-47.44-.48-2.46,13.61,4,14.83,1.25a70.26,70.26,0,0,0,4.36-14.89,81.16,81.16,0,0,1,5.69-18.12c2.92-6.38,5.55-12.91,8.44-19.31,3.9-8.65,11.46-10.49,18.69-4.64,1.84,1.49,2.43,3.21,2.28,5.86-.61,11-4.5,21-8.67,30.93a69.76,69.76,0,0,0-4.91,17.22c-.12.86-.77,2.09.39,2.44,1.32.39,1.19-1,1.35-1.86,1.9-9.6,5.55-18.58,9.11-27.59a76,76,0,0,0,4.39-19c.59-4.89,2.84-6.37,7.49-5.35,7.83,1.73,11.83,7.16,12.16,16.54a40.75,40.75,0,0,1-2.57,15.69c-4.17,11.19-5,22.78-4.42,34.58C248.88,260.51,248.76,261.26,249.45,261.45Z"/><path class="cls-5" d="M198,450c-1.11-.85-2.09-2-3.67-1.74-.21-2.6-2.82-2.83-3.88-4.59a250.46,250.46,0,0,0,5.56-34c.21-2.59.54-3.49,3.15-2,6.05,3.44,12.64,5.49,19.21,7.46a90.35,90.35,0,0,1,16.38,6.17,27.51,27.51,0,0,0,12.35,3.06c2.88.06,3.6,1.51,4,4.24,1,7,.7,14.12,1,21.18.37,8,.35,16.07.5,24.11-4.93-.11-9.45-2.24-14-3.7a119.49,119.49,0,0,1-20.29-8.52,10.45,10.45,0,0,0-2.59-.64,6.72,6.72,0,0,0-3.65-1.65c-.17-.68-.37-1.35-1.06-1.61C206.22,456,202.6,452.05,198,450Z"/><path class="cls-2" d="M221.9,379.26c-8.58-1.68-17.41-2-25.89-4.28-2.88-.77-5.85-1.42-8.12-3.6-2.44-2.36-4.56-4.84-3.58-8.46,1.15-4.23,4-7.19,7.95-9.18a2.07,2.07,0,0,1,2.21.3c7.59,4.64,37.27,10.23,42.91,10.12,2.91-.06-2.63-2.72-4-3.16-7.39-2.35-15.18-2.37-22.77-3.58-5.82-.92-11.43-2.37-16.26-5.86a11.14,11.14,0,0,1-4.52-5.73c-1.94-6.44,3-12.17,9.83-11.22,13.13,1.83,26.07,4.89,39.43,5.06,4.55.06,8.71,2.17,13.08,3.26,5.65,1.41,12.81-16.37,14.64-15.19,9.91-1.62,19.19,17.79,26.34,25.62,1.32,1.08,2.45,2.64,4,3.2,5.36,1.94,5.32,5.36,3.83,9.86-1.39,4.16-1.68,8.58-1.9,13-.73,15.05-1.61,30.11-2.19,45.17-.14,3.45-2.66,3.16-4.62,3.48a56.94,56.94,0,0,1-18.65-.16c-9.86-1.65-19.84-1.48-29.72-2.56a14,14,0,0,1-4.24-1c-9.51-4.45-19.83-6.54-29.78-9.7-5.57-1.77-11-3.89-15.65-7.45-3.26-2.51-5.62-5.55-4.89-9.92.4-2.4,1.24-3.37,4.28-2.46,12.15,3.62,24.77,5.8,36.28,11.4a.82.82,0,0,0,.94-.31c1-1.63-2.1-2.06-3.33-2.63C218.1,398.92,208,396.7,198,394.1c-3-.78-6.23-.88-8.75-3.14-3.94-3.55-3.67-11.76.58-14.87a2.18,2.18,0,0,1,2.21-.32c9.33,3.38,38,9.15,41.91,6.87C234.22,382.42,226.24,380.1,221.9,379.26Z"/><path class="cls-3" d="M351.2,412c-3.15,9-3.05,30.68-3.79,35.34s-3.63,6.5-8,5.59c-5.12-1.06-8.74-6.61-8.72-11.89,0-8.55,1.44-17,1.88-25.46.09-1.81-.86-8.37-1.64-5.72-.62,2.09-2.1,21-1.73,27.21a20.6,20.6,0,0,1-1,6.18c-.58,2.3-2.24,3.79-4.49,3.64-7.36-.52-13-4.41-12-13.65,1-9.64,2.48-19.26,1.76-29-.05-.63.13-1.92-1-1.76-1.73.26-.81,2.81-.78,4.21.15,8.68-1,17.25-1.87,25.85-.36,3.49-1.94,5.73-5.39,6.11s-6-1.39-7.37-4.57a22.77,22.77,0,0,1-1.77-11.17c1.2-14.52,2.08-29.06,2.37-43.62.2-10,3-19.4,5.28-29,2-8.42,4.31-18.31,3.74-27-.13-2,3.63-2.74,5.75-3.38,6.89-2.07,9.54-2,15.29-2.31,4.63-.22,9-.29,13.28,1.34,7.07,2.68,15.88,4.89,23.47,4.74,1.58,0,1.69.36,1.94,2.67,1.57,14.4,7.88,25.91,14,38.63,1.08,2.24,2.19,4.46,3.12,6.77,1.67,4.13,1.33,14.79-.22,19.12-1.85,10-15.26,52.63-16.68,55.42-2.43,4.43-5.32,6.28-9.72,5.4-5.87-1.17-7.84-2.62-7-8.81,1.21-8.69,2.79-17.37,2.72-26.21C352.68,415.26,352.1,409.34,351.2,412Z"/><path d="M217.51,361.66a25.52,25.52,0,0,0,4.19.2,12.58,12.58,0,0,1,3.52.9c1.17.37,2.45.28,3.58.72a7.69,7.69,0,0,0,3.7.62,1.44,1.44,0,0,0,1.4-1.4,1.41,1.41,0,0,0-1.4-1.39,6.77,6.77,0,0,1-3.17-.6,7.45,7.45,0,0,0-1.87-.3,8.66,8.66,0,0,1-1.74-.42,14.55,14.55,0,0,0-3.62-.9,31,31,0,0,1-3.85-.12,1.43,1.43,0,0,0-1.71,1,1.4,1.4,0,0,0,1,1.71h0Z"/><path d="M209.56,381.7a40.18,40.18,0,0,1,7,.83,26.59,26.59,0,0,0,7,.63,1.44,1.44,0,0,0,1.39-1.4,1.41,1.41,0,0,0-1.39-1.39,25.51,25.51,0,0,1-6.8-.62,39.85,39.85,0,0,0-7.22-.84,1.38,1.38,0,0,0-1.28,1.49v0a1.41,1.41,0,0,0,1.28,1.28Z"/><path d="M349.18,419.35c.82,5.59-1.23,11.17-1.39,16.75a1.4,1.4,0,0,0,2.79,0c.16-5.88,2.16-11.57,1.29-17.5a1.41,1.41,0,1,0-2.77.54,1.21,1.21,0,0,0,0,.18Z"/><circle class="cls-6" cx="286.77" cy="316.61" r="165.5"/></svg>