<svg xmlns="http://www.w3.org/2000/svg" viewBox="0 0 576 576"><g id="Layer_1" data-name="Layer 1"><path d="M288.63,568.5A278.79,278.79,0,0,1,91.49,92.58,278.79,278.79,0,1,1,485.76,486.84,277,277,0,0,1,288.63,568.5Zm0-543.91c-146.19,0-265.12,118.94-265.12,265.12S142.44,554.83,288.63,554.83,553.74,435.9,553.74,289.71,434.81,24.59,288.63,24.59Z"/><path d="M276.87,342.3a40.51,40.51,0,0,1-10.93,9.28,54.3,54.3,0,0,1-13.73,5.72,51.27,51.27,0,0,1-12.84,1.9H45.61c-.51,0-.8-.29-.89-.88s-.12-1-.12-1.15a3.68,3.68,0,0,1,.76-1.27q.77-1,5.47-3.81t14.87-8.27q10.17-5.46,29-14.87h113.4a17.14,17.14,0,0,0,3.82-.64,33.42,33.42,0,0,0,5-1.65,20.94,20.94,0,0,0,4.33-2.42,3.94,3.94,0,0,0,1.9-3.18V280.38h58.23V330A19.08,19.08,0,0,1,276.87,342.3ZM190.55,268c-12.55-6.27-22.47-12.79-29.24-16.44s-11.74-6.39-14.88-8.26a30.48,30.48,0,0,1-5.47-3.69,2.58,2.58,0,0,1-.76-1.4,9.91,9.91,0,0,1,.13-1.14c.08-.59.38-.89.89-.89h98.15a50.87,50.87,0,0,1,12.84,1.91,53.93,53.93,0,0,1,13.73,5.72,40.16,40.16,0,0,1,10.93,9.28,19,19,0,0,1,4.45,12.33v2.29Z"/><path d="M338.28,308.86a75.48,75.48,0,0,1-15.13-1.53,52.39,52.39,0,0,1-13.48-4.57,30.21,30.21,0,0,1-9.66-7.5,15.67,15.67,0,0,1-3.69-10.3v-4.58H509.91q10.43,2,16.65,7.37a17,17,0,0,1,6.23,13.48V330a19,19,0,0,1-4.45,12.34,40.36,40.36,0,0,1-10.93,9.28,54.14,54.14,0,0,1-13.73,5.72,51.2,51.2,0,0,1-12.84,1.9H297.09c-.51,0-.81-.29-.89-.88a10,10,0,0,1-.13-1.15,3.68,3.68,0,0,1,.76-1.27q.76-1,5.47-3.81t14.87-8.27q10.17-5.46,29-14.87h113.4c13.5-.26,14.46-4.54,14.5-6.36.07-3.53,0-13.73,0-13.73Zm-42-43.48a19,19,0,0,1,4.45-12.33,40.05,40.05,0,0,1,10.94-9.28,53.79,53.79,0,0,1,13.73-5.72,50.8,50.8,0,0,1,12.84-1.91h194c.34,0,.55.3.64.89s.13,1,.13,1.14a2.55,2.55,0,0,1-.77,1.4c-.5.6-2.33,1.83-5.46,3.69s-8.1,4.62-14.88,8.26-16.28,10-28.82,16.28l-186.8-.13Z"/></g></svg>