<svg id="Layer_1" data-name="Layer 1" xmlns="http://www.w3.org/2000/svg" viewBox="0 0 576 576"><g id="Layer_1-2" data-name="Layer 1"><path d="M285.3,496.6C169.17,496.6,75,402.46,75,286.33a210.31,210.31,0,0,1,61.59-148.69c82-82.26,215.11-82.5,297.37-.53s82.51,215.1.54,297.37L434,435A208.89,208.89,0,0,1,285.3,496.6Zm0-410.24c-110.26,0-200,89.71-200,200s89.7,199.92,200,199.92,200-89.67,200-199.92-89.69-200-199.95-200Z"/><path d="M276.43,326a30.09,30.09,0,0,1-8.25,7,40.51,40.51,0,0,1-10.35,4.32,38.76,38.76,0,0,1-9.69,1.44H102c-.39,0-.61-.22-.68-.67a8.36,8.36,0,0,1-.09-.86,2.67,2.67,0,0,1,.58-1,19.51,19.51,0,0,1,4.08-2.87q3.52-2.12,11.23-6.23T139,315.92h85.56a12.32,12.32,0,0,0,2.88-.49,23.42,23.42,0,0,0,3.74-1.24,16.08,16.08,0,0,0,3.27-1.82,3,3,0,0,0,1.44-2.4V279.29H279.8v37.4A14.39,14.39,0,0,1,276.43,326Zm-65.12-56.07c-9.46-4.73-16.94-9.65-22.07-12.39s-8.85-4.84-11.21-6.24a23.52,23.52,0,0,1-4.13-2.78,1.88,1.88,0,0,1-.57-1,6.42,6.42,0,0,1,.09-.87c.06-.44.29-.67.68-.67h74a38.69,38.69,0,0,1,9.69,1.44,40.68,40.68,0,0,1,10.38,4.31,30.3,30.3,0,0,1,8.25,7,14.42,14.42,0,0,1,3.36,9.3v1.73Z"/><path d="M322.75,300.77a57.17,57.17,0,0,1-11.45-1.15,39.6,39.6,0,0,1-10.16-3.46,22.49,22.49,0,0,1-7.29-5.65,11.75,11.75,0,0,1-2.78-7.77v-3.45H452.19q7.88,1.54,12.56,5.56a12.79,12.79,0,0,1,4.7,10.14v21.67a14.31,14.31,0,0,1-3.36,9.3,30.21,30.21,0,0,1-8.23,7,41.22,41.22,0,0,1-10.34,4.34,38.61,38.61,0,0,1-9.68,1.44H291.68c-.38,0-.61-.22-.68-.67a6.27,6.27,0,0,1-.09-.86,2.79,2.79,0,0,1,.57-1,20.18,20.18,0,0,1,4.13-2.87c2.37-1.41,6.1-3.49,11.22-6.23s12.4-6.47,21.86-11.22h85.54c10.17-.2,10.9-3.42,10.92-4.79.06-2.67,0-10.36,0-10.36ZM291.1,268a14.31,14.31,0,0,1,3.36-9.3,30.3,30.3,0,0,1,8.25-7,40.48,40.48,0,0,1,10.35-4.31,38.72,38.72,0,0,1,9.69-1.41h146.3c.26,0,.42.23.49.67a8.55,8.55,0,0,1,.09.87,1.9,1.9,0,0,1-.58,1,23.5,23.5,0,0,1-4.08,2.78q-3.56,2.12-11.23,6.24c-5.11,2.74-12.26,7.54-21.74,12.26l-140.88-.09Z"/></g></svg>