<svg xmlns="http://www.w3.org/2000/svg" viewBox="0 0 576 576"><g id="Layer_1" data-name="Layer 1"><path d="M287.52,547.66A257.26,257.26,0,0,1,105.61,108.49,257.26,257.26,0,1,1,469.43,472.31,255.57,255.57,0,0,1,287.52,547.66Zm0-501.91C152.62,45.75,42.88,155.5,42.88,290.4S152.62,535,287.52,535,532.16,425.29,532.16,290.4,422.42,45.75,287.52,45.75Z"/><path d="M276.67,338.92a36.9,36.9,0,0,1-10.09,8.56,49.69,49.69,0,0,1-12.67,5.28,46.9,46.9,0,0,1-11.85,1.76H63.27c-.47,0-.74-.27-.82-.82a9.75,9.75,0,0,1-.12-1.05,3.49,3.49,0,0,1,.71-1.18q.7-.93,5-3.52t13.73-7.62q9.38-5,26.75-13.73H213.2a15.55,15.55,0,0,0,3.52-.59,29.62,29.62,0,0,0,4.58-1.52,19.63,19.63,0,0,0,4-2.23,3.66,3.66,0,0,0,1.76-2.93V281.79h53.73v45.75A17.54,17.54,0,0,1,276.67,338.92ZM197,270.32c-11.57-5.78-20.72-11.8-27-15.16s-10.83-5.91-13.72-7.63a28.59,28.59,0,0,1-5.05-3.4,2.35,2.35,0,0,1-.7-1.29,8.89,8.89,0,0,1,.11-1.06c.08-.54.36-.82.83-.82h90.56a47.35,47.35,0,0,1,11.85,1.76A49.69,49.69,0,0,1,266.58,248a37.25,37.25,0,0,1,10.09,8.56,17.56,17.56,0,0,1,4.11,11.38v2.12Z"/><path d="M333.34,308.07a69.67,69.67,0,0,1-14-1.41,48.3,48.3,0,0,1-12.44-4.23,27.63,27.63,0,0,1-8.92-6.92,14.42,14.42,0,0,1-3.4-9.5v-4.22H491.71q9.63,1.88,15.37,6.8A15.7,15.7,0,0,1,512.83,301v26.51a17.54,17.54,0,0,1-4.11,11.38,36.85,36.85,0,0,1-10.08,8.56A49.84,49.84,0,0,1,486,352.76a47,47,0,0,1-11.85,1.76H295.33c-.47,0-.75-.27-.83-.82a8.8,8.8,0,0,1-.11-1.05,3.38,3.38,0,0,1,.7-1.18q.71-.93,5.05-3.52t13.72-7.62q9.39-5,26.75-13.73H445.26c12.45-.24,13.34-4.18,13.37-5.86.07-3.26,0-12.67,0-12.67Zm-38.72-40.13a17.56,17.56,0,0,1,4.11-11.38A37.1,37.1,0,0,1,308.82,248a49.69,49.69,0,0,1,12.67-5.28A47.35,47.35,0,0,1,333.34,241h179c.31,0,.51.28.59.82a9.83,9.83,0,0,1,.12,1.06,2.38,2.38,0,0,1-.71,1.29,28.76,28.76,0,0,1-5,3.4q-4.35,2.58-13.73,7.63c-6.26,3.36-15,9.23-26.6,15l-172.37-.11Z"/></g></svg>