<svg id="Layer_1" data-name="Layer 1" xmlns="http://www.w3.org/2000/svg" viewBox="0 0 576 576"><defs><style>.cls-1{fill:#d2d3d3;}.cls-2{fill:#88878a;}.cls-3{fill:#923032;}.cls-4{fill:#01492d;}.cls-5{fill:#dfa53a;}.cls-6{fill:#cb9233;}.cls-7{fill:#842c32;}.cls-8{fill:#005c3b;}.cls-9{fill:#fff;}</style></defs><path class="cls-1" d="M414.16,490c-54.42-23.48-255-264.46-270.28-282.86l15.92-13.64Z"/><path class="cls-2" d="M413.81,489.71,159.45,193.2l16.36-14C191.64,197.1,399,432.33,413.81,489.71Z"/><path class="cls-3" d="M180.25,154.48,190,165.86l-3.07,2.63-11.21,11,.26.29-32.28,27.66-.25-.31-12.6,9.39-3.5,3-9.73-11.38Z"/><path class="cls-3" d="M157.64,173.86l-17,14.52c-6.54-4-19.9-21.62-30.22-36.11-7.35-8.55-13.54-15.83-15.26-18.08C90.54,130,73,118.8,73,118.8s1.48-9.07,7.16-15.08c.09-.09.17-.19.26-.27l.27-.28.36-.35a4,4,0,0,1,.3-.28c.19-.17.38-.34.59-.51l.32-.25.4-.3.31-.22.32-.22c6.8-4.69,16-4.75,16-4.75s8.35,18.94,11.76,24.25c1.91,2,8.18,9.25,15.54,17.88C139.32,150.85,154.69,166.77,157.64,173.86Z"/><path class="cls-1" d="M155.41,484.87c54.42-23.49,255-264.47,270.28-282.87l-15.92-13.64Z"/><path class="cls-2" d="M155.31,485l254.36-296.5-16.36-14C377.49,192.37,170.15,427.59,155.31,485Z"/><path class="cls-4" d="M389.32,150.2l-9.76,11.38,3.07,2.63,11.21,11-.26.3,32.28,27.65.26-.3,12.57,9.39,3.5,3,9.75-11.39Z"/><path class="cls-4" d="M411.93,169.56l17,14.52c6.54-4,19.9-21.62,30.22-36.1,7.35-8.55,13.54-15.83,15.26-18.09,4.67-4.18,22.2-15.38,22.2-15.38s-1.48-9.06-7.16-15.07l-.26-.28-.27-.27c-.09-.09-.23-.24-.36-.35s-.19-.19-.3-.28-.39-.35-.59-.51l-.32-.25-.4-.31L486.6,97l-.32-.21c-6.8-4.69-16-4.76-16-4.76s-8.35,18.94-11.77,24.26c-1.91,2-8.18,9.25-15.54,17.87C430.25,146.57,414.88,162.49,411.93,169.56Z"/><path class="cls-5" d="M168.28,204.33c-7.13,60.33.65,106.4,15,141.34.7,1.72,1.43,3.43,2.18,5.11a188.07,188.07,0,0,0,44.23,62.46q3.21,3,6.38,5.65c24.71,20.85,46.64,28.05,47.55,28.34V171.72C255.53,194.71,168.28,204.33,168.28,204.33Z"/><path class="cls-6" d="M335.27,415.83a176.26,176.26,0,0,1-51.64,31.4h0V434.12h0a162.15,162.15,0,0,0,34.88-19Q327.23,415.35,335.27,415.83Z"/><path class="cls-6" d="M385.09,341.48q-5.32-.84-10.58-1.59c23.43-62.06,12.67-127.4,12.67-127.4-77.4-3.37-103.55-26-103.55-26l0,0V171.7l0,0s29.09,25.16,115.24,28.91C398.87,200.59,410.73,272.68,385.09,341.48Z"/><path class="cls-7" d="M318.51,415.1a162.15,162.15,0,0,1-34.88,19h0V415.24C295.93,414.8,307.6,414.8,318.51,415.1Z"/><path class="cls-7" d="M374.51,339.89a577.24,577.24,0,0,0-90.91-5.7V186.55l0,0s26.15,22.6,103.55,26C387.18,212.49,397.94,277.83,374.51,339.89Z"/><path class="cls-3" d="M283.6,186.55V434.12c-.68-.22-14.34-4.7-31.65-16.91q-3.7-2.59-7.6-5.69a167.8,167.8,0,0,1-48.47-63c-.76-1.67-1.49-3.37-2.21-5.1-13-31.45-20.16-73-13.71-127.6C180,215.85,258.38,207.2,283.6,186.55Z"/><path class="cls-5" d="M193.67,343.45q-5.61,1.11-10.41,2.2a252.65,252.65,0,0,0-25.8,7l1.87,80.76a570.93,570.93,0,0,1,76.72-14.51q8.1-1,15.9-1.67c11-1,21.53-1.64,31.65-2v-81A512.48,512.48,0,0,0,193.67,343.45Z"/><path class="cls-6" d="M415.23,427.49s-30.3-8.74-80-11.66c-5.36-.31-10.95-.56-16.76-.72-10.91-.3-22.58-.3-34.91.12v-6.42c15.47-.53,29.82-.38,42.83.18q8,.35,15.25.9c39.79,2.87,63.66,9.2,63.66,9.2l-1.6-69q-10.44-2-20.58-3.6-5.36-.84-10.62-1.56a575.09,575.09,0,0,0-88.94-5.35v-5.37a577.24,577.24,0,0,1,90.91,5.7c3.49.49,7,1,10.58,1.59q13.85,2.24,28.27,5.24Z"/><path class="cls-8" d="M283.6,339.56v69.26c-12.4.43-25.52,1.28-39.25,2.7q-7.23.75-14.68,1.72A568.57,568.57,0,0,0,169,424.53l-1.59-69s6.34-2.08,18.08-4.74q4.67-1.06,10.44-2.21A503.6,503.6,0,0,1,283.6,339.56Z"/><path class="cls-4" d="M405.34,419.07s-23.87-6.33-63.66-9.2q-7.28-.53-15.25-.9c-13-.56-27.36-.71-42.83-.18V339.53a575.11,575.11,0,0,1,88.94,5.38q5.26.7,10.62,1.56,10.13,1.57,20.58,3.6Z"/><path class="cls-9" d="M195.89,225.77v3.1s13.39-3.33,13.14,15.47-.94,69.74-.94,69.74.94,8.33-12.2,8.09v3h40.37V321.7s-13.37,2.37-13.61-9.05-.23-36.18-.23-36.18l36.85,36.66s6.1,8.09-5.85,8.8l.23,3.21h40.14v-3.92a67.14,67.14,0,0,1-21.14-14.28c-10.35-10.23-36.39-36.78-36.39-36.78s38.57-43.37,50.35-40.93l.24-3.45H250.69l-.11,3.21s16.19-1.54,6.1,10-33.91,34.27-33.91,34.27l-.12-35S222,227,236.26,229l.13-3.22Z"/><path class="cls-9" d="M293.51,225.77v3.34l37,47.29-37,44.81v3.93h72.86l4.95-29.1-3.35-.53s-2.05,17.61-21.65,17.49-37.78-.12-37.78-.12l34.15-42.37-30.51-38.38,35.56-.17s15.14.35,16,18.38l3,.18-2.46-24.74Z"/><g id="EasternCT"><path class="cls-9" d="M214,374.93q-.12-3.65-.27-6.07t-.52-6.47c-.24-2.7-.41-4.48-.53-5.34-.07-.49-.1-.73-.18-1.22,2.39-.3,5.27-.66,8.65-1.06l8.26-1v.45c0,.12,0,.52,0,1.22s.05.9.08,1.52a8.24,8.24,0,0,0,.07,1c-1.95.13-3.58.28-4.9.42s-2.42.28-2.92.35-1.3.18-2.37.35c.09,1.29.13,1.94.21,3.22,1.18-.12,2.56-.26,4.13-.45.56-.06,2-.27,4.45-.6q0,1.8.18,4.29c-1.71.16-3,.31-4,.41-1.35.16-2.9.37-4.58.65.1,1.35.14,2,.24,3.4l1.7-.21,3.11-.41,3.06-.41c.45-.07,1.21-.18,2.25-.36,0,1.38.08,2.82.16,4.29-2.39.24-5,.52-7.87.87-2.58.32-3.88.48-6.46.82Z"/><path class="cls-9" d="M231.17,372.86l1-2.14q3.13-7.19,6.4-14.33l.69-1.6c.21-.47.49-1.14.85-2l3.91-.3,4-.34c1.07,2.25,1.6,3.4,2.64,5.67,2.11,4.35,3.15,6.54,5.19,10.91l1,2-3.1.17c-.83.06-2,.15-3.64.29q-1-2.7-2.29-5.28c-3,.23-4.5.36-7.49.63q-1.06,2.57-2.16,5.65l-3.36.3C234,372.54,232.83,372.65,231.17,372.86Zm10.58-10.58c1.86-.16,2.79-.24,4.65-.38l-2.35-5.27c-.55,1.42-1,2.59-1.4,3.5Z"/><path class="cls-9" d="M258.18,370.32c-.25-2-.5-3.56-.74-4.75a16.7,16.7,0,0,0,3,.8,11.08,11.08,0,0,0,2.3.15,5.13,5.13,0,0,0,2-.45,1.15,1.15,0,0,0,.72-1.1,1.4,1.4,0,0,0-.1-.45,1.79,1.79,0,0,0-.3-.47,3.39,3.39,0,0,0-.63-.57l-2.94-2.15q-1-.74-1.44-1.05A9.27,9.27,0,0,1,258.8,359a4.6,4.6,0,0,1-.73-1.22,4.56,4.56,0,0,1-.05-3,4.74,4.74,0,0,1,.9-1.59,5.57,5.57,0,0,1,1.66-1.35,8,8,0,0,1,2.27-.83,16.8,16.8,0,0,1,2.54-.32A30.3,30.3,0,0,1,271,351c.05.64.11,1.23.17,1.77s.2,1.47.4,2.81a13.55,13.55,0,0,0-2.57-.62,11.08,11.08,0,0,0-2-.12,4.21,4.21,0,0,0-1.94.5,1.18,1.18,0,0,0-.73,1,1.33,1.33,0,0,0,.15.55,2.75,2.75,0,0,0,.48.6,8,8,0,0,0,.9.74c.37.27,1,.66,1.75,1.19l1.12.75c.33.23.68.51,1.07.84a9.26,9.26,0,0,1,1,1,5.78,5.78,0,0,1,.66.9,5.14,5.14,0,0,1,.35.84,3.84,3.84,0,0,1,.14.9,4.84,4.84,0,0,1-.55,2.42A5.25,5.25,0,0,1,269.7,369a7.86,7.86,0,0,1-2.52,1.14,14.52,14.52,0,0,1-2.93.45A37.3,37.3,0,0,1,258.18,370.32Z"/><path class="cls-9" d="M279.57,369.69c.43-5,.49-10,.52-15-2.57.12-3.86.19-6.43.34l0-1.56v-2.73q4.32-.12,10.08-.24l3.77-.06c1.51,0,2.19,0,3.66,0l2,0c0,.55,0,.83-.08,1.37,0,.74-.06,1.35-.08,1.83s0,.85,0,1.09c-2.16-.1-3.94-.13-5.34-.11H286.6c-.13,1.65-.22,3.18-.28,4.57-.09,2-.14,4-.18,5.85s0,3.42,0,4.58H283C282.55,369.6,281.41,369.63,279.57,369.69Z"/><path class="cls-9" d="M294.28,369.51c.25-2.42.43-4.43.54-6.06s.23-3.79.35-6.48.18-4.5.18-5.36v-1.23c2.39,0,5.3.05,8.7.09l8.31.15-.05.45c0,.11,0,.52-.11,1.21l-.13,1.52q0,.49-.06,1c-1.94-.13-3.6-.2-4.9-.23l-2.95,0c-.51,0-1.3,0-2.38,0-.09,1.28-.13,1.92-.22,3.22q1.8.06,4.14.09h4.5c-.13,1.2-.26,2.63-.39,4.27-1.73-.06-3.05-.09-4-.11-1.37,0-2.91,0-4.62,0-.08,1.35-.12,2-.21,3.4h7.93c.45,0,1.22,0,2.3-.06-.16,1.38-.3,2.81-.41,4.28q-3.6-.12-7.91-.18c-2.6,0-3.9,0-6.5,0Z"/><path class="cls-9" d="M314.21,369.8c.24-1.64.44-3.11.59-4.42s.3-2.84.45-4.57.26-3.57.36-5.49.18-3.46.22-4.61c1.27.08,2.29.13,3.07.16s1.8.05,3,.06,2.3,0,3.41.09a34.71,34.71,0,0,1,3.47.32,9.07,9.07,0,0,1,2.05.52,5.84,5.84,0,0,1,1.53.84,4.48,4.48,0,0,1,1,1.06,4.05,4.05,0,0,1,.58,1.33,4.93,4.93,0,0,1,.14,1.58,5.69,5.69,0,0,1-.37,1.74,5,5,0,0,1-.89,1.49,5.27,5.27,0,0,1-1.46,1.16,12.63,12.63,0,0,1-2.39.94l.67,1.82c.2.51.4,1,.62,1.55l1.75,4.22c.07.18.21.54.4,1.08-1.62-.12-2.7-.19-3.27-.22s-1.87-.1-3.48-.16c-.13-.5-.38-1.41-.73-2.75-.14-.55-.26-1-.37-1.29-.2-.68-.51-1.62-.92-2.84-.54-1.61-.82-2.42-1.35-4.05a8.45,8.45,0,0,0,1.58.21,5.91,5.91,0,0,0,2-.21,2.67,2.67,0,0,0,1.4-.9,2.29,2.29,0,0,0,.53-1.35,1.63,1.63,0,0,0-.29-1.07,2,2,0,0,0-1.06-.73,8.53,8.53,0,0,0-2.3-.34c-.35,0-.72,0-1.1,0s-.82,0-1.34,0q-.31,2.86-.65,7c-.22,2.75-.39,5.45-.53,8.1l-3.21-.16C316.73,369.85,315.7,369.83,314.21,369.8Z"/><path class="cls-9" d="M335.44,370.85l.5-2.91c.5-4,.75-5.95,1.25-9.89l.45-4,.15-2.18,4.17.33,3.65.26q2.81,5.67,5.49,11.39l.74,1.68q.38-2.34,1-6.54t.73-5.85l3,.31,3,.28c-.32,1.64-.48,2.47-.79,4.11-.75,4.6-1.12,6.89-1.86,11.48l-.45,3.33c-1.28-.16-2.48-.28-3.6-.39-.9-.09-2.2-.2-3.84-.33-.45-.95-.75-1.65-.95-2.08l-2.15-4.19q-1.08-2.06-2-3.93c-.4-.8-.81-1.66-1.23-2.6l-.83,6.6c-.24,2.25-.35,3.34-.58,5.56-1.22-.11-2.15-.19-2.79-.23S336.93,370.93,335.44,370.85Z"/><path class="cls-9" d="M194.5,401.89v2.33c0,1,0,1.77.07,2.31a41.15,41.15,0,0,1-5.23,1.4,15.44,15.44,0,0,1-4.29.24,10.73,10.73,0,0,1-3.92-1.13,7.52,7.52,0,0,1-2.93-2.52,11.11,11.11,0,0,1-1.45-8.36,8.82,8.82,0,0,1,2.09-3.87,11.85,11.85,0,0,1,3.6-2.68,17.71,17.71,0,0,1,4.37-1.41,32,32,0,0,1,5.36-.42c.09.45.13.7.23,1.16s.23,1.05.38,1.65.22.94.37,1.56c-1.16-.06-2.09-.08-2.8,0a15.76,15.76,0,0,0-1.94.21,8,8,0,0,0-3.33,1.39,5.76,5.76,0,0,0-2,2.62,5.94,5.94,0,0,0-.27,3.31,4.89,4.89,0,0,0,1.26,2.55,5,5,0,0,0,2.29,1.35,7.26,7.26,0,0,0,3.18,0,17.72,17.72,0,0,0,2.14-.56A29.52,29.52,0,0,0,194.5,401.89Z"/><path class="cls-9" d="M206.58,384.91a16.37,16.37,0,0,1,4.53-.06,10,10,0,0,1,4,1.4,8.54,8.54,0,0,1,2.79,2.69,9.52,9.52,0,0,1,1.3,3.84,10.66,10.66,0,0,1-.31,4.39,9.06,9.06,0,0,1-2,3.64,10.19,10.19,0,0,1-3.53,2.53,17.59,17.59,0,0,1-4.5,1.3,16.63,16.63,0,0,1-4.62.08,10.14,10.14,0,0,1-4.09-1.38,8.19,8.19,0,0,1-2.79-2.7A10.15,10.15,0,0,1,196,397a9.89,9.89,0,0,1,.54-5.56,9.57,9.57,0,0,1,3.73-4.28A15.33,15.33,0,0,1,206.58,384.91Zm.36,4.2a5.9,5.9,0,0,0-2.85,1.24,5.24,5.24,0,0,0-1.7,2.49,6.53,6.53,0,0,0-.24,3.1,5.78,5.78,0,0,0,1.07,2.58,4.59,4.59,0,0,0,2.25,1.6,6,6,0,0,0,2.87.26,5.58,5.58,0,0,0,2.75-1.19,5,5,0,0,0,1.68-2.45,6.58,6.58,0,0,0,.28-3,6.08,6.08,0,0,0-1-2.65,4.62,4.62,0,0,0-2.17-1.68,5.8,5.8,0,0,0-2.89-.28Z"/><path class="cls-9" d="M222.77,402.36l-.09-3c-.27-4-.41-6-.68-10-.14-1.6-.2-2.41-.34-4-.11-.87-.16-1.3-.26-2.17l4-.45,3.46-.43c3,4.05,4.41,6.09,7.28,10.17l1,1.51q-.07-2.35-.32-6.6c-.17-2.83-.3-4.78-.41-5.85l2.86-.24,2.83-.29c0,1.68,0,2.51,0,4.19.15,4.65.23,7,.4,11.61.09,1.35.13,2,.22,3.35-1.22.09-2.36.19-3.42.29-.88.08-2.1.21-3.65.39-.58-.86-1-1.48-1.28-1.86-1.12-1.5-1.68-2.25-2.8-3.72-.92-1.22-1.8-2.38-2.59-3.5-.52-.7-1.06-1.48-1.63-2.32l.45,6.64c.19,2.24.29,3.34.5,5.57l-2.65.28C225.11,402,224.15,402.16,222.77,402.36Z"/><path class="cls-9" d="M246.32,399.88c0-1.18,0-1.77,0-3-.11-4-.16-6-.27-10-.07-1.61-.1-2.41-.17-4l-.2-2.16,4-.29,3.48-.28c2.78,4.17,4.15,6.26,6.85,10.46l.93,1.55q0-2.37-.05-6.61t-.17-5.88l2.86-.13,2.85-.17-.15,4.19c0,4.65-.05,7-.08,11.62,0,1.35.05,2,.09,3.35-1.23,0-2.37.09-3.43.15-.9.05-2.1.13-3.66.25-.54-.9-.94-1.53-1.2-1.92-1.05-1.54-1.58-2.3-2.64-3.84q-1.32-1.87-2.44-3.59c-.49-.73-1-1.53-1.54-2.4.07,2.67.11,4,.18,6.65l.27,5.6c-1.16.06-2,.12-2.65.17S247.73,399.74,246.32,399.88Z"/><path class="cls-9" d="M269.93,398.38q.19-3.63.26-6.08c0-1.62.06-3.79.05-6.49s0-4.49-.05-5.36l-.07-1.23q3.44-.12,8.31-.26c3-.08,5.64-.15,7.93-.19l0,.45c0,.11,0,.51-.05,1.21l-.07,1.52v1q-2.79-.07-4.68,0l-2.81.08c-.49,0-1.25.06-2.28.13,0,1.29,0,1.94-.07,3.23,1.13,0,2.45,0,3.95-.07.54,0,2-.09,4.29-.19-.08,1.2-.14,2.62-.2,4.28-1.65,0-2.91,0-3.79.05-1.32,0-2.78.11-4.41.22,0,1.35,0,2.05-.06,3.41l1.63-.05c.48,0,1.48-.06,3-.12l2.94-.13c.45,0,1.16-.07,2.18-.15-.1,1.38-.17,2.81-.22,4.29-2.29,0-4.8.06-7.53.14-2.48.08-3.72.12-6.2.23Z"/><path class="cls-9" d="M305.69,393.27c-.13.54-.27,1.31-.45,2.29s-.3,1.74-.36,2.28a40.71,40.71,0,0,1-5.4.37,15.24,15.24,0,0,1-4.25-.58,10.67,10.67,0,0,1-3.59-1.85,7.5,7.5,0,0,1-2.39-3,11.17,11.17,0,0,1,.17-8.48,8.84,8.84,0,0,1,2.78-3.4,11.67,11.67,0,0,1,4-1.94,17.37,17.37,0,0,1,4.54-.55,31.87,31.87,0,0,1,5.33.6v1.18c0,.47,0,1.08,0,1.7l.07,1.6c-1.12-.29-2-.45-2.72-.58a14.24,14.24,0,0,0-1.95-.16,7.74,7.74,0,0,0-3.51.72,5.8,5.8,0,0,0-2.46,2.19,5.94,5.94,0,0,0-.9,3.2,4.81,4.81,0,0,0,2.75,4.52,7,7,0,0,0,3.1.65,16.1,16.1,0,0,0,2.19-.14A30,30,0,0,0,305.69,393.27Z"/><path class="cls-9" d="M312.58,398.1c.68-5,1-10,1.31-15h-6.15c0-.62.06-.93.11-1.55,0-.83.1-1.74.14-2.73q4.14.11,9.63.31l3.6.14c1.4.05,2.09.09,3.49.16l1.89.08c-.07.55-.1.82-.16,1.35q-.12,1.1-.18,1.8c0,.47-.06.84-.08,1.09-2.05-.22-3.74-.35-5.08-.41l-1,0c-.22,1.64-.39,3.16-.53,4.56q-.29,3-.48,5.82c-.14,1.89-.23,3.41-.28,4.57l-3-.14C315.37,398.13,314.33,398.14,312.58,398.1Z"/><path class="cls-9" d="M326.67,398.7c.7-5.74,1.43-11.47,1.8-17.24l.09-1.8,3.4.23,3.15.17c-.32,2.09-.6,4.05-.82,5.93-.32,2.59-.57,5-.78,7.3s-.36,4.2-.45,5.81l-2.88-.22Z"/><path class="cls-9" d="M353.53,396.12c-.17.53-.38,1.28-.65,2.25s-.45,1.71-.54,2.25a40.53,40.53,0,0,1-5.4-.07,15.89,15.89,0,0,1-4.19-.93,10.81,10.81,0,0,1-3.46-2.15,7.33,7.33,0,0,1-2.12-3.21,11.15,11.15,0,0,1,.86-8.45,8.94,8.94,0,0,1,3.05-3.15,11.7,11.7,0,0,1,4.18-1.6,17.58,17.58,0,0,1,4.58-.18,31.4,31.4,0,0,1,5.26,1.05L355,383.1c0,.51-.06,1.08-.08,1.7s0,1-.06,1.59c-1.1-.37-2-.64-2.68-.8a15.69,15.69,0,0,0-1.92-.32,7.89,7.89,0,0,0-3.57.45,5.77,5.77,0,0,0-2.64,2,6.15,6.15,0,0,0-1.15,3.12,5,5,0,0,0,.52,2.79,5.09,5.09,0,0,0,1.84,1.93,7.2,7.2,0,0,0,3,.9,16.16,16.16,0,0,0,2.2,0A28,28,0,0,0,353.53,396.12Z"/><path class="cls-9" d="M358.62,382.1l3.19.38,3.08.32-1.12,5.85c-.22,1.1-.4,2.14-.56,3.11s-.26,1.64-.3,2a8.34,8.34,0,0,0-.05,1.8,2.85,2.85,0,0,0,.42,1.27,2.5,2.5,0,0,0,1.06.9,4.46,4.46,0,0,0,1.48.45,4.29,4.29,0,0,0,1.29,0,3.1,3.1,0,0,0,.9-.31,2.61,2.61,0,0,0,.63-.51,4.36,4.36,0,0,0,.66-.93,6.27,6.27,0,0,0,.52-1.41c.16-.59.45-2,.9-4.09.36-1.8.68-3.49.94-5a13.73,13.73,0,0,1,.45-2.19l3.45.45c1.17.15,1.76.23,2.93.4-.84,3.91-1.26,5.85-2.08,9.76,0,.18-.06.33-.08.45a19.22,19.22,0,0,1-.93,4,5.56,5.56,0,0,1-1.29,1.92,6.59,6.59,0,0,1-2.25,1.3,10.46,10.46,0,0,1-3.18.59,21.53,21.53,0,0,1-3.5-.14,19.17,19.17,0,0,1-3-.59,11.67,11.67,0,0,1-2.36-.92,9.24,9.24,0,0,1-1.77-1.21,4.85,4.85,0,0,1-1-1.2,4.53,4.53,0,0,1-.48-1.38,6.3,6.3,0,0,1-.05-1.89,8.27,8.27,0,0,1,.13-1c.07-.45.18-1.09.33-1.93s.26-1.33.43-2.21c.11-.58.26-1.43.45-2.56C358.11,385.39,358.28,384.3,358.62,382.1Z"/><path class="cls-9" d="M382.29,404.47c1.28-4.85,2.21-9.76,3.12-14.69-2.45-.32-3.67-.45-6.12-.76l.29-1.53c.15-.82.31-1.72.47-2.7,2.73.42,5.92.9,9.55,1.49l3.57.56c1.42.23,2.07.35,3.45.59l1.88.31-.33,1.35q-.26,1.08-.39,1.8c-.1.49-.17.83-.21,1.07-2-.45-3.7-.79-5-1l-1-.17c-.42,1.61-.78,3.09-1.08,4.46-.45,2-.82,3.87-1.19,5.72s-.63,3.36-.82,4.5c-1.52-.27-2.51-.45-2.95-.5S384,404.72,382.29,404.47Z"/></g></svg>