<svg xmlns="http://www.w3.org/2000/svg" viewBox="0 0 576 576"><defs><style>.a{fill:#d1d2d2;}.a,.b,.d,.e,.f{stroke:#231f20;stroke-width:2.07px;}.a,.b,.d,.e,.f,.g,.i,.k{stroke-miterlimit:10;}.b{fill:#878689;}.c{fill:#8a191c;}.d{fill:#903032;}.e,.h{fill:#913032;}.f,.i{fill:#005c3b;}.g{fill:#dea43a;stroke:#846f00;stroke-width:0.69px;}.i,.k{stroke:#dea43a;}.i{stroke-width:3.46px;}.j,.k{fill:#fff;}.k{stroke-width:2.07px;}</style></defs><title>Logos</title><path class="a" d="M412,491.4c-61.78-26.65-289.45-300.17-306.76-321l18.07-15.48Z"/><path class="b" d="M413.49,490.12,124.8,153.6l18.57-15.91C161.33,158,396.64,425,413.49,490.12Z"/><path class="c" d="M147.21,109.84l11.07,12.92-3.48,3L142.07,138.2l.3.34-36.64,31.39-.29-.35L91.18,180.24l-4,3.41L76.13,170.72Z"/><rect class="d" x="70.94" y="138.04" width="93.59" height="18.65" transform="translate(-67.55 112.04) rotate(-40.58)"/><path class="e" d="M121.54,131.82,102.3,148.31c-7.43-4.53-22.59-24.54-34.31-41-8.34-9.71-15.36-18-17.31-20.53-5.31-4.74-25.2-17.46-25.2-17.46s1.68-10.29,8.12-17.1c.11-.11.2-.22.3-.31s.2-.22.31-.32l.4-.4.34-.32.67-.57L36,50l.45-.34.36-.25.35-.25c7.73-5.32,18.15-5.4,18.15-5.4s9.47,21.5,13.36,27.54c2.16,2.25,9.28,10.49,17.63,20.29C100.75,105.72,118.2,123.8,121.54,131.82Z"/><path class="f" d="M551.72,63.42s-19.86,12.7-25.19,17.46c-1.94,2.53-9,10.82-17.32,20.53-11.72,16.45-26.88,36.46-34.31,41l-19.24-16.49c3.34-8,20.79-26.11,35.24-40.21,8.36-9.79,15.48-18,17.64-20.28,3.89-6,13.35-27.54,13.35-27.54s10.43.08,18.16,5.4l.35.24.36.26.45.34.36.29c.23.19.46.38.67.57l.34.32c.15.13.28.26.41.39l.31.32.29.31C550,53.14,551.72,63.42,551.72,63.42Z"/><path class="a" d="M165.2,485.48C227,458.84,454.64,185.31,472,164.44L453.89,149Z"/><path class="b" d="M163.71,484.21,452.4,147.68l-18.57-15.9C415.86,152.1,180.55,419.07,163.71,484.21Z"/><path class="c" d="M430,103.93l-11.07,12.92,3.48,3,12.72,12.46-.3.34L471.47,164l.28-.34L486,174.33l4,3.4,11.06-12.92Z"/><rect class="f" x="450.13" y="94.66" width="18.65" height="93.59" transform="translate(53.13 398.38) rotate(-49.42)"/><path class="a" d="M130.72,533.23c56-24.16,262.49-272.22,278.2-291.15l-16.39-14Z"/><path class="b" d="M129.37,532.08,391.18,226.89l-16.84-14.43C358,230.89,144.64,473,129.37,532.08Z"/><path class="a" d="M451.79,531.92c-56-24.17-262.49-272.23-278.2-291.16l16.39-14Z"/><path class="b" d="M453.14,530.76,191.33,225.57l16.84-14.43C224.46,229.57,437.86,471.69,453.14,530.76Z"/><path class="g" d="M288.54,114.69s40.21,34.75,159.21,39.92c0,0,42.78,259.94-159.21,340.76,0,0-191.89-60.61-159.37-335.59C129.17,159.78,249.81,146.48,288.54,114.69Z"/><path class="h" d="M289.2,125.79s37.62,32.51,149,37.35c0,0,40,243.27-149,318.9,0,0-179.59-56.72-149.15-314.06C140.05,168,253,155.53,289.2,125.79Z"/><path class="i" d="M110,353.37S260.57,304,473.47,345l2.45,106.11s-157.34-41.7-363.43,8.39Z"/><path class="j" d="M157.57,169.86v4.76s20.56-5.12,20.2,23.78-1.44,107.22-1.44,107.22,1.44,12.81-18.76,12.44v4.57h62.06v-5.3S199.06,321,198.7,303.42s-.36-55.62-.36-55.62L255,304.15s9.38,12.45-9,13.54l.36,4.94H308v-6a102.79,102.79,0,0,1-32.47-22c-15.88-15.73-55.93-56.53-55.93-56.53s61.88-71,77.4-62.94l.36-5.31H241.82l-.18,4.94s24.9-2.38,9.38,15.37-52.14,52.69-52.14,52.69l-.18-53.79s-1.08-17.38,20.93-14.27l.18-4.94Z"/><path class="j" d="M308,169.86V175l56.83,72.72L308,316.6v6h112l7.58-44.73-5.14-.82s-3.16,27.07-33.29,26.89-58.09-.18-58.09-.18l52.5-65.13-46.91-59,54.67-.27s23.27.55,24.62,28.26l4.6.28-3.79-38.06Z"/><path class="k" d="M146.2,422.72c0,.88-.07,2.1-.07,3.67s0,2.77.06,3.62a62.9,62.9,0,0,1-8.26,2.09,25.09,25.09,0,0,1-6.76.27A17.08,17.08,0,0,1,125,430.5a11.67,11.67,0,0,1-4.54-4,16,16,0,0,1-2.25-5.85,16.23,16.23,0,0,1,.17-7.33,14.06,14.06,0,0,1,3.39-6,18.53,18.53,0,0,1,5.73-4.12,27.3,27.3,0,0,1,6.91-2.11,49,49,0,0,1,8.43-.53l.33,1.81c.16.8.35,1.67.56,2.62s.37,1.63.55,2.45c-1.82-.13-3.29-.17-4.4-.14a23.15,23.15,0,0,0-3.06.28,12.4,12.4,0,0,0-5.26,2.1,9,9,0,0,0-3.22,4.07,9.35,9.35,0,0,0-.5,5.19,7.68,7.68,0,0,0,1.91,4,7.88,7.88,0,0,0,3.58,2.19,11.26,11.26,0,0,0,5,.14,26.87,26.87,0,0,0,3.37-.82A42.56,42.56,0,0,0,146.2,422.72Z"/><path class="k" d="M165.64,396.32a25.78,25.78,0,0,1,7.13,0,15.7,15.7,0,0,1,6.25,2.28,13.47,13.47,0,0,1,4.32,4.31,14.84,14.84,0,0,1,1.95,6.05,17,17,0,0,1-.57,6.9,14.59,14.59,0,0,1-3.26,5.68,16.26,16.26,0,0,1-5.62,3.88,27.18,27.18,0,0,1-7.11,1.94,26.76,26.76,0,0,1-7.26,0,16.06,16.06,0,0,1-6.4-2.27,12.76,12.76,0,0,1-4.33-4.28,16.08,16.08,0,0,1-2-5.73,15.4,15.4,0,0,1,1-8.72,15,15,0,0,1,6-6.64A24.38,24.38,0,0,1,165.64,396.32Zm.47,6.63a9.1,9.1,0,0,0-4.52,1.87,8.26,8.26,0,0,0-2.74,3.88,10.25,10.25,0,0,0-.44,4.86,9,9,0,0,0,1.62,4.08,7.19,7.19,0,0,0,3.5,2.56,9.42,9.42,0,0,0,4.52.48,8.71,8.71,0,0,0,4.35-1.81,8,8,0,0,0,2.7-3.81,10.45,10.45,0,0,0,.5-4.73,9.32,9.32,0,0,0-1.55-4.19,7.26,7.26,0,0,0-3.37-2.69A8.93,8.93,0,0,0,166.11,403Z"/><path class="k" d="M190.62,424.12c0-1.55,0-3.09-.07-4.64q-.42-7.85-.83-15.68-.22-3.17-.44-6.31c-.13-1.14-.25-2.28-.37-3.42l6.26-.62,5.45-.58q5.69,8,11.2,16.14c.52.8,1,1.59,1.53,2.39,0-2.47-.15-5.93-.35-10.38s-.36-7.52-.5-9.22l4.5-.32,4.46-.39-.06,6.58.36,18.26.27,5.26c-1.92.12-3.72.25-5.38.38-1.39.12-3.3.29-5.75.54q-1.34-2.06-2-3c-1.43-2-2.86-3.94-4.31-5.91s-2.75-3.78-4-5.55q-1.2-1.67-2.52-3.69.27,5.22.56,10.44l.66,8.77c-1.83.16-3.22.29-4.18.39C194.35,423.68,192.83,423.85,190.62,424.12Z"/><path class="k" d="M227.75,420.78c.05-1.55.09-3.1.13-4.65q-.1-7.85-.2-15.7l-.18-6.32-.23-3.43,6.27-.36L239,390q5.36,8.26,10.53,16.59L251,409c.06-2.47.08-5.94.07-10.39s0-7.53-.13-9.23l4.51-.14,4.47-.2q-.17,3.29-.32,6.57-.21,9.13-.39,18.26c0,1.76,0,3.51.05,5.27-1.92,0-3.72.09-5.39.16-1.38.06-3.3.15-5.75.3-.84-1.4-1.46-2.42-1.86-3q-2-3-4.06-6.07t-3.75-5.71q-1.14-1.72-2.37-3.79c0,3.48.09,7,.14,10.45q.13,4.4.29,8.79c-1.83.08-3.22.16-4.18.22S230,420.59,227.75,420.78Z"/><path class="k" d="M264.93,418.94q.39-5.69.54-9.53c.1-2.56.18-6,.24-10.19s.07-7.05,0-8.43c0-.65-.05-1.29-.08-1.94,3.6-.06,8-.15,13.07-.22q7.06-.09,12.47-.13c0,.24,0,.49-.05.73s0,.81-.11,1.91c-.05.79-.09,1.59-.14,2.39,0,.51,0,1,0,1.56-2.93-.12-5.38-.16-7.37-.15l-4.42.06c-.76,0-2,.07-3.58.16l-.18,5.06c1.78,0,3.85,0,6.21,0,.85,0,3.09-.08,6.74-.2-.14,1.88-.28,4.12-.4,6.72-2.59,0-4.58,0-6,0q-3.09,0-6.93.25c-.06,1.78-.11,3.57-.17,5.36l2.56-.05,4.71-.12,4.61-.15c.69,0,1.83-.08,3.44-.19-.18,2.18-.32,4.42-.43,6.74q-5.42,0-11.86.06c-3.25.05-6.5.13-9.75.22Z"/><path class="k" d="M321.29,411.72c-.21.85-.46,2-.76,3.58s-.51,2.73-.63,3.58a63,63,0,0,1-8.48.48,24.71,24.71,0,0,1-6.66-1,16.73,16.73,0,0,1-5.65-3,11.63,11.63,0,0,1-3.68-4.82,16.15,16.15,0,0,1-1.1-6.17,16.32,16.32,0,0,1,1.55-7.16,14,14,0,0,1,4.45-5.27,18.32,18.32,0,0,1,6.38-3,27,27,0,0,1,7.16-.77,48.54,48.54,0,0,1,8.35,1.07c0,.62,0,1.23,0,1.85,0,.81,0,1.7.05,2.67s.05,1.68.07,2.51c-1.75-.47-3.18-.79-4.28-1A25.1,25.1,0,0,0,315,395a12.36,12.36,0,0,0-5.54,1.07,9,9,0,0,0-3.91,3.39,9.38,9.38,0,0,0-1.48,5,7.77,7.77,0,0,0,1.11,4.32,7.89,7.89,0,0,0,3.09,2.83,11.11,11.11,0,0,0,4.86,1.08,26.33,26.33,0,0,0,3.45-.17A43.22,43.22,0,0,0,321.29,411.72Z"/><path class="k" d="M332,419.47q1.58-10.65,2.4-23.48c-3.22-.07-6.45-.12-9.67-.15.06-.82.13-1.63.2-2.44.1-1.31.2-2.74.29-4.29q6.5.27,15.13.71c1.88.09,3.77.18,5.65.29s3.65.21,5.48.33l3,.17c-.09.72-.19,1.43-.28,2.14-.14,1.16-.24,2.11-.31,2.86s-.13,1.32-.15,1.71c-3.23-.38-5.89-.62-8-.74l-1.59-.1q-.56,3.87-.92,7.15c-.35,3.14-.64,6.19-.9,9.14s-.43,5.36-.53,7.18c-2.42-.16-4-.25-4.69-.29S334.77,419.56,332,419.47Z"/><path class="k" d="M354.15,420.72c1.65-11.7,2.73-20.72,3.18-27.07.05-.94.11-1.89.17-2.83l5.35.43,4.91.35q-.81,4.9-1.41,9.29-.81,6.12-1.37,11.46c-.38,3.56-.66,6.59-.87,9.11-1.5-.14-3-.27-4.52-.39C358.7,421,356.89,420.88,354.15,420.72Z"/><path class="k" d="M396.46,417.24c-.27.83-.62,2-1,3.51s-.73,2.68-.91,3.51A62,62,0,0,1,386,424a24.42,24.42,0,0,1-6.56-1.55A16.8,16.8,0,0,1,374,419a11.87,11.87,0,0,1-3.28-5.09,17.55,17.55,0,0,1,1.55-13.26,13.91,13.91,0,0,1,4.87-4.89,18.39,18.39,0,0,1,6.6-2.43,27.12,27.12,0,0,1,7.21-.18,50.3,50.3,0,0,1,8.25,1.75c-.06.62-.11,1.23-.17,1.85-.06.8-.12,1.69-.17,2.66s-.08,1.67-.13,2.51a43.37,43.37,0,0,0-4.19-1.31,20.42,20.42,0,0,0-3-.55,12.4,12.4,0,0,0-5.62.6,9.12,9.12,0,0,0-4.18,3.06,9.39,9.39,0,0,0-1.88,4.87,7.78,7.78,0,0,0,.75,4.39,8,8,0,0,0,2.86,3.08,11,11,0,0,0,4.76,1.47,27.12,27.12,0,0,0,3.46.12A45.42,45.42,0,0,0,396.46,417.24Z"/><path class="k" d="M404.77,395.33l5,.66c1.21.15,2.83.35,4.85.58l-1.89,9.19c-.36,1.74-.68,3.36-.94,4.88s-.44,2.57-.52,3.15a13.33,13.33,0,0,0-.11,2.81,4.34,4.34,0,0,0,.64,2,3.93,3.93,0,0,0,1.63,1.41,7.36,7.36,0,0,0,2.32.71,7,7,0,0,0,2,0,4.56,4.56,0,0,0,1.39-.47,4.32,4.32,0,0,0,1-.78,6.53,6.53,0,0,0,1-1.44,9.52,9.52,0,0,0,.86-2.21c.27-.94.75-3.07,1.46-6.42.61-2.84,1.13-5.45,1.58-7.82a22.2,22.2,0,0,1,.75-3.45l5.4.8,4.61.7q-1.74,7.63-3.47,15.28c-.06.29-.11.53-.14.72a32.63,32.63,0,0,1-1.54,6.3,8.49,8.49,0,0,1-2.08,3,10.12,10.12,0,0,1-3.58,2,16.86,16.86,0,0,1-5,.86,33.7,33.7,0,0,1-5.49-.3,32.42,32.42,0,0,1-4.71-1,19.2,19.2,0,0,1-3.68-1.51,13.81,13.81,0,0,1-2.77-1.93,7.63,7.63,0,0,1-1.56-1.91,6.91,6.91,0,0,1-.73-2.18,10.8,10.8,0,0,1-.05-3c0-.35.12-.87.24-1.58s.3-1.71.56-3l.72-3.47c.18-.91.43-2.25.73-4C403.8,401.05,404.29,398.19,404.77,395.33Z"/><path class="k" d="M441.53,431q2.85-10.38,5.21-23-4.8-.69-9.62-1.32c.17-.8.33-1.6.49-2.4.27-1.28.54-2.69.81-4.22,4.29.71,9.28,1.54,15,2.53l5.59,1,5.43,1,2.94.53-.54,2.1q-.4,1.68-.66,2.79c-.16.74-.28,1.3-.35,1.68-3.17-.77-5.79-1.33-7.87-1.7l-1.57-.28c-.68,2.51-1.28,4.84-1.78,7q-1.08,4.61-2,9c-.6,2.9-1.07,5.26-1.39,7.06-2.39-.45-3.93-.73-4.63-.85S444.27,431.39,441.53,431Z"/><path class="k" d="M176,381.3q10.15-1.51,20.32-2.76l.48,3.82Q183.62,384,170.54,386l-.42-2.71q5-8.34,10.26-16.62-7-6.48-14.16-12.83l-.48-3.08q12.44-1.94,24.91-3.5c.16,1.26.31,2.51.47,3.77q-9.35,1.17-18.67,2.55l0,.21q6.65,6,13.1,12-4.92,7.64-9.64,15.33Z"/><path class="k" d="M196.19,382.43c.56-1.32,1.13-2.63,1.69-3.95q5.19-13.26,10.8-26.45c.39-1,.79-2,1.19-2.95s.82-2.1,1.44-3.71l6.93-.62,7-.66q2.4,5.19,4.77,10.39,4.76,10,9.31,20l1.76,3.66c-3,.16-4.8.28-5.44.32q-2.17.16-6.38.55a104.09,104.09,0,0,0-4.13-9.68c-4.38.37-8.77.79-13.15,1.23q-1.81,4.76-3.62,10.43c-3.2.32-5.17.53-5.89.61C201.2,381.77,199.09,382,196.19,382.43Zm18.24-19.62q4.09-.4,8.19-.76c-2.56-5.85-4-9.06-4.26-9.66q-1.41,3.93-2.39,6.45C215.45,360.16,214.94,361.49,214.43,362.81Z"/><path class="k" d="M243.48,377.46q-.69-5.46-1.34-8.71a28.89,28.89,0,0,0,5.33,1.46,19.31,19.31,0,0,0,4,.28,8.51,8.51,0,0,0,3.59-.84,2.1,2.1,0,0,0,1.25-2,2.61,2.61,0,0,0-.17-.83,3.34,3.34,0,0,0-.54-.87,6.6,6.6,0,0,0-1.1-1q-2.58-2-5.18-4c-1.22-.9-2.07-1.55-2.56-1.95a16,16,0,0,1-2.34-2.31,8.88,8.88,0,0,1-1.28-2.23,8.52,8.52,0,0,1-.13-5.57,9.21,9.21,0,0,1,1.56-2.92,9.92,9.92,0,0,1,2.94-2.44,13.87,13.87,0,0,1,4-1.52,28.53,28.53,0,0,1,4.5-.56,51,51,0,0,1,10,.61c.09,1.18.19,2.26.3,3.25s.33,2.7.68,5.17a25,25,0,0,0-4.54-1.17,19.33,19.33,0,0,0-3.53-.23,7.19,7.19,0,0,0-3.43.9,2.16,2.16,0,0,0-1.29,1.92,2.69,2.69,0,0,0,.26,1,4.77,4.77,0,0,0,.86,1.11,14.65,14.65,0,0,0,1.61,1.37c.66.49,1.69,1.22,3.1,2.2l2,1.39a22.11,22.11,0,0,1,1.89,1.55,18.53,18.53,0,0,1,1.76,1.82,10.67,10.67,0,0,1,1.15,1.66,7.29,7.29,0,0,1,.61,1.53,7.4,7.4,0,0,1,.24,1.68,9.46,9.46,0,0,1-4,8,13.48,13.48,0,0,1-4.42,2.07,24.56,24.56,0,0,1-5.13.79A63.31,63.31,0,0,1,243.48,377.46Z"/><path class="k" d="M281,376.5c.72-8.35,1.12-17.54,1.15-27.57q-5.7.22-11.39.52c0-.95,0-1.9,0-2.86,0-1.53,0-3.2,0-5,5.12-.11,11.08-.21,17.89-.26l6.68,0,6.48,0h3.52c-.07.84-.14,1.68-.2,2.52-.09,1.36-.15,2.47-.19,3.36s-.06,1.55-.07,2c-3.81-.24-7-.35-9.44-.36h-1.88q-.4,4.56-.61,8.41-.28,5.52-.43,10.73t-.14,8.42c-2.83,0-4.66,0-5.49,0S284.2,376.42,281,376.5Z"/><path class="k" d="M306.73,376.5c.5-4.42.89-8.12,1.14-11.11s.53-6.95.82-11.9.46-8.23.49-9.84c0-.75,0-1.51,0-2.26,4.25.11,9.4.25,15.43.47,5.56.21,10.47.43,14.72.63,0,.28-.07.56-.1.84s-.12.95-.26,2.22c-.1.93-.21,1.86-.31,2.79-.07.59-.12,1.2-.15,1.81-3.44-.32-6.32-.52-8.66-.63-2.57-.11-4.31-.17-5.21-.19s-2.31,0-4.22,0l-.51,5.91c2.09.12,4.52.23,7.3.35,1,0,3.64.08,7.93.18-.29,2.19-.59,4.79-.89,7.82q-4.56-.29-7-.37-3.63-.15-8.14-.12c-.17,2.09-.33,4.17-.5,6.25l3,.1,5.51.13,5.41.11c.8,0,2.14,0,4,0-.34,2.53-.66,5.14-.94,7.84-4.2-.25-8.81-.48-13.83-.66q-5.7-.18-11.39-.29Z"/><path class="k" d="M341.63,377.83q.76-4.5,1.28-8.1t1-8.38c.34-3.18.66-6.53.95-10.07s.5-6.34.63-8.43c2.25.19,4.06.34,5.45.43s3.19.18,5.26.26,4.1.2,6.05.36a61.44,61.44,0,0,1,6.13.79,15.35,15.35,0,0,1,3.6,1.08,10.7,10.7,0,0,1,2.66,1.64,8.52,8.52,0,0,1,1.69,2,7.24,7.24,0,0,1,.93,2.46,9.42,9.42,0,0,1,.12,2.92,11.33,11.33,0,0,1-.78,3.17,9.37,9.37,0,0,1-4.35,4.72,22.56,22.56,0,0,1-4.28,1.58c.35,1.12.71,2.25,1.06,3.38.3.94.62,1.9,1,2.88.93,2.62,1.85,5.23,2.75,7.85.13.34.34,1,.64,2q-4.25-.48-5.72-.61c-1.24-.11-3.27-.28-6.09-.49-.2-.91-.56-2.61-1.09-5.08-.21-1-.4-1.84-.56-2.4q-.48-1.87-1.44-5.26-1.06-3.74-2.15-7.48a15.43,15.43,0,0,0,2.78.48,10.55,10.55,0,0,0,3.56-.28,4.75,4.75,0,0,0,2.53-1.53,4.41,4.41,0,0,0,1-2.42,3.15,3.15,0,0,0-.44-2,3.66,3.66,0,0,0-1.83-1.41,14.27,14.27,0,0,0-4-.75c-.62-.06-1.27-.09-1.94-.12s-1.45-.06-2.34-.11q-.75,5.24-1.57,12.79t-1.43,14.85c-2.88-.25-4.75-.39-5.61-.45S344.24,378,341.63,377.83Z"/><path class="k" d="M378.76,380.93q.54-2.65,1.1-5.32,1.49-9.06,3-18.12c.36-2.44.73-4.87,1.09-7.31.15-1.33.3-2.66.44-4l7.38.9,6.44.74q4.49,10.64,8.68,21.32c.37,1.05.75,2.09,1.12,3.13q.92-4.25,2.33-11.92t1.85-10.64l5.27.82,5.25.76-1.83,7.48q-2.24,10.44-4.45,20.89c-.36,2-.73,4-1.09,6.06q-3.33-.57-6.24-1-2.42-.36-6.69-.9c-.66-1.79-1.16-3.09-1.49-3.9q-1.68-3.93-3.39-7.85c-1.13-2.57-2.18-5-3.13-7.36q-1-2.22-1.95-4.86-1,6-2,12.06l-1.5,10.17c-2.12-.29-3.74-.5-4.85-.62C383.12,381.36,381.36,381.18,378.76,380.93Z"/></svg>