<svg xmlns="http://www.w3.org/2000/svg" viewBox="0 0 941.76 885.01"><defs><style>.cls-1{fill:#d2d3d3;}.cls-2{fill:#88878a;}.cls-3{fill:#923032;}.cls-4{fill:#01492d;}.cls-5{fill:#dfa53a;}.cls-6{fill:#cb9233;}.cls-7{fill:#842c32;}.cls-8{fill:#005c3b;}.cls-9{fill:#fff;}</style></defs><title>Asset 1</title><g id="Layer_2" data-name="Layer 2"><g id="KE"><path class="cls-1" d="M758.53,885c-121-52.2-567-588-600.94-628.91L193,225.77Z"/><path class="cls-2" d="M758.74,883.27,193.21,224l36.37-31.16C264.78,232.68,725.74,755.68,758.74,883.27Z"/><path class="cls-3" d="M238.46,138.91l21.69,25.32-6.82,5.83L228.4,194.47l.59.66-71.78,61.49-.56-.68-28,20.88-7.79,6.67L99.23,258.18Z"/><path class="cls-3" d="M188.18,182l-37.7,32.29c-14.55-8.87-44.25-48.08-67.2-80.29-16.34-19-30.1-35.19-33.92-40.2C39,84.49,0,59.58,0,59.58S3.29,39.42,15.92,26.06c.2-.2.38-.42.57-.61l.6-.62.8-.77c.22-.22.44-.42.67-.62.42-.38.86-.76,1.31-1.13l.72-.57.88-.66.7-.5.7-.48C38,9.67,58.42,9.53,58.42,9.53S77,51.64,84.58,63.46c4.24,4.42,18.19,20.57,34.55,39.75C147.45,130.84,181.63,166.25,188.18,182Z"/><path class="cls-1" d="M183.23,875.49c121-52.21,567-588,600.94-628.92l-35.41-30.32Z"/><path class="cls-2" d="M183,873.75,748.55,214.51l-36.37-31.16C677,223.16,216,746.15,183,873.75Z"/><path class="cls-4" d="M703.3,129.39,681.61,154.7l6.82,5.84,24.92,24.4c-.17.21-.37.43-.58.67l71.78,61.48c.21-.24.39-.47.56-.68l27.95,20.88,7.79,6.68,21.68-25.32Z"/><path class="cls-4" d="M753.58,172.45l37.7,32.29c14.55-8.87,44.25-48.07,67.2-80.28,16.34-19,30.1-35.19,33.92-40.21,10.39-9.29,49.36-34.2,49.36-34.2s-3.29-20.15-15.92-33.51c-.2-.2-.38-.42-.57-.61s-.4-.42-.61-.62-.51-.52-.8-.78-.43-.42-.66-.62c-.42-.38-.87-.76-1.31-1.12l-.72-.57-.88-.67-.71-.5-.69-.47C903.75.15,883.34,0,883.34,0s-18.55,42.11-26.16,53.94C852.94,58.35,839,74.5,822.62,93.68,794.31,121.32,760.12,156.72,753.58,172.45Z"/><path class="cls-5" d="M211.84,249.75C196,383.89,213.29,486.33,245.15,564q2.35,5.76,4.84,11.36c27.1,61.32,63.26,106.38,98.34,138.89q7.14,6.63,14.19,12.56c54.94,46.34,103.7,62.35,105.72,63V177.25C405.84,228.36,211.84,249.75,211.84,249.75Z"/><path class="cls-6" d="M583.13,720c-31.37,27.65-69.22,51.57-114.82,69.81l-.07,0V760.67l.06,0a361.67,361.67,0,0,0,77.57-42.31Q565.23,718.92,583.13,720Z"/><path class="cls-6" d="M693.9,554.7q-11.86-1.89-23.53-3.54c52.09-138,28.18-283.27,28.18-283.27-172.1-7.49-230.25-57.73-230.25-57.73l-.06.05v-33l.07-.06S533,233.1,724.53,241.43C724.53,241.43,750.91,401.72,693.9,554.7Z"/><path class="cls-7" d="M545.87,718.38a361.67,361.67,0,0,1-77.57,42.31l-.06,0v-42C495.65,717.71,521.6,717.71,545.87,718.38Z"/><path class="cls-7" d="M670.37,551.16a1281.63,1281.63,0,0,0-202.13-12.68V210.21l.06-.05s58.15,50.24,230.25,57.73C698.55,267.89,722.46,413.16,670.37,551.16Z"/><path class="cls-3" d="M468.24,210.21V760.67c-1.5-.49-31.88-10.46-70.37-37.6-5.48-3.86-11.14-8.08-16.89-12.66-36.92-29.44-78.15-74.15-107.78-140q-2.51-5.56-4.9-11.34c-29-69.92-44.83-162.38-30.48-283.7C237.82,275.37,412.17,256.14,468.24,210.21Z"/><path class="cls-5" d="M268.3,559.07q-12.48,2.48-23.15,4.9c-37.08,8.34-57.36,15.5-57.36,15.5l4.15,179.58a1271.3,1271.3,0,0,1,170.58-32.27q18-2.14,35.35-3.71c24.37-2.21,47.87-3.64,70.37-4.41V538.48C384.82,539.92,316.57,549.53,268.3,559.07Z"/><path class="cls-6" d="M760.91,745.92S693.53,726.5,583.13,720q-17.89-1.05-37.26-1.61c-24.27-.67-50.22-.67-77.63.28V704.39c34.4-1.18,66.3-.85,95.24.4,11.8.51,23.12,1.18,33.9,2,88.46,6.38,141.53,20.45,141.53,20.45l-3.54-153.45q-23.24-4.47-45.76-8-11.91-1.87-23.61-3.47a1278.69,1278.69,0,0,0-197.76-11.89V538.48a1281.63,1281.63,0,0,1,202.13,12.68Q682,552.8,693.9,554.7q30.79,4.95,62.86,11.64Z"/><path class="cls-8" d="M468.24,550.42v154c-27.56.94-56.73,2.84-87.26,6q-16.08,1.67-32.65,3.81a1262.17,1262.17,0,0,0-135,25.11l-3.54-153.45s14.11-4.63,40.21-10.55c6.91-1.57,14.66-3.23,23.21-4.92C318,561.58,384.93,551.94,468.24,550.42Z"/><path class="cls-4" d="M738.91,727.2s-53.07-14.07-141.53-20.45c-10.78-.78-22.1-1.45-33.9-2-28.94-1.25-60.84-1.58-95.24-.4v-154A1278.69,1278.69,0,0,1,666,562.31q11.7,1.59,23.61,3.47,22.51,3.51,45.76,8Z"/><path class="cls-9" d="M273.23,297.43v6.88S303,296.9,302.45,338.7s-2.09,155.06-2.09,155.06,2.09,18.52-27.13,18v6.61H363v-7.67s-29.74,5.29-30.26-20.11-.52-80.44-.52-80.44l81.92,81.5s13.57,18-13,19.58l.52,7.14h89.23v-8.73s-24-9-47-31.75S363,396.12,363,396.12s85.75-96.42,111.94-91l.52-7.67H395.08l-.26,7.14s36-3.44,13.56,22.23S333,403,333,403l-.26-77.79s-1.57-25.14,30.26-20.64l.27-7.14Z"/><path class="cls-9" d="M490.27,297.43v7.41L572.46,410l-82.19,99.62v8.73h162l11-64.69-7.43-1.19s-4.57,39.16-48.14,38.89-84-.26-84-.26l75.93-94.2-67.84-85.33,79.06-.39s33.66.79,35.62,40.88l6.65.39-5.48-55Z"/></g><g id="EasternCT"><path class="cls-9" d="M313.4,629.06q-.25-8.09-.6-13.5t-1.14-14.39q-.8-9-1.19-11.87c-.15-1.08-.23-1.62-.39-2.71,5.3-.66,11.71-1.46,19.23-2.36q10.41-1.23,18.37-2.12c0,.41,0,.62,0,1,0,.25,0,1.15.11,2.7.07,1.36.1,2,.16,3.39,0,.72.08,1.46.16,2.2-4.33.29-7.95.61-10.88.94q-4.83.55-6.51.77c-1.13.15-2.88.4-5.26.78.19,2.86.28,4.3.47,7.16,2.63-.26,5.68-.59,9.17-1,1.25-.14,4.55-.6,9.91-1.33.06,2.67.2,5.84.4,9.52-3.82.37-6.76.69-8.81.92-3,.36-6.44.83-10.19,1.44.22,3,.32,4.54.54,7.56l3.78-.46c1.12-.13,3.42-.44,6.92-.91,2.72-.38,4.08-.56,6.79-.92,1-.14,2.69-.4,5-.8.07,3.08.19,6.27.36,9.55-5.32.53-11.16,1.16-17.49,1.93-5.75.7-8.62,1.07-14.36,1.83Z"/><path class="cls-9" d="M351.68,624.46l2.25-4.75q7-16,14.24-31.88l1.54-3.55q.68-1.56,1.89-4.48l8.68-.68c3.18-.26,6.12-.5,8.82-.75,2.36,5,3.54,7.55,5.86,12.6,4.69,9.68,7,14.54,11.55,24.26l2.2,4.42q-5.68.3-6.9.39c-1.84.13-4.54.33-8.1.64a125.76,125.76,0,0,0-5.09-11.74c-6.66.51-10,.79-16.64,1.39q-2.39,5.71-4.81,12.58c-4.07.34-6.56.57-7.47.66C358,623.74,355.36,624,351.68,624.46Zm23.51-23.52c4.14-.36,6.2-.53,10.34-.85-3.15-7.1-4.9-11-5.21-11.72q-1.85,4.74-3.12,7.78C376.39,598.07,376,599,375.19,600.94Z"/><path class="cls-9" d="M411.72,618.81q-.83-6.6-1.64-10.55a38.21,38.21,0,0,0,6.74,1.78,25.72,25.72,0,0,0,5.11.32,11.16,11.16,0,0,0,4.54-1,2.54,2.54,0,0,0,1.59-2.44,2.84,2.84,0,0,0-.21-1,4,4,0,0,0-.68-1.06,8.64,8.64,0,0,0-1.4-1.26c-2.6-1.91-3.91-2.87-6.53-4.77-1.53-1.09-2.6-1.87-3.21-2.35a20,20,0,0,1-2.93-2.8,10,10,0,0,1-1.61-2.7,9.71,9.71,0,0,1-.63-3,9.89,9.89,0,0,1,.5-3.76,11.11,11.11,0,0,1,2-3.54,12.34,12.34,0,0,1,3.7-3,18.13,18.13,0,0,1,5.06-1.85,36.53,36.53,0,0,1,5.64-.7,67.93,67.93,0,0,1,12.51.68q.18,2.14.39,3.93c.13,1.19.43,3.28.88,6.25a32,32,0,0,0-5.72-1.38,25.86,25.86,0,0,0-4.42-.26,9.34,9.34,0,0,0-4.32,1.11,2.63,2.63,0,0,0-1.62,2.32,2.92,2.92,0,0,0,.33,1.21,5.78,5.78,0,0,0,1.07,1.33,17,17,0,0,0,2,1.65q1.25.9,3.9,2.65c1,.66,1.49,1,2.49,1.67.73.51,1.52,1.13,2.38,1.86a22,22,0,0,1,2.22,2.19,12.63,12.63,0,0,1,1.46,2,8.76,8.76,0,0,1,.78,1.86,8.63,8.63,0,0,1,.31,2,10.79,10.79,0,0,1-1.22,5.39,11.66,11.66,0,0,1-3.85,4.34,17.46,17.46,0,0,1-5.6,2.53,31.9,31.9,0,0,1-6.51,1A84,84,0,0,1,411.72,618.81Z"/><path class="cls-9" d="M459.29,617.42c.95-11.12,1.08-22.24,1.16-33.38-5.72.27-8.59.42-14.31.76l.05-3.47q0-2.77,0-6.08c6.41-.17,13.88-.36,22.42-.52,3.35-.07,5-.1,8.37-.15s4.88-.05,8.13-.07l4.4-.06c-.07,1.23-.11,1.84-.19,3.06-.09,1.63-.14,3-.17,4.06s0,1.88,0,2.42q-7.2-.32-11.87-.25l-2.36,0c-.29,3.67-.5,7.07-.63,10.18-.19,4.45-.31,8.79-.39,13s-.09,7.6-.05,10.19q-5.39,0-7,0C465.9,617.2,463.38,617.27,459.29,617.42Z"/><path class="cls-9" d="M492,617c.54-5.36.95-9.84,1.2-13.46s.51-8.42.77-14.41.39-10,.39-11.92c0-1.1,0-1.64,0-2.74q8,.06,19.35.21,10.47.15,18.47.33l-.1,1q0,.38-.24,2.7l-.3,3.37c-.06.73-.11,1.46-.13,2.21-4.32-.29-8-.45-10.9-.51q-4.85-.09-6.55-.1c-1.13,0-2.9,0-5.3.08-.2,2.86-.29,4.29-.49,7.16q4,.14,9.21.22c1.25,0,4.58,0,10,0q-.44,4-.86,9.49c-3.84-.14-6.78-.21-8.85-.25-3.05,0-6.48,0-10.27.08-.19,3-.28,4.54-.47,7.56l3.8,0h7l6.84,0c1,0,2.71,0,5.1-.12q-.52,4.61-.91,9.51-8-.27-17.58-.4c-5.78-.07-8.67-.08-14.45-.08Z"/><path class="cls-9" d="M536.3,617.66q.8-5.46,1.31-9.84c.34-2.92.66-6.3,1-10.16s.58-7.93.81-12.21.39-7.69.48-10.23c2.82.16,5.1.28,6.84.34s4,.11,6.61.13,5.13.09,7.59.21c2.89.14,5.47.38,7.71.71a20.69,20.69,0,0,1,4.56,1.15,13.33,13.33,0,0,1,3.41,1.88A10.14,10.14,0,0,1,578.8,582a9.13,9.13,0,0,1,1.29,2.94,11.38,11.38,0,0,1,.3,3.53,13,13,0,0,1-.81,3.87,11.22,11.22,0,0,1-2,3.31,11.72,11.72,0,0,1-3.24,2.58,28.49,28.49,0,0,1-5.31,2.08l1.5,4.05c.43,1.13.88,2.28,1.37,3.45,1.56,3.75,2.34,5.62,3.88,9.38.17.4.47,1.2.9,2.39-3.6-.26-6-.42-7.27-.49q-2.37-.13-7.75-.35-.43-1.65-1.61-6.1c-.31-1.24-.59-2.2-.82-2.88-.46-1.5-1.14-3.6-2.06-6.31-1.2-3.59-1.81-5.38-3-9a21.82,21.82,0,0,0,3.52.47,13.63,13.63,0,0,0,4.47-.47,6,6,0,0,0,3.11-2,5.1,5.1,0,0,0,1.18-3,3.74,3.74,0,0,0-.64-2.39,4.58,4.58,0,0,0-2.36-1.63,19.18,19.18,0,0,0-5.11-.75c-.79,0-1.6-.06-2.44-.07s-1.83,0-3-.05q-.7,6.36-1.43,15.53t-1.18,18q-5.49-.28-7.14-.34Q541.27,617.76,536.3,617.66Z"/><path class="cls-9" d="M583.51,620l1.1-6.48c1.11-8.82,1.67-13.23,2.79-22,.4-3.56.59-5.34,1-8.9.13-1.94.2-2.91.33-4.85q5.25.43,9.28.73,2.88.22,8.1.58,6.24,12.6,12.22,25.33l1.63,3.72q.85-5.18,2.13-14.54t1.62-13c2.76.3,5,.54,6.64.7l6.62.61c-.71,3.66-1.06,5.49-1.76,9.15-1.66,10.21-2.49,15.31-4.13,25.52l-1,7.39q-4.26-.51-8-.85c-2-.2-4.9-.45-8.53-.73-1-2.13-1.67-3.67-2.13-4.63-1.9-3.74-2.86-5.6-4.78-9.33q-2.38-4.57-4.4-8.74-1.32-2.64-2.73-5.78l-1.85,14.68c-.52,5-.78,7.42-1.29,12.37-2.7-.25-4.77-.42-6.19-.52Q588.46,620.26,583.51,620Z"/><path class="cls-9" d="M270.13,689c0,1.24,0,3,0,5.19s.08,3.92.17,5.13a90,90,0,0,1-11.63,3.12,35.11,35.11,0,0,1-9.55.52,23.73,23.73,0,0,1-8.71-2.51,16.56,16.56,0,0,1-6.51-5.59,24.82,24.82,0,0,1-3.23-18.6,19.75,19.75,0,0,1,4.66-8.6,26,26,0,0,1,8-5.95,38.4,38.4,0,0,1,9.72-3.14,69.76,69.76,0,0,1,11.9-.93c.21,1,.31,1.54.52,2.57s.52,2.34.84,3.68.5,2.07.83,3.46c-2.57-.14-4.65-.18-6.22-.11a31.91,31.91,0,0,0-4.32.47,17.54,17.54,0,0,0-7.4,3.08,12.88,12.88,0,0,0-4.45,5.83,13.24,13.24,0,0,0-.6,7.36,10.87,10.87,0,0,0,2.79,5.66,11.08,11.08,0,0,0,5.11,3,15.67,15.67,0,0,0,7.06.09,37.57,37.57,0,0,0,4.75-1.23A61.4,61.4,0,0,0,270.13,689Z"/><path class="cls-9" d="M297,651.24a36.27,36.27,0,0,1,10.08-.12,22.23,22.23,0,0,1,8.88,3.1,18.8,18.8,0,0,1,6.2,6,20.82,20.82,0,0,1,2.89,8.52,23.72,23.72,0,0,1-.67,9.78,20.4,20.4,0,0,1-4.48,8.09,22.81,22.81,0,0,1-7.85,5.61,38.52,38.52,0,0,1-10,2.9,37.69,37.69,0,0,1-10.27.18,22.34,22.34,0,0,1-9.09-3.07,18.05,18.05,0,0,1-6.21-6,22.68,22.68,0,0,1-2.92-8.07,21.84,21.84,0,0,1,1.21-12.36,21.39,21.39,0,0,1,8.28-9.53A34.42,34.42,0,0,1,297,651.24Zm.81,9.36a12.82,12.82,0,0,0-6.35,2.75,11.65,11.65,0,0,0-3.78,5.54,14.59,14.59,0,0,0-.53,6.89,12.9,12.9,0,0,0,2.38,5.74,10.17,10.17,0,0,0,5,3.55,13.23,13.23,0,0,0,6.39.58,12.45,12.45,0,0,0,6.11-2.65,11.38,11.38,0,0,0,3.74-5.44,14.78,14.78,0,0,0,.61-6.72,13.26,13.26,0,0,0-2.29-5.89,10.2,10.2,0,0,0-4.82-3.73A12.6,12.6,0,0,0,297.85,660.6Z"/><path class="cls-9" d="M333,690.05l-.2-6.58c-.61-8.86-.92-13.3-1.51-22.17-.31-3.56-.46-5.35-.76-8.91-.24-1.93-.35-2.9-.59-4.83q5-.55,8.83-1c1.83-.22,4.39-.53,7.7-.95,6.57,9,9.8,13.53,16.18,22.61l2.21,3.35q-.17-5.24-.72-14.68t-.9-13q4-.32,6.35-.54l6.3-.64c0,3.73,0,5.59.06,9.32.34,10.33.52,15.49.89,25.82.19,3,.29,4.46.48,7.44q-4.06.3-7.59.65-2.94.27-8.11.87c-1.29-1.92-2.25-3.3-2.86-4.15-2.48-3.32-3.72-5-6.22-8.27-2.05-2.71-4-5.29-5.75-7.77-1.16-1.56-2.37-3.29-3.64-5.17.41,5.9.61,8.85,1,14.76.44,5,.66,7.43,1.11,12.39q-3.87.39-5.89.63C338.2,689.33,336.07,689.61,333,690.05Z"/><path class="cls-9" d="M385.36,684.54c0-2.63,0-3.95.07-6.58-.25-8.88-.37-13.32-.6-22.21-.16-3.58-.24-5.36-.39-8.94L384,642q5-.35,8.86-.64c1.83-.13,4.41-.35,7.72-.62,6.19,9.26,9.24,13.92,15.23,23.25.83,1.38,1.25,2.06,2.07,3.44q.06-5.25-.11-14.7t-.37-13.06q4-.17,6.36-.29l6.33-.38c-.14,3.73-.2,5.59-.33,9.31-.08,10.34-.11,15.51-.17,25.84.07,3,.11,4.47.18,7.45-2.72.09-5.25.21-7.61.34-2,.11-4.68.28-8.14.54-1.2-2-2.1-3.39-2.68-4.27-2.33-3.41-3.51-5.11-5.87-8.52q-2.91-4.17-5.42-8-1.63-2.42-3.42-5.32c.16,5.92.24,8.88.41,14.79l.6,12.43q-3.87.23-5.9.39C390.63,684,388.49,684.23,385.36,684.54Z"/><path class="cls-9" d="M437.85,681.19c.29-5.38.49-9.88.57-13.5s.14-8.43.13-14.43,0-10-.12-11.93l-.15-2.73c5.09-.17,11.24-.38,18.46-.58q10-.27,17.63-.43l-.05,1c0,.25-.06,1.15-.12,2.71l-.15,3.38c0,.73,0,1.46,0,2.21-4.14-.11-7.61-.12-10.41-.06-3.09.07-5.17.14-6.25.18s-2.77.13-5.06.29c-.06,2.87-.1,4.3-.16,7.17,2.52,0,5.44-.07,8.79-.15,1.19,0,4.36-.19,9.52-.42-.17,2.66-.31,5.83-.44,9.51q-5.49,0-8.43.12-4.38.11-9.79.49c-.05,3-.08,4.55-.13,7.58l3.62-.11c1.07,0,3.29-.13,6.65-.27,2.6-.13,3.91-.19,6.52-.3,1,0,2.58-.15,4.85-.33q-.32,4.62-.48,9.54-7.65.06-16.75.32c-5.51.17-8.27.27-13.78.5Z"/><path class="cls-9" d="M517.36,669.83c-.28,1.21-.61,2.91-1,5.09s-.66,3.87-.81,5.07a88.64,88.64,0,0,1-12,.84,34.34,34.34,0,0,1-9.44-1.3,23.63,23.63,0,0,1-8-4.12,16.64,16.64,0,0,1-5.3-6.74,24.84,24.84,0,0,1,.37-18.87,19.78,19.78,0,0,1,6.19-7.55,25.77,25.77,0,0,1,8.95-4.31,38.16,38.16,0,0,1,10.11-1.24,70.53,70.53,0,0,1,11.83,1.35c0,1.05,0,1.57,0,2.62s.06,2.4.13,3.78l.15,3.55c-2.49-.63-4.51-1-6.06-1.28a31.25,31.25,0,0,0-4.32-.37,17.44,17.44,0,0,0-7.82,1.62,12.77,12.77,0,0,0-5.46,4.87,13.1,13.1,0,0,0-2,7.11,11,11,0,0,0,1.64,6.09A11.15,11.15,0,0,0,499,670a15.5,15.5,0,0,0,6.88,1.43,35.71,35.71,0,0,0,4.88-.3A62.66,62.66,0,0,0,517.36,669.83Z"/><path class="cls-9" d="M532.67,680.58c1.51-11,2.24-22.14,2.93-33.27-5.47,0-8.21,0-13.68,0,.09-1.38.14-2.07.24-3.45q.18-2.77.32-6.07c6.12.17,13.26.39,21.41.7l8,.3c3.1.13,4.65.21,7.75.36l4.21.18c-.15,1.22-.22,1.83-.36,3q-.26,2.45-.39,4c-.09,1.06-.15,1.87-.18,2.42q-6.84-.71-11.3-.9l-2.25-.09q-.72,5.48-1.17,10.13-.63,6.66-1.08,12.95t-.61,10.17c-3.42-.18-5.63-.28-6.63-.32S536.57,680.66,532.67,680.58Z"/><path class="cls-9" d="M564,681.92c1.57-12.76,3.19-25.52,4-38.35l.2-4,7.56.51,7,.39c-.7,4.64-1.32,9-1.82,13.18-.7,5.77-1.26,11.2-1.72,16.23s-.81,9.35-1,12.91l-6.41-.47C570.42,682.23,567.85,682.09,564,681.92Z"/><path class="cls-9" d="M623.72,676.17c-.38,1.19-.85,2.85-1.43,5s-1,3.8-1.22,5a88.48,88.48,0,0,1-12-.15,34.73,34.73,0,0,1-9.31-2.07,23.81,23.81,0,0,1-7.69-4.77,16.53,16.53,0,0,1-4.73-7.15,24.83,24.83,0,0,1,1.92-18.78,19.76,19.76,0,0,1,6.79-7,26.17,26.17,0,0,1,9.29-3.56,38.47,38.47,0,0,1,10.19-.39,69.77,69.77,0,0,1,11.69,2.32l-.2,2.61c-.07,1.14-.13,2.39-.19,3.77s-.08,2.13-.13,3.55q-3.66-1.25-5.95-1.78a34.45,34.45,0,0,0-4.28-.72,17.56,17.56,0,0,0-7.94,1,12.86,12.86,0,0,0-5.85,4.41,13.36,13.36,0,0,0-2.56,6.92,11,11,0,0,0,1.15,6.21,11.1,11.1,0,0,0,4.1,4.29,15.62,15.62,0,0,0,6.75,2,37,37,0,0,0,4.89.1A61.53,61.53,0,0,0,623.72,676.17Z"/><path class="cls-9" d="M635.05,645l7.08.84,6.86.73-2.5,13c-.48,2.45-.89,4.76-1.24,6.91s-.57,3.65-.67,4.47a18.91,18.91,0,0,0-.11,4,6.33,6.33,0,0,0,.94,2.83,5.64,5.64,0,0,0,2.34,2,10.32,10.32,0,0,0,3.3,1,9.8,9.8,0,0,0,2.87-.05,6.57,6.57,0,0,0,2-.69,6.15,6.15,0,0,0,1.41-1.13,9.54,9.54,0,0,0,1.45-2.06,14.37,14.37,0,0,0,1.17-3.14c.35-1.32,1-4.36,2-9.1.8-4,1.51-7.75,2.09-11.11a30.94,30.94,0,0,1,1-4.88q4.86.63,7.66,1c2.61.35,3.91.53,6.52.9-1.86,8.68-2.79,13-4.63,21.69-.07.41-.13.75-.17,1a42.78,42.78,0,0,1-2.07,8.94,12.08,12.08,0,0,1-2.87,4.28,14.34,14.34,0,0,1-5,2.88,23.38,23.38,0,0,1-7.08,1.32,47,47,0,0,1-7.77-.32,43.4,43.4,0,0,1-6.68-1.3,26,26,0,0,1-5.23-2.06,19.54,19.54,0,0,1-3.94-2.68,10.83,10.83,0,0,1-2.25-2.67,9.84,9.84,0,0,1-1.06-3.07,14.55,14.55,0,0,1-.13-4.19c0-.49.15-1.24.3-2.24s.39-2.42.74-4.29.57-2.95.94-4.91q.38-1.93,1-5.7C633.91,652.32,634.29,649.89,635.05,645Z"/><path class="cls-9" d="M687.67,694.74c2.84-10.78,4.91-21.71,6.94-32.67-5.45-.7-8.17-1-13.62-1.68l.65-3.4q.52-2.73,1.06-6c6.07.92,13.15,2,21.23,3.3,3.17.49,4.75.75,7.92,1.26s4.61.77,7.69,1.3l4.16.7-.72,3c-.37,1.6-.66,2.92-.88,4s-.37,1.84-.46,2.38c-4.49-1-8.22-1.77-11.16-2.26l-2.23-.37q-1.38,5.36-2.39,9.91c-1,4.36-1.83,8.61-2.64,12.73s-1.42,7.46-1.83,10c-3.39-.6-5.58-1-6.57-1.12S691.55,695.29,687.67,694.74Z"/></g></g></svg>