<svg id="Layer_2" data-name="Layer 2" xmlns="http://www.w3.org/2000/svg" viewBox="0 0 837 659"><defs><style>.cls-1,.cls-3,.cls-5,.cls-7{fill:#90b297;}.cls-1,.cls-5,.cls-7{stroke:#90b297;}.cls-1,.cls-2,.cls-5,.cls-6,.cls-7,.cls-8{stroke-miterlimit:10;}.cls-1,.cls-2{stroke-width:0.96px;}.cls-2,.cls-4,.cls-6,.cls-8{fill:#2ebcbc;}.cls-2,.cls-6,.cls-8{stroke:#2ebcbc;}.cls-5,.cls-6{stroke-width:2.32px;}.cls-7,.cls-8{stroke-width:0.92px;}</style></defs><title>LEDGEpallet</title><path class="cls-1" d="M182.5,508.13v5.78H166.06a10.32,10.32,0,0,1-4.55-1.06,10.06,10.06,0,0,1-4.7-4.72,9.94,9.94,0,0,1-1.08-4.55V481.47h5.78v22.69a4.63,4.63,0,0,0,4,4Z"/><path class="cls-1" d="M192.91,490.24v3h20.88V499H192.91v6.13a3,3,0,0,0,3,3h23.69v5.78H195.88a8.76,8.76,0,0,1-8.75-8.77V490.24a8.76,8.76,0,0,1,8.75-8.77h23.69v5.78H195.88A3,3,0,0,0,192.91,490.24Z"/><path class="cls-2" d="M240.46,481.48a16.22,16.22,0,0,1,16.21,16.22,16,16,0,0,1-3.83,10.44c-.29.35-.6.7-.93,1a16.08,16.08,0,0,1-11.45,4.76H224.23V481.48ZM230,508.14h10.45a10.44,10.44,0,0,0,0-20.87H230Z"/><path class="cls-2" d="M267.11,497.7a10.46,10.46,0,0,0,10.45,10.44H288v-6.22H277.56v-5.78h16.23v17.79H277.56a16.24,16.24,0,0,1,0-32.47h16.23v5.79H277.56A10.46,10.46,0,0,0,267.11,497.7Z"/><path class="cls-2" d="M304.22,490.24v3h20.87V499H304.22v6.13a3,3,0,0,0,3,3h23.7v5.78h-23.7a8.76,8.76,0,0,1-8.75-8.77V490.24a8.76,8.76,0,0,1,8.75-8.77h23.7v5.78h-23.7A3,3,0,0,0,304.22,490.24Z"/><rect class="cls-3" x="181.5" y="546.49" width="8.41" height="56.5" rx="4.21" ry="4.21" transform="translate(-352.01 299.66) rotate(-45)"/><path class="cls-3" d="M287.39,526.49a4.15,4.15,0,0,0-5.76,1.2c-.33.44-.69.85-1.15,1.42-.73-.87-2.8-3.41-3.43-4.12-1.88-2.09-4.24-2.38-6.12-.78s-1.94,4-.19,6.18c1,1.2,3.44,4.15,4.49,5.42a56.5,56.5,0,0,1-11.88,10c-.3.2-1.29-.24-1.65-.65-2.31-2.68-4.55-5.43-6.81-8.15l-.54-.66c.79.92-2-2.41-.08-.09l-1.11-1.31c-2-2.37-4.87-2.5-6.68-.41-1.42,1.64-1.25,3.84.49,6,5.09,6.14.82,1,5.92,7.12l2.3,2.76A63.37,63.37,0,0,1,240,555.17a2.81,2.81,0,0,1-3.11-1.14c-5.67-6.92-7.7-9.33-13.42-16.21a12.29,12.29,0,0,0-1.74-1.79,4.06,4.06,0,0,0-6.19,4.86,8.4,8.4,0,0,0,1.28,1.91c4.34,5.26,5,6,9.36,11.29.43.52.82,1.08,1.23,1.62l-.18.51c-2.82-.37-15.72-1.65-22.58-2.41a60.87,60.87,0,0,1-.2-20.34,5.19,5.19,0,0,0-.62-3.1,3.6,3.6,0,0,0-4.14-1.76,4.09,4.09,0,0,0-3.36,3.73,69.22,69.22,0,0,0-.23,21c-11.68-1.36-32.4-2.13-40.57-.25-4,.91-6.27,2.87-4.32,6.38.89,1.62,4.69,1.89,6.7,1.51a124,124,0,0,1,15.16-1.24c3.3,0,19.17,1.55,24.83,2.2q.36,1.33.78,2.67a61,61,0,0,1,2.55,26.48c-.08.64-.23,1.29-.38,2.1,0,0-2.09,9-2.49,10.3-.31,1-1.71,3.81-2,4.85-.37,1.51-1.12,3.09-.78,4.61a4.45,4.45,0,0,0,1.48,1.78c3.09,2.17,5.2.59,6.71-2.87,6.78-15.58,8-31.63,3.22-47.89-.14-.45-.26-.89-.39-1.33,9.13,1.18,24.29,2,30.41,1.18,16.55-2.2,31.12-8.75,42.81-20.91a112.65,112.65,0,0,0,8.58-10.61A4,4,0,0,0,287.39,526.49Z"/><path class="cls-4" d="M219.9,466.1a4.17,4.17,0,0,0,5.85-.72c.36-.4.76-.79,1.27-1.32.65.93,2.49,3.63,3.07,4.4,1.69,2.24,4,2.73,6,1.29s2.27-3.81.71-6.14c-.85-1.27-3.07-4.42-4-5.78a56.7,56.7,0,0,1,12.68-8.94c.32-.17,1.27.35,1.59.79,2.08,2.86,4.07,5.79,6.1,8.69l.49.71c-.71-1,1.78,2.56.06.09l1,1.41c1.8,2.53,4.64,2.89,6.62,1,1.55-1.52,1.57-3.72,0-6-4.55-6.55-.73-1.05-5.29-7.6L254,445a62.91,62.91,0,0,1,15.56-3.52,2.81,2.81,0,0,1,3,1.4c5.06,7.38,6.88,9.95,12,17.28a12.29,12.29,0,0,0,1.58,1.94,4.07,4.07,0,0,0,6.58-4.33,9.41,9.41,0,0,0-1.11-2c-3.89-5.6-4.48-6.44-8.38-12-.38-.55-.72-1.14-1.08-1.71.07-.17.14-.33.22-.5,2.78.61,15.52,3,22.29,4.32a60.82,60.82,0,0,1-1.52,20.28,5.17,5.17,0,0,0,.36,3.14,3.61,3.61,0,0,0,4,2.11,4.09,4.09,0,0,0,3.66-3.44,68.73,68.73,0,0,0,2-20.86c11.53,2.34,32.11,4.85,40.41,3.68,4.07-.58,6.49-2.34,4.85-6-.75-1.69-4.52-2.28-6.55-2.07a124.7,124.7,0,0,1-15.21,0c-3.29-.33-19-3.17-24.56-4.3-.16-.91-.35-1.81-.56-2.72a61.06,61.06,0,0,1-.29-26.6c.13-.64.33-1.27.55-2.07,0,0,2.84-8.75,3.35-10.05.4-1,2-3.65,2.37-4.67.5-1.47,1.38-3,1.16-4.52a4.43,4.43,0,0,0-1.32-1.9c-2.9-2.42-5.14-1-6.93,2.3-8.07,14.95-10.66,30.83-7.25,47.44l.27,1.36c-9-1.95-24-4-30.2-3.75-16.68.79-31.74,6.09-44.42,17.22a111.4,111.4,0,0,0-9.45,9.85A4,4,0,0,0,219.9,466.1Z"/><line class="cls-4" x1="335.79" y1="442.79" x2="336.68" y2="442.71"/><rect class="cls-4" x="320.24" y="397.7" width="8.5" height="53.68" transform="translate(-184.44 261.7) rotate(-34.86)"/><rect class="cls-3" x="42.4" y="129.86" width="22.01" height="153.1" rx="8.81" ry="8.81"/><path class="cls-5" d="M272.77,185.89V199.8H233.22a24.7,24.7,0,0,1-10.94-2.55,25.15,25.15,0,0,1-13.91-22.31V121.76h13.91v54.58a11.12,11.12,0,0,0,9.55,9.55Z"/><path class="cls-5" d="M297.79,142.86v7.23H348V164H297.79v14.75a7.19,7.19,0,0,0,7.14,7.19h57v13.91h-57a21.08,21.08,0,0,1-21.05-21.1V142.86a21.08,21.08,0,0,1,21.05-21.1h57v13.91h-57A7.19,7.19,0,0,0,297.79,142.86Z"/><path class="cls-6" d="M412.16,121.8a39,39,0,0,1,39,39,38.5,38.5,0,0,1-9.23,25.13c-.7.84-1.44,1.67-2.23,2.46a38.67,38.67,0,0,1-27.54,11.45h-39v-78ZM387,185.93h25.13a25.11,25.11,0,0,0,0-50.22H387Z"/><path class="cls-6" d="M476.26,160.8a25.16,25.16,0,0,0,25.14,25.13h25.11V171H501.4V157.05h39v42.79h-39a39,39,0,1,1,0-78.08h39v13.91h-39A25.15,25.15,0,0,0,476.26,160.8Z"/><path class="cls-6" d="M565.5,142.86v7.23h50.22V164H565.5v14.75a7.19,7.19,0,0,0,7.14,7.19h57v13.91h-57a21.07,21.07,0,0,1-21-21.1V142.86a21.07,21.07,0,0,1,21-21.1h57v13.91h-57A7.19,7.19,0,0,0,565.5,142.86Z"/><path class="cls-3" d="M334.55,272.93c-1.55-5.53-7.17-8.5-13.29-7-1.35.33-2.73.56-4.58.92,0-2.89.08-11.25,0-13.69-.28-7.17-4.43-11.58-10.75-11.51s-10.33,4.67-10.45,11.83c-.07,3.91,0,13.75,0,18a144.52,144.52,0,0,1-39.62.21c-.91-.11-2.14-2.58-2.17-4-.19-9-.09-18.08-.09-27.11v-2.19c.06,3.09,0-8,0-.29,0-.78,0-2.16,0-4.41-.07-7.92-5.49-12.84-12.45-11.7-5.47.91-8.73,5.51-8.74,12.49,0,20.37,0,3.27,0,23.64v9.17a161.5,161.5,0,0,1-37.73-15.33c-3.17-1.74-4.28-3.75-4.25-7.34.16-22.83.1-30.88.08-53.71a30.63,30.63,0,0,0-.49-6.36,10.38,10.38,0,0,0-20.09-.54,22.7,22.7,0,0,0-.61,5.83c0,17.41,0,20,0,37.45,0,1.72-.15,3.45-.23,5.18l-1.18.72c-4.93-5.34-28.17-28.89-40.41-41.59a155.8,155.8,0,0,1,32.79-40.28,13.17,13.17,0,0,0,3.83-7.08c.83-4.42-1.2-8.07-5.24-10.22-4.61-2.45-8.83-1.51-12.7,1.86a176.77,176.77,0,0,0-34.64,40.78c-20.71-21.73-60.18-57-79.28-66.69-9.36-4.73-17-4.58-18.91,5.5-.88,4.62,6.15,11.36,10.71,13.89,5.61,3.13,24.58,16.11,31.8,22.29C62.2,157.1,90.91,186,101,196.46q-1.45,3.21-2.8,6.51A156,156,0,0,1,60,259.14c-1.22,1.13-2.55,2.16-4.18,3.52,0,0-18.73,14.19-21.68,16.16-2.31,1.54-9.58,4.69-11.79,6.33-3.18,2.36-7.23,4.23-9,7.78-.67,1.32-.39,4.49,0,5.92,2.53,9.29,9.25,9.64,17.87,5.29,38.72-19.54,67.33-49,84.44-88.81.46-1.09.93-2.16,1.42-3.24,16,17.2,44.45,43.53,57.8,51.93,36.08,22.68,75.38,33.59,118.18,28.77,11.51-1.3,22.87-4.15,34.17-6.85C333.34,284.46,336.17,278.66,334.55,272.93Z"/><path class="cls-4" d="M504.22,51.9c1.56,5.53,7.18,8.5,13.29,7,1.35-.32,2.73-.55,4.59-.92,0,2.89-.08,11.26,0,13.69.27,7.17,4.42,11.59,10.74,11.52s10.33-4.67,10.46-11.83c.07-3.92,0-13.75,0-18a144.91,144.91,0,0,1,39.62-.22c.9.11,2.14,2.59,2.17,4,.18,9,.09,18.07.09,27.1v2.19c-.06-3.08,0,8,0,.3,0,.78,0,2.16,0,4.41.06,7.92,5.49,12.84,12.44,11.69,5.47-.91,8.74-5.5,8.75-12.48,0-20.37,0-3.28,0-23.65V57.57a161.62,161.62,0,0,1,37.72,15.34c3.17,1.74,4.28,3.74,4.25,7.33-.15,22.84-.1,30.89-.08,53.71a30,30,0,0,0,.5,6.36,10.37,10.37,0,0,0,20.08.55,22.36,22.36,0,0,0,.62-5.83c0-17.42,0-20,0-37.45,0-1.73.14-3.45.22-5.18l1.19-.72c4.93,5.33,28.17,28.88,40.4,41.58a155.39,155.39,0,0,1-32.78,40.28,13.15,13.15,0,0,0-3.84,7.08c-.83,4.42,1.2,8.08,5.25,10.23,4.6,2.45,8.82,1.51,12.69-1.86a176.61,176.61,0,0,0,34.64-40.79c20.72,21.74,60.18,57.05,79.28,66.69,9.37,4.73,17,4.58,18.91-5.49.88-4.63-6.15-11.36-10.71-13.9-5.61-3.12-24.57-16.11-31.8-22.28-6.41-5.49-35.13-34.34-45.17-44.85,1-2.14,1.9-4.31,2.8-6.51a156,156,0,0,1,38.2-56.16c1.23-1.14,2.56-2.16,4.18-3.52,0,0,18.73-14.19,21.69-16.17,2.31-1.53,9.57-4.69,11.78-6.33,3.19-2.35,7.23-4.22,9-7.78.67-1.32.39-4.49,0-5.91-2.53-9.3-9.25-9.65-17.86-5.3-38.73,19.55-67.33,49.05-84.44,88.82-.47,1.08-.94,2.16-1.42,3.23-16-17.19-44.45-43.52-57.81-51.92C627.89,38.14,588.6,27.23,545.79,32c-11.51,1.3-22.87,4.15-34.17,6.86C505.43,40.37,502.6,46.17,504.22,51.9Z"/><line class="cls-4" x1="781.02" y1="172.23" x2="783" y2="173.35"/><rect class="cls-4" x="773.13" y="48.97" width="21.69" height="137.07" transform="translate(1567.96 235.01) rotate(180)"/><path class="cls-7" d="M15.11,341.17H25v.42H14.69V325h.42Z"/><path class="cls-7" d="M26.81,341.59,34.53,325H35l7.79,16.55h-.49l-2.51-5.32h-10l-2.47,5.32ZM30,335.83h9.58l-4.79-10.28Z"/><path class="cls-7" d="M57.56,329.06a4.06,4.06,0,0,1-2.49,3.73,4.47,4.47,0,0,1-1.1,8.8H45.39V325h8.16A4,4,0,0,1,57.56,329.06Zm-4,3.57a3.58,3.58,0,0,0,0-7.15H45.83v7.15Zm-7.72.44v8.08H54a4,4,0,1,0,0-8.08Z"/><path class="cls-7" d="M69,325a8.28,8.28,0,1,1-8.27,8.28A8.28,8.28,0,0,1,69,325Zm0,16.13a7.86,7.86,0,1,0-7.85-7.85A7.83,7.83,0,0,0,69,341.17Z"/><path class="cls-7" d="M86,334.82H81.27v6.77h-.42V325h5.58a4.89,4.89,0,0,1,.06,9.78l3.91,6.77h-.51Zm.44-9.36H81.27v8.94h5.16a4.47,4.47,0,0,0,0-8.94Z"/><path class="cls-7" d="M93,341.59,100.7,325h.47L109,341.59h-.49L106,336.27h-10l-2.47,5.32Zm3.18-5.76h9.58L101,325.55Z"/><path class="cls-7" d="M123,325v.42h-6.33v16.13h-.42V325.46H110V325Z"/><path class="cls-7" d="M132.92,325a8.28,8.28,0,1,1-8.27,8.28A8.28,8.28,0,0,1,132.92,325Zm0,16.13a7.86,7.86,0,1,0-7.85-7.85A7.83,7.83,0,0,0,132.92,341.17Z"/><path class="cls-7" d="M150,334.82h-4.73v6.77h-.41V325h5.58a4.89,4.89,0,0,1,.06,9.78l3.91,6.77h-.51Zm.44-9.36h-5.17v8.94h5.17a4.47,4.47,0,0,0,0-8.94Z"/><path class="cls-7" d="M162.51,335.48,156.4,325h.53l5.78,10,5.8-10H169l-6.11,10.44v6.11h-.42Z"/><path class="cls-7" d="M183.81,325h10.3v.44h-9.88v7.42h9.2v.44h-9.2v7.81h9.88v.44h-10.3Z"/><path class="cls-7" d="M196.8,341.59l6-8.58-5.56-8h.55l5.27,7.57,5.3-7.57h.55l-5.56,8,6,8.58h-.57l-5.74-8.18-5.71,8.18Z"/><path class="cls-7" d="M223.08,329.94a4.9,4.9,0,0,1-4.89,4.88H213v6.77h-.42V325h5.59A4.91,4.91,0,0,1,223.08,329.94ZM213,325.46v8.94h5.17a4.47,4.47,0,0,0-.05-8.94Z"/><path class="cls-7" d="M226.39,325H236.7v.44h-9.89v7.42H236v.44h-9.2v7.81h9.89v.44H226.39Z"/><path class="cls-7" d="M245.53,334.82H240.8v6.77h-.42V325H246a4.89,4.89,0,0,1,.06,9.78l3.91,6.77h-.51Zm.44-9.36H240.8v8.94H246a4.47,4.47,0,0,0,0-8.94Z"/><path class="cls-7" d="M254.9,341.59V325h.42v16.55Z"/><path class="cls-7" d="M260.6,325h10.3v.44H261v7.42h9.2v.44H261v7.81h9.88v.44H260.6Z"/><path class="cls-7" d="M275,325.48v16.11h-.44V325h.72l12.78,16.11V325h.44v16.55h-.68Z"/><path class="cls-7" d="M305.61,339.16a8.27,8.27,0,1,1,0-11.73l-.31.28a7.88,7.88,0,1,0,0,11.12Z"/><path class="cls-7" d="M309.52,325h10.3v.44h-9.88v7.42h9.2v.44h-9.2v7.81h9.88v.44h-10.3Z"/><path class="cls-7" d="M332.64,341.59,340.37,325h.48l7.72,16.55h-.48l-2.47-5.32h-10l-2.47,5.32Zm3.18-5.76h9.58l-4.79-10.28Z"/><path class="cls-7" d="M351.62,325.48v16.11h-.44V325h.73l12.77,16.11V325h.44v16.55h-.68Z"/><path class="cls-7" d="M369.05,325h6.22a8.28,8.28,0,0,1,0,16.55h-6.2Zm6.16.44h-5.72v15.67h5.72a7.84,7.84,0,1,0,0-15.67Z"/><path class="cls-8" d="M398.07,325h6.22a8.28,8.28,0,0,1,0,16.55h-6.2Zm6.16.44h-5.72v15.67h5.72a7.84,7.84,0,1,0,0-15.67Z"/><path class="cls-8" d="M416.54,341.59V325H417v16.55Z"/><path class="cls-8" d="M420.33,341.59,428.06,325h.46l7.79,16.55h-.49l-2.51-5.32h-10l-2.47,5.32Zm3.18-5.76h9.58l-4.79-10.28Z"/><path class="cls-8" d="M445.91,332.7h8.32v.62a8.35,8.35,0,1,1-2.5-5.89l-.31.28a7.86,7.86,0,1,0-5.51,13.46,7.91,7.91,0,0,0,7.85-7.85v-.16h-7.85Z"/><path class="cls-8" d="M458.09,325.48v16.11h-.44V325h.73l12.77,16.11V325h.44v16.55h-.68Z"/><path class="cls-8" d="M482.85,325a8.28,8.28,0,1,1-8.28,8.28A8.27,8.27,0,0,1,482.85,325Zm0,16.13a7.86,7.86,0,1,0-7.86-7.85A7.82,7.82,0,0,0,482.85,341.17Z"/><path class="cls-8" d="M502.07,329.3a3.82,3.82,0,1,0-3.82,3.82,4.24,4.24,0,1,1-4.24,4.21h.42a3.82,3.82,0,1,0,3.82-3.81,4.24,4.24,0,1,1,4.24-4.22Z"/><path class="cls-8" d="M518.42,325v.42h-6.34v16.13h-.41V325.46h-6.31V325Z"/><path class="cls-8" d="M522.48,341.59V325h.42v16.55Z"/><path class="cls-8" d="M541.32,339.16a8.27,8.27,0,1,1,0-11.73l-.31.28a7.88,7.88,0,1,0,0,11.12Z"/><path class="cls-8" d="M563.7,332.7H572v.62a8.35,8.35,0,1,1-2.5-5.89l-.31.28a7.86,7.86,0,1,0-5.51,13.46,7.92,7.92,0,0,0,7.85-7.85v-.16H563.7Z"/><path class="cls-8" d="M575.44,325h10.3v.44h-9.88v7.42h9.2v.44h-9.2v7.81h9.88v.44h-10.3Z"/><path class="cls-8" d="M589.87,325.48v16.11h-.44V325h.73l12.77,16.11V325h.44v16.55h-.68Z"/><path class="cls-8" d="M607.3,325h10.31v.44h-9.89v7.42h9.2v.44h-9.2v7.81h9.89v.44H607.3Z"/><path class="cls-8" d="M633.4,325v.42h-6.33v16.13h-.42V325.46h-6.31V325Z"/><path class="cls-8" d="M637.47,341.59V325h.42v16.55Z"/><path class="cls-8" d="M656.31,339.16a8.27,8.27,0,1,1,0-11.73l-.31.28a7.88,7.88,0,1,0,0,11.12Z"/><path class="cls-8" d="M667.54,329.3a3.82,3.82,0,1,0-3.81,3.82,4.24,4.24,0,1,1-4.24,4.21h.42a3.82,3.82,0,1,0,3.82-3.81A4.24,4.24,0,1,1,668,329.3Z"/><path class="cls-8" d="M682.81,325h10.31v.44h-9.89v7.42h9.2v.44h-9.2v7.81h9.89v.44H682.81Z"/><path class="cls-8" d="M696.8,325H703a8.28,8.28,0,0,1,0,16.55h-6.2Zm6.16.44h-5.72v15.67H703a7.84,7.84,0,1,0,0-15.67Z"/><path class="cls-8" d="M714.15,325h.44v10a6.1,6.1,0,0,0,12.2,0V325h.44v10a6.54,6.54,0,0,1-13.08,0Z"/><path class="cls-8" d="M744.29,339.16a8.28,8.28,0,1,1,0-11.73l-.31.28a7.88,7.88,0,1,0,.05,11.12Z"/><path class="cls-8" d="M746.3,341.59,754,325h.46l7.79,16.55h-.48l-2.52-5.32h-10l-2.47,5.32Zm3.17-5.76h9.58l-4.79-10.28Z"/><path class="cls-8" d="M776.33,325v.42H770v16.13h-.42V325.46h-6.31V325Z"/><path class="cls-8" d="M780.39,341.59V325h.42v16.55Z"/><path class="cls-8" d="M793.41,325a8.28,8.28,0,1,1-8.28,8.28A8.27,8.27,0,0,1,793.41,325Zm0,16.13a7.86,7.86,0,1,0-7.86-7.85A7.83,7.83,0,0,0,793.41,341.17Z"/><path class="cls-8" d="M805.74,325.48v16.11h-.44V325H806l12.78,16.11V325h.44v16.55h-.69Z"/><path d="M506.44,508.35v5.91H489.62a10.51,10.51,0,0,1-4.66-1.08,10.67,10.67,0,0,1-5.91-9.49V481.07H485v23.22a4.74,4.74,0,0,0,4.07,4.06Z"/><path d="M517.08,490.05v3.07h21.36V499H517.08v6.27a3.06,3.06,0,0,0,3,3.06h24.24v5.91H520.12a9,9,0,0,1-8.95-9V490.05a9,9,0,0,1,8.95-9h24.24V487H520.12A3.06,3.06,0,0,0,517.08,490.05Z"/><path d="M565.73,481.09a16.58,16.58,0,0,1,16.58,16.59,16.42,16.42,0,0,1-3.92,10.69c-.3.35-.61.71-.95,1a16.44,16.44,0,0,1-11.71,4.87H549.12V481.09ZM555,508.37h10.69a10.68,10.68,0,0,0,0-21.36H555Z"/><path d="M593,497.68a10.71,10.71,0,0,0,10.69,10.69h10.69V502H603.68v-5.92h16.61v18.2H603.68a16.61,16.61,0,0,1,0-33.21h16.61V487H603.68A10.7,10.7,0,0,0,593,497.68Z"/><path d="M631,490.05v3.07h21.36V499H631v6.27a3.06,3.06,0,0,0,3,3.06h24.23v5.91H634a9,9,0,0,1-9-9V490.05a9,9,0,0,1,9-9h24.23V487H634A3.06,3.06,0,0,0,631,490.05Z"/><rect x="505.42" y="547.59" width="8.61" height="57.8" rx="4.23" ry="4.23" transform="translate(-258.35 529.28) rotate(-45)"/><path d="M613.74,527.13a4.26,4.26,0,0,0-5.9,1.23c-.33.45-.7.87-1.18,1.46-.74-.89-2.85-3.49-3.5-4.22-1.93-2.14-4.34-2.44-6.27-.8s-2,4.09-.19,6.33c1,1.22,3.52,4.24,4.6,5.54a58,58,0,0,1-12.16,10.21c-.3.2-1.32-.25-1.68-.67-2.37-2.74-4.66-5.55-7-8.33l-.56-.68c.81.94-2-2.46-.07-.09l-1.14-1.35c-2.05-2.42-5-2.55-6.83-.42-1.46,1.69-1.29,3.94.5,6.09,5.21,6.29.83,1,6.05,7.29l2.35,2.82a64.72,64.72,0,0,1-15.55,4.93,2.86,2.86,0,0,1-3.19-1.17c-5.8-7.08-7.88-9.54-13.73-16.57a11.49,11.49,0,0,0-1.78-1.84,4.16,4.16,0,0,0-6.33,5,9,9,0,0,0,1.31,2c4.44,5.38,5.12,6.18,9.58,11.55.44.53.83,1.1,1.25,1.65l-.18.53c-2.88-.38-16.08-1.69-23.1-2.47a62.34,62.34,0,0,1-.2-20.81,5.38,5.38,0,0,0-.63-3.16A3.69,3.69,0,0,0,524,529.3a4.17,4.17,0,0,0-3.43,3.82,70.77,70.77,0,0,0-.24,21.44c-12-1.4-33.15-2.18-41.51-.26-4.09.94-6.41,2.94-4.42,6.53.91,1.65,4.81,1.93,6.86,1.55a127.11,127.11,0,0,1,15.5-1.28c3.39,0,19.62,1.59,25.41,2.26.24.91.51,1.82.8,2.72a62.36,62.36,0,0,1,2.6,27.09c-.08.67-.23,1.32-.38,2.16,0,0-2.14,9.17-2.55,10.53-.32,1.07-1.75,3.9-2,5-.38,1.54-1.15,3.15-.79,4.71a4.49,4.49,0,0,0,1.51,1.82c3.16,2.22,5.32.61,6.87-2.94,6.93-15.94,8.19-32.35,3.28-49l-.39-1.36c9.33,1.21,24.85,2,31.11,1.21,16.93-2.25,31.83-8.95,43.79-21.39A115.06,115.06,0,0,0,614.79,533,4,4,0,0,0,613.74,527.13Z"/><path d="M544.7,465.35a4.26,4.26,0,0,0,6-.73c.37-.42.77-.81,1.3-1.35.66,1,2.55,3.72,3.14,4.5,1.73,2.29,4.1,2.79,6.17,1.32s2.32-3.9.72-6.28c-.87-1.31-3.14-4.52-4.11-5.91a58.11,58.11,0,0,1,13-9.15c.33-.17,1.3.36,1.63.81,2.13,2.93,4.17,5.92,6.23,8.89l.51.72c-.73-1,1.82,2.63.06.1l1,1.44c1.83,2.58,4.74,3,6.77,1,1.59-1.55,1.61-3.81,0-6.11-4.66-6.7-.75-1.07-5.42-7.77l-2.1-3a64.91,64.91,0,0,1,15.92-3.6,2.87,2.87,0,0,1,3.07,1.44c5.18,7.54,7,10.17,12.28,17.67a12,12,0,0,0,1.62,2,4,4,0,0,0,5.07.4,4,4,0,0,0,1.66-4.82,9.23,9.23,0,0,0-1.14-2.06c-4-5.73-4.58-6.59-8.57-12.32-.39-.56-.74-1.16-1.11-1.75l.23-.51c2.84.63,15.87,3,22.8,4.42a62.32,62.32,0,0,1-1.55,20.75,5.27,5.27,0,0,0,.36,3.2,3.68,3.68,0,0,0,4.07,2.16,4.17,4.17,0,0,0,3.74-3.51,70.69,70.69,0,0,0,2.05-21.35c11.79,2.4,32.85,5,41.34,3.77,4.16-.59,6.63-2.39,5-6.14-.77-1.72-4.63-2.32-6.71-2.11a128.41,128.41,0,0,1-15.55-.05c-3.37-.33-19.42-3.24-25.13-4.39-.16-.93-.36-1.85-.56-2.78a62.5,62.5,0,0,1-.31-27.22c.14-.65.34-1.29.57-2.11,0,0,2.9-8.95,3.42-10.28.41-1,2.08-3.74,2.43-4.78.5-1.5,1.41-3.05,1.18-4.63a4.53,4.53,0,0,0-1.35-1.94c-3-2.48-5.25-1.05-7.09,2.35-8.25,15.29-10.9,31.54-7.41,48.54l.27,1.38c-9.2-2-24.58-4.12-30.89-3.83-17.06.81-32.47,6.23-45.44,17.61a113.77,113.77,0,0,0-9.67,10.08A4,4,0,0,0,544.7,465.35Z"/><line x1="663.25" y1="441.51" x2="664.16" y2="441.42"/><rect x="647.34" y="395.39" width="8.69" height="54.92" transform="translate(-124.74 448.43) rotate(-34.86)"/></svg>