<svg id="Layer_1" data-name="Layer 1" xmlns="http://www.w3.org/2000/svg" viewBox="0 0 576 576"><defs><style>.cls-1,.cls-3{fill:#90b297;}.cls-1{stroke:#90b297;}.cls-1,.cls-2{stroke-miterlimit:10;stroke-width:1.75px;}.cls-2,.cls-4{fill:#2ebcbc;}.cls-2{stroke:#2ebcbc;}.cls-5{fill:none;}</style></defs><path class="cls-1" d="M161.58,296.1v10.46H131.83a18.48,18.48,0,0,1-8.23-1.91,18.89,18.89,0,0,1-10.47-16.78v-40H123.6v41.06a8.36,8.36,0,0,0,7.18,7.18Z"/><path class="cls-1" d="M180.39,263.73v5.45h37.78v10.47H180.39v11.1a5.4,5.4,0,0,0,5.37,5.4h42.9v10.47h-42.9A15.85,15.85,0,0,1,170,290.75v-27a15.85,15.85,0,0,1,15.8-15.87h42.9v10.47h-42.9A5.4,5.4,0,0,0,180.39,263.73Z"/><path class="cls-2" d="M266.41,247.9a29.35,29.35,0,0,1,29.35,29.35h0a29,29,0,0,1-6.94,18.91c-.52.62-1.08,1.25-1.68,1.85a29.12,29.12,0,0,1-20.71,8.61H237.07V247.91ZM247.5,296.13h18.91a18.89,18.89,0,0,0,0-37.77H247.5Z"/><path class="cls-2" d="M314.62,277.23a18.91,18.91,0,0,0,18.91,18.9h18.86V284.92H333.5V274.38h29.35V306.6H333.5a29.36,29.36,0,0,1,0-58.71h29.35v10.46H333.5A18.93,18.93,0,0,0,314.62,277.23Z"/><path class="cls-2" d="M381.74,263.73v5.45h37.77v10.47H381.74v11.1a5.4,5.4,0,0,0,5.37,5.4H430v10.47H387.11a15.85,15.85,0,0,1-15.8-15.87v-27a15.85,15.85,0,0,1,15.8-15.87H430v10.47H387.11A5.4,5.4,0,0,0,381.74,263.73Z"/><path class="cls-3" d="M131.23,380.46h0a7.61,7.61,0,0,1,10.76,0L203.51,442a7.61,7.61,0,0,1,0,10.76h0a7.61,7.61,0,0,1-10.76,0l-61.52-61.52A7.61,7.61,0,0,1,131.23,380.46Z"/><path class="cls-3" d="M351.3,329.32c-3.35-2.31-7.76-1.38-10.43,2.18-.58.79-1.23,1.54-2.08,2.57-1.3-1.57-5.05-6.16-6.2-7.45-3.4-3.76-7.66-4.31-11.07-1.41s-3.51,7.22-.34,11.18c1.74,2.17,6.21,7.53,8.13,9.78a102.49,102.49,0,0,1-21.49,18.07c-.55.35-2.34-.44-3-1.18-4.19-4.84-8.23-9.79-12.31-14.74l-1-1.19c1.43,1.66-3.61-4.36-.13-.17l-2-2.38c-3.62-4.28-8.81-4.52-12-.75-2.58,3-2.26,6.95.88,10.76,9.21,11.11,1.5,1.78,10.71,12.88l4.15,5a114,114,0,0,1-27.51,8.72,5.08,5.08,0,0,1-5.63-2.07c-10.25-12.52-13.93-16.88-24.27-29.31a21,21,0,0,0-3.15-3.24,7.35,7.35,0,0,0-11.19,8.79,16,16,0,0,0,2.3,3.46c7.87,9.5,9,10.92,16.94,20.42.76.94,1.51,1.95,2.26,2.92l-.32.93c-5.1-.68-28.43-3-40.85-4.37a110.28,110.28,0,0,1-.36-36.79,9.41,9.41,0,0,0-1.11-5.6,6.54,6.54,0,0,0-7.49-3.2c-3.62.75-5.49,3.18-6.07,6.78a125.1,125.1,0,0,0-.43,37.9c-21.12-2.46-58.62-3.84-73.39-.45-7.25,1.66-11.33,5.2-7.82,11.55,1.62,2.93,8.5,3.41,12.13,2.73a226,226,0,0,1,27.41-2.26c6,.08,34.7,2.81,44.93,4q.65,2.4,1.41,4.81a110.46,110.46,0,0,1,4.61,47.9c-.15,1.17-.42,2.33-.69,3.82,0,0-3.76,16.2-4.51,18.62-.56,1.88-3.1,6.89-3.56,8.78-.67,2.72-2,5.58-1.4,8.33a8.07,8.07,0,0,0,2.68,3.22c5.59,3.92,9.4,1.07,12.14-5.2,12.26-28.18,14.48-57.2,5.81-86.62-.24-.8-.47-1.61-.69-2.41,16.5,2.13,43.93,3.59,55,2.13,29.92-4,56.28-15.8,77.43-37.81,5.68-5.92,10.58-12.62,15.52-19.2A7.15,7.15,0,0,0,351.3,329.32Z"/><path class="cls-4" d="M229.22,220.08c3.15,2.58,7.61,2,10.58-1.3.65-.75,1.36-1.42,2.26-2.38,1.16,1.67,4.51,6.57,5.54,7.94,3.07,4.06,7.27,4.95,10.92,2.34s4.1-6.89,1.28-11.1c-1.55-2.31-5.56-8-7.28-10.46a102.65,102.65,0,0,1,23-16.17c.57-.3,2.26.64,2.87,1.43,3.76,5.18,7.37,10.47,11,15.72l.88,1.27c-1.28-1.77,3.23,4.65.12.17l1.82,2.56c3.24,4.57,8.39,5.26,12,1.75,2.82-2.74,2.86-6.74,0-10.8-8.24-11.85-1.32-1.9-9.58-13.74L290.85,182A114.71,114.71,0,0,1,319,175.61a5.11,5.11,0,0,1,5.45,2.55c9.15,13.34,12.45,18,21.71,31.25a20.92,20.92,0,0,0,2.86,3.5,7.35,7.35,0,0,0,11.89-7.82,15.66,15.66,0,0,0-2-3.63c-7-10.14-8.11-11.65-15.15-21.78-.7-1-1.31-2.07-2-3.1l.4-.91c5,1.11,28.07,5.38,40.33,7.81a110.18,110.18,0,0,1-2.68,36.72,9.33,9.33,0,0,0,.64,5.66,6.53,6.53,0,0,0,7.19,3.83c3.67-.45,5.74-2.7,6.62-6.23a125.18,125.18,0,0,0,3.63-37.73C418.74,190,456,194.51,471,192.39c7.36-1,11.73-4.22,8.77-10.86-1.37-3-8.18-4.11-11.86-3.76a227.81,227.81,0,0,1-27.51-.07c-5.95-.6-34.33-5.74-44.4-7.78-.29-1.64-.63-3.28-1-4.92a110.35,110.35,0,0,1-.54-48.12c.25-1.15.61-2.26,1-3.76,0,0,5.14-15.81,6.06-18.19.75-1.83,3.66-6.6,4.29-8.45.89-2.66,2.49-5.38,2.1-8.18-.15-1-1.6-2.76-2.4-3.44C400.28,70.49,396.23,73,393,79c-14.6,27-19.28,55.78-13.11,85.8.16.81.33,1.63.48,2.45-16.27-3.52-43.47-7.3-54.63-6.77-30.16,1.42-57.42,11-80.35,31.13-6.17,5.42-11.62,11.68-17.09,17.83A7.17,7.17,0,0,0,229.22,220.08Z"/><line class="cls-5" x1="438.85" y1="177.92" x2="440.46" y2="177.76"/><rect class="cls-4" x="410.74" y="96.38" width="15.37" height="97.11" transform="translate(-7.75 265.17) rotate(-34.86)"/></svg>