<svg id="Layer_2" data-name="Layer 2" xmlns="http://www.w3.org/2000/svg" viewBox="0 0 576 576"><defs><style>.cls-1,.cls-3{fill:#90b297;}.cls-1{stroke:#90b297;}.cls-1,.cls-2{stroke-miterlimit:10;stroke-width:2.32px;}.cls-2,.cls-4{fill:#2ebcbc;}.cls-2{stroke:#2ebcbc;}</style></defs><title>Ledge Logo</title><path class="cls-1" d="M114.47,306.86v13.9H74.94A24.7,24.7,0,0,1,64,318.21a25.08,25.08,0,0,1-13.9-22.29V242.76H64v54.55a11.12,11.12,0,0,0,9.55,9.55Z"/><path class="cls-1" d="M139.47,263.85v7.23h50.19V285H139.47v14.74a7.17,7.17,0,0,0,7.13,7.18h57v13.91h-57a21.07,21.07,0,0,1-21-21.09V263.85a21.07,21.07,0,0,1,21-21.09h57v13.91h-57A7.17,7.17,0,0,0,139.47,263.85Z"/><path class="cls-2" d="M253.76,242.81a39,39,0,0,1,39,39,38.52,38.52,0,0,1-9.22,25.12c-.7.83-1.44,1.67-2.23,2.46a38.65,38.65,0,0,1-27.53,11.44h-39v-78ZM228.64,306.9h25.12a25.1,25.1,0,0,0,0-50.19H228.64Z"/><path class="cls-2" d="M317.82,281.78a25.14,25.14,0,0,0,25.12,25.12H368V292h-25.1V278h39V320.8h-39a39,39,0,1,1,0-78h39v13.9h-39A25.14,25.14,0,0,0,317.82,281.78Z"/><path class="cls-2" d="M407,263.85v7.23h50.19V285H407v14.74a7.18,7.18,0,0,0,7.14,7.18h56.95v13.91H414.14a21.06,21.06,0,0,1-21-21.09V263.85a21.06,21.06,0,0,1,21-21.09h56.95v13.91H414.14A7.18,7.18,0,0,0,407,263.85Z"/><rect class="cls-3" x="112.05" y="399.06" width="20.22" height="135.81" rx="10.11" ry="10.11" transform="translate(-294.41 223.15) rotate(-45)"/><path class="cls-3" d="M366.56,351c-4.45-3.07-10.31-1.84-13.86,2.89-.78,1.05-1.64,2.05-2.77,3.42-1.73-2.09-6.71-8.19-8.24-9.9-4.51-5-10.17-5.73-14.71-1.88s-4.66,9.6-.45,14.86c2.31,2.88,8.26,10,10.81,13a136.14,136.14,0,0,1-28.56,24c-.73.47-3.11-.58-4-1.57-5.56-6.43-10.93-13-16.36-19.58l-1.32-1.58c1.9,2.2-4.8-5.79-.18-.22l-2.68-3.17c-4.81-5.69-11.7-6-16-1-3.42,3.95-3,9.24,1.17,14.3,12.24,14.76,2,2.37,14.23,17.12l5.52,6.64a152.29,152.29,0,0,1-36.55,11.59c-3.34.64-5.35-.14-7.49-2.76-13.62-16.63-18.5-22.42-32.24-38.94a28.5,28.5,0,0,0-4.19-4.31,9.77,9.77,0,0,0-14.87,11.69,21.48,21.48,0,0,0,3.06,4.59c10.45,12.63,12,14.51,22.51,27.13,1,1.25,2,2.59,3,3.89-.15.41-.28.82-.43,1.23-6.77-.9-37.77-4-54.27-5.8a146.31,146.31,0,0,1-.48-48.89,12.46,12.46,0,0,0-1.48-7.44c-2.06-3.7-5.73-5.12-9.95-4.25-4.81,1-7.3,4.22-8.07,9a166,166,0,0,0-.56,50.37c-28.07-3.27-77.89-5.11-97.52-.6-9.63,2.2-15.06,6.91-10.39,15.35,2.15,3.88,11.29,4.52,16.11,3.62,5.94-1.11,27.49-3.12,36.43-3,8,.11,46.1,3.73,59.69,5.31q.87,3.19,1.88,6.39a146.89,146.89,0,0,1,6.13,63.65c-.21,1.56-.56,3.1-.92,5.07,0,0-5,21.53-6,24.74-.74,2.5-4.11,9.16-4.72,11.67-.89,3.62-2.7,7.41-1.86,11.07.31,1.36,2.42,3.48,3.56,4.28,7.42,5.21,12.49,1.42,16.12-6.91,16.29-37.44,19.25-76,7.72-115.1-.31-1.06-.62-2.13-.91-3.2,21.92,2.84,58.37,4.78,73.09,2.84,39.76-5.28,74.78-21,102.88-50.25,7.55-7.86,14.06-16.76,20.62-25.51C372.62,360.06,371.18,354.16,366.56,351Z"/><path class="cls-4" d="M204.35,205.84c4.18,3.43,10.11,2.7,14.05-1.72.87-1,1.81-1.89,3-3.17,1.55,2.23,6,8.73,7.37,10.56,4.07,5.39,9.66,6.57,14.5,3.11s5.46-9.16,1.71-14.76c-2.06-3.06-7.39-10.62-9.67-13.89a136.19,136.19,0,0,1,30.49-21.49c.76-.4,3,.85,3.81,1.9,5,6.88,9.8,13.92,14.66,20.89l1.17,1.69c-1.7-2.35,4.29,6.18.16.23l2.41,3.39c4.31,6.08,11.15,7,15.9,2.33,3.74-3.64,3.79-8.95,0-14.35-10.95-15.74-1.76-2.52-12.73-18.25l-4.94-7.09a152.64,152.64,0,0,1,37.39-8.46c3.39-.35,5.32.6,7.23,3.38,12.17,17.73,16.55,23.91,28.85,41.53a28.46,28.46,0,0,0,3.8,4.65,9.76,9.76,0,0,0,15.8-10.39,20.71,20.71,0,0,0-2.66-4.83c-9.34-13.47-10.77-15.48-20.13-28.94-.93-1.34-1.74-2.75-2.61-4.12l.53-1.2c6.68,1.47,37.3,7.15,53.58,10.38A146.58,146.58,0,0,1,404.47,206a12.39,12.39,0,0,0,.84,7.53c1.74,3.86,5.28,5.59,9.56,5.08,4.87-.59,7.63-3.58,8.8-8.27a166.09,166.09,0,0,0,4.81-50.14c27.69,5.64,77.17,11.67,97.12,8.85,9.78-1.39,15.59-5.61,11.65-14.42-1.81-4-10.87-5.47-15.75-5-6,.6-27.65.78-36.55-.1-7.91-.79-45.62-7.62-59-10.33-.39-2.18-.84-4.36-1.33-6.54a146.75,146.75,0,0,1-.72-63.94c.33-1.53.81-3,1.33-5,0,0,6.83-21,8.05-24.16,1-2.43,4.87-8.77,5.7-11.23,1.19-3.53,3.31-7.15,2.79-10.87-.2-1.38-2.12-3.67-3.19-4.57-6.95-5.81-12.33-2.47-16.65,5.53-19.39,35.93-25.61,74.11-17.42,114,.22,1.08.44,2.17.64,3.26-21.61-4.68-57.75-9.7-72.59-9-40.07,1.89-76.29,14.62-106.76,41.37-8.19,7.19-15.43,15.51-22.7,23.68C199.08,196.28,200,202.28,204.35,205.84Z"/><line class="cls-4" x1="482.89" y1="149.83" x2="485.02" y2="149.62"/><rect class="cls-4" x="445.52" y="41.45" width="20.42" height="129.03" transform="translate(21.23 279.53) rotate(-34.86)"/></svg>