<svg id="Layer_1" data-name="Layer 1" xmlns="http://www.w3.org/2000/svg" viewBox="0 0 576 576"><defs><style>.cls-1,.cls-2,.cls-3,.cls-4,.cls-6,.cls-7,.cls-8,.cls-9{fill:#2494fb;stroke:#2494fb;}.cls-1,.cls-10,.cls-11,.cls-2,.cls-3,.cls-4,.cls-5,.cls-6,.cls-7,.cls-8,.cls-9{stroke-miterlimit:10;}.cls-1{stroke-width:1.18px;}.cls-2{stroke-width:1.2px;}.cls-3{stroke-width:0.31px;}.cls-4{stroke-width:1.25px;}.cls-10,.cls-11,.cls-5{fill:#ef6356;stroke:#ef6356;}.cls-5{stroke-width:0.13px;}.cls-6{stroke-width:0.98px;}.cls-7{stroke-width:1px;}.cls-8{stroke-width:0.26px;}.cls-9{stroke-width:1.04px;}.cls-10{stroke-width:0.69px;}.cls-11{stroke-width:0.4px;}</style></defs><path d="M89.66,338a17,17,0,0,1,17,17v62.35H95.36V355a5.65,5.65,0,0,0-5.7-5.65A5.67,5.67,0,0,0,84,355v62.35H72.66V355A5.58,5.58,0,0,0,67,349.39a5.47,5.47,0,0,0-4,1.66,5.41,5.41,0,0,0-1.66,4v62.35H50V355a17,17,0,0,1,17-17,16.23,16.23,0,0,1,11.3,4.34A16.41,16.41,0,0,1,89.66,338Z"/><path d="M125,417.39H113.67V338H125Z"/><path d="M166,417.39H154.68L150.89,406l-3.78-11.3-3.78-11.35v34H132V338h11.31v22.65l3.17-6.26,2.52-5L154.68,338H166l-5.66,11.35-5.69,11.3-3.83,7.71L152,372l1.72,5.65,1,3.18.79,2.52,3.5,11.35,3.55,11.3Z"/><path d="M197.55,372v11.35H184.38V406h13.17v11.35H173V338h24.52v11.35H184.38V372Z"/><path d="M238.61,360.69H227.26V355a5.67,5.67,0,0,0-5.65-5.65,5.47,5.47,0,0,0-4,1.66,5.41,5.41,0,0,0-1.66,4v12a4.72,4.72,0,0,0,1.47,3.5,4.84,4.84,0,0,0,3.53,1.45h4.34a13.38,13.38,0,0,1,13.36,13.36v15a17,17,0,0,1-34.05,0v-5.65h11.35v5.65a5.41,5.41,0,0,0,1.66,4,5.69,5.69,0,0,0,8,0,5.41,5.41,0,0,0,1.66-4V388.34a4.74,4.74,0,0,0-1.45-3.5,4.8,4.8,0,0,0-3.55-1.45h-4.34A13.38,13.38,0,0,1,204.56,370V355a17,17,0,0,1,34.05,0Z"/><path d="M395.19,338a17,17,0,0,1,17,17v62.35H400.88V355a5.68,5.68,0,0,0-11.35,0v62.35H378.18V355a5.68,5.68,0,0,0-9.69-4,5.44,5.44,0,0,0-1.65,4v62.35H355.53V355a17,17,0,0,1,28.31-12.66A16.39,16.39,0,0,1,395.19,338Z"/><path d="M430.54,417.39H419.19V338h11.35Z"/><path d="M471.55,372H460.2V355a5.65,5.65,0,0,0-11.3,0v45.35a5.65,5.65,0,0,0,11.3,0v-17h11.35v17a17,17,0,1,1-34,0V355a17,17,0,1,1,34,0Z"/><path class="cls-1" d="M269,338.63a14.29,14.29,0,0,1,11.06,4.83,15.52,15.52,0,0,1-.22,21,15.27,15.27,0,0,1-21.71,0,15.47,15.47,0,0,1-.23-21A14.32,14.32,0,0,1,269,338.63Zm0,3.64a10.72,10.72,0,0,0-8,3.42,11.44,11.44,0,0,0-3.34,8.29,11.75,11.75,0,0,0,1.52,5.84A10.73,10.73,0,0,0,263.3,364a11.62,11.62,0,0,0,11.35,0,10.7,10.7,0,0,0,4.1-4.18,11.75,11.75,0,0,0,1.52-5.84,11.44,11.44,0,0,0-3.34-8.29A10.75,10.75,0,0,0,269,342.27Z"/><path class="cls-2" d="M291.33,339.39h3.77v5.25a15.73,15.73,0,0,1,5-4.51,12.33,12.33,0,0,1,6-1.5,10.42,10.42,0,0,1,5.83,1.67,10,10,0,0,1,3.76,4.5q1.21,2.83,1.21,8.81V368.7h-3.77v-14a34.56,34.56,0,0,0-.42-6.77,7.43,7.43,0,0,0-2.52-4.37,7.58,7.58,0,0,0-4.85-1.47,9.3,9.3,0,0,0-6.13,2.26,10.68,10.68,0,0,0-3.57,5.61,38.82,38.82,0,0,0-.54,8V368.7h-3.77Z"/><path class="cls-3" d="M269.75,416.1a8.89,8.89,0,0,1-4.3.9q-7.57,0-7.57-8.44V391.51h-5v-3.94h5V375.52l4.61-1.49v13.54h7.26v3.94h-7.26v16.23a6.73,6.73,0,0,0,1,4.14,3.93,3.93,0,0,0,3.26,1.24,4.84,4.84,0,0,0,3-1Z"/><path class="cls-4" d="M275.63,374h3.94v17.3a16.71,16.71,0,0,1,5.26-4.71,12.82,12.82,0,0,1,6.22-1.56,10.86,10.86,0,0,1,6.09,1.74,10.52,10.52,0,0,1,3.93,4.69q1.26,2.94,1.26,9.21v15.76h-3.94v-14.6a37.45,37.45,0,0,0-.42-7.06,8,8,0,0,0-2.66-4.58,7.88,7.88,0,0,0-5.05-1.53,9.75,9.75,0,0,0-6.4,2.36,11.13,11.13,0,0,0-3.73,5.86,40.8,40.8,0,0,0-.56,8.32v11.23h-3.94Z"/><path class="cls-4" d="M336.54,406.22l3.32,1.75a17.77,17.77,0,0,1-3.77,5.17,14.74,14.74,0,0,1-4.81,3,16.74,16.74,0,0,1-6.06,1q-7.49,0-11.71-4.91a16.56,16.56,0,0,1-4.23-11.1,16.34,16.34,0,0,1,3.58-10.38A14.6,14.6,0,0,1,325,385a15.1,15.1,0,0,1,12.51,5.94,16.6,16.6,0,0,1,3.38,10.46H313.33a12.49,12.49,0,0,0,3.41,8.75,10.89,10.89,0,0,0,8.14,3.41,13.11,13.11,0,0,0,4.55-.81,12,12,0,0,0,3.76-2.16A18.24,18.24,0,0,0,336.54,406.22Zm0-8.24a13,13,0,0,0-2.29-5,11,11,0,0,0-4-3,12.18,12.18,0,0,0-5.21-1.15,11.25,11.25,0,0,0-7.75,2.9,13.12,13.12,0,0,0-3.57,6.33Z"/><path class="cls-5" d="M509.77,338.42c6,.83,10,6.39,10,12.46v32.06a12.69,12.69,0,0,1-12.39,12.75,12.5,12.5,0,0,1-12.75-11.9c-.18-2.84-.09-5.7-.11-8.55a4.2,4.2,0,0,1,.22-.89h18.61v-3.81H494.67v-4h18.7v-3.77H494.65v-4.17h18.74v-3.77H494.8c-1.59-9.17,3.4-15.79,10-16.41A16.56,16.56,0,0,1,509.77,338.42Z"/><path class="cls-5" d="M492.56,417.62V413h12V403c-.66-.15-1.36-.29-2.06-.46a20.15,20.15,0,0,1-15.37-19.42c0-2.79,0-5.58,0-8.37,0-1.64.68-2.78,2.41-2.76s2.37,1.2,2.37,2.82c0,2.72,0,5.44,0,8.17a15.32,15.32,0,0,0,30.63.36c.08-2.79,0-5.58,0-8.37,0-2,.85-3,2.37-3s2.42,1.06,2.38,3a97.25,97.25,0,0,1-.43,11.72c-1.07,7.72-7.66,14.3-15.39,15.92l-2,.41v9.9h12.7v4.71Z"/><path d="M58.57,217.4H47.91v-66H61.08l11.09,39.21,11.08-39.21H96.42v66H85.86V171.08l-8.78,32H67.36l-8.79-31.89Z"/><path d="M107.19,151.43h12v66h-12Z"/><path d="M129.88,217.4v-66h12v66Zm36.14-66-13.59,32.83,13.49,33.14H153l-13.07-33.14,13.18-32.83Z"/><path d="M186.55,208.2h20.07v9.2h-32.2v-66h31.37v9.2H186.55v18.3h16.21v9.3H186.55Z"/><path d="M234.44,205.38V191.26a3.05,3.05,0,0,0-.63-2.25,3.49,3.49,0,0,0-2.3-.57H223q-10.77,0-10.77-10.46v-16.2q0-10.35,11.29-10.35h11.5q11.3,0,11.3,10.35V171H234.23v-7.53a3.05,3.05,0,0,0-.63-2.25,3.49,3.49,0,0,0-2.3-.57h-4a3.7,3.7,0,0,0-2.41.57,3.05,3.05,0,0,0-.63,2.25v13.28a3,3,0,0,0,.63,2.25,3.7,3.7,0,0,0,2.41.57h8.26q11,0,11,10.25v17.25q0,10.35-11.39,10.35H223.88q-11.4,0-11.4-10.35V198h12v7.43a3.05,3.05,0,0,0,.63,2.25,3.7,3.7,0,0,0,2.41.57h4a3.49,3.49,0,0,0,2.3-.57A3.05,3.05,0,0,0,234.44,205.38Z"/><path d="M356.49,217.4H345.83v-66H359l11.08,39.21,11.09-39.21h13.17v66H383.78V171.08l-8.78,32h-9.73l-8.78-31.89Z"/><path d="M405.11,151.43h12v66h-12Z"/><path d="M462.3,173.28H450.17V163a3.05,3.05,0,0,0-.63-2.25,3.45,3.45,0,0,0-2.3-.57h-4.91a3.47,3.47,0,0,0-2.3.57,3.05,3.05,0,0,0-.63,2.25V205.9a3,3,0,0,0,.63,2.25,3.47,3.47,0,0,0,2.3.57h4.91a3.45,3.45,0,0,0,2.3-.57,3,3,0,0,0,.63-2.25v-10H462.3v11.3q0,10.35-11.4,10.35H438.67q-11.4,0-11.4-10.35V161.78q0-10.35,11.4-10.35H450.9q11.4,0,11.4,10.35Z"/><path class="cls-6" d="M273.32,151.63a11.88,11.88,0,0,1,9.19,4,12.87,12.87,0,0,1-.19,17.46,12.69,12.69,0,0,1-18,0,12.84,12.84,0,0,1-.19-17.44A11.89,11.89,0,0,1,273.32,151.63Zm0,3a8.92,8.92,0,0,0-6.62,2.84,9.53,9.53,0,0,0-2.76,6.89,9.77,9.77,0,0,0,1.26,4.85,8.89,8.89,0,0,0,3.41,3.47,9.65,9.65,0,0,0,9.43,0,8.89,8.89,0,0,0,3.41-3.47,9.77,9.77,0,0,0,1.26-4.85,9.47,9.47,0,0,0-2.78-6.89A8.89,8.89,0,0,0,273.3,154.66Z"/><path class="cls-7" d="M291.88,152.26H295v4.37a13.13,13.13,0,0,1,4.17-3.75,10.22,10.22,0,0,1,5-1.25A8.69,8.69,0,0,1,309,153a8.27,8.27,0,0,1,3.12,3.74,19.81,19.81,0,0,1,1,7.32v12.54H310V165a28,28,0,0,0-.35-5.62,6.19,6.19,0,0,0-2.09-3.64,6.32,6.32,0,0,0-4-1.22,7.75,7.75,0,0,0-5.09,1.88,8.87,8.87,0,0,0-3,4.66,32.27,32.27,0,0,0-.45,6.63v8.93h-3.13Z"/><path class="cls-8" d="M274,216a7.38,7.38,0,0,1-3.58.75q-6.28,0-6.29-7V195.57H260V192.3h4.11v-10l3.84-1.24V192.3h6v3.27h-6v13.49a5.54,5.54,0,0,0,.82,3.43,3.25,3.25,0,0,0,2.71,1,4,4,0,0,0,2.5-.79Z"/><path class="cls-9" d="M278.84,181h3.27v14.38a13.88,13.88,0,0,1,4.37-3.92,10.7,10.7,0,0,1,5.17-1.3,9.06,9.06,0,0,1,5.06,1.45,8.68,8.68,0,0,1,3.26,3.9,20.65,20.65,0,0,1,1,7.65v13.09h-3.27V204.1a31.47,31.47,0,0,0-.35-5.87,6.68,6.68,0,0,0-2.21-3.8,6.61,6.61,0,0,0-4.2-1.27,8.07,8.07,0,0,0-5.32,2,9.23,9.23,0,0,0-3.09,4.87,32.9,32.9,0,0,0-.47,6.92v9.32h-3.27Z"/><path class="cls-9" d="M329.45,207.8l2.76,1.44a15.06,15.06,0,0,1-3.14,4.31,12.45,12.45,0,0,1-4,2.49,14.15,14.15,0,0,1-5,.85q-6.23,0-9.73-4.08a13.75,13.75,0,0,1-3.51-9.22,13.62,13.62,0,0,1,3-8.63,12.15,12.15,0,0,1,10.08-4.82,12.55,12.55,0,0,1,10.39,4.94,13.76,13.76,0,0,1,2.81,8.69H310.16A10.42,10.42,0,0,0,313,211a9.05,9.05,0,0,0,6.77,2.83,10.92,10.92,0,0,0,3.78-.67,9.8,9.8,0,0,0,3.12-1.8A15.08,15.08,0,0,0,329.45,207.8Zm0-6.85a10.79,10.79,0,0,0-1.91-4.19,9,9,0,0,0-3.31-2.52,10.13,10.13,0,0,0-4.33-1,9.32,9.32,0,0,0-6.44,2.41,10.83,10.83,0,0,0-3,5.26Z"/><path class="cls-10" d="M504.26,217.06H478.19a1.71,1.71,0,0,1-1.79-1.17,1.6,1.6,0,0,1,0-.44q0-18.27,0-36.53a1.58,1.58,0,0,1,.58-1.25,18.65,18.65,0,0,0,5.22-7.92,21.93,21.93,0,0,0,1.2-7.42c0-2.56,0-5.11,0-7.67,0-1.06.56-1.69,1.86-1.88,2.67-.38,5.33-.81,8-1.22a2.47,2.47,0,0,0,.36-.11,2,2,0,0,1,1.78.23,18.37,18.37,0,0,0,6.11,2.48,13.92,13.92,0,0,0,6.48-.18,17.91,17.91,0,0,0,5.4-2.34,2,2,0,0,1,1.51-.25c.81.16,1.62.32,2.44.45l6.48,1a1.6,1.6,0,0,1,1.51,1.58c0,2.82,0,5.63,0,8.45a20.85,20.85,0,0,0,2.16,9.21,17.92,17.92,0,0,0,4.2,5.55,1.58,1.58,0,0,1,.59,1.25v36.58c0,1-.73,1.6-1.87,1.6Zm-17.44-61.48v.31c0,2.23,0,4.45,0,6.68a23.51,23.51,0,0,1-.71,6,22.11,22.11,0,0,1-6.08,10.6.57.57,0,0,0-.18.39q0,17.16,0,34.3c0,.08,0,.17,0,.27H528.4c.27,0,.33-.07.33-.29q0-17.13,0-34.27a.59.59,0,0,0-.2-.44,20.87,20.87,0,0,1-3.37-4.19,22.76,22.76,0,0,1-3.39-11.69c0-2.45,0-4.9,0-7.34v-.29l-5.31-.82c0,.48.07.92.07,1.35a11.49,11.49,0,0,1-.88,4.31,11.87,11.87,0,0,1-5.75,6.17,12.12,12.12,0,0,1-7.45,1.19,11.86,11.86,0,0,1-7.24-3.85,11.53,11.53,0,0,1-3.11-7.5c0-.55,0-1.09,0-1.66Zm8.81-.17a3.11,3.11,0,0,0-.06.66,18.78,18.78,0,0,0,.34,2.37,8.54,8.54,0,0,0,3.86,5.17,8.31,8.31,0,0,0,6.05,1.17,8.52,8.52,0,0,0,5-2.88,8.82,8.82,0,0,0,2.17-5.19c0-.43,0-.86,0-1.31A19.48,19.48,0,0,1,495.63,155.41Z"/><path class="cls-11" d="M507.54,191.57a9,9,0,0,1,3.54,2.8,6.24,6.24,0,0,1,1.07,3.58,7.44,7.44,0,0,1-1.84,5,8,8,0,0,1-6.44,2.64,7.83,7.83,0,0,1-6.13-2.31,7.44,7.44,0,0,1-2.08-5.1,6.4,6.4,0,0,1,1.09-3.66,9.19,9.19,0,0,1,3.64-2.91,6.82,6.82,0,0,1-2.68-2.3,5.29,5.29,0,0,1-.89-3,5.7,5.7,0,0,1,.95-3.1,6.6,6.6,0,0,1,2.63-2.38A7.78,7.78,0,0,1,504,180a7.35,7.35,0,0,1,3.53.87,6.57,6.57,0,0,1,2.54,2.39,6,6,0,0,1,.92,3.16,5.17,5.17,0,0,1-.87,3A7.2,7.2,0,0,1,507.54,191.57ZM504,192.8a5.83,5.83,0,0,0-4.21,1.63,5.08,5.08,0,0,0-1.7,3.8,4.87,4.87,0,0,0,2.76,4.37,6.74,6.74,0,0,0,3,.64,5.72,5.72,0,0,0,4.24-1.57A5.06,5.06,0,0,0,509.7,198a4.86,4.86,0,0,0-1.67-3.62A5.56,5.56,0,0,0,504,192.8Zm-.11-10.47a4.8,4.8,0,0,0-3.33,1.19,3.69,3.69,0,0,0-1.31,2.82,4,4,0,0,0,1.41,2.94A4.72,4.72,0,0,0,504,190.6a4.64,4.64,0,0,0,2.29-.6,4.32,4.32,0,0,0,1.68-1.63,4,4,0,0,0,.61-2.08,3.85,3.85,0,0,0-1.19-2.71A4.61,4.61,0,0,0,503.91,182.33Z"/></svg>