<svg id="Layer_1" data-name="Layer 1" xmlns="http://www.w3.org/2000/svg" viewBox="0 0 576 576"><defs><style>.cls-1,.cls-2,.cls-3,.cls-4{fill:#2494fb;stroke:#2494fb;}.cls-1,.cls-2,.cls-3,.cls-4,.cls-5,.cls-6{stroke-miterlimit:10;}.cls-1{stroke-width:0.96px;}.cls-2{stroke-width:0.98px;}.cls-3{stroke-width:0.25px;}.cls-4{stroke-width:1.02px;}.cls-5,.cls-6{fill:#ef6356;stroke:#ef6356;}.cls-5{stroke-width:0.67px;}.cls-6{stroke-width:0.39px;}</style></defs><path d="M59.62,316.09H49.18V251.55H62.07l10.84,38.36,10.85-38.36H96.64v64.54H86.31V270.78l-8.59,31.3H68.21l-8.59-31.2Z"/><path d="M107.18,251.55h11.76v64.54H107.18Z"/><path d="M129.37,316.09V251.55h11.77v64.54Zm35.36-64.54-13.29,32.12,13.19,32.42H152l-12.79-32.42,12.89-32.12Z"/><path d="M184.81,307.09h19.64v9H173V251.55h30.69v9H184.81v17.9h15.86v9.1H184.81Z"/><path d="M231.66,304.33V290.52a3,3,0,0,0-.61-2.2,3.41,3.41,0,0,0-2.25-.56h-8.29q-10.53,0-10.53-10.23V261.68q0-10.14,11-10.13h11.26q11,0,11,10.13v9H231.46v-7.37a3,3,0,0,0-.62-2.2,3.41,3.41,0,0,0-2.25-.56h-3.88a3.64,3.64,0,0,0-2.36.56,3,3,0,0,0-.61,2.2v13a3,3,0,0,0,.61,2.2,3.58,3.58,0,0,0,2.36.56h8.08q10.74,0,10.74,10V306q0,10.13-11.15,10.12h-11q-11.15,0-11.15-10.12v-8.9h11.76v7.26a3,3,0,0,0,.62,2.2,3.61,3.61,0,0,0,2.35.56h3.89a3.41,3.41,0,0,0,2.25-.56A3,3,0,0,0,231.66,304.33Z"/><path d="M351.07,316.09H340.63V251.55h12.89l10.84,38.36,10.85-38.36H388.1v64.54H377.76V270.78l-8.59,31.3h-9.51l-8.59-31.2Z"/><path d="M398.63,251.55h11.76v64.54H398.63Z"/><path d="M454.58,272.93H442.72v-10a3,3,0,0,0-.62-2.2,3.41,3.41,0,0,0-2.25-.56H435a3.41,3.41,0,0,0-2.25.56,3,3,0,0,0-.61,2.2v41.94a3,3,0,0,0,.61,2.2,3.36,3.36,0,0,0,2.25.56h4.81a3.36,3.36,0,0,0,2.25-.56,3,3,0,0,0,.62-2.2V295h11.86v11.05q0,10.13-11.15,10.12h-12q-11.15,0-11.15-10.12V261.68q0-10.14,11.15-10.13h12q11.15,0,11.15,10.13Z"/><path class="cls-1" d="M269.7,251.75a11.62,11.62,0,0,1,9,3.93,12.59,12.59,0,0,1-.18,17.08,12.41,12.41,0,0,1-17.64,0,12.58,12.58,0,0,1-.19-17.06A11.65,11.65,0,0,1,269.7,251.75Zm0,3a8.74,8.74,0,0,0-6.48,2.78,9.34,9.34,0,0,0-2.71,6.74,9.49,9.49,0,0,0,1.24,4.75,8.69,8.69,0,0,0,3.33,3.39,9.47,9.47,0,0,0,9.23,0,8.78,8.78,0,0,0,3.34-3.39,9.58,9.58,0,0,0,1.23-4.75,9.27,9.27,0,0,0-2.72-6.74A8.73,8.73,0,0,0,269.69,254.71Z"/><path class="cls-2" d="M287.86,252.36h3.07v4.28A12.68,12.68,0,0,1,295,253a10,10,0,0,1,4.86-1.22,8.44,8.44,0,0,1,4.75,1.36,8.1,8.1,0,0,1,3.05,3.66,19.24,19.24,0,0,1,1,7.16V276.2h-3.07V264.83a27.83,27.83,0,0,0-.34-5.5,6.06,6.06,0,0,0-2.05-3.56,6.13,6.13,0,0,0-3.94-1.19,7.53,7.53,0,0,0-5,1.84,8.6,8.6,0,0,0-2.91,4.55,32.14,32.14,0,0,0-.43,6.49v8.74h-3.07Z"/><path class="cls-3" d="M270.32,314.72a7.22,7.22,0,0,1-3.5.73q-6.15,0-6.15-6.86V294.73h-4v-3.2h4v-9.79l3.75-1.21v11h5.9v3.2h-5.9v13.2a5.42,5.42,0,0,0,.8,3.36,3.19,3.19,0,0,0,2.65,1,3.94,3.94,0,0,0,2.45-.78Z"/><path class="cls-4" d="M275.1,280.46h3.2v14.07a13.5,13.5,0,0,1,4.28-3.83,10.35,10.35,0,0,1,5.05-1.27,8.85,8.85,0,0,1,4.95,1.41,8.47,8.47,0,0,1,3.19,3.81,20.12,20.12,0,0,1,1,7.49V315h-3.2V303.08a30.29,30.29,0,0,0-.34-5.74,6.54,6.54,0,0,0-2.16-3.72,6.43,6.43,0,0,0-4.11-1.24,7.9,7.9,0,0,0-5.2,1.92,9,9,0,0,0-3,4.76,32.42,32.42,0,0,0-.46,6.77V315h-3.2Z"/><path class="cls-4" d="M324.61,306.69l2.7,1.42a14.63,14.63,0,0,1-3.06,4.21,12.23,12.23,0,0,1-3.92,2.44,13.79,13.79,0,0,1-4.92.83q-6.09,0-9.52-4a13.47,13.47,0,0,1-3.44-9,13.29,13.29,0,0,1,2.91-8.44,11.9,11.9,0,0,1,9.87-4.71,12.28,12.28,0,0,1,10.16,4.82,13.48,13.48,0,0,1,2.75,8.51H305.75a10.12,10.12,0,0,0,2.77,7.11,8.81,8.81,0,0,0,6.61,2.77,10.65,10.65,0,0,0,3.7-.66,9.69,9.69,0,0,0,3.06-1.75A14.74,14.74,0,0,0,324.61,306.69Zm0-6.7a10.49,10.49,0,0,0-1.86-4.09,8.85,8.85,0,0,0-3.24-2.47,9.9,9.9,0,0,0-4.24-.94,9.15,9.15,0,0,0-6.3,2.36,10.6,10.6,0,0,0-2.9,5.14Z"/><path class="cls-5" d="M495.64,315.76H470.13a1.68,1.68,0,0,1-1.75-1.14,1.6,1.6,0,0,1,0-.44q0-17.87,0-35.74a1.56,1.56,0,0,1,.57-1.22,18.27,18.27,0,0,0,5.1-7.75,21.2,21.2,0,0,0,1.17-7.26c0-2.5,0-5,0-7.5,0-1,.54-1.66,1.81-1.84,2.62-.37,5.22-.79,7.83-1.19a2,2,0,0,0,.35-.1,1.93,1.93,0,0,1,1.75.22,18,18,0,0,0,6,2.42,13.72,13.72,0,0,0,6.34-.17,17.54,17.54,0,0,0,5.29-2.29,2,2,0,0,1,1.48-.25c.79.16,1.58.32,2.38.44,2.11.34,4.23.66,6.34,1a1.54,1.54,0,0,1,1.47,1.54c0,2.75,0,5.51,0,8.26a20.3,20.3,0,0,0,2.11,9,17.54,17.54,0,0,0,4.11,5.43,1.53,1.53,0,0,1,.58,1.21q0,17.89,0,35.79c0,1-.71,1.57-1.82,1.57Zm-17.07-60.15v.3c0,2.18,0,4.36,0,6.54a23.4,23.4,0,0,1-.69,5.82,21.6,21.6,0,0,1-6,10.37.6.6,0,0,0-.17.39q0,16.77,0,33.55c0,.08,0,.16,0,.26h47.49c.26,0,.32-.07.32-.29q0-16.77,0-33.53a.55.55,0,0,0-.2-.43,20.29,20.29,0,0,1-3.29-4.1,22.29,22.29,0,0,1-3.32-11.44c0-2.39,0-4.78,0-7.18v-.27l-5.19-.81c0,.47.07.9.06,1.32a10.93,10.93,0,0,1-.86,4.21,11.62,11.62,0,0,1-5.62,6.05,11.91,11.91,0,0,1-7.29,1.16,11.64,11.64,0,0,1-7.09-3.77,11.26,11.26,0,0,1-3-7.34c0-.53,0-1.07,0-1.62Zm8.62-.16a2.94,2.94,0,0,0-.06.64,16.42,16.42,0,0,0,.34,2.32,8.34,8.34,0,0,0,3.77,5.06,8,8,0,0,0,5.91,1.14,8.32,8.32,0,0,0,4.91-2.82,8.64,8.64,0,0,0,2.12-5.07c0-.42,0-.84,0-1.29A19,19,0,0,1,487.19,255.45Z"/><path class="cls-6" d="M498.84,290.82a8.7,8.7,0,0,1,3.46,2.74,6.07,6.07,0,0,1,1.05,3.5,7.28,7.28,0,0,1-1.8,4.86,7.86,7.86,0,0,1-6.3,2.57,7.64,7.64,0,0,1-6-2.26,7.26,7.26,0,0,1-2.05-5,6.28,6.28,0,0,1,1.07-3.58,9,9,0,0,1,3.57-2.85,6.7,6.7,0,0,1-2.63-2.25,5.22,5.22,0,0,1-.87-2.88,5.65,5.65,0,0,1,.93-3,6.48,6.48,0,0,1,2.58-2.33,7.56,7.56,0,0,1,3.55-.85,7.06,7.06,0,0,1,3.45.86,6.43,6.43,0,0,1,2.49,2.33,5.83,5.83,0,0,1,.9,3.09,5.14,5.14,0,0,1-.85,2.89A7,7,0,0,1,498.84,290.82ZM495.4,292a5.7,5.7,0,0,0-4.12,1.6,5,5,0,0,0-1.67,3.71,4.79,4.79,0,0,0,2.7,4.28,6.64,6.64,0,0,0,3,.63,5.56,5.56,0,0,0,4.14-1.54,4.89,4.89,0,0,0,1.54-3.59,4.74,4.74,0,0,0-1.63-3.54A5.48,5.48,0,0,0,495.4,292Zm-.11-10.23a4.68,4.68,0,0,0-3.25,1.15,3.6,3.6,0,0,0-1.29,2.76,3.87,3.87,0,0,0,1.38,2.88,4.63,4.63,0,0,0,3.24,1.29,4.55,4.55,0,0,0,2.24-.59,4.28,4.28,0,0,0,1.65-1.59,4,4,0,0,0,.59-2,3.77,3.77,0,0,0-1.17-2.66A4.49,4.49,0,0,0,495.29,281.79Z"/></svg>