<svg id="Layer_1" data-name="Layer 1" xmlns="http://www.w3.org/2000/svg" viewBox="0 0 576 576"><defs><style>.cls-1{fill:#9abf4b;}.cls-2{fill:green;}</style></defs><title>Logos</title><path class="cls-1" d="M501.47,221.89c-.64.24-1.34.53-2,.82-5.22,2.26-10.44,4.58-15.66,6.72a70.64,70.64,0,0,1-8.7,3.19,18.81,18.81,0,0,0-6.9,3.13,17,17,0,0,1-1.62,1.16c-.35-.87-.58-1.51-.87-2.26-.7.23-1.33.35-1.86.58a37.82,37.82,0,0,0-9.1,5.57c-.64.58-1.22,1.33-2.49,1.1-.12-.7-.29-1.39-.41-2.09a1,1,0,0,0-1.51-.87,7.64,7.64,0,0,0-1.1.58c-4,2.55-7.94,5.16-11.19,8.7-.29.23-.64.4-1,.64-1.28-1.11-1.28-3-3-3.83-5,4-10,8.12-13.68,13.51-2.15-1.22-1.63-4-3.54-5.45A9.19,9.19,0,0,0,415,254.6c-2.55,3-5.1,6.09-7.59,9.22a22.35,22.35,0,0,0-1.51,2c-1.16-1.69-1.16-3.66-2.84-4.87-4.18,3.47-7.07,7.82-9.63,12.52-1.33-1.1-2.43-2-3.71-3.13-3.48,5-6.78,9.62-10.2,14.49-.41-.58-.7-1-.93-1.33-1.22-1.85-1.56-1.85-3.07-.29a10.17,10.17,0,0,0-1.57,1.91c-1.39,2.15-2.72,4.3-4.06,6.44-.46.81-1,1.57-1.62,2.49-.87-.75-1.51-1.33-2.26-2-1.22,1.63-2.32,3.19-3.42,4.76s-2.26,3-3.19,4.52-1.8,3.31-2.73,5.05c-.81-.64-1.33-1.11-2.08-1.74-.7.69-1.45,1.33-2,2a80.18,80.18,0,0,0-10.21,15.71c-.23.46-.52.87-.87,1.45-.64-.52-1.16-.93-1.85-1.51-.58.58-1.16,1.05-1.63,1.57-.75,1-1.51,2-2.2,3-5.92,9-13.4,16.7-21.11,24.12-.4.35-.81.64-1.21,1-.12-.12-.24-.17-.35-.29.58-1,1.1-2.09,1.74-3.13a256.1,256.1,0,0,1,15.88-22,89.77,89.77,0,0,0,6.44-8.52,36.94,36.94,0,0,1,7.31-8.35c1.79-1.62,3.53-3.25,5.33-4.87,1.28-1.16,1.62-2.84,2.55-4.35-.87-.35-1.51-.58-2.38-.93.76-.81,1.28-1.39,1.8-2,2.09-2.14,4.24-4.17,6.21-6.38a62.32,62.32,0,0,0,4.4-5.16c.53-.69,1.1-1.45.7-2.43-.58-.23-1.22-.52-2-.87a16.47,16.47,0,0,1,1.57-2.09c1.1-1.1,2.31-2.14,3.42-3.25,1.85-1.79,3.71-3.65,5.56-5.5a6.94,6.94,0,0,0,1.8-3.48l-2.2-1.45c.63-.76,1-1.45,1.62-2,1.1-1.16,2.32-2.32,3.48-3.48a79.32,79.32,0,0,0,6.09-6.38c1.85-2.32,1.68-2.09-.06-4.41a12.33,12.33,0,0,1,1.57-2c1.79-1.68,3.71-3.24,5.39-5a21.51,21.51,0,0,0,2.61-3.89,1.15,1.15,0,0,0-.76-1.79c-.87-.35-1.74-.64-2.95-1.05.87-.75,1.56-1.27,2.2-1.85,1.85-1.8,3.77-3.6,5.57-5.51a7.48,7.48,0,0,0,1.39-2.67c.4-1,0-1.45-1.1-1.68-.53-.12-1-.23-1.8-.46.87-.93,1.51-1.69,2.2-2.38,1.63-1.68,3.36-3.42,5-5.16a15,15,0,0,0,1.85-2.73,1.47,1.47,0,0,0-1-2.26c-.76-.29-1.51-.46-2.55-.81,4.06-4.41,8.4-8.23,11.13-13.68-1.74-.58-3.36-1.11-5.34-1.74.76-.82,1.28-1.34,1.8-1.86,1.92-2.09,3.89-4.12,5.68-6.26a18.56,18.56,0,0,0,2.5-3.77c.87-1.8.4-2.49-1.57-2.73-3.36-.34-3.59-.92-1.62-3.71a53.76,53.76,0,0,0,5.91-10.78,10.74,10.74,0,0,0,.76-2.55c.17-1.34-.35-1.92-1.68-2-.82-.06-1.63,0-2.79,0,.7-1.39,1.16-2.32,1.63-3.31,1.27-3,2.66-5.91,3.88-8.87a10.31,10.31,0,0,0,.58-3c.06-.93-.46-1.34-1.45-1.16-.69.11-1.45.11-2.49.23.4-1,.69-1.63.93-2.21,1-2.26,2.08-4.52,3-6.78a18.53,18.53,0,0,0,.75-3.13c-.87-.35-1.5-.58-2.26-.81.35-.87.7-1.63,1.05-2.38.52-1.33,1.21-2.61,1.62-3.94a5,5,0,0,0,.17-3,5.69,5.69,0,0,1-.29-4,159.78,159.78,0,0,1,6.73-23.71c1-2.85,1.91-5.74,2.78-8.64a11.21,11.21,0,0,0,.35-2l-.46-.18a45.21,45.21,0,0,0-5.16,8.06c-.87,1.74-1.63,3.48-2.55,5.16-2.5,4.24-5.05,8.35-7.54,12.59-1.28,2.2-2.5,4.52-3.65,6.84-.29.69-.64,1.1-1.4.93a2.22,2.22,0,0,0-2.55,1.56c-.64,1.8-1.22,3.65-1.74,5.45-.35,1.22-.63,1.39-1.68.87-.4-.23-.81-.46-1.39-.75a24,24,0,0,0-3.54,10.43c-1.33-.69-2.43-1.21-3.59-1.79-2.15,3.13-1.74,7-3,10.38-1-.64-1.91-1.22-2.95-1.86a18.67,18.67,0,0,0-1.8,2.78,20.26,20.26,0,0,0-1.92,7.31,21,21,0,0,1-.4,2.72c-1.74-.92-3.13-1.73-4.7-2.6a25.47,25.47,0,0,0-1,2.37,41.77,41.77,0,0,0-2,10.67c-.06.93.17,2-.87,2.79-1.22-.7-2.49-1.45-3.94-2.32a19.32,19.32,0,0,0-.93,3.42c-.47,3-.87,6-1.28,9-.23,2-1,2.38-2.72,1.28-.58-.41-1.16-.87-1.92-1.45a33.41,33.41,0,0,0-2.49,14c-1.56-.81-2.78-1.51-3.94-2.09-1.28.7-1.45,1.86-1.68,2.9-.76,3.95-1.45,7.95-2.15,11.95A10.34,10.34,0,0,1,356,209c-1.74-1.33-3.3-2.43-5-3.71-2,6.21-2,12.41-2.79,18.67-1.62-.75-3.07-1.39-4.81-2.2-.29,1.56-.52,2.84-.75,4.12-.52,3.65-1,7.3-1.57,10.95a13.13,13.13,0,0,1-.81,2.32c-.87-.29-1.39-.52-2-.69-1.34-.41-1.68-.23-2.09,1.1a4.81,4.81,0,0,0-.29,1.22c-.23,2.72-.52,5.45-.75,8.17-.18,2.32-.29,4.58-.53,7.08-1.33-.7-2.49-1.22-3.82-1.86-.23.87-.41,1.45-.52,2l-.87,9.22c-.18,2.09-.18,4.12-.29,6.2a2.23,2.23,0,0,1-1.1,2.09c-.82.35-1.16-.4-1.69-.87-1.33-1.1-2.08-.87-2.37.81-.18,1.28-.18,2.61-.24,3.89a3.22,3.22,0,0,1-1.1,2.67c-.4-1.16-.69-2.09-1-3.08-1.1.06-2.15.18-3.6.29.35-.87.58-1.51.87-2.08.93-2.15,2-4.24,2.9-6.38a36,36,0,0,0,1.68-5.05c.53-2.32.06-2.78-2.31-2.61-.12,0-.24-.11-.59-.29.24-.69.53-1.45.82-2.2,1.5-3.48,3-6.9,4.46-10.38a5.78,5.78,0,0,0,.52-4c-1.1-.12-2.2-.29-3.42-.41.23-.87.47-1.5.7-2.14.75-1.86,1.56-3.65,2.2-5.57.93-2.67,1.68-5.33,2.44-8.06a2.69,2.69,0,0,0-.47-2.9c-1.27.12-2.55.18-4.11.29.46-1,.75-1.74,1-2.37,1.45-3.43,3-6.85,4.29-10.27a15.19,15.19,0,0,0,.75-3.65c.12-1.74-.52-2.2-2.26-1.8-.81.23-1.62.47-3,.81,2.61-6.08,5.8-11.48,5.51-17.91-1.86,0-3.31,1.56-5.4.69.47-1,.82-1.91,1.28-2.78a43.72,43.72,0,0,0,4.52-12.12,7.85,7.85,0,0,0-.06-5c-1.33.17-2.66.29-4.34.46.52-1.33.92-2.32,1.21-3.36,1.05-3.25,2.15-6.5,3-9.8.52-1.86.11-2.21-1.8-2.15-.75,0-1.45.18-2.2.23a11.33,11.33,0,0,1-1.45.06c.75-2.78,1.51-5.45,2-8.11s1.1-5.46.58-8.3c-1.86,0-3.25,1.34-5.16.87,1.62-5.33,3.42-10.61,2.84-16.17-1.8-.24-3.31.87-5.05.23,2-5.28,1.74-10.67,2.21-16.18-1.4.12-2.61.29-3.95.41.12-.58.12-.93.18-1.22a31.81,31.81,0,0,0,.64-9.63c0-1-.24-1.91-1.57-1.85-.93,0-1.16-.64-1.28-1.34a8.58,8.58,0,0,1-.05-1.68c.05-2.14.17-4.35.23-6.55a16.56,16.56,0,0,0-.18-2.43c-.87-.12-1.5-.18-2.37-.29,0-1.11.06-2.15,0-3.14-.06-1.79.23-3.65-.35-5.27a33,33,0,0,1-1.45-7.42,236.06,236.06,0,0,1-1.33-24.94c-.06-2.49-.24-5-.47-7.59a7.49,7.49,0,0,0-.4-2,1.78,1.78,0,0,0-.64,1.15Q307.48,48.64,305.6,62c-.58,3.88-1.39,7.71-2.09,11.53a62.24,62.24,0,0,0-1.1,6.67c-.23,2.84-.12,2.84-3,2.9-.05.81-.11,1.57-.11,2.38,0,1.39.11,2.72.06,4.12,0,.46-.35,1.27-.64,1.33-1.51.23-1.57,1.45-1.68,2.49-.18,1.74-.12,3.54-.18,5.34-.06,1-.29,2.14-.4,3.13-2.9.23-3.25.52-3.48,3.19a17.16,17.16,0,0,0,.69,7.3c.12.53.23,1,.41,1.74-1.86.41-3.48-.52-5.39-.4a134.24,134.24,0,0,0,1.45,17.22h-5.45A31.52,31.52,0,0,0,287,145.3a1.08,1.08,0,0,1-.58.23,11,11,0,0,1-1.39-.12c-2.66-.23-3.59.58-3,3.14.52,2.37,1.39,4.75,2.09,7.07.17.69.34,1.39.63,2.43-1-.11-1.68-.23-2.32-.29s-1.33,0-2.2,0c-.46,5.11,2,9.4,3.71,14.15-2-.35-3.71-.58-5.51-.87A39.93,39.93,0,0,0,280,181c.93,3.19,2,6.32,3.07,9.57-2.14.63-4.06-.58-6.2-.24,1.1,6,3.48,11.6,5.27,17.22-.29.24-.4.35-.58.35-.63,0-1.33-.06-2-.06-1.68-.05-2,.24-1.62,1.92a72,72,0,0,0,4.58,13.62c.23.53.41,1,.64,1.69-1.86.46-3.54-.24-5.28.69.24,1.1.41,2.26.76,3.36,1.5,4.18,3.07,8.35,4.64,12.53.23.69.4,1.39.69,2.38-1,.11-1.85.17-2.61.29-1.85.17-2.14.52-1.74,2.32a63.21,63.21,0,0,0,5.11,15c.34.7.58,1.45.92,2.32-1,.12-1.79.18-2.55.29-1.16.18-1.39.47-1.16,1.63a18.11,18.11,0,0,0,.81,3.42c1.69,4.46,3.42,9,5.11,13.45a20.47,20.47,0,0,1,.69,2.09H285a5.56,5.56,0,0,0,.23,1.33c1.91,5.33,3.77,10.61,5.8,15.89.34.93.58,1.56-.24,2.38a2.44,2.44,0,0,0-.58,2.49c.58,2.67,1.05,5.39,1.69,8.06,1.27,5.39,2.89,10.72,4,16.18A105.85,105.85,0,0,1,297,341.8c-.41-.17-.58-.17-.64-.23a11.68,11.68,0,0,1-.64-1,168,168,0,0,1-10.43-27.08c-1.22-4.41-2.44-8.87-3.66-13.28-.35-1.16-.87-2.26-1.33-3.48l-1.8.81a5,5,0,0,1-1.33-3.07c-.76-3.42-1.39-6.84-2.21-10.26-.63-2.84-1.45-5.63-2.2-8.7-1.51,1-2.78,2-4.06,2.9-1.1-4.17-2-8.18-3.13-12.18s-2.38-7.94-3.94-12.11c-1.57,1-2.84,1.91-4.35,2.95a79,79,0,0,0-5.57-21.57l-2.95,2.15c-.41-1.39-.7-2.38-.93-3.42-.7-3.08-1.39-6.15-2.15-9.22a15.4,15.4,0,0,0-1.16-2.9c-1.68.23-2.08,2.14-3.94,2.14a27,27,0,0,1-.52-2.78,48.55,48.55,0,0,0-1.86-10.73,14.09,14.09,0,0,0-.87-2.26l-4.64,3.31c-.34-1.16-.58-2-.87-2.84L228,196.32a12.78,12.78,0,0,0-1.1-2.14,5.27,5.27,0,0,0-1.11.64c-2.78,1.91-3.3,1.74-4-1.69-.4-1.74-.75-3.47-1.27-5.21a3.08,3.08,0,0,0-1.92-2.44l-3.88,3.13a41.09,41.09,0,0,0-3.19-15c-2.15.12-2.9,2.27-4.64,2.73-2.67-10.61-4.46-15.19-6.61-17-1.1.87-2.14,1.8-3.48,2.9-.23-.93-.35-1.68-.52-2.38a25.44,25.44,0,0,0-3.19-8.17c-.81-1.28-1.27-1.34-2.38-.7-1.85,1.1-2.26,1-3.19-1-.34-.75-.58-1.56-.87-2.31-.69-1.92-1.39-3.89-2.26-5.75a22,22,0,0,0-1.74-2.84c-1,1.28-1.79,2.27-2.55,3.25-.29-.23-.46-.29-.52-.41-.11-.34-.17-.75-.29-1.15a32.6,32.6,0,0,0-4.46-9.69c-.53-.75-1.34-1.74-2.09-1.8-1.74-.17-2.38-1.27-3-2.49a62.16,62.16,0,0,0-6.84-10.49c-3.36-4.47-6.32-9.17-9.51-13.69-2.2-3.19-4.46-6.26-6.78-9.39-.41-.52-.93-1-1.4-1.51-.11.12-.29.17-.4.29,4.81,11.37,10.67,22.38,13.22,34.62-.52.17-.87.29-1.45.46a29.21,29.21,0,0,0,.87,3.6c.81,2.2,1.8,4.34,2.61,6.49a18.15,18.15,0,0,1,.69,2.44,7.75,7.75,0,0,1-.87.29c-1.5.52-1.79.87-1.39,2.31a5.83,5.83,0,0,0,.7,1.74c1.56,2.5,3.13,5,4.75,7.48.35.58.87,1.11,1.51,2-1.16.05-2,.05-2.78.17-1,.17-1.39.81-1,1.8a7.24,7.24,0,0,0,.82,1.62c1.56,2,3.13,4,4.75,6,.41.58.87,1.1,1.51,1.92-1.39.69-2.5,1.21-3.6,1.74a5.38,5.38,0,0,0,1.39,3.3c1.86,2.49,3.77,4.93,5.63,7.42.4.58.75,1.16,1.27,2a22.83,22.83,0,0,0-3.18,1c-1.11.35-1.34.87-.76,1.86a12.72,12.72,0,0,0,1.86,2.43c2.26,2.38,4.64,4.7,7,7.07.4.41.75.87,1.16,1.34-1.8,1-4.06.35-5.34,2.49a28.56,28.56,0,0,0,2.49,3.19c3.25,3.42,6.61,6.79,9.92,10.21.52.46,1,1,1.51,1.56-2,1.16-4.29,1-5.86,2.78a20.19,20.19,0,0,0,1.86,2c3,2.38,6,4.76,9,7.14.52.4,1.1.81,1.86,1.39-.87.46-1.51.81-2.09,1.16-2.26,1.33-2.38,2-.52,3.88A50.62,50.62,0,0,0,202.39,237c.69.4,1.62.69,1.85,2-1.39.52-2.72,1-4.11,1.51a5.84,5.84,0,0,0,2.14,3.59c2.32,2,4.76,3.94,7.13,5.91.76.7,1.45,1.4,2.44,2.32-1.63.76-2.9,1.4-4.47,2.15a23.62,23.62,0,0,0,2.26,3c2.56,2.32,5.22,4.46,7.89,6.66.87.76,1.91,1.34,2.78,2.09,1.16,1.05,1,1.8-.46,2.44-.52.23-1.1.4-2,.69a16,16,0,0,0,1.27,1.92,31.64,31.64,0,0,0,3.25,2.9c2.67,2,5.45,3.94,8.18,5.91.58.41,1.16.87,1.62,1.22-.06.35-.06.46-.12.46a1.52,1.52,0,0,1-.4.47c-1.34,1.15-1.51,1.68-.47,3.07a14,14,0,0,0,2.38,2.55c3.6,2.84,7.25,5.68,10.84,8.52.64.47,1.22.93,2,1.57-.92.35-1.5.52-2.26.81a11.56,11.56,0,0,0,1.1,2,42.49,42.49,0,0,0,4.35,4.64c2,1.85,4.29,3.42,6.38,5.16a14.74,14.74,0,0,1,4.47,5.33,9.48,9.48,0,0,0,1.79,2.5c1.74,1.85,3.54,3.65,5.34,5.45,3.54,3.42,7.19,6.78,10.67,10.32A60.08,60.08,0,0,1,288,346.44c1,1.8,2.09,3.54,3.13,5.34.23.35.41.75.64,1.1a9.84,9.84,0,0,1-3.07-1.74,120.5,120.5,0,0,1-17.28-16.82c-2.09-2.49-4.29-5-6.44-7.48-.52-.58-1.22-1-1.91-1.68-.7.93-1.34,1.68-2,2.5-1.45-2.15-2.67-4.12-4-6s-2.67-3.66-4.12-5.4a30.36,30.36,0,0,0-4.64-5.22c-.46.64-.81,1.05-1.16,1.51s-.69.87-1,1.39c-6.32-9.22-8.7-12.29-10.84-13.74-1.45.76-1.22,2.67-2.44,3.83a72.74,72.74,0,0,0-11.89-14.5c-1,1.34-1.79,2.44-2.72,3.66A66.92,66.92,0,0,0,207,281.39c-1.05,1.5-1.92,2.72-2.85,4a63.12,63.12,0,0,0-12.11-13.51c-.82,1.79-1.51,3.24-2.32,4.92a91.38,91.38,0,0,0-14.38-14.38c-.82,2-1.45,3.6-2.21,5.51-4.11-3.94-7.77-7.94-12.46-10.78-.64,1.22-1.28,2.32-1.92,3.48-6-5.8-8.17-7.48-10.38-8.18-.46.81-.92,1.68-1.5,2.78-3.83-2.43-7.08-5.5-11.31-6.95-.29.81-.58,1.45-.93,2.26-.75-.35-1.33-.64-2-.93-2.15-1-4.29-2.2-6.44-3.19a8,8,0,0,0-4.34-1,4.88,4.88,0,0,1-2-.47c-6.72-2.67-13.39-5.45-20.12-8a62,62,0,0,0-7.3-2,3.66,3.66,0,0,0-1.39.06c-.06.17-.06.29-.12.46,1,.7,2,1.39,3,2.09,3.3,2.09,6.72,4,10,6.2s6.61,4.87,9.86,7.43a11.88,11.88,0,0,1,2.31,2.78,16.7,16.7,0,0,0,1.8,2.49c2,1.57,4.24,3,6.38,4.47.75.52,1.8.92,1.62,1.91-.46,2.38,1.11,3.36,2.67,4.41,2,1.27,4.12,2.49,6.15,3.77.75.46,1.33,1,2.26,1.74-1,.87-1.8,1.5-2.55,2.14,1.27,2.55,3.48,3.89,5.85,5.05,1.63.81,3.25,1.45,4.87,2.2.7.35,1.51.64,1.8,1.51-1.56,1-1.85,1.85-.93,3.3a6.46,6.46,0,0,0,2.27,2.09c2.55,1.33,5.16,2.43,7.82,3.65.58.29,1.16.52,2,.87-.87.87-1.57,1.57-2.32,2.38a10,10,0,0,0,1.56,1.8c4.76,3.36,10.15,5.27,16,7-.81.81-1.39,1.45-2,2-1.05,1.1-1.11,1.39-.29,2.67A6.25,6.25,0,0,0,175,312c3.19.75,6.44,1.39,9.68,2.09.35.11.7.23,1.16.4a5.5,5.5,0,0,1-.58,1c-1.45,2-1.39,2.9.41,4.52a6.92,6.92,0,0,0,2.38,1.51,39,39,0,0,0,5.1,1.68c1.51.47,3.07.7,4.64,1.1,1,.24,1.74.7,1.51,2a2.79,2.79,0,0,0,1.85,3.31,40.08,40.08,0,0,0,5.22,1.91c2.32.7,4.75,1.22,7.13,1.86a2.56,2.56,0,0,1,2.26,2.49,3.12,3.12,0,0,0,2.67,3c.64.17,1.33.35,2,.46,4.23.7,8.41,1.33,12.64,2.09,2.15.35,4.35.69,5.28,3.19.11.35.69.64,1.1.81a25.38,25.38,0,0,0,2.78.87c12.3,3.48,24.47,7.25,36.47,11.6.47.17.87.46,1.34.63a5.5,5.5,0,0,1-2.32.35c-6.09-.17-12.24-.35-18.32-.46-1.16,0-2.32.17-3.48.23-1.34.12-2.44.46-2.44,2.14a3.81,3.81,0,0,1-1.16-.05,22.39,22.39,0,0,0-8.35-.58c-1.79.06-3.59.35-5.33.58-.7.11-1.28.34-1.28,1.33.06,1.8-.11,1.91-1.85,2.09-.76.06-1.51-.06-2.26.06-2.9.4-5.8.75-8.7,1.27a7.68,7.68,0,0,0-2.09,1c.46,1.21.75,2.14,1.1,3-.35.23-.4.35-.52.41l-1,.17a30.6,30.6,0,0,0-8.93,3,4.74,4.74,0,0,0-1.92,1.79c-.23.47.24,1.28.41,2.21-.93.58-1.86,1.22-2.84,1.8-1.16.63-2.32,1.21-3.48,1.91a3.61,3.61,0,0,0-2,2.67,4.94,4.94,0,0,1-2.15,3.19c-5.27,4.17-10.55,8.29-15.83,12.52-1.85,1.51-3.71,3.07-5.51,4.64a13,13,0,0,0-1.44,2,1.44,1.44,0,0,0,.29.4,22.82,22.82,0,0,0,2.89-.81c5.16-1.85,10.27-3.82,15.49-5.56a40.22,40.22,0,0,1,9.33-2.27,35.39,35.39,0,0,0,12.41-3.53c.58-.29,1.22-.58,2-.93.35.87.58,1.57.87,2.2.52,1.22,1,1.45,2.26,1.05a12.73,12.73,0,0,0,2.26-.93c1.45-.81,2.9-1.62,4.35-2.38a3.53,3.53,0,0,1,3.89,0,3.63,3.63,0,0,0,3.53.23c1.57-.63,3.08-1.33,4.58-2a50.71,50.71,0,0,1,5.11-2.2,5.35,5.35,0,0,1,3.13-.18,5.49,5.49,0,0,0,4.4-.23c2.38-1.1,4.7-2.26,7-3.42,1.33-.58,2.61-1.22,3.94-1.74.81-.29,1.68-.46,2.26.35,1,1.33,2.09,1.1,3.25.46.81-.4,1.68-.75,2.44-1.16,6.55-3.59,13.1-7.24,19.65-10.84,1.63-.93,3.25-1.74,5-2.72a6.46,6.46,0,0,1,1.22,4.23,152.16,152.16,0,0,1-.58,22.9h3.42c.52-6.55.81-13.16,1.27-19.71a55.48,55.48,0,0,1,.76-7c.35-2.09,1.1-2.61,3.19-2.9a18.7,18.7,0,0,1,8.75.58c2,.64,3.89,1.28,5.86,1.91,8.81,2.85,17.57,5.8,26.44,8.53,5.86,1.8,11.77,3.25,18,3.25a17.18,17.18,0,0,1,7.37,1.73,19.49,19.49,0,0,0,3.94,1.28,4,4,0,0,0,3.89-.7,3.36,3.36,0,0,1,3.24-.81c1.68.35,3.31.81,5,1.1a34,34,0,0,0,5.91.7c1.8.06,2.32-.58,2.38-2.38a1.49,1.49,0,0,1,1.62-1.68c1.16-.11,2.32-.17,3.48-.23,2.67-.06,5.34-.17,8-.23a5.88,5.88,0,0,0,3.94-1.63,5.9,5.9,0,0,1,3.77-1.45c1.21-.11,2.43-.11,3.65-.29a7,7,0,0,0,2.78-.81c1.92-1.45,4.12-1.68,6.44-1.68,3.83-.06,7.65,0,11.54-.06,4.58-.05,9.16-.17,13.8-.29a10.16,10.16,0,0,0,1.45-.29,4.67,4.67,0,0,0-.81-.75c-.58-.41-1.16-.75-1.74-1.1a86.78,86.78,0,0,0-15.72-6.67c-1-.35-2-.41-3-.7a16.41,16.41,0,0,1-2.32-1.1c-1.1-.52-2.09-1.39-3.25-1.62-3.42-.76-6.9-1.28-10.32-1.86-.75-.11-1.39-.34-1.45-1.16-.06-1-.69-1.27-1.51-1.33-1.85-.06-3.71-.12-5.56-.23-2.73-.18-2.5.11-3.13-2.44-.06-.11-.18-.23-.29-.4-1.69,0-3.37-.06-5,.05s-3.48.35-5.33.35c.17-1.45.34-2.55.52-3.88a58.08,58.08,0,0,0-11.6,2.09c-.23-2.61-.35-2.79-2.78-2.5s-4.87.93-7.25,1.39c-.64.12-1.27.24-2,.41-.29-1.1-.46-1.91-.75-3a95.31,95.31,0,0,0-15.31,4.52c-.12-1.15-.18-2.08-.29-3.18-5.39.81-10.61,1.39-15.37,3.82-1-1.91-1-1.91-3.07-1.56-1.22.23-2.44.46-3.6.75-5.62,1.51-11.3,3-16.93,4.47a6.15,6.15,0,0,1-3.19.23c.93-.58,1.45-1,2-1.28,4.29-1.91,8.58-3.94,13-5.8,8.29-3.48,16.64-6.78,24.88-10.32a17.93,17.93,0,0,0,5.33-3,31.28,31.28,0,0,1,8.7-5c2.26-.93,4.46-1.8,6.67-2.78a2.6,2.6,0,0,0,1.56-1.22,5.48,5.48,0,0,1,3.25-2.67c1.62-.58,3.3-1,4.93-1.45,2.61-.69,5.22-1.21,7.77-2.08a13.91,13.91,0,0,0,3.24-2c.64-.53.58-1.16.06-1.86s-.93-1.27-1.5-2.09a19.23,19.23,0,0,1,2.2-1.33c1.91-.81,3.88-1.45,5.8-2.2,2.49-1,5-1.92,7.42-3a10.82,10.82,0,0,0,2.72-1.85c.82-.76.7-1.28-.11-2L414.49,305c.87-1.22,2-1.33,3-1.62,2.78-.93,5.62-1.74,8.4-2.78a10.46,10.46,0,0,0,3.31-2.38c1.22-1.16,1-2.38-.12-3.6-.52-.52-1-1-1.74-1.68a51.74,51.74,0,0,0,12.06-5.33A15.46,15.46,0,0,0,441.8,286c1-.92,1-1.5.23-2.66-.35-.53-.75-1.05-1.21-1.8,1.85-.75,3.47-1.28,5-2a38.58,38.58,0,0,0,6-3.54c1.57-1.16,1.39-1.91-.06-3.24a6.6,6.6,0,0,1-.69-.82,18.21,18.21,0,0,1,1.91-1.45c1.8-1,3.65-1.91,5.45-3a23.59,23.59,0,0,0,3.42-2.32c1.34-1.16,1.28-1.74.12-3.08-.23-.29-.46-.63-.81-1.15,1-.53,1.91-1.11,2.78-1.57,2-1,3.94-1.91,5.86-3a21.31,21.31,0,0,0,2.49-1.91c-1-.93-1.74-1.68-2.73-2.61.87-.52,1.51-1,2.21-1.39a36.82,36.82,0,0,0,7.54-5.68,5.54,5.54,0,0,0,1.39-1.74,13.55,13.55,0,0,1,3.77-4.87c3.71-3.42,7.53-6.79,11.36-10.15,1.62-1.45,3.36-2.84,5.05-4.23C501.41,223.4,502,222.94,501.47,221.89ZM322.59,281.5c1,2.15.81,8.64-.29,10.73-.64-.18-1.28-.29-2.15-.47-.23.93-.46,1.8-.69,2.85-.58-.35-1.11-.7-1.86-1.22A47.47,47.47,0,0,1,322.59,281.5Zm-9.16,32.24c.58-1.68,1.27-3.3,2-4.93.47-1,1.11-2,1.63-3-.06,4.06-.58,7.95-3.07,11.49A3.37,3.37,0,0,1,313.43,313.74Z"/><path class="cls-1" d="M317.61,293.38a44.24,44.24,0,0,1,5-11.85c1,2.13.76,8.59-.31,10.68l-2.15-.46c-.23.94-.46,1.84-.72,2.88Z"/><path class="cls-1" d="M317.08,305.84c0,4.08-.56,8-3.06,11.48a3.32,3.32,0,0,1-.58-3.57,44.91,44.91,0,0,1,2-4.94C315.93,307.78,316.54,306.83,317.08,305.84Z"/><path class="cls-2" d="M280.54,212.62q16.54,0,27.19,10.94a75.37,75.37,0,0,1,16.56,27.2,152.44,152.44,0,0,1,8,36.06,276.21,276.21,0,0,1,1.48,37.54,223.4,223.4,0,0,1-3,31q-2.37,13.31-4.73,16.85a17.86,17.86,0,0,1-8.87,5.32,50.89,50.89,0,0,1-12.41,2.07,63.89,63.89,0,0,1-12.42-.59q-5.91-.89-7.68-2.66-3.56-2.36-5-12.42a161.53,161.53,0,0,1-1.48-23.35q0-13.31.3-28.08t-.3-27.2a108,108,0,0,0-2.66-20.69q-2.07-8.28-6.8-8.28-7.09,0-15.66,8.57a137.68,137.68,0,0,0-17.15,21.58q-8.58,13-16.85,28.38t-15.08,29q-6.79,13.61-11.52,23.35t-6.51,11.53a24.53,24.53,0,0,1-10.93,5,41.22,41.22,0,0,1-13.9.59,39.79,39.79,0,0,1-13-3.84q-5.93-3-7.69-8.28-2.37-3.54-2.66-10.94t.29-19.51q.58-12.1,1.19-29.26t0-40.21q-4.16-1.17-5.32-8a95,95,0,0,1-1.19-16.26,77.25,77.25,0,0,1,1.78-18.32,43.54,43.54,0,0,1,1.77-7.69q1.77-2.36,8-4.73a86.19,86.19,0,0,1,13.6-3.84,60.86,60.86,0,0,1,14.48-1.18q7.09.3,10.06,2.66,2.35,1.19,4.13,9.75a160.24,160.24,0,0,1,2.66,20.1q.9,11.53,1.48,24.24t.59,22.17A197.65,197.65,0,0,1,204,269.08a163.18,163.18,0,0,1,20.7-25.71A151.28,151.28,0,0,1,251,221.79Q265.17,212.63,280.54,212.62Z"/><path class="cls-2" d="M438.42,461.55a8.38,8.38,0,0,1,5.61,2.37,30.37,30.37,0,0,1,4.73,5.32,46.06,46.06,0,0,1,3.26,5.32,10.7,10.7,0,0,1,1.18,3q-1.2,3-10.94,10.34a186.57,186.57,0,0,1-25.42,15.67A217.79,217.79,0,0,1,382,518a127.16,127.16,0,0,1-39.32,6.21,227.21,227.21,0,0,1-50.55-5.32q-23.35-5.32-40.5-16.55a75.17,75.17,0,0,1-26-28.09q-8.87-16.85-7.09-39.31,1.77-18.31,12.12-31.63a95.59,95.59,0,0,1,25.71-22.76,137.73,137.73,0,0,1,33.41-14.78,196.65,196.65,0,0,1,34.58-7.1,21.71,21.71,0,0,0,5.32-.59,44.83,44.83,0,0,0,5-.29,40.76,40.76,0,0,1,4.43-.3q31.94,0,51.14,6.93t20.4,17.16a17.78,17.78,0,0,1-4.73,13.75,40.67,40.67,0,0,1-12.71,9.46,37.94,37.94,0,0,1-15.08,3.84,19.23,19.23,0,0,1-13-3.84c-2-1.18-3-2.46-3-3.85v-4.43a13.25,13.25,0,0,0-.59-4.14q-.6-1.77-4.73-2.95-25.43,0-43.45,7.93T285,417.06q-10.35,11.76-12.42,25.28a36.74,36.74,0,0,0,5,25.28q7.09,11.78,23.94,19.7t44.64,7.93a100.55,100.55,0,0,0,33.11-5.32,214.56,214.56,0,0,0,27.49-11.53q12.1-6.21,20.39-11.52T438.42,461.55Z"/></svg>