<svg id="Layer_1" data-name="Layer 1" xmlns="http://www.w3.org/2000/svg" viewBox="0 0 576 576"><defs><style>.cls-1{fill:#9abf4b;}.cls-2{fill:green;}.cls-3{fill:#fff;}</style></defs><title>Logos</title><rect class="cls-1" x="162.54" y="307.74" width="345.27" height="98.36" rx="12" ry="12"/><path class="cls-2" d="M75.29,236.46a13,13,0,0,1,9.77,3.93,27.11,27.11,0,0,1,6,9.77,55,55,0,0,1,2.87,13,99.64,99.64,0,0,1,.53,13.49,80.26,80.26,0,0,1-1.07,11.15c-.56,3.19-1.13,5.2-1.7,6.05a6.39,6.39,0,0,1-3.18,1.91,18.17,18.17,0,0,1-4.46.75,23.22,23.22,0,0,1-4.46-.21,5.33,5.33,0,0,1-2.76-1c-.85-.56-1.46-2.05-1.81-4.46a58.93,58.93,0,0,1-.53-8.39c0-3.19,0-6.55.11-10.09s0-6.8-.11-9.77a38.64,38.64,0,0,0-1-7.44c-.49-2-1.31-3-2.44-3q-2.55,0-5.63,3.08A49.93,49.93,0,0,0,59.25,263q-3.07,4.68-6,10.2t-5.42,10.41q-2.45,4.89-4.14,8.39a21.49,21.49,0,0,1-2.34,4.14A8.85,8.85,0,0,1,37.37,298a14.89,14.89,0,0,1-5,.21,14.41,14.41,0,0,1-4.67-1.38,5.11,5.11,0,0,1-2.76-3,7.7,7.7,0,0,1-1-3.93c-.07-1.77,0-4.1.11-7s.28-6.4.42-10.51.14-8.92,0-14.44c-1-.29-1.63-1.24-1.91-2.87a35.07,35.07,0,0,1-.42-5.84,28.29,28.29,0,0,1,.63-6.59,15.08,15.08,0,0,1,.64-2.76,6.79,6.79,0,0,1,2.87-1.7,31.93,31.93,0,0,1,4.88-1.38,22.12,22.12,0,0,1,5.21-.42,6.36,6.36,0,0,1,3.61.95c.56.29,1.06,1.46,1.49,3.51a58.53,58.53,0,0,1,.95,7.22q.31,4.14.53,8.71c.14,3,.21,5.7.21,8a70.8,70.8,0,0,1,4.57-8,58.19,58.19,0,0,1,7.44-9.24,54.34,54.34,0,0,1,9.45-7.76A19.34,19.34,0,0,1,75.29,236.46Z"/><path class="cls-2" d="M152.39,249.42a26.52,26.52,0,0,0-10.94,2.44,41,41,0,0,0-9.77,6.16,46.14,46.14,0,0,0-7.43,8,20.9,20.9,0,0,0-3.83,8,7.27,7.27,0,0,0,1.17,6.16c1.28,1.63,3.68,2.45,7.23,2.45a26.54,26.54,0,0,0,10.93-2.66,71.35,71.35,0,0,0,11.69-6.8,136.45,136.45,0,0,0,11.36-9q5.52-4.89,9.88-9.24c2.9-2.91,5.31-5.38,7.22-7.44s3.08-3.29,3.51-3.72,2-.63,4.35-.63a37.18,37.18,0,0,1,7.22.74,21.1,21.1,0,0,1,6.48,2.34q2.76,1.59,2.55,3.93a70.26,70.26,0,0,0-.74,7.64q-.33,5.32-.22,10.84a65,65,0,0,0,.85,9.77c.5,2.83,1.31,4.25,2.45,4.25a2.3,2.3,0,0,0,1.69-.64,14.58,14.58,0,0,1,2.34-1.7,1.73,1.73,0,0,1,2,0,6.53,6.53,0,0,1,2.12,1.91,14.91,14.91,0,0,1,1.6,2.66c.42.92.7,1.59.85,2s-.08,1-.64,1.81a13.32,13.32,0,0,1-2.44,2.44,14.08,14.08,0,0,1-3.93,2.13,15,15,0,0,1-5.1.85q-10,0-14.87-4.57a23,23,0,0,1-6.58-10.09,32.52,32.52,0,0,1-1.49-14.66q-7.44,6-14.66,11.26-6.16,4.45-13.49,9a67.67,67.67,0,0,1-13.48,6.69,42.22,42.22,0,0,1-14.45,2.44,31,31,0,0,1-12.42-2.55,20.8,20.8,0,0,1-8.61-6.9,18.17,18.17,0,0,1-3.18-10.83q0-5.1,3.4-11.58a45.65,45.65,0,0,1,9.55-12.21,53.53,53.53,0,0,1,15.09-9.67,48.43,48.43,0,0,1,19.75-3.93q11.25,0,17.84,3t6.59,7.22a7.07,7.07,0,0,1-2.23,4.35,19.63,19.63,0,0,1-4.57,3.4,18.5,18.5,0,0,1-5.2,1.91,7.21,7.21,0,0,1-4.15-.1,2,2,0,0,1-1.06-1.81v-2.34a2.62,2.62,0,0,0-.74-1.91C155.4,249.67,154.23,249.42,152.39,249.42Z"/><path class="cls-2" d="M230.56,208q5.31-.21,10.62-.21,4.47,0,9.24.1c3.19.08,5.91.25,8.18.53q1.48.22,2.76,2.55a12.68,12.68,0,0,1,1.49,5.1,8.74,8.74,0,0,1-.85,4.78q-1.06,2-3.83,1.59-4.46-.63-11.15-1.38T232.79,220q-7.54-.31-15.5-.11a99.34,99.34,0,0,0-15,1.49,1.55,1.55,0,0,1-1.7-.74,15.3,15.3,0,0,1-1.17-2.13,7.42,7.42,0,0,1-.64-2.23,3,3,0,0,1,.11-1.48q.65-1.28,5-2.55a80.45,80.45,0,0,1,9.56-2.13c3.47-.56,6.87-1.06,10.2-1.48A63.67,63.67,0,0,1,230.56,208Zm17.84,74.34a2.63,2.63,0,0,1,2.34-.63,7.43,7.43,0,0,1,2.87,1.06,12.87,12.87,0,0,1,2.33,1.8,2.61,2.61,0,0,1,1,1.6,6.19,6.19,0,0,1-1.17,2.44,18,18,0,0,1-3.4,3.72,21.84,21.84,0,0,1-5.31,3.29,16.67,16.67,0,0,1-6.9,1.38,13.2,13.2,0,0,1-11.79-6.48,45,45,0,0,1-6-16,123.59,123.59,0,0,1-2-20.71q-.23-11.15-.22-20.71l1.28-58.41a9.36,9.36,0,0,1,3.93-1,23.16,23.16,0,0,1,6.26.22,19.34,19.34,0,0,1,5.53,1.7c1.55.78,2.26,1.87,2.12,3.29-.14,1-.36,4.32-.64,10s-.53,12.46-.74,20.39-.29,16.36-.21,25.28.32,17.17.74,24.75a137.32,137.32,0,0,0,2.12,18.79q1.49,7.44,4,7.44a2.43,2.43,0,0,0,2.23-1.28A6.53,6.53,0,0,1,248.4,282.34Z"/><path class="cls-2" d="M333.37,295.3a5.89,5.89,0,0,1-2.66,1.59,20.86,20.86,0,0,1-4.57,1.07,29.13,29.13,0,0,1-4.88.21,5.93,5.93,0,0,1-3.4-1q-1.71-.63-2.55-5.31a65.08,65.08,0,0,1-.85-11.47,31.65,31.65,0,0,1-3.82,6.16A26.93,26.93,0,0,1,305,291.9a29,29,0,0,1-7.76,3.82,31.18,31.18,0,0,1-10,1.49q-6.79,0-11-3.71a24.86,24.86,0,0,1-6.59-9.35,47.29,47.29,0,0,1-3.18-12.43,83.42,83.42,0,0,1-.64-13.17c-1.14-.28-1.91-1.2-2.34-2.76a17.91,17.91,0,0,1-.53-5.31,26.73,26.73,0,0,1,.85-5.84,18.47,18.47,0,0,1,1.59-4.35,14.73,14.73,0,0,1,9.77-3.4q5.1.21,7.23,2.55c.85.71,1.41,2.33,1.7,4.88s.45,5.56.53,9,.14,7.15.21,11,.28,7.51.64,10.84a28.32,28.32,0,0,0,1.91,8.18q1.38,3.18,4.14,3.18a11.73,11.73,0,0,0,8.28-3.4,29.29,29.29,0,0,0,6.16-8.6,65.84,65.84,0,0,0,4.25-11.26q1.69-6,2.87-11.36c.78-3.54,1.41-6.59,1.91-9.14s1-4,1.38-4.46a7.9,7.9,0,0,1,3.72-1.7,14.26,14.26,0,0,1,4.57-.1A11.89,11.89,0,0,1,328.9,238a5.29,5.29,0,0,1,2.55,2.76,9.94,9.94,0,0,1,.75,3.4c.21,1.84.38,4.07.53,6.69s.28,5.56.42,8.82.22,6.51.22,9.77Q333.57,281.08,333.37,295.3Z"/><path class="cls-2" d="M393.05,235q7.65,0,11.89,3.5a16.24,16.24,0,0,1,5.53,7.75,12.1,12.1,0,0,1,0,7.76q-1.28,3.5-4.46,3.5c-.57,0-1.17-.42-1.81-1.27a22,22,0,0,0-2.55-2.76,19.17,19.17,0,0,0-3.93-2.77,12.85,12.85,0,0,0-6.16-1.27,10.22,10.22,0,0,0-7.43,3.5,38.13,38.13,0,0,0-6.16,8.71,78.48,78.48,0,0,0-4.89,11.47q-2.11,6.27-3.71,11.69c-1.07,3.61-1.95,6.69-2.66,9.24a16.86,16.86,0,0,1-1.49,4.24,8.07,8.07,0,0,1-4,1.7,18.15,18.15,0,0,1-5.21.11,15.41,15.41,0,0,1-4.88-1.38,5.22,5.22,0,0,1-2.87-2.76c-.57-.85-.92-2.48-1.06-4.89s-.21-5.41-.21-9V269.49q0-7.11-.22-15.4c-.85-.14-1.48-.88-1.91-2.23a16.08,16.08,0,0,1-.64-4.78,41.87,41.87,0,0,1,.43-5.84,35.22,35.22,0,0,1,1.06-5.2,6.75,6.75,0,0,1,3-1.7,32.62,32.62,0,0,1,5.1-1.38,23.29,23.29,0,0,1,5.31-.43,6.36,6.36,0,0,1,3.61,1c.57.28,1.1,1.38,1.6,3.29a41.09,41.09,0,0,1,1.06,6.9c.21,2.7.39,5.49.53,8.39s.21,5.49.21,7.76a63.52,63.52,0,0,1,6.59-12.32,42.06,42.06,0,0,1,8.49-8.6A18.93,18.93,0,0,1,393.05,235Z"/><path class="cls-2" d="M463.78,236.46q10.2,1.06,15.61,4.14t7.12,7.12a11.73,11.73,0,0,1,.21,8.5,20.53,20.53,0,0,1-5.1,8.07,24.48,24.48,0,0,1-12.21,7,52.42,52.42,0,0,1-13.91,1.48,59.29,59.29,0,0,1-12.43-1.59c-3.75-.92-6.27-1.59-7.54-2-.43-.14-.78-.63-1.06-1.48a4.8,4.8,0,0,1-.11-2.66,4.34,4.34,0,0,1,1.38-2.33c.71-.64,1.77-.75,3.19-.32q10.83,2.12,19.11.1c5.53-1.34,9.63-3.15,12.33-5.41s3.53-4.43,2.54-6.48-4.46-3.08-10.4-3.08a26.4,26.4,0,0,0-12.22,2.87,29.56,29.56,0,0,0-9.24,7.11,23,23,0,0,0-4.88,9.24A12.87,12.87,0,0,0,437,276q2.12,4.25,8,7.12T461.44,286a36,36,0,0,0,11.9-1.91,76.91,76.91,0,0,0,17.1-8.28c1.91-1.28,3.22-1.91,3.93-1.91a3,3,0,0,1,2,.85,10.65,10.65,0,0,1,1.69,1.91,15.23,15.23,0,0,1,1.17,1.91,3.65,3.65,0,0,1,.43,1.06q-.44,1.07-3.93,3.72a67.41,67.41,0,0,1-9.14,5.63,78,78,0,0,1-12.53,5.2A45.56,45.56,0,0,1,460,296.36a82.33,82.33,0,0,1-18.06-1.91,43,43,0,0,1-14.55-5.95,27.4,27.4,0,0,1-9.24-10.09,25.51,25.51,0,0,1-2.55-14.12,21,21,0,0,1,6.16-13.6,42.48,42.48,0,0,1,13-8.81,61.85,61.85,0,0,1,15.4-4.57A60.41,60.41,0,0,1,463.78,236.46Z"/><path class="cls-2" d="M534.3,246.66a20.63,20.63,0,0,0-5.31.74,16.86,16.86,0,0,0-5,2.23,11.86,11.86,0,0,0-3.61,3.72,9.22,9.22,0,0,0-1.39,5q0,2.34,2.66,3.93a35.49,35.49,0,0,0,6.69,3q4,1.39,8.6,2.55a62.08,62.08,0,0,1,8.61,2.87,24.62,24.62,0,0,1,6.69,4,7.35,7.35,0,0,1,2.65,5.73,7,7,0,0,1-2.23,4.57,31.92,31.92,0,0,1-5.84,4.88,68.71,68.71,0,0,1-7.86,4.57q-4.25,2.13-8.18,3.93a73.09,73.09,0,0,1-7.11,2.87,34.48,34.48,0,0,1-4.46,1.27,7.69,7.69,0,0,1-4.14-.74,14.49,14.49,0,0,1-3.72-2.55,13.88,13.88,0,0,1-2.76-3.51,7.41,7.41,0,0,1-1.06-3.61c0-1,1.41-2.05,4.24-3.18s6-2.34,9.35-3.61a97.91,97.91,0,0,0,9.13-3.93c2.69-1.35,3.83-2.8,3.4-4.36-.14-.42-1.06-.77-2.76-1.06l-6.37-1.06q-3.82-.65-8.18-1.59a39.58,39.58,0,0,1-8.07-2.66,18.78,18.78,0,0,1-6.16-4.35,9.49,9.49,0,0,1-2.44-6.69,20.89,20.89,0,0,1,2.65-10.31,26.93,26.93,0,0,1,7.22-8.28,33.75,33.75,0,0,1,10.94-5.42,48,48,0,0,1,13.81-1.91q9.13,0,13.59,3.4a15.52,15.52,0,0,1,5.74,7.33,12.52,12.52,0,0,1,.32,7.33c-.64,2.26-1.46,3.39-2.45,3.39a7.44,7.44,0,0,1-4.24-1.27q-1.92-1.27-3.93-2.87t-4.15-3A8.74,8.74,0,0,0,534.3,246.66Z"/><path class="cls-3" d="M256.78,365.8a3,3,0,0,1,2,.85,11.45,11.45,0,0,1,1.7,1.91,18,18,0,0,1,1.17,1.91,3.82,3.82,0,0,1,.42,1.07q-.42,1.06-3.93,3.71a66.23,66.23,0,0,1-9.13,5.63,78.34,78.34,0,0,1-12.53,5.21,46,46,0,0,1-14.13,2.23,81.94,81.94,0,0,1-18.16-1.91,44.26,44.26,0,0,1-14.55-6,27.13,27.13,0,0,1-9.35-10.09,25.55,25.55,0,0,1-2.55-14.13,21.52,21.52,0,0,1,4.36-11.36,34.17,34.17,0,0,1,9.24-8.18,49.9,49.9,0,0,1,12-5.31,71.39,71.39,0,0,1,12.43-2.55,8,8,0,0,0,1.91-.21,14.34,14.34,0,0,0,1.8-.11,15,15,0,0,1,1.6-.1q11.46,0,18.37,2.49t7.33,6.16a6.4,6.4,0,0,1-1.7,4.94,14.56,14.56,0,0,1-4.57,3.4,13.62,13.62,0,0,1-5.41,1.38,7,7,0,0,1-4.68-1.38c-.71-.42-1.06-.88-1.06-1.38v-1.59a4.74,4.74,0,0,0-.21-1.49c-.15-.43-.71-.78-1.7-1.06a38.59,38.59,0,0,0-15.61,2.85,28.73,28.73,0,0,0-10.2,7.07,17.68,17.68,0,0,0-4.46,9.09A13.22,13.22,0,0,0,199,368q2.55,4.23,8.61,7.08t16,2.85a36.25,36.25,0,0,0,11.9-1.91,79.29,79.29,0,0,0,9.88-4.14q4.35-2.24,7.33-4.15C254.73,366.44,256.07,365.8,256.78,365.8Z"/><path class="cls-3" d="M336.22,387.25a5.87,5.87,0,0,1-2.65,1.6,20.88,20.88,0,0,1-4.57,1.06,29.13,29.13,0,0,1-4.88.21,5.94,5.94,0,0,1-3.4-.95q-1.71-.65-2.55-5.31a65.16,65.16,0,0,1-.85-11.47,32,32,0,0,1-3.82,6.16,27.19,27.19,0,0,1-5.63,5.31,29.25,29.25,0,0,1-7.76,3.82,31.46,31.46,0,0,1-10,1.49q-6.79,0-11-3.72a24.78,24.78,0,0,1-6.59-9.35,47.72,47.72,0,0,1-3.19-12.42,84.6,84.6,0,0,1-.63-13.17c-1.14-.28-1.91-1.2-2.34-2.76a18,18,0,0,1-.53-5.31,26.91,26.91,0,0,1,.85-5.85,18.47,18.47,0,0,1,1.59-4.35,14.73,14.73,0,0,1,9.77-3.4q5.1.21,7.23,2.55c.85.71,1.41,2.34,1.7,4.89s.45,5.56.53,9,.14,7.16.21,11.05.28,7.51.64,10.83a27.92,27.92,0,0,0,1.91,8.18c.92,2.12,2.3,3.19,4.14,3.19a11.73,11.73,0,0,0,8.28-3.4,29.35,29.35,0,0,0,6.16-8.61,65.73,65.73,0,0,0,4.25-11.25q1.69-6.06,2.87-11.37c.78-3.53,1.41-6.58,1.91-9.13s1-4,1.38-4.46a7.9,7.9,0,0,1,3.72-1.7,14.26,14.26,0,0,1,4.57-.11,12.3,12.3,0,0,1,4.24,1.38,5.27,5.27,0,0,1,2.55,2.77,10.19,10.19,0,0,1,.75,3.39c.21,1.85.38,4.08.53,6.69s.28,5.56.42,8.82.21,6.51.21,9.77Q336.43,373,336.22,387.25Z"/><path class="cls-3" d="M395.91,326.93q7.65,0,11.89,3.51a16.19,16.19,0,0,1,5.53,7.75,12.07,12.07,0,0,1,0,7.75q-1.27,3.51-4.46,3.51c-.57,0-1.17-.43-1.81-1.28a22,22,0,0,0-2.55-2.76,19.15,19.15,0,0,0-3.93-2.76,12.85,12.85,0,0,0-6.16-1.28,10.19,10.19,0,0,0-7.43,3.51,37.91,37.91,0,0,0-6.16,8.71,77,77,0,0,0-4.89,11.47c-1.42,4.18-2.65,8.07-3.72,11.68s-1.94,6.69-2.65,9.24a17,17,0,0,1-1.49,4.25,8.16,8.16,0,0,1-4,1.7,18.15,18.15,0,0,1-5.21.1,15.41,15.41,0,0,1-4.88-1.38,5.22,5.22,0,0,1-2.87-2.76c-.57-.85-.92-2.47-1.06-4.88s-.22-5.42-.22-9V361.45q0-7.12-.21-15.4c-.85-.14-1.48-.88-1.91-2.23a16.13,16.13,0,0,1-.64-4.78,41.76,41.76,0,0,1,.43-5.84,35.66,35.66,0,0,1,1.06-5.21,6.78,6.78,0,0,1,3-1.7,35,35,0,0,1,5.1-1.38,23.26,23.26,0,0,1,5.31-.42,6.36,6.36,0,0,1,3.61.95c.57.29,1.1,1.38,1.6,3.3a40.93,40.93,0,0,1,1.06,6.9q.31,4,.53,8.39c.14,2.9.21,5.49.21,7.75a63.81,63.81,0,0,1,6.59-12.32,42.31,42.31,0,0,1,8.49-8.6A18.93,18.93,0,0,1,395.91,326.93Z"/><path class="cls-3" d="M466.64,328.42q10.2,1.06,15.61,4.14c3.61,2.05,6,4.43,7.12,7.11a11.73,11.73,0,0,1,.21,8.5,20.39,20.39,0,0,1-5.1,8.07,24.48,24.48,0,0,1-12.21,7,52.43,52.43,0,0,1-13.91,1.49,60,60,0,0,1-12.43-1.59c-3.75-.92-6.27-1.6-7.54-2-.43-.14-.78-.64-1.06-1.49a4.76,4.76,0,0,1-.11-2.65,4.4,4.4,0,0,1,1.38-2.34c.71-.64,1.77-.74,3.19-.32q10.83,2.13,19.11.11T473.22,349q4-3.39,2.55-6.48t-10.4-3.08a26.53,26.53,0,0,0-12.22,2.87,29.59,29.59,0,0,0-9.24,7.12,22.86,22.86,0,0,0-4.88,9.24,12.88,12.88,0,0,0,.85,9.24q2.12,4.24,8,7.11t16.46,2.87A36.3,36.3,0,0,0,476.2,376a79.29,79.29,0,0,0,9.88-4.14,73.76,73.76,0,0,0,7.22-4.15c1.91-1.27,3.22-1.91,3.93-1.91a3.06,3.06,0,0,1,2,.85,11.39,11.39,0,0,1,1.69,1.91,15.23,15.23,0,0,1,1.17,1.91,4,4,0,0,1,.43,1.07q-.44,1.06-3.93,3.71a67,67,0,0,1-9.14,5.63,78,78,0,0,1-12.53,5.21,45.85,45.85,0,0,1-14.12,2.23,82.33,82.33,0,0,1-18.06-1.91,43.21,43.21,0,0,1-14.55-6A27.31,27.31,0,0,1,421,370.37a25.55,25.55,0,0,1-2.55-14.13,21,21,0,0,1,6.16-13.59,42.51,42.51,0,0,1,13-8.82,62.25,62.25,0,0,1,15.4-4.56A59.83,59.83,0,0,1,466.64,328.42Z"/><rect class="cls-1" x="19" y="307.74" width="488.82" height="13.09" rx="3.75" ry="3.75"/><path class="cls-2" d="M221.92,184.2l-.48.19c-1.22.53-2.44,1.07-3.66,1.58a17,17,0,0,1-2,.74,4.45,4.45,0,0,0-1.61.73,3.67,3.67,0,0,1-.38.27l-.21-.53c-.16.06-.31.09-.43.14a8.94,8.94,0,0,0-2.13,1.3c-.15.14-.28.31-.58.26,0-.16-.07-.33-.1-.49s-.16-.27-.35-.2l-.26.13a12.85,12.85,0,0,0-2.61,2l-.23.15c-.3-.26-.3-.71-.71-.9a15.22,15.22,0,0,0-3.2,3.16c-.5-.28-.38-.94-.82-1.27a2.05,2.05,0,0,0-.44.35c-.59.7-1.19,1.42-1.77,2.15a5.49,5.49,0,0,0-.35.48c-.28-.4-.28-.86-.67-1.14a9.77,9.77,0,0,0-2.25,2.93l-.87-.74c-.81,1.17-1.58,2.25-2.38,3.39-.1-.13-.16-.23-.22-.31-.28-.43-.36-.43-.72-.07a2.54,2.54,0,0,0-.36.45c-.33.5-.64,1-.95,1.51-.11.19-.25.36-.38.58l-.53-.48c-.28.38-.54.75-.8,1.12s-.53.69-.75,1.05-.42.78-.63,1.18l-.49-.4c-.16.16-.34.31-.47.47a18.8,18.8,0,0,0-2.39,3.67,3.29,3.29,0,0,1-.2.34l-.44-.35c-.13.14-.27.24-.38.37s-.35.46-.51.7a33.53,33.53,0,0,1-4.94,5.64l-.28.23s-.06,0-.08-.07c.13-.24.26-.49.4-.73a58.5,58.5,0,0,1,3.72-5.15,22,22,0,0,0,1.5-2,8.62,8.62,0,0,1,1.71-2l1.25-1.14a3.94,3.94,0,0,0,.59-1l-.55-.22.42-.46c.49-.5,1-1,1.45-1.49a14.94,14.94,0,0,0,1-1.21c.12-.16.26-.33.16-.56l-.47-.21a4.16,4.16,0,0,1,.36-.49c.26-.25.55-.5.8-.76.44-.42.87-.85,1.3-1.28a1.54,1.54,0,0,0,.42-.82l-.51-.33c.15-.18.24-.34.38-.48l.81-.81a18.19,18.19,0,0,0,1.43-1.49c.43-.55.39-.49,0-1a2.67,2.67,0,0,1,.37-.46c.42-.4.87-.76,1.26-1.18a5.36,5.36,0,0,0,.61-.91c.11-.19,0-.35-.18-.42l-.69-.25c.2-.17.37-.29.52-.43.43-.42.88-.84,1.3-1.29a1.53,1.53,0,0,0,.32-.62c.1-.25,0-.34-.25-.39l-.42-.11c.2-.22.35-.4.51-.56.38-.39.79-.8,1.17-1.21a3.18,3.18,0,0,0,.43-.63.35.35,0,0,0-.23-.53c-.18-.07-.35-.11-.6-.19a14.58,14.58,0,0,0,2.61-3.2l-1.25-.41c.17-.19.3-.31.42-.43.45-.49.91-1,1.33-1.46a4.32,4.32,0,0,0,.58-.88c.2-.43.09-.59-.37-.64-.78-.08-.84-.22-.38-.87a12.9,12.9,0,0,0,1.39-2.52,2.16,2.16,0,0,0,.17-.6c0-.31-.08-.44-.39-.47s-.38,0-.65,0l.38-.77c.3-.7.62-1.39.91-2.08a2.34,2.34,0,0,0,.13-.7c0-.22-.11-.31-.34-.27l-.58.05.22-.52c.24-.52.49-1,.7-1.58a4.58,4.58,0,0,0,.18-.73,4.91,4.91,0,0,0-.53-.19c.08-.21.16-.38.24-.56a8.94,8.94,0,0,0,.38-.92,1.1,1.1,0,0,0,0-.71,1.31,1.31,0,0,1-.06-.93,36.8,36.8,0,0,1,1.57-5.54c.24-.67.45-1.35.65-2a4,4,0,0,0,.08-.48l-.11,0a10.4,10.4,0,0,0-1.2,1.89c-.21.4-.38.81-.6,1.2-.58,1-1.18,1.95-1.76,2.94-.3.52-.59,1.06-.86,1.6-.06.17-.15.26-.32.22a.53.53,0,0,0-.6.37c-.15.42-.28.85-.4,1.27s-.15.32-.4.2l-.32-.17a5.54,5.54,0,0,0-.83,2.44c-.31-.17-.57-.29-.84-.42-.5.73-.41,1.62-.71,2.42l-.69-.43a4,4,0,0,0-.86,2.36,5,5,0,0,1-.1.63c-.41-.21-.73-.4-1.1-.61a5.87,5.87,0,0,0-.24.56,10.07,10.07,0,0,0-.48,2.49c0,.22.05.47-.2.65-.28-.16-.58-.33-.92-.54a4.67,4.67,0,0,0-.22.8c-.11.71-.2,1.4-.3,2.1-.05.46-.24.56-.63.3-.14-.09-.27-.2-.45-.34a7.72,7.72,0,0,0-.58,3.28c-.37-.19-.65-.35-.92-.48a.87.87,0,0,0-.4.67c-.17.92-.34,1.86-.5,2.8a2.38,2.38,0,0,1-.15.71c-.4-.31-.77-.57-1.16-.86a21.08,21.08,0,0,0-.65,4.36l-1.13-.51c-.07.36-.12.66-.18,1-.12.85-.23,1.71-.36,2.56a3.18,3.18,0,0,1-.19.54l-.46-.16c-.31-.1-.4-.05-.49.26a1.43,1.43,0,0,0-.07.28c0,.64-.12,1.28-.17,1.91s-.07,1.07-.13,1.66c-.31-.17-.58-.29-.89-.44a3.69,3.69,0,0,0-.12.48l-.21,2.15c0,.49,0,1-.06,1.45a.54.54,0,0,1-.26.49c-.19.08-.27-.09-.39-.2-.32-.26-.49-.21-.56.19s0,.61-.05.91a.8.8,0,0,1-.26.62c-.1-.27-.16-.49-.25-.72-.25,0-.5,0-.84.07.08-.2.14-.35.21-.49.21-.5.46-1,.67-1.49a9.09,9.09,0,0,0,.4-1.18c.12-.54,0-.65-.54-.61,0,0-.06,0-.14-.07s.12-.34.19-.51c.35-.82.7-1.62,1-2.43a1.32,1.32,0,0,0,.13-.93l-.8-.1a3.7,3.7,0,0,1,.16-.5c.17-.43.36-.85.51-1.3.22-.63.4-1.25.57-1.89a.6.6,0,0,0-.11-.67l-1,.06.25-.55c.33-.8.69-1.6,1-2.4a4.15,4.15,0,0,0,.18-.85c0-.41-.13-.52-.53-.43l-.71.19c.61-1.42,1.36-2.68,1.29-4.18-.43,0-.77.36-1.26.16.11-.23.19-.45.3-.65a10.19,10.19,0,0,0,1.05-2.83,1.77,1.77,0,0,0,0-1.18l-1,.1a7.21,7.21,0,0,0,.29-.78c.24-.76.5-1.52.7-2.29.13-.44,0-.52-.42-.5-.17,0-.34,0-.51.05h-.34c.18-.65.35-1.27.47-1.89a5.08,5.08,0,0,0,.14-1.94c-.43,0-.76.31-1.21.2a9.71,9.71,0,0,0,.67-3.78c-.42-.06-.78.2-1.18.05a13.73,13.73,0,0,0,.51-3.78l-.92.1a2.69,2.69,0,0,0,0-.29,7.08,7.08,0,0,0,.15-2.25c0-.24-.05-.45-.36-.43s-.28-.15-.3-.31a1.79,1.79,0,0,1,0-.4l.06-1.53a5.46,5.46,0,0,0,0-.57l-.56-.07c0-.25,0-.5,0-.73a3.85,3.85,0,0,0-.08-1.23,8,8,0,0,1-.34-1.74,53.81,53.81,0,0,1-.31-5.83c0-.58-.06-1.17-.11-1.77a1.79,1.79,0,0,0-.09-.46.39.39,0,0,0-.15.27c-.29,2.09-.57,4.17-.87,6.25-.14.91-.33,1.8-.49,2.7-.09.51-.22,1-.26,1.55,0,.67,0,.67-.7.68,0,.19,0,.37,0,.56s0,.64,0,1c0,.11-.09.3-.15.31-.36.06-.37.34-.4.59,0,.4,0,.82,0,1.24,0,.25-.07.5-.09.73-.68.06-.76.13-.82.75a4.13,4.13,0,0,0,.17,1.71c0,.12,0,.24.09.4-.43.1-.81-.12-1.26-.09a32.87,32.87,0,0,0,.34,4h-1.27a7.31,7.31,0,0,0,.54,3.36.26.26,0,0,1-.14,0,1.73,1.73,0,0,1-.32,0c-.63,0-.84.14-.71.74s.33,1.11.49,1.65c0,.16.08.32.15.57l-.54-.07c-.17,0-.31,0-.52,0a7.56,7.56,0,0,0,.87,3.31l-1.29-.2a9.22,9.22,0,0,0,.37,2.31c.21.75.47,1.48.72,2.24-.51.15-1-.14-1.45-.05a30.75,30.75,0,0,0,1.23,4c-.07.06-.1.08-.14.08H170c-.39,0-.46.05-.38.45a17.49,17.49,0,0,0,1.07,3.18q.08.18.15.39c-.43.11-.83-.05-1.23.17a6.76,6.76,0,0,0,.17.78c.35,1,.72,2,1.09,2.93,0,.16.09.33.16.56l-.61.07c-.43,0-.5.12-.41.54a14.71,14.71,0,0,0,1.2,3.51c.08.16.13.34.21.54l-.59.07c-.27,0-.33.11-.27.38a4.41,4.41,0,0,0,.18.8l1.2,3.14a3.52,3.52,0,0,1,.16.49h-.83a1.54,1.54,0,0,0,.06.31c.45,1.25.88,2.48,1.35,3.72.08.21.14.36-.05.55a.56.56,0,0,0-.14.58c.14.63.25,1.27.4,1.89.29,1.26.67,2.51.93,3.78a24.66,24.66,0,0,1,.26,2.49l-.15,0c-.05-.08-.11-.16-.15-.24a39.21,39.21,0,0,1-2.44-6.33l-.85-3.11c-.08-.27-.21-.53-.31-.81l-.42.19a1.18,1.18,0,0,1-.32-.72c-.17-.8-.32-1.6-.51-2.4s-.34-1.31-.52-2c-.35.24-.65.46-.95.68-.25-1-.46-1.92-.73-2.85s-.55-1.86-.92-2.83c-.37.24-.66.44-1,.69a18.41,18.41,0,0,0-1.3-5l-.69.51c-.09-.33-.16-.56-.22-.8-.16-.72-.32-1.44-.5-2.16a3.32,3.32,0,0,0-.27-.68c-.39.06-.49.51-.92.51a5.78,5.78,0,0,1-.12-.66,11.2,11.2,0,0,0-.44-2.5,2.76,2.76,0,0,0-.2-.53l-1.08.77c-.08-.27-.14-.47-.21-.66-.29-1-.59-2-.89-2.94a3.07,3.07,0,0,0-.26-.51,2.32,2.32,0,0,0-.26.15c-.65.45-.77.41-.93-.39-.1-.41-.18-.81-.3-1.22a.71.71,0,0,0-.45-.57l-.91.73a9.65,9.65,0,0,0-.74-3.51c-.5,0-.68.53-1.09.64-.62-2.48-1-3.55-1.54-4-.26.2-.5.42-.81.67-.06-.21-.08-.39-.13-.55a5.84,5.84,0,0,0-.74-1.91c-.19-.3-.3-.31-.56-.16-.43.25-.53.23-.74-.24-.08-.17-.14-.36-.21-.54-.16-.44-.32-.91-.52-1.34a5.41,5.41,0,0,0-.41-.66l-.6.76c-.07-.06-.11-.07-.12-.1s0-.18-.07-.27a7.74,7.74,0,0,0-1-2.26c-.12-.18-.31-.41-.49-.42a.83.83,0,0,1-.69-.59,14.52,14.52,0,0,0-1.6-2.45c-.79-1-1.48-2.14-2.22-3.2-.52-.75-1.05-1.46-1.59-2.2-.09-.12-.22-.23-.32-.35l-.1.07c1.13,2.66,2.5,5.23,3.09,8.09l-.34.11a6.44,6.44,0,0,0,.21.84c.19.52.42,1,.61,1.52.08.19.1.38.16.57l-.2.07c-.36.12-.42.2-.33.54a1.29,1.29,0,0,0,.16.4c.37.59.73,1.17,1.11,1.75.09.14.21.26.36.46-.27,0-.46,0-.65.05s-.33.18-.25.42a1.84,1.84,0,0,0,.19.37c.37.48.73.94,1.11,1.4.1.14.21.26.36.45l-.84.4a1.22,1.22,0,0,0,.32.78c.43.58.88,1.15,1.32,1.73l.29.46a6.58,6.58,0,0,0-.74.23c-.26.09-.31.21-.18.44a3,3,0,0,0,.44.57c.52.55,1.08,1.09,1.62,1.65a4,4,0,0,1,.27.31c-.42.23-.95.08-1.24.59a7,7,0,0,0,.58.74c.76.8,1.54,1.59,2.32,2.39.12.11.23.24.35.36-.46.27-1,.23-1.37.65a5,5,0,0,0,.43.48l2.12,1.66.43.33-.49.27c-.52.31-.55.46-.12.91a12.11,12.11,0,0,0,2.36,1.91c.16.1.38.16.43.48l-1,.35a1.41,1.41,0,0,0,.5.84c.55.47,1.12.92,1.67,1.38.18.16.34.33.57.54l-1,.5a4.89,4.89,0,0,0,.53.7c.59.54,1.22,1,1.84,1.55.2.18.45.32.65.49s.23.42-.11.57a3,3,0,0,1-.46.16,3.18,3.18,0,0,0,.3.45,6.06,6.06,0,0,0,.76.68c.62.47,1.27.92,1.91,1.38l.38.29c0,.08,0,.11,0,.11s-.05.08-.09.1c-.32.27-.36.4-.11.72a3.47,3.47,0,0,0,.55.6l2.54,2,.47.37-.53.19a2.92,2.92,0,0,0,.26.47,10.52,10.52,0,0,0,1,1.09c.47.43,1,.8,1.49,1.2a3.41,3.41,0,0,1,1,1.25,2.21,2.21,0,0,0,.42.58c.41.44.83.86,1.25,1.28.83.8,1.68,1.58,2.49,2.41a14,14,0,0,1,2.27,2.86l.73,1.25.15.25a2.17,2.17,0,0,1-.72-.4,28.85,28.85,0,0,1-4-3.93c-.49-.59-1-1.17-1.5-1.75-.12-.14-.29-.25-.45-.4-.16.22-.31.4-.47.59-.34-.5-.63-1-.94-1.41s-.62-.86-1-1.26a7,7,0,0,0-1.09-1.22l-.27.35c-.08.11-.16.2-.24.32-1.48-2.15-2-2.87-2.54-3.21-.34.18-.28.63-.57.9a16.92,16.92,0,0,0-2.77-3.39c-.24.31-.42.57-.64.85a16.07,16.07,0,0,0-2.6-2.75l-.67.94a14.82,14.82,0,0,0-2.83-3.16c-.19.42-.35.76-.54,1.15a21,21,0,0,0-3.37-3.36c-.19.46-.33.84-.51,1.29a17.66,17.66,0,0,0-2.91-2.53c-.15.29-.3.55-.45.82-1.41-1.36-1.91-1.75-2.43-1.91-.11.19-.22.39-.35.65a13.25,13.25,0,0,0-2.64-1.63c-.07.19-.14.34-.22.53l-.46-.22c-.5-.24-1-.51-1.51-.74a1.88,1.88,0,0,0-1-.23,1.2,1.2,0,0,1-.46-.11c-1.58-.63-3.14-1.28-4.71-1.87a13.94,13.94,0,0,0-1.71-.48.89.89,0,0,0-.32,0,.38.38,0,0,1,0,.1c.23.17.46.33.71.49.77.49,1.57.94,2.33,1.45s1.54,1.14,2.3,1.74a2.64,2.64,0,0,1,.54.65,3.63,3.63,0,0,0,.43.58c.47.37,1,.71,1.49,1.05.17.12.42.21.38.44-.11.56.25.79.62,1s1,.59,1.44.88c.17.11.31.25.52.41l-.59.5a2.67,2.67,0,0,0,1.37,1.18c.38.19.76.34,1.14.52.16.08.35.15.42.35-.37.23-.44.43-.22.77a1.47,1.47,0,0,0,.53.49c.59.31,1.2.57,1.83.85.13.07.27.13.46.21-.2.2-.37.36-.54.55a2,2,0,0,0,.36.42,12.13,12.13,0,0,0,3.74,1.64c-.19.19-.32.34-.47.48s-.26.32-.07.62a1.51,1.51,0,0,0,.91.6l2.26.49.27.09a1.09,1.09,0,0,1-.13.23c-.34.46-.33.68.09,1.06a1.75,1.75,0,0,0,.56.35,10.33,10.33,0,0,0,1.19.39c.35.11.72.17,1.09.26s.4.16.35.46a.65.65,0,0,0,.43.77,8.93,8.93,0,0,0,1.22.45c.55.16,1.11.29,1.67.44.31.08.52.24.53.58a.72.72,0,0,0,.62.7l.46.11c1,.16,2,.31,3,.49.5.08,1,.16,1.23.75,0,.08.16.14.26.19s.43.14.65.2c2.87.81,5.72,1.69,8.53,2.71.1,0,.2.11.31.15a1.32,1.32,0,0,1-.54.08l-4.29-.11c-.27,0-.54,0-.81.06s-.57.1-.57.5a.74.74,0,0,1-.27,0,5.35,5.35,0,0,0-1.95-.13c-.42,0-.84.08-1.25.13-.16,0-.3.08-.3.32,0,.42,0,.44-.43.48-.18,0-.35,0-.53,0-.68.09-1.36.17-2,.3a1.37,1.37,0,0,0-.49.23c.11.28.17.5.26.7a.64.64,0,0,0-.13.1l-.24,0a7.16,7.16,0,0,0-2.09.7,1.21,1.21,0,0,0-.45.42c-.05.11.06.3.1.52l-.66.42c-.28.15-.55.28-.82.44a.86.86,0,0,0-.46.63,1.12,1.12,0,0,1-.5.74c-1.23,1-2.47,1.94-3.7,2.93l-1.29,1.08a4.14,4.14,0,0,0-.34.48.31.31,0,0,0,.07.09,4,4,0,0,0,.68-.19c1.2-.43,2.4-.89,3.62-1.3a9.77,9.77,0,0,1,2.18-.53,8.32,8.32,0,0,0,2.9-.82l.47-.22c.09.2.14.37.21.52s.23.33.53.24a3.11,3.11,0,0,0,.53-.22c.33-.19.67-.38,1-.55a.8.8,0,0,1,.91,0,.88.88,0,0,0,.83.05l1.07-.46a9.68,9.68,0,0,1,1.19-.51,1.23,1.23,0,0,1,.73-.05,1.27,1.27,0,0,0,1-.05c.56-.26,1.1-.53,1.64-.8l.92-.41c.19-.06.4-.1.53.09s.49.25.76.1.4-.17.57-.27l4.6-2.53c.38-.22.76-.41,1.16-.64a1.57,1.57,0,0,1,.29,1,35.35,35.35,0,0,1-.14,5.35h.8c.12-1.53.19-3.07.3-4.6a12.5,12.5,0,0,1,.18-1.63c.08-.49.25-.61.74-.68a4.33,4.33,0,0,1,2.05.14l1.37.44c2.06.67,4.1,1.36,6.18,2a14.28,14.28,0,0,0,4.2.76,4.09,4.09,0,0,1,1.72.4,4.49,4.49,0,0,0,.92.3.94.94,0,0,0,.91-.16.77.77,0,0,1,.76-.19c.39.08.77.19,1.17.26a8.11,8.11,0,0,0,1.38.16c.42,0,.54-.14.55-.56a.35.35,0,0,1,.38-.39c.28,0,.55,0,.82-.05l1.87-.06a1.34,1.34,0,0,0,.92-.38,1.43,1.43,0,0,1,.88-.34c.29,0,.57,0,.86-.06a1.9,1.9,0,0,0,.65-.19,2.33,2.33,0,0,1,1.5-.4h2.7c1.07,0,2.14,0,3.22-.07a2.06,2.06,0,0,0,.34-.07c-.09-.09-.13-.15-.19-.17a4.53,4.53,0,0,0-.4-.26,19.83,19.83,0,0,0-3.68-1.56c-.23-.08-.47-.09-.7-.16a3.36,3.36,0,0,1-.54-.26,4.15,4.15,0,0,0-.76-.38c-.8-.18-1.62-.3-2.42-.43-.17,0-.32-.08-.33-.27s-.17-.3-.36-.32c-.43,0-.86,0-1.3,0-.64,0-.58,0-.73-.57,0,0,0-.05-.07-.09-.39,0-.78,0-1.18,0s-.81.08-1.24.08c0-.34.08-.6.12-.91a14.1,14.1,0,0,0-2.71.49c-.06-.61-.08-.65-.65-.58s-1.14.21-1.7.32l-.46.1c-.07-.26-.11-.45-.18-.69a22.15,22.15,0,0,0-3.57,1.05c0-.27,0-.48-.07-.74a11.34,11.34,0,0,0-3.59.89c-.25-.44-.25-.44-.72-.36l-.84.17c-1.32.36-2.65.71-4,1.05a1.47,1.47,0,0,1-.75.05c.22-.13.34-.23.48-.3,1-.44,2-.92,3-1.35,1.94-.82,3.89-1.59,5.82-2.42a4.15,4.15,0,0,0,1.25-.7,7.25,7.25,0,0,1,2-1.17c.53-.21,1-.42,1.56-.65a.58.58,0,0,0,.36-.28,1.29,1.29,0,0,1,.76-.62c.38-.14.78-.24,1.16-.34.61-.17,1.22-.29,1.81-.49a3.23,3.23,0,0,0,.76-.48c.15-.12.14-.27,0-.43l-.35-.49a5.41,5.41,0,0,1,.52-.31c.44-.19.91-.34,1.35-.51.59-.23,1.17-.45,1.74-.71a2.51,2.51,0,0,0,.63-.43c.19-.18.17-.3,0-.48l-.35-.31a1.1,1.1,0,0,1,.7-.38c.65-.22,1.32-.41,2-.65a2.31,2.31,0,0,0,.77-.56c.28-.27.24-.55,0-.84-.12-.12-.24-.24-.41-.39a11.41,11.41,0,0,0,2.82-1.25,3.26,3.26,0,0,0,.56-.38c.24-.21.24-.35.05-.62-.08-.12-.17-.24-.28-.42.43-.18.81-.3,1.17-.47a10.32,10.32,0,0,0,1.4-.83c.37-.27.33-.45,0-.76a1.26,1.26,0,0,1-.16-.19,4.09,4.09,0,0,1,.45-.34c.42-.24.85-.45,1.27-.69a5.6,5.6,0,0,0,.8-.54c.31-.27.3-.41,0-.72a2.89,2.89,0,0,1-.19-.27c.24-.12.44-.26.65-.37.46-.23.92-.44,1.37-.7a6.58,6.58,0,0,0,.58-.45l-.64-.61.52-.32a8.85,8.85,0,0,0,1.76-1.33,1.42,1.42,0,0,0,.33-.41A3.07,3.07,0,0,1,218,188c.86-.8,1.76-1.58,2.65-2.37.38-.34.79-.66,1.18-1A.32.32,0,0,0,221.92,184.2ZM180.1,198.14a4.3,4.3,0,0,1-.07,2.51,4.24,4.24,0,0,0-.5-.11c-.05.21-.11.42-.16.66a5.1,5.1,0,0,1-.43-.28A10.91,10.91,0,0,1,180.1,198.14ZM178,205.67c.13-.39.3-.77.47-1.15s.26-.46.38-.69a4.43,4.43,0,0,1-.72,2.68A.8.8,0,0,1,178,205.67Z"/><path class="cls-2" d="M178.94,200.91a10.34,10.34,0,0,1,1.17-2.77,4.43,4.43,0,0,1-.08,2.5l-.5-.11-.17.68Z"/><path class="cls-2" d="M178.81,203.83a4.51,4.51,0,0,1-.71,2.68.78.78,0,0,1-.14-.83,11.72,11.72,0,0,1,.47-1.16C178.54,204.28,178.69,204.06,178.81,203.83Z"/></svg>