<svg id="Layer_1" data-name="Layer 1" xmlns="http://www.w3.org/2000/svg" viewBox="0 0 576 576"><defs><style>.cls-1{fill:#9abf4b;}.cls-2{fill:green;}.cls-3{fill:#999;}.cls-4{fill:#333;}.cls-5{fill:#fff;}</style></defs><title>Logos</title><path class="cls-1" d="M415.83,128.64c-.4.15-.83.33-1.27.51-3.25,1.41-6.5,2.85-9.75,4.19a45.4,45.4,0,0,1-5.42,2,11.71,11.71,0,0,0-4.31,1.95,11,11,0,0,1-1,.72l-.54-1.41c-.43.15-.83.22-1.16.36a23.59,23.59,0,0,0-5.67,3.47c-.4.37-.76.84-1.55.69-.08-.43-.18-.87-.26-1.3a.63.63,0,0,0-.94-.54,3.66,3.66,0,0,0-.68.36,34,34,0,0,0-7,5.42c-.18.14-.39.25-.61.4-.8-.69-.8-1.88-1.88-2.39a40.06,40.06,0,0,0-8.53,8.42c-1.34-.76-1-2.49-2.2-3.39a5.2,5.2,0,0,0-1.16.94c-1.59,1.87-3.18,3.79-4.73,5.74a12.74,12.74,0,0,0-.94,1.27c-.73-1-.73-2.28-1.78-3a25.79,25.79,0,0,0-6,7.81c-.84-.69-1.52-1.27-2.32-1.95-2.17,3.1-4.23,6-6.36,9l-.58-.83c-.75-1.16-1-1.16-1.91-.18a6.53,6.53,0,0,0-1,1.19c-.86,1.34-1.7,2.67-2.53,4-.29.51-.65,1-1,1.56-.54-.47-.94-.84-1.41-1.27-.76,1-1.44,2-2.13,3s-1.41,1.85-2,2.82-1.12,2.06-1.7,3.15c-.5-.4-.83-.69-1.3-1.09-.43.44-.9.83-1.26,1.27a49.37,49.37,0,0,0-6.36,9.79c-.15.29-.33.54-.55.91-.39-.33-.72-.58-1.15-.94-.36.36-.72.65-1,1-.47.62-.94,1.23-1.38,1.88a89.61,89.61,0,0,1-13.15,15c-.25.22-.51.4-.76.62-.07-.07-.14-.11-.22-.18.36-.65.69-1.3,1.09-1.95a157.69,157.69,0,0,1,9.9-13.74,57.26,57.26,0,0,0,4-5.31,23.33,23.33,0,0,1,4.55-5.2c1.12-1,2.21-2,3.33-3,.79-.72,1-1.77,1.59-2.71L321.4,177c.47-.5.79-.86,1.12-1.23,1.3-1.33,2.64-2.6,3.86-4a38.57,38.57,0,0,0,2.75-3.22c.33-.43.69-.9.43-1.52-.36-.14-.75-.32-1.26-.54a9.57,9.57,0,0,1,1-1.3c.68-.69,1.44-1.34,2.13-2,1.15-1.12,2.31-2.28,3.47-3.44a4.36,4.36,0,0,0,1.12-2.16l-1.38-.91c.4-.47.65-.9,1-1.26.68-.72,1.44-1.45,2.16-2.17a47.34,47.34,0,0,0,3.8-4c1.16-1.44,1-1.3,0-2.74a7.45,7.45,0,0,1,1-1.23c1.12-1.05,2.31-2,3.36-3.15a13.5,13.5,0,0,0,1.63-2.42.72.72,0,0,0-.47-1.12c-.55-.21-1.09-.39-1.85-.65.54-.47,1-.79,1.38-1.15,1.15-1.12,2.35-2.24,3.47-3.44a4.61,4.61,0,0,0,.86-1.66c.26-.65,0-.9-.68-1.05-.33-.07-.62-.14-1.12-.29.54-.57.94-1,1.37-1.48,1-1.05,2.1-2.13,3.11-3.21a9.57,9.57,0,0,0,1.15-1.7.92.92,0,0,0-.61-1.41c-.47-.18-.94-.29-1.59-.51,2.53-2.75,5.24-5.13,6.94-8.53l-3.33-1.08c.47-.51.8-.83,1.12-1.16,1.2-1.3,2.42-2.56,3.55-3.9a11.66,11.66,0,0,0,1.55-2.35c.54-1.12.25-1.55-1-1.7-2.09-.22-2.24-.58-1-2.31a34.3,34.3,0,0,0,3.69-6.72,7,7,0,0,0,.47-1.59c.11-.83-.22-1.2-1.05-1.27-.51,0-1,0-1.74,0,.44-.87.73-1.44,1-2.06.79-1.84,1.66-3.68,2.42-5.53a6.46,6.46,0,0,0,.36-1.88c0-.58-.29-.83-.9-.72-.44.07-.91.07-1.56.14.25-.61.44-1,.58-1.37.65-1.41,1.3-2.82,1.88-4.23a12.6,12.6,0,0,0,.47-2c-.54-.21-.94-.36-1.41-.5.22-.55.43-1,.65-1.49.33-.83.76-1.62,1-2.45a3.09,3.09,0,0,0,.11-1.88,3.57,3.57,0,0,1-.18-2.5,99.92,99.92,0,0,1,4.19-14.78c.65-1.77,1.19-3.57,1.74-5.38a8,8,0,0,0,.21-1.27l-.29-.1a28.71,28.71,0,0,0-3.21,5c-.54,1.08-1,2.17-1.59,3.21-1.56,2.64-3.15,5.21-4.7,7.85-.8,1.37-1.55,2.82-2.28,4.26-.18.44-.39.69-.86.58a1.38,1.38,0,0,0-1.59,1c-.4,1.12-.76,2.27-1.09,3.39-.22.76-.4.87-1.05.54l-.86-.47a15,15,0,0,0-2.21,6.51c-.83-.43-1.52-.76-2.24-1.12-1.34,1.95-1.08,4.34-1.88,6.47l-1.84-1.16a11.33,11.33,0,0,0-1.12,1.74,12.23,12.23,0,0,0-1.19,4.55,12.7,12.7,0,0,1-.26,1.7C343,87,342.14,86.5,341.17,86a15.67,15.67,0,0,0-.66,1.48,26.06,26.06,0,0,0-1.26,6.65c0,.58.11,1.23-.54,1.74l-2.46-1.45a12.64,12.64,0,0,0-.58,2.14c-.29,1.87-.54,3.72-.79,5.6-.15,1.23-.65,1.48-1.7.79-.36-.25-.72-.54-1.19-.9a20.89,20.89,0,0,0-1.56,8.74c-1-.5-1.73-.94-2.46-1.3a2.29,2.29,0,0,0-1,1.81c-.47,2.46-.91,4.95-1.34,7.44a6.4,6.4,0,0,1-.4,1.92c-1.08-.83-2.06-1.52-3.11-2.31-1.26,3.86-1.26,7.73-1.73,11.63-1-.47-1.92-.86-3-1.37-.18,1-.33,1.77-.47,2.57-.33,2.27-.61,4.55-1,6.83a8.24,8.24,0,0,1-.5,1.44c-.54-.18-.87-.32-1.23-.43-.83-.25-1.05-.15-1.3.69a2.56,2.56,0,0,0-.18.75c-.15,1.7-.33,3.4-.47,5.1-.11,1.45-.18,2.85-.33,4.41-.83-.44-1.55-.76-2.38-1.16-.15.54-.26.91-.33,1.27l-.54,5.74c-.11,1.3-.11,2.57-.18,3.87a1.39,1.39,0,0,1-.69,1.3c-.5.22-.72-.25-1-.54-.83-.69-1.3-.54-1.48.5-.11.8-.11,1.63-.14,2.43a2,2,0,0,1-.69,1.66c-.25-.72-.43-1.3-.65-1.92-.69,0-1.34.11-2.24.18.22-.54.36-.94.54-1.3.58-1.33,1.23-2.64,1.81-4a23.27,23.27,0,0,0,1.05-3.15c.32-1.44,0-1.73-1.45-1.62-.07,0-.14-.07-.36-.18.15-.44.33-.91.51-1.38.94-2.17,1.88-4.3,2.78-6.47a3.58,3.58,0,0,0,.32-2.49c-.68-.07-1.37-.18-2.13-.25.15-.54.29-.94.44-1.34.47-1.16,1-2.28,1.37-3.47.58-1.66,1.05-3.32,1.52-5a1.68,1.68,0,0,0-.29-1.81c-.8.07-1.59.11-2.57.18.29-.65.47-1.08.65-1.48.91-2.13,1.85-4.26,2.68-6.4a10.29,10.29,0,0,0,.47-2.27c.07-1.09-.33-1.38-1.41-1.12-.51.14-1,.29-1.88.5,1.62-3.79,3.61-7.15,3.43-11.16-1.15,0-2.06,1-3.36.43.29-.62.51-1.19.8-1.74a27.09,27.09,0,0,0,2.81-7.55,4.9,4.9,0,0,0,0-3.14c-.83.11-1.66.18-2.71.29.32-.83.58-1.45.76-2.1.65-2,1.33-4,1.88-6.11.32-1.15.07-1.37-1.12-1.33-.47,0-.91.1-1.38.14a6.56,6.56,0,0,1-.9,0c.47-1.74.94-3.4,1.26-5.06a13.83,13.83,0,0,0,.37-5.17c-1.16,0-2,.83-3.22.54,1-3.32,2.13-6.61,1.77-10.08-1.12-.15-2.06.54-3.14.14,1.22-3.29,1.08-6.65,1.37-10.08-.87.07-1.63.18-2.46.25.07-.36.07-.58.11-.76a19.81,19.81,0,0,0,.4-6c0-.65-.15-1.19-1-1.15-.58,0-.72-.4-.79-.83a4.62,4.62,0,0,1,0-1c0-1.34.11-2.71.15-4.08a12.79,12.79,0,0,0-.11-1.52L299,43c0-.69,0-1.34,0-2a10.81,10.81,0,0,0-.21-3.29,21.32,21.32,0,0,1-.91-4.63A152,152,0,0,1,297,17.55c0-1.55-.14-3.14-.29-4.73a4.56,4.56,0,0,0-.25-1.23,1.13,1.13,0,0,0-.4.72c-.76,5.57-1.51,11.13-2.31,16.66-.36,2.42-.87,4.81-1.3,7.19a41.47,41.47,0,0,0-.69,4.16c-.14,1.77-.07,1.77-1.88,1.81,0,.5-.07,1-.07,1.48,0,.86.07,1.7,0,2.56,0,.29-.22.8-.4.83-.94.15-1,.91-1.05,1.56-.11,1.08-.07,2.2-.11,3.32,0,.65-.18,1.34-.25,1.95-1.81.15-2,.33-2.17,2a10.82,10.82,0,0,0,.44,4.56c.07.32.14.65.25,1.08-1.16.25-2.17-.33-3.36-.25a84.25,84.25,0,0,0,.9,10.73h-3.4a19.79,19.79,0,0,0,1.45,9c-.18.11-.25.15-.36.15a8.5,8.5,0,0,1-.87-.07c-1.66-.15-2.24.36-1.88,2s.87,3,1.3,4.41c.11.43.22.86.4,1.51-.65-.07-1.05-.14-1.44-.18s-.84,0-1.38,0c-.29,3.18,1.23,5.86,2.31,8.82-1.26-.22-2.31-.36-3.43-.54a24.63,24.63,0,0,0,1,6.18c.58,2,1.26,3.94,1.91,6-1.33.4-2.53-.36-3.86-.14.68,3.76,2.16,7.22,3.28,10.73-.18.14-.25.22-.36.22-.39,0-.83,0-1.26,0-1.05,0-1.23.15-1,1.19a45.18,45.18,0,0,0,2.85,8.5c.15.32.25.65.4,1-1.16.29-2.21-.14-3.29.44a19.61,19.61,0,0,0,.47,2.09c.94,2.61,1.92,5.21,2.89,7.81.15.43.25.87.43,1.48-.65.07-1.15.11-1.62.18-1.16.11-1.34.33-1.09,1.45a39.48,39.48,0,0,0,3.18,9.36c.22.43.37.9.58,1.44-.65.08-1.12.11-1.59.18-.72.11-.86.29-.72,1a10.49,10.49,0,0,0,.51,2.13c1,2.78,2.13,5.6,3.18,8.38a13.19,13.19,0,0,1,.43,1.3h-2.2a3.52,3.52,0,0,0,.14.83c1.19,3.33,2.35,6.62,3.61,9.91.22.58.37,1-.14,1.48a1.51,1.51,0,0,0-.36,1.55c.36,1.66.65,3.36,1.05,5,.79,3.36,1.8,6.68,2.49,10.08a66.44,66.44,0,0,1,.69,6.65c-.26-.11-.37-.11-.4-.15a5,5,0,0,1-.4-.65,104.56,104.56,0,0,1-6.5-16.87l-2.28-8.28c-.22-.72-.54-1.41-.83-2.17l-1.12.51a3.1,3.1,0,0,1-.83-1.92c-.47-2.13-.87-4.26-1.38-6.39-.39-1.77-.9-3.51-1.37-5.42-.94.65-1.73,1.22-2.53,1.8-.69-2.6-1.23-5.09-2-7.59s-1.48-4.95-2.46-7.55c-1,.65-1.77,1.19-2.71,1.84a49.19,49.19,0,0,0-3.47-13.44l-1.84,1.34c-.25-.87-.44-1.49-.58-2.14-.43-1.91-.87-3.83-1.34-5.74a9.9,9.9,0,0,0-.72-1.81c-1,.15-1.3,1.34-2.46,1.34a14.61,14.61,0,0,1-.32-1.74,29.88,29.88,0,0,0-1.16-6.68,9.36,9.36,0,0,0-.54-1.41l-2.89,2.06c-.22-.72-.36-1.27-.54-1.77-.8-2.6-1.59-5.24-2.39-7.84a7.11,7.11,0,0,0-.69-1.34,3.1,3.1,0,0,0-.68.4c-1.74,1.19-2.06,1.08-2.5-1-.25-1.09-.47-2.17-.79-3.25a1.94,1.94,0,0,0-1.19-1.52l-2.43,2a25.61,25.61,0,0,0-2-9.36c-1.34.07-1.81,1.41-2.89,1.7-1.67-6.62-2.79-9.47-4.12-10.59-.69.54-1.34,1.12-2.17,1.81-.15-.58-.22-1-.33-1.49a15.89,15.89,0,0,0-2-5.09c-.5-.8-.79-.83-1.48-.44-1.15.69-1.41.62-2-.61-.22-.47-.37-1-.55-1.45-.43-1.19-.86-2.42-1.41-3.57A12.75,12.75,0,0,0,217.1,77c-.61.79-1.12,1.41-1.59,2-.18-.14-.29-.18-.33-.25-.07-.22-.1-.47-.18-.73a20.18,20.18,0,0,0-2.78-6c-.32-.47-.83-1.09-1.3-1.12a2.2,2.2,0,0,1-1.84-1.56,39.73,39.73,0,0,0-4.27-6.54c-2.09-2.78-3.94-5.71-5.92-8.53-1.38-2-2.79-3.9-4.23-5.85-.26-.33-.58-.61-.87-.94-.07.07-.18.11-.25.18,3,7.08,6.65,14,8.24,21.58l-.91.29a17.47,17.47,0,0,0,.55,2.24c.5,1.37,1.12,2.71,1.62,4a13,13,0,0,1,.44,1.52,3.3,3.3,0,0,1-.55.18c-.94.33-1.12.54-.86,1.45a3.22,3.22,0,0,0,.43,1.08c1,1.56,1.95,3.11,3,4.66.22.37.55.69.94,1.23-.72,0-1.23,0-1.73.11a.75.75,0,0,0-.65,1.12,4.53,4.53,0,0,0,.5,1c1,1.27,1.95,2.5,3,3.73.25.36.54.68.94,1.19-.87.43-1.56.76-2.24,1.08a3.3,3.3,0,0,0,.86,2.06c1.16,1.56,2.35,3.07,3.51,4.63.25.36.47.72.79,1.23a13.84,13.84,0,0,0-2,.61c-.69.22-.84.54-.47,1.16a8.21,8.21,0,0,0,1.15,1.52c1.41,1.48,2.89,2.92,4.34,4.4.25.26.47.55.72.84-1.12.61-2.53.21-3.32,1.55a16.25,16.25,0,0,0,1.55,2c2,2.13,4.12,4.23,6.18,6.36.33.29.62.65.94,1-1.23.73-2.67.62-3.65,1.74a12.74,12.74,0,0,0,1.16,1.26c1.84,1.48,3.76,3,5.63,4.45.33.25.69.5,1.16.87-.54.28-.94.5-1.3.72-1.41.83-1.48,1.23-.33,2.42a32.07,32.07,0,0,0,6.29,5.1c.44.25,1,.43,1.16,1.26-.87.33-1.7.61-2.57.94a3.64,3.64,0,0,0,1.34,2.24c1.45,1.26,3,2.46,4.45,3.69.47.43.9.86,1.51,1.44-1,.47-1.8.87-2.78,1.34a13.92,13.92,0,0,0,1.41,1.84c1.59,1.45,3.25,2.78,4.92,4.16.54.47,1.19.83,1.73,1.3.72.65.61,1.12-.29,1.52-.32.14-.69.25-1.23.43a10.13,10.13,0,0,0,.8,1.19,19.09,19.09,0,0,0,2,1.81c1.66,1.26,3.4,2.46,5.1,3.69.36.25.72.54,1,.76,0,.21,0,.28-.07.28a1,1,0,0,1-.26.29c-.83.73-.94,1.05-.29,1.92a9,9,0,0,0,1.49,1.59l6.75,5.31c.4.29.76.58,1.27,1-.58.21-.94.32-1.41.5a6.83,6.83,0,0,0,.69,1.27,24.66,24.66,0,0,0,2.71,2.89c1.26,1.16,2.67,2.13,4,3.22a9.09,9.09,0,0,1,2.78,3.32,6.07,6.07,0,0,0,1.12,1.55c1.09,1.16,2.21,2.28,3.33,3.4,2.2,2.13,4.48,4.23,6.65,6.43a37.48,37.48,0,0,1,6,7.63c.65,1.12,1.31,2.2,2,3.32.14.22.25.47.39.69a6.1,6.1,0,0,1-1.91-1.08,76.75,76.75,0,0,1-10.77-10.48c-1.3-1.56-2.68-3.11-4-4.67-.33-.36-.76-.65-1.2-1-.43.57-.83,1-1.26,1.55-.9-1.34-1.66-2.57-2.49-3.76s-1.67-2.27-2.57-3.36a18.81,18.81,0,0,0-2.89-3.25c-.29.4-.51.65-.72.94s-.44.54-.65.87c-3.94-5.75-5.42-7.67-6.76-8.57-.91.47-.76,1.66-1.52,2.39a45.3,45.3,0,0,0-7.41-9c-.61.83-1.12,1.52-1.7,2.28a41.84,41.84,0,0,0-6.94-7.34c-.65.94-1.19,1.7-1.77,2.5a39.31,39.31,0,0,0-7.55-8.43c-.51,1.12-.94,2-1.45,3.08a56.3,56.3,0,0,0-9-9c-.5,1.23-.9,2.24-1.37,3.44-2.57-2.46-4.84-5-7.77-6.72-.4.75-.8,1.44-1.19,2.16-3.76-3.61-5.1-4.66-6.47-5.09-.29.5-.58,1.05-.94,1.73-2.39-1.52-4.41-3.43-7.05-4.33-.18.5-.36.9-.58,1.41l-1.23-.58c-1.33-.65-2.67-1.38-4-2a5,5,0,0,0-2.71-.61A3.08,3.08,0,0,1,178,143c-4.19-1.67-8.34-3.4-12.54-5a38.21,38.21,0,0,0-4.55-1.27,2.36,2.36,0,0,0-.87,0c0,.11,0,.18-.07.29.61.43,1.23.87,1.88,1.3,2.06,1.3,4.19,2.49,6.22,3.87s4.12,3,6.14,4.62a7.42,7.42,0,0,1,1.44,1.74,10.59,10.59,0,0,0,1.12,1.55c1.27,1,2.64,1.88,4,2.78.47.33,1.12.58,1,1.2-.29,1.48.69,2.09,1.66,2.74,1.27.8,2.57,1.56,3.83,2.35.47.29.84.65,1.41,1.09-.61.54-1.12.94-1.59,1.33a7.23,7.23,0,0,0,3.65,3.15c1,.5,2,.9,3,1.37.43.22.94.4,1.12.94-1,.62-1.16,1.16-.58,2.06a4.07,4.07,0,0,0,1.41,1.3c1.59.83,3.22,1.52,4.88,2.28.36.18.72.32,1.23.54-.54.54-1,1-1.45,1.48a5.89,5.89,0,0,0,1,1.12,33.1,33.1,0,0,0,10,4.38c-.5.5-.86.9-1.26,1.26-.65.69-.69.87-.18,1.66a3.87,3.87,0,0,0,2.42,1.59c2,.47,4,.87,6,1.3l.73.26a4.91,4.91,0,0,1-.36.61c-.91,1.23-.87,1.81.25,2.82a4.23,4.23,0,0,0,1.48.94,26.29,26.29,0,0,0,3.18,1.05c.94.29,1.92.43,2.89.68.65.15,1.09.44.94,1.23a1.74,1.74,0,0,0,1.16,2.06,25.74,25.74,0,0,0,3.25,1.2c1.45.43,3,.75,4.45,1.15a1.6,1.6,0,0,1,1.41,1.56,1.94,1.94,0,0,0,1.66,1.88c.4.1.83.21,1.23.28,2.63.44,5.24.84,7.87,1.31,1.34.21,2.72.43,3.29,2,.08.22.44.4.69.51a14.93,14.93,0,0,0,1.73.54c7.67,2.17,15.26,4.52,22.74,7.23.29.11.54.29.83.4a3.57,3.57,0,0,1-1.45.21c-3.79-.11-7.62-.21-11.42-.29-.72,0-1.44.11-2.17.15s-1.51.29-1.51,1.34a2.33,2.33,0,0,1-.73,0,14,14,0,0,0-5.2-.36,33.23,33.23,0,0,0-3.33.36c-.43.07-.79.22-.79.83,0,1.12-.07,1.19-1.16,1.3-.47,0-.94,0-1.41,0-1.8.25-3.61.47-5.42.79a4.84,4.84,0,0,0-1.3.62c.29.76.47,1.33.69,1.88-.22.14-.26.21-.33.25l-.65.11a19,19,0,0,0-5.56,1.88,3,3,0,0,0-1.2,1.12c-.14.29.15.79.26,1.37-.58.36-1.16.76-1.77,1.12s-1.45.76-2.17,1.19a2.28,2.28,0,0,0-1.23,1.67,3.06,3.06,0,0,1-1.34,2c-3.29,2.61-6.58,5.17-9.86,7.81-1.16.94-2.32,1.92-3.44,2.89a7.83,7.83,0,0,0-.9,1.27,1.3,1.3,0,0,0,.18.25,15.62,15.62,0,0,0,1.81-.51c3.21-1.15,6.39-2.38,9.65-3.47a25.79,25.79,0,0,1,5.81-1.41,22.13,22.13,0,0,0,7.74-2.2c.36-.18.76-.36,1.26-.58.22.54.36,1,.55,1.37.32.76.61.91,1.4.66a9,9,0,0,0,1.41-.58c.91-.51,1.81-1,2.71-1.48a2.17,2.17,0,0,1,2.43,0,2.28,2.28,0,0,0,2.2.14c1-.4,1.92-.83,2.86-1.23a30.15,30.15,0,0,1,3.18-1.37,3.27,3.27,0,0,1,1.95-.11,3.41,3.41,0,0,0,2.74-.15c1.49-.68,2.93-1.4,4.38-2.13.83-.36,1.62-.76,2.45-1.08.51-.18,1-.29,1.41.22.62.83,1.3.68,2,.28.5-.25,1-.47,1.52-.72,4.08-2.24,8.16-4.52,12.25-6.76,1-.57,2-1.08,3.1-1.69a3.93,3.93,0,0,1,.76,2.63,93.24,93.24,0,0,1-.36,14.28h2.13c.33-4.09.51-8.21.8-12.29a34.9,34.9,0,0,1,.47-4.34c.22-1.3.69-1.62,2-1.8a11.58,11.58,0,0,1,5.45.36l3.65,1.19c5.5,1.77,10.95,3.62,16.48,5.31a38.12,38.12,0,0,0,11.21,2,10.81,10.81,0,0,1,4.59,1.08,12.1,12.1,0,0,0,2.45.8,2.49,2.49,0,0,0,2.42-.44,2.08,2.08,0,0,1,2-.5c1,.21,2.06.5,3.11.68a20.89,20.89,0,0,0,3.68.44c1.12,0,1.45-.36,1.48-1.48a.93.93,0,0,1,1-1.05c.72-.07,1.44-.11,2.16-.15,1.67,0,3.33-.11,5-.14a3.7,3.7,0,0,0,2.46-1,3.65,3.65,0,0,1,2.35-.91c.76-.07,1.52-.07,2.27-.18a4.53,4.53,0,0,0,1.74-.5,6.25,6.25,0,0,1,4-1.05c2.39,0,4.77,0,7.19,0,2.86,0,5.71-.11,8.6-.18a6.82,6.82,0,0,0,.91-.18c-.26-.25-.36-.4-.51-.47-.36-.25-.72-.47-1.08-.69a55.1,55.1,0,0,0-9.8-4.15c-.61-.22-1.26-.25-1.88-.43a12.68,12.68,0,0,1-1.44-.69,9.15,9.15,0,0,0-2-1c-2.13-.47-4.3-.8-6.43-1.16-.47-.07-.87-.22-.9-.72s-.43-.8-.94-.83c-1.16,0-2.31-.08-3.47-.15-1.7-.11-1.55.07-2-1.52,0-.07-.11-.14-.18-.25-1,0-2.1,0-3.15,0s-2.17.21-3.32.21c.11-.9.22-1.59.32-2.42a36.24,36.24,0,0,0-7.22,1.3c-.15-1.62-.22-1.73-1.74-1.55s-3,.58-4.52.87c-.39.07-.79.14-1.22.25-.19-.69-.29-1.19-.47-1.84A58.38,58.38,0,0,0,328,210.9c-.07-.73-.1-1.31-.18-2-3.36.5-6.61.87-9.57,2.38-.65-1.19-.65-1.19-1.92-1-.76.14-1.52.29-2.24.47-3.5.94-7.05,1.88-10.55,2.78a3.89,3.89,0,0,1-2,.14c.58-.36.9-.61,1.27-.79,2.67-1.19,5.34-2.46,8.09-3.61,5.17-2.17,10.37-4.23,15.5-6.44a11.13,11.13,0,0,0,3.33-1.88,19.18,19.18,0,0,1,5.42-3.1c1.41-.58,2.78-1.12,4.16-1.74a1.61,1.61,0,0,0,1-.76,3.4,3.4,0,0,1,2-1.66c1-.36,2.06-.62,3.07-.9,1.62-.44,3.25-.76,4.84-1.31a8.48,8.48,0,0,0,2-1.26c.4-.33.37-.72,0-1.16s-.58-.79-.94-1.3a13.56,13.56,0,0,1,1.37-.83c1.2-.5,2.43-.9,3.62-1.37,1.55-.62,3.11-1.19,4.62-1.88a6.57,6.57,0,0,0,1.7-1.16c.51-.47.44-.79-.07-1.26l-.94-.83a2.94,2.94,0,0,1,1.88-1c1.73-.57,3.5-1.08,5.24-1.73a6.51,6.51,0,0,0,2.06-1.48c.76-.72.65-1.48-.07-2.24-.33-.33-.65-.65-1.09-1.05a32,32,0,0,0,7.52-3.33,8.82,8.82,0,0,0,1.48-1c.65-.58.65-.94.15-1.66-.22-.33-.47-.65-.76-1.12,1.15-.47,2.17-.8,3.11-1.27a23.77,23.77,0,0,0,3.75-2.2c1-.72.87-1.19,0-2a3.83,3.83,0,0,1-.44-.51,11.7,11.7,0,0,1,1.2-.9c1.12-.65,2.27-1.2,3.39-1.85a14.55,14.55,0,0,0,2.14-1.44c.83-.72.79-1.09.07-1.92a8.61,8.61,0,0,1-.51-.72c.65-.32,1.19-.69,1.74-1,1.23-.61,2.45-1.19,3.65-1.87a13.6,13.6,0,0,0,1.55-1.2c-.61-.58-1.08-1-1.7-1.62.54-.33.94-.62,1.38-.87a22.93,22.93,0,0,0,4.69-3.54,3.41,3.41,0,0,0,.87-1.09,8.58,8.58,0,0,1,2.35-3c2.31-2.13,4.7-4.23,7.08-6.33,1-.9,2.1-1.77,3.15-2.63C415.79,129.58,416.15,129.29,415.83,128.64ZM304.34,165.79c.65,1.34.51,5.39-.18,6.69-.4-.11-.8-.18-1.34-.29-.14.58-.29,1.12-.43,1.77-.36-.22-.69-.43-1.16-.76A29.51,29.51,0,0,1,304.34,165.79Zm-5.71,20.1a31.41,31.41,0,0,1,1.26-3.07c.29-.66.69-1.23,1-1.85a12.1,12.1,0,0,1-1.92,7.16A2.09,2.09,0,0,1,298.63,185.89Z"/><path class="cls-1" d="M301.24,173.2a27.89,27.89,0,0,1,3.11-7.39c.63,1.33.48,5.36-.19,6.66l-1.34-.29-.45,1.8Z"/><path class="cls-1" d="M300.91,181a12,12,0,0,1-1.91,7.16,2.06,2.06,0,0,1-.36-2.23,29.27,29.27,0,0,1,1.26-3.08C300.19,182.18,300.57,181.58,300.91,181Z"/><path class="cls-2" d="M278.13,122.86q10.32,0,16.95,6.82a47.06,47.06,0,0,1,10.32,16.95,95.21,95.21,0,0,1,5,22.48,173.26,173.26,0,0,1,.92,23.4,138.88,138.88,0,0,1-1.85,19.34c-1,5.53-2,9-2.94,10.5a11.2,11.2,0,0,1-5.53,3.32,31.64,31.64,0,0,1-7.74,1.29,39.22,39.22,0,0,1-7.74-.37c-2.46-.37-4.05-.92-4.79-1.66-1.47-1-2.52-3.55-3.13-7.73a100.47,100.47,0,0,1-.92-14.56q0-8.29.18-17.5t-.18-16.95a67.94,67.94,0,0,0-1.66-12.9q-1.29-5.16-4.24-5.16-4.41,0-9.76,5.35a85.13,85.13,0,0,0-10.69,13.44Q245,177,239.81,186.61t-9.4,18.06q-4.23,8.47-7.18,14.55c-2,4.06-3.32,6.45-4.06,7.19a15.37,15.37,0,0,1-6.81,3.13,25.63,25.63,0,0,1-8.66.37,24.84,24.84,0,0,1-8.11-2.4,8.86,8.86,0,0,1-4.79-5.16c-1-1.47-1.54-3.74-1.66-6.81s-.06-7.12.19-12.16.49-11.11.74-18.24.24-15.48,0-25.06c-1.73-.49-2.83-2.15-3.32-5A59.12,59.12,0,0,1,186,145a48.27,48.27,0,0,1,1.11-11.42,26.91,26.91,0,0,1,1.1-4.79q1.11-1.47,5-2.95a52.82,52.82,0,0,1,8.47-2.39,38.25,38.25,0,0,1,9-.74c3,.13,5,.68,6.26,1.66,1,.49,1.85,2.52,2.58,6.08A100.41,100.41,0,0,1,221.2,143q.56,7.19.92,15.1t.37,13.82a123.37,123.37,0,0,1,7.92-13.82,102,102,0,0,1,12.9-16,94.28,94.28,0,0,1,16.4-13.45A33.44,33.44,0,0,1,278.13,122.86Z"/><path class="cls-2" d="M376.53,278a5.24,5.24,0,0,1,3.51,1.47,19,19,0,0,1,2.94,3.32,28.39,28.39,0,0,1,2,3.31,6.71,6.71,0,0,1,.74,1.84c-.5,1.24-2.77,3.38-6.82,6.45a116.59,116.59,0,0,1-15.85,9.77,136.13,136.13,0,0,1-21.74,9,79.17,79.17,0,0,1-24.5,3.86,141.84,141.84,0,0,1-31.51-3.31,76.76,76.76,0,0,1-25.24-10.32,46.86,46.86,0,0,1-16.21-17.5q-5.52-10.5-4.42-24.51A37.24,37.24,0,0,1,247,241.72a59.77,59.77,0,0,1,16-14.19,86.2,86.2,0,0,1,20.82-9.21,122.68,122.68,0,0,1,21.56-4.42,13.46,13.46,0,0,0,3.31-.37,29.34,29.34,0,0,0,3.14-.18,26.61,26.61,0,0,1,2.76-.19q19.89,0,31.87,4.32t12.72,10.7a11.11,11.11,0,0,1-3,8.57,25.27,25.27,0,0,1-7.93,5.89A23.48,23.48,0,0,1,339,245a12,12,0,0,1-8.11-2.4c-1.23-.74-1.84-1.53-1.84-2.39v-2.77a8.36,8.36,0,0,0-.37-2.58c-.25-.73-1.23-1.34-2.95-1.84q-15.84,0-27.08,4.95t-17.69,12.27A30.74,30.74,0,0,0,273.17,266a22.91,22.91,0,0,0,3.14,15.76q4.41,7.33,14.92,12.27T319.05,299a62.77,62.77,0,0,0,20.64-3.32,133.74,133.74,0,0,0,17.13-7.18q7.55-3.87,12.71-7.19T376.53,278Z"/><path class="cls-3" d="M245.54,406.88c-.31.11-.64.24-1,.38-2.47,1.07-4.94,2.17-7.41,3.19A34.18,34.18,0,0,1,233,412a8.83,8.83,0,0,0-3.27,1.48,6.94,6.94,0,0,1-.77.55l-.41-1.07c-.33.11-.63.17-.88.28a17.79,17.79,0,0,0-4.31,2.63c-.3.28-.58.64-1.18.53-.06-.33-.14-.66-.19-1s-.33-.55-.72-.42a3.66,3.66,0,0,0-.52.28,25.48,25.48,0,0,0-5.3,4.12c-.14.11-.31.19-.47.3-.6-.52-.6-1.43-1.43-1.81a30.48,30.48,0,0,0-6.48,6.4c-1-.58-.77-1.89-1.68-2.58a4.57,4.57,0,0,0-.88.71c-1.21,1.43-2.42,2.89-3.6,4.37a10.93,10.93,0,0,0-.71,1c-.55-.79-.55-1.73-1.35-2.3a19.41,19.41,0,0,0-4.56,5.93l-1.76-1.48c-1.65,2.36-3.21,4.56-4.83,6.87-.2-.28-.33-.47-.44-.64-.58-.88-.75-.88-1.46-.13a4.55,4.55,0,0,0-.74.9c-.66,1-1.29,2-1.93,3-.21.39-.49.74-.76,1.18-.42-.35-.72-.63-1.08-1-.57.77-1.1,1.51-1.62,2.26s-1.07,1.4-1.51,2.14-.85,1.56-1.29,2.39c-.38-.3-.63-.52-1-.83-.33.33-.69.64-1,1a37.71,37.71,0,0,0-4.84,7.44c-.11.22-.24.41-.41.69l-.88-.72c-.27.28-.55.5-.77.75-.35.46-.71.93-1,1.43a68.83,68.83,0,0,1-10,11.43l-.58.46-.16-.13c.27-.5.52-1,.82-1.49a121.62,121.62,0,0,1,7.53-10.44,44.07,44.07,0,0,0,3-4,17.42,17.42,0,0,1,3.46-3.95l2.53-2.31a8.73,8.73,0,0,0,1.21-2.06l-1.13-.44c.36-.39.61-.66.85-.94,1-1,2-2,2.94-3a29,29,0,0,0,2.09-2.45,1.11,1.11,0,0,0,.33-1.15l-1-.41a7.08,7.08,0,0,1,.74-1c.52-.52,1.1-1,1.62-1.54.88-.85,1.76-1.73,2.64-2.61a3.31,3.31,0,0,0,.85-1.65l-1-.68c.3-.36.49-.69.77-1,.52-.55,1.1-1.1,1.64-1.64a37.37,37.37,0,0,0,2.89-3c.88-1.1.8-1,0-2.09a6.28,6.28,0,0,1,.74-.93c.86-.8,1.76-1.54,2.56-2.39a10.79,10.79,0,0,0,1.24-1.84.54.54,0,0,0-.36-.85c-.41-.17-.83-.3-1.4-.5.41-.35.74-.6,1-.88.88-.85,1.79-1.7,2.64-2.61a3.53,3.53,0,0,0,.66-1.26c.19-.5,0-.69-.52-.8-.25-.05-.47-.11-.86-.22.42-.44.72-.79,1.05-1.12.77-.8,1.59-1.62,2.36-2.45a7,7,0,0,0,.88-1.29.7.7,0,0,0-.47-1.07c-.35-.14-.71-.22-1.21-.39,1.93-2.08,4-3.9,5.28-6.48-.82-.28-1.59-.52-2.53-.83.36-.38.61-.63.85-.87.91-1,1.85-2,2.7-3A9.09,9.09,0,0,0,204.9,389c.41-.85.19-1.18-.74-1.29-1.6-.16-1.71-.44-.77-1.76a25.59,25.59,0,0,0,2.8-5.11,5.4,5.4,0,0,0,.36-1.21c.08-.63-.17-.9-.8-1-.38,0-.77,0-1.32,0,.33-.66.55-1.1.77-1.56.61-1.41,1.26-2.81,1.84-4.21a5.11,5.11,0,0,0,.28-1.43c0-.44-.22-.63-.69-.55s-.69.06-1.18.11c.19-.46.33-.77.44-1,.49-1.07,1-2.14,1.43-3.22a8.87,8.87,0,0,0,.35-1.48c-.41-.16-.71-.27-1.07-.38.17-.42.33-.77.5-1.13.24-.63.57-1.24.77-1.87a2.46,2.46,0,0,0,.08-1.43,2.65,2.65,0,0,1-.14-1.89A76.62,76.62,0,0,1,211,347.31c.49-1.35.9-2.72,1.32-4.1a5.2,5.2,0,0,0,.16-1l-.22-.08a21.89,21.89,0,0,0-2.44,3.82c-.42.82-.77,1.65-1.21,2.45-1.18,2-2.39,3.95-3.57,6-.61,1-1.19,2.14-1.74,3.24-.13.33-.3.52-.65.44a1.05,1.05,0,0,0-1.21.74c-.31.85-.58,1.73-.83,2.58-.16.58-.3.66-.79.42l-.66-.36a11.4,11.4,0,0,0-1.68,4.94c-.63-.33-1.15-.57-1.7-.85-1,1.49-.83,3.3-1.43,4.92-.5-.3-.91-.58-1.4-.88a9,9,0,0,0-.86,1.32,9.48,9.48,0,0,0-.9,3.46,10.06,10.06,0,0,1-.19,1.29c-.83-.44-1.49-.82-2.23-1.23-.19.44-.38.77-.49,1.12a19.87,19.87,0,0,0-1,5.06c0,.44.09.93-.41,1.32-.58-.33-1.18-.69-1.87-1.1a10.54,10.54,0,0,0-.44,1.62c-.22,1.43-.41,2.83-.6,4.26-.11.93-.5,1.13-1.29.6-.28-.19-.55-.41-.91-.68a15.86,15.86,0,0,0-1.18,6.65c-.74-.39-1.32-.72-1.87-1a1.76,1.76,0,0,0-.8,1.37c-.35,1.87-.68,3.76-1,5.66a5.14,5.14,0,0,1-.3,1.46c-.83-.63-1.57-1.16-2.37-1.76-1,2.94-1,5.88-1.32,8.85l-2.28-1.05c-.13.74-.24,1.35-.35,1.95-.25,1.73-.47,3.46-.75,5.2a5.92,5.92,0,0,1-.38,1.09c-.41-.13-.66-.24-.93-.33-.64-.19-.8-.11-1,.53a2,2,0,0,0-.14.57c-.11,1.3-.25,2.59-.36,3.88-.08,1.1-.14,2.17-.25,3.35-.63-.33-1.18-.58-1.81-.88-.11.41-.19.69-.25,1-.13,1.46-.27,2.91-.41,4.37-.08,1-.08,1.95-.14,2.94a1,1,0,0,1-.52,1c-.38.16-.55-.19-.79-.41-.64-.52-1-.41-1.13.38-.08.61-.08,1.24-.11,1.84a1.56,1.56,0,0,1-.52,1.27c-.2-.55-.33-1-.5-1.46-.52,0-1,.08-1.7.14.16-.41.27-.72.41-1,.44-1,.94-2,1.37-3a16.35,16.35,0,0,0,.8-2.39c.25-1.1,0-1.32-1.1-1.24-.05,0-.11-.05-.27-.14.11-.33.25-.68.38-1,.72-1.65,1.43-3.27,2.12-4.92a2.75,2.75,0,0,0,.25-1.9c-.53-.05-1.05-.13-1.63-.19.11-.41.22-.71.33-1,.36-.88.75-1.74,1.05-2.64.44-1.27.79-2.53,1.15-3.82a1.26,1.26,0,0,0-.22-1.37l-2,.13c.22-.49.36-.82.5-1.12.68-1.63,1.4-3.25,2-4.87a7.83,7.83,0,0,0,.36-1.73c0-.82-.25-1-1.08-.85-.38.11-.76.22-1.42.38,1.23-2.88,2.74-5.44,2.61-8.49-.88,0-1.57.75-2.56.33.22-.46.39-.9.61-1.31a21,21,0,0,0,2.14-5.75,3.76,3.76,0,0,0,0-2.39c-.63.09-1.26.14-2.06.22.25-.63.44-1.1.58-1.59.49-1.54,1-3.08,1.43-4.64.24-.88,0-1.05-.86-1-.35,0-.68.08-1,.11a5.08,5.08,0,0,1-.69,0c.36-1.32.72-2.59,1-3.85a10.59,10.59,0,0,0,.27-3.93c-.88,0-1.54.63-2.45.41.77-2.53,1.63-5,1.35-7.66-.85-.11-1.57.41-2.39.11.93-2.5.82-5.06,1-7.67-.65.06-1.23.14-1.86.19,0-.27,0-.44.08-.57a14.91,14.91,0,0,0,.3-4.56c0-.5-.11-.91-.74-.88-.44,0-.55-.31-.61-.64a4.17,4.17,0,0,1,0-.79c0-1,.08-2.06.11-3.11a8.91,8.91,0,0,0-.09-1.15l-1.12-.14c0-.52,0-1,0-1.48a8.26,8.26,0,0,0-.17-2.5,15.42,15.42,0,0,1-.68-3.52,113.67,113.67,0,0,1-.64-11.81c0-1.19-.11-2.4-.22-3.6a3.65,3.65,0,0,0-.19-.94.87.87,0,0,0-.3.55c-.58,4.23-1.15,8.46-1.76,12.67-.27,1.84-.66,3.65-1,5.47a29.74,29.74,0,0,0-.52,3.16c-.11,1.34-.05,1.34-1.43,1.37,0,.38-.05.74-.05,1.13,0,.65.05,1.29,0,1.95,0,.22-.16.6-.3.63-.71.11-.74.69-.8,1.18-.08.82-.05,1.68-.08,2.53,0,.49-.13,1-.19,1.48-1.37.11-1.54.25-1.65,1.51a8.25,8.25,0,0,0,.33,3.46c.06.25.11.5.19.83-.88.19-1.64-.25-2.55-.19a63.72,63.72,0,0,0,.69,8.16H142.8a15,15,0,0,0,1.1,6.81c-.14.08-.19.11-.27.11s-.44,0-.66-.05c-1.27-.11-1.71.27-1.43,1.48s.66,2.25,1,3.35c.08.33.16.66.3,1.16l-1.1-.14c-.33,0-.63,0-1,0-.22,2.42.93,4.45,1.76,6.7l-2.61-.41a18.61,18.61,0,0,0,.74,4.7c.44,1.51,1,3,1.45,4.53-1,.3-1.92-.27-2.94-.11a66.66,66.66,0,0,0,2.5,8.16c-.13.11-.19.17-.27.17-.3,0-.63,0-1,0-.8,0-.94.11-.77.91a34.23,34.23,0,0,0,2.17,6.45c.11.25.19.5.3.8-.88.22-1.68-.11-2.5.33a15.15,15.15,0,0,0,.36,1.59c.71,2,1.45,4,2.2,5.94.11.33.19.66.33,1.12l-1.24.14c-.88.08-1,.25-.83,1.1a30.08,30.08,0,0,0,2.42,7.12,10.93,10.93,0,0,1,.44,1.1c-.49.05-.85.08-1.21.13-.55.09-.66.22-.55.77a8.9,8.9,0,0,0,.39,1.62c.8,2.12,1.62,4.26,2.42,6.38.13.33.22.63.33,1h-1.68a2.78,2.78,0,0,0,.11.63c.91,2.53,1.79,5,2.75,7.53.16.44.27.74-.11,1.12a1.17,1.17,0,0,0-.28,1.19c.28,1.26.5,2.55.8,3.82.6,2.55,1.37,5.08,1.9,7.66a50.63,50.63,0,0,1,.52,5.06c-.19-.09-.28-.09-.3-.11s-.22-.33-.31-.5a80.14,80.14,0,0,1-4.94-12.83c-.58-2.09-1.16-4.2-1.73-6.29-.17-.55-.42-1.07-.64-1.65l-.85.39a2.48,2.48,0,0,1-.63-1.46c-.36-1.62-.66-3.24-1-4.86-.31-1.35-.69-2.67-1.05-4.13-.71.5-1.32.94-1.92,1.38-.52-2-.93-3.88-1.48-5.77s-1.13-3.77-1.87-5.74c-.74.49-1.35.9-2.06,1.4a37.62,37.62,0,0,0-2.64-10.22c-.5.35-.88.63-1.4,1-.19-.66-.33-1.12-.44-1.62-.33-1.45-.66-2.91-1-4.37a7.84,7.84,0,0,0-.55-1.37c-.8.11-1,1-1.87,1a11.18,11.18,0,0,1-.24-1.32,23.3,23.3,0,0,0-.88-5.09,7,7,0,0,0-.42-1.07l-2.19,1.57c-.17-.55-.28-1-.42-1.35-.6-2-1.2-4-1.81-6a6.14,6.14,0,0,0-.52-1,2.59,2.59,0,0,0-.52.31c-1.32.9-1.57.82-1.9-.8-.19-.83-.36-1.65-.6-2.47a1.48,1.48,0,0,0-.91-1.16l-1.84,1.49a19.52,19.52,0,0,0-1.51-7.12c-1,.05-1.38,1.07-2.2,1.29-1.26-5-2.12-7.2-3.13-8-.52.41-1,.85-1.65,1.37-.11-.44-.17-.79-.25-1.12a12.06,12.06,0,0,0-1.51-3.88c-.38-.6-.6-.63-1.13-.33-.88.53-1.07.47-1.51-.46-.16-.36-.27-.75-.41-1.1-.33-.91-.66-1.84-1.07-2.72a9.68,9.68,0,0,0-.83-1.35c-.46.61-.85,1.07-1.2,1.54-.14-.11-.22-.14-.25-.19s-.08-.36-.14-.55a15.58,15.58,0,0,0-2.11-4.59c-.25-.36-.64-.83-1-.85a1.67,1.67,0,0,1-1.4-1.18,29.8,29.8,0,0,0-3.25-5c-1.59-2.11-3-4.34-4.5-6.48-1-1.51-2.12-3-3.22-4.45-.19-.25-.44-.47-.66-.72a1.33,1.33,0,0,1-.19.14c2.28,5.39,5.06,10.61,6.27,16.4-.25.09-.42.14-.69.22a15.32,15.32,0,0,0,.41,1.71c.38,1,.85,2.06,1.24,3.07a10.09,10.09,0,0,1,.33,1.16l-.42.14c-.71.24-.85.41-.66,1.09a3.06,3.06,0,0,0,.33.83c.75,1.18,1.49,2.36,2.26,3.54.16.28.41.53.71.94a11.67,11.67,0,0,0-1.32.08c-.49.08-.66.38-.49.85a3.45,3.45,0,0,0,.38.77c.74,1,1.49,1.9,2.26,2.83.19.28.41.52.71.91-.66.33-1.18.57-1.7.82a2.53,2.53,0,0,0,.66,1.57c.88,1.18,1.78,2.33,2.66,3.51.19.28.36.55.61.94a9.51,9.51,0,0,0-1.52.47c-.52.16-.63.41-.35.88a6.25,6.25,0,0,0,.88,1.15c1.07,1.13,2.2,2.22,3.29,3.35.2.19.36.41.55.63-.85.47-1.92.17-2.52,1.18a12,12,0,0,0,1.18,1.52c1.54,1.62,3.13,3.21,4.7,4.83.24.22.46.5.71.74-.93.55-2,.47-2.78,1.32a10.23,10.23,0,0,0,.88,1c1.41,1.13,2.86,2.26,4.29,3.38.25.2.52.39.88.66l-1,.55c-1.07.63-1.13.94-.25,1.84a24.24,24.24,0,0,0,4.78,3.88c.33.19.77.33.88,1l-2,.71a2.76,2.76,0,0,0,1,1.71c1.1,1,2.25,1.87,3.38,2.8.36.33.69.66,1.15,1.1-.77.36-1.37.66-2.11,1a10.37,10.37,0,0,0,1.07,1.4c1.21,1.1,2.47,2.11,3.74,3.16.41.35.9.63,1.31,1s.47.85-.22,1.15c-.24.11-.52.19-.93.33a9,9,0,0,0,.6.91,15.24,15.24,0,0,0,1.54,1.37c1.27,1,2.59,1.87,3.88,2.8.27.19.55.41.77.58,0,.16,0,.22-.06.22a.79.79,0,0,1-.19.22c-.63.55-.71.8-.22,1.46a6.74,6.74,0,0,0,1.13,1.2c1.7,1.35,3.43,2.7,5.13,4,.31.22.58.44,1,.74-.44.17-.72.25-1.08.39a5.67,5.67,0,0,0,.53,1,19.5,19.5,0,0,0,2.06,2.2c1,.88,2,1.62,3,2.44a7.08,7.08,0,0,1,2.12,2.53,4.27,4.27,0,0,0,.85,1.18c.82.88,1.67,1.74,2.52,2.59,1.68,1.62,3.41,3.21,5.06,4.89a28.4,28.4,0,0,1,4.59,5.8c.49.85,1,1.67,1.48,2.52.11.17.19.36.3.52a4.64,4.64,0,0,1-1.45-.82,57.66,57.66,0,0,1-8.19-8c-1-1.18-2-2.36-3-3.54-.25-.28-.58-.5-.91-.8-.33.44-.63.8-1,1.18-.68-1-1.26-1.95-1.89-2.85s-1.27-1.74-1.95-2.56a14.22,14.22,0,0,0-2.2-2.47c-.22.3-.39.49-.55.71s-.33.41-.5.66c-3-4.37-4.12-5.82-5.13-6.51-.69.36-.58,1.26-1.16,1.81a34.12,34.12,0,0,0-5.63-6.87c-.47.64-.85,1.16-1.29,1.73a31.59,31.59,0,0,0-5.28-5.57c-.49.71-.9,1.29-1.34,1.89a30.24,30.24,0,0,0-5.75-6.4c-.38.85-.71,1.54-1.1,2.34A43.06,43.06,0,0,0,91,426.08c-.38.94-.69,1.71-1,2.61a35.8,35.8,0,0,0-5.91-5.11c-.3.58-.61,1.1-.91,1.65-2.86-2.75-3.87-3.54-4.92-3.87-.22.38-.44.79-.71,1.32-1.81-1.16-3.35-2.61-5.36-3.3-.14.38-.27.69-.44,1.07l-.93-.44c-1-.49-2-1-3.05-1.51a3.91,3.91,0,0,0-2.06-.47,2.23,2.23,0,0,1-.94-.22c-3.18-1.26-6.34-2.58-9.53-3.79a29,29,0,0,0-3.46-1,1.65,1.65,0,0,0-.66,0c0,.08,0,.13-.06.22l1.43,1c1.57,1,3.19,1.89,4.73,2.93s3.13,2.31,4.67,3.52a5.68,5.68,0,0,1,1.1,1.32,7,7,0,0,0,.85,1.18c1,.74,2,1.43,3,2.12.36.25.85.44.77.9-.22,1.13.52,1.6,1.26,2.09,1,.61,2,1.18,2.92,1.79.35.22.63.49,1.07.82-.47.42-.85.72-1.21,1a5.47,5.47,0,0,0,2.77,2.39c.77.38,1.54.69,2.31,1,.33.17.72.31.85.72-.74.47-.87.88-.43,1.56a2.89,2.89,0,0,0,1.07,1c1.21.64,2.44,1.16,3.71,1.73.27.14.55.25.93.42-.41.41-.74.74-1.1,1.12a5.54,5.54,0,0,0,.74.86,25.2,25.2,0,0,0,7.59,3.32c-.39.38-.66.69-1,1-.49.52-.52.66-.13,1.27a3,3,0,0,0,1.84,1.2c1.51.36,3.05.66,4.59,1l.55.2a3,3,0,0,1-.28.46c-.69.94-.66,1.38.19,2.15a3.37,3.37,0,0,0,1.13.71,19,19,0,0,0,2.42.8c.71.22,1.45.33,2.2.52.49.11.82.33.71.93a1.34,1.34,0,0,0,.88,1.57,19.19,19.19,0,0,0,2.47.91c1.1.33,2.26.57,3.38.88a1.2,1.2,0,0,1,1.07,1.18,1.49,1.49,0,0,0,1.27,1.43c.3.08.63.16.93.22,2,.33,4,.63,6,1,1,.17,2.06.33,2.5,1.52.06.16.33.3.52.38a11.12,11.12,0,0,0,1.32.41c5.83,1.65,11.6,3.44,17.29,5.5.21.08.41.22.63.3a2.7,2.7,0,0,1-1.1.16c-2.89-.08-5.8-.16-8.68-.21-.55,0-1.1.08-1.65.1s-1.16.22-1.16,1a1.57,1.57,0,0,1-.55,0,10.74,10.74,0,0,0-4-.27c-.85,0-1.71.16-2.53.27-.33.06-.61.17-.61.64,0,.85,0,.9-.87,1-.36,0-.72,0-1.08,0-1.37.2-2.74.36-4.12.61a3.69,3.69,0,0,0-1,.46c.22.58.36,1,.53,1.43a2.43,2.43,0,0,0-.25.2l-.5.08a14.29,14.29,0,0,0-4.23,1.43,2.23,2.23,0,0,0-.9.85c-.11.22.11.6.19,1-.44.28-.88.58-1.35.85s-1.1.58-1.65.91a1.74,1.74,0,0,0-.93,1.26,2.37,2.37,0,0,1-1,1.52c-2.5,2-5,3.92-7.5,5.93-.88.72-1.76,1.46-2.61,2.2a6.17,6.17,0,0,0-.69,1,.85.85,0,0,0,.14.19,12.17,12.17,0,0,0,1.38-.38c2.44-.88,4.86-1.82,7.33-2.64a19.61,19.61,0,0,1,4.43-1.07,16.76,16.76,0,0,0,5.88-1.68l1-.44c.16.42.27.75.41,1.05.25.57.47.68,1.07.49a6,6,0,0,0,1.07-.44c.69-.38,1.38-.77,2.06-1.12a1.65,1.65,0,0,1,1.84,0,1.77,1.77,0,0,0,1.68.11c.74-.31,1.46-.64,2.17-.94a22.6,22.6,0,0,1,2.42-1,2.52,2.52,0,0,1,1.48-.09,2.56,2.56,0,0,0,2.09-.11c1.13-.52,2.23-1.07,3.32-1.62.64-.27,1.24-.57,1.87-.82.39-.14.8-.22,1.07.16.47.64,1,.53,1.54.22.39-.19.8-.35,1.16-.55l9.31-5.13c.77-.44,1.54-.83,2.36-1.29a3.05,3.05,0,0,1,.58,2,71.42,71.42,0,0,1-.27,10.85h1.62c.24-3.1.38-6.23.6-9.34a27.58,27.58,0,0,1,.36-3.29c.16-1,.52-1.24,1.51-1.38A8.85,8.85,0,0,1,158,476l2.77.9c4.18,1.35,8.33,2.75,12.53,4a29.05,29.05,0,0,0,8.52,1.54,8.16,8.16,0,0,1,3.49.82,9.28,9.28,0,0,0,1.87.61,1.9,1.9,0,0,0,1.84-.33,1.59,1.59,0,0,1,1.54-.39c.8.17,1.56.39,2.36.53a16.83,16.83,0,0,0,2.8.33c.86,0,1.1-.28,1.13-1.13,0-.58.3-.77.77-.8s1.1-.08,1.65-.11c1.26,0,2.53-.08,3.79-.11a2.74,2.74,0,0,0,1.87-.77,2.72,2.72,0,0,1,1.78-.68c.58-.06,1.16-.06,1.74-.14a3.4,3.4,0,0,0,1.31-.38,4.77,4.77,0,0,1,3.05-.8c1.82,0,3.63,0,5.47,0,2.17,0,4.34-.08,6.54-.14a5.63,5.63,0,0,0,.69-.13,1.6,1.6,0,0,0-.39-.36c-.27-.19-.55-.36-.82-.52a40.65,40.65,0,0,0-7.45-3.16c-.46-.17-1-.2-1.43-.33a8.39,8.39,0,0,1-1.09-.52,7.39,7.39,0,0,0-1.54-.77c-1.62-.36-3.27-.61-4.89-.88-.36-.06-.66-.17-.69-.55s-.33-.61-.72-.63c-.87,0-1.75-.06-2.63-.11-1.29-.09-1.18.05-1.49-1.16a2.22,2.22,0,0,0-.13-.19c-.8,0-1.6,0-2.39,0s-1.65.16-2.53.16c.08-.69.16-1.21.24-1.84a28.29,28.29,0,0,0-5.49,1c-.11-1.24-.17-1.32-1.32-1.18s-2.31.44-3.43.66c-.31,0-.61.11-.94.19-.14-.52-.22-.91-.36-1.4a45,45,0,0,0-7.25,2.14c-.05-.55-.08-1-.14-1.51-2.55.39-5,.66-7.28,1.81-.49-.9-.49-.9-1.45-.74-.58.11-1.16.22-1.71.36-2.66.71-5.35,1.43-8,2.12a3,3,0,0,1-1.51.11c.44-.28.69-.47,1-.61,2-.91,4.07-1.87,6.16-2.75,3.92-1.65,7.88-3.21,11.78-4.89a8.09,8.09,0,0,0,2.53-1.43,14.77,14.77,0,0,1,4.12-2.36c1.07-.44,2.12-.85,3.16-1.32a1.22,1.22,0,0,0,.74-.58,2.62,2.62,0,0,1,1.54-1.26c.77-.27,1.57-.47,2.34-.69,1.23-.33,2.47-.57,3.68-1a6.46,6.46,0,0,0,1.54-1c.3-.24.27-.55,0-.88s-.44-.6-.72-1c.41-.24.72-.49,1-.63.91-.38,1.85-.68,2.75-1,1.18-.47,2.37-.91,3.52-1.43a4.92,4.92,0,0,0,1.29-.88c.39-.36.33-.6-.05-1l-.72-.63a2.18,2.18,0,0,1,1.43-.77c1.32-.44,2.67-.83,4-1.32a4.84,4.84,0,0,0,1.57-1.13c.58-.55.49-1.12-.05-1.7-.25-.25-.5-.5-.83-.8a24,24,0,0,0,5.72-2.53,6.77,6.77,0,0,0,1.12-.77c.5-.43.5-.71.11-1.26-.16-.25-.35-.49-.57-.85.87-.36,1.64-.61,2.36-1a19,19,0,0,0,2.86-1.68c.74-.55.66-.91,0-1.54a2.39,2.39,0,0,1-.33-.38,8.41,8.41,0,0,1,.91-.69c.85-.49,1.73-.91,2.58-1.4a11.52,11.52,0,0,0,1.62-1.1c.63-.55.6-.82,0-1.46a6.37,6.37,0,0,1-.38-.54c.49-.25.91-.53,1.32-.75.93-.46,1.87-.9,2.77-1.43a9,9,0,0,0,1.18-.9c-.46-.44-.82-.8-1.29-1.24.42-.25.72-.47,1.05-.66a17.15,17.15,0,0,0,3.57-2.69,2.65,2.65,0,0,0,.66-.82,6.37,6.37,0,0,1,1.78-2.31c1.76-1.62,3.58-3.22,5.39-4.81.77-.69,1.59-1.35,2.39-2C245.51,407.59,245.78,407.37,245.54,406.88Zm-84.77,28.24a8.55,8.55,0,0,1-.14,5.08c-.3-.08-.6-.13-1-.21-.11.43-.22.85-.33,1.34-.28-.16-.52-.33-.88-.58A22.72,22.72,0,0,1,160.77,435.12Zm-4.34,15.28c.28-.8.61-1.57,1-2.34.22-.49.52-.93.77-1.4a9.19,9.19,0,0,1-1.45,5.44A1.59,1.59,0,0,1,156.43,450.4Z"/><path class="cls-3" d="M158.41,440.75a21.19,21.19,0,0,1,2.37-5.62,8.93,8.93,0,0,1-.14,5.07l-1-.22-.34,1.36Z"/><path class="cls-3" d="M158.16,446.65a9.08,9.08,0,0,1-1.45,5.45,1.59,1.59,0,0,1-.27-1.7,24.91,24.91,0,0,1,.95-2.34C157.62,447.58,157.9,447.12,158.16,446.65Z"/><path class="cls-4" d="M139.29,404.15a16.85,16.85,0,0,1,12.61,5.08,34.82,34.82,0,0,1,7.68,12.61,70.81,70.81,0,0,1,3.71,16.73A127.63,127.63,0,0,1,164,456a102.48,102.48,0,0,1-1.37,14.4c-.73,4.11-1.47,6.72-2.19,7.82a8.39,8.39,0,0,1-4.12,2.47,24.09,24.09,0,0,1-5.76.95,29.38,29.38,0,0,1-5.76-.27,6.72,6.72,0,0,1-3.56-1.23q-1.65-1.1-2.33-5.76a74.92,74.92,0,0,1-.69-10.84q0-6.16.14-13t-.14-12.62a50.12,50.12,0,0,0-1.23-9.6q-1-3.84-3.16-3.84c-2.19,0-4.62,1.33-7.26,4a63.27,63.27,0,0,0-8,10q-4,6-7.82,13.16t-7,13.44q-3.15,6.31-5.35,10.84a27.45,27.45,0,0,1-3,5.34,11.35,11.35,0,0,1-5.08,2.33,19,19,0,0,1-6.44.28,18.77,18.77,0,0,1-6-1.78,6.62,6.62,0,0,1-3.56-3.84,10,10,0,0,1-1.24-5.08c-.09-2.28,0-5.3.14-9.05s.36-8.27.55-13.57.18-11.52,0-18.65c-1.28-.37-2.11-1.6-2.47-3.71a44.17,44.17,0,0,1-.55-7.54,36.51,36.51,0,0,1,.82-8.5,19.86,19.86,0,0,1,.83-3.57,8.6,8.6,0,0,1,3.7-2.19,38.76,38.76,0,0,1,6.31-1.78A28.07,28.07,0,0,1,89.1,404a8.17,8.17,0,0,1,4.66,1.23q1.09.56,1.92,4.53a74,74,0,0,1,1.23,9.32q.42,5.36.69,11.25t.27,10.28a91.3,91.3,0,0,1,5.9-10.28,75.85,75.85,0,0,1,9.6-11.93,71.07,71.07,0,0,1,12.2-10A25,25,0,0,1,139.29,404.15Z"/><path class="cls-4" d="M213.38,521.08a3.91,3.91,0,0,1,2.6,1.09,14.35,14.35,0,0,1,2.2,2.47,21.18,21.18,0,0,1,1.51,2.47,4.87,4.87,0,0,1,.54,1.37q-.54,1.38-5.07,4.8a87.56,87.56,0,0,1-11.79,7.27,101.47,101.47,0,0,1-16.18,6.72A59,59,0,0,1,169,550.15a105.13,105.13,0,0,1-23.45-2.47A56.81,56.81,0,0,1,126.71,540a34.76,34.76,0,0,1-12.07-13q-4.11-7.82-3.29-18.23A27.74,27.74,0,0,1,117,494.06,44.62,44.62,0,0,1,128.9,483.5a64,64,0,0,1,15.5-6.85,89.75,89.75,0,0,1,16-3.29,9.81,9.81,0,0,0,2.47-.28,19.23,19.23,0,0,0,2.33-.14,19.48,19.48,0,0,1,2.06-.13q14.8,0,23.73,3.21t9.46,8a8.24,8.24,0,0,1-2.2,6.38,18.77,18.77,0,0,1-5.89,4.39,17.55,17.55,0,0,1-7,1.78,8.87,8.87,0,0,1-6-1.78c-.92-.55-1.37-1.14-1.37-1.79v-2a6.17,6.17,0,0,0-.28-1.92c-.18-.55-.91-1-2.19-1.37q-11.79,0-20.16,3.68a36.87,36.87,0,0,0-13.16,9.14,22.67,22.67,0,0,0-5.76,11.72,17,17,0,0,0,2.33,11.73q3.28,5.46,11.1,9.14t20.71,3.68A46.54,46.54,0,0,0,186,534.24a98.88,98.88,0,0,0,12.76-5.35q5.61-2.88,9.46-5.34T213.38,521.08Z"/><path class="cls-5" d="M530.3,408.28l-.93.37c-2.39,1-4.78,2.1-7.16,3.08a32.37,32.37,0,0,1-4,1.46,8.47,8.47,0,0,0-3.16,1.43,7.9,7.9,0,0,1-.74.53c-.16-.4-.26-.69-.4-1-.31.1-.61.16-.85.26a17.29,17.29,0,0,0-4.16,2.55c-.29.26-.56.61-1.14.5,0-.32-.13-.64-.18-.95a.46.46,0,0,0-.69-.4,3.48,3.48,0,0,0-.51.26,25,25,0,0,0-5.12,4,3.88,3.88,0,0,1-.45.29c-.58-.5-.58-1.38-1.38-1.75A29.53,29.53,0,0,0,493.2,425c-1-.55-.75-1.83-1.62-2.49a4.28,4.28,0,0,0-.85.69c-1.17,1.38-2.33,2.78-3.47,4.22a8.79,8.79,0,0,0-.69.92c-.53-.77-.53-1.67-1.3-2.22a19,19,0,0,0-4.41,5.72c-.61-.5-1.11-.92-1.69-1.43-1.59,2.28-3.11,4.4-4.67,6.63-.19-.26-.32-.45-.42-.61-.56-.85-.72-.85-1.41-.13a4.56,4.56,0,0,0-.72.87c-.63,1-1.24,2-1.85,3-.21.37-.48.71-.75,1.14l-1-.93c-.56.74-1.06,1.46-1.56,2.17a25.15,25.15,0,0,0-1.46,2.07c-.45.72-.82,1.51-1.25,2.31-.37-.29-.61-.5-.95-.8-.32.32-.67.61-.93.93a36.63,36.63,0,0,0-4.67,7.19c-.11.21-.24.4-.4.66-.29-.24-.53-.42-.85-.69-.26.27-.53.48-.74.72-.34.45-.69.9-1,1.38a65.37,65.37,0,0,1-9.65,11c-.18.16-.37.29-.56.45l-.15-.13c.26-.48.5-1,.79-1.43a115.44,115.44,0,0,1,7.27-10.08,42.78,42.78,0,0,0,2.94-3.9,17.18,17.18,0,0,1,3.34-3.82l2.44-2.23a8.27,8.27,0,0,0,1.17-2l-1.09-.43c.35-.37.58-.64.82-.9,1-1,1.94-1.91,2.84-2.92a28.54,28.54,0,0,0,2-2.36c.24-.32.5-.66.31-1.11l-.92-.4a7.11,7.11,0,0,1,.71-1c.51-.51,1.06-1,1.57-1.49.85-.82,1.69-1.67,2.54-2.52a3.17,3.17,0,0,0,.83-1.59l-1-.66a11.63,11.63,0,0,1,.74-.93c.5-.53,1.06-1.06,1.59-1.59a36.45,36.45,0,0,0,2.79-2.92c.84-1.06.76-.95,0-2a5,5,0,0,1,.72-.91c.82-.77,1.69-1.48,2.46-2.3a9.53,9.53,0,0,0,1.19-1.78.52.52,0,0,0-.34-.82c-.4-.16-.8-.29-1.35-.48.4-.34.71-.58,1-.85.84-.82,1.72-1.64,2.54-2.52a3.47,3.47,0,0,0,.64-1.22c.18-.47,0-.66-.51-.77-.24-.05-.45-.1-.82-.21.4-.42.69-.77,1-1.09.74-.76,1.54-1.56,2.28-2.36a6.79,6.79,0,0,0,.85-1.24.68.68,0,0,0-.45-1c-.35-.13-.69-.21-1.17-.37,1.86-2,3.85-3.76,5.09-6.26l-2.44-.79.82-.85c.88-1,1.78-1.88,2.6-2.86a8.35,8.35,0,0,0,1.14-1.73c.4-.82.19-1.14-.71-1.25-1.54-.15-1.65-.42-.74-1.69a25.36,25.36,0,0,0,2.7-4.93,5.21,5.21,0,0,0,.35-1.17c.07-.61-.16-.88-.77-.93-.38,0-.75,0-1.28,0l.75-1.51c.58-1.35,1.22-2.71,1.77-4.06a4.76,4.76,0,0,0,.27-1.38c0-.42-.21-.61-.67-.53s-.66,0-1.14.11c.19-.45.32-.74.43-1,.48-1,1-2.07,1.38-3.1a8.75,8.75,0,0,0,.34-1.43c-.4-.16-.69-.27-1-.38.16-.39.32-.74.48-1.08.23-.61.55-1.2.74-1.81a2.29,2.29,0,0,0,.08-1.38,2.54,2.54,0,0,1-.13-1.83A73.1,73.1,0,0,1,497,350.79c.48-1.3.88-2.63,1.27-4a5,5,0,0,0,.16-.93l-.21-.08a21,21,0,0,0-2.36,3.69c-.4.79-.74,1.59-1.17,2.36-1.14,1.93-2.3,3.81-3.44,5.75-.59,1-1.14,2.07-1.67,3.13-.14.32-.3.5-.64.42a1,1,0,0,0-1.17.72c-.29.82-.55,1.67-.79,2.49-.16.56-.29.64-.77.4-.19-.11-.37-.21-.64-.34a11.06,11.06,0,0,0-1.62,4.77c-.61-.32-1.11-.56-1.64-.82-1,1.43-.8,3.18-1.38,4.74l-1.35-.84a8.25,8.25,0,0,0-.82,1.27,9,9,0,0,0-.88,3.34,11.33,11.33,0,0,1-.18,1.25c-.8-.43-1.44-.8-2.15-1.2-.19.43-.37.75-.48,1.09a19.32,19.32,0,0,0-.93,4.88c0,.42.08.9-.4,1.27-.55-.32-1.14-.66-1.8-1.06a9.54,9.54,0,0,0-.42,1.57c-.22,1.38-.4,2.73-.59,4.11-.1.9-.47,1.08-1.24.58-.27-.19-.53-.4-.88-.66a15.23,15.23,0,0,0-1.14,6.41l-1.8-.95a1.65,1.65,0,0,0-.77,1.33c-.35,1.8-.66,3.63-1,5.46a5,5,0,0,1-.29,1.4c-.8-.61-1.52-1.11-2.28-1.69-.93,2.83-.93,5.67-1.28,8.54-.74-.35-1.4-.64-2.2-1-.13.71-.24,1.3-.34,1.88-.24,1.67-.45,3.34-.72,5a6.1,6.1,0,0,1-.37,1.06l-.9-.31c-.61-.19-.77-.11-1,.5a2.27,2.27,0,0,0-.13.56c-.11,1.24-.24,2.49-.34,3.74-.08,1.06-.14,2.09-.24,3.23-.61-.32-1.14-.56-1.75-.85-.11.4-.19.67-.24.93-.13,1.41-.27,2.81-.4,4.22-.08.95-.08,1.88-.13,2.84a1,1,0,0,1-.51.95c-.37.16-.53-.19-.77-.4-.61-.5-1-.4-1.08.37-.08.59-.08,1.2-.11,1.78a1.51,1.51,0,0,1-.5,1.22c-.19-.53-.32-.95-.48-1.41-.5,0-1,.08-1.64.14.15-.4.26-.69.39-1,.43-1,.91-1.93,1.33-2.91a18.4,18.4,0,0,0,.77-2.31c.24-1.06,0-1.27-1.06-1.2-.06,0-.11-.05-.27-.13.11-.32.24-.66.37-1,.69-1.59,1.38-3.15,2.05-4.74a2.68,2.68,0,0,0,.23-1.83l-1.56-.19c.11-.4.21-.69.32-1,.34-.85.71-1.67,1-2.54.42-1.22.76-2.44,1.11-3.69a1.24,1.24,0,0,0-.21-1.33c-.59.06-1.17.08-1.89.14.22-.48.35-.8.48-1.09.66-1.57,1.35-3.13,2-4.7a6.8,6.8,0,0,0,.35-1.67c.05-.79-.24-1-1-.82-.37.11-.74.21-1.37.37,1.19-2.78,2.65-5.25,2.52-8.19-.85,0-1.52.71-2.47.32.21-.45.37-.88.58-1.28a19.84,19.84,0,0,0,2.07-5.54,3.59,3.59,0,0,0,0-2.31c-.61.08-1.22.14-2,.22.23-.61.42-1.06.55-1.54.48-1.49,1-3,1.38-4.48.24-.85.05-1-.82-1-.35,0-.66.07-1,.1a4.64,4.64,0,0,1-.66,0c.34-1.28.69-2.5.93-3.71a10.12,10.12,0,0,0,.26-3.8c-.85,0-1.48.61-2.36.4.74-2.44,1.57-4.85,1.3-7.4-.82-.1-1.51.4-2.31.11.91-2.42.8-4.88,1-7.4-.63.05-1.19.13-1.8.18.05-.26.05-.42.08-.55a14.48,14.48,0,0,0,.29-4.4c0-.48-.11-.88-.72-.85-.42,0-.53-.29-.58-.61a4,4,0,0,1,0-.77c0-1,.08-2,.11-3a6.91,6.91,0,0,0-.08-1.11c-.4-.06-.69-.08-1.09-.13,0-.51,0-1,0-1.44a7.68,7.68,0,0,0-.16-2.41,15.29,15.29,0,0,1-.66-3.39,111.52,111.52,0,0,1-.61-11.41c0-1.14-.11-2.31-.21-3.47a3.35,3.35,0,0,0-.19-.9.84.84,0,0,0-.29.53c-.56,4.08-1.11,8.16-1.7,12.22-.26,1.78-.63,3.53-.95,5.28a28.1,28.1,0,0,0-.5,3.05c-.11,1.3-.06,1.3-1.38,1.32,0,.38-.06.72-.06,1.09,0,.64.06,1.25,0,1.89,0,.21-.16.58-.29.61-.69.1-.72.66-.77,1.14-.08.79-.05,1.61-.08,2.44,0,.47-.13,1-.19,1.43-1.32.1-1.48.24-1.59,1.46a8,8,0,0,0,.32,3.34c.05.24.11.47.19.79-.85.19-1.59-.24-2.47-.18a62.66,62.66,0,0,0,.66,7.87h-2.49a14.52,14.52,0,0,0,1.06,6.58c-.13.08-.18.11-.26.11a4.48,4.48,0,0,1-.64-.06c-1.22-.1-1.64.27-1.38,1.44s.64,2.17,1,3.23c.08.32.15.64.29,1.11l-1.06-.13c-.32,0-.61,0-1,0-.21,2.34.9,4.3,1.7,6.47-.93-.16-1.7-.26-2.52-.4a18.25,18.25,0,0,0,.71,4.54c.43,1.46.93,2.89,1.41,4.38-1,.29-1.86-.27-2.84-.11a63.17,63.17,0,0,0,2.41,7.88c-.13.1-.18.15-.26.15l-.93,0c-.77,0-.9.1-.74.87a32.6,32.6,0,0,0,2.09,6.23c.11.24.19.48.29.77-.84.22-1.61-.1-2.41.32.11.51.19,1,.35,1.54q1,2.87,2.12,5.73c.1.32.18.63.32,1.09-.48.05-.85.08-1.2.13-.85.08-1,.24-.79,1.06a28.42,28.42,0,0,0,2.33,6.87c.16.32.27.66.43,1.06-.48.05-.83.08-1.17.13-.53.08-.64.21-.53.74a7.79,7.79,0,0,0,.37,1.57l2.33,6.15a9,9,0,0,1,.32,1h-1.62a3.38,3.38,0,0,0,.11.61c.87,2.43,1.72,4.85,2.65,7.26.16.43.27.72-.1,1.09a1.1,1.1,0,0,0-.27,1.14c.27,1.22.48,2.47.77,3.69.58,2.46,1.33,4.9,1.83,7.39a47.39,47.39,0,0,1,.5,4.88c-.18-.08-.26-.08-.29-.1s-.21-.32-.29-.48a76.45,76.45,0,0,1-4.77-12.38c-.56-2-1.12-4.06-1.67-6.08-.16-.53-.4-1-.61-1.59l-.83.37a2.32,2.32,0,0,1-.61-1.4c-.34-1.57-.63-3.13-1-4.7-.3-1.3-.67-2.57-1-4-.69.47-1.28.9-1.86,1.32-.5-1.91-.9-3.74-1.43-5.57s-1.09-3.63-1.8-5.54l-2,1.35a36.54,36.54,0,0,0-2.55-9.86l-1.35,1c-.19-.64-.32-1.09-.43-1.57-.31-1.4-.63-2.81-1-4.21a6.71,6.71,0,0,0-.53-1.33c-.77.11-.95,1-1.8,1a12.78,12.78,0,0,1-.24-1.27,21.68,21.68,0,0,0-.85-4.91,6.44,6.44,0,0,0-.4-1l-2.12,1.51c-.16-.53-.26-.93-.39-1.3-.59-1.91-1.17-3.84-1.76-5.75a4.78,4.78,0,0,0-.5-1,2.05,2.05,0,0,0-.5.29c-1.28.87-1.51.79-1.83-.77-.19-.8-.35-1.59-.59-2.39a1.4,1.4,0,0,0-.87-1.11l-1.78,1.43a18.66,18.66,0,0,0-1.46-6.87c-1,.05-1.32,1-2.12,1.25-1.22-4.86-2-6.95-3-7.77-.51.4-1,.82-1.59,1.32-.11-.42-.16-.77-.24-1.08a11.76,11.76,0,0,0-1.46-3.74c-.37-.59-.58-.61-1.09-.32-.85.5-1,.45-1.46-.45-.15-.35-.26-.72-.39-1.06-.32-.88-.64-1.78-1-2.63a9.83,9.83,0,0,0-.79-1.3c-.45.59-.83,1-1.17,1.49-.13-.11-.21-.13-.24-.19s-.08-.34-.13-.53a15,15,0,0,0-2-4.43c-.24-.34-.61-.79-1-.82a1.6,1.6,0,0,1-1.35-1.14,28.67,28.67,0,0,0-3.13-4.8c-1.54-2-2.89-4.19-4.35-6.26-1-1.46-2-2.86-3.1-4.29-.19-.24-.43-.45-.64-.69-.05.05-.13.08-.18.13,2.2,5.2,4.88,10.24,6,15.83l-.66.21a12.46,12.46,0,0,0,.4,1.65c.37,1,.82,2,1.19,3a9.27,9.27,0,0,1,.32,1.11,2.17,2.17,0,0,1-.4.13c-.69.24-.82.4-.63,1.06a2.34,2.34,0,0,0,.31.8c.72,1.14,1.44,2.28,2.18,3.42.16.27.4.51.69.9-.53,0-.9,0-1.28.08s-.63.37-.47.82a3.08,3.08,0,0,0,.37.75c.71.93,1.43,1.83,2.17,2.73.19.26.4.5.69.87-.63.32-1.14.56-1.64.8a2.45,2.45,0,0,0,.63,1.51c.85,1.14,1.73,2.25,2.58,3.4.18.26.34.53.58.9a10.65,10.65,0,0,0-1.46.45c-.5.16-.61.4-.34.85a6.16,6.16,0,0,0,.85,1.11c1,1.09,2.12,2.15,3.18,3.24.18.18.34.39.53.61-.82.45-1.86.15-2.44,1.14a11.75,11.75,0,0,0,1.14,1.45c1.48,1.57,3,3.11,4.53,4.67.24.21.45.48.69.72-.9.53-2,.45-2.68,1.27.3.32.54.66.85.93,1.36,1.09,2.76,2.17,4.14,3.26l.85.64c-.4.21-.69.37-1,.53-1,.61-1.08.9-.23,1.77a22.88,22.88,0,0,0,4.61,3.74c.32.19.74.32.85.93l-1.88.69a2.67,2.67,0,0,0,1,1.65c1.06.92,2.17,1.8,3.26,2.7l1.11,1.06-2,1a9.64,9.64,0,0,0,1,1.35c1.16,1.07,2.38,2.05,3.6,3.05.4.35.88.61,1.27,1s.46.82-.21,1.11a8.62,8.62,0,0,1-.9.32,7.91,7.91,0,0,0,.58.88,15.45,15.45,0,0,0,1.49,1.32c1.22.93,2.49,1.81,3.74,2.71.26.18.53.39.74.55,0,.16,0,.22-.05.22a.77.77,0,0,1-.19.21c-.61.53-.69.77-.21,1.4a6,6,0,0,0,1.09,1.17c1.64,1.3,3.31,2.6,5,3.9.29.21.55.42.92.71-.42.16-.68.24-1,.38a5.21,5.21,0,0,0,.5.92,19.14,19.14,0,0,0,2,2.13c.93.84,2,1.56,2.92,2.36a6.68,6.68,0,0,1,2,2.44,4.78,4.78,0,0,0,.82,1.14c.8.84,1.62,1.67,2.44,2.49,1.62,1.56,3.29,3.1,4.88,4.72a27.33,27.33,0,0,1,4.43,5.6c.48.82,1,1.61,1.43,2.43.11.16.19.35.3.51a4.59,4.59,0,0,1-1.41-.8,55.21,55.21,0,0,1-7.9-7.69c-1-1.14-2-2.28-2.95-3.42-.23-.26-.55-.48-.87-.77-.32.43-.61.77-.93,1.14-.66-1-1.22-1.88-1.83-2.76s-1.22-1.67-1.88-2.46a14,14,0,0,0-2.12-2.39l-.53.69c-.16.21-.32.4-.48.64-2.89-4.22-4-5.62-5-6.29-.66.35-.56,1.22-1.11,1.75A33.71,33.71,0,0,0,402,439.2c-.45.61-.82,1.12-1.25,1.67a30.78,30.78,0,0,0-5.09-5.38c-.48.69-.87,1.25-1.3,1.83a29.14,29.14,0,0,0-5.54-6.18c-.37.82-.69,1.49-1.06,2.26a41.78,41.78,0,0,0-6.58-6.58c-.37.9-.66,1.64-1,2.52a33.32,33.32,0,0,0-5.7-4.93c-.29.55-.58,1.06-.87,1.59-2.76-2.66-3.74-3.42-4.75-3.74-.21.37-.42.77-.69,1.27-1.75-1.11-3.23-2.52-5.17-3.18-.13.37-.27.66-.42,1l-.91-.42c-1-.48-2-1-2.94-1.46a3.74,3.74,0,0,0-2-.45,2.16,2.16,0,0,1-.9-.21c-3.08-1.22-6.13-2.5-9.2-3.66a27,27,0,0,0-3.34-.93,1.75,1.75,0,0,0-.64,0,1.29,1.29,0,0,0-.05.21c.45.32.9.63,1.38.95,1.51,1,3.07,1.83,4.56,2.84s3,2.23,4.51,3.39a5.78,5.78,0,0,1,1.06,1.28,6.9,6.9,0,0,0,.82,1.14c.93.71,1.93,1.38,2.92,2,.34.24.82.42.74.87-.21,1.09.5,1.54,1.22,2,.93.58,1.88,1.14,2.81,1.72.34.22.61.48,1,.8-.45.4-.82.69-1.16,1a5.27,5.27,0,0,0,2.67,2.31c.75.37,1.49.66,2.23,1,.32.15.69.29.82.68-.71.46-.84.85-.42,1.52a3.1,3.1,0,0,0,1,.95c1.17.61,2.36,1.11,3.58,1.67.27.13.53.24.91.4-.4.4-.72.72-1.06,1.09a4.6,4.6,0,0,0,.71.82,24.4,24.4,0,0,0,7.32,3.21c-.37.37-.64.66-.93.93-.48.5-.5.63-.13,1.22a2.84,2.84,0,0,0,1.78,1.16c1.45.35,2.94.64,4.43,1l.53.18a2.48,2.48,0,0,1-.27.45c-.66.91-.64,1.33.19,2.07a3.11,3.11,0,0,0,1.08.69,17.79,17.79,0,0,0,2.34.77c.69.21,1.4.32,2.12.5.48.11.79.32.69.91a1.28,1.28,0,0,0,.85,1.51,19.29,19.29,0,0,0,2.38.87c1.06.32,2.18.56,3.27.85a1.17,1.17,0,0,1,1,1.14,1.42,1.42,0,0,0,1.22,1.38c.29.08.61.16.9.21,1.94.32,3.85.61,5.78,1,1,.16,2,.32,2.42,1.46.05.16.31.29.5.37a12.4,12.4,0,0,0,1.27.4c5.62,1.59,11.19,3.31,16.68,5.3.21.08.4.21.61.29a2.49,2.49,0,0,1-1.06.16c-2.78-.08-5.59-.16-8.38-.21-.53,0-1.06.08-1.59.1s-1.11.22-1.11,1a1.69,1.69,0,0,1-.53,0,10.27,10.27,0,0,0-3.82-.27,24.27,24.27,0,0,0-2.44.27c-.32.05-.59.16-.59.61,0,.82-.05.87-.84.95-.35,0-.69,0-1,0-1.32.19-2.65.34-4,.58a3.74,3.74,0,0,0-.95.45c.21.56.34,1,.5,1.38-.16.11-.18.16-.24.19l-.47.08a13.82,13.82,0,0,0-4.09,1.38,2.08,2.08,0,0,0-.87.82c-.11.21.1.58.18,1-.42.26-.84.55-1.3.82s-1.06.56-1.59.87a1.68,1.68,0,0,0-.9,1.22,2.23,2.23,0,0,1-1,1.46c-2.41,1.91-4.83,3.8-7.24,5.73-.85.69-1.7,1.41-2.52,2.12a6.23,6.23,0,0,0-.66.93.92.92,0,0,0,.13.19c.45-.11.9-.22,1.33-.37,2.36-.85,4.69-1.76,7.08-2.55a18.22,18.22,0,0,1,4.27-1A16.42,16.42,0,0,0,401,487c.27-.14.56-.27.93-.43.16.4.27.72.4,1,.24.56.45.66,1,.48a6.47,6.47,0,0,0,1-.43c.66-.37,1.32-.74,2-1.08a1.59,1.59,0,0,1,1.77,0,1.7,1.7,0,0,0,1.62.1c.72-.29,1.41-.61,2.09-.9s1.52-.74,2.34-1a2.43,2.43,0,0,1,1.43-.08,2.52,2.52,0,0,0,2-.1c1.08-.51,2.14-1,3.2-1.57.61-.26,1.2-.55,1.81-.79.37-.14.77-.21,1,.16.45.61,1,.5,1.49.21.37-.19.77-.35,1.11-.53,3-1.65,6-3.32,9-5,.74-.43,1.49-.8,2.28-1.25a3,3,0,0,1,.56,1.94,69,69,0,0,1-.27,10.47h1.57c.24-3,.37-6,.58-9a24.31,24.31,0,0,1,.35-3.19c.16-.95.5-1.19,1.45-1.32a8.65,8.65,0,0,1,4,.26l2.68.88c4,1.3,8,2.65,12.09,3.9a28,28,0,0,0,8.22,1.48,7.76,7.76,0,0,1,3.37.8,9,9,0,0,0,1.8.58,1.81,1.81,0,0,0,1.78-.32,1.55,1.55,0,0,1,1.48-.37c.77.16,1.52.37,2.29.51a15.52,15.52,0,0,0,2.7.31c.82,0,1.06-.26,1.09-1.08a.67.67,0,0,1,.74-.77c.53-.06,1.06-.08,1.59-.11,1.22,0,2.44-.08,3.66-.1a2.69,2.69,0,0,0,1.8-.75,2.73,2.73,0,0,1,1.73-.66c.55-.05,1.11-.05,1.67-.13a3.37,3.37,0,0,0,1.27-.37,4.58,4.58,0,0,1,2.95-.77c1.75,0,3.5,0,5.27,0,2.1,0,4.19-.08,6.31-.13a5.1,5.1,0,0,0,.67-.13,2.05,2.05,0,0,0-.37-.35c-.27-.18-.53-.34-.8-.5a39.5,39.5,0,0,0-7.19-3.05c-.45-.16-.92-.19-1.38-.32a8.53,8.53,0,0,1-1.06-.5,7.11,7.11,0,0,0-1.48-.75c-1.57-.34-3.16-.58-4.72-.85-.35-.05-.64-.16-.66-.53s-.32-.58-.69-.61c-.85,0-1.7,0-2.55-.1-1.25-.08-1.14.05-1.43-1.12,0-.05-.08-.1-.13-.18-.77,0-1.54,0-2.31,0s-1.59.16-2.44.16c.08-.66.16-1.16.24-1.77a26.47,26.47,0,0,0-5.31.95c-.1-1.19-.16-1.27-1.27-1.14s-2.23.43-3.31.64c-.3.05-.59.1-.91.18-.13-.5-.21-.87-.34-1.35a42.9,42.9,0,0,0-7,2.07c-.06-.53-.08-1-.13-1.46a22.27,22.27,0,0,0-7,1.75c-.48-.87-.48-.87-1.41-.71-.55.1-1.11.21-1.64.34-2.57.69-5.17,1.38-7.75,2a2.75,2.75,0,0,1-1.45.11c.42-.27.66-.45.92-.59,2-.87,3.93-1.8,5.94-2.65,3.8-1.59,7.62-3.1,11.38-4.72a8,8,0,0,0,2.44-1.38,14.37,14.37,0,0,1,4-2.28c1-.42,2-.82,3.05-1.27a1.16,1.16,0,0,0,.71-.56,2.52,2.52,0,0,1,1.49-1.22c.74-.26,1.51-.45,2.25-.66,1.2-.32,2.39-.56,3.56-.95a6.66,6.66,0,0,0,1.48-.93c.29-.24.27-.53,0-.85s-.43-.59-.69-1c.4-.23.69-.47,1-.61.87-.37,1.77-.66,2.65-1,1.14-.45,2.28-.88,3.39-1.38a5.31,5.31,0,0,0,1.25-.85c.37-.35.32-.58-.05-.93l-.69-.61a2.07,2.07,0,0,1,1.38-.74c1.27-.43,2.57-.8,3.84-1.28a4.46,4.46,0,0,0,1.51-1.08c.56-.53.48-1.09-.05-1.65l-.8-.77a22.75,22.75,0,0,0,5.52-2.44,7.49,7.49,0,0,0,1.09-.74c.47-.42.47-.69.1-1.22-.16-.24-.34-.48-.55-.82.85-.34,1.59-.58,2.28-.93A18.14,18.14,0,0,0,507.6,433c.71-.53.63-.87,0-1.48a2.82,2.82,0,0,1-.32-.37,7.91,7.91,0,0,1,.88-.67c.82-.47,1.67-.87,2.49-1.35a10.18,10.18,0,0,0,1.56-1.06c.61-.53.59-.79.06-1.4-.11-.14-.22-.3-.38-.53.48-.24.88-.51,1.28-.72.9-.45,1.8-.88,2.68-1.38a12.39,12.39,0,0,0,1.14-.87l-1.25-1.2c.4-.24.69-.45,1-.63a17.25,17.25,0,0,0,3.45-2.6,2.62,2.62,0,0,0,.63-.8,6.25,6.25,0,0,1,1.73-2.23c1.69-1.56,3.44-3.1,5.19-4.64.75-.66,1.54-1.3,2.31-1.93C530.27,409,530.53,408.76,530.3,408.28Zm-81.82,27.26a8.31,8.31,0,0,1-.13,4.91c-.29-.08-.58-.13-1-.21-.11.42-.21.82-.32,1.3-.26-.16-.5-.32-.85-.56A22,22,0,0,1,448.48,435.54Zm-4.19,14.75c.27-.77.59-1.51.93-2.26.21-.47.51-.9.74-1.35a8.82,8.82,0,0,1-1.4,5.25A1.57,1.57,0,0,1,444.29,450.29Z"/><path class="cls-5" d="M446.21,441a20.39,20.39,0,0,1,2.28-5.43,8.57,8.57,0,0,1-.14,4.89l-1-.21-.33,1.32Z"/><path class="cls-5" d="M446,446.67a8.83,8.83,0,0,1-1.4,5.26,1.53,1.53,0,0,1-.27-1.64,23.25,23.25,0,0,1,.92-2.26C445.44,447.56,445.72,447.13,446,446.67Z"/><path d="M429.25,404a16.61,16.61,0,0,1,12.44,5,34.41,34.41,0,0,1,7.57,12.44,69.37,69.37,0,0,1,3.65,16.5,125.51,125.51,0,0,1,.68,17.17,102.81,102.81,0,0,1-1.35,14.19q-1.1,6.09-2.17,7.71a8.16,8.16,0,0,1-4.05,2.43,23.51,23.51,0,0,1-5.68.95,29.29,29.29,0,0,1-5.68-.27,6.68,6.68,0,0,1-3.51-1.22q-1.63-1.08-2.3-5.68a72.81,72.81,0,0,1-.68-10.68q0-6.07.14-12.84t-.14-12.44a49.6,49.6,0,0,0-1.22-9.46c-.63-2.52-1.66-3.79-3.11-3.79q-3.24,0-7.16,3.92a62.87,62.87,0,0,0-7.84,9.87q-3.93,6-7.71,13t-6.89,13.25q-3.12,6.23-5.28,10.68a26.58,26.58,0,0,1-3,5.27,11.1,11.1,0,0,1-5,2.3,18.81,18.81,0,0,1-6.36.27,18.06,18.06,0,0,1-5.95-1.76,6.53,6.53,0,0,1-3.51-3.78,9.9,9.9,0,0,1-1.22-5c-.09-2.26,0-5.23.14-8.93s.36-8.15.54-13.38.18-11.36,0-18.39c-1.27-.36-2.08-1.57-2.44-3.65a44.09,44.09,0,0,1-.54-7.43,35.67,35.67,0,0,1,.81-8.39,19.39,19.39,0,0,1,.82-3.51,8.43,8.43,0,0,1,3.65-2.16,38.66,38.66,0,0,1,6.22-1.76,27.79,27.79,0,0,1,6.62-.54,8.17,8.17,0,0,1,4.6,1.21c.71.37,1.35,1.85,1.89,4.47a73.66,73.66,0,0,1,1.22,9.19q.4,5.27.67,11.09t.27,10.13a88.62,88.62,0,0,1,5.82-10.13,74.76,74.76,0,0,1,9.46-11.77,70,70,0,0,1,12-9.87A24.6,24.6,0,0,1,429.25,404Z"/><path d="M501.46,517.89A3.83,3.83,0,0,1,504,519a14.35,14.35,0,0,1,2.16,2.44,19.81,19.81,0,0,1,1.49,2.43,4.85,4.85,0,0,1,.54,1.35c-.36.91-2,2.48-5,4.73a85.44,85.44,0,0,1-11.63,7.17,99.37,99.37,0,0,1-15.95,6.62,58,58,0,0,1-18,2.84,104.08,104.08,0,0,1-23.12-2.43A56,56,0,0,1,416,536.55a34.4,34.4,0,0,1-11.9-12.84q-4.06-7.71-3.25-18a27.25,27.25,0,0,1,5.55-14.46,43.52,43.52,0,0,1,11.76-10.41,63,63,0,0,1,15.28-6.76,89.88,89.88,0,0,1,15.81-3.25,10.12,10.12,0,0,0,2.44-.27,20.86,20.86,0,0,0,2.3-.13,19,19,0,0,1,2-.14q14.61,0,23.39,3.17t9.33,7.85a8.14,8.14,0,0,1-2.16,6.29,18.5,18.5,0,0,1-5.81,4.32,17.27,17.27,0,0,1-6.9,1.76,8.78,8.78,0,0,1-5.95-1.76c-.9-.54-1.35-1.12-1.35-1.75v-2a6,6,0,0,0-.27-1.89c-.18-.55-.9-1-2.16-1.36q-11.64,0-19.88,3.63a36.6,36.6,0,0,0-13,9,22.6,22.6,0,0,0-5.68,11.56,16.86,16.86,0,0,0,2.3,11.57q3.25,5.37,10.95,9t20.42,3.62a46,46,0,0,0,15.14-2.43A97.34,97.34,0,0,0,487,525.6q5.55-2.83,9.33-5.27T501.46,517.89Z"/></svg>