<svg id="Layer_1" data-name="Layer 1" xmlns="http://www.w3.org/2000/svg" viewBox="0 0 576 576"><defs><style>.cls-1{fill:#9abf4b;}.cls-2{fill:green;}.cls-3{fill:#fff;}</style></defs><title>Logos</title><rect class="cls-1" x="169.44" y="173.44" width="330.6" height="94.18" rx="12" ry="12"/><path class="cls-2" d="M85.9,105.2A12.48,12.48,0,0,1,95.25,109a26,26,0,0,1,5.7,9.35,52.69,52.69,0,0,1,2.74,12.41,94.25,94.25,0,0,1,.51,12.91,77.22,77.22,0,0,1-1,10.68q-.81,4.58-1.62,5.8a6.23,6.23,0,0,1-3,1.83,17.65,17.65,0,0,1-4.28.71,22.13,22.13,0,0,1-4.27-.2,5.08,5.08,0,0,1-2.64-.92c-.81-.54-1.39-2-1.73-4.27a55.6,55.6,0,0,1-.51-8q0-4.57.1-9.66t-.1-9.36a37.28,37.28,0,0,0-.91-7.12c-.48-1.89-1.26-2.84-2.34-2.84q-2.44,0-5.39,3a46.55,46.55,0,0,0-5.9,7.42q-3,4.47-5.8,9.76t-5.18,10q-2.34,4.68-4,8a20.55,20.55,0,0,1-2.23,4,8.5,8.5,0,0,1-3.77,1.72A14.33,14.33,0,0,1,40.34,163a4.94,4.94,0,0,1-2.65-2.85,7.52,7.52,0,0,1-.91-3.76c-.07-1.7,0-3.93.1-6.72s.27-6.13.41-10.06.13-8.54,0-13.83c-.95-.27-1.56-1.19-1.83-2.75a32.2,32.2,0,0,1-.41-5.59,26.61,26.61,0,0,1,.61-6.31,14.79,14.79,0,0,1,.61-2.64A6.48,6.48,0,0,1,39,106.82a29.54,29.54,0,0,1,4.67-1.32,21.34,21.34,0,0,1,5-.41,6,6,0,0,1,3.45.92c.54.27,1,1.39,1.43,3.36a56.18,56.18,0,0,1,.91,6.91c.21,2.64.38,5.43.51,8.34s.21,5.46.21,7.63a64.93,64.93,0,0,1,4.37-7.63,56.38,56.38,0,0,1,7.12-8.85,51.42,51.42,0,0,1,9-7.42A18.47,18.47,0,0,1,85.9,105.2Z"/><path class="cls-2" d="M159.72,117.6a25.26,25.26,0,0,0-10.47,2.34,39.14,39.14,0,0,0-9.36,5.9,43.82,43.82,0,0,0-7.12,7.63,20.15,20.15,0,0,0-3.66,7.62,7,7,0,0,0,1.12,5.9q1.83,2.34,6.92,2.34a25.5,25.5,0,0,0,10.47-2.54,68.86,68.86,0,0,0,11.19-6.51,130.74,130.74,0,0,0,10.88-8.64q5.28-4.68,9.46-8.85t6.91-7.12q2.74-2.94,3.36-3.56c.54-.41,1.93-.61,4.16-.61a35.58,35.58,0,0,1,6.92.71,20.35,20.35,0,0,1,6.2,2.24c1.76,1,2.58,2.27,2.44,3.76a72.08,72.08,0,0,0-.71,7.32q-.3,5.08-.2,10.38a62.53,62.53,0,0,0,.81,9.35c.48,2.72,1.25,4.07,2.34,4.07a2.19,2.19,0,0,0,1.63-.61,13.59,13.59,0,0,1,2.24-1.63,1.69,1.69,0,0,1,1.93,0,6.54,6.54,0,0,1,2,1.83,14.52,14.52,0,0,1,1.53,2.54c.4.89.67,1.53.81,1.94s-.07,1-.61,1.73a12.53,12.53,0,0,1-2.34,2.33,13,13,0,0,1-3.76,2,14.28,14.28,0,0,1-4.88.81q-9.57,0-14.24-4.37a22,22,0,0,1-6.3-9.66,31.12,31.12,0,0,1-1.43-14q-7.11,5.69-14,10.77-5.91,4.28-12.92,8.65a64.71,64.71,0,0,1-12.91,6.41,40.74,40.74,0,0,1-13.83,2.33A29.67,29.67,0,0,1,122.4,158a19.81,19.81,0,0,1-8.23-6.61A17.31,17.31,0,0,1,111.11,141q0-4.87,3.26-11.08a44,44,0,0,1,9.15-11.7A51.4,51.4,0,0,1,138,109a46.42,46.42,0,0,1,18.92-3.76q10.77,0,17.08,2.84t6.3,6.92a6.69,6.69,0,0,1-2.13,4.17,18.9,18.9,0,0,1-4.37,3.25,17.52,17.52,0,0,1-5,1.83,6.82,6.82,0,0,1-4-.1,1.91,1.91,0,0,1-1-1.73v-2.24a2.51,2.51,0,0,0-.71-1.83C162.6,117.84,161.48,117.6,159.72,117.6Z"/><path class="cls-2" d="M234.57,77.94q5.07-.19,10.17-.2,4.26,0,8.84.1t7.83.51c.95.14,1.83,1,2.65,2.44a12.11,12.11,0,0,1,1.42,4.88,8.43,8.43,0,0,1-.81,4.58q-1,1.94-3.66,1.52-4.27-.6-10.68-1.32t-13.63-1q-7.22-.3-14.84-.1a93.84,93.84,0,0,0-14.34,1.43,1.49,1.49,0,0,1-1.63-.72,13.91,13.91,0,0,1-1.12-2,6.84,6.84,0,0,1-.61-2.13,2.92,2.92,0,0,1,.1-1.43c.41-.81,2-1.63,4.78-2.44a76.91,76.91,0,0,1,9.15-2c3.33-.54,6.58-1,9.77-1.43A64,64,0,0,1,234.57,77.94Zm17.08,71.19a2.49,2.49,0,0,1,2.24-.61,7.08,7.08,0,0,1,2.74,1,12.58,12.58,0,0,1,2.24,1.73,2.51,2.51,0,0,1,.92,1.53,6.06,6.06,0,0,1-1.12,2.34,17.05,17.05,0,0,1-3.26,3.55,20.57,20.57,0,0,1-5.08,3.16,16,16,0,0,1-6.61,1.32,12.66,12.66,0,0,1-11.29-6.2,43.27,43.27,0,0,1-5.69-15.36,118.81,118.81,0,0,1-1.94-19.83q-.2-10.68-.2-19.83L225.82,46a8.92,8.92,0,0,1,3.76-.91,22,22,0,0,1,6,.2,18.49,18.49,0,0,1,5.29,1.63,3.08,3.08,0,0,1,2,3.15c-.14,1-.34,4.14-.62,9.56s-.5,11.93-.71,19.52-.27,15.66-.2,24.21.3,16.44.71,23.69a132.52,132.52,0,0,0,2,18q1.41,7.13,3.86,7.12a2.34,2.34,0,0,0,2.14-1.22A5.87,5.87,0,0,1,251.65,149.13Z"/><path class="cls-2" d="M333,161.53a5.62,5.62,0,0,1-2.54,1.53,19.86,19.86,0,0,1-4.38,1,27.64,27.64,0,0,1-4.67.21,5.68,5.68,0,0,1-3.26-.92c-1.08-.4-1.9-2.1-2.44-5.08a62.89,62.89,0,0,1-.81-11,30.19,30.19,0,0,1-3.66,5.89,25.68,25.68,0,0,1-5.39,5.09,28.14,28.14,0,0,1-7.43,3.66,30,30,0,0,1-9.55,1.42q-6.51,0-10.58-3.56a23.72,23.72,0,0,1-6.3-9A45.56,45.56,0,0,1,268.93,139a79.82,79.82,0,0,1-.6-12.61,3.26,3.26,0,0,1-2.24-2.65,16.81,16.81,0,0,1-.51-5.08,26.28,26.28,0,0,1,.81-5.59,18,18,0,0,1,1.53-4.17,14.09,14.09,0,0,1,9.35-3.26c3.26.14,5.56,1,6.92,2.44q1.21,1,1.63,4.68c.27,2.44.43,5.32.5,8.64s.14,6.85.21,10.58.27,7.19.61,10.37a26.55,26.55,0,0,0,1.83,7.83c.88,2,2.2,3.05,4,3.05a11.25,11.25,0,0,0,7.94-3.25,28,28,0,0,0,5.89-8.24,62.54,62.54,0,0,0,4.07-10.78q1.64-5.79,2.75-10.88c.74-3.38,1.35-6.3,1.83-8.74s.91-3.87,1.32-4.27a7.47,7.47,0,0,1,3.56-1.63,13.32,13.32,0,0,1,4.37-.1,11.4,11.4,0,0,1,4.07,1.32,5.12,5.12,0,0,1,2.44,2.64,9.61,9.61,0,0,1,.71,3.26c.2,1.76.37,3.9.51,6.4s.27,5.33.41,8.44.2,6.24.2,9.36Q333.2,147.91,333,161.53Z"/><path class="cls-2" d="M390.15,103.77q7.32,0,11.39,3.36a15.48,15.48,0,0,1,5.28,7.42,11.47,11.47,0,0,1,0,7.42q-1.21,3.36-4.27,3.36c-.54,0-1.12-.41-1.73-1.22a20.81,20.81,0,0,0-2.44-2.64,18.45,18.45,0,0,0-3.76-2.65,12.35,12.35,0,0,0-5.9-1.22A9.79,9.79,0,0,0,381.6,121a36.37,36.37,0,0,0-5.89,8.34,72.78,72.78,0,0,0-4.68,11q-2,6-3.56,11.18t-2.54,8.85a16.05,16.05,0,0,1-1.43,4.07,7.87,7.87,0,0,1-3.86,1.63,17.64,17.64,0,0,1-5,.1,15,15,0,0,1-4.68-1.32,5,5,0,0,1-2.75-2.65,10.3,10.3,0,0,1-1-4.68Q346,154,346,148.82v-12q0-6.81-.2-14.74c-.81-.14-1.42-.85-1.83-2.14a15.14,15.14,0,0,1-.61-4.57,39.73,39.73,0,0,1,.41-5.6,34.7,34.7,0,0,1,1-5,6.6,6.6,0,0,1,2.85-1.63,32.34,32.34,0,0,1,4.88-1.32,22.45,22.45,0,0,1,5.09-.41,6.07,6.07,0,0,1,3.45.92q.81.41,1.53,3.15a40.15,40.15,0,0,1,1,6.61q.3,3.87.5,8t.21,7.43a60.93,60.93,0,0,1,6.3-11.8,40.62,40.62,0,0,1,8.14-8.24A18.16,18.16,0,0,1,390.15,103.77Z"/><path class="cls-2" d="M457.87,105.2q9.76,1,14.95,4t6.81,6.81a11.23,11.23,0,0,1,.21,8.14,19.67,19.67,0,0,1-4.88,7.73,23.46,23.46,0,0,1-11.7,6.71A50,50,0,0,1,449.94,140a57.24,57.24,0,0,1-11.9-1.52c-3.59-.88-6-1.53-7.22-1.93-.41-.14-.75-.61-1-1.43a4.65,4.65,0,0,1-.1-2.54,4.26,4.26,0,0,1,1.32-2.24q1-.92,3.06-.3,10.37,2,18.3.1t11.8-5.19q3.85-3.24,2.44-6.2t-10-3A25.38,25.38,0,0,0,445,118.52a28.14,28.14,0,0,0-8.85,6.81,22,22,0,0,0-4.68,8.85,12.32,12.32,0,0,0,.82,8.84q2,4.08,7.62,6.82t15.76,2.74A34.56,34.56,0,0,0,467,150.75a73.33,73.33,0,0,0,16.38-7.93c1.83-1.22,3.08-1.83,3.76-1.83a2.89,2.89,0,0,1,1.93.81,11.35,11.35,0,0,1,1.63,1.83,17.16,17.16,0,0,1,1.12,1.83,3.65,3.65,0,0,1,.4,1q-.4,1-3.76,3.56a64.39,64.39,0,0,1-8.75,5.39,74.33,74.33,0,0,1-12,5,43.49,43.49,0,0,1-13.52,2.14,78.63,78.63,0,0,1-17.29-1.83A41.17,41.17,0,0,1,423,155a26.18,26.18,0,0,1-8.85-9.66,24.45,24.45,0,0,1-2.44-13.52,20.06,20.06,0,0,1,5.9-13A40.88,40.88,0,0,1,430,110.38,59.34,59.34,0,0,1,444.75,106,58,58,0,0,1,457.87,105.2Z"/><path class="cls-2" d="M525.39,115a19.67,19.67,0,0,0-5.08.71,16.09,16.09,0,0,0-4.78,2.14,11.48,11.48,0,0,0-3.46,3.55,8.93,8.93,0,0,0-1.32,4.78c0,1.5.84,2.75,2.54,3.77a34,34,0,0,0,6.41,2.84c2.57.89,5.32,1.7,8.23,2.44a59.85,59.85,0,0,1,8.24,2.75,23.66,23.66,0,0,1,6.41,3.86,7.08,7.08,0,0,1,2.54,5.5,6.75,6.75,0,0,1-2.14,4.37,31.32,31.32,0,0,1-5.59,4.68,66,66,0,0,1-7.52,4.37q-4.08,2-7.83,3.76a69.07,69.07,0,0,1-6.82,2.75,35.85,35.85,0,0,1-4.27,1.22,7.4,7.4,0,0,1-4-.71,13.71,13.71,0,0,1-3.56-2.45,13.54,13.54,0,0,1-2.65-3.35,7.11,7.11,0,0,1-1-3.46q0-1.41,4.06-3t8.95-3.46a90.71,90.71,0,0,0,8.75-3.76c2.57-1.29,3.66-2.67,3.25-4.17-.14-.41-1-.74-2.64-1l-6.1-1q-3.67-.62-7.83-1.53a37.68,37.68,0,0,1-7.73-2.54,17.93,17.93,0,0,1-5.9-4.17,9.09,9.09,0,0,1-2.34-6.41,20,20,0,0,1,2.54-9.86,25.7,25.7,0,0,1,6.92-7.93,32.08,32.08,0,0,1,10.47-5.19,45.82,45.82,0,0,1,13.22-1.83q8.75,0,13,3.26a14.91,14.91,0,0,1,5.49,7,12,12,0,0,1,.3,7c-.61,2.17-1.39,3.25-2.33,3.25a7.11,7.11,0,0,1-4.07-1.22c-1.22-.81-2.48-1.73-3.76-2.74s-2.62-2-4-2.85A8.42,8.42,0,0,0,525.39,115Z"/><path class="cls-3" d="M259.67,229a2.87,2.87,0,0,1,1.93.81,10.56,10.56,0,0,1,1.63,1.83,15.66,15.66,0,0,1,1.12,1.83,3.59,3.59,0,0,1,.41,1c-.28.68-1.53,1.86-3.77,3.56a65.22,65.22,0,0,1-8.74,5.39,75.09,75.09,0,0,1-12,5,43.88,43.88,0,0,1-13.53,2.13,77.72,77.72,0,0,1-17.39-1.83,42.29,42.29,0,0,1-13.93-5.69,26,26,0,0,1-9-9.66A24.49,24.49,0,0,1,184,219.88,20.6,20.6,0,0,1,188.18,209a32.86,32.86,0,0,1,8.85-7.83,47.58,47.58,0,0,1,11.49-5.08,67.9,67.9,0,0,1,11.9-2.44,7.83,7.83,0,0,0,1.83-.2,15.31,15.31,0,0,0,1.73-.11c.61-.06,1.12-.1,1.52-.1q11,0,17.6,2.39t7,5.9a6.1,6.1,0,0,1-1.62,4.73,13.76,13.76,0,0,1-4.38,3.25,12.77,12.77,0,0,1-5.18,1.32,6.62,6.62,0,0,1-4.48-1.32c-.68-.4-1-.84-1-1.32v-1.52a4.44,4.44,0,0,0-.21-1.43c-.13-.41-.68-.74-1.62-1a37.1,37.1,0,0,0-15,2.73,27.57,27.57,0,0,0-9.77,6.78,17,17,0,0,0-4.27,8.7,12.67,12.67,0,0,0,1.73,8.7q2.44,4,8.24,6.77t15.35,2.73a34.56,34.56,0,0,0,11.39-1.83,72.45,72.45,0,0,0,9.46-4q4.17-2.13,7-4C257.71,229.65,259,229,259.67,229Z"/><path class="cls-3" d="M335.74,249.58a5.68,5.68,0,0,1-2.54,1.52,19.3,19.3,0,0,1-4.38,1,27.6,27.6,0,0,1-4.67.2,5.68,5.68,0,0,1-3.26-.91c-1.09-.41-1.9-2.1-2.44-5.09a62.89,62.89,0,0,1-.81-11,30.26,30.26,0,0,1-3.66,5.9,25.89,25.89,0,0,1-5.39,5.08,28,28,0,0,1-7.43,3.67,30.05,30.05,0,0,1-9.56,1.42A15.47,15.47,0,0,1,281,247.85a23.63,23.63,0,0,1-6.31-8.95,45.63,45.63,0,0,1-3.05-11.9,81,81,0,0,1-.61-12.61,3.26,3.26,0,0,1-2.23-2.64,16.81,16.81,0,0,1-.51-5.08,25.15,25.15,0,0,1,.81-5.6,17.15,17.15,0,0,1,1.53-4.17,14.07,14.07,0,0,1,9.35-3.25c3.26.14,5.56.95,6.92,2.44q1.21,1,1.62,4.68t.51,8.64q.1,5,.21,10.58c.06,3.73.27,7.18.61,10.37a26.55,26.55,0,0,0,1.83,7.83q1.32,3,4,3.05A11.23,11.23,0,0,0,303.6,238a28,28,0,0,0,5.9-8.24A63.7,63.7,0,0,0,313.57,219q1.62-5.79,2.75-10.88t1.83-8.75c.47-2.44.91-3.86,1.32-4.27a7.5,7.5,0,0,1,3.56-1.62,13.31,13.31,0,0,1,4.37-.11,11.61,11.61,0,0,1,4.07,1.33,5.12,5.12,0,0,1,2.44,2.64,9.53,9.53,0,0,1,.71,3.25c.2,1.77.37,3.9.51,6.41s.27,5.32.41,8.44.2,6.24.2,9.36Q335.94,235.95,335.74,249.58Z"/><path class="cls-3" d="M392.88,191.82q7.33,0,11.39,3.35a15.52,15.52,0,0,1,5.29,7.43,11.47,11.47,0,0,1,0,7.42c-.81,2.24-2.24,3.36-4.27,3.36-.54,0-1.12-.41-1.73-1.22a20.17,20.17,0,0,0-2.44-2.65,18.71,18.71,0,0,0-3.76-2.64,12.24,12.24,0,0,0-5.9-1.22,9.8,9.8,0,0,0-7.12,3.35,36.4,36.4,0,0,0-5.9,8.34,74.4,74.4,0,0,0-4.67,11q-2,6-3.56,11.18t-2.54,8.85a16.7,16.7,0,0,1-1.43,4.07,7.82,7.82,0,0,1-3.86,1.62,17.34,17.34,0,0,1-5,.1,14.76,14.76,0,0,1-4.67-1.32,5,5,0,0,1-2.75-2.64,10.41,10.41,0,0,1-1-4.68c-.13-2.3-.2-5.19-.2-8.64v-12q0-6.81-.2-14.75-1.23-.19-1.83-2.13a15.21,15.21,0,0,1-.61-4.58,41.17,41.17,0,0,1,.4-5.59,33.16,33.16,0,0,1,1-5,6.45,6.45,0,0,1,2.85-1.62,32.34,32.34,0,0,1,4.88-1.32,21.85,21.85,0,0,1,5.08-.41,6.09,6.09,0,0,1,3.46.91c.54.28,1.05,1.33,1.53,3.16a39,39,0,0,1,1,6.61c.21,2.57.37,5.25.51,8s.2,5.26.2,7.42a61.42,61.42,0,0,1,6.31-11.79,40.62,40.62,0,0,1,8.14-8.24A18.08,18.08,0,0,1,392.88,191.82Z"/><path class="cls-3" d="M460.61,193.24q9.76,1,14.95,4c3.45,2,5.72,4.24,6.81,6.81a11.23,11.23,0,0,1,.2,8.14,19.59,19.59,0,0,1-4.88,7.72A23.4,23.4,0,0,1,466,226.6,50.48,50.48,0,0,1,452.68,228a56.47,56.47,0,0,1-11.9-1.53c-3.6-.88-6-1.52-7.22-1.93-.41-.13-.75-.61-1-1.42a4.65,4.65,0,0,1-.1-2.54,4.2,4.2,0,0,1,1.32-2.24,3.07,3.07,0,0,1,3.05-.31q10.38,2,18.31.11T466.91,213q3.87-3.25,2.44-6.2t-10-3a25.39,25.39,0,0,0-11.7,2.74,28.24,28.24,0,0,0-8.84,6.82,21.86,21.86,0,0,0-4.68,8.84,12.4,12.4,0,0,0,.81,8.85q2,4.06,7.63,6.81t15.76,2.75a34.61,34.61,0,0,0,11.39-1.83,73,73,0,0,0,9.46-4,70.27,70.27,0,0,0,6.91-4c1.83-1.22,3.08-1.83,3.77-1.83a2.89,2.89,0,0,1,1.93.81,10.11,10.11,0,0,1,1.62,1.83,14.4,14.4,0,0,1,1.12,1.83,3.59,3.59,0,0,1,.41,1c-.27.68-1.53,1.86-3.76,3.56a66.06,66.06,0,0,1-8.75,5.39,74.33,74.33,0,0,1-12,5A43.87,43.87,0,0,1,457,250.59a78,78,0,0,1-17.29-1.83,41.08,41.08,0,0,1-13.93-5.69,26.17,26.17,0,0,1-8.85-9.66,24.4,24.4,0,0,1-2.44-13.53,20,20,0,0,1,5.9-13,40.41,40.41,0,0,1,12.41-8.44,59.34,59.34,0,0,1,14.74-4.37A57.42,57.42,0,0,1,460.61,193.24Z"/><rect class="cls-1" x="32" y="173.44" width="468.03" height="12.54" rx="3.75" ry="3.75"/><path class="cls-2" d="M226.29,55.16l-.45.18c-1.17.51-2.34,1-3.51,1.51a16.19,16.19,0,0,1-1.94.71,4.12,4.12,0,0,0-1.55.7,3.74,3.74,0,0,1-.36.26c-.08-.19-.13-.34-.2-.51-.15.06-.3.08-.41.13a8.53,8.53,0,0,0-2,1.25c-.14.13-.27.3-.56.25,0-.16-.06-.32-.09-.47s-.15-.26-.34-.2l-.24.13a12.52,12.52,0,0,0-2.51,1.95,2.11,2.11,0,0,1-.22.14c-.28-.24-.28-.67-.67-.85a14.18,14.18,0,0,0-3.07,3c-.48-.27-.36-.89-.79-1.22a1.9,1.9,0,0,0-.41.34c-.57.67-1.15,1.36-1.7,2.06a3.93,3.93,0,0,0-.34.46c-.26-.38-.26-.82-.64-1.09a9.19,9.19,0,0,0-2.15,2.8c-.3-.25-.55-.45-.83-.7L199,69.25l-.2-.3c-.28-.41-.35-.41-.69-.06a2.06,2.06,0,0,0-.35.43c-.31.48-.61,1-.91,1.44-.1.18-.23.35-.36.56-.2-.17-.34-.3-.51-.46l-.77,1.07c-.24.33-.5.66-.71,1s-.4.74-.61,1.13l-.47-.39c-.15.15-.32.3-.45.45a18.18,18.18,0,0,0-2.29,3.52c0,.1-.11.2-.19.33l-.42-.34c-.13.13-.26.23-.36.35s-.34.44-.49.67a32.42,32.42,0,0,1-4.73,5.4l-.27.22-.08-.06c.13-.24.25-.47.39-.7a57.06,57.06,0,0,1,3.56-4.93,23.86,23.86,0,0,0,1.44-1.91,8.34,8.34,0,0,1,1.63-1.87l1.2-1.09a4.27,4.27,0,0,0,.57-1l-.53-.2.4-.44c.47-.48.95-.94,1.39-1.43s.67-.75,1-1.16a.53.53,0,0,0,.15-.54l-.45-.2a3.67,3.67,0,0,1,.35-.46c.24-.25.52-.48.76-.73.42-.4.83-.82,1.25-1.23a1.58,1.58,0,0,0,.4-.78l-.49-.33c.14-.17.23-.32.36-.45s.52-.52.78-.78a16.6,16.6,0,0,0,1.36-1.43c.42-.52.38-.46,0-1a2.48,2.48,0,0,1,.35-.45c.4-.37.83-.72,1.21-1.12a5.49,5.49,0,0,0,.58-.87c.11-.19,0-.34-.17-.41l-.66-.23c.2-.17.35-.29.49-.42.42-.4.85-.8,1.25-1.23a1.56,1.56,0,0,0,.31-.6c.09-.23,0-.32-.25-.37s-.22,0-.4-.11c.2-.2.34-.37.5-.53.36-.37.75-.76,1.11-1.15a3.3,3.3,0,0,0,.42-.61.34.34,0,0,0-.22-.51l-.57-.18a14.09,14.09,0,0,0,2.49-3.06l-1.2-.39.41-.42c.42-.47.87-.92,1.27-1.4a4.72,4.72,0,0,0,.56-.84c.19-.41.09-.56-.35-.61-.76-.08-.81-.21-.37-.83a12.38,12.38,0,0,0,1.33-2.42,2.31,2.31,0,0,0,.16-.57c0-.3-.07-.43-.37-.45s-.37,0-.63,0l.37-.74c.28-.67.6-1.33.87-2a2.49,2.49,0,0,0,.13-.67c0-.21-.11-.3-.33-.26l-.55.05.2-.49c.24-.51.47-1,.68-1.52a5.49,5.49,0,0,0,.17-.7l-.51-.19.23-.53c.12-.3.28-.58.37-.88a1.24,1.24,0,0,0,0-.68,1.26,1.26,0,0,1-.07-.89A34.94,34.94,0,0,1,210,27c.23-.64.43-1.28.62-1.93a3.69,3.69,0,0,0,.08-.46l-.11,0a10.07,10.07,0,0,0-1.15,1.81c-.2.39-.36.78-.57,1.15-.56.95-1.13,1.87-1.69,2.82-.29.49-.56,1-.82,1.53-.06.16-.14.25-.31.21a.5.5,0,0,0-.57.35c-.14.4-.27.82-.39,1.22s-.14.31-.38.19l-.31-.17a5.56,5.56,0,0,0-.79,2.34l-.8-.4c-.48.7-.39,1.56-.68,2.32l-.66-.41a4.32,4.32,0,0,0-.4.62,4.43,4.43,0,0,0-.43,1.63,4.09,4.09,0,0,1-.09.61c-.39-.2-.7-.38-1.05-.58-.09.21-.18.36-.24.53a9.26,9.26,0,0,0-.45,2.39c0,.21,0,.44-.2.62l-.88-.52a5.35,5.35,0,0,0-.21.77c-.1.68-.19,1.34-.28,2-.05.44-.23.53-.61.29l-.43-.33a7.56,7.56,0,0,0-.56,3.14l-.88-.46c-.29.15-.32.41-.38.65-.17.88-.32,1.77-.48,2.67a2.29,2.29,0,0,1-.14.69c-.39-.3-.74-.55-1.12-.83a21.32,21.32,0,0,0-.62,4.18l-1.08-.5-.16.92c-.12.82-.23,1.64-.36,2.46a2.48,2.48,0,0,1-.18.52l-.44-.16c-.3-.09-.37,0-.47.25a1.31,1.31,0,0,0-.06.27c-.05.61-.12,1.22-.17,1.83s-.06,1-.12,1.58c-.29-.15-.55-.27-.85-.41-.05.19-.09.32-.12.45l-.19,2.07c0,.46,0,.92-.07,1.38a.48.48,0,0,1-.25.47c-.18.08-.25-.09-.37-.19-.3-.25-.47-.2-.53.18s0,.58-.06.87a.74.74,0,0,1-.24.6c-.09-.26-.16-.47-.24-.69l-.8.06c.08-.19.13-.34.19-.47.21-.48.45-.94.65-1.42a7.5,7.5,0,0,0,.38-1.13c.12-.52,0-.62-.52-.59,0,0-.05,0-.13-.06s.12-.33.18-.49c.34-.78.68-1.55,1-2.33a1.27,1.27,0,0,0,.12-.89c-.25,0-.49-.07-.77-.09a4.47,4.47,0,0,1,.16-.48c.17-.42.35-.82.49-1.25.21-.6.38-1.19.55-1.8a.6.6,0,0,0-.11-.65l-.92.06c.11-.23.17-.39.23-.53.33-.77.67-1.53,1-2.3a3.23,3.23,0,0,0,.16-.81c0-.39-.11-.5-.5-.41-.18,0-.37.11-.68.18.59-1.36,1.3-2.57,1.24-4-.42,0-.74.35-1.21.16.1-.22.18-.43.28-.62a9.94,9.94,0,0,0,1-2.72,1.79,1.79,0,0,0,0-1.12l-1,.1a6.43,6.43,0,0,0,.27-.75c.24-.73.48-1.46.68-2.2.11-.41,0-.49-.4-.48-.17,0-.33,0-.5,0a1.67,1.67,0,0,1-.32,0c.17-.63.34-1.22.45-1.82a4.84,4.84,0,0,0,.13-1.86c-.41,0-.72.3-1.15.2a9.25,9.25,0,0,0,.63-3.62c-.4-.05-.74.19-1.13,0a13.4,13.4,0,0,0,.5-3.62l-.89.09a2.51,2.51,0,0,0,0-.27,7.14,7.14,0,0,0,.15-2.16c0-.23-.06-.43-.35-.41s-.26-.15-.29-.3a1.61,1.61,0,0,1,0-.38c0-.48,0-1,0-1.46a4.91,4.91,0,0,0,0-.55l-.53-.06c0-.25,0-.48,0-.7a4.24,4.24,0,0,0-.08-1.19,7.27,7.27,0,0,1-.32-1.66,51.88,51.88,0,0,1-.3-5.58c0-.56-.05-1.13-.11-1.7a1.64,1.64,0,0,0-.09-.44.4.4,0,0,0-.14.26c-.27,2-.55,4-.83,6-.13.87-.31,1.73-.47,2.59a12.18,12.18,0,0,0-.24,1.49c-.06.63,0,.63-.68.65,0,.18,0,.35,0,.53s0,.61,0,.92c0,.1-.08.29-.15.3-.33.05-.35.32-.37.56,0,.39,0,.79,0,1.19,0,.24-.07.48-.09.7-.65.05-.73.12-.78.72a3.76,3.76,0,0,0,.16,1.63c0,.12.05.24.09.39-.42.09-.78-.12-1.21-.09a30,30,0,0,0,.32,3.85h-1.22a7.08,7.08,0,0,0,.52,3.22c-.06,0-.09.06-.13.06l-.31,0c-.6,0-.8.13-.67.7s.31,1.06.46,1.58c0,.16.08.32.15.55l-.52-.07h-.5a7.44,7.44,0,0,0,.83,3.17c-.45-.08-.83-.13-1.23-.19a9.11,9.11,0,0,0,.35,2.22c.21.71.46,1.41.69,2.14-.48.14-.91-.13-1.39,0a32.42,32.42,0,0,0,1.18,3.85c-.06.05-.09.08-.13.08l-.45,0c-.38,0-.44.06-.36.43a15.84,15.84,0,0,0,1,3c0,.12.09.24.14.38-.41.1-.79,0-1.18.16a7.29,7.29,0,0,0,.17.75c.34.93.69,1.87,1,2.8.05.16.09.31.15.53l-.58.07c-.41,0-.48.12-.39.52a14.33,14.33,0,0,0,1.14,3.36,5.58,5.58,0,0,1,.21.52l-.57.06c-.26,0-.31.11-.26.37a3.83,3.83,0,0,0,.18.76c.38,1,.77,2,1.14,3a3.71,3.71,0,0,1,.16.47h-.79a1.09,1.09,0,0,0,0,.3c.43,1.19.84,2.37,1.3,3.56.08.2.13.35-.05.53a.54.54,0,0,0-.13.56c.13.59.23,1.2.37,1.8.29,1.21.65,2.4.9,3.62.15.77.17,1.57.25,2.39l-.15,0c-.05-.08-.1-.16-.14-.24a37.75,37.75,0,0,1-2.34-6.06l-.81-3c-.08-.26-.2-.51-.3-.78l-.41.18a1.09,1.09,0,0,1-.29-.69c-.17-.76-.32-1.53-.5-2.29s-.32-1.26-.49-1.95c-.34.23-.62.44-.91.65-.25-.93-.44-1.83-.7-2.73s-.53-1.77-.88-2.71l-1,.66a17.55,17.55,0,0,0-1.24-4.82c-.23.16-.42.29-.66.48-.09-.32-.16-.54-.21-.77-.16-.69-.31-1.38-.48-2.06a3.39,3.39,0,0,0-.26-.65c-.38,0-.47.48-.88.48a5,5,0,0,1-.12-.63,11.09,11.09,0,0,0-.42-2.4,2.72,2.72,0,0,0-.19-.5l-1,.74c-.08-.26-.13-.46-.19-.64-.29-.93-.57-1.88-.86-2.82a3.17,3.17,0,0,0-.25-.48,1.75,1.75,0,0,0-.24.15c-.63.43-.74.39-.9-.38-.09-.39-.17-.78-.28-1.17A.72.72,0,0,0,163,47l-.87.7a9.05,9.05,0,0,0-.72-3.36c-.48,0-.64.5-1,.61-.6-2.38-1-3.4-1.48-3.81l-.78.65c-.05-.2-.08-.37-.12-.53a5.91,5.91,0,0,0-.71-1.83c-.18-.28-.29-.3-.53-.15-.42.24-.51.22-.72-.23a5.27,5.27,0,0,1-.19-.51c-.16-.43-.31-.87-.51-1.29a5.79,5.79,0,0,0-.39-.64l-.57.73c-.06-.05-.1-.06-.12-.09l-.06-.26a7.51,7.51,0,0,0-1-2.17c-.12-.16-.3-.39-.47-.4a.78.78,0,0,1-.66-.56,15,15,0,0,0-1.53-2.35c-.75-1-1.42-2.05-2.13-3.06-.49-.71-1-1.4-1.52-2.1-.09-.12-.21-.22-.31-.34,0,0-.07,0-.09.07a42.16,42.16,0,0,1,3,7.74l-.33.11a7.79,7.79,0,0,0,.2.8c.18.5.4,1,.58,1.46a3.68,3.68,0,0,1,.16.54l-.2.07c-.33.11-.4.19-.31.52a1.34,1.34,0,0,0,.16.39l1.06,1.67c.08.13.2.25.34.44a5.08,5.08,0,0,0-.62,0c-.24,0-.32.18-.24.4a2.12,2.12,0,0,0,.18.37c.35.45.71.89,1.07,1.33.09.13.19.25.34.43l-.81.39a1.24,1.24,0,0,0,.31.74c.42.56.85,1.1,1.26,1.66l.29.44a5.71,5.71,0,0,0-.72.22c-.24.08-.29.2-.17.42a2.79,2.79,0,0,0,.42.54c.51.54,1,1,1.56,1.59.09.09.17.19.26.3-.41.22-.91.07-1.2.55a5.76,5.76,0,0,0,.56.72c.73.76,1.48,1.52,2.22,2.28.12.11.22.23.34.35-.44.26-1,.22-1.31.62a4.62,4.62,0,0,0,.41.46l2,1.6.41.31-.46.26c-.51.29-.54.44-.12.87a11.53,11.53,0,0,0,2.26,1.83c.15.09.36.15.41.45l-.92.34a1.33,1.33,0,0,0,.48.8c.52.46,1.07.88,1.6,1.33.17.15.32.31.54.52-.36.16-.65.31-1,.48a5.89,5.89,0,0,0,.51.66c.57.52,1.17,1,1.76,1.49.2.17.43.3.63.47s.22.4-.11.54c-.11.05-.24.09-.44.16a3.53,3.53,0,0,0,.29.43,7.41,7.41,0,0,0,.72.65c.6.45,1.22.88,1.83,1.32l.37.27c0,.08,0,.11,0,.11a.41.41,0,0,1-.09.1c-.3.26-.34.38-.1.69a3.15,3.15,0,0,0,.53.57l2.43,1.91.45.35c-.21.07-.34.11-.51.18a3,3,0,0,0,.25.45,8.71,8.71,0,0,0,1,1c.46.42,1,.77,1.43,1.16a3.19,3.19,0,0,1,1,1.19,2.2,2.2,0,0,0,.4.56c.39.41.8.82,1.2,1.22.79.76,1.61,1.52,2.39,2.31A13.05,13.05,0,0,1,178.5,83l.7,1.19c.06.08.1.17.15.25a2.18,2.18,0,0,1-.69-.39,27.57,27.57,0,0,1-3.87-3.77l-1.44-1.67c-.12-.13-.27-.23-.43-.38-.15.21-.3.38-.45.56-.33-.48-.6-.92-.9-1.35s-.59-.82-.92-1.21a6.31,6.31,0,0,0-1-1.16c-.1.14-.18.23-.26.33s-.15.2-.23.32c-1.41-2.07-2-2.76-2.43-3.08-.32.17-.27.6-.54.86a16.17,16.17,0,0,0-2.66-3.25l-.61.82a15.51,15.51,0,0,0-2.49-2.64l-.64.9a14.08,14.08,0,0,0-2.71-3l-.52,1.1a20.43,20.43,0,0,0-3.22-3.22c-.18.44-.33.81-.49,1.23A17.47,17.47,0,0,0,150,63.05l-.43.78c-1.35-1.3-1.83-1.68-2.33-1.83l-.33.62a13.38,13.38,0,0,0-2.53-1.56c-.07.19-.13.33-.21.51l-.44-.21c-.48-.23-1-.49-1.44-.71a1.88,1.88,0,0,0-1-.22,1,1,0,0,1-.44-.11c-1.5-.59-3-1.22-4.5-1.79a14.66,14.66,0,0,0-1.64-.45.82.82,0,0,0-.31,0,.45.45,0,0,1,0,.11l.68.46c.74.47,1.51.9,2.23,1.39s1.48,1.09,2.21,1.66a2.91,2.91,0,0,1,.52.63,3.23,3.23,0,0,0,.4.55c.45.35,1,.68,1.43,1,.17.12.4.21.36.43-.1.53.25.75.6,1l1.37.84c.17.11.3.24.51.39-.22.2-.4.34-.57.48a2.58,2.58,0,0,0,1.31,1.13c.36.18.73.32,1.09.49.16.08.34.15.4.34-.35.22-.41.42-.21.74a1.52,1.52,0,0,0,.51.47c.57.3,1.16.54,1.75.82l.44.19-.52.53a2.06,2.06,0,0,0,.36.4,11.7,11.7,0,0,0,3.58,1.58c-.18.18-.31.32-.46.45s-.24.31-.06.6a1.42,1.42,0,0,0,.87.57c.71.17,1.44.31,2.17.46l.25.1-.12.22c-.33.44-.32.65.09,1a1.55,1.55,0,0,0,.53.34,8.92,8.92,0,0,0,1.14.37c.34.11.69.16,1,.25s.39.15.34.44a.62.62,0,0,0,.41.74,9.63,9.63,0,0,0,1.17.43c.52.15,1.06.27,1.6.41a.58.58,0,0,1,.5.56.7.7,0,0,0,.6.68l.44.1c.95.16,1.88.3,2.83.47.48.08,1,.15,1.18.71,0,.08.16.14.25.18a4.48,4.48,0,0,0,.62.2c2.75.78,5.48,1.62,8.16,2.59.11,0,.2.11.3.15a1.36,1.36,0,0,1-.52.07l-4.1-.1c-.26,0-.52,0-.78.05s-.54.11-.54.48a.7.7,0,0,1-.26,0,4.92,4.92,0,0,0-1.87-.13,11.4,11.4,0,0,0-1.19.13c-.16,0-.29.08-.29.3,0,.4,0,.43-.42.47a4.21,4.21,0,0,0-.5,0c-.65.09-1.3.17-2,.28a2.23,2.23,0,0,0-.47.22c.11.28.17.48.25.68-.08,0-.09.08-.12.09l-.23,0a7.14,7.14,0,0,0-2,.67,1.06,1.06,0,0,0-.43.41c0,.1.06.28.09.49l-.63.4c-.26.14-.52.27-.78.43a.81.81,0,0,0-.44.6,1.11,1.11,0,0,1-.48.71l-3.54,2.8c-.42.34-.84.69-1.24,1a2.51,2.51,0,0,0-.32.46l.06.09c.22,0,.44-.11.65-.18,1.16-.42,2.3-.86,3.47-1.25a9.52,9.52,0,0,1,2.09-.51,7.87,7.87,0,0,0,2.77-.79l.46-.21c.08.2.13.36.19.5s.22.32.51.23a2.87,2.87,0,0,0,.51-.21c.32-.18.64-.36,1-.53a.81.81,0,0,1,.87,0,.8.8,0,0,0,.79,0l1-.44a9.78,9.78,0,0,1,1.14-.49,1.2,1.2,0,0,1,.7,0,1.23,1.23,0,0,0,1,0c.54-.25,1.06-.51,1.57-.77.3-.13.59-.27.89-.39s.37-.1.5.08.47.25.73.1.38-.16.55-.25c1.46-.81,2.93-1.63,4.4-2.43.36-.21.72-.39,1.11-.61a1.42,1.42,0,0,1,.27,1A32.41,32.41,0,0,1,181,94.3h.77c.12-1.46.18-2.94.29-4.41a11.62,11.62,0,0,1,.16-1.56c.08-.47.25-.58.72-.65a4.34,4.34,0,0,1,2,.13l1.31.43c2,.64,3.93,1.3,5.92,1.91a13.72,13.72,0,0,0,4,.73,3.81,3.81,0,0,1,1.65.39,3.92,3.92,0,0,0,.88.28.89.89,0,0,0,.87-.15.76.76,0,0,1,.73-.19c.37.08.74.19,1.11.25a7.66,7.66,0,0,0,1.33.16c.4,0,.52-.13.53-.54s.14-.36.36-.37.52,0,.78,0l1.79-.06a1.34,1.34,0,0,0,.89-.36,1.25,1.25,0,0,1,.84-.32c.27,0,.54,0,.82-.07a1.55,1.55,0,0,0,.62-.18,2.23,2.23,0,0,1,1.44-.38h2.58c1,0,2,0,3.09-.07a2,2,0,0,0,.33-.06.85.85,0,0,0-.19-.17c-.12-.09-.25-.17-.38-.25a19.77,19.77,0,0,0-3.52-1.49c-.22-.08-.46-.09-.68-.15a5,5,0,0,1-.52-.25,3,3,0,0,0-.72-.36c-.77-.17-1.55-.29-2.31-.42-.17,0-.31-.08-.33-.26s-.15-.28-.33-.3c-.42,0-.84,0-1.25,0-.61,0-.56,0-.7-.54a.46.46,0,0,0-.07-.1c-.37,0-.75,0-1.13,0s-.77.08-1.19.08c0-.33.08-.58.12-.87a13.1,13.1,0,0,0-2.6.46c-.05-.58-.08-.62-.62-.55s-1.09.2-1.62.31a4,4,0,0,0-.45.09c-.06-.25-.1-.43-.16-.66a20.73,20.73,0,0,0-3.43,1c0-.26,0-.47-.07-.72a11.23,11.23,0,0,0-3.43.86c-.24-.43-.24-.43-.69-.35-.27.05-.55.1-.81.17l-3.79,1a1.32,1.32,0,0,1-.71,0c.21-.13.32-.22.45-.29,1-.42,1.92-.88,2.91-1.29,1.86-.78,3.73-1.52,5.57-2.31a3.88,3.88,0,0,0,1.19-.68A7,7,0,0,1,197.31,80c.51-.21,1-.41,1.49-.63a.57.57,0,0,0,.35-.27,1.27,1.27,0,0,1,.73-.6c.36-.13.74-.22,1.1-.32.59-.16,1.17-.27,1.74-.47a3.13,3.13,0,0,0,.73-.45c.14-.12.13-.26,0-.42s-.21-.28-.34-.47a4.78,4.78,0,0,1,.5-.29c.43-.19.87-.33,1.3-.5s1.11-.43,1.66-.67a2.76,2.76,0,0,0,.61-.42c.18-.17.15-.28,0-.45l-.34-.3a1,1,0,0,1,.68-.36c.62-.21,1.26-.39,1.88-.63a2.24,2.24,0,0,0,.74-.53c.27-.26.23-.53,0-.8a4.79,4.79,0,0,0-.39-.38,11.35,11.35,0,0,0,2.7-1.19,3.23,3.23,0,0,0,.54-.37c.23-.2.23-.33.05-.59s-.17-.24-.27-.41c.41-.17.77-.28,1.11-.45a8.23,8.23,0,0,0,1.35-.79c.35-.26.31-.43,0-.73a1.74,1.74,0,0,1-.16-.18,5,5,0,0,1,.43-.33c.4-.23.82-.42,1.22-.66a5,5,0,0,0,.77-.52c.3-.26.28-.39,0-.68l-.18-.26.62-.35c.45-.22.89-.43,1.31-.68a3.5,3.5,0,0,0,.56-.43l-.61-.58.5-.31a8.07,8.07,0,0,0,1.68-1.27,1.24,1.24,0,0,0,.31-.39,3.06,3.06,0,0,1,.85-1.09c.83-.77,1.69-1.52,2.54-2.28.37-.32.75-.63,1.13-.94C226.28,55.5,226.41,55.39,226.29,55.16Zm-40,13.34a4.09,4.09,0,0,1-.06,2.4l-.48-.1c-.06.21-.11.4-.16.63a3.16,3.16,0,0,1-.41-.27A10.48,10.48,0,0,1,186.25,68.5Zm-2.05,7.22a11.81,11.81,0,0,1,.46-1.11c.1-.23.24-.44.36-.66a4.3,4.3,0,0,1-.69,2.57A.74.74,0,0,1,184.2,75.72Z"/><path class="cls-2" d="M185.14,71.16a9.83,9.83,0,0,1,1.12-2.65,4.23,4.23,0,0,1-.07,2.39l-.48-.11-.17.65Z"/><path class="cls-2" d="M185,74a4.3,4.3,0,0,1-.69,2.57.76.76,0,0,1-.13-.8,11.81,11.81,0,0,1,.46-1.11C184.76,74.38,184.9,74.17,185,74Z"/><rect x="170.96" y="448.36" width="327" height="93.16" rx="12" ry="12"/><path d="M88.33,380.86a12.35,12.35,0,0,1,9.25,3.72,25.58,25.58,0,0,1,5.63,9.26,51.62,51.62,0,0,1,2.72,12.27,93.71,93.71,0,0,1,.5,12.77,75.59,75.59,0,0,1-1,10.56q-.81,4.53-1.61,5.74a6.15,6.15,0,0,1-3,1.81,17.16,17.16,0,0,1-4.22.7,21.67,21.67,0,0,1-4.23-.2,5,5,0,0,1-2.61-.9q-1.21-.81-1.71-4.23a54.48,54.48,0,0,1-.51-7.94q0-4.53.1-9.56c.07-3.35,0-6.44-.1-9.25a37.47,37.47,0,0,0-.9-7.05c-.47-1.87-1.24-2.81-2.32-2.81-1.61,0-3.38,1-5.33,2.92A46.56,46.56,0,0,0,73.14,406q-2.92,4.42-5.73,9.65t-5.13,9.86c-1.55,3.09-2.86,5.73-3.93,8a20,20,0,0,1-2.21,3.92,8.34,8.34,0,0,1-3.72,1.71,14.13,14.13,0,0,1-4.73.2A13.58,13.58,0,0,1,43.26,438a4.86,4.86,0,0,1-2.61-2.81,7.38,7.38,0,0,1-.91-3.72c-.07-1.68,0-3.89.1-6.64s.27-6.07.41-10,.13-8.45,0-13.68c-.94-.27-1.55-1.17-1.81-2.72a32.46,32.46,0,0,1-.41-5.53,26.46,26.46,0,0,1,.61-6.23,14.38,14.38,0,0,1,.6-2.62A6.4,6.4,0,0,1,42,382.47a30.32,30.32,0,0,1,4.62-1.31,21.36,21.36,0,0,1,4.93-.4,6,6,0,0,1,3.42.91c.54.27,1,1.37,1.41,3.32a56.86,56.86,0,0,1,.91,6.84c.2,2.61.36,5.36.5,8.24s.2,5.4.2,7.55a66.69,66.69,0,0,1,4.33-7.55,56.15,56.15,0,0,1,7-8.75,51.56,51.56,0,0,1,9-7.34A18.27,18.27,0,0,1,88.33,380.86Z"/><path d="M161.35,393.13A25,25,0,0,0,151,395.45a38.53,38.53,0,0,0-9.25,5.83,43.53,43.53,0,0,0-7,7.54,19.8,19.8,0,0,0-3.63,7.55,6.83,6.83,0,0,0,1.11,5.83q1.81,2.32,6.84,2.32A25.11,25.11,0,0,0,149.38,422a67.09,67.09,0,0,0,11.07-6.44A127.53,127.53,0,0,0,171.21,407q5.22-4.62,9.35-8.75t6.84-7c1.81-1.94,2.92-3.12,3.32-3.52s1.91-.6,4.13-.6a34.83,34.83,0,0,1,6.84.7,20.25,20.25,0,0,1,6.13,2.21q2.61,1.51,2.42,3.73a64.63,64.63,0,0,0-.71,7.24q-.3,5-.2,10.26a61.21,61.21,0,0,0,.8,9.25q.7,4,2.32,4a2.19,2.19,0,0,0,1.61-.61,14.29,14.29,0,0,1,2.21-1.61,1.66,1.66,0,0,1,1.91,0,6.42,6.42,0,0,1,2,1.81,13.67,13.67,0,0,1,1.51,2.52c.4.87.67,1.51.81,1.91s-.07,1-.61,1.71a11.94,11.94,0,0,1-2.31,2.31,12.87,12.87,0,0,1-3.72,2,14,14,0,0,1-4.83.81q-9.47,0-14.08-4.33a21.77,21.77,0,0,1-6.24-9.55,30.9,30.9,0,0,1-1.41-13.88q-7,5.63-13.88,10.66-5.84,4.23-12.77,8.55a64.44,64.44,0,0,1-12.78,6.34,40,40,0,0,1-13.68,2.31,29.53,29.53,0,0,1-11.76-2.41,19.78,19.78,0,0,1-8.15-6.54,17.22,17.22,0,0,1-3-10.26q0-4.83,3.22-11a43.34,43.34,0,0,1,9.05-11.56,50.94,50.94,0,0,1,14.29-9.16,45.88,45.88,0,0,1,18.7-3.72q10.66,0,16.9,2.82t6.24,6.84a6.67,6.67,0,0,1-2.11,4.12,18.55,18.55,0,0,1-4.33,3.22,17.41,17.41,0,0,1-4.93,1.81,6.78,6.78,0,0,1-3.92-.1,1.89,1.89,0,0,1-1-1.71v-2.21a2.44,2.44,0,0,0-.7-1.81C164.2,393.37,163.09,393.13,161.35,393.13Z"/><path d="M235.38,353.9c3.35-.13,6.71-.2,10.06-.2,2.82,0,5.73,0,8.75.1s5.6.24,7.75.51c.93.13,1.81.94,2.61,2.41a11.92,11.92,0,0,1,1.41,4.83,8.36,8.36,0,0,1-.8,4.53c-.68,1.27-1.88,1.77-3.63,1.5q-4.21-.6-10.56-1.3t-13.48-1q-7.14-.3-14.68-.1a93.16,93.16,0,0,0-14.18,1.41,1.45,1.45,0,0,1-1.61-.71,12.78,12.78,0,0,1-1.11-2,6.38,6.38,0,0,1-.6-2.11,2.73,2.73,0,0,1,.1-1.41c.4-.8,2-1.61,4.72-2.41a73.52,73.52,0,0,1,9.06-2q4.92-.81,9.65-1.41A62.65,62.65,0,0,1,235.38,353.9Zm16.9,70.41a2.48,2.48,0,0,1,2.21-.6,7.16,7.16,0,0,1,2.72,1,11.41,11.41,0,0,1,2.21,1.71,2.43,2.43,0,0,1,.91,1.51,5.87,5.87,0,0,1-1.11,2.31,17,17,0,0,1-3.22,3.52,20.44,20.44,0,0,1-5,3.12,15.81,15.81,0,0,1-6.54,1.31,12.51,12.51,0,0,1-11.16-6.14,42.4,42.4,0,0,1-5.63-15.19,117.37,117.37,0,0,1-1.91-19.61q-.21-10.56-.21-19.62l1.21-55.32a8.82,8.82,0,0,1,3.72-.9,21.6,21.6,0,0,1,5.94.2,18.27,18.27,0,0,1,5.23,1.61,3,3,0,0,1,2,3.11c-.14.94-.34,4.1-.6,9.46s-.51,11.8-.71,19.31-.27,15.49-.2,23.94.3,16.26.71,23.44a130.09,130.09,0,0,0,2,17.8c.93,4.7,2.21,7,3.82,7a2.29,2.29,0,0,0,2.11-1.2A6,6,0,0,1,252.28,424.31Z"/><path d="M332.75,436.59a5.65,5.65,0,0,1-2.52,1.5,19.3,19.3,0,0,1-4.32,1,27.18,27.18,0,0,1-4.63.2,5.64,5.64,0,0,1-3.22-.9c-1.07-.41-1.88-2.08-2.41-5a61.62,61.62,0,0,1-.81-10.87,30.11,30.11,0,0,1-3.62,5.84,25.6,25.6,0,0,1-5.33,5,28.08,28.08,0,0,1-7.34,3.62,29.79,29.79,0,0,1-9.46,1.41,15.34,15.34,0,0,1-10.46-3.52,23.64,23.64,0,0,1-6.24-8.86,45.06,45.06,0,0,1-3-11.76,79.43,79.43,0,0,1-.61-12.48,3.21,3.21,0,0,1-2.21-2.61,16.84,16.84,0,0,1-.5-5,25.11,25.11,0,0,1,.8-5.53,17.43,17.43,0,0,1,1.51-4.13,14,14,0,0,1,9.26-3.22c3.21.14,5.49.94,6.83,2.42.81.67,1.34,2.21,1.61,4.62s.44,5.27.51,8.55.13,6.78.2,10.47.27,7.11.6,10.26a26.73,26.73,0,0,0,1.81,7.74q1.31,3,3.93,3a11.11,11.11,0,0,0,7.84-3.22,27.57,27.57,0,0,0,5.83-8.15,63.14,63.14,0,0,0,4-10.66q1.6-5.73,2.71-10.76c.74-3.35,1.34-6.24,1.81-8.65s.91-3.83,1.31-4.23a7.49,7.49,0,0,1,3.52-1.61,13.63,13.63,0,0,1,4.33-.1,11.39,11.39,0,0,1,4,1.31,5.07,5.07,0,0,1,2.42,2.61,9.77,9.77,0,0,1,.7,3.22q.3,2.63.5,6.34c.13,2.48.27,5.27.4,8.35s.21,6.17.21,9.25Q332.95,423.11,332.75,436.59Z"/><path d="M389.27,379.45q7.25,0,11.27,3.32a15.39,15.39,0,0,1,5.23,7.35,11.5,11.5,0,0,1,0,7.34q-1.22,3.32-4.23,3.32c-.54,0-1.1-.4-1.71-1.21a21.06,21.06,0,0,0-2.41-2.61,18.22,18.22,0,0,0-3.72-2.62,12.25,12.25,0,0,0-5.84-1.21,9.69,9.69,0,0,0-7,3.32A36,36,0,0,0,375,404.7a73.11,73.11,0,0,0-4.63,10.86q-2,5.94-3.52,11.07c-1,3.42-1.84,6.33-2.51,8.75a16.19,16.19,0,0,1-1.41,4A7.66,7.66,0,0,1,359.1,441a17.29,17.29,0,0,1-4.93.1,14.77,14.77,0,0,1-4.63-1.31,5,5,0,0,1-2.72-2.61,10.32,10.32,0,0,1-1-4.63c-.14-2.28-.2-5.13-.2-8.55V412.14q0-6.74-.2-14.58c-.81-.13-1.41-.84-1.81-2.11a14.87,14.87,0,0,1-.61-4.53,40.22,40.22,0,0,1,.4-5.53,33.88,33.88,0,0,1,1-4.93,6.37,6.37,0,0,1,2.82-1.61,32.73,32.73,0,0,1,4.82-1.31,22,22,0,0,1,5-.4,6.06,6.06,0,0,1,3.42.9c.54.28,1,1.31,1.51,3.12a38.43,38.43,0,0,1,1,6.54q.3,3.82.5,7.95t.2,7.34A59.91,59.91,0,0,1,370,391.32a40.24,40.24,0,0,1,8.05-8.15A18,18,0,0,1,389.27,379.45Z"/><path d="M456.26,380.86q9.66,1,14.79,3.92t6.74,6.74a11.15,11.15,0,0,1,.2,8.05,19.35,19.35,0,0,1-4.83,7.64,23.15,23.15,0,0,1-11.57,6.64,49.35,49.35,0,0,1-13.18,1.41,56,56,0,0,1-11.76-1.51q-5.34-1.31-7.15-1.91c-.4-.13-.73-.6-1-1.41a4.54,4.54,0,0,1-.1-2.51,4.1,4.1,0,0,1,1.31-2.21,3,3,0,0,1,3-.31q10.26,2,18.11.1t11.67-5.12c2.54-2.15,3.35-4.19,2.41-6.14s-4.22-2.92-9.86-2.92A25.08,25.08,0,0,0,443.49,394a28,28,0,0,0-8.76,6.74,21.63,21.63,0,0,0-4.62,8.75,12.19,12.19,0,0,0,.8,8.75q2,4,7.55,6.74t15.59,2.71a34.13,34.13,0,0,0,11.26-1.81,72.88,72.88,0,0,0,16.2-7.84c1.81-1.21,3.05-1.81,3.72-1.81a2.86,2.86,0,0,1,1.91.8,10.69,10.69,0,0,1,1.61,1.81,17.89,17.89,0,0,1,1.11,1.81,3.89,3.89,0,0,1,.4,1q-.4,1-3.72,3.52a64.8,64.8,0,0,1-8.65,5.33A74.77,74.77,0,0,1,466,435.48a43.22,43.22,0,0,1-13.38,2.11,77.51,77.51,0,0,1-17.1-1.81,40.69,40.69,0,0,1-13.78-5.63,25.86,25.86,0,0,1-8.75-9.56,24.15,24.15,0,0,1-2.42-13.38,19.86,19.86,0,0,1,5.84-12.87A40,40,0,0,1,428.7,386a58.47,58.47,0,0,1,14.58-4.32A56.72,56.72,0,0,1,456.26,380.86Z"/><path d="M523.05,390.52a19.28,19.28,0,0,0-5,.7,16.11,16.11,0,0,0-4.73,2.11,11.47,11.47,0,0,0-3.42,3.52,8.84,8.84,0,0,0-1.31,4.73q0,2.22,2.52,3.72a32.81,32.81,0,0,0,6.33,2.82c2.55.87,5.26,1.68,8.15,2.41a59,59,0,0,1,8.15,2.72,23.33,23.33,0,0,1,6.33,3.82,7,7,0,0,1,2.52,5.43,6.66,6.66,0,0,1-2.11,4.33,31.36,31.36,0,0,1-5.53,4.63,67.1,67.1,0,0,1-7.45,4.32q-4,2-7.74,3.72a68.49,68.49,0,0,1-6.74,2.72,34.21,34.21,0,0,1-4.23,1.21,7.28,7.28,0,0,1-3.92-.71,13.6,13.6,0,0,1-3.52-2.41A13.46,13.46,0,0,1,498.7,437a7.09,7.09,0,0,1-1-3.42c0-.94,1.34-1.94,4-3s5.63-2.21,8.85-3.42a89.69,89.69,0,0,0,8.65-3.72c2.55-1.27,3.62-2.65,3.22-4.12-.13-.41-1-.74-2.61-1l-6-1c-2.41-.4-5-.9-7.74-1.51a37.3,37.3,0,0,1-7.65-2.51,17.9,17.9,0,0,1-5.83-4.12,9,9,0,0,1-2.32-6.34,19.75,19.75,0,0,1,2.52-9.76,25.25,25.25,0,0,1,6.84-7.84A31.6,31.6,0,0,1,510,380.06a45.2,45.2,0,0,1,13.08-1.81q8.64,0,12.87,3.21a14.69,14.69,0,0,1,5.43,7,11.7,11.7,0,0,1,.3,6.94q-.9,3.21-2.31,3.21a7.09,7.09,0,0,1-4-1.2c-1.21-.81-2.45-1.71-3.72-2.72s-2.59-1.94-3.93-2.81A8.3,8.3,0,0,0,523.05,390.52Z"/><path class="cls-3" d="M260.21,503.36a2.9,2.9,0,0,1,1.92.8,11.14,11.14,0,0,1,1.61,1.81,16.6,16.6,0,0,1,1.1,1.81,3.52,3.52,0,0,1,.4,1c-.27.67-1.5,1.84-3.72,3.52a64.15,64.15,0,0,1-8.65,5.33A74,74,0,0,1,241,522.57a43.2,43.2,0,0,1-13.37,2.11,77.22,77.22,0,0,1-17.21-1.81,42,42,0,0,1-13.78-5.63,25.64,25.64,0,0,1-8.85-9.56,24.15,24.15,0,0,1-2.41-13.38,20.38,20.38,0,0,1,4.12-10.76,32.62,32.62,0,0,1,8.75-7.75,46.92,46.92,0,0,1,11.37-5,66.28,66.28,0,0,1,11.77-2.42,7.22,7.22,0,0,0,1.81-.2,14.86,14.86,0,0,0,1.71-.1,13.35,13.35,0,0,1,1.51-.1q10.86,0,17.4,2.36t6.94,5.84a6,6,0,0,1-1.61,4.67,13.65,13.65,0,0,1-4.32,3.22,12.74,12.74,0,0,1-5.13,1.31,6.54,6.54,0,0,1-4.43-1.31c-.67-.4-1-.83-1-1.3v-1.51a4.57,4.57,0,0,0-.2-1.41c-.13-.4-.67-.74-1.61-1a36.54,36.54,0,0,0-14.78,2.7,27.26,27.26,0,0,0-9.66,6.7,16.69,16.69,0,0,0-4.22,8.61,12.44,12.44,0,0,0,1.71,8.6q2.42,4,8.14,6.7t15.19,2.7A34.14,34.14,0,0,0,240.1,513a73.36,73.36,0,0,0,9.35-3.92q4.13-2.11,6.94-3.92C258.27,504,259.54,503.36,260.21,503.36Z"/><path class="cls-3" d="M335.46,523.67a5.65,5.65,0,0,1-2.52,1.51,19.57,19.57,0,0,1-4.32,1,27.18,27.18,0,0,1-4.63.2,5.56,5.56,0,0,1-3.22-.91q-1.62-.6-2.41-5a61.62,61.62,0,0,1-.81-10.87,30.41,30.41,0,0,1-3.62,5.84,25.6,25.6,0,0,1-5.33,5,28.08,28.08,0,0,1-7.34,3.62,29.8,29.8,0,0,1-9.46,1.4A15.29,15.29,0,0,1,281.34,522a23.52,23.52,0,0,1-6.24-8.85,45,45,0,0,1-3-11.77,79.3,79.3,0,0,1-.61-12.47,3.24,3.24,0,0,1-2.21-2.61,16.84,16.84,0,0,1-.5-5,25.2,25.2,0,0,1,.8-5.54,17.33,17.33,0,0,1,1.51-4.12,14,14,0,0,1,9.25-3.22c3.22.14,5.5.94,6.84,2.42.81.67,1.34,2.21,1.61,4.62s.44,5.27.51,8.55.13,6.78.2,10.46.26,7.11.6,10.26a26.73,26.73,0,0,0,1.81,7.75q1.31,3,3.92,3a11.16,11.16,0,0,0,7.85-3.22,27.89,27.89,0,0,0,5.83-8.15,63.47,63.47,0,0,0,4-10.66q1.61-5.73,2.71-10.77t1.81-8.65c.47-2.41.91-3.82,1.31-4.22a7.49,7.49,0,0,1,3.52-1.61,13.35,13.35,0,0,1,4.33-.1,11.39,11.39,0,0,1,4,1.31,5,5,0,0,1,2.41,2.61,9.42,9.42,0,0,1,.71,3.22q.3,2.63.5,6.34c.13,2.48.27,5.26.4,8.35s.21,6.17.21,9.25Q335.66,510.2,335.46,523.67Z"/><path class="cls-3" d="M392,466.54q7.25,0,11.27,3.32a15.37,15.37,0,0,1,5.23,7.34,11.53,11.53,0,0,1,0,7.35q-1.22,3.31-4.23,3.32c-.54,0-1.11-.41-1.71-1.21a20.38,20.38,0,0,0-2.41-2.62,18.6,18.6,0,0,0-3.72-2.61,12.13,12.13,0,0,0-5.84-1.21,9.67,9.67,0,0,0-7,3.32,35.6,35.6,0,0,0-5.83,8.25,73.11,73.11,0,0,0-4.63,10.86q-2,5.94-3.52,11.07c-1,3.42-1.85,6.33-2.52,8.75a16.4,16.4,0,0,1-1.4,4,7.79,7.79,0,0,1-3.83,1.61,17.22,17.22,0,0,1-4.92.1,14.77,14.77,0,0,1-4.63-1.31,4.94,4.94,0,0,1-2.72-2.61,10.32,10.32,0,0,1-1-4.63c-.14-2.28-.2-5.13-.2-8.55V499.23q0-6.74-.21-14.58c-.8-.14-1.4-.84-1.81-2.12a15.14,15.14,0,0,1-.6-4.52,40.22,40.22,0,0,1,.4-5.53,33.6,33.6,0,0,1,1-4.93,6.38,6.38,0,0,1,2.81-1.61,32,32,0,0,1,4.83-1.31,21.91,21.91,0,0,1,5-.4,6.06,6.06,0,0,1,3.42.9c.54.27,1,1.31,1.51,3.12a38.27,38.27,0,0,1,1,6.54c.2,2.55.36,5.2.5,7.95s.2,5.19.2,7.34a59.91,59.91,0,0,1,6.24-11.67,40.45,40.45,0,0,1,8-8.15A18,18,0,0,1,392,466.54Z"/><path class="cls-3" d="M459,468q9.66,1,14.78,3.92t6.74,6.74a11.09,11.09,0,0,1,.2,8.05,19.58,19.58,0,0,1-4.82,7.64,23.15,23.15,0,0,1-11.57,6.64,49.8,49.8,0,0,1-13.18,1.41,56.83,56.83,0,0,1-11.77-1.51q-5.33-1.3-7.14-1.91c-.4-.13-.74-.6-1-1.41a4.45,4.45,0,0,1-.1-2.51,4.21,4.21,0,0,1,1.3-2.22,3,3,0,0,1,3-.3q10.26,2,18.11.1t11.66-5.13c2.55-2.14,3.35-4.19,2.42-6.13s-4.23-2.92-9.86-2.92a25.15,25.15,0,0,0-11.57,2.72,27.87,27.87,0,0,0-8.75,6.74,21.63,21.63,0,0,0-4.62,8.75,12.19,12.19,0,0,0,.8,8.75q2,4,7.54,6.74t15.59,2.71A34.14,34.14,0,0,0,468,513a72.47,72.47,0,0,0,16.19-7.84c1.82-1.21,3.05-1.81,3.73-1.81a2.88,2.88,0,0,1,1.91.8,10.69,10.69,0,0,1,1.61,1.81,16.6,16.6,0,0,1,1.1,1.81,3.7,3.7,0,0,1,.41,1q-.41,1-3.73,3.52a63.52,63.52,0,0,1-8.65,5.33,74,74,0,0,1-11.87,4.93,43.2,43.2,0,0,1-13.37,2.11,77.51,77.51,0,0,1-17.1-1.81,40.69,40.69,0,0,1-13.78-5.63,25.85,25.85,0,0,1-8.75-9.56,24.06,24.06,0,0,1-2.42-13.38,19.81,19.81,0,0,1,5.84-12.87,40,40,0,0,1,12.27-8.35A58.92,58.92,0,0,1,446,468.75,57.22,57.22,0,0,1,459,468Z"/><rect x="35.02" y="448.36" width="462.95" height="12.4" rx="3.75" ry="3.75"/><path d="M212.19,346.93l-.51.21c-1.3.56-2.61,1.14-3.91,1.68a18.41,18.41,0,0,1-2.18.79,4.66,4.66,0,0,0-1.72.79c-.12.1-.27.19-.41.29-.09-.22-.15-.38-.22-.57-.17.06-.33.09-.46.15a9.05,9.05,0,0,0-2.28,1.39c-.16.14-.3.33-.62.27,0-.17-.07-.34-.1-.52s-.18-.29-.38-.21a1.47,1.47,0,0,0-.28.14,13.37,13.37,0,0,0-2.79,2.18l-.25.15c-.32-.27-.32-.75-.75-.95a15.93,15.93,0,0,0-3.43,3.38c-.53-.31-.4-1-.88-1.37a2.8,2.8,0,0,0-.47.38c-.63.75-1.27,1.52-1.89,2.31a3.62,3.62,0,0,0-.38.5c-.29-.42-.29-.91-.71-1.21a10.22,10.22,0,0,0-2.41,3.13l-.93-.79c-.87,1.25-1.69,2.41-2.55,3.63l-.23-.33c-.31-.47-.39-.47-.77-.08a2.93,2.93,0,0,0-.39.48c-.35.54-.68,1.07-1,1.61-.11.2-.26.39-.4.62-.22-.18-.38-.33-.57-.5-.3.4-.58.79-.85,1.19a12.21,12.21,0,0,0-.8,1.13c-.25.39-.45.82-.68,1.26l-.52-.44c-.18.18-.37.34-.51.51a19.9,19.9,0,0,0-2.55,3.93,3.9,3.9,0,0,1-.22.36l-.46-.37c-.15.14-.29.26-.41.39s-.38.49-.55.75a35.68,35.68,0,0,1-5.28,6l-.3.25-.09-.07c.14-.26.28-.53.43-.79a64.68,64.68,0,0,1,4-5.51A22.43,22.43,0,0,0,171.1,371a9.57,9.57,0,0,1,1.82-2.09l1.34-1.21a4.67,4.67,0,0,0,.64-1.09l-.6-.23.45-.5c.52-.53,1.06-1,1.55-1.59a15,15,0,0,0,1.1-1.29c.13-.18.28-.36.18-.61l-.51-.22a6.39,6.39,0,0,1,.39-.52c.28-.28.58-.54.86-.81l1.39-1.38a1.74,1.74,0,0,0,.45-.87l-.55-.36c.16-.19.26-.36.4-.51l.87-.87a19,19,0,0,0,1.53-1.59c.46-.58.42-.53,0-1.11a3.49,3.49,0,0,1,.39-.49c.45-.42.93-.81,1.35-1.26a5.14,5.14,0,0,0,.65-1,.29.29,0,0,0-.18-.45c-.22-.09-.44-.16-.74-.26.21-.19.39-.32.55-.47.46-.45.94-.9,1.39-1.37a2,2,0,0,0,.35-.67c.1-.26,0-.36-.28-.42l-.45-.12c.22-.23.38-.42.55-.59l1.25-1.29a4.05,4.05,0,0,0,.46-.68.37.37,0,0,0-.24-.57c-.19-.07-.38-.11-.64-.2a15.49,15.49,0,0,0,2.78-3.42l-1.33-.44.45-.46c.48-.52,1-1,1.42-1.57a4.25,4.25,0,0,0,.62-.94c.22-.45.1-.62-.39-.68-.84-.09-.9-.23-.4-.93a13.56,13.56,0,0,0,1.47-2.7,2.47,2.47,0,0,0,.19-.64c0-.33-.08-.47-.42-.5s-.4,0-.69,0c.17-.35.29-.58.4-.83.32-.74.67-1.48,1-2.22a2.33,2.33,0,0,0,.15-.75c0-.23-.12-.34-.36-.29s-.37,0-.63.06c.1-.25.18-.41.24-.55.26-.57.52-1.14.75-1.7a5.22,5.22,0,0,0,.19-.78l-.57-.21.26-.59c.13-.33.31-.65.41-1a1.22,1.22,0,0,0,0-.75,1.45,1.45,0,0,1-.07-1A40.49,40.49,0,0,1,194,315.5c.26-.71.48-1.44.7-2.16a3,3,0,0,0,.09-.51l-.12,0a11.46,11.46,0,0,0-1.29,2c-.22.44-.41.87-.64,1.29-.62,1.06-1.26,2.09-1.88,3.15-.32.55-.63,1.13-.92,1.71-.07.17-.16.28-.35.23a.54.54,0,0,0-.63.39c-.16.45-.31.92-.44,1.37s-.16.34-.42.21l-.35-.18a6,6,0,0,0-.88,2.61c-.33-.18-.61-.31-.9-.45-.54.78-.44,1.74-.75,2.59l-.74-.46a4.51,4.51,0,0,0-.45.69,4.87,4.87,0,0,0-.48,1.83,5.89,5.89,0,0,1-.1.68c-.44-.23-.79-.43-1.18-.65-.1.23-.2.4-.26.59a10.6,10.6,0,0,0-.51,2.67c0,.23,0,.49-.21.7l-1-.58a5.23,5.23,0,0,0-.23.85c-.12.76-.22,1.5-.32,2.25-.06.49-.26.59-.68.32-.15-.1-.29-.22-.48-.36a8.3,8.3,0,0,0-.62,3.51l-1-.53a.94.94,0,0,0-.42.73c-.19,1-.36,2-.54,3a2.47,2.47,0,0,1-.16.76c-.43-.33-.82-.61-1.24-.92a23.34,23.34,0,0,0-.7,4.66c-.41-.18-.77-.34-1.2-.55-.08.39-.13.71-.19,1-.13.92-.25,1.83-.39,2.74a2.91,2.91,0,0,1-.21.58c-.21-.07-.34-.13-.49-.17-.33-.1-.42-.06-.52.27a1.25,1.25,0,0,0-.07.31c-.06.68-.13,1.36-.19,2s-.07,1.15-.13,1.77l-1-.46c-.06.22-.1.36-.13.51l-.22,2.3c0,.52,0,1-.07,1.55a.53.53,0,0,1-.28.52c-.2.09-.29-.1-.42-.21-.33-.28-.52-.22-.59.2s0,.65-.06,1a.8.8,0,0,1-.27.67c-.11-.29-.18-.52-.26-.77-.28,0-.54,0-.9.07.08-.21.14-.37.21-.52.24-.54.5-1.06.73-1.59a9,9,0,0,0,.42-1.27c.13-.58,0-.69-.58-.65,0,0-.06,0-.15-.07.06-.17.13-.36.21-.55.37-.87.75-1.73,1.11-2.6a1.4,1.4,0,0,0,.13-1l-.85-.1c.06-.22.11-.38.17-.54.19-.46.39-.91.55-1.39.24-.66.42-1.33.61-2a.68.68,0,0,0-.11-.73l-1,.07c.11-.26.19-.43.26-.59.36-.85.74-1.71,1.07-2.57a4,4,0,0,0,.19-.91c0-.43-.13-.55-.57-.45-.2.06-.4.12-.75.2.65-1.52,1.45-2.87,1.38-4.48-.47,0-.83.4-1.35.18.12-.25.2-.48.32-.7a11.09,11.09,0,0,0,1.13-3,2,2,0,0,0,0-1.26l-1.08.12a8.91,8.91,0,0,0,.3-.84c.26-.82.54-1.63.76-2.46.13-.46,0-.55-.45-.53a4.87,4.87,0,0,0-.55.06H168c.19-.7.38-1.36.51-2a5.54,5.54,0,0,0,.15-2.07c-.47,0-.82.33-1.3.21a10.27,10.27,0,0,0,.72-4c-.45-.06-.83.22-1.27.06a14.19,14.19,0,0,0,.55-4.05l-1,.1a2.8,2.8,0,0,0,0-.3,7.82,7.82,0,0,0,.16-2.41c0-.26-.06-.48-.39-.46s-.29-.16-.32-.34a2,2,0,0,1,0-.42c0-.53,0-1.08.06-1.63a4.07,4.07,0,0,0-.05-.61l-.59-.08c0-.27,0-.53,0-.78a4.43,4.43,0,0,0-.09-1.32,8,8,0,0,1-.36-1.85,62,62,0,0,1-.34-6.24c0-.62,0-1.26-.11-1.9a2,2,0,0,0-.1-.49.41.41,0,0,0-.16.29c-.31,2.23-.61,4.47-.93,6.68-.15,1-.35,1.93-.52,2.89-.1.55-.23,1.1-.28,1.67s0,.71-.75.72a5.88,5.88,0,0,0,0,.6c0,.34,0,.68,0,1,0,.11-.08.31-.16.33-.37.06-.39.36-.42.62,0,.44,0,.89,0,1.34,0,.26-.07.53-.1.78-.73.06-.81.13-.87.8a4.31,4.31,0,0,0,.17,1.82l.1.44c-.46.1-.87-.13-1.34-.1a31.71,31.71,0,0,0,.36,4.3H158a8,8,0,0,0,.58,3.6c-.07,0-.1.06-.14.06s-.23,0-.35,0c-.67-.06-.9.14-.75.78s.35,1.19.52,1.77c0,.17.09.35.16.61l-.58-.07a5,5,0,0,0-.55,0,8,8,0,0,0,.93,3.53l-1.38-.21a9.66,9.66,0,0,0,.39,2.48c.23.79.51,1.58.77,2.39-.54.16-1-.15-1.55-.06a33.67,33.67,0,0,0,1.32,4.31c-.08.05-.1.08-.15.08h-.51c-.42,0-.49.06-.4.48a18.12,18.12,0,0,0,1.14,3.4,4.29,4.29,0,0,1,.16.43c-.46.11-.88-.06-1.32.17.06.27.11.56.19.84.38,1,.77,2.09,1.16,3.13.06.18.1.35.18.6l-.66.07c-.46,0-.53.13-.43.58a15.65,15.65,0,0,0,1.27,3.75c.09.18.15.37.24.58l-.64.08c-.29,0-.35.11-.29.4a4.29,4.29,0,0,0,.2.86l1.28,3.36c.07.18.11.34.17.52h-.88a1.31,1.31,0,0,0,.06.34c.47,1.33.94,2.65,1.45,4,.08.23.14.39-.06.6a.6.6,0,0,0-.15.62c.15.67.26,1.35.42,2,.32,1.35.73,2.69,1,4.05a24.83,24.83,0,0,1,.28,2.67,1.36,1.36,0,0,0-.16-.06,1.83,1.83,0,0,1-.16-.26,42.44,42.44,0,0,1-2.61-6.77c-.3-1.11-.61-2.22-.91-3.32-.09-.29-.22-.57-.34-.87l-.45.2a1.32,1.32,0,0,1-.33-.77c-.19-.85-.35-1.71-.55-2.57-.16-.71-.36-1.4-.55-2.17l-1,.72c-.27-1-.49-2-.78-3s-.59-2-1-3l-1.08.74a19.65,19.65,0,0,0-1.4-5.39l-.73.53c-.11-.35-.18-.59-.24-.85-.17-.77-.34-1.54-.53-2.31a4.17,4.17,0,0,0-.29-.72c-.42,0-.53.53-1,.53a6,6,0,0,1-.13-.69,12.32,12.32,0,0,0-.46-2.69,4.87,4.87,0,0,0-.22-.56l-1.16.83c-.09-.29-.15-.51-.22-.72l-1-3.14a2.72,2.72,0,0,0-.27-.54,1.3,1.3,0,0,0-.28.16c-.69.48-.82.44-1-.42-.1-.43-.19-.87-.32-1.3a.74.74,0,0,0-.47-.61l-1,.78a10.31,10.31,0,0,0-.79-3.76c-.54,0-.73.57-1.16.69-.67-2.66-1.12-3.8-1.66-4.25-.27.22-.53.45-.87.72-.05-.23-.08-.42-.13-.59a6.47,6.47,0,0,0-.79-2.05c-.21-.32-.32-.33-.6-.17-.46.28-.56.25-.8-.25-.08-.19-.14-.39-.21-.58-.18-.48-.35-1-.57-1.43a5,5,0,0,0-.43-.71l-.64.81c-.07-.06-.12-.07-.13-.1a2.46,2.46,0,0,1-.07-.29,8.21,8.21,0,0,0-1.12-2.42c-.13-.19-.33-.44-.52-.45a.87.87,0,0,1-.74-.63,16.85,16.85,0,0,0-1.71-2.62c-.84-1.12-1.58-2.29-2.38-3.42-.55-.8-1.12-1.57-1.7-2.35-.1-.13-.23-.25-.35-.38a.36.36,0,0,1-.1.07c1.21,2.85,2.67,5.6,3.31,8.66l-.36.12a7.43,7.43,0,0,0,.21.9c.21.55.45,1.08.66,1.62.08.2.11.41.17.61l-.22.07c-.37.13-.45.22-.35.58a1.7,1.7,0,0,0,.18.44c.39.62.78,1.24,1.19,1.87.08.14.21.27.37.49a6.27,6.27,0,0,0-.69,0,.3.3,0,0,0-.26.45,1.74,1.74,0,0,0,.2.41c.39.51.78,1,1.19,1.49.1.15.22.28.38.48l-.9.43a1.27,1.27,0,0,0,.35.83c.46.62.94,1.23,1.4,1.86.1.14.19.29.32.49a5.44,5.44,0,0,0-.8.25c-.27.08-.33.21-.19.46a3.19,3.19,0,0,0,.47.61c.56.59,1.16,1.17,1.74,1.77.1.1.19.22.29.33-.45.25-1,.09-1.34.63a8.39,8.39,0,0,0,.63.79c.81.86,1.65,1.7,2.48,2.55.13.12.24.27.37.4-.49.29-1.07.24-1.46.69a5.72,5.72,0,0,0,.46.51l2.27,1.78.46.35c-.22.12-.38.2-.52.29-.57.33-.6.49-.13,1a12.84,12.84,0,0,0,2.52,2.05c.17.1.41.17.46.5l-1,.38a1.5,1.5,0,0,0,.54.9c.58.51,1.19,1,1.78,1.48.19.17.37.35.61.58l-1.11.54a5.47,5.47,0,0,0,.56.74c.64.58,1.31,1.11,2,1.66.22.19.48.34.7.52s.25.45-.12.61c-.13.06-.27.1-.49.18a3.62,3.62,0,0,0,.32.48,7.87,7.87,0,0,0,.81.72c.67.51,1.37,1,2,1.48l.4.3c0,.09,0,.12,0,.12a.28.28,0,0,1-.1.12c-.33.29-.37.42-.11.76a3.25,3.25,0,0,0,.59.64l2.71,2.13.51.4-.57.2a3,3,0,0,0,.28.51,10.85,10.85,0,0,0,1.09,1.16c.5.46,1.07.85,1.59,1.29a3.6,3.6,0,0,1,1.12,1.33,2.1,2.1,0,0,0,.45.62c.43.47.88.92,1.33,1.37.89.85,1.8,1.69,2.67,2.58a15,15,0,0,1,2.42,3.06l.78,1.33c.06.09.11.19.16.28a2.45,2.45,0,0,1-.76-.44,30.69,30.69,0,0,1-4.33-4.2c-.52-.63-1.07-1.25-1.6-1.87-.14-.15-.31-.26-.48-.42-.18.23-.34.42-.51.62-.36-.54-.67-1-1-1.51s-.67-.91-1-1.35a7.5,7.5,0,0,0-1.16-1.3l-.29.37-.26.35c-1.58-2.3-2.18-3.07-2.71-3.43-.37.19-.31.66-.61.95a18.3,18.3,0,0,0-3-3.62c-.25.33-.45.61-.69.91a16.09,16.09,0,0,0-2.78-2.94c-.26.38-.48.68-.71,1a16.12,16.12,0,0,0-3-3.38c-.2.45-.38.81-.58,1.23a22.23,22.23,0,0,0-3.6-3.59l-.55,1.37a19.11,19.11,0,0,0-3.11-2.69l-.48.87c-1.51-1.45-2-1.87-2.6-2.05l-.38.7a13.58,13.58,0,0,0-2.82-1.74c-.08.2-.15.36-.23.57l-.5-.24c-.53-.26-1.07-.55-1.61-.79a2,2,0,0,0-1.08-.25,1.26,1.26,0,0,1-.5-.12c-1.68-.66-3.35-1.36-5-2a16,16,0,0,0-1.83-.51,1,1,0,0,0-.34,0,.42.42,0,0,0,0,.12l.75.52c.83.52,1.68,1,2.5,1.55s1.65,1.22,2.46,1.85a3,3,0,0,1,.58.7,4.1,4.1,0,0,0,.45.62c.51.4,1.06.76,1.59,1.12.19.13.45.23.41.48-.12.59.28.84.67,1.1s1,.62,1.53.94c.19.12.34.26.57.44-.25.22-.45.38-.64.53a2.89,2.89,0,0,0,1.47,1.27c.4.2.81.36,1.21.55.18.08.38.16.45.37-.39.25-.46.47-.23.83a1.57,1.57,0,0,0,.57.52c.64.34,1.29.61,2,.92l.5.21-.58.6a2.22,2.22,0,0,0,.39.45,13.22,13.22,0,0,0,4,1.75l-.51.51c-.26.27-.27.35-.07.67a1.57,1.57,0,0,0,1,.63c.8.19,1.61.35,2.42.53a2.52,2.52,0,0,1,.29.1,1.17,1.17,0,0,1-.14.24c-.36.5-.35.73.1,1.14a1.83,1.83,0,0,0,.59.37,9.11,9.11,0,0,0,1.28.42c.38.12.77.18,1.16.28s.44.17.38.49a.7.7,0,0,0,.46.83,9.75,9.75,0,0,0,1.31.48c.58.17,1.19.3,1.78.46a.65.65,0,0,1,.57.62.77.77,0,0,0,.66.76l.5.11c1,.18,2.1.34,3.16.53.53.08,1.08.17,1.32.79,0,.09.17.16.27.21a5.64,5.64,0,0,0,.7.21c3.07.87,6.12,1.82,9.12,2.9a3.36,3.36,0,0,0,.33.16,1.33,1.33,0,0,1-.58.09l-4.58-.12c-.29,0-.58.05-.87.06s-.61.12-.61.54a.84.84,0,0,1-.29,0,5.88,5.88,0,0,0-2.09-.14c-.45,0-.9.09-1.33.14-.18,0-.32.09-.32.34,0,.45,0,.48-.47.52a5.28,5.28,0,0,0-.56,0c-.73.11-1.45.19-2.18.32a2.06,2.06,0,0,0-.52.25c.12.3.19.54.28.75-.09.06-.1.09-.13.1l-.26.05a7.68,7.68,0,0,0-2.24.75,1.2,1.2,0,0,0-.47.45c-.06.12,0,.32.1.55-.24.15-.47.31-.71.45l-.87.48a.94.94,0,0,0-.5.67,1.23,1.23,0,0,1-.53.8c-1.32,1-2.64,2.07-4,3.13-.47.37-.93.77-1.38,1.16a3,3,0,0,0-.36.5.34.34,0,0,0,.07.11,6.09,6.09,0,0,0,.73-.21c1.29-.46,2.56-.95,3.87-1.39a10,10,0,0,1,2.33-.56,9,9,0,0,0,3.1-.89l.51-.23c.09.22.15.39.22.55s.25.36.57.26a3.13,3.13,0,0,0,.56-.23l1.09-.6a.9.9,0,0,1,1,0,.9.9,0,0,0,.88.06c.4-.16.77-.33,1.15-.49a11.21,11.21,0,0,1,1.28-.55,1.31,1.31,0,0,1,.78-.05,1.35,1.35,0,0,0,1.1-.05l1.75-.86c.34-.14.66-.3,1-.43s.42-.12.57.08.52.28.81.12l.61-.29,4.91-2.71,1.25-.68a1.58,1.58,0,0,1,.3,1.06,37.66,37.66,0,0,1-.14,5.72h.85c.13-1.64.21-3.29.32-4.93A14.46,14.46,0,0,1,163,384c.09-.52.28-.65.8-.72a4.65,4.65,0,0,1,2.19.14l1.46.48c2.21.71,4.4,1.45,6.61,2.13a15.33,15.33,0,0,0,4.5.81,4.22,4.22,0,0,1,1.84.44,5,5,0,0,0,1,.32,1,1,0,0,0,1-.18.83.83,0,0,1,.81-.2c.42.09.83.2,1.25.28a9.19,9.19,0,0,0,1.48.17c.45,0,.58-.14.59-.59s.16-.41.41-.42l.87-.06c.66,0,1.33,0,2-.06a1.4,1.4,0,0,0,1-.41,1.51,1.51,0,0,1,.95-.36c.3,0,.6,0,.91-.07a1.73,1.73,0,0,0,.7-.2,2.44,2.44,0,0,1,1.6-.42c1,0,1.92,0,2.89,0,1.15,0,2.29,0,3.45-.07a2.45,2.45,0,0,0,.36-.07.8.8,0,0,0-.2-.19l-.43-.28a23,23,0,0,0-3.93-1.67c-.25-.08-.51-.1-.76-.17a4.35,4.35,0,0,1-.58-.27,3.43,3.43,0,0,0-.81-.41c-.86-.19-1.73-.32-2.58-.46-.19,0-.35-.09-.36-.29s-.18-.32-.38-.34c-.46,0-.93,0-1.39-.06-.68,0-.63,0-.79-.61l-.07-.1c-.42,0-.84,0-1.26,0s-.87.08-1.33.08c0-.36.08-.63.13-1a14.43,14.43,0,0,0-2.9.53c-.06-.66-.09-.7-.7-.63s-1.22.23-1.81.35l-.49.1c-.08-.27-.12-.48-.19-.74a23.36,23.36,0,0,0-3.83,1.13c0-.29,0-.52-.07-.79a12,12,0,0,0-3.84.95c-.27-.48-.27-.48-.77-.39l-.9.19L167.12,381a1.52,1.52,0,0,1-.79.05l.5-.32c1.08-.47,2.15-1,3.25-1.45,2.08-.86,4.16-1.69,6.22-2.58a4.41,4.41,0,0,0,1.34-.75,7.61,7.61,0,0,1,2.17-1.25c.57-.23,1.12-.45,1.67-.69a.65.65,0,0,0,.39-.31,1.35,1.35,0,0,1,.81-.66c.41-.15.83-.25,1.23-.37.66-.17,1.31-.3,2-.52a3.33,3.33,0,0,0,.81-.51c.16-.13.14-.29,0-.46l-.37-.52a5.2,5.2,0,0,1,.55-.34c.48-.2,1-.36,1.45-.55s1.24-.48,1.85-.75a2.91,2.91,0,0,0,.68-.46c.21-.19.18-.32,0-.51l-.38-.34a1.17,1.17,0,0,1,.75-.4c.7-.23,1.41-.44,2.11-.7a2.64,2.64,0,0,0,.82-.59c.31-.29.26-.6,0-.9l-.43-.42a13,13,0,0,0,3-1.34,3.3,3.3,0,0,0,.6-.4c.26-.23.26-.38.06-.67-.09-.13-.19-.26-.31-.45.47-.19.87-.32,1.25-.51a9.91,9.91,0,0,0,1.51-.88c.39-.29.34-.48,0-.81a1.31,1.31,0,0,1-.17-.2,3.65,3.65,0,0,1,.48-.37c.45-.26.91-.48,1.36-.74a5.54,5.54,0,0,0,.85-.58c.34-.29.32-.43,0-.76l-.2-.29.7-.4c.49-.24,1-.47,1.46-.75a5,5,0,0,0,.62-.48l-.68-.65.55-.35a9.08,9.08,0,0,0,1.89-1.42,1.45,1.45,0,0,0,.35-.44,3.3,3.3,0,0,1,.94-1.21c.93-.86,1.88-1.7,2.84-2.54.41-.36.84-.71,1.26-1.06C212.17,347.31,212.32,347.19,212.19,346.93Zm-44.73,14.91a4.54,4.54,0,0,1-.08,2.68l-.53-.12c-.06.24-.12.45-.18.71-.14-.08-.27-.17-.46-.3A11.71,11.71,0,0,1,167.46,361.84Zm-2.29,8.06a13.19,13.19,0,0,1,.5-1.23c.12-.26.28-.5.41-.74a4.79,4.79,0,0,1-.77,2.87A.85.85,0,0,1,165.17,369.9Z"/><path d="M166.21,364.81a11.22,11.22,0,0,1,1.25-3,4.79,4.79,0,0,1-.07,2.68l-.54-.12-.18.72Z"/><path d="M166.08,367.92a4.81,4.81,0,0,1-.76,2.87.82.82,0,0,1-.15-.89,11,11,0,0,1,.51-1.23A7.73,7.73,0,0,1,166.08,367.92Z"/></svg>