<svg xmlns="http://www.w3.org/2000/svg" viewBox="0 0 3030.61 2660.53"><defs><style>.cls-1{fill:#fff;}.cls-2{fill:#ea6307;}</style></defs><g id="Layer_2" data-name="Layer 2"><g id="Text"><path class="cls-1" d="M1470.83,1690.49h0l-.08,0Z"/><path class="cls-2" d="M1968,1764.05c.22,32.84-2.06,35.92-26.77,43.32Q1581.71,1915,1222.25,2023c-13.89,4.18-23.12,1.23-30.46-9.89-26.22-39.73-39.38-83.4-38.11-131.11.29-11.23,5.48-18,17.54-21.57q361.24-107.52,722.25-215.88c23.2-7,27.71-5.84,40.84,15.25C1955.5,1693.86,1965.31,1731.63,1968,1764.05Zm-756.19,249c10.6-39.65-15.92-124.89-42.35-138.73C1158,1907.37,1182.18,1988.16,1211.82,2013Z"/><path class="cls-2" d="M1545.25,1741.53c-98.71,28.18-195.92,56-293.23,83.47-4.75,1.34-10.63.47-15.55-.92-22.26-6.28-44.2-13.73-66.58-19.5-10.93-2.82-15.7-9.59-16.09-19.31-2-50.06,11.32-95.87,41.49-135.94,3.91-5.19,15.63-9.09,21.89-7.27,107.91,31.48,215.53,64,323.2,96.25C1541.35,1738.6,1542.14,1739.45,1545.25,1741.53Z"/><path class="cls-2" d="M1576.59,1923.23q40.1-11.4,80.18-22.81c68.31-19.36,136.56-39,205-57.72,8.72-2.38,19.1-1.85,28,.28,20.38,4.86,40.2,12,60.48,17.32,11.12,2.93,16.69,9.68,17,20.43,1.51,49.4-11.78,94.57-40.21,135.06-6.14,8.75-14.37,11.27-25.39,7.93q-162.12-49.07-324.44-97.47ZM1950.66,1874c-27.86,19.82-53.44,106.64-40.77,138.39C1938.69,1990.35,1964.56,1902.53,1950.66,1874Z"/><polygon class="cls-2" points="610.43 294.79 2420.18 302.38 2420.18 319.9 610.43 312.32 610.43 294.79"/><polygon class="cls-2" points="610.43 338.55 2420.18 346.13 2420.18 359.76 610.43 352.17 610.43 338.55"/><polygon class="cls-2" points="2809.76 290.58 3019.34 278.99 3024.65 323.42 2786.58 340.8 2809.76 290.58"/><polygon class="cls-2" points="2723.81 297.34 2279.37 311.35 2294.65 356.74 2723.11 342.25 2723.81 297.34"/><polygon class="cls-2" points="219.54 286.96 10.21 271.75 10.21 307.97 256.48 334.04 219.54 286.96"/><polygon class="cls-2" points="310.81 292.03 585.58 300.94 588.78 345.51 310.81 340.31 310.81 292.03"/><path class="cls-2" d="M2389,722c24.38,38.78,54.45,74.63,56.74,123.62.36,7.78,4.72,15.37,7.23,23,6.85-2.78,14.34-4.58,20.4-8.55,11.17-7.33,21.63-15.78,32.15-24.05,10-7.86,16.81-16.92,11.66-30.91-1.32-3.59-1.68-9.63.41-12.07,17.29-20.21,6.7-40.49-6.75-52.4-41.58-36.8-64.72-82.91-77.49-135.19-7.87-32.21-27.13-49.32-59.63-53.23-8.91-1.07-17.55-4.41-22.56-5.72.07-63-.19-123.39.28-183.77.52-67.26-27.77-119.42-81.36-158.81-3.35-2.46-53.56-37.54-73-52-34.88-25.91-76.31-36.4-119-39.07-32.94-2.06-66.51-3.49-99.14.35-139,16.34-278.83,27.81-414.9,64.63C1523.63,188.8,1480.91,194.33,1439,196c-141.31,5.62-282.73,8.4-424.89,12.28l15.15-155.63c-2.42-.93-44.52,31.5-65,50.38-6.08-35.41-11.67-67.92-17.7-103C941.8,3.32,878.63,121.59,876,147.3c-4.09,40.59-24.5,58.9-56.51,77.47-33.71,19.55-65.86,38.72-104.9,47-35.94,7.62-69.7,3.77-103.91-5.45a33.11,33.11,0,0,1-11.07-5.54c-25.48-19.44-27-19.39-43.8,8-8.44,13.77-30.27,40-26.19,49.95C537.13,337,543.18,358.9,557,370.88c69.62,60.3,139.36,120.9,213.38,175.55,73.29,54.11,156,92.34,243.57,119.09,18.78,5.74,37.46,11.8,56,17.64-10.87,58-34.57,109.65-63.89,158.54-18.62,31-44.34,54-83.16,58.81-8.8,1.08-20.44,9.24-23.5,17-2.35,6,4.72,18.76,11.18,24.42,20.2,17.7,40,40.68,71.65,21.08,1-.65,2.79-.46,4.17-.32,39.85,4.12,39.85,4.13,74.54-26.41-3.49,18.22-3.76,37.93-11.33,54.27-8.1,17.48-17.52,35.91-38.5,44.78-8.17,3.46-12.79,15.3-23.85,29.52,32,7.15,58.94,19.53,84.14,16.65,17.68-2,40.67-12.58,55.2-25.07,27-23.18,39-56.82,25.67-91.88-14.75-38.67-4.74-66.65,27.55-89,20.84-14.43,42.56-27.62,63.15-42.4,30.89-22.18,60.8-45.74,91.94-67.54,5.88-4.12,17.08-6.2,23.27-3.46,106,47,218.33,61.28,332.51,61,75-.16,145.42-26.64,213.4-55.66,71.76-30.63,141.13-66.83,211.81-100,6.14-2.89,14.63-3.36,21.39-1.93,65.6,14,118,48.78,156,103.75,12.12,17.54,19.88,38.25,28.44,58,6.12,14.14,10.67,29,15.15,43.78,6.83,22.52,14.38,45,19.05,67.95,4.62,22.76,6.15,24.8,28.75,16.91,34.46-12,45.74-27.64,45.44-62.67,0-2.76-.46-6.59,1.08-8.11,24.85-24.57,4.76-43.86-7.48-63.85a52,52,0,0,0-11.32-12.51C2384.11,785.45,2387.45,753.62,2389,722Z"/><path class="cls-2" d="M2386.55,81.61c-6.93-5.38-14.49-6.46-20.62.28-6.63,7.29-4.38,14.48,2.24,21.44,16.64,17.48,20.27,34.15,12,51.43-8.92,18.69-29.58,30.1-52.21,28.52,8.44-21.78,8.59-43.09-2.55-64.14C2311.61,93,2277.89,84,2254.9,100.56c-21.18,15.31-22.91,44.83-4.39,70,6.84,9.29,15.93,16.47,24.61,24.9-7.3,2.26-13.17,3.32-18.29,3.23l19.76,26.74c18-4.62,33.19-15.94,54.52-13.81,44.18,4.43,78.76-33,81.46-77C2414.3,106.38,2388.21,82.9,2386.55,81.61Zm-84.23,88.89c-2.49,4.94-4.62,5.12-8.75,1.61-6.45-5.48-14-9.74-18.85-17.08-2.2-3.87-4.91-7.55-6.49-11.66-2.84-7.38-4.54-15.46,3.82-20.3,8.16-4.73,16.34-3.37,23.23,3.57C2305.78,137.2,2308.89,157.5,2302.32,170.5Z"/><path class="cls-2" d="M3026,272.21c-12.69,0-23.17-.7-33.52.12-53.67,4.17-107.28,8.92-160.94,13.06-20.54,1.6-23.49-2.23-18.32-21.75,11.86-44.84,24-89.61,35.63-134.49,1.46-5.68,17.85-62.83-24.06-71-38.34-7.46-54.9,37.57-59.39,56.71-10.43,44.52-23.32,88.46-35.29,132.62-1.42,5.25-3.31,10.38-5,15.56-8-29.65-13-58.28-14.61-87.09-1.32-23.95-21.68-47.71-47.73-44.93-33.57,3.58-37.51,20.66-35.29,38.82,4.53,36.84,8.53,73.74,13.3,110.55,1.53,11.89-1.9,16.69-14.48,17q-103.09,2.29-206.17,5V319.9l292.53-12c-2.34,15.23-1.76,29.11-22.83,29.71q-134.87,3.84-269.7,8.53v13.62l228-6.19c2.31,18.42,4.47,34.3,6.27,50.23,4.13,36.83,12.28,73.78,11.24,110.47-2.17,76-9.19,151.92-14.37,227.85q-16,233.36-32,466.7-12.27,181.5-23.95,363c-.6,8.92-1.34,17.82-2,26.77,19.94,1,28.86-4.79,29.57-24.7,1.59-43.88,6-87.64,8.89-131.47,8-120.4,15.72-240.82,23.78-361.21,10.8-161.75,22.09-323.46,32.62-485.22,4.42-67.73,8.9-135.19,29.54-200.63,12.81-40.6,22.74-82.11,33.9-123.23,14.73-54.31,28.77-108.81,44.55-162.79,4-13.76,13.28-31.85,25.88-29.62,20.89,3.68,14.86,31.57,11.3,45.73-18.89,75.33-40.2,150.07-60.28,225.1-12.29,46-27.12,91.53-34.88,138.28-7.57,45.57-8.6,92.36-10.8,138.7-8.46,177.15-27,353.6-35.46,530.77-5.57,116.78-15.9,233.34-24,350-1.71,24.48-2.9,49-4.33,73.58,18.24,1.44,15.15-11.76,15.75-20.27,5.73-82.09,10.7-164.25,16.31-246.34,8.12-118.42,11.93-237.36,45.92-352.56,3.22-10.89-4.17-25.16-7.5-37.63-2.52-9.48-9.71-18.79-9.18-27.86,6-103.77,12.88-207.5,19.8-311.23,2.19-32.7,2.11-66,8.47-97.88,8.68-43.56,23-86,33.88-129.13,3.06-12.13,9.1-15.11,20.6-15.82,50.63-3.13,101.23-7,151.8-11.06,23.19-1.83,46.31-4.52,71.09-7C3029,305.81,3027.48,288.88,3026,272.21Zm-26.05,43c-53.63,3.63-107.24,7.94-160.87,11.94-13.36,1-26.76,1.77-39.57,2.6-4-29,12.21-30,32.11-31.14,54.3-3,108.46-8.24,162.7-12.22,8.41-.62,19.19-5.23,22,9.26C3019.13,309.47,3013.3,314.31,3000,315.22Z"/><path class="cls-2" d="M2820.63,67.85s30.42,8,27.16,34-52.15,196.3-52.15,196.3l-52.16,198.47-14.84,224.9L2712,961l-23.54,365.43-14.13,247.36-8.69,7.61s-74.49,28.32-72.24,17.28,17.37-41.91,17.37-41.91l7.79-92L2662,859.91l26.07-418.67,66.64-241.92S2789.48,71.11,2820.63,67.85Z"/><path class="cls-2" d="M2593.38,1598.63s-29.34,258.2-12,261.46,71.71,0,71.71,0,34.77-339,30.42-354.2S2593.38,1598.63,2593.38,1598.63Z"/><path class="cls-2" d="M0,317.57c24.78,2.46,47.9,5.15,71.09,7,50.58,4,101.17,7.93,151.8,11.06,11.51.71,17.54,3.69,20.6,15.81,10.86,43.17,25.2,85.57,33.88,129.13,6.37,31.92,6.28,65.18,8.47,97.88,6.92,103.73,13.85,207.47,19.8,311.24.53,9.07-6.66,18.38-9.18,27.86-3.33,12.47-10.72,26.73-7.5,37.62,34,115.21,37.81,234.14,45.92,352.57,5.61,82.09,10.58,164.24,16.32,246.34.59,8.51-2.49,21.7,15.74,20.27-1.42-24.59-2.62-49.1-4.33-73.59-8.08-116.65-18.42-233.21-24-350-8.44-177.17-27-353.61-35.46-530.77-2.21-46.33-3.23-93.13-10.81-138.69C284.6,434.54,269.77,389,257.49,343c-20.09-75-41.4-149.77-60.29-225.1-3.56-14.17-9.59-42,11.3-45.74C221.11,70,230.35,88,234.38,101.79c15.79,54,29.82,108.49,44.56,162.8,11.16,41.12,21.08,82.63,33.89,123.23,20.64,65.44,25.13,132.9,29.54,200.63C352.9,750.2,364.19,911.92,375,1073.67q12.08,180.58,23.77,361.2c2.9,43.83,7.3,87.59,8.9,131.48.71,19.9,9.62,25.69,29.56,24.7-.68-9-1.42-17.85-2-26.78q-12-181.51-23.94-363-15.78-233.35-32-466.7c-5.18-75.93-12.2-151.82-14.38-227.85C363.85,470,372,433,376.14,396.22c1.79-15.93,3.95-31.82,6.26-50.24l228,6.19V338.55q-134.82-4.68-269.7-8.53c-21.06-.59-20.48-14.47-22.83-29.7l292.53,12V294.79q-103.06-2.73-206.17-5c-12.58-.27-16-5.07-14.47-16.95,4.77-36.81,8.77-73.71,13.29-110.55,2.22-18.17-1.72-35.25-35.29-38.83-26.05-2.78-46.4,21-47.73,44.93-1.6,28.82-6.57,57.44-14.6,87.09-1.68-5.18-3.57-10.3-5-15.55-12-44.16-24.85-88.11-35.29-132.62-4.48-19.15-21-64.17-59.39-56.71-41.9,8.15-25.52,65.29-24.05,71,11.63,44.89,23.77,89.66,35.63,134.5,5.16,19.51,2.22,23.34-18.32,21.75-53.67-4.14-107.28-8.9-160.95-13.07-10.35-.81-20.82-.11-33.52-.11C3.13,281.3,1.67,298.22,0,317.57Zm14.21-29.5c2.86-14.49,13.63-9.88,22-9.25C90.49,282.79,144.66,288,199,291c19.9,1.11,36.14,2.14,32.12,31.15-12.82-.84-26.21-1.61-39.58-2.6-53.62-4-107.23-8.32-160.87-11.95C17.31,306.72,11.49,301.88,14.21,288.07Z"/><path class="cls-2" d="M210.12,61.33s16.3-3.26,39.12,45.63,96.7,366.16,96.7,366.16l35.85,486.75,57,637.41-77.62-23.9s-3.26-77.32-5.43-103.94S326.38,1074,326.38,1074L303.56,714.32,285.09,479.63l-96.7-369.41S182.42,67.85,210.12,61.33Z"/><path class="cls-2" d="M436.72,1580.71s29.34,258.19,12,261.45-71.71,0-71.71,0-34.77-339-30.42-354.2S436.72,1580.71,436.72,1580.71Z"/><path class="cls-2" d="M431.11,1913.26c719.33,253.43,1436.54,254.94,2155.23-.38,40.16,177.84,80.25,355.38,120.76,534.8-392.37,140.42-790.65,216.54-1197.82,212.71-406.44-3.82-806-69.67-1198.69-213.07C350.86,2268.86,390.92,2091.37,431.11,1913.26Z"/><path class="cls-2" d="M326.79,2268.75,31.58,2144.34c13.48-11.84,23.58-20.47,33.48-29.45,48.22-43.76,96.27-87.82,144.66-131.27,9.07-8.13,10.53-16.57,8-30.09-15.93-86.3-31.1-172.82-46.45-259.29-.79-4.4-.89-9-1.54-15.91C310.12,1745,451.87,1799.76,596.07,1847.9c-13.78,2.91-27.53,6.13-41.35,8.69-41.83,7.74-83.66,15.39-125.53,22.7-9.17,1.6-14.88,5.28-17.77,18.3-26.77,120.86-54.16,241.49-81.41,362.18C329.59,2261.67,328.72,2263.41,326.79,2268.75Z"/><path class="cls-2" d="M2982.14,2146.71l-292,123.09c-2.59-12.28-4.42-21.54-6.5-30.71-25.85-113.74-51.93-227.4-77.36-341.29-3-13.46-8.66-17.36-18.58-19.09-52.66-9.18-105.25-19.12-157.85-28.88-1.93-.36-3.77-1.55-8.44-3.55,145.35-46.73,286.4-99.86,426.93-167.52-3.38,22.41-5.85,41.92-9.31,61.14q-19.58,108.69-39.81,217.19c-2.18,11.65-.16,19.17,7.63,26.15,55.66,49.93,111.09,100.27,166.59,150.49l8.72,7.91Z"/><path class="cls-2" d="M2391.26,1947l-13.74-79.62,153.94,31.18.75,3.24Z"/><path class="cls-2" d="M486.91,1899l152.85-31.17c-4.41,26.14-8.75,51.78-13.45,79.62l-139.68-44.61C486.72,1901.51,486.81,1900.23,486.91,1899Z"/><path class="cls-1" d="M712.23,2096.56l.84,1.45,1.15.32,7.25.82,6.93,1.93,2.85,3.2,1.46-.8c.13-.45.19-.68.31-1.13,21.06,5.36,35.77,22.53,48.11,39.19,1.77,2.84,2.65,4.27,4.43,7.11q-.72,2.82,3.88,9.37,1.37,19.52,2.87,39l1.19.3c-.66,2.7-1,4.06-1.66,6.76l-2.87,6.48c.07,3.84.11,5.77.18,9.61q-3.6-.88-4.16,1.37c2.4.59,3.33,2,2.77,4.27-2.6,8.9-6.55,29.32-17.1,32.87l.1,4.81c-8.7,8-17.39,15.75-27.59,21.81-20.43,11.35-44.14,15-66.79,8.69-5.92-1.63-8.87-2.46-14.78-4.12-8.24-2.8-12.35-4.21-20.58-7.07l-2.25,7.81q-.64,2.24-4.34,1.17c.44,4,.67,6,1.12,10l-4.41,6,1.83,2.94L627.22,2326c-1.18,5.95-1.77,8.92-2.94,14.87l-3.8,3.74,1.87,3c-.52,1.78-.78,2.67-1.29,4.46l-3.48,2.62c.74,1.19,1.12,1.78,1.87,3-1.55,5.36-2.32,8-3.87,13.39l-1.58.76.94,1.48-1,3.35-2.53-.74c-.53,11.77,5,23.5,17.12,26.64l1,1.47c3.69.56,5.54.84,9.24,1.38l3.83,1.07,1.93,2.94c-12.82,7-29.85,18.08-44.4,15.23-8-1.56-20.63-5.29-22.07-14.93l-1.61.73-2.56-.76-9.56-5.29a33.79,33.79,0,0,1-25.72,1.86c-15.24-4.7-24.49-15-33.33-27.57-1.62-5.41-2.42-8.11-4-13.51l1.62-.7,5.06,1.64c8.7,2.85,23.95,8.9,30.62,0a79.85,79.85,0,0,0,11.05-22.1c-.17-3-.26-4.46-.43-7.44l2.08-6.65c2.39-4.12,3.58-6.18,6-10.31l-1.8-3c1-3.1,1.46-4.65,2.43-7.76l3.32-6.26-.9-1.5.35-1.11,5.79-5.49c-2.47-.77-3.48-1.89-3-3.38l3-5.15,1.2-8.15,7-13.65c-1.23-.38.75-8.2-.37-15.94-1.1-7.56-6.63-14.27-8.65-14.91l-2.22-5.58c8.55-5.08,12.81-7.63,21.29-12.76l3.8-3.68c1.24-4,1.87-6,3.12-10,2.42-6.06,3.63-9.09,6-15.15l-.15-3.7c1.45-3,2.17-4.43,3.61-7.39,1.74-7.24,2.62-10.87,4.36-18.11l2.57-4.07c.64-3.69,1-5.54,1.59-9.23l2.22-3c3.68-10.2,7.15-27.32-3.08-35.07l-7.31-1.11c-.65-1.18-1-1.77-1.61-3l-11.15-1.16c.29-.88.43-1.32.72-2.21,19.48-9.91,39.67-16.54,61.51-9.88q4,1.23,7.7,12l.82,1.46,1.16.34c9.46-3.88,19.16-8.1,29.7-7l3.14,2.12C694.18,2094.23,700.48,2094.05,712.23,2096.56ZM577.44,2233.33c-2,1.32-3,2-5,3.29l2.43.76c.46-1.47,1.91-1.83,4.33-1.07Zm19.36-2.49c-.14.44-.21.66-.34,1.11l3.63,1.11,1.55-.74c.13-.44.2-.67.34-1.11l-1.21-.37Zm-37.37,125.84,1.26.38,4.8-2.17c.13-.45.2-.67.33-1.11Zm7.65-2.52,1.26.39,4.79-2.19,1.25.38.68-2.22Zm19.11-8.78c-.13.45-.2.67-.33,1.11l5.68-.72.67-2.23Zm-2.48,17.45-.67,2.22,5.05,1.51c.13-.45.2-.67.33-1.11Zm10.74-22.25c-.13.44-.19.67-.33,1.11l2.51.75,1.58-.74.33-1.12Zm13.9-5.58,1.25.37,7.22-1.52.65-2.23A12.69,12.69,0,0,0,608.35,2335Zm97.82-199.11-5.53-2.77c-8.19,4-12.3,5.93-20.54,9.84-.18,2.36-.26,3.55-.44,5.91l-2.57,8.93-3,1.55c.09,1.48.13,2.22.21,3.69-2.79,7.9-4.19,11.85-7,19.75-1.63,9.2-2.44,13.8-4.06,23-1,1.65-1.49,2.47-2.49,4.12-.55,3.71-.83,5.56-1.37,9.27l-1,3.35c-.38,1.3-5,2.39-14,3.19-.13.45-.19.67-.32,1.11l1.2.36,10.63-.54-.33,1.11-2.5,4.12c-1.5,5.21,5,9.94,19.56,14l3.33,2.14,1.53-.78c8.67.22,23.1-3.44,27.64-10.45,3.86-5.94,9.6-18.51,12.41-26.72.25-2.82.38-4.24.63-7.06,1.09-4,1.63-6,2.73-10.09,1.57-3.91,2.35-5.86,3.91-9.77,0-1.92,0-2.88,0-4.8l2.4-4.17c1-13.07-.26-32-15.24-36.71-.69-1.15-1-1.73-1.71-2.89Zm-14.65-36.79-.33,1.11,8.1,2.33c.13-.44.19-.67.32-1.11Zm35.18,17.18c-.13.45-.19.67-.31,1.12,2.32.64,3.28,1.7,2.87,3.2l1.16.32c.25-.9.37-1.35.61-2.24l-.85-1.44Zm6.66,3q-.61,2.25,2.88,3.19l1.16.32c.12-.45.18-.67.31-1.12Zm5.81,1.58.25,3.68,4.66,1.26c-.1-1.47-.15-2.21-.26-3.68Zm-18.61,92.44-1.51.8-.6,2.24,1.2.32,3-1.6.3-1.12Zm25.85-86.88,1.73,2.87,1.17.31-1.73-2.87Zm9.42,79.35,5.07.11,5.69,2.65-1.53-4c.12-.45.17-.67.29-1.12l7.68-5.24.28-1.13q-8.85,6.15-13.93,4.84Zm17.94,4.57-.28,1.13,7.82,4.35c.22-.9.34-1.35.56-2.25l-6.9-2.93Zm8.11-17.13c-.23.91-.34,1.36-.57,2.26l5.33-1.07c.22-.9.33-1.35.56-2.25Z"/><path class="cls-1" d="M865.75,2133.84c4.27,1,9.49,5.83,15.75,14.54,6.45-5.12,11.9-7.18,16.36-6.24,21.3,4.49,40.8,17,44.77,39.79-6.5-3.18-9.74-4.78-16.21-8-11.4-1.33-17.65.6-18.77,5.91q-2.6,15.33-5.17,30.66c-.57,2.73-.86,4.09-1.43,6.82-1.26,3.66-1.9,5.48-3.16,9.13-.31,3.86-.46,5.78-.76,9.64-1.17,3.19-1.76,4.79-2.94,8-.39,4.3-.59,6.46-1,10.77-2.26,10.8-3.39,16.2-5.64,27q7.65,13.79,15.45,27.49c-.18.91-.28,1.37-.46,2.28-7.54,6.58-13.09,9.48-16.6,8.76.51.69.76,1,1.26,1.74-.1.45-.14.68-.24,1.14a24.5,24.5,0,0,0-12.37,14.33c-1.36,9-2,13.46-3.39,22.43-1.67,8-2.5,11.94-4.16,19.9l-2.52-.53-2.27,10.8c-.07,2.84-.1,4.26-.17,7.09l-1.5.87c-.1.46-.14.69-.24,1.14-.18,5.9-.27,8.85-.44,14.75-2.76,10.69-4.15,16-6.93,26.73.23,1.47.35,2.21.57,3.68l-2.23,4.28c7.24,11.41,12.44,17.41,15.46,18q7.77,1.59,18.67-2.47l1.3.26c-4,13.56-22.37,14-33.77,15.09-.43-.56-.64-.84-1.06-1.41l-1.3-.27c-8.94,3.88-15.72,5.31-20.27,4.34q-14-3-20.7-14.31c-.75,3.41-10.49,4.75-24,.86-14.23-4.09-31.75-14.19-41.1-28.18-2-3.48-3-5.22-5-8.7l1.56-.81c5.73,4.39,8.6,6.58,14.36,10.94,9.11.11,22.24-2.17,25-12.6l-1-1.43c.66-2.83,1-4.24,1.64-7.07l3.67-2.72-.7-10,1.54-.83c.8-5.78,1.21-8.67,2-14.44.21-.9.31-1.36.53-2.26,3.88-16.18,7.36-33,14.2-48.28-.49-3-.74-4.46-1.22-7.44,1.15-2.71,1.73-4.07,2.89-6.78.58-4.76.87-7.13,1.46-11.89l.85-3.68q-6.84-13.2-13.56-26.47c9.44-7,22-14.36,27-25.57,2.56-8.23,3.83-12.35,6.38-20.58-.12-4.44-.17-6.66-.28-11.1.32-1.35.47-2,.79-3.39q5.64-15.39,11.25-30.78-4.17-1,.09-23.23c.79-1.25,1.18-1.88,2-3.12,1.63-7-3.26-13.07-14.59-18.37l-1.46-.35q-7.33-1.76-14.63,2.73l.55-2.26c11.62-12.41,30-17.31,46.37-18.53Zm-17.11,30.35q-.58,2.55,3,3.36l1.18.27c.13-.57.19-.85.32-1.41Zm-35.47,153.95c-.1.46-.15.68-.26,1.14l2.48.57,5.12-3.9c.11-.45.16-.68.26-1.13l-6.36,3.61Zm8.12-5.58c-.11.45-.16.68-.26,1.13l2.47.56,4.74-3.69.25-1.13q-1.85-.42-4.73,3.69Zm6.54,11.31-.25,1.13,5.27,1.18c.2-.9.3-1.36.51-2.26Zm8-22.61-2,3.12,2.47.56c.3-1.36.45-2.05.76-3.41Zm8.23-8-3.47,4-.5,2.26,1.23.28,3.72-5.13.25-1.13Zm26.87-126.42-.25,1.14,8.79.75.25-1.13-5-1.11ZM822,2418.08l-.25,1.14,4.86,2.25c.33-1.51-.78-2.54-3.34-3.11Zm4.36-7.66-.5,2.27,3.82.84.25-1.14Zm30.93-129.09c-.82,1.37-1.22,2.05-2,3.42l2.44.53c.33-1.47.49-2.21.81-3.68Zm25-114.33c.75,1.11,1.12,1.67,1.86,2.78l1.18.26.5-2.27Zm-21.59,110.32c-.78,1.26-1.18,1.89-2,3.14l2.44.53,2.27-3.07Zm-27.2,138.53-.25,1.13,4.86,2.24,1.28.28.24-1.14-4.85-2.24ZM866,2272.23c-.1.45-.14.68-.24,1.13l2.93-1.74c.09-.46.14-.68.24-1.14Zm24.19-105.9-.5,2.27,5-.12.25-1.14Zm-31.56,145.9-.25,1.13,4.44-2.6-1.24-.27ZM833.82,2426.9c-.2.91-.3,1.37-.49,2.27l4.88,2.24C836.45,2429.61,835.57,2428.71,833.82,2426.9ZM874.35,2263c-.8,1.38-1.2,2.06-2,3.43-.09.46-.14.69-.24,1.14l1.22.26,3.77-4.24Zm4.26-6.51-.55,2.56,3.88-.36.55-2.56Zm-35.27,165c-.2.91-.29,1.37-.49,2.27l6.4,1.36,1,1.41,1.28.27c.2-.91.29-1.36.48-2.27l-6.39-1.36-1-1.4Z"/><path class="cls-1" d="M1058.54,2169.9l3.34,1.71,3.42-.64c.8,1.07,1.2,1.6,2,2.67l2.71-1.93c9.73,3.28,14.41,6.22,14,8.9l5.73,0c-.23,1.54,4.55,6.47,14.45,14.73-.11.81-.17,1.21-.29,2l-1.06-1-4.44-.64-.13.86a20.31,20.31,0,0,1,11.07,5.11c6.71-3.16,11.12-6.76,13.28-10.76,1.58.21,5.84-2.23,12.73-7.36l1,1.31c-.36,2.64-.53,4-.88,6.62-.85,2.7-1.27,4-2.11,6.75l1,1.31-.15,1.15c-.64,1.2-1,1.8-1.61,3,.23,1.9.35,2.86.58,4.76l-1.35,1c.19,2.26.28,3.38.46,5.63-.3,2.31-.46,3.46-.76,5.76l-1.81,4.45c.19,2.25.28,3.37.47,5.63l-3.79,10c.86.93,1.29,1.4,2.14,2.34-.73,1.77-1.09,2.66-1.82,4.44l1,1.31c-.89,3-1.34,4.57-2.24,7.61-.12.93-.18,1.39-.31,2.31,0,4.09-.08,6.14-.13,10.23l-1.36,1c-.07.46-.1.69-.16,1.15l.6,4.77c-1,4-1.53,5.95-2.56,9.92l-1.65,21.75q-.88,6.63-5.81,6l-2.15-.29c.06-.46.09-.69.16-1.15l-8.78,0c-8.61-1.19-12.92-1.8-21.52-3.05l-2.13-2.65,2-5.29q-2.46-.34-2-3.8.84-5.74,3.28-5.39c-.17-2.26-.25-3.39-.42-5.64.4-2.76.6-4.14,1-6.9q.24-1.73,5.37-2.74l1-.73c.07-.46.1-.69.17-1.15l-.91-.13-3.94,1.48c-.46-3.7-.69-5.56-1.13-9.26l3.09-4.25c3.31-21.5-4.42-41.74-21.81-55-2,.63-3.08.94-5.13,1.55-1.71-.73-2.57-1.1-4.28-1.85-13.93-1.93-23.8,7.61-29.81,19.27.18,1.92.26,2.87.44,4.79l-2.49,1.94c-.85,7.28-1.27,10.91-2.12,18.19-1.92,3.33-2.88,5-4.81,8.32,0,3.18-.06,4.77-.09,7.94-.69,4.13-1,6.19-1.73,10.31-1.68,8.93-7.3,31,2.3,37.19,3.92,6.18,5.89,9.27,9.85,15.44-.07.46-.11.69-.18,1.14-8,4.66-19.53,11.06-23.14,20.33.29.52.44.78.74,1.3l-2.23,7.58c-.08.46-.12.69-.19,1.15-.3,4.07-.45,6.11-.74,10.18-2.32,8.44-3.48,12.67-5.81,21.11l2.21.37c-1.12,4.41-1.69,6.61-2.82,11-.3,1.84-.46,2.75-.77,4.58-.06,2.7-.09,4.05-.14,6.75l-1.73,4.42c-.36,4.54-.55,6.8-.91,11.34l-1.15,1c-.08.46-.12.69-.19,1.15-.49,9.43-3,23,2.38,31.31q7.59,8.31,20.56,10.39l6.52-1.33,3.71,1.76c10.75-2,13.84-13.61,17.66-22.56l5.32-.38c-1.71-2.6-2.57-3.91-4.27-6.52.46-3.1.7-4.65,1.17-7.75q2.07-13.78,10.06-17l2.84-1.63c.07-.46.11-.69.17-1.15-3.83,2.13-5.74,3.2-9.59,5.32l-1.27-.19c.28-1.84.42-2.76.69-4.6.91-2.56,1.37-3.85,2.27-6.41l-.4-5.94,1.27.2c-.32-1.34-.48-2-.79-3.35l3.22-4.22q-2.22-.33-2.27-10.62l-1.44,1-1.26-.19c-.43-.54-.65-.81-1.09-1.34l-1.26-.2-3.64.62q-6.93-11.66-13.75-17.15c-2.51-3.69-3.75-5.54-6.24-9.24l3.76.61,6.08,2.14,2.55-1.94,3.58,1.73q20.34,2.16,40.71,4.06l7.4,1.93c.19-1.33,10.57.06,20.18-2.78,5.45-1.61,12.08-5.42,16.88-4.79l-.15,1.15,7.8-1.34c2.37.3,3.56.46,5.94.75,10.1,1.58,15.91,11.91,18.79,20.74l-3.91.7c-.06.46-.09.69-.14,1.15q3.78.45,3.5,2.76-.72,6.06-6,7.18l-1.26-.15c-1.18-6.19-4.9-9.66-11.2-10.45l-8.5-1.07c-12.81,2.53-17.17,16-18.67,27.44l-1.95,14.69-1.39.69-1.27-.17,1.12,1.32-.15,1.15-2.35,7.9,1.13,1.32,1.28.17c-2,7-3,10.5-4.94,17.51.33,1.45.5,2.17.83,3.62l-1.29-.17c.07,7.39.1,11.09.18,18.48l-2.33,7.6c0,4.1,0,6.15,0,10.25l-3.37,5.41,2.61.35c-.54,4-.8,6-1.34,10.07l-2.61-.34c-.06.46-.1.69-.16,1.15.81,2,1.21,3,2,4.95q-2.49,8.76-5.12,8.4l-2.63-.35-2.32-2.65c-7.74-.11-11.62-.18-19.37-.33l-3.78-1.71c-4.66-.19-7-.29-11.65-.5-7.61-1.5-11.32-2.84-11.15-4l-8,0c-6.63-1.47-9.93-2.22-16.55-3.72-5.78,0-8.67,0-14.45.06.07-.46.11-.69.18-1.15l-1.12-1.36-10.34-.51c.19-1.14-6.34-4.45-19.5-10-10.6-12.05-28.2-28.86-28.25-46.56A140.82,140.82,0,0,1,930,2419.93q-1.55-19.93-3-39.87l1.26.24,3.56,1.86q-5.12-7.47-2.87-19.17l1.25.24c-.36-5.63-.53-8.44-.88-14.07l.22-1.14,2.5-6.32-2.2-8.7,1.46-.9c.07-.35.1-.52.17-.86q-1.4-6.18-6.34-7.14.95-4.84-5.77-8.23c.07-.34.1-.51.17-.85q3.36-4.08,8-3.18c.08-.45.13-.68.22-1.14l-2.47-.48c-2.61.91-3.91,1.37-6.53,2.27l-2.46-.48.22-1.14q11.7-8.17,23.31-16.47,3.75-9.63,6.5-9.11c.58-3.08.87-4.62,1.46-7.7l4.17-8.67-1-1.37c.06-.35.09-.52.16-.86q1.35-7.12,8-9.13l-.62-3.37c4.19-9.81,7.9-24.93,17.79-30.36,5.88-15.39,19.23-25.94,31.66-35.92a9.84,9.84,0,0,1,7.7-2.19l-1-1.35.2-1.15c10.18-4.91,15.48-8.25,16-9.93C1041.91,2172,1047.46,2171.31,1058.54,2169.9ZM929.4,2308.66c-.09.46-.13.69-.22,1.14l3.7.72c.18-.92.26-1.37.44-2.28Zm16.16-6.07,1.23.23,2.88-1.82-1.22-.23Zm-7.62,88.69c-.08.46-.13.69-.21,1.15l1.79,2.69c.08-.46.12-.68.21-1.14Zm28.45-93.09-.42,2.29,3.89-.47c.09-.46.13-.69.21-1.15Zm-16.65,112.68c-.09.46-.13.69-.21,1.15,2.88,5.83,5.3,8.92,7.21,9.26l.2-1.14C954.05,2416.44,952.61,2414.58,949.74,2410.87ZM974,2296.33l-1.43.92-.16.86,1.23.22,3.84-.2.2-1.14Zm9.2-1.89-.2,1.14,1.22.22,5.2-2.62-1.22-.22Zm-30.12,182.83c-.08.46-.12.68-.21,1.14l5.2.92,4.29-1.61,6.16,1.06.4-2.29-1-.16C962,2476.72,959,2476.9,953.09,2477.27Zm54.43-287.07-.2,1.15,4.74.82c.08-.45.12-.68.19-1.14Zm-14,101.33-3.25,4.15,1.22.21,5.7-3.72Zm-23,147.21-.4,2.29c3.8,4.79,5.7,7.18,9.53,11.95l1.29.22c-3.67-5.69-5.5-8.54-9.14-14.24Zm29.9-150.44.72,1.3-.15.86,3.82-.23c.15-.92.23-1.37.39-2.29l-1.22-.21Zm-29.24,190.93,1.3.22a20.26,20.26,0,0,1,11-1.68c.06-.34.08-.51.14-.86l-2.59-.43C974.6,2477.18,971.32,2478.08,971.13,2479.23Zm65.71-293.15-.14.86,4.73.78c.06-.34.08-.51.14-.86Zm10-1.88-.18,1.14.88.15,8.46.18c.07-.46.11-.69.18-1.14l-4.72-.76Zm-6.6,286.74c-.07.46-.11.69-.18,1.15l5.18.78c.14-.92.21-1.38.34-2.3Zm45.91-280.6c-.06.45-.1.68-.17,1.14,4,1.54,6,2.31,10,3.83.22-1.53-2.68-3.12-8.67-4.8ZM1051,2467.84c-.07.46-.1.69-.17,1.15l3.88.57c.14-.92.2-1.38.34-2.3Zm-1,6.61c-.07.46-.1.69-.17,1.15l5.18.76c.07-.46.1-.69.17-1.15Zm15.47-60.84-.17,1.15,1.27.19,3.66-.65c.14-.92.2-1.38.33-2.3Zm-5.28,54.4,1.29.19,2.59-2-1.29-.19Zm31.51-194.1,1,1.33c-.06.46-.1.69-.16,1.15l-1.34.69,1,1.32,2.43.35-1-1.32c0-.35.07-.52.12-.87l1.71-3.27Zm-1.28,8.92,1.22.17,2.77-1.95-1.22-.17ZM1078,2405.15q-.49,3.45-4.3,2.9l-1.43,1c0,.35-.08.52-.13.87l1.27.18c2.86-1.82,4.28-2.74,7.12-4.56Zm21.3-132.5,1.22.18,2.75-2-1.22-.17Zm-19.08,144.25c-.06.46-.1.69-.16,1.15l4.77.67c.06-.46.1-.69.16-1.15Zm-6.36,45.15,1.29.18,2.9-1.94c.07-.46.1-.69.16-1.15Zm17.61-63.23q-.32,2.31-4.11,1.78c-.07.46-.1.69-.16,1.15l2.53.35,3-3.1Zm-2.41-1.21,1.27.18,2.84-2-1.26-.17Zm19.24-129.56c-.06.46-.09.69-.16,1.15l1.22.17c.39-2.88,5.15-5.24,14.24-7.15.06-.46.1-.69.16-1.15l-1.21-.16C1114,2263.47,1109.24,2265.83,1108.31,2268.05Zm-20.76,149.87c-.07.46-.1.69-.16,1.15,2,.29,3,.43,5.09.7l.15-1.15Zm21.76-139.18c0,.35-.07.52-.12.86l4.87.67c0-.34.08-.52.12-.86Zm11.77-76.65c-.06.46-.09.69-.16,1.15l4.76.65.15-1.15Zm-23.32,188.51,3.31,4c8.06-8.88,12.78-13.24,14.25-13,.44.52.66.79,1.11,1.31l3.46.45.15-1.15-3.46-.45.15-1.15,6.83-5.85-1.26-.16C1114.64,2380.41,1107,2387.41,1097.76,2390.6Zm23.53-8.3c0,.47-.08.7-.14,1.16l2.51.32,1.41-1,.15-1.15Zm10.67-13.56c-1.23,1.72-1.85,2.57-3.09,4.29l1.25.16q4.23-.63,5.29-4Zm-1.42,11.24-.15,1.15,7.23.91.15-1.16Z"/><path class="cls-1" d="M1456,2179.44c15.9,1.23,33.52,6.21,46.88,16,11.55,8.47,21.78,17.11,25.93,31.54l-1.2,1.16h-1.2c-8.11-1.89-12.17-2.84-20.26-4.78,0,1.74,7.9,4.17,23.84,7.11,1,6.51,1.42,9.76,2.37,16.27v10.45c-.17,21-15,36.49-29.48,49.78-5.93,9-11.66,19.4-20.07,26.44,0,.93,0,1.4,0,2.33q9.07,12.95,18.28,25.81c-10.81.6-25.33.8-35.08,6.39l-2.44-2.38-1.28,1.13,0,2.33c11.68-.31,17.53-1,17.54-2s0-1.39,0-2.32l6.25.1,5-1.08,5,1.23h1.25q0-3.48,6.28-3.41c16.92,20.45,34,43.07,55.29,59.33l3.81,0c6.39-8,15.22-17.19,16.15-28q1.7-15.12,3.34-30.25l-.1-7c-2.07-5.55-3.1-8.32-5.16-13.87,1-3.73,1.42-5.6,2.36-9.33l-.35-25.55-2.5-3.46c0-.46,0-.69,0-1.16,0-1.54,1.19-2.34,3.64-2.37q18.36.33,36.72.43l7.3-1.36q5.57,2.18,6.26,4.47c.12,4.18.18,6.27.31,10.45l2.56,3.41c0,.46,0,.7,0,1.16l-2.39,2.4c.59,3.23.89,4.85,1.48,8.09l.25,8.13c.73,7.88,1.1,11.82,1.84,19.7,1,37-16.92,72.7-34.1,104.27-1,2.81-1.47,4.21-2.44,7,0,1.39,0,2.09.06,3.49,2.21,3.44,9.19,8.35,21,14.64,2.24,6.45,3.36,9.68,5.62,16.12.85,17.35-13.66,30.74-25.29,41.25-5.75,2.89-8.63,4.33-14.4,7.2l-4,.06c-12-1.35-20.4-13.8-26.55-23,0-2.32-1.78-4.24-5.28-5.78h-1.3c-11.45,10.21-26.32,14.44-40.78,18.48-9.5,6.12-21,8.44-31.83,11.19,0,2.13-8,4-22.58,4.17-30,.35-59.84-15.09-86-30-14.23-13.15-26.49-26.86-34.08-45-1.65-7.08-2.46-10.63-4.08-17.71,1.13-9.71,1.69-14.56,2.82-24.27.44-6.95.65-10.43,1.09-17.39,4.09-8.12,6.12-12.19,10.16-20.32.28-4.64,4.34-9,12.15-13.26.14-2.32,5.23-3.18,15.28-2.66,0-.46,0-.69.06-1.16q-11.31-.58-11.17-2.92c1.1-1.8,1.66-2.7,2.76-4.51l2.51.14c-.08,1.39-.12,2.09-.19,3.48l-2.51-.14,2.38,2.46q.19-3.48,4-3.28c-.88-2.37-1.32-3.56-2.19-5.93l7.87-6.57-2.5-.13c0-.46,0-.7.06-1.16,9.35-12.35,18.87-24.16,31.46-33.4l0-1.16c-11.24-18-22.3-37.63-24.21-59.28.07-1.39.1-2.09.18-3.48,1.33-12,.26-36.4,9.52-46.05l3.58.17c0-.46,0-.7.06-1.16l-3.52-1.33C1403.1,2196.4,1427.64,2177.25,1456,2179.44Zm-83.49,204.83c0,.47,0,.7-.06,1.16l3.77.19c0-.93.07-1.39.11-2.32Zm7.88-6.58q-.12,2.32-6.39,2c0,.46,0,.69-.06,1.16,2.51.12,3.73,1,3.65,2.5l3.77.19-1.2-1.22c0-.47,0-.7.06-1.16q.11-2.33,3.87-2.14c0-.47,0-.7.06-1.16Zm6.51-83.43c0,.47,0,.7-.06,1.16l7.28,1.51,1.22.05.06-1.16-6.06-1.44Zm-1.44,82.51c0,.46,0,.69-.06,1.16,4,.19,6,.28,10,.45q16.39-1.62,32.77-3.37c0-.46,0-.7,0-1.16l-1.25,0Q1406.2,2375.42,1385.43,2376.77Zm12.15-156.43,0,1.16,7.16.32,0-1.16Zm11.66-21.58c3.69,2.48,5.54,3.71,9.24,6.18l1.19,0,.14-3.48Zm-7.12,229.91c-1.54,20.21,10.24,38.69,26.44,49.8,9.11,4.94,16.4,7.47,21.8,7.61,5.7.15,8.56.21,14.26.34,12.42-1.25,40.28-4.13,41.68-21.43-15.45-11.78-29.1-24.32-39-41.26-6.57-13.68-17.19-25.22-26.9-36.71-3.93-3.37-5.88-5.06-9.79-8.44-13.37,2.4-20.66,26-25.33,36.26C1404,2420.37,1403.37,2423.14,1402.12,2428.67Zm18.52-121.35c0,.47,0,.7,0,1.17q15.83,4.62,31.67,9.14l2.46.07c0-.47,0-.7,0-1.17-10.33-1.73-23.77-3.39-32.9-9.16Zm6.19-103.23c0,.47,0,.7,0,1.17,5.62,2.06,8.44,3.08,14.08,5.12l1.19,0c0-.47,0-.7,0-1.16-5.64-2-8.46-3.06-14.09-5.12Zm.69,14,0,1.16,4.77.17,1.23-1.12c0-.47,0-.7,0-1.17l-1.19,0Zm6.33,24.63c-.17,5.11-.26,7.66-.43,12.77q2.05,19.83,5.41,19.93c4.68,5.73,7,8.59,11.75,14.29l4.85,1.3c12.81-13.08,28.18-28.61,28.88-48.18l0-1.17c-.08-12-12.23-19.21-22.27-22.53-11.72-.29-19,3.35-21.81,11C1437.7,2235.15,1436.42,2237.67,1433.85,2242.7Zm15.71,129.48-12.48-1.53-1.28,1.12-1.25,0-5-1.32c0,.93,0,1.39-.08,2.32l1.29-1.12L1437,2373c5.51.17,8.26.25,13.77.4q7.52.2,7.66-5.61Zm-2.85-158.13c0,.46,0,.69,0,1.16l4.76.13c0-.46,0-.69,0-1.16Zm1.29-3.45c0,.46,0,.69,0,1.16l5.91,1.33,2.38.06,0-1.16-7.1-1.36Zm11.83,2.64c0,.47,0,.7,0,1.16l4.73,1.28,1.19,0,0-1.16-3.54-1.25Zm-5.76,333.36c0,.93,0,1.39-.06,2.32l4-1.07,0-1.16Zm9.19-225.21c0,.47,0,.7,0,1.16l6.13,1.3,2.47.05c0-.46,0-.69,0-1.16l-7.36-1.32Zm3.7-108c0,.47,0,.7,0,1.16l3.54,1.25,1.19,0c0-.46,0-.7,0-1.16l-3.54-1.24Zm-6.21,329.86,1.32,0q4.35-3.39,8-3.32c0-.93,0-1.4,0-2.33Q1461.48,2540.4,1460.75,2543.27Zm7.63-173c0,.46,0,.69,0,1.16l5,.1c0-.46,0-.7,0-1.16Zm3.07,165.05c0,.93,0,1.39,0,2.32l4-1.09c0-.46,0-.69,0-1.16ZM1478,2324c0,.47,0,.7,0,1.16l4.91,1.25,2.47,0c0-.46,0-.69,0-1.16l-6.15-1.27Zm.41,45.32c0,.47,0,.7,0,1.16,4,.08,6,.11,10,.17,0-.46,0-.7,0-1.16Zm8.68-149.73c0,.47,0,.7,0,1.17l4.75,1.23c0-1.55-1.16-2.34-3.54-2.38Zm2.89,307.92,1.31,0c1.07-.91,1.6-1.37,2.66-2.29l-1.31,0Zm5.43-306.63c0,1.55,1.16,2.34,3.55,2.37l3.58,0c0-.46,0-.7,0-1.16Zm4.07,165h1.26c3.53-1.35,5.3-2,8.82-3.4v-1.16h-1.25Q1499.5,2383.9,1499.48,2385.92ZM1497.91,2523h1.31l2.64-2.3h-1.31Zm6.58-3.42h1.31l2.64-2.3h-1.31Zm17.07-11.5v1.16l3.92,0v-2.33Zm23.45-16.24V2493c3.63-1.87,5.44-2.8,9.06-4.68v-1.16h-1.3Q1545,2489.81,1545,2491.83Zm19.35-14c0,.93,0,1.4,0,2.32l3.87-1.19c0-.47,0-.7,0-1.16Zm12.85-5.94,1.29,0c6-2,9-3.61,9-4.77l-1.29,0Q1577.2,2469.82,1577.21,2471.84Zm15.33-9.52,1.29,0,5.08-3.57-1.29,0Zm5.39-119.77c0,.93,0,1.39,0,2.32l4.94-1.26c0-.47,0-.7,0-1.16Zm12.34-2.59c0,.46,0,.69,0,1.16l3.71-.09c4.11-1.07,6.14-2.29,6.11-3.64l-1.24,0Z"/><path class="cls-1" d="M1890.31,2185.29c5.94,1.64,8.91,2.45,14.86,4.07,6.32,1,14.19,5.55,23.7,13.69q6.83-.89,10.88,9.11l-1.2.16a26.2,26.2,0,0,0-17.41-3.59c-9.72,1.23-14.11,5.66-13.17,13.34.55,8.48.83,12.72,1.37,21.19l1.35,1,1.2-.15c-.05,7.62-.07,11.42-.13,19,1.37,3.11,2,4.66,3.41,7.77l-1.21.15,1.36,1c0,.46.08.69.14,1.15q1,18.16,2,36.33l2.74,2,1.45,11.81c13.74-29.12,27.24-58.62,43.78-86.3,2.53-10.79,3.77-16.19,6.23-27q-.9-6.32-7.39-7.16c-4.08,2-6.12,3-10.21,4.95l-.16-1.15c2.47-8.52,8.74-18.68,16.28-23.71l8.26-1.21c6.49-1,11.77-.58,15.86,1.15-.35-2.3,3.64-5.89,10-7.43,13.59-3.27,27.37,9.66,37.52,20.11l3.53,6.48c.16.91.23,1.37.39,2.29l-1.19.2c-8-4.95-14.89-6.95-20.82-6l-1.19.19c-10.66,12.38-15.32,32.45-21.08,47.39-2.7,9.4-5.8,28.35-16.13,33.22.76,1.76,1.13,2.65,1.89,4.42-2.07,7.15-4.14,11-6.15,11.45l-1.39-1-1.22.17c.07.46.1.69.16,1.15l2.05,5.58-2.13,2.65c3.21,14.81,21.54,18.92,33.79,22.35q-4,15.45-8.09,30.86c.13.92.2,1.38.33,2.3q7.59,16.8,15.27,33.55,14.22,28.71,28.69,57.3c2-.11,5.37,9.41,12.11,18.07,4.55,5.85,19.17,8.37,28,6.32.07.46.11.69.19,1.15-11.53,9.72-24.39,16.45-38.05,22.61.3,1.91-14.25,4.67-23.9,12.13-5.36,4.15-12.59,12.4-21.13,13.6q-6.87-15.6-13.67-31.23c-8.35-8.75-13-22.05-17.67-33.07q-18.35-38.39-36.19-77l-1.26.15c-4.6,8.05-7.12,19.88-5.7,29.09l1.41,1c.05.46.08.69.14,1.16-3.07,13.75.52,30.82,1.54,44.57l1.46,1.28c.06.47.09.7.14,1.16-.34,1.44-.52,2.17-.86,3.61,1.36,11.44,4.46,27.3,17.3,30.93,4.17-.52,6.25-.78,10.42-1.32l3.6-2.81,3.91-.51.15,1.15c-11.36,11.42-24.84,26-40.54,28.75-6.37,1.1-14,.37-21.74-1.31.21,1.93-5.08,5.68-13.78,7.64-16.44,3.71-36.62-4.25-53.44-11.34-3.39-2.49-5.09-3.73-8.47-6.23l-.1-1.16,2.4-2.54c5.4,0,8.09,0,13.49-.08,13.72-3.42,20.43-6.45,20.18-9l-1.68-3.62c.21-8.43.32-12.64.51-21.07l-1.75-4.49c.23-2.94.34-4.41.56-7.35-1.12-6-1.68-8.94-2.79-14.9.18-3.4.27-5.11.44-8.51-.79-2.72-1.19-4.08-2-6.81l2.32-2.57c-1.63-5.9-2.44-8.86-4.06-14.77.45-10.9.66-16.35,1.08-27.25l-4-1.93.65-6.19-.35-3.47c-6-7.21-14.18-13.84-22-18.87,7-7.9,17.17-17.31,17.23-28.81-.24-2.43-.36-3.64-.61-6.07-.67-1.8-1-2.7-1.69-4.5.1-8.88.15-13.32.24-22.21l-2.7-2.35c-.51-5.09-.76-7.63-1.27-12.72.21-2.82.31-4.23.52-7.05l-1.33-1c0-.46-.07-.69-.12-1.15,0-9.93,0-14.89,0-24.81-1.64-12.76-10.17-24.72-24.07-23.62-5.68,2.4-8.52,3.59-14.21,6l-1.3-1.05c11-16.42,24.08-32.74,45.2-35l3.55-.37c3.54-.38,10.2,2.42,20.07,8.33C1876.35,2194.89,1881.54,2190.42,1890.31,2185.29Zm-14.15,285c0,.46.07.69.12,1.15l9.49.18,2.58-.28c0-.46-.07-.69-.12-1.16l-7.87-.33Zm-.7-83.73,1.26-.14,2.27-2.58-1.26.14Zm23,1c.35,3.08-2.42,5-8.31,5.6-4.2,4.37-7.37,6.65-9.47,6.87,0,.47.07.7.12,1.16l1.27-.14c7.31-4.52,11-6.79,18.23-11.36l1.13-1.29c-.06-.47-.08-.7-.13-1.16Zm-9,82.51c0,.46.07.69.12,1.15l5.17-.56c0-.46-.08-.69-.13-1.15Zm-7.13-90.08c0,.47.07.7.12,1.16l1.26-.14,6.15-1.84-.25-2.31Zm2.85-8.78c0,.46.08.69.13,1.16q6.26-.69,6.65,2.77l4.88-1.72c-.1-.92-.15-1.38-.26-2.31l-8.89-.17Zm-8.13-130c1.06.82,1.59,1.23,2.66,2l1.2-.13-2.66-2Zm34.45,247.46,1.3-.15,6.1-4.21c-.06-.46-.08-.69-.14-1.15l-1.29.15C1913.6,2485.29,1911.6,2487.07,1911.56,2488.63Zm-11.11-120.33.4,3.46,8.9.15c-.1-.93-.16-1.39-.27-2.31l-5,.58-.13-1.15,1.12-1.3c-.06-.46-.08-.7-.14-1.16l-1.25.15ZM1890,2244.39c0,.47.08.7.13,1.16l3.74.73c-.1-.92-.16-1.38-.27-2.31Zm30.11,226.89c0,.46.08.69.14,1.15l6.46-.76c-.06-.46-.08-.69-.14-1.15ZM1894.9,2245c.11.92.17,1.38.27,2.31l5,.58c-.11-.92-.17-1.38-.28-2.31Zm14,120,1.25-.14,2.23-2.61-1.25.15Zm4.3,4.18c.06.46.08.69.14,1.15l5.15.56,1.25-.15c-.06-.46-.08-.7-.14-1.16l-3.89-.7Zm29.4-1.27c.13,1,.2,1.55.33,2.59l6.26-.81-.18-1.44Zm4.37-25.16,1.24-.16c.86-1.17,1.29-1.75,2.14-2.92l-1.24.16C1948.3,2341,1947.87,2341.56,1947,2342.73Zm6,26.45.15,1.16,7.52-1-.15-1.16Zm5.63-36.48,1.24-.17,2.16-2.63-1.23.17Zm30.5,139.18c.06.46.09.69.16,1.15l6.63.25q-.33-2.3-4.21-1.76Zm-14.45-150.75,1.23-.18,5.85-3.17c-.07-.46-.1-.69-.17-1.15l-2.46.35Zm8.08,48.72c.06.46.09.69.16,1.15l8.77-1.24c-.06-.46-.09-.69-.16-1.15l-3.92-.62Zm-4-144.06c.06.46.1.69.16,1.15l3.6-.52c-.14-.92-.21-1.38-.34-2.3Zm7,14.24c.13.92.2,1.38.34,2.3.68,1.31,1,2,1.71,3.27l1.2-.17c-.13-.92-.2-1.38-.34-2.3l-1.71-3.27Zm34.1,232.17c.13.92.2,1.38.34,2.3l5.18-.77-.17-1.15Zm-32-251.26,1.19-.18,2-2.65-1.19.18Zm6.82-3.37c-1.42,3.5-2.14,5.26-3.57,8.76.07.46.1.69.17,1.15l1.2-.18c1.84-4,2.76-6.05,4.59-10.09Zm4.21-4.46,2.68-.41,2-2.66-.35-2.3C2001.48,2209.89,2000.61,2211,1998.86,2213.11Zm7.57-8.22c.07.46.11.69.18,1.15l1.19-.18q4.48-2.46,4.22-4.19C2009.78,2203,2008.67,2203.61,2006.43,2204.89Z"/><path class="cls-1" d="M2235.45,2124.19l1.17-.27c.36,1.51,1.7,2,4,1.43q4.31,15.39,8.61,30.78,2,8.2-3.9,15c.36-.57.54-.85.91-1.41l1.18-.28,1.45.84,1.18-.28c-.33-1.35-.49-2-.81-3.39l2.9,1.7c.39,3.73.59,5.59,1,9.32q3.9,13.7,7.81,27.39l4.53,18.93q2.17,9-2.65,10.18c-3.85.44-5.77.66-9.61,1.08l-4.56,2.26c-3.84.42-5.77.63-9.61,1l-9.4,3.34-3.51-9.93c-.72-5.43-1.09-8.15-1.81-13.58-.89-1.71-1.34-2.56-2.22-4.26l2.1-7.33c-2.55-.21-4.26-2.21-5.11-6-.24-3.28-.37-4.92-.61-8.2-4.7-11.17-21.22-13.27-31.61-15l-7,.33c-9.88,1.87-23.21,5.41-28.35,15.14l-1.19.24c2.39,16.41,6.77,34.58,5.44,51.35,1.81-.37,3.55,2.05,5.24,7.23,0,5.09,0,7.64.06,12.73l2.89,1.79-1,1.38,1.44.89c.1.46.14.69.24,1.14,0,2.72.06,4.08.11,6.79q2.76,13.66,11,12c3.64-2.18,5.45-3.26,9.08-5.45,5.45-.19,8.17-.29,13.62-.5q10.09-5.11,6.82-20.18c-.94-4.35-4.58-7.92-10.88-10.73-.17-.79-.26-1.19-.43-2l1.21-.26c10.72.33,25,2.54,28.3,14.62l2.23,4.27c.1.45.15.68.26,1.13,2.27,10.21,1.5,18.22-2.37,24q1.18,5.39,6.11,4.3c2.66,5.59,4,8.39,6.67,14,.46,13.41-6.93,25.73-20.32,28.84l-6,2.47c-.1-.46-.15-.68-.24-1.14,6-8.59,8.48-15,7.58-19.15-.41-1.89-5.28-2.41-14.6-1.63l-3.71.79-8.12,2.89-1.48-.88-.18-.85c-10.41,2.75-15.23,6-14.47,9.78l3.41,4.05,3.5,23.59,1.48.89c.09.45.14.68.23,1.14-.26,3.84-.39,5.77-.66,9.61.28,1.37.41,2,.69,3.42l2.52-.51c.53,2.62.8,3.93,1.33,6.54-.45,2.94-.68,4.41-1.14,7.35l1.5.88c.09.45.13.68.23,1.14.11,3.17.17,4.76.29,7.94,1.52,4.91,2.28,7.36,3.81,12.27l-1.27.25c2.33,3.68,3.5,5.52,5.84,9.19-.83,1.12-1.25,1.68-2.09,2.79l2,3.16-1,1.4c.09.45.13.68.23,1.14,1.46,1.95,2.19,2.93,3.66,4.88l-2.1,2.8c3.9,2.77,6.26,6.13,7.08,10.12,7.58.34,11.37.51,19,.81,17.91-3.48,33.34-17.39,44.65-30.84-.59-5-.89-7.49-1.48-12.47l-1.53-.85c-.1-.45-.15-.68-.26-1.13-.69-5.44-1-8.16-1.74-13.6l-1.52-.85c-.1-.45-.15-.68-.26-1.13.4-2.95.6-4.42,1-7.37-1.81-3.28-2.71-4.93-4.51-8.21l2-2.84-3.28-2.82-.7-3.12,1-1.42-.26-1.13c5.6-.32,8.4-.48,14-.82l3.23-3.13c5.12-.71,7.68-1.08,12.8-1.81l7.2-1.71,1.52.83,1.25-.3-1,7.1c.11.45.16.68.27,1.13l4.67,8.44.75,3.1c-.14,3.86-.22,5.79-.36,9.64,1.63,2.36,2.44,3.54,4.08,5.9.32,1.35.49,2,.81,3.39a8.41,8.41,0,0,1-6.53,6.33l.53,2.26,5.54-4.9,3.17,7.6c.4,1.7.61,2.54,1,4.24.75,19.2-20.58,39.81-31.58,53.27-11.52,8.28-24.17,18-37.95,22.31l-1.55-.86-5.94,2.44-5.21,1.09c-18.29,3.94-39.49,3.59-56-6.22-5.26,6.53-9.43,10.08-12.47,10.65l-6.51,1.22c-16,3.17-32.26-3.89-46.49-10.26l-3-1.84-4.67-3.92,1.1-1.36c8.77,3.21,14.69,4.53,17.72,4l6.49-1.15q10.53-6.6,8.65-16.9l-2.07-4c.87-1.1,1.3-1.65,2.16-2.76l-3.61-5.24c0-3.18-.07-4.77-.12-8-1.17-3.57-1.76-5.35-2.94-8.91l2.15-2.75-4.46-2.74c-.54-5.92-.81-8.88-1.36-14.8-.74-1.17-1.11-1.75-1.84-2.92l-.6-10.51c-.33-1.83-.49-2.75-.82-4.58l1.05-1.37-3.3-3.83-2-18.23c-.33-1.83-.5-2.74-.83-4.57-1-2.65-1.5-4-2.49-6.63.69-1.9,1-2.85,1.72-4.74-1.67.3-2.7-.69-3.12-3l-.2-8.23-2.9-1.83,2.49-.45c-.07-.34-.1-.52-.16-.86-4.56.83-9.36-2.64-14.35-10.41l2.07-2.73c-.58-.36-.87-.55-1.44-.92l-8.67,1.53-.2-1.15q7.28-12.15,14.42-24.39c-.82-4.57-1.24-6.86-2.06-11.43,0-2.72,0-4.08,0-6.79l-1.84-3.21v-13.87q-2.43.43-3.05-3c-.65-6.38-1-9.57-1.63-15.94l-1.42-.92c-.08-.46-.12-.69-.21-1.15.33-3.72.49-5.57.81-9.29l-3.23-4.14-.25-8.22c-2-9.46-3.42-21.1-7.86-29.86-7.89-.94-11.82-1.42-19.68-2.41-4.06,4-6.1,6-10.19,10l-1.19.2-.19-1.14c-.47-16.24,18.38-27.3,29.72-35.3,4.23-.76,6.34-1.15,10.56-1.93,6.65-1.24,13.43.93,20.4,6.5,9.42-8.05,19.64-17.57,31.73-21.38,6.52-.85,9.78-1.29,16.3-2.18,4.84-2,7.25-2.95,12.07-4.93.41,1.9,5.61,2,15.62.19q17.55,3.15,35.13,6.09C2224.38,2145.59,2229.56,2138.13,2235.45,2124.19Zm-125.91,191.09-1,1.37c.08.45.13.68.21,1.14l1.23-.23,3.5-1.82c-.09-.46-.13-.68-.21-1.14Zm3.29,18c.08.45.12.68.21,1.14l3.72-.69c-.17-.91-.25-1.37-.42-2.28Zm-24.2-152.35-.6,3.36c.08.46.13.68.21,1.14l1.18-.22,1.95-2.72c-.07-.34-.1-.51-.16-.85l1.34.63,4.43-.82-.16-.86c-2.33,0-3.49-.05-5.82-.1l-1,1.36Zm43.3,119.53q-1.28,5-7.74,6.19c.17.92.26,1.37.43,2.29,4.37-3.19,6.56-4.79,10.91-8l-.22-1.14Zm-5.43,18.47,1.23-.24,4.57-2.93-.22-1.14-1.23.23Q2126.23,2317.51,2126.5,2318.93Zm15.13-26,.44,2.28,3.46-1.86-.45-2.28Zm4.45-3.24,2.9,1.8,4.59-.91-2.59-1.85Zm5.91-7.08c.09.45.14.68.23,1.14l3.67-.73c-.19-.92-.28-1.37-.46-2.28Zm-22.35-125q.45,2.28,4,1.57l1.17-.24c-.09-.45-.13-.68-.23-1.13Zm24.71,117.67c.09.45.14.68.23,1.14l2.84,1.5,2-2.48-3.89-.41Zm55.7,204.44.18.85,5.53-4.4-.24-1.13-1.3.26C2212.56,2477.16,2211.72,2478,2210.05,2479.81ZM2154,2164.61l2.82,1.79,1.18-.25-2.83-1.79Zm63.91,308.84,1.3-.27,2.12-2.81-1.29.27Zm14.61-12.55,1.29-.28,2.11-2.82-1.3.27ZM2176.72,2169c.09.45.14.68.24,1.13,3,.31,4.53.45,7.56.75l.88-.19c-.09-.46-.14-.68-.24-1.14l-7.27-.81Zm70.64,274.72.25,1.13,1.28-.28c2.89-1.58,4.34-2.37,7.22-4l-.5-2.27ZM2215,2283.45l.25,1.13c1.48-2.58,2.23-3.87,3.71-6.46l-.25-1.13Zm43.18,154.34,1.28-.28,2.07-2.84-1.29.28C2259.42,2436.09,2259,2436.66,2258.18,2437.79ZM2205.8,2179l6.64,3.27c-.21-.91-.31-1.36-.51-2.27l-5.24-1.2Zm61.12,251.18,1.28-.29,3.08-4.27-1.28.29Zm-41.09-227.42,1.19-.27,1.86-2.81-1.19.27C2227,2201.08,2226.57,2201.64,2225.83,2202.77Zm52.35,217.72,1.28-.3c.68-1.11,1-1.66,1.71-2.78l-1,.23Zm8.06-10.21c.21.91.32,1.36.53,2.26,1.43-.8,2.14-1.21,3.56-2-.1-.45-.16-.68-.26-1.13Zm7.66-7.45c-.8,1.14-1.21,1.71-2,2.86.1.45.16.67.26,1.13l2.55-.6,1.74-4Zm-48.77-202.14c.35,1.51,4.24,2.49,11.7,2.9l1.19-.29-.27-1.12Zm-1.32-26.84c.33,1.35.49,2,.81,3.39l2.07-.49c-.33-1.36-.49-2-.81-3.39Z"/><path class="cls-1" d="M2355.14,2095l3.77.14,2.86-2c1.17.64,1.76.95,2.94,1.58l1.67-2.89c10.27-1.11,15.79-.41,16.55,2.19l5.23-2.43c.44,1.49,6.88,4,19.42,7.28.23.78.34,1.17.58,1.95l-1.41-.49-4.34,1.29.25.84a20.57,20.57,0,0,1,12.28,0q7.21-8.55,7.65-15.37c1.53-.46,4.41-4.48,8.57-12l1.49.75,2,6.38c.37,2.81.55,4.21.91,7l1.5.75.34,1.11c-.08,1.36-.13,2-.21,3.41l2.53,4.08-.82,1.47c1.12,2,1.68,2.95,2.79,4.91l1.72,5.55c.09,1.92.13,2.88.21,4.8l2.8,4.91.75,10.71,2.94,1.22.2,4.8,1.52.75c.45,3.14.68,4.71,1.14,7.85.27.89.41,1.33.69,2.22,1.67,3.74,2.5,5.61,4.18,9.35-.34.59-.51.88-.84,1.47.14.45.21.67.34,1.11l2.56,4.07c.73,4,1.09,6.05,1.82,10.08,3,8.18,4.57,12.27,7.62,20.44q2,6.39-2.81,7.86l-2.1.65c-.14-.45-.2-.67-.34-1.11l-8,3.67c-8.39,2.55-12.59,3.81-21,6.3l-3.06-1.51c-.15-2.26-.22-3.39-.37-5.65-1.6.47-2.72-.41-3.38-2.63q-1.65-5.58.74-6.28c-1.1-2-1.65-3-2.76-4.94l-2-6.68q-.49-1.68,3.76-4.75l.65-1.1-.34-1.12-.89.27-3,3c-2-3.17-3-4.75-4.93-7.93.43-2.06.64-3.09,1.05-5.15-6-21-21.65-36-43-40.72l-4,3.57-4.7.12c-13.5,4.08-18.55,16.86-19.14,30l2.4,4.16-1.45,2.81,5.7,17.41c-.36,3.83-.54,5.74-.91,9.58l3.26,7.24c1.09,4,1.64,6.05,2.74,10.09,2.22,8.81,6.36,31.18,17.72,32.78,6.17,4,9.27,5.94,15.48,9.88l.31,1.12c-5.14,8-13.22,17.92-12.6,28.18l1.22.87c.46,3.12.69,4.69,1.14,7.81.13.45.19.68.31,1.12l3.6,9.56c1.43,8.64,2.14,13,3.56,21.6l2.17-.59,2,11.18,1.22,4.49,2.7,6.18c.11,1.9.17,2.85.28,4.74,1.57,4.27,2.35,6.41,3.92,10.67-.25.55-.38.83-.64,1.38l.31,1.12c3.51,8.77,6.94,22.2,15.32,27.42q10.42,4.37,23.15.79l5.4-3.95,4.13,0c9-6.34,6.94-18.16,6.68-27.92,1.89-1,2.83-1.54,4.71-2.58l-6.65-4.11-2.18-7.53q-3.88-13.4,2.06-19.66l1.92-2.68-.32-1.12c-2.61,3.55-3.92,5.33-6.54,8.87l-1.25.36c-.52-1.78-.78-2.67-1.29-4.46-.25-2.71-.37-4.06-.62-6.78-1.15-2.08-1.72-3.13-2.86-5.21l1.24-.36-2.13-2.71,1.18-5.18q-2.18.63-6.54-8.69l-.92,1.48-1.23.35-1.56-.76-1.23.36-3.08,2.09q-11.22-7.65-19.77-9.78c-3.84-2.3-5.75-3.45-9.57-5.76l3.68-1,6.46-.61,1.51-2.84,4,.07q19.53-6.6,38.95-13.46l7.59-1.36c-.39-1.29,9.69-4.38,17.32-11,4.31-3.76,8.79-10,13.46-11.47.13.44.2.66.34,1.11,2.64-1.8,4-2.7,6.59-4.51l5.77-1.82c9.88-2.84,19.56,4,26,10.87l-3.3,2.29c.15.45.22.67.36,1.11q3.66-1.18,4.38,1,1.88,5.8-2.47,9.05l-1.23.39q-5.52-7.68-14.67-4.75l-8.24,2.61c-10.65,7.66-9.06,21.67-5.59,32.79,1.76,5.66,2.63,8.49,4.39,14.15l-1,1.21-1.24.39,1.58.72.35,1.11c.46,3.26.7,4.89,1.16,8.15l1.59.73,1.24-.39c1.14,7.19,1.71,10.78,2.84,18l2.28,2.94-1.25.39c3.16,6.68,4.75,10,7.93,16.7.42,3.15.64,4.73,1.06,7.88,1.71,3.73,2.56,5.59,4.28,9.32-.33,2.53-.49,3.8-.82,6.33l2.54-.79c1.2,3.89,1.81,5.83,3,9.71l-2.55.79.35,1.11,3.92,3.65q1.4,9-1.16,9.78l-2.56.79-3.24-1.43c-7.15,3.17-10.72,4.74-17.88,7.87l-4.18,0-10.89,4.46c-7.59,1.84-11.55,2.18-11.87,1.07l-7.38,3.35c-6.67,1.45-10,2.17-16.69,3.58-5.27,2.47-7.91,3.69-13.19,6.14-.12-.45-.19-.68-.31-1.12l-1.6-.76c-3.86,1.56-5.79,2.34-9.66,3.88-.31-1.11-7.66-1.37-22-.92-14.71-6.47-37.83-14.33-45.31-30.4a140.35,140.35,0,0,1-24.05-26.84q-9.78-17.45-19.44-34.95l1.25-.31,4,.19q-7.8-4.62-10.66-16.19l1.24-.31c-2.68-5-4-7.44-6.69-12.4l-.28-1.13c-.15-2.72-.23-4.08-.38-6.79l-5.65-7,.95-1.43-.2-.85q-3.87-5-8.77-3.82c-.78-3.2-3.69-4.87-8.7-5.05-.09-.34-.13-.51-.21-.85q1.35-5.1,5.94-6.23c-.11-.45-.16-.68-.27-1.13l-2.45.6-5,4.8-2.45.59-.27-1.13q7.21-12.33,14.31-24.73c-.41-6.87.28-10.54,2.1-11l-1.9-7.61c.07-3.85.1-5.77.16-9.62l-1.48-.82-.21-.85q-1.77-7,3.46-11.65l-2-2.79c-.3-10.67-3.25-26,3.48-35-1.1-16.46,6.65-31.63,13.8-45.9a9.9,9.9,0,0,1,6.11-5.22l-1.47-.81-.3-1.13c7.23-8.73,10.67-14,10.41-15.72Q2343.22,2102.41,2355.14,2095Zm-59.58,180.21.27,1.12,3.67-.9c-.22-.9-.33-1.35-.56-2.25Zm12.16-12.29,1.22-.31,1.87-2.86-1.22.3Zm30.26,83.72c.11.45.17.67.29,1.12l2.76,1.7c-.12-.45-.18-.67-.29-1.13Zm-13.12-96.46.58,2.25,3.35-2.06c-.11-.45-.17-.68-.29-1.13ZM2357,2359.46c.12.45.18.68.29,1.13q7.62,6.13,10.46,5.38c-.11-.45-.17-.67-.29-1.12ZM2331,2245.28l-.92,1.44c.09.33.13.5.22.84l1.21-.31,3.42-1.79c-.12-.45-.18-.68-.29-1.13Zm7.6-5.58.29,1.12,1.21-.32,3.65-4.56-1.21.32Zm49.23,178.63.3,1.13,5.12-1.35,3.24-3.27,6.07-1.62-.6-2.24-1,.25C2395.77,2414.08,2393.14,2415.5,2387.86,2418.33Zm-70.79-283.47c.12.45.18.67.29,1.12l4.68-1.24-.3-1.12Zm29.73,97.88c-.49,2.05-.73,3.07-1.22,5.13l1.21-.32,3.63-5.78Zm40.76,143.32.6,2.24c5.47,2.75,8.21,4.12,13.71,6.85l1.26-.34c-5.74-3.63-8.6-5.44-14.31-9.09Zm-35.85-149.14,1.2.88c.09.34.14.5.23.84l3.39-1.81c-.25-.9-.37-1.35-.61-2.25l-1.2.33Zm53.44,185.62,1.28-.35a20.34,20.34,0,0,1,9.3-6.13c-.09-.34-.14-.5-.23-.84l-2.55.69C2407.45,2409.21,2404.85,2411.41,2405.15,2412.54Zm-63-293.74c.09.33.13.5.23.84l4.65-1.28-.24-.84Zm8.36-5.93c.12.45.19.67.31,1.12l.87-.24,7.81-3.39c-.13-.44-.19-.67-.32-1.12-1.85.53-2.78.79-4.63,1.3Zm114.37,263.07.33,1.12,5.06-1.48-.65-2.23Zm-75.85-274c.13.44.2.66.33,1.11l10.78-.74c-.44-1.49-3.76-1.71-9.95-.71Zm84.35,266.71c.13.44.19.67.32,1.11l3.79-1.11c-.26-.89-.39-1.34-.66-2.23Zm1.88,6.41.33,1.11,5.06-1.49c-.13-.45-.2-.67-.33-1.11Zm-11.4-61.74c.13.45.2.67.33,1.11l1.24-.36,3.08-2.13c-.26-.89-.39-1.34-.66-2.23C2466.22,2311.13,2465.42,2311.85,2463.82,2313.29Zm18,51.6,1.26-.37,1.55-2.88-1.26.37Zm-52.69-189.44,1.52.75.33,1.12c-.38.47-.56.71-.94,1.19l1.52.76,2.38-.71-1.52-.76-.25-.84c.07-1.47.11-2.21.19-3.69Zm2.57,8.62,1.19-.35c.69-1.18,1-1.76,1.71-2.94l-1.18.36Zm40,116.25c.66,2.23-.24,3.71-2.72,4.45l-.9,1.48.25.84,1.24-.37,4.6-7.14Zm-36.16-129.23,1.18-.36,1.7-2.94-1.18.36Zm43.13,139,.33,1.11,4.66-1.4c-.14-.44-.21-.67-.34-1.11Zm13.14,43.66,1.26-.38,1.84-3c-.13-.45-.2-.67-.33-1.11Zm-10.43-64.81c.45,1.49-.56,2.6-3,3.35.14.44.21.67.34,1.11l2.47-.75,1.45-4.08Zm-2.72-.08,1.23-.37,1.79-3-1.23.38Zm-36.81-125.7.33,1.11,1.19-.36c-.85-2.78,2.52-6.93,10.05-12.5l-.35-1.11-1.17.37C2445.19,2156.56,2441.82,2160.71,2441.91,2163.12Zm44,144.78c.13.44.2.66.34,1.11l5-1.51-.34-1.11Zm-38.54-135.5.25.83c1.9-.57,2.85-.86,4.74-1.45l-.25-.83Zm-21.43-74.53c.14.44.2.66.34,1.11l4.62-1.42c-.13-.44-.2-.66-.34-1.11Zm57.84,180.92,4.71,2.21c3.65-11.46,6.15-17.41,7.58-17.85l1.56.73,3.37-1.05-.35-1.11-3.36,1.05-.35-1.11c1.53-3.27,2.29-4.91,3.8-8.19l-1.21.39C2494.92,2262.43,2490.85,2272,2483.73,2278.79Zm18.09-17.45.35,1.11,2.44-.77.88-1.49-.35-1.11Zm4.08-16.82c-.41,2.08-.62,3.12-1,5.2l1.22-.38q3.6-2.36,3.15-5.88Zm3.42,10.8.35,1.11,7-2.23-.35-1.1Z"/><path class="cls-2" d="M1744.62,1248.09c2-4.29,4.26-8.46,5.81-12.9,4.54-13,5.61-26.55,5.15-40.23-1-30.85-9-60.23-19.24-89.09a8.76,8.76,0,0,1-.65-4.08c.83.54,1.7,1,2.48,1.63A417,417,0,0,1,1837.52,1214a326.88,326.88,0,0,1,38.41,88.5,289.66,289.66,0,0,1,6.47,117.61c-6.75,45.56-23.57,87-51.42,123.72-24.53,32.38-54.94,58.12-89.79,78.76-21,12.46-43,23-66.36,30.44-.95.3-1.92.52-3.89,1,1.31-2.26,2.15-3.73,3-5.18,14.9-25.36,25.09-52.56,31.65-81.18a281.93,281.93,0,0,0,6.92-73.88c-1.47-38.89-10.88-75.87-27.28-111.11-19.09-41-45.83-76.65-77.42-108.81-3.34-3.4-6.76-6.74-10.16-10.09a6,6,0,0,0-3-1.72c.42,1.35.85,2.7,1.26,4.05,4.59,15.32,3.91,30.8,1,46.25-5.21,28.16-16.83,53.84-31.74,78-8.92,14.47-19,28.23-28.55,42.29-.58.85-1.29,1.6-2.52,3.1,0-2-.09-3.22,0-4.44,1.6-19.11,1.63-38.16-2.42-57-2.5-11.68-6.49-22.74-14.36-32-.72-.86-1.31-1.83-2.21-3.1-.55,1.11-.8,1.37-.77,1.59,2.06,13.26-.91,25.82-5.59,38.06-8,20.88-20.08,39.41-34.37,56.38-11.16,13.24-22.85,26.09-35.09,38.32-22.61,22.6-31.38,49.78-28.61,81.09,2.7,30.4,14,57.89,29.06,84.07,2.83,4.92,5.94,9.69,9.35,15.23-1.62-.28-2.67-.36-3.66-.65-44-13-83.6-33.94-116.72-66-34.6-33.53-54.73-74.36-59.9-122.42-4-37.12,1.19-73.29,11.29-108.93,11.18-39.46,28.08-76.51,47.81-112.34,14.18-25.75,29.89-50.56,46.54-74.78a24.45,24.45,0,0,1,3.12-3.75c-8.5,47.82-4,94.65,9.19,141.41,1.26-.77,2.08-1.16,2.78-1.7,45.66-35.36,84.27-76.93,111.53-128.24,17.54-33,27.89-68.07,27.9-105.8,0-29.87-6.79-58.2-19.17-85.28l-3-6.63c2,.42,3.22.62,4.44,1,24.59,7.14,46.82,19.13,67.82,33.51,37.38,25.59,67.93,58,93.9,94.88,27,38.33,47.77,79.92,64.39,123.67,2,5.31,4,10.65,6,16Z"/><path class="cls-1" d="M1414.62,1916.12c11.06-3.45,12.51-8.23,17.77-17.5.95,2.48,1.64,4.69,2.33,6.9,4.82,15.49,4.22,24.69-11.42,29.56-17.22,5.36-24.84,1.5-41,6.52-3.64,1.13-8.29,6.22-11.11,8.31a31.68,31.68,0,0,1-1.94-5.12c-10.77-34.6,36.38-66.27,23.29-108.29-2.41-7.74-9.09-11.38-13.67-10-10.59,3.29-11.27,8.88-8.81,16.78,1.13,3.63,4.53,9,9.35,8.87-3,4.91-6.55,7.93-10.34,9.11-6.47,2-12.95-1.51-15.8-10.67-3.35-10.74,1.45-25.93,25.31-33.36,21.64-6.75,33.16.76,37.94,16.08,11,35.23-27.33,64.15-33.8,89.56l.79-.25C1392.88,1919.77,1402.77,1919.81,1414.62,1916.12Z"/><path class="cls-1" d="M1550,1864.21a2.08,2.08,0,0,1-2.13-.16,9.73,9.73,0,0,1-2.58-1.92,9.93,9.93,0,0,1-1.88-2.64,2.28,2.28,0,0,1,0-2.34q6.84-4.05,13.72-7.86t14-6.94q7-11.4,13.35-22.36t11.34-19.93q5-9,8.35-15.31t4.35-8.68c.39-.31,1-.28,1.82.08a10.51,10.51,0,0,1,2.54,1.65,22,22,0,0,1,2.47,2.45,11.72,11.72,0,0,1,1.66,2.39c.58.06.8.39.68,1l0-.08a77.29,77.29,0,0,1-1.65,7.7q-1.17,4.52-2.72,9.92t-3.48,11.45q-1.93,6-3.93,12.37t-4,12.72q-2,6.39-3.78,12.41t-3.19,11.5q-1.44,5.46-2.31,9.89a61.87,61.87,0,0,0-1.11,7.53,8.91,8.91,0,0,0,.47,4.46l1.26,1.08a2.75,2.75,0,0,1,1.66,1.78,4.34,4.34,0,0,1,.07,2.47,3.82,3.82,0,0,1-1.26,2,2.56,2.56,0,0,1-2.33.5,8.89,8.89,0,0,1-4.3.1,6.11,6.11,0,0,1-3-1.83,9.75,9.75,0,0,1-1.89-3.24,22.53,22.53,0,0,1-1-4.19,35.44,35.44,0,0,1-.25-4.07,40.52,40.52,0,0,1,.18-4.15c.13-1.36.28-2.67.44-3.92s.34-2.36.52-3.34q2.43-11.16,5.93-22.39c-.69.16-1.37.34-2,.55l-1.94.6c-1,.3-1.88.6-2.8.92s-1.84.65-2.77,1l-2.82,4.56.09,0-3.6,5.91-6.94,11.28q-3.57,5.81-7.43,11.48t-8,11a116.86,116.86,0,0,1-8.44,9.72,68.77,68.77,0,0,1-8.92,7.75,39.4,39.4,0,0,1-9.38,5.09,27.94,27.94,0,0,1-12.24,2,18.59,18.59,0,0,1-9.24-3.34,20.09,20.09,0,0,1-6.18-7.43,33.35,33.35,0,0,1-3.12-10.17,45.09,45.09,0,0,1,4.67-26.1,42.19,42.19,0,0,1,8.49-11.21,33.78,33.78,0,0,1,12.68-7.5c4-1.29,7.48-1.37,10.56-.25a16.76,16.76,0,0,1,8,6.46l.22.39a9.12,9.12,0,0,1,.44,2.91,20.82,20.82,0,0,1-.21,3.89,8.75,8.75,0,0,1-1,3c-.45.75-1,.84-1.76.27a33.69,33.69,0,0,0-2.8-2.9,17.11,17.11,0,0,0-3.62-2.61,15.61,15.61,0,0,0-4.31-1.56,9.15,9.15,0,0,0-4.66.26,25.33,25.33,0,0,0-9.79,5.08,28.14,28.14,0,0,0-6.59,8,31.81,31.81,0,0,0-3.4,9.49,30.35,30.35,0,0,0-.35,9.5,20.31,20.31,0,0,0,2,6.65,13.58,13.58,0,0,0,4.1,4.9,13,13,0,0,0,6.2,2.3,20,20,0,0,0,8.26-1l1.22-.38a11.8,11.8,0,0,0,1.27-.49,34.69,34.69,0,0,0,10.39-6.88,97.23,97.23,0,0,0,10.51-11.52q5.27-6.71,10.61-14.86t10.63-16.9c-2.28,1.38-4.54,2.89-6.8,4.51s-4.54,3.44-6.86,5.46Zm34.3-26.8c2.18-.68,4.31-1.25,6.37-1.71q1.75-5.34,3.64-10.67t3.71-10.69l-6.68,11.38Z"/><path class="cls-1" d="M1650.18,1844.44q-.92,2.68-2.55,6.6a77.17,77.17,0,0,1-3.83,7.82,43.79,43.79,0,0,1-4.79,7,11.9,11.9,0,0,1-5.44,4,9.61,9.61,0,0,1-3.56.41,6.08,6.08,0,0,1-3.22-1.16,8.41,8.41,0,0,1-2.47-3,14.71,14.71,0,0,1-1.37-5.15,44.37,44.37,0,0,1-.07-5.41,55.49,55.49,0,0,1,.58-5.8q.46-3.09,1.17-6.77c.46-2.45,1-5.21,1.65-8.3a28.86,28.86,0,0,0,.66-3.66,12.63,12.63,0,0,0,0-2.64l-3,4.7q-2.61,4-4.68,7.91t-4.07,8.36a116.17,116.17,0,0,0-1.81,12.22,83.32,83.32,0,0,0-.28,12.11c0,.68-.54,1.15-1.51,1.39a8.8,8.8,0,0,1-3.23.13,11.6,11.6,0,0,1-3.33-.94,2.87,2.87,0,0,1-1.81-1.83,61,61,0,0,1-.32-8q.1-3.94.53-7.9t1.09-7.89q.66-3.94,1.35-7.93.76-4.66,1.5-9.09c.5-2.94.88-5.75,1.16-8.41a3.39,3.39,0,0,1,2.46-.82,9.75,9.75,0,0,1,3.27.59,11.16,11.16,0,0,1,3.13,1.75,7.87,7.87,0,0,1,2.21,2.67,52.23,52.23,0,0,1,5.71-7.4,18.14,18.14,0,0,1,6.66-4.65,3.6,3.6,0,0,1,2.63.33,10.73,10.73,0,0,1,2.78,2,10,10,0,0,1,2.11,2.93,6,6,0,0,1,.63,3.21c-.57,3.31-1.16,6.43-1.79,9.36s-1.15,5.44-1.6,7.55q-.61,2.76-1.13,5.09a45.64,45.64,0,0,0-.8,4.54c-.19,1.47-.31,3-.37,4.44s0,3.08.06,4.77a1.93,1.93,0,0,1,.43-.69l-.08,0a37.71,37.71,0,0,0,4.88-6.22,53.55,53.55,0,0,0,5.16-10.63c.45-1.13.86-2.21,1.24-3.25s.75-2.07,1.11-3.11l.84-2.93c.13-.35.53-.55,1.19-.6a4.77,4.77,0,0,1,2,.26,4.9,4.9,0,0,1,1.69,1,1.16,1.16,0,0,1,.39,1.4l0-.19-3.2,9.84Z"/><path class="cls-1" d="M1693.09,1831.07c-.61,1.79-1.47,4-2.55,6.6a77.17,77.17,0,0,1-3.83,7.82,44.35,44.35,0,0,1-4.79,7,12,12,0,0,1-5.44,4,9.41,9.41,0,0,1-3.56.42,6.18,6.18,0,0,1-3.22-1.17,8.41,8.41,0,0,1-2.47-3.05,14.71,14.71,0,0,1-1.37-5.14,44.56,44.56,0,0,1-.07-5.42,55.76,55.76,0,0,1,.58-5.8q.47-3.09,1.17-6.77c.46-2.44,1-5.21,1.65-8.29a29.17,29.17,0,0,0,.66-3.66,12.73,12.73,0,0,0,.05-2.65l-3,4.7q-2.61,4-4.68,7.91t-4.07,8.36a116.56,116.56,0,0,0-1.81,12.22,83.32,83.32,0,0,0-.28,12.11c0,.69-.54,1.15-1.51,1.39a8.8,8.8,0,0,1-3.23.13,11.6,11.6,0,0,1-3.33-.94,2.87,2.87,0,0,1-1.81-1.83,59.21,59.21,0,0,1-.32-8c.07-2.64.25-5.27.53-7.91s.65-5.27,1.09-7.89.89-5.27,1.35-7.93c.51-3.11,1-6.13,1.5-9.08s.88-5.76,1.16-8.42a3.39,3.39,0,0,1,2.46-.82,9.76,9.76,0,0,1,3.27.6,10.89,10.89,0,0,1,3.13,1.74,7.87,7.87,0,0,1,2.21,2.67,51.56,51.56,0,0,1,5.71-7.39,18.18,18.18,0,0,1,6.66-4.66,3.6,3.6,0,0,1,2.63.33,11,11,0,0,1,2.78,2,10,10,0,0,1,2.11,2.93,6,6,0,0,1,.63,3.22c-.57,3.31-1.16,6.42-1.78,9.35s-1.17,5.44-1.62,7.55c-.4,1.85-.78,3.55-1.12,5.09s-.62,3.07-.8,4.54-.31,3-.37,4.44,0,3.09.06,4.77a2,2,0,0,1,.43-.68l-.08,0a38,38,0,0,0,4.88-6.21,53.93,53.93,0,0,0,5.16-10.64c.45-1.12.86-2.2,1.24-3.25s.75-2.07,1.11-3.1l.84-2.94c.13-.34.53-.54,1.19-.6a4.94,4.94,0,0,1,2,.26,4.77,4.77,0,0,1,1.69,1,1.16,1.16,0,0,1,.39,1.4l0-.2-3.2,9.84Z"/><path class="cls-1" d="M1717.09,1789a3.73,3.73,0,0,1,3-.76,9.18,9.18,0,0,1,3.84,1.39,10.27,10.27,0,0,1,3.14,3,5.73,5.73,0,0,1,1,4c-.08.52-.26,1.34-.52,2.47s-.55,2.38-.85,3.77l0-.2q-.73,3.27-1.65,7.42t-1.69,8.18c-.52,2.68-.91,5.15-1.19,7.42a23.08,23.08,0,0,0-.18,5.35l-.12.77.84-.26a16.71,16.71,0,0,0,4-4.27,39.77,39.77,0,0,0,3.23-5.89q1.44-3.21,2.67-6.68c.81-2.31,1.57-4.53,2.26-6.65l.92-3a2.79,2.79,0,0,1,1.56-1.77,2.73,2.73,0,0,1,2.06,0,3,3,0,0,1,1.57,1.5,3.87,3.87,0,0,1,0,2.93l-1.35,3.92q-2,5.9-4.44,12.07a60.34,60.34,0,0,1-5.85,11.41,19.8,19.8,0,0,1-1.47,2.07,21,21,0,0,1-4.82,4.35,12,12,0,0,1-3,1.46q-3.75,1-5.93-1.57a13.64,13.64,0,0,1-2.83-7l0-.09q-1,2.16-2,4.09c-.71,1.3-1.46,2.53-2.26,3.7a19.22,19.22,0,0,1-1.47,2.07,19.78,19.78,0,0,1-2.15,2.28,20.66,20.66,0,0,1-2.67,2.08,11.83,11.83,0,0,1-3,1.45q-3.66,1-5.79-1.6a13.73,13.73,0,0,1-2.77-7c-.08-.65-.16-1.36-.25-2.13a12.62,12.62,0,0,1-.08-2.19c.06-1.37.18-3,.35-4.76s.42-3.69.73-5.66.62-4,1-6.1.64-4.18.92-6.23c.51-3.29,1-6.43,1.4-9.42s.72-5.46.91-7.42l.64-1.49a3.69,3.69,0,0,1,3-.76,9.3,9.3,0,0,1,3.84,1.38,10.42,10.42,0,0,1,3.14,3,5.73,5.73,0,0,1,1,4c-.12.59-.31,1.48-.55,2.66s-.56,2.54-.94,4.07l0-.11q-.81,3.28-1.73,7.31t-1.63,7.92q-.72,3.91-1.09,7.3a20.53,20.53,0,0,0-.07,5.23l-.13.77.76-.23a16.85,16.85,0,0,0,3.93-4.22,42.1,42.1,0,0,0,3.2-5.7,67.41,67.41,0,0,0,2.61-6.43c.77-2.24,1.51-4.42,2.2-6.54l-.09,0a7.53,7.53,0,0,1,.33-1l.41-1,.92-5.63q.88-5.16,1.6-9.8c.47-3.1.77-5.65.88-7.65Z"/><path class="cls-1" d="M1770.64,1787.84a1.2,1.2,0,0,1-.38,1,4.47,4.47,0,0,1-1.18.82,9.16,9.16,0,0,1-1.51.61,3.51,3.51,0,0,1-1.46.18,13.3,13.3,0,0,1,2.73,1.09,10.34,10.34,0,0,1,2.37,1.7,8,8,0,0,1,1.65,2.2,4.44,4.44,0,0,1,.47,2.53c-.1.46-.22,1-.35,1.53s-.26,1.14-.38,1.74c-.29,1.25-.56,2.6-.82,4s-.49,2.82-.68,4.17-.34,2.61-.44,3.78a12.9,12.9,0,0,0,0,2.89.3.3,0,0,1,0,.29,2.44,2.44,0,0,0-.16.23l.59-.18a15.94,15.94,0,0,0,4-4.29,43.54,43.54,0,0,0,3.2-5.83,70.41,70.41,0,0,0,2.64-6.63q1.17-3.45,2.22-6.63a9.2,9.2,0,0,0,.64-1.49c.12-.4.23-.84.33-1.3s.53-.55,1.19-.6a5.2,5.2,0,0,1,2,.25,5,5,0,0,1,1.78,1,1.12,1.12,0,0,1,.43,1.39l-1.39,4.12,0,.08q-2.07,6.07-4.47,12.12a60.35,60.35,0,0,1-6,11.4,24,24,0,0,1-1.43,2.06,22.45,22.45,0,0,1-2,2.3,17.72,17.72,0,0,1-2.62,2.1,10.31,10.31,0,0,1-3.16,1.4c-2.75.61-4.94.25-6.55-1.09a9.74,9.74,0,0,1-3.18-5.92,62.36,62.36,0,0,1-5.75,8.47,14.76,14.76,0,0,1-6.56,5,10.35,10.35,0,0,1-5.65-.22,9.87,9.87,0,0,1-3.9-2.61,12.52,12.52,0,0,1-2.39-4,24.65,24.65,0,0,1-1.22-4.37,20.06,20.06,0,0,1-.19-3.25,35.51,35.51,0,0,1,.65-7.67,61.78,61.78,0,0,1,2.32-8.83,77.26,77.26,0,0,1,3.7-9,54,54,0,0,1,4.93-8.26,37.8,37.8,0,0,1,6-6.57,19.54,19.54,0,0,1,6.94-3.91,13.27,13.27,0,0,1,2.15-.49,22.77,22.77,0,0,1,2.34-.18,6.22,6.22,0,0,1,3.73,1.19,8.92,8.92,0,0,1,2.5,3,18.15,18.15,0,0,1,1.56,4.12A27.41,27.41,0,0,1,1770.64,1787.84Zm-9.83,3.06a3.06,3.06,0,0,1,1.92-.78,8.43,8.43,0,0,1,2.6.21.9.9,0,0,1-.54-.85,1.44,1.44,0,0,0-.14-.6,1.75,1.75,0,0,1-.17-.69c-.12-.57-.27-1.17-.46-1.78a6.31,6.31,0,0,0-.79-1.65,3,3,0,0,0-1.25-1,2.92,2.92,0,0,0-1.78-.09,11.07,11.07,0,0,0-5.68,4.22,35.9,35.9,0,0,0-4.48,7.79,60.93,60.93,0,0,0-3.15,9.27,62.11,62.11,0,0,0-1.63,8.53,19.16,19.16,0,0,0-.12,2.57,17.12,17.12,0,0,0,.26,2.91,10.83,10.83,0,0,0,.38,1.82,2.75,2.75,0,0,0,.83,1.31,1.83,1.83,0,0,0,1.36.4,5.13,5.13,0,0,0,2-.82,9.89,9.89,0,0,0,2.59-2.93q1.44-2.19,2.91-5c1-1.88,1.91-3.84,2.77-5.89s1.58-3.87,2.13-5.45q.46-2.91.78-5.63a28,28,0,0,0,.2-4.53Z"/><path class="cls-1" d="M1801.38,1766.75c-.34,1.28-.82,3-1.42,5.23s-1.23,4.67-1.89,7.37-1.34,5.51-2,8.45-1.27,5.78-1.78,8.48-.88,5.17-1.11,7.39a20.82,20.82,0,0,0,0,5.18.8.8,0,0,0,0,.47.38.38,0,0,1,0,.28l.59-.19a16.72,16.72,0,0,0,3.94-4.22,42.45,42.45,0,0,0,3.2-5.69,67.38,67.38,0,0,0,2.6-6.43q1.17-3.36,2.2-6.54l-.08,0c.18-.61.39-1.21.63-1.81s.47-1.17.66-1.73c.12-.4.49-.61,1.1-.62a6,6,0,0,1,1.9.33,4.77,4.77,0,0,1,1.69,1,1.4,1.4,0,0,1,.56,1.34l-1.6,4.65q-1.95,5.85-4.41,12a65.47,65.47,0,0,1-5.75,11.24,21.73,21.73,0,0,1-1.48,2.07,20.51,20.51,0,0,1-2.14,2.28,23.11,23.11,0,0,1-2.67,2.07,12,12,0,0,1-3,1.46,5.41,5.41,0,0,1-5.81-1.64,9.7,9.7,0,0,1-1.75-3,19,19,0,0,1-1-4c-.08-.66-.15-1.36-.2-2.11a14.27,14.27,0,0,1,0-2.07,83.34,83.34,0,0,1,1.93-18.52q2-9.33,4.4-18.55l2.33-8.47c.63-2.53,1.23-5.09,1.8-7.7s1.09-5.14,1.58-7.63.91-4.87,1.27-7.17.61-4.38.76-6.27a4,4,0,0,1,3.16-.94,9.92,9.92,0,0,1,4,1.21,10.47,10.47,0,0,1,3.31,2.79,5.23,5.23,0,0,1,1.19,3.82q-.19,1.44-.84,4.23c-.44,1.85-1,4-1.55,6.28s-1.22,4.76-1.88,7.27-1.29,4.87-1.89,7.08Z"/><path class="cls-1" d="M1459.13,1827.32c-.43,1.25-1,2.8-1.79,4.63a52.55,52.55,0,0,1-2.69,5.5,30.78,30.78,0,0,1-3.36,4.9,8.4,8.4,0,0,1-3.83,2.78,6.65,6.65,0,0,1-2.5.29,4.29,4.29,0,0,1-2.26-.82,6,6,0,0,1-1.73-2.14,10.34,10.34,0,0,1-1-3.62,32.1,32.1,0,0,1,0-3.8c.06-1.27.2-2.63.41-4.08s.49-3,.82-4.75.71-3.66,1.16-5.83a19,19,0,0,0,.46-2.57,8.55,8.55,0,0,0,0-1.86l-2.08,3.3c-1.22,1.89-2.32,3.75-3.29,5.56s-1.92,3.77-2.86,5.87a81.63,81.63,0,0,0-1.27,8.59,59.2,59.2,0,0,0-.2,8.51c0,.48-.37.8-1.06,1a6.21,6.21,0,0,1-2.26.1,8,8,0,0,1-2.35-.67,2,2,0,0,1-1.27-1.28,42.15,42.15,0,0,1-.22-5.6c0-1.85.17-3.7.37-5.55s.45-3.7.76-5.55.63-3.7,1-5.57q.53-3.27,1-6.38t.81-5.92a2.42,2.42,0,0,1,1.73-.57,6.75,6.75,0,0,1,2.3.42,7.59,7.59,0,0,1,2.2,1.22,5.62,5.62,0,0,1,1.55,1.88,37.38,37.38,0,0,1,4-5.2,12.87,12.87,0,0,1,4.68-3.27,2.5,2.5,0,0,1,1.85.24,7.32,7.32,0,0,1,2,1.36,7.2,7.2,0,0,1,1.49,2.07,4.18,4.18,0,0,1,.44,2.25q-.6,3.49-1.25,6.58l-1.14,5.3c-.28,1.3-.55,2.49-.79,3.58s-.43,2.15-.56,3.19-.22,2.07-.26,3.12,0,2.17,0,3.35a1.52,1.52,0,0,1,.31-.48l-.06,0a27,27,0,0,0,3.43-4.37,37.6,37.6,0,0,0,3.62-7.48c.32-.78.61-1.54.88-2.27s.53-1.46.78-2.19l.58-2.06q.15-.37.84-.42a3.32,3.32,0,0,1,1.39.18,3.38,3.38,0,0,1,1.19.7.81.81,0,0,1,.27,1l0-.13-2.25,6.91Z"/><path class="cls-1" d="M1484.84,1818.4a25.84,25.84,0,0,0-.62,3.95,18.18,18.18,0,0,0,0,3.24,1.12,1.12,0,0,1-.1.74l.59-.19a11.2,11.2,0,0,0,2.82-3,30.64,30.64,0,0,0,2.25-4.1,49.67,49.67,0,0,0,1.85-4.66c.56-1.61,1.07-3.17,1.56-4.66a5.51,5.51,0,0,0,.45-1c.08-.29.16-.59.23-.92s.38-.38.84-.42a3.67,3.67,0,0,1,1.42.17,3.63,3.63,0,0,1,1.24.68.79.79,0,0,1,.31,1l-1,2.89,0,.06c-1,2.85-2,5.69-3.14,8.52a43,43,0,0,1-4.2,8,17.2,17.2,0,0,1-1,1.44,15,15,0,0,1-1.44,1.62,12.41,12.41,0,0,1-1.84,1.48,7.37,7.37,0,0,1-2.22,1,5.1,5.1,0,0,1-4.6-.77,6.86,6.86,0,0,1-2.24-4.15,44.16,44.16,0,0,1-4,6,10.38,10.38,0,0,1-4.62,3.47,7.21,7.21,0,0,1-4-.15,6.88,6.88,0,0,1-2.74-1.84,8.68,8.68,0,0,1-1.69-2.81,18.67,18.67,0,0,1-.86-3.06,15.48,15.48,0,0,1-.13-2.29,25.56,25.56,0,0,1,.46-5.39,44.15,44.15,0,0,1,1.63-6.2,54.84,54.84,0,0,1,2.6-6.31,37.92,37.92,0,0,1,3.46-5.81,27,27,0,0,1,4.23-4.62,13.92,13.92,0,0,1,4.87-2.75,10.67,10.67,0,0,1,1.52-.34,15.54,15.54,0,0,1,1.64-.12,4.86,4.86,0,0,1,3,1.19l.29-.93,1.17-4.12c.53-1.76,1-3.57,1.45-5.44s.82-3.67,1.15-5.44.61-3.44.83-5,.38-3,.49-4.33a2.68,2.68,0,0,1,2.2-.65,7.18,7.18,0,0,1,2.83.8,6.72,6.72,0,0,1,2.36,2,3.42,3.42,0,0,1,.73,2.75c-.09.54-.28,1.47-.57,2.76s-.63,2.77-1.05,4.41-.87,3.37-1.36,5.18-1,3.53-1.42,5.14l-1,3.88,0-.07q-1.32,4.48-2.55,9.27a100,100,0,0,0-2,10.09Zm-14.91,11.38a7.43,7.43,0,0,0,1.77-2,35.74,35.74,0,0,0,2-3.48q1-2,1.92-4.09c.62-1.42,1.14-2.7,1.57-3.82l.37-2.32c.56-3.07,1.26-6.15,2.1-9.27a4.19,4.19,0,0,0-1-1.37,1.78,1.78,0,0,0-1.62-.34,7.83,7.83,0,0,0-4,3,25.47,25.47,0,0,0-3.15,5.48,46.89,46.89,0,0,0-3.35,12.5,13.54,13.54,0,0,0-.09,1.81,12.4,12.4,0,0,0,.19,2.05,6.79,6.79,0,0,0,.26,1.27,2,2,0,0,0,.58.92,1.3,1.3,0,0,0,1,.29A3.58,3.58,0,0,0,1469.93,1829.78Z"/></g></g></svg>