<svg id="Layer_1" data-name="Layer 1" xmlns="http://www.w3.org/2000/svg" viewBox="0 0 576 576"><defs><style>.cls-1{fill:#ea6307;}.cls-2{fill:#fff;}</style></defs><g id="Layer_2" data-name="Layer 2"><g id="Text"><path class="cls-1" d="M351.42,353.14c0,4.72-.3,5.16-3.85,6.22q-51.68,15.47-103.33,31c-2,.6-3.33.18-4.38-1.42a32,32,0,0,1-5.48-18.84,3,3,0,0,1,2.52-3.1q51.91-15.45,103.81-31c3.33-1,4-.84,5.87,2.19A34.16,34.16,0,0,1,351.42,353.14ZM242.74,388.92c1.52-5.7-2.29-17.95-6.09-19.94-1.65,4.75,1.83,16.37,6.09,19.94Z"/><path class="cls-1" d="M290.66,349.9c-14.19,4.05-28.16,8.05-42.15,12a4.37,4.37,0,0,1-2.23-.14c-3.2-.9-6.35-2-9.57-2.8a2.75,2.75,0,0,1-2.31-2.78,29.59,29.59,0,0,1,6-19.53,3.65,3.65,0,0,1,3.15-1c15.51,4.53,31,9.2,46.45,13.84A4.34,4.34,0,0,1,290.66,349.9Z"/><path class="cls-1" d="M295.16,376l11.53-3.28c9.81-2.78,19.62-5.6,29.46-8.29a8.41,8.41,0,0,1,4,0c2.93.7,5.78,1.72,8.7,2.49a2.89,2.89,0,0,1,2.44,2.93,31.28,31.28,0,0,1-5.78,19.42,3,3,0,0,1-3.65,1.14q-23.29-7.06-46.63-14Zm53.77-7.07c-4,2.85-7.68,15.32-5.86,19.89C347.21,385.66,350.92,373,348.93,368.94Z"/><polygon class="cls-1" points="156.3 141.97 416.41 143.06 416.41 145.58 156.3 144.49 156.3 141.97"/><polygon class="cls-1" points="156.3 148.26 416.41 149.35 416.41 151.31 156.3 150.21 156.3 148.26"/><polygon class="cls-1" points="472.4 141.36 502.52 139.7 503.28 146.08 469.07 148.58 472.4 141.36"/><polygon class="cls-1" points="460.05 142.33 396.17 144.35 398.37 150.87 459.95 148.79 460.05 142.33"/><polygon class="cls-1" points="100.12 140.84 70.04 138.66 70.04 143.86 105.43 147.61 100.12 140.84"/><polygon class="cls-1" points="113.24 141.57 152.73 142.85 153.19 149.26 113.24 148.51 113.24 141.57"/><path class="cls-1" d="M411.93,203.37c3.5,5.57,7.82,10.72,8.15,17.76a13.35,13.35,0,0,0,1,3.31,16.92,16.92,0,0,0,2.93-1.23c1.61-1.05,3.11-2.27,4.62-3.46s2.42-2.43,1.68-4.44a2.1,2.1,0,0,1,.06-1.73c2.48-2.91,1-5.82-1-7.53-6-5.29-9.3-11.92-11.14-19.43-1.13-4.63-3.9-7.09-8.57-7.65a21.9,21.9,0,0,1-3.24-.83c0-9,0-17.73,0-26.41.07-9.67-4-17.16-11.7-22.82-.48-.36-7.69-5.4-10.49-7.48-5-3.72-11-5.23-17.1-5.61a79.78,79.78,0,0,0-14.25.05c-20,2.35-40.07,4-59.63,9.29a81.89,81.89,0,0,1-18,2.61c-20.31.81-40.64,1.21-61.07,1.76l2.18-22.36c-.35-.14-6.4,4.52-9.34,7.24-.88-5.09-1.68-9.77-2.55-14.81-.68.48-9.76,17.47-10.14,21.17-.59,5.83-3.52,8.46-8.12,11.13-4.85,2.81-9.47,5.57-15.08,6.76a31.25,31.25,0,0,1-14.93-.78,4.86,4.86,0,0,1-1.59-.8c-3.66-2.8-3.88-2.79-6.3,1.15-1.21,2-4.35,5.75-3.76,7.18,1.08,2.62,1.95,5.77,3.93,7.49,10,8.67,20,17.38,30.67,25.23a114.74,114.74,0,0,0,35,17.12c2.7.82,5.38,1.7,8,2.54-1.57,8.33-5,15.75-9.19,22.78-2.67,4.46-6.37,7.76-11.95,8.45a4.85,4.85,0,0,0-3.38,2.45c-.33.86.68,2.69,1.61,3.51,2.9,2.54,5.75,5.84,10.3,3a1,1,0,0,1,.6,0c5.73.59,5.73.59,10.71-3.8-.5,2.62-.54,5.46-1.63,7.8-1.16,2.52-2.51,5.17-5.53,6.44-1.17.5-1.84,2.2-3.43,4.24,4.6,1,8.47,2.81,12.09,2.4a16.49,16.49,0,0,0,7.94-3.61c3.88-3.33,5.6-8.16,3.69-13.2-2.12-5.56-.68-9.58,4-12.79,3-2.08,6.11-4,9.07-6.1,4.44-3.19,8.74-6.57,13.22-9.7a4,4,0,0,1,3.34-.5c15.24,6.75,31.38,8.81,47.79,8.77,10.78,0,20.9-3.83,30.67-8,10.32-4.41,20.29-9.61,30.44-14.38a5.22,5.22,0,0,1,3.08-.27,35.35,35.35,0,0,1,22.42,14.91,48,48,0,0,1,4.09,8.33,57.81,57.81,0,0,1,2.17,6.3c1,3.23,2.07,6.46,2.74,9.76s.89,3.57,4.13,2.43c5-1.72,6.58-4,6.54-9,0-.39-.07-.94.15-1.16,3.57-3.53.69-6.3-1.07-9.18a7.54,7.54,0,0,0-1.63-1.8C411.22,212.49,411.7,207.91,411.93,203.37Z"/><path class="cls-1" d="M411.57,111.33a2,2,0,0,0-3,0c-.95,1-.63,2.08.32,3.08,2.39,2.51,2.92,4.91,1.73,7.39a7.61,7.61,0,0,1-7.51,4.1,10.59,10.59,0,0,0-.36-9.22,7,7,0,0,0-10.14-2.67c-3,2.2-3.29,6.44-.63,10.06a29.86,29.86,0,0,0,3.54,3.58,8.46,8.46,0,0,1-2.63.47l2.84,3.84c2.59-.67,4.77-2.29,7.84-2,6.35.64,11.32-4.74,11.7-11.06C415.56,114.89,411.81,111.51,411.57,111.33Zm-12.1,12.77c-.36.71-.67.74-1.26.23a12.36,12.36,0,0,1-2.71-2.45,13.19,13.19,0,0,1-.93-1.68c-.41-1.06-.65-2.22.55-2.91a2.57,2.57,0,0,1,3.34.51A6,6,0,0,1,399.47,124.1Z"/><path class="cls-1" d="M503.48,138.72c-1.83,0-3.33-.1-4.82,0-7.71.6-15.42,1.28-23.13,1.88-2.95.23-3.38-.32-2.63-3.13,1.7-6.44,3.45-12.88,5.12-19.33.21-.82,2.56-9-3.46-10.2-5.51-1.08-7.89,5.4-8.54,8.15-1.5,6.4-3.35,12.71-5.07,19.06-.2.75-.47,1.49-.72,2.23a60.59,60.59,0,0,1-2.1-12.51c-.19-3.45-3.11-6.86-6.86-6.46-4.82.51-5.39,3-5.07,5.58.65,5.29,1.23,10.6,1.91,15.89.22,1.71-.27,2.4-2.08,2.44q-14.82.33-29.63.72v2.52l42-1.73c-.33,2.19-.25,4.19-3.28,4.27q-19.38.56-38.76,1.23v2l32.77-.88c.33,2.64.64,4.92.9,7.21.59,5.3,1.77,10.61,1.62,15.88-.32,10.92-1.33,21.84-2.07,32.75q-2.3,33.54-4.6,67.08-1.75,26.09-3.44,52.17c-.09,1.28-.19,2.56-.29,3.84,2.87.15,4.15-.68,4.25-3.55.23-6.3.86-12.59,1.28-18.89q1.73-26,3.42-51.92c1.55-23.24,3.17-46.48,4.69-69.73.63-9.74,1.27-19.43,4.24-28.84,1.84-5.83,3.27-11.8,4.87-17.71,2.12-7.81,4.14-15.64,6.41-23.4.57-2,1.9-4.57,3.72-4.25,3,.53,2.13,4.53,1.62,6.57-2.72,10.83-5.78,21.57-8.66,32.35-1.77,6.61-3.9,13.16-5,19.88-1.09,6.54-1.23,13.27-1.55,19.93-1.22,25.46-3.88,50.82-5.1,76.28-.8,16.79-2.28,33.54-3.45,50.31-.24,3.52-.41,7-.62,10.57,2.62.21,2.18-1.69,2.27-2.91.82-11.8,1.53-23.61,2.34-35.41,1.17-17,1.71-34.11,6.6-50.67.46-1.56-.6-3.61-1.08-5.41-.36-1.36-1.39-2.7-1.32-4,.87-14.91,1.85-29.82,2.85-44.73.31-4.7.3-9.49,1.22-14.07,1.24-6.26,3.3-12.36,4.87-18.56.44-1.74,1.3-2.17,3-2.27,7.27-.45,14.55-1,21.81-1.59,3.34-.26,6.66-.65,10.22-1C503.91,143.55,503.69,141.12,503.48,138.72Zm-3.75,6.18c-7.7.52-15.41,1.14-23.12,1.72-1.92.14-3.84.25-5.68.37-.58-4.17,1.75-4.31,4.61-4.47,7.81-.44,15.59-1.19,23.38-1.76,1.21-.09,2.76-.75,3.17,1.33s-.44,2.68-2.35,2.81Z"/><path class="cls-1" d="M474,109.35s4.37,1.15,3.91,4.89-7.5,28.21-7.5,28.21L462.87,171l-2.13,32.33-2.39,34.42L455,290.24l-2,35.55-1.24,1.09S441,331,441.3,329.37a45.2,45.2,0,0,1,2.5-6l1.12-13.22,6.24-86.93L454.91,163l9.58-34.77S469.48,109.82,474,109.35Z"/><path class="cls-1" d="M441.3,329.36s-4.22,37.11-1.72,37.58,10.3,0,10.3,0,5-48.72,4.37-50.91S441.3,329.36,441.3,329.36Z"/><path class="cls-1" d="M68.57,145.24c3.56.35,6.88.74,10.22,1,7.27.57,14.54,1.14,21.81,1.59,1.66.1,2.52.53,3,2.27,1.57,6.2,3.63,12.3,4.87,18.56.92,4.59.91,9.37,1.22,14.07,1,14.9,2,29.81,2.85,44.73.07,1.3-1,2.64-1.32,4-.48,1.79-1.54,3.84-1.08,5.41,4.89,16.56,5.43,33.65,6.6,50.67.81,11.8,1.52,23.61,2.34,35.41.09,1.22-.35,3.12,2.27,2.91-.21-3.53-.38-7.06-.63-10.58-1.16-16.76-2.64-33.51-3.44-50.3-1.22-25.46-3.89-50.82-5.1-76.28-.32-6.66-.47-13.39-1.55-19.94-1.12-6.72-3.25-13.26-5-19.87-2.89-10.78-6-21.53-8.67-32.36-.51-2-1.38-6,1.63-6.57,1.81-.31,3.14,2.28,3.71,4.26,2.27,7.76,4.29,15.59,6.41,23.4,1.6,5.91,3,11.87,4.87,17.71,3,9.4,3.61,19.1,4.25,28.83,1.51,23.25,3.13,46.49,4.69,69.74q1.73,25.95,3.41,51.91c.42,6.3,1.05,12.59,1.28,18.9.1,2.86,1.38,3.69,4.25,3.55-.1-1.29-.2-2.56-.29-3.85q-1.73-26.09-3.44-52.17-2.27-33.54-4.6-67.08c-.74-10.91-1.75-21.82-2.06-32.74-.16-5.28,1-10.6,1.61-15.89.26-2.28.57-4.57.9-7.22l32.77.89v-2q-19.38-.67-38.76-1.23c-3-.08-3-2.08-3.29-4.27l42.05,1.73V142q-14.82-.39-29.63-.72c-1.81,0-2.3-.73-2.08-2.44.68-5.29,1.26-10.59,1.91-15.89.32-2.61-.25-5.06-5.08-5.58-3.74-.4-6.66,3-6.86,6.46a60.65,60.65,0,0,1-2.09,12.52c-.24-.75-.52-1.48-.72-2.24-1.73-6.34-3.57-12.66-5.07-19.06-.65-2.75-3-9.22-8.54-8.15-6,1.17-3.67,9.38-3.46,10.21,1.68,6.45,3.42,12.88,5.12,19.33.75,2.8.32,3.35-2.63,3.12-7.71-.59-15.42-1.28-23.13-1.88-1.49-.11-3,0-4.82,0C69,140,68.81,142.46,68.57,145.24Zm2-4.24c.41-2.08,2-1.42,3.16-1.33,7.8.57,15.59,1.32,23.4,1.75,2.86.16,5.19.31,4.62,4.48-1.85-.12-3.77-.23-5.69-.37-7.71-.58-15.41-1.2-23.12-1.72C71.06,143.68,70.22,143,70.61,141Z"/><path class="cls-1" d="M98.77,108.41s2.34-.47,5.62,6.56,13.9,52.63,13.9,52.63l5.15,70,8.19,91.61-11.15-3.44s-.47-11.11-.78-14.94S115.48,254,115.48,254l-3.28-51.7-2.66-33.73L95.65,115.44S94.79,109.35,98.77,108.41Z"/><path class="cls-1" d="M131.34,326.78s4.21,37.11,1.72,37.58-10.31,0-10.31,0-5-48.72-4.37-50.91S131.34,326.78,131.34,326.78Z"/><path class="cls-1" d="M130.53,374.58C233.91,411,337,411.22,440.29,374.53l17.35,76.86C401.25,471.57,344,482.51,285.49,482s-115.84-10-172.28-30.62C119,425.69,124.75,400.18,130.53,374.58Z"/><path class="cls-1" d="M115.54,425.67,73.11,407.79c1.94-1.7,3.39-2.94,4.81-4.23,6.93-6.29,13.84-12.62,20.79-18.87,1.3-1.17,1.51-2.38,1.15-4.32-2.29-12.41-4.47-24.84-6.68-37.27-.11-.63-.12-1.29-.22-2.28a542.44,542.44,0,0,0,61.28,24.37c-2,.41-4,.88-5.94,1.25-6,1.11-12,2.21-18.05,3.26-1.31.23-2.13.76-2.55,2.63q-5.78,26.06-11.7,52.05C115.94,424.66,115.81,424.91,115.54,425.67Z"/><path class="cls-1" d="M497.17,408.13l-42,17.69c-.38-1.76-.64-3.09-.94-4.41-3.71-16.35-7.46-32.68-11.12-49.05-.43-1.94-1.24-2.5-2.67-2.75-7.56-1.31-15.12-2.74-22.68-4.15a8.1,8.1,0,0,1-1.22-.51,474.16,474.16,0,0,0,61.36-24.07c-.48,3.22-.84,6-1.33,8.78q-2.82,15.63-5.73,31.22a3.57,3.57,0,0,0,1.1,3.76c8,7.17,16,14.41,23.94,21.63l1.26,1.13Z"/><path class="cls-1" d="M412.25,379.43l-2-11.44,22.12,4.48.11.46Z"/><path class="cls-1" d="M138.55,372.53l22-4.48c-.64,3.76-1.26,7.44-1.94,11.44l-20.07-6.41C138.52,372.89,138.54,372.71,138.55,372.53Z"/><path class="cls-2" d="M170.93,400.92l.12.21.17.05,1,.12,1,.27.41.46.21-.11c0-.07,0-.1,0-.16,3,.77,5.14,3.24,6.92,5.63l.63,1c-.07.27.12.72.56,1.35.13,1.87.27,3.74.41,5.6l.17.05c-.09.38-.14.58-.23,1l-.42.93c0,.55,0,.83,0,1.38-.35-.08-.55,0-.6.2a.45.45,0,0,1,.4.61c-.37,1.28-.94,4.22-2.46,4.73l0,.69a24,24,0,0,1-4,3.13,12.68,12.68,0,0,1-9.6,1.25l-2.12-.59c-1.19-.4-1.78-.61-3-1l-.32,1.12c-.07.22-.27.28-.63.17.06.58.1.87.16,1.44l-.63.86.26.42-.82,2.2c-.17.86-.26,1.28-.43,2.14l-.54.54.27.43c-.08.25-.12.38-.19.64l-.5.37.27.44c-.22.77-.33,1.15-.56,1.92l-.22.11.13.21-.14.48-.37-.1a3.57,3.57,0,0,0,2.46,3.83l.15.21,1.33.2.55.15.27.42c-1.84,1-4.29,2.6-6.38,2.19-1.15-.22-3-.76-3.17-2.15l-.23.11-.37-.11-1.37-.76a4.9,4.9,0,0,1-3.7.27,9.15,9.15,0,0,1-4.79-4l-.58-2,.24-.1.72.24c1.26.41,3.45,1.28,4.41,0a11.39,11.39,0,0,0,1.58-3.18c0-.43,0-.64-.06-1.07l.3-.95.86-1.48-.26-.44c.15-.44.21-.66.35-1.11l.48-.9-.13-.22.05-.16.83-.78c-.35-.12-.5-.28-.43-.49l.43-.74.18-1.17,1-2c-.17-.06.11-1.18,0-2.3a3.28,3.28,0,0,0-1.24-2.14l-.32-.8,3.06-1.83.54-.53.45-1.44c.35-.87.52-1.31.86-2.18l0-.53.52-1.06.63-2.6L156,409l.23-1.33.32-.43c.52-1.46,1-3.92-.45-5l-1.05-.16c-.09-.17-.14-.25-.23-.43l-1.6-.16.1-.32c2.8-1.43,5.7-2.38,8.84-1.42.39.12.75.69,1.11,1.72l.12.21.16,0a8.86,8.86,0,0,1,4.27-1l.45.3Q168.4,400.38,170.93,400.92Zm-19.37,19.66-.72.47.35.11c.07-.21.28-.26.62-.15Zm2.78-.36-.05.16.53.16.22-.1.05-.16-.18-.06ZM149,438.31l.18.06.69-.32,0-.16Zm1.1-.36.18.05.69-.31.18.05.1-.31Zm2.75-1.26,0,.16.82-.11.09-.32Zm-.36,2.5-.09.32.72.22,0-.16ZM154,436l0,.16.36.1.23-.1,0-.16Zm2-.81.18.06,1-.22.09-.32a1.82,1.82,0,0,0-1.31.48Zm14.06-28.61-.79-.4-3,1.41c0,.34,0,.51-.07.85l-.37,1.29-.43.22c0,.21,0,.32,0,.53l-1,2.84c-.24,1.32-.35,2-.59,3.3-.14.24-.21.36-.36.6-.07.53-.11.8-.19,1.33l-.15.48c-.05.19-.71.34-2,.46a.75.75,0,0,0,0,.16l.17.05,1.53-.08-.05.16-.36.59c-.22.75.72,1.43,2.81,2l.48.3.22-.11c1.25,0,3.32-.49,4-1.5a21.74,21.74,0,0,0,1.79-3.84c0-.41.05-.61.09-1,.15-.57.23-.86.39-1.45l.56-1.4v-.69l.35-.6c.14-1.88,0-4.6-2.2-5.28l-.24-.41Zm-2.1-5.29-.05.16,1.16.33.05-.16Zm5,2.47c0,.06,0,.1,0,.16.33.09.47.24.41.46l.17.05c0-.13,0-.2.09-.33l-.13-.2Zm1,.43c-.06.22.08.37.41.46l.17,0,0-.16Zm.84.23,0,.53.67.18c0-.21,0-.32,0-.53Zm-2.68,13.28-.22.12-.08.32.17.05.43-.23,0-.16Zm3.72-12.48.24.41.17,0-.25-.41Zm1.35,11.4.73,0,.82.38-.22-.58a1.24,1.24,0,0,1,0-.16l1.1-.75,0-.16a2.65,2.65,0,0,1-2,.69Zm2.58.66,0,.16,1.12.63.08-.33-1-.42Zm1.16-2.46c0,.13,0,.19-.08.32l.77-.15.08-.33Z"/><path class="cls-2" d="M193,406.28c.61.15,1.36.84,2.26,2.09a3,3,0,0,1,2.35-.89c3.06.64,5.87,2.44,6.44,5.71-.94-.45-1.4-.68-2.33-1.15-1.64-.19-2.54.09-2.7.85-.25,1.47-.5,2.94-.74,4.41-.08.39-.13.59-.21,1l-.45,1.31c-.05.56-.07.83-.11,1.39l-.42,1.15-.15,1.55c-.32,1.55-.49,2.32-.81,3.88q1.1,2,2.22,3.95c0,.13,0,.19-.06.33-1.09.94-1.89,1.36-2.39,1.25l.18.25c0,.07,0,.1,0,.17a3.49,3.49,0,0,0-1.78,2.06c-.2,1.29-.29,1.93-.49,3.22l-.6,2.86-.36-.07-.33,1.55c0,.41,0,.61,0,1l-.22.12c0,.07,0,.1,0,.17,0,.84,0,1.27-.06,2.12l-1,3.84c0,.21.05.32.08.53l-.32.61c1,1.64,1.79,2.5,2.22,2.59a5,5,0,0,0,2.69-.36l.18,0c-.57,1.95-3.21,2-4.85,2.17l-.15-.2-.19,0a5.25,5.25,0,0,1-2.91.62,4.38,4.38,0,0,1-3-2.05c-.1.49-1.5.68-3.45.12a11.18,11.18,0,0,1-5.9-4.05l-.72-1.25.22-.12,2.07,1.57c1.31,0,3.19-.31,3.59-1.81l-.14-.2c.09-.41.14-.61.23-1l.53-.39-.1-1.44.22-.12c.11-.83.17-1.24.29-2.07,0-.13,0-.2.07-.33a39.65,39.65,0,0,1,2-6.93c-.07-.44-.1-.65-.17-1.07l.41-1c.09-.68.13-1,.21-1.71l.13-.53c-.66-1.26-1.31-2.53-2-3.8,1.35-1,3.16-2.06,3.88-3.68l.92-2.95-.05-1.6c.05-.19.07-.29.12-.49L189,415c-.4-.1-.4-1.21,0-3.34l.29-.45q.34-1.5-2.1-2.64l-.21-.05a2.68,2.68,0,0,0-2.1.39l.08-.32c1.67-1.78,4.31-2.49,6.66-2.66Zm-2.46,4.36c-.06.25.09.41.43.49l.17,0,.05-.21Zm-5.1,22.13a1,1,0,0,1,0,.17l.36.08.74-.56c0-.07,0-.1,0-.17l-.91.52Zm1.17-.8c0,.06,0,.1,0,.16l.36.08.68-.53,0-.16c-.17,0-.4.14-.68.53Zm.94,1.62,0,.17.76.17c0-.13,0-.2.07-.33Zm1.15-3.24-.29.44.36.08.1-.49Zm1.18-1.15-.5.57-.07.33.18,0,.53-.74,0-.16ZM193.74,411l0,.16,1.26.11,0-.16-.72-.16Zm-7,36.11,0,.16.7.32c0-.21-.11-.36-.48-.44Zm.63-1.11-.08.33.55.12,0-.16Zm4.44-18.55c-.12.2-.17.3-.29.49l.36.08c0-.21.07-.32.11-.53Zm3.6-16.43.26.4.17,0,.07-.33Zm-3.11,15.85c-.11.19-.17.28-.29.46l.36.07.32-.44Zm-3.91,19.91,0,.17.7.32.18,0,0-.16-.69-.33ZM193,426.17c0,.07,0,.1,0,.17l.42-.25a1,1,0,0,1,0-.17ZM196.51,411l-.07.33.72,0,0-.16Zm-4.54,21,0,.16.64-.37-.18,0Zm-3.56,16.48c0,.13,0,.2-.07.33l.7.32Zm5.82-23.55-.28.49c0,.07,0,.1,0,.16l.18,0,.54-.61Zm.62-.94-.08.37.55,0,.08-.37Zm-5.07,23.72-.07.32.92.2.14.2.18,0c0-.13.05-.2.07-.33l-.92-.19-.14-.2Z"/><path class="cls-2" d="M220.71,411.47l.48.24.49-.09.29.38.39-.27c1.39.47,2.07.89,2,1.27h.82c0,.23.65.93,2.08,2.12,0,.12,0,.18,0,.29l-.16-.14-.63-.1,0,.13A2.88,2.88,0,0,1,228,416a4,4,0,0,0,1.91-1.54c.22,0,.84-.33,1.83-1.06l.14.19c0,.38-.08.57-.13.95s-.18.57-.3,1l.14.19,0,.16-.23.43c0,.28.05.41.08.69l-.19.14c0,.32,0,.49.07.81s-.07.5-.11.83l-.26.64c0,.32,0,.48.06.81l-.54,1.43.31.34c-.11.25-.16.38-.26.64l.14.19c-.13.43-.19.65-.32,1.09l-.05.33c0,.59,0,.88,0,1.47l-.19.15a.78.78,0,0,0,0,.16l.08.69c-.14.57-.22.85-.37,1.42l-.23,3.13c-.09.63-.37.92-.84.86l-.31,0c0-.07,0-.1,0-.17h-1.27l-3.09-.43-.31-.39.29-.76c-.23,0-.33-.21-.29-.54.09-.55.24-.81.48-.78,0-.32,0-.48-.06-.81l.14-1c0-.17.28-.3.77-.39l.15-.11c0-.06,0-.1,0-.16l-.13,0-.57.21c-.06-.53-.1-.8-.16-1.33l.44-.61a8.13,8.13,0,0,0-3.13-7.91l-.74.23-.61-.27c-2-.28-3.42,1.09-4.29,2.77,0,.28,0,.41.07.69l-.36.28c-.12,1-.18,1.57-.31,2.61-.27.48-.41.72-.69,1.2,0,.46,0,.68,0,1.14s-.14.89-.25,1.48c-.24,1.28-1.05,4.46.33,5.35l1.42,2.22c0,.06,0,.09,0,.16-1.15.67-2.81,1.59-3.32,2.92l.1.19-.32,1.09,0,.16-.1,1.47c-.34,1.21-.5,1.82-.84,3l.32.05c-.16.64-.24.95-.41,1.58,0,.27-.06.4-.11.66s0,.58,0,1l-.24.64c-.06.65-.08,1-.14,1.63l-.16.14c0,.07,0,.1,0,.17-.07,1.35-.43,3.3.34,4.5a5,5,0,0,0,3,1.49l.94-.19.53.25c1.54-.29,2-1.95,2.54-3.24l.76-.06-.61-.93c.06-.45.1-.67.17-1.12.19-1.32.68-2.13,1.44-2.44l.41-.23a1,1,0,0,0,0-.17l-1.37.77-.19,0,.1-.66.33-.92-.06-.86.18,0c0-.19-.06-.29-.11-.48l.46-.61c-.21,0-.32-.54-.32-1.52l-.21.14-.18,0-.16-.19-.18,0-.52.09a9,9,0,0,0-2-2.46l-.89-1.33.54.09.87.3.37-.28.51.25c1.95.21,3.9.4,5.85.59l1.07.27c0-.19,1.51,0,2.9-.4a7.22,7.22,0,0,1,2.42-.68l0,.16,1.12-.19.85.11c1.46.22,2.29,1.71,2.71,3l-.57.1c0,.06,0,.1,0,.16.37.05.53.18.51.4a1.07,1.07,0,0,1-.87,1l-.18,0a1.7,1.7,0,0,0-1.61-1.5l-1.22-.16c-1.84.37-2.47,2.3-2.68,3.95l-.28,2.11-.2.1-.18,0,.16.19,0,.17-.34,1.13.16.19.18,0c-.28,1-.43,1.51-.71,2.52.05.2.08.31.12.52l-.18,0c0,1.06,0,1.59,0,2.66l-.33,1.09v1.47l-.49.78.38.05c-.08.58-.12.86-.19,1.45l-.38-.05c0,.06,0,.1,0,.16.12.29.17.44.29.72-.24.83-.49,1.24-.74,1.2l-.38-.05-.33-.38-2.79,0-.54-.24-1.67-.07c-1.1-.22-1.63-.41-1.61-.58h-1.15l-2.37-.53H212.2c0-.07,0-.1,0-.17l-.17-.2-1.48-.07c0-.16-.91-.64-2.8-1.44-1.53-1.73-4.06-4.14-4.06-6.69a20.06,20.06,0,0,1-1.49-5q-.22-2.86-.43-5.73l.18,0,.51.26a3.54,3.54,0,0,1-.41-2.75l.18,0c0-.81-.08-1.21-.13-2l0-.16.36-.91-.32-1.25.21-.13s0-.08,0-.13a1.15,1.15,0,0,0-.91-1c.09-.47-.18-.86-.83-1.18l0-.13a1.12,1.12,0,0,1,1.15-.45c0-.07,0-.1,0-.17l-.36-.07-.93.33-.36-.07,0-.16,3.35-2.37c.36-.92.67-1.36.94-1.31.08-.44.12-.66.21-1.11l.6-1.24-.15-.2c0-.05,0-.07,0-.12a1.58,1.58,0,0,1,1.15-1.32l-.09-.48c.6-1.41,1.13-3.58,2.55-4.36.85-2.22,2.77-3.73,4.55-5.17a1.43,1.43,0,0,1,1.11-.31l-.14-.19,0-.17c1.46-.71,2.22-1.19,2.3-1.43C218.32,411.77,219.11,411.67,220.71,411.47Zm-18.56,19.94c0,.06,0,.1,0,.16l.54.11a3.23,3.23,0,0,1,.06-.33Zm2.32-.87.18,0,.41-.26-.18,0Zm-1.1,12.74c0,.07,0,.1,0,.17l.26.39c0-.07,0-.1,0-.17Zm4.09-13.38-.06.33.56-.06c0-.07,0-.1,0-.17Zm-2.39,16.2,0,.16c.41.84.76,1.29,1,1.33l0-.16-1-1.33Zm3.49-16.46-.21.13,0,.12.17,0,.56,0,0-.17Zm1.32-.27,0,.16.18,0,.74-.38-.17,0Zm-4.33,26.27c0,.07,0,.1,0,.17l.75.13.61-.23.89.15.06-.33-.15,0-2.13.13Zm7.82-41.26,0,.17.68.12a1,1,0,0,0,0-.17Zm-2,14.57-.47.59.18,0,.82-.53Zm-3.31,21.15-.05.33c.54.69.82,1,1.37,1.72l.18,0c-.53-.82-.79-1.22-1.31-2Zm4.3-21.62.11.19,0,.12.55,0c0-.13,0-.2.06-.33l-.18,0Zm-4.2,27.44.19,0a3,3,0,0,1,1.58-.25s0-.07,0-.12l-.37-.06c-.93.1-1.4.23-1.43.39Zm9.44-42.13,0,.12.68.12s0-.08,0-.13Zm1.44-.27,0,.16.13,0,1.22,0c0-.06,0-.1,0-.16l-.68-.11Zm-.95,41.21c0,.07,0,.1,0,.17l.74.11,0-.33Zm6.6-40.33c0,.07,0,.1,0,.17l1.43.55c0-.22-.38-.45-1.24-.69Zm-5.06,39.89c0,.06,0,.1,0,.16l.56.08c0-.13,0-.19.05-.33Zm-.14.95,0,.16.75.11c0-.06,0-.1,0-.16Zm2.22-8.75,0,.17.18,0,.53-.1c0-.13,0-.2,0-.33Zm-.76,7.82.19,0,.37-.29-.18,0Zm4.53-27.9.15.2c0,.06,0,.09,0,.16l-.19.1.14.19.35.05-.14-.19a.5.5,0,0,1,0-.12l.24-.47Zm-.18,1.29.17,0,.4-.28-.17,0Zm-1.79,17.58c0,.33-.25.47-.61.41l-.21.15a.5.5,0,0,1,0,.12l.18,0,1-.66Zm3.06-19,.18,0,.4-.29-.18,0ZM223.82,447c0,.06,0,.09,0,.16l.69.1a1,1,0,0,1,0-.17Zm-.91,6.48.18,0,.42-.28a.88.88,0,0,0,0-.16Zm2.53-9.08c0,.22-.23.3-.59.25a1,1,0,0,0,0,.17l.36,0,.43-.45Zm-.35-.18.19,0,.4-.29-.18,0Zm2.77-18.62c0,.07,0,.1,0,.17l.17,0c.06-.41.74-.75,2.05-1,0-.06,0-.09,0-.16l-.17,0c-1.23.36-1.92.7-2,1Zm-3,21.54c0,.07,0,.1,0,.17l.73.1,0-.17Zm3.13-20a.5.5,0,0,1,0,.12l.7.1c0-.05,0-.08,0-.13Zm1.69-11a1,1,0,0,1,0,.17l.68.09,0-.16Zm-3.35,27.1.48.57c1.16-1.28,1.83-1.9,2.05-1.87a1.46,1.46,0,0,0,.16.19l.49.06,0-.16-.49-.06,0-.17,1-.84-.18,0a13.67,13.67,0,0,1-3.53,2.3Zm3.38-1.2a1,1,0,0,1,0,.17l.36,0,.21-.15,0-.16Zm1.54-1.95-.45.62.18,0a.83.83,0,0,0,.76-.57Zm-.21,1.62,0,.16,1,.14,0-.17Z"/><path class="cls-2" d="M277.83,412.84a13.32,13.32,0,0,1,6.74,2.3c1.66,1.21,3.13,2.46,3.73,4.53l-.18.17H288l-2.91-.69c0,.25,1.13.6,3.43,1,.14.94.2,1.4.34,2.34V424c0,3-2.16,5.25-4.24,7.16a17,17,0,0,1-2.89,3.8v.33q1.31,1.86,2.63,3.71c-1.55.09-3.64.12-5,.92l-.35-.34-.18.16v.33c1.67,0,2.51-.14,2.52-.28v-.34l.89,0,.72-.16.72.18h.18c0-.33.3-.5.9-.49,2.44,2.94,4.89,6.19,7.95,8.53h.55c.92-1.15,2.19-2.47,2.32-4l.48-4.35,0-1c-.29-.8-.44-1.2-.74-2,.15-.53.21-.8.34-1.34l-.05-3.67-.36-.5v-.16c0-.22.17-.34.53-.34,1.76,0,3.51.05,5.27.06L302,430c.54.21.84.43.9.65l.05,1.5.36.49v.16l-.34.35c.09.46.13.7.21,1.16l0,1.17c.11,1.13.16,1.7.26,2.83.15,5.32-2.43,10.45-4.9,15l-.35,1c0,.2,0,.3,0,.51a9.32,9.32,0,0,0,3,2.1c.32.93.48,1.39.81,2.32.12,2.49-2,4.41-3.64,5.93l-2.07,1h-.57c-1.73-.2-2.93-2-3.82-3.31,0-.33-.25-.61-.76-.83H291a14.21,14.21,0,0,1-5.86,2.66,15.33,15.33,0,0,1-4.58,1.61c0,.3-1.15.57-3.24.6-4.32.05-8.61-2.17-12.36-4.32a18.58,18.58,0,0,1-4.9-6.46c-.24-1-.36-1.53-.59-2.55.16-1.39.24-2.09.41-3.49l.15-2.5c.59-1.16.88-1.75,1.46-2.92,0-.66.63-1.29,1.75-1.9,0-.34.75-.46,2.2-.38v-.17c-1.08-.06-1.61-.2-1.6-.42l.4-.65.36,0c0,.2,0,.3,0,.5l-.36,0,.34.35c0-.33.21-.49.57-.47-.12-.34-.18-.51-.31-.85l1.13-.94-.36,0a1,1,0,0,1,0-.17,22.63,22.63,0,0,1,4.52-4.8v-.17c-1.61-2.58-3.2-5.4-3.48-8.52,0-.2,0-.3,0-.5.19-1.72,0-5.23,1.37-6.61l.51,0a1,1,0,0,1,0-.17l-.51-.19C270.23,415.27,273.76,412.52,277.83,412.84Zm-12,29.44a.86.86,0,0,1,0,.16l.54,0c0-.13,0-.2,0-.33Zm1.13-.95c0,.22-.31.32-.91.29a.86.86,0,0,1,0,.16c.36,0,.53.15.52.36l.54,0-.17-.17a.91.91,0,0,1,0-.17c0-.22.2-.33.56-.31v-.17Zm.94-12a1,1,0,0,1,0,.17l1.05.21h.17v-.17l-.87-.2Zm-.21,11.86a.86.86,0,0,1,0,.16l1.44.07,4.71-.49v-.16h-.18q-3,.23-6,.42Zm1.75-22.48v.16l1,.05v-.17Zm1.68-3.11,1.32.89h.17l0-.5Zm-1,33.05a8.16,8.16,0,0,0,3.8,7.15,7.65,7.65,0,0,0,3.13,1.1l2.05,0c1.79-.18,5.79-.6,6-3.08a20.68,20.68,0,0,1-5.6-5.93,25.61,25.61,0,0,0-3.87-5.28l-1.4-1.21c-1.93.34-3,3.73-3.64,5.21-.19.79-.28,1.19-.46,2Zm2.66-17.44v.16l4.56,1.32h.35v-.17a13.36,13.36,0,0,1-4.73-1.32Zm.89-14.84v.17l2,.73h.17v-.16l-2-.74Zm.1,2v.17l.69,0,.17-.16v-.17h-.17Zm.91,3.54c0,.74,0,1.1-.06,1.84.2,1.9.46,2.85.78,2.86.67.82,1,1.24,1.69,2.06l.69.18c1.84-1.88,4.05-4.11,4.15-6.92v-.17c0-1.73-1.75-2.76-3.2-3.24-1.68,0-2.73.48-3.13,1.58l-.92,1.81Zm2.26,18.61-1.79-.22-.19.16h-.18l-.72-.19c0,.14,0,.2,0,.34l.19-.17.89.2,2,0c.72,0,1.09-.25,1.1-.8Zm-.41-22.73V418l.68,0v-.17Zm.19-.49v.16l.85.2h.34v-.16l-1-.2Zm1.7.38v.16l.68.19h.17v-.17l-.51-.18Zm-.83,47.91c0,.13,0,.2,0,.33l.57-.15v-.17Zm1.32-32.37v.17l.88.18h.35v-.16l-1.05-.19Zm.53-15.52v.17l.51.18h.17v-.17l-.51-.18Zm-.89,47.41h.19a1.81,1.81,0,0,1,1.15-.48v-.33q-1.25.39-1.35.81Zm1.09-24.87v.17h.72v-.16Zm.45,23.73v.33l.57-.16V464Zm.93-30.38v.17l.71.18h.35v-.17l-.88-.18Zm.06,6.52v.16l1.44,0v-.17Zm1.25-21.52v.17l.68.17c0-.22-.16-.33-.51-.34Zm.41,44.25h.19l.39-.33h-.19Zm.79-44.07c0,.23.16.34.51.34h.51V419Zm.58,23.72h.18l1.27-.49v-.17h-.18c-.84.25-1.27.47-1.27.66Zm-.23,19.7H284l.38-.33h-.19Zm.95-.49H285l.38-.33h-.19Zm2.45-1.65v.17h.57v-.34Zm3.37-2.33v.16l1.31-.67v-.17h-.19c-.75.26-1.12.48-1.12.67Zm2.79-2v.34l.55-.17v-.17Zm1.84-.85h.19q1.29-.44,1.29-.69h-.18c-.87.26-1.3.49-1.3.68Zm2.21-1.37h.18l.73-.51h-.18Zm.77-17.21v.33l.71-.18v-.17Zm1.77-.37v.16h.54c.59-.15.88-.33.87-.52h-.17Z"/><path class="cls-2" d="M340.25,413.68l2.14.58a7.73,7.73,0,0,1,3.4,2c.66-.09,1.18.35,1.57,1.31l-.17,0a3.74,3.74,0,0,0-2.51-.51c-1.39.17-2,.81-1.89,1.91L343,422l.19.14.17,0c0,1.1,0,1.64,0,2.73.2.45.29.67.5,1.12l-.18,0,.2.14a1,1,0,0,0,0,.17c.09,1.74.19,3.48.28,5.22l.4.29.21,1.7c2-4.19,3.91-8.43,6.29-12.41.36-1.55.54-2.32.89-3.88a1.11,1.11,0,0,0-1.06-1l-1.47.71,0-.16a6.63,6.63,0,0,1,2.34-3.41l1.19-.17a4.16,4.16,0,0,1,2.28.16c-.05-.33.52-.84,1.44-1.07,1.95-.47,3.93,1.39,5.39,2.9l.51.93,0,.33-.17,0a4.52,4.52,0,0,0-3-.86l-.17,0c-1.54,1.78-2.21,4.66-3,6.81-.39,1.35-.84,4.07-2.32,4.77.11.26.16.39.27.64-.3,1-.59,1.58-.88,1.65l-.2-.15-.18,0a.88.88,0,0,1,0,.16l.3.8-.31.38c.46,2.13,3.1,2.72,4.86,3.22-.38,1.48-.77,3-1.16,4.43,0,.13,0,.2,0,.33q1.09,2.42,2.2,4.82,2,4.14,4.12,8.24c.29,0,.77,1.35,1.74,2.6.66.84,2.76,1.2,4,.91,0,.06,0,.09,0,.16a22.66,22.66,0,0,1-5.46,3.25c0,.27-2.05.67-3.44,1.74-.77.6-1.81,1.79-3,2-.65-1.5-1.31-3-2-4.49a15.76,15.76,0,0,1-2.54-4.75q-2.64-5.52-5.2-11.07l-.18,0a7,7,0,0,0-.82,4.18l.2.15c0,.06,0,.1,0,.16-.44,2,.08,4.43.22,6.41l.21.18c0,.07,0,.1,0,.17l-.12.52c.19,1.64.64,3.92,2.48,4.44l1.5-.19.52-.4.56-.07,0,.16c-1.63,1.64-3.57,3.74-5.82,4.13a8.49,8.49,0,0,1-3.13-.18c0,.27-.73.81-2,1.09-2.36.54-5.26-.61-7.68-1.63l-1.22-.89v-.17l.34-.36h1.94c2-.5,2.94-.93,2.9-1.3l-.24-.52c0-1.21.05-1.82.08-3l-.26-.64c0-.42.05-.64.08-1.06l-.4-2.14c0-.49,0-.73.07-1.22s-.17-.59-.29-1l.33-.37-.58-2.12.15-3.92-.57-.28.09-.89-.05-.5a14.35,14.35,0,0,0-3.16-2.71c1-1.13,2.47-2.49,2.48-4.14,0-.35-.06-.52-.09-.87s-.14-.39-.24-.65c0-1.27,0-1.91,0-3.19l-.39-.34c-.07-.73-.11-1.09-.18-1.83,0-.4,0-.6.07-1l-.19-.14c0-.07,0-.1,0-.17v-3.56c-.24-1.84-1.47-3.56-3.46-3.4l-2.05.86-.18-.15c1.58-2.36,3.46-4.7,6.49-5l.51,0a6.21,6.21,0,0,1,2.89,1.2A5,5,0,0,1,340.25,413.68Zm-2,41a.78.78,0,0,0,0,.16l1.36,0,.37,0a1,1,0,0,0,0-.17l-1.13,0Zm-.1-12,.18,0,.33-.37-.19,0Zm3.3.15c.05.44-.34.72-1.19.8a2.91,2.91,0,0,1-1.36,1,1,1,0,0,0,0,.17l.18,0,2.62-1.64.16-.18c0-.07,0-.1,0-.17Zm-1.29,11.86a.88.88,0,0,0,0,.16l.74-.08a.88.88,0,0,0,0-.16Zm-1-12.95c0,.07,0,.1,0,.17l.18,0,.89-.27,0-.33Zm.4-1.26c0,.06,0,.1,0,.17q.9-.1,1,.39l.7-.24c0-.14,0-.2,0-.34l-1.27,0Zm-1.16-18.69c.15.12.22.18.38.29l.17,0-.38-.28Zm4.95,35.57.18,0,.88-.61c0-.06,0-.1,0-.16l-.18,0c-.56.28-.85.54-.85.76ZM341.7,440l.06.49,1.28,0c0-.14,0-.2,0-.34l-.72.09,0-.17.16-.19c0-.06,0-.1,0-.16l-.18,0Zm-1.49-17.82a1,1,0,0,0,0,.17l.53.1c0-.13,0-.2,0-.33Zm4.33,32.61a1,1,0,0,0,0,.17l.92-.11c0-.07,0-.1,0-.17Zm-3.63-32.52c0,.13,0,.2,0,.33l.72.08a3.31,3.31,0,0,1,0-.33Zm2,17.25.18,0,.32-.38-.18,0Zm.62.6c0,.06,0,.1,0,.16l.74.08.18,0c0-.06,0-.1,0-.17l-.56-.1Zm4.23-.19c0,.15,0,.23,0,.38l.9-.12,0-.21Zm.63-3.61.17,0,.31-.42-.18,0c-.11.17-.18.25-.3.42Zm.86,3.8,0,.17,1.08-.15,0-.16Zm.81-5.24.18,0,.31-.38-.18,0Zm4.38,20c0,.07,0,.1,0,.17l1,0c0-.22-.24-.3-.61-.25Zm-2.08-21.67.18,0,.84-.46c0-.06,0-.1,0-.16l-.36.05Zm1.17,7a.88.88,0,0,0,0,.16l1.26-.18c0-.06,0-.1,0-.16l-.57-.09ZM353,419.5c0,.07,0,.1,0,.17l.52-.08-.05-.33Zm1,2.05a1.88,1.88,0,0,0,0,.33c.09.19.14.29.24.47l.17,0-.05-.33-.24-.47Zm4.9,33.37.05.33.74-.11,0-.17Zm-4.6-36.12.17,0,.29-.38-.17,0Zm1-.48c-.21.5-.31.76-.51,1.26,0,.06,0,.1,0,.16l.17,0c.27-.58.4-.87.66-1.45Zm.6-.64.39-.06.29-.38,0-.33-.63.77Zm1.09-1.18,0,.16.17,0c.43-.24.63-.44.6-.61l-.8.46Z"/><path class="cls-2" d="M389.86,404.9l.17,0c.05.21.24.28.57.2.41,1.48.83,2.95,1.24,4.43a2.31,2.31,0,0,1-.56,2.15,2.26,2.26,0,0,1,.13-.2l.17,0,.21.12.17,0c0-.19-.08-.29-.12-.49l.42.25c.05.53.08.8.14,1.34.37,1.31.75,2.62,1.12,3.93l.65,2.72c.21.87.08,1.35-.38,1.47l-1.38.15-.65.33-1.39.14-1.35.48-.5-1.43c-.1-.78-.16-1.17-.26-1.95l-.32-.61.3-1.05c-.36,0-.61-.32-.73-.87s-.06-.7-.09-1.17c-.68-1.61-3.05-1.91-4.54-2.16l-1,.05c-1.42.27-3.34.77-4.07,2.17l-.18,0c.35,2.36,1,5,.79,7.38.26-.06.51.29.75,1,0,.73,0,1.09,0,1.83l.41.25-.14.2.21.13c0,.07,0,.1,0,.16,0,.39,0,.59,0,1,.26,1.31.79,1.88,1.58,1.72l1.3-.78,2-.07c1-.49,1.29-1.46,1-2.9-.13-.63-.66-1.14-1.56-1.54,0-.12,0-.17-.06-.29l.17,0c1.54.05,3.59.37,4.07,2.1l.32.62c0,.06,0,.09,0,.16a4.35,4.35,0,0,1-.34,3.45c.12.51.41.72.88.62.38.8.58,1.2,1,2a3.91,3.91,0,0,1-2.92,4.14l-.86.36c0-.07,0-.1,0-.17.87-1.23,1.22-2.15,1.09-2.75-.06-.27-.76-.34-2.1-.23l-.53.11-1.17.42-.21-.13,0-.12c-1.5.39-2.19.86-2.08,1.4l.49.59.5,3.39.21.12c0,.07,0,.1,0,.17,0,.55-.05.83-.09,1.38l.1.49.36-.07c.08.37.12.56.19.94s-.1.63-.16,1.05l.21.13c0,.07,0,.1,0,.16,0,.46,0,.69,0,1.15l.55,1.76-.19,0c.34.52.51.79.84,1.32l-.3.4.29.45-.14.2c0,.07,0,.1,0,.17.21.28.31.42.53.7l-.31.4a2.37,2.37,0,0,1,1,1.45l2.73.12c2.58-.5,4.79-2.5,6.42-4.43-.09-.72-.13-1.08-.21-1.79l-.22-.13c0-.06,0-.09,0-.16-.1-.78-.14-1.17-.25-1.95l-.22-.13a1.24,1.24,0,0,0,0-.16l.15-1.06-.65-1.18.29-.41-.47-.4-.11-.45.15-.2,0-.17,2-.11.47-.45,1.84-.26,1-.25.22.12.18,0-.14,1,0,.16.68,1.21.1.45-.05,1.38.59.85c0,.2.07.29.12.49a1.22,1.22,0,0,1-.94.91l.07.32.8-.7.45,1.09.15.61c.11,2.76-3,5.72-4.54,7.66a20.49,20.49,0,0,1-5.45,3.2l-.23-.12-.85.35-.75.16a11.38,11.38,0,0,1-8.05-.9c-.75.94-1.35,1.45-1.79,1.53l-.94.18c-2.3.46-4.63-.56-6.68-1.47l-.43-.27-.67-.56.16-.2a6.4,6.4,0,0,0,2.54.58l.94-.17a2.25,2.25,0,0,0,1.24-2.43l-.3-.57.31-.4-.52-.75c0-.46,0-.69,0-1.15-.17-.52-.26-.77-.43-1.28l.31-.4-.64-.39c-.08-.85-.11-1.28-.19-2.13l-.27-.42-.08-1.51c-.05-.26-.07-.39-.12-.66l.15-.19-.48-.55-.28-2.62c-.05-.27-.07-.4-.12-.66s-.22-.58-.36-.95c.1-.28.14-.41.25-.69-.24,0-.39-.09-.45-.43l0-1.18-.42-.26.36-.07c0-.05,0-.07,0-.12-.66.12-1.35-.38-2.06-1.5l.29-.39-.2-.13-1.25.22,0-.17c.7-1.16,1.39-2.33,2.07-3.5-.11-.66-.17-1-.29-1.65v-1l-.27-.46v-2c-.23.05-.38-.1-.43-.43-.1-.91-.15-1.37-.24-2.29l-.2-.13c0-.07,0-.1,0-.17,0-.53.07-.8.11-1.33l-.46-.6,0-1.18a17.63,17.63,0,0,0-1.13-4.29c-1.13-.13-1.7-.2-2.83-.35-.58.58-.87.87-1.46,1.44l-.17,0,0-.16c-.07-2.34,2.64-3.93,4.27-5.08l1.52-.27a3.57,3.57,0,0,1,2.93.93,14.27,14.27,0,0,1,4.56-3.07l2.35-.32,1.73-.7c.06.27.81.28,2.25,0,1.68.3,3.36.6,5.05.88C388.27,408,389,406.9,389.86,404.9Zm-18.1,27.46-.14.2c0,.06,0,.09,0,.16l.17,0,.51-.26a1,1,0,0,1,0-.17Zm.47,2.59a.76.76,0,0,1,0,.16l.54-.1a3.23,3.23,0,0,1-.06-.33Zm-3.47-21.9-.09.48c0,.07,0,.1,0,.17l.17,0,.28-.39a.59.59,0,0,1,0-.13l.19.09.64-.11,0-.13h-.83l-.15.19ZM375,430.23a1.23,1.23,0,0,1-1.11.89c0,.13,0,.2.06.33l1.57-1.15,0-.16Zm-.78,2.65.18,0,.65-.42,0-.16-.18,0c-.44.25-.65.45-.62.58Zm2.17-3.73.07.33.49-.27-.06-.33Zm.64-.47.42.26.66-.13-.37-.27Zm.85-1c0,.07,0,.1,0,.17l.53-.11c0-.13,0-.19-.06-.32Zm-3.21-18c0,.22.23.29.57.22l.17,0,0-.16Zm3.55,16.91c0,.07,0,.1,0,.17l.41.21.29-.36-.56-.05Zm8,29.38,0,.13.8-.64,0-.16-.18,0-.6.65Zm-8.06-45.28.41.25.17,0-.41-.26Zm9.19,44.38.18,0,.31-.4-.19,0Zm2.1-1.8.18,0,.3-.41-.18,0Zm-8-42c0,.06,0,.09,0,.16l1.09.11.12,0c0-.07,0-.1,0-.16l-1.05-.12Zm10.15,39.48,0,.16.19,0,1-.57-.08-.33Zm-4.65-23,0,.16.54-.93,0-.16Zm6.2,22.18.19,0,.3-.41-.19,0Zm-7.52-37.2.95.47-.07-.32-.76-.18Zm8.78,36.1.18,0,.45-.61-.19,0Zm-5.91-32.68.18,0,.26-.4-.17,0c-.1.17-.16.25-.27.41ZM396,447.48l.18,0,.25-.4-.15,0Zm1.16-1.47c0,.13,0,.2.07.33l.51-.29,0-.16Zm1.1-1.07-.29.41a1,1,0,0,0,0,.17l.36-.09.25-.58Zm-7-29.05q.08.33,1.68.42l.17-.05,0-.16Zm-.19-3.86c.05.2.07.29.11.49l.3-.07c0-.2-.07-.29-.11-.49Z"/><path class="cls-2" d="M407.06,400.7l.54,0,.41-.29.42.23.24-.41c1.48-.16,2.27-.06,2.38.31l.76-.35c.06.21,1,.58,2.79,1.05l.08.28-.2-.07-.63.18,0,.12a2.94,2.94,0,0,1,1.76,0,4,4,0,0,0,1.1-2.21c.22-.06.64-.64,1.24-1.72l.21.11.29.91c.05.41.08.61.13,1l.21.11.05.16c0,.19,0,.28,0,.49l.37.58-.12.22.4.7.25.8c0,.27,0,.41,0,.69l.4.7.11,1.54.42.18,0,.69.22.11c.06.45.09.67.16,1.12l.1.32.6,1.35-.12.21.05.16.37.58c.1.58.15.87.26,1.45.43,1.18.65,1.77,1.09,2.94.19.61.06,1-.4,1.13l-.3.09,0-.16-1.15.53-3,.91-.44-.22-.05-.81c-.23.06-.39-.06-.49-.38-.16-.54-.12-.84.11-.9l-.4-.71-.29-1q-.06-.24.54-.69l.1-.15-.05-.17-.13,0L417,413c-.29-.45-.43-.68-.71-1.14l.15-.74a8.12,8.12,0,0,0-6.18-5.85l-.57.52H409c-1.94.59-2.66,2.43-2.75,4.31l.35.6-.21.41.82,2.5c-.06.55-.08.82-.13,1.38l.46,1c.16.57.24.87.4,1.45.32,1.26.91,4.48,2.54,4.71l2.23,1.42,0,.16c-.73,1.15-1.9,2.57-1.81,4l.18.12c.06.45.1.68.16,1.13l.05.16.51,1.37c.21,1.24.31,1.87.52,3.11l.31-.09.29,1.61.17.64.39.89c0,.27,0,.41,0,.68.22.62.34.92.56,1.54a1.63,1.63,0,0,1-.09.19l0,.17c.51,1.26,1,3.19,2.21,3.94a5,5,0,0,0,3.32.11l.78-.57H421c1.3-.91,1-2.61,1-4,.28-.14.41-.22.68-.37l-1-.59-.31-1.08c-.37-1.29-.27-2.23.3-2.83l.27-.39,0-.16-.94,1.28-.18.05-.19-.64c0-.39,0-.58-.09-1s-.24-.45-.41-.74l.18-.06-.31-.39.17-.74c-.21.06-.52-.36-.94-1.25l-.13.21-.18.05-.22-.11-.18.06-.44.3A9.18,9.18,0,0,0,415.2,429l-1.38-.83.53-.14.93-.09.22-.41h.57q2.81-.94,5.6-1.93l1.09-.2c-.05-.18,1.4-.63,2.49-1.58.62-.54,1.27-1.43,1.94-1.65l.05.16.94-.64.83-.27c1.42-.4,2.81.58,3.74,1.57l-.48.33a.76.76,0,0,1,.06.16c.35-.12.56-.07.63.14a1.06,1.06,0,0,1-.36,1.3l-.18.06a1.72,1.72,0,0,0-2.1-.69l-1.19.38c-1.53,1.1-1.3,3.11-.8,4.71l.63,2-.15.18-.17.05.22.11.05.16c.07.47.1.7.17,1.17l.23.1.18-.05c.16,1,.24,1.55.41,2.58l.32.43-.18.05c.46,1,.69,1.44,1.14,2.4.06.46.1.68.16,1.14l.61,1.34c-.05.36-.07.54-.12.91l.37-.12.43,1.4-.37.11.05.16.57.53c.13.86.07,1.33-.17,1.4l-.37.11-.46-.2-2.57,1.13h-.6l-1.57.64c-1.09.27-1.66.31-1.71.15l-1.06.49-2.39.51-1.9.88L420,449l-.23-.11-1.38.56c-.05-.16-1.1-.2-3.17-.13-2.11-.93-5.43-2.06-6.51-4.37a20.12,20.12,0,0,1-3.45-3.86q-1.41-2.5-2.8-5l.18-.05.58,0a3.54,3.54,0,0,1-1.54-2.33l.18,0c-.38-.72-.57-1.07-1-1.78l0-.16-.05-1-.82-1,.14-.2,0-.12a1.17,1.17,0,0,0-1.26-.55c-.11-.46-.53-.7-1.25-.73,0,0,0-.07,0-.12a1.14,1.14,0,0,1,.85-.9c0-.06,0-.09,0-.16l-.36.09-.72.69-.35.08,0-.16c.69-1.18,1.38-2.37,2.06-3.56-.06-1,0-1.51.3-1.58l-.27-1.09c0-.55,0-.83,0-1.38l-.21-.12,0-.12a1.58,1.58,0,0,1,.5-1.68l-.29-.4c0-1.53-.47-3.73.5-5-.16-2.36,1-4.54,2-6.6a1.49,1.49,0,0,1,.88-.75l-.21-.11,0-.16c1-1.26,1.53-2,1.49-2.26Zm-8.56,25.9,0,.16.52-.13c0-.13,0-.19-.08-.32Zm1.74-1.77.18,0,.27-.41-.18,0Zm4.35,12a.75.75,0,0,1,0,.16l.4.24c0-.06,0-.09,0-.16ZM402.71,423l.08.33.48-.3a.94.94,0,0,0,0-.16Zm4.62,15.71a.94.94,0,0,0,0,.16q1.1.88,1.5.78a1,1,0,0,0,0-.17Zm-3.74-16.41-.13.21s0,.07,0,.12l.17-.05.49-.25a1,1,0,0,0,0-.17Zm1.09-.8,0,.16.18-.05.52-.65-.17,0Zm7.08,25.67,0,.16.74-.19.46-.47.87-.23-.08-.33-.15,0-1.88,1Zm-10.18-40.74.05.16.67-.18-.05-.16Zm4.28,14.07-.18.73.17,0,.53-.83Zm5.85,20.6.09.32,2,1,.18,0-2.05-1.3Zm-5.15-21.44.17.13s0,.07,0,.12l.48-.26-.08-.33-.18.05Zm7.68,26.68.19,0a2.86,2.86,0,0,1,1.33-.88l0-.12-.37.1c-.78.47-1.16.79-1.11.95Zm-9.05-42.22c0,.05,0,.07,0,.12l.67-.18,0-.12Zm1.2-.85a.94.94,0,0,1,0,.16l.13,0,1.12-.49a.94.94,0,0,1,0-.16l-.67.18Zm16.44,37.81,0,.16.73-.21-.09-.32Zm-10.9-39.38a1.24,1.24,0,0,0,0,.16l1.55-.11c-.06-.21-.54-.24-1.43-.1ZM424.05,440l.05.16.54-.16-.1-.32Zm.27.92.05.16.72-.21a.75.75,0,0,0,0-.16Zm-1.64-8.87.05.16.18-.05.44-.31-.1-.32-.57.51Zm2.59,7.41.18-.05.22-.41-.18.05Zm-7.58-27.22.22.11,0,.16-.13.17.21.11.35-.11-.22-.1,0-.13c0-.21,0-.31,0-.53Zm.37,1.24.18-.05.24-.43-.17.06Zm5.75,16.7c.1.32,0,.54-.39.64l-.13.22,0,.12.18-.06.66-1Zm-5.19-18.57.17-.05.24-.42-.17.05Zm6.2,20,0,.16.67-.2,0-.16Zm1.88,6.27.18-.05.27-.43,0-.16Zm-1.5-9.31c.07.21-.08.37-.43.48l.05.16.36-.11.21-.58Zm-.39,0,.18-.06.26-.43-.18.06Zm-5.29-18.07.05.16.17-.05c-.12-.4.36-1,1.45-1.8l-.05-.16-.17.06c-1,.84-1.45,1.43-1.44,1.78Zm6.33,20.81,0,.16.71-.22,0-.16Zm-5.54-19.47,0,.11.69-.2,0-.12Zm-3.08-10.72,0,.16.66-.2-.05-.16Zm8.31,26,.68.31c.52-1.64.88-2.5,1.09-2.56l.22.1.49-.15,0-.16-.49.15-.05-.16.55-1.17-.18.05a13.63,13.63,0,0,1-2.26,3.58Zm2.6-2.51.05.16.35-.11.13-.22-.05-.16Zm.59-2.42-.15.75.18-.06a.84.84,0,0,0,.45-.84Zm.49,1.55,0,.16,1-.32-.06-.16Z"/><path class="cls-1" d="M319.31,279a20.29,20.29,0,0,0,.84-1.85,16,16,0,0,0,.74-5.79,42.62,42.62,0,0,0-2.77-12.8A1.33,1.33,0,0,1,318,258l.36.24a59.79,59.79,0,0,1,14.27,15.89,47.21,47.21,0,0,1,5.53,12.72,41.71,41.71,0,0,1,.93,16.9,38.1,38.1,0,0,1-7.4,17.78,43.86,43.86,0,0,1-12.9,11.32,46.28,46.28,0,0,1-9.54,4.38l-.56.14.43-.74a41.87,41.87,0,0,0,5.55-22.29,41.34,41.34,0,0,0-3.92-16,56.52,56.52,0,0,0-11.13-15.64l-1.46-1.45a.92.92,0,0,0-.43-.24l.18.58a13.86,13.86,0,0,1,.14,6.65,32.86,32.86,0,0,1-4.56,11.21c-1.28,2.08-2.73,4.05-4.1,6.07-.09.13-.19.23-.36.45,0-.29,0-.46,0-.64a27.79,27.79,0,0,0-.35-8.19,10.08,10.08,0,0,0-2.07-4.6c-.1-.12-.18-.26-.31-.44-.08.15-.12.19-.11.22a10.57,10.57,0,0,1-.81,5.47,28.2,28.2,0,0,1-4.94,8.11c-1.6,1.9-3.28,3.75-5,5.5A13.93,13.93,0,0,0,271.32,323a29.43,29.43,0,0,0,4.17,12.08c.41.71.86,1.39,1.35,2.19-.23,0-.39-.05-.53-.09a39.84,39.84,0,0,1-16.77-9.49,28,28,0,0,1-8.61-17.59,40.85,40.85,0,0,1,1.62-15.66,77.36,77.36,0,0,1,6.87-16.14c2-3.71,4.3-7.27,6.69-10.75a2.93,2.93,0,0,1,.45-.54,44.84,44.84,0,0,0,1.32,20.32,4.62,4.62,0,0,0,.4-.24,57.56,57.56,0,0,0,16-18.43,32.12,32.12,0,0,0,4-15.21,29.23,29.23,0,0,0-2.76-12.26l-.43-.95a5.17,5.17,0,0,1,.64.15,34,34,0,0,1,9.75,4.81A53.65,53.65,0,0,1,309,258.88a79.9,79.9,0,0,1,9.26,17.77l.86,2.3Z"/><path class="cls-2" d="M271.88,375c1.59-.49,1.8-1.18,2.56-2.51.13.35.23.67.33,1,.7,2.22.61,3.55-1.64,4.25-2.47.77-3.57.21-5.89.93a7.87,7.87,0,0,0-1.6,1.2,5.1,5.1,0,0,1-.28-.74c-1.54-5,5.23-9.52,3.35-15.56a1.8,1.8,0,0,0-2-1.44c-1.53.47-1.62,1.28-1.27,2.41.16.52.65,1.3,1.34,1.28a2.83,2.83,0,0,1-1.48,1.31c-.93.28-1.86-.22-2.27-1.54-.49-1.54.2-3.72,3.63-4.79,3.11-1,4.77.11,5.46,2.31,1.58,5.06-3.93,9.22-4.86,12.87l.11,0C268.76,375.52,270.18,375.52,271.88,375Z"/><path class="cls-2" d="M291.34,367.53a.29.29,0,0,1-.3,0,1.49,1.49,0,0,1-.38-.28,1.46,1.46,0,0,1-.27-.38.33.33,0,0,1,0-.33c.66-.39,1.32-.77,2-1.13s1.33-.7,2-1q1-1.63,1.92-3.21c.61-1.06,1.15-2,1.63-2.87s.88-1.6,1.2-2.2.53-1,.62-1.25a.27.27,0,0,1,.26,0,2,2,0,0,1,.37.24,3.85,3.85,0,0,1,.35.35,1.36,1.36,0,0,1,.24.35c.09,0,.12.05.1.14h0a11,11,0,0,1-.24,1.11c-.11.43-.24.9-.39,1.42s-.31,1.07-.5,1.65-.37,1.16-.56,1.78-.39,1.21-.58,1.82-.37,1.21-.54,1.79-.32,1.12-.46,1.65-.25,1-.33,1.42a8,8,0,0,0-.16,1.08,1.26,1.26,0,0,0,.07.64l.18.16a.41.41,0,0,1,.24.26.69.69,0,0,1,0,.35.61.61,0,0,1-.19.29.35.35,0,0,1-.33.07,1.18,1.18,0,0,1-.62,0,.88.88,0,0,1-.43-.26,1.43,1.43,0,0,1-.27-.46,2.57,2.57,0,0,1-.14-.61,3.77,3.77,0,0,1,0-.58q0-.3,0-.6c0-.19,0-.38.06-.56s.05-.34.07-.48c.24-1.07.52-2.14.86-3.22l-.29.08-.28.09-.4.13-.4.14-.41.66h0l-.52.85-1,1.62c-.34.55-.7,1.1-1.07,1.65s-.75,1.07-1.15,1.58a16,16,0,0,1-1.21,1.4,9.71,9.71,0,0,1-1.28,1.11,5.88,5.88,0,0,1-1.35.73,3.94,3.94,0,0,1-1.76.29,2.78,2.78,0,0,1-1.33-.48,3,3,0,0,1-.88-1.07,4.67,4.67,0,0,1-.45-1.46,6.4,6.4,0,0,1,.67-3.75,5.81,5.81,0,0,1,1.22-1.61,4.82,4.82,0,0,1,1.82-1.08,2.28,2.28,0,0,1,1.52,0,2.44,2.44,0,0,1,1.15.93l0,.06a1.42,1.42,0,0,1,.06.42,2.54,2.54,0,0,1,0,.55,1.33,1.33,0,0,1-.14.44c-.07.1-.14.12-.25,0a5.29,5.29,0,0,0-.41-.41,2.25,2.25,0,0,0-1.14-.6,1.28,1.28,0,0,0-.67,0,3.49,3.49,0,0,0-1.4.73,3.9,3.9,0,0,0-1,1.15,4.61,4.61,0,0,0-.49,1.36,4.44,4.44,0,0,0-.05,1.36,2.89,2.89,0,0,0,.29,1,1.87,1.87,0,0,0,1.48,1,3,3,0,0,0,1.19-.15l.17-.05.18-.07a5.22,5.22,0,0,0,1.5-1,14.87,14.87,0,0,0,1.51-1.66c.5-.64,1-1.35,1.52-2.13s1-1.59,1.53-2.43c-.33.2-.65.41-1,.65s-.65.49-1,.78Zm4.93-3.85c.31-.1.62-.18.92-.25.16-.51.34-1,.52-1.53s.36-1,.53-1.54l-1,1.64Z"/><path class="cls-2" d="M305.74,364.69c-.09.26-.21.57-.37.95a9.67,9.67,0,0,1-.55,1.12,5.31,5.31,0,0,1-.69,1,1.71,1.71,0,0,1-.78.57,1.46,1.46,0,0,1-.51.06.83.83,0,0,1-.46-.17,1.26,1.26,0,0,1-.36-.43,2.07,2.07,0,0,1-.19-.74,5,5,0,0,1,0-.77,8,8,0,0,1,.08-.84c0-.29.1-.62.17-1s.14-.75.23-1.19a3.29,3.29,0,0,0,.1-.53,2.41,2.41,0,0,0,0-.38l-.43.68a12.37,12.37,0,0,0-.67,1.13c-.2.38-.4.78-.59,1.2a17.79,17.79,0,0,0-.26,1.76,11.24,11.24,0,0,0,0,1.74c0,.1-.08.17-.22.2a1.19,1.19,0,0,1-.46,0,1.56,1.56,0,0,1-.48-.14.4.4,0,0,1-.26-.26,8.77,8.77,0,0,1-.05-1.15c0-.38,0-.75.08-1.13s.09-.76.16-1.14.13-.75.19-1.14.15-.88.22-1.3.12-.83.16-1.21a.48.48,0,0,1,.36-.12,1.5,1.5,0,0,1,.47.08,1.7,1.7,0,0,1,.45.26,1,1,0,0,1,.31.38,7.75,7.75,0,0,1,.83-1.06,2.53,2.53,0,0,1,.95-.67.51.51,0,0,1,.38.05,1.6,1.6,0,0,1,.4.28,1.35,1.35,0,0,1,.3.42.78.78,0,0,1,.09.47c-.08.47-.16.92-.25,1.34s-.17.78-.23,1.09-.12.5-.17.73-.08.43-.11.65a4.6,4.6,0,0,0,0,.64c0,.21,0,.44,0,.68a.61.61,0,0,1,.07-.1h0a5.55,5.55,0,0,0,.71-.89,7.72,7.72,0,0,0,.74-1.53l.18-.46c0-.15.1-.3.16-.45l.12-.42c0-.05.07-.08.17-.09a.68.68,0,0,1,.28,0,.77.77,0,0,1,.25.14.17.17,0,0,1,.05.2v0l-.46,1.41Z"/><path class="cls-2" d="M311.91,362.77c-.09.25-.21.57-.37,1a11.61,11.61,0,0,1-.55,1.12,6.93,6.93,0,0,1-.69,1,1.71,1.71,0,0,1-.78.57,1.49,1.49,0,0,1-.51.06.83.83,0,0,1-.46-.17,1,1,0,0,1-.36-.44,2.09,2.09,0,0,1-.2-.73,6.77,6.77,0,0,1,0-.78,8,8,0,0,1,.09-.84c0-.29.1-.62.16-1l.24-1.19a4.51,4.51,0,0,0,.1-.53,2.41,2.41,0,0,0,0-.38l-.43.68c-.25.38-.47.76-.67,1.13s-.39.78-.58,1.21a17.19,17.19,0,0,0-.27,1.75,14.44,14.44,0,0,0,0,1.74c0,.1-.07.17-.21.2a1.23,1.23,0,0,1-.47,0,2.14,2.14,0,0,1-.48-.13.46.46,0,0,1-.26-.27,8.78,8.78,0,0,1,0-1.15c0-.38,0-.75.07-1.13s.1-.76.16-1.14.13-.75.2-1.14.14-.88.21-1.3.13-.83.17-1.21a.46.46,0,0,1,.35-.12,1.27,1.27,0,0,1,.47.09,1.33,1.33,0,0,1,.45.25,1.18,1.18,0,0,1,.32.38,7,7,0,0,1,.82-1.06,2.6,2.6,0,0,1,1-.67.48.48,0,0,1,.37.05,1.44,1.44,0,0,1,.4.28,1.58,1.58,0,0,1,.31.42,1,1,0,0,1,.09.47c-.08.47-.17.92-.26,1.34s-.17.78-.23,1.09-.11.51-.16.73-.09.44-.12.65,0,.43-.05.64,0,.44,0,.68a.18.18,0,0,1,.06-.09h0a6,6,0,0,0,.7-.9,7.72,7.72,0,0,0,.74-1.53c.07-.16.13-.31.18-.46s.11-.3.16-.45l.12-.42c0-.05.08-.08.17-.09a.92.92,0,0,1,.29,0,.72.72,0,0,1,.24.14.16.16,0,0,1,.06.2v0l-.46,1.41Z"/><path class="cls-2" d="M315.36,356.72a.51.51,0,0,1,.43-.11,1.41,1.41,0,0,1,.55.2,1.54,1.54,0,0,1,.45.43.79.79,0,0,1,.14.58,3.47,3.47,0,0,1-.07.35c0,.17-.08.34-.12.54v0l-.24,1.06c-.09.4-.17.79-.24,1.18s-.13.74-.17,1.06a3.33,3.33,0,0,0,0,.77l0,.11.12,0a2.45,2.45,0,0,0,.58-.62,5.73,5.73,0,0,0,.46-.84q.21-.47.39-1c.11-.34.22-.65.32-1L318,359a.45.45,0,0,1,.23-.26.48.48,0,0,1,.29,0,.49.49,0,0,1,.23.22.61.61,0,0,1,0,.42l-.19.57c-.2.56-.41,1.14-.64,1.73a9.4,9.4,0,0,1-.84,1.64l-.21.3a3.18,3.18,0,0,1-.7.62,1.72,1.72,0,0,1-.43.21.77.77,0,0,1-.85-.22,2,2,0,0,1-.41-1h0c-.09.2-.19.4-.28.59s-.21.36-.33.53a1.94,1.94,0,0,1-.21.29,3.26,3.26,0,0,1-.31.33,3.57,3.57,0,0,1-.38.3,1.9,1.9,0,0,1-.43.21.74.74,0,0,1-.84-.23,2,2,0,0,1-.4-1q0-.13,0-.3a1.71,1.71,0,0,1,0-.32c0-.19,0-.43.05-.68s.06-.53.1-.81.09-.58.15-.88.09-.6.13-.9c.07-.47.14-.92.2-1.35s.1-.79.13-1.07l.09-.21a.52.52,0,0,1,.43-.11,1.26,1.26,0,0,1,.56.2,1.67,1.67,0,0,1,.45.43.83.83,0,0,1,.14.57c0,.09,0,.22-.08.39s-.08.36-.13.58h0c-.08.31-.16.66-.25,1.05s-.17.76-.24,1.13-.12.73-.15,1.05a2.7,2.7,0,0,0,0,.75l0,.12.11,0a2.45,2.45,0,0,0,.56-.6,5.53,5.53,0,0,0,.46-.82,9.53,9.53,0,0,0,.38-.93c.11-.32.21-.63.31-.94h0a.78.78,0,0,1,0-.14l.06-.14.13-.81c.08-.5.16-1,.23-1.41s.11-.81.13-1.1Z"/><path class="cls-2" d="M323.05,356.55a.17.17,0,0,1-.05.15.66.66,0,0,1-.17.12l-.22.08a.39.39,0,0,1-.21,0,1.68,1.68,0,0,1,.39.16,1.16,1.16,0,0,1,.34.24,1.08,1.08,0,0,1,.24.32.65.65,0,0,1,.07.36c0,.07,0,.14-.05.22l-.06.25c0,.18-.08.37-.11.58s-.07.4-.1.59-.05.38-.06.55a1.41,1.41,0,0,0,0,.41v0l0,0,.09,0a2.36,2.36,0,0,0,.57-.61,5.73,5.73,0,0,0,.46-.84,10.09,10.09,0,0,0,.38-1c.11-.33.22-.64.32-.95a1,1,0,0,0,.09-.21,1.05,1.05,0,0,0,.05-.19c0-.07.08-.08.17-.09a.92.92,0,0,1,.29,0,.77.77,0,0,1,.25.14.17.17,0,0,1,.07.2l-.2.6h0c-.2.58-.42,1.16-.65,1.74a8.29,8.29,0,0,1-.86,1.64,3,3,0,0,1-.2.29,3.11,3.11,0,0,1-.29.33,2.24,2.24,0,0,1-.38.31,1.51,1.51,0,0,1-.45.2,1,1,0,0,1-.94-.16,1.41,1.41,0,0,1-.46-.85,8.46,8.46,0,0,1-.83,1.22,2.16,2.16,0,0,1-.94.72,1.49,1.49,0,0,1-.81,0,1.25,1.25,0,0,1-.56-.37,1.8,1.8,0,0,1-.35-.58,4.37,4.37,0,0,1-.17-.62,3.71,3.71,0,0,1,0-.47,5.06,5.06,0,0,1,.09-1.1,9.14,9.14,0,0,1,.34-1.27,12.21,12.21,0,0,1,.53-1.3,7.86,7.86,0,0,1,.71-1.18,5.55,5.55,0,0,1,.86-.95,2.9,2.9,0,0,1,1-.56l.31-.07.33,0a.88.88,0,0,1,.54.18,1.26,1.26,0,0,1,.36.43,2.32,2.32,0,0,1,.22.59A3.53,3.53,0,0,1,323.05,356.55Zm-1.41.44a.54.54,0,0,1,.28-.11,1.16,1.16,0,0,1,.37,0,.13.13,0,0,1-.08-.12.29.29,0,0,0,0-.09.3.3,0,0,1,0-.1c0-.08,0-.16-.07-.25a.66.66,0,0,0-.11-.24.49.49,0,0,0-.18-.14.39.39,0,0,0-.26,0,1.53,1.53,0,0,0-.81.6,5.45,5.45,0,0,0-.65,1.12,9.05,9.05,0,0,0-.45,1.33,8.9,8.9,0,0,0-.24,1.23c0,.12,0,.25,0,.37a3,3,0,0,0,0,.42,2.44,2.44,0,0,0,.06.26.39.39,0,0,0,.12.19.25.25,0,0,0,.19,0,.57.57,0,0,0,.29-.11,1.47,1.47,0,0,0,.37-.42,7.65,7.65,0,0,0,.42-.72,8.26,8.26,0,0,0,.4-.85c.12-.29.23-.56.31-.78s.08-.55.11-.81a3.58,3.58,0,0,0,0-.65Z"/><path class="cls-2" d="M327.47,353.52c-.05.19-.12.43-.2.75s-.18.68-.28,1.06-.19.8-.28,1.22-.19.83-.26,1.22-.12.74-.16,1.06a3.05,3.05,0,0,0,0,.74v.07a0,0,0,0,1,0,0l.09,0a2.29,2.29,0,0,0,.56-.6,5.53,5.53,0,0,0,.46-.82c.14-.3.27-.61.38-.92l.31-.94h0l.09-.26.1-.25c0-.06.07-.09.15-.09a.87.87,0,0,1,.28.05.72.72,0,0,1,.24.14.2.2,0,0,1,.08.19l-.23.67c-.19.56-.4,1.14-.63,1.72a9.51,9.51,0,0,1-.83,1.62,2.73,2.73,0,0,1-.21.3l-.31.33-.38.29a1.9,1.9,0,0,1-.43.21.78.78,0,0,1-.84-.23,1.56,1.56,0,0,1-.25-.43,2.34,2.34,0,0,1-.14-.58,1.39,1.39,0,0,1,0-.3,1.5,1.5,0,0,1,0-.3,11.89,11.89,0,0,1,.27-2.66c.2-.9.41-1.78.64-2.67l.33-1.21c.09-.37.18-.74.26-1.11s.16-.74.23-1.1.13-.7.18-1,.09-.63.11-.9a.53.53,0,0,1,.45-.13,1.3,1.3,0,0,1,.58.17,1.39,1.39,0,0,1,.47.4.78.78,0,0,1,.18.55,5.79,5.79,0,0,1-.13.61c-.06.26-.14.57-.22.9s-.17.68-.27,1-.18.7-.27,1Z"/><path class="cls-2" d="M278.28,362.23a6.27,6.27,0,0,1-.26.66,7.18,7.18,0,0,1-.38.79,4.27,4.27,0,0,1-.49.71,1.23,1.23,0,0,1-.55.4,1,1,0,0,1-.36,0,.63.63,0,0,1-.32-.12.84.84,0,0,1-.25-.31,1.3,1.3,0,0,1-.14-.52,4.86,4.86,0,0,1,0-.54c0-.18,0-.38.06-.59s.07-.43.11-.68.11-.53.17-.84c0-.12.05-.24.07-.37a1.22,1.22,0,0,0,0-.27l-.3.48a7.54,7.54,0,0,0-.47.8q-.21.39-.42.84c-.08.41-.14.82-.18,1.24a8.25,8.25,0,0,0,0,1.22c0,.07-.05.11-.15.14a.88.88,0,0,1-.32,0,1.22,1.22,0,0,1-.34-.1.27.27,0,0,1-.18-.18,6.5,6.5,0,0,1,0-1.61c0-.26.06-.53.11-.79s.09-.53.14-.8.1-.62.14-.92.09-.58.12-.85a.33.33,0,0,1,.25-.08,1,1,0,0,1,.33.06,1.41,1.41,0,0,1,.32.17,1,1,0,0,1,.22.27,5.83,5.83,0,0,1,.57-.74,1.77,1.77,0,0,1,.68-.47.3.3,0,0,1,.26,0,.94.94,0,0,1,.29.2.86.86,0,0,1,.21.29.62.62,0,0,1,.07.33c-.06.33-.12.65-.18.94l-.17.76c0,.19-.08.36-.11.52a3.69,3.69,0,0,0-.08.46c0,.15,0,.29,0,.44v.49a.18.18,0,0,1,.05-.07h0a4.26,4.26,0,0,0,.49-.63,5.37,5.37,0,0,0,.52-1.08c.05-.11.09-.22.13-.32l.11-.32.08-.29a.12.12,0,0,1,.12-.06.44.44,0,0,1,.2,0,.48.48,0,0,1,.17.1.12.12,0,0,1,0,.15v0l-.32,1Z"/><path class="cls-2" d="M282,361a2.62,2.62,0,0,0-.09.56,1.85,1.85,0,0,0,0,.47.22.22,0,0,1,0,.11l.09,0a1.49,1.49,0,0,0,.4-.43,4.91,4.91,0,0,0,.33-.59c.1-.22.18-.44.26-.67l.23-.67.06-.14,0-.14s.06-.05.12-.06l.21,0a.76.76,0,0,1,.18.09.11.11,0,0,1,0,.15l-.14.41h0c-.15.41-.29.82-.45,1.23a6.33,6.33,0,0,1-.61,1.15,1.43,1.43,0,0,1-.14.2,1.57,1.57,0,0,1-.21.24,1.71,1.71,0,0,1-.26.21,1.3,1.3,0,0,1-.32.14.71.71,0,0,1-.66-.11.92.92,0,0,1-.32-.59,6.17,6.17,0,0,1-.58.86,1.55,1.55,0,0,1-.66.5,1.14,1.14,0,0,1-.58,0,1.05,1.05,0,0,1-.39-.27,1.1,1.1,0,0,1-.24-.4,2.44,2.44,0,0,1-.13-.44c0-.11,0-.22,0-.33a4.11,4.11,0,0,1,.07-.78,6.84,6.84,0,0,1,.23-.89,7.14,7.14,0,0,1,.38-.9,5,5,0,0,1,.49-.84,3.82,3.82,0,0,1,.61-.66,2,2,0,0,1,.7-.4l.22-.05h.24a.63.63,0,0,1,.43.17l0-.14.17-.59.21-.78c.06-.27.11-.53.16-.78s.09-.5.12-.72.05-.43.07-.62a.38.38,0,0,1,.32-.1,1.09,1.09,0,0,1,.74.4.54.54,0,0,1,.11.4c0,.08,0,.21-.08.4s-.09.39-.16.63l-.19.75c-.07.26-.14.5-.2.73l-.15.56h0c-.12.43-.25.87-.36,1.33A12.4,12.4,0,0,0,282,361Zm-2.15,1.63a1,1,0,0,0,.26-.29c.1-.16.2-.32.29-.5l.27-.58.23-.55.05-.34c.08-.44.18-.88.3-1.33a.52.52,0,0,0-.14-.19.22.22,0,0,0-.23-.05,1,1,0,0,0-.58.43,3.77,3.77,0,0,0-.45.78,6.31,6.31,0,0,0-.48,1.8,2.28,2.28,0,0,0,0,.26,1.53,1.53,0,0,0,0,.3,1.16,1.16,0,0,0,0,.18.22.22,0,0,0,.08.13.18.18,0,0,0,.14,0,.4.4,0,0,0,.21-.09Z"/></g></g></svg>