<svg xmlns="http://www.w3.org/2000/svg" viewBox="0 0 576 576"><defs><style>.cls-1{fill:#de2025;}.cls-2{fill:#c61a2f;}</style></defs><g id="Layer_1" data-name="Layer 1"><path d="M20.63,376H5.1a1.46,1.46,0,0,1-1.26-.63,1.64,1.64,0,0,1-.54-1.18V362.68a1.73,1.73,0,0,1,.63-1.36,1.79,1.79,0,0,1,1.17-.45H51.33a1.83,1.83,0,0,1,1.35.54,2.13,2.13,0,0,1,.46,1.27v11.55a1.53,1.53,0,0,1-.55,1.27,1.94,1.94,0,0,1-1.26.54H35.8v67.53a1.56,1.56,0,0,1-.54,1.27,1.94,1.94,0,0,1-1.26.54H22.44a1.49,1.49,0,0,1-1.27-.63,1.65,1.65,0,0,1-.54-1.18Z"/><path d="M59.19,362.68a1.73,1.73,0,0,1,.63-1.36,1.79,1.79,0,0,1,1.17-.45H72.55a1.83,1.83,0,0,1,1.35.54,2.19,2.19,0,0,1,.45,1.27v32.86H88.08V362.68a1.73,1.73,0,0,1,.63-1.36,1.79,1.79,0,0,1,1.17-.45h11.56a1.83,1.83,0,0,1,1.35.54,2.2,2.2,0,0,1,.46,1.27v80.89a1.56,1.56,0,0,1-.55,1.27,1.94,1.94,0,0,1-1.26.54H89.88a1.46,1.46,0,0,1-1.26-.63,1.65,1.65,0,0,1-.54-1.18V410.71H74.35v32.86a1.56,1.56,0,0,1-.54,1.27,1.94,1.94,0,0,1-1.26.54H61a1.46,1.46,0,0,1-1.26-.63,1.65,1.65,0,0,1-.54-1.18Z"/><path d="M111.37,362.68a1.73,1.73,0,0,1,.63-1.36,1.8,1.8,0,0,1,1.18-.45h34.67a1.83,1.83,0,0,1,1.35.54,2.19,2.19,0,0,1,.45,1.27v11.55a1.56,1.56,0,0,1-.54,1.27,1.94,1.94,0,0,1-1.26.54H126.54v19.5h15.53a1.83,1.83,0,0,1,1.35.54,2.19,2.19,0,0,1,.45,1.27V408.9a1.56,1.56,0,0,1-.54,1.27,1.94,1.94,0,0,1-1.26.54H126.54v19.5h21.31a1.83,1.83,0,0,1,1.35.54,2.21,2.21,0,0,1,.45,1.27v11.55a1.56,1.56,0,0,1-.54,1.27,1.94,1.94,0,0,1-1.26.54H113.18a1.48,1.48,0,0,1-1.27-.63,1.65,1.65,0,0,1-.54-1.18Z"/><path d="M221.88,432a13.4,13.4,0,0,1-13.36,13.36H197A13.25,13.25,0,0,1,183.6,432v-5.78a1.74,1.74,0,0,1,.63-1.36,1.8,1.8,0,0,1,1.18-.45H197a1.82,1.82,0,0,1,1.36.55,2.16,2.16,0,0,1,.45,1.26v4h7.94V407.82H197a12.89,12.89,0,0,1-9.48-3.88,13.09,13.09,0,0,1-3.88-9.48V374.23a12.79,12.79,0,0,1,3.88-9.39,13,13,0,0,1,9.48-4h11.56a12.68,12.68,0,0,1,9.39,4,12.83,12.83,0,0,1,4,9.39V380a1.57,1.57,0,0,1-.54,1.27,1.94,1.94,0,0,1-1.26.54H208.52a1.46,1.46,0,0,1-1.26-.63,1.63,1.63,0,0,1-.55-1.18v-4h-7.94v16.61h9.75a12.65,12.65,0,0,1,9.39,4,12.8,12.8,0,0,1,4,9.38Z"/><path d="M242.2,445.38a12.9,12.9,0,0,1-9.48-3.88,13.1,13.1,0,0,1-3.89-9.48V374.23a12.8,12.8,0,0,1,3.89-9.39,12.94,12.94,0,0,1,9.48-4h11.55a12.68,12.68,0,0,1,9.39,4,12.84,12.84,0,0,1,4,9.39V432a12.76,12.76,0,0,1-4,9.48,13,13,0,0,1-9.39,3.88ZM252,376H244v54.17H252Z"/><path d="M274.79,362.68a1.73,1.73,0,0,1,.63-1.36,1.8,1.8,0,0,1,1.18-.45h23.11a12.68,12.68,0,0,1,9.39,4,12.83,12.83,0,0,1,4,9.39v20.23a12.75,12.75,0,0,1-4,9.48l1.44,1.35a12.84,12.84,0,0,1,4,9.39v28.89a1.56,1.56,0,0,1-.55,1.27,1.94,1.94,0,0,1-1.26.54H301.15a1.46,1.46,0,0,1-1.26-.63,1.65,1.65,0,0,1-.54-1.18v-30H290v30a1.56,1.56,0,0,1-.54,1.27,2,2,0,0,1-1.27.54H276.6a1.47,1.47,0,0,1-1.27-.63,1.65,1.65,0,0,1-.54-1.18Zm23.11,35.75V376H290v22.39Z"/><path d="M322,362.68a1.73,1.73,0,0,1,.63-1.36,1.8,1.8,0,0,1,1.18-.45h23.11a12.68,12.68,0,0,1,9.39,4,12.83,12.83,0,0,1,4,9.39v20.23a12.75,12.75,0,0,1-4,9.48l1.44,1.35a12.84,12.84,0,0,1,4,9.39v28.89a1.56,1.56,0,0,1-.55,1.27,1.94,1.94,0,0,1-1.26.54H348.37a1.46,1.46,0,0,1-1.26-.63,1.65,1.65,0,0,1-.54-1.18v-30h-9.39v30a1.56,1.56,0,0,1-.54,1.27,2,2,0,0,1-1.27.54H323.82a1.47,1.47,0,0,1-1.27-.63,1.65,1.65,0,0,1-.54-1.18Zm23.11,35.75V376h-7.94v22.39Z"/><path d="M393.88,443.57a1.56,1.56,0,0,1-.54,1.27,2,2,0,0,1-1.27.54H380.52a1.47,1.47,0,0,1-1.27-.63,1.65,1.65,0,0,1-.54-1.18V420.64L366.34,363a2.64,2.64,0,0,1-.09-.63c0-1,.63-1.54,1.9-1.54H379.7a1.7,1.7,0,0,1,1.81,1.45l4.78,22.48,4.79-22.48a1.7,1.7,0,0,1,1.8-1.45h11.56l.81.09a1.38,1.38,0,0,1,.73.63,1.36,1.36,0,0,1,.36,1,1.48,1.48,0,0,1-.09.45l-12.37,57.6Z"/><path d="M438.39,362.68a1.73,1.73,0,0,1,.63-1.36,1.8,1.8,0,0,1,1.18-.45h23.11a12.68,12.68,0,0,1,9.39,4,12.83,12.83,0,0,1,4,9.39v14.45a12.75,12.75,0,0,1-4,9.48l1.44,1.35a12.84,12.84,0,0,1,4,9.39V432a12.76,12.76,0,0,1-4,9.48,13,13,0,0,1-9.39,3.88H440.2a1.47,1.47,0,0,1-1.27-.63,1.65,1.65,0,0,1-.54-1.18Zm23.11,30V376h-7.94v16.61ZM463,430.21V407.82h-9.39v22.39Z"/><path d="M485.34,362.68a1.73,1.73,0,0,1,.63-1.36,1.79,1.79,0,0,1,1.17-.45h23.12a12.68,12.68,0,0,1,9.39,4,12.87,12.87,0,0,1,4,9.39v20.23a12.78,12.78,0,0,1-4,9.48l1.44,1.35a12.83,12.83,0,0,1,4,9.39v28.89a1.56,1.56,0,0,1-.54,1.27,1.94,1.94,0,0,1-1.26.54H511.7a1.46,1.46,0,0,1-1.26-.63,1.65,1.65,0,0,1-.54-1.18v-30h-9.39v30a1.53,1.53,0,0,1-.55,1.27,1.94,1.94,0,0,1-1.26.54H487.14a1.46,1.46,0,0,1-1.26-.63,1.65,1.65,0,0,1-.54-1.18Zm23.11,35.75V376h-7.94v22.39Z"/><path d="M545.29,445.38a12.93,12.93,0,0,1-9.48-3.88,13.09,13.09,0,0,1-3.88-9.48V374.23a12.79,12.79,0,0,1,3.88-9.39,13,13,0,0,1,9.48-4h11.55a12.69,12.69,0,0,1,9.4,4,12.87,12.87,0,0,1,4,9.39V432a12.78,12.78,0,0,1-4,9.48,13,13,0,0,1-9.4,3.88ZM555,376h-7.95v54.17H555Z"/><path d="M125.41,473.62a1.71,1.71,0,0,1,.63-1.35,1.8,1.8,0,0,1,1.18-.45h23.11a12.64,12.64,0,0,1,9.39,4,12.83,12.83,0,0,1,4,9.39v26a12.75,12.75,0,0,1-4,9.48,13,13,0,0,1-9.39,3.88h-9.75v30a1.55,1.55,0,0,1-.54,1.26,2,2,0,0,1-1.27.54H127.22a1.47,1.47,0,0,1-1.27-.63,1.63,1.63,0,0,1-.54-1.17ZM148.52,487h-7.94v22.4h7.94Z"/><path d="M183.37,556.32a12.89,12.89,0,0,1-9.48-3.88A13.13,13.13,0,0,1,170,543V485.18a13.4,13.4,0,0,1,13.36-13.36h11.56a12.64,12.64,0,0,1,9.39,4,12.83,12.83,0,0,1,4,9.39V543a12.75,12.75,0,0,1-4,9.48,13,13,0,0,1-9.39,3.88ZM193.13,487h-7.95v54.18h7.95Z"/><path d="M216,473.62a1.71,1.71,0,0,1,.63-1.35,1.79,1.79,0,0,1,1.17-.45h24.56a12.83,12.83,0,0,1,9.39,4,12.64,12.64,0,0,1,4,9.39V543a12.94,12.94,0,0,1-4,9.48,12.79,12.79,0,0,1-9.39,3.88H217.77a1.46,1.46,0,0,1-1.26-.63,1.63,1.63,0,0,1-.54-1.17ZM240.53,487h-9.39v54.18h9.39Z"/><path d="M276.1,556.32a12.89,12.89,0,0,1-9.48-3.88,13.09,13.09,0,0,1-3.88-9.48V485.18a12.79,12.79,0,0,1,3.88-9.39,12.94,12.94,0,0,1,9.48-4h11.56a12.64,12.64,0,0,1,9.39,4,12.87,12.87,0,0,1,4,9.39V491a1.55,1.55,0,0,1-.54,1.26,2,2,0,0,1-1.27.54H287.66a1.47,1.47,0,0,1-1.27-.63,1.63,1.63,0,0,1-.54-1.17v-4h-8v54.18h8v-4a1.71,1.71,0,0,1,.63-1.35,1.8,1.8,0,0,1,1.18-.45h11.55a1.85,1.85,0,0,1,1.36.54,2.16,2.16,0,0,1,.45,1.26V543a12.78,12.78,0,0,1-4,9.48,13,13,0,0,1-9.39,3.88Z"/><path d="M353.47,554.25v.45q0,1.62-1.8,1.62H339.93a1.79,1.79,0,0,1-1.17-.45,1.69,1.69,0,0,1-.63-1.08l-1.54-10H322l-1.53,10a1.69,1.69,0,0,1-.63,1.08,1.82,1.82,0,0,1-1.18.45H306.89l-.82-.09a1.36,1.36,0,0,1-.72-.63,1.89,1.89,0,0,1-.27-1v-.36l12.82-80.9a1.69,1.69,0,0,1,.63-1.08,1.82,1.82,0,0,1,1.18-.45h19.14a1.79,1.79,0,0,1,1.17.45,1.69,1.69,0,0,1,.63,1.08ZM329.28,498.9l-4.88,30.7h9.75Z"/><path d="M396.45,543a12.94,12.94,0,0,1-4,9.48,12.79,12.79,0,0,1-9.39,3.88H371.53A13.23,13.23,0,0,1,358.17,543v-5.78a1.71,1.71,0,0,1,.63-1.35,1.8,1.8,0,0,1,1.18-.45h11.55a1.85,1.85,0,0,1,1.36.54,2.16,2.16,0,0,1,.45,1.26v4h7.94v-22.4h-9.75a12.89,12.89,0,0,1-9.48-3.88,13.07,13.07,0,0,1-3.88-9.48V485.18a12.79,12.79,0,0,1,3.88-9.39,12.94,12.94,0,0,1,9.48-4h11.56a12.64,12.64,0,0,1,9.39,4,12.83,12.83,0,0,1,4,9.39V491a1.55,1.55,0,0,1-.54,1.26,1.94,1.94,0,0,1-1.26.54H383.09a1.46,1.46,0,0,1-1.26-.63,1.61,1.61,0,0,1-.55-1.17v-4h-7.94V503.6h9.75a12.64,12.64,0,0,1,9.39,4,12.83,12.83,0,0,1,4,9.39Z"/><path d="M419.29,487H403.76a1.46,1.46,0,0,1-1.26-.63,1.63,1.63,0,0,1-.54-1.17V473.62a1.71,1.71,0,0,1,.63-1.35,1.79,1.79,0,0,1,1.17-.45H450a1.83,1.83,0,0,1,1.35.54,2.11,2.11,0,0,1,.46,1.26v11.56a1.53,1.53,0,0,1-.55,1.26A1.94,1.94,0,0,1,450,487H434.46v67.54a1.55,1.55,0,0,1-.54,1.26,1.94,1.94,0,0,1-1.26.54H421.1a1.49,1.49,0,0,1-1.27-.63,1.63,1.63,0,0,1-.54-1.17Z"/><path class="cls-1" d="M141.35,220.29l.29,2c0,.08-.1.17-.09.23a3.24,3.24,0,0,0,.16.47A120.2,120.2,0,0,0,146,241.34q4.24,14.4,8.5,28.81,5.3,18,10.56,36a7.62,7.62,0,0,1-4.74-1.2l-1-.54a8.34,8.34,0,0,1-4.54-5.23c-8-24.22-17.7-47.94-24-72.69-18.49-72.61,11.43-151.71,74.1-191.21,20.82-13.11,43.49-21.16,68.09-22.82C341.56,7.86,392.7,37,426.43,95.72,453,142,456.37,191.4,439.43,242c-6.3,18.84-12.79,37.61-19.27,56.38-1.92,5.55-5.17,7.7-11,7.77,4.68-15.94,9.41-31.87,14-47.84,1.6-5.56,3.91-10.94,4.47-16.78,3.07-6.35,4-13.28,5.41-20.08.45-2.21.58-4.48.85-6.72l.05-.7c.07-1.12.14-2.23.22-3.35a2.92,2.92,0,0,0,.9-2.13,159.93,159.93,0,0,0-.09-33.39,163.92,163.92,0,0,0-21.59-65.37c-16-27-37.79-47.61-66.41-60.83-26-12-53.26-15.36-81.37-11.19-36.92,5.47-66.83,23.58-90.54,52.1a157.21,157.21,0,0,0-29.61,55.75,160.12,160.12,0,0,0-6.09,63.8c.24,2.22-.42,4.89,1.71,6.71l.13,2.68A.84.84,0,0,0,141.35,220.29Z"/><path class="cls-1" d="M396.79,306.32c-2.54,8.35-5.05,16.7-7.62,25.05-1.62,5.29-5.38,8.35-10.92,8.7-13.16.83-26.33.4-39.5.2.41-1.54.7-3.11,1.25-4.59,3.34-8.95,6.74-17.88,10.13-26.82q21.28-56.15,42.55-112.31c.87-2.32,2.15-4.55,2.1-7.16,1.37-.12,2.34.76,3.41,1.37q9.21,5.18,18.37,10.41c7.35,4.19,9.05,8.57,6.57,16.78Q420,228.23,417,238.51a24.56,24.56,0,0,0-.51,3,13.05,13.05,0,0,0-1.05,2.12Q406.08,275,396.79,306.32Z"/><path class="cls-1" d="M235.47,340.45c-4.16.72-8.37.32-12.56.39-8.41.14-16.82.22-25.23.18-6.77,0-10.77-3.18-12.71-9.64q-3.76-12.54-7.57-25.07-9.6-32.51-19.22-65c-2.44-8.26-4.91-16.5-7.31-24.76-1.52-5.22.06-10.17,4.48-13.19a221.71,221.71,0,0,1,24-14.05,20.14,20.14,0,0,0,.68,3.32q19.22,51.24,38.48,102.46Q227.06,317.76,235.47,340.45Z"/><path class="cls-2" d="M141,216.17c-2.13-1.82-1.47-4.49-1.71-6.71a160.12,160.12,0,0,1,6.09-63.8A157.21,157.21,0,0,1,175,89.91c23.71-28.52,53.62-46.63,90.54-52.1C293.68,33.64,320.94,37,346.94,49c28.62,13.22,50.45,33.81,66.41,60.83a163.92,163.92,0,0,1,21.59,65.37,159.93,159.93,0,0,1,.09,33.39,2.92,2.92,0,0,1-.9,2.13A201,201,0,0,0,431,175.43C419.77,116.7,373.44,68.74,317,57.59,250.5,44.45,186.62,76.28,156.84,137.4A154.12,154.12,0,0,0,141,210C141.07,212.07,141,214.12,141,216.17Z"/><path class="cls-2" d="M235.47,340.45q-8.46-22.68-16.93-45.36-19.23-51.22-38.48-102.46a20.14,20.14,0,0,1-.68-3.32,30.87,30.87,0,0,1,9-4.81c4.83-1.52,8.31.16,10.09,4.79q26.7,69.78,53.39,139.57c2.2,5.77-.07,9.82-6.12,11.12C242.31,340.7,238.88,340.28,235.47,340.45Z"/><path class="cls-2" d="M394.78,189.39c.05,2.61-1.23,4.84-2.1,7.16q-21.23,56.17-42.55,112.31c-3.39,8.94-6.79,17.87-10.13,26.82-.55,1.48-.84,3.05-1.25,4.59a36.94,36.94,0,0,1-10.86-.42c-5.64-1.32-7.78-5.34-5.69-10.77Q349.1,259.3,376,189.52c1.87-4.83,5.85-6.47,11.08-4.44A30.52,30.52,0,0,1,394.78,189.39Z"/><path class="cls-2" d="M158.18,241.31q9.62,32.49,19.22,65l-12.35-.15q-5.28-18-10.56-36-4.23-14.41-8.5-28.81Z"/><path class="cls-2" d="M396.79,306.32q9.3-31.36,18.63-62.72a13.05,13.05,0,0,1,1.05-2.12l11.13.09c-.56,5.84-2.87,11.22-4.47,16.78-4.59,16-9.32,31.9-14,47.84Z"/><path class="cls-1" d="M141.35,220.29a.84.84,0,0,1-.18-1.44A1.35,1.35,0,0,1,141.35,220.29Z"/><path class="cls-1" d="M433.91,214.07l-.05.7Z"/><path class="cls-1" d="M141.71,223a3.24,3.24,0,0,1-.16-.47c0-.06.06-.15.09-.23Z"/><path class="cls-1" d="M159.27,304.42l1,.54Z"/></g></svg>