<svg id="Layer_1" data-name="Layer 1" xmlns="http://www.w3.org/2000/svg" viewBox="0 0 576 576"><defs><style>.cls-1{fill:#de2025;}.cls-2{fill:#c61a2f;}</style></defs><g id="Layer_1-2" data-name="Layer 1"><path d="M94.94,347.66H83.58a1.07,1.07,0,0,1-.93-.46,1.19,1.19,0,0,1-.4-.86v-8.45a1.24,1.24,0,0,1,.47-1,1.31,1.31,0,0,1,.86-.34h33.81a1.32,1.32,0,0,1,1,.4,1.6,1.6,0,0,1,.32.92v8.45a1.13,1.13,0,0,1-.39.93,1.39,1.39,0,0,1-.92.39H106v49.4a1.13,1.13,0,0,1-.4.92,1.46,1.46,0,0,1-.93.4H96.25a1.07,1.07,0,0,1-.92-.47,1.17,1.17,0,0,1-.39-.85Z"/><path d="M123.13,337.89a1.21,1.21,0,0,1,.46-1,1.34,1.34,0,0,1,.85-.34h8.46a1.32,1.32,0,0,1,1,.4,1.54,1.54,0,0,1,.33.92v24h10v-24a1.2,1.2,0,0,1,.46-1,1.31,1.31,0,0,1,.86-.34H154a1.32,1.32,0,0,1,1,.4,1.48,1.48,0,0,1,.33.92v59.17a1.13,1.13,0,0,1-.4.92,1.41,1.41,0,0,1-.92.4h-8.45a1.06,1.06,0,0,1-.92-.47,1.16,1.16,0,0,1-.4-.85V373h-10v24a1.15,1.15,0,0,1-.39.92,1.41,1.41,0,0,1-.93.4h-8.46a1.06,1.06,0,0,1-.92-.47,1.18,1.18,0,0,1-.4-.85Z"/><path d="M161.3,337.89a1.21,1.21,0,0,1,.46-1,1.34,1.34,0,0,1,.85-.34H188a1.36,1.36,0,0,1,1,.4,1.61,1.61,0,0,1,.33.92v8.45a1.11,1.11,0,0,1-.41.93,1.37,1.37,0,0,1-.92.39H172.39v14.26h11.36a1.33,1.33,0,0,1,1,.41,1.58,1.58,0,0,1,.32.92v8.45a1.14,1.14,0,0,1-.39.93,1.44,1.44,0,0,1-.92.39H172.39v14.24H188a1.36,1.36,0,0,1,1,.4,1.61,1.61,0,0,1,.33.92V397a1.12,1.12,0,0,1-.41.92,1.37,1.37,0,0,1-.92.41H162.61a1.1,1.1,0,0,1-.92-.47,1.21,1.21,0,0,1-.39-.86Z"/><path d="M242.12,388.61a9.81,9.81,0,0,1-9.78,9.77h-8.45a9.69,9.69,0,0,1-9.77-9.62v-4.38a1.23,1.23,0,0,1,.46-1,1.3,1.3,0,0,1,.86-.33h8.45a1.35,1.35,0,0,1,1,.39,1.58,1.58,0,0,1,.34.93v2.88H231V370.91h-7.14a9.7,9.7,0,0,1-9.77-9.77v-14.8a9.8,9.8,0,0,1,9.77-9.77h8.45a9.27,9.27,0,0,1,6.87,2.9,9.44,9.44,0,0,1,2.91,6.87v4.23a1.13,1.13,0,0,1-.4.93,1.5,1.5,0,0,1-.92.39h-8.46a1,1,0,0,1-.92-.47,1.14,1.14,0,0,1-.39-.85v-2.91h-5.81v12.15h7.09a9.24,9.24,0,0,1,6.87,2.91,9.4,9.4,0,0,1,2.9,6.87Z"/><path d="M257,398.38a9.73,9.73,0,0,1-9.77-9.77V346.34a9.81,9.81,0,0,1,9.77-9.77h8.45a9.31,9.31,0,0,1,6.88,2.9,9.43,9.43,0,0,1,2.9,6.87v42.27a9.36,9.36,0,0,1-2.9,6.92,9.54,9.54,0,0,1-6.88,2.85Zm7.14-50.72H258.3v39.6h5.81Z"/><path d="M280.81,337.89a1.26,1.26,0,0,1,.46-1,1.33,1.33,0,0,1,.86-.34H299a9.31,9.31,0,0,1,6.88,2.9,9.43,9.43,0,0,1,2.9,6.87v14.8a9.38,9.38,0,0,1-2.9,6.93l1,1a9.39,9.39,0,0,1,2.9,6.86v21.13a1.13,1.13,0,0,1-.39.93,1.46,1.46,0,0,1-.92.4h-8.46a1.06,1.06,0,0,1-.92-.47,1.22,1.22,0,0,1-.4-.86V375.13h-6.86v21.93a1.13,1.13,0,0,1-.4.92,1.46,1.46,0,0,1-.93.4h-8.45a1.1,1.1,0,0,1-.93-.47,1.21,1.21,0,0,1-.39-.85ZM297.72,364V347.66h-5.81V364Z"/><path d="M315.35,337.89a1.21,1.21,0,0,1,.46-1,1.34,1.34,0,0,1,.86-.34h16.9a9.27,9.27,0,0,1,6.87,2.9,9.42,9.42,0,0,1,2.9,6.87v14.8a9.3,9.3,0,0,1-2.9,6.93l1.06,1a9.39,9.39,0,0,1,2.9,6.86v21.13a1.13,1.13,0,0,1-.4.93,1.43,1.43,0,0,1-.92.4h-8.45a1.08,1.08,0,0,1-.93-.47,1.21,1.21,0,0,1-.39-.86V375.13h-6.87v21.93a1.15,1.15,0,0,1-.39.92,1.46,1.46,0,0,1-.93.4h-8.45a1.08,1.08,0,0,1-.93-.47,1.21,1.21,0,0,1-.39-.85ZM332.25,364V347.66h-5.81V364Z"/><path d="M367.91,397.06a1.13,1.13,0,0,1-.4.92,1.46,1.46,0,0,1-.92.4h-8.45a1.08,1.08,0,0,1-.93-.47,1.2,1.2,0,0,1-.4-.85V380.28l-9-42.12a1.84,1.84,0,0,1-.07-.47c0-.75.46-1.12,1.39-1.12h8.45a1.25,1.25,0,0,1,1.32,1l3.5,16.44,3.5-16.44a1.25,1.25,0,0,1,1.36-1h8.45l.59.07a1,1,0,0,1,.53.46,1,1,0,0,1,.19,1.06l-9,42.12Z"/><path d="M400.46,337.89a1.24,1.24,0,0,1,.46-1,1.36,1.36,0,0,1,.86-.34h16.91a9.26,9.26,0,0,1,6.86,2.9,9.39,9.39,0,0,1,2.91,6.87v10.57a9.3,9.3,0,0,1-2.91,6.93l1.06,1a9.43,9.43,0,0,1,2.91,6.87v16.91a9.31,9.31,0,0,1-2.91,6.92,9.54,9.54,0,0,1-6.87,2.85h-18a1.06,1.06,0,0,1-.92-.47,1.18,1.18,0,0,1-.4-.85Zm16.9,21.92V347.66h-5.81v12.15Zm1.09,27.45V370.91h-6.86v16.35Z"/><path d="M434.8,337.89a1.21,1.21,0,0,1,.46-1,1.34,1.34,0,0,1,.86-.34H453a9.27,9.27,0,0,1,6.87,2.9,9.43,9.43,0,0,1,2.91,6.87v14.8a9.35,9.35,0,0,1-2.91,6.93l1.05,1a9.36,9.36,0,0,1,2.91,6.86v21.13a1.13,1.13,0,0,1-.4.93,1.43,1.43,0,0,1-.92.4h-8.45a1,1,0,0,1-.92-.47,1.18,1.18,0,0,1-.41-.86V375.13h-6.86v21.93a1.15,1.15,0,0,1-.39.92,1.43,1.43,0,0,1-.93.4h-8.45a1.08,1.08,0,0,1-.93-.47,1.21,1.21,0,0,1-.39-.85ZM451.7,364V347.66h-5.81V364Z"/><path d="M478.64,398.38a9.71,9.71,0,0,1-9.77-9.77V346.34a9.8,9.8,0,0,1,9.77-9.77h8.45a9.27,9.27,0,0,1,6.87,2.9,9.43,9.43,0,0,1,2.9,6.87v42.27a9.28,9.28,0,0,1-2.9,6.92,9.54,9.54,0,0,1-6.87,2.85Zm7.09-50.72h-5.8v39.6h5.81Z"/><path d="M171.56,419a1.36,1.36,0,0,1,1.33-1.32h16.89a9.23,9.23,0,0,1,6.88,2.91,9.43,9.43,0,0,1,2.9,6.84v19a9.38,9.38,0,0,1-2.9,6.93,9.49,9.49,0,0,1-6.88,2.84h-7.09v21.92a1.1,1.1,0,0,1-.4.92,1.36,1.36,0,0,1-.92.4h-8.48A1.07,1.07,0,0,1,172,479a1.22,1.22,0,0,1-.4-.86Zm16.91,9.77h-5.81v16.38h5.81Z"/><path d="M214,479.48a9.45,9.45,0,0,1-6.93-2.84,9.57,9.57,0,0,1-2.83-6.93V427.46a9.8,9.8,0,0,1,9.76-9.78h8.46a9.28,9.28,0,0,1,6.87,2.91,9.42,9.42,0,0,1,2.9,6.87v42.26a9.33,9.33,0,0,1-2.9,6.93,9.53,9.53,0,0,1-6.87,2.84Zm7.14-50.71h-5.81v39.68h5.81Z"/><path d="M237.79,419a1.26,1.26,0,0,1,.46-1,1.32,1.32,0,0,1,.86-.33h18a9.36,9.36,0,0,1,6.86,2.91,9.21,9.21,0,0,1,2.9,6.86v42.27a9.79,9.79,0,0,1-9.76,9.73h-18a1.06,1.06,0,0,1-.92-.46,1.19,1.19,0,0,1-.4-.86Zm18,9.77h-6.86v39.65h6.86Z"/><path d="M281.77,479.48a9.7,9.7,0,0,1-9.77-9.77V427.46a9.82,9.82,0,0,1,9.77-9.78h8.45a9.28,9.28,0,0,1,6.87,2.91,9.43,9.43,0,0,1,2.91,6.87v4.22a1.14,1.14,0,0,1-.41.93,1.43,1.43,0,0,1-.92.4h-8.45a1,1,0,0,1-.92-.47,1.15,1.15,0,0,1-.4-.86v-2.9h-5.81v39.67h5.81v-2.91a1.23,1.23,0,0,1,.46-1,1.3,1.3,0,0,1,.86-.33h8.42a1.35,1.35,0,0,1,1,.39,1.53,1.53,0,0,1,.33.93v4.23a9.3,9.3,0,0,1-2.9,6.93,9.53,9.53,0,0,1-6.87,2.84Z"/><path d="M338.36,478v.33c0,.79-.44,1.18-1.33,1.18h-8.58a1.36,1.36,0,0,1-.86-.32,1.26,1.26,0,0,1-.46-.79L326,471.07h-10.7l-1.12,7.33a1.26,1.26,0,0,1-.46.79,1.36,1.36,0,0,1-.86.32h-8.59l-.59-.06a1,1,0,0,1-.53-.47,1.3,1.3,0,0,1-.19-.72V478l9.37-59.17a1.26,1.26,0,0,1,.46-.78,1.33,1.33,0,0,1,.86-.34h14a1.36,1.36,0,0,1,.86.34,1.22,1.22,0,0,1,.46.78Zm-17.7-40.48L317.09,460h7.1Z"/><path d="M369.79,469.75a9.42,9.42,0,0,1-2.91,6.92,9.32,9.32,0,0,1-6.86,2.84h-8.46a9.54,9.54,0,0,1-6.93-2.84,9.24,9.24,0,0,1-2.11-3.15,9.33,9.33,0,0,1-.73-3.76v-4.22a1.24,1.24,0,0,1,.46-1,1.35,1.35,0,0,1,.86-.33h8.45a1.36,1.36,0,0,1,1,.4,1.56,1.56,0,0,1,.34.93v2.91h5.81v-16.4h-7.14a9.71,9.71,0,0,1-9.77-9.77V427.46a9.38,9.38,0,0,1,2.84-6.87,9.48,9.48,0,0,1,6.93-2.91H360a9.26,9.26,0,0,1,6.86,2.91,9.43,9.43,0,0,1,2.91,6.87v4.22a1.13,1.13,0,0,1-.4.93,1.46,1.46,0,0,1-.92.4H360a1.08,1.08,0,0,1-.93-.47,1.18,1.18,0,0,1-.39-.86v-2.9h-5.81v12.15H360a9.22,9.22,0,0,1,6.86,2.91,9.4,9.4,0,0,1,2.91,6.86Z"/><path d="M386.5,428.8H375.14a1,1,0,0,1-.92-.46,1.2,1.2,0,0,1-.41-.86V419a1.27,1.27,0,0,1,.47-1,1.3,1.3,0,0,1,.86-.33h33.8a1.33,1.33,0,0,1,1,.4,1.61,1.61,0,0,1,.33.92v8.43a1.15,1.15,0,0,1-.4.93,1.5,1.5,0,0,1-.93.39H397.59v49.39a1.16,1.16,0,0,1-.4.92,1.34,1.34,0,0,1-.92.4h-8.46a1.09,1.09,0,0,1-.92-.46,1.21,1.21,0,0,1-.39-.86Z"/><path class="cls-1" d="M183.22,233.76l.21,1.46c0,.05-.07.11-.06.16a2.06,2.06,0,0,0,.12.35,88.1,88.1,0,0,0,3.15,13.4q3.11,10.53,6.23,21.07l7.71,26.34a5.62,5.62,0,0,1-3.46-.88l-.79-.4a6.15,6.15,0,0,1-3.33-3.83c-5.87-17.68-12.94-35-17.55-53.15-13.52-53.1,8.36-110.95,54.2-139.84,15.22-9.58,31.8-15.44,49.8-16.67C329.64,78.4,367,99.69,391.71,142.65c19.41,33.83,21.9,70,9.51,107-4.61,13.78-9.36,27.51-14.09,41.24-1.41,4.06-3.78,5.62-8.07,5.68,3.42-11.66,6.88-23.31,10.25-35,1.17-4.07,2.85-8,3.26-12.27,2.25-4.65,2.94-9.71,3.94-14.69.34-1.57.43-3.27.63-4.91v-.51c.05-.79.1-1.63.15-2.45a2.18,2.18,0,0,0,.67-1.58,116.66,116.66,0,0,0-.07-24.43,119.81,119.81,0,0,0-15.77-47.81c-11.66-19.76-27.63-34.82-48.57-44.49-19-8.74-38.92-11.2-59.49-8.11-27,4-48.87,17.25-66.21,38.1a115,115,0,0,0-21.65,40.72,117.11,117.11,0,0,0-4.46,46.66c.18,1.62-.3,3.58,1.26,4.9l.08,2a.62.62,0,0,0-.12.87A.73.73,0,0,0,183.22,233.76Z"/><path class="cls-1" d="M370,296.67c-1.85,6.11-3.69,12.22-5.57,18.32a8.42,8.42,0,0,1-8,6.37c-9.62.6-19.25.29-28.88.14a32.56,32.56,0,0,1,.92-3.35c2.44-6.56,4.92-13.08,7.4-19.62q15.57-41.05,31.12-82.14c.64-1.69,1.57-3.32,1.53-5.23a4.32,4.32,0,0,1,2.5,1l13.44,7.61c5.37,3.07,6.62,6.27,4.8,12.28q-2.26,7.5-4.5,15c-.16.72-.29,1.44-.38,2.17a11.65,11.65,0,0,0-.79,1.58Q376.84,273.75,370,296.67Z"/><path class="cls-1" d="M252.06,323.21c-3.05.53-6.13.24-9.2.29-6.14.1-12.29.16-18.44.13-4.95,0-7.88-2.36-9.3-7.05q-2.76-9.16-5.52-18.34-7-23.78-14-47.54c-1.79-6-3.6-12.06-5.36-18.13a8.33,8.33,0,0,1,3.28-9.64,161.45,161.45,0,0,1,17.58-10.25,15.61,15.61,0,0,0,.49,2.43Q225.6,252.58,239.7,290,245.9,306.61,252.06,323.21Z"/><path class="cls-2" d="M183,230.74c-1.58-1.33-1.08-3.28-1.26-4.9a117.19,117.19,0,0,1,4.46-46.68,114.92,114.92,0,0,1,21.65-40.77c17.34-20.86,39.22-34.1,66.21-38.1,20.57-3.05,40.5-.6,59.51,8.18,20.94,9.66,36.91,24.72,48.58,44.49a119.75,119.75,0,0,1,15.76,47.8A116.76,116.76,0,0,1,398,225.2a2.12,2.12,0,0,1-.66,1.57A146.78,146.78,0,0,0,395,201c-8.22-43-42.1-78-83.41-86.19-48.61-9.61-95.32,13.68-117.11,58.37A112.81,112.81,0,0,0,183,226.27C183,227.75,183,229.25,183,230.74Z"/><path class="cls-2" d="M252.06,323.21q-6.19-16.54-12.38-33.17-14.07-37.47-28.16-74.93a15.59,15.59,0,0,1-.48-2.43,22.37,22.37,0,0,1,6.54-3.52c3.53-1.12,6.08.11,7.38,3.5q19.53,51,39,102.08c1.62,4.22,0,7.18-4.46,8.13C257.05,323.41,254.55,323.09,252.06,323.21Z"/><path class="cls-2" d="M368.56,211.16c0,1.91-.89,3.54-1.53,5.23q-15.52,41.1-31.12,82.14c-2.48,6.54-5,13.06-7.4,19.62a32.56,32.56,0,0,0-.92,3.35,26.76,26.76,0,0,1-7.94-.3c-4.13-1-5.69-3.95-4.17-7.89q19.71-51,39.38-102.06c1.36-3.54,4.28-4.73,8.09-3.25A21.84,21.84,0,0,1,368.56,211.16Z"/><path class="cls-2" d="M195.53,250.7q7,23.78,14.06,47.54l-9-.1q-3.87-13.17-7.71-26.34-3.1-10.53-6.23-21.07Z"/><path class="cls-2" d="M370,296.67q6.81-22.93,13.63-45.86a10.13,10.13,0,0,1,.79-1.58l8.14.06c-.41,4.28-2.1,8.21-3.26,12.28-3.36,11.68-6.82,23.33-10.25,35Z"/><path class="cls-1" d="M183.22,235.33a.62.62,0,0,1-.32-.82.68.68,0,0,1,.18-.23A1,1,0,0,1,183.22,235.33Z"/><path class="cls-1" d="M183.49,237.3a2,2,0,0,1-.12-.34.7.7,0,0,1,.06-.17Z"/><path class="cls-1" d="M196.33,296.86l.79.4Z"/></g></svg>