<svg xmlns="http://www.w3.org/2000/svg" viewBox="0 0 576 576"><defs><style>.cls-1{fill:#de2025;}.cls-2{fill:#c61a2f;}</style></defs><g id="Layer_1" data-name="Layer 1"><path d="M42.57,364.77H28.16a1.37,1.37,0,0,1-1.18-.59,1.52,1.52,0,0,1-.5-1.09V352.37a1.58,1.58,0,0,1,.59-1.25,1.66,1.66,0,0,1,1.09-.42H71.05a1.7,1.7,0,0,1,1.26.5,2.05,2.05,0,0,1,.41,1.17v10.72a1.43,1.43,0,0,1-.5,1.18,1.83,1.83,0,0,1-1.17.5H56.64v62.66a1.45,1.45,0,0,1-.5,1.17,1.81,1.81,0,0,1-1.18.51H44.24a1.36,1.36,0,0,1-1.17-.59,1.51,1.51,0,0,1-.5-1.09Z"/><path d="M78.34,352.37a1.57,1.57,0,0,1,.58-1.25A1.68,1.68,0,0,1,80,350.7H90.73a1.67,1.67,0,0,1,1.26.5,2,2,0,0,1,.42,1.17v30.49h12.73V352.37a1.58,1.58,0,0,1,.59-1.25,1.66,1.66,0,0,1,1.09-.42h10.72a1.7,1.7,0,0,1,1.26.5,2,2,0,0,1,.42,1.17v75.06a1.43,1.43,0,0,1-.51,1.17,1.79,1.79,0,0,1-1.17.51H106.82a1.35,1.35,0,0,1-1.17-.59,1.52,1.52,0,0,1-.51-1.09V396.94H92.41v30.49a1.45,1.45,0,0,1-.5,1.17,1.79,1.79,0,0,1-1.18.51H80a1.36,1.36,0,0,1-1.17-.59,1.51,1.51,0,0,1-.5-1.09Z"/><path d="M126.76,352.37a1.57,1.57,0,0,1,.58-1.25,1.68,1.68,0,0,1,1.09-.42H160.6a1.7,1.7,0,0,1,1.26.5,2,2,0,0,1,.42,1.17v10.72a1.44,1.44,0,0,1-.51,1.18,1.83,1.83,0,0,1-1.17.5H140.83v18.09h14.41a1.71,1.71,0,0,1,1.26.51,2.05,2.05,0,0,1,.41,1.17v10.72a1.45,1.45,0,0,1-.5,1.18,1.83,1.83,0,0,1-1.17.5H140.83V415H160.6a1.71,1.71,0,0,1,1.26.51,2,2,0,0,1,.42,1.17v10.72a1.43,1.43,0,0,1-.51,1.17,1.79,1.79,0,0,1-1.17.51H128.43a1.36,1.36,0,0,1-1.17-.59,1.51,1.51,0,0,1-.5-1.09Z"/><path d="M229.29,416.71a12.44,12.44,0,0,1-12.4,12.4H206.17a12.3,12.3,0,0,1-12.4-12.4v-5.36a1.58,1.58,0,0,1,.59-1.26,1.66,1.66,0,0,1,1.09-.42h10.72a1.74,1.74,0,0,1,1.26.5,2,2,0,0,1,.42,1.18V415h7.37V394.26h-9.05a12,12,0,0,1-8.79-3.6,12.13,12.13,0,0,1-3.61-8.8V363.09a12.44,12.44,0,0,1,12.4-12.39h10.72a11.74,11.74,0,0,1,8.72,3.68,11.94,11.94,0,0,1,3.68,8.71v5.37a1.42,1.42,0,0,1-.5,1.17,1.83,1.83,0,0,1-1.17.5H216.89a1.34,1.34,0,0,1-1.17-.59,1.51,1.51,0,0,1-.5-1.08v-3.69h-7.37v15.41h9a11.75,11.75,0,0,1,8.72,3.69,11.94,11.94,0,0,1,3.68,8.71Z"/><path d="M248.14,429.11a12,12,0,0,1-8.79-3.61,12.09,12.09,0,0,1-3.61-8.79V363.09a12.44,12.44,0,0,1,12.4-12.39h10.72a11.74,11.74,0,0,1,8.72,3.68,11.94,11.94,0,0,1,3.68,8.71v53.62a11.84,11.84,0,0,1-3.68,8.79,12.09,12.09,0,0,1-8.72,3.61Zm9.05-64.34h-7.37V415h7.37Z"/><path d="M278.38,352.37a1.58,1.58,0,0,1,.59-1.25,1.66,1.66,0,0,1,1.09-.42H301.5a11.74,11.74,0,0,1,8.72,3.68,11.94,11.94,0,0,1,3.68,8.71v18.77a11.88,11.88,0,0,1-3.68,8.8l1.34,1.25a11.94,11.94,0,0,1,3.68,8.71v26.81a1.45,1.45,0,0,1-.5,1.17,1.79,1.79,0,0,1-1.17.51H302.84a1.36,1.36,0,0,1-1.17-.59,1.55,1.55,0,0,1-.5-1.09V399.62h-8.71v27.81a1.43,1.43,0,0,1-.51,1.17,1.79,1.79,0,0,1-1.17.51H280.06a1.38,1.38,0,0,1-1.18-.59,1.55,1.55,0,0,1-.5-1.09Zm21.45,33.17V364.77h-7.37v20.77Z"/><path d="M322.2,352.37a1.57,1.57,0,0,1,.58-1.25,1.68,1.68,0,0,1,1.09-.42h21.45a11.72,11.72,0,0,1,8.71,3.68,11.9,11.9,0,0,1,3.68,8.71v18.77a11.84,11.84,0,0,1-3.68,8.8l1.34,1.25a11.9,11.9,0,0,1,3.68,8.71v26.81a1.42,1.42,0,0,1-.5,1.17,1.79,1.79,0,0,1-1.17.51H346.66a1.37,1.37,0,0,1-1.18-.59,1.55,1.55,0,0,1-.5-1.09V399.62h-8.71v27.81a1.45,1.45,0,0,1-.5,1.17,1.81,1.81,0,0,1-1.18.51H323.87a1.36,1.36,0,0,1-1.17-.59,1.51,1.51,0,0,1-.5-1.09Zm21.44,33.17V364.77h-7.37v20.77Z"/><path d="M388.88,427.43a1.43,1.43,0,0,1-.51,1.17,1.79,1.79,0,0,1-1.17.51H376.48a1.35,1.35,0,0,1-1.17-.59,1.52,1.52,0,0,1-.51-1.09V406.15l-11.47-53.44a2.35,2.35,0,0,1-.09-.59c0-.95.59-1.42,1.76-1.42h10.72A1.58,1.58,0,0,1,377.4,352l4.44,20.86L386.28,352A1.58,1.58,0,0,1,388,350.7h10.72l.75.08a1.27,1.27,0,0,1,.67.59,1.21,1.21,0,0,1,.34.92,1.32,1.32,0,0,1-.09.42l-11.47,53.44Z"/><path d="M430.18,352.37a1.57,1.57,0,0,1,.58-1.25,1.68,1.68,0,0,1,1.09-.42H453.3a11.72,11.72,0,0,1,8.71,3.68,11.91,11.91,0,0,1,3.69,8.71V376.5a11.81,11.81,0,0,1-3.69,8.79l1.34,1.26a11.91,11.91,0,0,1,3.69,8.71v21.45a11.81,11.81,0,0,1-3.69,8.79,12.06,12.06,0,0,1-8.71,3.61H431.85a1.36,1.36,0,0,1-1.17-.59,1.51,1.51,0,0,1-.5-1.09Zm21.44,27.81V364.77h-7.37v15.41ZM453,415V394.26h-8.71V415Z"/><path d="M473.74,352.37a1.57,1.57,0,0,1,.58-1.25,1.68,1.68,0,0,1,1.09-.42h21.45a11.72,11.72,0,0,1,8.71,3.68,11.91,11.91,0,0,1,3.69,8.71v18.77a11.85,11.85,0,0,1-3.69,8.8l1.34,1.25a11.91,11.91,0,0,1,3.69,8.71v26.81a1.43,1.43,0,0,1-.51,1.17,1.79,1.79,0,0,1-1.17.51H498.2a1.35,1.35,0,0,1-1.17-.59,1.52,1.52,0,0,1-.51-1.09V399.62h-8.71v27.81a1.45,1.45,0,0,1-.5,1.17,1.79,1.79,0,0,1-1.18.51H475.41a1.36,1.36,0,0,1-1.17-.59,1.51,1.51,0,0,1-.5-1.09Zm21.44,33.17V364.77h-7.37v20.77Z"/><path d="M529.36,429.11a12,12,0,0,1-8.79-3.61,12.09,12.09,0,0,1-3.61-8.79V363.09a12.44,12.44,0,0,1,12.4-12.39h10.72a11.74,11.74,0,0,1,8.72,3.68,11.94,11.94,0,0,1,3.68,8.71v53.62a11.84,11.84,0,0,1-3.68,8.79,12.09,12.09,0,0,1-8.72,3.61Zm9-64.34H531V415h7.37Z"/><path d="M139.78,455.31a1.61,1.61,0,0,1,.59-1.26,1.66,1.66,0,0,1,1.09-.42H162.9a11.75,11.75,0,0,1,8.72,3.69A11.94,11.94,0,0,1,175.3,466v24.13a11.88,11.88,0,0,1-3.68,8.8,12.08,12.08,0,0,1-8.72,3.6h-9v27.81a1.43,1.43,0,0,1-.51,1.17,1.77,1.77,0,0,1-1.17.5H141.46a1.34,1.34,0,0,1-1.17-.58,1.52,1.52,0,0,1-.51-1.09Zm21.45,12.4h-7.37v20.77h7.37Z"/><path d="M193.56,532a12,12,0,0,1-8.79-3.6,12.14,12.14,0,0,1-3.6-8.79V466a12.44,12.44,0,0,1,12.39-12.4h10.73a11.73,11.73,0,0,1,8.71,3.69,11.9,11.9,0,0,1,3.68,8.71v53.62a11.8,11.8,0,0,1-3.68,8.79,12.05,12.05,0,0,1-8.71,3.6Zm9.05-64.33h-7.37V518h7.37Z"/><path d="M223.8,455.31a1.61,1.61,0,0,1,.59-1.26,1.68,1.68,0,0,1,1.09-.42h22.79a11.91,11.91,0,0,1,8.71,3.69,11.72,11.72,0,0,1,3.68,8.71v53.62A12.43,12.43,0,0,1,248.27,532H225.48a1.35,1.35,0,0,1-1.17-.58,1.52,1.52,0,0,1-.51-1.09Zm22.79,12.4h-8.71V518h8.71Z"/><path d="M279.6,532a12,12,0,0,1-8.8-3.6,12.14,12.14,0,0,1-3.6-8.79V466a11.88,11.88,0,0,1,3.6-8.71,12,12,0,0,1,8.8-3.69h10.72a11.73,11.73,0,0,1,8.71,3.69,11.91,11.91,0,0,1,3.69,8.71v5.36a1.44,1.44,0,0,1-.51,1.18,1.83,1.83,0,0,1-1.17.5H290.32a1.33,1.33,0,0,1-1.17-.59,1.49,1.49,0,0,1-.51-1.09v-3.68h-7.37V518h7.37v-3.68a1.58,1.58,0,0,1,.59-1.26,1.68,1.68,0,0,1,1.09-.42H301a1.74,1.74,0,0,1,1.26.5,2,2,0,0,1,.42,1.18v5.36a11.81,11.81,0,0,1-3.69,8.79,12.05,12.05,0,0,1-8.71,3.6Z"/><path d="M351.39,530.12v.42q0,1.5-1.68,1.5H338.82a1.72,1.72,0,0,1-1.09-.41,1.57,1.57,0,0,1-.58-1l-1.43-9.3H322.15l-1.42,9.3a1.59,1.59,0,0,1-.59,1,1.7,1.7,0,0,1-1.09.41H308.16l-.75-.08a1.24,1.24,0,0,1-.67-.59,1.72,1.72,0,0,1-.25-.92v-.33l11.89-75.06a1.59,1.59,0,0,1,.59-1,1.66,1.66,0,0,1,1.09-.42h17.76a1.68,1.68,0,0,1,1.09.42,1.57,1.57,0,0,1,.58,1Zm-22.45-51.35-4.53,28.48h9Z"/><path d="M391.26,519.65a12,12,0,0,1-3.68,8.79,11.88,11.88,0,0,1-8.71,3.6H368.14a12.14,12.14,0,0,1-8.79-3.6,11.86,11.86,0,0,1-2.68-4,12,12,0,0,1-.93-4.77v-5.36a1.58,1.58,0,0,1,.59-1.26,1.68,1.68,0,0,1,1.09-.42h10.72a1.73,1.73,0,0,1,1.26.5,2,2,0,0,1,.42,1.18V518h7.37V497.2h-9.05a11.93,11.93,0,0,1-8.79-3.61,12.09,12.09,0,0,1-3.61-8.79V466a11.85,11.85,0,0,1,3.61-8.71,12,12,0,0,1,8.79-3.69h10.73a11.73,11.73,0,0,1,8.71,3.69,11.94,11.94,0,0,1,3.68,8.71v5.36a1.43,1.43,0,0,1-.5,1.18,1.83,1.83,0,0,1-1.17.5H378.87a1.35,1.35,0,0,1-1.18-.59,1.52,1.52,0,0,1-.5-1.09v-3.68h-7.37v15.41h9.05a11.73,11.73,0,0,1,8.71,3.69,11.94,11.94,0,0,1,3.68,8.71Z"/><path d="M412.46,467.71H398.05a1.36,1.36,0,0,1-1.17-.59,1.51,1.51,0,0,1-.51-1.09V455.31a1.61,1.61,0,0,1,.59-1.26,1.66,1.66,0,0,1,1.09-.42h42.89a1.71,1.71,0,0,1,1.26.51,2,2,0,0,1,.42,1.17V466a1.44,1.44,0,0,1-.51,1.18,1.83,1.83,0,0,1-1.17.5H426.53v62.66a1.45,1.45,0,0,1-.5,1.17,1.77,1.77,0,0,1-1.17.5H414.13a1.35,1.35,0,0,1-1.17-.58,1.55,1.55,0,0,1-.5-1.09Z"/><path class="cls-1" d="M154.57,220.26l.27,1.85c0,.07-.09.15-.08.21a2.54,2.54,0,0,0,.15.44,111.61,111.61,0,0,0,4,17q3.94,13.36,7.9,26.73,4.9,16.69,9.79,33.42a7.11,7.11,0,0,1-4.4-1.12l-1-.5a7.81,7.81,0,0,1-4.22-4.86C159.53,271,150.56,249,144.72,226c-17.16-67.37,10.6-140.76,68.75-177.41C232.79,36.44,253.82,29,276.65,27.44c63.68-4.28,111.13,22.73,142.42,77.24,24.63,42.91,27.79,88.77,12.07,135.76-5.85,17.48-11.87,34.9-17.88,52.31-1.78,5.15-4.79,7.14-10.23,7.21,4.34-14.79,8.73-29.57,13-44.39,1.48-5.16,3.62-10.15,4.14-15.57,2.85-5.89,3.73-12.32,5-18.63.42-2,.54-4.15.79-6.23l0-.65c.07-1,.13-2.07.2-3.11a2.72,2.72,0,0,0,.84-2,147.83,147.83,0,0,0-.09-31,152,152,0,0,0-20-60.65c-14.8-25.07-35.06-44.18-61.62-56.44C321.2,50.2,295.91,47.08,269.82,51c-34.25,5.08-62,21.88-84,48.34A145.73,145.73,0,0,0,158.35,151a148.51,148.51,0,0,0-5.65,59.19c.22,2.06-.39,4.54,1.59,6.22l.11,2.49A.79.79,0,0,0,154.57,220.26Z"/><path class="cls-1" d="M391.57,300.08c-2.35,7.75-4.68,15.5-7.06,23.24-1.51,4.91-5,7.75-10.14,8.08-12.21.76-24.43.37-36.64.18a43.87,43.87,0,0,1,1.16-4.26c3.1-8.31,6.25-16.59,9.39-24.88q19.75-52.1,39.48-104.21c.81-2.15,2-4.22,1.95-6.64,1.27-.11,2.18.71,3.17,1.27q8.53,4.81,17.05,9.66c6.81,3.89,8.39,7.95,6.09,15.57q-2.88,9.53-5.71,19.07a25.26,25.26,0,0,0-.48,2.76,13.83,13.83,0,0,0-1,2Q400.2,271,391.57,300.08Z"/><path class="cls-1" d="M241.9,333.75c-3.86.67-7.77.3-11.66.36-7.8.13-15.6.21-23.4.17-6.28,0-10-3-11.8-8.94q-3.49-11.64-7-23.27-8.91-30.17-17.83-60.31c-2.27-7.66-4.56-15.3-6.79-23-1.41-4.85.06-9.44,4.16-12.24a205,205,0,0,1,22.3-13,19.54,19.54,0,0,0,.62,3.08q17.84,47.54,35.72,95.06Q234.09,312.69,241.9,333.75Z"/><path class="cls-2" d="M154.29,216.43c-2-1.68-1.37-4.16-1.59-6.22A148.51,148.51,0,0,1,158.35,151a145.73,145.73,0,0,1,27.47-51.73c22-26.46,49.75-43.26,84-48.34,26.09-3.87,51.38-.75,75.5,10.38,26.56,12.26,46.82,31.37,61.62,56.44a152,152,0,0,1,20,60.65,147.83,147.83,0,0,1,.09,31,2.72,2.72,0,0,1-.84,2,186.47,186.47,0,0,0-2.89-32.74c-10.43-54.5-53.41-99-105.82-109.34-61.67-12.19-120.93,17.35-148.57,74.05a143,143,0,0,0-14.68,67.39C154.31,212.64,154.28,214.54,154.29,216.43Z"/><path class="cls-2" d="M241.9,333.75q-7.85-21-15.7-42.09-17.85-47.53-35.72-95.06a19.54,19.54,0,0,1-.62-3.08,28.74,28.74,0,0,1,8.3-4.47c4.48-1.41,7.71.15,9.36,4.45Q232.3,258.24,257.06,323c2.05,5.35-.06,9.11-5.67,10.31C248.24,334,245.06,333.59,241.9,333.75Z"/><path class="cls-2" d="M389.71,191.59c.05,2.42-1.14,4.49-1.95,6.64q-19.69,52.13-39.48,104.21c-3.14,8.29-6.29,16.57-9.39,24.88a43.87,43.87,0,0,0-1.16,4.26,34.05,34.05,0,0,1-10.08-.39c-5.23-1.23-7.22-5-5.28-10q25-64.76,49.95-129.49c1.73-4.48,5.43-6,10.27-4.12A28.06,28.06,0,0,1,389.71,191.59Z"/><path class="cls-2" d="M170.19,241.76q8.91,30.15,17.83,60.31l-11.46-.13q-4.91-16.71-9.79-33.42-3.93-13.36-7.9-26.73Z"/><path class="cls-2" d="M391.57,300.08q8.64-29.1,17.29-58.19a13.83,13.83,0,0,1,1-2l10.33.08c-.52,5.42-2.66,10.41-4.14,15.57-4.26,14.82-8.65,29.6-13,44.39Z"/><path class="cls-1" d="M154.57,222.26a.79.79,0,0,1-.17-1.34A1.26,1.26,0,0,1,154.57,222.26Z"/><path class="cls-1" d="M426,214.49l0,.65Z"/><path class="cls-1" d="M154.91,224.76a2.54,2.54,0,0,1-.15-.44c0-.06.05-.14.08-.21Z"/><path class="cls-1" d="M171.2,300.32l1,.5Z"/></g></svg>