<svg id="Layer_1" data-name="Layer 1" xmlns="http://www.w3.org/2000/svg" viewBox="0 0 576 576"><defs><style>.cls-1{fill:#6c6c6f;stroke-width:0.79px;}.cls-1,.cls-2{stroke:#6c6c6f;stroke-miterlimit:10;}.cls-2{fill:#6c6b6e;stroke-width:11.02px;}.cls-3{fill:#b22d8c;}</style></defs><title>Logos</title><path class="cls-1" d="M48.51,345.93h5.13V388.4H48.51Zm4.91,38.56H65.13q7.19,0,10.77-2.76t3.57-8.31V360.91q0-5.55-3.57-8.31t-10.77-2.76H53.42v-3.91h11.5a30.84,30.84,0,0,1,11,1.68,13,13,0,0,1,6.55,5.07,15.36,15.36,0,0,1,2.17,8.47v12a15.24,15.24,0,0,1-2.19,8.46,13.22,13.22,0,0,1-6.57,5.07,30.56,30.56,0,0,1-11,1.69H53.42Z"/><path class="cls-1" d="M126.3,345.93h5.13V388.4H126.3Zm3.53,0h29.71v3.91H129.83Zm0,19.42h25.8v3.92h-25.8Zm0,19.14h29.71v3.91H129.83Z"/><path class="cls-1" d="M199.82,345.93H205V388.4h-5.13Zm3.56,0h29v3.91h-29Zm0,19.8h25.09v3.92H203.38Z"/><path class="cls-1" d="M270.53,345.93h5.13V388.4h-5.13Zm3.53,0h29.71v3.91H274.06Zm0,19.42h25.8v3.92h-25.8Zm0,19.14h29.71v3.91H274.06Z"/><path class="cls-1" d="M344.05,345.93h5.16l30,38.26-2.1-1.16v-37.1h5.13v42.44H377L346.4,349.81l2.78,1.67v36.89h-5.13Z"/><path class="cls-1" d="M436.86,388.84l-3.34-.59a30.38,30.38,0,0,1-6.25-1.75,27.8,27.8,0,0,1-5.43-2.92l3.1-3.33a23.7,23.7,0,0,0,7.15,3.51,29.68,29.68,0,0,0,8.51,1.16q6.66,0,10.3-2.16a6.71,6.71,0,0,0,3.65-6.07v0a5.06,5.06,0,0,0-1.58-3.89,10.2,10.2,0,0,0-4.09-2.19,54.93,54.93,0,0,0-6.46-1.34l-.24-.05-.26,0-1-.17a79.47,79.47,0,0,1-8.72-1.77,13,13,0,0,1-5.57-3.13,8.09,8.09,0,0,1-2.3-6.12v0a10.71,10.71,0,0,1,2.15-6.73,13.24,13.24,0,0,1,6.29-4.25,32.62,32.62,0,0,1,15.35-1,31.77,31.77,0,0,1,5.31,1.47,33.83,33.83,0,0,1,5.17,2.47l-3,3.3a31.11,31.11,0,0,0-6.55-2.88,22.29,22.29,0,0,0-6.33-1q-6.35,0-9.83,2.19a6.93,6.93,0,0,0-3.49,6.17v0a4.58,4.58,0,0,0,1.75,3.78,11.43,11.43,0,0,0,4.32,2.06c1.72.45,4.08.91,7.07,1.4l.3.06.34.06.41.07a2.5,2.5,0,0,0,.41.07,58.61,58.61,0,0,1,8.11,1.87,12.89,12.89,0,0,1,5.39,3.29,8.31,8.31,0,0,1,2.16,6v.06a10.2,10.2,0,0,1-2.25,6.65,13.8,13.8,0,0,1-6.49,4.2,31.94,31.94,0,0,1-10.27,1.45Z"/><path class="cls-1" d="M499.89,345.93H505V388.4h-5.12Zm3.52,0h29.72v3.91H503.41Zm0,19.42h25.8v3.92h-25.8Zm0,19.14h29.72v3.91H503.41Z"/><path class="cls-2" d="M52.7,319.33V308.06q14.64,6,25.49,6a18.75,18.75,0,0,0,10.7-2.87c2.83-1.91,4.25-4.29,4.25-7.16q0-6.28-11.91-10.4l-8.73-3.05q-19.35-6.6-19.34-19a15.87,15.87,0,0,1,7.62-13.91q7.62-5.09,20.9-5.08a116,116,0,0,1,17.07,1.56l3.11.5v10.21q-12.51-3.06-20-3.05-6.52,0-10.43,2.33c-2.61,1.56-3.91,3.64-3.91,6.26q0,5.53,10.93,9.34l7.2,2.49q12.21,4.23,17.3,8.93a15.33,15.33,0,0,1,5.08,11.74q0,8.91-8.57,14.63t-21.93,5.73Q67.35,323.25,52.7,319.33Z"/><path class="cls-2" d="M167.25,323.25q-18.13,0-28.72-9.52T128,287.88q0-16.31,10.58-25.8t28.72-9.5q18.12,0,28.71,9.5t10.58,25.8q0,16.32-10.58,25.85T167.25,323.25Zm0-9.21q11.13,0,17.27-6.85t6.13-19.31q0-12.45-6.13-19.27t-17.27-6.81q-11.15,0-17.23,6.81t-6.1,19.27q0,12.47,6.1,19.31T167.21,314Z"/><path class="cls-2" d="M281,321.7V309Q269,323.26,252.05,323.25q-10.77,0-17.14-5.57t-6.38-15V254.08h14.95v44.58q0,7.59,2.69,10.8t9,3.21q13.65,0,25.8-14.76V254.08H295.9V321.7Z"/><path class="cls-2" d="M325.4,321.7V254.08h15v12.7q8.86-14.2,25.79-14.2a40.29,40.29,0,0,1,4.78.31v11.52a26.58,26.58,0,0,0-6.83-1.06q-14.19,0-23.74,13.81V321.7Z"/><path class="cls-2" d="M445.71,319.64q-14.49,3.62-25,3.61Q404,323.25,393,313.1t-11-25.59q0-16.5,10.89-25.71t30.38-9.22a121,121,0,0,1,21.55,2.18V265q-12.65-3-20.6-3-11.52,0-18.41,7.07t-6.89,18.83q0,11.4,7.12,18.44t18.63,7a57,57,0,0,0,21.06-4.29Z"/><path class="cls-2" d="M528,319.52q-15,3.74-25.72,3.73-18.27,0-29.73-9.92T461.1,287.61q0-15.37,10.13-25.2t25.91-9.83q14.94,0,23.1,8.75t8.15,24.81l-.07,3.74h-52q3.25,24,28.75,24,9.33,0,22.91-4.17Zm-51-38.86h36.34q0-18.87-17.14-18.86T477,280.66Z"/><polygon class="cls-3" points="47.96 220.91 47.61 118.65 534.07 117 534.41 219.2 495.18 219.34 494.98 159.64 86.98 161.02 87.19 220.78 47.96 220.91"/><rect class="cls-3" x="49.08" y="409.83" width="39.23" height="51.03"/><rect class="cls-3" x="495.14" y="410.36" width="39.23" height="50.51"/></svg>