<svg id="Layer_1" data-name="Layer 1" xmlns="http://www.w3.org/2000/svg" viewBox="0 0 576 576"><defs><style>.cls-1{fill:#6c6c6f;stroke-width:0.61px;}.cls-1,.cls-2{stroke:#6c6c6f;stroke-miterlimit:10;}.cls-2{fill:#6c6b6e;stroke-width:8.56px;}.cls-3{fill:#b22d8c;}</style></defs><path class="cls-1" d="M102.27,328.78h4v33h-4Zm3.82,30h9.09q5.59,0,8.37-2.14t2.77-6.46v-9.72q0-4.31-2.77-6.45t-8.37-2.14h-9.09v-3H115a23.89,23.89,0,0,1,8.55,1.3,10.2,10.2,0,0,1,5.09,3.94,12,12,0,0,1,1.68,6.58v9.32a11.81,11.81,0,0,1-1.7,6.58,10.26,10.26,0,0,1-5.1,3.93,23.69,23.69,0,0,1-8.55,1.32h-8.9Z"/><path class="cls-1" d="M162.71,328.78h4v33h-4Zm2.74,0h23.08v3H165.45Zm0,15.08h20v3.05h-20Zm0,14.87h23.08v3H165.45Z"/><path class="cls-1" d="M219.82,328.78h4v33h-4Zm2.77,0h22.53v3H222.59Zm0,15.38h19.49v3H222.59Z"/><path class="cls-1" d="M274.75,328.78h4v33h-4Zm2.75,0h23.08v3H277.5Zm0,15.08h20v3.05h-20Zm0,14.87h23.08v3H277.5Z"/><path class="cls-1" d="M331.87,328.78h4l23.3,29.72-1.63-.9V328.78h4v33h-4.07l-23.78-30,2.16,1.3v28.66h-4Z"/><path class="cls-1" d="M404,362.11l-2.6-.46a22.71,22.71,0,0,1-4.85-1.36A21.15,21.15,0,0,1,392.3,358l2.41-2.59a18.29,18.29,0,0,0,5.55,2.73,23.12,23.12,0,0,0,6.61.9q5.17,0,8-1.68a5.21,5.21,0,0,0,2.83-4.72h0a3.92,3.92,0,0,0-1.23-3,8,8,0,0,0-3.17-1.7,43,43,0,0,0-5-1l-.19,0h-.2l-.78-.13a60.15,60.15,0,0,1-6.77-1.38,10,10,0,0,1-4.33-2.43,6.27,6.27,0,0,1-1.78-4.75h0a8.22,8.22,0,0,1,1.67-5.23,10.31,10.31,0,0,1,4.88-3.3,25.38,25.38,0,0,1,11.93-.78,24.68,24.68,0,0,1,4.12,1.14,27,27,0,0,1,4,1.92l-2.33,2.57a24.31,24.31,0,0,0-5.09-2.24,17.09,17.09,0,0,0-4.92-.78q-4.93,0-7.63,1.7a5.39,5.39,0,0,0-2.72,4.8h0a3.57,3.57,0,0,0,1.36,2.93,8.84,8.84,0,0,0,3.36,1.6q2,.53,5.49,1.09l.23,0,.27,0,.32.06.32.05a47.11,47.11,0,0,1,6.3,1.45,10.07,10.07,0,0,1,4.18,2.56,6.46,6.46,0,0,1,1.68,4.66v0a7.88,7.88,0,0,1-1.75,5.16,10.69,10.69,0,0,1-5,3.27,24.5,24.5,0,0,1-8,1.12Z"/><path class="cls-1" d="M452.94,328.78h4v33h-4Zm2.73,0h23.09v3H455.67Zm0,15.08h20v3.05h-20Zm0,14.87h23.09v3H455.67Z"/><path class="cls-2" d="M105.53,308.11v-8.75Q116.9,304,125.33,304a14.59,14.59,0,0,0,8.31-2.23,6.54,6.54,0,0,0,3.3-5.56q0-4.89-9.25-8.08l-6.78-2.37q-15-5.13-15-14.76a12.31,12.31,0,0,1,5.92-10.81q5.91-3.94,16.23-3.95a90.54,90.54,0,0,1,13.26,1.22l2.42.39v7.93a68.22,68.22,0,0,0-15.54-2.37,15.68,15.68,0,0,0-8.1,1.81,5.47,5.47,0,0,0-3,4.86q0,4.29,8.49,7.26l5.6,1.93q9.48,3.29,13.44,6.94a11.9,11.9,0,0,1,3.94,9.12q0,6.91-6.66,11.36t-17,4.46A77.47,77.47,0,0,1,105.53,308.11Z"/><path class="cls-2" d="M194.52,311.16q-14.09,0-22.31-7.4T164,283.68q0-12.68,8.22-20t22.31-7.38q14.07,0,22.3,7.38t8.22,20q0,12.68-8.22,20.08T194.52,311.16Zm0-7.16q8.64,0,13.41-5.32t4.77-15q0-9.68-4.77-15t-13.41-5.29q-8.67,0-13.39,5.29t-4.74,15q0,9.69,4.74,15T194.49,304Z"/><path class="cls-2" d="M282.89,310v-9.86q-9.33,11.07-22.49,11.07-8.37,0-13.32-4.33t-5-11.65V257.42h11.62v34.64c0,3.93.7,6.72,2.09,8.39s3.72,2.49,7,2.49q10.6,0,20-11.47V257.42h11.6V310Z"/><path class="cls-2" d="M317.38,310V257.42H329v9.87q6.89-11,20-11a28.77,28.77,0,0,1,3.71.24v8.95a20.7,20.7,0,0,0-5.3-.83q-11,0-18.45,10.73V310Z"/><path class="cls-2" d="M410.84,308.35a81.57,81.57,0,0,1-19.42,2.81q-13,0-21.52-7.89a25.87,25.87,0,0,1-8.55-19.88q0-12.81,8.46-20t23.6-7.16A94.08,94.08,0,0,1,410.15,258v8a72.16,72.16,0,0,0-16-2.33q-9,0-14.3,5.49t-5.36,14.63q0,8.85,5.54,14.32t14.47,5.44a44.39,44.39,0,0,0,16.36-3.33Z"/><path class="cls-2" d="M474.77,308.26a84.45,84.45,0,0,1-20,2.9q-14.19,0-23.09-7.71t-8.9-20q0-11.94,7.87-19.58t20.13-7.63q11.61,0,17.94,6.79t6.34,19.28l-.06,2.9h-40.4q2.53,18.64,22.34,18.65,7.25,0,17.8-3.24Zm-39.62-30.19h28.23q0-14.65-13.31-14.65t-14.92,14.65Z"/><polygon class="cls-3" points="101.85 231.65 101.57 152.21 479.49 150.93 479.75 230.32 449.28 230.43 449.12 184.06 132.16 185.13 132.32 231.55 101.85 231.65"/><rect class="cls-3" x="102.72" y="378.42" width="30.48" height="39.64"/><rect class="cls-3" x="449.24" y="378.83" width="30.48" height="39.24"/></svg>