<svg id="Layer_1" data-name="Layer 1" xmlns="http://www.w3.org/2000/svg" xmlns:xlink="http://www.w3.org/1999/xlink" viewBox="0 0 576 576"><defs><style>.cls-1{fill:none;}.cls-2,.cls-5,.cls-8{fill:#6c6c6f;}.cls-2,.cls-3,.cls-5,.cls-6,.cls-8,.cls-9{stroke:#6c6c6f;stroke-miterlimit:10;}.cls-2{stroke-width:0.57px;}.cls-3,.cls-6,.cls-9{fill:#6c6b6e;}.cls-3{stroke-width:8.04px;}.cls-4{fill:#b22d8c;}.cls-5{stroke-width:0.3px;}.cls-6{stroke-width:4.18px;}.cls-7{clip-path:url(#clip-path);}.cls-8{stroke-width:0.3px;}.cls-9{stroke-width:4.17px;}</style><clipPath id="clip-path"><rect class="cls-1" x="21" y="677" width="536" height="428.39"/></clipPath></defs><title>Logos</title><path class="cls-2" d="M107.76,195.37h3.74v31h-3.74Zm3.58,28.13h8.54q5.25,0,7.86-2a7.17,7.17,0,0,0,2.61-6.06v-9.12a7.2,7.2,0,0,0-2.61-6.07q-2.61-2-7.86-2h-8.54v-2.86h8.39a22.4,22.4,0,0,1,8,1.23,9.48,9.48,0,0,1,4.78,3.7,11.17,11.17,0,0,1,1.58,6.18v8.78a11.18,11.18,0,0,1-1.59,6.17,9.63,9.63,0,0,1-4.79,3.69,22.22,22.22,0,0,1-8,1.24h-8.36Z"/><path class="cls-2" d="M164.51,195.37h3.74v31h-3.74Zm2.57,0h21.68v2.86H167.08Zm0,14.17H185.9v2.86H167.08Zm0,14h21.68v2.86H167.08Z"/><path class="cls-2" d="M218.14,195.37h3.74v31h-3.74Zm2.6,0H241.9v2.86H220.74Zm0,14.45H239v2.86h-18.3Z"/><path class="cls-2" d="M269.72,195.37h3.74v31h-3.74Zm2.57,0H294v2.86H272.29Zm0,14.17h18.83v2.86H272.29Zm0,14H294v2.86H272.29Z"/><path class="cls-2" d="M323.36,195.37h3.76L349,223.29l-1.54-.85V195.37h3.74v31h-3.81l-22.36-28.13,2,1.21v26.92h-3.74Z"/><path class="cls-2" d="M391.07,226.68l-2.45-.43a22.22,22.22,0,0,1-4.55-1.28,19.85,19.85,0,0,1-4-2.13l2.26-2.43a17.16,17.16,0,0,0,5.22,2.56,21.51,21.51,0,0,0,6.2.85,14.88,14.88,0,0,0,7.52-1.57,4.93,4.93,0,0,0,2.66-4.44v0a3.66,3.66,0,0,0-1.16-2.83,7.28,7.28,0,0,0-3-1.6,37.93,37.93,0,0,0-4.71-1,1,1,0,0,0-.17,0l-.2,0-.75-.13a55.42,55.42,0,0,1-6.36-1.29,9.5,9.5,0,0,1-4.07-2.28,5.92,5.92,0,0,1-1.67-4.47v0a7.78,7.78,0,0,1,1.57-4.91,9.64,9.64,0,0,1,4.58-3.1,23.66,23.66,0,0,1,11.21-.7,23.71,23.71,0,0,1,3.87,1.07,25.39,25.39,0,0,1,3.77,1.8l-2.2,2.41a22.14,22.14,0,0,0-4.78-2.1,16.28,16.28,0,0,0-4.62-.69,13.46,13.46,0,0,0-7.17,1.6,5,5,0,0,0-2.54,4.49v0a3.34,3.34,0,0,0,1.27,2.76,8.54,8.54,0,0,0,3.15,1.5c1.26.32,3,.67,5.16,1l.22,0,.24.05.3,0,.3.05a41.1,41.1,0,0,1,5.92,1.37,9.32,9.32,0,0,1,3.93,2.39,6.08,6.08,0,0,1,1.58,4.4v.05a7.42,7.42,0,0,1-1.64,4.84,10,10,0,0,1-4.74,3.07,23.19,23.19,0,0,1-7.49,1.06Z"/><path class="cls-2" d="M437,195.37h3.74v31H437Zm2.57,0h21.68v2.86H439.61Zm0,14.17h18.82v2.86H439.61Zm0,14h21.68v2.86H439.61Z"/><path class="cls-3" d="M110.81,176v-8.22q10.68,4.37,18.6,4.36a13.67,13.67,0,0,0,7.8-2.09,6.13,6.13,0,0,0,3.1-5.22q0-4.59-8.69-7.59L125.26,155q-14.12-4.81-14.11-13.86A11.58,11.58,0,0,1,116.71,131q5.57-3.7,15.25-3.7a85.75,85.75,0,0,1,12.45,1.13l2.27.37v7.45A64.81,64.81,0,0,0,132.12,134a14.82,14.82,0,0,0-7.61,1.7,5.16,5.16,0,0,0-2.85,4.57c0,2.69,2.66,5,8,6.81l5.26,1.82q8.91,3.09,12.62,6.52a11.17,11.17,0,0,1,3.7,8.56q0,6.5-6.25,10.67t-16,4.18A72.1,72.1,0,0,1,110.81,176Z"/><path class="cls-3" d="M194.38,178.83q-13.23,0-20.95-7T165.71,153q0-11.9,7.72-18.83t20.95-6.92q13.22,0,20.94,6.92T223,153q0,11.91-7.72,18.85T194.38,178.83Zm0-6.72q8.11,0,12.6-5T211.42,153q0-9.08-4.47-14.06t-12.6-5q-8.13,0-12.57,5T177.33,153q0,9.09,4.45,14.08T194.35,172.11Z"/><path class="cls-3" d="M277.33,177.7v-9.27q-8.68,10.41-21.09,10.4-7.86,0-12.51-4.06a13.84,13.84,0,0,1-4.65-11V128.37H250v32.52c0,3.7.65,6.32,2,7.88s3.5,2.34,6.56,2.34q10,0,18.82-10.76v-32h10.9V177.7Z"/><path class="cls-3" d="M309.75,177.7V128.37h10.9v9.26q6.48-10.35,18.82-10.35a26.76,26.76,0,0,1,3.49.23v8.4a18.92,18.92,0,0,0-5-.77q-10.35,0-17.33,10.07V177.7Z"/><path class="cls-3" d="M397.52,176.2a77.55,77.55,0,0,1-18.27,2.63q-12.17,0-20.2-7.4a24.32,24.32,0,0,1-8-18.67q0-12,7.94-18.76t22.17-6.72a88,88,0,0,1,15.71,1.59v7.49a67.24,67.24,0,0,0-15-2.22q-8.4,0-13.43,5.15t-5,13.74q0,8.31,5.2,13.45t13.59,5.13a41.53,41.53,0,0,0,15.36-3.13Z"/><path class="cls-3" d="M457.56,176.11a80.06,80.06,0,0,1-18.76,2.72q-13.33,0-21.7-7.24a23.65,23.65,0,0,1-8.35-18.76q0-11.21,7.38-18.38t18.9-7.17q10.91,0,16.86,6.38t5.95,18.1l-.06,2.73H419.87q2.38,17.53,21,17.53,6.81,0,16.72-3Zm-37.19-28.35h26.51q0-13.75-12.51-13.76T420.37,147.76Z"/><polygon class="cls-4" points="107.35 104.17 107.1 29.57 461.98 28.37 462.23 102.93 433.61 103.02 433.46 59.47 135.82 60.48 135.97 104.08 107.35 104.17"/><rect class="cls-4" x="108.17" y="241.99" width="28.62" height="37.23"/><rect class="cls-4" x="433.57" y="242.37" width="28.62" height="36.85"/><path class="cls-5" d="M56.22,440.16h2v16.93h-2Zm2,15.37h4.67a6.92,6.92,0,0,0,4.29-1.1,3.92,3.92,0,0,0,1.43-3.31v-5a3.92,3.92,0,0,0-1.43-3.31,6.92,6.92,0,0,0-4.29-1.1H58.18v-1.56h4.58a12.2,12.2,0,0,1,4.37.67,5.16,5.16,0,0,1,2.62,2,6.18,6.18,0,0,1,.86,3.37V451a6.11,6.11,0,0,1-.87,3.38,5.32,5.32,0,0,1-2.62,2,12.2,12.2,0,0,1-4.37.67H58.18Z"/><path class="cls-5" d="M85.58,440.16h2v16.93h-2Zm1.41,0H98.84v1.56H87Zm0,7.74H97.28v1.56H87Zm0,7.63H98.84v1.56H87Z"/><path class="cls-5" d="M113.25,440.16h2v16.93h-2Zm1.42,0h11.57v1.56H114.67Zm0,7.89h10v1.57h-10Z"/><path class="cls-5" d="M139.79,440.16h2v16.93h-2Zm1.41,0h11.85v1.56H141.2Zm0,7.74h10.29v1.56H141.2Zm0,7.63h11.85v1.56H141.2Z"/><path class="cls-5" d="M167.45,440.16h2.06l12,15.26-.84-.47V440.16h2v16.92h-2.09l-12.22-15.37,1.11.66v14.71h-2.05Z"/><path class="cls-5" d="M202.81,457.27l-1.33-.23a12.63,12.63,0,0,1-2.49-.7,10.53,10.53,0,0,1-2.17-1.17l1.24-1.33a9.46,9.46,0,0,0,2.85,1.4,11.82,11.82,0,0,0,3.39.47,8.17,8.17,0,0,0,4.11-.86,2.7,2.7,0,0,0,1.45-2.43h0a2,2,0,0,0-.63-1.55,3.91,3.91,0,0,0-1.63-.87,21.39,21.39,0,0,0-2.58-.54l-.09,0h-.1l-.42-.07a30.84,30.84,0,0,1-3.47-.71,5.26,5.26,0,0,1-2.23-1.24,3.23,3.23,0,0,1-.91-2.44v0a4.28,4.28,0,0,1,.86-2.68,5.33,5.33,0,0,1,2.5-1.7,11.9,11.9,0,0,1,4-.58,12.11,12.11,0,0,1,4.28.79,13.89,13.89,0,0,1,2.07,1l-1.21,1.32a12.25,12.25,0,0,0-2.61-1.15,8.92,8.92,0,0,0-2.53-.38,7.26,7.26,0,0,0-3.91.88,2.74,2.74,0,0,0-1.39,2.45h0a1.82,1.82,0,0,0,.69,1.51,4.42,4.42,0,0,0,1.73.82c.68.18,1.62.37,2.81.56l.12,0,.14,0,.16,0,.16,0a21.86,21.86,0,0,1,3.24.75,5,5,0,0,1,2.15,1.31,3.31,3.31,0,0,1,.86,2.4v0A4.08,4.08,0,0,1,211,455a5.47,5.47,0,0,1-2.59,1.68,12.7,12.7,0,0,1-4.1.58Z"/><path class="cls-5" d="M226.29,440.16h2v16.93h-2Zm1.4,0h11.85v1.56H227.69Zm0,7.74H238v1.56H227.69Zm0,7.63h11.85v1.56H227.69Z"/><path class="cls-6" d="M35.71,429v-4.92a30.19,30.19,0,0,0,11.13,2.61,8.18,8.18,0,0,0,4.67-1.25,3.69,3.69,0,0,0,1.86-3.13c0-1.83-1.74-3.35-5.2-4.54l-3.82-1.34q-8.44-2.88-8.45-8.29a6.93,6.93,0,0,1,3.33-6.08c2.23-1.48,5.27-2.22,9.14-2.22a51.13,51.13,0,0,1,7.45.68l1.36.22v4.46a38.82,38.82,0,0,0-8.72-1.33,8.79,8.79,0,0,0-4.55,1,3.08,3.08,0,0,0-1.71,2.73q0,2.42,4.77,4.08l3.15,1.09q5.34,1.84,7.56,3.9a6.7,6.7,0,0,1,2.22,5.13,7.46,7.46,0,0,1-3.75,6.39,16.87,16.87,0,0,1-9.57,2.5A43.22,43.22,0,0,1,35.71,429Z"/><path class="cls-6" d="M89.82,430.71q-7.93,0-12.55-4.16t-4.62-11.29q0-7.12,4.62-11.27t12.55-4.15q7.92,0,12.54,4.15T107,415.26q0,7.13-4.62,11.29T89.82,430.71Zm0-4a9.6,9.6,0,0,0,7.54-3q2.68-3,2.68-8.44t-2.68-8.42a9.63,9.63,0,0,0-7.54-3,9.6,9.6,0,0,0-7.53,3q-2.65,3-2.66,8.42t2.66,8.44A9.58,9.58,0,0,0,89.8,426.69Z"/><path class="cls-6" d="M143.56,430v-5.55q-5.2,6.24-12.62,6.23a11,11,0,0,1-7.49-2.43,8.27,8.27,0,0,1-2.79-6.57V400.49h6.53V420c0,2.21.39,3.78,1.18,4.72a4.87,4.87,0,0,0,3.92,1.4q6,0,11.27-6.45V400.49h6.53V430Z"/><path class="cls-6" d="M167.05,430V400.49h6.53V406a12.5,12.5,0,0,1,11.27-6.2,16.9,16.9,0,0,1,2.08.14v5a11.35,11.35,0,0,0-3-.46q-6.19,0-10.37,6V430Z"/><path class="cls-6" d="M223.68,429.14a46.29,46.29,0,0,1-10.94,1.57,17.11,17.11,0,0,1-12.09-4.43,14.55,14.55,0,0,1-4.81-11.18q0-7.22,4.76-11.23t13.27-4a53.22,53.22,0,0,1,9.41,1v4.49a40,40,0,0,0-9-1.33,10.72,10.72,0,0,0-8,3.09,11.25,11.25,0,0,0-3,8.22,10.81,10.81,0,0,0,3.11,8.05,11.1,11.1,0,0,0,8.14,3.08,24.92,24.92,0,0,0,9.2-1.88Z"/><path class="cls-6" d="M263.71,429.08a47.72,47.72,0,0,1-11.24,1.63c-5.32,0-9.66-1.44-13-4.33a14.17,14.17,0,0,1-5-11.24,14.7,14.7,0,0,1,4.43-11,15.58,15.58,0,0,1,11.32-4.29q6.53,0,10.09,3.82t3.56,10.84l0,1.63h-22.7q1.43,10.5,12.56,10.5a35.11,35.11,0,0,0,10-1.82Zm-22.28-17h15.88q0-8.25-7.49-8.24T241.43,412.11Z"/><polygon class="cls-4" points="240.04 465.49 240.17 504.24 55.87 504.86 55.74 466.14 70.6 466.09 70.68 488.71 225.25 488.18 225.17 465.54 240.04 465.49"/><polygon class="cls-4" points="55.88 383.5 55.75 344.76 240.05 344.13 240.18 382.85 225.32 382.9 225.24 360.29 70.67 360.81 70.75 383.45 55.88 383.5"/><g class="cls-7"><image width="3600" height="3600" transform="translate(-47.29 556.97) scale(0.21)" xlink:href="../../../../../../../Top Runner Marketing/Logos-Designs/Main Logo/My Ideas/TRM Clean1.png"/></g><rect class="cls-4" x="333.12" y="454.49" width="14.85" height="19.31"/><rect class="cls-4" x="501.94" y="454.68" width="14.85" height="19.12"/><path class="cls-8" d="M356.93,454.71h2.3v19.07h-2.3ZM359.14,472h5.25a7.89,7.89,0,0,0,4.84-1.24,4.42,4.42,0,0,0,1.6-3.73v-5.62a4.42,4.42,0,0,0-1.6-3.73,7.83,7.83,0,0,0-4.84-1.24h-5.25v-1.76h5.16a13.9,13.9,0,0,1,4.92.76,5.84,5.84,0,0,1,2.94,2.27,7,7,0,0,1,1,3.81V467a6.82,6.82,0,0,1-1,3.8A5.87,5.87,0,0,1,369.2,473a13.67,13.67,0,0,1-4.92.76h-5.14Z"/><path class="cls-8" d="M378.41,454.71h2.3v19.07h-2.3Zm1.58,0h13.34v1.76H380Zm0,8.73h11.59v1.75H380Zm0,8.59h13.34v1.75H380Z"/><path class="cls-8" d="M398,454.71h2.3v19.07H398Zm1.59,0h13v1.76h-13Zm0,8.9h11.27v1.75H399.56Z"/><path class="cls-8" d="M416.26,454.71h2.3v19.07h-2.3Zm1.58,0h13.35v1.76H417.84Zm0,8.73h11.59v1.75H417.84Zm0,8.59h13.35v1.75H417.84Z"/><path class="cls-8" d="M435.82,454.71h2.32l13.48,17.18-.94-.52V454.71H453v19.06h-2.35l-13.75-17.31,1.24.75v16.56h-2.3Z"/><path class="cls-8" d="M464,474l-1.5-.26a14.31,14.31,0,0,1-2.81-.79,12.34,12.34,0,0,1-2.43-1.31l1.39-1.5a10.68,10.68,0,0,0,3.21,1.58,13.26,13.26,0,0,0,3.82.52,9.08,9.08,0,0,0,4.62-1,3,3,0,0,0,1.64-2.73h0a2.26,2.26,0,0,0-.71-1.74,4.57,4.57,0,0,0-1.84-1,22.92,22.92,0,0,0-2.9-.6l-.1,0-.12,0-.47-.08a35.28,35.28,0,0,1-3.91-.79,5.87,5.87,0,0,1-2.5-1.4,3.63,3.63,0,0,1-1-2.75v0a4.77,4.77,0,0,1,1-3,6,6,0,0,1,2.81-1.91,13.67,13.67,0,0,1,4.46-.65,13.26,13.26,0,0,1,2.44.22,14.52,14.52,0,0,1,2.38.66,17,17,0,0,1,2.33,1.11L472.43,458a14.32,14.32,0,0,0-2.94-1.29,10.14,10.14,0,0,0-2.85-.42,8.29,8.29,0,0,0-4.41,1,3.11,3.11,0,0,0-1.56,2.77h0a2.06,2.06,0,0,0,.78,1.7,5.22,5.22,0,0,0,1.94.92c.77.2,1.83.41,3.17.63l.14,0,.15,0,.18,0,.19,0a24.55,24.55,0,0,1,3.64.84,5.76,5.76,0,0,1,2.42,1.47,3.73,3.73,0,0,1,1,2.71v0a4.57,4.57,0,0,1-1,3,6.16,6.16,0,0,1-2.91,1.89,14.51,14.51,0,0,1-4.61.65Z"/><path class="cls-8" d="M478.88,454.71h2.3v19.07h-2.3Zm1.58,0h13.35v1.76H480.46Zm0,8.73h11.59v1.75H480.46Zm0,8.59h13.35v1.75H480.46Z"/><path class="cls-9" d="M310.2,439.76v-4.92a30.18,30.18,0,0,0,11.12,2.61A8.21,8.21,0,0,0,326,436.2a3.68,3.68,0,0,0,1.85-3.13q0-2.74-5.19-4.54l-3.81-1.33q-8.44-2.88-8.44-8.28a7,7,0,0,1,3.32-6.08q3.33-2.2,9.12-2.21a49.65,49.65,0,0,1,7.45.68l1.36.21V416a38.74,38.74,0,0,0-8.71-1.33,8.81,8.81,0,0,0-4.55,1,3.07,3.07,0,0,0-1.7,2.73q0,2.42,4.76,4.08l3.15,1.08q5.32,1.85,7.55,3.9a6.7,6.7,0,0,1,2.22,5.12,7.47,7.47,0,0,1-3.74,6.39,16.89,16.89,0,0,1-9.57,2.5A43.22,43.22,0,0,1,310.2,439.76Z"/><path class="cls-9" d="M364.25,441.47q-7.9,0-12.53-4.16T347.1,426q0-7.11,4.62-11.26t12.53-4.14q7.92,0,12.53,4.14T381.4,426q0,7.13-4.62,11.28T364.25,441.47Zm0-4a9.6,9.6,0,0,0,7.53-3q2.69-3,2.68-8.43t-2.68-8.4a11,11,0,0,0-15,0q-2.67,3-2.67,8.4t2.67,8.43A9.55,9.55,0,0,0,364.24,437.45Z"/><path class="cls-9" d="M417.94,440.79v-5.54q-5.19,6.21-12.61,6.22a11,11,0,0,1-7.48-2.43,8.26,8.26,0,0,1-2.78-6.57V411.28h6.52v19.46q0,3.31,1.17,4.71a4.89,4.89,0,0,0,3.93,1.4q6,0,11.25-6.44V411.28h6.52v29.51Z"/><path class="cls-9" d="M441.41,440.79V411.28h6.52v5.54a12.47,12.47,0,0,1,11.25-6.19,17,17,0,0,1,2.09.13v5a11.41,11.41,0,0,0-3-.46q-6.19,0-10.36,6v19.44Z"/><path class="cls-9" d="M498,439.89a46.29,46.29,0,0,1-10.93,1.58A17.14,17.14,0,0,1,475,437a14.55,14.55,0,0,1-4.8-11.17q0-7.2,4.75-11.22t13.26-4a53.11,53.11,0,0,1,9.4.95v4.48a40,40,0,0,0-9-1.33,10.68,10.68,0,0,0-8,3.09,11.22,11.22,0,0,0-3,8.21,10.79,10.79,0,0,0,3.11,8.05,11,11,0,0,0,8.13,3.07,24.87,24.87,0,0,0,9.19-1.88Z"/><path class="cls-9" d="M538,439.84a48,48,0,0,1-11.22,1.63q-8,0-13-4.33a14.18,14.18,0,0,1-5-11.23,14.63,14.63,0,0,1,4.42-11,15.58,15.58,0,0,1,11.31-4.29q6.51,0,10.08,3.82t3.56,10.82l0,1.63H515.42q1.41,10.5,12.54,10.49a34.94,34.94,0,0,0,10-1.82Zm-22.25-17h15.86q0-8.24-7.48-8.23T515.71,422.88Z"/><rect class="cls-4" x="305.13" y="485.76" width="238.62" height="17.34"/><polygon class="cls-4" points="333.32 392.18 333.19 353.48 517.3 352.85 517.43 391.53 502.58 391.58 502.5 368.99 348.09 369.51 348.17 392.13 333.32 392.18"/></svg>