<svg id="Layer_1" data-name="Layer 1" xmlns="http://www.w3.org/2000/svg" viewBox="0 0 576 576"><defs><style>.cls-1{fill:none;stroke:#fff;stroke-width:9.96px;}.cls-1,.cls-3,.cls-4,.cls-5,.cls-6,.cls-7,.cls-8{stroke-miterlimit:10;}.cls-2{fill:#fff;}.cls-3,.cls-4,.cls-5,.cls-6,.cls-7,.cls-8{stroke:#000;}.cls-3{stroke-width:12.8px;}.cls-4{stroke-width:8.53px;}.cls-5{stroke-width:11.38px;}.cls-6{stroke-width:0.37px;}.cls-7{stroke-width:11.09px;}.cls-8{stroke-width:8.44px;}</style></defs><title>stumble1</title><path d="M250.57,42.81l9.12.55-4.1,2.85,11.32-1c.06.27.13.53.19.79l-5.5,3.26.45.89,15.87-6.41c.09.23.17.45.26.67l-10.36,6.22.69,1.19q7.44-3.2,14.88-6.38c.08.22.18.43.26.65l-10.78,7.46.65,1,18.93-9.34.5,1-10.41,6.34c4.4,4.64,8.44,1,12.8.06l-6.75,5.93.67.78,8.85-4.33-1.91,3.86,11.17-2-3.61,4,9-3.78L307.11,63l3.31.87L293.54,72.4l.38.86,7-2.1c.06.27.13.53.19.8l-12.72,6.58c.14.25.28.5.43.75l1.93-.51-15.25,23.06.72.53L281.41,99c-2.17,4.29-4.2,8.33-6.24,12.37l1.15.58c1.25-2,2.49-4.09,3.73-6.13l.53.27-3.8,11.63,1.09.4,6-11.26c-.19,3.8-.31,6-.42,8.25l1.11.15c1.72-4.25,3.43-8.49,5.42-13.45.11,2.2.17,3.54.28,6,2-4.82,3.64-8.58,5.24-12.34l.72.33q-2.31,7-4.61,14a37.08,37.08,0,0,0,5.64-9.09c1.55-3.28,2.92-6.65,4.36-10l.45.15L301,99.57l.76.16c1-3,2.07-6.07,3.24-9.52,0,2.4-.06,4.35-.09,7,2.3-2,4.25-3.35,5.68-5.1a85,85,0,0,0,4.83-7.23c-10.7,36.77-18.45,73.75-17.53,111.61l10.27,1.29a182.88,182.88,0,0,1-1-21.11c0-22.55,2.09-44.95,7.32-66.94a247.93,247.93,0,0,1,8-27.63c1.21-3.29,5.1-5.6,7.76-8.36l1.17,1-8.78,10.7L323,86l5.72-3.44c-2.83,3.36-4.8,5.71-6.77,8.07l.47.5c1.85-1.26,3.7-2.51,5.55-3.78l.51.41L322,97.1l.74.74,7.89-7,.43.3-4.94,7.23.52.51L331,96l.7.63-5.39,5.5,3.54-.1-6.58,10.73.63.63,7.48-5.34.73.44c-1.2,2.37-2.41,4.73-4.12,8.1l4.29-3.51c-2.56,7-5.08,13.89-7.61,20.78l1.67.7,2.4-4.42.79.18q-1.17,5.07-2.35,10.15l1.46.55,7.38-14,1.79,4.47,1-.07q.36-7.24.71-14.49l.6-.09,1.47,5.57,1.28.06c.25-4.3.5-8.6.82-14.17l2.26,4.24,1-.24q-.58-7.53-1.16-15l.58-.16q2,4.89,3.95,9.77l1.26-.35c-.65-3.23-1.29-6.44-1.95-9.7l14.14-.6c.13.5.27,1,.4,1.51-.74,1-1.48,2-3,4l7-.75-1.52,3.58a15.62,15.62,0,0,1,3.36-.41,16.4,16.4,0,0,1,3.05,1,9.67,9.67,0,0,1-1.89,2.54c-6,4-11.17,8.7-14,16.72l8.95-5.39c-.26.87-.66,2.23-1.13,3.84,6.43-3.63,12.82-6.55,21.15-6.23-12.55,7-21.53,15.64-25.31,29.05,4,0,10.78-4.7,11.91-8.41.26,1.05.41,1.64.71,2.89,1.05-1.25,2-2.2,2.71-3.27.85-1.25,1.54-2.61,2.5-4.29l1.43,5.59c1.39-4,2.43-7,3.21-9.25,0,.65.05,2.12.08,3.59l.75.06c.46-2.4.93-4.79,1.4-7.19l.4,0c0,1.79-.09,3.58-.17,6.35l2.88-5.37.8.17c-.47,1.88-.37,4.27-1.51,5.56-15.34,17.46-23.25,39-32.94,59.56q-2.64,5.63-5.35,11.23l5.82.74c5.69-13.37,11.19-26.84,17.73-39.78a257.7,257.7,0,0,1,20-32.81c3.2-4.52,5.41-11.63,13.7-11.29l-5,6.32.47.36,3.74-2.34-6.26,10,.94.9,5.33-1.84-4.21,4.87,3.21-.62L398.26,145l.57.48,2.27-1c-.22,1-.4,1.78-.73,3.26l6.81-4.91c.25.36.51.71.77,1.07l-9.12,7.46c1.64,1,4.46,1.72,4.73,3,.46,2.17-.69,4.68-1.17,7.06,2.12-3.4,7.1-4.28,7.49-8.86,0-.24.29-.47.45-.71.46,1,.9,2.06,1.36,3.08l1.23-.31-1.09-10.25,5.62,1.83-1.84-7.13,3.45.44c1.64-2.71,3.23-5.32,4.55-7.49.39,4.08.78,8,1.18,12.22l2.62-2.21c.27,3.38.51,6.28.73,9l5.11-2.43c-.85,2.44-1.45,4.2-2.24,6.47l3.13-1.42c0,2.12-.05,3.83-.07,5.53h.57c.41-1.72.83-3.45,1.25-5.17l.55.1-.45,6.65,1.95-3c-.05,2.49-.08,4.29-.11,5.86,1.07-1.06,2.87-2,2.88-3,.09-4.57.49-9.37-.72-13.68-3.16-11.28-9.5-20.79-18.18-28.74-1.1-1-1.54-2.72-2.29-4.1l1.07-.59,2.51,4c.36-.83.67-1.52,1-2.29.9,1.26,1.77,2.5,2.95,4.19l1.33-3.84,5.43,9.08,1.08-1.39c.44,2.76.85,5.32,1.28,8.06l3.44-6.34.66.32c-.65,2.8-1.29,5.59-2.06,8.88l3-3.11c.26,3.43.47,6.15.73,9.7l2.56-5.22c.62,3.11,1.29,6.4,2.07,10.27.69-2.15,1.17-3.67,1.66-5.19l.87-.21c.07.86.14,1.72.2,2.58l1.25-.8.8-11.1,1.52.5.83-.93c-3.57-6.1-7.13-12.2-11.12-19l2.91,2.26.82-.52c-1.07-2.41-2.14-4.83-3.38-7.61l14.2,12.25.74-.79-5-7.76,10.05,5.07a124.16,124.16,0,0,0-16.86-13.51c-.79-.55-2.12-.33-3.49-.5l2.26-1.56-14.49-1.83,10.24-6-.79-.2,6.24-6.63-1.11-1.29c-12.51,3.1-23.8,8.26-31.81,21.09,4.09-9,7.52-16.62,10.88-24-5.91-3.42-.14-9.24-3.08-13l-1.54,1.64c-.34-2-.61-3.55-.93-5.4-.6.73-1,1.22-1.46,1.75l-3.88-5.83c.53,3.22,1.7,5.8,1,6.58-3.4,3.62-1.45,6.58-.44,8.15l-1.87,14.88c-1.77-3.82-2.65-7.74-3.93-11.53-1-2.89-1.71-6.86-3.86-8.14-3.62-2.14-7.37-3.2-8.75-8-.51-1.73-3.44-2.76-5.45-4.25l2.08-.47c.07-.53.13-1.06.19-1.59l-10.88-2.7,5.61-.85a57,57,0,0,0-30.12-3.47L353,44.57l19.91-1.18c0-.4-.05-.81-.08-1.22l-12-3.46c.06-.29.12-.58.17-.87l5.29,0,.12-.54-4-1.26.12-.75L374,36.76c-1.43-1-1.92-1.37-2.29-1.64l5.07-.89,5.2-.95-2.19-2.52,5.71.12c.05-.19.1-.39.14-.58L381.87,29,387,26.54l-16.62-.61A17.59,17.59,0,0,0,356.86,31c-8,7.88-16.12,15.69-24.19,23.53l0,0,1.05.14,11.07-.07c0-.37,0-.73-.08-1.1l3.57,3.2h0l.09,0c-.19-1.28-.4-2.59-.72-4.63l4.31,5c.25-1.25.41-2,.48-2.41,2.08,1.15,4.2,2.34,6.32,3.53.13-.23.26-.44.38-.67l9.25,7c-.2-1.25-.41-2.51-.77-4.7l4.21,6.12c-.38-3.58-.67-6.29-1-9,1.59,5.07,1.77,10.87,8.73,12.13.09-.24.38-1.08.92-2.6.87,2.75,1.56,4.89,2.54,8,.22-4.74.4-8.51.57-12.28l1.17,0q.39,6.63.77,13.26l1.08.09,1.59-3.67c.2,1.35.33,2.31.65,4.52.62-2.39.92-3.58,1.38-5.35l1.35,9c-10.25-1.63-15.86-9.86-23.27-15.38l-20-7.89s0,.06,0,.09l-.14-.13-14.56-2h-1.23l.2-.18c.56-1.57.71-3.57,1.78-4.62,6.37-6.19,13-12.16,19.63-18.36l-4.41-.24c0-.27-.08-.54-.13-.82l8.19-2.42-3-1.33,11.6-5.67-8.85.23L369.39,15C356,16.25,346.19,21.16,339,32c-.34-7.33-.65-13.95-1-21.7-1,1.82-1.3,2.46-1.64,3.12L328.37,4l-.87.63,2,5.55L323,8.63l6.26,6.68L325,14.37l6.58,7.12-.6.55-4.75-2.68c-.2.29-.42.57-.63.86l6.19,7.47-6.49-3.62c1.51,4.5,2.79,8.35,4.08,12.2l-1.53.7c-3.67-8.71-11.6-11.34-19.32-14.94-9.17-4.29-17.38-3.25-25.46,1.48-6.4,3.75-12.36,8.24-18.53,12.4l.69,1.28,9.74-4.41-1.64,3.71.87.81,13.37-9.22C282.9,35,277,38.38,268.7,38.46c-6.08.06-12.15,2.11-18.22,3.28Zm97.14,25.5,1.21.16c0,1.84,0,3.68,0,6.38l2.42-3.18c.35,2,.61,3.57,1.05,6.06.87-3,1.51-5.29,2.15-7.54l.89.11c-.19,2.67-.37,5.34-.56,8l.62.22L357,74.74c.13,2.91.21,4.56.35,7.69,1-2.77,1.58-4.29,2.15-5.8l.65.17Q359.1,81.88,358,87l.67.31,2.19-3.72c.11.2.34.45.32.66-.43,3.86-.32,8-5.84,8.58-1.15.12-2.12,2-3.43,3.25-1.34-3.46-2.38-6.09-3.87-9.92l4.53,3.73.79-.27c-1.08-2.24-2.22-4.44-3.21-6.71s-2.3-4.76-2.73-7.27C347,73.27,347.58,70.75,347.71,68.31Z"/><circle cx="285.37" cy="310.59" r="180.63"/><circle class="cls-1" cx="286.08" cy="311.3" r="158.59"/><path class="cls-2" d="M439.88,348.75l-284.5,60.93,30.34,34.13,140.34,16.12S418.51,422,429.41,390.72,439.88,348.75,439.88,348.75Z"/><path class="cls-2" d="M353.45,326a50.68,50.68,0,0,0-1.09,7.09c-.06,3.23.4,6.45.5,9.68a7.61,7.61,0,0,1-.54,3.52c-4.27,8.63-10.69,15.85-17.93,23.44a42.11,42.11,0,0,0,4.45,3c1.48.79,3.12,1.22,3.05,3.25-.08,2.21-1.89,2.31-3.52,2.76a7.86,7.86,0,0,1-7.23-1.22,34.1,34.1,0,0,0-6.31-3.46c-4.31-1.89-4.59-3.63-1.81-7.28,4-5.21,7.61-10.68,11.33-16.07a19.16,19.16,0,0,0,1.39-3.22l-19-1.51a58.12,58.12,0,0,1-6.77-.62c-.79-.16-1.91-1.41-1.85-2.11.49-5.83,1.21-11.65,1.87-17.47.2-1.7,1.06-2.55,3-2.19a31.87,31.87,0,0,0,3.25.25c5.33.42,7.44-1.49,7.91-6.52.62-6.67-1.1-13.13-1-19.74,0-2.86-.22-5.84.54-8.57,2.18-7.79,4.75-15.49,9.89-22.2,1.71-2.24,2.31-4.1-.64-6.08-2.44-1.65-3.35-7.41-2.21-9.87,1.35-2.88,4.71-4.55,9-4.39,2.43.09,4.85.29,7.87.48-.22,3.73-2,8.35,2.69,10.6-.59,1.66-1.56,2.94-1.3,3.89.76,2.76.36,4.46-3.78,4.35,1.89,1.35,3.45,2.12,4.49,3.28a17.26,17.26,0,0,1,4.13,9.2c1.08,6.65.59,13.32,1.15,19.94.22,2.58,1.57,5.08,2.63,7.52a28.77,28.77,0,0,0,13.77,14.14C379,323.76,382,330.11,383.9,337.3c1.65,6.37,2.71,12.88,4.21,19.28.15.61,1.6,1.25,2.48,1.28,2.24.08,4.53-.43,6.73-.2a3.35,3.35,0,0,1,2.39,2.25,4,4,0,0,1-1.51,3.28,22.82,22.82,0,0,1-5.93,1.72c-3,.63-6.09.94-9.07,1.67-4.14,1-4.95.54-5.8-3.42-1.54-7.2-3.07-14.41-5-21.51a10.63,10.63,0,0,0-3.69-5.45C364.07,332.72,359,329.67,353.45,326Zm-17.6-1.28-2.67-22.94-.87.1C330.36,309.85,330.4,317.62,335.85,324.72Zm-11.45-1.25-.07,1,7.33.52.07-1.15C329.25,324.41,326.93,322,324.4,323.47Z"/><path class="cls-2" d="M372.56,250.14c1.79,4.07,4.9,7.09,10.16,6.8,1.09-2.93,1.88-6.2,3.51-9.06a21,21,0,0,1,5.9-6.8c2.29-1.58,4.41.61,6.16,2,1.48,1.19,1,2.58,0,4-2.31,3.43-2.14,3.25,1.33,5.53a70.44,70.44,0,0,1,9.68,7.53c2.39,2.27,1.87,3.78-1.11,5.56-3.87,2.33-7.76,4.61-11.37,6.74,4.72,2,9.67,3.62,14.12,6,6.36,3.44,10.65,8.59,10.24,16-.18,3.12-1.62,6.2-2.67,10a75.16,75.16,0,0,0,6,6.26A13,13,0,0,1,429.55,321c0,8.22,2.77,15.89,4.26,23.81.2,1.08.43,2.16.71,3.58l9.71-.18A4.6,4.6,0,0,1,441.3,353a25.46,25.46,0,0,1-5.67,1.73c-3.13.56-6.29.95-9.46,1.26-2.66.26-4.09-1-3.38-3.18a8.45,8.45,0,0,0-.23-5.55c-.66-2.08-.36-4.44-.81-6.61a53.89,53.89,0,0,0-3.18-10.36c-1.72,7.08-3.45,14.16-5.37,22,1.64.79,4.14,1.92,6.56,3.18a11.84,11.84,0,0,1,2,1.73c-.77.65-1.54,1.83-2.33,1.87a29.48,29.48,0,0,1-7.28-.42c-2.88-.59-5.63-1.66-8.44-2.53-3.41-1.07-3.71-2.36-1.52-5.07.64-.8.66-2.06.88-3.12.28-1.35.41-2.72.73-4.06,1.36-5.53,2.88-11,4.08-16.61.24-1.11-.43-2.54-1.06-3.61-2.41-4.07-4.61-8.13-9.3-10.68-2.47-1.34-3.91-4.4-5.61-6.82a52.91,52.91,0,0,1-2.93-5.27l-1,.31c.81,4.09,1.64,8.18,2.42,12.28a7.57,7.57,0,0,1-.09,1.77,11,11,0,0,1-1.74-.56,8.6,8.6,0,0,1-1.36-1.35,19.66,19.66,0,0,0-1,2.34c-.28,1-.39,2-.6,3-.39,1.94-1.89,2.42-3.58,2.06a2.45,2.45,0,0,1-2.16-3.28c1.53-7.76.7-15.37-1.14-22.93-1.11-4.51-2.13-9.06-2.8-13.65a17,17,0,0,1,.64-6.33c.54-2.23-.16-3.32-2.51-3.2-5.66.31-8.94-2.95-11.62-6.8-2.08-3-.8-6.78,2.94-9.61C367.51,253.36,369.85,252,372.56,250.14Zm26.5,10.19c-1.91-2.24-3.18-4.71-6.14-3.81a17.86,17.86,0,0,0-7.12,3.73c-.87.84.22,3.47.5,5.28a2.51,2.51,0,0,0,1.34,0C391.39,263.84,395.11,262.12,399.06,260.33Z"/><path class="cls-2" d="M319.17,291.59c-1.12,3.23-3.3,2.6-5,2.24-4-.85-8-2-12.47-3.17a69.7,69.7,0,0,0-1,7.1,27.38,27.38,0,0,1-7,17.32c-2.38,2.78-1.53,6.1-.33,8.79,2.6,5.85,5.77,11.47,8.79,17.15,1.4,2.63,2.92,5.2,4.48,7.75,2.73,4.48,2,9.56,2.45,14.41.33,3.32.29,6.69.45,10s1.07,3.86,4.63,3.92a48.93,48.93,0,0,1,7.05.69c.66.11,1.62.95,1.63,1.49a2.49,2.49,0,0,1-1.32,1.95,23.29,23.29,0,0,1-4.93,1.07c-3.34.41-6.7.65-10,1-2.53.28-4.23-.75-3.71-3,1-4.21-.68-7.9-1.7-11.7-1.62-6.09-2.76-12.37-6.63-17.68-.33-.45-.62-.94-1-1.36a9.55,9.55,0,0,0-1.31-1,18.42,18.42,0,0,0-.82,2.66,16.76,16.76,0,0,1-7.21,12.2,83.3,83.3,0,0,0-8.75,7.36c-4.48,4.2-3.7,8.31,1.87,10.87.61.28,1.62.56,1.69,1,.17.91.09,2.62-.31,2.74-2.43.77-4.94,1.5-7.34-.2-2.58-1.8-5.28-3.47-8-5.12s-2.53-3-.52-5.39c5.18-6.22,10.16-12.59,15-19a7.75,7.75,0,0,0,1.46-4.48c-.06-6.94.32-13.93-3.5-20.29a31.18,31.18,0,0,1-4.46-19.8c.19-1.72-.76-3.52-1.24-5.27-1.23-4.44-2.84-8.8-3.57-13.32-.32-2,.93-4.31,1.85-6.34s.47-4.15-1.76-4.47c-4.29-.63-8.38-2.77-13-1.38a1.07,1.07,0,0,1-.58-.06c-6.3-2-12.6-4-18.76-6.4a115.42,115.42,0,0,1,35.87,5.85c-2.11-7.77.48-12.66,7.49-15.39,4.94-1.93,8.46.75,12.48,3.08l-1.87,1.08c.17,1.46,3.25,2.68-.28,4.15,4.72,3.06-.1,6.1.31,9.33l-3.43.3-.14.67c4.5.56,8.21,3.85,13.34,2.42.92-.26,2.2.36,3.19.79,1.44.62,2.68,1.72,4.17,2.13C310,289.51,314.49,290.48,319.17,291.59Zm-26.11,7.64a55,55,0,0,0,2.86-5,3.44,3.44,0,0,0-.06-2.58c-2-4.39-6.81-4-10.6-5.54C287.93,290.57,290.41,294.76,293.06,299.23Z"/><path class="cls-2" d="M236.72,397.17c-.29,2.27-2.05,2.83-3.7,2.78-4.74-.15-9.49-.36-14.17-1-3.68-.48-4.19-2.07-2.22-5.1,4.18-6.44,8.4-12.85,12.49-19.33a3.07,3.07,0,0,0-.12-2.67c-2.36-4-5.07-7.88-7.26-12-1.16-2.16-1.4-4.76-2.24-7.09-1.21-3.35-2.22-6.84-4-9.87-1.29-2.14-1.94-4-.91-6.22.72-1.56,1.46-3.11,2.33-4.59,2.25-3.8,3.51-7.73,2.93-12.1-.42-3.09,1-5.32,4.15-6.78,3.83-1.8,4.48-3.37,3.44-7-1.39-4.88,1.65-9.66,7-11.22.87-.25,1.53-1.13,2-1.52l5.36.91-1.25,1.86a15.13,15.13,0,0,0,1.84,1.3c2.07,1.06,5.47,6.79,4.94,8.73-.93,3.43-4,4.2-7.1,4.75-1,.16-1.93.37-3.27.64.77,1.22,1.49,2.19,2,3.24a50.68,50.68,0,0,1,3.15,6.73c.66,2,1.6,3.52,3.79,4.19,3.55,1.1,7.05,2.37,10.65,3.32,5.57,1.47,7.1,7.16,5,12.08-.27.64-1.34,1-2.26,1.63-.08-2.5-.13-4.33-.19-6.16l-.89-.09-1.66,2.78a19.91,19.91,0,0,0-2.21-3.22c-1.21-1.17-2.51-2.6-4.07-3.06a99.58,99.58,0,0,0-10.31-2c-.59,4.54-1.72,8.81-1.44,13,.14,2,2.61,4.18,4.56,5.66,3.41,2.58,7.26,4.64,10.86,7a6.13,6.13,0,0,1,2.74,5.82c-.33,6.32-.57,12.65-1,19-.29,3.94-.31,4.2,3.74,5.23,2,.5,4.06.75,6.07,1.18,1.4.3,2.76.71,4.14,1.08l.25.82c-1,.63-1.87,1.69-2.9,1.82-5.1.66-10.24,1.23-15.37,1.51-2.17.11-3.15-1.4-3.18-3.55,0-3.58-.32-7.16-.5-10.75-.17-3.33-.46-6.66-.49-10,0-2.18-.39-3.9-2.55-5.17-1.71-1-2.94-2.71-4.63-3.76a25,25,0,0,0-4.67-1.75l-1,.82c.84,2.15,1.63,4.32,2.53,6.46,1.25,3,2.64,5.92,3.86,8.92.89,2.18-.34,3.51-2.14,5-4.09,3.32-8,6.89-11.8,10.47-1.87,1.75-1.59,3.22,1,4.1C230.91,394.92,233.69,396,236.72,397.17Z"/><path class="cls-2" d="M185.55,344.92l4.62-.07s-.06.5.07.54c3.08.93,3.5,4.12,5.64,5.88,1.14.94,2.78,2.83,2.43,3.55-.67,1.33-2.61,2.15-4.06,3.13a7.84,7.84,0,0,1-1.91.39c.36,1.83.74,3.57,1,5.33.36,2.09.51,4.24,1,6.29a3.5,3.5,0,0,0,1.81,2c4.76,2.18,9.66,4.12,14.37,6.39,2.86,1.37,5.28,3.4,5.24,6.79a3.67,3.67,0,0,1-1.74,2.64c-1.23.62-2.72.94-3.71-.87-1.8-3.27-5-5-9.19-5.51,1.72,2.3,3.6,4.5,5.11,6.91a25.13,25.13,0,0,1,3.53,7.16c1,4.12-1.76,6.17-6.61,5.12l.79-3-2.32-.71c1.71-3,.92-5.44-1.78-7.33-4-2.8-8-5.56-12-8.39-.69-.49-1.69-1.3-1.62-1.89.41-3.48-2.55-4.29-4.8-5.58-.43-.26-1.71.23-2.23.72-1.55,1.47-2.91,3.12-4.44,4.8,1.46,1.08,2.12,1.55,2.77,2,4.46,3.43,7.16,7.54,5.48,13.33a11.51,11.51,0,0,0-.3,1.94c-.65,5.56-.63,5.49,5.14,6.64a19.94,19.94,0,0,1,4.11,1.81l-.22,1.26c-2.23.59-4.43,1.34-6.69,1.71a65.71,65.71,0,0,1-7.42.63c-2.47.13-3.11-.88-2.72-3.29a90.59,90.59,0,0,0,1-11.86c0-1.09-.8-2.17-1.24-3.26h-1c-2.7,3.48-5.44,6.94-8.06,10.47-1.28,1.7-1,3.14,1.15,4a20.88,20.88,0,0,1,3.63,1.82c.71.48,1.73,1.56,1.55,2a4.29,4.29,0,0,1-2.29,1.85,5.83,5.83,0,0,1-2.91.17,11,11,0,0,1-3.63-1.07c-5.88-3.34-9.93-3.91-3-10.77a7.79,7.79,0,0,0,1-1.42c3.51-5.48,3.35-5.36-.83-10.2A19.79,19.79,0,0,1,156.7,380a5.85,5.85,0,0,1,1-4.46c2.78-4,5.85-7.9,8.89-11.78A14,14,0,0,1,170,360.2c5.83-3.47,9.08-9.38,14.47-13.25C185,346.53,185.21,345.58,185.55,344.92Z"/><polygon class="cls-3" points="68.47 444.29 251.95 407.31 251.95 501.18 68.47 538.16 68.47 444.29"/><polygon class="cls-4" points="210.7 514.69 247.44 507.82 210.7 541.48 210.7 514.69"/><polygon class="cls-2" points="67.76 444.29 251.24 407.31 251.24 501.18 67.76 538.16 67.76 444.29"/><polygon class="cls-5" points="224.21 538.16 263.56 505.45 263.56 436.23 508.68 386.92 508.68 481.74 224.21 538.16"/><polygon class="cls-2" points="210.7 514.69 247.44 507.82 210.7 541.48 210.7 514.69"/><polygon class="cls-2" points="219.95 539.58 259.3 506.87 259.3 437.65 504.41 388.35 504.41 483.17 219.95 539.58"/><path d="M95,556c-.66.13-1.64,0-1.7-.35,0-.08,0-.17.14-.24,2-1.34,3.89-4.54,3.55-6.23-.17-.86-.92-1.33-2.52-1-4.61.93-8.29,5.07-7.74,7.76.69,3.42,8.26,2.75,8.89,5.86.41,2.08-1.87,4.53-5.73,5.31a9.66,9.66,0,0,1-4.6-.14.61.61,0,0,1-.35-.46.69.69,0,0,1,.45-.86c.18,0,.19,0,.9.08a10.94,10.94,0,0,0,3.3-.13c1.91-.39,3.21-1.26,3-2.28-.41-2.05-7.68-1.51-8.52-5.65-.9-4.45,5.11-10.13,11.7-11.46,3.08-.62,4.46.11,4.74,1.47.44,2.17-2.07,5.92-5.12,8.16A1.07,1.07,0,0,1,95,556Z"/><path d="M100,557.73c.41-1.06.88-2.14,1.3-3.13a1.48,1.48,0,0,1,1.09-.73c.57-.11,1.71-.13,1.79.31a2.25,2.25,0,0,1-.21.89l-.77,2,2.17-.44c.25,0,.4,0,.43.21a1.44,1.44,0,0,1-.87,1.34l-2.26.46a15.45,15.45,0,0,0-1,3.84,30.31,30.31,0,0,0,6.6-5,.51.51,0,0,1,.23-.12c.28-.06.51.24.58.62a1,1,0,0,1-.21.9c-3.62,3.23-7.09,5.66-9.22,6.09-.78.16-1.3-.11-1.45-.88s.39-2.61,1.16-4.78l-2.26.45c-.31.06-.46,0-.5-.19a1.61,1.61,0,0,1,.91-1.35Z"/><path d="M112.84,558.76a2.09,2.09,0,0,1-1.14-1.44,1.64,1.64,0,0,1,1.43-2,1.54,1.54,0,0,1,2,1.27,3.33,3.33,0,0,1,0,1.09,3.9,3.9,0,0,0,.63-.1,7.94,7.94,0,0,0,3.84-2.21c.35-.34.41-.37.47-.39.22,0,.38.27.46.63a1.13,1.13,0,0,1-.12.88,9.36,9.36,0,0,1-4.65,2.53,5.81,5.81,0,0,1-1.16.1,7.82,7.82,0,0,1-5,3.9c-2.13.43-3.37-.38-3.63-1.63-.52-2.61,2.6-5.26,4.73-5.69a.51.51,0,0,1,.68.42c.06.33-.13.69-.71,1.05-.92.59-1.9,1.74-1.68,2.84a1.16,1.16,0,0,0,1.45.88A3.39,3.39,0,0,0,112.84,558.76Z"/><path d="M116.93,558.18c0-.13.27-.43.91-1l.91-.82-.23-.17a1.47,1.47,0,0,1-.69-1,2.21,2.21,0,0,1,1.94-2.36c1.13-.23,1.82.09,2,.78a1.82,1.82,0,0,1,0,.69c.6,0,1.07.11,1.54.17s.85.34.92.67c.18.89-1,2.39-.87,3.15a32.62,32.62,0,0,0,6.76-5.32.48.48,0,0,1,.21-.13c.28-.05.52.33.6.73a.88.88,0,0,1-.11.72c-1.8,1.77-6.71,5.77-8.66,6.16a1.07,1.07,0,0,1-1.45-.88c-.13-.66.74-2,1-2.74-.53-.06-1-.08-1.36-.13a6.53,6.53,0,0,1-2.58,1.45C117.18,558.26,117,558.28,116.93,558.18Z"/><path d="M126.94,556.16c0-.13.27-.43.91-1l.91-.82-.23-.17a1.45,1.45,0,0,1-.69-1,2.21,2.21,0,0,1,1.94-2.36c1.13-.23,1.82.09,2,.78a1.82,1.82,0,0,1,0,.69c.6,0,1.07.11,1.54.17s.85.34.92.67c.18.9-1,2.39-.87,3.15a32.62,32.62,0,0,0,6.76-5.32.38.38,0,0,1,.21-.12c.28-.06.52.32.6.73a.87.87,0,0,1-.11.71c-1.8,1.77-6.71,5.77-8.66,6.16a1.07,1.07,0,0,1-1.45-.88c-.13-.66.74-2,.95-2.74-.53-.05-1-.07-1.36-.12a6.87,6.87,0,0,1-2.58,1.45C127.18,556.24,127,556.26,126.94,556.16Z"/><path d="M144.84,552a5.22,5.22,0,0,1,.13,1.3c0,1.63-1.25,3-3.29,3.41-1.54.31-2.65,0-2.83-.92s.76-1.54,1.77-1.74a2,2,0,0,1,1.74.37,4.19,4.19,0,0,0,0-1.73,5.3,5.3,0,0,0-.52-1.44,9.24,9.24,0,0,1-4.16,2.89c-.47.09-.73.09-.75,0s.26-.47.9-1c3.1-2.75,4.29-4.46,4.73-4.54C143.33,548.36,144.46,550.1,144.84,552Z"/><path d="M148,555.37a1.26,1.26,0,0,1-1.06-1.06,3,3,0,0,1,2.31-2.94,1.45,1.45,0,0,1,1.84,1,2.56,2.56,0,0,1-.33,1.45,15,15,0,0,1-3.77,4.46.92.92,0,0,1-.36.15.73.73,0,0,1-.88-.43.53.53,0,0,1,.2-.47A21.44,21.44,0,0,0,148,555.37Z"/><path d="M173.72,541.38c-.62.12-1.55-.09-1.61-.4,0-.07,0-.13.11-.23,2-1.79,4.52-6.1,4.15-7.94-.13-.67-.65-1-1.66-.78-6.21,1.25-11.18,10.15-10.25,14.73.39,2,1.87,3.13,4.82,2.54a14.75,14.75,0,0,0,4.32-1.89,2.89,2.89,0,0,1,.81-.35c.35-.07.54.06.57.23s-.19.68-.72,1.11a16.15,16.15,0,0,1-6.23,3.14c-4.17.84-6.82-.48-7.36-3.17-1.38-6.82,7.81-16.79,14.28-18.09,2.63-.53,3.9.22,4.17,1.6.47,2.33-1.8,6.43-5,9.3A.94.94,0,0,1,173.72,541.38Z"/><path d="M196.35,525.19a2.13,2.13,0,0,1,2.12,1.57.51.51,0,0,1-.36.66,53.3,53.3,0,0,0-8,3.07c.92-.11,1.89,0,2,.27a.23.23,0,0,1,0,.11,78.21,78.21,0,0,0-5.56,16.65.42.42,0,0,1-.32.36,2.39,2.39,0,0,1-2.08-1.55c-.44-2.2,2-9.34,4.18-14.94a47.16,47.16,0,0,0-7.72,4.83.47.47,0,0,1-.23.12c-.44.09-.89-.38-1-.83a.63.63,0,0,1,.18-.6C183,531.71,191.46,526.18,196.35,525.19Z"/><polygon points="203.54 551.59 203.5 514.93 208.57 514.93 208.57 550.78 203.54 551.59"/><polygon points="514.42 483.88 514.48 488.62 208.57 550.73 206.2 541.48 514.42 483.88"/><path d="M132.62,458.43c1-.2,2.3-.06,2.43.58a.49.49,0,0,1-.07.4c-1.95,4.62-4.54,13.2-5.33,16.08a.65.65,0,0,1-.51.55c-.75.16-2-1-2.27-2.08a1.26,1.26,0,0,1,0-.58,134.76,134.76,0,0,1,4.63-14.31C131.59,458.77,132.06,458.54,132.62,458.43Z"/><path d="M149.39,455.87a2.9,2.9,0,0,1,2.88,2.55c.93,4.53-3.82,13.69-11.38,15.24-2.79.57-4.95-.61-5.49-3.22-1.22-5.94,5.84-13.75,12.84-15.19.76-.16,1.15,0,1.21.33A.4.4,0,0,1,149.39,455.87Zm-3.64,1.77c-4.58,2.29-7.18,8.35-6.52,11.57a2.38,2.38,0,0,0,3.15,2c4.52-.92,7.31-7.6,6.65-10.79a1.77,1.77,0,0,0-2.21-1.62c-.12,0-.19.07-.52.14-.49.1-.8,0-.85-.31A1.61,1.61,0,0,1,145.75,457.64Z"/><path d="M154.5,461.82c.48-1.28,1-2.57,1.54-3.76a1.72,1.72,0,0,1,1.31-.88c.67-.14,2-.16,2.15.36a3.13,3.13,0,0,1-.25,1.07l-.92,2.42,2.6-.53c.3-.06.48,0,.52.24a1.74,1.74,0,0,1-1,1.62l-2.71.56a18.73,18.73,0,0,0-1.13,4.61,35.53,35.53,0,0,0,7.9-6,.75.75,0,0,1,.28-.16c.34-.06.61.29.71.75a1.19,1.19,0,0,1-.25,1.08c-4.34,3.89-8.49,6.82-11.05,7.35-.94.19-1.55-.13-1.74-1s.45-3.13,1.37-5.75l-2.71.56c-.38.08-.55,0-.6-.23a1.92,1.92,0,0,1,1.08-1.62Z"/><path d="M163.52,468.72c-.64.13-1.54-.26-1.65-.78-.21-1,2.39-8.22,3.77-11.63,3-7.22,5.67-12.29,6.73-12.5.71-.15,1.35.67,1.48,1.32.38,1.84-3.81,11-6.56,15.41-.47,1.12-1,2.95-1.41,4,2.32-2.84,5.34-5.86,6.77-6.15a1.6,1.6,0,0,1,1.8.91c.17.83-.07,1.58-.65,3.17a5.81,5.81,0,0,0-.36,3.17c-.1.5-1.49,1.52-2.74,1.78-.52.1-1.11-.06-1.3-1-.28-1.38.42-3.12.63-4C167.52,464.51,164.58,468.51,163.52,468.72Z"/><path d="M106.86,506.82a1.41,1.41,0,0,1-1.51-1.22c-.75-3.65,11.7-24.58,16.44-25.55,1.43-.3,2.92.1,3.23,1.6.55,2.67.67,8,.46,12.94a10.89,10.89,0,0,1,3.7,0c.24.05.37.31.44.62.11.55-.06,1.22-.59,1.33a8.07,8.07,0,0,1-1.07,0,17.77,17.77,0,0,0-2.59.15,43.75,43.75,0,0,1-.66,5.95c-.12.57-.76.92-1.66,1.11a17,17,0,0,1-6.22-.29c-2.66-.57-5.94-1.43-6.19-2.65-.35-1.72,5.55-4.28,11-5.56a84.12,84.12,0,0,0-.3-11.92c-6.36,7.41-11.46,15-14.07,23.12A.59.59,0,0,1,106.86,506.82Zm14.71-9.51a23.23,23.23,0,0,0-8.1,3.14c.9.74,5.3,1.56,7.57,1.7C121.26,500.76,121.43,499.1,121.57,497.31Z"/><path d="M151,490.22c.34-.07.73.49.78.76a.9.9,0,0,1-.4,1.11c-4.33,3.89-8.32,6.85-10.87,7.37-1,.2-1.56-.12-1.75-1s.51-2.69.71-3.6c-2.51,2.11-5.45,6.11-6.5,6.32-.64.13-2.07-.15-2.18-.67-.21-1,.75-4,2.33-7.38a1.93,1.93,0,0,1,1.46-.9c1.09-.23,2.35,0,2.46.51,0,.06,0,.13-.15.61-.25.72-1.16,2.6-1.57,3.64,2.32-2.84,5.35-5.86,6.78-6.15a1.59,1.59,0,0,1,1.79.91c.28,1.35-.8,3.14-1,4.77C146.87,494.45,150.6,490.29,151,490.22Z"/><path d="M168.29,486.66c.34-.07.73.49.78.76a.9.9,0,0,1-.4,1.11c-4.33,3.89-8.32,6.85-10.88,7.38-.94.19-1.55-.13-1.74-1.05s.51-2.69.71-3.6c-2.51,2.12-5.45,6.11-6.5,6.33-.64.13-2.07-.15-2.18-.68-.21-1,.75-4,2.33-7.37a1.91,1.91,0,0,1,1.46-.91c1.09-.23,2.35,0,2.46.51,0,.07,0,.13-.15.61-.25.72-1.16,2.6-1.57,3.64,2.32-2.84,5.35-5.85,6.78-6.15a1.59,1.59,0,0,1,1.79.91c.28,1.35-.8,3.14-1,4.77C164.18,490.89,167.91,486.74,168.29,486.66Z"/><path d="M185.6,483.1c.34-.07.73.49.78.77.12.55,0,.72-.4,1.1-4.33,3.9-8.32,6.86-10.88,7.38-.82.17-1.2-.13-1.31-.66a5.11,5.11,0,0,1,.52-2.47c-2.24,2.86-4.41,4.33-6.26,4.71s-2.28-.24-2.47-1.16.56-3.4,2.14-6.79a1.94,1.94,0,0,1,1.46-.91c1.09-.22,2.35,0,2.45.49,0,.09,0,.15-.07.43-.32.93-1.41,3.8-2,5.45a15,15,0,0,0,6-7.1,1.59,1.59,0,0,1,1.26-.9c1.13-.23,2.26-.27,2.37.25a.72.72,0,0,1,0,.29c-.53,1.61-1.23,3.54-1.64,5.38C181.49,487.33,185.22,483.18,185.6,483.1Z"/><path d="M189.52,482c.32,1.57-2.59,3.41-4.17,4a1.58,1.58,0,0,0-.16,1.12.83.83,0,0,0,1.09.7c1-.21,3.33-2.47,3.87-3.86l.9-2.29a1.94,1.94,0,0,1,1.45-1.16c.72-.15,2.05-.17,2.17.44.16.77-1,3.56-1.17,5.2,4-2,7.72-6.19,8.09-6.27s.73.49.79.77a.91.91,0,0,1-.4,1.1c-4.34,3.9-8.32,6.86-10.88,7.38-.94.2-1.56-.12-1.75-1a2.43,2.43,0,0,1,0-.86,9.11,9.11,0,0,1-4.65,3.32c-1.69.35-2.75,0-3-1.36-.55-2.67,4-7.37,6.23-7.83C188.91,481.08,189.43,481.55,189.52,482Z"/><path d="M202.7,483.68a5.65,5.65,0,0,0,.12,1.73c.05.28.21,1.39-2.35,1.92a1.15,1.15,0,0,1-1.5-.81c-.39-1.9,2.07-8.22,3.45-11.64,3-7.22,5.67-12.28,6.73-12.5.71-.14,1.35.68,1.48,1.33.38,1.84-4,11.4-6.48,15.39A29.74,29.74,0,0,0,202.7,483.68Z"/><path class="cls-6" d="M335.56,455a2.1,2.1,0,0,0-.29-.77,3.19,3.19,0,0,0-.61-.64L326,445.8a3.5,3.5,0,0,1-.88-1.14,6.53,6.53,0,0,1-.34-1.15l-2-9.62a2.77,2.77,0,0,1,.67-2.7,6,6,0,0,1,3.09-1.44l4.35-.89a6,6,0,0,1,3.4.1,2.79,2.79,0,0,1,1.68,2.22l1.9,9.25-5.13,1.06-1.8-8.73-2.92.6,1.8,8.73a1.83,1.83,0,0,0,.33.79,5.14,5.14,0,0,0,.56.62l8.15,7.37a4.9,4.9,0,0,1,.76.73,5.91,5.91,0,0,1,.48.67,3.34,3.34,0,0,1,.33.81c.09.32.18.7.28,1.16l1.84,9a2.77,2.77,0,0,1-.66,2.7,6,6,0,0,1-3.09,1.44l-4.35.89a6,6,0,0,1-3.41-.1,2.78,2.78,0,0,1-1.67-2.22l-1.9-9.26,5.13-1.05,1.79,8.73,2.92-.6Zm-.19-15.73L334,432.37a2.28,2.28,0,0,0-.91-1.6,3.15,3.15,0,0,0-2.14-.09l-3.58.74a3.21,3.21,0,0,0-1.94.9,2.18,2.18,0,0,0-.21,1.8l1.73,8.41a7.37,7.37,0,0,0,.34,1.17,2.32,2.32,0,0,0,.64.95l8.63,7.76a4.66,4.66,0,0,1,1,1.1,4.11,4.11,0,0,1,.47,1.3l1.7,8.26a1.74,1.74,0,0,1-.16,1.38,2.28,2.28,0,0,1-1.44.71l-3.57.73a2.29,2.29,0,0,1-1.61-.08,1.73,1.73,0,0,1-.69-1.21l-1.42-6.93-.65.13,1.42,6.93a2.31,2.31,0,0,0,.91,1.61,3.1,3.1,0,0,0,2.14.08l3.58-.73a3.15,3.15,0,0,0,1.94-.93,2.31,2.31,0,0,0,.2-1.83l-1.7-8.25a4.55,4.55,0,0,0-.54-1.49A5.33,5.33,0,0,0,337,452l-8.4-7.59a2.47,2.47,0,0,1-.65-.85,5.26,5.26,0,0,1-.37-1.14L325.82,434a1.68,1.68,0,0,1,.16-1.36,2.44,2.44,0,0,1,1.45-.68l3.57-.74a2.27,2.27,0,0,1,1.61.09,1.71,1.71,0,0,1,.69,1.21l1.42,6.92Z"/><path class="cls-6" d="M348.38,447.27l3.58,17.4-5.13,1.06-7.92-38.51,9-1.86a4.8,4.8,0,0,1,3.23.39,3,3,0,0,1,1.76,2.17l3,14.44a2.88,2.88,0,0,1-.69,2.54,4.69,4.69,0,0,1-2.74,1.53Zm3-2.34a3.12,3.12,0,0,0,1.94-.92,2.27,2.27,0,0,0,.2-1.83l-2.73-13.28a2.24,2.24,0,0,0-.9-1.6,3.18,3.18,0,0,0-2.15-.09l-6.3,1.3,7.2,35,.65-.14-3.56-17.3Zm-5.76.64-3.42-16.67,5.65-1.16a2.28,2.28,0,0,1,1.61.09,1.74,1.74,0,0,1,.68,1.21l2.73,13.27a1.77,1.77,0,0,1-.15,1.39,2.36,2.36,0,0,1-1.45.71Zm5-2.74-2.78-13.54-3.05.63,2.78,13.54Z"/><path class="cls-6" d="M364.89,421.88a4.67,4.67,0,0,1,3.19.39,3.07,3.07,0,0,1,1.73,2.13l2.63,12.8a6.16,6.16,0,0,1,.12.94,2.17,2.17,0,0,1-.16,1,2.62,2.62,0,0,1-.73.92,4.28,4.28,0,0,1-1.47.74c1.38-.1,2.27.11,2.67.64a3.93,3.93,0,0,1,.77,1.63L377,459.52l-5.12,1.05-3.58-17.4-3.05.63,3.57,17.4-5.13,1.05-7.91-38.5Zm9.6,36.51-3-14.66a3.87,3.87,0,0,0-.91-1.79,2.75,2.75,0,0,0-2.25-.75,2.75,2.75,0,0,0,1.77-1.58,3.83,3.83,0,0,0,.13-2l-2.5-12.17a2.28,2.28,0,0,0-.91-1.6,3.17,3.17,0,0,0-2.15-.09l-6.29,1.3,7.22,35.17.65-.13-3.58-17.45,4.22-.87c1.38-.29,2.35-.18,2.9.31a3.14,3.14,0,0,1,1.05,1.8l3,14.65Zm-15.37-33,5.65-1.16a2.28,2.28,0,0,1,1.61.09,1.71,1.71,0,0,1,.69,1.21l2.5,12.16a3.29,3.29,0,0,1-.25,2.07c-.32.67-1.17,1.14-2.55,1.43l-4.22.87Zm8.42,13.93-2.79-13.54-3.05.63L364.48,440Z"/><path class="cls-6" d="M373.2,420.17l5.2-1.07,7.91,38.51-5.19,1.07Zm3.25,1-.65.13,7.26,35.34.65-.14Z"/><path class="cls-6" d="M387,417.33l8.78,18.37-4-19.36,5.07-1,7.91,38.51-4.55.93-8.89-18.9,4.09,19.89-5.07,1-7.91-38.51Zm5.89,37.27-6.77-33,15.48,31.17.65-.14L395,417.39l-.65.14,6.77,33-15.48-31.16-.65.13,7.25,35.28Z"/><path class="cls-6" d="M421.42,446.65a3.28,3.28,0,0,1-.63,2.88,5,5,0,0,1-3.05,1.62l-4.54.94a5.31,5.31,0,0,1-3.45-.29,3.22,3.22,0,0,1-1.77-2.39l-6.44-31.31a3.27,3.27,0,0,1,.7-2.85,5.07,5.07,0,0,1,3-1.67l4.55-.94a4.94,4.94,0,0,1,3.45.34,3.35,3.35,0,0,1,1.71,2.35l1.82,8.89-5.13,1-1.79-8.72-3.19.65,6.37,31,3.19-.66-2.81-13.64-1.23.25-.78-3.81L417.8,429Zm-7.34-23.52-1.44-7a2.28,2.28,0,0,0-.91-1.6,3.18,3.18,0,0,0-2.15-.09l-3.63.75a3.33,3.33,0,0,0-1.95.9,2.18,2.18,0,0,0-.21,1.8l6.36,30.95a2.22,2.22,0,0,0,.9,1.58,3.3,3.3,0,0,0,2.15.05l3.63-.75a3.09,3.09,0,0,0,1.94-.92,2.27,2.27,0,0,0,.2-1.83l-3.24-15.76-2,.41.11.53,1.36-.28,3.13,15.23a1.74,1.74,0,0,1-.15,1.38,2.31,2.31,0,0,1-1.45.72l-3.63.74a2.45,2.45,0,0,1-1.61,0,1.67,1.67,0,0,1-.68-1.19l-6.36-30.94a1.68,1.68,0,0,1,.16-1.36,2.44,2.44,0,0,1,1.45-.68l3.64-.75a2.28,2.28,0,0,1,1.61.09,1.78,1.78,0,0,1,.69,1.2l1.44,7Z"/><path class="cls-6" d="M311.49,503.88a2.21,2.21,0,0,0-.29-.77,4.34,4.34,0,0,0-.61-.65l-8.65-7.81a3.42,3.42,0,0,1-.87-1.15,6.41,6.41,0,0,1-.34-1.14l-2-9.63a2.8,2.8,0,0,1,.66-2.7,6,6,0,0,1,3.09-1.43l4.35-.89a6,6,0,0,1,3.41.09,2.79,2.79,0,0,1,1.67,2.22l1.91,9.26-5.13,1.05-1.8-8.72-2.92.6,1.79,8.72a2,2,0,0,0,.33.79,5.41,5.41,0,0,0,.57.63l8.15,7.37a5.4,5.4,0,0,1,.76.72,4.87,4.87,0,0,1,.47.68,3.35,3.35,0,0,1,.34.81c.09.31.18.7.27,1.16l1.85,9a2.79,2.79,0,0,1-.66,2.7,6,6,0,0,1-3.09,1.43l-4.35.9A6.08,6.08,0,0,1,307,517a2.78,2.78,0,0,1-1.67-2.22l-1.91-9.26,5.14-1,1.79,8.72,2.92-.6Zm-.19-15.73-1.42-6.93a2.31,2.31,0,0,0-.91-1.61,3.19,3.19,0,0,0-2.15-.08l-3.57.73a3.36,3.36,0,0,0-1.95.9,2.21,2.21,0,0,0-.2,1.81l1.73,8.41a7.37,7.37,0,0,0,.34,1.17,2.36,2.36,0,0,0,.63.94l8.64,7.76a5.12,5.12,0,0,1,1,1.1,4.44,4.44,0,0,1,.47,1.31l1.7,8.25a1.74,1.74,0,0,1-.16,1.38A2.26,2.26,0,0,1,314,514l-3.58.74a2.31,2.31,0,0,1-1.6-.08,1.73,1.73,0,0,1-.69-1.21l-1.43-6.93-.65.13,1.43,6.93a2.29,2.29,0,0,0,.9,1.6,3.13,3.13,0,0,0,2.15.09l3.57-.74a3.16,3.16,0,0,0,1.95-.92,2.31,2.31,0,0,0,.2-1.83l-1.7-8.25A4.55,4.55,0,0,0,314,502a5.4,5.4,0,0,0-1.1-1.21l-8.39-7.59a2.39,2.39,0,0,1-.65-.86,4.49,4.49,0,0,1-.37-1.14l-1.73-8.41a1.65,1.65,0,0,1,.16-1.35,2.36,2.36,0,0,1,1.45-.69l3.57-.73a2.34,2.34,0,0,1,1.61.08,1.77,1.77,0,0,1,.69,1.21l1.42,6.93Z"/><path class="cls-6" d="M326.92,473.58l.77,3.76-3.76.77,7.14,34.75L325.55,514l-7.14-34.75-3.77.77-.77-3.76ZM316.26,478l4.22-.86,7.14,34.75.65-.14L321.13,477l4.29-.88-.11-.53-9.16,1.88Z"/><path class="cls-6" d="M343,470.27l7.17,34.91a3.26,3.26,0,0,1-.66,2.89,5.17,5.17,0,0,1-3,1.62l-4.35.89a5.1,5.1,0,0,1-3.44-.28,3.3,3.3,0,0,1-1.71-2.41L329.84,473l5.13-1.05,7.14,34.75,2.93-.6-7.15-34.75Zm-1.82,2-.65.13,6.77,33a1.79,1.79,0,0,1-.15,1.38,2.31,2.31,0,0,1-1.45.71l-3.64.75a2.4,2.4,0,0,1-1.6-.06,1.64,1.64,0,0,1-.68-1.18L333,474l-.65.13,6.78,33a2.22,2.22,0,0,0,.9,1.58,3.27,3.27,0,0,0,2.14.05l3.64-.74a3.15,3.15,0,0,0,1.94-.93,2.27,2.27,0,0,0,.2-1.83Z"/><path class="cls-6" d="M363.11,503.13l-7.67-18.21,4.52,22L354.83,508l-7.91-38.51,6-1.24,8.56,20.24-.12-22,6-1.25,7.92,38.51-5.13,1.05-4.53-22,.14,19.76Zm-5.74,2.67L350.21,471l.59-.12,11.94,26.49,1.17-.24.45-29.09.58-.12,7.17,34.85.65-.13-7.28-35.39-1.75.37-.45,29.09-.13,0-11.94-26.49-1.75.36,7.26,35.34Z"/><path class="cls-6" d="M388,478.06a5,5,0,0,1,.11.89,1.89,1.89,0,0,1-.18.92,2.76,2.76,0,0,1-.7.89,4,4,0,0,1-1.44.73,4,4,0,0,1,1.62.11,2.64,2.64,0,0,1,1,.57,2.09,2.09,0,0,1,.55.82,7.79,7.79,0,0,1,.23.84l2.68,13a3,3,0,0,1-.75,2.63,4.56,4.56,0,0,1-2.71,1.61L379.25,503l-7.91-38.51,9.16-1.88a4.52,4.52,0,0,1,3.12.41,3.11,3.11,0,0,1,1.74,2.18Zm-4.15,3.83a2.81,2.81,0,0,0,1.78-1.55,3.71,3.71,0,0,0,.13-2L383.24,466a2.28,2.28,0,0,0-.91-1.6,3.18,3.18,0,0,0-2.15-.09l-6.3,1.3,7.25,35.28,6.3-1.29a3.21,3.21,0,0,0,1.95-.93,2.31,2.31,0,0,0,.19-1.83L387,484.44a3.86,3.86,0,0,0-.91-1.8A2.75,2.75,0,0,0,383.86,481.89ZM374.64,466l5.65-1.16a2.28,2.28,0,0,1,1.61.09,1.78,1.78,0,0,1,.69,1.21l2.53,12.32a3.13,3.13,0,0,1-.26,2c-.32.65-1.17,1.12-2.55,1.4l-4.22.87Zm8.44,14-2.79-13.54-3.05.62L380,480.69Zm-.66,2.39c1.38-.28,2.35-.18,2.9.32a3.15,3.15,0,0,1,1.05,1.79L388.92,497a1.73,1.73,0,0,1-.15,1.39,2.31,2.31,0,0,1-1.45.71l-5.65,1.16-3.47-16.93Zm-1.61,2,2.8,13.65,3.05-.63-2.8-13.64Z"/><path class="cls-6" d="M396.46,499.42l-7.91-38.5,5.13-1.06,7.14,34.75,5.33-1.09.77,3.75Zm8.07-3.86-5.65,1.16-7.15-34.8-.65.13,7.26,35.33,6.3-1.29Z"/><path class="cls-6" d="M409.84,496.67l-7.92-38.5L412.71,456l.77,3.76-5.65,1.16,2.78,13.54,4.74-1,.78,3.81-4.74,1,2.81,13.64,5.65-1.16.77,3.76Zm8.4-3.93-6,1.23L408.78,477l5.07-1-.11-.53-5.07,1-3.44-16.77,6-1.23-.11-.53-6.62,1.36,7.25,35.28,6.62-1.36Z"/><path class="cls-6" d="M427.67,452.71l.86,13.06-4.81,1,.32-13.29Zm-2.07,2.08.14,9.9.64-.14-.13-9.89Z"/><path class="cls-6" d="M440.94,490.28l-7.14-34.75-2.4.49-.77-3.75,7.53-1.55,7.91,38.51ZM433,454l2.66-.55,7.15,34.75.65-.13-7.25-35.28-3.32.68Z"/><path class="cls-6" d="M442.8,453.52a3.27,3.27,0,0,1,.62-2.89,5.18,5.18,0,0,1,3.05-1.62l4.55-.93a5.1,5.1,0,0,1,3.44.28,3.3,3.3,0,0,1,1.71,2.41l6.44,31.31a3.29,3.29,0,0,1-.64,2.83,4.88,4.88,0,0,1-3,1.67l-4.54.94a5,5,0,0,1-3.46-.34,3.35,3.35,0,0,1-1.7-2.35l-1.82-8.89,5.13-1.05,1.79,8.73,3.12-.64L455,470.86l-4.22.87c-2.69.55-4.25-.26-4.7-2.45Zm16.89,28.83a1.68,1.68,0,0,1-.16,1.36,2.48,2.48,0,0,1-1.45.68l-3.77.77a2.23,2.23,0,0,1-1.61-.08,1.74,1.74,0,0,1-.69-1.21l-1.42-6.93-.65.14,1.42,6.93a2.28,2.28,0,0,0,.91,1.6,3.13,3.13,0,0,0,2.15.08l3.76-.77a3.27,3.27,0,0,0,1.95-.9,2.22,2.22,0,0,0,.21-1.8L454,451.38a2.22,2.22,0,0,0-.9-1.58,3.32,3.32,0,0,0-2.14-.06l-3.71.76a3.21,3.21,0,0,0-1.94.93,2.31,2.31,0,0,0-.2,1.83l3.11,15.13a2,2,0,0,0,.91,1.46,3.15,3.15,0,0,0,2.05.08l5.71-1.17Zm-13.93-29.22a1.74,1.74,0,0,1,.16-1.38,2.31,2.31,0,0,1,1.44-.72l3.7-.76a2.43,2.43,0,0,1,1.61.06,1.64,1.64,0,0,1,.68,1.18l3.43,16.72-5.71,1.17c-1.26.26-2-.12-2.2-1.15Zm8.43,14L451.08,452l-3.12.64,3.11,15.13Z"/><path class="cls-7" d="M171.07,157.17c-2.86.61-7.09-.32-7.39-1.72-.07-.35,0-.61.52-1.08,9.15-8.28,20.35-28.06,18.57-36.45-.65-3-3.05-4.46-7.62-3.49-28.32,6-50.57,46.89-46.15,67.74,1.91,9,8.7,14.22,22.14,11.37,17.88-3.8,38.93-23.61,40.8-25.34a3.85,3.85,0,0,1,2.14-1.19,2.28,2.28,0,0,1,2.79,1.85,3.19,3.19,0,0,1-.53,2.42c-2.25,3.52-30.9,28.35-50.78,32.57-19,4-31.19-1.9-33.79-14.13-6.6-31.1,34.91-77,64.37-83.29,12-2.55,17.82.84,19.15,7.13,2.25,10.6-7.95,29.44-22.17,42.69A4.14,4.14,0,0,1,171.07,157.17Z"/><path class="cls-7" d="M258.87,151.19c1.29-.27,2.79,1.84,3,2.89.45,2.1.14,2.77-1.5,4.21-16.41,14.93-31.48,26.29-41.21,28.35-3.57.76-5.92-.44-6.66-3.94s1.86-10.25,2.62-13.7c-9.49,8.1-20.6,23.36-24.6,24.21-2.43.52-5.88-.94-6.3-2.92-.82-3.85,8.89-31.35,14-44.37,11-27.55,21.28-46.88,25.29-47.73,2.72-.58,5.17,2.55,5.69,5,1.49,7-14.22,42.1-24.58,58.79-1.78,4.27-3.74,11.26-5.28,15.24,8.75-10.87,20.19-22.43,25.63-23.58,2.72-.58,6.36,1.08,6.85,3.41,1.09,5.13-3,12-3.61,18.18C243.33,167.39,257.44,151.49,258.87,151.19Z"/><path class="cls-7" d="M267,159.7c-3,8.54-1,9.58-1.32,12.09-.35,1.9-5.64,5.82-10.36,6.82a4.89,4.89,0,0,1-6-3.71c-.72-3.38,1.52-10.43,2.6-13.82,1.12-3.16,2.51-8.57,4.23-11.73a6.85,6.85,0,0,1,5-3.37c2.71-.58,7.77-.68,8.27,1.65C270,150.78,269.11,153.64,267,159.7Zm2.27-42.12c3.86-.82,7.64.82,8.41,4.43,1.11,5.24-4.52,12.52-10.52,13.79-4.15.89-7.51-.84-8.32-4.68C257.93,127,262.22,119.07,269.23,117.58Z"/><path class="cls-2" d="M171.89,157.17c-2.86.61-7.09-.32-7.39-1.72-.07-.35,0-.61.52-1.08,9.15-8.28,20.35-28.06,18.57-36.45-.65-3-3-4.46-7.62-3.49-28.31,6-50.57,46.89-46.15,67.74,1.91,9,8.7,14.22,22.14,11.37,17.88-3.8,38.93-23.61,40.81-25.34a3.79,3.79,0,0,1,2.14-1.19,2.26,2.26,0,0,1,2.78,1.85,3.19,3.19,0,0,1-.53,2.42c-2.24,3.52-30.9,28.35-50.78,32.57-19,4-31.19-1.9-33.78-14.13-6.61-31.1,34.9-77,64.36-83.3,12-2.55,17.82.85,19.15,7.14,2.25,10.6-8,29.44-22.17,42.69A4.14,4.14,0,0,1,171.89,157.17Z"/><path class="cls-2" d="M259.7,151.19c1.28-.27,2.78,1.84,3,2.89.45,2.1.14,2.77-1.5,4.21-16.41,14.93-31.48,26.29-41.2,28.35-3.58.76-5.93-.45-6.67-3.94s1.86-10.25,2.62-13.7c-9.49,8.1-20.6,23.36-24.6,24.21-2.43.52-5.88-.94-6.3-2.92-.82-3.85,8.89-31.35,14-44.37,11-27.55,21.29-46.89,25.29-47.74,2.72-.57,5.18,2.56,5.7,5,1.48,7-14.23,42.1-24.59,58.79-1.78,4.27-3.74,11.26-5.28,15.24,8.75-10.87,20.2-22.43,25.63-23.58,2.72-.58,6.36,1.08,6.85,3.41,1.09,5.13-3,12-3.61,18.18C244.16,167.39,258.27,151.49,259.7,151.19Z"/><path class="cls-2" d="M267.78,159.7c-3,8.54-1,9.57-1.32,12.09-.34,1.9-5.64,5.82-10.36,6.82a4.89,4.89,0,0,1-6-3.71c-.71-3.38,1.52-10.43,2.6-13.82,1.12-3.16,2.51-8.57,4.23-11.74a6.89,6.89,0,0,1,5-3.36c2.71-.58,7.77-.68,8.27,1.65C270.82,150.77,269.93,153.64,267.78,159.7Zm2.27-42.12c3.86-.82,7.64.81,8.41,4.43,1.11,5.24-4.52,12.52-10.52,13.79-4.15.88-7.5-.84-8.32-4.68C258.75,127,263,119.07,270.05,117.58Z"/><path class="cls-8" d="M304.8,189.39c-2.18.46-5.4-.25-5.63-1.31-.05-.27,0-.47.4-.83,7-6.3,15.5-21.37,14.14-27.76-.49-2.3-2.32-3.4-5.8-2.66-21.57,4.58-38.52,35.72-35.15,51.6,1.45,6.83,6.62,10.83,16.86,8.66,13.62-2.9,29.65-18,31.08-19.31a3,3,0,0,1,1.63-.9,1.73,1.73,0,0,1,2.12,1.41,2.42,2.42,0,0,1-.4,1.84c-1.71,2.69-23.54,21.6-38.68,24.81-14.49,3.08-23.76-1.44-25.74-10.76-5-23.69,26.59-58.68,49-63.44,9.15-2,13.57.64,14.59,5.43,1.71,8.07-6.05,22.42-16.89,32.51A3.14,3.14,0,0,1,304.8,189.39Z"/><path class="cls-8" d="M371.68,184.83c1-.21,2.12,1.4,2.29,2.2.34,1.6.11,2.11-1.14,3.21-12.5,11.37-24,20-31.39,21.59-2.72.58-4.51-.34-5.07-3s1.41-7.81,2-10.44c-7.23,6.17-15.69,17.8-18.74,18.45-1.85.39-4.47-.72-4.79-2.23-.63-2.93,6.76-23.88,10.69-33.8,8.41-21,16.21-35.71,19.26-36.35,2.07-.44,4,1.94,4.34,3.81,1.13,5.32-10.84,32.06-18.72,44.77-1.36,3.25-2.85,8.58-4,11.61,6.67-8.28,15.39-17.08,19.53-18,2.06-.44,4.84.82,5.21,2.6.83,3.9-2.27,9.11-2.75,13.84C359.85,197.17,370.59,185.06,371.68,184.83Z"/><path class="cls-8" d="M377.84,191.31c-2.26,6.51-.73,7.29-1,9.21-.27,1.44-4.3,4.43-7.89,5.2a3.73,3.73,0,0,1-4.59-2.83c-.54-2.58,1.16-7.94,2-10.53.85-2.41,1.91-6.53,3.22-8.94a5.26,5.26,0,0,1,3.79-2.56c2.07-.44,5.92-.52,6.3,1.26C380.16,184.51,379.48,186.7,377.84,191.31Zm1.73-32.08c2.94-.62,5.82.62,6.41,3.37.85,4-3.44,9.54-8,10.51-3.16.67-5.71-.64-6.33-3.57C371,166.44,374.23,160.37,379.57,159.23Z"/><path class="cls-2" d="M305.43,189.38c-2.18.47-5.4-.24-5.63-1.31-.06-.26,0-.46.39-.82,7-6.3,15.5-21.37,14.15-27.76-.49-2.31-2.32-3.4-5.81-2.66C287,161.41,270,192.54,273.38,208.42c1.45,6.84,6.63,10.84,16.87,8.66,13.61-2.89,29.65-18,31.08-19.3a3,3,0,0,1,1.63-.9,1.73,1.73,0,0,1,2.12,1.4,2.45,2.45,0,0,1-.41,1.85c-1.71,2.68-23.53,21.59-38.67,24.81-14.49,3.08-23.76-1.45-25.74-10.76-5-23.69,26.59-58.68,49-63.45,9.15-1.94,13.57.65,14.59,5.44,1.71,8.07-6.06,22.42-16.89,32.51A3.18,3.18,0,0,1,305.43,189.38Z"/><path class="cls-2" d="M372.31,184.83c1-.21,2.12,1.4,2.29,2.2.34,1.6.11,2.11-1.14,3.21-12.5,11.37-24,20-31.39,21.59-2.73.58-4.51-.34-5.08-3s1.42-7.81,2-10.44c-7.23,6.17-15.69,17.8-18.74,18.44-1.85.4-4.48-.71-4.8-2.22-.62-2.93,6.77-23.88,10.7-33.8,8.41-21,16.21-35.71,19.26-36.35,2.07-.44,3.94,1.94,4.34,3.8,1.13,5.33-10.84,32.07-18.73,44.78-1.36,3.25-2.85,8.57-4,11.61,6.66-8.28,15.38-17.09,19.52-18,2.07-.44,4.84.82,5.22,2.6.83,3.9-2.28,9.1-2.75,13.84C360.47,197.17,371.22,185.06,372.31,184.83Z"/><path class="cls-2" d="M378.47,191.31c-2.26,6.5-.73,7.29-1,9.21-.26,1.44-4.29,4.43-7.89,5.19a3.71,3.71,0,0,1-4.58-2.82c-.55-2.58,1.16-7.95,2-10.53.86-2.41,1.92-6.53,3.23-8.94a5.24,5.24,0,0,1,3.78-2.56c2.07-.44,5.93-.52,6.3,1.26C380.78,184.51,380.11,186.69,378.47,191.31Zm1.73-32.08c2.94-.62,5.82.62,6.4,3.37.85,4-3.44,9.54-8,10.51-3.16.67-5.72-.64-6.34-3.57C371.59,166.44,374.86,160.36,380.2,159.23Z"/></svg>