<svg id="Layer_3" data-name="Layer 3" xmlns="http://www.w3.org/2000/svg" viewBox="0 0 675 690"><defs><style>.cls-1,.cls-4{fill:#010101;stroke:#010101;stroke-miterlimit:10;}.cls-1{stroke-width:27.88px;}.cls-2{fill:#e5c06e;}.cls-3{fill:#b89240;}.cls-4{stroke-width:14.33px;}</style></defs><title>TDK</title><path class="cls-1" d="M17.91,224v45.1H93.2V472q22.72,0,45.48,0V269.11h75.26V224Z"/><path class="cls-1" d="M425,350.28a239.92,239.92,0,0,0-1.52-25.22q-.44-3.74-1-7.32-6.12-39.54-27.1-62c-.92-1-1.87-2-2.85-2.9-.31-.32-.63-.63-1-.94Q362.26,224,308.86,224H217.93a38.82,38.82,0,0,0-4,.19l-1,.13Q196.5,226.6,196.52,245V460.94a28.94,28.94,0,0,0,1.25,9c.11.34.25.68.38,1s.26.65.39,1l153.33-.11c2.86.15,5.74.43,8.58.43h3.1c1.51-.62,3-1.3,4.47-2a90.21,90.21,0,0,0,27.39-20q21-22.49,27.1-61.82.56-3.57,1-7.29.11-.83.18-1.65a240.71,240.71,0,0,0,1.36-26.3C425,352.2,425,351.24,425,350.28Zm-61.7-61.5q16.15,19.13,16.61,61.5v.08c0,.81,0,1.62,0,2.43q0,44.32-16.83,64.19t-54.26,19.88H246.57c-2,0-3.45-.59-4.24-1.76,0,0,0,0,0,0a5.05,5.05,0,0,1-.7-2.8V273.69q0-4.57,4.95-4.58h62.29q33.94,0,50.81,15.83A47.31,47.31,0,0,1,363.32,288.78Z"/><path class="cls-1" d="M649,470.07l-35.56-69.13q-5.73-11.08-11.07-19.29a86.86,86.86,0,0,0-11.29-14.14,62.17,62.17,0,0,0-12.78-9.94,61.5,61.5,0,0,0-16.07-6.31q16.06-6.87,26-18.34t18.73-28.67L647.43,224H598.91l-39.37,77.2a110.79,110.79,0,0,1-10.13,17A33.05,33.05,0,0,1,537.76,328c-4.58,2.31-10.37,3.76-17.38,4.4a265.78,265.78,0,0,1-26.94.95H468.61V224h-45.1V472.18l45.1,0v-98h24.83c12.22,0,22.16.34,29.8,1s14,2.11,19.1,4.4A33.84,33.84,0,0,1,555,389.09a99,99,0,0,1,10.32,16.43l33.27,64.59,1,2,43.11,0,7.33,0Z"/><path class="cls-2" d="M16.92,223v45.1H92.2v82.13h45.48V268.14H213V223Z"/><path class="cls-3" d="M137.68,350.27V471Q115,471,92.2,471V350.27Z"/><path class="cls-2" d="M424.05,352.21c0-.66,0-1.3,0-1.94a234.21,234.21,0,0,0-1.52-26.18q-5.22-44.83-28.09-69.33Q364.83,223,307.86,223H216.93a35.93,35.93,0,0,0-4,.2q-17.44,1.84-17.43,20.83v106.2h45.1V272.72c0-3.05,1.66-4.58,5-4.58h62.28q37.84,0,54.46,19.67,16.33,19.32,16.61,62.46h43.58v29.89A241.46,241.46,0,0,0,424.05,352.21Z"/><path class="cls-3" d="M422.51,350.27v29.89q-5.19,44.63-28.09,69.11a90.25,90.25,0,0,1-27.4,20c-1.45.7-2.95,1.38-4.46,2h-3.11c-2.84,0-5.71-.28-8.58-.42q-76.67,0-153.32.1c-.27-.64-.53-1.3-.77-2a28.89,28.89,0,0,1-1.26-9V350.27h45.1v81c0,3.05,1.66,4.58,5,4.58h62.28q37.45,0,54.26-19.87T379,351.83c0-.52,0-1,0-1.56Z"/><path class="cls-2" d="M597.91,223l-39.36,77.2a110.73,110.73,0,0,1-10.14,17A33,33,0,0,1,536.76,327c-4.58,2.31-10.37,3.76-17.38,4.4a265.63,265.63,0,0,1-26.94.95H467.61V223h-45.1V380.16a241.46,241.46,0,0,0,1.54-28c0-.66,0-1.3,0-1.94H561.26q16-6.87,25.94-18.31t18.74-28.68L646.44,223Z"/><path class="cls-3" d="M649,471.1l-7.32,0-43.11,0-1-2-33.27-64.59A98.49,98.49,0,0,0,554,388.13a33.87,33.87,0,0,0-12.63-9.56c-5.09-2.29-11.44-3.75-19.09-4.4s-17.58-1-29.81-1H467.61v98l-45.1,0V380.16a241.46,241.46,0,0,0,1.54-28c0-.66,0-1.3,0-1.94H561.26s0,0,0,0a61.09,61.09,0,0,1,16.06,6.32,62.1,62.1,0,0,1,12.79,9.93,87.4,87.4,0,0,1,11.29,14.14q5.34,8.2,11.07,19.29L648,469.1Z"/><rect class="cls-3" x="415.38" y="350.27" width="25.22" height="29.2"/><path class="cls-4" d="M367.37,337.92a4.08,4.08,0,0,1-4.76.67c-.87-.44-1.14-.2-1.53.56a120.55,120.55,0,0,0-8,18.35,57.78,57.78,0,0,0-3.14,16.68,42.31,42.31,0,0,0,.21,5.74c.07.61-.17.74-.7.73-.93,0-1.85,0-2.78,0l-34.9,0c-.35,0-.71,0-1.06-.05l-39.68,0c-.67,0-1-.14-.88-.88a51.88,51.88,0,0,0-1.84-18.55c-1-2.93-1.85-5.89-3-8.76-1.89-4.67-4-9.23-6.37-13.71-.31-.59-.58-.68-1.22-.29a4.37,4.37,0,0,1-5.3-.68,4.51,4.51,0,0,1-.76-5.22,4.45,4.45,0,0,1,4.58-2.24,4.51,4.51,0,0,1,3.65,3.95,3.89,3.89,0,0,1-.69,2.73.84.84,0,0,0,.13,1.27c4.08,4,8.08,8,13.62,10,3.74.84,6.25-.27,8.11-3.59a26.21,26.21,0,0,0,2.6-8.19c.13-.71-.1-1-.82-.9a4.22,4.22,0,0,1-4.27-3.57,4.36,4.36,0,0,1,8.11-2.85,4.27,4.27,0,0,1-1.18,5.54c-.62.46-.6.76-.21,1.35a35.89,35.89,0,0,0,5.9,6.7,6.84,6.84,0,0,0,7.85.42,15.85,15.85,0,0,0,4.73-5.83,57.61,57.61,0,0,0,3.84-9.47c.21-.66-.06-.74-.57-.92a7.67,7.67,0,0,1-5.28-8,7.53,7.53,0,0,1,5.74-6.89,7.78,7.78,0,0,1,6.19,14c-1.43.87-1.36.86-.81,2.48a60.65,60.65,0,0,0,3.07,7.73c1.54,3.05,3.25,6,6.54,7.6,3.06,1,5.48-.27,7.67-2.24a31.39,31.39,0,0,0,4.68-5.47c.43-.62.45-.95-.22-1.42a4,4,0,0,1-1.72-4.46A4.17,4.17,0,0,1,336.3,327a4.4,4.4,0,0,1,5.13,3.66,4.25,4.25,0,0,1-3.95,4.94c-.86,0-1.05.32-.9,1.08a27.4,27.4,0,0,0,2.5,7.89c1.79,3.29,4.6,4.65,8,3.75a21.91,21.91,0,0,0,7.78-4.47,63.43,63.43,0,0,0,5.74-5.26,1,1,0,0,0,.17-1.58,4,4,0,0,1,0-4.71,4.16,4.16,0,0,1,4.33-1.94,4.06,4.06,0,0,1,3.53,3.13A4.14,4.14,0,0,1,367.37,337.92Z"/><path class="cls-2" d="M368.74,339.09a4.08,4.08,0,0,1-4.79.66c-.87-.42-1.14-.18-1.54.59-1.71,3.29-3.36,6.62-4.85,10H264.72c-1.54-3.54-3.22-7-5-10.44-.3-.59-.56-.7-1.21-.31a4.38,4.38,0,0,1-5.33-.67,4.57,4.57,0,0,1-.78-5.24,4.5,4.5,0,0,1,4.61-2.26,4.58,4.58,0,0,1,3.69,4,3.89,3.89,0,0,1-.72,2.74.85.85,0,0,0,.15,1.28c4.09,4,8.11,8.07,13.68,10.05,3.77.84,6.28-.26,8.15-3.6a26.52,26.52,0,0,0,2.62-8.24c.12-.72-.11-1-.84-.91a4.23,4.23,0,0,1-4.28-3.58,4.38,4.38,0,0,1,8.15-2.87,4.29,4.29,0,0,1-1.19,5.57c-.62.45-.6.77-.22,1.36a35.66,35.66,0,0,0,5.95,6.73,6.85,6.85,0,0,0,7.89.42,15.86,15.86,0,0,0,4.75-5.86,57.82,57.82,0,0,0,3.85-9.52c.22-.67-.05-.74-.58-.92a7.69,7.69,0,0,1-5.29-8,7.6,7.6,0,0,1,5.76-6.94,7.83,7.83,0,0,1,6.23,14.13c-1.46.87-1.37.87-.81,2.49a63.26,63.26,0,0,0,3.08,7.76c1.54,3.07,3.26,6,6.55,7.64,3.08,1,5.52-.26,7.73-2.25a29.86,29.86,0,0,0,4.69-5.51c.44-.62.47-.94-.2-1.42a4,4,0,0,1-1.74-4.48,4.2,4.2,0,0,1,3.46-3.39,4.41,4.41,0,0,1,5.14,3.69,4.26,4.26,0,0,1-4,5c-.85,0-1.05.32-.91,1.11a27.36,27.36,0,0,0,2.52,7.91c1.8,3.31,4.62,4.67,8.05,3.78,3-.83,5.44-2.63,7.82-4.5a68.51,68.51,0,0,0,5.76-5.28c.57-.57.64-.91.17-1.6a4.05,4.05,0,0,1,0-4.73,4.17,4.17,0,0,1,4.34-2,4.1,4.1,0,0,1,3.56,3.16A4.18,4.18,0,0,1,368.74,339.09Z"/><path class="cls-3" d="M354.34,358.76a58.58,58.58,0,0,0-3.14,16.77,42.64,42.64,0,0,0,.21,5.77c.07.62-.17.74-.71.73-.92,0-1.86,0-2.78,0H312.84c-.33,0-.69,0-1-.05h-6.23q-16.84,0-33.68,0c-.68,0-1-.15-.88-.9a52.47,52.47,0,0,0-1.87-18.62c-1-2.95-1.86-5.93-3-8.81-.45-1.11-.92-2.23-1.4-3.34h92.84C356.37,353.11,355.28,355.9,354.34,358.76Z"/></svg>