<svg id="Layer_1" data-name="Layer 1" xmlns="http://www.w3.org/2000/svg" viewBox="0 0 576 576"><defs><style>.cls-1,.cls-4{fill:#010101;stroke:#010101;stroke-miterlimit:10;}.cls-1{stroke-width:18.24px;}.cls-2{fill:#e5c06e;}.cls-3{fill:#b89240;}.cls-4{stroke-width:9.38px;}</style></defs><path class="cls-1" d="M76.86,205.28v29.51h49.26V367.55h29.75V234.8h49.25V205.28Z"/><path class="cls-1" d="M343.21,287.91a154,154,0,0,0-1-16.5c-.19-1.64-.41-3.23-.65-4.79q-4-25.87-17.73-40.57c-.6-.65-1.22-1.31-1.87-1.9a7.64,7.64,0,0,0-.65-.61q-19.15-18.25-54.09-18.26H207.73a25.39,25.39,0,0,0-2.62.13l-.66.08Q193.71,207,193.72,219V360.31a18.68,18.68,0,0,0,.82,5.89c.07.22.16.44.24.65s.17.43.26.66l100.32-.07c1.87.09,3.76.28,5.61.28h2c1-.41,2-.85,2.93-1.31a59,59,0,0,0,17.92-13.09q13.74-14.71,17.73-40.45c.24-1.55.46-3.14.65-4.77q.07-.54.12-1.08a156.76,156.76,0,0,0,.89-17.2C343.21,289.16,343.21,288.53,343.21,287.91Zm-40.37-40.24q10.56,12.51,10.87,40.24v1.64q0,29-11,42t-35.51,13H226.46a3.13,3.13,0,0,1-2.77-1.15h0a3.27,3.27,0,0,1-.46-1.83V237.8q0-3,3.24-3h40.76q22.2,0,33.24,10.36a29.68,29.68,0,0,1,2.38,2.51Z"/><path class="cls-1" d="M489.77,366.28,466.5,321.05q-3.75-7.24-7.24-12.62a56.71,56.71,0,0,0-7.39-9.25,40.53,40.53,0,0,0-8.36-6.5A39.8,39.8,0,0,0,433,288.55a46.13,46.13,0,0,0,17-12,93.71,93.71,0,0,0,12.25-18.76l26.48-52.51H457l-25.76,50.51a74,74,0,0,1-6.63,11.13,21.75,21.75,0,0,1-7.62,6.41,31.81,31.81,0,0,1-11.38,2.88,175.63,175.63,0,0,1-17.62.62H371.74V205.28H342.23V367.66h29.51V303.54H388q12,0,19.5.66A38.7,38.7,0,0,1,420,307.08a22.11,22.11,0,0,1,8.29,6.22A65.36,65.36,0,0,1,435,324.05l21.77,42.26.65,1.31h33Z"/><path class="cls-2" d="M76.21,204.63v29.51h49.25v53.73h29.76V234.16H204.5V204.63Z"/><path class="cls-3" d="M155.22,287.9v79H125.46v-79Z"/><path class="cls-2" d="M342.59,289.17V287.9a153.31,153.31,0,0,0-1-17.13q-3.4-29.32-18.38-45.36-19.36-20.78-56.64-20.78h-59.5a23,23,0,0,0-2.62.13q-11.4,1.2-11.4,13.63v69.48h29.51V237.16c0-2,1.08-3,3.27-3h40.75q24.75,0,35.63,12.87,10.68,12.65,10.87,40.87h28.51v19.56A157.41,157.41,0,0,0,342.59,289.17Z"/><path class="cls-3" d="M341.58,287.9v19.56q-3.39,29.19-18.38,45.21a58.94,58.94,0,0,1-17.93,13.09c-.95.46-1.93.9-2.91,1.31h-2c-1.86,0-3.74-.18-5.61-.28q-50.17,0-100.32.07c-.18-.42-.35-.85-.5-1.31a18.94,18.94,0,0,1-.83-5.89V287.9h29.51v53q0,3,3.27,3h40.75q24.51,0,35.5-13t11-42v-1Z"/><path class="cls-2" d="M456.34,204.63l-25.75,50.51A72.6,72.6,0,0,1,424,266.26a21.5,21.5,0,0,1-7.62,6.42A31.56,31.56,0,0,1,405,275.55a172.81,172.81,0,0,1-17.63.63H371.09V204.63H341.58V307.46a158.05,158.05,0,0,0,1-18.32v-1.27h89.77a46.13,46.13,0,0,0,17-12,92.53,92.53,0,0,0,12.26-18.77l26.5-52.49Z"/><path class="cls-3" d="M489.77,367h-33l-.65-1.31-21.77-42.26a64.39,64.39,0,0,0-6.74-10.72,22.09,22.09,0,0,0-8.26-6.25,38.38,38.38,0,0,0-12.49-2.88q-7.51-.65-19.51-.66H371.09V367H341.58V307.46a158.05,158.05,0,0,0,1-18.32v-1.27h89.77A39.8,39.8,0,0,1,442.87,292a40.86,40.86,0,0,1,8.37,6.5,57.19,57.19,0,0,1,7.38,9.25q3.5,5.37,7.25,12.62l23.24,45.28Z"/><rect class="cls-3" x="336.91" y="287.9" width="16.5" height="19.11"/><path class="cls-4" d="M305.5,279.82a2.67,2.67,0,0,1-3.11.44c-.57-.29-.75-.13-1,.36a78.53,78.53,0,0,0-5.24,12,37.67,37.67,0,0,0-2,10.91,26.21,26.21,0,0,0,.14,3.76c0,.4-.12.48-.46.48H269.12a4,4,0,0,1-.69,0h-26c-.44,0-.66-.09-.58-.57a33.85,33.85,0,0,0-1.2-12.14c-.66-1.92-1.21-3.85-2-5.73a97.16,97.16,0,0,0-4.17-9c-.2-.39-.38-.44-.8-.19a2.86,2.86,0,0,1-3.47-.44,3,3,0,0,1-.5-3.42,2.94,2.94,0,0,1,3-1.47,3,3,0,0,1,2.39,2.59,2.54,2.54,0,0,1-.45,1.79.54.54,0,0,0,0,.77l.06.06c2.67,2.61,5.29,5.23,8.91,6.54a4.32,4.32,0,0,0,5.31-2.35,17.12,17.12,0,0,0,1.7-5.36c.09-.46-.06-.65-.53-.59a2.75,2.75,0,0,1-2.8-2.33,2.85,2.85,0,0,1,5.31-1.87,2.81,2.81,0,0,1-.77,3.63c-.41.3-.4.49-.14.88a23,23,0,0,0,3.86,4.38,4.46,4.46,0,0,0,5.13.28,10.28,10.28,0,0,0,3.1-3.82,37.32,37.32,0,0,0,2.51-6.19c.14-.43,0-.49-.37-.6a5,5,0,0,1-3.46-5.24,5,5,0,0,1,3.76-4.51,5.09,5.09,0,0,1,4.05,9.16c-.94.57-.89.57-.53,1.63a37.93,37.93,0,0,0,2,5c1,2,2.13,3.93,4.28,5,2,.65,3.58-.18,5-1.47a20.54,20.54,0,0,0,3.06-3.58c.28-.4.29-.62-.15-.93A2.62,2.62,0,0,1,283,274.8a2.72,2.72,0,0,1,2.22-2.12,2.87,2.87,0,0,1,3.35,2.32s0,.05,0,.07a2.78,2.78,0,0,1-2.29,3.2,1.43,1.43,0,0,1-.29,0c-.57,0-.69.21-.59.71a18,18,0,0,0,1.63,5.16,4.35,4.35,0,0,0,5.24,2.45,14.24,14.24,0,0,0,5.09-2.92,42.11,42.11,0,0,0,3.75-3.44.65.65,0,0,0,.22-.9.49.49,0,0,0-.11-.14,2.61,2.61,0,0,1,0-3.08,2.74,2.74,0,0,1,2.84-1.27,2.67,2.67,0,0,1,2.31,2.05A2.72,2.72,0,0,1,305.5,279.82Z"/><path class="cls-2" d="M306.4,280.59a2.7,2.7,0,0,1-3.14.43c-.56-.28-.74-.12-1,.38-1.12,2.16-2.2,4.33-3.18,6.55H238.34c-1-2.32-2.11-4.58-3.27-6.83-.2-.39-.37-.46-.79-.21a2.86,2.86,0,0,1-3.49-.44,3,3,0,0,1-.51-3.42,2.93,2.93,0,0,1,3-1.48,3,3,0,0,1,2.41,2.61,2.56,2.56,0,0,1-.47,1.8.55.55,0,0,0,0,.78.18.18,0,0,0,.07.05c2.67,2.62,5.3,5.28,8.95,6.58a4.33,4.33,0,0,0,5.33-2.36,17.31,17.31,0,0,0,1.71-5.39c.08-.47-.07-.65-.55-.59a2.78,2.78,0,0,1-2.8-2.34,2.87,2.87,0,0,1,5.34-1.88,2.81,2.81,0,0,1-.78,3.64c-.41.3-.39.51-.15.89a23.4,23.4,0,0,0,3.9,4.41,4.49,4.49,0,0,0,5.16.27,10.43,10.43,0,0,0,3.11-3.83,39.05,39.05,0,0,0,2.52-6.23c.14-.44,0-.49-.38-.6a5,5,0,0,1-3.46-5.24A5,5,0,0,1,267,263.6a5.13,5.13,0,0,1,4.08,9.25c-1,.56-.9.56-.53,1.62a39.79,39.79,0,0,0,2,5.08c1,2,2.13,3.93,4.28,5,2,.65,3.61-.17,5.06-1.47a20,20,0,0,0,3.07-3.61c.29-.4.3-.61-.13-.93a2.61,2.61,0,0,1-1.14-2.93,2.75,2.75,0,0,1,2.26-2.22,2.89,2.89,0,0,1,3.35,2.34.19.19,0,0,1,0,.08,2.79,2.79,0,0,1-2.25,3.23l-.36,0c-.56,0-.69.21-.6.73a18,18,0,0,0,1.65,5.17,4.39,4.39,0,0,0,5.27,2.48,14.93,14.93,0,0,0,5.11-2.95,44,44,0,0,0,3.77-3.45c.38-.38.42-.6.11-1.05a2.67,2.67,0,0,1,0-3.1,2.73,2.73,0,0,1,2.84-1.3,2.67,2.67,0,0,1,2.33,2.06A2.75,2.75,0,0,1,306.4,280.59Z"/><path class="cls-3" d="M297,293.46a38.29,38.29,0,0,0-2.06,11,27.9,27.9,0,0,0,.14,3.77c.05.41-.11.49-.46.48H269.82a4.64,4.64,0,0,1-.65,0H243.06c-.45,0-.66-.1-.58-.59a34.31,34.31,0,0,0-1.22-12.18c-.66-1.93-1.22-3.88-2-5.77-.3-.72-.61-1.46-.92-2.18h60.74A54.83,54.83,0,0,0,297,293.46Z"/></svg>