<svg id="Layer_1" data-name="Layer 1" xmlns="http://www.w3.org/2000/svg" viewBox="0 0 549 356.83"><title>TZLogo2B</title><path d="M549,274.51a273.54,273.54,0,0,1-12.62,82.32H501.61a240.66,240.66,0,0,0,14.45-82.32c0-133.2-108.39-241.57-241.57-241.57S32.94,141.31,32.94,274.51a240.14,240.14,0,0,0,14.45,82.32H12.62A273.5,273.5,0,0,1,0,274.51C0,123.14,123.13,0,274.49,0S549,123.14,549,274.51Z"/><polygon points="367.83 322.84 514.69 322.84 514.69 356.36 266.96 356.36 266.96 337.01 408.4 166.47 199.64 166.47 199.64 356.36 125.43 356.36 125.43 166.47 39.04 166.47 39.04 144.89 515.04 144.89 367.83 322.84"/><rect x="106" y="69.83" width="338" height="21.19"/></svg>