<svg id="Layer_1" data-name="Layer 1" xmlns="http://www.w3.org/2000/svg" viewBox="0 0 576 576"><defs><style>.cls-1{fill:#eead0e;}</style></defs><path class="cls-1" d="M159.92,440.17l-5.07,10-23.33,45.78-23.34-45.78-5.07-10h11.16l5.1,10L131.53,474l12.14-23.87,5.1-10Z"/><path class="cls-1" d="M164.74,495.88V440.17h10v55.71Z"/><path class="cls-1" d="M238.39,440.17V495.9l-9.92-7.68-35.81-27.6v35.29h-10V440.36l10,7.68,35.85,27.6V440.17Z"/><path class="cls-1" d="M302.09,440.17V495.9l-10-7.67-35.81-27.61v35.3h-10V440.36l10,7.68,35.81,27.6V440.17Z"/><path class="cls-1" d="M365.75,440.06h0L344.17,468h0l-1.2,1.52V495.8H333V469.75l-1.33-1.69h0l-21.57-28h12.53L337.94,460l15.32-19.86ZM310,495.83h.13L310,496Zm55.61,0h.1V496Z"/><path class="cls-1" d="M468.22,440.17v9.95H445.33v45.76h-9.9V450.15H412.51v-10Z"/><path class="cls-1" d="M240.15,360.08c40.78,13.28,94.46-8.88,109.84-31.54.56.74,12.84,29.21,11.87,30-27.5,23.62-52.37,34.65-92,37.11C266.83,395.69,239.42,359.84,240.15,360.08Z"/><path class="cls-1" d="M362.87,372.36c-.23,8-2.4,14.73-4.85,21.76-1.54,4.41-6.21,13.95-6.32,14.43-.3,1.25.08,2.2,1.31,3.29,2.93,2.59,7.39,7.09,10.59,10.25-14.21,1.19-16.74,1.16-30.13.41-1.6-.09-4-2.73-5.08-2.65-15.32,1.15-31.86-4.43-48.53-14.5a140.66,140.66,0,0,0,25.08-3.69A119.7,119.7,0,0,0,325.25,395,161.19,161.19,0,0,0,362.87,372.36Z"/><polygon class="cls-1" points="275.25 273.38 269.37 289.35 251.73 282.15 177.11 251.66 255.82 269.08 275.25 273.38"/><path class="cls-1" d="M268.22,252.19c-48.45-29.41-142.52-69.63-151.7-71.07-2.14-.33,16.9,26.59,20.49,33.21-1.38-.37-18.19-7.76-17.75-6.83,15.36,32.45,28.19,66.09,61.39,81.95,17.47,8.32,87,12.31,127.93,11.61C317.43,300.91,280.19,259.46,268.22,252.19Zm22.68,40.38c-86.63-3.74-93.39-4.25-106.61-10.29-36.16-16.55-50.82-59.72-51.09-60.54l19,6.13c-6-8.82-11.49-20.39-17-28.47,0-.12,107.71,49.33,125.34,62.77C261.28,262.7,286.31,284,290.9,292.57Z"/><path class="cls-1" d="M261.78,299c40.92.7,110.46-3.29,127.93-11.61,33.24-15.86,46-49.51,61.39-82,.44-.93-16.37,6.47-17.75,6.84,3.59-6.63,22.63-33.54,20.49-33.22-9.18,1.45-103.25,41.68-151.7,71.08C290.17,257.35,252.93,298.8,261.78,299Zm48-38.9c17.64-13.43,125.3-62.88,125.34-62.76-5.49,8.07-11,19.64-17,28.47l19-6.13c-.27.8-14.93,44-51.09,60.53-13.22,6.05-19.95,6.56-106.61,10.29,4.59-8.64,29.62-29.9,30.33-30.43Z"/><polygon class="cls-1" points="290.76 268.94 296.65 284.9 314.28 277.7 388.91 247.21 310.2 264.64 290.76 268.94"/><path class="cls-1" d="M235.41,196.84c0-28.74,19.32-52,43.16-52s43.16,23.3,43.16,52-7.85,45.67-39.61,51.61C248.85,254.74,235.41,225.58,235.41,196.84Z"/><path class="cls-1" d="M314.46,213.82V169.35c0-6.31,1.71-37.51-36.14-37.27-30.94.2-36.17,35.11-36.18,37.19q0,21.72,0,43.45V214H240.5c-2.78,0-5.56,0-8.34-.07a11.74,11.74,0,0,1-10.8-9.63,16.78,16.78,0,0,1-.21-2.46V178.7a11.76,11.76,0,0,1,6.3-10.83l.08-.05c1.83-.36,2.1-1.53,2.2-3.21a45.23,45.23,0,0,1,8.34-23.79c7.22-10.17,16.9-17,29.31-19.74,13.34-3,25.95-.92,37.38,6.5,12.33,8,19.67,19.25,21.81,33.69.24,1.6.35,3.28.45,4.92a1,1,0,0,0,.74,1.07c5,2,7.62,5.8,7.7,11,.16,8.09.11,16.19,0,24.29a11.7,11.7,0,0,1-11.23,11.34h-9.18A4,4,0,0,1,314.46,213.82Z"/><path class="cls-1" d="M315.67,301.65c18.23-7.82,24.87-39.31,17.89-49.5-5.57-8.19-13.11-13.86-22.05-17.81-3.21-1.41-6.54-2.55-10.18-3.94,1.37-1.08,2.45-1.89,3.49-2.75,7.22-6,10.61-6.87,15.56-14.4l-77.81,5.25a55.28,55.28,0,0,0,14.5,15.75c-15.81,8.51-26.9,20.37-24.91,39.56,1.67,16.05,6.16,24.87,29,35.38-12,4.58-27.47,24.87-25.67,39.68.6,5.09,29.58,5.62,48.23,2.23,33.5-6.13,63.51-27.72,61.77-33.27C344,313.11,328.14,302.64,315.67,301.65Z"/><path class="cls-1" d="M511.75,303a225.65,225.65,0,0,1-38.21,125.94h-18A210.61,210.61,0,0,0,497.14,303c0-116.78-95-211.78-211.72-211.78S73.71,186.22,73.71,303a210.61,210.61,0,0,0,41.6,125.94h-18C28,324.92,56.08,184.38,160.1,115S404.66,73.81,474,177.83A224,224,0,0,1,511.75,303Z"/></svg>