<svg xmlns="http://www.w3.org/2000/svg" viewBox="0 0 1433.31 1341.01"><defs><style>.cls-1,.cls-4{fill:#21235c;}.cls-2,.cls-5{fill:#fff;}.cls-3{fill:#cd1531;}.cls-4,.cls-5{stroke:#fff;stroke-miterlimit:10;}.cls-4{stroke-width:19px;}.cls-5{stroke-width:52.94px;}.cls-6{fill:#232560;}</style></defs><title>XXRush3</title><g id="Text"><path class="cls-1" d="M16,898.33l127-184c12.25,9.91,23.1,18.71,34,27.48,26.93,21.7,27.07,21.78,43.87-7.3Q280.3,631.68,339.48,528.72c16.4-28.41,33-56.68,51.31-88l86.23,94c92.3-121.63,174.65-240,262.66-358.09L935.62,485.34l98.26-47.07,182.76,291.86c7.34-3.6,13.63-7.3,20.34-9.86,16-6.11,28.93-4.28,38,12.94,12,22.92,25.68,45,38.85,67.85l46-13.51,58.45,106.89ZM985.35,601.51l182.73,142.85,3.82-3.6q-76-124.17-152.26-248.7L920,536.47C866.19,432.11,815,327.69,735.67,238L482.34,583.89l-92-74.91L222.55,774.35l4.55,3.25,70.74-66.24c2.8,16.73,4.93,29.51,6.51,39l132.8-120.42c7.89,37.36,16.24,76.88,26.31,124.57L627.92,552.68c4,41,7.41,76.13,10.82,111.25l4.73,1.13L736,454.32c15.86,44.27,30.15,84.18,44.43,124.09l7.06-.95L787.22,490l9.49-3.76Q875.36,601.64,954,717l9.18-1.69C970.27,679,977.35,642.64,985.35,601.51Z"/><path class="cls-2" d="M985.35,601.51c-8,41.13-15.08,77.49-22.16,113.84L954,717q-78.64-115.41-157.3-230.8L787.22,490l.24,87.46-7.06.95C766.12,538.5,751.83,498.59,736,454.32l-92.5,210.74-4.73-1.13c-3.41-35.12-6.83-70.24-10.82-111.25L463.46,754.51C453.39,706.82,445,667.3,437.15,629.94L304.35,750.36c-1.58-9.49-3.71-22.27-6.51-39L227.1,777.6l-4.55-3.25L390.32,509l92,74.91L735.67,238C815,327.69,866.19,432.11,920,536.47l99.67-44.41Q1096,616.79,1171.9,740.76l-3.82,3.6Z"/><polygon class="cls-3" points="1417.23 915.28 1398.95 954.58 35.4 954.58 17.12 915.28 1417.23 915.28"/><polygon class="cls-3" points="1391.07 971.51 1372.79 1010.82 61.56 1010.82 43.28 971.51 1391.07 971.51"/><polygon class="cls-3" points="69.44 1027.76 1364.9 1027.76 1346.62 1067.07 87.73 1067.07 69.44 1027.76"/><polygon class="cls-3" points="95.61 1084.02 1338.75 1084.02 1320.47 1123.32 113.89 1123.32 95.61 1084.02"/><path class="cls-4" d="M384.36,1166.11c-4,0-9.47-2.65-9.47-4.93a1.75,1.75,0,0,1,1.13-1.51c13.08-6.64,27.87-26.74,27.87-39.25,0-6.44-3.79-10.8-13.46-10.8-27.87,0-54,24.26-54,44.17,0,25.4,44.74,31.47,44.74,54.6,0,15.35-16.11,29.57-39.43,29.57a49,49,0,0,1-26.54-7.58,4.71,4.71,0,0,1-1.52-3.79c0-2.66,1.33-5.5,3.6-5.5,1.14,0,1.14.19,5.12,1.89a55.19,55.19,0,0,0,19.34,3.79c11.56,0,20.09-4.35,20.09-11.94,0-15.16-42.84-21.8-42.84-52.51,0-33,41.52-64.83,81.33-64.83,18.58,0,25.78,7.2,25.78,17.25,0,16.11-19,39.24-39.24,50.8A5.26,5.26,0,0,1,384.36,1166.11Z"/><path class="cls-4" d="M411.66,1185.45c3.6-7,7.58-14,11.19-20.48,1.32-2.27,4-3.6,7.2-3.6,3.41,0,10.05,1.52,10.05,4.74,0,1-.76,2.84-2.28,6.07L431,1185.45h13.08c1.52,0,2.27.76,2.27,2.08,0,3-3.79,8.34-6.63,8.34H426.07c-4.55,9.48-8.91,19.72-10.05,26,15.36-5.12,35.07-18.58,44.17-26.17a3.1,3.1,0,0,1,1.52-.56c1.71,0,2.65,2.46,2.65,5.31,0,2.46-.75,4.92-2.27,6.06-24.84,17.82-47.77,30.14-60.67,30.14-4.73,0-7.39-2.65-7.39-8.34,0-5.12,5.31-18,12.32-32.42H392.7c-1.89,0-2.65-.75-2.65-2.08,0-3,4.36-8.34,6.82-8.34Z"/><path class="cls-4" d="M485,1211.23a16.7,16.7,0,0,1-4.93-11.94c0-8.53,5.68-12,10.61-12,6.07,0,10.24,3.8,10.24,12a27.79,27.79,0,0,1-1.33,7.77,24.16,24.16,0,0,0,3.79.19c8.16,0,16.12-3.6,24.84-10.24,2.46-1.89,2.84-2.08,3.22-2.08,1.33,0,1.9,2.46,1.9,5.12,0,2.46-.57,5.11-1.71,6.06-7,5.69-17.63,11.38-29.95,11.38a26.94,26.94,0,0,1-6.83-1c-7.39,11.18-20.66,20.66-33.55,20.66s-19.15-7.58-19.15-16.87c0-19.34,21.23-33.74,34.12-33.74,2.09,0,3.42,1.32,3.42,4,0,2.46-1.52,4.74-5.31,6.44-6.07,2.85-13.08,9.67-13.08,17.82,0,4.36,2.65,8.34,7.39,8.34C475.93,1223.17,481.23,1217.86,485,1211.23Z"/><path class="cls-4" d="M509.48,1212.94c0-1,2.09-2.66,6.45-5.88l6.25-4.55L521,1201a11.79,11.79,0,0,1-2.84-8,14.24,14.24,0,0,1,14-14c6.82,0,10.43,3.23,10.43,8.34a16.06,16.06,0,0,1-.95,4.93c3.41,1.14,6.06,2.28,8.72,3.41,3.41,1.52,4.55,3.61,4.55,6.07,0,6.64-8.72,15.55-8.72,21.23,19.52-7.58,37.72-22,45.5-28.24a2,2,0,0,1,1.32-.57c1.71,0,2.66,3,2.66,6.07a7.25,7.25,0,0,1-1.52,4.92c-12.51,10-45.69,31.47-57.44,31.47-4.74,0-7.39-2.65-7.39-8.34,0-4.93,6.63-13.27,8.72-18.2-3-1.13-5.5-1.89-7.78-2.84-6.06,4.17-12.7,6.63-16.68,6.63C510.81,1213.88,509.48,1213.69,509.48,1212.94Z"/><path class="cls-4" d="M570,1212.94c0-1,2.09-2.66,6.45-5.88l6.25-4.55-1.13-1.52a11.75,11.75,0,0,1-2.85-8,14.24,14.24,0,0,1,14-14c6.83,0,10.43,3.23,10.43,8.34a16.06,16.06,0,0,1-1,4.93c3.41,1.14,6.07,2.28,8.72,3.41,3.41,1.52,4.55,3.61,4.55,6.07,0,6.64-8.72,15.55-8.72,21.23,19.53-7.58,37.72-22,45.5-28.24a2,2,0,0,1,1.32-.57c1.71,0,2.66,3,2.66,6.07a7.25,7.25,0,0,1-1.52,4.92c-12.51,10-45.69,31.47-57.44,31.47-4.74,0-7.39-2.65-7.39-8.34,0-4.93,6.63-13.27,8.72-18.2-3-1.13-5.5-1.89-7.77-2.84-6.07,4.17-12.71,6.63-16.69,6.63C571.28,1213.88,570,1213.69,570,1212.94Z"/><path class="cls-4" d="M678.77,1209a51.68,51.68,0,0,1-.76,9.47C675.92,1230,667.2,1238,654.88,1238c-9.29,0-15.36-4-15.36-10.62,0-5.68,6.26-9.85,12.33-9.85a11,11,0,0,1,9.67,5.11,35,35,0,0,0,1.89-12.32,42.31,42.31,0,0,0-1.33-11c-10.23,8.91-20.28,14.59-27.48,14.59-2.85,0-4.36-.37-4.36-1.32,0-1.14,2.08-3,6.44-6.07,21.23-15.16,30.14-25.59,32.8-25.59C674.22,1180.9,678.77,1194.93,678.77,1209Z"/><path class="cls-4" d="M693.17,1237.58c-3-1.52-4.93-4.55-4.93-9.1,0-6.63,7.59-17.63,16.88-17.63a9.32,9.32,0,0,1,9.48,9.67c0,3-1.71,7-3.61,9.86a94.14,94.14,0,0,1-27.1,26.35,5.06,5.06,0,0,1-2.28.57,4.59,4.59,0,0,1-4.55-4.36,3.91,3.91,0,0,1,1.71-3A133.16,133.16,0,0,0,693.17,1237.58Z"/><path class="cls-4" d="M858.86,1174.83c-3.79,0-8.91-2.84-8.91-5.12,0-.57.19-1,.95-1.51,13.84-9.86,33.37-37,33.37-50.62,0-4.93-2.66-8-8.73-8-37.53,0-76.77,56.3-76.77,90.24,0,14.59,7.2,25,25,25,8.53,0,18-3.22,27.3-7.2a12.67,12.67,0,0,1,5.12-1.33c2.08,0,3,1.14,3,2.46,0,1.9-1.89,4.55-5.5,6.83-12.7,8-28.24,13.46-39.81,13.46-25.21,0-39-13.27-39-33.18,0-50.61,65-108.43,104.08-108.43,15.92,0,22.37,7.2,22.37,17.44,0,17.25-18,43.22-39.62,59.14A4.58,4.58,0,0,1,858.86,1174.83Z"/><path class="cls-4" d="M1009.19,1092c5.69,0,10.43,8.72,10.43,14.22,0,2.27-.76,4-2.84,4.17a266.87,266.87,0,0,0-49.86,10.42c5.5.57,11,2.47,11,4.74a1.44,1.44,0,0,1-.19.76c-14.78,24.83-38.48,70.14-51.75,110.71a2.57,2.57,0,0,1-2.27,2.09c-3.8,0-10.24-8.15-10.24-14,0-16.31,22.56-63.7,41.7-100.48-17.63,6.07-35.26,13.84-50.42,23.32a2.53,2.53,0,0,1-1.52.57c-2.65,0-4.74-4-4.74-7.39a4.87,4.87,0,0,1,1.71-4C924.07,1119.29,979.62,1092,1009.19,1092Z"/><path class="cls-1" d="M384.36,1166.11c-4,0-9.47-2.65-9.47-4.93a1.76,1.76,0,0,1,1.13-1.51c13.08-6.64,27.87-26.73,27.87-39.25,0-6.44-3.79-10.8-13.46-10.8-27.87,0-54,24.26-54,44.17,0,25.4,44.74,31.47,44.74,54.6,0,15.35-16.11,29.57-39.43,29.57a49,49,0,0,1-26.54-7.58,4.71,4.71,0,0,1-1.52-3.79c0-2.66,1.33-5.5,3.6-5.5,1.14,0,1.14.19,5.12,1.89a55.17,55.17,0,0,0,19.34,3.8c11.56,0,20.09-4.36,20.09-12,0-15.16-42.84-21.8-42.84-52.51,0-33,41.52-64.83,81.33-64.83,18.58,0,25.78,7.2,25.78,17.25,0,16.11-19,39.24-39.24,50.8A5.26,5.26,0,0,1,384.36,1166.11Z"/><path class="cls-1" d="M411.66,1185.45c3.6-7,7.58-14,11.19-20.48,1.32-2.27,4-3.6,7.2-3.6,3.41,0,10.05,1.52,10.05,4.74,0,1-.76,2.85-2.28,6.07L431,1185.45h13.08c1.52,0,2.27.76,2.27,2.08,0,3-3.79,8.35-6.63,8.35H426.07c-4.55,9.47-8.91,19.71-10.05,26,15.36-5.12,35.07-18.58,44.17-26.16a3,3,0,0,1,1.52-.57c1.71,0,2.65,2.46,2.65,5.31,0,2.46-.75,4.92-2.27,6.06-24.84,17.82-47.77,30.14-60.67,30.14-4.73,0-7.39-2.65-7.39-8.34,0-5.12,5.31-18,12.32-32.41H392.7c-1.89,0-2.65-.76-2.65-2.09,0-3,4.36-8.34,6.82-8.34Z"/><path class="cls-1" d="M485,1211.23a16.7,16.7,0,0,1-4.93-11.94c0-8.53,5.68-12,10.61-12,6.07,0,10.24,3.8,10.24,12a27.79,27.79,0,0,1-1.33,7.77,24.16,24.16,0,0,0,3.79.19c8.16,0,16.12-3.6,24.84-10.24,2.46-1.89,2.84-2.08,3.22-2.08,1.33,0,1.9,2.46,1.9,5.12,0,2.46-.57,5.11-1.71,6.06-7,5.69-17.63,11.38-29.95,11.38a26.94,26.94,0,0,1-6.83-1c-7.39,11.18-20.66,20.66-33.55,20.66s-19.15-7.58-19.15-16.87c0-19.34,21.23-33.74,34.12-33.74,2.09,0,3.42,1.32,3.42,4,0,2.46-1.52,4.74-5.31,6.44-6.07,2.85-13.08,9.67-13.08,17.82,0,4.36,2.65,8.34,7.39,8.34C475.93,1223.17,481.23,1217.87,485,1211.23Z"/><path class="cls-1" d="M509.48,1212.94c0-1,2.09-2.66,6.45-5.88l6.25-4.55L521,1201a11.77,11.77,0,0,1-2.84-8,14.24,14.24,0,0,1,14-14c6.82,0,10.43,3.23,10.43,8.34a16.06,16.06,0,0,1-.95,4.93c3.41,1.14,6.06,2.28,8.72,3.42,3.41,1.51,4.55,3.6,4.55,6.06,0,6.64-8.72,15.55-8.72,21.23,19.52-7.58,37.72-22,45.5-28.24a2,2,0,0,1,1.32-.57c1.71,0,2.66,3,2.66,6.07a7.25,7.25,0,0,1-1.52,4.92c-12.51,10-45.69,31.47-57.44,31.47-4.74,0-7.39-2.65-7.39-8.34,0-4.93,6.63-13.27,8.72-18.2-3-1.13-5.5-1.89-7.78-2.84-6.06,4.17-12.7,6.64-16.68,6.64C510.81,1213.89,509.48,1213.7,509.48,1212.94Z"/><path class="cls-1" d="M570,1212.94c0-1,2.09-2.66,6.45-5.88l6.25-4.55-1.13-1.52a11.74,11.74,0,0,1-2.85-8,14.24,14.24,0,0,1,14-14c6.83,0,10.43,3.23,10.43,8.34a16.06,16.06,0,0,1-1,4.93c3.41,1.14,6.07,2.28,8.72,3.42,3.41,1.51,4.55,3.6,4.55,6.06,0,6.64-8.72,15.55-8.72,21.23,19.53-7.58,37.72-22,45.5-28.24a2,2,0,0,1,1.32-.57c1.71,0,2.66,3,2.66,6.07a7.25,7.25,0,0,1-1.52,4.92c-12.51,10-45.69,31.47-57.44,31.47-4.74,0-7.39-2.65-7.39-8.34,0-4.93,6.63-13.27,8.72-18.2-3-1.13-5.5-1.89-7.77-2.84-6.07,4.17-12.71,6.64-16.69,6.64C571.28,1213.89,570,1213.7,570,1212.94Z"/><path class="cls-1" d="M678.77,1209a51.68,51.68,0,0,1-.76,9.47C675.92,1230,667.2,1238,654.88,1238c-9.29,0-15.36-4-15.36-10.62,0-5.68,6.26-9.85,12.33-9.85a11,11,0,0,1,9.67,5.12,35.06,35.06,0,0,0,1.89-12.33,42.31,42.31,0,0,0-1.33-11c-10.23,8.91-20.28,14.6-27.48,14.6-2.85,0-4.36-.38-4.36-1.33,0-1.14,2.08-3,6.44-6.07,21.23-15.16,30.14-25.59,32.8-25.59C674.22,1180.9,678.77,1194.93,678.77,1209Z"/><path class="cls-1" d="M693.17,1237.58c-3-1.52-4.93-4.55-4.93-9.1,0-6.63,7.59-17.63,16.88-17.63a9.32,9.32,0,0,1,9.48,9.67c0,3-1.71,7-3.61,9.86a94.14,94.14,0,0,1-27.1,26.35,5.06,5.06,0,0,1-2.28.57,4.59,4.59,0,0,1-4.55-4.36,3.91,3.91,0,0,1,1.71-3A133.16,133.16,0,0,0,693.17,1237.58Z"/><path class="cls-1" d="M858.86,1174.83c-3.79,0-8.91-2.84-8.91-5.12,0-.57.19-.94.95-1.51,13.84-9.86,33.37-37,33.37-50.62,0-4.93-2.66-8-8.73-8-37.53,0-76.77,56.3-76.77,90.24,0,14.59,7.2,25,25,25,8.53,0,18-3.22,27.3-7.2a12.67,12.67,0,0,1,5.12-1.33c2.08,0,3,1.14,3,2.46,0,1.9-1.89,4.55-5.5,6.83-12.7,8-28.24,13.46-39.81,13.46-25.21,0-39-13.27-39-33.18,0-50.61,65-108.43,104.08-108.43,15.92,0,22.37,7.2,22.37,17.44,0,17.25-18,43.22-39.62,59.14A4.58,4.58,0,0,1,858.86,1174.83Z"/><path class="cls-1" d="M1009.19,1092c5.69,0,10.43,8.72,10.43,14.22,0,2.27-.76,4-2.84,4.17a266.87,266.87,0,0,0-49.86,10.42c5.5.57,11,2.47,11,4.74a1.44,1.44,0,0,1-.19.76c-14.78,24.84-38.48,70.14-51.75,110.71a2.57,2.57,0,0,1-2.27,2.09c-3.8,0-10.24-8.15-10.24-14,0-16.3,22.56-63.7,41.7-100.48-17.63,6.07-35.26,13.84-50.42,23.32a2.53,2.53,0,0,1-1.52.57c-2.65,0-4.74-4-4.74-7.39a4.87,4.87,0,0,1,1.71-4C924.07,1119.29,979.62,1092,1009.19,1092Z"/><path class="cls-5" d="M438.86,828.62c-18.84-71.09-28.26-143-28.26-211.54a688.17,688.17,0,0,1,10.28-120.75c10.27-54,19.69-70.23,33.39-70.23a30.36,30.36,0,0,1,8.57,1.72c41.11,12.84,65.09,31.68,65.09,60.8a66,66,0,0,1-1.72,12.85c-10.27,50.52-16.27,107.91-16.27,167,0,29.11.86,59.09,4.28,89.06C630.69,641.92,719.76,528,777.14,439c2.57-4.28,6-6,9.42-6,18,0,45.39,41.11,45.39,68.52,0,6-.86,11.13-4.28,15.41C723.19,648.77,623.84,754.11,526.21,840.6c13.71,68.52,36.83,136.17,70.23,199.55,2.57,6,4.28,11.13,4.28,15.41,0,11.14-8.56,16.27-20.55,16.27-15.42,0-36-9.42-48.82-29.12a715.31,715.31,0,0,1-71.08-145.58C378.91,962.21,298.41,1015.31,217.91,1059c-4.29,2.57-10.28,3.42-16.27,3.42-13.71,0-28.27-6-28.27-16.27,0-6,5.14-13.7,18.85-23.12C282.14,962.21,365.21,895.41,438.86,828.62Z"/><path class="cls-5" d="M953.56,828.62c-18.84-71.09-28.26-143-28.26-211.54a689.14,689.14,0,0,1,10.27-120.75c10.28-54,19.7-70.23,33.4-70.23a30.36,30.36,0,0,1,8.57,1.72c41.1,12.84,65.09,31.68,65.09,60.8a66,66,0,0,1-1.72,12.85c-10.28,50.52-16.27,107.91-16.27,167,0,29.11.86,59.09,4.28,89.06C1145.39,641.92,1234.46,528,1291.84,439c2.57-4.28,6-6,9.42-6,18,0,45.39,41.11,45.39,68.52,0,6-.86,11.13-4.28,15.41-104.49,131.89-203.83,237.23-301.46,323.72,13.7,68.52,36.83,136.17,70.23,199.55,2.57,6,4.28,11.13,4.28,15.41,0,11.14-8.56,16.27-20.55,16.27-15.42,0-36-9.42-48.82-29.12A715.31,715.31,0,0,1,975,897.13C893.61,962.21,813.11,1015.31,732.61,1059c-4.29,2.57-10.28,3.42-16.28,3.42-13.7,0-28.26-6-28.26-16.27,0-6,5.14-13.7,18.84-23.12C796.84,962.21,879.91,895.41,953.56,828.62Z"/><path class="cls-6" d="M435.08,827.78c-18.84-71.09-28.26-143-28.26-211.54a689.14,689.14,0,0,1,10.27-120.75c10.28-53.95,19.7-70.23,33.4-70.23a30.36,30.36,0,0,1,8.57,1.72c41.1,12.84,65.08,31.68,65.08,60.8a65.76,65.76,0,0,1-1.71,12.85c-10.27,50.53-16.27,107.91-16.27,167,0,29.11.86,59.09,4.28,89.06C626.91,641.08,716,527.18,773.36,438.11c2.57-4.28,6-6,9.42-6,18,0,45.39,41.11,45.39,68.52,0,6-.86,11.13-4.28,15.41C719.4,647.93,620.06,753.27,522.43,839.77c13.7,68.51,36.83,136.16,70.23,199.54,2.57,6,4.28,11.13,4.28,15.41,0,11.14-8.57,16.27-20.55,16.27-15.42,0-36-9.42-48.82-29.11a715.64,715.64,0,0,1-71.08-145.59c-81.36,65.08-161.86,118.18-242.36,161.86-4.29,2.57-10.28,3.42-16.28,3.42-13.7,0-28.26-6-28.26-16.27,0-6,5.14-13.7,18.84-23.12C278.36,961.37,361.43,894.58,435.08,827.78Z"/><path class="cls-6" d="M949.78,827.78c-18.85-71.09-28.27-143-28.27-211.54a689.12,689.12,0,0,1,10.28-120.75c10.28-53.95,19.7-70.23,33.4-70.23a30.36,30.36,0,0,1,8.57,1.72c41.1,12.84,65.08,31.68,65.08,60.8a65.76,65.76,0,0,1-1.71,12.85c-10.28,50.53-16.27,107.91-16.27,167,0,29.11.85,59.09,4.28,89.06,116.47-115.61,205.54-229.51,262.92-318.58,2.57-4.28,6-6,9.42-6,18,0,45.39,41.11,45.39,68.52,0,6-.86,11.13-4.29,15.41-104.48,131.89-203.82,237.23-301.45,323.73,13.7,68.51,36.83,136.16,70.23,199.54,2.56,6,4.28,11.13,4.28,15.41,0,11.14-8.57,16.27-20.56,16.27-15.41,0-36-9.42-48.81-29.11a715.64,715.64,0,0,1-71.08-145.59c-81.36,65.08-161.86,118.18-242.37,161.86-4.28,2.57-10.27,3.42-16.27,3.42-13.7,0-28.26-6-28.26-16.27,0-6,5.14-13.7,18.84-23.12C793.05,961.37,876.12,894.58,949.78,827.78Z"/></g></svg>