<svg id="Layer_1" data-name="Layer 1" xmlns="http://www.w3.org/2000/svg" viewBox="0 0 576 576"><defs><style>.cls-1,.cls-4{fill:#21235c;}.cls-2,.cls-5{fill:#fff;}.cls-3{fill:#cd1531;}.cls-4,.cls-5{stroke:#fff;stroke-miterlimit:10;}.cls-4{stroke-width:5.69px;}.cls-5{stroke-width:15.86px;}.cls-6{fill:#232560;}</style></defs><g id="Text"><path class="cls-1" d="M75.6,335.12l38-55.11c3.67,3,6.92,5.6,10.19,8.23,8.07,6.5,8.11,6.52,13.14-2.19q17.81-30.8,35.53-61.64c4.91-8.51,9.88-17,15.37-26.36l25.82,28.16C241.34,189.78,266,154.32,292.37,119l58.69,92.47,29.43-14.1,54.74,87.42c2.2-1.08,4.08-2.19,6.09-2.95,4.8-1.83,8.67-1.29,11.39,3.87,3.59,6.87,7.69,13.48,11.63,20.33l13.78-4.05,17.51,32ZM366,246.21,420.69,289l1.14-1.08-45.61-74.49-29.84,13.3c-16.12-31.26-31.45-62.53-55.21-89.4L215.29,240.94,187.73,218.5,137.47,298l1.37,1L160,279.12c.84,5,1.48,8.84,1.95,11.68l39.78-36.07c2.36,11.19,4.87,23,7.88,37.31l49.26-60.45c1.2,12.28,2.22,22.8,3.24,33.32l1.42.34,27.72-63.12c4.75,13.26,9,25.21,13.3,37.17l2.12-.29-.08-26.2,2.84-1.12,47.11,69.12,2.75-.51C361.44,269.43,363.56,258.53,366,246.21Z"/><path class="cls-2" d="M366,246.21c-2.39,12.32-4.51,23.22-6.63,34.1l-2.76.5Q333,246.24,309.45,211.68l-2.84,1.13.07,26.2-2.11.29c-4.28-12-8.56-23.91-13.3-37.17l-27.71,63.12-1.42-.34c-1-10.52-2-21-3.24-33.32L209.63,292c-3-14.28-5.53-26.12-7.88-37.31L162,290.8c-.47-2.84-1.11-6.67-1.95-11.68L138.84,299l-1.37-1,50.25-79.48,27.56,22.43,75.89-103.61c23.76,26.87,39.09,58.14,55.21,89.4l29.85-13.3q22.88,37.37,45.6,74.49L420.69,289Z"/><polygon class="cls-3" points="495.31 340.2 489.84 351.97 81.42 351.97 75.94 340.2 495.31 340.2"/><polygon class="cls-3" points="487.48 357.04 482 368.81 89.25 368.81 83.78 357.04 487.48 357.04"/><polygon class="cls-3" points="91.61 373.89 479.64 373.89 474.17 385.66 97.09 385.66 91.61 373.89"/><polygon class="cls-3" points="99.45 390.74 471.81 390.74 466.33 402.51 104.93 402.51 99.45 390.74"/><path class="cls-4" d="M185.94,415.33c-1.2,0-2.84-.79-2.84-1.48a.54.54,0,0,1,.34-.45c3.92-2,8.35-8,8.35-11.76,0-1.93-1.14-3.23-4-3.23-8.35,0-16.18,7.27-16.18,13.23,0,7.61,13.4,9.43,13.4,16.35,0,4.6-4.82,8.86-11.81,8.86a14.72,14.72,0,0,1-7.95-2.27,1.43,1.43,0,0,1-.45-1.14c0-.79.4-1.64,1.08-1.64.34,0,.34.05,1.53.56a16.44,16.44,0,0,0,5.79,1.14c3.47,0,6-1.3,6-3.58,0-4.54-12.83-6.53-12.83-15.73,0-9.88,12.44-19.41,24.36-19.41,5.57,0,7.72,2.15,7.72,5.16,0,4.83-5.69,11.76-11.75,15.22A1.62,1.62,0,0,1,185.94,415.33Z"/><path class="cls-4" d="M194.12,421.12c1.07-2.09,2.27-4.19,3.35-6.13a2.4,2.4,0,0,1,2.15-1.08c1,0,3,.45,3,1.42a6,6,0,0,1-.69,1.82l-2,4h3.92c.45,0,.68.23.68.62,0,.9-1.14,2.5-2,2.5h-4.09a38,38,0,0,0-3,7.79c4.6-1.53,10.51-5.56,13.23-7.84a1.07,1.07,0,0,1,.46-.17c.51,0,.79.74.79,1.59a2.3,2.3,0,0,1-.68,1.82c-7.44,5.34-14.31,9-18.17,9-1.42,0-2.21-.8-2.21-2.5,0-1.53,1.59-5.39,3.69-9.71h-4.09c-.57,0-.8-.23-.8-.62,0-.9,1.31-2.5,2.05-2.5Z"/><path class="cls-4" d="M216.08,428.84a5,5,0,0,1-1.47-3.57c0-2.56,1.7-3.6,3.18-3.6,1.81,0,3.06,1.14,3.06,3.6a8,8,0,0,1-.4,2.32,7.26,7.26,0,0,0,1.14.06c2.44,0,4.83-1.08,7.44-3.07.74-.56.85-.62,1-.62.4,0,.57.74.57,1.54a2.66,2.66,0,0,1-.51,1.81,14.59,14.59,0,0,1-9,3.41,7.94,7.94,0,0,1-2.05-.3c-2.21,3.35-6.18,6.19-10,6.19s-5.74-2.27-5.74-5.06c0-5.79,6.36-10.1,10.22-10.1.63,0,1,.39,1,1.2s-.45,1.42-1.59,1.93c-1.82.85-3.91,2.89-3.91,5.33a2.28,2.28,0,0,0,2.21,2.5C213.37,432.42,215,430.83,216.08,428.84Z"/><path class="cls-4" d="M223.42,429.36c0-.3.62-.8,1.93-1.77l1.87-1.36-.35-.45a3.52,3.52,0,0,1-.85-2.4,4.25,4.25,0,0,1,4.19-4.19c2,0,3.12,1,3.12,2.5a4.62,4.62,0,0,1-.28,1.47c1,.35,1.81.69,2.61,1A1.9,1.9,0,0,1,237,426c0,2-2.61,4.66-2.61,6.36,5.85-2.27,11.3-6.59,13.63-8.46a.66.66,0,0,1,.4-.17c.51,0,.79.9.79,1.82a2.19,2.19,0,0,1-.45,1.48c-3.75,3-13.69,9.42-17.21,9.42-1.42,0-2.21-.79-2.21-2.5,0-1.47,2-4,2.61-5.45-.9-.34-1.65-.56-2.33-.85a10.29,10.29,0,0,1-5,2C223.81,429.64,223.42,429.58,223.42,429.36Z"/><path class="cls-4" d="M241.54,429.36c0-.3.63-.8,1.94-1.77l1.87-1.36-.34-.45a3.52,3.52,0,0,1-.85-2.4,4.25,4.25,0,0,1,4.19-4.19c2.05,0,3.12,1,3.12,2.5a4.64,4.64,0,0,1-.3,1.47c1,.34,1.82.68,2.62,1a1.91,1.91,0,0,1,1.36,1.82c0,2-2.61,4.66-2.61,6.36,5.85-2.27,11.3-6.59,13.63-8.46a.61.61,0,0,1,.39-.17c.51,0,.8.9.8,1.82a2.17,2.17,0,0,1-.46,1.47c-3.74,3-13.68,9.43-17.2,9.43-1.42,0-2.22-.79-2.22-2.5,0-1.48,2-4,2.62-5.45-.9-.34-1.65-.57-2.33-.85a10.32,10.32,0,0,1-5,2C241.93,429.64,241.54,429.58,241.54,429.36Z"/><path class="cls-4" d="M274.12,428.18a14.87,14.87,0,0,1-.22,2.83,6.8,6.8,0,0,1-6.93,5.85c-2.78,0-4.6-1.2-4.6-3.18,0-1.7,1.87-2.95,3.69-2.95a3.3,3.3,0,0,1,2.9,1.53,10.47,10.47,0,0,0,.56-3.69,12.16,12.16,0,0,0-.4-3.29c-3.06,2.67-6.07,4.37-8.23,4.37-.85,0-1.3-.11-1.3-.4s.62-.9,1.93-1.82c6.36-4.54,9-7.66,9.82-7.66C272.76,419.76,274.12,424,274.12,428.18Z"/><path class="cls-4" d="M278.44,436.74A2.85,2.85,0,0,1,277,434c0-2,2.27-5.28,5.06-5.28a2.79,2.79,0,0,1,2.84,2.74v.16a6.1,6.1,0,0,1-1.09,2.95,28.1,28.1,0,0,1-8.11,7.89,1.5,1.5,0,0,1-.69.17,1.38,1.38,0,0,1-1.36-1.3,1.15,1.15,0,0,1,.51-.9A40.14,40.14,0,0,0,278.44,436.74Z"/><path class="cls-4" d="M328.07,417.94c-1.14,0-2.67-.85-2.67-1.53a.49.49,0,0,1,.28-.45c4.15-3,10-11.09,10-15.17,0-1.47-.8-2.39-2.62-2.39-11.24,0-23,16.86-23,27,0,4.37,2.15,7.48,7.49,7.48a21.94,21.94,0,0,0,8.17-2.15,3.74,3.74,0,0,1,1.54-.4c.62,0,.9.34.9.74,0,.57-.57,1.36-1.65,2-3.81,2.4-8.46,4-11.93,4-7.55,0-11.68-4-11.68-9.93,0-15.16,19.47-32.48,31.18-32.48,4.77,0,6.7,2.15,6.7,5.22,0,5.17-5.39,12.95-11.87,17.72A1.36,1.36,0,0,1,328.07,417.94Z"/><path class="cls-4" d="M373.09,393.13c1.71,0,3.13,2.61,3.13,4.26,0,.68-.23,1.2-.85,1.25a80.16,80.16,0,0,0-14.94,3.12c1.65.17,3.3.74,3.3,1.42a.46.46,0,0,1-.06.23c-4.43,7.44-11.52,21-15.5,33.16a.75.75,0,0,1-.68.62c-1.14,0-3.07-2.44-3.07-4.19,0-4.88,6.76-19.08,12.49-30.1a74.86,74.86,0,0,0-15.1,7,.83.83,0,0,1-.45.17c-.8,0-1.42-1.2-1.42-2.21a1.45,1.45,0,0,1,.51-1.2C347.6,401.31,364.24,393.13,373.09,393.13Z"/><path class="cls-1" d="M185.94,415.33c-1.2,0-2.84-.79-2.84-1.48a.54.54,0,0,1,.34-.45c3.92-2,8.35-8,8.35-11.76,0-1.93-1.14-3.23-4-3.23-8.35,0-16.18,7.27-16.18,13.23,0,7.61,13.4,9.43,13.4,16.35,0,4.6-4.82,8.86-11.81,8.86a14.72,14.72,0,0,1-7.95-2.27,1.43,1.43,0,0,1-.45-1.14c0-.79.4-1.64,1.08-1.64.34,0,.34.05,1.53.56a16.44,16.44,0,0,0,5.79,1.14c3.47,0,6-1.3,6-3.59,0-4.54-12.83-6.53-12.83-15.73,0-9.89,12.44-19.42,24.36-19.42,5.57,0,7.72,2.16,7.72,5.17,0,4.82-5.69,11.75-11.75,15.21A1.52,1.52,0,0,1,185.94,415.33Z"/><path class="cls-1" d="M194.12,421.12c1.07-2.09,2.27-4.19,3.35-6.13a2.4,2.4,0,0,1,2.15-1.08c1,0,3,.45,3,1.42a6,6,0,0,1-.69,1.82l-2,4h3.92c.45,0,.68.23.68.62,0,.9-1.14,2.51-2,2.51h-4.09a37.75,37.75,0,0,0-3,7.78c4.6-1.53,10.51-5.56,13.23-7.83a.86.86,0,0,1,.46-.17c.51,0,.79.73.79,1.59a2.29,2.29,0,0,1-.68,1.81c-7.44,5.34-14.31,9-18.17,9-1.42,0-2.21-.79-2.21-2.5,0-1.53,1.59-5.39,3.69-9.7h-4.09c-.57,0-.8-.23-.8-.63,0-.9,1.31-2.5,2.05-2.5Z"/><path class="cls-1" d="M216.08,428.84a5,5,0,0,1-1.47-3.57c0-2.56,1.7-3.6,3.18-3.6,1.81,0,3.06,1.14,3.06,3.6a8,8,0,0,1-.4,2.32,7.26,7.26,0,0,0,1.14.06c2.44,0,4.83-1.08,7.44-3.07.74-.56.85-.62,1-.62.4,0,.57.74.57,1.54a2.66,2.66,0,0,1-.51,1.81,14.59,14.59,0,0,1-9,3.41,7.94,7.94,0,0,1-2.05-.3c-2.21,3.35-6.18,6.19-10,6.19s-5.74-2.27-5.74-5.06c0-5.79,6.36-10.1,10.22-10.1.63,0,1,.39,1,1.2s-.45,1.42-1.59,1.93c-1.82.85-3.91,2.89-3.91,5.33a2.28,2.28,0,0,0,2.21,2.5C213.37,432.42,215,430.83,216.08,428.84Z"/><path class="cls-1" d="M223.42,429.36c0-.3.62-.8,1.93-1.77l1.87-1.36-.35-.45a3.52,3.52,0,0,1-.85-2.4,4.25,4.25,0,0,1,4.19-4.19c2,0,3.12,1,3.12,2.5a4.62,4.62,0,0,1-.28,1.47c1,.35,1.81.69,2.61,1A1.9,1.9,0,0,1,237,426c0,2-2.61,4.66-2.61,6.36,5.85-2.27,11.3-6.59,13.63-8.46a.66.66,0,0,1,.4-.17c.51,0,.79.9.79,1.82a2.19,2.19,0,0,1-.45,1.48c-3.75,3-13.69,9.42-17.21,9.42-1.42,0-2.21-.79-2.21-2.5,0-1.47,2-4,2.61-5.45-.9-.34-1.65-.56-2.33-.85a10.29,10.29,0,0,1-5,2C223.81,429.64,223.42,429.58,223.42,429.36Z"/><path class="cls-1" d="M241.54,429.36c0-.3.63-.8,1.94-1.77l1.87-1.36-.34-.45a3.52,3.52,0,0,1-.85-2.4,4.25,4.25,0,0,1,4.19-4.19c2.05,0,3.12,1,3.12,2.5a4.64,4.64,0,0,1-.3,1.47c1,.34,1.82.68,2.62,1a1.89,1.89,0,0,1,1.36,1.81c0,2-2.61,4.66-2.61,6.36,5.85-2.27,11.3-6.59,13.63-8.46a.61.61,0,0,1,.39-.17c.51,0,.8.9.8,1.82a2.17,2.17,0,0,1-.46,1.47c-3.74,3-13.68,9.43-17.2,9.43-1.42,0-2.22-.79-2.22-2.5,0-1.48,2-4,2.62-5.45-.9-.34-1.65-.57-2.33-.85a10.36,10.36,0,0,1-5,2C241.93,429.64,241.54,429.58,241.54,429.36Z"/><path class="cls-1" d="M274.12,428.18a14.87,14.87,0,0,1-.22,2.83,6.8,6.8,0,0,1-6.93,5.85c-2.78,0-4.6-1.2-4.6-3.18,0-1.7,1.87-2.95,3.69-2.95a3.32,3.32,0,0,1,2.9,1.53,10.47,10.47,0,0,0,.56-3.69,12.16,12.16,0,0,0-.4-3.29c-3.06,2.67-6.07,4.37-8.23,4.37-.85,0-1.3-.11-1.3-.4s.62-.9,1.93-1.82c6.36-4.54,9-7.66,9.82-7.66C272.76,419.76,274.12,424,274.12,428.18Z"/><path class="cls-1" d="M278.44,436.74A2.85,2.85,0,0,1,277,434c0-2,2.27-5.28,5.06-5.28a2.79,2.79,0,0,1,2.84,2.74v.16a6.1,6.1,0,0,1-1.09,2.95,28.1,28.1,0,0,1-8.11,7.89,1.5,1.5,0,0,1-.69.17,1.38,1.38,0,0,1-1.36-1.3,1.15,1.15,0,0,1,.51-.9A40.14,40.14,0,0,0,278.44,436.74Z"/><path class="cls-1" d="M328.07,417.94c-1.14,0-2.67-.85-2.67-1.53,0-.17.05-.28.28-.45,4.15-3,10-11.09,10-15.17,0-1.47-.8-2.39-2.62-2.39-11.24,0-23,16.86-23,27,0,4.37,2.15,7.48,7.49,7.48a21.94,21.94,0,0,0,8.17-2.15,3.74,3.74,0,0,1,1.54-.4c.62,0,.9.34.9.74,0,.57-.57,1.36-1.65,2-3.81,2.4-8.46,4-11.93,4-7.55,0-11.68-4-11.68-9.93,0-15.16,19.47-32.48,31.18-32.48,4.77,0,6.7,2.15,6.7,5.22,0,5.17-5.39,12.95-11.87,17.72A1.36,1.36,0,0,1,328.07,417.94Z"/><path class="cls-1" d="M373.09,393.13c1.71,0,3.13,2.61,3.13,4.26,0,.68-.23,1.2-.85,1.25a80.16,80.16,0,0,0-14.94,3.12c1.65.17,3.3.74,3.3,1.42a.46.46,0,0,1-.06.23c-4.43,7.44-11.52,21-15.5,33.16a.75.75,0,0,1-.68.62c-1.14,0-3.07-2.44-3.07-4.19,0-4.88,6.76-19.08,12.49-30.1a74.86,74.86,0,0,0-15.1,7,.83.83,0,0,1-.45.17c-.8,0-1.42-1.2-1.42-2.21a1.45,1.45,0,0,1,.51-1.2C347.6,401.31,364.24,393.13,373.09,393.13Z"/><path class="cls-5" d="M202.26,314.24a249.05,249.05,0,0,1-8.46-63.36,205.89,205.89,0,0,1,3.08-36.17c3.07-16.17,5.9-21,10-21a9,9,0,0,1,2.57.52c12.31,3.85,19.49,9.49,19.49,18.21a19.17,19.17,0,0,1-.51,3.85,254.31,254.31,0,0,0-4.88,50A234.2,234.2,0,0,0,224.84,293c34.88-34.63,61.56-68.75,78.75-95.41a3.27,3.27,0,0,1,2.82-1.8c5.39,0,13.6,12.31,13.6,20.52a7,7,0,0,1-1.29,4.62c-31.29,39.49-61.05,71-90.29,96.95a221.36,221.36,0,0,0,21,59.77,12.65,12.65,0,0,1,1.29,4.62c0,3.33-2.57,4.87-6.16,4.87-4.62,0-10.78-2.82-14.62-8.72a213.72,213.72,0,0,1-21.29-43.61,491.16,491.16,0,0,1-72.6,48.49,9.75,9.75,0,0,1-4.87,1c-4.11,0-8.47-1.8-8.47-4.87,0-1.8,1.54-4.11,5.65-6.93A667.66,667.66,0,0,0,202.26,314.24Z"/><path class="cls-5" d="M356.43,314.24A249.05,249.05,0,0,1,348,250.88,206.84,206.84,0,0,1,351,214.71c3.08-16.17,5.9-21,10-21a9,9,0,0,1,2.56.52c12.32,3.85,19.5,9.49,19.5,18.21a19.91,19.91,0,0,1-.51,3.85,254.31,254.31,0,0,0-4.88,50A236.49,236.49,0,0,0,379,293c34.89-34.63,61.57-68.75,78.76-95.41a3.26,3.26,0,0,1,2.82-1.8c5.39,0,13.59,12.31,13.59,20.52a7,7,0,0,1-1.28,4.62c-31.3,39.51-61.05,71.06-90.29,97a221.42,221.42,0,0,0,21,59.78,12.57,12.57,0,0,1,1.28,4.61c0,3.34-2.56,4.87-6.15,4.87-4.62,0-10.78-2.82-14.62-8.72a214,214,0,0,1-21.29-43.62,491.68,491.68,0,0,1-72.6,48.49,9.77,9.77,0,0,1-4.88,1c-4.1,0-8.46-1.8-8.46-4.87,0-1.8,1.54-4.11,5.64-6.93A666.86,666.86,0,0,0,356.43,314.24Z"/><path class="cls-6" d="M201.13,314a249.05,249.05,0,0,1-8.46-63.36,206.76,206.76,0,0,1,3.07-36.17c3.08-16.16,5.9-21,10-21a9,9,0,0,1,2.56.52c12.31,3.84,19.5,9.49,19.5,18.21a20.72,20.72,0,0,1-.51,3.85,254.31,254.31,0,0,0-4.88,50,236.49,236.49,0,0,0,1.28,26.68c34.89-34.63,61.58-68.75,78.76-95.43a3.26,3.26,0,0,1,2.82-1.8c5.39,0,13.59,12.32,13.59,20.53a7,7,0,0,1-1.28,4.61c-31.3,39.51-61,71.06-90.29,97a221.48,221.48,0,0,0,21,59.77,12.62,12.62,0,0,1,1.28,4.61c0,3.34-2.56,4.88-6.15,4.88-4.62,0-10.78-2.82-14.62-8.72a214.27,214.27,0,0,1-21.3-43.61A490.2,490.2,0,0,1,135,383a9.77,9.77,0,0,1-4.88,1c-4.1,0-8.46-1.8-8.46-4.88,0-1.79,1.54-4.1,5.64-6.92A666.86,666.86,0,0,0,201.13,314Z"/><path class="cls-6" d="M355.3,314a248.63,248.63,0,0,1-8.47-63.36,205.81,205.81,0,0,1,3.08-36.17c3.08-16.16,5.9-21,10-21a9,9,0,0,1,2.56.52c12.31,3.84,19.5,9.49,19.5,18.21a19.92,19.92,0,0,1-.52,3.85,254.34,254.34,0,0,0-4.87,50,234.17,234.17,0,0,0,1.28,26.68c34.89-34.63,61.57-68.75,78.75-95.43a3.27,3.27,0,0,1,2.83-1.8c5.39,0,13.59,12.32,13.59,20.53a7,7,0,0,1-1.28,4.61c-31.3,39.51-61.05,71.06-90.3,97a221.5,221.5,0,0,0,21,59.77,12.62,12.62,0,0,1,1.28,4.61c0,3.34-2.57,4.88-6.16,4.88-4.61,0-10.78-2.82-14.62-8.72a214.76,214.76,0,0,1-21.29-43.61A490.2,490.2,0,0,1,289.12,383a9.79,9.79,0,0,1-4.88,1c-4.1,0-8.46-1.8-8.46-4.88,0-1.79,1.54-4.1,5.64-6.92A667.8,667.8,0,0,0,355.3,314Z"/></g></svg>