<svg xmlns="http://www.w3.org/2000/svg" viewBox="0 0 576 576"><defs><style>.a{fill:#21235c;}.b{fill:#fcfafb;}.b,.c{stroke:#cd1531;stroke-width:6.16px;}.b,.c,.e,.f,.g,.h{stroke-miterlimit:10;}.c{fill:none;}.d{fill:#cd1531;}.e,.f,.i{fill:#fff;}.e,.h{stroke:#fcfafb;}.e{stroke-width:7.71px;}.f,.g{stroke:#fff;}.f{stroke-width:9.64px;}.g{fill:#232560;stroke-width:2.84px;}.h{fill:#292967;stroke-width:0.95px;}.i{font-size:35.41px;font-family:Kinescope, Kinescope;}.j{letter-spacing:-0.02em;}</style></defs><title>Logos</title><path class="a" d="M258,86.64c-5.62-1.83-11.12-4.5-16.88-5.28-7.87-1.07-13-5-16.59-12.08L236.1,79.61l.92-.67-1.11-3.7,8.7,5.33.8-1.12c-5.34-4.68-10.46-9.65-16.08-14C222.24,60,214.59,58.07,205.4,61c-7.75,2.5-15.58,4-20.1,11.85l-1.36-.84L189.26,61l-6.58,2.65c2.92-2.74,4.83-4.54,6.75-6.33l-.49-.9-4.82,2-.51-.6,7.09-6-4.21.37,6.74-5.58-6.31.69,2.52-5-.74-.7-8.65,7.93-1.18-3.15c-1.26,7.3-2.34,13.53-3.54,20.44-5.56-11.08-14.26-16.91-26.81-19.65L159.1,54.5l-8.36-1.28L161.05,60l-3,.89,7.46,3.27c-.07.26-.15.52-.22.77l-4.21-.3c5.59,6.67,11.12,13.11,16.41,19.73.89,1.13.8,3,1.14,4.59l.16.2L177.6,89c-4.68,0-9.36.12-14,.18l-.14.1a.19.19,0,0,1,0-.07l-19.87,5.08c-7.69,4.35-14,11.48-23.88,11.79L122,97.73c.22,1.73.37,2.89.67,5.23.57-2.06.81-2.95,1.16-4.2.42,1.45.74,2.56,1.07,3.67l1,0L128.27,90l1.11.17c-.29,3.59-.57,7.19-.93,11.71l3.36-7.23.55,2.57c6.75-.36,7.62-5.84,9.72-10.45-.6,2.54-1.2,5.08-2,8.42l4.72-5.29c-.6,2-.95,3.2-1.29,4.36l9.6-5.55c.09.23.19.45.28.68l6.41-2.59c0,.38.08,1.13.16,2.34l4.69-4.26c-.55,1.9-.9,3.11-1.23,4.31l.09,0h0l3.77-2.61-.21,1L177.6,89l1,0a0,0,0,0,0,0,0c-6.71-8.39-13.45-16.75-20.12-25.17a16.8,16.8,0,0,0-12.23-6.41c-5.15-.47-10.31-.92-15.81-1.4L135,58.89l-3.75.78.06.57,5.43.57-2.38,2.12,4.81,1.52,4.71,1.46-2.37,1.28h11c0,.24,0,.48,0,.72-1.32.24-2.64.47-4,.72,0,.17,0,.34,0,.52l5,.6c0,.28,0,.57.06.85L142,72.45c-.07.39-.14.77-.22,1.15l18.72,3.48-3.84,2.75a54.39,54.39,0,0,0-28.94-.31L132.92,81l-10.63,1.27c0,.51,0,1,0,1.53l1.92.69c-2.08,1.17-5,1.79-5.66,3.38-1.89,4.38-5.56,4.94-9.25,6.54-2.19.94-3.36,4.62-4.63,7.25-1.66,3.43-3,7-5.1,10.45V97.78c1.15-1.37,3.35-3.94.56-7.77-.61-.84.81-3.14,1.7-6.13L97.43,89c-.35-.56-.69-1.08-1.17-1.83-.53,1.7-1,3.18-1.53,5-.6-.83-1-1.3-1.26-1.74-3.24,3.24,1.54,9.44-4.47,12,2.29,7.42,4.64,15,7.44,24.06-6.06-13.11-16.14-19.34-27.63-23.78-.4.37-.79.73-1.2,1.09l5.12,7-.77.09,9,6.92H67l2,1.75c-1.32,0-2.55-.37-3.37,0A119.87,119.87,0,0,0,48,130.36l10.13-3.6c-2.29,2.72-4,4.74-5.68,6.75l.6.84L68,124.43c-1.49,2.49-2.8,4.65-4.1,6.82.24.19.47.39.72.58l3-1.79L54.8,146.72l.67,1,1.5-.29c-.18,3.45-.37,7-.56,10.61l1.08.91c.17-.81.33-1.61.5-2.42l.8.3c.28,1.5.56,3,1,5.12,1.21-3.57,2.23-6.61,3.19-9.49.45,1.32,1,2.94,1.8,5.26.68-3.34,1.2-5.89,1.85-9.1l2.51,3.3-.89-8.65.67-.23c.81,2.09,1.62,4.17,2.5,6.41.73-2.54,1.42-4.92,2.17-7.48l.86,1.45c2-2.58,4-5.19,6.23-8,.24,1.18.46,2.2.8,3.8,1.32-1.46,2.29-2.53,3.29-3.62.22.77.43,1.46.68,2.29l2.85-3.45.94.68c-.87,1.23-1.49,2.8-2.66,3.62a58.24,58.24,0,0,0-20.65,25.06c-1.66,3.93-1.85,8.53-2.32,12.87-.1.94,1.49,2.06,2.37,3.19.16-1.49.35-3.2.6-5.57.56,1.14.81,1.65,1.49,3.06.15-2.69.26-4.52.36-6.36l.54,0,.57,5.05.54.07c.18-1.62.36-3.23.59-5.25l2.8,1.73c-.48-2.26-.84-4-1.35-6.4l4.55,2.91c.53-2.57,1.1-5.28,1.76-8.46L80.61,163c.87-3.9,1.71-7.62,2.57-11.43l3.42,7.63h3.32c-.92,2.3-1.73,4.37-2.59,6.53l5.54-1.06c-.81,3.43-1.54,6.51-2.26,9.59l1.14.43L93.4,172c.12.25.34.49.33.73-.17,4.38,4.44,5.81,6,9.28-.17-2.31-1-4.82-.27-6.83.41-1.18,3.17-1.55,4.84-2.27l-7.74-8.16.85-.92,5.87,5.47c-.14-1.45-.21-2.24-.3-3.18l2,1.17.59-.39c-1.76-2.58-3.52-5.15-5.42-7.95l3,1-3.41-5.11,4.83,2.38,1-.75c-1.51-3.25-3-6.51-4.74-10.24l3.26,2.67.5-.29-4-6.59c7.9.67,9.14,7.67,11.64,12.33a247.57,247.57,0,0,1,15,33.47c4.65,13,8.26,26.46,12,39.8h5.6q-1.89-5.62-3.73-11.28c-6.72-20.64-11.64-42-24.1-60.35-.92-1.37-.54-3.62-.77-5.46l.79-.06,2.08,5.43c.26-2.63.43-4.33.6-6l.38,0c.16,2.32.31,4.64.47,7l.71,0c.21-1.39.42-2.77.51-3.39.47,2.24,1.1,5.19,1.94,9.15l2-5.12c.72,1.7,1.21,3.07,1.86,4.36.57,1.1,1.34,2.11,2.18,3.42l1-2.66c.63,3.65,6.46,8.93,10.28,9.39-2-13.15-9.46-22.4-20.51-30.54,7.93.69,13.63,4.22,19.29,8.42-.25-1.57-.47-2.91-.61-3.77l7.83,6.18c-1.74-7.94-6.11-13-11.29-17.52a9.09,9.09,0,0,1-1.49-2.63,15,15,0,0,1,3-.56,14.34,14.34,0,0,1,3.13.79l-1-3.58,6.56,1.55-2.35-4.18c.19-.47.37-.93.56-1.38L157.6,127c-1,3-2,6-3,9l1.15.48q2.46-4.4,4.91-8.79l.53.23Q159.73,135,158.29,142l.88.34,2.64-3.75c-.36,5.32-.63,9.42-.91,13.52.4,0,.81.06,1.22.09.69-1.69,1.37-3.39,2.06-5.09l.56.16q-.53,6.9-1.06,13.81l.9.18,2.23-4,5.32,14.15,1.45-.35-1-9.89.77-.08q.87,2.24,1.75,4.48l1.66-.47c-1.56-6.83-3.14-13.67-4.73-20.6l3.65,3.84-2.94-8.17.75-.32,6.44,5.95.68-.53-5-10.94,3.35.52L174.52,129l.74-.51,3.77,3.25.55-.42-3.81-7.44.44-.24,6.65,7.54.78-.62-5.07-9.63.53-.32,4.81,4.24.5-.42L179,116c2.39,1.89,3.7,2.91,5,4l.5-.49q-3.53-5.59-7-11.18l1.23-.83c2.19,2.93,5.6,5.58,6.35,8.84a236,236,0,0,1,4.26,27.14,275.43,275.43,0,0,1-1,64.29,173.06,173.06,0,0,1-3.44,19.88h9.89c5.38-35.76,2.45-71.71-3.29-107.83a77.7,77.7,0,0,0,3.7,7.42c1.15,1.83,2.84,3.32,4.78,5.52.28-2.49.48-4.34.74-6.62.7,3.41,1.32,6.41,1.94,9.41l.74-.06v-8.33c.15,0,.3-.06.45-.09,1,3.33,1.86,6.68,2.94,10a35.4,35.4,0,0,0,4.26,9.29q-1.35-6.92-2.69-13.84l.72-.23c1.06,3.76,2.13,7.51,3.49,12.32.4-2.29.61-3.55,1-5.62,1.3,4.93,2.42,9.16,3.53,13.39H218c.15-2.12.31-4.25.58-7.86l4.32,11.38,1.08-.25q-1.09-5.75-2.2-11.47l.53-.2q1.39,3.13,2.8,6.25l1.16-.41-4.44-12.46,4.49,3.77.74-.42-11.7-23.67,1.77.72.49-.66-11.26-7.76.27-.73,6.43,2.83.46-.77-15-10.11,3.25-.43-4.61-6.3,8,4.65-2.94-4.24,10.34,3.21-1.35-3.88,7.87,5.15.73-.66-5.69-6.42c4,1.4,7.41,5.34,12.14,1.47l-9.11-7.24.59-.88L234.64,96l.74-.86-9.33-8.35.33-.59q6.68,3.9,13.33,7.82l.79-1-9.06-7.13.32-.61,14.27,8,.54-.79-4.82-3.74c.08-.24.17-.48.26-.73l10.61,2.33-3.54-3.18,8.7.56C257.85,87.31,257.92,87,258,86.64Zm-95.91,20.53c-.71,2.32-2.2,4.42-3.46,6.55s-2.55,4-3.84,6l.72.35,4.73-3L155.39,126c-1.08-1.38-1.78-3.23-2.86-3.49-5.15-1.24-4.56-5.12-4.51-8.83,0-.2.26-.4.38-.58.59,1.36,1.11,2.58,1.64,3.79l.67-.22q-.42-4.93-.83-9.89l.65-.08c.35,1.5.7,3,1.33,5.75.51-3,.78-4.5,1.26-7.24l1,3.77.6-.13c.15-2.55.29-5.11.43-7.66H156l1.14,7.4c.7-2.31,1.14-3.75,1.72-5.61l1.91,3.3c.32-2.56.53-4.31.74-6h1.17C162.53,102.54,162.75,105,162.09,107.17Z"/><path class="a" d="M535.23,143.8A118.44,118.44,0,0,0,517.65,133c-.82-.43-2-.06-3.37-.06l2-1.75H502.29l9-6.92c-.25,0-.51-.05-.76-.09l5.11-7-1.2-1.09c-11.49,4.43-21.57,10.66-27.63,23.78,2.8-9.05,5.15-16.65,7.45-24.07-6-2.54-1.23-8.74-4.47-12l-1.27,1.74c-.55-1.82-1-3.29-1.52-5l-1.18,1.83-4.37-5.06c.89,3,2.3,5.29,1.69,6.12-2.79,3.84-.59,6.4.56,7.77v14.32c-2.12-3.41-3.43-7-5.1-10.45-1.27-2.62-2.44-6.31-4.63-7.25-3.68-1.6-7.36-2.15-9.24-6.54-.68-1.58-3.59-2.21-5.66-3.38l1.91-.69c0-.51,0-1,0-1.53l-10.62-1.26L455.53,93a54.42,54.42,0,0,0-28.95.32l-3.84-2.76L441.46,87c-.07-.38-.15-.76-.22-1.15L429.49,84l.06-.85,5-.6c0-.18,0-.35.05-.52l-3.95-.72,0-.72h11l-2.36-1.28L444,77.9l4.81-1.53-2.38-2.11,5.43-.58c0-.19,0-.38.07-.57l-3.75-.78,4.59-3L437,70.79a16.8,16.8,0,0,0-12.23,6.41c-6.67,8.43-13.41,16.79-20.12,25.18a0,0,0,0,1,0,0l1,0,10.46-1.4-.21-1,3.77,2.6h0l.08,0c-.33-1.19-.68-2.41-1.23-4.31l4.69,4.26c.08-1.21.14-2,.17-2.34l6.4,2.59c.1-.22.19-.45.28-.67l9.6,5.54c-.34-1.16-.68-2.33-1.28-4.36l4.72,5.29-2-8.42c2.11,4.61,3,10.09,9.72,10.45.05-.23.23-1.06.55-2.57l3.36,7.23c-.36-4.52-.64-8.11-.92-11.7l1.1-.18,2.31,12.47,1,0c.32-1.11.64-2.22,1.07-3.67l1.15,4.2c.3-2.33.45-3.5.67-5.23.89,3.16,1.62,5.73,2.35,8.34-9.9-.32-16.2-7.45-23.89-11.8l-19.87-5.08,0,.07-.15-.1-14-.18-1.17.15.15-.19c.35-1.54.25-3.47,1.14-4.59,5.3-6.63,10.83-13.07,16.41-19.74l-4.2.3c-.08-.25-.15-.51-.23-.76l7.47-3.27-3-.9,10.32-6.76-8.36,1.28,10.58-7.34c-12.56,2.74-21.25,8.57-26.82,19.65-1.19-6.91-2.27-13.14-3.54-20.44L403.18,63,394.53,55l-.74.7c.82,1.63,1.64,3.26,2.53,5L390,60.06l6.73,5.59-4.21-.38c2.76,2.32,4.93,4.13,7.09,6l-.51.59-4.81-2-.5.88,6.75,6.34L394,74.42c2,4.08,3.64,7.58,5.31,11.08l-1.36.84c-4.52-7.82-12.35-9.36-20.09-11.86-9.2-3-16.85-1-23.94,4.45-5.62,4.31-10.73,9.28-16.08,14l.81,1.13,8.7-5.34c-.43,1.42-.77,2.56-1.11,3.7l.92.68c3.8-3.41,7.61-6.81,11.57-10.34-3.56,7.09-8.73,11-16.59,12.08-5.76.78-11.27,3.45-16.88,5.28l.22,1,8.7-.56-3.54,3.18,10.6-2.32.27.72-4.82,3.75c.17.26.35.51.53.77l14.28-8,.32.6-9.07,7.13.79,1,13.33-7.82c.11.2.23.39.33.59l-9.32,8.35c.24.29.48.58.73.86l16.82-11.11c.2.29.4.58.59.88l-9.1,7.24c4.72,3.88,8.11-.07,12.13-1.47l-5.69,6.42.74.67,7.86-5.16c-.55,1.58-.95,2.75-1.35,3.88l10.35-3.2c-.77,1.09-1.47,2.11-2.95,4.23l8-4.64-4.6,6.29,3.24.43c-5.23,3.53-10.1,6.83-15,10.11l.46.77,6.43-2.83.27.73-11.26,7.76.49.66,1.77-.72C364.07,138,360.11,146,356.15,154l.75.42,4.48-3.77c-1.54,4.32-3,8.39-4.43,12.46l1.16.42c.93-2.09,1.86-4.17,2.8-6.26l.53.2q-1.11,5.73-2.21,11.47l1.08.25c1.28-3.35,2.55-6.7,4.33-11.38.26,3.62.42,5.74.58,7.86h1.07c1.12-4.23,2.23-8.45,3.53-13.39l1,5.63c1.36-4.82,2.42-8.57,3.49-12.33l.72.23-2.7,13.84a35.7,35.7,0,0,0,4.27-9.28c1.07-3.3,2-6.65,2.94-10l.44.1v8.32l.74.06c.62-3,1.24-6,1.94-9.4.26,2.27.47,4.12.75,6.61,1.93-2.2,3.62-3.69,4.77-5.52a80.2,80.2,0,0,0,3.71-7.42c-5.89,37-8.82,73.88-2.87,110.53h10.16A161.56,161.56,0,0,1,395,221.13a275.41,275.41,0,0,1-1-64.29,237.71,237.71,0,0,1,4.26-27.13c.75-3.27,4.16-5.92,6.36-8.85l1.22.83-7,11.18.49.49,5-3.94-5.44,8.45.5.42,4.81-4.24.53.32q-2.55,4.81-5.08,9.63l.79.62,6.64-7.53.45.23-3.82,7.44.55.42,3.77-3.25.74.51-4.46,5.86,3.35-.52-5,10.94.67.53,6.45-5.95.74.33c-.86,2.38-1.72,4.77-2.93,8.16l3.64-3.83-4.73,20.59,1.67.47,1.74-4.48.77.08c-.33,3.3-.67,6.59-1,9.89l1.45.36,5.31-14.16c.62,1.1,1.42,2.56,2.23,4l.9-.19-1.05-13.81.55-.16,2.07,5.1,1.21-.09c-.27-4.11-.55-8.21-.91-13.53l2.65,3.75.88-.34q-1.45-7.07-2.89-14.12l.52-.23q2.46,4.4,4.91,8.79l1.16-.48-3-9L439,138.22l.56,1.38c-.58,1-1.16,2.08-2.35,4.18l6.57-1.55c-.25.86-.56,2-1,3.58a14.27,14.27,0,0,1,3.14-.79,15.31,15.31,0,0,1,3,.56,9.44,9.44,0,0,1-1.49,2.63c-5.19,4.53-9.55,9.58-11.3,17.52l7.83-6.17c-.14.85-.35,2.19-.61,3.77,5.66-4.21,11.36-7.74,19.29-8.42-11,8.13-18.53,17.38-20.5,30.53,3.81-.46,9.64-5.74,10.27-9.39l1,2.66a39.89,39.89,0,0,0,2.18-3.42c.66-1.28,1.14-2.66,1.86-4.36l2,5.12c.85-4,1.47-6.91,1.95-9.15.09.62.29,2,.5,3.4l.71,0q.24-3.48.47-7l.39,0c.17,1.7.33,3.4.6,6,.89-2.34,1.49-3.88,2.08-5.43l.78.06c-.23,1.84.16,4.1-.77,5.46-12.45,18.37-17.38,39.71-24.1,60.35q-2.28,7-4.63,14h5.73c4.08-14.22,7.86-28.57,12.82-42.5a245.71,245.71,0,0,1,15-33.46c2.49-4.67,3.73-11.67,11.63-12.33l-4,6.58.49.29,3.27-2.67-4.74,10.24,1,.75,4.83-2.38L480,173.34l3-1-5.43,7.95c.2.13.4.26.59.4l2-1.18c-.09.94-.17,1.73-.3,3.18l5.86-5.47.86.92c-2.65,2.79-5.29,5.58-7.75,8.16,1.67.72,4.44,1.09,4.84,2.27.69,2-.1,4.53-.26,6.83,1.6-3.47,6.22-4.89,6-9.28,0-.24.21-.48.33-.73l1.66,2.76,1.13-.44c-.72-3.08-1.44-6.16-2.25-9.59l5.54,1.06-2.59-6.53h3.32c1.23-2.76,2.42-5.42,3.42-7.63.85,3.81,1.69,7.54,2.57,11.43l2.22-2.41c.66,3.18,1.23,5.9,1.76,8.46l4.55-2.91c-.51,2.41-.87,4.14-1.35,6.4l2.8-1.73c.23,2,.41,3.63.6,5.25l.53-.06.57-5.06.54,0c.1,1.83.21,3.67.36,6.35.69-1.41.94-1.91,1.49-3.05.25,2.36.44,4.07.6,5.56.88-1.13,2.48-2.25,2.37-3.19-.46-4.34-.66-8.94-2.31-12.87C513,167,505.88,158.7,496.7,152.2c-1.16-.82-1.78-2.39-2.66-3.62l.95-.68,2.85,3.45c.24-.82.45-1.52.68-2.29,1,1.1,2,2.16,3.29,3.62.34-1.6.55-2.62.79-3.8l6.24,8,.86-1.45c.74,2.56,1.43,4.94,2.17,7.48.87-2.24,1.68-4.32,2.5-6.41l.66.23c-.28,2.72-.55,5.45-.88,8.65l2.5-3.3c.66,3.22,1.18,5.77,1.85,9.1.8-2.32,1.35-3.94,1.8-5.25,1,2.87,2,5.91,3.19,9.48.39-2.12.67-3.62,1-5.12l.81-.3c.16.81.33,1.61.49,2.42l1.09-.91c-.2-3.58-.39-7.16-.57-10.61l1.5.29c.23-.32.45-.65.67-1l-12.79-16.69,3,1.79.72-.58-4.11-6.81,14.91,9.91.6-.84-5.67-6.75ZM430.7,135.94c-1.08.26-1.77,2.11-2.86,3.49L423,130.5l4.74,3,.71-.36c-1.28-2-2.63-3.94-3.84-6a31.87,31.87,0,0,1-3.45-6.55c-.67-2.18-.45-4.63-.62-7h1.17c.21,1.75.43,3.49.74,6,.81-1.38,1.21-2.09,1.92-3.3l1.72,5.61,1.14-7.4h.85c.14,2.55.29,5.11.43,7.66l.61.13,1-3.77c.47,2.74.74,4.29,1.25,7.24l1.34-5.75.64.08q-.41,5-.82,9.9l.66.21c.53-1.21,1.05-2.43,1.64-3.79.12.18.38.38.38.58C435.26,130.83,435.86,134.7,430.7,135.94Z"/><polygon class="b" points="295.55 538.63 392.17 370.14 488.8 201.66 294.57 202.22 100.34 202.78 197.95 370.71 295.55 538.63"/><polygon class="c" points="295.7 498.54 374.84 360.54 453.98 222.54 294.9 223 135.82 223.46 215.76 361 295.7 498.54"/><rect class="d" x="146.94" y="238.47" width="294.31" height="6.27"/><rect class="d" x="159.02" y="259.13" width="274" height="6.27"/><rect class="d" x="171.27" y="279.79" width="247.76" height="6.27"/><rect class="d" x="181.1" y="300.45" width="227.18" height="6.27"/><rect class="d" x="194.4" y="321.11" width="202.22" height="6.27"/><rect class="d" x="205.67" y="341.77" width="179.86" height="6.27"/><rect class="d" x="218.75" y="362.43" width="152.96" height="6.27"/><rect class="d" x="229.92" y="383.09" width="130.3" height="6.27"/><rect class="d" x="242.43" y="403.75" width="106.62" height="6.27"/><rect class="d" x="254.44" y="424.41" width="81.78" height="6.27"/><rect class="d" x="266.45" y="445.08" width="58.77" height="6.27"/><rect class="d" x="278.4" y="465.74" width="34.16" height="6.27"/><path class="e" d="M394.21,428.41c0,3.08-1.14,5.59-3.76,10.83-3.65,7.41-2.28,8.77-3,11-.57,1.71-5.24,4.33-9,4.33-1.59,0-4-1.25-4-4.67a21.87,21.87,0,0,1,1.82-6.9c-11,7.2-20.56,11.91-26.65,11.91-2.85,0-4.44-1.59-4.44-5s3.07-9.22,4.21-12.3c-8.54,5.7-19.47,17.77-22.66,17.77-1.94,0-4.33-2.05-4.33-4,0-1.19,1.19-4.39,3-8.57-9.53,6-24.27,13.59-34.69,13.59-15.15,0-23.46-8-23.46-19.94,0-30.41,39.07-65.16,62.54-65.16,9.56,0,13.44,4.33,13.44,10.48,0,10.37-10.82,26-23.81,35.54a2.76,2.76,0,0,1-1.71.46c-2.28,0-5.35-1.71-5.35-3.08,0-.33.11-.56.57-.9,8.31-5.93,20-22.22,20-30.43,0-3-1.59-4.77-5.24-4.77-22.56,0-46.14,33.83-46.14,54.22,0,8.77,4.33,15,15,15,11.76,0,27-9.81,32.84-13.92,3.63-7.59,7.88-15.9,10.79-21.28,12.87-23.59,23.81-39.65,27-39.65,2.17,0,3.53,3.42,3.53,5.81,0,6.83-17.66,36.56-28.25,50.12-2.06,3.65-4.68,9.8-6.5,13.22,8.43-8.43,19-17,23.36-17a5.11,5.11,0,0,1,4.67,4.56c0,5-4.21,10.6-5.7,16.3,8.45-2.86,17.13-9.12,22.37-13a40.85,40.85,0,0,1,3-5.67,4.94,4.94,0,0,1,4.33-2.17C390.33,425.22,394.21,426.13,394.21,428.41Z"/><path class="e" d="M404.69,406.09c0,5.13-5.47,10.81-10.25,10.81-3.31,0-5.59-2.27-5.59-6,0-4,4.56-10.59,10.14-10.59A5.6,5.6,0,0,1,404.69,406.09Z"/><path class="f" d="M322.55,333.17c0,5.35-2,9.72-6.55,18.84-6.35,12.9-4,15.28-5.16,19.25-1,3-9.13,7.54-15.68,7.54-2.78,0-6.93-2.18-6.93-8.14,0-3.11,1.45-7.67,3.15-12C272.16,371.2,255.57,379.4,245,379.4c-5,0-7.74-2.78-7.74-8.74,0-5.75,5.35-16.07,7.34-21.43-14.89,9.92-33.93,30.95-39.48,30.95-3.38,0-7.54-3.56-7.54-6.94,0-2.08,2.07-7.66,5.24-14.94C186.22,368.77,160.53,382,142.41,382c-26.39,0-40.87-13.89-40.87-34.72,0-53,68.05-113.48,108.92-113.48,16.66,0,23.41,7.54,23.41,18.25,0,18.06-18.85,45.24-41.47,61.9a4.84,4.84,0,0,1-3,.79c-4,0-9.32-3-9.32-5.35,0-.59.2-1,1-1.59,14.47-10.32,34.91-38.69,34.91-53,0-5.16-2.77-8.34-9.12-8.34-39.29,0-80.36,58.93-80.36,94.45,0,15.27,7.54,26.18,26.2,26.18,20.46,0,46.89-17,57.16-24.21,6.33-13.23,13.74-27.72,18.81-37.09,22.43-41.07,41.47-69,47-69,3.77,0,6.15,5.94,6.15,10.11,0,11.91-30.75,63.69-49.21,87.3-3.57,6.35-8.14,17.06-11.3,23,14.68-14.68,33.13-29.56,40.66-29.56,3.77,0,8.14,4,8.14,7.94,0,8.73-7.34,18.44-9.92,28.37,14.69-5,29.83-15.88,38.95-22.67a72.42,72.42,0,0,1,5.29-9.87,8.63,8.63,0,0,1,7.54-3.77C315.8,327.61,322.55,329.2,322.55,333.17Z"/><path class="f" d="M330.87,284.16c-9.71,0-17.65,11.51-17.65,18.45,0,6.55,4,10.51,9.73,10.51,8.32,0,17.85-9.91,17.85-18.84A9.76,9.76,0,0,0,330.87,284.16Z"/><path class="g" d="M321.19,333.17c0,5.35-2,9.72-6.54,18.84-6.35,12.9-4,15.28-5.16,19.25-1,3-9.13,7.54-15.68,7.54-2.78,0-6.94-2.18-6.94-8.14,0-3.11,1.45-7.67,3.16-12-19.22,12.57-35.82,20.77-46.4,20.77-5,0-7.74-2.78-7.74-8.74,0-5.75,5.35-16.07,7.34-21.43-14.89,9.92-33.93,30.95-39.48,30.95-3.38,0-7.54-3.56-7.54-6.94,0-2.08,2.07-7.66,5.24-14.94C184.86,368.77,159.18,382,141.06,382c-26.4,0-40.87-13.89-40.87-34.72,0-53,68.05-113.48,108.92-113.48,16.66,0,23.41,7.54,23.41,18.25,0,18.06-18.86,45.24-41.47,61.9a4.84,4.84,0,0,1-3,.79c-4,0-9.33-3-9.33-5.35,0-.59.2-1,1-1.59,14.48-10.32,34.91-38.69,34.91-53,0-5.16-2.76-8.34-9.11-8.34-39.29,0-80.36,58.93-80.36,94.45,0,15.27,7.54,26.18,26.19,26.18,20.47,0,46.9-17,57.17-24.21,6.32-13.23,13.74-27.72,18.81-37.09,22.42-41.07,41.47-69,47-69,3.77,0,6.15,5.94,6.15,10.11,0,11.91-30.76,63.69-49.21,87.3-3.57,6.35-8.14,17.06-11.31,23,14.69-14.68,33.13-29.56,40.67-29.56,3.77,0,8.14,4,8.14,7.94,0,8.73-7.34,18.44-9.92,28.37,14.69-5,29.82-15.88,39-22.67a72.42,72.42,0,0,1,5.29-9.87,8.63,8.63,0,0,1,7.54-3.77C314.45,327.61,321.19,329.2,321.19,333.17Z"/><path class="g" d="M329.52,284.16c-9.72,0-17.65,11.51-17.65,18.45,0,6.55,4,10.51,9.72,10.51,8.33,0,17.86-9.91,17.86-18.84A9.76,9.76,0,0,0,329.52,284.16Z"/><path class="h" d="M394.21,428.41c0,3.08-1.14,5.59-3.76,10.83-3.65,7.41-2.28,8.77-3,11-.57,1.71-5.24,4.33-9,4.33-1.59,0-4-1.25-4-4.67a21.87,21.87,0,0,1,1.82-6.9c-11,7.2-20.56,11.91-26.65,11.91-2.85,0-4.44-1.59-4.44-5s3.07-9.22,4.21-12.3c-8.54,5.7-19.47,17.77-22.66,17.77-1.94,0-4.33-2.05-4.33-4,0-1.19,1.19-4.39,3-8.57-9.53,6-24.27,13.59-34.69,13.59-15.15,0-23.46-8-23.46-19.94,0-30.41,39.07-65.16,62.54-65.16,9.56,0,13.44,4.33,13.44,10.48,0,10.37-10.82,26-23.81,35.54a2.76,2.76,0,0,1-1.71.46c-2.28,0-5.35-1.71-5.35-3.08,0-.33.11-.56.57-.9,8.31-5.93,20-22.22,20-30.43,0-3-1.59-4.77-5.24-4.77-22.56,0-46.14,33.83-46.14,54.22,0,8.77,4.33,15,15,15,11.76,0,27-9.81,32.84-13.92,3.63-7.59,7.88-15.9,10.79-21.28,12.87-23.59,23.81-39.65,27-39.65,2.17,0,3.53,3.42,3.53,5.81,0,6.83-17.66,36.56-28.25,50.12-2.06,3.65-4.68,9.8-6.5,13.22,8.43-8.43,19-17,23.36-17a5.11,5.11,0,0,1,4.67,4.56c0,5-4.21,10.6-5.7,16.3,8.45-2.86,17.13-9.12,22.37-13a40.85,40.85,0,0,1,3-5.67,4.94,4.94,0,0,1,4.33-2.17C390.33,425.22,394.21,426.13,394.21,428.41Z"/><path class="h" d="M404.69,406.09c0,5.13-5.47,10.81-10.25,10.81-3.31,0-5.59-2.27-5.59-6,0-4,4.56-10.59,10.14-10.59A5.6,5.6,0,0,1,404.69,406.09Z"/><text class="i" transform="translate(200 195.2)">Fall <tspan class="j" x="55.85" y="0">R</tspan><tspan x="73.77" y="0">ush 2018</tspan></text></svg>