<svg xmlns="http://www.w3.org/2000/svg" viewBox="0 0 576 576"><defs><style>.a{fill:#cd1531;}.b{font-size:96.69px;fill:#21235c;font-family:Kinescope, Kinescope;}.c{fill:#fff;stroke:#fff;stroke-miterlimit:10;stroke-width:18.42px;}.d{fill:#232560;}</style></defs><title>Logos</title><rect class="a" x="99.77" y="373.51" width="375.31" height="51.77" rx="12" ry="12"/><path class="a" d="M119.28,167.55a10.23,10.23,0,0,0-1.77,2.2c-1.62-1.68-4.19-2.56-8-2l-.16-.06c1-1.74,1.65-2.66,1.65-2.66Z"/><path class="a" d="M38.74,208.31a13.08,13.08,0,0,1-2.06,4.58C33.25,209,29.9,200.05,27,194.15c-2.8-7.19-6.85-15.67-4.58-23.32-1.82,7.46,2.06,15.63,4.77,22.6,2.92,5.9,6.26,14.88,9.69,18.74A12.64,12.64,0,0,0,38.74,208.31Z"/><path class="a" d="M40.18,125.46c0,.17,0,.34,0,.51-2.22,2.39-4.13,6.11-7.56,3.22-1.94-1.91-2.72-5.63-3.26-8.43.28-4.23-.65-8.72.57-12.74-.92,3.83-.11,8-.38,12,.55,2.8,1.32,6.53,3.27,8.43C36.14,131.28,38,127.85,40.18,125.46Z"/><path class="a" d="M42.8,189.07c-.83,3-1.58,5.44-2.82,5.23l-6.61-7.71s0,0,0,0c-.74-1.13-1.47-2.28-2.14-3.43l9,10.47C41.31,193.77,42,191.74,42.8,189.07Z"/><path class="a" d="M47.25,179.26c-2,1.55-3.16,5.24-4.1,8.57.9-3.25,2-7,3.84-8.89Z"/><path class="a" d="M62.79,105.75c-1.43,6.63-11.83,4.77-15.7,10.33-2.45,2.3-4.9-4.29-4.84-6.77-.32-2,1-8.43-1.49-6.68,0-.2,0-.39,0-.58,2.78-2.19,1.35,4.53,1.67,6.54,0,2.48,2.4,9.08,4.84,6.78C51,110,60.79,111.53,62.79,105.75Z"/><path class="a" d="M66.4,165.1c-8.07-.85-11.78,8.16-18.13,8.74-2.88.18-5.12-2-7.56-3.45h0c-.39-.48-.77-.95-1.17-1.42,3,1.28,5.53,4.37,8.94,4.16,6.06-.56,9.72-8.8,17-8.8h0C65.82,164.59,66.1,164.85,66.4,165.1Z"/><path class="a" d="M69.38,226.53c-.38,2.41-2.54,2.36-5.58,1.1a18.14,18.14,0,0,0-3.15-1.24c-1-1.19.17-.93,3.35.52C66.7,228,68.7,228.2,69.38,226.53Z"/><path class="a" d="M71.29,213.73c-1.11,6.06-11.57.51-14.43-3.21a2.35,2.35,0,0,1,.16-.75C59.72,213.33,69.48,218.62,71.29,213.73Z"/><path class="a" d="M71,251.7A28.59,28.59,0,0,1,60.21,243c-4.59-5-9.46-9.71-12.27-16-2.29-3.62-.7-8.29-1.27-12.38.09-5.52-.55-11.25,0-16.64l.16-.26c-.49,5.26.12,10.82,0,16.18.58,4.09-1,8.77,1.27,12.39,2.81,6.26,7.69,11,12.27,16a28.78,28.78,0,0,0,10.37,8.54h0Z"/><path class="a" d="M80.14,197.16l-7.08,11.66-7.55-2.63h0a18.75,18.75,0,0,1-1.82-1.42l9.58,3.33L80,197Z"/><path class="a" d="M84.91,160.64l-1.16.61h0c-4.54-.43-9.23.13-13.63-.16-5.09-2.77-9.83-6.48-15.15-8.66a10.21,10.21,0,0,0-2.39-.56c-.6-.77-.21-1.05,2.58-.16,5.32,2.19,10.06,5.89,15.16,8.66C75,160.69,80.07,160,84.91,160.64Z"/><path class="a" d="M88.05,185.09c-2,2.24-3.09,7.13-6.73,4.42l-8.51-2.84-.8-1,9.51,3.17c3.38,2.52,4.57-1.53,6.32-3.91Z"/><path class="a" d="M102,143.16l-.48-.15c-1.65-5-3-10.25-6.65-14.27A68.18,68.18,0,0,0,81,113.9q1.05-7.5,2.08-15-3.12,6.87-6.25,13.74l-12.49-2.08c-.43-1.5-.4-8.62-1.14-6.47,1-4.06.87,4.13,1.34,5.75L77,111.93l6.25-13.74q-1.05,7.5-2.08,15A68.41,68.41,0,0,1,95.05,128C98.94,132.27,100.19,137.85,102,143.16Z"/><path class="a" d="M118.88,183.19c1.23-4.75,1.2-10.05-1.72-12.88l.35-.56C120.41,172.76,120.27,178.36,118.88,183.19Z"/><path class="a" d="M119.28,167.55a10.23,10.23,0,0,0-1.77,2.2c-1.62-1.68-4.19-2.56-8-2l-.16-.06c1-1.74,1.65-2.66,1.65-2.66Z"/><path class="a" d="M129.46,91.53a6.35,6.35,0,0,1-.54.61c-2.77-.8-7.35.18-8.53-2.18a4.12,4.12,0,0,1,.1-2.63,4.09,4.09,0,0,0,.1,1.92C121.82,91.7,126.74,90.54,129.46,91.53Z"/><path class="a" d="M129.76,199.9c-.08,1.34-.69,1.18-2.84-2.32q-4.44-5.84-8.9-11.66l.24-.67,8.86,11.62C128.69,199.43,129.44,200.2,129.76,199.9Z"/><path class="a" d="M136.41,174c-1.27,5.06-4.8,9.43-6.31,14.49C131.41,183.32,134.93,178.94,136.41,174Z"/><path class="a" d="M136.33,79.84a24.43,24.43,0,0,0-2.64-2.32c-2.2-1.69-3.92-3.19-2.93-3.64a12.58,12.58,0,0,0,3.13,2.92C136.5,78.89,137.72,80.14,136.33,79.84Z"/><path class="a" d="M138.77,115.52a1.87,1.87,0,0,1-.33,1L124,140.09h0l-.33.14,15-24.47A2.18,2.18,0,0,0,138.77,115.52Z"/><path class="a" d="M152.11,100.42c-.07,1.53-2.63,3.13-3.87,4.69-2.4,1.8-3.85,6.1-7.43,4.84-1.64.18-6.13-.8-7.52-.52l-.11-.16c-1-1.45,5.75.19,7.83,0,3.58,1.25,5-3,7.42-4.84C149.48,103.07,151.48,101.73,152.11,100.42Z"/><path class="a" d="M151.77,96.52c-1.63-.43-3.84-2-5.93-3.26-.82-.79-1.52-1.49-2-2,2.53,1.31,5.66,3.79,7.88,4.48C151.75,96,151.76,96.24,151.77,96.52Z"/><path class="a" d="M173.23,111.42c0,1.06-.39,1.18-1.92-1.12-3.07-3.56-5.52-7.62-8.33-11.39-3.28,0-7.12,1-8.23-3.07-1.36-2.77-2.27-3.74-2.7-2.81.3-1.94,1.28-1.19,2.9,2.09,1.1,4,5,3,8.23,3.07,2.81,3.77,5.25,7.84,8.32,11.4C172.46,111,173,111.52,173.23,111.42Z"/><path class="a" d="M174.59,160.42c-6.06-1.43-15.13-5.34-22.79-4.42-5.25,1-14.59.95-16.29,5.45,1-5.23,11-5.09,16.48-6.16,7.58-.91,16.53,2.89,22.58,4.36C174.58,159.91,174.59,160.16,174.59,160.42Z"/><path class="a" d="M195.87,171.76c-5.65-1.69-10-5.69-14.57-9.16-.65-8.1-5-15.31-10.59-21-.15-.46-.31-.91-.45-1.36,5.9,5.79,10.55,13.24,11.24,21.65,4.52,3.4,8.75,7.3,14.23,9.05C195.78,171.22,195.82,171.49,195.87,171.76Z"/><path class="a" d="M211.29,183c0,.29,0,.59,0,.88-3.63-3.33-8.28-5.87-11.25-9.7l-5.7-12.82h0c-.11-.64-.23-1.29-.34-1.93q3.1,7,6.24,14C203.15,177.19,207.69,179.7,211.29,183Z"/><path class="a" d="M38.74,208.29c.8-3.27.63-6.8,1-10.19-2.25-4.92-5.93-9.48-8.71-14.26.78.9,1.55,1.81,2.34,2.71,0,0,0,0,0,0a85.46,85.46,0,0,1,6.54,10.79C39.54,201,39.76,204.82,38.74,208.29Z"/><path class="a" d="M40.76,102.63q-.19,11.3-.4,22.63l-.18.2q.2-11.35.4-22.7Z"/><path class="a" d="M47.44,178.54a4.16,4.16,0,0,0-.45.4l-7.65-9.26a12.58,12.58,0,0,1,1.36.71h0Z"/><path class="a" d="M63.16,104.11a2.38,2.38,0,0,1,0,.26,6.25,6.25,0,0,1-.32,1.37,4.54,4.54,0,0,0,.12-.66C63,104.66,63.09,104.33,63.16,104.11Z"/><path class="a" d="M66.59,164.39a9.55,9.55,0,0,0-1.06-.06h0L56.1,156c-1.84-1.68-5.17-4.09-3.53-4.08a47.69,47.69,0,0,0,3.73,3.36Z"/><path class="a" d="M69.38,226.53a7.38,7.38,0,0,0-.07-2.31A50.72,50.72,0,0,1,62,217.69c-1.47-2.47-6.25-4-5.13-7.21l0,0c-.2,2.7,3.94,4.19,5.29,6.46a51.32,51.32,0,0,0,7.36,6.53A5.83,5.83,0,0,1,69.38,226.53Z"/><path class="a" d="M70.77,250.79h0c-1-4.46-2.3-8.86-2.94-13.39.32-3.78-2.86-5.76-5.18-8.19-2.5-2.18-3.13-3.05-2-2.82a20.45,20.45,0,0,0,2.2,2.11c2.31,2.43,5.5,4.41,5.18,8.19.67,4.84,2.07,9.53,3.14,14.29Z"/><path class="a" d="M71.29,213.72a7.55,7.55,0,0,0,.06-1.88c-1.68-2.54-5.4-4.17-7.87-6.35l2,.7h0c2.21,1.55,4.74,3,6,4.93A6,6,0,0,1,71.29,213.72Z"/><path class="a" d="M80.33,196.44,80,197q-4.09-5.33-8.19-10.65l1,.33Z"/><path class="a" d="M84.72,161.35l-8.65,4.52c-5,3.37-11.21,5.53-14.69,10.72-5.87,6.31-10.16,13.73-14.54,21.1,0-.15,0-.3,0-.45,4.43-7.45,8.75-15,14.7-21.37,3.47-5.19,9.65-7.34,14.68-10.72l7.48-3.9h0Z"/><path class="a" d="M88.24,184.37c-.14.16-.27.33-.4.51L76.39,173.43l1.37.46Z"/><path class="a" d="M101.79,143.87,77.3,136.53c-5.7-.8-11.42-3.54-17.2-2-5.58.15-10.18,3-14.6,6.26-10.25,5.65-16.61,15.77-21.32,26.13a14.75,14.75,0,0,0-1.76,3.85,15.1,15.1,0,0,1,1.95-4.56c4.71-10.37,11.07-20.48,21.33-26.14,4.42-3.21,9-6.11,14.6-6.25,5.77-1.56,11.49,1.18,17.2,2l24,7.2C101.6,143.3,101.69,143.59,101.79,143.87Z"/><path class="a" d="M118.86,183.28c-.18.67-.38,1.34-.6,2a.1.1,0,0,1,0-.05C118.45,184.58,118.67,183.94,118.86,183.28Z"/><path class="a" d="M119.28,167.55a10.23,10.23,0,0,0-1.77,2.2c-1.62-1.68-4.19-2.56-8-2l-.16-.06c1-1.74,1.65-2.66,1.65-2.66Z"/><path class="a" d="M129.26,92.25c-3,3.81-8.22,3-12.49,4.16l-9,29.48c-2.12-6-3-17.74-9.4-23.57-3.12-6.6-7.75-12.11-12.49-17.58-3.87-1.82-8.49-2.48-12.65-3.87-5-.65-10-2.42-15-1.48-5.69.39-10.85,2.56-16,5-3.79,6.82-7.88,13.5-10.92,20.71a10.58,10.58,0,0,0-1.4,2.92,11.07,11.07,0,0,1,1.6-3.64c3-7.21,7.12-13.88,10.91-20.71,5.11-2.38,10.28-4.56,16-5,5-.94,10.07.84,15,1.49,4.16,1.38,8.78,2,12.65,3.86,4.74,5.48,9.37,11,12.48,17.58,6.39,5.84,7.29,17.53,9.4,23.57q4.52-14.73,9-29.48c4-1.08,8.88-.43,11.95-3.55Z"/><path class="a" d="M129.76,199.9c.08-1.5-.49-4.87-.35-7.58a15.44,15.44,0,0,1,.66-3.79,15.57,15.57,0,0,0-.46,3.08C129.43,195,130.36,199.34,129.76,199.9Z"/><path class="a" d="M133.24,79.46c-2.66-.59-7-1.76-8.27,1.4-1.08,2.26-3.65,4.14-4.48,6.45.5-2.65,3.49-4.68,4.67-7.17,1.32-3.15,5.62-2,8.27-1.4a17.36,17.36,0,0,0,2.9,1.1C137.27,80.88,136.55,80.94,133.24,79.46Z"/><path class="a" d="M136.41,173.93a14.14,14.14,0,0,0,.11-6.71c-1.32-2.48-1.55-4.34-1-5.75a8,8,0,0,0,1.22,5A14.31,14.31,0,0,1,136.41,173.93Z"/><path class="a" d="M138.77,115.51c.1-2.18-4.5-3.58-5.79-5.53-.21-.31-.06-.48.31-.55C134.88,111.49,140,113,138.77,115.51Z"/><path class="a" d="M152,95.81l-.22-.06a7.23,7.23,0,0,1,.29-2.7A16.06,16.06,0,0,0,152,95.81Z"/><path class="a" d="M152.11,100.41c0-.71-.48-1.4-1.89-2.08-2-2-5.31-5-6.55-6.34.69.35,1.42.8,2.17,1.27,1.47,1.4,3.28,3.08,4.58,4.36C152.3,98.52,152.57,99.46,152.11,100.41Z"/><path class="a" d="M173.23,111.42c0-1.24-.63-3.77-.72-5.15,0-5.33-2.84-9.77-5.13-14.39C160,86.22,151.7,81.33,144,76c-2.69-2.91-6.57-1.88-10.1-2a6.3,6.3,0,0,0-3.1-.05c-.38-.79.4-1.14,3.29-.67,3.53.16,7.42-.87,10.11,2,7.74,5.37,16,10.26,23.42,15.93,2.28,4.62,5.16,9,5.13,14.39C172.82,107.37,173.85,111.18,173.23,111.42Z"/><path class="a" d="M174.79,159.7l-.22,0c-.2-6.5-2.49-12.57-4.51-18.69l.65.64C172.67,147.5,174.75,153.39,174.79,159.7Z"/><path class="a" d="M196.07,171.05l-.34-.11q-1-5.41-1.94-10.83l.54,1.21h0Z"/><path class="a" d="M211.47,183.12l-.18-.16c.11-8.14,1.72-16.37-.34-24.37-.06-4.38-2.52-7.79-5-11.17-3.47-6.75-10.26-10.43-16.5-14.31-12.6-7.94-28.54-8.22-42.57-4.49-8.89,1.88-15.22,8.82-23.43,12.34.18-.29.36-.57.53-.86h0c8-3.55,14.33-10.33,23.1-12.18,14-3.74,30-3.46,42.57,4.49,6.23,3.87,13,7.55,16.5,14.3,2.5,3.39,5,6.79,5,11.18C213.28,166.16,211.48,174.7,211.47,183.12Z"/><path class="a" d="M437.09,385c-.71-.26-1.44-.5-2.18-.72l.27-.11C435.82,384.43,436.46,384.71,437.09,385Z"/><path class="a" d="M383.75,159.39c-.12.65-.23,1.3-.35,2h0q-2.83,6.41-5.69,12.8c-3,3.83-7.62,6.37-11.25,9.7,0-.29,0-.59,0-.88,3.6-3.26,8.14-5.78,11.07-9.54C379.59,168.74,381.68,164.07,383.75,159.39Z"/><path class="a" d="M407.48,140.24l-.45,1.37h0c-5.6,5.69-9.94,12.9-10.59,21-4.62,3.47-8.92,7.47-14.57,9.16l.15-.82c5.48-1.75,9.7-5.65,14.22-9.05C396.92,153.48,401.58,146,407.48,140.24Z"/><path class="a" d="M425.69,93c-.44-.92-1.35,0-2.7,2.81-1.1,4-5,3-8.23,3.07-2.81,3.77-5.25,7.83-8.33,11.39-1.53,2.3-1.94,2.18-1.92,1.12.25.1.77-.39,1.73-1.83,3.07-3.56,5.51-7.63,8.32-11.4,3.28,0,7.13,1,8.23-3.07C424.4,91.84,425.38,91.09,425.69,93Z"/><path class="a" d="M433.87,91.27c-.44.5-1.14,1.19-2,2-2.09,1.31-4.3,2.84-5.94,3.27,0-.28,0-.53,0-.77C428.2,95.06,431.34,92.58,433.87,91.27Z"/><path class="a" d="M442.23,161.45c-1.7-4.5-11-4.43-16.29-5.45-7.67-.92-16.73,3-22.79,4.42,0-.26,0-.51,0-.77,6.05-1.46,15-5.27,22.58-4.36C431.26,156.36,441.28,156.22,442.23,161.45Z"/><path class="a" d="M444.56,109.27l-.12.16c-1.37-.28-5.87.7-7.51.52-3.58,1.26-5-3-7.42-4.84-1.24-1.57-3.82-3.16-3.88-4.7.63,1.31,2.63,2.66,3.67,4,2.41,1.8,3.86,6.09,7.44,4.84C438.82,109.46,445.54,107.82,444.56,109.27Z"/><path class="a" d="M447.68,188.57c-1.49-5.12-5.07-9.53-6.35-14.64C442.82,179,446.4,183.39,447.68,188.57Z"/><path class="a" d="M444.05,77.52a25.48,25.48,0,0,0-2.64,2.32c-1.39.3-.17-1,2.45-3A12.67,12.67,0,0,0,447,73.88C448,74.33,446.25,75.83,444.05,77.52Z"/><path class="a" d="M454.11,140.24l-.33-.15q-7.25-11.81-14.47-23.61a1.81,1.81,0,0,1-.34-1l.14.25Z"/><path class="a" d="M457.35,90c-1.19,2.36-5.76,1.38-8.53,2.18-.18-.19-.36-.39-.54-.61,2.73-1,7.63.17,8.87-2.28a4.12,4.12,0,0,0,.1-2A4.17,4.17,0,0,1,457.35,90Z"/><path class="a" d="M459.72,185.92l-8.91,11.66c-2.14,3.5-2.75,3.66-2.83,2.32.32.3,1.07-.47,2.64-3l8.86-11.62Z"/><path class="a" d="M458.89,183.31c-1.42-4.87-1.58-10.52,1.34-13.56l.35.56C457.64,173.16,457.63,178.53,458.89,183.31Z"/><path class="a" d="M501.16,172.71,500,173.89l-13.14,4.38c-6.83,2.35-8.94-13.12-18-10l-.38-.64c9.25-3.44,11.34,12.25,18.22,9.89Z"/><path class="a" d="M505.73,185.62l-.8,1h0l-8.5,2.84c-3.64,2.71-4.74-2.18-6.73-4.42l.21-.21c1.75,2.38,2.94,6.43,6.32,3.91Z"/><path class="a" d="M514.06,204.77a20.69,20.69,0,0,1-1.83,1.43h0l-7.54,2.62q-3.53-5.83-7.08-11.66l.14-.18q3.36,5.57,6.75,11.12Z"/><path class="a" d="M514.57,104.1c-.74-2.15-.71,5-1.15,6.47l-12.49,2.08-6.24-13.74q1,7.5,2.08,15a68.47,68.47,0,0,0-13.89,14.84c-3.68,4-5,9.23-6.64,14.27l-.48.15c1.79-5.31,3-10.89,6.93-15.14a68.7,68.7,0,0,1,13.89-14.84q-1.05-7.5-2.09-15c2.09,4.58,4.16,9.16,6.25,13.74l12.49-2.08C513.7,108.23,513.62,100,514.57,104.1Z"/><path class="a" d="M517.09,226.4a17.54,17.54,0,0,0-3.15,1.23c-3,1.26-5.2,1.31-5.58-1.1.68,1.67,2.68,1.5,5.39.38C516.93,225.45,518.09,225.2,517.09,226.4Z"/><path class="a" d="M520.88,210.52c-2.86,3.72-13.29,9.26-14.42,3.24,1.83,4.84,11.56-.43,14.26-4A2.66,2.66,0,0,1,520.88,210.52Z"/><path class="a" d="M525.16,151.87a10.28,10.28,0,0,0-2.38.56c-5.32,2.18-10.06,5.89-15.15,8.66-4.4.29-9.09-.26-13.63.16h0l-1.16-.61c4.84-.62,9.88.05,14.6-.27,5.1-2.77,9.84-6.47,15.15-8.66C525.38,150.82,525.78,151.1,525.16,151.87Z"/><path class="a" d="M529.81,227c-2.81,6.27-7.7,11-12.28,16a28.59,28.59,0,0,1-10.77,8.74l.21-.91h0a28.84,28.84,0,0,0,10.36-8.54c4.59-5,9.47-9.72,12.28-16,2.28-3.62.69-8.3,1.27-12.39-.1-5.36.51-10.91,0-16.17a2.07,2.07,0,0,0,.15.25c.56,5.39-.09,11.12,0,16.64C530.49,218.69,532.09,223.36,529.81,227Z"/><path class="a" d="M534.41,187.2c-.9-3.15-2-6.49-3.92-7.94l.26-.32C532.51,180.68,533.55,184.1,534.41,187.2Z"/><path class="a" d="M537,102.63c-2.53-1.75-1.17,4.71-1.49,6.68,0,2.48-2.4,9.07-4.83,6.77-3.88-5.56-14.3-3.7-15.72-10.34,2,5.8,11.79,4.27,15.52,9.63,2.44,2.3,4.89-4.3,4.83-6.78.33-2-1.1-8.73,1.68-6.54C537,102.24,537,102.43,537,102.63Z"/><path class="a" d="M538.21,169c-.4.47-.79.95-1.18,1.42h0c-2.44,1.45-4.68,3.62-7.57,3.44-6.34-.58-10.05-9.59-18.12-8.74l.87-.77c7.34,0,11,8.24,17.06,8.8C532.69,173.34,535.2,170.25,538.21,169Z"/><path class="a" d="M546.53,183.12c-.67,1.15-1.39,2.3-2.13,3.43h0l-6.63,7.74c-1.24.21-2-2.22-2.82-5.23.77,2.67,1.49,4.7,2.62,4.52Z"/><path class="a" d="M548.4,120.76c-.55,2.8-1.32,6.52-3.27,8.43-3.43,2.89-5.34-.83-7.56-3.22,0-.17,0-.34,0-.51,2.14,2.39,4,5.82,7.37,3,2-1.9,2.72-5.63,3.27-8.43-.27-4,.54-8.18-.37-12C549,112.05,548.11,116.54,548.4,120.76Z"/><path class="a" d="M550.75,194.15c-2.91,5.9-6.26,14.87-9.69,18.74a13.08,13.08,0,0,1-2.06-4.58,12.64,12.64,0,0,0,1.87,3.86c3.43-3.86,6.77-12.84,9.69-18.74,2.73-7,6.65-15.27,4.73-22.78C557.66,178.35,553.57,186.9,550.75,194.15Z"/><path class="a" d="M434.91,384.28c.74.22,1.47.46,2.18.72,20.47,9.32,34.8,29.93,36.46,32.8.27.47-18.05,3.09-18.05,3.09H121.32l-18.83-5.37a101,101,0,0,1,18.25-18.35,118.1,118.1,0,0,1-20.37-17.38s-18-19-21.91-42.18S72,305.87,75.14,276.35,81.45,237.42,90.4,210a216.71,216.71,0,0,1,18.53-41.71c-9.09-3.16-11.2,12.32-18,10l-13.14-4.38-1.37-.46,11.45,11.45c-1.75,2.38-2.94,6.43-6.32,3.91L72,185.62l.8,1-1-.33Q75.92,191.65,80,197L73.26,208.1l-9.58-3.33a18.75,18.75,0,0,0,1.82,1.42l-2-.7c2.47,2.18,6.19,3.81,7.87,6.35a7.55,7.55,0,0,1-.06,1.88h0c-1.81,4.89-11.57-.4-14.27-4a2.35,2.35,0,0,0-.16.75l0,0c-1.12,3.19,3.66,4.74,5.13,7.21a50.72,50.72,0,0,0,7.36,6.53,7.38,7.38,0,0,1,.07,2.31h0c-.68,1.67-2.68,1.5-5.38.38-3.18-1.45-4.34-1.71-3.35-.52-1.13-.23-.5.64,2,2.82,2.32,2.43,5.5,4.41,5.18,8.19.64,4.53,1.9,8.93,2.94,13.39a28.78,28.78,0,0,1-10.37-8.54c-4.58-5-9.46-9.72-12.27-16-2.28-3.62-.69-8.3-1.27-12.39.1-5.36-.51-10.92,0-16.18h0c4.38-7.37,8.67-14.79,14.54-21.1,3.48-5.19,9.66-7.35,14.69-10.72l8.65-4.52-1-.1,1.16-.61c-4.84-.62-9.89.05-14.6-.27-5.1-2.77-9.84-6.47-15.16-8.66-2.79-.89-3.18-.61-2.58.16-1.64,0,1.69,2.4,3.53,4.08l9.42,8.38c-7.33,0-11,8.24-17,8.8-3.41.21-5.93-2.88-8.94-4.16.4.47.78.94,1.17,1.42a12.58,12.58,0,0,0-1.36-.71L47,178.94c-1.89,1.86-2.94,5.64-3.84,8.89q-.1.33-.18.66a5.26,5.26,0,0,0-.15.53s0,0,0,0c-.77,2.67-1.49,4.7-2.62,4.52l-9-10.47c.67,1.15,1.4,2.3,2.14,3.43-.79-.9-1.56-1.81-2.34-2.71,2.78,4.78,6.46,9.34,8.71,14.26-.35,3.39-.18,6.92-1,10.19v0a12.64,12.64,0,0,1-1.87,3.86c-3.43-3.86-6.77-12.84-9.69-18.74-2.71-7-6.59-15.14-4.77-22.6a.06.06,0,0,1,0,0,14.75,14.75,0,0,1,1.76-3.85c4.71-10.36,11.07-20.48,21.32-26.13,4.42-3.21,9-6.11,14.6-6.26,5.78-1.56,11.5,1.18,17.2,2l24.49,7.34c-.1-.28-.19-.57-.29-.86l.48.15c-1.79-5.31-3-10.89-6.93-15.14a68.41,68.41,0,0,0-13.88-14.84q1-7.5,2.08-15L77,111.93l-12.49-2.08c-.47-1.62-.39-9.81-1.34-5.75h0c-.07.22-.16.55-.25,1a4.54,4.54,0,0,1-.12.66s0,0,0,0c-2,5.78-11.78,4.26-15.51,9.62-2.44,2.3-4.89-4.3-4.84-6.78-.32-2,1.11-8.73-1.67-6.54,0,.19,0,.38,0,.58l-.18.13q-.19,11.35-.4,22.7c-2.14,2.39-4,5.82-7.37,3-2-1.9-2.72-5.63-3.27-8.43.27-4-.54-8.19.38-12,0,0,0,0,0,0a10.58,10.58,0,0,1,1.4-2.92c3-7.21,7.13-13.89,10.92-20.71,5.11-2.39,10.27-4.56,16-5,5-.94,10.07.83,15,1.48,4.16,1.39,8.78,2,12.65,3.87,4.74,5.47,9.37,11,12.49,17.58,6.38,5.83,7.28,17.53,9.4,23.57l9-29.48c4.27-1.15,9.47-.35,12.49-4.16l-.34-.11a6.35,6.35,0,0,0,.54-.61c-2.72-1-7.64.17-8.87-2.28a4.09,4.09,0,0,1-.1-1.92v0c.83-2.31,3.4-4.19,4.48-6.45,1.31-3.16,5.61-2,8.27-1.4,3.31,1.48,4,1.42,3.09.38,1.39.3.17-1-2.44-3a12.58,12.58,0,0,1-3.13-2.92,6.3,6.3,0,0,1,3.1.05c3.53.15,7.41-.88,10.1,2,7.74,5.37,16,10.26,23.42,15.92,2.29,4.62,5.17,9.06,5.13,14.39.09,1.38.7,3.91.72,5.15-.25.1-.77-.39-1.73-1.83-3.07-3.56-5.51-7.63-8.32-11.4-3.28,0-7.13,1-8.23-3.07-1.62-3.28-2.6-4-2.9-2.09,0,0,0,0,0,0a7.23,7.23,0,0,0-.29,2.7c-2.22-.69-5.35-3.17-7.88-4.48.45.5,1.15,1.2,2,2-.75-.47-1.48-.92-2.17-1.27,1.24,1.39,4.53,4.35,6.55,6.34,1.41.68,1.92,1.37,1.89,2.08h0c-.63,1.31-2.63,2.65-3.68,4-2.4,1.8-3.84,6.09-7.42,4.84-2.08.22-8.81-1.42-7.83,0l.11.16c-.37.07-.52.24-.31.55,1.29,2,5.89,3.35,5.79,5.53h0a2.18,2.18,0,0,1-.14.25l-15,24.47.33-.14c-.17.29-.35.57-.53.86,8.21-3.52,14.54-10.46,23.43-12.34,14-3.73,30-3.45,42.57,4.49,6.24,3.88,13,7.56,16.5,14.31,2.5,3.38,5,6.79,5,11.17,2.06,8,.45,16.23.34,24.37-3.6-3.26-8.14-5.77-11.06-9.54q-3.14-7-6.24-14c.11.64.23,1.29.34,1.93l-.54-1.21q1,5.41,1.94,10.83c-5.48-1.75-9.71-5.65-14.23-9.05-.69-8.41-5.34-15.86-11.24-21.65.14.45.3.9.45,1.36l-.65-.64c2,6.12,4.31,12.19,4.51,18.69-6-1.47-15-5.27-22.58-4.36-5.52,1.07-15.53.93-16.48,6.16v0c-.53,1.41-.3,3.27,1,5.75a14.14,14.14,0,0,1-.11,6.71v0c-1.48,5-5,9.37-6.31,14.49l0,.09a15.44,15.44,0,0,0-.66,3.79c-.14,2.71.43,6.08.35,7.58-.32.3-1.07-.47-2.64-3l-8.86-11.62c.22-.63.42-1.3.6-2a.29.29,0,0,0,0-.09c1.39-4.83,1.53-10.43-1.37-13.44a10.23,10.23,0,0,1,1.77-2.2L111,165s-.61.92-1.65,2.66l.16.06c3.85-.53,6.42.35,8,2l-.35.56c-2.14,3.45-5.71,10.89-9.81,26.21-6.67,24.87-11.2,38.58-14.73,70.56s.76,44.7,1.68,52.85c1.42,12.55,15.2,37.45,30.81,52.84a60.46,60.46,0,0,0,18.25,12.39c12.87-3.8,27.89-3.11,43.77,7.85,12.41-6.38,41.25,14.93,100.63,4.66,35.65-8.57,84.28,4.4,101.83-7.73,9.59-6.73,18.82-9.44,27.41-9.5a46.57,46.57,0,0,1,18.18,3.73Z"/><path class="a" d="M550.56,193.43c-2.92,5.9-6.26,14.88-9.69,18.74a12.64,12.64,0,0,1-1.87-3.86v0c-.8-3.27-.63-6.8-1-10.19,2.25-4.92,5.91-9.48,8.7-14.26l-2.33,2.71c.74-1.13,1.46-2.28,2.13-3.43l-9,10.47c-1.13.18-1.85-1.85-2.62-4.52,0,0,0,0,0,0,0-.18-.1-.35-.15-.53s-.11-.44-.18-.66l-.18-.63c-.86-3.1-1.9-6.52-3.66-8.26l7.65-9.26a11.9,11.9,0,0,0-1.37.71c.39-.47.78-.95,1.18-1.42-3,1.28-5.52,4.37-8.94,4.16-6.06-.56-9.72-8.81-17.06-8.8l9.43-8.38c1.85-1.68,5.18-4.1,3.52-4.08.62-.77.22-1.05-2.58-.16-5.31,2.19-10.05,5.89-15.15,8.66-4.72.32-9.76-.35-14.6.27l1.16.61-1,.1,8.65,4.52c5,3.37,11.21,5.53,14.69,10.72,5.88,6.31,10.17,13.75,14.55,21.12.48,5.26-.13,10.81,0,16.17-.58,4.09,1,8.77-1.27,12.39-2.81,6.26-7.69,11-12.28,16A28.84,28.84,0,0,1,507,250.79c1-4.46,2.31-8.86,2.94-13.39-.32-3.78,2.86-5.76,5.18-8.19,2.51-2.18,3.13-3.05,2-2.81,1-1.2-.16-1-3.34.51-2.71,1.12-4.71,1.29-5.39-.38h0a7.38,7.38,0,0,1,.07-2.31,50.72,50.72,0,0,0,7.36-6.53c1.47-2.47,6.25-4,5.13-7.21l0,0a2.66,2.66,0,0,0-.16-.75c-2.7,3.56-12.43,8.83-14.26,4h0a6.92,6.92,0,0,1-.06-1.91c1.67-2.54,5.39-4.17,7.86-6.35l-2,.71a20.69,20.69,0,0,0,1.83-1.43l-9.57,3.33q-3.39-5.55-6.75-11.12,4.08-5.32,8.19-10.64l-1,.33.8-1-9.51,3.17c-3.38,2.52-4.57-1.53-6.32-3.91l11.45-11.45-1.37.46,1.18-1.18-14.51,4.84c-6.88,2.36-9-13.33-18.22-9.89l.38.64A216.55,216.55,0,0,1,487.35,210c8.94,27.41,12.14,36.82,15.26,66.34s.63,38.07-3.32,61.26-21.91,42.18-21.91,42.18A118.51,118.51,0,0,1,457,397.18c-5.8-4.46-12.22-9.42-19.9-12.18-.63-.29-1.27-.57-1.91-.83a54,54,0,0,0,17.45-11.4c15.62-15.39,29.4-40.29,30.82-52.84.92-8.15,5.22-20.86,1.68-52.85s-8.07-45.69-14.73-70.56c-4.1-15.32-7.67-22.76-9.82-26.21l-.35-.56c-2.92,3-2.76,8.69-1.34,13.56a.31.31,0,0,1,0,.08c.17.63.36,1.26.57,1.86l-8.86,11.62c-1.57,2.56-2.32,3.33-2.64,3-.08-1.5.49-4.87.35-7.58a16.3,16.3,0,0,0-.62-3.65l0-.1c-1.28-5.18-4.86-9.59-6.35-14.64,0,0,0-.05,0-.08a14,14,0,0,1-.09-6.63c1.32-2.48,1.55-4.34,1-5.75v0c-1-5.23-11-5.09-16.48-6.16-7.58-.91-16.53,2.9-22.58,4.36.2-6.5,2.49-12.57,4.51-18.69-.22.21-.43.43-.65.65l.45-1.37c-5.9,5.79-10.56,13.24-11.24,21.65-4.52,3.4-8.74,7.3-14.22,9.05q1-5.41,1.93-10.83c-.18.41-.36.82-.55,1.23.12-.65.23-1.3.35-2-2.07,4.68-4.16,9.35-6.23,14-2.93,3.76-7.47,6.28-11.07,9.54-.12-8.14-1.72-16.37.34-24.37.06-4.38,2.52-7.79,5-11.17,3.47-6.75,10.27-10.43,16.5-14.31,12.6-7.94,28.54-8.22,42.57-4.49,8.89,1.88,15.22,8.82,23.43,12.34-.18-.29-.36-.58-.53-.87l.33.15-15-24.47-.14-.25h0c-.1-2.18,4.5-3.58,5.79-5.53.21-.31.06-.48-.32-.55l.12-.16c1-1.45-5.74.19-7.82,0-3.58,1.25-5-3-7.44-4.84-1-1.33-3-2.68-3.67-4h0c0-.71.48-1.4,1.89-2.07,2-2,5.31-5,6.55-6.34-.68.35-1.41.79-2.16,1.26.82-.79,1.52-1.48,2-2-2.53,1.31-5.67,3.79-7.88,4.48a7.2,7.2,0,0,0-.3-2.72c-.31-1.94-1.29-1.19-2.9,2.09-1.1,4-5,3-8.23,3.07-2.81,3.77-5.25,7.84-8.32,11.4-1,1.44-1.48,1.93-1.73,1.83,0-1.24.63-3.77.72-5.15,0-5.33,2.84-9.77,5.13-14.39C417.76,86.22,426,81.33,433.78,76c2.69-2.91,6.57-1.88,10.1-2a6.3,6.3,0,0,1,3.1-.05,12.67,12.67,0,0,1-3.12,2.92c-2.62,2.09-3.84,3.34-2.45,3-.94,1-.22,1.1,3.09-.38,2.66-.59,7-1.76,8.27,1.4,1.07,2.25,3.62,4.12,4.47,6.42h0a4.12,4.12,0,0,1-.1,2c-1.24,2.45-6.14,1.29-8.87,2.28.18.22.36.42.54.61l-.34.11c3,3.81,8.21,3,12.49,4.16q4.5,14.75,9,29.48c2.11-6,3-17.74,9.39-23.57,3.12-6.6,7.75-12.11,12.49-17.58,3.87-1.82,8.49-2.48,12.64-3.87,5-.65,10-2.42,15-1.48,5.7.39,10.86,2.56,16,5,3.8,6.82,7.88,13.5,10.92,20.71a10.69,10.69,0,0,1,1.41,3,0,0,0,0,1,0,0c.91,3.83.1,8,.37,12-.55,2.8-1.32,6.53-3.27,8.43-3.33,2.81-5.23-.62-7.37-3q-.19-11.34-.39-22.7l-.19-.13c0-.2,0-.39,0-.58-2.78-2.19-1.35,4.53-1.68,6.54.06,2.48-2.39,9.08-4.83,6.78-3.73-5.36-13.52-3.83-15.52-9.63,0,0,0,0,0,0-.05-.21-.08-.42-.11-.64-.09-.42-.18-.75-.25-1h0c-1-4.06-.87,4.13-1.34,5.75l-12.49,2.08c-2.09-4.58-4.16-9.16-6.25-13.74q1,7.5,2.09,15A68.7,68.7,0,0,0,482.69,128c-3.89,4.25-5.14,9.83-6.93,15.14l.48-.15c-.1.29-.19.58-.29.86l24.48-7.34c5.72-.8,11.43-3.54,17.2-2,5.59.15,10.19,3,14.61,6.26,10.26,5.65,16.62,15.77,21.33,26.13a15.28,15.28,0,0,1,1.7,3.66s0,0,0,.05C557.21,178.16,553.29,186.41,550.56,193.43Z"/><path class="a" d="M384,160.11q-1,5.41-1.93,10.83l-.35.11c.58-3.23,1.15-6.47,1.73-9.71h0C383.59,160.93,383.77,160.52,384,160.11Z"/><path class="a" d="M407.68,141c-2,6.12-4.31,12.19-4.51,18.69l-.21,0c0-6.3,2.1-12.19,4.07-18.09h0C407.25,141.39,407.46,141.17,407.68,141Z"/><path class="a" d="M426,95.75l-.21.06a15.84,15.84,0,0,0-.09-2.78A7.2,7.2,0,0,1,426,95.75Z"/><path class="a" d="M434.07,92c-1.24,1.39-4.53,4.35-6.55,6.34-1.41.67-1.92,1.36-1.89,2.07-.45-1-.18-1.89,1.69-2.78,1.3-1.28,3.13-3,4.59-4.37C432.66,92.78,433.39,92.34,434.07,92Z"/><path class="a" d="M441.31,173.85a14.23,14.23,0,0,1-.28-7.34,8,8,0,0,0,1.21-5c.53,1.41.3,3.27-1,5.75A14,14,0,0,0,441.31,173.85Z"/><path class="a" d="M444.76,110c-1.29,2-5.89,3.35-5.79,5.53-1.26-2.54,3.89-4,5.47-6.08C444.82,109.5,445,109.67,444.76,110Z"/><path class="a" d="M447,73.88a6.3,6.3,0,0,0-3.1.05c-3.53.15-7.41-.88-10.1,2-7.74,5.37-16,10.26-23.42,15.92-2.29,4.62-5.17,9.06-5.13,14.39-.09,1.38-.7,3.91-.72,5.15-.62-.24.41-4,.52-5.86,0-5.34,2.85-9.77,5.14-14.39,7.4-5.67,15.67-10.56,23.41-15.93,2.69-2.9,6.58-1.87,10.1-2C446.59,72.74,447.36,73.09,447,73.88Z"/><path class="a" d="M448,199.9c-.6-.56.33-5,.16-8.29a15.79,15.79,0,0,0-.43-2.94,16.3,16.3,0,0,1,.62,3.65C448.47,195,447.9,198.4,448,199.9Z"/><path class="a" d="M454.31,141c-8.21-3.52-14.54-10.46-23.43-12.34-14-3.73-30-3.45-42.57,4.49-6.23,3.88-13,7.56-16.5,14.31-2.5,3.38-5,6.79-5,11.17-2.06,8-.46,16.23-.34,24.37l-.18.16c0-8.42-1.81-17,.33-25.24.06-4.39,2.51-7.79,5-11.18,3.48-6.75,10.27-10.43,16.5-14.3,12.6-8,28.54-8.23,42.57-4.49,8.78,1.85,15.05,8.63,23.1,12.18C454,140.38,454.13,140.67,454.31,141Z"/><path class="a" d="M457.24,87.28c-.85-2.3-3.4-4.17-4.47-6.42-1.31-3.16-5.61-2-8.27-1.4-3.31,1.48-4,1.42-3.09.38a17.36,17.36,0,0,0,2.9-1.1c2.66-.59,6.95-1.75,8.27,1.4C453.76,82.62,456.73,84.64,457.24,87.28Z"/><path class="a" d="M459.52,185.2l0,.05c-.21-.6-.4-1.23-.57-1.86C459.1,184,459.3,184.62,459.52,185.2Z"/><path class="a" d="M501.35,173.43,489.9,184.88c-.13-.18-.26-.35-.4-.51L500,173.89Z"/><path class="a" d="M505.93,186.34q-4.1,5.31-8.19,10.64c-.11-.17-.22-.36-.33-.54l7.51-9.77h0Z"/><path class="a" d="M506.4,211.84a6.92,6.92,0,0,0,.06,1.91,6.13,6.13,0,0,1-.26-2.63c1.29-2,3.81-3.37,6-4.92h0l2-.71C511.79,207.67,508.07,209.3,506.4,211.84Z"/><path class="a" d="M514.94,105.72a6.2,6.2,0,0,1-.31-1.35,2.38,2.38,0,0,1,0-.26c.07.22.16.55.25,1C514.86,105.3,514.89,105.51,514.94,105.72Z"/><path class="a" d="M515.09,229.21c-2.32,2.43-5.5,4.41-5.18,8.19-.63,4.53-1.9,8.93-2.94,13.39h0l-.41.19c1.08-4.76,2.48-9.45,3.15-14.29-.32-3.78,2.87-5.76,5.19-8.19a21.28,21.28,0,0,0,2.19-2.1C518.22,226.16,517.6,227,515.09,229.21Z"/><path class="a" d="M515.79,217.69a50.72,50.72,0,0,1-7.36,6.53,7.38,7.38,0,0,0-.07,2.31,5.83,5.83,0,0,1-.13-3,50.78,50.78,0,0,0,7.36-6.53c1.36-2.27,5.49-3.77,5.29-6.46l0,0C522,213.67,517.26,215.22,515.79,217.69Z"/><path class="a" d="M521.64,156l-9.43,8.38a9.87,9.87,0,0,0-1.07.06l10.31-9.16a45.26,45.26,0,0,0,3.71-3.36C526.82,151.85,523.49,154.27,521.64,156Z"/><path class="a" d="M530.91,197.71c-4.38-7.37-8.67-14.81-14.55-21.12-3.48-5.19-9.66-7.35-14.69-10.72L493,161.35l1-.1h0l7.47,3.9c5,3.38,11.22,5.53,14.7,10.72,5.94,6.39,10.26,13.92,14.69,21.37C530.88,197.4,530.89,197.56,530.91,197.71Z"/><path class="a" d="M538.4,169.68l-7.65,9.26a5.39,5.39,0,0,0-.45-.4q3.36-4.08,6.73-8.14h0A11.9,11.9,0,0,1,538.4,169.68Z"/><path class="a" d="M537.56,125.46a1.8,1.8,0,0,0-.19-.2q-.2-11.33-.39-22.63l.19.13Q537.35,114.12,537.56,125.46Z"/><path class="a" d="M547.82,108a10.69,10.69,0,0,0-1.41-3c-3-7.21-7.12-13.89-10.92-20.71-5.11-2.39-10.27-4.56-16-5-5-.94-10.06.83-15,1.48-4.15,1.39-8.77,2-12.64,3.87-4.74,5.47-9.37,11-12.49,17.58-6.39,5.83-7.28,17.53-9.39,23.57q-4.51-14.74-9-29.48c-4.28-1.15-9.47-.35-12.49-4.16l.34-.11c3.07,3.12,7.92,2.47,11.95,3.55q4.5,14.75,9,29.48c2.12-6,3-17.73,9.4-23.57C482.29,95,486.93,89.5,491.66,84c3.87-1.82,8.5-2.48,12.65-3.86,4.95-.65,10-2.43,15-1.49,5.69.39,10.86,2.57,16,5,3.8,6.83,7.88,13.5,10.93,20.71A11.18,11.18,0,0,1,547.82,108Z"/><path class="a" d="M538,198.1c.34,3.39.17,6.92,1,10.19-1-3.47-.8-7.27-1.17-10.91a87.15,87.15,0,0,1,6.56-10.82h0l2.33-2.71C543.94,188.62,540.28,193.18,538,198.1Z"/><path class="a" d="M555.27,170.6a15.28,15.28,0,0,0-1.7-3.66c-4.71-10.36-11.07-20.48-21.33-26.13-4.42-3.21-9-6.11-14.61-6.26-5.77-1.56-11.48,1.18-17.2,2L476,143.87c.1-.28.19-.57.29-.86l24-7.2c5.71-.79,11.42-3.53,17.2-2,5.58.14,10.19,3,14.6,6.25,10.26,5.66,16.62,15.77,21.33,26.14A15.08,15.08,0,0,1,555.27,170.6Z"/><path class="a" d="M437.09,385c-.71-.26-1.44-.5-2.18-.72l.27-.11C435.82,384.43,436.46,384.71,437.09,385Z"/><rect class="a" x="90.7" y="222.9" width="398.99" height="6.75"/><rect class="a" x="86.6" y="245.13" width="406.43" height="6.57"/><rect class="a" x="80.33" y="267.35" width="405.06" height="6.75"/><rect class="a" x="80.03" y="289.57" width="380.78" height="6.75"/><rect class="a" x="90.7" y="311.8" width="404.72" height="6.75"/><rect class="a" x="90.7" y="334.02" width="392.69" height="6.75"/><rect class="a" x="100.48" y="356.25" width="369.49" height="8.17"/><text class="b" transform="translate(99.73 514.6)">Storrs, CT</text><path class="c" d="M215.19,327.74a289.4,289.4,0,0,1-9.83-73.59,240,240,0,0,1,3.57-42c3.58-18.77,6.86-24.44,11.62-24.44a10.46,10.46,0,0,1,3,.6c14.3,4.47,22.65,11,22.65,21.15a22.86,22.86,0,0,1-.6,4.47,296,296,0,0,0-5.66,58.1,273.46,273.46,0,0,0,1.49,31c40.52-40.22,71.5-79.85,91.47-110.84a3.76,3.76,0,0,1,3.27-2.08c6.26,0,15.79,14.3,15.79,23.83a8.1,8.1,0,0,1-1.49,5.37c-36.34,45.88-70.9,82.53-104.87,112.62A257.3,257.3,0,0,0,270,401.33a14.71,14.71,0,0,1,1.49,5.36c0,3.87-3,5.66-7.15,5.66-5.36,0-12.51-3.28-17-10.13a249.22,249.22,0,0,1-24.73-50.65,568.16,568.16,0,0,1-84.32,56.31,11.26,11.26,0,0,1-5.66,1.19c-4.77,0-9.83-2.08-9.83-5.66,0-2.08,1.79-4.76,6.55-8A773.06,773.06,0,0,0,215.19,327.74Z"/><path class="c" d="M394.25,327.74a289.4,289.4,0,0,1-9.83-73.59,239,239,0,0,1,3.58-42c3.57-18.77,6.85-24.44,11.62-24.44a10.46,10.46,0,0,1,3,.6c14.3,4.47,22.65,11,22.65,21.15a22.86,22.86,0,0,1-.6,4.47A296,296,0,0,0,419,272a273.46,273.46,0,0,0,1.49,31C461,262.79,492,223.16,511.94,192.17a3.76,3.76,0,0,1,3.28-2.08c6.25,0,15.79,14.3,15.79,23.83a8.16,8.16,0,0,1-1.49,5.37c-36.35,45.88-70.91,82.53-104.88,112.62a257.3,257.3,0,0,0,24.43,69.42,14.51,14.51,0,0,1,1.49,5.36c0,3.87-3,5.66-7.15,5.66-5.36,0-12.51-3.28-17-10.13a249.22,249.22,0,0,1-24.73-50.65,567.65,567.65,0,0,1-84.32,56.31,11.26,11.26,0,0,1-5.66,1.19c-4.76,0-9.83-2.08-9.83-5.66,0-2.08,1.79-4.76,6.56-8A773.85,773.85,0,0,0,394.25,327.74Z"/><path class="d" d="M213.87,327.45a289.42,289.42,0,0,1-9.83-73.6,239.18,239.18,0,0,1,3.58-42c3.57-18.77,6.85-24.43,11.62-24.43a10.6,10.6,0,0,1,3,.6c14.3,4.47,22.64,11,22.64,21.15a22.86,22.86,0,0,1-.6,4.47,296,296,0,0,0-5.66,58.1,273.46,273.46,0,0,0,1.49,31c40.52-40.23,71.51-79.85,91.47-110.84a3.78,3.78,0,0,1,3.28-2.08c6.26,0,15.79,14.3,15.79,23.83a8.11,8.11,0,0,1-1.49,5.36c-36.35,45.89-70.91,82.53-104.88,112.63A257.32,257.32,0,0,0,268.7,401a14.71,14.71,0,0,1,1.49,5.36c0,3.87-3,5.66-7.16,5.66-5.36,0-12.51-3.28-17-10.13a249.22,249.22,0,0,1-24.73-50.65A568.88,568.88,0,0,1,137,407.59a11.29,11.29,0,0,1-5.66,1.19c-4.77,0-9.84-2.08-9.84-5.66,0-2.08,1.79-4.76,6.56-8A776.21,776.21,0,0,0,213.87,327.45Z"/><path class="d" d="M392.94,327.45a289,289,0,0,1-9.84-73.6,240.14,240.14,0,0,1,3.58-42c3.57-18.77,6.85-24.43,11.62-24.43a10.6,10.6,0,0,1,3,.6c14.3,4.47,22.64,11,22.64,21.15a23.62,23.62,0,0,1-.59,4.47,295.27,295.27,0,0,0-5.66,58.1,271.16,271.16,0,0,0,1.49,31c40.51-40.23,71.5-79.85,91.46-110.84a3.79,3.79,0,0,1,3.28-2.08c6.26,0,15.79,14.3,15.79,23.83A8.11,8.11,0,0,1,528.2,219c-36.35,45.89-70.91,82.53-104.87,112.63A257,257,0,0,0,447.76,401a14.71,14.71,0,0,1,1.49,5.36c0,3.87-3,5.66-7.15,5.66-5.37,0-12.52-3.28-17-10.13a249.22,249.22,0,0,1-24.73-50.65,568.88,568.88,0,0,1-84.31,56.31,11.29,11.29,0,0,1-5.66,1.19c-4.77,0-9.84-2.08-9.84-5.66,0-2.08,1.79-4.76,6.56-8A777.29,777.29,0,0,0,392.94,327.45Z"/></svg>