<?xml version="1.0" encoding="UTF-8"?>
<svg id="Layer_1" data-name="Layer 1" xmlns="http://www.w3.org/2000/svg" viewBox="0 0 611.16 792">
  <defs>
    <style>
      .cls-1, .cls-2 {
        fill: none;
      }

      .cls-1, .cls-3, .cls-4, .cls-5 {
        stroke-width: 0px;
      }

      .cls-6 {
        fill: #7d4e1c;
      }

      .cls-6, .cls-7, .cls-8, .cls-9, .cls-10, .cls-11, .cls-12, .cls-13, .cls-14, .cls-15, .cls-16, .cls-17, .cls-2 {
        stroke: #231f20;
        stroke-miterlimit: 10;
      }

      .cls-7 {
        fill: #fff;
      }

      .cls-8 {
        fill: #d0bfdd;
      }

      .cls-9 {
        fill: #ddad92;
      }

      .cls-10 {
        fill: #d1bfdd;
      }

      .cls-11 {
        fill: #d09988;
      }

      .cls-12 {
        fill: #b89bc7;
      }

      .cls-13 {
        fill: #712d20;
      }

      .cls-14, .cls-4 {
        fill: #231f20;
      }

      .cls-15 {
        fill: #7a312a;
      }

      .cls-16 {
        fill: #f9a460;
      }

      .cls-17 {
        fill: #f9ed23;
      }

      .cls-3 {
        fill: #43aee3;
      }

      .cls-5 {
        fill: #d5b199;
      }
    </style>
  </defs>
  <rect class="cls-3" x="-644.24" y="-25.39" width="1279.47" height="830.96"/>
  <polygon class="cls-10" points="232.05 736.51 174.01 889.72 133.48 805.44 164.6 751.08 232.05 736.51"/>
  <polygon class="cls-10" points="391.15 804.99 382.93 894.97 279.04 899.92 278.11 885.31 197.95 891.35 189.01 815.73 222.56 730.07 224.34 677.18 228.69 548.17 253.48 617.65 272.45 644.06 279.04 632.51 294.29 626.73 296.95 617.21 319.68 706.84 306.25 793.22 302.54 815.73 324.62 793.44 349.8 768.05 391.15 804.99"/>
  <path class="cls-10" d="m353.24,461.37l-3.87,44.86-.56,6.48-6.92,80.4-9.71,112.66-7.55,87.67-22.09,22.29,3.71-22.51,13.43-86.38-22.73-89.63h0l3.11-11.1-53.22-215.66h0l-1.4-5.7-5.8-23.46c-.58-2-1.13-4-1.62-5.89s-.9-3.55-1.27-5.25c-.56-1.34-.96-2.75-1.18-4.19l.07-2v-1.15l.36-10.8.61-18.19,1.86-55.19,4.56,8.07,32.29,57,77.92,137.67Z"/>
  <path class="cls-10" d="m579.16,656.47c0,4.14-14-129.24-14-129.24,0,0-5.39-46.44-6.6-59-1.31-13.58-.48-41.12-3.3-54.47-3.38-16-17.27-46.43-19-62.72-.42-4,1-12.13,0-16-1.92-7.14-14.84-25.58-14.84-25.58l-52.76,29.18v437.48l9.18,3.88,43.61,18.67,10.73,4.58,50.28,21.52v-31.55s-3.11-132.77-3.3-136.75Zm-57.72,130.09v-4.66l-7.42-19-5.18-22.46,5.21-.64,18.15,42.1c-3.25,2.23-6.91,3.82-10.76,4.66Z"/>
  <path class="cls-14" d="m532.17,781.9v53.65h-55.24l.57-35.5.33-20,4-249,12.66,18.15h0l7.13,94.9,7.42,41.28,23.09,96.56-18.15-42.1-5.21.64,5.21,22.48,7.42,19v4.66c3.86-.86,7.52-2.46,10.77-4.72Z"/>
  <path class="cls-10" d="m514.03,762.92l7.42,19v18.15h-123.67l-44.53-188.2,25.09-258,8.15-83.87c1.55,1.65,135,39.46,135,39.46l-29.68,99.33,2.77,140.31h0l1.36,68.49,7.42,99,5.5,23.75,5.17,22.58Z"/>
  <path class="cls-14" d="m521.44,786.56v-4.66l-7.42-19-5.18-22.46,5.21-.64,18.15,42.1c-3.25,2.23-6.91,3.82-10.76,4.66Z"/>
  <path class="cls-10" d="m521.44,781.9v4.66c-5.59,1.25-11.4,1.07-16.9-.53l-17.7-42.93,22-2.66,5.21,22.48,7.39,18.98Z"/>
  <path class="cls-10" d="m438.43,497.2l44.26-22.33v22.33s-12.93,9-22.13,13.16-38.88,16.5-38.88,16.5l16.75-29.66Z"/>
  <path class="cls-10" d="m381.67,688.55c-6.07,9.64-10.28,14.94-10.28,14.94l23.08,65.2-3.32,36.31-41.31-36.95-25.17,25.39-22.13,22.29,3.71-22.51,13.43-86.38-22.73-89.63h0l3.11-11.1-53.22-215.66h0l-.2-3.35-.37-5.73h0l-1.55-24.51-.07-1.18h0l-.2-3-.29-4.69-.51-8.13-.54-8.37-.87-13.74-3.73-59,4-.28,116.11-8.18,8.71-.61,75.85,80.89-14,11.54,21.43,12.39c7.43,45.39-15.65,165.89-28.85,234.14-8.83,45.12-28.09,80.93-40.09,99.91Z"/>
  <path class="cls-12" d="m353.24,764.56l-3.4,3.49-25.17,25.39-22.13,22.29,3.71-22.51,13.43-86.38-22.73-89.63h0l3.11-11.1-53.22-215.66h0l-1.4-5.7,1.2,2.35c22.62,44.9,63.37,134.9,83.67,180.13,5.9,13.11,10.06,22.46,11.58,25.88l.64,1.43,10.71,170.02Z"/>
  <path class="cls-12" d="m421.68,832.25l-30.53-27.25-41.31-36.95-12.22-10.91-5.4-51.37-11.13-105.45,9.22-33.09.67-2.4,18.39-58.6,11.47-36.47,8.88-72.34,5-78.54,4.95-22.29-1.66,72.63v49.52s4.13,264.12,3.31,267.42c.02.81.15,1.62.39,2.39,3.83,16.05,33.41,104.67,33.41,104.67l6.56,39.03Z"/>
  <polygon class="cls-14" points="184.22 716.69 161.96 773.64 168.56 781.9 207.31 730.06 184.22 716.69"/>
  <path class="cls-8" d="m272.45,644.06l-5,14h-25.51c-3.92,7.91-10.03,14.54-17.6,19.08-3.76,2.23-7.83,3.87-12.09,4.86h0c-1.49-1-97.27-64.46-95.62-76.73s-20.62-274.84-20.62-274.84l107.17-39.62s-.02.1-.05.14l-20,55.88c-.11.27-.2.53-.28.76l-.37,1c-.11.3-.2.54-.26.72-.03.12-.07.24-.11.35v.12h0l17.8,11.47-23.07,20.36,35.45,120.5,16.44,46.06,24.79,69.48,18.93,26.41Z"/>
  <path class="cls-8" d="m212.25,682c-9.06,3.31-23.07,22.29-23.07,22.29l-5,12.37h0s-6.74,15.25-8.24,20.58c-3,10.88-7.42,44.58-7.42,44.58l-25.55-9.08s-10.8-5.76-14-8.26c-8.3-6.42-29.67-29.7-29.67-29.7,0,0-54.08-42.79-61.85-63.56-6.51-17.42-3.61-57.37,4.13-74.28,1.1-2.4,5.62-5.8,6.59-8.26.91-2.3-.13-7.43,0-9.9.58-11.2,9.89-43.75,9.89-43.75l5-8.24s6.52-66.19,12.36-87.5c3.54-12.93,16.26-47.28,16.26-47.28,0,0,.63-10.75.24-13.79-1.54-11.91,4.11-47.86,4.11-47.86h9.89l36.25,106.54,20.61,98.21-.81,94.1,12,12.65,38.27,40.14h0Z"/>
  <path class="cls-14" d="m367.26,249.55c13.19,46.22,38.15,49.2,50.3,66,3.55,4.92,4.12,23.94,4.12,23.94,0,0-49.46-13.2-47.82-9.07s-5.77,93.26-10.72,127.1c-2.08,14.19-8.07,35.37-14.33,55.17-8.66,27.38-17.83,52.12-17.83,52.12l-79.97-170.81s-2.13-5.23-4.81-12.63h0c-2.1-5.84-4.56-13-6.63-20.07-.58-2-1.13-4-1.62-5.89s-.9-3.55-1.27-5.25c-.47-2.19-.85-4.28-1.11-6.18,0-.22-.06-.43-.08-.63,0-.46-.11-.9-.15-1.34-.21-2.72-.89-5.39-2-7.89-4-8.58-12.06-7-12.06-7-17.77,12.59-30.55,19.21-39.24,22.67h0c-10.67,4.24-15.17,3.74-15.17,3.74,0,0,4.09-18,7.42-23.1,13.77-21,28-37.55,28.79-39.48.03-.04.04-.09.05-.14h0c3.73-7.63,6.32-13,9.4-17.55,6.23-9.15,23.59-20.26,24.52-25.37"/>
  <polygon class="cls-4" points="162.79 535.12 161.96 629.21 174.01 641.86 174.01 633.34 184.22 634.16 162.79 535.12"/>
  <path class="cls-9" d="m321.09,739.8c5,0,0,7.43,0,7.43,0,0-39.22,20.16-53.6,21.46-19.39,1.77-55.16-11.16-75.88-17.62-3.84-1.2-6.48-2.24-7.39-3-5.63-4.84-.27-30.15,0-31.32h0s3.34-9.46,5-12.37c3.9-7,14-19,23.07-22.29,21.44-4.95,21.72-18.7,29.69-23.93,5.34-3.51,25.55,0,25.55,0l-10.75,23.84s4.94,15.68,19.79,20.63,33.8,4.13,33.8,4.13l6.59-14s9.9,5.88,9.9,14.09c0,6-.44,11.6-7.18,16.77,12.61,5.26,1.41,16.18,1.41,16.18Z"/>
  <path class="cls-8" d="m279.04,757.14s37.1-17.34,42-17.34"/>
  <path class="cls-2" d="m285.41,736.51s7.65-.83,24.13-7.43c3.61-1.36,7.02-3.2,10.14-5.46"/>
  <path class="cls-14" d="m316.96,692.76l-6.59,14s-19,.83-33.8-4.13-19.79-20.63-19.79-20.63l10.71-23.93,5-14,6.59-11.55,15.25-5.78,5.77-20.63,16.86,86.65Z"/>
  <path class="cls-8" d="m300.06,606.1l-3.11,11.1h0l-2.66,9.52-15.25,5.78-6.59,11.55-19-26.41-24.79-69.48-16.44-46.06-35.38-120.49,23.09-20.34-17.8-11.47c8.69-3.46,21.47-10.08,39.24-22.67,0,0,8.1-1.62,12.06,7,1.11,2.5,1.79,5.17,2,7.89,0,.44.1.88.15,1.34-.13.87-.13,1.75,0,2.62.22,1.44.62,2.85,1.18,4.19.37,1.7.79,3.45,1.27,5.25.49,1.93,1,3.91,1.62,5.89l5.8,23.46,1.4,5.7h0l53.21,215.63Z"/>
  <path class="cls-8" d="m236.68,350.13c-.56-1.34-.96-2.75-1.18-4.19-.13-.87-.13-1.75,0-2.62,0,.2.06.41.08.63.26,1.9.63,3.99,1.1,6.18Z"/>
  <path class="cls-1" d="m239.57,361.27s31.27-28.37-4.23-48.17c-30.48-17-47.92,22.38-52.2,33.74-.11.27-.2.53-.28.76-.3.77-.49,1.37-.63,1.73-.03.12-.07.24-.11.35v.12"/>
  <path class="cls-14" d="m300.06,606.1l16.08-36.32s12.36-9.9,5,14-14.84,47.05-14.84,47.05l27.21,27.24s3.29,6.59-6.6,20.63l-9.9,14"/>
  <path class="cls-14" d="m161.96,629.21l-23.12-28.89s-22.1-11.17-42-12.11c-2.78-.15-5.56-.06-8.32.28-21.43,2.75-30.5,3.58-32.15,6.88s12.36,0,12.36,0c0,0,36.6-19.88,70.91,13.3l34.31,33.19"/>
  <path class="cls-14" d="m49.29,616.3c5.7,2.18,18.91-15.47,18.91-15.47v-2.44s-16.19,6.26-18.91,11c-.86,1.51-1.61,6.3,0,6.91Z"/>
  <path class="cls-5" d="m279.04,736.51c.27-1.31,6.16-1.87-6.59-3.75l-18.19-2.7s-7.19,7.68,2.52,10.38"/>
  <path class="cls-17" d="m355.77,337.59c-1.42.62-4.88,2.24-3.66,9.37s11,2,11,2c0,0,2-4.08,1.62-7.54-.26-2.02.09-4.08,1-5.9,0,0,5.29,2.85,2.44,11s-3.86,11.61-11.19,11-13.21-5.91-13.42-9.37-.41-12,6.71-14.66,10.58-1,10.58-1l-.61,5.49-4.47-.39Z"/>
  <path class="cls-17" d="m344.18,362.64c-1.42.61-4.88,2.24-3.66,9.36s11,2,11,2c0,0,2-4.07,1.63-7.54-.26-2.02.08-4.08,1-5.9,0,0,5.28,2.85,2.44,11s-3.87,11.61-11.19,11-13.22-5.91-13.42-9.37-.41-12,6.71-14.66,10.58-1,10.58-1l-.61,5.49-4.48-.38Z"/>
  <path class="cls-17" d="m325.34,387.49c-1.54.12-5.34.57-6.44,7.72s9.78,5.41,9.78,5.41c0,0,3.21-3.22,3.92-6.63.4-2,1.39-3.84,2.84-5.27,0,0,4.11,4.38-1.17,11.2s-7.33,9.78-14.09,6.88-10.67-9.79-9.76-13.14,3.41-11.52,11-11.78,10.35,2.39,10.35,2.39l-2.32,5-4.11-1.78Z"/>
  <path class="cls-17" d="m294.56,391c-.82-1.31-3-4.47-9.81-2.14s-.27,11.18-.27,11.18c0,0,4.34,1.37,7.69.42,1.96-.58,4.05-.55,6,.07,0,0-2,5.67-10.46,4.15s-12.06-2-12.61-9.31,3.73-14,7.11-14.76,11.78-2.3,15.52,4.32,2.68,10.29,2.68,10.29l-5.52.27-.33-4.49Z"/>
  <path class="cls-17" d="m268.1,370.25c-.55-1.44-2-5-9.2-4s-2.46,10.91-2.46,10.91c0,0,4,2.19,7.46,1.92,2.03-.18,4.07.25,5.85,1.24,0,0-3,5.18-11.07,2s-11.43-4.32-10.54-11.61,6.4-13,9.86-13.07,12,.05,14.38,7.28.61,10.61.61,10.61l-5.47-.82.58-4.46Z"/>
  <path class="cls-17" d="m250.23,353.83c-1.16,1.66-2.98,2.74-5,2.95-.18.03-.36.05-.54.05-.33.03-.67.03-1,0-1.53-.08-3.04-.42-4.46-1l-1.21-.48c-.48-1.8-.9-3.55-1.27-5.25.14.35.23.55.23.55,2.08,1.1,4.36,1.76,6.7,1.93.25.02.51.02.76,0h0c.77-.06,1.55-.03,2.32.08,1.22.16,2.4.56,3.47,1.17Z"/>
  <path class="cls-17" d="m253.92,347.42c-.07.57-.23,1.12-.46,1.65l-4.32-.65-1.13-.17.52-4.1v-.36c-.74-2.2-2.69-3.76-5-4-1.4-.21-2.81-.21-4.21,0-1.78.05-3.32,1.27-3.76,3-.05.17-.09.34-.12.52,0-.46-.11-.9-.15-1.34-.21-2.72-.89-5.39-2-7.89.76-.82,1.62-1.52,2.58-2.09.75-.49,1.62-.77,2.51-.83,1.52-.04,3.05.03,4.56.22,3.38.48,7.3,1.84,9.21,5.64.24.46.44.93.6,1.42,1.11,2.85,1.52,5.94,1.17,8.98Z"/>
  <path class="cls-17" d="m352.11,347c1.88-1.56,10.78-6.31,8.34,5.09s-5.37,14.21-9.76,15.47c-2.14.62-7.53.41-6.3-6.31.88-5.49,3.6-10.52,7.72-14.25Z"/>
  <path class="cls-17" d="m362.69,323.34c3.25-1.22,11-.61,10,3.26-3,11.28-5.37,14.21-9.76,15.47-2.14.62-7.52.41-6.3-6.31s2.27-10.99,6.06-12.42Z"/>
  <path class="cls-17" d="m339.02,372c2.18-1.09,11.93-3.68,7,6.86s-8.47,12.6-13,12.83c-2.22.12-7.42-1.32-4.7-7.58,2.09-5.13,5.86-9.4,10.7-12.11Z"/>
  <path class="cls-17" d="m311.9,393.34c2.17,1.13,10,7.49-1.44,9.67s-15.16.57-18-3c-1.4-1.73-3.3-6.78,3.36-8.26,5.38-1.31,11.06-.75,16.08,1.59Z"/>
  <path class="cls-17" d="m282.75,384.42c.87,2.28,2.5,12.25-7.5,6.27s-11.71-9.66-11.5-14.23c.11-2.23,2-7.26,8-3.95,4.91,2.6,8.79,6.8,11,11.91Z"/>
  <path class="cls-17" d="m260.5,360.44c.3,2.43-.54,12.49-8.79,4.26s-9-12.22-7.7-16.6c.65-2.14,3.74-6.55,8.72-1.88,4.14,3.72,6.88,8.73,7.77,14.22Z"/>
  <path class="cls-8" d="m319.38,540c.81,1.83,10.37,24.43,10.37,24.43l.57,2.84"/>
  <path class="cls-8" d="m243.31,376.89c.61.4,3.45,7.73,3.45,7.73l2.85,7.54"/>
  <rect class="cls-1" x="-87.99" y="-173" width="746.79" height="965"/>
  <path class="cls-4" d="m216.32,169.48s-3.34-1.2-4.27.8-2,11.88-.67,15.08,6.81,6.41,6.54,2.54-1.6-18.42-1.6-18.42Z"/>
  <path class="cls-9" d="m225.84,183.48c.15-.31.2-.66.15-1-.52-2.7-2.8-14.79-3.5-19.19-.78-5-11.63-2.74-13.35-.56-4.4,5.6-1.44,21.11-.37,25.41s7.25,20.66,10.38,25.43,12.48,11.57,15.65,12.26c1.42.31,1.57.47,1.3.56-.6.16-1.22-.19-1.38-.8-.02-.07-.03-.13-.04-.2l-2.34-18-1.71-11c-.03-.23-.11-.45-.23-.65l-7.45-12.47s-6-11.24-6.65-11.35-2.33.85-2.5,5.72c-.1,2.91.2,5.82.9,8.64-.57-1.53-1.06-3.09-1.45-4.68-.18-.74-.34-1.51-.47-2.28-.43-1.75-.41-3.58.06-5.32.42-1.14.96-2.22,1.61-3.24.55-.9.27-2.09-.64-2.64-.28-.17-.6-.27-.93-.28h-.04s2.38-1.87,4.44,3.36c.05.12.11.23.18.33l8.14,12.34.24-.39Z"/>
  <path class="cls-14" d="m220.59,188.83s-4.54,7.47-2.4,10.41c1.27,1.75,2.91,3.21,4.8,4.27,0,0,2.14-8.54.8-11.21-.65-1.48-1.78-2.7-3.2-3.47Z"/>
  <path class="cls-14" d="m382.04,163.08s10.41-5.61,9.21,5.2-2.8,24.82-6,26.82-20.41,16.82-18.82,13.61,4.81-34,4.81-34l10.8-11.63Z"/>
  <path class="cls-9" d="m377.72,174.93v-10.11s4.46-6,9.39-4.7,6.47,1.93,6.62,9.15c-.04,7.49-1.56,14.89-4.46,21.79-2.47,5.42-8.62,19.38-11.55,22.27s-13.56,8.73-13.56,8.73l2.11-14.73s11.6-12.18,12.84-15.19,2.77-5.53-.77-9.51c0,0-2.16-1.06,1.54-6.43,1.33-2.07,2.77-4.08,4.31-6,0,0,2.46.37,2.77,7.59l-.31,6.62s1.85-5.16,1.54-8.24c-.51-2.79-1.3-5.53-2.35-8.17,0,0,2-3.33,4.62-3.49,0,0-3.07-1.93-7.93,5s-4.81,5.42-4.81,5.42Z"/>
  <path class="cls-9" d="m234.73,244.93l4,67.06s-.6,6.61,16,17.41,50.84,25.62,57.64,33.83c0,0,18-16.81,29.62-29s17.62-14.21,19.22-34.83,4.3-83.16,4.3-83.16l-130.78,28.69Z"/>
  <path class="cls-14" d="m234.73,244.93s9.61,23.72,15.48,28,18.68,15.78,32.56,16.83,31.31,1,37.82-3.8,29.16-28.5,28.36-28.5-114.22-12.53-114.22-12.53Z"/>
  <path class="cls-4" d="m205.78,101.83s4.4-27.62,28-45.23,43.25-32.83,76.06-26.82,56.85,27.22,65.06,37.22,20,50.1,12.77,89.17c0,0-8.42,19.45-12.77,34.36s-12.6,29.51-19,34.45-120.54-.1-120.54-.1l-4-13.37s-10.81,3.6-14-33.23c0,0-12.81-17.21-14.41-30.82s-3.58-20.01,2.83-45.63Z"/>
  <path class="cls-9" d="m234.33,246.74c-2.79-6.82-4-16-4-29.22s-5.2-40.43-5.2-40.43c0,0-.8-30.82,2-42s2.4-40.83,16-46.84,18.41-10,37.23-8.4,19,3.38,44.43,6c23.76,2.45,39.5,30,39.63,63.65,0,4.05,3.53,11.75,3.6,15.81.17,9.89-5.76,21.5-3.6,39.43.42,1.44,1.1,2.8,2,4,.86,1.25-2.56,29.59-5.2,37.63-7.21,13.88-4.27,14.68-30.62,31.93-11.78,9.4-12.15,13.8-46.77,5.79-14.18-3.31-45.1-26.6-49.5-37.35Z"/>
  <path class="cls-4" d="m230.73,103.17c1.95.82,4.13.91,6.14.26,3.47-1.06-1.55,1.28,4.59-5.93s12-6.73,16.49-4.86,13.61-1,23.22-2.34,12.33-1.61,24.1.55c10.24,1.88,10.26,4.3,15.86,3.77s9.53,4,12.74,8.3,1.1,9.54,10.17,11.67,7.51,7.56,11.91,22c4.35,14.32,12.16,20.33,17.27,24.11,6.14,4.55,2.69-77.6-28-81.33s-107.82-19.17-113.69,2.98c-5.87,22.15-.8,20.82-.8,20.82Z"/>
  <path class="cls-14" d="m274.56,232.43c-4.76.27-9.94,4.09-10.47,5.87s0,2,4.78,2h16.84c6.13,0,30.65-.37,34.39-1.3,3.41-.99,6.59-2.63,9.37-4.84,1.07-1.07-.8-1.38-11.47-2.82s-43.44,1.09-43.44,1.09Z"/>
  <path class="cls-4" d="m288.51,182.07c5.88-2.67-7.36,2.22-9.22,5.43s-12.81,12.11-11.53,19.85,14.55,3.5,17,3.76,5.63-.16,9.68-5-5.93-24.04-5.93-24.04Z"/>
  <path class="cls-13" d="m269.38,234.47s8.55-5.54,12.82-8,5.86-2.37,10.93,0c0,0,1.07,1,5.61-1.51s20,4.67,23.48,6.54-.29,2.95-1.07,2.94c-3,0-3.87-1.05-12.66-.64-5.44.25-5.61-.41-7.32.7-4.48,2.91-7.29.68-13.91,0-3.95-.41-10.41,2.87-15.48,3.67s-2.4-3.7-2.4-3.7Z"/>
  <path class="cls-15" d="m275.66,237.66c-1.14.31-4.79,1.34-4.26,3.48s10.67,7.47,21.75,6.67,21.88-3.07,27-7.07c2.34-1.82,4.77-4.44,3.7-4.71s-17.72-1.09-26.13.4c-9.14,1.63-8.65-2.49-22.06,1.23Z"/>
  <path class="cls-4" d="m275.84,146.13c-.8-.26-20.81-7.47-27.22-7.2s-16.28,6.4-17.88,11.21,0,4.53,0,4.53c0,0,4.8-6.14,8-6.4s9.6-2.4,17.88-.27,21.61,3.47,22.68,1.6-3.46-3.47-3.46-3.47Z"/>
  <path class="cls-4" d="m315.03,142.38c2.07-.29,20.22-7.82,24.37-6.37s15.81,2.89,19.18,13.61-4.66-3.19-10.89-4.92-32.66,4.92-32.66,4.92c0,0-8,2.61-8.3,0s8.3-7.24,8.3-7.24Z"/>
  <path class="cls-14" d="m253.95,162.48c-2.8,0-9.61,4.9-10,5.45s4.6.54,10.41,1.69,17-.54,19.81.06,7.41.09,3.81-3-9.81-4.84-15.42-4.24c-2.85.41-5.75.42-8.61.04Z"/>
  <path class="cls-7" d="m274.16,165.72c-.2-.67-13.36-11-25.22,0,3.06,3.59,7.68,5.46,12.37,5,8.25-.64,10.04-1.98,12.85-5Z"/>
  <path class="cls-14" d="m321.33,159.48c-2.79.93-5.41,2.33-7.74,4.13-1.47,1.06-7.34,4.82-1.33,4.28s15.42.54,19.18-.55c6.25-1.82,6-.67,7.37-1.62s3.47-.05,4.81,0,3.06-.46-1.74-3.35-14-3.21-19.45-3.21"/>
  <path class="cls-7" d="m324.14,158.34s-5.94,2.61-7.14,4.58,6,4.76,11,5,10.84-4.81,10.84-4.81c0,0-2.35-6.31-14.7-4.77Z"/>
  <path class="cls-6" d="m268.68,162.48c-4.63-2.33-10.1-2.33-14.73,0,0,0-.88,9,7.36,8.2s6.69-6.2,7.37-8.2Z"/>
  <path class="cls-4" d="m276.63,167.48c2.06,1.43-5.94-9.27-16.23-7.69-5.87,1.05-11.3,3.77-15.66,7.83-.07.06-.09.17-.03.24.06.07.17.09.24.03,4.47-2.74,16.16-11.18,31.68-.41Z"/>
  <path class="cls-6" d="m335.38,159.68c-.22-.47-8.46-5.13-14.76,1,0,0-.85,8,7.39,7.19s6.69-6.19,7.37-8.19Z"/>
  <circle class="cls-14" cx="261.3" cy="165.72" r="2.08"/>
  <circle class="cls-14" cx="327.99" cy="162.92" r="2.08"/>
  <path class="cls-9" d="m301.38,172.69c.8,12.61,11,21.5,11,21.5,11.75,11.95,1.42,16.37-2.77,16.52-14.56.56-27.85.81-27.85.81-20.47-1.41-5.21-17.33-5.21-17.33,5.71-5.64,9.25-13.11,10-21.1"/>
  <path class="cls-4" d="m285.97,203.91s-6-3.6-8-2.4-4.16,6.06,1.32,5.83,6.48-.83,6.68-3.43Z"/>
  <path class="cls-4" d="m296.84,204.3s5.14-3.48,8.35-3,6.81,2.44,6.61,3-3,2.07-6.61,1.84-8.72.56-8.35-1.84Z"/>
  <path class="cls-9" d="m361.23,246.34c-6.07,14.41-5.41,12.81-29.82,32.83-11.78,9.4-13,12.9-47.57,4.89"/>
  <path class="cls-14" d="m315.16,197.38c2.44.97,3.81,3.56,3.24,6.12-1.1,7.13-10.29,9.15-21.57,7.64.01,0,24.1-.27,18.33-13.76Z"/>
  <path class="cls-14" d="m310.2,160.7c-1,.76,8.8-6.63,15-7.23s18.42,1.35,22,5.68c.02,0-21.97-9.44-37,1.55Z"/>
  <path class="cls-4" d="m343.08,164.41c2,1.47-5.9-7.94-16.28-7.07-8.14.68-11.22,5.63-13.48,7.74-.48.45-2.36.54-2,1.09,2.23,3.52,12.88-15.38,31.76-1.76Z"/>
  <path class="cls-14" d="m278.29,162.83c1,.76-8.79-6.62-15-7.22s-18.41,1.35-22,5.68c-.02,0,21.98-9.44,37,1.54Z"/>
  <path class="cls-16" d="m214.99,189c1.12,3.16,1.33,3.07,1.33,3.07,0,0-2.8-10.27-2.67-13.34s0,6.5,1.34,10.27Z"/>
  <path class="cls-4" d="m314.89,171.49s10.81,4.9,17,4.8,11.4.7,12.11.1-14.5.74-24.72-3.76c-1.21-.54-4.69-2.15-4.39-1.14Z"/>
  <path class="cls-14" d="m272.36,173.62s-11.74,6.4-18.68,7.21,5,.23,11.68-3.24,13.41-6.59,7-3.97Z"/>
  <path class="cls-4" d="m271.7,174.36c-3.71.62-14.81,2.67-21.35,1.92-9.08-1,1.8.61,2.8.61,20.18-.09,12.07-.11,14.74-.51,1.48-.16,2.85-.88,3.81-2.02Z"/>
  <path class="cls-4" d="m232.84,102.9c1.86,2.94,2.93,4.54,4.8,4s-3.25,4.33-6.56-.77,1.76-3.23,1.76-3.23Z"/>
  <path class="cls-4" d="m326.27,203.47c3.22,0,3.22-5,0-5s-3.22,5,0,5Z"/>
  <path class="cls-4" d="m276.73,262.75c.78-.47,18.72-14.41,37.2-1.06s-5.08-1.54-5.08-1.54c-4.51-2.15-9.47-3.18-14.46-3-8.42.27-33.55,15.21-17.66,5.6Z"/>
  <path class="cls-11" d="m288.36,151.29l-43.93,2.44s-24.71,4-24.4,18.32,4,33,11.59,35.73,30.51,3.06,34.47,1.22,12.2-6.41,17.69-20.46,7.63-14.66,7.63-14.66h6.43s8.23,25.05,21,32.68,37.83-2.14,39.66-4,11.59-26.57,10.06-33-8.54-18-31.72-18-48.48-.27-48.48-.27Z"/>
  <path class="cls-12" d="m267.77,155.45s-28.37,1.53-33.55,5.19-8.85,3.66-9.15,12.83.61,24.43,4.27,27.79,18.3,6.1,22,6.1,14.34-.3,18.91-4.58,12.51-21.37,12.51-21.37l4.54-10.41s-3.36-15-7.93-15.27-11.6-.28-11.6-.28Z"/>
  <path class="cls-12" d="m326.2,154.27s26.55-.91,33.56,9.47,4.58,17.1,4.58,17.1c0,0-3.66,15.27-7.32,18s-23.49,8.55-31.43,5.19-16.77-8.55-23.18-28.4l-1.83-7s4.34-11.4,7.63-13.43c3.83-2.38,17.99-.93,17.99-.93Z"/>
  <polygon class="cls-9" points="284 156.13 302.31 156.44 297.12 166.82 288.58 166.82 284 156.13"/>
</svg>