<?xml version="1.0" encoding="UTF-8"?>
<svg id="Layer_2" data-name="Layer 2" xmlns="http://www.w3.org/2000/svg" xmlns:xlink="http://www.w3.org/1999/xlink" viewBox="0 0 628.39 792.88">
  <defs>
    <style>
      .cls-1 {
        clip-path: url(#clippath);
      }

      .cls-2, .cls-3 {
        fill: none;
      }

      .cls-2, .cls-4, .cls-5, .cls-6, .cls-7, .cls-8, .cls-9 {
        stroke-width: 0px;
      }

      .cls-10 {
        fill: #9a3d3d;
      }

      .cls-10, .cls-11, .cls-12, .cls-13, .cls-14, .cls-15, .cls-16, .cls-17, .cls-18, .cls-19, .cls-20, .cls-21, .cls-3 {
        stroke: #231f20;
        stroke-miterlimit: 10;
      }

      .cls-11 {
        fill: #7d4e1c;
      }

      .cls-12 {
        fill: #e5bfa0;
      }

      .cls-13 {
        fill: #eabea3;
      }

      .cls-14 {
        fill: #e9bfa3;
      }

      .cls-15 {
        fill: #fff;
      }

      .cls-16 {
        fill: #e1e321;
      }

      .cls-17 {
        fill: #e1b6af;
      }

      .cls-18 {
        fill: #8f3936;
      }

      .cls-19, .cls-9 {
        fill: #231f20;
      }

      .cls-20 {
        fill: #f9a460;
      }

      .cls-21, .cls-4 {
        fill: #f9c9d3;
      }

      .cls-5 {
        fill: #472700;
      }

      .cls-6 {
        fill: #5c3708;
      }

      .cls-7 {
        fill: #361800;
      }

      .cls-8 {
        fill: #43aee3;
      }
    </style>
    <clipPath id="clippath">
      <polyline class="cls-2" points="14.51 0 624.98 0 624.98 791.96 14.51 791.96"/>
    </clipPath>
  </defs>
  <g id="Layer_1-2" data-name="Layer 1">
    <rect class="cls-8" width="628.39" height="792.88"/>
    <g class="cls-1">
      <g>
        <path class="cls-19" d="m406.08,262.39c-.12,3.01.04,6.02.47,9,.3,2.55.61,4.55.61,4.55l-3.82-.28-6.78-.49-1.43-.11c1.12-1.38,2.19-2.75,3.2-4.09.63-.83,1.23-1.65,1.82-2.45l.26-.36c1.18-1.64,2.28-3.23,3.29-4.74"/>
        <path class="cls-19" d="m240.06,227.61l-9.88,4.33c-13.86,4.06-12.25,0-12.25,0l-10.12-20.27,9.14-21.29s43.47,23.68,50.21,23c0,0-48.82,13.83-34.52,7.75,2.87-1.17,5.37-3.11,7.22-5.59-1.04,1.46-7,10.33.2,12.07Z"/>
        <path class="cls-9" d="m511.07,723.55s22-6.66,29.67,4.67,12,18.5,10.33,24-9.66,38.33-9.66,38.33l-25-8-5.34-59Z"/>
        <path class="cls-4" d="m542.18,785.14c-1.31-.87-2.7-1.63-4.14-2.25-2-.56-8.33-.34-8.33-.34l-13.33,8.67.66,3.17h26.17l-1.03-9.25Z"/>
        <path class="cls-19" d="m436.91,302.87s15.16,5,24.83,14.67,45.18,24.78,45.18,24.78c0,0,14.15,2.74,21.49,12s9.66,24.91,9.66,24.91l-2,15-1.33,65.33,5.5,9.67-4.83,15,9,18.17,1.16,34,19.5,69.66v54.34l-2.5,48.83-1.5,21-1.5,21-10.16,6.5-6.17,36.67h-4l2.17-3.84,2.16-14.66,2.34-15.34s3.16-10.66,2.66-13.83-.16-11.83-11.66-18.5-24.34,3.17-24.34,3.17l-6.5,4-100-443.5,30.84,10.97Z"/>
        <path class="cls-19" d="m438.18,341.87h49.91l38.34,71,9,141.33,12.64,20.67,7.34,41.33-19.34,94.67-29,12.66,1,34.34s4.67-4.34,1.67,4.33-2.67,20.67-2.67,20.67c0,0,1.34,3.33,8,3.33s11.34-5,11.34-5l3.33,1.33s-1.33,6.67-10,8l-2.67,3.84-26.89,1.5-122.11-271,70.11-183Z"/>
        <path class="cls-19" d="m436.91,664.87s4.16,17.33,3.5,75.33l-.67,58-76.33-1.33-141.34-380v-35.65l23.67-45.9,191.17,329.55Z"/>
        <polygon class="cls-19" points="317.15 271.76 324.19 290.39 321.66 288.63 315.91 271.38 317.15 271.76"/>
        <path class="cls-19" d="m353.41,300.39c-.5,1.33-7.67.5-9.17-.93"/>
        <line class="cls-3" x1="345.74" y1="280.49" x2="347.21" y2="285.56"/>
        <path class="cls-19" d="m382.51,267.47l2.31.24c.02.82-.04,1.65-.16,2.46-.19,1.36-.41,2.69-.69,4"/>
        <path class="cls-19" d="m403.41,268.39s-1,1-2.68,2.65l-4.17,4.08c-2.7,2.6-6,5.74-9.48,9,2.94-3,5.62-6.11,8.05-9.1,1.12-1.38,2.19-2.75,3.2-4.09.63-.83,1.23-1.65,1.82-2.45l3.26-.09Z"/>
        <path class="cls-21" d="m242.18,392.87l41,21.25-57-12.5,31.25,51,81.5,100.75,81,89.75s16.73,27.75,18.25,36.27l-1.25-14.5-19.75-54.75-124-303.5-50,35.23"/>
        <path class="cls-21" d="m240.01,393.87l27.4,14-44.5-9.5,2.5,9.5,17.77,34,74.22,94,49.5,56,51.5,56.5s12.5,8.5,15.5,30.5,3,115.5,3,115.5l-246.49-2.5-3-16.5v-83s-6.5-67-6.5-68.5-3-47.5-3-47.5l-11.5-61.5-4-77,36-135.5,53-15-8.23,54.5v9.5l-2.79,37.5-.38,5Z"/>
        <path class="cls-19" d="m142.41,291.87s-13,14-17,24-33.5,56-33.5,56c0,0-5.69,1.61-7,3-4,4.21-3.23,8.75-10,21s-21.62,20.68-27,29c-5.86,9-11.5,41.5-11.5,41.5,0,0-.09,51.48,8,66,2.33,4.19,12.33,14.83,12.33,14.83,0,0,15.33,17,22.17,20.17,5.55,2.57,24.5,0,24.5,0,5.87-1.97,11.89-3.45,18-4.43,10-1.57,16-2.07,36-40.07l12.5,40.07,4.5,8.93,2.7,62.5s10.8,77.5,8.8,82.5-2.5,75-2.5,75h7v-93l-8-62,4-5.5-3.5-51.5,15.5,39s-25.5-75-25.5-77,.5-17,.5-17l16,34.5,5.5,7.5-6.5-17s-4.5-66.5-3.5-68.5l-4-6,11-49,25-65.5v-9.5l-74.5-59.5Z"/>
        <polygon class="cls-9" points="174.41 257.38 161.41 263.88 167.91 271.38 174.41 257.38"/>
        <path class="cls-21" d="m164.91,487.39s-16.5,63.5-36,69-47,10-52.5,3-13.12-10.87-17-15c-3.6-3.84-6-9.93-8.5-19.22s-12-52.78-9.5-62.28,5.5-25.5,5.5-25.5c0,0,3-12,7-15.5s19-18.5,19-18.5l16.5-25,8.5-7.5s18.5-27,20-30,24.5-44,24.5-44l58.5,21.5s17,27.5,16,33-52,136-52,136Z"/>
        <path class="cls-19" d="m211.82,281.27l-10.91,37.12s-4,4-2.5,5.5,12,23,10.5,26,3,14.5-38.5-18l-28-35v-5l5.27-4.5,5.73-6.12,14.59-29.9,43.82,29.9Z"/>
        <path class="cls-13" d="m261.82,170.46c-2.83-.5-11.49,0-11.49,0l-6.08-4.73s-6.75-.68-12.15,3.37h0c-3.26,2.44-6.64,4.7-10.15,6.77l-7.77,3.16s-26.5,4.27-28.72,11.7c-6,20.24-22.29,77.7-22.29,77.7l-15.49,30.84,23.39,26,4.93,4.7,9.46,5.4,26.36-54.05,33.1-23.65s11.09-8.1,12.84-12.16c1.13-2.64,0-11.49,0-11.49,0,0,12.95-20.61,14.87-28.38,1-3.94,0-16.21,0-16.21,0,0,6.08-2,6.08-7.44s-11.86-10.66-16.89-11.53Zm-29.73,61.48c-11.12,4.06-9.83,0-9.83,0l-10.44-18.56,7.43-12.51c3.14.42,6.32.42,9.46,0,0,0-6.08,26.35,5.4,20.27,2.41-1.29,4.42-3.22,5.79-5.59-.83,1.46-5.62,10.32.16,12.07l-7.97,4.32Z"/>
        <path class="cls-13" d="m250.33,170.45s12.85,9.42,13.51,14.19,0,21.62,0,21.62c0,0-4.94,3.56-9.41-.28-1.93-1.84-3.34-4.14-4.1-6.69-2.81-7.94-6.43-15.57-10.81-22.76,0,0-.35-5.79-20.74.62l13.3-8.05s10.81-10.81,18.25,1.35Z"/>
        <path class="cls-3" d="m239.9,215.54l.11-.19h0c4.47-7.75,4.24-14.05,2.88-18.53-1.8-5.93-8.51-17.89-14.22-20.27-1.51-.63-6.42,1.1-6.42,1.1l-8.07,1.38"/>
        <path class="cls-3" d="m272.62,189.37s-4,1.39-8.78-4.73"/>
        <path class="cls-12" d="m239.7,213.46s-.79-4.07-5.29-2.07l-3,5.56,2.7,4.18,5.59-7.67Z"/>
        <path class="cls-14" d="m252.44,214.87s-2.64-3.34-5.57,0-2.62,9.74-2.62,9.74l4.08.69,4.11-10.43Z"/>
        <path class="cls-14" d="m263.84,193.87s-7.43-1.5-5.93,4.5l1.5,6,4.43,1.87"/>
        <path class="cls-14" d="m271.28,174.53s-4.74,8.3,1.34,7.86l6.08-.45"/>
        <path class="cls-21" d="m462.41,338.39l24,45.5-17,8,35.5,4s0,31-5,55-16.25,54-16.25,54l-46.75,96-14.18,27.24-31.32-87.26,38.5-212,32.5,9.52Z"/>
        <path class="cls-21" d="m462.41,338.39l20.5,29,7.5,16-10.17,6.5,28.17,2.33s.33,23.33-2.34,40-13,58.83-18.83,70.67-43.33,89.66-43.33,89.66l-16.67,35.58,10.94,40.92,1.58,129.17,61.83-2.83-.16-58.5,1-49.67-3-32.67-.67-43v-50.16l5.33-25.34,9.17-87.83,3.67-22.33-2.84,44.5s-3.5,29.66-.16,51.33,5.16,33.17,5.16,33.17l-5.66,4.5-.67,15.66,36.17,19-15.19-5.18.83,10.16,17.67,6.34-29.83-6.5-20.5,9.33,44,20.83-41,5.5,2.16,89s14.17-7.83,20-5.66,11.67.66,24,21.66l2.84,11.34,2.83.16,2.67-62.83,1.66-74-4.16-22.67-33.34-22.5h0l32,17.34s.17-3.67.17-4.17-9.67-32.17-11-41.33-4-35-4-35l-7.83-22.67,5-12.67-5.17-7.66s5.91-66.29,2.33-88c-1-5.87-6.26-17-10.16-21.5-16.34-18.79-35-23-87.41-47.74s24.91,32.76,24.91,32.76Z"/>
        <path class="cls-19" d="m430.63,647.46c3.64,9.1,6.15,15.85,6.28,17.43.18,2.17-2.45-5.59-6.28-17.43Z"/>
        <polygon class="cls-19" points="321.66 288.63 315.91 271.38 317.15 271.76 324.19 290.39 321.66 288.63"/>
        <path class="cls-19" d="m353.41,300.39c-.5,1.33-7.67.5-9.17-.93"/>
        <line class="cls-3" x1="345.74" y1="280.49" x2="347.21" y2="285.56"/>
        <path class="cls-19" d="m328.41,301.87c12,6.25,24.25,8.25,35.25,1.75h0c3.7-2.4,7.22-5.07,10.53-8"/>
        <path class="cls-19" d="m387.03,284.17v-.06c2.94-3,5.62-6.11,8.05-9.1,1.12-1.38,2.19-2.75,3.2-4.09l2.4.12,2.65.15h.07l3.1.15c.72,0-19.43-11.2-3.1-11.2,4,0,18.64,26.12,31.24,42l2.81,3.55h0c11.32,14.34,22.16,28.64,24.9,32.74,6,9,3.5,22.5,3.5,22.5-9-13.5-9.62-13-9.62-13-12.13,6.5-8.38,16.5-6.88,20.5s-3,15.5-4.5,18.5,3.5,18,3.5,18c6.91,16.75,9.32,35.03,7,53-.8,5.91-3.19,14.3-6.5,24h0c-13.19,38.53-41,97-41,97,5.43,14.05,16,47.67,22.72,68.57-.03-.07-.06-.14-.08-.21-10.22-25.57-29.14-69.36-29.14-69.36,0,0-99-220.5-107-239s-11.5-13-11.5-13l-39.67,18.94h-.06l-3,1.45-4.35,2.07s3.2-14.5,4.31-17.5c1-2.61,2.66-33.25,3.08-41.15.07-1.18-.07-1.42.1-1.85,2.63-6.69,14.25-16.72,20.64-20,4.31-2.22,19.07-3.5,19.07-3.5h.75l2.29.13"/>
        <path class="cls-13" d="m506.07,735.39l2,22.5s5.67-4.67,1.67,4.33-2.67,20.67-2.67,20.67c0,0,5.08,7.75,13.87,2,0,0,6.8-2,7.13-9.38.11-3.94.7-7.86,1.75-11.66l1.59-10,1.66,10.33v15.69l9.7,1.43,5.8-34.6s-7.83-23.74-22.16-20.74-20.34,9.43-20.34,9.43Z"/>
        <path class="cls-3" d="m511.07,773.22s10-2.9,13.67,4.67"/>
        <path class="cls-19" d="m340.66,304.39c8.47.35,15.46,1.85,25.88-3.75h0c.28-.14.57-.3.86-.47,2.37-1.35,4.65-2.87,6.82-4.53-3.31,2.93-6.83,5.6-10.53,8h0c-11,6.5-23.25,4.5-35.25-1.75"/>
        <polygon class="cls-13" points="321.66 288.63 315.91 271.38 317.15 271.76 324.19 290.39 321.66 288.63"/>
        <path class="cls-13" d="m353.41,300.39c-.5,1.33-7.67.5-9.17-.93"/>
        <line class="cls-3" x1="345.74" y1="280.49" x2="347.21" y2="285.56"/>
        <path class="cls-13" d="m328.41,301.87c12,6.25,24.25,8.25,35.25,1.75h0c3.7-2.4,7.22-5.07,10.53-8"/>
        <path class="cls-13" d="m403.7,263.37l-.07.32-.18,7.5-.11,4.42-.43,41.78,1.41,9.36,1.76,11.64,4.83,43.5-7.5,14,5,7c-3.5,35-26.5,75.62-26.5,75.62l-71.53-136.64-1.29-2.46-11.55-22.07h0c-1.97-3.24-3.7-6.63-5.17-10.13-6.57-15.53-7.13-30.72-6.58-40.17,0-.88.11-1.71.17-2.48.2-2.41.53-4.8,1-7.17"/>
        <polygon class="cls-16" points="377.23 401.25 358.41 383.88 304.41 325.63 297.53 317.33 309.09 339.42 366.25 397.27 377.23 405.38 377.23 401.25"/>
        <path class="cls-16" d="m387.18,407.87s.25-8.5-4.25-8.25-8.54,2.39-8.75,6.5c-.13,2.5-.13,5,0,7.5l3.75-3.5s1.15-6,2.7-6,3.74,1.16,3.52,4.33,3,3.42,3,3.42l.03-4Z"/>
        <circle class="cls-16" cx="380.66" cy="418.64" r="10.75"/>
        <polygon class="cls-16" points="379.22 400.33 397.41 349.38 403.66 331.63 404.32 326.75 406.07 338.38 399.41 356.88 382.91 399.63 379.22 400.33"/>
        <path class="cls-3" d="m254.43,205.98s-1.84,10.18-3,13.41c-.58,1.56-3.08,5.9-3.08,5.9,0,0-1.87,3.28-8.27,2.32"/>
        <path class="cls-3" d="m424.57,654.76c2.93,5.8-1.74,9.13-6.16,9.13s-8-4.82-8-10.75,2.11-9.56,6.5-9c3.07.38,3.51,2.37,7.66,10.62Z"/>
        <ellipse class="cls-3" cx="313.41" cy="652.64" rx="8" ry="10.75"/>
        <ellipse class="cls-3" cx="315.41" cy="774.14" rx="8" ry="10.75"/>
        <ellipse class="cls-3" cx="422.91" cy="773.14" rx="8" ry="10.75"/>
      </g>
    </g>
    <path class="cls-9" d="m270.62,173.44s-3.05-1.09-3.91.74-1.82,10.85-.61,13.77,6.22,5.85,6,2.32-1.48-16.83-1.48-16.83Z"/>
    <path class="cls-13" d="m279.29,186.23c.16-.31.2-.66.13-1-.47-2.46-2.56-13.51-3.19-17.53-.72-4.54-10.63-2.51-12.2-.51-4,5.12-1.32,19.28-.34,23.21s6.62,18.88,9.49,23.23,11.39,10.58,14.29,11.21c1.3.28,1.43.43,1.19.51-.53.17-1.09-.12-1.26-.65-.02-.08-.04-.16-.04-.24l-2.13-16.47-1.57-10.08c-.03-.21-.1-.41-.21-.59l-6.81-11.39s-5.49-10.27-6.07-10.38-2.13.79-2.28,5.23c-.09,2.66.18,5.32.81,7.9-.52-1.4-.96-2.83-1.31-4.28-.17-.67-.32-1.38-.43-2.08-.36-1.57-.32-3.2.11-4.75.38-1.05.87-2.06,1.47-3,.51-.82.25-1.9-.57-2.41-.26-.16-.56-.25-.86-.26h-.07s2.18-1.7,4.06,3.07c0,.1.1.21.16.31l7.45,11.26.18-.31Z"/>
    <path class="cls-19" d="m274.52,191.12s-4.15,6.83-2.2,9.51c1.16,1.6,2.66,2.93,4.39,3.9,0,0,2-7.8.73-10.24-.6-1.35-1.62-2.46-2.92-3.17Z"/>
    <path class="cls-19" d="m422.02,167.59s9.51-5.12,8.41,4.76-2.56,22.67-5.48,24.5-18.65,15.36-17.19,12.44,4.39-31.09,4.39-31.09l9.87-10.61Z"/>
    <path class="cls-13" d="m418.07,178.42v-9.24s4.08-5.5,8.58-4.29,5.91,1.76,6,8.36c-.04,6.84-1.42,13.61-4.08,19.91-2.25,5-7.87,17.7-10.55,20.34s-12.38,8-12.38,8l1.92-13.46s10.6-11.12,11.73-13.87,2.53-5.06-.7-8.69c0,0-2-1,1.4-5.88,1.22-1.88,2.53-3.7,3.94-5.45,0,0,2.25.33,2.53,6.93l-.28,6.05s1.69-4.71,1.41-7.53c-.45-2.58-1.16-5.1-2.11-7.54,0,0,1.8-3,4.22-3.19,0,0-2.81-1.76-7.24,4.62s-4.39,4.93-4.39,4.93Z"/>
    <path class="cls-13" d="m403.01,292.12c1.46-18.83,3.93-76,3.93-76l-119.5,26.25-1.66,24.67"/>
    <path class="cls-19" d="m287.44,242.37s8.78,21.67,14.14,25.55,17.07,14.42,29.74,15.38,28.61.88,34.56-3.48,26.64-26,25.91-26-104.35-11.45-104.35-11.45Z"/>
    <path class="cls-7" d="m260.98,111.64s4-25.24,25.61-41.33,39.49-30,69.48-24.5,51.92,24.87,59.43,34,18.25,45.77,11.67,81.47c0,0-7.7,17.77-11.67,31.39s-11.52,27-17.37,31.48-110.13-.09-110.13-.09l-3.61-12.19s-9.87,3.29-12.8-30.36c0,0-11.7-15.73-13.17-28.16s-3.24-18.31,2.56-41.71Z"/>
    <path class="cls-13" d="m287.07,244.03c-2.55-6.24-3.65-14.63-3.65-26.7s-4.76-36.94-4.76-36.94c0,0-.73-28.16,1.83-38.4s2.19-37.3,14.63-42.79,16.82-9.14,34-7.68,17.37,3.09,40.6,5.49c21.7,2.24,36.08,27.45,36.2,58.15,0,3.7,3.23,10.74,3.29,14.44.16,9-5.27,19.64-3.29,36,.39,1.32,1.01,2.56,1.83,3.66.78,1.14-2.34,27-4.75,34.37-6.59,12.68-3.91,13.41-28,29.17-10.76,8.59-11.09,12.61-42.73,5.29-12.93-2.96-41.18-24.22-45.2-34.06Z"/>
    <path class="cls-7" d="m283.78,112.87c1.78.75,3.77.83,5.61.24,3.17-1-1.42,1.16,4.19-5.42s10.93-6.15,15.07-4.44,12.43-.92,21.21-2.14,11.27-1.47,22,.5c9.35,1.72,9.37,3.93,14.49,3.45s8.71,3.68,11.64,7.59,1,8.7,9.29,10.65,6.86,6.91,10.88,20.14,11.11,18.58,15.78,22c5.62,4.15,2.46-70.9-25.58-74.31s-98.48-17.53-103.85,2.74-.73,19-.73,19Z"/>
    <path class="cls-19" d="m323.83,230.95c-4.35.25-9.08,3.74-9.57,5.36s0,1.87,4.37,1.87h15.38c5.6,0,28-.34,31.42-1.19,3.11-.9,6.02-2.4,8.56-4.42,1-1-.73-1.26-10.48-2.58s-39.68.96-39.68.96Z"/>
    <path class="cls-9" d="m336.57,184.94c5.37-2.44-6.73,2-8.42,5s-11.71,11.07-10.54,18.14,13.29,3.19,15.55,3.44,5.14-.15,8.85-4.53-5.44-22.05-5.44-22.05Z"/>
    <path class="cls-10" d="m319.09,232.81s7.82-5.05,11.71-7.28,5.36-2.16,10,0c0,0,1,.94,5.12-1.37s18.29,4.26,21.46,6-.26,2.69-1,2.68c-2.76,0-3.53-.95-11.57-.58-5,.23-5.12-.38-6.68.64-4.1,2.66-6.66.62-12.71,0-3.62-.38-9.51,2.63-14.14,3.36s-2.19-3.45-2.19-3.45Z"/>
    <path class="cls-18" d="m324.83,235.73c-1,.29-4.38,1.23-3.89,3.18s9.75,6.82,19.87,6.09,20-2.8,24.69-6.46c2.14-1.66,4.36-4,3.39-4.3s-16.2-1-23.88.37c-8.38,1.49-7.93-2.28-20.18,1.12Z"/>
    <path class="cls-7" d="m329.46,161.3c-.73-.25-19-6.83-24.87-6.59s-14.87,5.86-16.33,10.24,0,4.15,0,4.15c0,0,4.39-5.61,7.31-5.85s8.78-2.2,16.34-.25,19.75,3.17,20.72,1.47-3.17-3.17-3.17-3.17Z"/>
    <path class="cls-7" d="m357.18,155.87c1.88-.37,18-8.18,21.9-7.07s14.58,1.82,18.21,11.42-4.42-2.66-10.19-3.93-29.54,6.19-29.54,6.19c0,0-7.2,2.79-7.57.43s7.19-7.04,7.19-7.04Z"/>
    <path class="cls-19" d="m304.99,167.04c-2.56,0-8.77,4.49-9.14,5s4.2.49,9.51,1.54,15.53-.49,18.1.06,6.77.08,3.48-2.71-9-4.42-14.08-3.88c-2.61.36-5.26.35-7.87,0Z"/>
    <path class="cls-15" d="m323.46,170c-.18-.61-12.21-10-23,0,2.8,3.27,7.02,4.96,11.3,4.54,7.5-.55,9.13-1.77,11.7-4.54Z"/>
    <path class="cls-19" d="m366.56,164.3c-2.55.85-4.94,2.13-7.07,3.78-1.35,1-6.71,4.4-1.22,3.91s14.08.49,17.52-.51c5.71-1.65,3.5,2,4.72,1.11s5.79-2.56,6.75-3.31c2.23-1.76-3.48-3-6.42-5-4.23-2.89-8.34-.26-13.28-.26"/>
    <path class="cls-15" d="m369.12,163.26s-5.43,2.39-6.53,4.18,5.49,4.36,10.06,4.54,9.88-4.36,9.88-4.36c0,0-2.12-5.75-13.41-4.36Z"/>
    <path class="cls-11" d="m318.45,167.04c-4.23-2.13-9.23-2.13-13.46,0,0,0-.8,8.23,6.73,7.5s6.11-5.67,6.73-7.5Z"/>
    <path class="cls-9" d="m325.72,171.62c1.88,1.3-5.43-8.47-14.83-7-5.36.95-10.33,3.44-14.31,7.15-.06.07-.05.17.01.23.05.04.12.05.18.02,4.08-2.54,14.77-10.24,28.95-.4Z"/>
    <path class="cls-11" d="m379.38,164.48c-.2-.43-7.73-4.67-13.48.93,0,0-.78,7.3,6.75,6.57s6.11-5.67,6.73-7.5Z"/>
    <circle class="cls-19" cx="311.71" cy="170" r="1.9"/>
    <circle class="cls-19" cx="372.64" cy="167.44" r="1.9"/>
    <path class="cls-13" d="m348.33,176.37c.73,11.52,10.06,19.65,10.06,19.65,10.73,10.91,1.29,14.95-2.53,15.09-13.31.51-25.45.74-25.45.74-18.7-1.28-4.75-15.83-4.75-15.83,5.21-5.16,8.45-11.98,9.14-19.28"/>
    <path class="cls-9" d="m334.25,204.87s-5.49-3.29-7.31-2.2-3.8,5.54,1.21,5.33,5.92-.73,6.1-3.13Z"/>
    <path class="cls-9" d="m344.18,205.26s4.7-3.19,7.63-2.78,6.22,2.22,6,2.78-2.75,1.88-6,1.67-7.97.52-7.63-1.67Z"/>
    <path class="cls-13" d="m403.01,243.66c-5.55,13.17-4.94,11.71-27.25,30-10.76,8.6-11.82,11.79-43.46,4.47"/>
    <path class="cls-19" d="m360.92,198.94c2.25.86,3.53,3.24,3,5.59-1,6.51-9.4,8.35-19.7,7-.04-.03,21.96-.27,16.7-12.59Z"/>
    <path class="cls-6" d="m338.55,92.11c-.68,4,1.35-20.1,7.1-28.54s19.69-15.57,19.69-15.57c0,0-22.86,21.33-26.79,44.11Z"/>
    <path class="cls-6" d="m363.53,96.44c-1.05,3.46,3.45-17.8,9.49-24.69s19.16-11.68,19.16-11.68c0,0-22.61,16.46-28.65,36.37Z"/>
    <path class="cls-6" d="m378.18,98.15c-.85,2.87,2.82-14.79,7.75-20.51s15.66-9.71,15.66-9.71c0,0-18.53,13.68-23.41,30.22Z"/>
    <path class="cls-6" d="m382.89,101.08c-.86,2.87,2.81-14.79,7.74-20.52s15.67-9.7,15.67-9.7c0,0-18.49,13.68-23.41,30.22Z"/>
    <path class="cls-6" d="m386.39,103.12c-1.1,2.62,4.45-13.73,9.2-18.57s13.81-7.29,13.81-7.29c0,0-16.63,10.72-23.01,25.86Z"/>
    <path class="cls-6" d="m395.18,112.5c-1.33,2.52,5.62-13.29,10.77-17.7s14.39-6.06,14.39-6.06c0,0-17.47,9.24-25.16,23.76Z"/>
    <path class="cls-6" d="m397.18,115.58c-1.29,2.18,5.67-11.54,10.26-15.23,4.59-3.69,12.36-4.78,12.36-4.78,0,0-15.15,7.47-22.62,20.01Z"/>
    <path class="cls-6" d="m398.37,118.48c-1.53,2,6.91-10.84,11.88-14s12.81-3.38,12.81-3.38c0,0-15.88,5.77-24.69,17.38Z"/>
    <path class="cls-6" d="m400.44,123.08c-1.52,2,6.92-10.84,11.89-14s12.81-3.38,12.81-3.38c0,0-15.9,5.74-24.7,17.38Z"/>
    <path class="cls-6" d="m403.71,131.08c-1.64,1.76,7.73-9.48,12.43-12.08s11.21-2.35,11.21-2.35c0,0-14.17,4.32-23.64,14.43Z"/>
    <path class="cls-6" d="m404.79,135.66c-1.53,1.68,7.28-9,11.65-11.55s10.34-2.41,10.34-2.41c0,0-13.13,4.31-21.99,13.96Z"/>
    <path class="cls-6" d="m405.71,138.77c-1.54,1.68,7.28-9,11.64-11.55s10.34-2.42,10.34-2.42c0,0-13.13,4.32-21.98,13.97Z"/>
    <path class="cls-6" d="m406.25,147.94c-1.53,1.67,7.29-9,11.65-11.56s10.34-2.41,10.34-2.41c0,0-13.13,4.32-21.99,13.97Z"/>
    <path class="cls-6" d="m405.61,151.87c-1.69,1.53,8.09-8.31,12.67-10.41s10.52-1.45,10.52-1.45c0,0-13.47,3.06-23.19,11.86Z"/>
    <path class="cls-6" d="m406.48,155.69c-1.54,1.4,7.38-7.62,11.54-9.56s9.54-1.39,9.54-1.39c0,0-12.22,2.9-21.08,10.95Z"/>
    <path class="cls-6" d="m402.78,127.15c-1.51,1.86,7-10,11.54-12.94s11-3.14,11-3.14c0,0-13.85,5.32-22.54,16.08Z"/>
    <path class="cls-6" d="m371.37,95.96c-.86,2.87,2.81-14.79,7.74-20.52s15.67-9.7,15.67-9.7c0,0-18.49,13.68-23.41,30.22Z"/>
    <path class="cls-6" d="m335.57,90.29c-.33,3.85,0-19.6,4-27.8s14.4-15,14.4-15c0,0-16.52,20.6-18.4,42.8Z"/>
    <path class="cls-6" d="m332.01,90.53c0,3.87-1.89-19.51,1.3-28s12.87-16.42,12.87-16.42c0,0-14.46,22.14-14.17,44.42Z"/>
    <path class="cls-6" d="m319.94,90.17c0,3.86-1.88-19.51,1.3-28.06s12.87-16.37,12.87-16.37c0,0-14.46,22.13-14.17,44.43Z"/>
    <path class="cls-6" d="m306.09,93.16c.12,3.68-2-18.63.57-26.71s10.95-15.34,10.95-15.34c0,0-12.23,20.81-11.52,42.05Z"/>
    <path class="cls-6" d="m293.99,98.68c.29,3.34-2.44-16.92-1-24.07s6.9-13.26,6.9-13.26c0,0-7.53,18.13-5.9,37.33Z"/>
    <path class="cls-6" d="m290.68,100.46c.54,2.94-3.49-14.88-3.08-21.22.41-4.2,1.78-8.26,4-11.85,0,0-4,16.16-.92,33.07Z"/>
    <path class="cls-6" d="m287.09,105.21c.77,2.87-4.7-14.55-4.81-20.91.08-4.23,1.13-8.38,3.06-12.14,0,0-2.71,16.44,1.75,33.05Z"/>
    <path class="cls-6" d="m284.24,110.3c.92,2.84-5.39-14.3-5.81-20.65-.13-4.23.71-8.43,2.46-12.28,0,0-1.91,16.56,3.35,32.93Z"/>
    <path class="cls-6" d="m282.18,123.21c1.78,2-9.61-10-12.26-15.06-1.65-3.43-2.48-7.19-2.45-11,3.25,9.52,8.24,18.36,14.71,26.06Z"/>
    <path class="cls-6" d="m281.94,127.29c1.94,1.74-10.35-8.49-13.53-13-1.99-2.95-3.3-6.3-3.83-9.82,4.43,8.55,10.3,16.27,17.36,22.82Z"/>
    <path class="cls-6" d="m279.59,138.24c2,1.61-10.7-7.74-14-12.08-2.11-2.94-3.52-6.33-4.13-9.9,4.63,8.39,10.78,15.84,18.13,21.98Z"/>
    <path class="cls-9" d="m384.48,167.52c2.27,1.07-2.49-6.59-12.93-5.17-7.4,1-10.25,5.15-12.31,7.07-.44.41-2.16.49-1.84,1,2.05,3.21,7.85-11.99,27.08-2.9Z"/>
    <path class="cls-20" d="m269.4,191.24c1,2.88,1.22,2.81,1.22,2.81,0,0-2.56-9.39-2.44-12.18s0,6,1.22,9.37Z"/>
    <path class="cls-9" d="m360.67,175.27s9.88,4.48,15.55,4.39,10.42.64,11.06.09-13.24.68-22.58-3.44c-1.12-.44-4.3-1.95-4.03-1.04Z"/>
    <path class="cls-19" d="m321.82,177.22s-10.73,5.86-17.07,6.59,4.57.21,10.67-3,12.25-6.02,6.4-3.59Z"/>
    <path class="cls-9" d="m321.18,177.87c-3.39.57-13.52,2.44-19.51,1.75-8.29-.95,1.65.56,2.56.56,18.44-.08,11-.1,13.47-.46,1.35-.15,2.6-.81,3.48-1.85Z"/>
    <path class="cls-7" d="m285.73,112.61c1.71,2.69,2.68,4.15,4.39,3.66s-3,3.95-6-.71,1.61-2.95,1.61-2.95Z"/>
    <path class="cls-9" d="m371.07,204.71c3.21,0,3.22-5,0-5s-3.23,5,0,5Z"/>
    <path class="cls-5" d="m342.42,95.17c0,2.39-1.6-11.77,1.26-17.67s11.5-12.54,11.5-12.54c0,0-12.94,16.42-12.76,30.21Z"/>
    <path class="cls-5" d="m319.81,97.27c.94,2.2-5.93-10.3-5.51-16.84s5.88-15.94,5.88-15.94c0,0-5.74,20.08-.37,32.78Z"/>
    <path class="cls-5" d="m312.78,97.69c.93,2.2-5.93-10.3-5.52-16.84s5.92-15.98,5.92-15.98c0,0-5.78,20.12-.4,32.82Z"/>
    <path class="cls-5" d="m305.42,101.34c.93,2.21-5.93-10.29-5.52-16.83s5.88-15.94,5.88-15.94c0,0-5.74,20.08-.36,32.77Z"/>
    <path class="cls-5" d="m299.11,101.34c.94,2.21-5.93-10.29-5.51-16.83s5.88-15.94,5.88-15.94c0,0-5.74,20.08-.37,32.77Z"/>
    <path class="cls-5" d="m283.7,117.53c1.18,1.23-6.54-5.57-8-9.65s-.36-10.6-.36-10.6c0,0,1.55,13.13,8.36,20.25Z"/>
    <path class="cls-5" d="m282.18,120.66c1.18,1.24-6.54-5.56-8-9.65s-.37-10.6-.37-10.6c0,0,1.53,13.13,8.37,20.25Z"/>
    <path class="cls-5" d="m279.89,138.87c1.57.66-8.23-2.47-11.19-5.63s-4.58-9.57-4.58-9.57c0,0,6.67,11.36,15.77,15.2Z"/>
    <path class="cls-5" d="m367.76,99.21c-.24,2.38-.22-11.88,3.3-17.4s12.85-11.12,12.85-11.12c0,0-14.73,14.81-16.15,28.52Z"/>
    <path class="cls-5" d="m373.18,102.97c-.24,2.38-.22-11.88,3.31-17.4s12.85-11.12,12.85-11.12c0,0-14.7,14.81-16.16,28.52Z"/>
    <path class="cls-5" d="m387.44,122.23c0,2-.93-10.07,1.66-14.94s10-10.13,10-10.13c0,0-11.33,13.36-11.66,25.07Z"/>
    <path class="cls-5" d="m391.28,123.76c-.06,2-.92-10.07,1.68-14.94s10-10.11,10-10.11c0,0-11.34,13.33-11.68,25.05Z"/>
    <path class="cls-5" d="m394.1,125.1c-.29,2,.23-10.1,3.36-14.65s11.1-8.91,11.1-8.91c0,0-12.8,11.97-14.46,23.56Z"/>
    <path class="cls-5" d="m396.54,128.55c-.71,1.91,2.39-9.82,6.42-13.59s12.76-6.32,12.76-6.32c0,0-15.07,8.94-19.18,19.91Z"/>
    <path class="cls-5" d="m398.32,139.29c-.68,1.92,2.2-9.87,6.16-13.71,3.96-3.84,12.63-6.57,12.63-6.57,0,0-14.93,9.23-18.79,20.28Z"/>
    <path class="cls-5" d="m399.24,143.51c-.68,1.91,2.18-9.87,6.13-13.73s12.62-6.59,12.62-6.59c0,0-14.87,9.26-18.75,20.32Z"/>
    <path class="cls-5" d="m400.09,147.95c-.67,1.91,2.16-9.88,6.1-13.74s12.61-6.61,12.61-6.61c0,0-14.85,9.27-18.71,20.35Z"/>
    <path class="cls-5" d="m402.55,151.7c-.58,1.95,1.71-10,5.48-14s12.29-7.18,12.29-7.18c0,0-14.42,9.96-17.77,21.18Z"/>
    <path class="cls-5" d="m403.55,152.31c-.52,1.46,1.71-7.5,4.7-10.41s9.52-4.92,9.52-4.92c0,0-11.23,6.94-14.22,15.33Z"/>
    <path class="cls-5" d="m404.52,152.7c-.74,1.36,2.87-7.14,6.29-9.53s10.17-3.36,10.17-3.36c0,0-12.18,5.06-16.46,12.89Z"/>
    <path class="cls-5" d="m405.98,156.61c-.8,1.32,3.21-7,6.74-9.22s10.32-2.88,10.32-2.88c0,0-12.41,4.5-17.06,12.1Z"/>
    <path class="cls-9" d="m325.8,258.66c.72-.43,17.11-13.17,34-1,16.89,12.17-4.64-1.4-4.64-1.4-4.12-1.97-8.65-2.91-13.21-2.74-7.7.26-30.69,13.91-16.15,5.14Z"/>
    <path class="cls-17" d="m408.76,204.37c-1.74,6.21-5.22,12.77-11.24,14.82-11,3.75-23.5.5-34.75-7.25-.76-.52-1.5-1.09-2.2-1.69-.46-.39-.91-.79-1.35-1.21-2.36-2.27-4.44-4.81-6.2-7.57-1.63-2.51-3.08-5.14-4.33-7.86l-.5-1.1c-.56-1.29-1-2.38-1.3-3.2l-.1-.28c-.09-.24-.16-.44-.22-.62s-.11-.31-.11-.31v-.12c0-.11-.07-.19-.08-.23v-.06l-.32-13.16h-11.79v12.66c0,.25-.05.51-.08.76v.12l-.12.84-.06.4c-.18,1.03-.42,2.05-.71,3.06l-.09.32c-2.84,9.63-9.89,18.42-9.89,18.42-1.41,1.3-2.79,2.47-4.15,3.52-11.66,9-21.85,9.26-34.42,4.56-1.3-.48-2.55-1.11-3.7-1.88-9.79-6.6-7.34-21.06-5.76-31.87.64-3.81,2.92-7.14,6.23-9.12,5.92-3.94,14-4.73,15.14-4.73h5.63l2.13-.05c2.72,0,7.85-.16,14.36-.27l9.36-.16c15.85-.25,35.8-.47,50.15-.31,2.94,0,5.64.07,8,.14h.48c3.17.01,6.34.23,9.49.64,6.12,1.26,9.72,8.12,11.75,13.85h0c.8,2.29,1.46,4.63,2,7,.46,1.93.17,6.82-1.25,11.94Z"/>
    <polyline class="cls-19" points="323.03 170.97 323.03 173.01 358 172.96 358 170.97"/>
    <path class="cls-13" d="m162.64,268.33l-15.46,30.85,23.4,25.94,4.92,4.7,9.46,5.4,26.36-54.05,33.1-23.65s11.09-8.1,12.84-12.16c1.13-2.64,1.22-9.69,1.22-9.69,0,0,11.73-22.4,13.65-30.18,1-3.94,0-16.21,0-16.21,0,0,6.08-2,6.08-7.44s-11.86-10.6-16.89-11.48c-2.83-.5-11.49,0-11.49,0l-6.08-4.73s-6.75-.68-12.15,3.37h0c-3.25,2.44-6.64,4.69-10.14,6.75l-7.77,3.17m17.87,52.95c-11.12,4.06-9.83,0-9.83,0l-10.44-18.56,7.43-12.52c3.14.42,6.32.42,9.46,0,0,0-6.08,26.35,5.4,20.27,2.41-1.29,4.42-3.22,5.79-5.59-.83,1.46-5.62,10.32.16,12.07l-7.97,4.33Z"/>
    <path class="cls-19" d="m240.8,227.2l-9.93,4.33c-13.85,4.06-12.24,0-12.24,0l-10.07-20.27,9.14-21.28s43.46,23.67,50.2,23c0,0-48.81,13.83-34.51,7.75,2.87-1.18,5.36-3.11,7.21-5.59-1.03,1.45-7,10.31.2,12.06Z"/>
    <path class="cls-13" d="m258.45,235.67s13-22.71,14.92-30.49c1-3.94,0-16.21,0-16.21,0,0,6.08-2,6.08-7.44s-11.86-10.6-16.89-11.48c-2.83-.5-11.49,0-11.49,0l-6.08-4.73s-6.75-.68-12.15,3.37h0c-3.25,2.44-6.64,4.69-10.14,6.75l-7.77,3.17s-26.51,4.26-28.75,11.71c-6,20.25-23.56,78-23.56,78"/>
    <path class="cls-19" d="m232.83,231.53c-11.12,4.06-9.83,0-9.83,0l-10.44-18.56,7.43-12.52c3.14.42,6.32.42,9.46,0,0,0-6.08,26.35,5.4,20.27,2.41-1.29,4.42-3.22,5.79-5.59-.83,1.46-5.62,10.32.16,12.07l-7.97,4.33Z"/>
    <path class="cls-13" d="m251.07,170.05s12.84,9.46,13.52,14.19,0,21.62,0,21.62c0,0-4.94,3.55-9.41-.28-1.93-1.84-3.34-4.15-4.11-6.7-2.81-7.94-6.43-15.56-10.81-22.75,0,0-.34-5.8-20.73.61l13.3-8.05s10.81-10.82,18.24,1.36Z"/>
    <path class="cls-3" d="m240.64,215.13l.11-.19h0c4.47-7.75,4.25-14.05,2.88-18.53-1.8-5.92-8.5-17.89-14.22-20.27-1.5-.63-6.42,1.1-6.42,1.1l-8.08,1.39"/>
    <path class="cls-3" d="m273.37,188.96s-4,1.39-8.78-4.72"/>
    <path class="cls-12" d="m240.44,213.06s-.78-4.08-5.28-2.08l-3,5.56,2.69,4.18,5.59-7.66Z"/>
    <path class="cls-14" d="m253.18,214.45s-2.64-3.33-5.57,0-2.61,9.75-2.61,9.75l4.08.69,4.1-10.44Z"/>
    <path class="cls-14" d="m264.59,193.48s-7.44-1.5-5.94,4.5l1.5,6,4.44,1.88"/>
    <path class="cls-3" d="m255.18,205.58s-1.84,10.17-3,13.4c-.57,1.56-3.07,5.91-3.07,5.91,0,0-1.88,3.28-8.28,2.31"/>
    <path class="cls-14" d="m279.27,181.12c-2.01.31-4.04.45-6.08.44-6.09.18-1.34-7.85-1.34-7.85,0,0,3.59.87,5.2,3.4.86,1.27,1.6,2.61,2.22,4.01Z"/>
  </g>
</svg>