<svg xmlns="http://www.w3.org/2000/svg" xmlns:xlink="http://www.w3.org/1999/xlink" viewBox="0 0 1081 585"><defs><style>.cls-1{fill:url(#linear-gradient);}.cls-2{fill:url(#linear-gradient-2);}.cls-3{fill:#d8d8d8;}.cls-4{opacity:0.5;}.cls-5{fill:#fff;}</style><linearGradient id="linear-gradient" x1="540.5" y1="1" x2="540.5" y2="586" gradientTransform="matrix(1, 0, 0, -1, 0, 586)" gradientUnits="userSpaceOnUse"><stop offset="0.52" stop-color="#00aeef"/><stop offset="0.96" stop-color="#2bb794"/></linearGradient><linearGradient id="linear-gradient-2" x1="540.5" y1="583.97" x2="540.5" y2="-1.03" gradientUnits="userSpaceOnUse"><stop offset="0.73" stop-color="#f06351"/><stop offset="0.98" stop-color="#f6921e"/></linearGradient></defs><title>contactColor2</title><g id="Grad_1" data-name="Grad 1"><g id="Layer_2" data-name="Layer 2"><g id="Stuff"><rect class="cls-1" width="1081" height="585"/></g></g></g><g id="Grad2"><rect class="cls-2" y="-1.03" width="1081" height="585"/></g><g id="Design"><polygon class="cls-3" points="168.67 211.96 187.55 324.63 137.7 321.21 168.67 211.96"/><g class="cls-4"><polygon class="cls-3" points="169.29 202.43 190.42 328.54 134.63 324.72 169.29 202.43"/></g><polygon class="cls-5" points="154.59 202.43 83.67 296.1 43.55 235.35 154.59 202.43"/><g class="cls-4"><polygon class="cls-5" points="162.1 197.11 82.72 301.96 37.81 233.96 162.1 197.11"/></g><polygon class="cls-5" points="217.96 174.77 324.42 125.06 331.53 197.51 217.96 174.77"/><g class="cls-4"><polygon class="cls-5" points="208.83 175.97 328 120.32 335.95 201.42 208.83 175.97"/></g><polygon class="cls-5" points="47.3 137.2 157.79 97.24 158.37 170.04 47.3 137.2"/><g class="cls-4"><polygon class="cls-5" points="38.1 137.57 161.78 92.85 162.43 174.34 38.1 137.57"/></g><polygon class="cls-3" points="381.68 208.37 484.57 158.72 495.23 207.53 381.68 208.37"/><g class="cls-4"><polygon class="cls-3" points="372.35 210.44 487.52 154.87 499.45 209.51 372.35 210.44"/></g><polygon class="cls-5" points="472.69 146.99 365.04 194.06 359.72 121.45 472.69 146.99"/><g class="cls-4"><polygon class="cls-5" points="481.85 146.02 361.35 198.7 355.39 117.43 481.85 146.02"/></g><polygon class="cls-3" points="582.22 156.37 660.18 72.86 687.78 114.52 582.22 156.37"/><g class="cls-4"><polygon class="cls-3" points="574.27 161.67 661.54 68.2 692.43 114.83 574.27 161.67"/></g><polygon class="cls-5" points="617.04 61.88 546.12 155.55 505.99 94.8 617.04 61.88"/><g class="cls-4"><polygon class="cls-5" points="624.55 56.55 545.16 161.41 500.25 93.41 624.55 56.55"/></g><polygon class="cls-3" points="363.53 94.9 474.57 68.03 474.72 117.99 363.53 94.9"/><g class="cls-4"><polygon class="cls-3" points="353.98 94.96 478.27 64.88 478.43 120.81 353.98 94.96"/></g><polygon class="cls-3" points="209.67 152.44 284.13 65.79 313.42 106.27 209.67 152.44"/><g class="cls-4"><polygon class="cls-3" points="201.95 158.07 285.29 61.08 318.08 106.38 201.95 158.07"/></g><polygon class="cls-3" points="145.04 185.82 34.21 213.54 33.68 163.58 145.04 185.82"/><g class="cls-4"><polygon class="cls-3" points="154.59 185.68 30.54 216.71 29.95 160.79 154.59 185.68"/></g><polygon class="cls-5" points="195.92 205.01 282.58 284.4 218.12 318.71 195.92 205.01"/><g class="cls-4"><polygon class="cls-5" points="191.33 197.03 288.34 285.89 216.18 324.3 191.33 197.03"/></g><polygon class="cls-3" points="248.16 207.13 357.84 239.06 333.12 282.47 248.16 207.13"/><g class="cls-4"><polygon class="cls-3" points="239.84 202.43 362.62 238.16 334.94 286.76 239.84 202.43"/></g></g></svg>