<svg xmlns="http://www.w3.org/2000/svg" xmlns:xlink="http://www.w3.org/1999/xlink" viewBox="0 0 792 612"><defs><style>.cls-1,.cls-10,.cls-15,.cls-19,.cls-22,.cls-24{fill:none;}.cls-2{fill:#ede8e7;}.cls-3{fill:#231f20;}.cls-4{clip-path:url(#clip-path);}.cls-5{fill:#2ab794;}.cls-6{fill:#f16251;}.cls-7{opacity:0.5;}.cls-8{fill:#1b597c;}.cls-9{fill:#fff;}.cls-10,.cls-15,.cls-19,.cls-22,.cls-24{stroke:#fff;stroke-miterlimit:10;}.cls-10{stroke-width:0.46px;}.cls-11{clip-path:url(#clip-path-2);}.cls-12{fill:#6b91cb;}.cls-13{fill:#cee8d0;}.cls-14{fill:#7acbc0;}.cls-15{stroke-width:0.38px;}.cls-16{fill:#fcfbfb;}.cls-17{fill:#ee6559;}.cls-18{fill:#010101;}.cls-19{stroke-width:1.78px;}.cls-20{clip-path:url(#clip-path-3);}.cls-21{fill:#b7b7b7;}.cls-22{stroke-width:3.01px;}.cls-23{clip-path:url(#clip-path-4);}.cls-24{stroke-width:2.28px;}</style><clipPath id="clip-path"><rect class="cls-1" x="396" y="41.44" width="75.83" height="75.83"/></clipPath><clipPath id="clip-path-2"><rect class="cls-1" x="635.05" y="162.22" width="6.87" height="7.73" rx="3.32" ry="3.32" transform="translate(47.99 -128.13) rotate(11.9)"/></clipPath><clipPath id="clip-path-3"><rect class="cls-1" x="396" y="127.96" width="75.83" height="76.25"/></clipPath><clipPath id="clip-path-4"><rect class="cls-1" x="246.64" y="326.28" width="44.98" height="50.62" rx="12" ry="12" transform="matrix(1, 0, 0, 1, -1.6, 1.23)"/></clipPath></defs><title>DMD digital Branding 2 update-01</title><g id="Back"><rect class="cls-2" x="-12.53" y="-5.89" width="823" height="633"/></g><g id="Stuff"><path class="cls-3" d="M23.38,20.92H27.6v.87H24.39v2.69h3v.86h-3V29h-1Z"/><path class="cls-3" d="M33.73,26.05a2.79,2.79,0,0,1-2.8,3.08,2.72,2.72,0,0,1-2.7-3A2.8,2.8,0,0,1,31,23.06,2.71,2.71,0,0,1,33.73,26.05Zm-4.46.06c0,1.27.71,2.23,1.7,2.23s1.71-.95,1.71-2.25c0-1-.47-2.24-1.68-2.24S29.27,25,29.27,26.11Z"/><path class="cls-3" d="M35,24.77c0-.6,0-1.1,0-1.57h.9l.06.95h0a2.06,2.06,0,0,1,1.86-1.09c.78,0,2,.48,2,2.47V29h-1V25.65c0-.93-.34-1.71-1.3-1.71A1.47,1.47,0,0,0,36.1,25a1.77,1.77,0,0,0-.06.49V29H35Z"/><path class="cls-3" d="M42.64,21.53V23.2H44.1V24H42.64v3.13c0,.72.2,1.13.77,1.13a2,2,0,0,0,.59-.08l0,.8a2.48,2.48,0,0,1-.9.14,1.4,1.4,0,0,1-1.1-.44,2.22,2.22,0,0,1-.4-1.51V24h-.87v-.8h.87V21.8Z"/><path class="cls-3" d="M45.11,27.92a2.66,2.66,0,0,0,1.35.42c.74,0,1.09-.38,1.09-.86s-.29-.78-1-1.07c-1-.37-1.48-.95-1.48-1.64A1.76,1.76,0,0,1,47,23.06a2.73,2.73,0,0,1,1.38.36l-.26.77a2.15,2.15,0,0,0-1.15-.34.83.83,0,0,0-.94.8c0,.48.34.69,1.07,1,1,.38,1.48.89,1.48,1.75,0,1-.77,1.74-2.1,1.74a3.1,3.1,0,0,1-1.58-.4Z"/><path class="cls-3" d="M49.6,24.15a.7.7,0,1,1,.69.75A.7.7,0,0,1,49.6,24.15Zm0,4.24a.7.7,0,1,1,1.39,0,.7.7,0,1,1-1.39,0Z"/><path class="cls-3" d="M396.88,20.92h1v7.2h3.35V29h-4.36Z"/><path class="cls-3" d="M407.25,26.05a2.79,2.79,0,0,1-2.8,3.08,2.72,2.72,0,0,1-2.69-3,2.8,2.8,0,0,1,2.78-3.09A2.71,2.71,0,0,1,407.25,26.05Zm-4.46.06c0,1.27.71,2.23,1.71,2.23s1.71-.95,1.71-2.25c0-1-.48-2.24-1.69-2.24S402.79,25,402.79,26.11Z"/><path class="cls-3" d="M413.38,23.2c0,.41-.05.88-.05,1.59v3.37a3.39,3.39,0,0,1-.8,2.65,2.91,2.91,0,0,1-2,.7,3.53,3.53,0,0,1-1.87-.48l.25-.81a3.11,3.11,0,0,0,1.65.46c1.05,0,1.81-.56,1.81-2V28h0a2,2,0,0,1-1.79,1,2.57,2.57,0,0,1-2.39-2.83c0-2,1.24-3.09,2.53-3.09a1.85,1.85,0,0,1,1.75,1h0l0-.87Zm-1.06,2.29a1.44,1.44,0,0,0-.06-.48,1.46,1.46,0,0,0-1.42-1.12c-1,0-1.68.85-1.68,2.2,0,1.14.56,2.08,1.66,2.08a1.5,1.5,0,0,0,1.42-1.08,1.81,1.81,0,0,0,.08-.56Z"/><path class="cls-3" d="M420.11,26.05a2.79,2.79,0,0,1-2.8,3.08,2.72,2.72,0,0,1-2.69-3,2.8,2.8,0,0,1,2.79-3.09A2.71,2.71,0,0,1,420.11,26.05Zm-4.46.06c0,1.27.71,2.23,1.71,2.23s1.71-.95,1.71-2.25c0-1-.48-2.24-1.69-2.24S415.65,25,415.65,26.11Z"/><path class="cls-3" d="M421.26,27.92a2.62,2.62,0,0,0,1.34.42c.75,0,1.1-.38,1.1-.86s-.29-.78-1.05-1.07c-1-.37-1.49-.95-1.49-1.64a1.76,1.76,0,0,1,1.94-1.71,2.81,2.81,0,0,1,1.39.36l-.26.77a2.18,2.18,0,0,0-1.15-.34.83.83,0,0,0-.94.8c0,.48.34.69,1.07,1,1,.38,1.47.89,1.47,1.75,0,1-.76,1.74-2.1,1.74a3.16,3.16,0,0,1-1.58-.4Z"/><path class="cls-3" d="M425.75,24.15a.69.69,0,1,1,1.38,0,.69.69,0,0,1-.69.75A.7.7,0,0,1,425.75,24.15Zm0,4.24a.69.69,0,1,1,1.38,0,.68.68,0,0,1-.69.74A.69.69,0,0,1,425.75,28.39Z"/><path class="cls-3" d="M402.35,247.74a4.88,4.88,0,0,1-2.06.38,3.72,3.72,0,0,1-3.87-4.09,4,4,0,0,1,4.09-4.25,4.09,4.09,0,0,1,1.85.36l-.24.86a3.46,3.46,0,0,0-1.58-.34c-1.83,0-3.05,1.21-3.05,3.33s1.1,3.25,3,3.25a4,4,0,0,0,1.65-.33Z"/><path class="cls-3" d="M408.54,245.05a2.79,2.79,0,0,1-2.8,3.08,2.72,2.72,0,0,1-2.69-3,2.8,2.8,0,0,1,2.78-3.09A2.71,2.71,0,0,1,408.54,245.05Zm-4.46.06c0,1.27.71,2.23,1.71,2.23s1.7-1,1.7-2.25c0-1-.47-2.24-1.68-2.24S404.08,244,404.08,245.11Z"/><path class="cls-3" d="M409.82,239.48h1V248h-1Z"/><path class="cls-3" d="M417.65,245.05a2.79,2.79,0,0,1-2.8,3.08,2.72,2.72,0,0,1-2.69-3,2.8,2.8,0,0,1,2.78-3.09A2.71,2.71,0,0,1,417.65,245.05Zm-4.46.06c0,1.27.71,2.23,1.71,2.23s1.71-1,1.71-2.25c0-1-.48-2.24-1.69-2.24S413.19,244,413.19,245.11Z"/><path class="cls-3" d="M418.94,244c0-.69,0-1.28-.05-1.81h.89l0,1.13h.05a1.7,1.7,0,0,1,1.55-1.27,1.19,1.19,0,0,1,.29,0v1a1.75,1.75,0,0,0-.35,0,1.45,1.45,0,0,0-1.37,1.35,3.75,3.75,0,0,0,0,.5V248h-1Z"/><path class="cls-3" d="M422.59,246.92a2.66,2.66,0,0,0,1.35.42c.74,0,1.09-.38,1.09-.86s-.29-.78-1-1.07c-1-.37-1.49-.95-1.49-1.64a1.76,1.76,0,0,1,1.94-1.71,2.73,2.73,0,0,1,1.38.36l-.25.77a2.21,2.21,0,0,0-1.15-.34c-.61,0-.95.36-.95.8s.34.69,1.07,1c1,.38,1.48.89,1.48,1.75,0,1-.77,1.74-2.1,1.74a3.1,3.1,0,0,1-1.58-.4Z"/><path class="cls-3" d="M427.08,243.15a.7.7,0,0,1,.7-.75.75.75,0,1,1-.7.75Zm0,4.24a.71.71,0,0,1,.7-.76.7.7,0,0,1,.69.76.7.7,0,1,1-1.39,0Z"/><path class="cls-3" d="M29.34,247.64a7,7,0,0,1-2.4.44A4,4,0,0,1,24,247a4.26,4.26,0,0,1-1.09-3,4,4,0,0,1,4.24-4.18,4.88,4.88,0,0,1,1.95.37l-.25.86a3.8,3.8,0,0,0-1.73-.35A3,3,0,0,0,24,244c0,2,1.19,3.26,3,3.26a3.14,3.14,0,0,0,1.34-.22v-2.41H26.76v-.84h2.58Z"/><path class="cls-3" d="M30.85,244c0-.69,0-1.28-.05-1.81h.89l0,1.13h.05a1.7,1.7,0,0,1,1.55-1.27,1.19,1.19,0,0,1,.29,0v1a1.75,1.75,0,0,0-.35,0,1.45,1.45,0,0,0-1.37,1.35,3.75,3.75,0,0,0,0,.5V248h-1Z"/><path class="cls-3" d="M37.7,248l-.09-.73h0a2.08,2.08,0,0,1-1.72.86,1.63,1.63,0,0,1-1.72-1.67c0-1.4,1.21-2.17,3.38-2.15v-.12a1.19,1.19,0,0,0-1.28-1.35,2.78,2.78,0,0,0-1.46.43l-.23-.69a3.42,3.42,0,0,1,1.85-.52c1.71,0,2.13,1.21,2.13,2.38v2.17a8.47,8.47,0,0,0,.09,1.39Zm-.16-3c-1.11,0-2.38.18-2.38,1.3a.92.92,0,0,0,1,1,1.41,1.41,0,0,0,1.36-1,1.33,1.33,0,0,0,0-.34Z"/><path class="cls-3" d="M40.18,244.09c0-.74,0-1.34,0-1.89h.92l.05,1h0a2.2,2.2,0,0,1,2-1.13c1.36,0,2.38,1.19,2.38,2.95,0,2.09-1.23,3.12-2.56,3.12a2,2,0,0,1-1.73-.91h0v3.15h-1Zm1,1.55a2,2,0,0,0,.05.43,1.58,1.58,0,0,0,1.53,1.23c1.08,0,1.71-.91,1.71-2.24,0-1.16-.6-2.16-1.68-2.16a1.65,1.65,0,0,0-1.54,1.31,1.55,1.55,0,0,0-.07.43Z"/><path class="cls-3" d="M46.78,239.48h1v3.63h0a2,2,0,0,1,.73-.75,2,2,0,0,1,1-.3c.76,0,2,.48,2,2.49V248h-1v-3.33c0-.94-.33-1.73-1.3-1.73A1.48,1.48,0,0,0,47.87,244a1.53,1.53,0,0,0-.07.51V248h-1Z"/><path class="cls-3" d="M54.36,240.56a.63.63,0,1,1-1.26,0,.63.63,0,0,1,.64-.66A.61.61,0,0,1,54.36,240.56ZM53.23,248v-5.8h1V248Z"/><path class="cls-3" d="M60,247.78a3.59,3.59,0,0,1-1.62.34,2.72,2.72,0,0,1-2.8-3,2.9,2.9,0,0,1,3-3.08,3.23,3.23,0,0,1,1.42.3l-.23.81a2.39,2.39,0,0,0-1.19-.27,2.19,2.19,0,0,0,0,4.36,2.83,2.83,0,0,0,1.25-.29Z"/><path class="cls-3" d="M61,246.92a2.66,2.66,0,0,0,1.35.42c.74,0,1.09-.38,1.09-.86s-.29-.78-1-1.07c-1-.37-1.49-.95-1.49-1.64a1.76,1.76,0,0,1,1.94-1.71,2.73,2.73,0,0,1,1.38.36l-.26.77a2.15,2.15,0,0,0-1.15-.34.83.83,0,0,0-.94.8c0,.48.34.69,1.07,1,1,.38,1.48.89,1.48,1.75,0,1-.77,1.74-2.1,1.74a3.1,3.1,0,0,1-1.58-.4Z"/><path class="cls-3" d="M65.49,243.15a.7.7,0,1,1,.69.75A.7.7,0,0,1,65.49,243.15Zm0,4.24a.7.7,0,1,1,1.39,0,.7.7,0,1,1-1.39,0Z"/><path class="cls-3" d="M34.56,66l-2.11-2.88L29.25,75h-4.5l6-22.5h18q4.5,0,3.31,4.5l-1.2,4.5Q49.67,66,45.25,66H40.68l6.57,9H41.13Zm-.49-9-1.2,4.5h13.5l1.2-4.5Z"/><path class="cls-3" d="M62.26,52.47h13.5q4.5,0,3.31,4.5l-3.62,13.5q-1.2,4.5-5.7,4.5H56.25q-4.5,0-3.3-4.5L56.57,57Q57.76,52.47,62.26,52.47ZM61.07,57l-3.62,13.5H71L74.57,57Z"/><path class="cls-3" d="M102,63.72c1.5,0,2,.75,1.66,2.25l-1.23,4.5q-1.2,4.5-5.7,4.5h-18l6-22.5h18q4.5,0,3.31,4.5l-1.2,4.5A2.71,2.71,0,0,1,102,63.72ZM85.68,66l-1.23,4.5H98L99.18,66Zm14.69-4.5,1.2-4.5H88.07l-1.2,4.5Z"/><path class="cls-3" d="M116.26,52.47h13.5q4.5,0,3.31,4.5l-3.62,13.5q-1.2,4.5-5.7,4.5h-13.5q-4.5,0-3.3-4.5L110.57,57Q111.76,52.47,116.26,52.47ZM115.07,57l-3.62,13.5H125L128.57,57Z"/><path class="cls-3" d="M138.76,52.47h22.5L160.07,57h-9l-4.82,18h-4.5l4.82-18h-9Z"/><path class="cls-3" d="M187.56,66l-2.11-2.88L182.25,75h-4.5l6-22.5h18q4.5,0,3.31,4.5l-1.2,4.5q-1.2,4.5-5.62,4.5h-4.57l6.57,9h-6.12Zm-.49-9-1.2,4.5h13.5l1.2-4.5Z"/><path class="cls-3" d="M228.45,70.47l-1.2,4.5h-22.5l1.2-4.5Zm2.42-9L229.68,66h-22.5l1.19-4.5Zm2.39-9L232.07,57h-22.5l1.19-4.5Z"/><path class="cls-3" d="M238.68,66l-2.43,9h-4.5l4.82-18q1.19-4.5,5.69-4.5h13.5q4.5,0,3.31,4.5l-4.82,18h-4.5l2.43-9Zm14.69-4.5,1.2-4.5h-13.5l-1.2,4.5Z"/><path class="cls-3" d="M287.26,52.47l-15,22.5h-4.5l-3-22.5h5.13l1.76,16.38L282,52.47Z"/><path class="cls-3" d="M309.45,70.47l-1.2,4.5h-22.5l1.2-4.5Zm2.42-9L310.68,66h-22.5l1.19-4.5Zm2.39-9L313.07,57h-22.5l1.19-4.5Z"/><path class="cls-3" d="M322.56,66l-2.11-2.88L317.25,75h-4.5l6-22.5h18q4.5,0,3.31,4.5l-1.2,4.5q-1.2,4.5-5.62,4.5h-4.57l6.57,9h-6.12Zm-.49-9-1.2,4.5h13.5l1.2-4.5Z"/><path class="cls-3" d="M367.07,57h-18l-1.2,4.5h13.5q4.5,0,3.31,4.5l-1.23,4.5q-1.2,4.5-5.7,4.5h-18l1.2-4.5h18l1.23-4.5h-13.5c-3,0-4.11-1.5-3.31-4.5l1.2-4.5q1.19-4.5,5.69-4.5h18Z"/><path class="cls-3" d="M30.75,141.83h-7.5l2-7.5h1.5l-1.6,6h6Z"/><path class="cls-3" d="M35.75,134.33h4.5q1.5,0,1.11,1.5l-1.21,4.5a1.81,1.81,0,0,1-1.9,1.5h-4.5c-1,0-1.37-.5-1.1-1.5l1.21-4.5A1.79,1.79,0,0,1,35.75,134.33Zm-.39,1.5-1.21,4.5h4.5l1.21-4.5Z"/><path class="cls-3" d="M44.52,138.83l-.7-1-1.07,4h-1.5l2-7.5h6q1.5,0,1.11,1.5l-.4,1.5a1.8,1.8,0,0,1-1.88,1.5H46.56l2.19,3h-2Zm-.16-3-.4,1.5h4.5l.4-1.5Z"/><path class="cls-3" d="M58.15,140.33l-.4,1.5h-7.5l.4-1.5Zm.81-3-.4,1.5h-7.5l.4-1.5Zm.79-3-.39,1.5h-7.5l.39-1.5Z"/><path class="cls-3" d="M67.25,134.33h3q1.5,0,1.11,1.5l-1.61,6h-1.5l1.61-6h-3l-1.61,6h-1.5l1.61-6h-3l-1.61,6h-1.5l1.61-6a1.79,1.79,0,0,1,1.89-1.5h3c.49,0,.67.25.56.75A.91.91,0,0,1,67.25,134.33Z"/><path class="cls-3" d="M80.75,134.33l-2,7.5h-1.5l2-7.5Z"/><path class="cls-3" d="M81.75,141.83h-1.5l2-7.5h6q1.5,0,1.11,1.5l-.4,1.5a1.81,1.81,0,0,1-1.9,1.5h-4.5Zm5.71-4.5.4-1.5h-4.5l-.4,1.5Z"/><path class="cls-3" d="M98.36,135.83h-6l-.4,1.5h4.5c1,0,1.36.5,1.1,1.5l-.41,1.5a1.81,1.81,0,0,1-1.9,1.5h-6l.4-1.5h6l.41-1.5h-4.5c-1,0-1.37-.5-1.1-1.5l.4-1.5a1.79,1.79,0,0,1,1.89-1.5h6Z"/><path class="cls-3" d="M104.25,141.83h-4.5c-1,0-1.37-.5-1.1-1.5l1.6-6h1.5l-1.6,6h4.5l1.6-6h1.5l-1.6,6A1.81,1.81,0,0,1,104.25,141.83Z"/><path class="cls-3" d="M115.25,134.33h3q1.5,0,1.11,1.5l-1.61,6h-1.5l1.61-6h-3l-1.61,6h-1.5l1.61-6h-3l-1.61,6h-1.5l1.61-6a1.79,1.79,0,0,1,1.89-1.5h3c.49,0,.67.25.56.75A.91.91,0,0,1,115.25,134.33Z"/><path class="cls-3" d="M125.25,141.83l2-7.5h6q1.5,0,1.11,1.5l-1.21,4.5a1.81,1.81,0,0,1-1.9,1.5Zm1.9-1.5h4.5l1.21-4.5h-4.5Z"/><path class="cls-3" d="M137.75,134.33h4.5q1.5,0,1.11,1.5l-1.21,4.5a1.81,1.81,0,0,1-1.9,1.5h-4.5c-1,0-1.37-.5-1.1-1.5l1.21-4.5A1.79,1.79,0,0,1,137.75,134.33Zm-.39,1.5-1.21,4.5h4.5l1.21-4.5Z"/><path class="cls-3" d="M150.75,141.83h-7.5l2-7.5h1.5l-1.6,6h6Z"/><path class="cls-3" d="M155.75,134.33h4.5q1.5,0,1.11,1.5l-1.21,4.5a1.81,1.81,0,0,1-1.9,1.5h-4.5c-1,0-1.37-.5-1.1-1.5l1.21-4.5A1.79,1.79,0,0,1,155.75,134.33Zm-.39,1.5-1.21,4.5h4.5l1.21-4.5Z"/><path class="cls-3" d="M164.52,138.83l-.7-1-1.07,4h-1.5l2-7.5h6q1.5,0,1.11,1.5l-.4,1.5a1.8,1.8,0,0,1-1.88,1.5h-1.52l2.19,3h-2Zm-.16-3-.4,1.5h4.5l.4-1.5Z"/><path class="cls-3" d="M185.36,135.83h-6l-.4,1.5h4.5c1,0,1.36.5,1.1,1.5l-.41,1.5a1.81,1.81,0,0,1-1.9,1.5h-6l.4-1.5h6l.41-1.5h-4.5c-1,0-1.37-.5-1.1-1.5l.4-1.5a1.79,1.79,0,0,1,1.89-1.5h6Z"/><path class="cls-3" d="M188.75,134.33l-2,7.5h-1.5l2-7.5Z"/><path class="cls-3" d="M190.25,134.33h7.5l-.39,1.5h-3l-1.61,6h-1.5l1.61-6h-3Z"/><path class="cls-3" d="M205.56,138.83l-.81,3h-1.5l1.61-6a1.79,1.79,0,0,1,1.89-1.5h4.5q1.5,0,1.11,1.5l-1.61,6h-1.5l.81-3Zm4.9-1.5.4-1.5h-4.5l-.4,1.5Z"/><path class="cls-3" d="M220.25,134.33h3q1.5,0,1.11,1.5l-1.61,6h-1.5l1.61-6h-3l-1.61,6h-1.5l1.61-6h-3l-1.61,6h-1.5l1.61-6a1.79,1.79,0,0,1,1.89-1.5h3c.49,0,.67.25.56.75A.91.91,0,0,1,220.25,134.33Z"/><path class="cls-3" d="M232.15,140.33l-.4,1.5h-7.5l.4-1.5Zm.81-3-.4,1.5h-7.5l.4-1.5Zm.79-3-.39,1.5h-7.5l.39-1.5Z"/><path class="cls-3" d="M235.25,134.33h7.5l-.39,1.5h-3l-1.61,6h-1.5l1.61-6h-3Z"/><path class="cls-3" d="M244.56,138.83l-.81,3h-1.5l.81-3Z"/><path class="cls-3" d="M251.65,140.33l1.21-4.5a1.79,1.79,0,0,1,1.89-1.5h6l-.39,1.5h-6l-1.21,4.5h6l-.4,1.5h-6C251.75,141.83,251.38,141.33,251.65,140.33Z"/><path class="cls-3" d="M263.75,134.33h4.5q1.5,0,1.11,1.5l-1.21,4.5a1.81,1.81,0,0,1-1.9,1.5h-4.5c-1,0-1.37-.5-1.1-1.5l1.21-4.5A1.79,1.79,0,0,1,263.75,134.33Zm-.39,1.5-1.21,4.5h4.5l1.21-4.5Z"/><path class="cls-3" d="M269.25,141.83l2-7.5,4.81,4.5,1.19-4.5h1.5l-2,7.5-4.79-4.5-1.21,4.5Z"/><path class="cls-3" d="M287.36,135.83h-6l-.4,1.5h4.5c1,0,1.36.5,1.1,1.5l-.41,1.5a1.81,1.81,0,0,1-1.9,1.5h-6l.4-1.5h6l.41-1.5h-4.5c-1,0-1.37-.5-1.1-1.5l.4-1.5a1.79,1.79,0,0,1,1.89-1.5h6Z"/><path class="cls-3" d="M295.15,140.33l-.4,1.5h-7.5l.4-1.5Zm.81-3-.4,1.5h-7.5l.4-1.5Zm.79-3-.39,1.5h-7.5l.39-1.5Z"/><path class="cls-3" d="M296.65,140.33l1.21-4.5a1.79,1.79,0,0,1,1.89-1.5h6l-.39,1.5h-6l-1.21,4.5h6l-.4,1.5h-6C296.75,141.83,296.38,141.33,296.65,140.33Z"/><path class="cls-3" d="M306.06,138.83l.4-1.5H311l-.4,1.5Z"/><path class="cls-3" d="M25.25,148.73h7.5l-.39,1.5h-3l-1.61,6h-1.5l1.61-6h-3Z"/><path class="cls-3" d="M40.15,154.73l-.4,1.5h-7.5l.4-1.5Zm.81-3-.4,1.5h-7.5l.4-1.5Zm.79-3-.39,1.5h-7.5l.39-1.5Z"/><path class="cls-3" d="M43.25,148.73h7.5l-.39,1.5h-3l-1.61,6h-1.5l1.61-6h-3Z"/><path class="cls-3" d="M56.25,156.23h-4.5c-1,0-1.37-.5-1.1-1.5l1.6-6h1.5l-1.6,6h4.5l1.6-6h1.5l-1.6,6A1.81,1.81,0,0,1,56.25,156.23Z"/><path class="cls-3" d="M67.15,154.73l-.4,1.5h-7.5l.4-1.5Zm.81-3-.4,1.5h-7.5l.4-1.5Zm.79-3-.39,1.5h-7.5l.39-1.5Z"/><path class="cls-3" d="M71.52,153.23l-.7-1-1.07,4h-1.5l2-7.5h6q1.5,0,1.11,1.5l-.4,1.5a1.8,1.8,0,0,1-1.88,1.5H73.56l2.19,3h-2Zm-.16-3-.4,1.5h4.5l.4-1.5Z"/><path class="cls-3" d="M85.56,153.23l-.81,3h-1.5l1.61-6a1.79,1.79,0,0,1,1.89-1.5h4.5q1.5,0,1.11,1.5l-1.61,6h-1.5l.81-3Zm4.9-1.5.4-1.5h-4.5l-.4,1.5Z"/><path class="cls-3" d="M92.25,156.23l2-7.5h6q1.5,0,1.11,1.5l-1.21,4.5a1.81,1.81,0,0,1-1.9,1.5Zm1.9-1.5h4.5l1.21-4.5h-4.5Z"/><path class="cls-3" d="M104.75,148.73l-2,7.5h-1.5l2-7.5Z"/><path class="cls-3" d="M105.75,156.23h-1.5l2-7.5h6q1.5,0,1.11,1.5l-.4,1.5a1.81,1.81,0,0,1-1.9,1.5h-4.5Zm5.71-4.5.4-1.5h-4.5l-.4,1.5Z"/><path class="cls-3" d="M116.75,148.73l-2,7.5h-1.5l2-7.5Z"/><path class="cls-3" d="M125.36,150.23h-6l-.4,1.5h4.5c1,0,1.36.5,1.1,1.5l-.41,1.5a1.81,1.81,0,0,1-1.9,1.5h-6l.4-1.5h6l.41-1.5h-4.5c-1,0-1.37-.5-1.1-1.5l.4-1.5a1.79,1.79,0,0,1,1.89-1.5h6Z"/><path class="cls-3" d="M125.65,154.73l1.21-4.5a1.79,1.79,0,0,1,1.89-1.5h6l-.39,1.5h-6l-1.21,4.5h6l-.4,1.5h-6C125.75,156.23,125.38,155.73,125.65,154.73Z"/><path class="cls-3" d="M137.75,148.73l-2,7.5h-1.5l2-7.5Z"/><path class="cls-3" d="M137.25,156.23l2-7.5,4.81,4.5,1.19-4.5h1.5l-2,7.5-4.79-4.5-1.21,4.5Z"/><path class="cls-3" d="M153.75,156.23h-6c-1,0-1.37-.5-1.1-1.5l1.21-4.5a1.79,1.79,0,0,1,1.89-1.5h6l-.39,1.5h-6l-1.21,4.5h4.5l.41-1.5h-2.25l.4-1.5H155Z"/><path class="cls-3" d="M169.15,154.73l-.4,1.5h-7.5l.4-1.5Zm.81-3-.4,1.5h-7.5l.4-1.5Zm.79-3-.39,1.5h-7.5l.39-1.5Z"/><path class="cls-3" d="M177.75,156.23h-7.5l2-7.5h1.5l-1.6,6h6Z"/><path class="cls-3" d="M182.75,148.73l-2,7.5h-1.5l2-7.5Z"/><path class="cls-3" d="M184.25,148.73h7.5l-.39,1.5h-3l-1.61,6h-1.5l1.61-6h-3Z"/><path class="cls-3" d="M193.56,153.23l-.81,3h-1.5l.81-3Z"/><path class="cls-3" d="M209.36,150.23h-6l-.4,1.5h4.5c1,0,1.36.5,1.1,1.5l-.41,1.5a1.81,1.81,0,0,1-1.9,1.5h-6l.4-1.5h6l.41-1.5h-4.5c-1,0-1.37-.5-1.1-1.5l.4-1.5a1.79,1.79,0,0,1,1.89-1.5h6Z"/><path class="cls-3" d="M217.15,154.73l-.4,1.5h-7.5l.4-1.5Zm.81-3-.4,1.5h-7.5l.4-1.5Zm.79-3-.39,1.5h-7.5l.39-1.5Z"/><path class="cls-3" d="M218.25,156.23l2-7.5h6q1.5,0,1.11,1.5l-1.21,4.5a1.81,1.81,0,0,1-1.9,1.5Zm1.9-1.5h4.5l1.21-4.5h-4.5Z"/><path class="cls-3" d="M233.25,156.23l2-7.5h6q1.5,0,1.11,1.5l-1.21,4.5a1.81,1.81,0,0,1-1.9,1.5Zm1.9-1.5h4.5l1.21-4.5h-4.5Z"/><path class="cls-3" d="M245.75,148.73l-2,7.5h-1.5l2-7.5Z"/><path class="cls-3" d="M247.56,153.23l-.81,3h-1.5l1.61-6a1.79,1.79,0,0,1,1.89-1.5h4.5q1.5,0,1.11,1.5l-1.61,6h-1.5l.81-3Zm4.9-1.5.4-1.5h-4.5l-.4,1.5Z"/><path class="cls-3" d="M262.25,148.73h3q1.5,0,1.11,1.5l-1.61,6h-1.5l1.61-6h-3l-1.61,6h-1.5l1.61-6h-3l-1.61,6h-1.5l1.61-6a1.79,1.79,0,0,1,1.89-1.5h3c.49,0,.67.25.56.75A.91.91,0,0,1,262.25,148.73Z"/><path class="cls-3" d="M272.25,156.23l2-7.5,4.81,4.5,1.19-4.5h1.5l-2,7.5-4.79-4.5-1.21,4.5Z"/><path class="cls-3" d="M284.75,148.73h4.5q1.5,0,1.11,1.5l-1.21,4.5a1.81,1.81,0,0,1-1.9,1.5h-4.5c-1,0-1.37-.5-1.1-1.5l1.21-4.5A1.79,1.79,0,0,1,284.75,148.73Zm-.39,1.5-1.21,4.5h4.5l1.21-4.5Z"/><path class="cls-3" d="M290.25,156.23l2-7.5,4.81,4.5,1.19-4.5h1.5l-2,7.5-4.79-4.5-1.21,4.5Z"/><path class="cls-3" d="M305.25,156.23h-4.5c-1,0-1.37-.5-1.1-1.5l1.6-6h1.5l-1.6,6h4.5l1.6-6h1.5l-1.6,6A1.81,1.81,0,0,1,305.25,156.23Z"/><path class="cls-3" d="M316.25,148.73h3q1.5,0,1.11,1.5l-1.61,6h-1.5l1.61-6h-3l-1.61,6h-1.5l1.61-6h-3l-1.61,6h-1.5l1.61-6a1.79,1.79,0,0,1,1.89-1.5h3c.49,0,.67.25.56.75A.91.91,0,0,1,316.25,148.73Z"/><path class="cls-3" d="M321.06,153.23l.4-1.5H326l-.4,1.5Z"/><path class="cls-3" d="M31.25,163.13h3q1.5,0,1.11,1.5l-1.61,6h-1.5l1.61-6h-3l-1.61,6h-1.5l1.61-6h-3l-1.61,6h-1.5l1.61-6a1.79,1.79,0,0,1,1.89-1.5h3c.49,0,.67.25.56.75A.91.91,0,0,1,31.25,163.13Z"/><path class="cls-3" d="M41.65,169.13l.41-1.5h-4.5c-1,0-1.37-.5-1.1-1.5l.79-3h1.5l-.79,3h4.5l.79-3h1.5l-1.6,6a1.81,1.81,0,0,1-1.9,1.5h-6l.4-1.5Z"/><path class="cls-3" d="M50.25,170.63l2-7.5,4.81,4.5,1.19-4.5h1.5l-2,7.5L53,166.13l-1.21,4.5Z"/><path class="cls-3" d="M62.75,163.13l-2,7.5h-1.5l2-7.5Z"/><path class="cls-3" d="M70,166.88c.5,0,.68.25.55.75l-.41,1.5a1.81,1.81,0,0,1-1.9,1.5h-6l2-7.5h6q1.5,0,1.11,1.5l-.4,1.5A.91.91,0,0,1,70,166.88Zm-5.45.75-.41,1.5h4.5l.41-1.5Zm4.9-1.5.4-1.5h-4.5l-.4,1.5Z"/><path class="cls-3" d="M74.75,163.13l-.79,3h4.5l.79-3h1.5l-2,7.5h-1.5l.81-3h-4.5l-.81,3h-1.5l2-7.5Z"/><path class="cls-3" d="M94.15,169.13l-.4,1.5h-7.5l.4-1.5Zm.81-3-.4,1.5h-7.5l.4-1.5Zm.79-3-.39,1.5h-7.5l.39-1.5Z"/><path class="cls-3" d="M101.25,170.63h-4.5c-1,0-1.37-.5-1.1-1.5l1.6-6h1.5l-1.6,6h4.5l1.6-6h1.5l-1.6,6A1.81,1.81,0,0,1,101.25,170.63Z"/><path class="cls-3" d="M107.75,163.13l-2,7.5h-1.5l2-7.5Z"/><path class="cls-3" d="M116.36,164.63h-6l-.4,1.5h4.5c1,0,1.36.5,1.1,1.5l-.41,1.5a1.81,1.81,0,0,1-1.9,1.5h-6l.4-1.5h6l.41-1.5h-4.5c-1,0-1.37-.5-1.1-1.5l.4-1.5a1.79,1.79,0,0,1,1.89-1.5h6Z"/><path class="cls-3" d="M124.25,163.13h3q1.5,0,1.11,1.5l-1.61,6h-1.5l1.61-6h-3l-1.61,6h-1.5l1.61-6h-3l-1.61,6h-1.5l1.61-6a1.79,1.79,0,0,1,1.89-1.5h3c.49,0,.67.25.56.75A.91.91,0,0,1,124.25,163.13Z"/><path class="cls-3" d="M131.75,163.13h4.5q1.5,0,1.11,1.5l-1.21,4.5a1.81,1.81,0,0,1-1.9,1.5h-4.5c-1,0-1.37-.5-1.1-1.5l1.21-4.5A1.79,1.79,0,0,1,131.75,163.13Zm-.39,1.5-1.21,4.5h4.5l1.21-4.5Z"/><path class="cls-3" d="M137.25,170.63l2-7.5h6q1.5,0,1.11,1.5l-1.21,4.5a1.81,1.81,0,0,1-1.9,1.5Zm1.9-1.5h4.5l1.21-4.5h-4.5Z"/><path class="cls-3" d="M154.25,163.13h7.5l-.39,1.5h-3l-1.61,6h-1.5l1.61-6h-3Z"/><path class="cls-3" d="M164.75,163.13l-2,7.5h-1.5l2-7.5Z"/><path class="cls-3" d="M164.25,170.63l2-7.5,4.81,4.5,1.19-4.5h1.5l-2,7.5-4.79-4.5-1.21,4.5Z"/><path class="cls-3" d="M173.65,169.13l1.21-4.5a1.79,1.79,0,0,1,1.89-1.5h6l-.39,1.5h-6l-1.21,4.5h6l-.4,1.5h-6C173.75,170.63,173.38,170.13,173.65,169.13Z"/><path class="cls-3" d="M185.75,163.13l-2,7.5h-1.5l2-7.5Z"/><path class="cls-3" d="M185.25,170.63l2-7.5h6q1.5,0,1.11,1.5l-1.21,4.5a1.81,1.81,0,0,1-1.9,1.5Zm1.9-1.5h4.5l1.21-4.5h-4.5Z"/><path class="cls-3" d="M200.25,170.63h-4.5c-1,0-1.37-.5-1.1-1.5l1.6-6h1.5l-1.6,6h4.5l1.6-6h1.5l-1.6,6A1.81,1.81,0,0,1,200.25,170.63Z"/><path class="cls-3" d="M203.25,170.63l2-7.5,4.81,4.5,1.19-4.5h1.5l-2,7.5-4.79-4.5-1.21,4.5Z"/><path class="cls-3" d="M214.25,163.13h7.5l-.39,1.5h-3l-1.61,6h-1.5l1.61-6h-3Z"/><path class="cls-3" d="M233.25,170.63h-4.5c-1,0-1.37-.5-1.1-1.5l1.6-6h1.5l-1.6,6h4.5l1.6-6h1.5l-1.6,6A1.81,1.81,0,0,1,233.25,170.63Z"/><path class="cls-3" d="M238.25,163.13h7.5l-.39,1.5h-3l-1.61,6h-1.5l1.61-6h-3Z"/><path class="cls-3" d="M258.75,170.63h-7.5l2-7.5h1.5l-1.6,6h6Z"/><path class="cls-3" d="M262.56,167.63l-.81,3h-1.5l1.61-6a1.79,1.79,0,0,1,1.89-1.5h4.5q1.5,0,1.11,1.5l-1.61,6h-1.5l.81-3Zm4.9-1.5.4-1.5h-4.5l-.4,1.5Z"/><path class="cls-3" d="M272.75,163.13h4.5q1.5,0,1.11,1.5l-1.21,4.5a1.81,1.81,0,0,1-1.9,1.5h-4.5c-1,0-1.37-.5-1.1-1.5l1.21-4.5A1.79,1.79,0,0,1,272.75,163.13Zm-.39,1.5-1.21,4.5h4.5l1.21-4.5Z"/><path class="cls-3" d="M281.52,167.63l-.7-1-1.07,4h-1.5l2-7.5h6q1.5,0,1.11,1.5l-.4,1.5a1.8,1.8,0,0,1-1.88,1.5h-1.52l2.19,3h-2Zm-.16-3-.4,1.5h4.5l.4-1.5Z"/><path class="cls-3" d="M295.15,169.13l-.4,1.5h-7.5l.4-1.5Zm.81-3-.4,1.5h-7.5l.4-1.5Zm.79-3-.39,1.5h-7.5l.39-1.5Z"/><path class="cls-3" d="M304.15,169.13l-.4,1.5h-7.5l.4-1.5Zm.81-3-.4,1.5h-7.5l.4-1.5Zm.79-3-.39,1.5h-7.5l.39-1.5Z"/><path class="cls-3" d="M307.25,163.13h7.5l-.39,1.5h-3l-1.61,6h-1.5l1.61-6h-3Z"/><path class="cls-3" d="M23.25,185l2-7.5h6q1.5,0,1.11,1.5l-1.21,4.5a1.81,1.81,0,0,1-1.9,1.5Zm1.9-1.5h4.5l1.21-4.5h-4.5Z"/><path class="cls-3" d="M35.75,177.53h4.5q1.5,0,1.11,1.5l-1.21,4.5a1.81,1.81,0,0,1-1.9,1.5h-4.5c-1,0-1.37-.5-1.1-1.5l1.21-4.5A1.79,1.79,0,0,1,35.75,177.53Zm-.39,1.5-1.21,4.5h4.5l1.21-4.5Z"/><path class="cls-3" d="M48.75,185h-7.5l2-7.5h1.5l-1.6,6h6Z"/><path class="cls-3" d="M53.75,177.53h4.5q1.5,0,1.11,1.5l-1.21,4.5a1.81,1.81,0,0,1-1.9,1.5h-4.5c-1,0-1.37-.5-1.1-1.5l1.21-4.5A1.79,1.79,0,0,1,53.75,177.53Zm-.39,1.5-1.21,4.5h4.5l1.21-4.5Z"/><path class="cls-3" d="M62.52,182l-.7-1-1.07,4h-1.5l2-7.5h6q1.5,0,1.11,1.5l-.4,1.5a1.8,1.8,0,0,1-1.88,1.5H64.56l2.19,3h-2Zm-.16-3-.4,1.5h4.5l.4-1.5Z"/><path class="cls-3" d="M76.15,183.53l-.4,1.5h-7.5l.4-1.5Zm.81-3-.4,1.5h-7.5l.4-1.5Zm.79-3-.39,1.5h-7.5l.39-1.5Z"/><path class="cls-3" d="M91.25,177.53h3q1.5,0,1.11,1.5l-1.61,6h-1.5l1.61-6h-3l-1.61,6h-1.5l1.61-6h-3l-1.61,6h-1.5l1.61-6a1.79,1.79,0,0,1,1.89-1.5h3c.49,0,.67.25.56.75A.91.91,0,0,1,91.25,177.53Z"/><path class="cls-3" d="M97.56,182l-.81,3h-1.5l1.61-6a1.79,1.79,0,0,1,1.89-1.5h4.5q1.5,0,1.11,1.5l-1.61,6h-1.5l.81-3Zm4.9-1.5.4-1.5h-4.5l-.4,1.5Z"/><path class="cls-3" d="M111.75,185h-6c-1,0-1.37-.5-1.1-1.5l1.21-4.5a1.79,1.79,0,0,1,1.89-1.5h6l-.39,1.5h-6l-1.21,4.5h4.5l.41-1.5h-2.25l.4-1.5H113Z"/><path class="cls-3" d="M113.25,185l2-7.5,4.81,4.5,1.19-4.5h1.5l-2,7.5-4.79-4.5-1.21,4.5Z"/><path class="cls-3" d="M124.56,182l-.81,3h-1.5l1.61-6a1.79,1.79,0,0,1,1.89-1.5h4.5q1.5,0,1.11,1.5l-1.61,6h-1.5l.81-3Zm4.9-1.5.4-1.5h-4.5l-.4,1.5Z"/><path class="cls-3" d="M139.56,182l-.81,3h-1.5l1.61-6a1.79,1.79,0,0,1,1.89-1.5h4.5q1.5,0,1.11,1.5l-1.61,6h-1.5l.81-3Zm4.9-1.5.4-1.5h-4.5l-.4,1.5Z"/><path class="cls-3" d="M153.75,185h-7.5l2-7.5h1.5l-1.6,6h6Z"/><path class="cls-3" d="M158.75,177.53l-2,7.5h-1.5l2-7.5Z"/><path class="cls-3" d="M162.21,185h-2.46c-1,0-1.37-.5-1.1-1.5l1.21-4.5a1.79,1.79,0,0,1,1.89-1.5h4.5q1.5,0,1.11,1.5l-1.21,4.5a1.81,1.81,0,0,1-1.9,1.5l1.1,1.5h-2Zm2.44-1.5,1.21-4.5h-4.5l-1.21,4.5Z"/><path class="cls-3" d="M173.25,185h-4.5c-1,0-1.37-.5-1.1-1.5l1.6-6h1.5l-1.6,6h4.5l1.6-6h1.5l-1.6,6A1.81,1.81,0,0,1,173.25,185Z"/><path class="cls-3" d="M178.56,182l-.81,3h-1.5l1.61-6a1.79,1.79,0,0,1,1.89-1.5h4.5q1.5,0,1.11,1.5l-1.61,6h-1.5l.81-3Zm4.9-1.5.4-1.5h-4.5l-.4,1.5Z"/><path class="cls-3" d="M193.25,177.53h3q1.5,0,1.11,1.5l-1.61,6h-1.5l1.61-6h-3l-1.61,6h-1.5l1.61-6h-3l-1.61,6h-1.5l1.61-6a1.79,1.79,0,0,1,1.89-1.5h3c.49,0,.67.25.56.75A.91.91,0,0,1,193.25,177.53Z"/><path class="cls-3" d="M211.15,183.53l-.4,1.5h-7.5l.4-1.5Zm.81-3-.4,1.5h-7.5l.4-1.5Zm.79-3-.39,1.5h-7.5l.39-1.5Z"/><path class="cls-3" d="M215.52,182l-.7-1-1.07,4h-1.5l2-7.5h6q1.5,0,1.11,1.5l-.4,1.5a1.8,1.8,0,0,1-1.88,1.5h-1.52l2.19,3h-2Zm-.16-3-.4,1.5h4.5l.4-1.5Z"/><path class="cls-3" d="M223.56,182l-.81,3h-1.5l1.61-6a1.79,1.79,0,0,1,1.89-1.5h4.5q1.5,0,1.11,1.5l-1.61,6h-1.5l.81-3Zm4.9-1.5.4-1.5h-4.5l-.4,1.5Z"/><path class="cls-3" d="M232.25,177.53h7.5l-.39,1.5h-3l-1.61,6h-1.5l1.61-6h-3Z"/><path class="cls-3" d="M254.75,177.53l-5,7.5h-1.5l-1-7.5H249l.58,5.46,3.45-5.46Z"/><path class="cls-3" d="M257.75,177.53h4.5q1.5,0,1.11,1.5l-1.21,4.5a1.81,1.81,0,0,1-1.9,1.5h-4.5c-1,0-1.37-.5-1.1-1.5l1.21-4.5A1.79,1.79,0,0,1,257.75,177.53Zm-.39,1.5-1.21,4.5h4.5l1.21-4.5Z"/><path class="cls-3" d="M270.75,185h-7.5l2-7.5h1.5l-1.6,6h6Z"/><path class="cls-3" d="M278.25,185h-4.5c-1,0-1.37-.5-1.1-1.5l1.6-6h1.5l-1.6,6h4.5l1.6-6h1.5l-1.6,6A1.81,1.81,0,0,1,278.25,185Z"/><path class="cls-3" d="M283.25,177.53h7.5l-.39,1.5h-3l-1.61,6h-1.5l1.61-6h-3Z"/><path class="cls-3" d="M291.75,185h-1.5l2-7.5h6q1.5,0,1.11,1.5l-.4,1.5a1.81,1.81,0,0,1-1.9,1.5h-4.5Zm5.71-4.5.4-1.5h-4.5l-.4,1.5Z"/><path class="cls-3" d="M301.56,182l-.81,3h-1.5l1.61-6a1.79,1.79,0,0,1,1.89-1.5h4.5q1.5,0,1.11,1.5l-1.61,6h-1.5l.81-3Zm4.9-1.5.4-1.5h-4.5l-.4,1.5Z"/><path class="cls-3" d="M310.25,177.53h7.5l-.39,1.5h-3l-1.61,6h-1.5l1.61-6h-3Z"/><path class="cls-3" d="M317.25,185l.4-1.5h1.5l-.4,1.5Z"/><path class="cls-3" d="M29.25,199.43h-4.5c-1,0-1.37-.5-1.1-1.5l1.6-6h1.5l-1.6,6h4.5l1.6-6h1.5l-1.6,6A1.81,1.81,0,0,1,29.25,199.43Z"/><path class="cls-3" d="M34.25,191.93h7.5l-.39,1.5h-3l-1.61,6h-1.5l1.61-6h-3Z"/><path class="cls-3" d="M52.7,198.68a.93.93,0,0,1-1,.75h-3c-1,0-1.37-.5-1.1-1.5l1.6-6h1.5l-1.6,6h3l1.6-6h1.5l-1.6,6h3l1.6-6h1.5l-1.6,6a1.81,1.81,0,0,1-1.9,1.5h-3C52.77,199.43,52.58,199.18,52.7,198.68Z"/><path class="cls-3" d="M62.75,191.93l-2,7.5h-1.5l2-7.5Z"/><path class="cls-3" d="M71.36,193.43h-6l-.4,1.5h4.5c1,0,1.36.5,1.1,1.5l-.41,1.5a1.81,1.81,0,0,1-1.9,1.5h-6l.4-1.5h6l.41-1.5h-4.5c-1,0-1.37-.5-1.1-1.5l.4-1.5a1.79,1.79,0,0,1,1.89-1.5h6Z"/><path class="cls-3" d="M74.75,191.93l-2,7.5h-1.5l2-7.5Z"/><path class="cls-3" d="M26.58,94.67l-1.08,4h-2l2.14-8a2.41,2.41,0,0,1,2.53-2h6c1.34,0,1.83.66,1.47,2l-2.14,8h-2l1.08-4Zm6.53-2,.53-2h-6l-.53,2Z"/><path class="cls-3" d="M45.84,93.67c.67,0,.92.33.74,1l-.55,2a2.41,2.41,0,0,1-2.53,2h-8l2.67-10h8c1.34,0,1.83.66,1.47,2l-.53,2A1.21,1.21,0,0,1,45.84,93.67Zm-7.26,1-.55,2h6l.55-2Zm6.53-2,.53-2h-6l-.53,2Z"/><path class="cls-3" d="M48,96.67l1.61-6a2.41,2.41,0,0,1,2.53-2h8l-.53,2h-8l-1.61,6h8l-.53,2h-8C48.17,98.67,47.68,98,48,96.67Z"/><path class="cls-3" d="M59.5,98.67l2.67-10h8c1.34,0,1.83.66,1.47,2l-1.61,6a2.41,2.41,0,0,1-2.53,2Zm2.53-2h6l1.61-6h-6Z"/><path class="cls-3" d="M82,96.67l-.53,2h-10l.53-2Zm1.08-4-.53,2h-10l.53-2Zm1.06-4-.53,2h-10l.53-2Z"/><path class="cls-3" d="M86.17,88.67h10l-.53,2h-8l-.53,2h8l-.53,2h-8l-1.08,4h-2Z"/><path class="cls-3" d="M105.5,98.67h-8c-1.33,0-1.82-.67-1.47-2l1.61-6a2.41,2.41,0,0,1,2.53-2h8l-.53,2h-8l-1.61,6h6l.55-2h-3l.53-2h5Z"/><path class="cls-3" d="M112.17,88.67l-1.06,4h6l1.06-4h2l-2.67,10h-2l1.08-4h-6l-1.08,4h-2l2.67-10Z"/><path class="cls-3" d="M132.17,88.67l-2.14,8a2.41,2.41,0,0,1-2.53,2h-6c-1.33,0-1.82-.67-1.47-2l.55-2h2l-.55,2h6l2.14-8Z"/><path class="cls-3" d="M136.17,88.67l-2.67,10h-2l2.67-10Zm-1,5,6.32-5h2.72l-6.33,5,3.66,5h-2.72Z"/><path class="cls-3" d="M153.5,98.67h-10l2.67-10h2l-2.14,8h8Z"/><path class="cls-3" d="M155.5,98.67l2.67-10,6.41,6,1.59-6h2l-2.67,10-6.39-6-1.61,6Z"/><path class="cls-3" d="M172.17,88.67h6c1.34,0,1.83.66,1.47,2l-1.61,6a2.41,2.41,0,0,1-2.53,2h-6c-1.33,0-1.82-.67-1.47-2l1.61-6A2.41,2.41,0,0,1,172.17,88.67Zm-.53,2-1.61,6h6l1.61-6Z"/><path class="cls-3" d="M181.5,98.67h-2l2.67-10h8c1.34,0,1.83.66,1.47,2l-.53,2a2.41,2.41,0,0,1-2.53,2h-6Zm7.61-6,.53-2h-6l-.53,2Z"/><path class="cls-3" d="M196.78,98.67H193.5c-1.33,0-1.82-.67-1.47-2l1.61-6a2.41,2.41,0,0,1,2.53-2h6c1.34,0,1.83.66,1.47,2l-1.61,6a2.41,2.41,0,0,1-2.53,2l1.47,2h-2.72Zm3.25-2,1.61-6h-6l-1.61,6Z"/><path class="cls-3" d="M207.86,94.67l-.94-1.28-1.42,5.28h-2l2.67-10h8c1.34,0,1.83.66,1.47,2l-.53,2a2.39,2.39,0,0,1-2.5,2h-2l2.92,4h-2.72Zm-.22-4-.53,2h6l.53-2Z"/><path class="cls-3" d="M227.64,90.67h-8l-.53,2h6c1.33,0,1.82.66,1.47,2l-.55,2a2.41,2.41,0,0,1-2.53,2h-8l.53-2h8l.55-2h-6c-1.33,0-1.82-.67-1.47-2l.53-2a2.41,2.41,0,0,1,2.53-2h8Z"/><path class="cls-3" d="M230.17,88.67h10l-.53,2h-4l-2.14,8h-2l2.14-8h-4Z"/><path class="cls-3" d="M247.5,98.67h-6c-1.33,0-1.82-.67-1.47-2l2.14-8h2l-2.14,8h6l2.14-8h2l-2.14,8A2.41,2.41,0,0,1,247.5,98.67Z"/><path class="cls-3" d="M264.17,88.67l-6.67,10h-2l-1.33-10h2.28l.78,7.28,4.6-7.28Z"/><path class="cls-3" d="M270.77,97.67a1.24,1.24,0,0,1-1.27,1h-4c-1.33,0-1.82-.67-1.47-2l2.14-8h2l-2.14,8h4l2.14-8h2l-2.14,8h4l2.14-8h2l-2.14,8a2.41,2.41,0,0,1-2.53,2h-4C270.85,98.67,270.61,98.33,270.77,97.67Z"/><path class="cls-3" d="M284.59,93.67l-2.42-5h2.5L286.28,92l3.39-3.34h2.5l-5.08,5,2.41,5H287l-1.61-3.35L282,98.67h-2.5Z"/><path class="cls-3" d="M300,96.67l.55-2h-6c-1.33,0-1.82-.67-1.47-2l1.06-4h2l-1.06,4h6l1.06-4h2l-2.14,8a2.41,2.41,0,0,1-2.53,2h-8l.53-2Z"/><path class="cls-3" d="M313.5,98.67h-10l8.14-8h-6l.53-2h10l-8.14,8h6Z"/><path class="cls-3" d="M28.17,107.87l-2.67,10h-2l2.67-10Z"/><path class="cls-3" d="M30.17,107.87h8c1.34,0,1.83.66,1.47,2l-.53,2a2.41,2.41,0,0,1-2.53,2h-6l-.55,2h8l-.53,2h-8c-1.33,0-1.82-.67-1.47-2l.55-2a2.4,2.4,0,0,1,2.53-2h6l.53-2h-8Z"/><path class="cls-3" d="M50,115.87a2.41,2.41,0,0,1-2.53,2h-8l.53-2h8l.55-2h-8l.53-2h8l.53-2h-8l.53-2h10Z"/><path class="cls-3" d="M63.64,109.87h-8l-.53,2h6c1.33,0,1.82.66,1.47,2l-.55,2a2.41,2.41,0,0,1-2.53,2h-8l.53-2h8l.55-2h-6c-1.33,0-1.82-.67-1.47-2l1.06-4h10Z"/><path class="cls-3" d="M68.17,107.87h8l-.53,2h-8l-.53,2h6c1.33,0,1.82.66,1.47,2l-.55,2a2.41,2.41,0,0,1-2.53,2h-6c-1.33,0-1.82-.67-1.47-2l1.61-6A2.41,2.41,0,0,1,68.17,107.87Zm-1.59,6-.55,2h6l.55-2Z"/><path class="cls-3" d="M78.17,107.87h10l-7.67,10H78.09l6.24-8H77.64Z"/><path class="cls-3" d="M92.17,107.87h6c1.34,0,1.83.66,1.47,2l-1.61,6a2.41,2.41,0,0,1-2.53,2h-6c-1.33,0-1.82-.67-1.47-2l1.61-6A2.41,2.41,0,0,1,92.17,107.87Zm-1.59,6-.55,2h6l.55-2Zm1.06-4-.53,2h6l.53-2Z"/><path class="cls-3" d="M107.5,117.87h-8l.53-2h8l.55-2h-6c-1.33,0-1.82-.67-1.47-2l.53-2a2.41,2.41,0,0,1,2.53-2h6c1.34,0,1.83.66,1.47,2l-1.61,6A2.41,2.41,0,0,1,107.5,117.87Zm1.61-6,.53-2h-6l-.53,2Z"/><path class="cls-3" d="M116.17,107.87h6c1.34,0,1.83.66,1.47,2l-1.61,6a2.41,2.41,0,0,1-2.53,2h-6c-1.33,0-1.82-.67-1.47-2l1.61-6A2.41,2.41,0,0,1,116.17,107.87Zm-.53,2-1.61,6h6l1.61-6Z"/><g class="cls-4"><rect class="cls-5" x="382.37" y="23.88" width="92.87" height="100.68"/><polygon class="cls-6" points="404.25 121.2 447.68 63.84 472.25 101.04 404.25 121.2"/><g class="cls-7"><polygon class="cls-6" points="399.41 124.46 448.02 60.26 475.52 101.89 399.41 124.46"/></g><polygon class="cls-8" points="493.06 33.2 423.96 124.46 384.87 65.27 493.06 33.2"/><g class="cls-7"><polygon class="cls-8" points="500.76 28.02 423.42 130.16 379.66 63.92 500.76 28.02"/></g><path class="cls-6" d="M405.22,66.56l2.57-9.63h7.71c1.28,0,1.75.64,1.41,1.93l-1.55,5.78a2.32,2.32,0,0,1-2.44,1.92Zm2.44-1.92h5.78L415,58.86h-5.78Z"/><path class="cls-9" d="M421.28,56.93l-2.57,9.63h-1.93l2.57-9.63Z"/><path class="cls-9" d="M430.27,66.56h-7.71c-1.29,0-1.76-.64-1.42-1.92l1.55-5.78a2.33,2.33,0,0,1,2.44-1.93h7.71l-.51,1.93h-7.71l-1.55,5.78h5.78l.53-1.93h-2.89l.51-1.93h4.82Z"/><path class="cls-9" d="M436.69,56.93l-2.57,9.63h-1.93l2.58-9.63Z"/><path class="cls-9" d="M438.62,56.93h9.63l-.51,1.93h-3.85l-2.06,7.7H439.9l2.06-7.7h-3.85Z"/><path class="cls-9" d="M450.57,62.71l-1,3.85h-1.92l2.06-7.7a2.31,2.31,0,0,1,2.44-1.93h5.78c1.28,0,1.75.64,1.41,1.93l-2.06,7.7h-1.93l1-3.85Zm6.3-1.93.51-1.92H451.6l-.52,1.92Z"/><path class="cls-9" d="M468.8,66.56h-9.63l2.57-9.63h1.93l-2.06,7.71h7.7Z"/><path class="cls-6" d="M398,93.37l2.57-9.64h7.71c1.28,0,1.75.65,1.41,1.93l-1.55,5.78a2.31,2.31,0,0,1-2.44,1.93Zm2.43-1.93h5.78l1.56-5.78H402Z"/><path class="cls-9" d="M419.67,91.44l-.51,1.93h-9.63l.51-1.93Zm1-3.85-.51,1.92h-9.63l.51-1.92Zm1-3.86-.52,1.93h-9.63l.51-1.93Z"/><path class="cls-9" d="M432.78,85.66h-7.7l-.52,1.93h5.79q1.92,0,1.41,1.92l-.53,1.93a2.31,2.31,0,0,1-2.44,1.93h-7.7l.51-1.93h7.71l.52-1.93h-5.78q-1.92,0-1.41-1.92l.51-1.93a2.32,2.32,0,0,1,2.44-1.93h7.71Z"/><path class="cls-9" d="M437.15,83.73l-2.57,9.64h-1.93l2.57-9.64Z"/><path class="cls-9" d="M446.14,93.37h-7.71c-1.29,0-1.76-.64-1.42-1.93l1.55-5.78A2.34,2.34,0,0,1,441,83.73h7.71l-.51,1.93h-7.71l-1.55,5.78h5.78l.53-1.93h-2.89l.51-1.92h4.82Z"/><path class="cls-9" d="M448.06,93.37l2.58-9.64,6.17,5.78,1.53-5.78h1.93l-2.57,9.64-6.16-5.78L450,93.37Z"/><path class="cls-6" d="M411.76,70.33h3.86c1.28,0,1.75.64,1.41,1.93L415,80H413l2.06-7.71h-3.85L409.19,80h-1.93l2.06-7.71h-3.85L403.41,80h-1.93l2.06-7.71A2.32,2.32,0,0,1,406,70.33h3.85c.63,0,.86.32.71,1A1.19,1.19,0,0,1,411.76,70.33Z"/><path class="cls-9" d="M427,78,426.53,80H416.9l.51-1.93Zm1-3.85-.51,1.92h-9.64l.52-1.92Zm1-3.86-.51,1.93H419l.51-1.93Z"/><path class="cls-9" d="M428.46,80,431,70.33h7.71c1.28,0,1.75.64,1.41,1.93L438.6,78A2.32,2.32,0,0,1,436.16,80ZM430.89,78h5.78l1.56-5.78h-5.79Z"/><path class="cls-9" d="M444.52,70.33,441.94,80H440l2.57-9.64Z"/><path class="cls-9" d="M446.84,76.11l-1,3.86h-1.93l2.06-7.71a2.32,2.32,0,0,1,2.44-1.93h5.78c1.29,0,1.76.64,1.42,1.93L453.5,80h-1.92l1-3.86Zm6.29-1.92.51-1.93h-5.78l-.51,1.93Z"/></g><circle class="cls-8" cx="623.72" cy="162.43" r="37.43"/><path class="cls-6" d="M606.3,142.23h-6.39l-.42,1.6h4.79q1.59,0,1.17,1.59L605,147a1.94,1.94,0,0,1-2,1.6h-6.38L597,147h6.39l.44-1.6h-4.79c-1.07,0-1.46-.53-1.18-1.59l.43-1.6a1.92,1.92,0,0,1,2-1.6h6.38Z"/><path class="cls-9" d="M614.71,140.63h3.19c1.06,0,1.46.54,1.17,1.6l-1.71,6.39h-1.59l1.71-6.39h-3.2l-1.71,6.39H611l1.71-6.39h-3.2l-1.71,6.39h-1.59l1.71-6.39a1.92,1.92,0,0,1,2-1.6h3.19c.52,0,.71.27.59.8A1,1,0,0,1,614.71,140.63Z"/><path class="cls-9" d="M621.42,145.42l-.86,3.2H619l1.71-6.39a1.93,1.93,0,0,1,2-1.6h4.79c1.06,0,1.46.54,1.17,1.6l-1.71,6.39h-1.59l.86-3.2Zm5.21-1.59.43-1.6h-4.79l-.43,1.6Z"/><path class="cls-9" d="M629,147l1.29-4.79a1.93,1.93,0,0,1,2-1.6h6.39l-.43,1.6h-6.38L630.56,147H637l-.43,1.6h-6.38C629.07,148.62,628.68,148.08,629,147Z"/><path class="cls-9" d="M638.54,147l1.29-4.79a1.93,1.93,0,0,1,2-1.6h6.39l-.43,1.6h-6.38L640.14,147h6.39l-.43,1.6h-6.38C638.65,148.62,638.26,148.08,638.54,147Z"/><rect class="cls-6" x="631.9" y="154.37" width="18.55" height="33.85" rx="8.97" ry="8.97" transform="translate(49.12 -128.57) rotate(11.9)"/><rect class="cls-10" x="633.08" y="155.86" width="16.48" height="28.38" rx="7.97" ry="7.97" transform="translate(48.87 -128.62) rotate(11.9)"/><circle class="cls-9" cx="646.38" cy="165.66" r="2.08"/><path class="cls-9" d="M644.87,168.35h.19a2.73,2.73,0,0,1,2.73,2.73v5a.65.65,0,0,1-.65.65h-4.35a.65.65,0,0,1-.65-.65v-5a2.73,2.73,0,0,1,2.73-2.73Z" transform="translate(49.46 -129.32) rotate(11.9)"/><circle class="cls-9" cx="638.01" cy="186.1" r="1.47"/><rect class="cls-9" x="636.7" y="157.84" width="10.7" height="1.21" rx="0.59" ry="0.59" transform="translate(46.49 -129.03) rotate(11.9)"/><rect class="cls-9" x="636.26" y="159.73" width="6.87" height="1.21" rx="0.59" ry="0.59" transform="translate(46.83 -128.5) rotate(11.9)"/><g class="cls-11"><rect class="cls-9" x="635.05" y="162.22" width="6.87" height="7.73" rx="3.32" ry="3.32" transform="translate(47.99 -128.13) rotate(11.9)"/><path class="cls-12" d="M636.89,164.43h0a.44.44,0,0,1,.44.44v4.78a0,0,0,0,1,0,0h-.9a0,0,0,0,1,0,0v-4.78a.44.44,0,0,1,.44-.44Z" transform="translate(48.15 -127.78) rotate(11.9)"/><path class="cls-13" d="M637.51,167.13h0a.44.44,0,0,1,.44.44v2.24a0,0,0,0,1,0,0h-.9a0,0,0,0,1,0,0v-2.24A.44.44,0,0,1,637.51,167.13Z" transform="translate(48.46 -127.88) rotate(11.9)"/><path class="cls-13" d="M640.41,165.21h0a.44.44,0,0,1,.44.44v4.74a0,0,0,0,1,0,0H640a0,0,0,0,1,0,0v-4.74a.44.44,0,0,1,.44-.44Z" transform="translate(48.38 -128.49) rotate(11.9)"/><path class="cls-14" d="M638.57,165.68h0a.44.44,0,0,1,.44.44V170a0,0,0,0,1,0,0h-.9a0,0,0,0,1,0,0v-3.9A.44.44,0,0,1,638.57,165.68Z" transform="matrix(0.98, 0.21, -0.21, 0.98, 48.35, -128.11)"/><path class="cls-12" d="M639.62,164.25h0a.44.44,0,0,1,.44.44v5.53a0,0,0,0,1,0,0h-.9a0,0,0,0,1,0,0v-5.53A.44.44,0,0,1,639.62,164.25Z" transform="translate(48.25 -128.34) rotate(11.9)"/><path class="cls-14" d="M635.83,165.94h0a.44.44,0,0,1,.44.44v3.07a0,0,0,0,1,0,0h-.9a0,0,0,0,1,0,0v-3.07A.44.44,0,0,1,635.83,165.94Z" transform="translate(48.26 -127.55) rotate(11.9)"/></g><rect class="cls-9" x="635.86" y="177.5" width="10.7" height="1.21" rx="0.59" ry="0.59" transform="translate(50.53 -128.43) rotate(11.9)"/><rect class="cls-9" x="639.1" y="180.17" width="6.87" height="1.21" rx="0.59" ry="0.59" transform="translate(51.1 -128.64) rotate(11.9)"/><rect class="cls-6" x="604.51" y="165.36" width="3.3" height="5.2" rx="1.6" ry="1.6" transform="translate(-21.49 126.78) rotate(-11.73)"/><rect class="cls-6" x="596.84" y="147.38" width="14.61" height="27.16" rx="7.06" ry="7.06" transform="translate(638.89 -463.29) rotate(78.27)"/><rect class="cls-15" x="597.95" y="148.33" width="12.43" height="25.41" rx="6.01" ry="6.01" transform="translate(638.97 -463.25) rotate(78.27)"/><rect class="cls-6" x="600.81" y="169.57" width="11.45" height="1.71" rx="0.83" ry="0.83" transform="translate(-21.98 126.9) rotate(-11.73)"/><circle class="cls-9" cx="594.33" cy="159.59" r="1.21"/><path class="cls-9" d="M595.12,161.15h.11a1.58,1.58,0,0,1,1.58,1.58v2.89a.38.38,0,0,1-.38.38h-2.52a.38.38,0,0,1-.38-.38v-2.89a1.58,1.58,0,0,1,1.58-1.58Z" transform="translate(-20.83 124.45) rotate(-11.73)"/><circle class="cls-9" cx="612" cy="157.66" r="1.21"/><path class="cls-9" d="M612.79,159.21h.11a1.58,1.58,0,0,1,1.58,1.58v2.89a.38.38,0,0,1-.38.38h-2.52a.38.38,0,0,1-.38-.38v-2.89A1.58,1.58,0,0,1,612.79,159.21Z" transform="translate(-20.06 128) rotate(-11.73)"/><path class="cls-8" d="M600.34,156.37l3.6-.74a.39.39,0,0,1,.33.06.58.58,0,0,1,.17.14.48.48,0,0,1,.08.16c.05.25.11.51.15.76a.45.45,0,0,1-.15.45.65.65,0,0,1-.32.16l-7.06,1.46a.62.62,0,0,1-.23,0s-.07,0-.1,0a.06.06,0,0,0-.09,0,.37.37,0,0,1-.24.14s0,0,0,0,0,0,0,0a.29.29,0,0,0,0-.27c0-.31-.12-.61-.17-.92a.49.49,0,0,1,.18-.49.69.69,0,0,1,.3-.14Z"/><path class="cls-8" d="M601.86,160.67l3.6-.75a.48.48,0,0,1,.33.06c.06.05.13.08.17.15a.55.55,0,0,1,.08.15c.05.26.11.51.15.77a.45.45,0,0,1-.15.45.63.63,0,0,1-.32.15l-7.06,1.47a.93.93,0,0,1-.23,0l-.1,0a.08.08,0,0,0-.09,0,.42.42,0,0,1-.24.14h0s0,0,0,0a.31.31,0,0,0,0-.28c0-.3-.12-.6-.17-.91a.51.51,0,0,1,.18-.5.67.67,0,0,1,.3-.13Z"/><path class="cls-9" d="M609.45,158.58l-.05,0a.3.3,0,0,1-.12-.19c-.08-.31-.14-.63-.2-.94a.52.52,0,0,0-.21-.3.69.69,0,0,0-.28-.11h-.09l-7.27,1.51a.43.43,0,0,0-.26.18.5.5,0,0,0-.11.26.2.2,0,0,0,0,.07c0,.27.11.54.17.82a.39.39,0,0,0,.16.25.38.38,0,0,0,.24.11h.22l6.59-1.37.54-.11a.42.42,0,0,0,.27-.16s0,0,.08,0a.59.59,0,0,0,.27,0Z"/><path class="cls-9" d="M610.49,163.09l0,0a.25.25,0,0,1-.12-.19c-.08-.31-.14-.62-.21-.93a.52.52,0,0,0-.2-.3.75.75,0,0,0-.28-.11.33.33,0,0,0-.1,0L602.27,163a.47.47,0,0,0-.27.18.59.59,0,0,0-.1.26v.07c.06.27.12.55.17.82a.46.46,0,0,0,.17.26.38.38,0,0,0,.24.11.74.74,0,0,0,.21,0l6.6-1.37.54-.11a.46.46,0,0,0,.27-.15s0,0,.07,0a.63.63,0,0,0,.27,0Z"/><circle class="cls-6" cx="615.66" cy="182.14" r="9.89"/><circle class="cls-6" cx="615.68" cy="182.14" r="10.23"/><circle class="cls-9" cx="615.63" cy="182.23" r="9.13"/><circle class="cls-8" cx="615.68" cy="182.27" r="8.65"/><path class="cls-14" d="M615.68,182.27l-4.45-7.41a8.64,8.64,0,1,1,3,15.93Z"/><path class="cls-12" d="M615.62,182.32l-1.45,8.53a8.65,8.65,0,0,1-7.1-9.83Z"/><circle class="cls-8" cx="532.06" cy="79.29" r="37.43"/><path class="cls-6" d="M536.11,76.42a26.54,26.54,0,0,0-.59,3.09h3.09c.83,0,1.09.44,1.09,1.18,0,1.12,0,2.24,0,3.37a1.26,1.26,0,0,0,.65,1.21c2.11,1.5,3.82,3.33,4.22,6a2.64,2.64,0,0,1-.48,2c-2.19,2.29-4.5,4.47-6.83,6.75-1-1.44-1.81-2.85-2.8-4.17a8.39,8.39,0,0,0-1.85-1.66c-.17-.12-.69.06-1,.25-1.48,1-1.46,1-2.79-.26-.53-.53-1.1-1-1.65-1.52,1-1,1.88-1.9,2.71-2.85a2.12,2.12,0,0,0,.51-1.2c0-2.22,0-4.43,0-6.65,0-.92.3-1.46,1.3-1.57s1.82-.33,2.73-.5c0-.87.53-1.91.57-2.69C535.28,77.19,535.86,76.42,536.11,76.42Zm1.84,4c-1.29.07-1.48.14-2.48.21-.32,0-3.36.38-3.36,1.89v5c2-1.22,2.84-4.13,5.84-3.43Zm-.6,17.68c.34-.1.41-.1.45-.14,1.92-1.83,3.83-3.66,5.73-5.51.11-.1.07-.35.1-.53-.19,0-.44,0-.55.11q-2.77,2.64-5.52,5.33C537.44,97.44,537.45,97.7,537.35,98.06Zm-7.25-6.85c1.6-.77,6.2-5.47,6.25-6.13a.82.82,0,0,0-.57.25q-2.74,2.61-5.44,5.26C530.19,90.73,530.18,91,530.1,91.21Zm1.58.45a2.54,2.54,0,0,0,.45-.08c1.89-1.82,3.79-3.63,5.66-5.46a.91.91,0,0,0,.23-.77.64.64,0,0,0-.44.14c-1.9,1.82-3.79,3.63-5.67,5.46C531.78,91.07,531.78,91.33,531.68,91.66Zm6.4-4.47-.51-.34c-1.39,1.52-2.79,3-4.16,4.57a4.38,4.38,0,0,0-.43.93c.39-.14.5-.14.56-.2,1.42-1.36,2.84-2.72,4.23-4.11A1.09,1.09,0,0,0,538.08,87.19Zm0,2.12-.47-.34c-1.06,1.17-2.12,2.33-3.16,3.52-.12.14-.1.4-.14.61.18,0,.43,0,.55-.15,1-.91,1.93-1.83,2.86-2.79A2.73,2.73,0,0,0,538.1,89.31Zm1.54,4.51.4.25c1-1,1.91-2,2.84-3.08a1.86,1.86,0,0,0,.25-.61c-.23.05-.53,0-.68.17-.85.78-1.67,1.58-2.47,2.41A2.76,2.76,0,0,0,539.64,93.82Zm0-2,.26.09c.79-.75,1.59-1.49,2.36-2.27.13-.13.1-.41.14-.62-.18,0-.41,0-.54.15-.65.58-1.3,1.17-1.9,1.81C539.79,91.16,539.77,91.52,539.66,91.8Zm-1.58-.6-.21-.19c-.81.79-1.62,1.57-2.41,2.38-.11.11-.07.36-.11.54.19,0,.43,0,.55-.12.67-.6,1.31-1.22,1.93-1.88C538,91.76,538,91.45,538.08,91.2Zm1.28,3.26a2.19,2.19,0,0,0-2.25,2.09Zm.62-4.37c.49-.54,1-1.07,1.47-1.63a.72.72,0,0,0,.12-.46c0-.06-.25-.16-.36-.13A2.48,2.48,0,0,0,540,90.09ZM537.92,93l-1.81,1.89C536.92,95.19,538,94.07,537.92,93Z"/><path class="cls-6" d="M522.13,107.68l-6.8-9c2.38-2.06,5.25-2.25,8.17-2.23a1,1,0,0,1,.67.34c1.42,2,2.82,4,4.22,6A18.09,18.09,0,0,1,522.13,107.68Z"/><path class="cls-6" d="M529.58,103.77c1.57.1,3.1.17,4.61.32a1,1,0,0,1,.71.6c.28,1.41.49,2.82.68,4.24a2.45,2.45,0,0,1-.11,1c-.33,1.22-.69,2.43-1.05,3.69L526.73,112Z"/><path class="cls-6" d="M530.73,95.69l1.73-1.32a23.35,23.35,0,0,1,1.95,2.19c2.13,3.14,3.1,4.79,5.25,8.06-2.64-.22-4.84-2.46-5.82-4.17S531.81,97.33,530.73,95.69Z"/><path class="cls-6" d="M515.42,91.38c1.71-.14,3.35-.24,5-.42a10.81,10.81,0,0,1,5.36.91c1,.44,1.72,1.7,2.61,2.65-1.56.07-3.1.16-4.65.18a2.19,2.19,0,0,1-.94-.34c-1.19-.61-2.33-1.33-3.56-1.83A38,38,0,0,0,515.42,91.38Z"/><path class="cls-6" d="M504.51,57.75h5.26l-.28,1h-4.21L505,59.85h4.21l-.28,1h-4.21L504.16,63h-1.05Z"/><path class="cls-6" d="M511.87,57.75,510.47,63h-1.05l1.4-5.26Z"/><path class="cls-6" d="M516.78,63h-5.26l1.4-5.26H514L512.85,62h4.21Z"/><path class="cls-6" d="M523.44,57.75h2.1q1.05,0,.78,1L525.19,63h-1.05l1.12-4.21h-2.1L522,63H521l1.13-4.21H520L518.88,63h-1L519,58.8a1.27,1.27,0,0,1,1.34-1h2.1c.34,0,.47.17.38.52A.65.65,0,0,1,523.44,57.75Z"/><path class="cls-9" d="M504.16,70.57h-1.05l1.4-5.26h4.21c.7,0,1,.35.77,1l-.28,1a1.27,1.27,0,0,1-1.33,1.06h-3.16Zm4-3.16.28-1h-3.16l-.28,1Z"/><path class="cls-9" d="M511.71,68.47l-.5-.68-.74,2.78h-1.05l1.4-5.26H515c.7,0,1,.35.77,1l-.28,1a1.25,1.25,0,0,1-1.31,1.06h-1.07l1.53,2.1h-1.43Zm-.12-2.11-.28,1h3.16l.28-1Z"/><path class="cls-9" d="M518.18,65.31h3.16c.7,0,.95.35.77,1l-.85,3.16a1.26,1.26,0,0,1-1.33,1h-3.15q-1,0-.78-1l.85-3.16A1.27,1.27,0,0,1,518.18,65.31Zm-.28,1-.84,3.16h3.15l.85-3.16Z"/><path class="cls-9" d="M522,70.57l1.4-5.26h4.21c.7,0,1,.35.77,1l-.85,3.16a1.26,1.26,0,0,1-1.33,1Zm1.33-1h3.15l.85-3.16h-3.16Z"/><path class="cls-9" d="M530.8,65.31l-1.4,5.26h-1.06l1.41-5.26Z"/><path class="cls-9" d="M534.66,70.57H531.5c-.7,0-1-.35-.77-1l1.12-4.21h1.06l-1.13,4.21h3.15l1.13-4.21h1.05L536,69.52A1.27,1.27,0,0,1,534.66,70.57Z"/><path class="cls-9" d="M537,69.52l.84-3.16a1.27,1.27,0,0,1,1.33-1h4.21l-.28,1h-4.2l-.85,3.16h4.21l-.28,1h-4.21C537.11,70.57,536.85,70.22,537,69.52Z"/><path class="cls-9" d="M544.47,65.31h5.26l-.28,1h-2.1l-1.13,4.21h-1.05l1.13-4.21h-2.11Z"/><path class="cls-9" d="M551.83,65.31l-1.4,5.26h-1l1.4-5.26Z"/><path class="cls-9" d="M553.94,65.31h3.15c.7,0,1,.35.77,1L557,69.52a1.27,1.27,0,0,1-1.33,1h-3.16c-.7,0-1-.35-.77-1l.85-3.16A1.26,1.26,0,0,1,553.94,65.31Zm-.28,1-.85,3.16H556l.84-3.16Z"/><path class="cls-9" d="M557.79,70.57l1.41-5.26,3.36,3.16.84-3.16h1.05l-1.4,5.26-3.36-3.16-.85,3.16Z"/><path class="cls-6" d="M509.49,73.92h-4.21L505,75h3.16c.7,0,1,.35.77,1l-.29,1a1.26,1.26,0,0,1-1.33,1h-4.2l.27-1h4.21l.29-1h-3.16c-.7,0-1-.35-.77-1l.28-1.06a1.27,1.27,0,0,1,1.33-1h4.21Z"/><path class="cls-6" d="M510.82,72.87h5.26l-.28,1h-2.1l-1.13,4.21h-1.05l1.12-4.21h-2.1Z"/><path class="cls-6" d="M519.93,78.13h-3.15q-1,0-.78-1l1.13-4.21h1l-1.12,4.21h3.15l1.13-4.21h1l-1.13,4.21A1.26,1.26,0,0,1,519.93,78.13Z"/><path class="cls-6" d="M522,78.13l1.4-5.26h4.21c.7,0,1,.35.77,1l-.85,3.16a1.26,1.26,0,0,1-1.33,1Zm1.33-1h3.15l.85-3.16h-3.16Z"/><path class="cls-6" d="M530.8,72.87l-1.4,5.26h-1.06l1.41-5.26Z"/><path class="cls-6" d="M532.91,72.87h3.15c.7,0,1,.35.77,1L536,77.08a1.27,1.27,0,0,1-1.33,1H531.5c-.7,0-1-.35-.77-1l.84-3.16A1.27,1.27,0,0,1,532.91,72.87Zm-.28,1-.85,3.16h3.15l.85-3.16Z"/><path class="cls-9" d="M556.94,55.48a.36.36,0,0,0-.16-.46.23.23,0,0,1-.13-.21.59.59,0,0,0-.43-.49l-.49-.15-2.65-.7c-.32-.09-.37-.06-.46.27l-.41,1.49c-.13.51-.26,1-.41,1.52-.06.2,0,.35.2.41s.18.13.17.26a1.33,1.33,0,0,0,.31.89.39.39,0,0,1,.07.37l-.27,1c-.8,3-1.61,6.11-2.4,9.08l1,.09,2.64-9.76a.56.56,0,0,1,.39-.45,1,1,0,0,0,.61-.52.3.3,0,0,1,.43-.16,1.87,1.87,0,0,0,.34.08c.14,0,.34,0,.39-.09.18-.33.69-.2.78-.66S556.77,56.08,556.94,55.48Zm-3.66,2.6a.61.61,0,1,1,.31-1.18.63.63,0,0,1,.44.74A.62.62,0,0,1,553.28,58.08Z"/><path class="cls-9" d="M549.08,52.16c-.05-.15-.1-.3-.16-.45l-.7-1.92c0-.06-.08-.13,0-.2s.14,0,.2,0l2.42.65a.36.36,0,0,1,.29.27l.39,1.06c0,.06,0,.15.12.19.11-.12.07-.31.22-.45L552.2,53a1,1,0,0,1,0,.53l-.84,3.11a1.46,1.46,0,0,1-.33.61c-.33.37-.65.76-1,1.14,0,0-.08.14-.19.13,0-.25.16-.46.12-.75l-.91.76a.5.5,0,0,1-.53.13l-2.3-.62c-.08,0-.2,0-.21-.12s.08-.12.14-.17l1.55-1.3s.14-.08.1-.16-.12,0-.18,0l-1.53.15c-.33,0-.36,0-.27-.32.43-1.59.87-3.18,1.3-4.77,0-.06,0-.11,0-.16s.12-.16.23-.08l.52.37,1.1.8Zm1.49.87c0-.17,0-.25-.16-.29l-.87-.23a.21.21,0,0,0-.3.18c-.27,1-.53,2-.8,3-.05.17,0,.26.19.31s.53.13.79.21a.24.24,0,0,0,.35-.2c.12-.49.26-1,.39-1.47h0C550.3,54,550.43,53.52,550.57,53Z"/><circle class="cls-9" cx="553.43" cy="57.48" r="0.88"/><path class="cls-6" d="M529.09,92.22s3.79-6.34,7.12-7.36,8.79,6.11,7.6,7.61c-1.33,1.66-1.7,2.1-3.87,4.47s-3.16,1.9-3.73.25S529.71,91.45,529.09,92.22Z"/><path class="cls-6" d="M525.87,95.31s-1-.12-1,.35,1.4,7.81,8.76,7.11c0,0,1.83,0,1-.65S527.85,103.24,525.87,95.31Z"/><circle class="cls-8" cx="623.72" cy="79.36" r="37.43"/><polygon class="cls-6" points="611.04 100.08 611.04 104.09 599.41 104.09 599.41 93.05 603.66 93.05 603.66 100.08 611.04 100.08"/><polygon class="cls-6" points="648.14 93.05 648.14 104.09 636.67 104.09 636.67 100.08 644.22 100.08 644.22 93.05 648.14 93.05"/><polygon class="cls-6" points="648.14 55.37 648.14 66.51 644.22 66.51 644.22 59.52 636.67 59.52 636.67 55.37 648.14 55.37"/><polygon class="cls-6" points="611.04 55.37 611.04 59.52 603.66 59.52 603.66 66.51 599.41 66.51 599.41 55.37 611.04 55.37"/><path class="cls-9" d="M599.39,89.61l5.3-19.84h15.88q4,0,2.91,4l-3.19,11.9a4.79,4.79,0,0,1-5,4Zm5-4h11.9l3.19-11.9h-11.9Z"/><path class="cls-9" d="M633.31,79.69l-4.81-9.92h5l3.19,6.63,6.73-6.63h5l-10.08,9.92L643,89.61h-5L634.89,83l-6.73,6.64h-5Z"/><path class="cls-6" d="M619.75,104.09h-5.37l1.44-5.37h1.07l-1.15,4.3H620Z"/><path class="cls-6" d="M622.48,101.94l-.58,2.15h-1.07l1.15-4.3a1.29,1.29,0,0,1,1.36-1.07h3.22c.72,0,1,.36.79,1.07l-1.15,4.3h-1.08l.58-2.15Zm3.51-1.07.28-1.08h-3.22l-.28,1.08Z"/><path class="cls-6" d="M632.83,101.4q.54,0,.39.54l-.29,1.08a1.29,1.29,0,0,1-1.36,1.07h-4.3l1.44-5.37H633c.71,0,1,.36.79,1.07l-.29,1.08A.64.64,0,0,1,632.83,101.4Zm-3.9.54-.3,1.08h3.23l.29-1.08Zm3.51-1.07.28-1.08H629.5l-.29,1.08Z"/><circle class="cls-8" cx="719.56" cy="79.36" r="37.43"/><path class="cls-9" d="M715.19,54.66c.54-2.72.54-2.72,3.21-2.72h2.31c2.82,0,2.82,0,3.4,2.71h7.39c8.07.05,13.41,4.42,15.15,12.36.6,2.76,1.26,5.5,1.88,8.17,3.65.47,4.41,1.34,4.41,4.82,0,.89,0,1.77,0,2.66,0,3.62-.7,4.46-4.34,5.06-1,3.42-3.07,5.84-6.76,6.57a10.67,10.67,0,0,1-2.11.17q-20.13,0-40.26,0c-4.26,0-7-1.91-8.58-5.86a2.05,2.05,0,0,0-1.32-1c-2.26-.5-3.23-1.57-3.26-3.91,0-1.54,0-3.07,0-4.61,0-2.28,1.09-3.36,3.37-3.76a1.88,1.88,0,0,0,1.2-1.12c.67-2.5,1.25-5,1.79-7.56,1.56-7.26,7-11.8,14.41-12C709.8,54.61,712.51,54.66,715.19,54.66Zm4.31,37.46h0c7,0,14,0,20.93,0a5.66,5.66,0,0,0,5.92-5.92c0-2.84,0-5.68,0-8.52-.06-4.69-2.33-6.94-7-6.94H700c-4.76,0-7,2.23-7.13,7,0,2.54,0,5.08,0,7.63,0,4.51,2.27,6.72,6.79,6.73C706.25,92.13,712.88,92.12,719.5,92.12Zm-4.87-23.79.43-7.89c-3,0-5.72-.13-8.42,0-4.43.25-8,3.79-8.13,7.86Zm10,0h16.19c-.78-4.3-3.36-7.16-7.51-7.66a77,77,0,0,0-9.14-.07Zm-3-14a16,16,0,0,1-2,0c-1.61-.25-2.2.41-2.15,2s-.18,3.41-.21,5.11c0,2.27,0,4.54,0,6.85h5ZM694.56,69.41l.43.23a10.8,10.8,0,0,0,1.16-2.3c1.44-5.82,5.43-9.06,11.43-9.13,2.13,0,4.26,0,6.38-.05.46,0,.91-.47,1.36-.73l-.25-.56h-6.53C700.18,56.87,695.57,61,694.56,69.41Zm49.76.29.5-.38c-.24-1.15-.41-2.32-.75-3.43-1.34-4.4-4.19-7.58-8.66-8.48-3.64-.73-7.46-.53-11.2-.74l-.22.8c.44.21.87.59,1.31.6,2,.07,4,0,6,0,6.34.06,10.36,3.34,11.82,9.53A8.8,8.8,0,0,0,744.32,69.7Zm-53.86,8c-1.16-.24-1.79.1-1.79,1.28,0,1.64,0,3.28,0,4.92.05,1.27.3,1.39,1.78,1.14Zm58.34,7.5c1.33.25,1.83-.26,1.82-1.39,0-1.58,0-3.16,0-4.74,0-1.24-.59-1.64-1.82-1.33Z"/><path class="cls-9" d="M714.14,72.88c4.9,0,9.81,0,14.71,0a4.64,4.64,0,0,1,1.56.69,4.66,4.66,0,0,1-1.56.63c-9.45,0-18.9,0-28.35,0-3.21,0-4,.84-4,4.1,0,2.31,0,4.61,0,6.91,0,1.77.63,2.94,2.48,3.31.36.08.63.54.95.83-.43.18-.88.54-1.29.5a4,4,0,0,1-3.52-3.64,89.67,89.67,0,0,1,0-9.56c.14-2.36,2-3.81,4.52-3.82C704.46,72.86,709.3,72.88,714.14,72.88Z"/><path class="cls-6" d="M706.1,76.63l-3.71,5.55h-1.11l-.74-5.55h1.27l.44,4,2.55-4Z"/><path class="cls-6" d="M708.15,80l-.52-.71-.79,2.93h-1.11l1.48-5.55h4.44c.74,0,1,.37.82,1.11l-.3,1.11A1.32,1.32,0,0,1,710.78,80h-1.12l1.62,2.22h-1.51ZM708,77.74l-.29,1.11h3.33l.3-1.11Z"/><path class="cls-6" d="M709.76,85.7h-4.44l-.3,1.11h3.33c.74,0,1,.37.82,1.11l-.3,1.11a1.34,1.34,0,0,1-1.41,1.11H703l.29-1.11h4.45l.3-1.11h-3.33c-.74,0-1-.37-.82-1.11l.3-1.11a1.33,1.33,0,0,1,1.4-1.11h4.45Z"/><path class="cls-6" d="M710.79,90.14h-1.11l1.49-5.55h4.44q1.11,0,.81,1.11l-.29,1.11a1.34,1.34,0,0,1-1.41,1.11h-3.33ZM715,86.81l.29-1.11H712l-.29,1.11Z"/><path class="cls-6" d="M718.06,87.92l-.6,2.22h-1.11l1.19-4.44a1.33,1.33,0,0,1,1.4-1.11h3.33c.74,0,1,.37.82,1.11l-1.19,4.44h-1.11l.6-2.22Zm3.62-1.11.3-1.11h-3.33l-.3,1.11Z"/><path class="cls-6" d="M723.31,89l.89-3.33a1.33,1.33,0,0,1,1.4-1.11h4.45l-.3,1.11h-4.44L724.42,89h4.44l-.3,1.11h-4.44Q723,90.14,723.31,89Z"/><path class="cls-6" d="M735.52,89l-.29,1.11h-5.56L730,89Zm.6-2.22-.29,1.11h-5.56l.3-1.11Zm.59-2.22-.29,1.11h-5.56l.3-1.11Z"/><circle class="cls-8" cx="534.57" cy="164.05" r="37.43"/><path class="cls-6" d="M523.08,134.43h2.22q1.11,0,.81,1.11L524.93,140h-1.11l1.18-4.44h-2.22L521.59,140h-1.11l1.19-4.44h-2.22L518.26,140h-1.11l1.19-4.44a1.34,1.34,0,0,1,1.41-1.11H522c.36,0,.49.18.41.55A.67.67,0,0,1,523.08,134.43Z"/><path class="cls-6" d="M528.63,134.43H532c.74,0,1,.37.82,1.11l-.89,3.33a1.34,1.34,0,0,1-1.41,1.11h-3.33c-.74,0-1-.37-.82-1.11l.9-3.33A1.33,1.33,0,0,1,528.63,134.43Zm-.29,1.11-.9,3.33h3.33l.9-3.33Z"/><path class="cls-9" d="M533,138.87l.89-3.33a1.33,1.33,0,0,1,1.4-1.11h4.45l-.3,1.11H535l-.89,3.33h4.44l-.3,1.11h-4.44Q532.7,140,533,138.87Z"/><path class="cls-9" d="M541.07,137.76l-.59,2.22h-1.11l1.18-4.44a1.34,1.34,0,0,1,1.41-1.11h3.33c.74,0,1,.37.82,1.11L544.92,140h-1.11l.6-2.22Zm3.63-1.11.3-1.11h-3.34l-.29,1.11Z"/><path class="cls-9" d="M547.14,140H546l1.48-5.55H552q1.11,0,.81,1.11l-.29,1.11a1.34,1.34,0,0,1-1.41,1.11h-3.33Zm4.23-3.33.29-1.11h-3.33l-.3,1.11Z"/><path class="cls-6" d="M523.89,142.55h-4.44l-.29,1.11h3.33c.74,0,1,.37.81,1.12l-.3,1.11a1.34,1.34,0,0,1-1.41,1.11h-4.44l.3-1.11h4.44l.3-1.11h-3.33c-.74,0-1-.37-.82-1.12l.3-1.11a1.34,1.34,0,0,1,1.41-1.11h4.44Z"/><path class="cls-6" d="M525.3,141.44h5.55l-.29,1.11h-2.22L527.15,147H526l1.19-4.45H525Z"/><path class="cls-6" d="M534.92,147h-3.33c-.74,0-1-.37-.82-1.11l1.19-4.45h1.11l-1.19,4.45h3.34l1.19-4.45h1.11l-1.19,4.45A1.34,1.34,0,0,1,534.92,147Z"/><path class="cls-6" d="M537.14,147l1.49-5.56h4.44c.74,0,1,.37.82,1.11l-.9,3.34a1.33,1.33,0,0,1-1.4,1.11Zm1.41-1.11h3.33l.89-3.34h-3.33Z"/><path class="cls-6" d="M546.4,141.44,544.92,147h-1.11l1.48-5.56Z"/><path class="cls-6" d="M548.62,141.44H552q1.11,0,.81,1.11l-.89,3.34a1.34,1.34,0,0,1-1.41,1.11h-3.33c-.74,0-1-.37-.82-1.11l.9-3.34A1.33,1.33,0,0,1,548.62,141.44Zm-.29,1.11-.9,3.34h3.34l.89-3.34Z"/><path class="cls-16" d="M533.69,162.93l-.28-.05-.14,0a.46.46,0,0,1-.29-.22,1.38,1.38,0,0,1-.18-.39c0-.19-.08-.38-.12-.57,0-.34-.11-.68-.16-1s-.09-.74-.12-1.11a3.75,3.75,0,0,1,0-.58,2,2,0,0,1,.23-.83,3.28,3.28,0,0,1,.51-.71,1.77,1.77,0,0,1,1-.55,2.14,2.14,0,0,1,.62,0c.14,0,.27.05.4.07a1.71,1.71,0,0,1,.87.51,3.17,3.17,0,0,1,.57.88,1.72,1.72,0,0,1,.15.67,7.54,7.54,0,0,1,0,.95c0,.37-.09.74-.14,1.11s-.1.69-.17,1a1.87,1.87,0,0,1-.13.42.78.78,0,0,1-.11.2.42.42,0,0,1-.3.2l-.23,0-.18,0h-1Z"/><path class="cls-17" d="M533.69,162.93l.77,0h1l.09.16a1.25,1.25,0,0,1-.12,1.34l-.13.16h-1.44l-.11-.13a1.2,1.2,0,0,1-.16-1.33Z"/><path class="cls-17" d="M544.88,192.86l.37-.17a2.85,2.85,0,0,0,.37-.23l.1-.07.17.09a.76.76,0,0,1,.38.65s0,.07-.06.07a1.14,1.14,0,0,0-.32.07,1.12,1.12,0,0,0-.25.11l-.09.09a.67.67,0,0,0-.27.23l0,.05a1.24,1.24,0,0,1-.21-.19.79.79,0,0,1-.17-.57S544.87,192.91,544.88,192.86Z"/><path class="cls-16" d="M544.87,193.09l0,0a.78.78,0,0,1,.27-.24,3.38,3.38,0,0,0,.45,0h.17a.51.51,0,0,1,.31.15,0,0,0,0,1,0,.08l0,0-1.18.61-.06,0,0,0a.67.67,0,0,1,0-.42Z"/><path class="cls-16" d="M524,192.76l0,0a.67.67,0,0,0-.27-.23h-.46a.43.43,0,0,0-.16,0,.46.46,0,0,0-.31.15,0,0,0,0,0,0,.08l0,0,1.18.6.06,0a0,0,0,0,0,0,0,.7.7,0,0,0,0-.43C524.07,192.87,524,192.82,524,192.76Z"/><path class="cls-16" d="M533.16,171.05a1,1,0,0,1-.47-.56,2.37,2.37,0,0,1-.09-.36c-.07-.38-.12-.77-.17-1.15,0-.16,0-.33-.07-.49l-.06-.64c0-.06,0-.11,0-.17a.62.62,0,0,1,0-.27h0a6,6,0,0,0,0-.85s0,0,0-.06a3.12,3.12,0,0,1,.16-1,1.08,1.08,0,0,1,.51-.62,2.3,2.3,0,0,1,.66-.25l.24-.05h1.44c.11,0,.23,0,.34.08a2.09,2.09,0,0,1,.63.28,1,1,0,0,1,.4.51,3.38,3.38,0,0,1,.16.7,7.4,7.4,0,0,1,0,1.33c0,.27,0,.55-.07.82l-.06.52c0,.12,0,.25,0,.37l-.12.82a2.8,2.8,0,0,1-.12.5,1.13,1.13,0,0,1-.19.32.57.57,0,0,1-.3.21l-.51-.07q-.37,0-.75-.06c-.23,0-.47,0-.7,0l-.25,0Z"/><path class="cls-17" d="M535.87,173.61h-2.36a2.71,2.71,0,0,1-.29,0,1.74,1.74,0,0,0-.11-.18,1.94,1.94,0,0,1-.34-.84,2,2,0,0,1,.27-1.34l.12-.19.61-.08.25,0c.23,0,.47,0,.7,0s.5,0,.75.06l.51.07a.64.64,0,0,0,.1.18,2,2,0,0,1,.29,1A1.92,1.92,0,0,1,535.87,173.61Z"/><path class="cls-16" d="M544.88,192.86s-.08,0-.12,0a.33.33,0,0,1-.31-.1,2,2,0,0,1-.28-.37c-.15-.23-.29-.46-.42-.7s-.18-.31-.27-.47c-.19-.34-.38-.68-.58-1s-.33-.59-.5-.89c-.41-.7-.78-1.43-1.14-2.17l-.19-.39-.15-.32c0-.06,0-.11-.07-.17a5.65,5.65,0,0,1-.29-.67,1.21,1.21,0,0,1,0-.18.45.45,0,0,1,0-.34,1.6,1.6,0,0,0,.37-.12l.6-.3a2.54,2.54,0,0,0,.34-.23.37.37,0,0,1,.29.14.39.39,0,0,1,.08.1,3.34,3.34,0,0,1,.25.4c.19.34.39.67.57,1l.64,1.26c.17.34.35.68.5,1s.18.4.28.6a.54.54,0,0,1,0,.11c.1.26.23.51.34.76l.48,1.06c.07.16.15.32.21.48a4.65,4.65,0,0,1,.2.52.75.75,0,0,0,0,.16.3.3,0,0,1,0,.26l0,0-.1.07a2.85,2.85,0,0,1-.37.23Z"/><path class="cls-17" d="M541.86,184.46a2.54,2.54,0,0,1-.34.23l-.6.3a1.6,1.6,0,0,1-.37.12l-.13-.12a.88.88,0,0,1-.24-.43,1.16,1.16,0,0,0,0-.18l.23-.17a9.62,9.62,0,0,1,1-.59l.08.07a1,1,0,0,1,.29.39.76.76,0,0,1,.06.2A1.1,1.1,0,0,0,541.86,184.46Z"/><path class="cls-16" d="M524.2,192.62a.25.25,0,0,1,.12,0,.28.28,0,0,0,.3-.09,1.82,1.82,0,0,0,.29-.38,7,7,0,0,0,.41-.69l.27-.47c.2-.34.38-.68.58-1s.33-.59.5-.89c.41-.71.78-1.44,1.14-2.17.07-.13.14-.26.2-.39l.14-.32c0-.06.05-.12.08-.17a5.65,5.65,0,0,0,.29-.67c0-.06,0-.12.05-.18a.41.41,0,0,0-.05-.34,1.26,1.26,0,0,1-.37-.13l-.59-.29a2.64,2.64,0,0,1-.35-.23.34.34,0,0,0-.28.14.39.39,0,0,0-.08.1c-.09.13-.18.26-.26.4-.18.34-.39.67-.56,1s-.44.83-.65,1.26-.34.68-.49,1l-.28.6-.06.11c-.1.26-.23.51-.34.76s-.31.71-.47,1.06c-.07.16-.15.32-.22.47a5.62,5.62,0,0,0-.19.53.94.94,0,0,0,0,.16.23.23,0,0,0,.05.25.06.06,0,0,1,0,0,.41.41,0,0,1,.11.07,1.72,1.72,0,0,0,.37.22C524,192.51,524.07,192.56,524.2,192.62Z"/><path class="cls-17" d="M527.21,184.22a2.64,2.64,0,0,0,.35.23l.59.29a1.26,1.26,0,0,0,.37.13l.14-.13a.79.79,0,0,0,.23-.42c0-.06,0-.12,0-.18a1.84,1.84,0,0,0-.22-.17,9.07,9.07,0,0,0-1.05-.59l-.07.07a.85.85,0,0,0-.29.39.66.66,0,0,0-.06.2Z"/><path class="cls-16" d="M524.49,165c.1-.19.12-.21.33-.23l.6-.06.69-.05.91-.07.78,0a10.14,10.14,0,0,1,1.35,0l.47,0,.41.07.24.08.11.05a.21.21,0,0,1,.1.19c0,.09,0,.18,0,.27s0,0,0,0c0,.32,0,.63,0,.95h0v.31a.19.19,0,0,1-.09.16.83.83,0,0,1-.16.09l-.28.07a6.92,6.92,0,0,1-1.76.1l-.93-.05-.29,0-.89-.06-.84-.08-.46,0h-.08a.27.27,0,0,1-.15-.11.61.61,0,0,0-.07-.1,3,3,0,0,1-.07-.43A2.7,2.7,0,0,1,524.49,165Z"/><path class="cls-16" d="M517.85,165.28a.8.8,0,0,1,.09-.26.2.2,0,0,1,.12-.1l.1,0,.46-.05.7-.07c.35,0,.7-.06,1-.06l.91,0,.65,0h.24a7.55,7.55,0,0,1,.83.05.74.74,0,0,1,.3.08.15.15,0,0,1,.09.11l0,.14s0,0,0,.06c0,.28,0,.56,0,.85,0,.13,0,.26,0,.39s0,0,0,.06a.24.24,0,0,1-.18.18,1.42,1.42,0,0,1-.4.08h-.21c-.72,0-1.44,0-2.16,0l-.6,0c-.29,0-.58,0-.87-.07l-.56-.05-.31,0h0a.2.2,0,0,1-.15-.13c0-.08,0-.16-.08-.24s0,0,0-.06C517.85,165.84,517.85,165.56,517.85,165.28Z"/><path class="cls-16" d="M516.76,166.25a1.74,1.74,0,0,1-.68.34,2,2,0,0,1-.88.07,5,5,0,0,1-.67-.14l-.25-.09-.13-.07a.71.71,0,0,1-.32-.93.53.53,0,0,1,.17-.23,1.09,1.09,0,0,1,.41-.22,3.6,3.6,0,0,1,.44-.12,3,3,0,0,1,.52-.07,1.49,1.49,0,0,1,.47,0,2.93,2.93,0,0,1,.65.22,1.2,1.2,0,0,1,.27.19.74.74,0,0,0,0,.14,1.08,1.08,0,0,0,0,.73S516.74,166.19,516.76,166.25Z"/><path class="cls-17" d="M530.47,166.21h0c0-.32,0-.63,0-.95,0,0,0,0,0,0s.06,0,.08-.09a1.12,1.12,0,0,1,.38-.43.93.93,0,0,1,.36-.14,1,1,0,0,1,1.05.38,2.14,2.14,0,0,1,.13.19c0,.06.07.11.1.16a.13.13,0,0,1,0,.06,6,6,0,0,1,0,.85v0a.32.32,0,0,0-.1.1,1,1,0,0,1-.11.17,1.33,1.33,0,0,1-.27.26.83.83,0,0,1-.27.12.27.27,0,0,0-.12,0,.65.65,0,0,1-.24,0,1,1,0,0,1-.61-.24,1.09,1.09,0,0,1-.3-.37S530.49,166.25,530.47,166.21Z"/><path class="cls-17" d="M523.42,166.4c0-.13,0-.26,0-.39,0-.29,0-.57,0-.85,0,0,0,0,0-.06a.74.74,0,0,1,.86-.2l.2.11a2.7,2.7,0,0,0-.08,1,3,3,0,0,0,.07.43,1,1,0,0,1-.39.16H524a.91.91,0,0,1-.44-.16Z"/><path class="cls-17" d="M516.76,166.25c0-.06,0-.11,0-.16a1.08,1.08,0,0,1,0-.73.74.74,0,0,1,0-.14l.13-.1a.69.69,0,0,1,.36-.13.21.21,0,0,1,.11,0,.72.72,0,0,1,.38.19l.11.1c0,.28,0,.56,0,.84,0,0,0,0,0,.06l-.11.1a.64.64,0,0,1-.85.06Z"/><path class="cls-16" d="M538.39,165a.32.32,0,0,0-.06-.23.15.15,0,0,1,0-.16.36.36,0,0,1,.23-.19l.26-.08.45-.08a6.16,6.16,0,0,1,1.05-.05h.44l.83.06h.2l.93.08.69.05.68.06a.31.31,0,0,1,.29.2v0a4.07,4.07,0,0,1,.08.61,3.35,3.35,0,0,1-.06.71l0,.14,0,0a.29.29,0,0,1-.26.17l-.47,0-.87.08-.83.06-.89.07c-.32,0-.64,0-1,0a7.61,7.61,0,0,1-1.17-.12,1.11,1.11,0,0,1-.26-.07.66.66,0,0,1-.19-.09.36.36,0,0,1-.15-.19v-.06a.44.44,0,0,0,.09-.27,1.9,1.9,0,0,0,0-.25,5.61,5.61,0,0,0,0-.58s0,0,0,0h0a0,0,0,0,1,0,0Z"/><path class="cls-16" d="M545.45,164.74c0-.17,0-.22.28-.27a2.12,2.12,0,0,1,.43-.06h.59l.43,0c.42,0,.83,0,1.25,0l.52,0,.8.06.89.1.16,0a.2.2,0,0,1,.15.14,1.17,1.17,0,0,1,0,.27s0,.05,0,.08v.64a1.41,1.41,0,0,1,0,.35.2.2,0,0,1-.17.16l-.22,0-.46.05c-.23,0-.47,0-.7.06l-.7,0c-.57,0-1.13,0-1.7,0l-.35,0h-.17l-.47,0a2,2,0,0,1-.35-.06.27.27,0,0,1-.2-.22s0,0,0,0v-1.33Z"/><path class="cls-16" d="M552.15,164.92s0,0,0-.06l.15-.11a2.05,2.05,0,0,1,1.13-.29l.25,0a5,5,0,0,1,.77.17,1.07,1.07,0,0,1,.38.2.55.55,0,0,1,.22.3,1,1,0,0,1,0,.53.49.49,0,0,1-.11.18.86.86,0,0,1-.26.2,1.6,1.6,0,0,1-.3.13,3.82,3.82,0,0,1-.82.15,2,2,0,0,1-1.25-.28.88.88,0,0,1-.17-.12l0-.05a1.15,1.15,0,0,0,.1-.66A.94.94,0,0,0,552.15,164.92Z"/><path class="cls-17" d="M538.42,165a5.61,5.61,0,0,1,0,.58,1.9,1.9,0,0,1,0,.25.59.59,0,0,0-.1.17,1.15,1.15,0,0,1-.41.44,1,1,0,0,1-.73.14,1.15,1.15,0,0,1-.75-.52.49.49,0,0,1-.06-.17,2.14,2.14,0,0,0-.07-.43.33.33,0,0,1,0-.14,1.76,1.76,0,0,0,.06-.39.36.36,0,0,1,.07-.17,1.12,1.12,0,0,1,1.05-.54,1.07,1.07,0,0,1,.81.55,2.25,2.25,0,0,1,.12.21h0Z"/><path class="cls-17" d="M545.45,164.74v1.33l-.14.09a.91.91,0,0,1-.22.11.78.78,0,0,1-.54,0l-.16-.09,0-.14a3.35,3.35,0,0,0,.06-.71,4.07,4.07,0,0,0-.08-.61.76.76,0,0,1,.39-.16.8.8,0,0,1,.52.13Z"/><path class="cls-17" d="M552.15,164.92a.94.94,0,0,1,.1.31,1.15,1.15,0,0,1-.1.66L552,166a.66.66,0,0,1-.43.13.64.64,0,0,1-.46-.23.16.16,0,0,1-.05-.09.22.22,0,0,0,0-.11v-.64a.2.2,0,0,0,0-.09.25.25,0,0,1,.08-.14.7.7,0,0,1,.43-.19h.1a.72.72,0,0,1,.39.19Z"/><path class="cls-18" d="M538.42,165v0h0a0,0,0,0,0,0,0h0S538.43,165,538.42,165Z"/><circle class="cls-19" cx="534.68" cy="173.63" r="22.55"/><circle class="cls-17" cx="537.32" cy="165.39" r="1.15"/><circle class="cls-17" cx="531.58" cy="165.82" r="1.15"/><path class="cls-16" d="M535.56,176.32h-2a10.23,10.23,0,0,1-1.38-.19,11.9,11.9,0,0,1,1.17-2.6H536a7.14,7.14,0,0,1,1,2.49l-.05.12a.84.84,0,0,1-.49.14h-.53A2,2,0,0,0,535.56,176.32Z"/><path class="cls-16" d="M533.5,176.32h2a10.4,10.4,0,0,0,1.39-.19,11.94,11.94,0,0,0-1.18-2.6H533.1a7.14,7.14,0,0,0-1,2.49.61.61,0,0,1,0,.12.84.84,0,0,0,.49.14h.53A2,2,0,0,1,533.5,176.32Z"/><circle class="cls-17" cx="532.41" cy="176.53" r="1.15"/><circle class="cls-17" cx="536.47" cy="176.62" r="1.15"/><path class="cls-16" d="M540.14,184.38l-.11.05a.12.12,0,0,1-.15,0,1.43,1.43,0,0,1-.14-.2c-.15-.27-.32-.52-.49-.77s-.44-.69-.67-1l-.51-.8-.54-.82-.36-.58c-.12-.17-.23-.35-.34-.52l-.12-.2c-.11-.19-.23-.37-.34-.57s-.15-.28-.22-.42a.56.56,0,0,1,0-.12.45.45,0,0,1,0-.34c0-.06,0-.12.07-.17a2,2,0,0,1,.42-.3c.28-.17.56-.35.86-.5a1.84,1.84,0,0,1,.25-.09l.21,0a.41.41,0,0,1,.25.13l.13.17a4.66,4.66,0,0,1,.3.47l.34.62.42.79,1.76,3.4.4.75a.36.36,0,0,1,0,.09.09.09,0,0,1,0,.11l-.13.11a9.62,9.62,0,0,0-1,.59Z"/><path class="cls-16" d="M528.93,184.14l.12.05a.13.13,0,0,0,.15,0,2.43,2.43,0,0,1,.14-.2c.15-.27.32-.52.48-.78s.45-.68.67-1,.34-.54.52-.81.36-.54.53-.81.25-.39.37-.58l.34-.52.11-.2c.12-.19.23-.38.34-.57s.15-.28.22-.42a.61.61,0,0,0,.05-.12.45.45,0,0,0,0-.34c0-.06-.05-.12-.07-.17a3,3,0,0,0-.42-.31c-.29-.17-.57-.34-.87-.49a1.06,1.06,0,0,0-.25-.09l-.2,0a.38.38,0,0,0-.25.13,1.83,1.83,0,0,0-.13.16,4.8,4.8,0,0,0-.3.48l-.34.62c-.14.26-.29.52-.42.79L528,182.31c-.13.26-.27.5-.4.75l0,.1a.11.11,0,0,0,0,.11l.12.11a9.07,9.07,0,0,1,1.05.59A1.84,1.84,0,0,1,528.93,184.14Z"/><g class="cls-20"><rect class="cls-8" x="388.41" y="110.3" width="92.87" height="101.24"/><path class="cls-6" d="M401.82,163.34l4.49-16.9h13.45c2.24,0,3.06,1.12,2.47,3.38L419.52,160a4,4,0,0,1-4.25,3.38Zm4.25-3.38h10.09l2.71-10.14H408.78Z"/><path class="cls-9" d="M439.94,146.44h6.72c2.24,0,3.07,1.12,2.47,3.38l-3.6,13.52h-3.36l3.6-13.52H439l-3.6,13.52h-3.36l3.6-13.52H429l-3.6,13.52H422l3.6-13.52a4.06,4.06,0,0,1,4.26-3.38h6.72c1.09,0,1.5.56,1.24,1.69A2.07,2.07,0,0,1,439.94,146.44Z"/><path class="cls-6" d="M448.9,163.34l4.49-16.9h13.45c2.24,0,3.06,1.12,2.47,3.38L466.6,160a4,4,0,0,1-4.25,3.38Zm4.25-3.38h10.09L466,149.82H455.86Z"/><path class="cls-6" d="M399,174.85l1.28-4.86h3.86c.65,0,.88.33.71,1l-.77,2.92a1.17,1.17,0,0,1-1.22,1Zm1.22-1h2.89l.78-2.92h-2.9Z"/><path class="cls-6" d="M407,170l-1.29,4.86h-1L406,170Z"/><path class="cls-6" d="M411.49,174.85h-3.86c-.64,0-.88-.33-.71-1l.78-2.92a1.17,1.17,0,0,1,1.22-1h3.86l-.26,1h-3.86l-.77,2.92h2.89l.26-1H409.6l.25-1h2.42Z"/><path class="cls-6" d="M414.71,170l-1.29,4.86h-1l1.28-4.86Z"/><path class="cls-6" d="M415.67,170h4.83l-.26,1h-1.93l-1,3.89h-1l1-3.89h-1.93Z"/><path class="cls-6" d="M421.66,172.9l-.52,1.95h-1l1-3.89a1.17,1.17,0,0,1,1.22-1h2.9c.64,0,.87.33.7,1l-1,3.89h-1l.52-1.95Zm3.15-1,.26-1h-2.9l-.25,1Z"/><path class="cls-6" d="M430.79,174.85H426l1.28-4.86h1l-1,3.89h3.86Z"/><path class="cls-9" d="M411.81,177h1.93c.65,0,.88.32.71,1l-1,3.88h-1l1-3.88h-1.93l-1,3.88h-1l1-3.88h-1.93l-1,3.88h-1l1-3.88a1.16,1.16,0,0,1,1.22-1h1.93c.31,0,.43.16.35.49A.6.6,0,0,1,411.81,177Z"/><path class="cls-9" d="M419.47,180.85l-.26,1h-4.82l.25-1Zm.52-1.94-.26,1h-4.82l.25-1Zm.51-1.94-.26,1h-4.82l.25-1Z"/><path class="cls-9" d="M420.18,181.82l1.28-4.85h3.87c.64,0,.87.32.7,1l-.77,2.91a1.16,1.16,0,0,1-1.22,1Zm1.22-1h2.89l.78-2.91h-2.9Z"/><path class="cls-9" d="M428.22,177l-1.29,4.85h-1l1.28-4.85Z"/><path class="cls-9" d="M429.38,179.88l-.52,1.94h-1l1-3.88a1.16,1.16,0,0,1,1.22-1H433c.65,0,.88.32.71,1l-1,3.88h-1l.52-1.94Zm3.15-1,.26-1h-2.9l-.25,1Z"/><path class="cls-6" d="M414.39,188.8l1.28-4.85h3.87c.64,0,.87.32.7,1l-.77,2.91a1.16,1.16,0,0,1-1.22,1Zm1.22-1h2.89l.78-2.91h-2.9Z"/><path class="cls-6" d="M425.26,187.83l-.26,1h-4.82l.25-1Zm.52-1.94-.26,1H420.7l.25-1Zm.51-1.94-.26,1h-4.82l.25-1Z"/><path class="cls-6" d="M431.82,184.92H428l-.25,1h2.89c.65,0,.88.32.71,1l-.26,1a1.16,1.16,0,0,1-1.22,1H426l.25-1h3.86l.27-1h-2.9c-.64,0-.88-.32-.71-1l.26-1a1.16,1.16,0,0,1,1.22-1h3.86Z"/><path class="cls-6" d="M434,184l-1.29,4.85h-1L433,184Z"/><path class="cls-6" d="M438.51,188.8h-3.86c-.64,0-.88-.32-.71-1l.78-2.91a1.16,1.16,0,0,1,1.22-1h3.86l-.26,1h-3.86l-.77,2.91h2.89l.27-1h-1.45l.26-1h2.41Z"/><path class="cls-6" d="M439.48,188.8l1.28-4.85,3.1,2.91.77-2.91h1l-1.29,4.85-3.08-2.91-.78,2.91Z"/><polygon class="cls-9" points="464.47 168.44 400.6 168.44 401.51 164.96 465.39 164.96 464.47 168.44"/></g><rect class="cls-8" x="396.95" y="313.18" width="360.03" height="50.75"/><rect class="cls-6" x="396.95" y="369.71" width="360.03" height="50.75"/><rect class="cls-5" x="396.95" y="256.85" width="360.03" height="50.75"/><path class="cls-9" d="M481,284.38l1.2-4.5h-4.5l1.19-4.5h4.5l1.2-4.5h4.5l-1.2,4.5h4.5l1.2-4.5h4.5l-1.2,4.5h4.5l-1.19,4.5h-4.5l-1.2,4.5H499l-1.23,4.5h-4.5l-1.19,4.5h-4.5l1.19-4.5h-4.5l-1.19,4.5h-4.5l1.19-4.5h-4.5l1.23-4.5Zm5.7-4.5-1.2,4.5H490l1.2-4.5Z"/><path class="cls-9" d="M507.09,270.88h18q4.5,0,3.3,4.5l-1.19,4.5q-1.2,4.5-5.7,4.5H508l-1.23,4.5h18l-1.19,4.5h-18c-3,0-4.11-1.5-3.31-4.5l1.23-4.5q1.2-4.5,5.7-4.5h13.5l1.19-4.5h-18Z"/><path class="cls-9" d="M535,284.38l-2.42,9h-4.5l4.81-18q1.2-4.5,5.7-4.5h13.5q4.5,0,3.3,4.5l-4.81,18h-4.5l2.42-9Zm14.7-4.5,1.19-4.5h-13.5l-1.19,4.5Z"/><path class="cls-9" d="M578.35,282.13q2.25,0,1.65,2.25l-1.23,4.5c-.8,3-2.69,4.5-5.69,4.5h-18l6-22.5h18q4.5,0,3.3,4.5l-1.19,4.5A2.71,2.71,0,0,1,578.35,282.13ZM562,284.38l-1.23,4.5h13.5l1.23-4.5Zm14.7-4.5,1.19-4.5h-13.5l-1.19,4.5Z"/><path class="cls-9" d="M588.09,270.88h22.5l-17.26,22.5h-5.42l14-18H586.89Z"/><path class="cls-9" d="M627.08,293.38h-18l1.19-4.5h18l1.23-4.5H616q-4.5,0-3.3-4.5l1.19-4.5q1.2-4.5,5.7-4.5h13.5q4.5,0,3.3,4.5l-3.62,13.5C632,291.88,630.08,293.38,627.08,293.38Zm3.62-13.5,1.19-4.5h-13.5l-1.19,4.5Z"/><path class="cls-9" d="M646.59,270.88l-2.39,9h13.5l2.39-9h4.5l-6,22.5h-4.5l2.42-9h-18l3.59-13.5Z"/><path class="cls-9" d="M481,339.75l1.2-4.5h-4.5l1.19-4.5h4.5l1.2-4.5h4.5l-1.2,4.5h4.5l1.2-4.5h4.5l-1.2,4.5h4.5l-1.19,4.5h-4.5l-1.2,4.5H499l-1.23,4.5h-4.5l-1.19,4.5h-4.5l1.19-4.5h-4.5l-1.19,4.5h-4.5l1.19-4.5h-4.5l1.23-4.5Zm5.7-4.5-1.2,4.5H490l1.2-4.5Z"/><path class="cls-9" d="M511.59,326.25l-6,22.5h-4.5l6-22.5Z"/><path class="cls-9" d="M533.35,337.5q2.25,0,1.65,2.25l-1.23,4.5c-.8,3-2.69,4.5-5.69,4.5h-18l6-22.5h18q4.5,0,3.3,4.5l-1.19,4.5A2.71,2.71,0,0,1,533.35,337.5ZM517,339.75l-1.23,4.5h13.5l1.23-4.5Zm14.7-4.5,1.19-4.5h-13.5l-1.19,4.5Z"/><path class="cls-9" d="M564.39,330.75h-18l-1.19,4.5h13.5q4.5,0,3.3,4.5l-1.23,4.5c-.8,3-2.69,4.5-5.69,4.5h-18l1.19-4.5h18l1.23-4.5H544q-4.5,0-3.3-4.5l2.39-9h22.5Z"/><path class="cls-9" d="M582.08,348.75h-18l1.19-4.5h18l1.23-4.5H571q-4.5,0-3.3-4.5l1.19-4.5q1.2-4.5,5.7-4.5h13.5q4.5,0,3.3,4.5l-3.62,13.5C587,347.25,585.08,348.75,582.08,348.75Zm3.62-13.5,1.19-4.5h-13.5l-1.19,4.5Z"/><path class="cls-9" d="M597.09,326.25h22.5l-17.26,22.5h-5.42l14-18H595.89Z"/><path class="cls-9" d="M619.27,344.25l3.62-13.5q1.2-4.5,5.7-4.5h18l-1.2,4.5h-18l-3.62,13.5h18l-1.19,4.5h-18C619.58,348.75,618.47,347.25,619.27,344.25Z"/><path class="cls-9" d="M481,399.28l1.2-4.5h-4.5l1.19-4.5h4.5l1.2-4.5h4.5l-1.2,4.5h4.5l1.2-4.5h4.5l-1.2,4.5h4.5l-1.19,4.5h-4.5l-1.2,4.5H499l-1.23,4.5h-4.5l-1.19,4.5h-4.5l1.19-4.5h-4.5l-1.19,4.5h-4.5l1.19-4.5h-4.5l1.23-4.5Zm5.7-4.5-1.2,4.5H490l1.2-4.5Z"/><path class="cls-9" d="M507.09,385.78h22.5l-1.2,4.5h-18l-1.19,4.5h18l-1.2,4.5H508l-2.42,9h-4.5Z"/><path class="cls-9" d="M538.59,385.78l-6,22.5h-4.5l6-22.5Z"/><path class="cls-9" d="M547.59,385.78h18l-1.2,4.5h-18l-1.19,4.5h13.5q4.5,0,3.3,4.5l-1.23,4.5c-.8,3-2.69,4.5-5.69,4.5h-13.5q-4.51,0-3.31-4.5l3.62-13.5Q543.09,385.78,547.59,385.78ZM544,399.28l-1.23,4.5h13.5l1.23-4.5Z"/><path class="cls-9" d="M570.09,385.78h18q4.5,0,3.3,4.5l-1.19,4.5q-1.2,4.5-5.7,4.5H571l-1.23,4.5h18l-1.19,4.5h-18q-4.51,0-3.31-4.5l1.23-4.5q1.2-4.5,5.7-4.5h13.5l1.19-4.5h-18Z"/><path class="cls-9" d="M618.39,390.28h-18l-1.19,4.5h13.5q4.5,0,3.3,4.5l-1.23,4.5c-.8,3-2.69,4.5-5.69,4.5h-18l1.19-4.5h18l1.23-4.5H598q-4.5,0-3.3-4.5l2.39-9h22.5Z"/><path class="cls-9" d="M628.59,385.78l-6,22.5h-4.5l6-22.5Z"/><rect class="cls-21" x="22.5" y="256.85" width="346.5" height="335.15"/><rect class="cls-21" x="358.43" y="440.97" width="398.56" height="151.03"/><path class="cls-16" d="M115.11,328.32a4.17,4.17,0,0,1-2-2.4,9.07,9.07,0,0,1-.41-1.55c-.29-1.63-.51-3.28-.72-4.93-.1-.7-.21-1.41-.29-2.12-.1-.91-.17-1.83-.26-2.74,0-.24-.05-.47-.08-.71a3.18,3.18,0,0,1,0-1.15s0,0,0-.07a26.14,26.14,0,0,0,.06-3.65,1.22,1.22,0,0,0-.06-.26,12.9,12.9,0,0,1,.7-4.26,4.61,4.61,0,0,1,2.19-2.69,10.05,10.05,0,0,1,2.81-1.06l1-.22c.53,0,1.06.06,1.59.06l4.6,0a9.27,9.27,0,0,0,1.47.36,8.64,8.64,0,0,1,2.67,1.18,4.3,4.3,0,0,1,1.73,2.19,15,15,0,0,1,.7,3,30.06,30.06,0,0,1,.17,5.69c-.06,1.18-.16,2.36-.31,3.54-.09.74-.15,1.48-.23,2.21q-.09.79-.21,1.59c-.16,1.18-.33,2.35-.5,3.52a10,10,0,0,1-.53,2.16,4.48,4.48,0,0,1-.8,1.37,2.74,2.74,0,0,1-1.3.9c-.73-.11-1.46-.23-2.19-.32-1.06-.13-2.13-.19-3.19-.24s-2,.08-3,.14c-.35,0-.7.07-1,.11Z"/><path class="cls-16" d="M117.42,293.47l-1.23-.21c-.2,0-.4-.1-.6-.15a2.1,2.1,0,0,1-1.25-.95,6.65,6.65,0,0,1-.76-1.7,20.3,20.3,0,0,1-.5-2.44c-.24-1.46-.48-2.93-.69-4.4s-.41-3.17-.54-4.77a20.86,20.86,0,0,1,0-2.5,8.25,8.25,0,0,1,1-3.56,13.86,13.86,0,0,1,2.16-3,7.66,7.66,0,0,1,4.37-2.39,10.82,10.82,0,0,1,2.66-.16,12.86,12.86,0,0,1,1.75.33,6.83,6.83,0,0,1,3.69,2.18,13.13,13.13,0,0,1,2.47,3.78,7.75,7.75,0,0,1,.65,2.85,32.83,32.83,0,0,1-.16,4.09c-.16,1.6-.37,3.19-.59,4.77s-.43,2.94-.72,4.39a8.39,8.39,0,0,1-.53,1.79,6.42,6.42,0,0,1-.48.85,1.93,1.93,0,0,1-1.31.85l-1,.18c-.26,0-.52.1-.78.16h-1.6c-.92,0-1.83,0-2.75,0C119.6,293.39,118.51,293.44,117.42,293.47Z"/><path class="cls-16" d="M125.06,358.21c-1.56,0-3.12.06-4.68.07-1,0-1.94,0-2.91,0-.38,0-.76,0-1.14,0a14.72,14.72,0,0,1-2.65-.2,2.71,2.71,0,0,1-1-.35c-.23-.13-.45-.28-.68-.42l-.6-.36c-.2-.8-.45-1.6-.57-2.42a14.31,14.31,0,0,1-.16-4.08.19.19,0,0,0,0-.08,39,39,0,0,1,.89-5.89c.24-1.19.51-2.38.78-3.56.07-.32.18-.63.28-.94a.64.64,0,0,1,.56-.5c.23,0,.46-.07.7-.09l1.51-.08a6.43,6.43,0,0,0,1.24,0c.38,0,.77,0,1.15,0,1.9,0,3.8,0,5.69,0l1.51,0,1.78,0,2.22.15.26,0a.65.65,0,0,1,.54.41,5.39,5.39,0,0,1,.22.68c.18.81.37,1.62.54,2.43.23,1.13.47,2.26.66,3.4s.4,2.4.47,3.62c0,.44.09.88.1,1.33a17.05,17.05,0,0,1-.64,4.92c-.07.26-.13.52-.2.77a2.86,2.86,0,0,1-2.09,1c-.76,0-1.53,0-2.3,0A6.76,6.76,0,0,0,125.06,358.21Z"/><path class="cls-16" d="M108.46,397.1c-.17-.06-.34-.11-.5-.18a.6.6,0,0,1-.41-.53,6.61,6.61,0,0,1,0-.89c0-.63,0-1.25,0-1.88,0-3.86,0-7.73,0-11.59q0-3.25,0-6.52c0-1.75,0-3.5.08-5.26,0-1,.1-2.08.2-3.11a5.79,5.79,0,0,1,.29-1.48,1.86,1.86,0,0,1,.74-1l.67-.44a6.12,6.12,0,0,1,1.14-.11c1.56,0,3.12.09,4.68.19a6.16,6.16,0,0,1,1.64.3l.63.48a1.84,1.84,0,0,1,.77,1.25c0,.36.09.71.1,1.07a31.13,31.13,0,0,1-.13,3.2c-.07,1.06-.15,2.13-.24,3.19-.07.86-.17,1.71-.26,2.57a2.45,2.45,0,0,0,0,.27c-.15,1.59-.29,3.19-.46,4.78-.2,2-.42,4-.63,6-.14,1.42-.27,2.84-.4,4.25-.1,1-.21,1.95-.3,2.93-.07.7-.11,1.41-.18,2.12a.5.5,0,0,1-.44.49c-.2,0-.41.05-.61.08a5.18,5.18,0,0,0-1.23-.2c-.39,0-.77-.08-1.15-.1a31.1,31.1,0,0,0-3.48-.07A1.13,1.13,0,0,0,108.46,397.1Z"/><path class="cls-16" d="M127.64,397.37l-.53,0a.52.52,0,0,1-.49-.44,9.3,9.3,0,0,1-.13-1.06c-.08-1.3-.24-2.6-.37-3.9-.17-1.74-.35-3.48-.55-5.23-.15-1.35-.25-2.72-.4-4.07s-.31-2.78-.45-4.16c-.11-1-.18-2-.27-2.93s-.19-1.77-.27-2.66c0-.32,0-.65-.06-1-.07-.94-.15-1.89-.19-2.84,0-.68,0-1.37,0-2.05a3.17,3.17,0,0,1,0-.53,2,2,0,0,1,.68-1.31l.61-.52a10.73,10.73,0,0,1,2.19-.33c1.41-.1,2.83-.22,4.25-.2a4.81,4.81,0,0,1,1.14.14l.75.48a1.61,1.61,0,0,1,.7,1c.08.29.14.58.19.87a17.64,17.64,0,0,1,.19,2.4c0,1,.08,2,.11,3,0,1.28.06,2.56.07,3.84,0,5.47.05,10.94.09,16.41,0,1.22.05,2.44.07,3.66,0,.15,0,.3,0,.45a.48.48,0,0,1-.33.38l-.69.16a39.79,39.79,0,0,0-5.12.22C128.45,397.19,128.05,397.29,127.64,397.37Z"/><path class="cls-16" d="M114.76,401a1.49,1.49,0,0,1,.81,1,3.07,3.07,0,0,1,.14.52c.07.61.15,1.23.18,1.85,0,.89,0,1.79.1,2.67.18,3.71.09,7.43.07,11.14,0,1.36-.08,2.72-.13,4.09,0,.53,0,1.07-.05,1.6-.07.8-.1,1.6-.13,2.4-.07,1.75-.13,3.5-.24,5.25-.07,1.12-.07,2.25-.17,3.37a17,17,0,0,1-.31,2.47,6.73,6.73,0,0,1-.21.77,1,1,0,0,1-.61.61c-.26.08-.51.13-.77.2a12.66,12.66,0,0,1-4-.08h-.17c-.08-.05-.14-.11-.22-.15a1,1,0,0,1-.55-.67,6.46,6.46,0,0,1-.24-.86c-.09-.55-.16-1.11-.22-1.67-.16-1.51-.18-3-.27-4.54s-.17-3-.25-4.45c-.08-1.66-.14-3.32-.2-5,0-.18,0-.36,0-.54-.12-1.36-.12-2.73-.14-4.1q0-3.37,0-6.77c0-1.49,0-3,.15-4.45.05-.57,0-1.13.08-1.7,0-.41.07-.82.13-1.24a5.67,5.67,0,0,1,.15-.69,1.68,1.68,0,0,1,.83-1.11,6.14,6.14,0,0,0,1.65.23c1,0,2,0,2.93,0A7.83,7.83,0,0,0,114.76,401Z"/><path class="cls-16" d="M129.18,439c-.14-.14-.33-.12-.5-.16a1.26,1.26,0,0,1-1-.94,9.88,9.88,0,0,1-.37-2c-.11-1.16-.19-2.31-.21-3.47,0-.78-.09-1.55-.13-2.32-.09-1.66-.13-3.33-.25-5-.09-1.45-.1-2.91-.18-4.36-.18-3.51-.16-7-.11-10.52,0-.63,0-1.25,0-1.88s0-1,.08-1.51l0-.8a27.08,27.08,0,0,1,.2-3.12,7.2,7.2,0,0,1,.16-.78,1.77,1.77,0,0,1,.83-1.21,6.34,6.34,0,0,0,1.67.23c1,0,1.9,0,2.84,0a8.06,8.06,0,0,0,1.77-.19,1.58,1.58,0,0,1,.83,1.1,5,5,0,0,1,.12.53c.07.67.16,1.35.18,2,0,1.66.16,3.32.15,5,0,2,0,4,0,6.06,0,1.64,0,3.27-.13,4.91-.07.94,0,1.9-.08,2.85a4.61,4.61,0,0,1,0,.53c-.12,1.19-.11,2.38-.17,3.57q-.15,2.49-.27,5c0,.74-.05,1.49-.1,2.23a19.23,19.23,0,0,1-.28,2.39c-.05.23-.11.46-.16.69a1.16,1.16,0,0,1-.68.88.38.38,0,0,0-.14.11,4.55,4.55,0,0,0-.53,0,8.21,8.21,0,0,1-1.85.15Z"/><path class="cls-16" d="M140.19,308.78a1.45,1.45,0,0,0-.26-1,.59.59,0,0,1,0-.67,1.84,1.84,0,0,1,1-.84,8.67,8.67,0,0,1,1.1-.33c.64-.13,1.28-.24,1.93-.33a28.6,28.6,0,0,1,4.53-.24c.63,0,1.25,0,1.87.05,1.19.08,2.37.18,3.55.27.3,0,.6,0,.89.05l4,.32,2.93.22c1,.08,1.95.19,2.92.26a1.34,1.34,0,0,1,1.24.86s0,.05,0,.08a15.3,15.3,0,0,1,.35,2.61,13.82,13.82,0,0,1-.24,3.08c0,.2-.09.4-.13.6s-.05.1-.07.16a1.24,1.24,0,0,1-1.13.73l-2,.19c-1.24.11-2.48.23-3.72.32s-2.37.17-3.55.26-2.54.23-3.81.28-2.79.19-4.18.15a31.42,31.42,0,0,1-5-.51c-.38-.07-.75-.19-1.12-.29a2.94,2.94,0,0,1-.8-.38,1.7,1.7,0,0,1-.63-.84.33.33,0,0,1,0-.26,2.29,2.29,0,0,0,.38-1.17c0-.35.1-.69.11-1a19.46,19.46,0,0,0-.05-2.53c0,.06,0,.1,0,.11s0,0,0,0a.74.74,0,0,1,0-.14Z"/><path class="cls-16" d="M76.74,307.48c.42-.79.52-.87,1.44-1s1.71-.17,2.57-.24,2-.14,2.93-.21c1.3-.11,2.6-.23,3.9-.33,1.13-.08,2.25-.12,3.38-.22a41.29,41.29,0,0,1,5.78-.1q1,.06,2,.21c.58.07,1.17.19,1.75.31a7.93,7.93,0,0,1,1,.31,2.27,2.27,0,0,1,.47.23.88.88,0,0,1,.43.83c0,.38,0,.77,0,1.15,0,0,0,.05,0,.08a39.27,39.27,0,0,0,0,4.06.41.41,0,0,0,0,.08c0,.38,0,.77,0,1.15a1.08,1.08,0,0,1,0,.18.8.8,0,0,1-.36.68,3.9,3.9,0,0,1-.71.35,9.78,9.78,0,0,1-1.21.32,30.64,30.64,0,0,1-7.53.44l-4-.24-1.24-.11c-1.27-.09-2.54-.17-3.82-.28s-2.42-.2-3.63-.31l-2-.19a2,2,0,0,1-.35-.05,1,1,0,0,1-.64-.45c-.09-.15-.19-.3-.29-.44a14.45,14.45,0,0,1-.32-1.84A11.49,11.49,0,0,1,76.74,307.48Z"/><path class="cls-16" d="M48.24,308.64a5.13,5.13,0,0,1,.38-1.08.83.83,0,0,1,.53-.44c.15,0,.29-.08.44-.1l1.94-.21c1-.1,2-.22,3-.3,1.51-.11,3-.24,4.53-.27,1.3,0,2.61-.08,3.91-.06.92,0,1.84.05,2.76.07H66.8a35.22,35.22,0,0,1,3.56.19,3.55,3.55,0,0,1,1.27.36.73.73,0,0,1,.4.46l.15.6a2.28,2.28,0,0,0,0,.26c0,1.22,0,2.43,0,3.65,0,.56-.05,1.12,0,1.68,0,.08,0,.17-.07.26a1,1,0,0,1-.75.79,6.44,6.44,0,0,1-1.74.32l-.89,0c-3.09.17-6.18.19-9.27.13-.87,0-1.72-.08-2.58-.14-1.25-.07-2.49-.17-3.73-.31-.8-.09-1.6-.15-2.39-.24-.45,0-.89-.11-1.33-.17l-.17,0a.9.9,0,0,1-.66-.55c-.12-.34-.23-.68-.34-1a2.06,2.06,0,0,0,0-.26Z"/><path class="cls-16" d="M170.45,307.76c.19-.73.24-.95,1.23-1.2a10.61,10.61,0,0,1,1.86-.22c.83,0,1.66-.06,2.49-.08l1.88-.05c1.78-.06,3.56-.06,5.34,0,.74,0,1.49,0,2.23.07,1.15.08,2.31.17,3.46.28s2.54.26,3.81.4c.24,0,.47.07.71.11a.73.73,0,0,1,.6.59,4.8,4.8,0,0,1,.21,1.13c0,.12,0,.24,0,.36V312a8.36,8.36,0,0,1-.21,1.49.87.87,0,0,1-.74.68l-1,.14c-.65.07-1.3.15-1.95.2-1,.1-2,.16-3,.27s-2,.1-3,.18c-2.43.18-4.86.1-7.29.08-.51,0-1-.05-1.51-.07l-.71,0c-.68,0-1.37,0-2-.07a6.88,6.88,0,0,1-1.48-.27,1.12,1.12,0,0,1-.86-.91.84.84,0,0,0-.05-.17,1.13,1.13,0,0,0,0-.18c0-1.7,0-3.4,0-5.1A3.13,3.13,0,0,0,170.45,307.76Z"/><path class="cls-17" d="M126.77,339.3l-1.78,0-1.51,0c-1.89,0-3.79,0-5.69,0-.38,0-.77,0-1.15,0a6.43,6.43,0,0,1-1.24,0c-.16-.25-.31-.5-.48-.74a8.13,8.13,0,0,1-1.45-3.61,8.44,8.44,0,0,1,1.14-5.74c.17-.28.34-.56.5-.84l2.65-.34c.35,0,.7-.09,1-.11,1-.06,2-.18,3-.14s2.13.11,3.19.24c.73.09,1.46.21,2.19.32a2.92,2.92,0,0,0,.43.77,8.74,8.74,0,0,1-.87,10.24Z"/><path class="cls-16" d="M199.22,308.53a1,1,0,0,1,.19-.29,4.21,4.21,0,0,1,.64-.47,9.2,9.2,0,0,1,4.86-1.24,9.5,9.5,0,0,1,1.06.1,17.84,17.84,0,0,1,3.3.72,5.31,5.31,0,0,1,1.65.86,2.52,2.52,0,0,1,.93,1.27,4.15,4.15,0,0,1,0,2.29,2.08,2.08,0,0,1-.44.76,4,4,0,0,1-1.12.88A7.85,7.85,0,0,1,209,314a18.08,18.08,0,0,1-3.49.67,9.09,9.09,0,0,1-5.39-1.2,5.67,5.67,0,0,1-.72-.52.74.74,0,0,1-.13-.21,4.84,4.84,0,0,0,.41-2.83A3.1,3.1,0,0,0,199.22,308.53Z"/><path class="cls-16" d="M43.56,312.8a7.54,7.54,0,0,1-2.91,1.49,8.78,8.78,0,0,1-3.78.27A18.6,18.6,0,0,1,34,314c-.37-.11-.73-.24-1.09-.38a5.77,5.77,0,0,1-.55-.29,3.11,3.11,0,0,1-1.37-4,2.29,2.29,0,0,1,.73-1,4.72,4.72,0,0,1,1.78-1c.62-.19,1.25-.36,1.89-.5a20.43,20.43,0,0,1,2.2-.31,7.33,7.33,0,0,1,2,.11,9.67,9.67,0,0,1,2.77,1,4.48,4.48,0,0,1,1.16.81c-.06.19-.11.39-.17.59a4.64,4.64,0,0,0,0,3.12Z"/><path class="cls-17" d="M102.4,312.67a.41.41,0,0,1,0-.08,39.27,39.27,0,0,1,0-4.06s0,0,0-.08.24-.23.32-.4a4.84,4.84,0,0,1,1.66-1.82,4.32,4.32,0,0,1,1.55-.64,4.46,4.46,0,0,1,4.5,1.67c.2.26.36.54.54.81l.44.67a1.22,1.22,0,0,1,.06.26,26.14,26.14,0,0,1-.06,3.65s0,.05,0,.07a1.27,1.27,0,0,0-.41.45c-.16.25-.32.5-.5.74A4.81,4.81,0,0,1,109.3,315a2.9,2.9,0,0,1-1.13.51,4.87,4.87,0,0,0-.52.12,2.53,2.53,0,0,1-1.06.08,4.63,4.63,0,0,1-2.6-1,4.37,4.37,0,0,1-1.28-1.58C102.64,312.91,102.48,312.82,102.4,312.67Z"/><path class="cls-17" d="M140.29,308.83a19.46,19.46,0,0,1,.05,2.53c0,.35-.07.69-.11,1a3.7,3.7,0,0,0-.45.76,5.09,5.09,0,0,1-1.73,1.87,4.3,4.3,0,0,1-3.15.6,4.85,4.85,0,0,1-3.2-2.21,1.63,1.63,0,0,1-.28-.74,10.63,10.63,0,0,0-.29-1.85,1.26,1.26,0,0,1,0-.61,11.85,11.85,0,0,0,.27-1.67,1.79,1.79,0,0,1,.27-.74,5.11,5.11,0,0,1,1.77-1.72,4.89,4.89,0,0,1,2.74-.57,4.63,4.63,0,0,1,3.49,2.33c.19.3.35.62.52.93h.06Z"/><path class="cls-17" d="M117.42,293.47c1.09,0,2.18-.08,3.28-.09.92,0,1.83,0,2.75,0h1.6c.12.23.25.46.37.7a5.3,5.3,0,0,1-.52,5.74c-.18.24-.36.46-.55.69l-4.6,0c-.53,0-1.06,0-1.59-.06-.15-.18-.31-.36-.45-.54a5.14,5.14,0,0,1-.7-5.72C117.13,294,117.28,293.73,117.42,293.47Z"/><path class="cls-17" d="M132.84,364.26a4.81,4.81,0,0,0-1.14-.14c-1.42,0-2.84.1-4.25.2a10.73,10.73,0,0,0-2.19.33c-.13-.2-.26-.4-.38-.6a5.15,5.15,0,0,1-.24-5,4,4,0,0,0,.42-.88,6.76,6.76,0,0,1,1.49-.12c.77,0,1.54,0,2.3,0a2.86,2.86,0,0,0,2.09-1,.6.6,0,0,1,.59.09,5,5,0,0,1,2.08,3.4A5.15,5.15,0,0,1,132.84,364.26Z"/><path class="cls-17" d="M117.08,364.62a6.16,6.16,0,0,0-1.64-.3c-1.56-.1-3.12-.23-4.68-.19a6.12,6.12,0,0,0-1.14.11c-.13-.26-.28-.52-.4-.8a5.17,5.17,0,0,1,2.09-6.52l.08,0,.61.36c.23.14.45.29.68.42a2.71,2.71,0,0,0,1,.35,14.72,14.72,0,0,0,2.65.2c.38,0,.76,0,1.14,0,.15.33.31.64.44,1a5.28,5.28,0,0,1-.39,5A.7.7,0,0,1,117.08,364.62Z"/><path class="cls-17" d="M170.45,307.76a3.13,3.13,0,0,1,0,.43c0,1.7,0,3.4,0,5.1a1.13,1.13,0,0,1,0,.18l-.58.38a4.34,4.34,0,0,1-.95.45,3.13,3.13,0,0,1-2.31-.18c-.24-.1-.47-.24-.7-.36,0-.2.09-.4.13-.6a13.82,13.82,0,0,0,.24-3.08,15.3,15.3,0,0,0-.35-2.61,3.26,3.26,0,0,1,1.68-.67,3.35,3.35,0,0,1,2.25.55C170.08,307.48,170.26,307.62,170.45,307.76Z"/><path class="cls-17" d="M72.16,313.46c0-.56,0-1.12,0-1.68,0-1.22,0-2.43,0-3.65a2.28,2.28,0,0,1,0-.26,3.22,3.22,0,0,1,3.7-.84c.29.14.57.3.86.45a11.49,11.49,0,0,0-.35,4.4,14.45,14.45,0,0,0,.32,1.84,4.22,4.22,0,0,1-1.7.69,1.56,1.56,0,0,1-.53,0,3.65,3.65,0,0,1-1.88-.69C72.46,313.64,72.31,313.56,72.16,313.46Z"/><path class="cls-17" d="M199.22,308.53a3.1,3.1,0,0,1,.42,1.33,4.84,4.84,0,0,1-.41,2.83c-.24.17-.46.36-.7.53a2.81,2.81,0,0,1-1.81.57,2.91,2.91,0,0,1-2-1,.89.89,0,0,1-.19-.39,1.19,1.19,0,0,0-.22-.47v-2.76a.73.73,0,0,0,.2-.39,1,1,0,0,1,.37-.59,3.08,3.08,0,0,1,1.83-.82,1.63,1.63,0,0,1,.44,0,3.08,3.08,0,0,1,1.66.8A3.32,3.32,0,0,0,199.22,308.53Z"/><path class="cls-17" d="M114.76,401a7.83,7.83,0,0,1-1.67.18c-1,0-2,0-2.93,0a6.14,6.14,0,0,1-1.65-.23c-.07-.17-.13-.33-.19-.5a4,4,0,0,1,0-2.85c.06-.17.1-.34.15-.51a1.13,1.13,0,0,1,.59-.15,31.1,31.1,0,0,1,3.48.07c.38,0,.76.07,1.15.1a5.18,5.18,0,0,1,1.23.2c0,.14.07.28.11.42a4,4,0,0,1-.12,2.86C114.85,400.74,114.81,400.88,114.76,401Z"/><path class="cls-17" d="M134.06,401a8.06,8.06,0,0,1-1.77.19c-.94,0-1.89,0-2.84,0a6.34,6.34,0,0,1-1.67-.23c-.08-.25-.18-.49-.25-.74a3.6,3.6,0,0,1-.08-2.08c.07-.26.13-.51.19-.77.41-.08.81-.18,1.22-.22a39.79,39.79,0,0,1,5.12-.22,3,3,0,0,0,.17.41,4.09,4.09,0,0,1,.34,2.07,3.13,3.13,0,0,1-.17.86Z"/><path class="cls-17" d="M43.56,312.8l-.2-.68a4.64,4.64,0,0,1,0-3.12c.06-.2.11-.4.17-.59l.57-.43a3.08,3.08,0,0,1,1.57-.59,1.64,1.64,0,0,1,.44,0,3.08,3.08,0,0,1,1.65.82l.46.41,0,3.63a2.06,2.06,0,0,1,0,.26l-.45.43a2.77,2.77,0,0,1-3.66.26Z"/><path class="cls-17" d="M109.29,438.88h.17a12.66,12.66,0,0,0,4,.08c.15.26.31.5.44.76a3.2,3.2,0,0,1,.05,3.06.28.28,0,0,1-.36.16,5.71,5.71,0,0,0-1.62-.43,2.69,2.69,0,0,0-1.56.15,2.82,2.82,0,0,0-1.25.28,3,3,0,0,1-.32.12c-.07-.13-.15-.25-.21-.39a3.18,3.18,0,0,1,.31-3.29Z"/><path class="cls-17" d="M129.18,439l1.77,0a8.21,8.21,0,0,0,1.85-.15,4.55,4.55,0,0,1,.53,0,5.87,5.87,0,0,1,.46.65,3.24,3.24,0,0,1,.18,3.23.26.26,0,0,1-.35.17,6.52,6.52,0,0,0-1.37-.4,4.44,4.44,0,0,0-1.15,0,3.28,3.28,0,0,0-.51.15,3,3,0,0,0-1.5.37l-.24.11a4.67,4.67,0,0,1-.45-1.14,3.3,3.3,0,0,1,.49-2.52Z"/><path class="cls-16" d="M128.85,443.12l.24-.11a3,3,0,0,1,1.5-.37,19,19,0,0,0,1.72.93,3.23,3.23,0,0,1,.62.36,2.17,2.17,0,0,1,.89,1.17.21.21,0,0,1-.21.29h-5.88a1.15,1.15,0,0,1-.26,0s-.11-.09-.1-.12a3,3,0,0,1,.88-1.61C128.44,443.46,128.65,443.29,128.85,443.12Z"/><path class="cls-16" d="M108.82,443.06a3,3,0,0,0,.32-.12,2.82,2.82,0,0,1,1.25-.28,13.47,13.47,0,0,0,1.62.91,3.57,3.57,0,0,1,.74.47,2.08,2.08,0,0,1,.77,1.17.14.14,0,0,1-.08.13.56.56,0,0,1-.25.05h-5.6l-.17,0a.18.18,0,0,1-.13-.2,3.11,3.11,0,0,1,.93-1.59Z"/><path class="cls-18" d="M140.29,308.83l0-.06h-.08a.74.74,0,0,0,0,.14s0,0,0,0S140.33,308.89,140.29,308.83Z"/><rect class="cls-6" x="232.78" y="270.43" width="121.49" height="221.61" rx="22.23" ry="22.23" transform="translate(-1.74 1.34) rotate(-0.26)"/><rect class="cls-22" x="238.81" y="280.15" width="107.87" height="185.79" rx="15.88" ry="15.88" transform="matrix(1, 0, 0, 1, -1.7, 1.34)"/><circle class="cls-9" cx="319.08" cy="337.95" r="13.63"/><path class="cls-9" d="M319.48,356.54h0A18.51,18.51,0,0,1,338,375v31.89a4.4,4.4,0,0,1-4.4,4.4H305.37a4.4,4.4,0,0,1-4.4-4.4V375a18.51,18.51,0,0,1,18.51-18.51Z" transform="translate(-1.75 1.46) rotate(-0.26)"/><circle class="cls-9" cx="293.68" cy="480.33" r="9.65"/><rect class="cls-9" x="246.39" y="293.78" width="70.06" height="7.92" rx="3.96" ry="3.96" transform="translate(-1.36 1.29) rotate(-0.26)"/><rect class="cls-9" x="246.46" y="309.13" width="44.98" height="7.92" rx="3.96" ry="3.96" transform="translate(-1.43 1.23) rotate(-0.26)"/><g class="cls-23"><rect class="cls-9" x="246.64" y="326.28" width="44.98" height="50.62" rx="12" ry="12" transform="matrix(1, 0, 0, 1, -1.6, 1.23)"/><path class="cls-12" d="M260.32,342.79h0a3,3,0,0,1,3,3v31.2a0,0,0,0,1,0,0h-5.92a0,0,0,0,1,0,0v-31.2A3,3,0,0,1,260.32,342.79Z" transform="translate(-1.64 1.19) rotate(-0.26)"/><path class="cls-13" d="M266.29,359.4h0a3,3,0,0,1,3,3v14.56a0,0,0,0,1,0,0h-5.92a0,0,0,0,1,0,0V362.36A3,3,0,0,1,266.29,359.4Z" transform="matrix(1, 0, 0, 1, -1.68, 1.22)"/><path class="cls-13" d="M283.93,342.94h0a3,3,0,0,1,3,3v30.94a0,0,0,0,1,0,0H281a0,0,0,0,1,0,0V345.9A3,3,0,0,1,283.93,342.94Z" transform="translate(-1.64 1.3) rotate(-0.26)"/><path class="cls-14" d="M272.18,348.52h0a3,3,0,0,1,3,3v25.41a0,0,0,0,1,0,0h-5.92a0,0,0,0,1,0,0V351.48a3,3,0,0,1,3-3Z" transform="translate(-1.65 1.25) rotate(-0.26)"/><path class="cls-12" d="M278.08,337.81h0a3,3,0,0,1,3,3v36.1a0,0,0,0,1,0,0h-5.92a0,0,0,0,1,0,0v-36.1A3,3,0,0,1,278.08,337.81Z" transform="translate(-1.63 1.27) rotate(-0.26)"/><path class="cls-14" d="M254.42,354h0a3,3,0,0,1,3,3v20a0,0,0,0,1,0,0h-5.92a0,0,0,0,1,0,0V357A3,3,0,0,1,254.42,354Z" transform="translate(-1.67 1.17) rotate(-0.26)"/></g><rect class="cls-9" x="268.11" y="420.82" width="70.06" height="7.92" rx="3.96" ry="3.96" transform="translate(-1.94 1.39) rotate(-0.26)"/><rect class="cls-9" x="292.83" y="436.06" width="44.98" height="7.92" rx="3.96" ry="3.96" transform="translate(-2.01 1.44) rotate(-0.26)"/><rect class="cls-6" x="647.49" y="537.06" width="19.85" height="31.31" rx="9.93" ry="9.93" transform="translate(0.62 -0.73) rotate(0.06)"/><rect class="cls-6" x="610.19" y="427.28" width="87.9" height="163.49" rx="22.23" ry="22.23" transform="translate(1163.9 -144.56) rotate(90.06)"/><rect class="cls-24" x="616.73" y="432.99" width="74.82" height="152.95" rx="15.88" ry="15.88" transform="translate(1164.34 -144.11) rotate(90.06)"/><rect class="cls-6" x="622.12" y="562.57" width="68.92" height="10.27" rx="5.14" ry="5.14" transform="translate(0.63 -0.73) rotate(0.06)"/><circle class="cls-9" cx="597.98" cy="488.87" r="7.25"/><path class="cls-9" d="M598,498.76h0a9.85,9.85,0,0,1,9.85,9.85v17a2.34,2.34,0,0,1-2.34,2.34h-15a2.34,2.34,0,0,1-2.34-2.34v-17a9.85,9.85,0,0,1,9.85-9.85Z" transform="translate(0.57 -0.67) rotate(0.06)"/><circle class="cls-9" cx="704.48" cy="499.2" r="7.25"/><path class="cls-9" d="M704.55,509.1h0a9.85,9.85,0,0,1,9.85,9.85v17a2.34,2.34,0,0,1-2.34,2.34H697a2.34,2.34,0,0,1-2.34-2.34v-17a9.85,9.85,0,0,1,9.85-9.85Z" transform="translate(0.58 -0.78) rotate(0.06)"/><path class="cls-8" d="M637.37,477.29l22.11,0a2.62,2.62,0,0,1,1.89.78,3.24,3.24,0,0,1,.85,1.06,2.7,2.7,0,0,1,.23,1c0,1.57,0,3.15,0,4.72a2.85,2.85,0,0,1-1.47,2.45,3.79,3.79,0,0,1-2.06.52l-43.43-.05a4.54,4.54,0,0,1-1.37-.2,1.8,1.8,0,0,1-.52-.36.38.38,0,0,0-.53,0,2.43,2.43,0,0,1-1.58.52c-.06,0-.14,0-.15-.06s0-.1.06-.12A2,2,0,0,0,612,486c.13-1.86,0-3.73.08-5.6a3.09,3.09,0,0,1,1.7-2.69,3.83,3.83,0,0,1,1.94-.42Z"/><path class="cls-8" d="M641,504.47c7.37,0,14.74,0,22.11,0a2.62,2.62,0,0,1,1.89.78,3,3,0,0,1,.84,1.06,2.71,2.71,0,0,1,.24,1c0,1.57,0,3.14,0,4.71a2.87,2.87,0,0,1-1.47,2.46,3.88,3.88,0,0,1-2.06.52L619.15,515a4.6,4.6,0,0,1-1.38-.19,2,2,0,0,1-.51-.36.38.38,0,0,0-.53,0,2.5,2.5,0,0,1-1.58.52c-.06,0-.14,0-.16-.06a.24.24,0,0,1,.07-.13,1.94,1.94,0,0,0,.57-1.58c.14-1.86,0-3.73.09-5.59a3.06,3.06,0,0,1,1.7-2.69,3.73,3.73,0,0,1,1.94-.43Q630.19,504.47,641,504.47Z"/><path class="cls-9" d="M688.34,501.49a1.43,1.43,0,0,0-.23-.28,1.62,1.62,0,0,1-.48-1.27c-.1-1.92,0-3.85-.07-5.78a3,3,0,0,0-.83-2,3.82,3.82,0,0,0-1.5-1,1.42,1.42,0,0,0-.57-.09L640,491a2.53,2.53,0,0,0-1.75.74,3,3,0,0,0-1,1.39,1.47,1.47,0,0,0-.06.42c0,1.68,0,3.36,0,5.05a2.62,2.62,0,0,0,.65,1.7,2.45,2.45,0,0,0,1.27.95,5.56,5.56,0,0,0,1.28.24q20.28,0,40.55,0c1.11,0,2.21,0,3.31,0a2.63,2.63,0,0,0,1.8-.59.33.33,0,0,1,.45,0,3.51,3.51,0,0,0,1.56.54C688.15,501.51,688.23,501.49,688.34,501.49Z"/><path class="cls-9" d="M688.88,529.36a2.47,2.47,0,0,0-.23-.28,1.63,1.63,0,0,1-.48-1.26c-.1-1.93,0-3.86-.07-5.78a2.93,2.93,0,0,0-.83-2,4.05,4.05,0,0,0-1.5-1,1.54,1.54,0,0,0-.57-.08l-44.68-.05a2.57,2.57,0,0,0-1.76.73,3.16,3.16,0,0,0-.94,1.39,1.23,1.23,0,0,0-.07.42c0,1.68,0,3.37,0,5a2.73,2.73,0,0,0,.65,1.71,2.58,2.58,0,0,0,1.28.95,4.91,4.91,0,0,0,1.28.23l40.55,0c1.1,0,2.2,0,3.3,0a2.62,2.62,0,0,0,1.81-.59.31.31,0,0,1,.44,0,3.51,3.51,0,0,0,1.57.54A1.21,1.21,0,0,0,688.88,529.36Z"/><circle class="cls-6" cx="501.05" cy="518.65" r="49.75"/><circle class="cls-6" cx="501.15" cy="518.65" r="51.47"/><circle class="cls-9" cx="500.89" cy="519.07" r="45.93"/><circle class="cls-8" cx="501.15" cy="519.28" r="43.5"/><path class="cls-14" d="M501.15,519.28,478.75,482a43.49,43.49,0,1,1,15.14,80.17Z"/><path class="cls-12" d="M500.83,519.56l-7.25,42.89A43.51,43.51,0,0,1,457.83,513Z"/><path class="cls-9" d="M122.5,488.51c1.08-5.44,1.08-5.44,6.44-5.44h4.61c5.65,0,5.65,0,6.81,5.43,4.88,0,9.83,0,14.79,0,16.17.08,26.85,8.83,30.32,24.74,1.21,5.51,2.54,11,3.78,16.33,7.31,1,8.83,2.69,8.83,9.66,0,1.78,0,3.55,0,5.33,0,7.24-1.41,8.93-8.69,10.13-1.95,6.85-6.16,11.69-13.54,13.15a22,22,0,0,1-4.22.33q-40.31,0-80.6,0c-8.52,0-13.94-3.83-17.16-11.74a4.22,4.22,0,0,0-2.64-2c-4.54-1-6.47-3.14-6.53-7.82,0-3.08,0-6.15,0-9.23.08-4.57,2.18-6.72,6.76-7.54a3.69,3.69,0,0,0,2.39-2.22c1.35-5,2.51-10.07,3.6-15.14,3.1-14.53,14-23.62,28.84-23.93C111.72,488.41,117.15,488.51,122.5,488.51Zm8.63,75v0c14,0,27.94.08,41.91,0,7.08-.05,11.71-4.79,11.84-11.86.1-5.68.08-11.36,0-17.05-.11-9.4-4.67-13.89-14-13.89H92c-9.53,0-14.08,4.47-14.26,14.09-.09,5.08,0,10.18,0,15.27.08,9,4.55,13.46,13.59,13.48C104.62,563.52,117.87,563.5,131.13,563.5Zm-9.75-47.62.87-15.8c-6,0-11.44-.25-16.86.06-8.86.51-16,7.59-16.28,15.74Zm20.08-.09h32.41c-1.56-8.62-6.72-14.34-15-15.35-5.89-.71-11.94-.13-18.31-.13Zm-6.07-28a29.67,29.67,0,0,1-3.95,0c-3.23-.49-4.4.83-4.31,4,.08,3.41-.35,6.83-.41,10.24-.08,4.55,0,9.1,0,13.71h10.06C136.31,506.4,135.86,497.38,135.39,487.78ZM81.2,518l.87.47c.79-1.53,1.92-3,2.32-4.6,2.88-11.67,10.86-18.14,22.88-18.29,4.26-.06,8.52.07,12.78-.09.92,0,1.81-.95,2.71-1.47l-.49-1.12H109.19C92.46,492.94,83.23,501.23,81.2,518Zm99.61.58,1-.76c-.49-2.3-.83-4.64-1.51-6.87-2.68-8.79-8.37-15.16-17.33-17-7.27-1.46-14.93-1-22.41-1.48l-.44,1.61c.87.42,1.73,1.16,2.62,1.19,4,.14,8,0,12,.07,12.7.12,20.74,6.68,23.67,19.07C178.81,516,180,517.24,180.81,518.62ZM73,534.63c-2.33-.48-3.59.18-3.59,2.55,0,3.29-.09,6.57,0,9.85.09,2.54.6,2.79,3.56,2.29Zm116.79,15c2.66.49,3.67-.52,3.65-2.78,0-3.17,0-6.34,0-9.5,0-2.48-1.18-3.28-3.64-2.67Z"/><path class="cls-9" d="M120.41,525c9.81,0,19.63,0,29.44.06,1.05,0,2.09.89,3.13,1.36-1,.45-2.08,1.27-3.13,1.28-18.91.08-37.83,0-56.75.06-6.43,0-8.07,1.67-8.08,8.21,0,4.61,0,9.22,0,13.83,0,3.53,1.27,5.88,5,6.62.72.15,1.28,1.08,1.91,1.65-.86.36-1.76,1.08-2.59,1a8,8,0,0,1-7-7.3,176.92,176.92,0,0,1,0-19.13c.28-4.72,4.08-7.62,9.06-7.65C101,525,110.72,525,120.41,525Z"/><path class="cls-9" d="M399.68,454.91c-.71,4.38-2.18,8.43-2,10.39,3.59,0,7,0,10.39,0,2.77-.05,3.67,1.48,3.65,4,0,3.78.1,7.57,0,11.34a4.29,4.29,0,0,0,2.18,4.08c7.11,5,12.87,11.21,14.21,20.21.32,2.14-.23,5.21-1.62,6.66-7.37,7.71-15.14,15.05-23,22.69-3.22-4.84-6.11-9.59-9.42-14a27.45,27.45,0,0,0-6.23-5.57c-.59-.42-2.32.2-3.19.81-5,3.53-4.92,3.55-9.37-.87-1.79-1.77-3.71-3.41-5.55-5.09,3.26-3.42,6.3-6.41,9.09-9.61a7,7,0,0,0,1.71-4c.15-7.44.09-14.9,0-22.35,0-3.09,1-4.92,4.37-5.28,3.08-.34,6.12-1.1,9.17-1.68.14-2.92,1.79-6.43,1.92-9C396.87,457.51,398.84,454.91,399.68,454.91Zm6.16,13.32c-4.33.23-5,.47-8.31.69-1.07.07-11.3,1.28-11.31,6.37V492.2c6.83-4.1,9.56-13.89,19.62-11.52Zm-2,59.46a8.55,8.55,0,0,0,1.53-.47c6.44-6.16,12.88-12.31,19.26-18.52.36-.35.23-1.19.33-1.81-.63.12-1.47,0-1.86.38q-9.35,8.9-18.54,17.93C404.14,525.61,404.17,526.48,403.84,527.69Zm-24.37-23c5.36-2.58,20.85-18.38,21-20.63a2.73,2.73,0,0,0-1.92.86q-9.19,8.79-18.29,17.69C379.78,503,379.72,503.94,379.47,504.65Zm5.31,1.51c1.11-.2,1.38-.17,1.5-.29,6.37-6.09,12.74-12.17,19-18.33a3.05,3.05,0,0,0,.78-2.58c-1,.06-1.3.28-1.49.47-6.37,6.09-12.74,12.18-19.05,18.34C385.12,504.19,385.12,505.06,384.78,506.16Zm21.52-15L404.57,490c-4.67,5.11-9.36,10.21-14,15.37-.57.64-.76,1.62-1.44,3.13a9.25,9.25,0,0,0,1.88-.68c4.76-4.58,9.55-9.13,14.21-13.81A3.71,3.71,0,0,0,406.3,491.12Zm.07,7.13-1.58-1.13c-3.56,3.93-7.14,7.84-10.64,11.82-.41.47-.33,1.36-.47,2.06.62-.15,1.44-.1,1.84-.49,3.27-3.07,6.51-6.17,9.63-9.39C405.82,500.42,406,499.22,406.37,498.25Zm5.16,15.17,1.37.83c3.19-3.43,6.41-6.85,9.55-10.33a6.85,6.85,0,0,0,.83-2.07c-.78.18-1.79.12-2.3.59-2.84,2.61-5.62,5.31-8.28,8.11C412,511.24,411.91,512.45,411.53,513.42Zm.09-6.78.85.3c2.66-2.53,5.36-5,7.94-7.63.43-.44.34-1.38.5-2.09-.62.15-1.41.12-1.83.5-2.2,2-4.38,3.94-6.38,6.08C412.06,504.49,412,505.68,411.62,506.64Zm-5.32-2-.71-.63c-2.71,2.65-5.46,5.28-8.11,8-.36.37-.25,1.2-.35,1.82.62-.12,1.45,0,1.85-.4,2.22-2,4.41-4.11,6.46-6.31A6.75,6.75,0,0,0,406.3,504.61Zm4.3,11c-3.5-.41-8,3.41-7.58,7Zm2.08-14.7c1.65-1.82,3.34-3.6,4.93-5.46a2.29,2.29,0,0,0,.42-1.57c0-.2-.85-.54-1.22-.45C415.15,493.82,411.9,498.47,412.68,500.88Zm-6.91,9.65-6.09,6.35C402.39,518,406.17,514.28,405.77,510.53Z"/><path class="cls-9" d="M352.65,560,329.8,529.65c8-6.95,17.65-7.58,27.46-7.52a3.24,3.24,0,0,1,2.26,1.15c4.79,6.72,9.49,13.51,14.19,20.25A60.7,60.7,0,0,1,352.65,560Z"/><path class="cls-9" d="M377.72,546.9c5.28.33,10.4.57,15.5,1.07a3.35,3.35,0,0,1,2.38,2c.94,4.71,1.64,9.48,2.3,14.25a8.92,8.92,0,0,1-.38,3.35c-1.12,4.11-2.33,8.18-3.54,12.43l-25.86-5.35Z"/><path class="cls-9" d="M381.57,519.7l5.82-4.42c2.24,2.48,4.75,4.69,6.57,7.37,7.16,10.55,10.42,16.1,17.66,27.08-8.88-.74-16.29-8.26-19.58-14C388.92,530.31,385.21,525.22,381.57,519.7Z"/><path class="cls-9" d="M330.09,505.22c5.74-.48,11.28-.82,16.78-1.43a36.33,36.33,0,0,1,18,3.08c3.48,1.47,5.78,5.72,8.79,8.91-5.26.23-10.45.52-15.64.61a7.45,7.45,0,0,1-3.17-1.15c-4-2-7.83-4.48-12-6.17S334.6,506.54,330.09,505.22Z"/><path class="cls-9" d="M376.05,508.05s12.75-21.33,24-24.77,29.56,20.56,25.54,25.6c-4.46,5.59-5.72,7.06-13,15-6.82,7.48-10.65,6.38-12.54.83S378.15,505.47,376.05,508.05Z"/><path class="cls-9" d="M365.24,518.44s-3.32-.42-3.2,1.18,4.7,26.25,29.45,23.89c0,0,6.15.14,3.33-2.19S371.89,545.12,365.24,518.44Z"/></g></svg>