<svg xmlns="http://www.w3.org/2000/svg" viewBox="0 0 792 612"><defs><style>.cls-1{fill:#ede8e7;}.cls-2{fill:#b7b7b7;}.cls-3{fill:#231f20;}.cls-4{fill:#2a8bcb;}.cls-5{fill:#ffcb41;}.cls-6{fill:#1c3457;}.cls-18,.cls-7{fill:#fff;}.cls-8{fill:#fcfbfb;}.cls-9{fill:#010101;}.cls-10{fill:#f16251;}.cls-11,.cls-12,.cls-13,.cls-14,.cls-15,.cls-17,.cls-19{fill:none;}.cls-11,.cls-12,.cls-15,.cls-18,.cls-19{stroke:#fff;}.cls-11,.cls-12,.cls-13,.cls-14,.cls-15,.cls-17,.cls-18,.cls-19{stroke-miterlimit:10;}.cls-11{stroke-width:2.15px;}.cls-12{stroke-width:2.03px;}.cls-13,.cls-14{stroke:#ffcb41;}.cls-13{stroke-width:5px;}.cls-14{stroke-width:2px;}.cls-15{stroke-width:2.29px;}.cls-16{fill:#eaeaea;}.cls-17{stroke:#eaeaea;stroke-width:3.81px;}.cls-18{stroke-width:0.51px;}.cls-19{stroke-width:2.23px;}</style></defs><title>AtionBrand2</title><g id="Back"><rect class="cls-1" x="-12.53" y="-5.89" width="823" height="633"/><rect class="cls-2" x="11.7" y="256.75" width="346.5" height="335.15"/><rect class="cls-2" x="357.96" y="440.87" width="398.56" height="151.03"/></g><g id="Stuff"><path class="cls-3" d="M23.38,20.92H27.6v.87H24.39v2.69h3v.86h-3V29h-1Z"/><path class="cls-3" d="M33.73,26.05a2.79,2.79,0,0,1-2.8,3.08,2.72,2.72,0,0,1-2.7-3A2.8,2.8,0,0,1,31,23.06,2.72,2.72,0,0,1,33.73,26.05Zm-4.46.06c0,1.27.71,2.23,1.7,2.23s1.71-.95,1.71-2.25c0-1-.47-2.24-1.68-2.24S29.27,25,29.27,26.11Z"/><path class="cls-3" d="M35,24.77c0-.6,0-1.1,0-1.57h.9l.06.95h0a2.06,2.06,0,0,1,1.86-1.09c.78,0,2,.48,2,2.47V29h-1V25.65c0-.93-.34-1.71-1.31-1.71A1.47,1.47,0,0,0,36.1,25a1.77,1.77,0,0,0-.06.49V29H35Z"/><path class="cls-3" d="M42.64,21.53V23.2H44.1V24H42.64v3.13c0,.72.2,1.13.77,1.13a2,2,0,0,0,.59-.08l0,.8a2.48,2.48,0,0,1-.9.14,1.4,1.4,0,0,1-1.1-.44,2.22,2.22,0,0,1-.4-1.51V24h-.87v-.8h.87V21.8Z"/><path class="cls-3" d="M45.11,27.92a2.66,2.66,0,0,0,1.35.42c.74,0,1.09-.38,1.09-.86s-.29-.78-1-1.07c-1-.37-1.48-.95-1.48-1.64A1.76,1.76,0,0,1,47,23.06a2.73,2.73,0,0,1,1.38.36l-.26.77a2.15,2.15,0,0,0-1.15-.34.83.83,0,0,0-.94.8c0,.48.34.69,1.07,1,1,.38,1.48.89,1.48,1.75,0,1-.77,1.74-2.1,1.74a3.1,3.1,0,0,1-1.58-.4Z"/><path class="cls-3" d="M49.6,24.15a.7.7,0,1,1,.69.75A.7.7,0,0,1,49.6,24.15Zm0,4.24a.7.7,0,1,1,1.39,0,.7.7,0,1,1-1.39,0Z"/><path class="cls-3" d="M396.88,20.92h1v7.2h3.35V29h-4.36Z"/><path class="cls-3" d="M407.25,26.05a2.79,2.79,0,0,1-2.8,3.08,2.72,2.72,0,0,1-2.69-3,2.8,2.8,0,0,1,2.78-3.09A2.71,2.71,0,0,1,407.25,26.05Zm-4.46.06c0,1.27.71,2.23,1.71,2.23s1.71-.95,1.71-2.25c0-1-.48-2.24-1.69-2.24S402.79,25,402.79,26.11Z"/><path class="cls-3" d="M413.38,23.2c0,.41-.05.88-.05,1.59v3.37a3.39,3.39,0,0,1-.8,2.65,2.89,2.89,0,0,1-2,.7,3.53,3.53,0,0,1-1.87-.48l.25-.81a3.14,3.14,0,0,0,1.65.46c1.05,0,1.81-.56,1.81-2V28h0a2,2,0,0,1-1.79,1,2.57,2.57,0,0,1-2.39-2.83c0-2,1.24-3.09,2.53-3.09a1.88,1.88,0,0,1,1.76,1h0l0-.87Zm-1.06,2.29a1.44,1.44,0,0,0-.06-.48,1.46,1.46,0,0,0-1.42-1.12c-1,0-1.68.85-1.68,2.2,0,1.14.56,2.08,1.66,2.08a1.5,1.5,0,0,0,1.42-1.08,1.81,1.81,0,0,0,.08-.56Z"/><path class="cls-3" d="M420.11,26.05a2.79,2.79,0,0,1-2.8,3.08,2.72,2.72,0,0,1-2.69-3,2.8,2.8,0,0,1,2.79-3.09A2.71,2.71,0,0,1,420.11,26.05Zm-4.46.06c0,1.27.71,2.23,1.71,2.23s1.71-.95,1.71-2.25c0-1-.48-2.24-1.69-2.24S415.65,25,415.65,26.11Z"/><path class="cls-3" d="M421.26,27.92a2.62,2.62,0,0,0,1.34.42c.75,0,1.1-.38,1.1-.86s-.29-.78-1.05-1.07c-1-.37-1.48-.95-1.48-1.64a1.75,1.75,0,0,1,1.93-1.71,2.81,2.81,0,0,1,1.39.36l-.26.77a2.18,2.18,0,0,0-1.15-.34.83.83,0,0,0-.94.8c0,.48.34.69,1.07,1,1,.38,1.47.89,1.47,1.75,0,1-.76,1.74-2.1,1.74a3.16,3.16,0,0,1-1.58-.4Z"/><path class="cls-3" d="M425.75,24.15a.69.69,0,1,1,1.38,0,.69.69,0,0,1-.69.75A.7.7,0,0,1,425.75,24.15Zm0,4.24a.69.69,0,1,1,1.38,0,.68.68,0,0,1-.69.74A.69.69,0,0,1,425.75,28.39Z"/><path class="cls-3" d="M402.35,247.74a4.88,4.88,0,0,1-2.06.38,3.72,3.72,0,0,1-3.87-4.09,4,4,0,0,1,4.09-4.25,4.09,4.09,0,0,1,1.85.36l-.24.86a3.46,3.46,0,0,0-1.58-.34c-1.83,0-3.05,1.21-3.05,3.33s1.1,3.25,3,3.25a4,4,0,0,0,1.65-.33Z"/><path class="cls-3" d="M408.54,245.05a2.79,2.79,0,0,1-2.8,3.08,2.72,2.72,0,0,1-2.69-3,2.8,2.8,0,0,1,2.78-3.09A2.71,2.71,0,0,1,408.54,245.05Zm-4.46.06c0,1.27.71,2.23,1.71,2.23s1.7-1,1.7-2.25c0-1-.47-2.24-1.68-2.24S404.08,244,404.08,245.11Z"/><path class="cls-3" d="M409.83,239.48h1V248h-1Z"/><path class="cls-3" d="M417.65,245.05a2.79,2.79,0,0,1-2.8,3.08,2.72,2.72,0,0,1-2.69-3,2.8,2.8,0,0,1,2.78-3.09A2.71,2.71,0,0,1,417.65,245.05Zm-4.46.06c0,1.27.71,2.23,1.71,2.23s1.71-1,1.71-2.25c0-1-.48-2.24-1.69-2.24S413.19,244,413.19,245.11Z"/><path class="cls-3" d="M418.94,244c0-.69,0-1.28-.05-1.81h.89l0,1.13h.05a1.7,1.7,0,0,1,1.55-1.27,1.19,1.19,0,0,1,.29,0v1a1.75,1.75,0,0,0-.35,0,1.45,1.45,0,0,0-1.37,1.35,3.75,3.75,0,0,0,0,.5V248h-1Z"/><path class="cls-3" d="M422.59,246.92a2.66,2.66,0,0,0,1.35.42c.74,0,1.09-.38,1.09-.86s-.29-.78-1-1.07c-1-.37-1.49-.95-1.49-1.64a1.76,1.76,0,0,1,1.94-1.71,2.73,2.73,0,0,1,1.38.36l-.25.77a2.21,2.21,0,0,0-1.15-.34.83.83,0,0,0-.94.8c0,.48.33.69,1.06,1,1,.38,1.48.89,1.48,1.75,0,1-.77,1.74-2.1,1.74a3.1,3.1,0,0,1-1.58-.4Z"/><path class="cls-3" d="M427.08,243.15a.7.7,0,1,1,.69.75A.7.7,0,0,1,427.08,243.15Zm0,4.24a.7.7,0,1,1,1.39,0,.7.7,0,1,1-1.39,0Z"/><path class="cls-3" d="M29.34,247.64a7,7,0,0,1-2.4.44A4,4,0,0,1,24,247a4.26,4.26,0,0,1-1.09-3,4,4,0,0,1,4.24-4.18,4.88,4.88,0,0,1,1.95.37l-.25.86a3.8,3.8,0,0,0-1.73-.35A3,3,0,0,0,24,244c0,2,1.19,3.26,3,3.26a3.16,3.16,0,0,0,1.35-.22v-2.41H26.76v-.84h2.58Z"/><path class="cls-3" d="M30.85,244c0-.69,0-1.28-.05-1.81h.89l0,1.13h.05a1.7,1.7,0,0,1,1.55-1.27,1.19,1.19,0,0,1,.29,0v1a1.75,1.75,0,0,0-.35,0,1.45,1.45,0,0,0-1.37,1.35,3.75,3.75,0,0,0,0,.5V248h-1Z"/><path class="cls-3" d="M37.7,248l-.09-.73h0a2.08,2.08,0,0,1-1.72.86,1.63,1.63,0,0,1-1.72-1.67c0-1.4,1.21-2.17,3.38-2.15v-.12a1.19,1.19,0,0,0-1.28-1.35,2.78,2.78,0,0,0-1.46.43l-.23-.69a3.41,3.41,0,0,1,1.84-.52c1.72,0,2.14,1.21,2.14,2.38v2.17a8.47,8.47,0,0,0,.09,1.39Zm-.16-3c-1.11,0-2.38.18-2.38,1.3a.92.92,0,0,0,1,1,1.41,1.41,0,0,0,1.36-1,1.33,1.33,0,0,0,0-.34Z"/><path class="cls-3" d="M40.18,244.09c0-.74,0-1.34,0-1.89h.92l.05,1h0a2.2,2.2,0,0,1,2-1.13c1.35,0,2.38,1.19,2.38,2.95,0,2.09-1.23,3.12-2.56,3.12a2,2,0,0,1-1.73-.91h0v3.15h-1Zm1,1.55a2,2,0,0,0,.05.43,1.58,1.58,0,0,0,1.53,1.23c1.08,0,1.7-.91,1.7-2.24,0-1.16-.59-2.16-1.67-2.16a1.65,1.65,0,0,0-1.54,1.31,1.55,1.55,0,0,0-.07.43Z"/><path class="cls-3" d="M46.78,239.48h1v3.63h0a2,2,0,0,1,.73-.75,2,2,0,0,1,1-.3c.76,0,2,.48,2,2.49V248h-1v-3.33c0-.94-.33-1.73-1.3-1.73A1.48,1.48,0,0,0,47.87,244a1.53,1.53,0,0,0-.07.51V248h-1Z"/><path class="cls-3" d="M54.36,240.56a.63.63,0,1,1-1.26,0,.63.63,0,0,1,.64-.66A.61.61,0,0,1,54.36,240.56ZM53.22,248v-5.8h1V248Z"/><path class="cls-3" d="M60,247.78a3.59,3.59,0,0,1-1.62.34,2.72,2.72,0,0,1-2.8-3,2.9,2.9,0,0,1,3-3.08,3.23,3.23,0,0,1,1.42.3l-.23.81a2.39,2.39,0,0,0-1.19-.27,2.19,2.19,0,0,0,0,4.36,2.83,2.83,0,0,0,1.25-.29Z"/><path class="cls-3" d="M61,246.92a2.66,2.66,0,0,0,1.35.42c.74,0,1.09-.38,1.09-.86s-.29-.78-1-1.07c-1-.37-1.48-.95-1.48-1.64a1.76,1.76,0,0,1,1.94-1.71,2.73,2.73,0,0,1,1.38.36l-.26.77a2.15,2.15,0,0,0-1.15-.34.83.83,0,0,0-.94.8c0,.48.34.69,1.07,1,1,.38,1.48.89,1.48,1.75,0,1-.77,1.74-2.1,1.74a3.1,3.1,0,0,1-1.58-.4Z"/><path class="cls-3" d="M65.49,243.15a.7.7,0,1,1,.69.75A.7.7,0,0,1,65.49,243.15Zm0,4.24a.7.7,0,1,1,1.39,0,.7.7,0,1,1-1.39,0Z"/><path class="cls-3" d="M49.06,62.08q0,6.39-3.16,9.81t-9.07,3.43q-5.91,0-9.07-3.43t-3.17-9.84q0-6.42,3.17-9.8t9.1-3.38q5.93,0,9.06,3.41T49.06,62.08Zm-18.76,0q0,4.32,1.64,6.49a5.73,5.73,0,0,0,4.89,2.18q6.51,0,6.52-8.67T36.86,53.4A5.74,5.74,0,0,0,32,55.59C30.86,57.05,30.3,59.21,30.3,62.08Z"/><path class="cls-3" d="M72.14,57.29a7.84,7.84,0,0,1-2.59,6.34q-2.6,2.2-7.38,2.2H59.84V75H54.39V49.27H62.6q4.66,0,7.11,2A7.36,7.36,0,0,1,72.14,57.29Zm-12.3,4.07h1.79a6,6,0,0,0,3.76-1,3.48,3.48,0,0,0,1.25-2.89,3.55,3.55,0,0,0-1-2.83,4.89,4.89,0,0,0-3.28-.92H59.84Z"/><path class="cls-3" d="M91.79,75H77V49.27h14.8v4.46H82.44v5.65h8.7v4.46h-8.7v6.63h9.35Z"/><path class="cls-3" d="M120,75H113L101.85,55.53h-.16q.33,5.14.33,7.35V75H97.15V49.27H104l11.16,19.25h.12q-.25-5-.26-7.09V49.27H120Z"/><path class="cls-3" d="M150.94,67.83a6.66,6.66,0,0,1-2.5,5.49,10.91,10.91,0,0,1-7,2,16.27,16.27,0,0,1-7.28-1.55V68.71a31.23,31.23,0,0,0,4.4,1.64,13.37,13.37,0,0,0,3.3.47,4.73,4.73,0,0,0,2.75-.68,2.35,2.35,0,0,0,1-2,2.26,2.26,0,0,0-.42-1.35,4.76,4.76,0,0,0-1.24-1.13,30.36,30.36,0,0,0-3.33-1.74,16,16,0,0,1-3.54-2.13,8.11,8.11,0,0,1-1.88-2.37,6.77,6.77,0,0,1-.7-3.17,6.64,6.64,0,0,1,2.31-5.36,9.61,9.61,0,0,1,6.39-2,14.86,14.86,0,0,1,3.82.48,25.55,25.55,0,0,1,3.81,1.33L149.06,55a25.52,25.52,0,0,0-3.4-1.18,11.1,11.1,0,0,0-2.64-.33,3.51,3.51,0,0,0-2.38.72,2.36,2.36,0,0,0-.82,1.88,2.31,2.31,0,0,0,.33,1.25,3.63,3.63,0,0,0,1.06,1,30.8,30.8,0,0,0,3.46,1.8,13.71,13.71,0,0,1,4.94,3.46A6.73,6.73,0,0,1,150.94,67.83Z"/><path class="cls-3" d="M171.33,75l-1.86-6.12H160.1L158.24,75h-5.87l9.07-25.81h6.66L177.21,75Zm-3.16-10.69q-2.58-8.31-2.91-9.4c-.22-.73-.37-1.3-.47-1.73q-.57,2.25-3.32,11.13Z"/><path class="cls-3" d="M203.24,75h-6.93L185.13,55.53H185q.34,5.14.34,7.35V75h-4.87V49.27h6.87l11.16,19.25h.13q-.27-5-.27-7.09V49.27h4.91Z"/><path class="cls-3" d="M224.88,67.83a6.66,6.66,0,0,1-2.51,5.49,10.91,10.91,0,0,1-7,2,16.27,16.27,0,0,1-7.28-1.55V68.71a31.29,31.29,0,0,0,4.41,1.64,13.29,13.29,0,0,0,3.29.47,4.77,4.77,0,0,0,2.76-.68,2.37,2.37,0,0,0,.95-2,2.26,2.26,0,0,0-.42-1.35,4.61,4.61,0,0,0-1.24-1.13,28.51,28.51,0,0,0-3.33-1.74A15.69,15.69,0,0,1,211,61.75a8,8,0,0,1-1.88-2.37,6.77,6.77,0,0,1-.71-3.17,6.62,6.62,0,0,1,2.32-5.36,9.6,9.6,0,0,1,6.38-2,14.94,14.94,0,0,1,3.83.48,25.85,25.85,0,0,1,3.8,1.33L223,55a26.08,26.08,0,0,0-3.41-1.18,11,11,0,0,0-2.64-.33,3.5,3.5,0,0,0-2.37.72,2.37,2.37,0,0,0-.83,1.88,2.31,2.31,0,0,0,.33,1.25,3.67,3.67,0,0,0,1.07,1,30.32,30.32,0,0,0,3.45,1.8,13.71,13.71,0,0,1,4.94,3.46A6.74,6.74,0,0,1,224.88,67.83Z"/><path class="cls-3" d="M238.89,49.27h8c3.65,0,6.29.52,7.94,1.56a5.39,5.39,0,0,1,2.47,4.94,6.22,6.22,0,0,1-1.08,3.78,4.31,4.31,0,0,1-2.87,1.78v.17a5.73,5.73,0,0,1,3.52,2,6.65,6.65,0,0,1,1.08,4A6.55,6.55,0,0,1,255.4,73a11,11,0,0,1-6.9,2h-9.61Zm5.45,10.18h3.16a5.75,5.75,0,0,0,3.21-.69,2.55,2.55,0,0,0,1-2.27,2.25,2.25,0,0,0-1.08-2.11,6.91,6.91,0,0,0-3.42-.65h-2.86Zm0,4.32v6.7h3.55a5.3,5.3,0,0,0,3.32-.86A3.21,3.21,0,0,0,252.28,67q0-3.19-4.57-3.2Z"/><path class="cls-3" d="M286.4,62.08q0,6.39-3.16,9.81t-9.07,3.43q-5.91,0-9.07-3.43t-3.17-9.84q0-6.42,3.17-9.8t9.1-3.38q5.93,0,9.06,3.41T286.4,62.08Zm-18.76,0q0,4.32,1.64,6.49a5.73,5.73,0,0,0,4.89,2.18q6.51,0,6.52-8.67T274.2,53.4a5.74,5.74,0,0,0-4.9,2.19C268.2,57.05,267.64,59.21,267.64,62.08Z"/><path class="cls-3" d="M291.73,75V49.27h5.45v21.2H307.6V75Z"/><path class="cls-3" d="M333.39,61.87q0,6.34-3.62,9.72T319.34,75h-7.28V49.27h8.07q6.3,0,9.78,3.32T333.39,61.87Zm-5.66.14q0-8.28-7.32-8.28h-2.9V70.47h2.34Q327.73,70.47,327.73,62Z"/><path class="cls-3" d="M23.63,143.45v-8.56H25v7.36h3.63v1.2Z"/><path class="cls-3" d="M35.74,140.2a3.55,3.55,0,0,1-.82,2.48,2.93,2.93,0,0,1-2.27.89,3.12,3.12,0,0,1-1.6-.41A2.67,2.67,0,0,1,30,142a4,4,0,0,1-.38-1.78,3.51,3.51,0,0,1,.81-2.46,2.93,2.93,0,0,1,2.28-.88,2.87,2.87,0,0,1,2.23.9A3.53,3.53,0,0,1,35.74,140.2Zm-4.72,0c0,1.5.55,2.25,1.66,2.25s1.64-.75,1.64-2.25S33.77,138,32.67,138a1.42,1.42,0,0,0-1.26.57A3,3,0,0,0,31,140.2Z"/><path class="cls-3" d="M40.61,136.86a4.21,4.21,0,0,1,.68,0l-.13,1.29a2.48,2.48,0,0,0-.61-.07,1.76,1.76,0,0,0-1.34.54,2,2,0,0,0-.51,1.4v3.38H37.32V137H38.4l.18,1.15h.07a2.41,2.41,0,0,1,.84-.92A2,2,0,0,1,40.61,136.86Z"/><path class="cls-3" d="M45.32,143.57a3.12,3.12,0,0,1-2.36-.88,3.35,3.35,0,0,1-.85-2.43,3.68,3.68,0,0,1,.79-2.5,3.06,3.06,0,0,1,4.2-.13,3,3,0,0,1,.74,2.15v.74H43.52A2.12,2.12,0,0,0,44,142a1.77,1.77,0,0,0,1.36.51,5.17,5.17,0,0,0,1.07-.11,5.31,5.31,0,0,0,1.06-.36v1.12a4.53,4.53,0,0,1-1,.34A6,6,0,0,1,45.32,143.57Zm-.25-5.67a1.39,1.39,0,0,0-1,.41,2,2,0,0,0-.47,1.22h2.94a1.82,1.82,0,0,0-.39-1.22A1.33,1.33,0,0,0,45.07,137.9Z"/><path class="cls-3" d="M54.87,143.45H53.48v-4a1.78,1.78,0,0,0-.28-1.11,1,1,0,0,0-.88-.37,1.31,1.31,0,0,0-1.16.52,3,3,0,0,0-.38,1.72v3.23H49.41V137h1.07l.2.85h.07a1.79,1.79,0,0,1,.78-.71,2.5,2.5,0,0,1,1.13-.25,2,2,0,0,1,2,1h.09a1.84,1.84,0,0,1,.81-.75,2.59,2.59,0,0,1,1.2-.27,2.19,2.19,0,0,1,1.69.58,2.62,2.62,0,0,1,.53,1.79v4.22H57.58v-4a1.78,1.78,0,0,0-.28-1.11,1,1,0,0,0-.89-.37,1.38,1.38,0,0,0-1.17.5,2.59,2.59,0,0,0-.37,1.54Z"/><path class="cls-3" d="M63.91,135.26a.71.71,0,0,1,.78-.77.75.75,0,0,1,.57.2.88.88,0,0,1,0,1.12.79.79,0,0,1-.57.2.77.77,0,0,1-.57-.2A.74.74,0,0,1,63.91,135.26Zm1.46,8.19H64V137h1.37Z"/><path class="cls-3" d="M70.63,143.57a2.26,2.26,0,0,1-1.91-.88h-.08c0,.54.08.87.08,1v2.66H67.34V137h1.12c0,.12.09.41.19.87h.07a2.14,2.14,0,0,1,1.93-1,2.26,2.26,0,0,1,1.89.87,4.81,4.81,0,0,1,0,5A2.28,2.28,0,0,1,70.63,143.57ZM70.29,138a1.42,1.42,0,0,0-1.19.48,2.44,2.44,0,0,0-.38,1.54v.2a3.07,3.07,0,0,0,.37,1.72,1.41,1.41,0,0,0,1.23.53,1.26,1.26,0,0,0,1.1-.59,3,3,0,0,0,.39-1.67,2.87,2.87,0,0,0-.39-1.65A1.28,1.28,0,0,0,70.29,138Z"/><path class="cls-3" d="M79.17,141.61a1.68,1.68,0,0,1-.69,1.45,3.29,3.29,0,0,1-2,.51,4.7,4.7,0,0,1-2.08-.39V142a5.13,5.13,0,0,0,2.13.53c.84,0,1.27-.26,1.27-.77a.62.62,0,0,0-.14-.41,1.78,1.78,0,0,0-.47-.34,7.38,7.38,0,0,0-.89-.4,4.2,4.2,0,0,1-1.52-.87,1.61,1.61,0,0,1-.39-1.12,1.45,1.45,0,0,1,.67-1.29,3.14,3.14,0,0,1,1.82-.46,5.15,5.15,0,0,1,2.17.46l-.45,1a4.84,4.84,0,0,0-1.76-.44c-.73,0-1.09.21-1.09.62a.62.62,0,0,0,.28.52,6.46,6.46,0,0,0,1.24.58,6.06,6.06,0,0,1,1.17.57,1.76,1.76,0,0,1,.54.59A1.83,1.83,0,0,1,79.17,141.61Z"/><path class="cls-3" d="M85.23,143.45,85,142.6H85a2,2,0,0,1-.82.71,2.76,2.76,0,0,1-1.21.26,2.34,2.34,0,0,1-1.76-.59,2.4,2.4,0,0,1-.58-1.77V137H82v4a1.73,1.73,0,0,0,.3,1.11,1.19,1.19,0,0,0,1,.38,1.52,1.52,0,0,0,1.27-.52,2.82,2.82,0,0,0,.41-1.74V137h1.38v6.48Z"/><path class="cls-3" d="M93.74,143.45H92.36v-4a1.78,1.78,0,0,0-.29-1.11,1,1,0,0,0-.87-.37,1.31,1.31,0,0,0-1.17.52,3,3,0,0,0-.38,1.72v3.23H88.28V137h1.08l.19.85h.07a1.79,1.79,0,0,1,.78-.71,2.5,2.5,0,0,1,1.13-.25,2,2,0,0,1,2,1h.09a1.84,1.84,0,0,1,.81-.75,2.59,2.59,0,0,1,1.2-.27,2.19,2.19,0,0,1,1.69.58,2.62,2.62,0,0,1,.53,1.79v4.22H96.45v-4a1.78,1.78,0,0,0-.28-1.11,1,1,0,0,0-.88-.37,1.38,1.38,0,0,0-1.18.5,2.59,2.59,0,0,0-.37,1.54Z"/><path class="cls-3" d="M105.05,143.57a2.24,2.24,0,0,1-1.89-.88,4.81,4.81,0,0,1,0-4.95,2.27,2.27,0,0,1,1.91-.88,2.22,2.22,0,0,1,1.94.94h.07a9.58,9.58,0,0,1-.1-1.1v-2.36h1.38v9.11H107.3l-.24-.85H107A2.19,2.19,0,0,1,105.05,143.57Zm.37-1.11a1.5,1.5,0,0,0,1.24-.48,2.53,2.53,0,0,0,.4-1.55v-.19a2.93,2.93,0,0,0-.4-1.74,1.47,1.47,0,0,0-1.25-.52,1.28,1.28,0,0,0-1.12.59,3,3,0,0,0-.39,1.68,3,3,0,0,0,.38,1.64A1.27,1.27,0,0,0,105.42,142.46Z"/><path class="cls-3" d="M116.09,140.2a3.54,3.54,0,0,1-.81,2.48,2.94,2.94,0,0,1-2.27.89,3.16,3.16,0,0,1-1.61-.41,2.73,2.73,0,0,1-1.07-1.18,4,4,0,0,1-.37-1.78,3.51,3.51,0,0,1,.81-2.46,3.29,3.29,0,0,1,4.5,0A3.48,3.48,0,0,1,116.09,140.2Zm-4.72,0c0,1.5.56,2.25,1.66,2.25s1.64-.75,1.64-2.25S114.12,138,113,138a1.42,1.42,0,0,0-1.26.57A3,3,0,0,0,111.37,140.2Z"/><path class="cls-3" d="M119.05,143.45h-1.38v-9.11h1.38Z"/><path class="cls-3" d="M126.77,140.2a3.5,3.5,0,0,1-.82,2.48,2.92,2.92,0,0,1-2.26.89,3.13,3.13,0,0,1-1.61-.41A2.73,2.73,0,0,1,121,142a4,4,0,0,1-.38-1.78,3.51,3.51,0,0,1,.81-2.46,2.93,2.93,0,0,1,2.28-.88,2.87,2.87,0,0,1,2.23.9A3.53,3.53,0,0,1,126.77,140.2Zm-4.72,0c0,1.5.55,2.25,1.66,2.25s1.64-.75,1.64-2.25S124.8,138,123.7,138a1.42,1.42,0,0,0-1.26.57A3,3,0,0,0,122.05,140.2Z"/><path class="cls-3" d="M131.64,136.86a4.21,4.21,0,0,1,.68,0l-.13,1.29a2.48,2.48,0,0,0-.61-.07,1.76,1.76,0,0,0-1.34.54,2,2,0,0,0-.51,1.4v3.38h-1.38V137h1.08l.18,1.15h.07a2.41,2.41,0,0,1,.84-.92A2,2,0,0,1,131.64,136.86Z"/><path class="cls-3" d="M141,141.61a1.68,1.68,0,0,1-.69,1.45,3.29,3.29,0,0,1-2,.51,4.73,4.73,0,0,1-2.08-.39V142a5.13,5.13,0,0,0,2.13.53c.85,0,1.27-.26,1.27-.77a.62.62,0,0,0-.14-.41A1.7,1.7,0,0,0,139,141a8.49,8.49,0,0,0-.9-.4,4,4,0,0,1-1.51-.87,1.57,1.57,0,0,1-.4-1.12,1.45,1.45,0,0,1,.67-1.29,3.18,3.18,0,0,1,1.83-.46,5.14,5.14,0,0,1,2.16.46l-.45,1a4.79,4.79,0,0,0-1.76-.44c-.73,0-1.09.21-1.09.62a.62.62,0,0,0,.28.52,6.79,6.79,0,0,0,1.24.58,5.77,5.77,0,0,1,1.17.57,1.76,1.76,0,0,1,.54.59A1.7,1.7,0,0,1,141,141.61Z"/><path class="cls-3" d="M142.4,135.26a.7.7,0,0,1,.78-.77.76.76,0,0,1,.57.2.88.88,0,0,1,0,1.12.81.81,0,0,1-.57.2.82.82,0,0,1-.58-.2A.77.77,0,0,1,142.4,135.26Zm1.46,8.19h-1.38V137h1.38Z"/><path class="cls-3" d="M148.24,142.46a3.55,3.55,0,0,0,1-.16v1a2.89,2.89,0,0,1-.59.16,3.67,3.67,0,0,1-.75.07c-1.3,0-1.95-.69-1.95-2.06V138h-.89v-.61l1-.51.47-1.37h.85V137h1.85V138h-1.85v3.46a1,1,0,0,0,.25.74A.88.88,0,0,0,148.24,142.46Z"/><path class="cls-3" d="M157.72,143.45l-.28-.9h-.05a2.63,2.63,0,0,1-.94.81,3,3,0,0,1-1.22.21,2,2,0,0,1-1.49-.52,1.9,1.9,0,0,1-.53-1.45,1.71,1.71,0,0,1,.74-1.52,4.29,4.29,0,0,1,2.27-.55l1.12,0v-.34a1.31,1.31,0,0,0-.29-.93,1.19,1.19,0,0,0-.9-.31,3.06,3.06,0,0,0-1,.15,6.67,6.67,0,0,0-.88.34l-.44-1A4.26,4.26,0,0,1,155,137a5.07,5.07,0,0,1,1.19-.14,2.84,2.84,0,0,1,1.86.53,2.13,2.13,0,0,1,.63,1.7v4.36Zm-2.05-.93a1.69,1.69,0,0,0,1.2-.42,1.53,1.53,0,0,0,.45-1.18v-.56l-.83,0a2.91,2.91,0,0,0-1.41.33,1,1,0,0,0-.45.89.87.87,0,0,0,.26.67A1.1,1.1,0,0,0,155.67,142.52Z"/><path class="cls-3" d="M166.08,143.45H164.7v-4a1.78,1.78,0,0,0-.28-1.11,1,1,0,0,0-.88-.37,1.34,1.34,0,0,0-1.17.52,3,3,0,0,0-.37,1.72v3.23h-1.38V137h1.08l.19.85H162a1.82,1.82,0,0,1,.79-.71,2.46,2.46,0,0,1,1.12-.25,2,2,0,0,1,2,1H166a1.84,1.84,0,0,1,.81-.75,2.54,2.54,0,0,1,1.19-.27,2.16,2.16,0,0,1,1.69.58,2.57,2.57,0,0,1,.53,1.79v4.22H168.8v-4a1.78,1.78,0,0,0-.29-1.11,1,1,0,0,0-.88-.37,1.36,1.36,0,0,0-1.17.5,2.59,2.59,0,0,0-.38,1.54Z"/><path class="cls-3" d="M174.93,143.57a3.14,3.14,0,0,1-2.37-.88,3.35,3.35,0,0,1-.85-2.43,3.68,3.68,0,0,1,.79-2.5,2.74,2.74,0,0,1,2.17-.9,2.69,2.69,0,0,1,2,.77,3,3,0,0,1,.75,2.15v.74h-4.32a2.12,2.12,0,0,0,.51,1.45,1.76,1.76,0,0,0,1.35.51,5.17,5.17,0,0,0,1.07-.11,5.31,5.31,0,0,0,1.06-.36v1.12a4.22,4.22,0,0,1-1,.34A5.87,5.87,0,0,1,174.93,143.57Zm-.26-5.67a1.42,1.42,0,0,0-1,.41,2,2,0,0,0-.47,1.22h2.94a1.82,1.82,0,0,0-.38-1.22A1.36,1.36,0,0,0,174.67,137.9Z"/><path class="cls-3" d="M181.42,142.46a3.49,3.49,0,0,0,1-.16v1a2.89,2.89,0,0,1-.59.16,3.64,3.64,0,0,1-.74.07c-1.31,0-2-.69-2-2.06V138h-.89v-.61l.95-.51.47-1.37h.85V137h1.85V138h-1.85v3.46a1,1,0,0,0,.25.74A.9.9,0,0,0,181.42,142.46Z"/><path class="cls-3" d="M185.16,142.19a19.89,19.89,0,0,1-1,2.81h-1a28,28,0,0,0,.6-2.94h1.36Z"/><path class="cls-3" d="M192.66,143.57a2.83,2.83,0,0,1-2.23-.86,3.57,3.57,0,0,1-.77-2.46,3.65,3.65,0,0,1,.8-2.52,3,3,0,0,1,2.31-.87,4.25,4.25,0,0,1,1.85.38l-.42,1.1a4.31,4.31,0,0,0-1.44-.34c-1.12,0-1.68.75-1.68,2.24a2.65,2.65,0,0,0,.42,1.63,1.44,1.44,0,0,0,1.23.55,3.49,3.49,0,0,0,1.74-.46v1.21a3.17,3.17,0,0,1-.79.31A5,5,0,0,1,192.66,143.57Z"/><path class="cls-3" d="M201.74,140.2a3.5,3.5,0,0,1-.82,2.48,2.92,2.92,0,0,1-2.26.89,3.16,3.16,0,0,1-1.61-.41A2.73,2.73,0,0,1,196,142a4,4,0,0,1-.38-1.78,3.51,3.51,0,0,1,.81-2.46,2.93,2.93,0,0,1,2.28-.88,2.87,2.87,0,0,1,2.23.9A3.53,3.53,0,0,1,201.74,140.2Zm-4.72,0c0,1.5.55,2.25,1.66,2.25s1.64-.75,1.64-2.25-.55-2.22-1.65-2.22a1.42,1.42,0,0,0-1.26.57A3,3,0,0,0,197,140.2Z"/><path class="cls-3" d="M209,143.45h-1.38v-4a1.76,1.76,0,0,0-.3-1.12,1.15,1.15,0,0,0-1-.37,1.52,1.52,0,0,0-1.28.52,2.83,2.83,0,0,0-.4,1.72v3.23h-1.38V137h1.08l.19.85h.07a1.93,1.93,0,0,1,.83-.71,2.77,2.77,0,0,1,1.2-.25,2.08,2.08,0,0,1,2.33,2.37Z"/><path class="cls-3" d="M215.29,141.61a1.68,1.68,0,0,1-.69,1.45,3.29,3.29,0,0,1-2,.51,4.7,4.7,0,0,1-2.08-.39V142a5.13,5.13,0,0,0,2.13.53c.84,0,1.27-.26,1.27-.77a.62.62,0,0,0-.14-.41,1.78,1.78,0,0,0-.47-.34,7.38,7.38,0,0,0-.89-.4,4.2,4.2,0,0,1-1.52-.87,1.61,1.61,0,0,1-.39-1.12,1.45,1.45,0,0,1,.67-1.29,3.14,3.14,0,0,1,1.82-.46,5.15,5.15,0,0,1,2.17.46l-.45,1a4.84,4.84,0,0,0-1.76-.44c-.73,0-1.09.21-1.09.62a.62.62,0,0,0,.28.52,6.46,6.46,0,0,0,1.24.58,6.06,6.06,0,0,1,1.17.57,1.76,1.76,0,0,1,.54.59A1.83,1.83,0,0,1,215.29,141.61Z"/><path class="cls-3" d="M219.61,143.57a3.1,3.1,0,0,1-2.36-.88,3.35,3.35,0,0,1-.86-2.43,3.73,3.73,0,0,1,.79-2.5,2.76,2.76,0,0,1,2.18-.9,2.68,2.68,0,0,1,2,.77,3,3,0,0,1,.75,2.15v.74h-4.32a2.12,2.12,0,0,0,.51,1.45,1.76,1.76,0,0,0,1.35.51,5.1,5.1,0,0,0,1.07-.11,5.39,5.39,0,0,0,1.07-.36v1.12a4.53,4.53,0,0,1-1,.34A6,6,0,0,1,219.61,143.57Zm-.25-5.67a1.39,1.39,0,0,0-1.05.41,2,2,0,0,0-.48,1.22h2.95a1.82,1.82,0,0,0-.39-1.22A1.35,1.35,0,0,0,219.36,137.9Z"/><path class="cls-3" d="M226.31,143.57a2.86,2.86,0,0,1-2.24-.86,4.37,4.37,0,0,1,0-5,3,3,0,0,1,2.31-.87,4.21,4.21,0,0,1,1.84.38l-.41,1.1a4.31,4.31,0,0,0-1.44-.34c-1.12,0-1.69.75-1.69,2.24a2.65,2.65,0,0,0,.42,1.63,1.44,1.44,0,0,0,1.23.55,3.49,3.49,0,0,0,1.74-.46v1.21a3,3,0,0,1-.79.31A4.85,4.85,0,0,1,226.31,143.57Z"/><path class="cls-3" d="M232.05,142.46a3.6,3.6,0,0,0,1-.16v1a3.08,3.08,0,0,1-.59.16,3.67,3.67,0,0,1-.75.07c-1.3,0-2-.69-2-2.06V138h-.88v-.61l1-.51.47-1.37h.85V137H233V138h-1.84v3.46a1,1,0,0,0,.25.74A.88.88,0,0,0,232.05,142.46Z"/><path class="cls-3" d="M237.18,143.57a3.12,3.12,0,0,1-2.36-.88,3.35,3.35,0,0,1-.86-2.43,3.68,3.68,0,0,1,.8-2.5,3.06,3.06,0,0,1,4.2-.13,3,3,0,0,1,.74,2.15v.74h-4.32a2.12,2.12,0,0,0,.51,1.45,1.77,1.77,0,0,0,1.36.51,5.17,5.17,0,0,0,1.07-.11,5.31,5.31,0,0,0,1.06-.36v1.12a4.53,4.53,0,0,1-1,.34A6,6,0,0,1,237.18,143.57Zm-.25-5.67a1.39,1.39,0,0,0-1.05.41,2,2,0,0,0-.47,1.22h2.94a1.82,1.82,0,0,0-.39-1.22A1.33,1.33,0,0,0,236.93,137.9Z"/><path class="cls-3" d="M243.68,142.46a3.55,3.55,0,0,0,1-.16v1a2.89,2.89,0,0,1-.59.16,3.67,3.67,0,0,1-.75.07c-1.3,0-2-.69-2-2.06V138h-.88v-.61l1-.51.47-1.37h.85V137h1.84V138h-1.84v3.46a1,1,0,0,0,.25.74A.88.88,0,0,0,243.68,142.46Z"/><path class="cls-3" d="M250.55,143.45l-.19-.85h-.07a1.91,1.91,0,0,1-.82.71,2.76,2.76,0,0,1-1.21.26,2.36,2.36,0,0,1-1.76-.59,2.45,2.45,0,0,1-.58-1.77V137h1.39v4a1.67,1.67,0,0,0,.31,1.11,1.15,1.15,0,0,0,.95.38,1.55,1.55,0,0,0,1.28-.52,2.9,2.9,0,0,0,.4-1.74V137h1.39v6.48Z"/><path class="cls-3" d="M256.43,143.57a3.1,3.1,0,0,1-2.36-.88,3.35,3.35,0,0,1-.86-2.43,3.73,3.73,0,0,1,.79-2.5,2.76,2.76,0,0,1,2.18-.9,2.72,2.72,0,0,1,2,.77,3,3,0,0,1,.74,2.15v.74h-4.32a2.12,2.12,0,0,0,.51,1.45,1.76,1.76,0,0,0,1.35.51,5.1,5.1,0,0,0,1.07-.11,5.39,5.39,0,0,0,1.07-.36v1.12a4.53,4.53,0,0,1-1,.34A6,6,0,0,1,256.43,143.57Zm-.25-5.67a1.39,1.39,0,0,0-1.05.41,2,2,0,0,0-.48,1.22h3a1.82,1.82,0,0,0-.39-1.22A1.33,1.33,0,0,0,256.18,137.9Z"/><path class="cls-3" d="M263.8,136.86a4.25,4.25,0,0,1,.69,0l-.14,1.29a2.43,2.43,0,0,0-.61-.07,1.78,1.78,0,0,0-1.34.54,2,2,0,0,0-.51,1.4v3.38h-1.38V137h1.08l.18,1.15h.07a2.58,2.58,0,0,1,.84-.92A2,2,0,0,1,263.8,136.86Z"/><path class="cls-3" d="M272.86,143.45l-.28-.9h0a2.74,2.74,0,0,1-1,.81,3,3,0,0,1-1.22.21,2,2,0,0,1-1.49-.52,1.94,1.94,0,0,1-.53-1.45,1.74,1.74,0,0,1,.74-1.52,4.29,4.29,0,0,1,2.27-.55l1.12,0v-.34a1.31,1.31,0,0,0-.29-.93,1.16,1.16,0,0,0-.9-.31,3.11,3.11,0,0,0-1,.15,6.54,6.54,0,0,0-.87.34l-.45-1a4.38,4.38,0,0,1,1.15-.42,5.13,5.13,0,0,1,1.19-.14,2.84,2.84,0,0,1,1.86.53,2.13,2.13,0,0,1,.63,1.7v4.36Zm-2.05-.93a1.69,1.69,0,0,0,1.2-.42,1.5,1.5,0,0,0,.46-1.18v-.56l-.84,0a2.94,2.94,0,0,0-1.41.33,1,1,0,0,0-.44.89.84.84,0,0,0,.26.67A1.08,1.08,0,0,0,270.81,142.52Z"/><path class="cls-3" d="M278,143.57a2.24,2.24,0,0,1-1.89-.88,4.81,4.81,0,0,1,0-4.95,2.27,2.27,0,0,1,1.9-.88,2.23,2.23,0,0,1,1.95.94H280a7.74,7.74,0,0,1-.1-1.1v-2.36h1.38v9.11H280.2l-.24-.85h-.07A2.19,2.19,0,0,1,278,143.57Zm.37-1.11a1.5,1.5,0,0,0,1.24-.48,2.6,2.6,0,0,0,.4-1.55v-.19a2.93,2.93,0,0,0-.4-1.74,1.48,1.48,0,0,0-1.25-.52,1.27,1.27,0,0,0-1.12.59,3,3,0,0,0-.39,1.68,2.88,2.88,0,0,0,.38,1.64A1.27,1.27,0,0,0,278.32,142.46Z"/><path class="cls-3" d="M283.16,135.26a.7.7,0,0,1,.78-.77.73.73,0,0,1,.56.2.85.85,0,0,1,0,1.12.77.77,0,0,1-.56.2.82.82,0,0,1-.58-.2A.77.77,0,0,1,283.16,135.26Zm1.46,8.19h-1.38V137h1.38Z"/><path class="cls-3" d="M289.87,143.57a2.27,2.27,0,0,1-1.91-.88h-.08c.06.54.08.87.08,1v2.66h-1.37V137h1.11c0,.12.1.41.19.87H288a2.16,2.16,0,0,1,1.94-1,2.26,2.26,0,0,1,1.89.87,4.88,4.88,0,0,1,0,5A2.3,2.3,0,0,1,289.87,143.57Zm-.33-5.59a1.43,1.43,0,0,0-1.2.48A2.5,2.5,0,0,0,288,140v.2a3.06,3.06,0,0,0,.38,1.72,1.4,1.4,0,0,0,1.22.53,1.26,1.26,0,0,0,1.11-.59,3.1,3.1,0,0,0,.38-1.67,3,3,0,0,0-.38-1.65A1.29,1.29,0,0,0,289.54,138Z"/><path class="cls-3" d="M294,135.26a.7.7,0,0,1,.78-.77.76.76,0,0,1,.57.2.88.88,0,0,1,0,1.12.81.81,0,0,1-.57.2.82.82,0,0,1-.58-.2A.77.77,0,0,1,294,135.26Zm1.46,8.19h-1.38V137h1.38Z"/><path class="cls-3" d="M301.76,141.61a1.68,1.68,0,0,1-.69,1.45,3.29,3.29,0,0,1-2,.51,4.73,4.73,0,0,1-2.08-.39V142a5.13,5.13,0,0,0,2.13.53c.85,0,1.27-.26,1.27-.77a.62.62,0,0,0-.14-.41,1.7,1.7,0,0,0-.46-.34,8.49,8.49,0,0,0-.9-.4,4,4,0,0,1-1.51-.87,1.57,1.57,0,0,1-.4-1.12,1.45,1.45,0,0,1,.67-1.29,3.18,3.18,0,0,1,1.83-.46,5.14,5.14,0,0,1,2.16.46l-.45,1a4.79,4.79,0,0,0-1.76-.44c-.73,0-1.09.21-1.09.62a.62.62,0,0,0,.28.52,6.79,6.79,0,0,0,1.24.58,5.77,5.77,0,0,1,1.17.57,1.76,1.76,0,0,1,.54.59A1.7,1.7,0,0,1,301.76,141.61Z"/><path class="cls-3" d="M305.87,143.57a2.84,2.84,0,0,1-2.24-.86,4.37,4.37,0,0,1,0-5,3,3,0,0,1,2.31-.87,4.21,4.21,0,0,1,1.84.38l-.41,1.1A4.41,4.41,0,0,0,306,138c-1.12,0-1.68.75-1.68,2.24a2.65,2.65,0,0,0,.42,1.63,1.44,1.44,0,0,0,1.23.55,3.49,3.49,0,0,0,1.74-.46v1.21a3.17,3.17,0,0,1-.79.31A4.91,4.91,0,0,1,305.87,143.57Z"/><path class="cls-3" d="M309.11,135.26a.7.7,0,0,1,.78-.77.76.76,0,0,1,.57.2.88.88,0,0,1,0,1.12.81.81,0,0,1-.57.2.82.82,0,0,1-.58-.2A.77.77,0,0,1,309.11,135.26Zm1.46,8.19h-1.38V137h1.38Z"/><path class="cls-3" d="M318.24,143.45h-1.38v-4a1.76,1.76,0,0,0-.3-1.12,1.17,1.17,0,0,0-1-.37,1.52,1.52,0,0,0-1.28.52,2.83,2.83,0,0,0-.4,1.72v3.23h-1.38V137h1.08l.19.85h.07a1.93,1.93,0,0,1,.83-.71,2.77,2.77,0,0,1,1.2-.25,2.08,2.08,0,0,1,2.33,2.37Z"/><path class="cls-3" d="M325.63,137v.76l-1.11.2a1.73,1.73,0,0,1,.25.51,1.89,1.89,0,0,1,.1.63,2,2,0,0,1-.69,1.58,2.89,2.89,0,0,1-1.9.57,2.52,2.52,0,0,1-.57-.05.79.79,0,0,0-.44.65.35.35,0,0,0,.21.33,1.7,1.7,0,0,0,.76.11h1.13a2.53,2.53,0,0,1,1.63.46,1.62,1.62,0,0,1,.56,1.32,1.92,1.92,0,0,1-.91,1.7,4.77,4.77,0,0,1-2.62.6,3.67,3.67,0,0,1-2-.47,1.53,1.53,0,0,1-.69-1.34,1.41,1.41,0,0,1,.37-1,2.05,2.05,0,0,1,1.06-.57,1,1,0,0,1-.45-.38.92.92,0,0,1-.18-.54,1,1,0,0,1,.2-.62,2.51,2.51,0,0,1,.61-.5,1.82,1.82,0,0,1-.81-.7,2.09,2.09,0,0,1-.32-1.15,2,2,0,0,1,.67-1.63,2.76,2.76,0,0,1,1.89-.58l.58,0,.45.08Zm-5.09,7.49a.75.75,0,0,0,.4.69,2.21,2.21,0,0,0,1.13.24,3.32,3.32,0,0,0,1.67-.33,1,1,0,0,0,.55-.85.64.64,0,0,0-.3-.6,2.39,2.39,0,0,0-1.12-.18h-1a1.42,1.42,0,0,0-.94.28A.88.88,0,0,0,320.54,144.46Zm.59-5.39a1.3,1.3,0,0,0,.31.94,1.19,1.19,0,0,0,.9.33c.8,0,1.2-.43,1.2-1.28a1.45,1.45,0,0,0-.3-1,1.36,1.36,0,0,0-1.8,0A1.42,1.42,0,0,0,321.13,139.07Z"/><path class="cls-3" d="M26.31,158a3.13,3.13,0,0,1-2.36-.88,3.35,3.35,0,0,1-.85-2.43,3.68,3.68,0,0,1,.79-2.5,2.74,2.74,0,0,1,2.17-.9,2.71,2.71,0,0,1,2,.77,3,3,0,0,1,.74,2.15v.74H24.52a2.12,2.12,0,0,0,.51,1.45,1.76,1.76,0,0,0,1.35.51,5.17,5.17,0,0,0,1.07-.11,5.31,5.31,0,0,0,1.06-.36v1.12a4.22,4.22,0,0,1-1,.34A5.9,5.9,0,0,1,26.31,158Zm-.25-5.67a1.39,1.39,0,0,0-1,.41,2,2,0,0,0-.47,1.22h2.94a1.82,1.82,0,0,0-.39-1.22A1.33,1.33,0,0,0,26.06,152.3Z"/><path class="cls-3" d="M31.78,157.85H30.4v-9.11h1.38Z"/><path class="cls-3" d="M33.66,149.66a.7.7,0,0,1,.78-.77.76.76,0,0,1,.57.2.88.88,0,0,1,0,1.12.81.81,0,0,1-.57.2.82.82,0,0,1-.58-.2A.77.77,0,0,1,33.66,149.66Zm1.46,8.19H33.74v-6.48h1.38Z"/><path class="cls-3" d="M39.5,156.86a3.49,3.49,0,0,0,1-.16v1a2.89,2.89,0,0,1-.59.16,3.64,3.64,0,0,1-.74.07c-1.31,0-2-.69-2-2.06v-3.49h-.89v-.61l1-.51.47-1.37h.85v1.44h1.85v1H38.6v3.46a1,1,0,0,0,.25.74A.9.9,0,0,0,39.5,156.86Z"/><path class="cls-3" d="M43.24,156.59a19.64,19.64,0,0,1-1,2.81h-1a28,28,0,0,0,.6-2.94h1.36Z"/><path class="cls-3" d="M52.48,156a1.68,1.68,0,0,1-.69,1.45,3.29,3.29,0,0,1-2,.51,4.7,4.7,0,0,1-2.08-.39v-1.19a5.13,5.13,0,0,0,2.13.53c.85,0,1.27-.26,1.27-.77a.62.62,0,0,0-.14-.41,1.88,1.88,0,0,0-.46-.34,8.49,8.49,0,0,0-.9-.4,4.2,4.2,0,0,1-1.52-.87,1.61,1.61,0,0,1-.39-1.12,1.45,1.45,0,0,1,.67-1.29,3.17,3.17,0,0,1,1.82-.46,5.15,5.15,0,0,1,2.17.46l-.45,1a4.84,4.84,0,0,0-1.76-.44c-.73,0-1.09.21-1.09.62a.62.62,0,0,0,.28.52,6.46,6.46,0,0,0,1.24.58,5.77,5.77,0,0,1,1.17.57,1.76,1.76,0,0,1,.54.59A1.83,1.83,0,0,1,52.48,156Z"/><path class="cls-3" d="M56.8,158a3.1,3.1,0,0,1-2.36-.88,3.35,3.35,0,0,1-.86-2.43,3.73,3.73,0,0,1,.79-2.5,2.76,2.76,0,0,1,2.18-.9,2.72,2.72,0,0,1,2,.77,3,3,0,0,1,.74,2.15v.74H55a2.12,2.12,0,0,0,.51,1.45,1.77,1.77,0,0,0,1.36.51,5.07,5.07,0,0,0,1.06-.11,5.39,5.39,0,0,0,1.07-.36v1.12a4.53,4.53,0,0,1-1,.34A6,6,0,0,1,56.8,158Zm-.25-5.67a1.39,1.39,0,0,0-1,.41,2,2,0,0,0-.47,1.22H58a1.82,1.82,0,0,0-.39-1.22A1.33,1.33,0,0,0,56.55,152.3Z"/><path class="cls-3" d="M63.07,158a2.24,2.24,0,0,1-1.89-.88,3.9,3.9,0,0,1-.68-2.47,4,4,0,0,1,.69-2.48,2.27,2.27,0,0,1,1.9-.88,2.23,2.23,0,0,1,2,.94h.07a7.74,7.74,0,0,1-.1-1.1v-2.36h1.38v9.11H65.31l-.24-.85H65A2.19,2.19,0,0,1,63.07,158Zm.37-1.11a1.5,1.5,0,0,0,1.24-.48,2.53,2.53,0,0,0,.39-1.55v-.19a2.94,2.94,0,0,0-.39-1.74,1.48,1.48,0,0,0-1.25-.52,1.27,1.27,0,0,0-1.12.59,3,3,0,0,0-.39,1.68,2.88,2.88,0,0,0,.38,1.64A1.27,1.27,0,0,0,63.44,156.86Z"/><path class="cls-3" d="M73.66,158a2.25,2.25,0,0,1-1.89-.88,4.81,4.81,0,0,1,0-5,2.27,2.27,0,0,1,1.91-.88,2.22,2.22,0,0,1,1.94.94h.07a9.58,9.58,0,0,1-.1-1.1v-2.36H77v9.11H75.91l-.24-.85H75.6A2.18,2.18,0,0,1,73.66,158Zm.37-1.11a1.5,1.5,0,0,0,1.24-.48,2.53,2.53,0,0,0,.4-1.55v-.19a2.86,2.86,0,0,0-.4-1.74,1.47,1.47,0,0,0-1.25-.52,1.28,1.28,0,0,0-1.12.59,3,3,0,0,0-.39,1.68,3,3,0,0,0,.38,1.64A1.28,1.28,0,0,0,74,156.86Z"/><path class="cls-3" d="M78.87,149.66a.71.71,0,0,1,.78-.77.76.76,0,0,1,.57.2.88.88,0,0,1,0,1.12.81.81,0,0,1-.57.2.77.77,0,0,1-.57-.2A.74.74,0,0,1,78.87,149.66Zm1.46,8.19H79v-6.48h1.37Z"/><path class="cls-3" d="M86.36,157.85l-.28-.9h0a2.63,2.63,0,0,1-.94.81,3,3,0,0,1-1.22.21,2,2,0,0,1-1.49-.52,1.91,1.91,0,0,1-.54-1.45,1.72,1.72,0,0,1,.75-1.52,4.26,4.26,0,0,1,2.27-.55l1.11,0v-.34a1.27,1.27,0,0,0-.29-.93,1.15,1.15,0,0,0-.89-.31,3,3,0,0,0-1,.15,6.67,6.67,0,0,0-.88.34l-.44-1a4.26,4.26,0,0,1,1.15-.42,5,5,0,0,1,1.18-.14,2.86,2.86,0,0,1,1.87.53,2.13,2.13,0,0,1,.63,1.7v4.36Zm-2.06-.93a1.71,1.71,0,0,0,1.21-.42,1.53,1.53,0,0,0,.45-1.18v-.56l-.83,0a2.91,2.91,0,0,0-1.41.33,1,1,0,0,0-.45.89.87.87,0,0,0,.26.67A1.09,1.09,0,0,0,84.3,156.92Z"/><path class="cls-3" d="M94.72,157.85H93.34v-4a1.78,1.78,0,0,0-.28-1.11,1,1,0,0,0-.88-.37,1.34,1.34,0,0,0-1.17.52,3,3,0,0,0-.37,1.72v3.23H89.26v-6.48h1.08l.19.85h.07a1.77,1.77,0,0,1,.79-.71,2.46,2.46,0,0,1,1.12-.25,2,2,0,0,1,2,1h.1a2,2,0,0,1,.81-.75,2.64,2.64,0,0,1,1.19-.26,2.16,2.16,0,0,1,1.69.58,2.57,2.57,0,0,1,.53,1.79v4.22H97.44v-4a1.78,1.78,0,0,0-.29-1.11,1,1,0,0,0-.88-.37,1.38,1.38,0,0,0-1.18.5,2.67,2.67,0,0,0-.37,1.54Z"/><path class="cls-3" d="M109.55,157.85h-1.38v-4a1.76,1.76,0,0,0-.3-1.12,1.15,1.15,0,0,0-1-.37,1.52,1.52,0,0,0-1.28.52,2.83,2.83,0,0,0-.4,1.72v3.23h-1.38v-6.48h1.08l.19.85h.07a2,2,0,0,1,.84-.71,2.7,2.7,0,0,1,1.19-.25,2.07,2.07,0,0,1,2.33,2.37Z"/><path class="cls-3" d="M117.22,154.6a3.5,3.5,0,0,1-.82,2.48,2.93,2.93,0,0,1-2.27.89,3.12,3.12,0,0,1-1.6-.41,2.67,2.67,0,0,1-1.07-1.18,4,4,0,0,1-.38-1.78,3.51,3.51,0,0,1,.81-2.46,2.93,2.93,0,0,1,2.28-.88,2.87,2.87,0,0,1,2.23.9A3.53,3.53,0,0,1,117.22,154.6Zm-4.72,0c0,1.5.55,2.25,1.66,2.25s1.64-.75,1.64-2.25-.55-2.22-1.65-2.22a1.42,1.42,0,0,0-1.26.57A3,3,0,0,0,112.5,154.6Z"/><path class="cls-3" d="M124.5,157.85h-1.38v-4a1.76,1.76,0,0,0-.3-1.12,1.18,1.18,0,0,0-1-.37,1.52,1.52,0,0,0-1.28.52,2.83,2.83,0,0,0-.4,1.72v3.23H118.8v-6.48h1.08l.19.85h.07a1.93,1.93,0,0,1,.83-.71,2.77,2.77,0,0,1,1.2-.25,2.08,2.08,0,0,1,2.33,2.37Z"/><path class="cls-3" d="M131,157.85l-.2-.85h-.07a1.94,1.94,0,0,1-.81.71,2.79,2.79,0,0,1-1.21.26,2.37,2.37,0,0,1-1.76-.59,2.4,2.4,0,0,1-.58-1.77v-4.24h1.39v4a1.73,1.73,0,0,0,.3,1.11,1.16,1.16,0,0,0,1,.38,1.54,1.54,0,0,0,1.27-.52,2.89,2.89,0,0,0,.41-1.74v-3.23h1.38v6.48Z"/><path class="cls-3" d="M139.49,157.85h-1.38v-4a1.78,1.78,0,0,0-.28-1.11,1,1,0,0,0-.88-.37,1.34,1.34,0,0,0-1.17.52,3,3,0,0,0-.37,1.72v3.23H134v-6.48h1.08l.19.85h.07a1.82,1.82,0,0,1,.79-.71,2.47,2.47,0,0,1,1.13-.25,2,2,0,0,1,2,1h.09a2,2,0,0,1,.81-.75,2.67,2.67,0,0,1,1.19-.26,2.16,2.16,0,0,1,1.69.58,2.57,2.57,0,0,1,.53,1.79v4.22h-1.37v-4a1.78,1.78,0,0,0-.29-1.11,1,1,0,0,0-.88-.37,1.36,1.36,0,0,0-1.17.5,2.59,2.59,0,0,0-.38,1.54Z"/><path class="cls-3" d="M151,157.85h-1.39v-4a1.78,1.78,0,0,0-.28-1.11,1,1,0,0,0-.88-.37,1.34,1.34,0,0,0-1.17.52,3.09,3.09,0,0,0-.37,1.72v3.23h-1.37v-6.48h1.07l.2.85h.07a1.79,1.79,0,0,1,.78-.71,2.5,2.5,0,0,1,1.13-.25,2,2,0,0,1,2,1h.09a2,2,0,0,1,.81-.75,2.71,2.71,0,0,1,1.2-.26,2.19,2.19,0,0,1,1.69.58,2.62,2.62,0,0,1,.53,1.79v4.22h-1.38v-4a1.85,1.85,0,0,0-.28-1.11,1,1,0,0,0-.89-.37,1.38,1.38,0,0,0-1.17.5,2.59,2.59,0,0,0-.37,1.54Z"/><path class="cls-3" d="M156,151.37h1.5l1.32,3.68a7.06,7.06,0,0,1,.4,1.47h0a6.14,6.14,0,0,1,.19-.78c.09-.31.59-1.76,1.49-4.37h1.49l-2.77,7.34a2.65,2.65,0,0,1-2.52,2,4.33,4.33,0,0,1-.89-.1v-1.09a3.63,3.63,0,0,0,.71.07,1.46,1.46,0,0,0,1.4-1.16l.24-.61Z"/><path class="cls-3" d="M172.23,157.85h-1.38v-4a1.76,1.76,0,0,0-.3-1.12,1.17,1.17,0,0,0-1-.37,1.52,1.52,0,0,0-1.28.52,2.83,2.83,0,0,0-.4,1.72v3.23h-1.38v-6.48h1.08l.19.85h.07a1.93,1.93,0,0,1,.83-.71,2.77,2.77,0,0,1,1.2-.25,2.08,2.08,0,0,1,2.33,2.37Z"/><path class="cls-3" d="M174.06,149.66a.71.71,0,0,1,.78-.77.75.75,0,0,1,.57.2.88.88,0,0,1,0,1.12.79.79,0,0,1-.57.2.77.77,0,0,1-.57-.2A.74.74,0,0,1,174.06,149.66Zm1.46,8.19h-1.37v-6.48h1.37Z"/><path class="cls-3" d="M180.8,151.26a2.26,2.26,0,0,1,1.89.87,4.81,4.81,0,0,1,0,5,2.49,2.49,0,0,1-3.81,0h-.09l-.26.76h-1v-9.11h1.38v2.16c0,.16,0,.4,0,.72s0,.52,0,.6h.06A2.19,2.19,0,0,1,180.8,151.26Zm-.35,1.12a1.38,1.38,0,0,0-1.2.49,2.82,2.82,0,0,0-.38,1.64v.09a3,3,0,0,0,.37,1.71,1.39,1.39,0,0,0,1.23.54,1.25,1.25,0,0,0,1.11-.58,3.12,3.12,0,0,0,.38-1.68C182,153.12,181.45,152.38,180.45,152.38Z"/><path class="cls-3" d="M190.67,157.85h-1.38v-4a1.76,1.76,0,0,0-.3-1.12,1.18,1.18,0,0,0-1-.37,1.52,1.52,0,0,0-1.28.52,2.86,2.86,0,0,0-.4,1.74v3.21H185v-9.11h1.38v2.31c0,.37,0,.77-.07,1.19h.08a2,2,0,0,1,.79-.73,2.51,2.51,0,0,1,1.16-.25,2.09,2.09,0,0,1,2.36,2.37Z"/><path class="cls-3" d="M198.53,158a3.13,3.13,0,0,1-2.36-.88,3.35,3.35,0,0,1-.85-2.43,3.68,3.68,0,0,1,.79-2.5,3.06,3.06,0,0,1,4.2-.13,3,3,0,0,1,.74,2.15v.74h-4.32a2.12,2.12,0,0,0,.51,1.45,1.79,1.79,0,0,0,1.36.51,5.17,5.17,0,0,0,1.07-.11,5.31,5.31,0,0,0,1.06-.36v1.12a4.53,4.53,0,0,1-1,.34A6,6,0,0,1,198.53,158Zm-.25-5.67a1.39,1.39,0,0,0-1.05.41,2,2,0,0,0-.47,1.22h2.94a1.82,1.82,0,0,0-.39-1.22A1.33,1.33,0,0,0,198.28,152.3Z"/><path class="cls-3" d="M207.19,157.85,207,157h-.07a1.94,1.94,0,0,1-.81.71,2.79,2.79,0,0,1-1.21.26,2.07,2.07,0,0,1-2.34-2.36v-4.24H204v4a1.73,1.73,0,0,0,.3,1.11,1.17,1.17,0,0,0,1,.38,1.52,1.52,0,0,0,1.27-.52,2.89,2.89,0,0,0,.41-1.74v-3.23h1.38v6.48Z"/><path class="cls-3" d="M210.15,149.66a.7.7,0,0,1,.78-.77.76.76,0,0,1,.57.2.88.88,0,0,1,0,1.12.81.81,0,0,1-.57.2.82.82,0,0,1-.58-.2A.77.77,0,0,1,210.15,149.66Zm1.46,8.19h-1.38v-6.48h1.38Z"/><path class="cls-3" d="M217.93,156a1.68,1.68,0,0,1-.69,1.45,3.29,3.29,0,0,1-2,.51,4.73,4.73,0,0,1-2.08-.39v-1.19a5.13,5.13,0,0,0,2.13.53c.85,0,1.27-.26,1.27-.77a.62.62,0,0,0-.14-.41,1.7,1.7,0,0,0-.46-.34,8.49,8.49,0,0,0-.9-.4,4,4,0,0,1-1.51-.87,1.57,1.57,0,0,1-.4-1.12,1.45,1.45,0,0,1,.67-1.29,3.18,3.18,0,0,1,1.83-.46,5.14,5.14,0,0,1,2.16.46l-.45,1a4.79,4.79,0,0,0-1.76-.44c-.73,0-1.09.21-1.09.62a.62.62,0,0,0,.28.52,6.79,6.79,0,0,0,1.24.58,5.77,5.77,0,0,1,1.17.57,1.76,1.76,0,0,1,.54.59A1.83,1.83,0,0,1,217.93,156Z"/><path class="cls-3" d="M224.88,157.85H223.5v-4a1.78,1.78,0,0,0-.28-1.11,1,1,0,0,0-.88-.37,1.34,1.34,0,0,0-1.17.52,3,3,0,0,0-.37,1.72v3.23h-1.38v-6.48h1.08l.19.85h.07a1.77,1.77,0,0,1,.79-.71,2.46,2.46,0,0,1,1.12-.25,2,2,0,0,1,2,1h.1a2,2,0,0,1,.81-.75,2.64,2.64,0,0,1,1.19-.26,2.16,2.16,0,0,1,1.69.58,2.57,2.57,0,0,1,.53,1.79v4.22H227.6v-4a1.78,1.78,0,0,0-.29-1.11,1,1,0,0,0-.88-.37,1.38,1.38,0,0,0-1.18.5,2.67,2.67,0,0,0-.37,1.54Z"/><path class="cls-3" d="M236.64,154.6a3.54,3.54,0,0,1-.81,2.48,2.93,2.93,0,0,1-2.27.89,3.12,3.12,0,0,1-1.6-.41,2.69,2.69,0,0,1-1.08-1.18,4,4,0,0,1-.37-1.78,3.51,3.51,0,0,1,.81-2.46,2.93,2.93,0,0,1,2.28-.88,2.85,2.85,0,0,1,2.22.9A3.48,3.48,0,0,1,236.64,154.6Zm-4.71,0q0,2.25,1.65,2.25c1.1,0,1.64-.75,1.64-2.25s-.55-2.22-1.65-2.22a1.4,1.4,0,0,0-1.25.57A3,3,0,0,0,231.93,154.6Z"/><path class="cls-3" d="M240.41,158a2.24,2.24,0,0,1-1.89-.88,3.9,3.9,0,0,1-.68-2.47,4,4,0,0,1,.69-2.48,2.27,2.27,0,0,1,1.9-.88,2.23,2.23,0,0,1,1.95.94h.07a7.74,7.74,0,0,1-.1-1.1v-2.36h1.38v9.11h-1.08l-.24-.85h-.06A2.19,2.19,0,0,1,240.41,158Zm.37-1.11a1.5,1.5,0,0,0,1.24-.48,2.53,2.53,0,0,0,.39-1.55v-.19a2.94,2.94,0,0,0-.39-1.74,1.48,1.48,0,0,0-1.25-.52,1.27,1.27,0,0,0-1.12.59,3,3,0,0,0-.39,1.68,2.88,2.88,0,0,0,.38,1.64A1.27,1.27,0,0,0,240.78,156.86Z"/><path class="cls-3" d="M251.23,156.86a3.55,3.55,0,0,0,1-.16v1a2.89,2.89,0,0,1-.59.16,3.67,3.67,0,0,1-.75.07c-1.3,0-2-.69-2-2.06v-3.49h-.89v-.61l.95-.51.47-1.37h.85v1.44h1.85v1h-1.85v3.46a1,1,0,0,0,.25.74A.9.9,0,0,0,251.23,156.86Z"/><path class="cls-3" d="M253.45,149.66a.71.71,0,0,1,.78-.77.76.76,0,0,1,.57.2.88.88,0,0,1,0,1.12.81.81,0,0,1-.57.2.77.77,0,0,1-.57-.2A.74.74,0,0,1,253.45,149.66Zm1.46,8.19h-1.37v-6.48h1.37Z"/><path class="cls-3" d="M262.58,157.85H261.2v-4a1.76,1.76,0,0,0-.3-1.12,1.15,1.15,0,0,0-1-.37,1.52,1.52,0,0,0-1.28.52,2.83,2.83,0,0,0-.4,1.72v3.23h-1.38v-6.48H258l.19.85h.07a2,2,0,0,1,.83-.71,2.77,2.77,0,0,1,1.2-.25,2.08,2.08,0,0,1,2.33,2.37Z"/><path class="cls-3" d="M267.11,158a2.83,2.83,0,0,1-2.23-.86,3.57,3.57,0,0,1-.77-2.46,3.65,3.65,0,0,1,.8-2.52,3,3,0,0,1,2.31-.87,4.25,4.25,0,0,1,1.85.38l-.42,1.1a4.31,4.31,0,0,0-1.44-.34c-1.12,0-1.68.75-1.68,2.24a2.65,2.65,0,0,0,.42,1.63,1.44,1.44,0,0,0,1.23.55,3.49,3.49,0,0,0,1.74-.46v1.21a3.17,3.17,0,0,1-.79.31A5,5,0,0,1,267.11,158Z"/><path class="cls-3" d="M270.36,149.66a.74.74,0,0,1,.2-.57.76.76,0,0,1,.58-.2.73.73,0,0,1,.56.2.88.88,0,0,1,0,1.12.77.77,0,0,1-.56.2.8.8,0,0,1-.58-.2A.73.73,0,0,1,270.36,149.66Zm1.46,8.19h-1.38v-6.48h1.38Z"/><path class="cls-3" d="M276,158a2.24,2.24,0,0,1-1.89-.88,3.9,3.9,0,0,1-.68-2.47,4,4,0,0,1,.69-2.48,2.27,2.27,0,0,1,1.9-.88,2.23,2.23,0,0,1,1.95.94H278a7.74,7.74,0,0,1-.1-1.1v-2.36h1.38v9.11h-1.08L278,157h-.06A2.19,2.19,0,0,1,276,158Zm.37-1.11a1.5,1.5,0,0,0,1.24-.48,2.53,2.53,0,0,0,.39-1.55v-.19a2.94,2.94,0,0,0-.39-1.74,1.48,1.48,0,0,0-1.25-.52,1.27,1.27,0,0,0-1.12.59,3,3,0,0,0-.39,1.68,2.88,2.88,0,0,0,.38,1.64A1.27,1.27,0,0,0,276.34,156.86Z"/><path class="cls-3" d="M285.83,157.85l-.19-.85h-.07a2,2,0,0,1-.82.71,2.76,2.76,0,0,1-1.21.26,2.4,2.4,0,0,1-1.76-.59,2.45,2.45,0,0,1-.58-1.77v-4.24h1.39v4a1.67,1.67,0,0,0,.31,1.11,1.15,1.15,0,0,0,1,.38,1.56,1.56,0,0,0,1.28-.52,2.9,2.9,0,0,0,.4-1.74v-3.23h1.39v6.48Z"/><path class="cls-3" d="M294.58,157.85H293.2v-4a1.76,1.76,0,0,0-.3-1.12,1.18,1.18,0,0,0-1-.37,1.52,1.52,0,0,0-1.28.52,2.83,2.83,0,0,0-.4,1.72v3.23h-1.38v-6.48H290l.19.85h.07a1.93,1.93,0,0,1,.83-.71,2.77,2.77,0,0,1,1.2-.25,2.08,2.08,0,0,1,2.33,2.37Z"/><path class="cls-3" d="M298.91,156.86a3.55,3.55,0,0,0,1-.16v1a2.89,2.89,0,0,1-.59.16,3.67,3.67,0,0,1-.75.07c-1.3,0-2-.69-2-2.06v-3.49h-.88v-.61l.95-.51.47-1.37H298v1.44h1.84v1H298v3.46a1,1,0,0,0,.25.74A.88.88,0,0,0,298.91,156.86Z"/><path class="cls-3" d="M308.9,157.85l-.19-.85h-.07a2,2,0,0,1-.82.71,2.76,2.76,0,0,1-1.21.26,2.07,2.07,0,0,1-2.34-2.36v-4.24h1.39v4a1.73,1.73,0,0,0,.3,1.11,1.19,1.19,0,0,0,1,.38,1.52,1.52,0,0,0,1.27-.52,2.82,2.82,0,0,0,.41-1.74v-3.23H310v6.48Z"/><path class="cls-3" d="M314.36,156.86a3.55,3.55,0,0,0,1-.16v1a2.89,2.89,0,0,1-.59.16,3.67,3.67,0,0,1-.75.07c-1.3,0-1.95-.69-1.95-2.06v-3.49h-.89v-.61l.95-.51.47-1.37h.85v1.44h1.84v1h-1.84v3.46a1,1,0,0,0,.25.74A.88.88,0,0,0,314.36,156.86Z"/><path class="cls-3" d="M24.86,172.25H23.48v-9.11h1.38Z"/><path class="cls-3" d="M30.88,172.25l-.27-.9h-.05a2.63,2.63,0,0,1-.94.81,3,3,0,0,1-1.22.21,2,2,0,0,1-1.49-.52,1.91,1.91,0,0,1-.54-1.45,1.72,1.72,0,0,1,.75-1.52,4.25,4.25,0,0,1,2.26-.55l1.12,0V168a1.27,1.27,0,0,0-.29-.93,1.16,1.16,0,0,0-.9-.31,3,3,0,0,0-.95.15,6.17,6.17,0,0,0-.88.34l-.44-1a4.26,4.26,0,0,1,1.15-.42,5,5,0,0,1,1.18-.14,2.8,2.8,0,0,1,1.87.53,2.13,2.13,0,0,1,.63,1.7v4.36Zm-2.05-.93A1.71,1.71,0,0,0,30,170.9a1.53,1.53,0,0,0,.45-1.18v-.56l-.83,0a2.91,2.91,0,0,0-1.41.33,1,1,0,0,0-.45.89.87.87,0,0,0,.26.67A1.09,1.09,0,0,0,28.83,171.32Z"/><path class="cls-3" d="M39.54,169a3.5,3.5,0,0,1-.82,2.48,2.91,2.91,0,0,1-2.26.89,3.16,3.16,0,0,1-1.61-.41,2.73,2.73,0,0,1-1.07-1.18A4,4,0,0,1,33.4,169a3.51,3.51,0,0,1,.81-2.46,2.93,2.93,0,0,1,2.28-.88,2.87,2.87,0,0,1,2.23.9A3.48,3.48,0,0,1,39.54,169Zm-4.72,0c0,1.5.55,2.25,1.66,2.25s1.64-.75,1.64-2.25-.55-2.22-1.65-2.22a1.42,1.42,0,0,0-1.26.57A3,3,0,0,0,34.82,169Z"/><path class="cls-3" d="M44.41,165.66a3.25,3.25,0,0,1,.68.05L45,167a2.48,2.48,0,0,0-.61-.07,1.76,1.76,0,0,0-1.34.54,2,2,0,0,0-.51,1.4v3.38H41.12v-6.48H42.2l.18,1.15h.07a2.58,2.58,0,0,1,.84-.92A2,2,0,0,1,44.41,165.66Z"/><path class="cls-3" d="M49.12,172.37a3.13,3.13,0,0,1-2.36-.88,3.35,3.35,0,0,1-.85-2.43,3.68,3.68,0,0,1,.79-2.5,2.74,2.74,0,0,1,2.17-.9,2.71,2.71,0,0,1,2,.77,3,3,0,0,1,.74,2.15v.74H47.33a2.12,2.12,0,0,0,.51,1.45,1.76,1.76,0,0,0,1.35.51,5.17,5.17,0,0,0,1.07-.11,5.31,5.31,0,0,0,1.06-.36v1.12a4.22,4.22,0,0,1-1,.34A5.9,5.9,0,0,1,49.12,172.37Zm-.25-5.67a1.41,1.41,0,0,0-1,.41,2,2,0,0,0-.47,1.22h2.94a1.82,1.82,0,0,0-.39-1.22A1.33,1.33,0,0,0,48.87,166.7Z"/><path class="cls-3" d="M56,172.37a3.14,3.14,0,0,1-2.37-.88,3.39,3.39,0,0,1-.85-2.43,3.73,3.73,0,0,1,.79-2.5,2.76,2.76,0,0,1,2.18-.9,2.68,2.68,0,0,1,2,.77,3,3,0,0,1,.75,2.15v.74H54.24a2.12,2.12,0,0,0,.51,1.45,1.76,1.76,0,0,0,1.35.51,5.1,5.1,0,0,0,1.07-.11,5.39,5.39,0,0,0,1.07-.36v1.12a4.53,4.53,0,0,1-1,.34A6,6,0,0,1,56,172.37Zm-.25-5.67a1.39,1.39,0,0,0-1,.41,2,2,0,0,0-.48,1.22h3a1.82,1.82,0,0,0-.39-1.22A1.35,1.35,0,0,0,55.79,166.7Z"/><path class="cls-3" d="M62.54,171.26a3.48,3.48,0,0,0,1-.16v1a2.77,2.77,0,0,1-.58.16,3.67,3.67,0,0,1-.75.07c-1.31,0-2-.69-2-2.06v-3.49h-.88v-.61l1-.51.47-1.37h.84v1.44h1.85v1H61.63v3.46a1,1,0,0,0,.25.74A.92.92,0,0,0,62.54,171.26Z"/><path class="cls-3" d="M70.14,172.37a2.24,2.24,0,0,1-1.89-.88,4.81,4.81,0,0,1,0-5,2.27,2.27,0,0,1,1.91-.88,2.22,2.22,0,0,1,1.94.94h.07a9.58,9.58,0,0,1-.1-1.1v-2.36h1.38v9.11H72.39l-.24-.85h-.07A2.19,2.19,0,0,1,70.14,172.37Zm.37-1.11a1.5,1.5,0,0,0,1.24-.48,2.53,2.53,0,0,0,.4-1.55V169a2.93,2.93,0,0,0-.4-1.74,1.47,1.47,0,0,0-1.25-.52,1.28,1.28,0,0,0-1.12.59,3,3,0,0,0-.39,1.68,3,3,0,0,0,.38,1.64A1.27,1.27,0,0,0,70.51,171.26Z"/><path class="cls-3" d="M81.18,169a3.54,3.54,0,0,1-.81,2.48,2.94,2.94,0,0,1-2.27.89,3.16,3.16,0,0,1-1.61-.41,2.73,2.73,0,0,1-1.07-1.18,4,4,0,0,1-.37-1.78,3.51,3.51,0,0,1,.81-2.46,3.29,3.29,0,0,1,4.5,0A3.48,3.48,0,0,1,81.18,169Zm-4.72,0c0,1.5.56,2.25,1.66,2.25s1.64-.75,1.64-2.25-.55-2.22-1.65-2.22a1.42,1.42,0,0,0-1.26.57A3,3,0,0,0,76.46,169Z"/><path class="cls-3" d="M84.14,172.25H82.76v-9.11h1.38Z"/><path class="cls-3" d="M91.86,169a3.5,3.5,0,0,1-.82,2.48,2.92,2.92,0,0,1-2.26.89,3.13,3.13,0,0,1-1.61-.41,2.73,2.73,0,0,1-1.07-1.18,4,4,0,0,1-.38-1.78,3.51,3.51,0,0,1,.81-2.46,2.93,2.93,0,0,1,2.28-.88,2.87,2.87,0,0,1,2.23.9A3.53,3.53,0,0,1,91.86,169Zm-4.72,0c0,1.5.55,2.25,1.66,2.25s1.64-.75,1.64-2.25-.55-2.22-1.65-2.22a1.42,1.42,0,0,0-1.26.57A3,3,0,0,0,87.14,169Z"/><path class="cls-3" d="M96.73,165.66a3.31,3.31,0,0,1,.68.05L97.28,167a2.48,2.48,0,0,0-.61-.07,1.76,1.76,0,0,0-1.34.54,2,2,0,0,0-.51,1.4v3.38H93.44v-6.48h1.08l.18,1.15h.07a2.41,2.41,0,0,1,.84-.92A2,2,0,0,1,96.73,165.66Z"/><path class="cls-3" d="M101.44,172.37a3.13,3.13,0,0,1-2.36-.88,3.35,3.35,0,0,1-.85-2.43,3.68,3.68,0,0,1,.79-2.5,3.06,3.06,0,0,1,4.2-.13,3,3,0,0,1,.74,2.15v.74H99.64a2.12,2.12,0,0,0,.51,1.45,1.79,1.79,0,0,0,1.36.51,5.17,5.17,0,0,0,1.07-.11,5.31,5.31,0,0,0,1.06-.36v1.12a4.53,4.53,0,0,1-1,.34A6,6,0,0,1,101.44,172.37Zm-.25-5.67a1.39,1.39,0,0,0-1,.41,2,2,0,0,0-.47,1.22h2.94a1.82,1.82,0,0,0-.39-1.22A1.33,1.33,0,0,0,101.19,166.7Z"/><path class="cls-3" d="M114.11,172.25h-1.39v-4a1.78,1.78,0,0,0-.28-1.11,1,1,0,0,0-.88-.37,1.34,1.34,0,0,0-1.17.52A3.09,3.09,0,0,0,110,169v3.23h-1.38v-6.48h1.08l.2.85H110a1.79,1.79,0,0,1,.78-.71,2.5,2.5,0,0,1,1.13-.25,2,2,0,0,1,2,1H114a2,2,0,0,1,.81-.75,2.7,2.7,0,0,1,1.19-.26,2.2,2.2,0,0,1,1.7.58,2.62,2.62,0,0,1,.53,1.79v4.22h-1.38v-4a1.78,1.78,0,0,0-.29-1.11,1,1,0,0,0-.88-.37,1.38,1.38,0,0,0-1.17.5,2.59,2.59,0,0,0-.37,1.54Z"/><path class="cls-3" d="M124.17,172.25l-.27-.9h-.05a2.72,2.72,0,0,1-.94.81,3.07,3.07,0,0,1-1.22.21,2,2,0,0,1-1.49-.52,1.91,1.91,0,0,1-.54-1.45,1.74,1.74,0,0,1,.74-1.52,4.32,4.32,0,0,1,2.27-.55l1.12,0V168a1.31,1.31,0,0,0-.29-.93,1.16,1.16,0,0,0-.9-.31,3,3,0,0,0-.95.15,6.17,6.17,0,0,0-.88.34l-.45-1a4.33,4.33,0,0,1,1.16-.42,5,5,0,0,1,1.18-.14,2.82,2.82,0,0,1,1.87.53,2.13,2.13,0,0,1,.63,1.7v4.36Zm-2-.93a1.73,1.73,0,0,0,1.21-.42,1.53,1.53,0,0,0,.45-1.18v-.56l-.83,0a3,3,0,0,0-1.42.33,1,1,0,0,0-.44.89.87.87,0,0,0,.26.67A1.09,1.09,0,0,0,122.12,171.32Z"/><path class="cls-3" d="M132.55,165.77v.76l-1.11.2a2,2,0,0,1,.26.51,2.18,2.18,0,0,1,.09.63,2,2,0,0,1-.69,1.58,2.89,2.89,0,0,1-1.9.57,3.06,3.06,0,0,1-.56-.05.79.79,0,0,0-.45.65.35.35,0,0,0,.21.33,1.7,1.7,0,0,0,.76.11h1.13a2.53,2.53,0,0,1,1.63.46,1.62,1.62,0,0,1,.56,1.32,1.92,1.92,0,0,1-.91,1.7,4.75,4.75,0,0,1-2.62.6,3.61,3.61,0,0,1-2-.47,1.52,1.52,0,0,1-.7-1.34,1.37,1.37,0,0,1,.38-1,2,2,0,0,1,1-.57,1,1,0,0,1-.45-.38,1,1,0,0,1,0-1.16,2.33,2.33,0,0,1,.61-.5,1.79,1.79,0,0,1-.82-.7,2.09,2.09,0,0,1-.32-1.15,2.05,2.05,0,0,1,.67-1.63,2.79,2.79,0,0,1,1.9-.58l.57,0,.46.08Zm-5.09,7.49a.75.75,0,0,0,.4.69,2.21,2.21,0,0,0,1.13.24,3.3,3.3,0,0,0,1.67-.33,1,1,0,0,0,.55-.85.64.64,0,0,0-.3-.6,2.39,2.39,0,0,0-1.12-.18h-1a1.42,1.42,0,0,0-.94.28A.9.9,0,0,0,127.46,173.26Zm.59-5.39a1.35,1.35,0,0,0,.31.94,1.19,1.19,0,0,0,.9.33c.8,0,1.2-.43,1.2-1.28a1.45,1.45,0,0,0-.3-1,1.1,1.1,0,0,0-.9-.34,1.14,1.14,0,0,0-.9.34A1.42,1.42,0,0,0,128.05,167.87Z"/><path class="cls-3" d="M139.45,172.25h-1.38v-4a1.76,1.76,0,0,0-.3-1.12,1.15,1.15,0,0,0-1-.37,1.52,1.52,0,0,0-1.28.52,2.83,2.83,0,0,0-.4,1.72v3.23h-1.38v-6.48h1.08l.19.85h.07a2,2,0,0,1,.84-.71,2.73,2.73,0,0,1,1.19-.25,2.07,2.07,0,0,1,2.33,2.37Z"/><path class="cls-3" d="M145.42,172.25l-.27-.9h-.05a2.72,2.72,0,0,1-.94.81,3,3,0,0,1-1.22.21,2,2,0,0,1-1.49-.52,1.91,1.91,0,0,1-.54-1.45,1.72,1.72,0,0,1,.75-1.52,4.25,4.25,0,0,1,2.26-.55l1.12,0V168a1.27,1.27,0,0,0-.29-.93,1.16,1.16,0,0,0-.9-.31,3,3,0,0,0-.95.15,6.17,6.17,0,0,0-.88.34l-.45-1a4.45,4.45,0,0,1,1.16-.42,5,5,0,0,1,1.18-.14,2.8,2.8,0,0,1,1.87.53,2.13,2.13,0,0,1,.63,1.7v4.36Zm-2-.93a1.73,1.73,0,0,0,1.21-.42,1.53,1.53,0,0,0,.45-1.18v-.56l-.83,0a3,3,0,0,0-1.42.33,1,1,0,0,0-.44.89.87.87,0,0,0,.26.67A1.09,1.09,0,0,0,143.37,171.32Z"/><path class="cls-3" d="M155.5,172.25l-.27-.9h0a2.72,2.72,0,0,1-.94.81,3.07,3.07,0,0,1-1.22.21,2,2,0,0,1-1.49-.52,1.91,1.91,0,0,1-.54-1.45,1.74,1.74,0,0,1,.74-1.52,4.32,4.32,0,0,1,2.27-.55l1.12,0V168a1.31,1.31,0,0,0-.29-.93,1.16,1.16,0,0,0-.9-.31,3,3,0,0,0-1,.15,6.17,6.17,0,0,0-.88.34l-.45-1a4.33,4.33,0,0,1,1.16-.42,5,5,0,0,1,1.18-.14,2.82,2.82,0,0,1,1.87.53,2.13,2.13,0,0,1,.63,1.7v4.36Zm-2.05-.93a1.73,1.73,0,0,0,1.21-.42,1.53,1.53,0,0,0,.45-1.18v-.56l-.83,0a3,3,0,0,0-1.42.33,1,1,0,0,0-.44.89.87.87,0,0,0,.26.67A1.09,1.09,0,0,0,153.45,171.32Z"/><path class="cls-3" d="M159.79,172.25h-1.38v-9.11h1.38Z"/><path class="cls-3" d="M161.67,164.06a.7.7,0,0,1,.78-.77.76.76,0,0,1,.57.2.88.88,0,0,1,0,1.12.81.81,0,0,1-.57.2.82.82,0,0,1-.58-.2A.77.77,0,0,1,161.67,164.06Zm1.46,8.19h-1.38v-6.48h1.38Z"/><path class="cls-3" d="M167.27,172.37a2.24,2.24,0,0,1-1.88-.88,4,4,0,0,1-.68-2.47,3.94,3.94,0,0,1,.69-2.47,2.28,2.28,0,0,1,1.91-.89,2.56,2.56,0,0,1,1.09.22,2.4,2.4,0,0,1,.87.74h0l.15-.85h1.15v9.37h-1.39v-2.75a5.36,5.36,0,0,1,0-.55c0-.19,0-.34,0-.44h-.08A2.1,2.1,0,0,1,167.27,172.37Zm.4-1.1a1.47,1.47,0,0,0,1.24-.5,2.54,2.54,0,0,0,.38-1.52V169a3,3,0,0,0-.39-1.73,1.47,1.47,0,0,0-1.26-.53,1.27,1.27,0,0,0-1.12.59,3,3,0,0,0-.39,1.68C166.13,170.53,166.64,171.27,167.67,171.27Z"/><path class="cls-3" d="M177.15,172.25l-.2-.85h-.07a1.94,1.94,0,0,1-.81.71,2.79,2.79,0,0,1-1.21.26,2.37,2.37,0,0,1-1.76-.59,2.4,2.4,0,0,1-.58-1.77v-4.24h1.39v4a1.73,1.73,0,0,0,.3,1.11,1.16,1.16,0,0,0,1,.38,1.54,1.54,0,0,0,1.27-.52,2.89,2.89,0,0,0,.41-1.74v-3.23h1.38v6.48Z"/><path class="cls-3" d="M184.25,172.25l-.28-.9h0a2.74,2.74,0,0,1-1,.81,3,3,0,0,1-1.22.21,2,2,0,0,1-1.49-.52,1.94,1.94,0,0,1-.53-1.45,1.71,1.71,0,0,1,.74-1.52,4.29,4.29,0,0,1,2.27-.55l1.12,0V168a1.31,1.31,0,0,0-.29-.93,1.19,1.19,0,0,0-.9-.31,3.11,3.11,0,0,0-1,.15,6.67,6.67,0,0,0-.88.34l-.44-1a4.26,4.26,0,0,1,1.15-.42,5.13,5.13,0,0,1,1.19-.14,2.79,2.79,0,0,1,1.86.53,2.13,2.13,0,0,1,.63,1.7v4.36Zm-2.05-.93a1.69,1.69,0,0,0,1.2-.42,1.54,1.54,0,0,0,.46-1.18v-.56l-.84,0a2.91,2.91,0,0,0-1.41.33,1,1,0,0,0-.44.89.87.87,0,0,0,.25.67A1.12,1.12,0,0,0,182.2,171.32Z"/><path class="cls-3" d="M192.62,172.25h-1.39v-4a1.78,1.78,0,0,0-.28-1.11,1,1,0,0,0-.88-.37,1.34,1.34,0,0,0-1.17.52,3.09,3.09,0,0,0-.37,1.72v3.23h-1.38v-6.48h1.08l.2.85h.07a1.79,1.79,0,0,1,.78-.71,2.5,2.5,0,0,1,1.13-.25,2,2,0,0,1,2,1h.09a2,2,0,0,1,.81-.75,2.7,2.7,0,0,1,1.19-.26,2.16,2.16,0,0,1,1.69.58,2.57,2.57,0,0,1,.54,1.79v4.22h-1.38v-4a1.78,1.78,0,0,0-.29-1.11,1,1,0,0,0-.88-.37,1.38,1.38,0,0,0-1.17.5,2.59,2.59,0,0,0-.37,1.54Z"/><path class="cls-3" d="M204.57,172.37a3.13,3.13,0,0,1-2.36-.88,3.35,3.35,0,0,1-.85-2.43,3.68,3.68,0,0,1,.79-2.5,2.74,2.74,0,0,1,2.17-.9,2.71,2.71,0,0,1,2,.77,3,3,0,0,1,.74,2.15v.74h-4.31a2,2,0,0,0,.51,1.45,1.76,1.76,0,0,0,1.35.51,5.17,5.17,0,0,0,1.07-.11,5.31,5.31,0,0,0,1.06-.36v1.12a4.22,4.22,0,0,1-1,.34A5.9,5.9,0,0,1,204.57,172.37Zm-.25-5.67a1.39,1.39,0,0,0-1,.41,2,2,0,0,0-.47,1.22h2.94a1.82,1.82,0,0,0-.39-1.22A1.33,1.33,0,0,0,204.32,166.7Z"/><path class="cls-3" d="M212,165.66a3.31,3.31,0,0,1,.68.05L212.5,167a2.48,2.48,0,0,0-.61-.07,1.76,1.76,0,0,0-1.34.54,2,2,0,0,0-.51,1.4v3.38h-1.38v-6.48h1.08l.18,1.15H210a2.41,2.41,0,0,1,.84-.92A2,2,0,0,1,212,165.66Z"/><path class="cls-3" d="M217.89,172.25l-.28-.9h-.05a2.63,2.63,0,0,1-.94.81,3,3,0,0,1-1.22.21,2,2,0,0,1-1.49-.52,1.91,1.91,0,0,1-.54-1.45,1.72,1.72,0,0,1,.75-1.52,4.29,4.29,0,0,1,2.27-.55l1.12,0V168a1.31,1.31,0,0,0-.29-.93,1.19,1.19,0,0,0-.9-.31,3.06,3.06,0,0,0-1,.15,6.67,6.67,0,0,0-.88.34l-.44-1a4.26,4.26,0,0,1,1.15-.42,5,5,0,0,1,1.18-.14,2.8,2.8,0,0,1,1.87.53,2.13,2.13,0,0,1,.63,1.7v4.36Zm-2-.93a1.69,1.69,0,0,0,1.2-.42,1.53,1.53,0,0,0,.45-1.18v-.56l-.83,0a2.91,2.91,0,0,0-1.41.33,1,1,0,0,0-.45.89.87.87,0,0,0,.26.67A1.1,1.1,0,0,0,215.84,171.32Z"/><path class="cls-3" d="M223.21,171.26a3.48,3.48,0,0,0,1-.16v1a2.77,2.77,0,0,1-.58.16,3.67,3.67,0,0,1-.75.07c-1.31,0-2-.69-2-2.06v-3.49H220v-.61l1-.51.47-1.37h.84v1.44h1.85v1H222.3v3.46a1,1,0,0,0,.25.74A.92.92,0,0,0,223.21,171.26Z"/><path class="cls-3" d="M230.1,172.25l-2.46-6.48h1.46l1.31,3.77a6.72,6.72,0,0,1,.41,1.54h.05a10.37,10.37,0,0,1,.41-1.54l1.32-3.77h1.46l-2.47,6.48Z"/><path class="cls-3" d="M240.8,169a3.5,3.5,0,0,1-.82,2.48,2.93,2.93,0,0,1-2.27.89,3.12,3.12,0,0,1-1.6-.41,2.67,2.67,0,0,1-1.07-1.18,4,4,0,0,1-.38-1.78,3.51,3.51,0,0,1,.81-2.46,2.93,2.93,0,0,1,2.28-.88,2.87,2.87,0,0,1,2.23.9A3.53,3.53,0,0,1,240.8,169Zm-4.72,0c0,1.5.55,2.25,1.66,2.25s1.64-.75,1.64-2.25-.55-2.22-1.65-2.22a1.42,1.42,0,0,0-1.26.57A3,3,0,0,0,236.08,169Z"/><path class="cls-3" d="M243.76,172.25h-1.38v-9.11h1.38Z"/><path class="cls-3" d="M250.29,172.25l-.19-.85H250a1.91,1.91,0,0,1-.82.71,2.73,2.73,0,0,1-1.21.26,2.36,2.36,0,0,1-1.75-.59,2.4,2.4,0,0,1-.58-1.77v-4.24h1.38v4a1.73,1.73,0,0,0,.31,1.11,1.15,1.15,0,0,0,.95.38,1.55,1.55,0,0,0,1.28-.52A2.89,2.89,0,0,0,250,169v-3.23h1.38v6.48Z"/><path class="cls-3" d="M255.76,171.26a3.48,3.48,0,0,0,1-.16v1a2.71,2.71,0,0,1-.59.16,3.57,3.57,0,0,1-.74.07c-1.31,0-2-.69-2-2.06v-3.49h-.88v-.61l.95-.51.46-1.37h.85v1.44h1.85v1h-1.85v3.46a1,1,0,0,0,.25.74A.92.92,0,0,0,255.76,171.26Z"/><path class="cls-3" d="M261.35,172.37a2.26,2.26,0,0,1-1.91-.88h-.09q.09.81.09,1v2.66h-1.38v-9.37h1.11c0,.12.1.41.2.87h.07a2.14,2.14,0,0,1,1.93-1,2.26,2.26,0,0,1,1.89.87,4.81,4.81,0,0,1,0,4.95A2.29,2.29,0,0,1,261.35,172.37Zm-.34-5.59a1.44,1.44,0,0,0-1.2.48,2.51,2.51,0,0,0-.37,1.54v.2a3,3,0,0,0,.37,1.71,1.39,1.39,0,0,0,1.23.54,1.26,1.26,0,0,0,1.1-.59,3.1,3.1,0,0,0,.38-1.67,2.88,2.88,0,0,0-.38-1.65A1.29,1.29,0,0,0,261,166.78Z"/><path class="cls-3" d="M269.59,172.25l-.28-.9h0a2.66,2.66,0,0,1-.95.81,3,3,0,0,1-1.21.21,2.06,2.06,0,0,1-1.5-.52,1.94,1.94,0,0,1-.53-1.45,1.74,1.74,0,0,1,.74-1.52,4.29,4.29,0,0,1,2.27-.55l1.12,0V168a1.31,1.31,0,0,0-.29-.93,1.16,1.16,0,0,0-.9-.31,3.11,3.11,0,0,0-1,.15,6.54,6.54,0,0,0-.87.34l-.45-1a4.38,4.38,0,0,1,1.15-.42,5.13,5.13,0,0,1,1.19-.14,2.79,2.79,0,0,1,1.86.53,2.13,2.13,0,0,1,.63,1.7v4.36Zm-2-.93a1.69,1.69,0,0,0,1.2-.42,1.5,1.5,0,0,0,.46-1.18v-.56l-.83,0a3,3,0,0,0-1.42.33,1,1,0,0,0-.44.89.84.84,0,0,0,.26.67A1.09,1.09,0,0,0,267.54,171.32Z"/><path class="cls-3" d="M274.91,171.26a3.55,3.55,0,0,0,1-.16v1a2.89,2.89,0,0,1-.59.16,3.67,3.67,0,0,1-.75.07c-1.3,0-2-.69-2-2.06v-3.49h-.88v-.61l.95-.51.47-1.37H274v1.44h1.84v1H274v3.46a1,1,0,0,0,.25.74A.88.88,0,0,0,274.91,171.26Z"/><path class="cls-3" d="M277,171.52a.92.92,0,0,1,.22-.66,1.05,1.05,0,0,1,1.3,0,1,1,0,0,1,.22.65.93.93,0,0,1-.23.66.84.84,0,0,1-.65.24.83.83,0,0,1-.64-.24A.92.92,0,0,1,277,171.52Z"/><path class="cls-3" d="M290.49,163.69v5.54a3.29,3.29,0,0,1-.41,1.66,2.71,2.71,0,0,1-1.17,1.1,4.21,4.21,0,0,1-1.85.38,3.46,3.46,0,0,1-2.48-.84,3.07,3.07,0,0,1-.88-2.32v-5.52h1.41v5.42a2.16,2.16,0,0,0,.49,1.56,2,2,0,0,0,1.51.5c1.32,0,2-.69,2-2.08v-5.4Z"/><path class="cls-3" d="M295,171.26a3.55,3.55,0,0,0,1-.16v1a3.08,3.08,0,0,1-.59.16,3.67,3.67,0,0,1-.75.07c-1.3,0-2-.69-2-2.06v-3.49h-.88v-.61l1-.51.47-1.37h.85v1.44h1.84v1h-1.84v3.46a1,1,0,0,0,.25.74A.88.88,0,0,0,295,171.26Z"/><path class="cls-3" d="M305.68,172.25l-.83-3c-.11-.32-.29-1.06-.56-2.23h-.05c-.22,1.05-.4,1.8-.54,2.24l-.86,3h-1.52l-1.82-6.48h1.41l.82,3.2c.19.78.32,1.46.4,2h0c0-.28.1-.61.18-1s.15-.64.2-.83l1-3.41h1.51l1,3.41c.05.19.13.49.22.88a7.06,7.06,0,0,1,.15.92h.05a17,17,0,0,1,.41-2l.84-3.2h1.38l-1.83,6.48Z"/><path class="cls-3" d="M310.09,164.06a.7.7,0,0,1,.78-.77.73.73,0,0,1,.56.2.85.85,0,0,1,0,1.12.77.77,0,0,1-.56.2.82.82,0,0,1-.58-.2A.77.77,0,0,1,310.09,164.06Zm1.46,8.19h-1.38v-6.48h1.38Z"/><path class="cls-3" d="M317.87,170.41a1.68,1.68,0,0,1-.69,1.45,3.29,3.29,0,0,1-2,.51,4.7,4.7,0,0,1-2.08-.39v-1.19a5.13,5.13,0,0,0,2.13.53c.84,0,1.27-.26,1.27-.77a.62.62,0,0,0-.14-.41,1.78,1.78,0,0,0-.47-.34,7.38,7.38,0,0,0-.89-.4,4.2,4.2,0,0,1-1.52-.87,1.61,1.61,0,0,1-.39-1.12,1.45,1.45,0,0,1,.67-1.29,3.14,3.14,0,0,1,1.82-.46,5.15,5.15,0,0,1,2.17.46l-.45,1a4.84,4.84,0,0,0-1.76-.44c-.73,0-1.09.21-1.09.62a.62.62,0,0,0,.28.52,6.46,6.46,0,0,0,1.24.58,5.52,5.52,0,0,1,1.17.57,1.76,1.76,0,0,1,.54.59A1.83,1.83,0,0,1,317.87,170.41Z"/><path class="cls-3" d="M319.28,164.06a.74.74,0,0,1,.2-.57.76.76,0,0,1,.58-.2.73.73,0,0,1,.56.2.88.88,0,0,1,0,1.12.77.77,0,0,1-.56.2.8.8,0,0,1-.58-.2A.73.73,0,0,1,319.28,164.06Zm1.46,8.19h-1.38v-6.48h1.38Z"/><path class="cls-3" d="M30.93,100.83l-.83-2.72H25.94l-.83,2.72H22.5l4-11.47h3l4.05,11.47Zm-1.41-4.75L28.23,91.9c-.1-.33-.16-.58-.21-.77q-.25,1-1.47,5Z"/><path class="cls-3" d="M35,89.4h3.55a6.75,6.75,0,0,1,3.53.7,2.4,2.4,0,0,1,1.1,2.19A2.74,2.74,0,0,1,42.68,94a1.89,1.89,0,0,1-1.28.79v.08a2.52,2.52,0,0,1,1.56.91,2.87,2.87,0,0,1,.49,1.76A2.91,2.91,0,0,1,42.32,100a4.93,4.93,0,0,1-3.07.88H35Zm2.42,4.53h1.4a2.51,2.51,0,0,0,1.43-.31,1.14,1.14,0,0,0,.44-1,1,1,0,0,0-.48-1,3.11,3.11,0,0,0-1.52-.28H37.4Zm0,1.92v3H39a2.29,2.29,0,0,0,1.47-.39,1.39,1.39,0,0,0,.48-1.17c0-1-.68-1.42-2-1.42Z"/><path class="cls-3" d="M50.58,91.26a2.48,2.48,0,0,0-2.12,1,4.8,4.8,0,0,0-.75,2.87c0,2.54,1,3.82,2.87,3.82a9.07,9.07,0,0,0,2.91-.6v2a8.1,8.1,0,0,1-3.14.58,4.78,4.78,0,0,1-3.81-1.51,6.4,6.4,0,0,1-1.32-4.34A7,7,0,0,1,45.87,92,4.64,4.64,0,0,1,47.73,90a5.49,5.49,0,0,1,2.85-.72,7.75,7.75,0,0,1,3.34.8l-.78,2c-.43-.2-.86-.38-1.29-.53A3.82,3.82,0,0,0,50.58,91.26Z"/><path class="cls-3" d="M65.4,95a5.63,5.63,0,0,1-1.61,4.32,6.53,6.53,0,0,1-4.63,1.5H55.92V89.4h3.59a6.05,6.05,0,0,1,4.34,1.48A5.45,5.45,0,0,1,65.4,95Zm-2.52.06q0-3.67-3.25-3.68H58.34v7.44h1C61.72,98.83,62.88,97.57,62.88,95.07Z"/><path class="cls-3" d="M74.34,100.83H67.77V89.4h6.57v2H70.19V93.9h3.86v2H70.19v3h4.15Z"/><path class="cls-3" d="M79.11,100.83H76.73V89.4h6.54v2H79.11v2.94H83v2H79.11Z"/><path class="cls-3" d="M89.84,94.41h4.53v5.92a13,13,0,0,1-2.07.51,14.45,14.45,0,0,1-2,.14,5,5,0,0,1-4-1.52A6.29,6.29,0,0,1,85,95.1a5.77,5.77,0,0,1,1.58-4.31A6,6,0,0,1,91,89.24a8.47,8.47,0,0,1,3.39.7l-.81,1.94a5.69,5.69,0,0,0-2.6-.62,3.22,3.22,0,0,0-2.51,1,4.1,4.1,0,0,0-1,2.84A4.62,4.62,0,0,0,88.25,98a2.66,2.66,0,0,0,2.22,1A7.46,7.46,0,0,0,92,98.81V96.43H89.84Z"/><path class="cls-3" d="M106.45,100.83H104V95.9H99.52v4.93H97.09V89.4h2.43v4.48H104V89.4h2.41Z"/><path class="cls-3" d="M108.14,104.19a5.08,5.08,0,0,1-1.43-.18v-2a5,5,0,0,0,1.14.15,1.29,1.29,0,0,0,1.14-.49,2.75,2.75,0,0,0,.35-1.55V89.4h2.42v10.69a4.52,4.52,0,0,1-.92,3A3.39,3.39,0,0,1,108.14,104.19Z"/><path class="cls-3" d="M123.82,100.83h-2.75l-3-4.82-1,.74v4.08h-2.42V89.4h2.42v5.23l1-1.34,3.09-3.89h2.69l-4,5.06Z"/><path class="cls-3" d="M125.26,100.83V89.4h2.42v9.43h4.63v2Z"/><path class="cls-3" d="M144.43,100.83h-3.08l-5-8.64h-.07c.1,1.52.15,2.61.15,3.26v5.38H134.3V89.4h3l5,8.56h.06c-.08-1.49-.12-2.53-.12-3.15V89.4h2.18Z"/><path class="cls-3" d="M157.67,95.1a6.24,6.24,0,0,1-1.4,4.36,6.12,6.12,0,0,1-8.07,0,6.26,6.26,0,0,1-1.4-4.38,6.12,6.12,0,0,1,1.41-4.35,5.29,5.29,0,0,1,4-1.51,5.22,5.22,0,0,1,4,1.52A6.21,6.21,0,0,1,157.67,95.1Zm-8.33,0a4.77,4.77,0,0,0,.72,2.88,2.54,2.54,0,0,0,2.17,1c1.94,0,2.9-1.28,2.9-3.85s-1-3.86-2.88-3.86a2.56,2.56,0,0,0-2.18,1A4.76,4.76,0,0,0,149.34,95.1Z"/><path class="cls-3" d="M167.93,93a3.48,3.48,0,0,1-1.15,2.82,4.94,4.94,0,0,1-3.28,1h-1v4.07H160V89.4h3.65a4.84,4.84,0,0,1,3.16.9A3.26,3.26,0,0,1,167.93,93Zm-5.47,1.81h.8a2.69,2.69,0,0,0,1.67-.44,1.55,1.55,0,0,0,.55-1.29,1.61,1.61,0,0,0-.46-1.26,2.2,2.2,0,0,0-1.46-.4h-1.1Z"/><path class="cls-3" d="M180.45,95.1a7.32,7.32,0,0,1-.71,3.38,4.36,4.36,0,0,1-2.1,2l2.75,3.07h-3.1L175.2,101H175a5.26,5.26,0,0,1-4-1.52,6.26,6.26,0,0,1-1.4-4.38A6.12,6.12,0,0,1,171,90.73a5.29,5.29,0,0,1,4-1.51,5.2,5.2,0,0,1,4,1.52A6.21,6.21,0,0,1,180.45,95.1Zm-8.33,0a4.77,4.77,0,0,0,.72,2.88A2.55,2.55,0,0,0,175,99q2.89,0,2.89-3.85T175,91.24a2.56,2.56,0,0,0-2.18,1A4.76,4.76,0,0,0,172.12,95.1Z"/><path class="cls-3" d="M185.24,96.44v4.39h-2.42V89.4h3.33a5.71,5.71,0,0,1,3.44.85,3.39,3.39,0,0,1,.57,4.37,3.76,3.76,0,0,1-1.57,1.23q2.57,3.86,3.36,5h-2.69l-2.73-4.39Zm0-2H186a3,3,0,0,0,1.7-.38,1.36,1.36,0,0,0,.55-1.2,1.26,1.26,0,0,0-.56-1.16,3.41,3.41,0,0,0-1.73-.34h-.74Z"/><path class="cls-3" d="M200.12,97.65a2.94,2.94,0,0,1-1.11,2.44,4.79,4.79,0,0,1-3.1.89,7.27,7.27,0,0,1-3.23-.69V98a12.4,12.4,0,0,0,2,.73,5.77,5.77,0,0,0,1.46.21,2.09,2.09,0,0,0,1.22-.3,1,1,0,0,0,.43-.91,1,1,0,0,0-.19-.6,2.09,2.09,0,0,0-.55-.5,13.08,13.08,0,0,0-1.48-.77A7.13,7.13,0,0,1,194,95a3.54,3.54,0,0,1-.84-1,3.12,3.12,0,0,1-.31-1.41,3,3,0,0,1,1-2.38,4.25,4.25,0,0,1,2.84-.87,6.77,6.77,0,0,1,1.7.21,12.23,12.23,0,0,1,1.69.59l-.78,1.89a11.71,11.71,0,0,0-1.51-.53,5.35,5.35,0,0,0-1.18-.14,1.5,1.5,0,0,0-1,.32,1,1,0,0,0-.37.83,1,1,0,0,0,.15.56,1.59,1.59,0,0,0,.47.46,13.71,13.71,0,0,0,1.54.8,6,6,0,0,1,2.19,1.54A3,3,0,0,1,200.12,97.65Z"/><path class="cls-3" d="M206.6,100.83h-2.42V91.42h-3.1v-2h8.62v2h-3.1Z"/><path class="cls-3" d="M220.76,89.4v7.39a4.22,4.22,0,0,1-.57,2.22,3.6,3.6,0,0,1-1.64,1.46A5.8,5.8,0,0,1,216,101a4.8,4.8,0,0,1-3.42-1.13,4,4,0,0,1-1.22-3.09V89.4h2.42v7a2.87,2.87,0,0,0,.53,1.93,2.75,2.75,0,0,0,3.48,0,2.91,2.91,0,0,0,.53-2v-7Z"/><path class="cls-3" d="M230.07,89.4h2.45l-3.89,11.43H226L222.12,89.4h2.44l2.15,6.8c.12.4.24.87.37,1.4s.21.91.24,1.12a19.59,19.59,0,0,1,.59-2.52Z"/><path class="cls-3" d="M245.08,100.83h-2.76l-1.55-6c-.05-.22-.15-.66-.29-1.33s-.22-1.12-.24-1.35c0,.29-.11.74-.23,1.36s-.22,1.07-.29,1.33l-1.54,6h-2.75L232.52,89.4h2.38l1.46,6.24c.25,1.15.44,2.15.55,3,0-.3.11-.76.22-1.38s.22-1.1.32-1.45l1.66-6.4h2.29l1.66,6.4c.08.29.17.73.28,1.32s.19,1.09.25,1.51c0-.41.13-.91.25-1.52s.21-1.1.31-1.47l1.45-6.24H248Z"/><path class="cls-3" d="M258.66,100.83h-2.77l-2.66-4.32-2.65,4.32H248l3.79-5.89-3.54-5.54h2.67l2.46,4.11,2.41-4.11h2.61l-3.58,5.67Z"/><path class="cls-3" d="M263.65,94.11,266,89.4h2.61l-3.79,7v4.45h-2.4V96.46l-3.79-7.06h2.62Z"/><path class="cls-3" d="M277.52,100.83H269V99.26l5.48-7.86h-5.33v-2h8.2V91l-5.46,7.86h5.61Z"/><path class="cls-3" d="M29.11,120H26.7v-6.61l0-1.09,0-1.19a10.58,10.58,0,0,1-.84.79L24.61,113l-1.16-1.46,3.67-2.93h2Z"/><path class="cls-3" d="M40.26,120h-8v-1.68l2.87-2.9c.85-.87,1.4-1.47,1.66-1.81a4.09,4.09,0,0,0,.57-.93,2.51,2.51,0,0,0,.17-.89,1.33,1.33,0,0,0-.38-1,1.48,1.48,0,0,0-1-.33,3,3,0,0,0-1.29.3,6.45,6.45,0,0,0-1.31.87l-1.31-1.56a8.43,8.43,0,0,1,1.4-1,5.14,5.14,0,0,1,1.21-.46,6.08,6.08,0,0,1,1.47-.16,4.37,4.37,0,0,1,1.89.39,3,3,0,0,1,1.27,1.09,2.86,2.86,0,0,1,.46,1.61,4,4,0,0,1-.28,1.48,5.28,5.28,0,0,1-.86,1.42,19.9,19.9,0,0,1-2,2.07l-1.47,1.39V118h5Z"/><path class="cls-3" d="M49,111.16A2.71,2.71,0,0,1,48.3,113a3.41,3.41,0,0,1-1.82,1v0a3.56,3.56,0,0,1,2.09.84,2.35,2.35,0,0,1,.71,1.8,3,3,0,0,1-1.19,2.56,5.48,5.48,0,0,1-3.42.92,8.34,8.34,0,0,1-3.3-.61v-2.06a7.73,7.73,0,0,0,1.47.55,6.11,6.11,0,0,0,1.57.21,3.08,3.08,0,0,0,1.77-.41,1.48,1.48,0,0,0,.57-1.3,1.17,1.17,0,0,0-.66-1.14,4.71,4.71,0,0,0-2.09-.34h-.87v-1.85H44a4.13,4.13,0,0,0,1.94-.35,1.25,1.25,0,0,0,.61-1.19c0-.86-.54-1.3-1.62-1.3a3.9,3.9,0,0,0-1.15.19,5.56,5.56,0,0,0-1.29.65l-1.12-1.66a6.2,6.2,0,0,1,3.73-1.13,4.82,4.82,0,0,1,2.8.72A2.32,2.32,0,0,1,49,111.16Z"/><path class="cls-3" d="M54.7,112.73a3.66,3.66,0,0,1,2.63.93,3.32,3.32,0,0,1,1,2.55,3.69,3.69,0,0,1-1.18,2.94,4.94,4.94,0,0,1-3.37,1,6.64,6.64,0,0,1-3.08-.61v-2.09a5.92,5.92,0,0,0,1.44.53,6.2,6.2,0,0,0,1.55.21c1.48,0,2.21-.6,2.21-1.81s-.76-1.73-2.29-1.73a6.23,6.23,0,0,0-.91.08q-.49.09-.81.18l-1-.52.43-5.82h6.19v2.05H53.45l-.21,2.24.28,0A5.5,5.5,0,0,1,54.7,112.73Z"/><path class="cls-3" d="M59.59,115.17a7.51,7.51,0,0,1,1.44-5,5.33,5.33,0,0,1,4.29-1.66,7.61,7.61,0,0,1,1.53.12v1.93a5.89,5.89,0,0,0-1.37-.16,4.71,4.71,0,0,0-2,.38,2.54,2.54,0,0,0-1.18,1.11,5.13,5.13,0,0,0-.46,2.08h.1a2.67,2.67,0,0,1,2.48-1.33,3,3,0,0,1,2.4,1,3.8,3.8,0,0,1,.87,2.65,4,4,0,0,1-1,2.9,3.77,3.77,0,0,1-2.85,1.06,4.09,4.09,0,0,1-2.21-.58,3.77,3.77,0,0,1-1.45-1.71A6.41,6.41,0,0,1,59.59,115.17Zm4.13,3.08a1.44,1.44,0,0,0,1.19-.52,2.35,2.35,0,0,0,.41-1.48,2,2,0,0,0-.39-1.31,1.38,1.38,0,0,0-1.16-.48,1.84,1.84,0,0,0-1.26.47A1.49,1.49,0,0,0,62,116a2.53,2.53,0,0,0,.49,1.57A1.5,1.5,0,0,0,63.72,118.25Z"/><path class="cls-3" d="M69.94,120l4.29-9.38H68.59v-2h8.2v1.52L72.47,120Z"/><path class="cls-3" d="M81.87,108.46a4.38,4.38,0,0,1,2.65.74,2.38,2.38,0,0,1,1,2,2.62,2.62,0,0,1-.48,1.56A4.06,4.06,0,0,1,83.48,114a5.52,5.52,0,0,1,1.84,1.43,2.68,2.68,0,0,1,.55,1.64,2.71,2.71,0,0,1-1.1,2.26,4.59,4.59,0,0,1-2.9.85,4.82,4.82,0,0,1-2.94-.79,2.68,2.68,0,0,1-1.07-2.26,3,3,0,0,1,.52-1.74,4.31,4.31,0,0,1,1.67-1.33,4.31,4.31,0,0,1-1.41-1.32,2.86,2.86,0,0,1-.43-1.54,2.37,2.37,0,0,1,1-2A4.33,4.33,0,0,1,81.87,108.46ZM80.09,117a1.26,1.26,0,0,0,.47,1,2,2,0,0,0,1.28.38,2,2,0,0,0,1.35-.39,1.31,1.31,0,0,0,.44-1,1.38,1.38,0,0,0-.44-1,5.62,5.62,0,0,0-1.43-1C80.65,115.56,80.09,116.21,80.09,117Zm1.77-6.77a1.54,1.54,0,0,0-1,.32,1.05,1.05,0,0,0-.38.85,1.27,1.27,0,0,0,.31.84,3.41,3.41,0,0,0,1.08.76,3.09,3.09,0,0,0,1.08-.74,1.34,1.34,0,0,0,.3-.86,1.05,1.05,0,0,0-.39-.86A1.59,1.59,0,0,0,81.86,110.22Z"/><path class="cls-3" d="M95,113.48a7.65,7.65,0,0,1-1.42,5,5.36,5.36,0,0,1-4.31,1.66,7.52,7.52,0,0,1-1.54-.11v-1.93a5.67,5.67,0,0,0,1.38.16,4.79,4.79,0,0,0,2-.36,2.47,2.47,0,0,0,1.19-1.11,4.86,4.86,0,0,0,.48-2.1h-.09a2.64,2.64,0,0,1-1,1,3.25,3.25,0,0,1-1.48.3,3,3,0,0,1-2.36-1,3.85,3.85,0,0,1-.85-2.66,4,4,0,0,1,1-2.9,3.78,3.78,0,0,1,2.84-1.07,4,4,0,0,1,2.21.6,3.76,3.76,0,0,1,1.46,1.72A6.49,6.49,0,0,1,95,113.48Zm-4.14-3.07a1.43,1.43,0,0,0-1.17.51,2.32,2.32,0,0,0-.42,1.49,2.08,2.08,0,0,0,.38,1.31,1.42,1.42,0,0,0,1.17.49,1.8,1.8,0,0,0,1.26-.48,1.49,1.49,0,0,0,.52-1.11,2.49,2.49,0,0,0-.49-1.57A1.49,1.49,0,0,0,90.87,110.41Z"/><path class="cls-3" d="M104.12,114.32a7.92,7.92,0,0,1-1,4.43,3.41,3.41,0,0,1-3,1.43,3.37,3.37,0,0,1-3-1.48,7.93,7.93,0,0,1-1-4.38,8,8,0,0,1,1-4.46,3.79,3.79,0,0,1,6,.06A7.85,7.85,0,0,1,104.12,114.32Zm-5.58,0a9,9,0,0,0,.36,3,1.27,1.27,0,0,0,2.44,0,12.11,12.11,0,0,0,0-6,1.27,1.27,0,0,0-1.22-.92,1.25,1.25,0,0,0-1.21.92A8.69,8.69,0,0,0,98.54,114.32Z"/><rect class="cls-4" x="396.95" y="313.18" width="360.03" height="50.75"/><rect class="cls-5" x="396.95" y="369.71" width="360.03" height="50.75"/><rect class="cls-6" x="396.95" y="256.85" width="360.03" height="50.75"/><path class="cls-7" d="M521.39,278.54l-.83,4.08h4.54v3.62h-5.23l-1.35,7.14h-3.87l1.38-7.14h-3.41l-1.34,7.14H507.5l1.3-7.14h-4.18v-3.62h4.87l.82-4.08h-4.43v-3.67H511l1.36-7.15h3.85l-1.36,7.15h3.48l1.37-7.15h3.78l-1.37,7.15h4.22v3.67Zm-8.09,4.08h3.45l.82-4.08h-3.44Z"/><path class="cls-7" d="M542,293.38h-5.43V278.51l.05-2.44.09-2.68c-.9.91-1.53,1.5-1.88,1.78l-2.95,2.37-2.62-3.27,8.28-6.59H542Z"/><path class="cls-7" d="M550.87,267.68h8c3.65,0,6.29.52,7.94,1.56a5.39,5.39,0,0,1,2.47,4.94,6.22,6.22,0,0,1-1.08,3.78,4.31,4.31,0,0,1-2.88,1.78v.18a5.68,5.68,0,0,1,3.53,2,6.65,6.65,0,0,1,1.08,4,6.55,6.55,0,0,1-2.54,5.48,11,11,0,0,1-6.9,2h-9.61Zm5.44,10.18h3.17a5.77,5.77,0,0,0,3.21-.69,2.54,2.54,0,0,0,1-2.26,2.26,2.26,0,0,0-1.08-2.12,6.92,6.92,0,0,0-3.42-.64h-2.87Zm0,4.32v6.7h3.56a5.3,5.3,0,0,0,3.32-.86,3.2,3.2,0,0,0,1.07-2.64q0-3.19-4.57-3.2Z"/><path class="cls-7" d="M590.22,273.43a6,6,0,0,1-1.46,4.09,7.49,7.49,0,0,1-4.09,2.32V280a8.23,8.23,0,0,1,4.71,1.89,5.27,5.27,0,0,1,1.6,4.05,6.89,6.89,0,0,1-2.69,5.78q-2.68,2.06-7.68,2.06a18.6,18.6,0,0,1-7.42-1.39v-4.62a17.27,17.27,0,0,0,3.29,1.23,13.64,13.64,0,0,0,3.55.47,6.91,6.91,0,0,0,4-.91,3.34,3.34,0,0,0,1.28-2.93,2.65,2.65,0,0,0-1.47-2.57,10.85,10.85,0,0,0-4.71-.76h-2v-4.16h2a9.13,9.13,0,0,0,4.37-.79,2.82,2.82,0,0,0,1.38-2.68q0-2.91-3.66-2.91a8.37,8.37,0,0,0-2.57.42,12.34,12.34,0,0,0-2.91,1.46l-2.52-3.75a14,14,0,0,1,8.39-2.53,10.8,10.8,0,0,1,6.3,1.62A5.19,5.19,0,0,1,590.22,273.43Z"/><path class="cls-7" d="M612.35,288.05h-3.09v5.33H604v-5.33H593v-3.78l11.27-16.59h5v16.15h3.09Zm-8.4-4.22v-4.35c0-.73,0-1.79.09-3.17s.1-2.18.14-2.41H604a19.68,19.68,0,0,1-1.57,2.82l-4.71,7.11Z"/><path class="cls-7" d="M623.71,277a8.29,8.29,0,0,1,5.93,2.09,7.54,7.54,0,0,1,2.21,5.73,8.33,8.33,0,0,1-2.66,6.63q-2.66,2.32-7.59,2.32a14.84,14.84,0,0,1-6.93-1.39v-4.69a14.59,14.59,0,0,0,3.24,1.2,14.31,14.31,0,0,0,3.5.47q5,0,5-4.08,0-3.89-5.15-3.88a13.16,13.16,0,0,0-2.06.18,14,14,0,0,0-1.82.4l-2.17-1.16,1-13.1h13.94v4.61h-9.18l-.47,5,.61-.12A11.77,11.77,0,0,1,623.71,277Z"/><path class="cls-7" d="M637.46,293.38l9.65-21.09H634.43v-4.57h18.44v3.41l-9.72,22.25Z"/><path class="cls-7" d="M521.39,333.91l-.83,4.08h4.53v3.62h-5.22l-1.35,7.14h-3.87l1.37-7.14h-3.41l-1.33,7.14H507.5l1.3-7.14h-4.18V338h4.87l.82-4.08h-4.43v-3.67H511l1.36-7.16h3.85l-1.36,7.16h3.48l1.37-7.16h3.78l-1.37,7.16h4.22v3.67ZM513.3,338h3.45l.82-4.08h-3.44Z"/><path class="cls-7" d="M546.35,335.9c0,4.48-.74,7.81-2.21,10s-3.73,3.24-6.79,3.24a7.59,7.59,0,0,1-6.71-3.34q-2.26-3.35-2.26-9.86,0-6.81,2.2-10t6.77-3.23a7.59,7.59,0,0,1,6.72,3.38Q546.35,329.4,546.35,335.9Zm-12.57,0a19.8,19.8,0,0,0,.82,6.77,2.82,2.82,0,0,0,2.75,2.05,2.86,2.86,0,0,0,2.74-2.07,19.58,19.58,0,0,0,.84-6.75,19.38,19.38,0,0,0-.85-6.8,2.85,2.85,0,0,0-5.48,0A20,20,0,0,0,533.78,335.9Z"/><path class="cls-7" d="M566.9,335.9c0,4.48-.74,7.81-2.21,10s-3.74,3.24-6.79,3.24a7.59,7.59,0,0,1-6.71-3.34q-2.27-3.35-2.26-9.86,0-6.81,2.2-10t6.77-3.23a7.59,7.59,0,0,1,6.72,3.38Q566.9,329.4,566.9,335.9Zm-12.57,0a20.11,20.11,0,0,0,.81,6.77,2.87,2.87,0,0,0,5.5,0,19.58,19.58,0,0,0,.84-6.75,19.38,19.38,0,0,0-.85-6.8,2.85,2.85,0,0,0-5.48,0A20,20,0,0,0,554.33,335.9Z"/><path class="cls-7" d="M578.48,322.71a9.74,9.74,0,0,1,5.95,1.68,5.35,5.35,0,0,1,2.26,4.53,5.87,5.87,0,0,1-1.09,3.5,9.29,9.29,0,0,1-3.52,2.76,12.47,12.47,0,0,1,4.14,3.22,6,6,0,0,1,1.26,3.68,6.13,6.13,0,0,1-2.48,5.09,10.3,10.3,0,0,1-6.52,1.93,10.87,10.87,0,0,1-6.63-1.8,6,6,0,0,1-2.41-5.08,6.74,6.74,0,0,1,1.17-3.9,9.67,9.67,0,0,1,3.76-3,9.75,9.75,0,0,1-3.17-3,6.57,6.57,0,0,1-1-3.47,5.3,5.3,0,0,1,2.28-4.46A9.69,9.69,0,0,1,578.48,322.71Zm-4,19.2a2.82,2.82,0,0,0,1.06,2.35,4.43,4.43,0,0,0,2.88.85,4.5,4.5,0,0,0,3-.87,2.89,2.89,0,0,0,1-2.3,3.13,3.13,0,0,0-1-2.2,12.63,12.63,0,0,0-3.22-2.19Q574.47,339.28,574.47,341.91Zm4-15.22a3.36,3.36,0,0,0-2.24.71,2.34,2.34,0,0,0-.85,1.9,2.91,2.91,0,0,0,.68,1.89,7.46,7.46,0,0,0,2.45,1.72,6.93,6.93,0,0,0,2.41-1.65,3.07,3.07,0,0,0,.68-2,2.31,2.31,0,0,0-.88-1.91A3.46,3.46,0,0,0,578.44,326.69Z"/><path class="cls-7" d="M606.76,348.75H592v-25.7h14.8v4.46h-9.35v5.64h8.7v4.47h-8.7v6.63h9.35Z"/><path class="cls-7" d="M633.45,335.65q0,6.35-3.62,9.72t-10.43,3.38h-7.28v-25.7h8.07q6.3,0,9.78,3.32T633.45,335.65Zm-5.66.14q0-8.28-7.32-8.28h-2.9v16.74h2.34Q627.79,344.25,627.79,335.79Z"/><path class="cls-7" d="M653.57,348.75h-14.8v-25.7h14.8v4.46h-9.35v5.64h8.7v4.47h-8.7v6.63h9.35Z"/><path class="cls-7" d="M521.39,393.44l-.83,4.08h4.53v3.62h-5.22l-1.35,7.14h-3.87l1.37-7.14h-3.41l-1.33,7.14H507.5l1.3-7.14h-4.18v-3.62h4.87l.82-4.08h-4.43v-3.67H511l1.36-7.16h3.85l-1.36,7.16h3.48l1.37-7.16h3.78l-1.37,7.16h4.22v3.67Zm-8.09,4.08h3.45l.82-4.08h-3.44Z"/><path class="cls-7" d="M535.68,408.28h-5.36v-25.7h14.73V387h-9.37v6.63h8.72v4.45h-8.72Z"/><path class="cls-7" d="M564.87,408.28h-14.8v-25.7h14.8V387h-9.35v5.64h8.7v4.47h-8.7v6.63h9.35Z"/><path class="cls-7" d="M581.15,386.74a5.54,5.54,0,0,0-4.76,2.31,10.75,10.75,0,0,0-1.69,6.45q0,8.6,6.45,8.59a20.45,20.45,0,0,0,6.56-1.35v4.57a18.21,18.21,0,0,1-7.07,1.32c-3.74,0-6.6-1.14-8.58-3.4s-3-5.53-3-9.77a16,16,0,0,1,1.46-7,10.52,10.52,0,0,1,4.19-4.62,12.36,12.36,0,0,1,6.41-1.61,17.19,17.19,0,0,1,7.52,1.81l-1.75,4.43a28.64,28.64,0,0,0-2.9-1.2A8.7,8.7,0,0,0,581.15,386.74Z"/><path class="cls-7" d="M593.17,382.58h8c3.65,0,6.29.52,7.94,1.55a5.42,5.42,0,0,1,2.47,4.95,6.22,6.22,0,0,1-1.08,3.78,4.34,4.34,0,0,1-2.88,1.78v.17a5.64,5.64,0,0,1,3.53,2,6.64,6.64,0,0,1,1.08,4,6.55,6.55,0,0,1-2.54,5.49,11,11,0,0,1-6.9,2h-9.62Zm5.45,10.17h3.17a5.81,5.81,0,0,0,3.21-.68,2.56,2.56,0,0,0,1-2.27,2.28,2.28,0,0,0-1.08-2.12,7,7,0,0,0-3.42-.64h-2.87Zm0,4.33v6.7h3.55a5.33,5.33,0,0,0,3.33-.86,3.21,3.21,0,0,0,1.07-2.64q0-3.19-4.57-3.2Z"/><path class="cls-7" d="M634.11,403H631v5.33h-5.31V403h-11v-3.78L626,382.58h5v16.15h3.09Zm-8.4-4.22v-4.36c0-.72,0-1.78.09-3.16s.11-2.19.14-2.41h-.14a20,20,0,0,1-1.56,2.81l-4.72,7.12Z"/><path class="cls-7" d="M653.08,388.33a6,6,0,0,1-1.46,4.09,7.52,7.52,0,0,1-4.09,2.32v.11a8.1,8.1,0,0,1,4.71,1.89,5.31,5.31,0,0,1,1.6,4.05,6.86,6.86,0,0,1-2.69,5.77q-2.7,2.07-7.68,2.07a18.56,18.56,0,0,1-7.42-1.39v-4.62a17.16,17.16,0,0,0,3.28,1.23,14.16,14.16,0,0,0,3.56.47,6.91,6.91,0,0,0,4-.91,3.37,3.37,0,0,0,1.28-2.94,2.64,2.64,0,0,0-1.47-2.56,10.87,10.87,0,0,0-4.72-.76h-2V393h2a9.27,9.27,0,0,0,4.37-.78,2.82,2.82,0,0,0,1.38-2.68c0-1.94-1.22-2.92-3.66-2.92a8.37,8.37,0,0,0-2.57.42,12.74,12.74,0,0,0-2.91,1.46l-2.52-3.74a14,14,0,0,1,8.39-2.53,10.8,10.8,0,0,1,6.3,1.62A5.17,5.17,0,0,1,653.08,388.33Z"/><path class="cls-8" d="M115.11,328.32a4.17,4.17,0,0,1-2-2.4,9.07,9.07,0,0,1-.41-1.55c-.29-1.63-.51-3.28-.72-4.93-.1-.7-.21-1.41-.29-2.12-.1-.91-.17-1.83-.26-2.74,0-.24-.05-.47-.08-.71a3.18,3.18,0,0,1,0-1.15s0,0,0-.07a26.14,26.14,0,0,0,.06-3.65,1.22,1.22,0,0,0-.06-.26,12.9,12.9,0,0,1,.7-4.26,4.61,4.61,0,0,1,2.19-2.69,10.05,10.05,0,0,1,2.81-1.06l1-.22c.53,0,1.06.06,1.59.06l4.6,0a9.27,9.27,0,0,0,1.47.36,8.64,8.64,0,0,1,2.67,1.18,4.3,4.3,0,0,1,1.73,2.19,15,15,0,0,1,.7,3,30.06,30.06,0,0,1,.17,5.69c-.06,1.18-.16,2.36-.31,3.54-.09.74-.15,1.48-.23,2.21q-.09.79-.21,1.59c-.16,1.18-.33,2.35-.5,3.52a10,10,0,0,1-.53,2.16,4.48,4.48,0,0,1-.8,1.37,2.74,2.74,0,0,1-1.3.9c-.73-.11-1.46-.23-2.19-.32-1.06-.13-2.13-.19-3.19-.24s-2,.08-3,.14c-.35,0-.7.07-1,.11Z"/><path class="cls-8" d="M117.42,293.47l-1.23-.21c-.2,0-.4-.1-.6-.15a2.1,2.1,0,0,1-1.25-.95,6.65,6.65,0,0,1-.76-1.7,20.3,20.3,0,0,1-.5-2.44c-.24-1.46-.48-2.93-.69-4.4s-.41-3.17-.54-4.77a20.86,20.86,0,0,1,0-2.5,8.25,8.25,0,0,1,1-3.56,13.86,13.86,0,0,1,2.16-3,7.66,7.66,0,0,1,4.37-2.39,10.82,10.82,0,0,1,2.66-.16,12.86,12.86,0,0,1,1.75.33,6.83,6.83,0,0,1,3.69,2.18,13.13,13.13,0,0,1,2.47,3.78,7.75,7.75,0,0,1,.65,2.85,32.83,32.83,0,0,1-.16,4.09c-.16,1.6-.37,3.19-.59,4.77s-.43,2.94-.72,4.39a8.39,8.39,0,0,1-.53,1.79,6.42,6.42,0,0,1-.48.85,1.93,1.93,0,0,1-1.31.85l-1,.18c-.26,0-.52.1-.78.16h-1.6c-.92,0-1.83,0-2.75,0C119.6,293.39,118.51,293.44,117.42,293.47Z"/><path class="cls-8" d="M125.06,358.21c-1.56,0-3.12.06-4.68.07-1,0-1.94,0-2.91,0-.38,0-.76,0-1.14,0a14.72,14.72,0,0,1-2.65-.2,2.71,2.71,0,0,1-1-.35c-.23-.13-.45-.28-.68-.42l-.6-.36c-.2-.8-.45-1.6-.57-2.42a14.31,14.31,0,0,1-.16-4.08.19.19,0,0,0,0-.08,39,39,0,0,1,.89-5.89c.24-1.19.51-2.38.78-3.56.07-.32.18-.63.28-.94a.64.64,0,0,1,.56-.5c.23,0,.46-.07.7-.09l1.51-.08a6.43,6.43,0,0,0,1.24,0c.38,0,.77,0,1.15,0,1.9,0,3.8,0,5.69,0l1.51,0,1.78,0,2.22.15.26,0a.65.65,0,0,1,.54.41,5.39,5.39,0,0,1,.22.68c.18.81.37,1.62.54,2.43.23,1.13.47,2.26.66,3.4s.4,2.4.47,3.62c0,.44.09.88.1,1.33a17.05,17.05,0,0,1-.64,4.92c-.07.26-.13.52-.2.77a2.86,2.86,0,0,1-2.09,1c-.76,0-1.53,0-2.3,0A6.76,6.76,0,0,0,125.06,358.21Z"/><path class="cls-8" d="M108.46,397.1c-.17-.06-.34-.11-.5-.18a.6.6,0,0,1-.41-.53,6.61,6.61,0,0,1,0-.89c0-.63,0-1.25,0-1.88,0-3.86,0-7.73,0-11.59q0-3.25,0-6.52c0-1.75,0-3.5.08-5.26,0-1,.1-2.08.2-3.11a5.79,5.79,0,0,1,.29-1.48,1.86,1.86,0,0,1,.74-1l.67-.44a6.12,6.12,0,0,1,1.14-.11c1.56,0,3.12.09,4.68.19a6.16,6.16,0,0,1,1.64.3l.63.48a1.84,1.84,0,0,1,.77,1.25c0,.36.09.71.1,1.07a31.13,31.13,0,0,1-.13,3.2c-.07,1.06-.15,2.13-.24,3.19-.07.86-.17,1.71-.26,2.57a2.45,2.45,0,0,0,0,.27c-.15,1.59-.29,3.19-.46,4.78-.2,2-.42,4-.63,6-.14,1.42-.27,2.84-.4,4.25-.1,1-.21,1.95-.3,2.93-.07.7-.11,1.41-.18,2.12a.5.5,0,0,1-.44.49c-.2,0-.41.05-.61.08a5.18,5.18,0,0,0-1.23-.2c-.39,0-.77-.08-1.15-.1a31.1,31.1,0,0,0-3.48-.07A1.13,1.13,0,0,0,108.46,397.1Z"/><path class="cls-8" d="M127.64,397.37l-.53,0a.52.52,0,0,1-.49-.44,9.3,9.3,0,0,1-.13-1.06c-.08-1.3-.24-2.6-.37-3.9-.17-1.74-.35-3.48-.55-5.23-.15-1.35-.25-2.72-.4-4.07s-.31-2.78-.45-4.16c-.11-1-.18-2-.27-2.93s-.19-1.77-.27-2.66c0-.32,0-.65-.06-1-.07-.94-.15-1.89-.19-2.84,0-.68,0-1.37,0-2.05a3.17,3.17,0,0,1,0-.53,2,2,0,0,1,.68-1.31l.61-.52a10.73,10.73,0,0,1,2.19-.33c1.41-.1,2.83-.22,4.25-.2a4.81,4.81,0,0,1,1.14.14l.75.48a1.61,1.61,0,0,1,.7,1c.08.29.14.58.19.87a17.64,17.64,0,0,1,.19,2.4c0,1,.08,2,.11,3,0,1.28.06,2.56.07,3.84,0,5.47.05,10.94.09,16.41,0,1.22.05,2.44.07,3.66,0,.15,0,.3,0,.45a.48.48,0,0,1-.33.38l-.69.16a39.79,39.79,0,0,0-5.12.22C128.45,397.19,128.05,397.29,127.64,397.37Z"/><path class="cls-8" d="M114.76,401a1.49,1.49,0,0,1,.81,1,3.07,3.07,0,0,1,.14.52c.07.61.15,1.23.18,1.85,0,.89,0,1.79.1,2.67.18,3.71.09,7.43.07,11.14,0,1.36-.08,2.72-.13,4.09,0,.53,0,1.07-.05,1.6-.07.8-.1,1.6-.13,2.4-.07,1.75-.13,3.5-.24,5.25-.07,1.12-.07,2.25-.17,3.37a17,17,0,0,1-.31,2.47,6.73,6.73,0,0,1-.21.77,1,1,0,0,1-.61.61c-.26.08-.51.13-.77.2a12.66,12.66,0,0,1-4-.08h-.17c-.08-.05-.14-.11-.22-.15a1,1,0,0,1-.55-.67,6.46,6.46,0,0,1-.24-.86c-.09-.55-.16-1.11-.22-1.67-.16-1.51-.18-3-.27-4.54s-.17-3-.25-4.45c-.08-1.66-.14-3.32-.2-5,0-.18,0-.36,0-.54-.12-1.36-.12-2.73-.14-4.1q0-3.37,0-6.77c0-1.49,0-3,.15-4.45.05-.57,0-1.13.08-1.7,0-.41.07-.82.13-1.24a5.67,5.67,0,0,1,.15-.69,1.68,1.68,0,0,1,.83-1.11,6.14,6.14,0,0,0,1.65.23c1,0,2,0,2.93,0A7.83,7.83,0,0,0,114.76,401Z"/><path class="cls-8" d="M129.18,439c-.14-.14-.33-.12-.5-.16a1.26,1.26,0,0,1-1-.94,9.88,9.88,0,0,1-.37-2c-.11-1.16-.19-2.31-.21-3.47,0-.78-.09-1.55-.13-2.32-.09-1.66-.13-3.33-.25-5-.09-1.45-.1-2.91-.18-4.36-.18-3.51-.16-7-.11-10.52,0-.63,0-1.25,0-1.88s0-1,.08-1.51l0-.8a27.08,27.08,0,0,1,.2-3.12,7.2,7.2,0,0,1,.16-.78,1.77,1.77,0,0,1,.83-1.21,6.34,6.34,0,0,0,1.67.23c1,0,1.9,0,2.84,0a8.06,8.06,0,0,0,1.77-.19,1.58,1.58,0,0,1,.83,1.1,5,5,0,0,1,.12.53c.07.67.16,1.35.18,2,0,1.66.16,3.32.15,5,0,2,0,4,0,6.06,0,1.64,0,3.27-.13,4.91-.07.94,0,1.9-.08,2.85a4.61,4.61,0,0,1,0,.53c-.12,1.19-.11,2.38-.17,3.57q-.15,2.49-.27,5c0,.74-.05,1.49-.1,2.23a19.23,19.23,0,0,1-.28,2.39c-.05.23-.11.46-.16.69a1.16,1.16,0,0,1-.68.88.38.38,0,0,0-.14.11,4.55,4.55,0,0,0-.53,0,8.21,8.21,0,0,1-1.85.15Z"/><path class="cls-8" d="M140.19,308.78a1.45,1.45,0,0,0-.26-1,.59.59,0,0,1,0-.67,1.84,1.84,0,0,1,1-.84,8.67,8.67,0,0,1,1.1-.33c.64-.13,1.28-.24,1.93-.33a28.6,28.6,0,0,1,4.53-.24c.63,0,1.25,0,1.87.05,1.19.08,2.37.18,3.55.27.3,0,.6,0,.89.05l4,.32,2.93.22c1,.08,1.95.19,2.92.26a1.34,1.34,0,0,1,1.24.86s0,.05,0,.08a15.3,15.3,0,0,1,.35,2.61,13.82,13.82,0,0,1-.24,3.08c0,.2-.09.4-.13.6s-.05.1-.07.16a1.24,1.24,0,0,1-1.13.73l-2,.19c-1.24.11-2.48.23-3.72.32s-2.37.17-3.55.26-2.54.23-3.81.28-2.79.19-4.18.15a31.42,31.42,0,0,1-5-.51c-.38-.07-.75-.19-1.12-.29a2.94,2.94,0,0,1-.8-.38,1.7,1.7,0,0,1-.63-.84.33.33,0,0,1,0-.26,2.29,2.29,0,0,0,.38-1.17c0-.35.1-.69.11-1a19.46,19.46,0,0,0-.05-2.53c0,.06,0,.1,0,.11s0,0,0,0a.74.74,0,0,1,0-.14Z"/><path class="cls-8" d="M76.74,307.48c.42-.79.52-.87,1.44-1s1.71-.17,2.57-.24,2-.14,2.93-.21c1.3-.11,2.6-.23,3.9-.33,1.13-.08,2.25-.12,3.38-.22a41.29,41.29,0,0,1,5.78-.1q1,.06,2,.21c.58.07,1.17.19,1.75.31a7.93,7.93,0,0,1,1,.31,2.27,2.27,0,0,1,.47.23.88.88,0,0,1,.43.83c0,.38,0,.77,0,1.15,0,0,0,.05,0,.08a39.27,39.27,0,0,0,0,4.06.41.41,0,0,0,0,.08c0,.38,0,.77,0,1.15a1.08,1.08,0,0,1,0,.18.8.8,0,0,1-.36.68,3.9,3.9,0,0,1-.71.35,9.78,9.78,0,0,1-1.21.32,30.64,30.64,0,0,1-7.53.44l-4-.24-1.24-.11c-1.27-.09-2.54-.17-3.82-.28s-2.42-.2-3.63-.31l-2-.19a2,2,0,0,1-.35-.05,1,1,0,0,1-.64-.45c-.09-.15-.19-.3-.29-.44a14.45,14.45,0,0,1-.32-1.84A11.49,11.49,0,0,1,76.74,307.48Z"/><path class="cls-8" d="M48.24,308.64a5.13,5.13,0,0,1,.38-1.08.83.83,0,0,1,.53-.44c.15,0,.29-.08.44-.1l1.94-.21c1-.1,2-.22,3-.3,1.51-.11,3-.24,4.53-.27,1.3,0,2.61-.08,3.91-.06.92,0,1.84.05,2.76.07H66.8a35.22,35.22,0,0,1,3.56.19,3.55,3.55,0,0,1,1.27.36.73.73,0,0,1,.4.46l.15.6a2.28,2.28,0,0,0,0,.26c0,1.22,0,2.43,0,3.65,0,.56-.05,1.12,0,1.68,0,.08,0,.17-.07.26a1,1,0,0,1-.75.79,6.44,6.44,0,0,1-1.74.32l-.89,0c-3.09.17-6.18.19-9.27.13-.87,0-1.72-.08-2.58-.14-1.25-.07-2.49-.17-3.73-.31-.8-.09-1.6-.15-2.39-.24-.45,0-.89-.11-1.33-.17l-.17,0a.9.9,0,0,1-.66-.55c-.12-.34-.23-.68-.34-1a2.06,2.06,0,0,0,0-.26Z"/><path class="cls-8" d="M170.45,307.76c.19-.73.24-.95,1.23-1.2a10.61,10.61,0,0,1,1.86-.22c.83,0,1.66-.06,2.49-.08l1.88-.05c1.78-.06,3.56-.06,5.34,0,.74,0,1.49,0,2.23.07,1.15.08,2.31.17,3.46.28s2.54.26,3.81.4c.24,0,.47.07.71.11a.73.73,0,0,1,.6.59,4.8,4.8,0,0,1,.21,1.13c0,.12,0,.24,0,.36V312a8.36,8.36,0,0,1-.21,1.49.87.87,0,0,1-.74.68l-1,.14c-.65.07-1.3.15-1.95.2-1,.1-2,.16-3,.27s-2,.1-3,.18c-2.43.18-4.86.1-7.29.08-.51,0-1-.05-1.51-.07l-.71,0c-.68,0-1.37,0-2-.07a6.88,6.88,0,0,1-1.48-.27,1.12,1.12,0,0,1-.86-.91.84.84,0,0,0-.05-.17,1.13,1.13,0,0,0,0-.18c0-1.7,0-3.4,0-5.1A3.13,3.13,0,0,0,170.45,307.76Z"/><path class="cls-4" d="M126.77,339.3l-1.78,0-1.51,0c-1.89,0-3.79,0-5.69,0-.38,0-.77,0-1.15,0a6.43,6.43,0,0,1-1.24,0c-.16-.25-.31-.5-.48-.74a8.13,8.13,0,0,1-1.45-3.61,8.44,8.44,0,0,1,1.14-5.74c.17-.28.34-.56.5-.84l2.65-.34c.35,0,.7-.09,1-.11,1-.06,2-.18,3-.14s2.13.11,3.19.24c.73.09,1.46.21,2.19.32a2.92,2.92,0,0,0,.43.77,8.74,8.74,0,0,1-.87,10.24Z"/><path class="cls-8" d="M199.22,308.53a1,1,0,0,1,.19-.29,4.21,4.21,0,0,1,.64-.47,9.2,9.2,0,0,1,4.86-1.24,9.5,9.5,0,0,1,1.06.1,17.84,17.84,0,0,1,3.3.72,5.31,5.31,0,0,1,1.65.86,2.52,2.52,0,0,1,.93,1.27,4.15,4.15,0,0,1,0,2.29,2.08,2.08,0,0,1-.44.76,4,4,0,0,1-1.12.88A7.85,7.85,0,0,1,209,314a18.08,18.08,0,0,1-3.49.67,9.09,9.09,0,0,1-5.39-1.2,5.67,5.67,0,0,1-.72-.52.74.74,0,0,1-.13-.21,4.84,4.84,0,0,0,.41-2.83A3.1,3.1,0,0,0,199.22,308.53Z"/><path class="cls-8" d="M43.56,312.8a7.54,7.54,0,0,1-2.91,1.49,8.78,8.78,0,0,1-3.78.27A18.6,18.6,0,0,1,34,314c-.37-.11-.73-.24-1.09-.38a5.77,5.77,0,0,1-.55-.29,3.11,3.11,0,0,1-1.37-4,2.29,2.29,0,0,1,.73-1,4.72,4.72,0,0,1,1.78-1c.62-.19,1.25-.36,1.89-.5a20.43,20.43,0,0,1,2.2-.31,7.33,7.33,0,0,1,2,.11,9.67,9.67,0,0,1,2.77,1,4.48,4.48,0,0,1,1.16.81c-.06.19-.11.39-.17.59a4.64,4.64,0,0,0,0,3.12Z"/><path class="cls-4" d="M102.4,312.67a.41.41,0,0,1,0-.08,39.27,39.27,0,0,1,0-4.06s0,0,0-.08.24-.23.32-.4a4.84,4.84,0,0,1,1.66-1.82,4.32,4.32,0,0,1,1.55-.64,4.46,4.46,0,0,1,4.5,1.67c.2.26.36.54.54.81l.44.67a1.22,1.22,0,0,1,.06.26,26.14,26.14,0,0,1-.06,3.65s0,.05,0,.07a1.27,1.27,0,0,0-.41.45c-.16.25-.32.5-.5.74A4.81,4.81,0,0,1,109.3,315a2.9,2.9,0,0,1-1.13.51,4.87,4.87,0,0,0-.52.12,2.53,2.53,0,0,1-1.06.08,4.63,4.63,0,0,1-2.6-1,4.37,4.37,0,0,1-1.28-1.58C102.64,312.91,102.48,312.82,102.4,312.67Z"/><path class="cls-4" d="M140.29,308.83a19.46,19.46,0,0,1,.05,2.53c0,.35-.07.69-.11,1a3.7,3.7,0,0,0-.45.76,5.09,5.09,0,0,1-1.73,1.87,4.3,4.3,0,0,1-3.15.6,4.85,4.85,0,0,1-3.2-2.21,1.63,1.63,0,0,1-.28-.74,10.63,10.63,0,0,0-.29-1.85,1.26,1.26,0,0,1,0-.61,11.85,11.85,0,0,0,.27-1.67,1.79,1.79,0,0,1,.27-.74,5.11,5.11,0,0,1,1.77-1.72,4.89,4.89,0,0,1,2.74-.57,4.63,4.63,0,0,1,3.49,2.33c.19.3.35.62.52.93h.06Z"/><path class="cls-4" d="M117.42,293.47c1.09,0,2.18-.08,3.28-.09.92,0,1.83,0,2.75,0h1.6c.12.23.25.46.37.7a5.3,5.3,0,0,1-.52,5.74c-.18.24-.36.46-.55.69l-4.6,0c-.53,0-1.06,0-1.59-.06-.15-.18-.31-.36-.45-.54a5.14,5.14,0,0,1-.7-5.72C117.13,294,117.28,293.73,117.42,293.47Z"/><path class="cls-4" d="M132.84,364.26a4.81,4.81,0,0,0-1.14-.14c-1.42,0-2.84.1-4.25.2a10.73,10.73,0,0,0-2.19.33c-.13-.2-.26-.4-.38-.6a5.15,5.15,0,0,1-.24-5,4,4,0,0,0,.42-.88,6.76,6.76,0,0,1,1.49-.12c.77,0,1.54,0,2.3,0a2.86,2.86,0,0,0,2.09-1,.6.6,0,0,1,.59.09,5,5,0,0,1,2.08,3.4A5.15,5.15,0,0,1,132.84,364.26Z"/><path class="cls-4" d="M117.08,364.62a6.16,6.16,0,0,0-1.64-.3c-1.56-.1-3.12-.23-4.68-.19a6.12,6.12,0,0,0-1.14.11c-.13-.26-.28-.52-.4-.8a5.17,5.17,0,0,1,2.09-6.52l.08,0,.61.36c.23.14.45.29.68.42a2.71,2.71,0,0,0,1,.35,14.72,14.72,0,0,0,2.65.2c.38,0,.76,0,1.14,0,.15.33.31.64.44,1a5.28,5.28,0,0,1-.39,5A.7.7,0,0,1,117.08,364.62Z"/><path class="cls-4" d="M170.45,307.76a3.13,3.13,0,0,1,0,.43c0,1.7,0,3.4,0,5.1a1.13,1.13,0,0,1,0,.18l-.58.38a4.34,4.34,0,0,1-.95.45,3.13,3.13,0,0,1-2.31-.18c-.24-.1-.47-.24-.7-.36,0-.2.09-.4.13-.6a13.82,13.82,0,0,0,.24-3.08,15.3,15.3,0,0,0-.35-2.61,3.26,3.26,0,0,1,1.68-.67,3.35,3.35,0,0,1,2.25.55C170.08,307.48,170.26,307.62,170.45,307.76Z"/><path class="cls-4" d="M72.16,313.46c0-.56,0-1.12,0-1.68,0-1.22,0-2.43,0-3.65a2.28,2.28,0,0,1,0-.26,3.22,3.22,0,0,1,3.7-.84c.29.14.57.3.86.45a11.49,11.49,0,0,0-.35,4.4,14.45,14.45,0,0,0,.32,1.84,4.22,4.22,0,0,1-1.7.69,1.56,1.56,0,0,1-.53,0,3.65,3.65,0,0,1-1.88-.69C72.46,313.64,72.31,313.56,72.16,313.46Z"/><path class="cls-4" d="M199.22,308.53a3.1,3.1,0,0,1,.42,1.33,4.84,4.84,0,0,1-.41,2.83c-.24.17-.46.36-.7.53a2.81,2.81,0,0,1-1.81.57,2.91,2.91,0,0,1-2-1,.89.89,0,0,1-.19-.39,1.19,1.19,0,0,0-.22-.47v-2.76a.73.73,0,0,0,.2-.39,1,1,0,0,1,.37-.59,3.08,3.08,0,0,1,1.83-.82,1.63,1.63,0,0,1,.44,0,3.08,3.08,0,0,1,1.66.8A3.32,3.32,0,0,0,199.22,308.53Z"/><path class="cls-4" d="M114.76,401a7.83,7.83,0,0,1-1.67.18c-1,0-2,0-2.93,0a6.14,6.14,0,0,1-1.65-.23c-.07-.17-.13-.33-.19-.5a4,4,0,0,1,0-2.85c.06-.17.1-.34.15-.51a1.13,1.13,0,0,1,.59-.15,31.1,31.1,0,0,1,3.48.07c.38,0,.76.07,1.15.1a5.18,5.18,0,0,1,1.23.2c0,.14.07.28.11.42a4,4,0,0,1-.12,2.86C114.85,400.74,114.81,400.88,114.76,401Z"/><path class="cls-4" d="M134.06,401a8.06,8.06,0,0,1-1.77.19c-.94,0-1.89,0-2.84,0a6.34,6.34,0,0,1-1.67-.23c-.08-.25-.18-.49-.25-.74a3.6,3.6,0,0,1-.08-2.08c.07-.26.13-.51.19-.77.41-.08.81-.18,1.22-.22a39.79,39.79,0,0,1,5.12-.22,3,3,0,0,0,.17.41,4.09,4.09,0,0,1,.34,2.07,3.13,3.13,0,0,1-.17.86Z"/><path class="cls-4" d="M43.56,312.8l-.2-.68a4.64,4.64,0,0,1,0-3.12c.06-.2.11-.4.17-.59l.57-.43a3.08,3.08,0,0,1,1.57-.59,1.64,1.64,0,0,1,.44,0,3.08,3.08,0,0,1,1.65.82l.46.41,0,3.63a2.06,2.06,0,0,1,0,.26l-.45.43a2.77,2.77,0,0,1-3.66.26Z"/><path class="cls-4" d="M109.29,438.88h.17a12.66,12.66,0,0,0,4,.08c.15.26.31.5.44.76a3.2,3.2,0,0,1,.05,3.06.28.28,0,0,1-.36.16,5.71,5.71,0,0,0-1.62-.43,2.69,2.69,0,0,0-1.56.15,2.82,2.82,0,0,0-1.25.28,3,3,0,0,1-.32.12c-.07-.13-.15-.25-.21-.39a3.18,3.18,0,0,1,.31-3.29Z"/><path class="cls-4" d="M129.18,439l1.77,0a8.21,8.21,0,0,0,1.85-.15,4.55,4.55,0,0,1,.53,0,5.87,5.87,0,0,1,.46.65,3.24,3.24,0,0,1,.18,3.23.26.26,0,0,1-.35.17,6.52,6.52,0,0,0-1.37-.4,4.44,4.44,0,0,0-1.15,0,3.28,3.28,0,0,0-.51.15,3,3,0,0,0-1.5.37l-.24.11a4.67,4.67,0,0,1-.45-1.14,3.3,3.3,0,0,1,.49-2.52Z"/><path class="cls-8" d="M128.85,443.12l.24-.11a3,3,0,0,1,1.5-.37,19,19,0,0,0,1.72.93,3.23,3.23,0,0,1,.62.36,2.17,2.17,0,0,1,.89,1.17.21.21,0,0,1-.21.29h-5.88a1.15,1.15,0,0,1-.26,0s-.11-.09-.1-.12a3,3,0,0,1,.88-1.61C128.44,443.46,128.65,443.29,128.85,443.12Z"/><path class="cls-8" d="M108.82,443.06a3,3,0,0,0,.32-.12,2.82,2.82,0,0,1,1.25-.28,13.47,13.47,0,0,0,1.62.91,3.57,3.57,0,0,1,.74.47,2.08,2.08,0,0,1,.77,1.17.14.14,0,0,1-.08.13.56.56,0,0,1-.25.05h-5.6l-.17,0a.18.18,0,0,1-.13-.2,3.11,3.11,0,0,1,.93-1.59Z"/><path class="cls-9" d="M140.29,308.83l0-.06h-.08a.74.74,0,0,0,0,.14s0,0,0,0S140.33,308.89,140.29,308.83Z"/><circle class="cls-10" cx="448.04" cy="518.64" r="58.04"/><circle class="cls-6" cx="448.16" cy="518.64" r="60.04"/><circle class="cls-7" cx="447.86" cy="519.13" r="53.59"/><circle class="cls-6" cx="448.16" cy="519.38" r="50.74"/><path class="cls-5" d="M448.16,519.38,422,475.89a50.74,50.74,0,1,1,17.67,93.52Z"/><path class="cls-4" d="M447.79,519.7l-8.46,50a50.75,50.75,0,0,1-41.7-57.68Z"/><rect class="cls-4" x="226.18" y="271.83" width="123" height="222.95" rx="9.61" ry="9.61"/><circle class="cls-7" cx="293.08" cy="342.95" r="13.63"/><path class="cls-7" d="M293.48,361.54h0A18.51,18.51,0,0,1,312,380v31.89a4.4,4.4,0,0,1-4.4,4.4H279.37a4.4,4.4,0,0,1-4.4-4.4V380a18.51,18.51,0,0,1,18.51-18.51Z" transform="translate(-1.77 1.34) rotate(-0.26)"/><circle class="cls-7" cx="287.68" cy="481.33" r="9.65"/><rect class="cls-7" x="241.39" y="293.78" width="70.06" height="7.92" rx="3.96" ry="3.96" transform="translate(-1.36 1.27) rotate(-0.26)"/><rect class="cls-7" x="241.46" y="309.13" width="44.98" height="7.92" rx="3.96" ry="3.96" transform="translate(-1.43 1.21) rotate(-0.26)"/><rect class="cls-7" x="263.11" y="426.82" width="70.06" height="7.92" rx="3.96" ry="3.96" transform="translate(-1.96 1.37) rotate(-0.26)"/><rect class="cls-7" x="287.83" y="442.06" width="44.98" height="7.92" rx="3.96" ry="3.96" transform="translate(-2.03 1.42) rotate(-0.26)"/><rect class="cls-11" x="233.88" y="278.5" width="107.86" height="189.75" rx="5.47" ry="5.47"/><rect class="cls-4" x="618.26" y="439.56" width="85.78" height="162.17" rx="9.61" ry="9.61" transform="translate(1181.79 -140.5) rotate(90)"/><circle class="cls-7" cx="610" cy="502.56" r="7.25"/><path class="cls-7" d="M610.08,512.45h0a9.85,9.85,0,0,1,9.85,9.85v17a2.34,2.34,0,0,1-2.34,2.34h-15a2.34,2.34,0,0,1-2.34-2.34v-17a9.85,9.85,0,0,1,9.85-9.85Z" transform="translate(0.59 -0.68) rotate(0.06)"/><circle class="cls-7" cx="716.51" cy="512.89" r="7.25"/><path class="cls-7" d="M716.58,522.78h0a9.85,9.85,0,0,1,9.85,9.85v17a2.34,2.34,0,0,1-2.34,2.34h-15a2.34,2.34,0,0,1-2.34-2.34v-17a9.85,9.85,0,0,1,9.85-9.85Z" transform="translate(0.6 -0.8) rotate(0.06)"/><path class="cls-6" d="M649.4,491c7.37,0,14.74,0,22.11,0a2.62,2.62,0,0,1,1.89.78,3.24,3.24,0,0,1,.84,1.06,2.71,2.71,0,0,1,.24,1c0,1.57,0,3.14,0,4.71A2.86,2.86,0,0,1,673,501a3.81,3.81,0,0,1-2.06.52l-43.43-.06a4.6,4.6,0,0,1-1.38-.19,2,2,0,0,1-.51-.36.38.38,0,0,0-.53,0,2.45,2.45,0,0,1-1.59.52s-.13,0-.15-.06,0-.1.07-.13a1.92,1.92,0,0,0,.57-1.57c.14-1.87,0-3.74.08-5.6a3.1,3.1,0,0,1,1.71-2.69,3.82,3.82,0,0,1,1.93-.43Z"/><path class="cls-6" d="M653.06,518.16q11.06,0,22.11,0a2.69,2.69,0,0,1,1.9.78,3.28,3.28,0,0,1,.84,1.07,2.62,2.62,0,0,1,.24,1c0,1.57,0,3.15,0,4.72a2.82,2.82,0,0,1-1.46,2.45,3.74,3.74,0,0,1-2.07.52l-43.42-.05a4.27,4.27,0,0,1-1.38-.2,1.74,1.74,0,0,1-.52-.36.36.36,0,0,0-.52,0,2.5,2.5,0,0,1-1.59.51c-.06,0-.14,0-.15-.06s0-.09.07-.12a2,2,0,0,0,.57-1.58c.14-1.86,0-3.73.08-5.59a3.11,3.11,0,0,1,1.7-2.7,3.87,3.87,0,0,1,1.94-.42Z"/><path class="cls-7" d="M700.36,515.17a2.47,2.47,0,0,0-.23-.28,1.62,1.62,0,0,1-.48-1.26c-.1-1.93,0-3.85-.06-5.78a3,3,0,0,0-.83-2,4,4,0,0,0-1.51-1,1.37,1.37,0,0,0-.57-.09l-44.68,0a2.53,2.53,0,0,0-1.76.74,3.08,3.08,0,0,0-.94,1.38,1.58,1.58,0,0,0-.06.42c0,1.69,0,3.37,0,5.06a2.65,2.65,0,0,0,.64,1.7,2.57,2.57,0,0,0,1.28,1,4.91,4.91,0,0,0,1.28.23l40.55,0c1.1,0,2.2,0,3.31,0a2.64,2.64,0,0,0,1.8-.58.32.32,0,0,1,.45,0,3.55,3.55,0,0,0,1.56.54Z"/><path class="cls-7" d="M700.91,543.05a1.43,1.43,0,0,0-.23-.28,1.62,1.62,0,0,1-.48-1.27c-.1-1.92-.05-3.85-.07-5.78a3,3,0,0,0-.83-2,3.82,3.82,0,0,0-1.5-1,1.42,1.42,0,0,0-.57-.09l-44.69,0a2.53,2.53,0,0,0-1.75.74,3,3,0,0,0-.95,1.39,1.47,1.47,0,0,0-.06.42c0,1.68,0,3.36,0,5.05a2.62,2.62,0,0,0,.65,1.7,2.45,2.45,0,0,0,1.27,1,5.55,5.55,0,0,0,1.29.24q20.26,0,40.54,0c1.11,0,2.21,0,3.31,0a2.63,2.63,0,0,0,1.8-.59.33.33,0,0,1,.45,0,3.51,3.51,0,0,0,1.56.54C700.72,543.07,700.8,543.05,700.91,543.05Z"/><rect class="cls-12" x="623.32" y="445.01" width="75.49" height="151.33" rx="9.61" ry="9.61" transform="translate(1181.74 -140.38) rotate(90)"/><rect class="cls-13" x="79.74" y="519.97" width="105.21" height="43.53" rx="10.17" ry="10.17"/><rect class="cls-13" x="68.14" y="532.5" width="11.57" height="19.5" rx="3.32" ry="3.32"/><rect class="cls-13" x="185" y="531.98" width="11.57" height="19.5" rx="3.32" ry="3.32"/><path class="cls-5" d="M188.79,532.17h-6.32c-.18-15.9-9.55-28.75-21.09-28.75H103.19c-11.54,0-20.92,12.85-21.09,28.75H75.78c.17-20.72,12.39-37.49,27.41-37.49h58.19C176.4,494.68,188.62,511.45,188.79,532.17Z"/><rect class="cls-14" x="85.71" y="525.67" width="94" height="31.67" rx="5" ry="5"/><path class="cls-5" d="M127.32,542.89a6.22,6.22,0,0,1,10.78,0l3.83,6.62,3.82,6.62a6.23,6.23,0,0,1-5.39,9.34H125.07a6.23,6.23,0,0,1-5.4-9.34l3.83-6.62Z"/><rect class="cls-13" x="126.82" y="500.09" width="11.57" height="19.66" rx="3.32" ry="3.32"/><circle class="cls-5" cx="481.43" cy="79.08" r="42.17"/><circle class="cls-6" cx="481.43" cy="78.78" r="39.26"/><circle class="cls-15" cx="481.35" cy="58.39" r="8.6"/><path class="cls-15" d="M481.6,70.68h0a11.67,11.67,0,0,1,11.67,11.67V94.59a10.65,10.65,0,0,1-10.65,10.65h-2a10.65,10.65,0,0,1-10.65-10.65V82.36A11.67,11.67,0,0,1,481.6,70.68Z" transform="translate(-0.4 2.2) rotate(-0.26)"/><circle class="cls-15" cx="458.81" cy="64.96" r="5.41"/><path class="cls-15" d="M459,73.49h0a7.35,7.35,0,0,1,7.35,7.35V89A6.28,6.28,0,0,1,460,95.25H457.9A6.28,6.28,0,0,1,451.62,89V80.84A7.35,7.35,0,0,1,459,73.49Z" transform="translate(-0.38 2.1) rotate(-0.26)"/><circle class="cls-15" cx="504.12" cy="64.62" r="5.41"/><path class="cls-15" d="M504.28,73.14h0a7.35,7.35,0,0,1,7.35,7.35v8.13a6.28,6.28,0,0,1-6.28,6.28h-2.14a6.28,6.28,0,0,1-6.28-6.28V80.49a7.35,7.35,0,0,1,7.35-7.35Z" transform="translate(-0.38 2.3) rotate(-0.26)"/><circle class="cls-5" cx="686.37" cy="79.12" r="42.12"/><circle class="cls-6" cx="686.37" cy="79.12" r="39.21"/><path class="cls-16" d="M694.05,95.7h-3.74a13.82,13.82,0,0,1,1.22-6.06c1.11-2.34,2.39-4.61,3.66-6.87a22.48,22.48,0,0,0,3-7.53,11.14,11.14,0,0,0-9.35-13c-4.13-.68-8,0-11.18,2.87-3,2.68-3.86,6.17-3.4,10a18.5,18.5,0,0,0,2.77,7.06,49.09,49.09,0,0,1,4.18,8,16.93,16.93,0,0,1,1,5.46h-3.72c0-.42-.08-.86-.14-1.3a18.7,18.7,0,0,0-2.74-6.92,46,46,0,0,1-4.25-8.18c-1.79-5.33-1.5-10.46,1.93-15.11a14.57,14.57,0,0,1,9.55-5.62A17.1,17.1,0,0,1,696,61.13c4.15,2.84,6,6.92,6.17,11.87.13,4-1.25,7.47-3.17,10.82-.9,1.58-1.84,3.13-2.72,4.72A14.81,14.81,0,0,0,694.05,95.7Z"/><rect class="cls-16" x="658.57" y="71.08" width="7.74" height="3.74" rx="1.67" ry="1.67"/><rect class="cls-16" x="706.28" y="71.07" width="7.74" height="3.74" rx="1.67" ry="1.67"/><rect class="cls-16" x="661.04" y="82.84" width="7.74" height="3.74" rx="1.67" ry="1.67" transform="translate(23.72 280.03) rotate(-24.2)"/><rect class="cls-16" x="661.5" y="59.18" width="7.74" height="3.74" rx="1.67" ry="1.67" transform="translate(158.24 -373.99) rotate(35.38)"/><rect class="cls-16" x="682.51" y="48.56" width="7.74" height="3.74" rx="1.67" ry="1.67" transform="translate(736.82 -635.95) rotate(90)"/><rect class="cls-16" x="703.71" y="82.99" width="7.74" height="3.74" rx="1.67" ry="1.67" transform="translate(1318.18 452.33) rotate(-155.8)"/><rect class="cls-16" x="703.86" y="58.42" width="7.74" height="3.74" rx="1.67" ry="1.67" transform="translate(1319.66 -300.35) rotate(144.62)"/><rect class="cls-16" x="670.39" y="51.3" width="7.74" height="3.74" rx="1.67" ry="1.67" transform="translate(383.18 -557.34) rotate(60)"/><rect class="cls-16" x="694.56" y="51.15" width="7.74" height="3.74" rx="1.67" ry="1.67" transform="translate(1093.56 -525.34) rotate(120)"/><rect class="cls-16" x="679.38" y="97.7" width="13.8" height="2.79" rx="1.24" ry="1.24"/><rect class="cls-16" x="679.95" y="102.34" width="12.83" height="2.79" rx="1.24" ry="1.24"/><path class="cls-16" d="M691.85,107a5.48,5.48,0,0,1-10.79,0Z"/><circle class="cls-5" cx="582.76" cy="80.04" r="42.23"/><circle class="cls-6" cx="582.76" cy="80.04" r="39.31"/><path class="cls-16" d="M611.94,79.67c0-.1,0-.19,0-.29h0v-.16c0-.08,0-.16,0-.25v0c0-.08,0-.16,0-.24s0-.15,0-.22,0-.15,0-.22,0-.1,0-.15l0-.37a29.75,29.75,0,0,0-1.66-7.87,28.23,28.23,0,0,0-1.52-3.53A29.52,29.52,0,0,0,603.38,59a28.69,28.69,0,0,0-19.07-8.67c-.52,0-1,0-1.55,0s-1.08,0-1.61,0a28.69,28.69,0,0,0-19,8.66,29.75,29.75,0,0,0-5.34,7.43A30.6,30.6,0,0,0,555.28,70a30,30,0,0,0-1.65,8.29c0,.45,0,.9,0,1.35v.33a.41.41,0,0,0,0,.11c0,.13,0,.25,0,.37v.35c0,.22,0,.43,0,.65a30.39,30.39,0,0,0,1.52,8.25,31.07,31.07,0,0,0,1.44,3.53,30,30,0,0,0,5.57,7.91,28.69,28.69,0,0,0,19,8.66c.53,0,1.07,0,1.61,0s1,0,1.55,0a28.68,28.68,0,0,0,19.07-8.66,29.64,29.64,0,0,0,5.53-7.82,29.25,29.25,0,0,0,1.45-3.52,30.31,30.31,0,0,0,1.55-8.35c0-.22,0-.43,0-.65s0-.23,0-.35v-.74Zm-5.12,10.78a26.48,26.48,0,0,1-18.51,15.61h0a25.18,25.18,0,0,1-4,.56c-.52,0-1,0-1.55,0s-1.08,0-1.61,0a25.61,25.61,0,0,1-3.94-.56,26.25,26.25,0,0,1-16.79-12.19,28,28,0,0,1-1.77-3.5,27,27,0,0,1-2-9c0-.46,0-.91,0-1.37s0-1.2.06-1.79a27.07,27.07,0,0,1,2.18-9,28,28,0,0,1,1.86-3.51,26.2,26.2,0,0,1,17.47-11.91h0a24.09,24.09,0,0,1,3-.36c.53,0,1.07,0,1.61,0s1,0,1.55,0a25.48,25.48,0,0,1,3,.36h0a26.2,26.2,0,0,1,17.4,11.84,25,25,0,0,1,1.87,3.5,26.79,26.79,0,0,1,2.22,9.08c0,.59.06,1.19.06,1.79s0,.91,0,1.37A26.69,26.69,0,0,1,606.82,90.45Z"/><ellipse class="cls-17" cx="582.76" cy="80.2" rx="16.73" ry="27.41"/><path class="cls-16" d="M610.25,89.79c-1.11.23-2.25.45-3.43.66l-.29,0h0c-2.57.44-5.28.81-8.09,1.1l-.48.05c-1,.1-2,.18-3,.26-3.45.27-7,.42-10.66.45h-3.17c-3.65,0-7.22-.21-10.66-.49-1-.08-2-.17-3-.27l-.47,0c-2.84-.3-5.58-.68-8.18-1.14l-.24,0c-1.16-.21-2.3-.44-3.41-.68l-.12,0a31.07,31.07,0,0,0,1.44,3.53l.21,0c1.18.23,2.4.44,3.65.64q3.95.63,8.21,1c4,.37,8.22.58,12.52.63h3.16c4.31,0,8.52-.24,12.56-.6h0q4.25-.37,8.18-1c1.25-.19,2.48-.4,3.67-.62l.19,0a29.25,29.25,0,0,0,1.45-3.52Zm-51.4-20.54c2.82-.5,5.81-.91,8.91-1.22,4.27-.43,8.77-.68,13.39-.73h3.16c4.63,0,9.15.27,13.43.69,3.1.3,6.07.7,8.88,1.18,1.19.21,2.35.43,3.48.67l.09,0a28.23,28.23,0,0,0-1.52-3.53l-.18,0c-1.22-.23-2.46-.44-3.74-.63l-.32,0q-3.39-.51-7-.84l-.86-.08c-.89-.08-1.78-.14-2.69-.21-3.09-.21-6.27-.33-9.5-.36h-3.22c-3.23,0-6.4.16-9.49.38l-2.72.22-1,.09h0q-3.5.35-6.77.84l-.47.07c-1.27.2-2.5.41-3.71.64l-.21,0A30.6,30.6,0,0,0,555.28,70l.12,0C556.52,69.69,557.67,69.46,558.85,69.25Z"/><path class="cls-16" d="M584.31,50.32v59.44c-.52,0-1,0-1.55,0s-1.08,0-1.61,0V50.33c.53,0,1.07,0,1.61,0S583.79,50.29,584.31,50.32Z"/><path class="cls-16" d="M611.94,80v.37c0,.12,0,.24,0,.35s0,.43,0,.65H553.6c0-.22,0-.43,0-.65v-.35c0-.12,0-.24,0-.37a.41.41,0,0,1,0-.11V79.6c0-.45,0-.9,0-1.35h58.26c0,.07,0,.15,0,.22s0,.15,0,.22,0,.16,0,.24v0c0,.09,0,.17,0,.25v.16h0c0,.1,0,.19,0,.29Z"/><circle class="cls-5" cx="580.12" cy="173.5" r="42.05"/><circle class="cls-6" cx="580.12" cy="173.5" r="39.14"/><path class="cls-18" d="M562,164.76c2.82,0,5.64,0,8.47,0a2.38,2.38,0,0,0,2.52-1.84q2.55-7.84,5.09-15.69a5.25,5.25,0,0,1,.71-1.49,1.59,1.59,0,0,1,2.68,0,5.29,5.29,0,0,1,.7,1.48c1.71,5.2,3.39,10.41,5.09,15.61a2.39,2.39,0,0,0,2.69,1.93h16.39a5.09,5.09,0,0,1,1.56.18,1.63,1.63,0,0,1,.81,2.67,4.71,4.71,0,0,1-1,.91q-6.62,4.83-13.24,9.63c-1.44,1.05-1.67,1.79-1.13,3.46q2.5,7.73,5,15.46a5.53,5.53,0,0,1,.28,1.39,1.65,1.65,0,0,1-2.39,1.67,5.41,5.41,0,0,1-1.09-.63l-13.44-9.76a2.39,2.39,0,0,0-3.19,0c-4.46,3.24-8.91,6.5-13.39,9.71a4.6,4.6,0,0,1-1.84.8,1.47,1.47,0,0,1-1.69-1.55,5.19,5.19,0,0,1,.28-1.61q2.5-7.78,5-15.55a2.47,2.47,0,0,0-1.09-3.33l-13.3-9.68a5,5,0,0,1-.78-.67,1.71,1.71,0,0,1-.5-1.87,1.76,1.76,0,0,1,1.71-1.18c1.45-.05,2.91,0,4.36-.05Zm2.55,32.09.87-.62,11.65-8.46a4.76,4.76,0,0,1,6.13,0l7.61,5.54,4.9,3.54c-1.61-5-3.15-9.76-4.71-14.53a4.83,4.83,0,0,1,1.94-6.08l11.58-8.42c.22-.16.42-.34.78-.62H590a4.83,4.83,0,0,1-5.14-3.68q-1.92-5.88-3.82-11.78c-.28-.86-.57-1.71-.93-2.77-.16.45-.26.68-.33.92q-2.24,6.84-4.44,13.67a4.82,4.82,0,0,1-5,3.64H555.78c-.21,0-.43,0-.82.06l6,4.33c2.17,1.59,4.35,3.16,6.53,4.74a4.8,4.8,0,0,1,1.9,5.69c-.4,1.26-.81,2.51-1.22,3.76C567,189.4,565.78,193,564.54,196.85Z"/><circle class="cls-5" cx="481.61" cy="176.18" r="42.02"/><circle class="cls-6" cx="481.61" cy="176.18" r="39.12"/><circle class="cls-19" cx="490.79" cy="161.04" r="12.82"/><path class="cls-19" d="M477.13,170.86A13.72,13.72,0,0,0,489.6,178c-.53.74-1.42,2-1.92,2.72l-18.59,25.65c-.73,1-7-3.22-6.39-4.45q7-15,13.91-30C476.69,171.79,477,171.09,477.13,170.86Z"/></g></svg>