<svg xmlns="http://www.w3.org/2000/svg" viewBox="0 0 612 792"><defs><style>.cls-1{fill:#e26e95;}.cls-2,.cls-3,.cls-4,.cls-5{fill:#fff;}.cls-2{opacity:0.2;}.cls-3{opacity:0.4;}.cls-4{opacity:0.6;}</style></defs><title>KEAuction</title><g id="Background"><rect class="cls-1" x="-6.5" y="-4" width="620.5" height="936"/><rect class="cls-2" x="-13.5" y="127" width="634.5" height="134"/><rect class="cls-2" x="-19.5" y="529" width="634.5" height="134"/><rect class="cls-3" x="-17.5" y="261" width="634.5" height="134"/><rect class="cls-4" x="-17.5" y="395" width="634.5" height="134"/><rect class="cls-2" x="246.42" y="164.67" width="561.25" height="167.42" transform="translate(278.67 775.42) rotate(-90)"/><rect class="cls-2" x="-198.33" y="453.42" width="552.75" height="167.42" transform="translate(-459.08 615.17) rotate(-90)"/></g><g id="Layer_1" data-name="Layer 1"><path d="M304.36,313.49c.89-7.85,1.14-14.72,3.94-21.29,1.94-4.55,1.21-9.55-1.06-14-.94-1.84-.45-2.48,1.09-3a17.78,17.78,0,0,1,13.92,1.27c1.86,1,2,2.3.55,4-4.82,5.6-5.31,11.67-2.43,18.48s1.69,14.59,3,22.26A194.29,194.29,0,0,0,330.8,289c1.27-8.78,3.22-17.47,2.81-26.43a2.76,2.76,0,0,1,.66-2c.72-.61,1.29.17,1.84.7,9.72,9.2,21.42,15.51,32.84,22.17,3.61,2.11,5,4.37,5.08,8.53.13,9.32.86,18.63,1.35,27.94a65,65,0,0,1-.27,13.08c-1.75,11.92-.45,23.69,2.52,35.26a82.55,82.55,0,0,1,2.59,19.16c.2,11.58.94,23.15,1.47,34.71a75.46,75.46,0,0,1-.21,10.84c-.61,6.12-1.77,12.2-.77,18.43a12.81,12.81,0,0,1-.71,7.12c-3,6.25-2,12.5-.12,18.51,2.58,8.31-4.2,25.14-13.32,29.36-3.6,1.66-6.08.59-5.45-3.13.59-3.53-1.41-8.9,5.77-9.69-4.76.42-5.58-2-5.3-5.15a87.27,87.27,0,0,0-.16-16.64,9.28,9.28,0,0,1,1.13-5.24c.47-.93,1.24-2.08.31-2.92-5.11-4.64-3.68-11.15-4.57-16.81-3-19.3-3.8-38.92-8.2-58-1-4.14.19-8.69-2.08-13a7.59,7.59,0,0,0-1.67,8.79c7.1,17.07,7.51,35.29,8.62,53.22.65,10.46,1.54,21.34-2,31.74a10.17,10.17,0,0,0-.41,4c1,13.44-1.22,26.74-1.71,40.11-.14,4.06-.5,8.11-.81,12.16-.21,2.66-1.5,3.9-4.39,3.87-11.46-.13-22.92-.08-34.38,0-2.55,0-3.9-.86-4-3.6-.42-8.43-3.82-16.43-3.68-25,0-1.78-.86-3.41-2.91-4.84-.28,10.45-4.65,19.87-4.61,30,0,2.18-1,3.35-3.28,3.34q-16.74,0-33.47,0c-2.5,0-3.46-1.25-3.74-3.53-1.08-8.65-2.4-17.28-3.21-26-.31-3.28-1-4.73-4.66-5-10.84-.73-19.77-10.46-20-21.35-.15-6.32.53-12.68-.92-18.92-.33-1.45-.49-3.52-1.47-4.13-3.75-2.37-2.73-5.92-3-9.24-1.22-15.58-3.46-31.11-2.7-46.79a172.06,172.06,0,0,1,4.07-32c2.29-9.61,2.73-19.65,4-29.49,1.11-8.49,3.69-16.74,3.85-25.39a15.67,15.67,0,0,1,1.71-6.05c3.61-7.82,6.52-15.79,7.15-24.49.36-5,3.41-7.46,8.23-8.81,11.45-3.21,22.76-6.9,34.12-10.41,6.19-1.92,10.71-6.62,16.06-9.94,2.94-1.82,2.28-12.17-.35-14.75-2.92-2.85-4.38-12.32-2.26-16.69a9,9,0,0,0,.64-6.07,27.11,27.11,0,0,1,.74-13c.69-2.35,1.53-5.13,3.6-6.11,5.56-2.64,9-8,14.18-10.78,6.53-3.48,13.54-2.68,19.89.94A37.42,37.42,0,0,1,346.15,191c5.79,7.39,5.66,15.51,2.13,23.8-1,2.28-3,4.37.16,6.65a2.85,2.85,0,0,1,.54,3.4c-2.15,3.92-1.82,9-5.47,12.18a3.49,3.49,0,0,0-1.23,2.33c-.5,5-2.27,9.24-6.28,12.54-2.26,1.86-2,5-2.58,7.56-1.9,8-8.38,11.38-14.81,14.71-1.83.95-3.45-.47-4.73-1.84-3-3.19-6.1-6.27-8.87-9.64-2.05-2.49-3.3-2.24-4.29.59-2,5.63-4.76,11.12-2.84,17.44.61,2,.7,4.15,1.11,6.22C300.7,295.45,302.44,304,304.36,313.49Z"/><path class="cls-5" d="M68.86,396.17a17.94,17.94,0,0,0-.88-5.12,15,15,0,0,0-2-4,8.16,8.16,0,0,0-2.63-2.45,3.9,3.9,0,0,0-2.85-.46,3.18,3.18,0,0,1-1.41.25l-.24,0H59a2.82,2.82,0,0,1-2.4,0,2.5,2.5,0,0,1-1.14-1.62q-4.06,10.47-7.52,20.67T41.68,423.2v-.08c-.2.69-.71.86-1.53.52a9.64,9.64,0,0,1-2.63-1.76,14.94,14.94,0,0,1-2.46-2.81,3.7,3.7,0,0,1-.84-2.65q1.32-6.74,3.74-15t5.33-16.95q2.92-8.67,6.18-17.25t6.34-15.87a79,79,0,0,0-7.57,8.33q-3.67,4.63-6.92,9.68t-5.89,10.23a108,108,0,0,0-4.48,9.9,67.63,67.63,0,0,0-2.8,8.66,21.08,21.08,0,0,0-.73,6.58c.05.91-.41,1.36-1.39,1.34a7.07,7.07,0,0,1-3.27-1,12.28,12.28,0,0,1-3.36-2.89,6.5,6.5,0,0,1-1.57-4.23,10,10,0,0,1,.43-3.08,105,105,0,0,1,19.23-37.09,79.8,79.8,0,0,1,9.7-10.06,64,64,0,0,1,11-7.69,47,47,0,0,1,12.21-4.66l.08,0a18.07,18.07,0,0,1,7.57.07,12.88,12.88,0,0,1,5.59,2.86,13.12,13.12,0,0,1,3.45,5,18.16,18.16,0,0,1,1.23,6.43,13.38,13.38,0,0,1,0,2c-.07.55-.13,1.11-.2,1.66a36.68,36.68,0,0,1-2.48,8.6,37.14,37.14,0,0,1-4,7.14,36.1,36.1,0,0,1-5.23,5.77,48.3,48.3,0,0,1-5.86,4.46A20.19,20.19,0,0,1,74,381.9a22.25,22.25,0,0,1,3,3.4,19,19,0,0,1,2.21,3.95,17.37,17.37,0,0,1,1.16,4.21,34.27,34.27,0,0,1-2.92,15.26,42.92,42.92,0,0,1-9,13.09,52.58,52.58,0,0,1-13.75,9.86,60.45,60.45,0,0,1-17.12,5.58,31.43,31.43,0,0,1-9.32.16,23,23,0,0,1-8-2.51,16.5,16.5,0,0,1-5.58-4.85,11.51,11.51,0,0,1-2.15-6.77,14.93,14.93,0,0,1,1.3-5.92,31.15,31.15,0,0,1,3.63-6.5,15.29,15.29,0,0,1,2.78-.09c1.28,0,2.59.14,3.92.31a24.7,24.7,0,0,1,3.58.7c1.05.3,1.64.66,1.77,1.07A23.78,23.78,0,0,0,25,418.29a10,10,0,0,0-1.42,4.32,5.91,5.91,0,0,0,1.2,3.52,8.64,8.64,0,0,0,3.1,2.54,13.85,13.85,0,0,0,4.49,1.26,18.4,18.4,0,0,0,5.41-.19,40.53,40.53,0,0,0,11.63-4,40.18,40.18,0,0,0,10-7.4,35.59,35.59,0,0,0,7-10.05A26.57,26.57,0,0,0,68.86,396.17Zm2-53.92A21.19,21.19,0,0,0,66,343.93a28.68,28.68,0,0,0-4.87,3,13.88,13.88,0,0,1,2.36,1.4,11.75,11.75,0,0,1,2.15,2A8.62,8.62,0,0,1,67,352.8a4.26,4.26,0,0,1,.07,2.71q-2.76,5.85-5.29,11.71t-5,11.82l.58-.43A32,32,0,0,0,62,375.79a40.19,40.19,0,0,0,5.84-5.06,47,47,0,0,0,5.53-7A28.29,28.29,0,0,0,77.17,355c.21-1,.37-1.93.5-2.9a21.75,21.75,0,0,0,.17-2.91,16.32,16.32,0,0,0-.39-3.1,6,6,0,0,0-1.18-2.47,4.41,4.41,0,0,0-2.16-1.4A6.52,6.52,0,0,0,70.82,342.25Z"/><path class="cls-5" d="M116,398q-1.72,3.08-3.9,6.34a48.67,48.67,0,0,1-4.76,6.09,30.19,30.19,0,0,1-5.56,4.82,14.17,14.17,0,0,1-6.15,2.4,6.27,6.27,0,0,1-3.22-.32,5.26,5.26,0,0,1-2.31-1.74,8.11,8.11,0,0,1-1.35-2.8,13,13,0,0,1-.46-3.49,24.14,24.14,0,0,1,.7-5.17,30,30,0,0,1,1.62-4.76c.68-1.52,1.42-3,2.24-4.54s1.67-3,2.58-4.61l1.5-2.54v.08l1.81-3.09a6.48,6.48,0,0,1,1.41-1.88,12.52,12.52,0,0,1,3.1-1.93c-.7.29-1.29.51-1.74.68a10.35,10.35,0,0,0-1.21.5l-2,.84a8.54,8.54,0,0,1-2.33.58l-.79.14c-1.09,2-2.12,4-3.07,5.95s-1.85,3.76-2.68,5.48V395c-.16.35-.51.5-1.06.43a4.26,4.26,0,0,1-1.65-.56,5.1,5.1,0,0,1-1.38-1.13,1.05,1.05,0,0,1-.19-1.31v.08c1.17-2.26,2.14-4.24,2.92-5.92s1.49-3.18,2.12-4.49a4.93,4.93,0,0,1-.8-3.1,10.25,10.25,0,0,1,1-4.64c.67-1.42,1.45-3.08,2.36-5,.35-.76.73-1.62,1.13-2.55A27.05,27.05,0,0,0,95,363.43c.81.29,1.62.59,2.44.91a8.65,8.65,0,0,1,2.21,1.23,5.55,5.55,0,0,1,2.23,4.51c0,.49-.06,1-.12,1.61a9.1,9.1,0,0,1-.52,2.08l-2.67,4.14c-.21.36-.07.37.41,0s1.17-.87,2.07-1.63,1.9-1.64,3-2.65,2.21-2,3.27-3,2-1.93,2.8-2.78a18.22,18.22,0,0,0,1.64-1.92,2.4,2.4,0,0,1,1.27.26,13.86,13.86,0,0,1,1.57.82c.51.31,1,.61,1.37.89a4,4,0,0,1,.71.56,4.28,4.28,0,0,1,.58,3.19,18.75,18.75,0,0,1-1.36,4.43,51.68,51.68,0,0,1-2.71,5.32c-1.09,1.9-2.25,3.85-3.46,5.86-.72,1.1-1.42,2.2-2.09,3.3s-1.34,2.22-2,3.36c-.5.85-1,1.82-1.67,2.9s-1.21,2.18-1.77,3.29a25.44,25.44,0,0,0-1.38,3.21,8,8,0,0,0-.52,2.53q-.08.5.87.33a4.7,4.7,0,0,0,2.18-1,18.21,18.21,0,0,0,2.73-2.44,35.54,35.54,0,0,0,2.88-3.48,31.61,31.61,0,0,0,2.57-4.2l-.07,0c1.06-1.93,2.05-3.81,3-5.66s1.63-3.4,2.16-4.69a1.09,1.09,0,0,1,1.16-.33,4.49,4.49,0,0,1,1.66.64,4.56,4.56,0,0,1,1.36,1.26,1.2,1.2,0,0,1,.17,1.39l0-.17L118.89,392l-2.75,5.94Z"/><path class="cls-5" d="M139.74,361a6.67,6.67,0,0,1,5.16,2.24,12,12,0,0,1,2.6,5.23,7,7,0,0,1,1.58,2.48,18.58,18.58,0,0,1,.95,3.48,7,7,0,0,0,0,1.3,13.35,13.35,0,0,1,.07,1.53,30.85,30.85,0,0,1-.78,7.25,45.7,45.7,0,0,1-2.29,7.39,48,48,0,0,1-3.53,7.06A39.41,39.41,0,0,1,139,405a28,28,0,0,1-5.18,4.46,14.78,14.78,0,0,1-5.48,2.28,11.86,11.86,0,0,1-9-1.88q-3.9-2.72-5.3-9.61c-.1-.58-.18-1.2-.25-1.87s-.11-1.37-.14-2.13a27.53,27.53,0,0,1,1-7.36,46.1,46.1,0,0,1,2.77-7.69,47.18,47.18,0,0,1,4.25-7.34,42.2,42.2,0,0,1,5.41-6.29,29.76,29.76,0,0,1,6.14-4.51A17.61,17.61,0,0,1,139.74,361ZM138,382.72a1.4,1.4,0,0,1-1-1,8.33,8.33,0,0,1-.54-1.9,13.59,13.59,0,0,1-.21-2.28c0-.81,0-1.51,0-2.11a5.27,5.27,0,0,1,.62-2.18,11.14,11.14,0,0,1,1.31-2,16.62,16.62,0,0,1,1.46-1.61c.48-.46.87-.8,1.15-1a2.57,2.57,0,0,0-1.13,0,11.3,11.3,0,0,0-3.76,2.1A23.16,23.16,0,0,0,132,374.6a32.94,32.94,0,0,0-3.15,5.07,43.43,43.43,0,0,0-2.38,5.59,40.18,40.18,0,0,0-1.51,5.59,22.09,22.09,0,0,0-.45,5,9.31,9.31,0,0,0,1.13,4.95,3.52,3.52,0,0,0,3.77,1.56,7.8,7.8,0,0,0,3.76-1.69,18.7,18.7,0,0,0,3.5-3.59,33.38,33.38,0,0,0,3.07-4.9,44.51,44.51,0,0,0,2.44-5.63,42.36,42.36,0,0,0,1.58-5.69,21.07,21.07,0,0,0,.48-5l.09-.42a2.85,2.85,0,0,0-1.36.77,9.79,9.79,0,0,0-1.36,1.5,11.31,11.31,0,0,0-1.07,1.74A5.78,5.78,0,0,0,140,381Z"/><path class="cls-5" d="M156.05,362.17a3,3,0,0,1-2.32.42,2.15,2.15,0,0,1-1.39-1.18,3,3,0,0,1-.09-2.05,4.92,4.92,0,0,1,1.5-2.3q2.87-2.62,5.68-4.84t5.72-4.11A152.83,152.83,0,0,0,170.9,329a3.59,3.59,0,0,1,3-.49,9,9,0,0,1,3.45,1.54A9.83,9.83,0,0,1,180,332.9a4.82,4.82,0,0,1,.64,3.58l-1.57,4.43a60,60,0,0,1,10.23-2.81c.52-.09,1.21-.2,2.05-.32s1.54-.21,2.07-.25a5.87,5.87,0,0,1,.18,2.61,10.52,10.52,0,0,1-.75,2.81,10.3,10.3,0,0,1-1.4,2.41,3,3,0,0,1-1.77,1.21c-.54,0-1.1.1-1.68.17s-1.16.17-1.74.28a50.92,50.92,0,0,0-5.37,1.28,54.35,54.35,0,0,0-5.42,1.95c-.52,1.39-1,2.76-1.59,4.1s-1.08,2.63-1.62,3.87l-.45,1.13-1.86,4.56q-1.19,2.89-2.55,6.43c-.9,2.36-1.83,4.82-2.77,7.4s-1.81,5.07-2.57,7.45-1.38,4.57-1.84,6.55a19.32,19.32,0,0,0-.62,4.66.74.74,0,0,0-.09.42.29.29,0,0,1,0,.25l.55-.1a15.18,15.18,0,0,0,4-3.36,38.44,38.44,0,0,0,3.54-4.78,61.59,61.59,0,0,0,3.07-5.5c1-1.93,1.86-3.82,2.73-5.65h-.08a16.21,16.21,0,0,1,.78-1.56c.28-.51.55-1,.79-1.48s.5-.5,1.06-.43a4.93,4.93,0,0,1,1.67.51,4.31,4.31,0,0,1,1.42,1.09,1.28,1.28,0,0,1,.35,1.27l-2,4q-2.41,5.07-5.34,10.34a58.3,58.3,0,0,1-6.46,9.49,18.58,18.58,0,0,1-1.57,1.7,17.62,17.62,0,0,1-2.19,1.82,21.38,21.38,0,0,1-2.64,1.57,10.87,10.87,0,0,1-2.92,1,5.26,5.26,0,0,1-3-.35,5.14,5.14,0,0,1-2.06-1.79A8.7,8.7,0,0,1,150,402a17,17,0,0,1-.47-3.78q0-.88.06-1.92a12.52,12.52,0,0,1,.24-1.87,72.61,72.61,0,0,1,1.63-8.58c.73-2.89,1.56-5.78,2.51-8.65s2-5.75,3.05-8.6,2.2-5.64,3.34-8.39l.74-1.76-4.8,3.62Z"/><path class="cls-5" d="M215.44,378.51c-.75,1.55-1.77,3.44-3,5.67a70.28,70.28,0,0,1-4.34,6.63,40.56,40.56,0,0,1-5.11,5.74,10.83,10.83,0,0,1-5.36,2.95,8.71,8.71,0,0,1-3.26,0,5.73,5.73,0,0,1-2.77-1.41,7.74,7.74,0,0,1-1.88-3,13.1,13.1,0,0,1-.66-4.8,42.29,42.29,0,0,1,.55-4.89,50.2,50.2,0,0,1,1.19-5.17q.77-2.73,1.81-6t2.43-7.3a25.47,25.47,0,0,0,1-3.23,11,11,0,0,0,.34-2.38l-3.2,3.91q-2.61,3.06-4.79,6.14c-1.45,2-2.91,4.23-4.39,6.55q-1.91,5.72-3.33,11.36a68.71,68.71,0,0,0-1.87,11.35c-.1.61-.61,1-1.51,1.08a7.72,7.72,0,0,1-2.93-.25,10.54,10.54,0,0,1-2.9-1.22,2.62,2.62,0,0,1-1.43-1.86,62.26,62.26,0,0,1,1.22-10.21,107,107,0,0,1,2.7-10.56c1.1-3.56,2.33-7.13,3.68-10.74s2.73-7.17,4.1-10.72l2.24-5.6c.85-2.22,1.68-4.46,2.49-6.75s1.58-4.52,2.3-6.71,1.37-4.29,2-6.32,1-3.88,1.4-5.57a3.58,3.58,0,0,1,3-.49,8.92,8.92,0,0,1,3.44,1.54,9.73,9.73,0,0,1,2.68,2.89,4.81,4.81,0,0,1,.64,3.58c-.23.86-.64,2.1-1.25,3.72s-1.29,3.44-2.07,5.45-1.61,4.11-2.49,6.29-1.74,4.28-2.57,6.27l-1,2.29a34.33,34.33,0,0,1,4.83-4.11,16.07,16.07,0,0,1,5.12-2.46,3.18,3.18,0,0,1,2.34.59A9.6,9.6,0,0,1,207,352.8a9,9,0,0,1,1.58,2.89,5.39,5.39,0,0,1,.2,3q-1.32,4.38-2.67,8.24l-2.3,6.62Q203,376,202.23,378T201,382c-.34,1.31-.62,2.63-.84,4s-.38,2.78-.49,4.31a2,2,0,0,1,.47-.57l-.08,0a33.92,33.92,0,0,0,5.11-5.06,48.67,48.67,0,0,0,5.86-9c.53-1,1-1.89,1.49-2.79s.91-1.79,1.35-2.68l1.09-2.55c.16-.3.54-.43,1.14-.41a4.56,4.56,0,0,1,3.17,1.55,1.07,1.07,0,0,1,.19,1.31l0-.18-4,8.52Z"/><path class="cls-5" d="M244.14,357.29a47.09,47.09,0,0,1-21.51,23.27,10.85,10.85,0,0,0,1,4,3,3,0,0,0,2.73,1.87l-.17-.05a7,7,0,0,0,3.62-.89,19.49,19.49,0,0,0,4.32-3.09,39.42,39.42,0,0,0,4.64-5.18,55.55,55.55,0,0,0,4.57-7.15q1.16-2.16,2.17-4.42t2-4.29a2.83,2.83,0,0,1,1.73-1.44,2.57,2.57,0,0,1,1.9.18,2.69,2.69,0,0,1,1.24,1.49,3.25,3.25,0,0,1-.32,2.53l-1.46,3.19q-1.89,4-4.7,8.93A76.12,76.12,0,0,1,239.2,386a27.1,27.1,0,0,1-4.58,4.36A29.07,29.07,0,0,1,230.3,393a19.77,19.77,0,0,1-3.69,1.39c-1.12.28-2,.48-2.62.59q-6.13,1.1-9.49-2c-2.23-2-3.46-5.15-3.66-9.33a31.3,31.3,0,0,1,1.55-11.09,67.81,67.81,0,0,1,5.69-12.47,46.56,46.56,0,0,1,8.5-10.14,33.93,33.93,0,0,1,5.87-4.22,18.18,18.18,0,0,1,6.22-2.25,6.15,6.15,0,0,1,5.26,1.29c1.36,1.19,2,3,2,5.45a11.72,11.72,0,0,1-.42,3.36,20.26,20.26,0,0,1-1.47,3.8Zm-5.25-5.73a14.62,14.62,0,0,0-5.13,3.52,33.9,33.9,0,0,0-4.37,5.58,54.46,54.46,0,0,0-5.83,12.83,41.52,41.52,0,0,0,9.29-8.05,38.15,38.15,0,0,0,6.52-10.79v.08a4.16,4.16,0,0,0,.44-1.38c.06-.44.11-.83.16-1.17C240,351.43,239.59,351.22,238.89,351.56Z"/><path class="cls-5" d="M277.7,369.07q-1.72,3.07-3.9,6.35a51.19,51.19,0,0,1-4.76,6.09,31.25,31.25,0,0,1-5.56,4.82,14.17,14.17,0,0,1-6.15,2.4,6.31,6.31,0,0,1-3.23-.32,5.29,5.29,0,0,1-2.3-1.74,8.2,8.2,0,0,1-1.35-2.8,13.1,13.1,0,0,1-.47-3.5,24.78,24.78,0,0,1,.7-5.16,30,30,0,0,1,1.63-4.76c.67-1.53,1.42-3,2.23-4.54s1.68-3,2.59-4.61l1.5-2.54v.08l1.8-3.09a6.86,6.86,0,0,1,1.41-1.88,12.33,12.33,0,0,1,3.11-1.93c-.71.28-1.29.51-1.75.67s-.86.33-1.21.5l-2,.84a8.19,8.19,0,0,1-2.33.58l-.79.15c-1.1,2-2.12,4-3.08,5.95s-1.84,3.76-2.67,5.48l0-.08c-.15.35-.51.49-1.06.43a4.22,4.22,0,0,1-1.64-.56,5,5,0,0,1-1.38-1.13,1.06,1.06,0,0,1-.2-1.31l0,.08c1.16-2.27,2.14-4.24,2.92-5.93s1.49-3.17,2.12-4.48a4.89,4.89,0,0,1-.8-3.11,10.3,10.3,0,0,1,1-4.64c.66-1.42,1.45-3.07,2.36-5,.35-.76.72-1.62,1.12-2.56a27.84,27.84,0,0,0,1.15-3.37l2.43.9a8.93,8.93,0,0,1,2.21,1.23,6,6,0,0,1,1.6,1.87,5.73,5.73,0,0,1,.63,2.65c0,.49,0,1-.11,1.6a9.73,9.73,0,0,1-.52,2.09L260.28,349c-.2.37-.07.38.42.05s1.17-.87,2.06-1.63,1.9-1.64,3-2.65,2.21-2,3.28-3,2-1.92,2.79-2.77A19.54,19.54,0,0,0,273.5,337a2.32,2.32,0,0,1,1.27.26,12.29,12.29,0,0,1,1.56.82c.52.31,1,.61,1.38.89a4.47,4.47,0,0,1,.71.56,4.23,4.23,0,0,1,.57,3.19,18.42,18.42,0,0,1-1.36,4.43,54.65,54.65,0,0,1-2.7,5.32q-1.65,2.85-3.46,5.86c-.73,1.1-1.42,2.2-2.09,3.3s-1.34,2.21-2,3.36c-.5.85-1.06,1.81-1.67,2.9s-1.21,2.18-1.77,3.28a25.23,25.23,0,0,0-1.38,3.21,7.8,7.8,0,0,0-.52,2.54q-.07.49.87.33a4.85,4.85,0,0,0,2.18-1,19.89,19.89,0,0,0,2.73-2.44,35.52,35.52,0,0,0,2.87-3.48,30.65,30.65,0,0,0,2.58-4.2h-.08q1.6-2.88,3-5.65t2.17-4.69a1.08,1.08,0,0,1,1.16-.33,4.82,4.82,0,0,1,3,1.9,1.22,1.22,0,0,1,.17,1.39l.05-.17L280.6,363,277.84,369Z"/><path class="cls-5" d="M346.43,345a1.91,1.91,0,0,1-1.9-.39,9.11,9.11,0,0,1-2.11-2A8.89,8.89,0,0,1,341,340a2,2,0,0,1,.23-2.11q6.63-2.89,13.26-5.55T368,327.65q7.64-9.5,14.57-18.66T395,292.29q5.55-7.53,9.27-12.87t4.91-7.34c.39-.23.93-.14,1.63.28a9.4,9.4,0,0,1,2.11,1.77,21.13,21.13,0,0,1,1.95,2.5,10.7,10.7,0,0,1,1.23,2.34c.51.12.67.44.49,1v-.08a71.45,71.45,0,0,1-2.36,6.77q-1.58,3.93-3.57,8.64t-4.44,9.93q-2.45,5.24-5,10.72t-5,11q-2.55,5.54-4.82,10.78t-4.18,10c-1.27,3.18-2.34,6.06-3.2,8.66a55.3,55.3,0,0,0-1.85,6.67,8.12,8.12,0,0,0-.09,4.07l1,1.12a2.49,2.49,0,0,1,1.29,1.8,4,4,0,0,1-.21,2.23,3.49,3.49,0,0,1-1.36,1.67,2.33,2.33,0,0,1-2.16.18,7.87,7.87,0,0,1-3.9-.4,5.62,5.62,0,0,1-2.51-2,8.77,8.77,0,0,1-1.33-3.13,19.69,19.69,0,0,1-.45-3.9,31.8,31.8,0,0,1,.23-3.7,37.68,37.68,0,0,1,.63-3.73q.41-1.81.84-3.48c.29-1.11.57-2.09.85-3q3.45-9.81,7.88-19.53c-.64.06-1.27.14-1.9.26l-1.81.32c-.9.16-1.77.33-2.63.51s-1.74.38-2.62.59l-3.06,3.8.08,0-3.91,4.93-7.54,9.39q-3.88,4.85-8,9.52t-8.42,9a103.51,103.51,0,0,1-8.72,7.81,63,63,0,0,1-8.92,6,35.85,35.85,0,0,1-9,3.53,25.35,25.35,0,0,1-11.26.39,16.87,16.87,0,0,1-8-4.06,18.23,18.23,0,0,1-4.74-7.4,30.1,30.1,0,0,1-1.66-9.53,40.86,40.86,0,0,1,7.17-23,38.73,38.73,0,0,1,8.92-9.16,30.8,30.8,0,0,1,12.29-5.33,14.49,14.49,0,0,1,9.56,1,15.32,15.32,0,0,1,6.45,6.73l.14.38a8,8,0,0,1,.08,2.67,18.88,18.88,0,0,1-.64,3.49,7.75,7.75,0,0,1-1.2,2.61c-.48.63-1,.64-1.61,0a31.09,31.09,0,0,0-2.2-2.94,15.87,15.87,0,0,0-3-2.75,13.84,13.84,0,0,0-3.71-1.9,8.43,8.43,0,0,0-4.24-.3,23.31,23.31,0,0,0-9.41,3.48,25.79,25.79,0,0,0-6.85,6.46,29.06,29.06,0,0,0-4.14,8.18,27.52,27.52,0,0,0-1.39,8.54,18.38,18.38,0,0,0,1.07,6.22,12.34,12.34,0,0,0,3.15,4.88,11.79,11.79,0,0,0,5.33,2.79,18.21,18.21,0,0,0,7.56,0l1.14-.2a9.29,9.29,0,0,0,1.21-.3,31.41,31.41,0,0,0,10.15-5,87.54,87.54,0,0,0,10.78-9.2q5.54-5.46,11.26-12.21t11.51-14.05q-3.31,1.5-6.64,3.31c-2.22,1.21-4.5,2.59-6.82,4.14Zm34-20.31c2-.36,4-.64,5.94-.82,1.46-3.07,2.95-6.15,4.49-9.21s3.06-6.14,4.56-9.23l-7.31,9.52Z"/><path class="cls-5" d="M425.23,310.4a3.38,3.38,0,0,1,2.82-.34,8.39,8.39,0,0,1,3.31,1.68,9.59,9.59,0,0,1,2.5,3.05,5.26,5.26,0,0,1,.46,3.73c-.13.46-.39,1.18-.75,2.17s-.76,2.09-1.19,3.3l.05-.17q-1,2.87-2.33,6.51c-.87,2.43-1.68,4.83-2.45,7.18s-1.41,4.55-1.92,6.56a21.35,21.35,0,0,0-.76,4.81l-.2.69.78-.14a15.49,15.49,0,0,0,4.07-3.41,37.87,37.87,0,0,0,3.58-4.95q1.67-2.73,3.16-5.72c1-2,1.93-3.91,2.79-5.75l1.16-2.56a2.58,2.58,0,0,1,1.62-1.43,2.48,2.48,0,0,1,1.86.2,2.67,2.67,0,0,1,1.25,1.52,3.58,3.58,0,0,1-.3,2.65l-1.67,3.39q-2.51,5.08-5.37,10.39a54.84,54.84,0,0,1-6.56,9.62,17.34,17.34,0,0,1-1.57,1.71,17.58,17.58,0,0,1-2.19,1.81,19.68,19.68,0,0,1-2.65,1.57,10.72,10.72,0,0,1-2.91,1,4.91,4.91,0,0,1-5.17-2.08,12.52,12.52,0,0,1-1.76-6.67v-.08c-.76,1.22-1.53,2.37-2.31,3.46s-1.6,2.11-2.45,3.08a18.58,18.58,0,0,1-1.57,1.7,17.58,17.58,0,0,1-2.19,1.81,18.69,18.69,0,0,1-2.65,1.57,10.72,10.72,0,0,1-2.91,1,4.75,4.75,0,0,1-5.05-2.1,12.49,12.49,0,0,1-1.71-6.6c0-.6,0-1.25,0-1.95a12.17,12.17,0,0,1,.17-2c.21-1.23.5-2.65.86-4.26s.8-3.29,1.3-5l1.55-5.39c.53-1.86,1.05-3.7,1.53-5.52q1.25-4.37,2.33-8.34c.71-2.64,1.27-4.84,1.66-6.59l.75-1.27a3.35,3.35,0,0,1,2.82-.35,8.35,8.35,0,0,1,3.31,1.69,9.39,9.39,0,0,1,2.49,3,5.18,5.18,0,0,1,.47,3.74c-.18.52-.44,1.3-.8,2.34s-.79,2.22-1.31,3.56l.06-.09q-1.11,2.88-2.38,6.4t-2.37,7q-1.1,3.45-1.81,6.46a18.84,18.84,0,0,0-.66,4.71l-.21.69.71-.13a15.37,15.37,0,0,0,4-3.36,39.2,39.2,0,0,0,3.54-4.78,60.41,60.41,0,0,0,3.07-5.51c1-1.93,1.86-3.81,2.73-5.64h-.08a7.65,7.65,0,0,1,.41-.88c.16-.3.32-.6.49-.9l1.46-5q1.38-4.54,2.56-8.66t1.66-6.8Z"/><path class="cls-5" d="M476,326.91q-1.89,4-4.7,8.93a75.43,75.43,0,0,1-6.66,9.76A26.7,26.7,0,0,1,460,350a29.59,29.59,0,0,1-4.32,2.64A19.77,19.77,0,0,1,452,354c-1.12.29-2,.48-2.62.59q-6.13,1.11-9.49-1.95c-2.23-2-3.46-5.15-3.66-9.34a31,31,0,0,1,1.55-11.08,68.14,68.14,0,0,1,5.68-12.48,46.45,46.45,0,0,1,3.58-5,44.93,44.93,0,0,1,4.93-5.15,33.8,33.8,0,0,1,5.86-4.21,18.28,18.28,0,0,1,6.22-2.26,6.06,6.06,0,0,1,5.23,1.3,6.73,6.73,0,0,1,2,5.3,14.23,14.23,0,0,1-1.71,6.8,3.76,3.76,0,0,1-1.71,1.57,2.06,2.06,0,0,1-1.7,0,2.59,2.59,0,0,1-1.22-1.33,4,4,0,0,1-.22-2.39,5.48,5.48,0,0,0,.65-2.72.66.66,0,0,0-.22-.57c-.16-.11-.44-.07-.84.11a15.31,15.31,0,0,0-5.71,4.19A40.9,40.9,0,0,0,453.8,322a49.72,49.72,0,0,0-3.55,7.41,42.22,42.22,0,0,0-2,6.58l-.3,3.3a17.79,17.79,0,0,0,.25,2.35,8.18,8.18,0,0,0,.66,2.08,4.92,4.92,0,0,0,1.18,1.58,2.8,2.8,0,0,0,1.71.71l-.17-.06a7,7,0,0,0,3.62-.89,19.07,19.07,0,0,0,4.32-3.09,39.29,39.29,0,0,0,4.64-5.17,55.7,55.7,0,0,0,4.57-7.16q1.15-2.16,2.17-4.41t2-4.29a2.88,2.88,0,0,1,3.74-1.32,2.29,2.29,0,0,1,1.23,1.44,3.56,3.56,0,0,1-.42,2.64Z"/><path class="cls-5" d="M475.37,305a3,3,0,0,1-2.32.42,2.15,2.15,0,0,1-1.39-1.18,3,3,0,0,1-.09-2.05,4.87,4.87,0,0,1,1.5-2.3q2.87-2.62,5.68-4.84t5.72-4.11a151.15,151.15,0,0,0,5.75-19.15,3.59,3.59,0,0,1,3-.49,9,9,0,0,1,3.45,1.54,9.7,9.7,0,0,1,2.67,2.89,4.77,4.77,0,0,1,.64,3.58l-1.56,4.43a59.61,59.61,0,0,1,10.22-2.81l2-.33q1.28-.18,2.07-.24a5.83,5.83,0,0,1,.18,2.6,10.69,10.69,0,0,1-.75,2.82,10,10,0,0,1-1.4,2.4A3,3,0,0,1,509,289.4c-.54,0-1.1.1-1.68.17l-1.74.27a48.62,48.62,0,0,0-5.37,1.29,54.35,54.35,0,0,0-5.42,1.95c-.51,1.39-1,2.76-1.59,4.1s-1.08,2.63-1.62,3.86l-.45,1.14-1.86,4.56q-1.19,2.89-2.55,6.43t-2.78,7.4c-.94,2.58-1.8,5.07-2.56,7.45s-1.38,4.57-1.84,6.54a19.45,19.45,0,0,0-.62,4.67.72.72,0,0,0-.09.42.3.3,0,0,1,0,.25l.55-.1a15.37,15.37,0,0,0,4-3.36,39.2,39.2,0,0,0,3.54-4.78,60.41,60.41,0,0,0,3.07-5.51q1.44-2.89,2.73-5.64h-.08a16.21,16.21,0,0,1,.78-1.56c.28-.51.55-1,.79-1.48s.5-.5,1.06-.44a5.19,5.19,0,0,1,1.67.52,4.28,4.28,0,0,1,1.42,1.08,1.28,1.28,0,0,1,.35,1.28l-2,4q-2.41,5.07-5.33,10.34a59,59,0,0,1-6.47,9.49,18.58,18.58,0,0,1-1.57,1.7,17.58,17.58,0,0,1-2.19,1.81,19.15,19.15,0,0,1-2.64,1.57,10.9,10.9,0,0,1-2.92,1,5.17,5.17,0,0,1-3-.36,5,5,0,0,1-2.06-1.78,8.79,8.79,0,0,1-1.25-2.86,17.12,17.12,0,0,1-.47-3.78q0-.9.06-1.92a12.52,12.52,0,0,1,.24-1.87,72.22,72.22,0,0,1,1.63-8.58q1.08-4.34,2.51-8.66c.95-2.87,2-5.74,3.05-8.59s2.2-5.64,3.33-8.39l.75-1.76-4.8,3.62Z"/><path class="cls-5" d="M501.67,296.72a3.2,3.2,0,0,1,2.79-.3,8,8,0,0,1,3.15,1.71,8.48,8.48,0,0,1,2.26,3.09,5,5,0,0,1,.12,3.84c.09-.13.05,0-.1.34s-.37.83-.64,1.42-.58,1.27-.94,2-.65,1.47-.92,2.12q-1,2.29-2.29,5.08t-2.49,5.64q-1.23,2.87-2.33,5.58t-1.82,4.8a29.62,29.62,0,0,0-1,3.3c-.17.82-.11,1.2.21,1.15l.55-.1a17.8,17.8,0,0,0,4.5-3.45,37.87,37.87,0,0,0,4-4.89q1.83-2.68,3.5-5.63t3.22-5.65l1.07-2.14a1.14,1.14,0,0,1,1.23-.43,3.88,3.88,0,0,1,1.62.69,4.17,4.17,0,0,1,1.26,1.32,1.3,1.3,0,0,1,.08,1.4l.05-.17q-3,5.82-7,12a95.42,95.42,0,0,1-8.18,11.05c-.46.47-1,1-1.7,1.65a20.69,20.69,0,0,1-2.23,1.82,20.2,20.2,0,0,1-2.64,1.57,10.59,10.59,0,0,1-2.84,1c-2.05.31-3.58-.24-4.56-1.67a10.15,10.15,0,0,1-1.55-5.69,27.48,27.48,0,0,1,.77-5.66l-.06.09a77.14,77.14,0,0,1,2.89-9.94q2-5.73,4.24-11.49c.94-2.61,1.86-5.14,2.74-7.6s1.61-4.69,2.18-6.69Zm7.66-26.24a2.93,2.93,0,0,1,2.43.66,19.41,19.41,0,0,1,3,2.4,21,21,0,0,1,2.47,2.89,4.33,4.33,0,0,1,1,2.22A24.06,24.06,0,0,1,517,283l-1.53,3.93-1.58,4.1a37.55,37.55,0,0,0-1.45,4.81,5.12,5.12,0,0,1-2.22-.78,13,13,0,0,1-2.3-1.74,11.56,11.56,0,0,1-1.81-2.2,3.9,3.9,0,0,1-.74-2.06c.08-1.1.22-2.31.45-3.65s.49-2.75.83-4.21.63-3,.9-4.47a36.81,36.81,0,0,0,.53-4.32Z"/><path class="cls-5" d="M538,289.64a6.65,6.65,0,0,1,5.15,2.24,12,12,0,0,1,2.6,5.23,6.74,6.74,0,0,1,1.58,2.48,17.85,17.85,0,0,1,.95,3.48,7,7,0,0,0,0,1.3,13.35,13.35,0,0,1,.07,1.53,31.36,31.36,0,0,1-.77,7.25,47.78,47.78,0,0,1-2.29,7.39,49,49,0,0,1-3.53,7.06,39.45,39.45,0,0,1-4.52,6.09,27.62,27.62,0,0,1-5.17,4.46,14.82,14.82,0,0,1-5.49,2.28,11.86,11.86,0,0,1-9-1.88q-3.9-2.71-5.29-9.61c-.11-.58-.19-1.2-.26-1.87s-.11-1.37-.13-2.13a27.51,27.51,0,0,1,.95-7.36,46.82,46.82,0,0,1,7-15,42.25,42.25,0,0,1,5.42-6.29,29.23,29.23,0,0,1,6.14-4.51A17.49,17.49,0,0,1,538,289.64Zm-1.79,21.77a1.42,1.42,0,0,1-1-1,9.49,9.49,0,0,1-.54-1.9,12.65,12.65,0,0,1-.2-2.28c0-.81,0-1.51,0-2.11a5.44,5.44,0,0,1,.63-2.18,11.1,11.1,0,0,1,1.3-2,19.69,19.69,0,0,1,1.46-1.61,13.47,13.47,0,0,1,1.16-1,2.29,2.29,0,0,0-1.13,0,11.11,11.11,0,0,0-3.77,2.09,23.16,23.16,0,0,0-3.79,3.81,33.73,33.73,0,0,0-3.15,5.07,44.82,44.82,0,0,0-2.37,5.59,40.25,40.25,0,0,0-1.52,5.59,22.68,22.68,0,0,0-.45,5,9.31,9.31,0,0,0,1.13,4.95,3.55,3.55,0,0,0,3.78,1.56,7.85,7.85,0,0,0,3.76-1.69,19,19,0,0,0,3.5-3.59,33.77,33.77,0,0,0,3.06-4.89,44.7,44.7,0,0,0,2.45-5.64,42,42,0,0,0,1.58-5.69,22.15,22.15,0,0,0,.48-5l.08-.42a2.85,2.85,0,0,0-1.36.77,10.34,10.34,0,0,0-1.36,1.5,12.15,12.15,0,0,0-1.07,1.74,5.78,5.78,0,0,0-.57,1.56Z"/><path class="cls-5" d="M592.55,311q-1.12,2.31-3,5.66a68.36,68.36,0,0,1-4.34,6.63,40.55,40.55,0,0,1-5.1,5.75A11,11,0,0,1,574.7,332a8.71,8.71,0,0,1-3.26,0,5.6,5.6,0,0,1-2.77-1.41,7.63,7.63,0,0,1-1.88-3,13.07,13.07,0,0,1-.66-4.8,42.27,42.27,0,0,1,.54-4.89,53,53,0,0,1,1.19-5.17c.52-1.82,1.12-3.81,1.82-6s1.5-4.59,2.43-7.3a23.81,23.81,0,0,0,1-3.23,11.06,11.06,0,0,0,.35-2.37l-3.2,3.9c-1.88,2.23-3.58,4.43-5.12,6.6s-3.07,4.54-4.62,7.09a106.71,106.71,0,0,0-3,10.82,76.16,76.16,0,0,0-1.62,10.89c-.11.62-.61,1-1.51,1.08a7.9,7.9,0,0,1-2.93-.24,10.26,10.26,0,0,1-2.9-1.23,2.6,2.6,0,0,1-1.43-1.86,55.65,55.65,0,0,1,.61-7.22q.54-3.54,1.38-7.07c.55-2.35,1.18-4.68,1.87-7l2.12-7c.81-2.74,1.6-5.42,2.38-8s1.45-5.1,2-7.47a3,3,0,0,1,2.31-.45,8.87,8.87,0,0,1,2.89.9,10,10,0,0,1,2.62,1.93,7.07,7.07,0,0,1,1.69,2.66,48.12,48.12,0,0,1,6-6,16.51,16.51,0,0,1,6.54-3.44,3.3,3.3,0,0,1,2.34.59,10,10,0,0,1,2.28,2.07,9.11,9.11,0,0,1,1.57,2.89,5.4,5.4,0,0,1,.21,3q-1.33,4.38-2.67,8.24c-.9,2.57-1.66,4.78-2.31,6.63-.57,1.62-1.11,3.11-1.59,4.47s-.9,2.69-1.24,4-.61,2.63-.83,4-.39,2.78-.49,4.32a1.65,1.65,0,0,1,.47-.57h-.08a33.92,33.92,0,0,0,5.1-5.06,47.83,47.83,0,0,0,5.87-9c.53-1,1-1.89,1.49-2.79s.91-1.78,1.35-2.68l1.09-2.55c.16-.3.54-.43,1.14-.4a4.41,4.41,0,0,1,1.75.45,4.52,4.52,0,0,1,1.41,1.09,1.07,1.07,0,0,1,.2,1.31l0-.17-4,8.51Z"/></g></svg>