<svg xmlns="http://www.w3.org/2000/svg" xmlns:xlink="http://www.w3.org/1999/xlink" viewBox="0 0 1222.31 792"><defs><style>.cls-1,.cls-9{fill:none;}.cls-2{fill:#43aee3;}.cls-3{clip-path:url(#clip-path);}.cls-4,.cls-5{fill:#231f20;}.cls-10,.cls-11,.cls-12,.cls-14,.cls-15,.cls-16,.cls-17,.cls-19,.cls-21,.cls-24,.cls-25,.cls-4,.cls-7,.cls-8,.cls-9{stroke:#231f20;stroke-miterlimit:10;}.cls-6,.cls-7{fill:#f9c9d3;}.cls-23,.cls-8{fill:#eabea3;}.cls-10{fill:#e5bfa0;}.cls-11{fill:#e9bfa3;}.cls-12{fill:#e1e321;}.cls-13{fill:#361800;}.cls-14{fill:#9a3d3d;}.cls-15{fill:#8f3936;}.cls-16{fill:#fff;}.cls-17{fill:#7d4e1c;}.cls-18{fill:#5c3708;}.cls-19{fill:#f9a460;}.cls-20{fill:#472700;}.cls-21{fill:#e1b6af;}.cls-22{clip-path:url(#clip-path-2);}.cls-24{fill:#faf6e3;}.cls-25{fill:#ccae99;}.cls-26{fill:#037db9;}</style><clipPath id="clip-path"><polyline class="cls-1" points="635.33 1.13 1245.8 1.13 1245.8 793.09 635.33 793.09"/></clipPath><clipPath id="clip-path-2"><rect class="cls-1" x="3" y="1.13" width="610.47" height="791.96"/></clipPath></defs><title>TZ and GTA</title><g id="Background"><rect class="cls-2" x="-33.08" y="-22.16" width="1279.47" height="864.33"/></g><g id="Layer_3" data-name="Layer 3"><g class="cls-3"><path class="cls-4" d="M1026.9,263.52a49,49,0,0,0,.47,9c.3,2.55.61,4.55.61,4.55l-3.82-.28-6.78-.49-1.43-.11c1.12-1.38,2.19-2.75,3.2-4.09.63-.83,1.23-1.65,1.82-2.45l.26-.36c1.18-1.64,2.28-3.23,3.29-4.74"/><path class="cls-4" d="M860.88,228.74,851,233.07c-13.86,4.06-12.25,0-12.25,0L828.63,212.8l9.14-21.29s43.47,23.68,50.21,23c0,0-48.82,13.83-34.52,7.75a17.08,17.08,0,0,0,7.22-5.59C859.64,218.13,853.68,227,860.88,228.74Z"/><path class="cls-5" d="M1131.89,724.68s22-6.66,29.67,4.67,12,18.5,10.33,24-9.66,38.33-9.66,38.33l-25-8Z"/><path class="cls-6" d="M1163,786.27a26.35,26.35,0,0,0-4.14-2.25c-2-.56-8.33-.34-8.33-.34l-13.33,8.67.66,3.17h26.17Z"/><path class="cls-4" d="M1057.73,304s15.16,5,24.83,14.67,45.18,24.78,45.18,24.78,14.15,2.74,21.49,12,9.66,24.91,9.66,24.91l-2,15-1.33,65.33,5.5,9.67-4.83,15,9,18.17,1.16,34,19.5,69.66v54.34l-2.5,48.83-1.5,21-1.5,21-10.16,6.5-6.17,36.67h-4l2.17-3.84,2.16-14.66,2.34-15.34s3.16-10.66,2.66-13.83-.16-11.83-11.66-18.5-24.34,3.17-24.34,3.17l-6.5,4-100-443.5Z"/><path class="cls-4" d="M1059,343h49.91l38.34,71,9,141.33L1168.89,576l7.34,41.33L1156.89,712l-29,12.66,1,34.34s4.67-4.34,1.67,4.33-2.67,20.67-2.67,20.67,1.34,3.33,8,3.33,11.34-5,11.34-5l3.33,1.33s-1.33,6.67-10,8l-2.67,3.84L1111,797,988.89,526Z"/><path class="cls-4" d="M1057.73,666s4.16,17.33,3.5,75.33l-.67,58L984.23,798,842.89,418V382.35l23.67-45.9Z"/><polygon class="cls-4" points="937.97 272.89 945.01 291.52 942.48 289.76 936.73 272.51 937.97 272.89"/><path class="cls-4" d="M974.23,301.52c-.5,1.33-7.67.5-9.17-.93"/><line class="cls-4" x1="966.56" y1="281.62" x2="968.03" y2="286.69"/><path class="cls-4" d="M1003.33,268.6l2.31.24a14.29,14.29,0,0,1-.16,2.46c-.19,1.36-.41,2.69-.69,4"/><path class="cls-4" d="M1024.23,269.52s-1,1-2.68,2.65l-4.17,4.08c-2.7,2.6-6,5.74-9.48,9,2.94-3,5.62-6.11,8.05-9.1,1.12-1.38,2.19-2.75,3.2-4.09.63-.83,1.23-1.65,1.82-2.45Z"/><path class="cls-7" d="M863,394l41,21.25-57-12.5,31.25,51,81.5,100.75,81,89.75S1057.48,672,1059,680.52l-1.25-14.5L1038,611.27,914,307.77,864,343"/><path class="cls-7" d="M860.83,395l27.4,14-44.5-9.5,2.5,9.5L864,443l74.22,94,49.5,56,51.5,56.5s12.5,8.5,15.5,30.5,3,115.5,3,115.5L811.23,793l-3-16.5v-83s-6.5-67-6.5-68.5-3-47.5-3-47.5L787.23,516l-4-77,36-135.5,53-15L864,343v9.5L861.21,390Z"/><path class="cls-4" d="M763.23,293s-13,14-17,24-33.5,56-33.5,56-5.69,1.61-7,3c-4,4.21-3.23,8.75-10,21s-21.62,20.68-27,29c-5.86,9-11.5,41.5-11.5,41.5s-.09,51.48,8,66c2.33,4.19,12.33,14.83,12.33,14.83s15.33,17,22.17,20.17c5.55,2.57,24.5,0,24.5,0a111.8,111.8,0,0,1,18-4.43c10-1.57,16-2.07,36-40.07l12.5,40.07,4.5,8.93,2.7,62.5s10.8,77.5,8.8,82.5-2.5,75-2.5,75h7V700l-8-62,4-5.5-3.5-51.5,15.5,39s-25.5-75-25.5-77,.5-17,.5-17l16,34.5,5.5,7.5-6.5-17s-4.5-66.5-3.5-68.5l-4-6,11-49,25-65.5,0-9.5Z"/><polygon class="cls-5" points="795.23 258.51 782.23 265.01 788.73 272.51 795.23 258.51"/><path class="cls-7" d="M785.73,488.52s-16.5,63.5-36,69-47,10-52.5,3-13.12-10.87-17-15c-3.6-3.84-6-9.93-8.5-19.22s-12-52.78-9.5-62.28,5.5-25.5,5.5-25.5,3-12,7-15.5,19-18.5,19-18.5l16.5-25,8.5-7.5s18.5-27,20-30,24.5-44,24.5-44l58.5,21.5s17,27.5,16,33S785.73,488.52,785.73,488.52Z"/><path class="cls-4" d="M832.64,282.4l-10.91,37.12s-4,4-2.5,5.5,12,23,10.5,26,3,14.5-38.5-18l-28-35v-5l5.27-4.5,5.73-6.12,14.59-29.9Z"/><path class="cls-8" d="M882.64,171.59c-2.83-.5-11.49,0-11.49,0l-6.08-4.73s-6.75-.68-12.15,3.37h0A109.67,109.67,0,0,1,842.77,177L835,180.16s-26.5,4.27-28.72,11.7c-6,20.24-22.29,77.7-22.29,77.7L768.5,300.4l23.39,26,4.93,4.7,9.46,5.4,26.36-54.05,33.1-23.65s11.09-8.1,12.84-12.16c1.13-2.64,0-11.49,0-11.49s12.95-20.61,14.87-28.38c1-3.94,0-16.21,0-16.21s6.08-2,6.08-7.44S887.67,172.46,882.64,171.59Zm-29.73,61.48c-11.12,4.06-9.83,0-9.83,0l-10.44-18.56L840.07,202a36,36,0,0,0,9.46,0s-6.08,26.35,5.4,20.27a14.65,14.65,0,0,0,5.79-5.59c-.83,1.46-5.62,10.32.16,12.07Z"/><path class="cls-8" d="M871.15,171.58S884,181,884.66,185.77s0,21.62,0,21.62-4.94,3.56-9.41-.28a15.28,15.28,0,0,1-4.1-6.69,122.22,122.22,0,0,0-10.81-22.76s-.35-5.79-20.74.62l13.3-8.05S863.71,159.42,871.15,171.58Z"/><path class="cls-9" d="M860.72,216.67l.11-.19h0c4.47-7.75,4.24-14.05,2.88-18.53-1.8-5.93-8.51-17.89-14.22-20.27-1.51-.63-6.42,1.1-6.42,1.1L835,180.16"/><path class="cls-9" d="M893.44,190.5s-4,1.39-8.78-4.73"/><path class="cls-10" d="M860.52,214.59s-.79-4.07-5.29-2.07l-3,5.56,2.7,4.18Z"/><path class="cls-11" d="M873.26,216s-2.64-3.34-5.57,0-2.62,9.74-2.62,9.74l4.08.69Z"/><path class="cls-11" d="M884.66,195s-7.43-1.5-5.93,4.5l1.5,6,4.43,1.87"/><path class="cls-11" d="M892.1,175.66s-4.74,8.3,1.34,7.86l6.08-.45"/><path class="cls-7" d="M1083.23,339.52l24,45.5-17,8,35.5,4s0,31-5,55-16.25,54-16.25,54l-46.75,96-14.18,27.24L1012.23,542l38.5-212Z"/><path class="cls-7" d="M1083.23,339.52l20.5,29,7.5,16-10.17,6.5,28.17,2.33s.33,23.33-2.34,40-13,58.83-18.83,70.67-43.33,89.66-43.33,89.66l-16.67,35.58L1059,670.18l1.58,129.17,61.83-2.83-.16-58.5,1-49.67-3-32.67-.67-43V562.52l5.33-25.34,9.17-87.83,3.67-22.33-2.84,44.5s-3.5,29.66-.16,51.33,5.16,33.17,5.16,33.17l-5.66,4.5-.67,15.66,36.17,19L1154.56,590l.83,10.16,17.67,6.34-29.83-6.5-20.5,9.33,44,20.83-41,5.5,2.16,89s14.17-7.83,20-5.66,11.67.66,24,21.66l2.84,11.34,2.83.16,2.67-62.83,1.66-74-4.16-22.67-33.34-22.5h0l32,17.34s.17-3.67.17-4.17-9.67-32.17-11-41.33-4-35-4-35l-7.83-22.67,5-12.67-5.17-7.66s5.91-66.29,2.33-88c-1-5.87-6.26-17-10.16-21.5-16.34-18.79-35-23-87.41-47.74S1083.23,339.52,1083.23,339.52Z"/><path class="cls-4" d="M1051.45,648.59c3.64,9.1,6.15,15.85,6.28,17.43C1057.91,668.19,1055.28,660.43,1051.45,648.59Z"/><polygon class="cls-4" points="942.48 289.76 936.73 272.51 937.97 272.89 945.01 291.52 942.48 289.76"/><path class="cls-4" d="M974.23,301.52c-.5,1.33-7.67.5-9.17-.93"/><line class="cls-4" x1="966.56" y1="281.62" x2="968.03" y2="286.69"/><path class="cls-4" d="M949.23,303c12,6.25,24.25,8.25,35.25,1.75l0,0a88.34,88.34,0,0,0,10.53-8"/><path class="cls-4" d="M1007.85,285.3l0-.06c2.94-3,5.62-6.11,8.05-9.1,1.12-1.38,2.19-2.75,3.2-4.09l2.4.12,2.65.15h.07l3.1.15c.72,0-19.43-11.2-3.1-11.2,4,0,18.64,26.12,31.24,42l2.81,3.55h0c11.32,14.34,22.16,28.64,24.9,32.74,6,9,3.5,22.5,3.5,22.5-9-13.5-9.62-13-9.62-13-12.13,6.5-8.38,16.5-6.88,20.5s-3,15.5-4.5,18.5,3.5,18,3.5,18a104,104,0,0,1,7,53c-.8,5.91-3.19,14.3-6.5,24h0c-13.19,38.53-41,97-41,97,5.43,14.05,16,47.67,22.72,68.57a1.8,1.8,0,0,1-.08-.21c-10.22-25.57-29.14-69.36-29.14-69.36s-99-220.5-107-239-11.5-13-11.5-13L864,346l-.06,0-3,1.45-4.35,2.07s3.2-14.5,4.31-17.5c1-2.61,2.66-33.25,3.08-41.15.07-1.18-.07-1.42.1-1.85,2.63-6.69,14.25-16.72,20.64-20,4.31-2.22,19.07-3.5,19.07-3.5l.75,0,2.29.13"/><path class="cls-8" d="M1126.89,736.52l2,22.5s5.67-4.67,1.67,4.33-2.67,20.67-2.67,20.67,5.08,7.75,13.87,2c0,0,6.8-2,7.13-9.38a48.57,48.57,0,0,1,1.75-11.66l1.59-10,1.66,10.33V781l9.7,1.43,5.8-34.6s-7.83-23.74-22.16-20.74S1126.89,736.52,1126.89,736.52Z"/><path class="cls-9" d="M1131.89,774.35s10-2.9,13.67,4.67"/><path class="cls-4" d="M961.48,305.52c8.47.35,15.46,1.85,25.88-3.75h0c.28-.14.57-.3.86-.47a59.82,59.82,0,0,0,6.82-4.53,88.34,88.34,0,0,1-10.53,8l0,0c-11,6.5-23.25,4.5-35.25-1.75"/><polygon class="cls-8" points="942.48 289.76 936.73 272.51 937.97 272.89 945.01 291.52 942.48 289.76"/><path class="cls-8" d="M974.23,301.52c-.5,1.33-7.67.5-9.17-.93"/><line class="cls-8" x1="966.56" y1="281.62" x2="968.03" y2="286.69"/><path class="cls-8" d="M949.23,303c12,6.25,24.25,8.25,35.25,1.75l0,0a88.34,88.34,0,0,0,10.53-8"/><path class="cls-8" d="M1024.52,264.5l-.07.32-.18,7.5-.11,4.42-.43,41.78,1.41,9.36,1.76,11.64,4.83,43.5-7.5,14,5,7c-3.5,35-26.5,75.62-26.5,75.62L931.2,343l-1.29-2.46-11.55-22.07h0a76.89,76.89,0,0,1-5.17-10.13c-6.57-15.53-7.13-30.72-6.58-40.17,0-.88.11-1.71.17-2.48a64.75,64.75,0,0,1,1-7.17"/><polygon class="cls-12" points="998.05 402.38 979.23 385.01 925.23 326.76 918.35 318.46 929.91 340.55 987.07 398.4 998.05 406.51 998.05 402.38"/><path class="cls-12" d="M1008,409s.25-8.5-4.25-8.25-8.54,2.39-8.75,6.5a71,71,0,0,0,0,7.5l3.75-3.5s1.15-6,2.7-6,3.74,1.16,3.52,4.33,3,3.42,3,3.42Z"/><circle class="cls-12" cx="1001.48" cy="419.77" r="10.75"/><polygon class="cls-12" points="1000.04 401.46 1018.23 350.51 1024.48 332.76 1025.14 327.88 1026.89 339.51 1020.23 358.01 1003.73 400.76 1000.04 401.46"/><path class="cls-9" d="M875.25,207.11s-1.84,10.18-3,13.41c-.58,1.56-3.08,5.9-3.08,5.9s-1.87,3.28-8.27,2.32"/><path class="cls-9" d="M1045.39,655.89c2.93,5.8-1.74,9.13-6.16,9.13s-8-4.82-8-10.75,2.11-9.56,6.5-9C1040.8,645.65,1041.24,647.64,1045.39,655.89Z"/><ellipse class="cls-9" cx="934.23" cy="653.77" rx="8" ry="10.75"/><ellipse class="cls-9" cx="936.23" cy="775.27" rx="8" ry="10.75"/><ellipse class="cls-9" cx="1043.73" cy="774.27" rx="8" ry="10.75"/></g><path class="cls-5" d="M891.44,174.57s-3.05-1.09-3.91.74-1.82,10.85-.61,13.77,6.22,5.85,6,2.32S891.44,174.57,891.44,174.57Z"/><path class="cls-8" d="M900.11,187.36a1.53,1.53,0,0,0,.13-1c-.47-2.46-2.56-13.51-3.19-17.53-.72-4.54-10.63-2.51-12.2-.51-4,5.12-1.32,19.28-.34,23.21s6.62,18.88,9.49,23.23,11.39,10.58,14.29,11.21c1.3.28,1.43.43,1.19.51a1,1,0,0,1-1.3-.89l-2.13-16.47-1.57-10.08a1.55,1.55,0,0,0-.21-.59l-6.81-11.39s-5.49-10.27-6.07-10.38-2.13.79-2.28,5.23a29,29,0,0,0,.81,7.9,39.17,39.17,0,0,1-1.31-4.28c-.17-.67-.32-1.38-.43-2.08a9.69,9.69,0,0,1,.11-4.75,15.25,15.25,0,0,1,1.47-3,1.75,1.75,0,0,0-1.43-2.67h-.07s2.18-1.7,4.06,3.07c0,.1.1.21.16.31l7.45,11.26Z"/><path class="cls-4" d="M895.34,192.25s-4.15,6.83-2.2,9.51a13.64,13.64,0,0,0,4.39,3.9s2-7.8.73-10.24A6.7,6.7,0,0,0,895.34,192.25Z"/><path class="cls-4" d="M1042.84,168.72s9.51-5.12,8.41,4.76-2.56,22.67-5.48,24.5-18.65,15.36-17.19,12.44,4.39-31.09,4.39-31.09Z"/><path class="cls-8" d="M1038.89,179.55v-9.24s4.08-5.5,8.58-4.29,5.91,1.76,6,8.36a51.93,51.93,0,0,1-4.08,19.91c-2.25,5-7.87,17.7-10.55,20.34s-12.38,8-12.38,8l1.92-13.46s10.6-11.12,11.73-13.87,2.53-5.06-.7-8.69c0,0-2-1,1.4-5.88a64.16,64.16,0,0,1,3.94-5.45s2.25.33,2.53,6.93l-.28,6.05s1.69-4.71,1.41-7.53a39,39,0,0,0-2.11-7.54s1.8-3,4.22-3.19c0,0-2.81-1.76-7.24,4.62S1038.89,179.55,1038.89,179.55Z"/><path class="cls-8" d="M1023.83,293.25c1.46-18.83,3.93-76,3.93-76L908.26,243.5l-1.66,24.67"/><path class="cls-4" d="M908.26,243.5s8.78,21.67,14.14,25.55,17.07,14.42,29.74,15.38,28.61.88,34.56-3.48,26.64-26,25.91-26S908.26,243.5,908.26,243.5Z"/><path class="cls-13" d="M881.8,112.77s4-25.24,25.61-41.33,39.49-30,69.48-24.5,51.92,24.87,59.43,34,18.25,45.77,11.67,81.47c0,0-7.7,17.77-11.67,31.39s-11.52,27-17.37,31.48-110.13-.09-110.13-.09L905.21,213s-9.87,3.29-12.8-30.36c0,0-11.7-15.73-13.17-28.16S876,136.17,881.8,112.77Z"/><path class="cls-8" d="M907.89,245.16c-2.55-6.24-3.65-14.63-3.65-26.7s-4.76-36.94-4.76-36.94-.73-28.16,1.83-38.4,2.19-37.3,14.63-42.79,16.82-9.14,34-7.68,17.37,3.09,40.6,5.49c21.7,2.24,36.08,27.45,36.2,58.15,0,3.7,3.23,10.74,3.29,14.44.16,9-5.27,19.64-3.29,36a11.65,11.65,0,0,0,1.83,3.66c.78,1.14-2.34,27-4.75,34.37-6.59,12.68-3.91,13.41-28,29.17-10.76,8.59-11.09,12.61-42.73,5.29C940.16,276.26,911.91,255,907.89,245.16Z"/><path class="cls-13" d="M904.6,114a8.08,8.08,0,0,0,5.61.24c3.17-1-1.42,1.16,4.19-5.42s10.93-6.15,15.07-4.44,12.43-.92,21.21-2.14,11.27-1.47,22,.5c9.35,1.72,9.37,3.93,14.49,3.45s8.71,3.68,11.64,7.59,1,8.7,9.29,10.65,6.86,6.91,10.88,20.14,11.11,18.58,15.78,22c5.62,4.15,2.46-70.9-25.58-74.31S910.7,74.73,905.33,95,904.6,114,904.6,114Z"/><path class="cls-4" d="M944.65,232.08c-4.35.25-9.08,3.74-9.57,5.36s0,1.87,4.37,1.87h15.38c5.6,0,28-.34,31.42-1.19a24.79,24.79,0,0,0,8.56-4.42c1-1-.73-1.26-10.48-2.58S944.65,232.08,944.65,232.08Z"/><path class="cls-5" d="M957.39,186.07c5.37-2.44-6.73,2-8.42,5s-11.71,11.07-10.54,18.14,13.29,3.19,15.55,3.44,5.14-.15,8.85-4.53S957.39,186.07,957.39,186.07Z"/><path class="cls-14" d="M939.91,233.94s7.82-5.05,11.71-7.28,5.36-2.16,10,0c0,0,1,.94,5.12-1.37s18.29,4.26,21.46,6-.26,2.69-1,2.68c-2.76,0-3.53-.95-11.57-.58-5,.23-5.12-.38-6.68.64-4.1,2.66-6.66.62-12.71,0-3.62-.38-9.51,2.63-14.14,3.36S939.91,233.94,939.91,233.94Z"/><path class="cls-15" d="M945.65,236.86c-1,.29-4.38,1.23-3.89,3.18s9.75,6.82,19.87,6.09,20-2.8,24.69-6.46c2.14-1.66,4.36-4,3.39-4.3s-16.2-1-23.88.37C957.45,237.23,957.9,233.46,945.65,236.86Z"/><path class="cls-13" d="M950.28,162.43c-.73-.25-19-6.83-24.87-6.59s-14.87,5.86-16.33,10.24,0,4.15,0,4.15,4.39-5.61,7.31-5.85,8.78-2.2,16.34-.25,19.75,3.17,20.72,1.47S950.28,162.43,950.28,162.43Z"/><path class="cls-13" d="M978,157c1.88-.37,18-8.18,21.9-7.07s14.58,1.82,18.21,11.42-4.42-2.66-10.19-3.93-29.54,6.19-29.54,6.19-7.2,2.79-7.57.43S978,157,978,157Z"/><path class="cls-4" d="M925.81,168.17c-2.56,0-8.77,4.49-9.14,5s4.2.49,9.51,1.54,15.53-.49,18.1.06,6.77.08,3.48-2.71-9-4.42-14.08-3.88A28.77,28.77,0,0,1,925.81,168.17Z"/><path class="cls-16" d="M944.28,171.13c-.18-.61-12.21-10-23,0a13.17,13.17,0,0,0,11.3,4.54C940.08,175.12,941.71,173.9,944.28,171.13Z"/><path class="cls-4" d="M987.38,165.43a24,24,0,0,0-7.07,3.78c-1.35,1-6.71,4.4-1.22,3.91s14.08.49,17.52-.51c5.71-1.65,3.5,2,4.72,1.11s5.79-2.56,6.75-3.31c2.23-1.76-3.48-3-6.42-5-4.23-2.89-8.34-.26-13.28-.26"/><path class="cls-16" d="M989.94,164.39s-5.43,2.39-6.53,4.18,5.49,4.36,10.06,4.54,9.88-4.36,9.88-4.36S1001.23,163,989.94,164.39Z"/><path class="cls-17" d="M939.27,168.17a15,15,0,0,0-13.46,0s-.8,8.23,6.73,7.5S938.65,170,939.27,168.17Z"/><path class="cls-5" d="M946.54,172.75c1.88,1.3-5.43-8.47-14.83-7a28.22,28.22,0,0,0-14.31,7.15.16.16,0,0,0,.19.25C921.67,170.61,932.36,162.91,946.54,172.75Z"/><path class="cls-17" d="M1000.2,165.61c-.2-.43-7.73-4.67-13.48.93,0,0-.78,7.3,6.75,6.57S999.58,167.44,1000.2,165.61Z"/><circle class="cls-4" cx="932.53" cy="171.13" r="1.9"/><circle class="cls-4" cx="993.46" cy="168.57" r="1.9"/><path class="cls-8" d="M969.15,177.5c.73,11.52,10.06,19.65,10.06,19.65,10.73,10.91,1.29,14.95-2.53,15.09-13.31.51-25.45.74-25.45.74-18.7-1.28-4.75-15.83-4.75-15.83a31.27,31.27,0,0,0,9.14-19.28"/><path class="cls-5" d="M955.07,206s-5.49-3.29-7.31-2.2-3.8,5.54,1.21,5.33S954.89,208.4,955.07,206Z"/><path class="cls-5" d="M965,206.39s4.7-3.19,7.63-2.78,6.22,2.22,6,2.78-2.75,1.88-6,1.67S964.66,208.58,965,206.39Z"/><path class="cls-8" d="M1023.83,244.79c-5.55,13.17-4.94,11.71-27.25,30-10.76,8.6-11.82,11.79-43.46,4.47"/><path class="cls-4" d="M981.74,200.07a4.84,4.84,0,0,1,3,5.59c-1,6.51-9.4,8.35-19.7,7C965,212.63,987,212.39,981.74,200.07Z"/><path class="cls-18" d="M959.37,93.24c-.68,4,1.35-20.1,7.1-28.54s19.69-15.57,19.69-15.57S963.3,70.46,959.37,93.24Z"/><path class="cls-18" d="M984.35,97.57c-1.05,3.46,3.45-17.8,9.49-24.69S1013,61.2,1013,61.2,990.39,77.66,984.35,97.57Z"/><path class="cls-18" d="M999,99.28c-.85,2.87,2.82-14.79,7.75-20.51s15.66-9.71,15.66-9.71S1003.88,82.74,999,99.28Z"/><path class="cls-18" d="M1003.71,102.21c-.86,2.87,2.81-14.79,7.74-20.52s15.67-9.7,15.67-9.7S1008.63,85.67,1003.71,102.21Z"/><path class="cls-18" d="M1007.21,104.25c-1.1,2.62,4.45-13.73,9.2-18.57s13.81-7.29,13.81-7.29S1013.59,89.11,1007.21,104.25Z"/><path class="cls-18" d="M1016,113.63c-1.33,2.52,5.62-13.29,10.77-17.7s14.39-6.06,14.39-6.06S1023.69,99.11,1016,113.63Z"/><path class="cls-18" d="M1018,116.71c-1.29,2.18,5.67-11.54,10.26-15.23s12.36-4.78,12.36-4.78S1025.47,104.17,1018,116.71Z"/><path class="cls-18" d="M1019.19,119.61c-1.53,2,6.91-10.84,11.88-14s12.81-3.38,12.81-3.38S1028,108,1019.19,119.61Z"/><path class="cls-18" d="M1021.26,124.21c-1.52,2,6.92-10.84,11.89-14s12.81-3.38,12.81-3.38S1030.06,112.57,1021.26,124.21Z"/><path class="cls-18" d="M1024.53,132.21c-1.64,1.76,7.73-9.48,12.43-12.08s11.21-2.35,11.21-2.35S1034,122.1,1024.53,132.21Z"/><path class="cls-18" d="M1025.61,136.79c-1.53,1.68,7.28-9,11.65-11.55s10.34-2.41,10.34-2.41S1034.47,127.14,1025.61,136.79Z"/><path class="cls-18" d="M1026.53,139.9c-1.54,1.68,7.28-9,11.64-11.55s10.34-2.42,10.34-2.42S1035.38,130.25,1026.53,139.9Z"/><path class="cls-18" d="M1027.07,149.07c-1.53,1.67,7.29-9,11.65-11.56s10.34-2.41,10.34-2.41S1035.93,139.42,1027.07,149.07Z"/><path class="cls-18" d="M1026.43,153c-1.69,1.53,8.09-8.31,12.67-10.41s10.52-1.45,10.52-1.45S1036.15,144.2,1026.43,153Z"/><path class="cls-18" d="M1027.3,156.82c-1.54,1.4,7.38-7.62,11.54-9.56s9.54-1.39,9.54-1.39S1036.16,148.77,1027.3,156.82Z"/><path class="cls-18" d="M1023.6,128.28c-1.51,1.86,7-10,11.54-12.94s11-3.14,11-3.14S1032.29,117.52,1023.6,128.28Z"/><path class="cls-18" d="M992.19,97.09c-.86,2.87,2.81-14.79,7.74-20.52s15.67-9.7,15.67-9.7S997.11,80.55,992.19,97.09Z"/><path class="cls-18" d="M956.39,91.42c-.33,3.85,0-19.6,4-27.8s14.4-15,14.4-15S958.27,69.22,956.39,91.42Z"/><path class="cls-18" d="M952.83,91.66c0,3.87-1.89-19.51,1.3-28S967,47.24,967,47.24,952.54,69.38,952.83,91.66Z"/><path class="cls-18" d="M940.76,91.3c0,3.86-1.88-19.51,1.3-28.06s12.87-16.37,12.87-16.37S940.47,69,940.76,91.3Z"/><path class="cls-18" d="M926.91,94.29c.12,3.68-2-18.63.57-26.71s10.95-15.34,10.95-15.34S926.2,73.05,926.91,94.29Z"/><path class="cls-18" d="M914.81,99.81c.29,3.34-2.44-16.92-1-24.07s6.9-13.26,6.9-13.26S913.18,80.61,914.81,99.81Z"/><path class="cls-18" d="M911.5,101.59c.54,2.94-3.49-14.88-3.08-21.22a27.67,27.67,0,0,1,4-11.85S908.42,84.68,911.5,101.59Z"/><path class="cls-18" d="M907.91,106.34c.77,2.87-4.7-14.55-4.81-20.91a27.66,27.66,0,0,1,3.06-12.14S903.45,89.73,907.91,106.34Z"/><path class="cls-18" d="M905.06,111.43c.92,2.84-5.39-14.3-5.81-20.65a27.7,27.7,0,0,1,2.46-12.28S899.8,95.06,905.06,111.43Z"/><path class="cls-18" d="M903,124.34c1.78,2-9.61-10-12.26-15.06a24.94,24.94,0,0,1-2.45-11A81.37,81.37,0,0,0,903,124.34Z"/><path class="cls-18" d="M902.76,128.42c1.94,1.74-10.35-8.49-13.53-13a23.87,23.87,0,0,1-3.83-9.82A83.49,83.49,0,0,0,902.76,128.42Z"/><path class="cls-18" d="M900.41,139.37c2,1.61-10.7-7.74-14-12.08a23.91,23.91,0,0,1-4.13-9.9A77.4,77.4,0,0,0,900.41,139.37Z"/><path class="cls-5" d="M1005.3,168.65c2.27,1.07-2.49-6.59-12.93-5.17-7.4,1-10.25,5.15-12.31,7.07-.44.41-2.16.49-1.84,1C980.27,174.76,986.07,159.56,1005.3,168.65Z"/><path class="cls-19" d="M890.22,192.37c1,2.88,1.22,2.81,1.22,2.81S888.88,185.79,889,183,889,189,890.22,192.37Z"/><path class="cls-5" d="M981.49,176.4s9.88,4.48,15.55,4.39,10.42.64,11.06.09-13.24.68-22.58-3.44C984.4,177,981.22,175.49,981.49,176.4Z"/><path class="cls-4" d="M942.64,178.35s-10.73,5.86-17.07,6.59,4.57.21,10.67-3S948.49,175.92,942.64,178.35Z"/><path class="cls-5" d="M942,179c-3.39.57-13.52,2.44-19.51,1.75-8.29-.95,1.65.56,2.56.56,18.44-.08,11-.1,13.47-.46A5.31,5.31,0,0,0,942,179Z"/><path class="cls-13" d="M906.55,113.74c1.71,2.69,2.68,4.15,4.39,3.66s-3,3.95-6-.71S906.55,113.74,906.55,113.74Z"/><path class="cls-5" d="M991.89,205.84c3.21,0,3.22-5,0-5s-3.23,5,0,5Z"/><path class="cls-20" d="M963.24,96.3c0,2.39-1.6-11.77,1.26-17.67S976,66.09,976,66.09,963.06,82.51,963.24,96.3Z"/><path class="cls-20" d="M940.63,98.4c.94,2.2-5.93-10.3-5.51-16.84S941,65.62,941,65.62,935.26,85.7,940.63,98.4Z"/><path class="cls-20" d="M933.6,98.82c.93,2.2-5.93-10.3-5.52-16.84S934,66,934,66,928.22,86.12,933.6,98.82Z"/><path class="cls-20" d="M926.24,102.47c.93,2.21-5.93-10.29-5.52-16.83S926.6,69.7,926.6,69.7,920.86,89.78,926.24,102.47Z"/><path class="cls-20" d="M919.93,102.47c.94,2.21-5.93-10.29-5.51-16.83S920.3,69.7,920.3,69.7,914.56,89.78,919.93,102.47Z"/><path class="cls-20" d="M904.52,118.66c1.18,1.23-6.54-5.57-8-9.65s-.36-10.6-.36-10.6S897.71,111.54,904.52,118.66Z"/><path class="cls-20" d="M903,121.79c1.18,1.24-6.54-5.56-8-9.65s-.37-10.6-.37-10.6S896.16,114.67,903,121.79Z"/><path class="cls-20" d="M900.71,140c1.57.66-8.23-2.47-11.19-5.63s-4.58-9.57-4.58-9.57S891.61,136.16,900.71,140Z"/><path class="cls-20" d="M988.58,100.34c-.24,2.38-.22-11.88,3.3-17.4s12.85-11.12,12.85-11.12S990,86.63,988.58,100.34Z"/><path class="cls-20" d="M994,104.1c-.24,2.38-.22-11.88,3.31-17.4s12.85-11.12,12.85-11.12S995.46,90.39,994,104.1Z"/><path class="cls-20" d="M1008.26,123.36c0,2-.93-10.07,1.66-14.94s10-10.13,10-10.13S1008.59,111.65,1008.26,123.36Z"/><path class="cls-20" d="M1012.1,124.89c-.06,2-.92-10.07,1.68-14.94s10-10.11,10-10.11S1012.44,113.17,1012.1,124.89Z"/><path class="cls-20" d="M1014.92,126.23c-.29,2,.23-10.1,3.36-14.65s11.1-8.91,11.1-8.91S1016.58,114.64,1014.92,126.23Z"/><path class="cls-20" d="M1017.36,129.68c-.71,1.91,2.39-9.82,6.42-13.59s12.76-6.32,12.76-6.32S1021.47,118.71,1017.36,129.68Z"/><path class="cls-20" d="M1019.14,140.42c-.68,1.92,2.2-9.87,6.16-13.71s12.63-6.57,12.63-6.57S1023,129.37,1019.14,140.42Z"/><path class="cls-20" d="M1020.06,144.64c-.68,1.91,2.18-9.87,6.13-13.73s12.62-6.59,12.62-6.59S1023.94,133.58,1020.06,144.64Z"/><path class="cls-20" d="M1020.91,149.08c-.67,1.91,2.16-9.88,6.1-13.74s12.61-6.61,12.61-6.61S1024.77,138,1020.91,149.08Z"/><path class="cls-20" d="M1023.37,152.83c-.58,1.95,1.71-10,5.48-14s12.29-7.18,12.29-7.18S1026.72,141.61,1023.37,152.83Z"/><path class="cls-20" d="M1024.37,153.44c-.52,1.46,1.71-7.5,4.7-10.41s9.52-4.92,9.52-4.92S1027.36,145.05,1024.37,153.44Z"/><path class="cls-20" d="M1025.34,153.83c-.74,1.36,2.87-7.14,6.29-9.53s10.17-3.36,10.17-3.36S1029.62,146,1025.34,153.83Z"/><path class="cls-20" d="M1026.8,157.74c-.8,1.32,3.21-7,6.74-9.22s10.32-2.88,10.32-2.88S1031.45,150.14,1026.8,157.74Z"/><path class="cls-5" d="M946.62,259.79c.72-.43,17.11-13.17,34-1s-4.64-1.4-4.64-1.4a28.26,28.26,0,0,0-13.21-2.74C955.07,254.91,932.08,268.56,946.62,259.79Z"/><path class="cls-21" d="M1029.58,205.5c-1.74,6.21-5.22,12.77-11.24,14.82-11,3.75-23.5.5-34.75-7.25a25.67,25.67,0,0,1-2.2-1.69c-.46-.39-.91-.79-1.35-1.21a41.87,41.87,0,0,1-6.2-7.57,62.23,62.23,0,0,1-4.33-7.86l-.5-1.1c-.56-1.29-1-2.38-1.3-3.2l-.1-.28c-.09-.24-.16-.44-.22-.62s-.11-.31-.11-.31l0-.12c0-.11-.07-.19-.08-.23l0-.06-.32-13.16H955.09v12.66c0,.25-.05.51-.08.76l0,.12-.12.84-.06.4a30.08,30.08,0,0,1-.71,3.06l-.09.32c-2.84,9.63-9.89,18.42-9.89,18.42q-2.11,1.95-4.15,3.52c-11.66,9-21.85,9.26-34.42,4.56a17.57,17.57,0,0,1-3.7-1.88c-9.79-6.6-7.34-21.06-5.76-31.87a13.15,13.15,0,0,1,6.23-9.12c5.92-3.94,14-4.73,15.14-4.73h5.63l2.13-.05c2.72,0,7.85-.16,14.36-.27l9.36-.16c15.85-.25,35.8-.47,50.15-.31,2.94,0,5.64.07,8,.14h.48a75.78,75.78,0,0,1,9.49.64c6.12,1.26,9.72,8.12,11.75,13.85h0a65.8,65.8,0,0,1,2,7C1031.29,195.49,1031,200.38,1029.58,205.5Z"/><polyline class="cls-4" points="943.85 172.1 943.85 174.14 978.82 174.09 978.82 172.1"/><path class="cls-8" d="M783.46,269.46,768,300.31l23.4,25.94,4.92,4.7,9.46,5.4,26.36-54.05,33.1-23.65s11.09-8.1,12.84-12.16c1.13-2.64,1.22-9.69,1.22-9.69s11.73-22.4,13.65-30.18c1-3.94,0-16.21,0-16.21s6.08-2,6.08-7.44-11.86-10.6-16.89-11.48c-2.83-.5-11.49,0-11.49,0l-6.08-4.73s-6.75-.68-12.15,3.37h0a109.67,109.67,0,0,1-10.14,6.75l-7.77,3.17M852.38,233c-11.12,4.06-9.83,0-9.83,0l-10.44-18.56,7.43-12.52a36,36,0,0,0,9.46,0s-6.08,26.35,5.4,20.27a14.65,14.65,0,0,0,5.79-5.59c-.83,1.46-5.62,10.32.16,12.07Z"/><path class="cls-4" d="M861.62,228.33l-9.93,4.33c-13.85,4.06-12.24,0-12.24,0l-10.07-20.27,9.14-21.28s43.46,23.67,50.2,23c0,0-48.81,13.83-34.51,7.75a17.1,17.1,0,0,0,7.21-5.59C860.39,217.72,854.42,226.58,861.62,228.33Z"/><path class="cls-8" d="M879.27,236.8s13-22.71,14.92-30.49c1-3.94,0-16.21,0-16.21s6.08-2,6.08-7.44-11.86-10.6-16.89-11.48c-2.83-.5-11.49,0-11.49,0l-6.08-4.73s-6.75-.68-12.15,3.37h0a109.67,109.67,0,0,1-10.14,6.75l-7.77,3.17S809.24,184,807,191.45c-6,20.25-23.56,78-23.56,78"/><path class="cls-4" d="M853.65,232.66c-11.12,4.06-9.83,0-9.83,0L833.38,214.1l7.43-12.52a36,36,0,0,0,9.46,0s-6.08,26.35,5.4,20.27a14.65,14.65,0,0,0,5.79-5.59c-.83,1.46-5.62,10.32.16,12.07Z"/><path class="cls-8" d="M871.89,171.18s12.84,9.46,13.52,14.19,0,21.62,0,21.62-4.94,3.55-9.41-.28a15.38,15.38,0,0,1-4.11-6.7,122.31,122.31,0,0,0-10.81-22.75s-.34-5.8-20.73.61l13.3-8.05S864.46,159,871.89,171.18Z"/><path class="cls-9" d="M861.46,216.26l.11-.19h0c4.47-7.75,4.25-14.05,2.88-18.53-1.8-5.92-8.5-17.89-14.22-20.27-1.5-.63-6.42,1.1-6.42,1.1l-8.08,1.39"/><path class="cls-9" d="M894.19,190.09s-4,1.39-8.78-4.72"/><path class="cls-10" d="M861.26,214.19s-.78-4.08-5.28-2.08l-3,5.56,2.69,4.18Z"/><path class="cls-11" d="M874,215.58s-2.64-3.33-5.57,0-2.61,9.75-2.61,9.75l4.08.69Z"/><path class="cls-11" d="M885.41,194.61s-7.44-1.5-5.94,4.5l1.5,6,4.44,1.88"/><path class="cls-9" d="M876,206.71s-1.84,10.17-3,13.4c-.57,1.56-3.07,5.91-3.07,5.91s-1.88,3.28-8.28,2.31"/><path class="cls-11" d="M900.09,182.25a38.88,38.88,0,0,1-6.08.44c-6.09.18-1.34-7.85-1.34-7.85s3.59.87,5.2,3.4A25.86,25.86,0,0,1,900.09,182.25Z"/><g class="cls-22"><path class="cls-4" d="M310.45,166.82c.31.68,1.66,4.18,1.74,4.4a43.45,43.45,0,0,1-4.05-3.32l-2.25-.26c-1.38-.12-17.12,2.34-20.38,5.05s-3.62,1.42-3.62,1.42v-5s2.62-4.74,10.38-8.24c0,0,4-1.38,12.12-.88,0,0,4.75-3.34,7.62-.11l2.88,3.23S310.13,166.11,310.45,166.82Z"/><path class="cls-4" d="M420.89,138.77l-1,6.5V151l-2,5,.75,6.5s-4.5,2.59-4.5,4.3-2.25,6.7-2.25,6.7V240l-1.5,4.25s.75,3.73-6.75,7.36c0,0-8.67,7.89-9.08,11.89a49,49,0,0,0,.47,9c.3,2.55.61,4.55.61,4.55l-3.82-.28-6.78-.49-1.43-.11c1.12-1.38,2.19-2.75,3.2-4.09.63-.83,1.23-1.65,1.82-2.45l.26-.36c1.18-1.64,2.28-3.23,3.29-4.74A128.05,128.05,0,0,0,400.64,250l1.5-42.9-.94-13.78-1.81-26.52-9.75-12.55s-2.5-10.75-4-20.75-4.51-4.75-4.51-4.75l-6.74-11.5s-17.5,7-29,6.25c0,0,12.25-10,13-12.5s-11.5-15.25-11.5-15.25-6.5,14.75-16.5,22.25-42.25,40-42.25,40,0-10.9,1.25-14.25c.92-2.49,5.75-8,6-8.75s.5-4.75-3.75-.75-7.5,12.5-7.5,12.5L282.39,151s-4-5.25,11.25-27l15.25-18s-.75-6-7.25.25-15,15.25-16.75,22.25-2.5,10.5-2.5,10.5-.75-10.5,1-16.5c0,0-5.25,1-7.75,14.5a190.18,190.18,0,0,0-2.75,27.25L270,165l.94,15.59,0,1.79c5.92-3.94,14-4.73,15.14-4.73h1.85a24.46,24.46,0,0,1-.47-3.56l8.18-1.42.29-.08a47.08,47.08,0,0,1,6-1.17l1-.11h0c2.51-.22,4.79-.09,6,.69,3.5,2.25,0,4.81,0,4.81l-.41.28,9-.09,50.19-.52v.38c2.94,0,5.64.07,8,.14h.48a75.78,75.78,0,0,1,9.49.64c6.12,1.26,9.72,8.12,11.75,13.85h0a65.8,65.8,0,0,1,2,7c.45,1.92.19,6.81-1.26,11.93-1.74,6.21-5.22,12.77-11.24,14.82-11,3.75-23.5.5-34.75-7.25a25.67,25.67,0,0,1-2.2-1.69c-.46-.39-.91-.79-1.35-1.21a41.87,41.87,0,0,1-6.2-7.57,62.23,62.23,0,0,1-4.33-7.86l-.5-1.1c-.56-1.29-1-2.38-1.3-3.2l-.1-.28c-.09-.24-.16-.44-.22-.62l-.11-.31,0-.12c0-.11-.07-.19-.08-.23l0-.06-.32-13.16H323.64v12.66c0,.25-.05.51-.08.76l0,.12-.12.84-.06.4a30.08,30.08,0,0,1-.71,3.06l-.09.32c-2.84,9.63-9.89,18.42-9.89,18.42q-2.12,2-4.15,3.52c-11.66,9-21.85,9.26-34.42,4.56a17.57,17.57,0,0,1-3.7-1.88V224s-3.33,16.86,8.44,34.82c0,0,0,0,0,.05l-3.47-.37s2.36,3.06,6,7.58l2.24,2.76-9.38-.69-2.12-.15v-19.5s-6.74-7.1-8.25-10.5c-2.43-5.49-2.78-23.51-2.78-23.51l-.2-7v0l-.47-16.18-.23-7.74-.1-3.31h0L260,176l-.1-3.45-7.57-6.71L250.39,161l2.23-40s-2.1-1.06-2.23-1.75c-.43-2.46,5.25-8.5,5.25-8.5s-.64-5.74,0-7.5c1-2.69,7.34-8.75,7.34-8.75s-1.59-5.75,9.16-14a5.37,5.37,0,0,1,2-5c2.54-2,8.29-3,9.29-6.5s7.5-16,22.75-18.25,37.75,1,49.25,6,31.5,10,35.75,15.25,22.25,35.5,22.25,35.5l1.5,17.5S421.89,132.27,420.89,138.77Z"/><path class="cls-4" d="M228.54,228.74l-9.93,4.33c-13.85,4.06-12.24,0-12.24,0L196.3,212.8l9.14-21.29s43.46,23.68,50.2,23c0,0-48.81,13.83-34.51,7.75a17,17,0,0,0,7.21-5.59C227.31,218.13,221.34,227,228.54,228.74Z"/><path class="cls-5" d="M499.56,724.68s22-6.66,29.67,4.67,12,18.5,10.33,24-9.67,38.33-9.67,38.33l-25-8Z"/><path class="cls-6" d="M530.69,786.27a26.14,26.14,0,0,0-4.13-2.25c-2-.56-8.33-.34-8.33-.34l-13.34,8.67.67,3.17h26.17Z"/><path class="cls-4" d="M425.39,304s15.17,5,24.84,14.67,45.18,24.78,45.18,24.78,14.15,2.74,21.48,12,9.67,24.91,9.67,24.91l-2,15-1.33,65.33,5.5,9.67-4.84,15,9,18.17,1.17,34,19.5,69.66v54.34l-2.5,48.83-1.5,21-1.5,21-10.17,6.5-6.16,36.67h-4l2.16-3.84L532.06,777l2.33-15.34s3.17-10.66,2.67-13.83-.17-11.83-11.67-18.5-24.33,3.17-24.33,3.17l-6.5,4L394.56,293Z"/><path class="cls-4" d="M426.64,343h49.92l38.33,71,9,141.33L536.56,576l7.33,41.33L524.56,712l-29,12.66,1,34.34s4.67-4.34,1.67,4.33S495.56,784,495.56,784s1.33,3.33,8,3.33,11.33-5,11.33-5l3.34,1.33s-1.34,6.67-10,8l-2.67,3.84L478.66,797,356.56,526Z"/><path class="cls-4" d="M425.39,666s4.17,17.33,3.5,75.33l-.66,58L351.89,798,210.56,418V382.35l23.67-45.9Z"/><polygon class="cls-4" points="305.63 272.89 312.67 291.52 310.14 289.76 304.39 272.51 305.63 272.89"/><path class="cls-4" d="M341.89,301.52c-.5,1.33-7.67.5-9.17-.93s1.5-5.74,1.5-5.74V281.62l1.47,5.07.35,10S342.39,300.19,341.89,301.52Z"/><path class="cls-4" d="M373.3,268.84a14.29,14.29,0,0,1-.16,2.46c-.19,1.36-.41,2.69-.69,4A33.35,33.35,0,0,1,367.7,287a98.64,98.64,0,0,1-8.4,10.16,40.2,40.2,0,0,0,4.84-8.66c1.82-4.5,3.5-9.36,4.83-13.45.46-1.42.88-2.74,1.24-3.93.3-.95.56-1.8.78-2.54Z"/><path class="cls-4" d="M391.89,269.52s-1,1-2.68,2.65L385,276.25c-2.7,2.6-6,5.74-9.48,9,2.94-3,5.62-6.11,8.05-9.1,1.12-1.38,2.19-2.75,3.2-4.09.63-.83,1.23-1.65,1.82-2.45Z"/><path class="cls-7" d="M230.64,394l41,21.25-57-12.5,31.25,51,81.5,100.75,81,89.75s16.75,27.75,18.25,36.25L425.39,666l-19.75-54.75-124-303.5-50,35.25"/><path class="cls-7" d="M228.5,395l27.39,14-44.5-9.5,2.5,9.5,17.79,34,74.21,94,49.5,56,51.5,56.5s12.5,8.5,15.5,30.5,3,115.5,3,115.5L178.89,793l-3-16.5v-83s-6.5-67-6.5-68.5-3-47.5-3-47.5L154.89,516l-4-77,36-135.5,53-15L231.66,343v9.5L228.87,390Z"/><path class="cls-4" d="M130.89,293s-13,14-17,24-33.5,56-33.5,56-5.68,1.61-7,3c-4,4.21-3.23,8.75-10,21s-21.61,20.68-27,29c-5.85,9-11.5,41.5-11.5,41.5s-.09,51.48,8,66c2.34,4.19,12.34,14.83,12.34,14.83s15.32,17,22.16,20.17c5.56,2.57,24.5,0,24.5,0a111.8,111.8,0,0,1,18-4.43c10-1.57,16-2.07,36-40.07l12.5,40.07,4.5,8.93,2.71,62.5s10.79,77.5,8.79,82.5-2.5,75-2.5,75h7V700l-8-62,4-5.5-3.5-51.5,15.5,39s-25.5-75-25.5-77,.5-17,.5-17l16,34.5,5.5,7.5-6.5-17s-4.5-66.5-3.5-68.5l-4-6,11-49L205.44,362l-.05-9.5Z"/><polygon class="cls-5" points="162.89 258.51 149.89 265.01 156.39 272.51 162.89 258.51"/><path class="cls-7" d="M153.39,488.52s-16.5,63.5-36,69-47,10-52.5,3-13.12-10.87-17-15c-3.59-3.84-6-9.93-8.5-19.22s-12-52.78-9.5-62.28,5.5-25.5,5.5-25.5,3-12,7-15.5,19-18.5,19-18.5l16.5-25,8.5-7.5s18.5-27,20-30,24.5-44,24.5-44l58.5,21.5s17,27.5,16,33S153.39,488.52,153.39,488.52Z"/><path class="cls-4" d="M200.3,282.4l-10.91,37.12s-4,4-2.5,5.5,12,23,10.5,26,3,14.5-38.5-18l-28-35v-5l5.27-4.5,5.73-6.12,14.6-29.9Z"/><path class="cls-8" d="M250.3,171.59c-2.83-.5-11.49,0-11.49,0l-6.08-4.73s-6.75-.68-12.15,3.37h0A109.67,109.67,0,0,1,210.43,177l-7.77,3.17s-26.5,4.27-28.72,11.7c-6.05,20.24-22.29,77.7-22.29,77.7L136.16,300.4l23.4,26,4.92,4.7,9.46,5.4L200.3,282.4l33.1-23.65s11.1-8.1,12.84-12.16c1.14-2.64,0-11.49,0-11.49s13-20.61,14.87-28.38c1-3.94,0-16.21,0-16.21s6.08-2,6.08-7.44S255.33,172.46,250.3,171.59Zm-29.73,61.48c-11.12,4.06-9.83,0-9.83,0L200.3,214.51,207.73,202a36,36,0,0,0,9.46,0s-6.08,26.35,5.4,20.27a14.65,14.65,0,0,0,5.79-5.59c-.83,1.46-5.62,10.32.16,12.07Z"/><path class="cls-8" d="M238.81,171.58s12.84,9.46,13.52,14.19,0,21.62,0,21.62-4.94,3.56-9.41-.28a15.37,15.37,0,0,1-4.11-6.69A122.22,122.22,0,0,0,228,177.66s-.34-5.79-20.73.62l13.3-8.05S231.38,159.42,238.81,171.58Z"/><path class="cls-9" d="M228.38,216.67l.11-.19h0c4.47-7.75,4.25-14.05,2.88-18.53-1.8-5.93-8.5-17.89-14.22-20.27-1.5-.63-6.42,1.1-6.42,1.1l-8.08,1.39"/><path class="cls-9" d="M261.11,190.5s-4,1.39-8.78-4.73"/><path class="cls-10" d="M228.18,214.59s-.78-4.07-5.28-2.07l-3,5.56,2.69,4.18Z"/><path class="cls-11" d="M240.93,216s-2.64-3.34-5.57,0-2.62,9.74-2.62,9.74l4.08.69Z"/><path class="cls-11" d="M252.33,195s-7.44-1.5-5.94,4.5l1.5,6,4.44,1.87"/><path class="cls-11" d="M259.77,175.66s-4.74,8.3,1.34,7.86l6.08-.45"/><path class="cls-7" d="M450.89,339.52l24,45.5-17,8,35.5,4s0,31-5,55-16.25,54-16.25,54l-46.75,96-14.18,27.24L379.89,542l38.5-212Z"/><path class="cls-7" d="M450.89,339.52l20.5,29,7.5,16L468.73,391l28.16,2.33s.34,23.33-2.33,40-13,58.83-18.83,70.67-43.34,89.66-43.34,89.66l-16.66,35.58,10.91,40.92,1.59,129.17,61.83-2.83-.17-58.5,1-49.67-3-32.67-.66-43V562.52l5.33-25.34,9.17-87.83L505.39,427l-2.83,44.5s-3.5,29.66-.17,51.33S507.56,556,507.56,556l-5.67,4.5-.66,15.66,36.16,19L522.23,590l.83,10.16,17.67,6.34L510.89,600l-20.5,9.33,44,20.83-41,5.5,2.17,89s14.17-7.83,20-5.66,11.67.66,24,21.66L542.39,752l2.84.16,2.66-62.83,1.67-74-4.17-22.67-33.33-22.5h0l32,17.34s.17-3.67.17-4.17-9.67-32.17-11-41.33-4-35-4-35l-7.84-22.67,5-12.67L521.23,464s5.91-66.29,2.33-88c-1-5.87-6.26-17-10.17-21.5-16.33-18.79-35-23-87.4-47.74S450.89,339.52,450.89,339.52Z"/><path class="cls-4" d="M419.11,648.59c3.64,9.1,6.15,15.85,6.28,17.43C425.57,668.19,422.94,660.43,419.11,648.59Z"/><polygon class="cls-4" points="310.14 289.76 304.39 272.51 305.63 272.89 312.67 291.52 310.14 289.76"/><path class="cls-4" d="M341.89,301.52c-.5,1.33-7.67.5-9.17-.93s1.5-5.74,1.5-5.74V281.62l1.47,5.07.35,10S342.39,300.19,341.89,301.52Z"/><path class="cls-4" d="M367.7,287a98.64,98.64,0,0,1-8.4,10.16,40.2,40.2,0,0,0,4.84-8.66c1.82-4.5,3.5-9.36,4.83-13.45.46-1.42.88-2.74,1.24-3.93l2.93.16c-.19,1.36-.41,2.69-.69,4A33.35,33.35,0,0,1,367.7,287Z"/><path class="cls-4" d="M454.39,362c-9-13.5-9.62-13-9.62-13-12.13,6.5-8.38,16.5-6.88,20.5s-3,15.5-4.5,18.5,3.5,18,3.5,18a104,104,0,0,1,7,53c-.8,5.91-3.19,14.3-6.5,24h0c-13.19,38.53-41,97-41,97,5.43,14.05,15.95,47.67,22.72,68.57a1.8,1.8,0,0,1-.08-.21C408.81,622.81,389.89,579,389.89,579s-99-220.5-107-239-11.5-13-11.5-13l-39.74,19-.06,0-3.05,1.45-4.35,2.07s3.2-14.5,4.31-17.5c1-2.61,2.66-33.25,3.08-41.15.07-1.18-.07-1.42.1-1.85,2.64-6.69,14.26-16.72,20.64-20,4.31-2.22,19.07-3.5,19.07-3.5l.75,0,2.29.13,7,.41,2.24,2.76c9.64,11.8,25.29,30,33.25,34.16,12,6.25,24.25,8.25,35.25,1.75l0,0a88.34,88.34,0,0,0,10.53-8c4.11-3.49,8.61-7.55,12.8-11.46l.05-.06c2.94-3,5.62-6.11,8.05-9.1,1.12-1.38,2.19-2.75,3.2-4.09l2.4.12,2.65.15h.07l3.1.15,1.36,0c1.77,0,14.18,14.87,26.78,30.71l2.81,3.55h0c11.32,14.34,22.16,28.64,24.9,32.74C456.89,348.52,454.39,362,454.39,362Z"/><path class="cls-8" d="M494.56,736.52l2,22.5s5.67-4.67,1.67,4.33S495.56,784,495.56,784s5.07,7.75,13.87,2c0,0,6.8-2,7.13-9.38A48,48,0,0,1,518.31,765l1.58-10,1.67,10.33V781l9.7,1.43,5.8-34.6s-7.83-23.74-22.17-20.74S494.56,736.52,494.56,736.52Z"/><path class="cls-8" d="M499.56,774.35s10-2.9,13.67,4.67"/><path class="cls-4" d="M362.71,296.76a88.34,88.34,0,0,1-10.53,8l0,0c-11,6.5-23.25,4.5-35.25-1.75-8-4.14-23.61-22.36-33.25-34.16l-2.24-2.76c-3.65-4.52-6-7.58-6-7.58l3.47.37a59.5,59.5,0,0,0,3.78,5.13q.92,1.13,1.86,2.25,1.15,1.41,2.34,2.82c15.11,18.15,31.32,36,42.3,36.43,8.47.35,15.46,1.85,25.88-3.75h0c.28-.14.57-.3.86-.47A59.82,59.82,0,0,0,362.71,296.76Z"/><path class="cls-8" d="M278.86,258.89l-3.47-.37,3.44.32S278.84,258.87,278.86,258.89Z"/><polygon class="cls-8" points="310.14 289.76 304.39 272.51 305.63 272.89 312.67 291.52 310.14 289.76"/><path class="cls-8" d="M341.89,301.52c-.5,1.33-7.67.5-9.17-.93s1.5-5.74,1.5-5.74V281.62l1.47,5.07.35,10S342.39,300.19,341.89,301.52Z"/><path class="cls-8" d="M367.7,287a98.64,98.64,0,0,1-8.4,10.16,40.2,40.2,0,0,0,4.84-8.66c1.82-4.5,3.5-9.36,4.83-13.45.46-1.42.88-2.74,1.24-3.93.3-.95.56-1.8.78-2.54l.3-1,1.91.18a6.63,6.63,0,0,1,.1,1.08,14.29,14.29,0,0,1-.16,2.46c-.19,1.36-.41,2.69-.69,4A33.35,33.35,0,0,1,367.7,287Z"/><path class="cls-8" d="M391.89,397l5,7c-3.5,35-26.5,75.62-26.5,75.62L298.86,343l-1.29-2.46L286,318.48h0a76.89,76.89,0,0,1-5.17-10.13c-6.57-15.53-7.13-30.72-6.58-40.17.05-.88.11-1.71.17-2.48a64.75,64.75,0,0,1,1-7.17s2.36,3.06,6,7.58l2.24,2.76c9.64,11.8,25.29,30,33.25,34.16,12,6.25,24.25,8.25,35.25,1.75l0,0a88.34,88.34,0,0,0,10.53-8c4.11-3.49,8.61-7.55,12.8-11.46l.05-.06c2.94-3,5.62-6.11,8.05-9.1,1.12-1.38,2.19-2.75,3.2-4.09.63-.83,1.23-1.65,1.82-2.45l.26-.36,4.25-9.39-1,4.65-.07.32-.18,7.5-.11,4.42-.43,41.78,1.41,9.36,1.76,11.64,4.83,43.5Z"/><polygon class="cls-12" points="365.72 402.38 346.89 385.01 292.89 326.76 286.02 318.46 297.58 340.55 354.74 398.4 365.72 406.51 365.72 402.38"/><path class="cls-12" d="M375.64,409s.25-8.5-4.25-8.25-8.53,2.39-8.75,6.5a74.33,74.33,0,0,0,0,7.5l3.75-3.5s1.16-6,2.71-6,3.73,1.16,3.51,4.33,3,3.42,3,3.42Z"/><circle class="cls-12" cx="369.14" cy="419.77" r="10.75"/><polygon class="cls-12" points="367.71 401.46 385.89 350.51 392.14 332.76 392.81 327.88 394.56 339.51 387.89 358.01 371.39 400.76 367.71 401.46"/><path class="cls-9" d="M242.92,207.11s-1.84,10.18-3,13.41a66.43,66.43,0,0,1-3.07,5.9s-1.88,3.28-8.28,2.32"/><path class="cls-8" d="M402.14,207.12l-.94-13.78s.56-20.32-1.81-26.52c-1.41-3.72-9.75-12.55-9.75-12.55s-2.5-10.75-4-20.75-4.51-4.75-4.51-4.75l-6.74-11.5s-17.5,7-29,6.25c0,0,12.25-10,13-12.5s-11.5-15.25-11.5-15.25-6.5,14.75-16.5,22.25-42.25,40-42.25,40,0-10.9,1.25-14.25c.92-2.49,5.75-8,6-8.75s.5-4.75-3.75-.75-7.5,12.5-7.5,12.5L282.39,151s-4-5.25,11.25-27l15.25-18s-.75-6-7.25.25-15,15.25-16.75,22.25-2.5,10.5-2.5,10.5-.75-10.5,1-16.5c0,0-5.25,1-7.75,14.5a190.18,190.18,0,0,0-2.75,27.25L270,165l.94,15.59,0,1.79c5.92-3.94,14-4.73,15.14-4.73h1.85a24.46,24.46,0,0,1-.47-3.56l8.18-1.42.29-.08a47.08,47.08,0,0,1,6-1.17l1-.11h0c2.51-.22,4.79-.09,6,.69,3.5,2.25,0,4.81,0,4.81l-.41.28,9-.09,50.19-.52v.38c2.94,0,5.64.07,8,.14h.48a75.78,75.78,0,0,1,9.49.64c6.12,1.26,9.72,8.12,11.75,13.85h0a65.8,65.8,0,0,1,2,7c.45,1.92.19,6.81-1.26,11.93Zm-91.69-40.3c.31.68,1.66,4.18,1.74,4.4a43.45,43.45,0,0,1-4.05-3.32l-2.25-.26c-1.38-.12-17.12,2.34-20.38,5.05s-3.62,1.42-3.62,1.42v-5s2.62-4.74,10.38-8.24c0,0,4-1.38,12.12-.88,0,0,4.75-3.34,7.62-.11l2.88,3.23S310.13,166.11,310.45,166.82Zm4.44,51.61,11,5.84s2.17,7.08,5.52,7.5,15.34-11.3,15.34-11.3l3.22-4.14c-.46-.39-.91-.79-1.35-1.21a41.87,41.87,0,0,1-6.2-7.57,62.23,62.23,0,0,1-4.33-7.86l-.5-1.1c-.56-1.29-1-2.38-1.3-3.2l-.1-.28c-.09-.24-.16-.44-.22-.62a3,3,0,0,1-.11-.31l0-.12c0-.11-.07-.19-.08-.23l0-.06-.32-13.16H323.64v12.66c0,.25-.05.51-.08.76l0,.12q0,.42-.12.84l-.06.4a30.08,30.08,0,0,1-.71,3.06l-.09.32c-2.84,9.63-9.89,18.42-9.89,18.42q-2.12,2-4.15,3.52l6.35-2.38A.36.36,0,0,0,314.89,218.43Zm31,33.2,3.41-4.56s-8.91,5.45-17,6.2S315.13,248,315.13,248c-1.77,2.75,8.23,10.5,8.23,10.5l-5.47,3.5c11-2.25,30.25,0,30.25,0l-6.22-4.75Zm14.5-13.36a3.67,3.67,0,0,1-4.75,0s-13-5.5-17.53,1-10.72,2.25-10.72,2.25a50.54,50.54,0,0,0-9.75-5c-6.25-2.5-11.75,8.25-11.75,8.25s2.75.5,6.78-2.5a7.23,7.23,0,0,1,8-.5s10.75,5.25,15.4,1.5,9.1-4,13.1-4,9.5,4,9.5,4S362.89,236.27,360.39,238.27Zm12.91,30.57a6.63,6.63,0,0,0-.1-1.08c-.33-2-1.31-2.24-1.31-2.24s-.21.76-.6,2.06l-.3,1c-.22.74-.48,1.59-.78,2.54-.36,1.19-.78,2.51-1.24,3.93l3.48.26c.28-1.34.5-2.67.69-4A14.29,14.29,0,0,0,373.3,268.84Z"/><path class="cls-8" d="M281.89,174.11v-5s2.62-4.74,10.38-8.24c0,0,4-1.38,12.12-.88,0,0,4.75-3.34,7.62-.11l2.88,3.23s-4.76,3-4.44,3.68,1.66,4.18,1.74,4.4a43.45,43.45,0,0,1-4.05-3.32l-2.25-.26c-1.38-.12-17.12,2.34-20.38,5.05S281.89,174.11,281.89,174.11Z"/><path class="cls-8" d="M310.14,289.77l-5.75-17.25,1.24.38,7,18.63Zm78.75-20.53c1.18-1.64,2.28-3.23,3.29-4.74l1-4.65Z"/><path class="cls-8" d="M398.13,210.45c-1.74,6.21-5.22,12.77-11.24,14.82-11,3.75-23.5.5-34.75-7.25a25.67,25.67,0,0,1-2.2-1.69l-3.22,4.14s-12,11.72-15.34,11.3-5.52-7.5-5.52-7.5l-11-5.84a.36.36,0,0,1,0-.1l-6.35,2.38c-11.66,9-21.85,9.26-34.42,4.56a17.57,17.57,0,0,1-3.7-1.88V224s-3.33,16.86,8.44,34.82c0,0,0,0,0,.05a59.5,59.5,0,0,0,3.78,5.13q.92,1.13,1.86,2.25,1.15,1.41,2.34,2.82c15.11,18.15,31.32,36,42.3,36.43,8.47.35,15.46,1.85,25.88-3.75h0c.28-.14.57-.3.86-.47a59.82,59.82,0,0,0,6.82-4.53c4.11-3.49,8.61-7.55,12.8-11.46l.05-.06c2.94-3,5.62-6.11,8.05-9.1,1.12-1.38,2.19-2.75,3.2-4.09.63-.83,1.23-1.65,1.82-2.45l.26-.36,4.25-9.39-1,4.65A128.05,128.05,0,0,0,400.64,250l1.5-42.9Zm-56.24,91.07c-.5,1.33-7.67.5-9.17-.93s1.5-5.74,1.5-5.74V281.62l1.47,5.07.35,10S342.39,300.19,341.89,301.52Zm6.25-39.5s-19.25-2.25-30.25,0l5.47-3.5s-10-7.75-8.23-10.5c0,0,9.09,6,17.17,5.25s17-6.2,17-6.2l-3.41,4.56-4,5.64Zm1-22.75c-4,0-8.44.25-13.1,4s-15.4-1.5-15.4-1.5a7.23,7.23,0,0,0-8,.5c-4,3-6.78,2.5-6.78,2.5s5.5-10.75,11.75-8.25a50.54,50.54,0,0,1,9.75,5s6.2,4.25,10.72-2.25,17.53-1,17.53-1a3.67,3.67,0,0,0,4.75,0c2.5-2-1.75,5-1.75,5S353.14,239.27,349.14,239.27Zm24.16,29.57a14.29,14.29,0,0,1-.16,2.46c-.19,1.36-.41,2.69-.69,4A33.35,33.35,0,0,1,367.7,287a98.64,98.64,0,0,1-8.4,10.16,40.2,40.2,0,0,0,4.84-8.66c1.82-4.5,3.5-9.36,4.83-13.45.46-1.42.88-2.74,1.24-3.93.3-.95.56-1.8.78-2.54l.3-1c.39-1.3.6-2.06.6-2.06s1,.28,1.31,2.24A6.63,6.63,0,0,1,373.3,268.84Z"/><polygon class="cls-8" points="305.63 272.89 312.67 291.52 310.14 289.76 304.39 272.51 305.63 272.89"/><path class="cls-8" d="M341.89,301.52c-.5,1.33-7.67.5-9.17-.93s1.5-5.74,1.5-5.74V281.62l1.47,5.07.35,10S342.39,300.19,341.89,301.52Z"/><path class="cls-8" d="M375.51,285.3c-1.71,1.76-3.5,3.51-5.37,5.22-2.66,2.43-5.13,4.5-7.43,6.24C366.82,293.27,371.32,289.21,375.51,285.3Z"/><path class="cls-8" d="M367.7,287a98.64,98.64,0,0,1-8.4,10.16,40.2,40.2,0,0,0,4.84-8.66c1.82-4.5,3.5-9.36,4.83-13.45l3.48.26A33.35,33.35,0,0,1,367.7,287Z"/><path class="cls-8" d="M398.13,210.45c-1.74,6.21-5.22,12.77-11.24,14.82-11,3.75-23.5.5-34.75-7.25a25.67,25.67,0,0,1-2.2-1.69c-.46-.39-.91-.79-1.35-1.21a41.87,41.87,0,0,1-6.2-7.57,62.23,62.23,0,0,1-4.33-7.86l-.5-1.1c-.56-1.29-1-2.38-1.3-3.2l-.1-.28c-.09-.24-.16-.44-.22-.62l-.11-.31,0-.12c0-.11-.07-.19-.08-.23l0-.06-.32-13.16H323.64v12.66c0,.25-.05.51-.08.76l0,.12-.12.84-.06.4a30.08,30.08,0,0,1-.71,3.06l-.09.32c-2.84,9.63-9.89,18.42-9.89,18.42q-2.12,2-4.15,3.52c-11.66,9-21.85,9.26-34.42,4.56a17.57,17.57,0,0,1-3.7-1.88l.47-41c5.92-3.94,14-4.73,15.14-4.73h1.85a24.46,24.46,0,0,1-.47-3.56l8.18-1.42.29-.08a47.08,47.08,0,0,1,6-1.17l1-.11h0c2.51-.22,4.79-.09,6,.69,3.5,2.25,0,4.81,0,4.81l-.41.28,9-.09,50.19-.52v.38c2.94,0,5.64.07,8,.14h.48a75.78,75.78,0,0,1,9.49.64c6.12,1.26,9.72,8.12,11.75,13.85h0a65.8,65.8,0,0,1,2,7C399.84,200.44,399.58,205.33,398.13,210.45Z"/><path class="cls-4" d="M355,301.76c1.21-1.27,2.68-2.84,4.21-4.51-.22.31-.45.62-.68.91-.93,1.2-1.84,2.25-2.67,3.13a32.27,32.27,0,0,1-3.71,3.45l0,0s1.17-1.19,2.88-3Z"/><path class="cls-4" d="M373.14,271.3c-.19,1.36-.41,2.69-.69,4A33.35,33.35,0,0,1,367.7,287a98.64,98.64,0,0,1-8.4,10.16,40.2,40.2,0,0,0,4.84-8.66c1.82-4.5,3.5-9.36,4.83-13.45.46-1.42.88-2.74,1.24-3.93.3-.95.56-1.8.78-2.54l.3-1c.39-1.3.6-2.06.6-2.06s1,.28,1.31,2.24a6.63,6.63,0,0,1,.1,1.08A14.29,14.29,0,0,1,373.14,271.3Z"/><polygon class="cls-5" points="312.67 291.52 310.14 289.76 304.39 272.51 305.63 272.89 312.67 291.52"/><path class="cls-9" d="M413.06,655.89c2.93,5.8-1.75,9.13-6.17,9.13s-8-4.82-8-10.75,2.12-9.56,6.5-9C408.47,645.65,408.9,647.64,413.06,655.89Z"/><path class="cls-5" d="M341.89,301.52c-.5,1.33-7.67.5-9.17-.93s1.5-5.74,1.5-5.74V281.62l1.47,5.07.35,10S342.39,300.19,341.89,301.52Z"/><path class="cls-23" d="M337.11,298.85c-.41-.14-1.95.17-1.42,1a1.69,1.69,0,0,0,2.2.73C338.56,300.18,337.57,299,337.11,298.85Z"/><path class="cls-8" d="M406.56,226.35S397.5,186.4,408.23,178c2.12-1.66,7.33.33,6.33,4.5s-5.17,9-5.17,9,3-.93,3.5.17c1.37,3.09,1.74,21.3-.67,23-1.39,1-1.42-3.91-1.42-3.91s1.67,10.75,0,13.5A4,4,0,0,1,406.56,226.35Z"/><path class="cls-4" d="M353.22,212.11l-1.73,2.23-.8,1-.75,1-3.22,4.14s-12,11.72-15.34,11.3-5.52-7.5-5.52-7.5l13.58-13.74,1.29-1.3,1.66-1.68,3.46-3.49,2-2.07Z"/><polygon class="cls-4" points="340.64 194.57 333.39 204.02 343.14 214.5 352.14 215.51 340.64 194.57"/><path class="cls-4" d="M373.89,176.39c.72-.23,11.06-5.65,12.8-6s2.07-.09,1.66,0c-3.4.73-10.91,4.92-12.75,5.59s-4.08,4.41-4.08,4.41S372.64,176.79,373.89,176.39Z"/><polygon class="cls-4" points="325.86 198.76 323.33 204.62 321.59 208.63 317.89 217.19 314.87 218.32 308.52 220.71 304.39 222.25 319.05 198.76 325.86 198.76"/><path class="cls-8" d="M345.89,217.19l-10.2,7.08c-4.95,3.5-9.83,0-9.83,0l-11-5.84a.36.36,0,0,1,0-.1c-.77-3,4.11-6.13,6.72-9.7a10.32,10.32,0,0,0,.8-1.23,8.63,8.63,0,0,0,.94-2.78,12.74,12.74,0,0,0-.56-5.85c-.07-.21-.12-.32-.12-.32l-3.6-3.6,4.37.14,12.84.4,1.85-2.87c-.06,2-.1,3.81-.09,5.47,0,.59,0,1.16,0,1.7.14,4.16.78,7.24,2.67,9.54a9.11,9.11,0,0,0,1.19,1.22,12.06,12.06,0,0,1,3.34,4.3A6.29,6.29,0,0,1,345.89,217.19Z"/><path class="cls-4" d="M295.57,172.69,294,176.92h0l-.13.34-.13.35-.64,1.78-1,2.61-1,2.76s-2.27-1.9-3.31-7.1a24.46,24.46,0,0,1-.47-3.56Z"/><path class="cls-24" d="M308.89,176.83l-.41.28-.35.24-3,2.05-11.52,7.95s-.78-2.51-1.47-5.34c-.34-1.46-.67-3-.85-4.34-.24-1.79-.22-3.2.32-3.56a15,15,0,0,1,3.38-1.26l.05,0,.5-.14.29-.08a47.08,47.08,0,0,1,6-1.17c2.91-.35,5.65-.31,7,.58C312.39,174.27,308.89,176.83,308.89,176.83Z"/><path class="cls-8" d="M407.69,194.85s2.95,1.56,2.7,6.86-1.16,8.41-3.7,11.48"/><path class="cls-9" d="M324.77,161.14a24.71,24.71,0,0,0-4.42,2.77c-1.09.81-2,1.57-2,1.89,0,.84-1.88,8-1.37,9.72s.87,3.2.87,3.2"/><path class="cls-21" d="M398.13,210.45c-1.74,6.21-5.22,12.77-11.24,14.82-11,3.75-23.5.5-34.75-7.25a25.67,25.67,0,0,1-2.2-1.69c-.46-.39-.91-.79-1.35-1.21a41.87,41.87,0,0,1-6.2-7.57,62.23,62.23,0,0,1-4.33-7.86l-.5-1.1c-.56-1.29-1-2.38-1.3-3.2l-.1-.28c-.09-.24-.16-.44-.22-.62l-.11-.31,0-.12c0-.11-.07-.19-.08-.23l0-.06-.32-13.16H323.64v12.66c0,.25-.05.51-.08.76l0,.12-.12.84-.06.4a30.08,30.08,0,0,1-.71,3.06l-.09.32c-2.84,9.63-9.89,18.42-9.89,18.42q-2.12,2-4.15,3.52c-11.66,9-21.85,9.26-34.42,4.56a17.57,17.57,0,0,1-3.7-1.88c-9.79-6.6-7.34-21.06-5.76-31.87a13.15,13.15,0,0,1,6.23-9.12c5.92-3.94,14-4.73,15.14-4.73h5.63l2.13,0c2.72-.05,7.85-.16,14.36-.27l9.36-.16c15.85-.25,35.8-.47,50.15-.31,2.94,0,5.64.07,8,.14h.48a75.78,75.78,0,0,1,9.49.64c6.12,1.26,9.72,8.12,11.75,13.85h0a65.8,65.8,0,0,1,2,7C399.84,200.44,399.58,205.33,398.13,210.45Z"/><polygon class="cls-4" points="402.14 207.12 398.13 210.44 397.39 191.53 397.39 191.51 401.2 193.34 402.11 193.76 402.12 196.74 402.12 199.25 402.14 207.12"/><polygon class="cls-25" points="367.64 176.5 367.64 179.4 291.64 179.4 291.64 177.28 293.9 177.26 294.17 177.25 299.64 177.21 308.48 177.1 317.45 177.01 367.64 176.5"/><polygon class="cls-25" points="323.36 195.38 336.26 195.38 335.69 193.76 323.56 194.02 323.36 195.38"/><path class="cls-4" d="M341.92,257.27l6.22,4.75s-19.25-2.25-30.25,0l5.47-3.5s-10-7.75-8.23-10.5c0,0,9.09,6,17.17,5.25s17-6.2,17-6.2l-3.41,4.56Z"/><path class="cls-9" d="M300.64,231.77s-2-.05-2.5,3.1,1.25,9.9,1.25,9.9"/><path class="cls-4" d="M358.64,243.27s-5.5-4-9.5-4-8.44.25-13.1,4-15.4-1.5-15.4-1.5a7.23,7.23,0,0,0-8,.5c-4,3-6.78,2.5-6.78,2.5s5.5-10.75,11.75-8.25a50.54,50.54,0,0,1,9.75,5s6.2,4.25,10.72-2.25,17.53-1,17.53-1a3.67,3.67,0,0,0,4.75,0C362.89,236.27,358.64,243.27,358.64,243.27Z"/><path class="cls-9" d="M350.56,233.52c-1.33-.17-9.18-1.13-11,1.35s-6.35,6.81-8.17,5-5,1.16-5.51-8.08"/><path class="cls-4" d="M310.45,166.82c.31.68,1.66,4.18,1.74,4.4a43.45,43.45,0,0,1-4.05-3.32l-2.25-.26c-1.38-.12-17.12,2.34-20.38,5.05s-3.62,1.42-3.62,1.42v-5s2.62-4.74,10.38-8.24c0,0,4-1.38,12.12-.88,0,0,4.75-3.34,7.62-.11l2.88,3.23S310.13,166.11,310.45,166.82Z"/><path class="cls-9" d="M338.21,144.27s7.9-1.21,10.56-1.38c4.15-.27,16.62,0,16.62,0"/><path class="cls-9" d="M340.39,150.39a16.68,16.68,0,0,1,8.91-3.62,102.74,102.74,0,0,1,16.09.5c2.87.39,10.13,2.12,11.13,3.12"/><path class="cls-26" d="M301.85,172s.28,4.49-1.35,4.87c-.1,0-.74.37-.86.39a38.84,38.84,0,0,1-5.42.19l-.05-.14s-.09-.19-.14-.33h0c-.38-1.06-1-3.54,1-4.09,0,0,0,0,0,0l.5-.14.29-.08A49.2,49.2,0,0,1,301.85,172Z"/><path class="cls-9" d="M316.93,146.77s3.59-1.63,9.84-.75"/><path class="cls-9" d="M316.93,150.89c1.09.5,6-.87,9.84-.5"/><line class="cls-9" x1="293.01" y1="173.49" x2="302.89" y2="171.33"/><line class="cls-9" x1="302.15" y1="177.18" x2="290.27" y2="177.18"/><path class="cls-24" d="M350.56,174.1h19.71s-2-5.08-9.85-5.08a40.51,40.51,0,0,0-7.27.45c-1.17.23-1.35.46-1.35.46S350.73,170.19,350.56,174.1Z"/><path class="cls-26" d="M363.23,169s-.92,5.08-2.81,5.08h-7.19s-1.33-3.42-.08-4.63S363.23,169,363.23,169Z"/><circle class="cls-4" cx="296.89" cy="174.99" r="1.09"/><circle class="cls-4" cx="356.02" cy="171.95" r="1.09"/><path class="cls-4" d="M364.39,169.52s-11.26-.75-12.59.41"/><line class="cls-9" x1="352.14" y1="174.1" x2="362.81" y2="174.1"/><path class="cls-4" d="M344.39,157.18a46.83,46.83,0,0,0,4.84.92c.5-.08,4.7.54,6.08-.08,2-.91,1.75-2,8.67-1.34s12.83-1,16.75,9.67a11.31,11.31,0,0,1,.25,1.42s-6.92-2.67-11.25-2.59-17.75,2-19.59,1.59a3.2,3.2,0,0,1-2.33-1.84,10.45,10.45,0,0,1-2.17,5.42c-1.91,2.17-2.83,2.25-2.83,2.25s3.42-6.92,2.92-7.83-3.59-2.5-3.17-4S343.39,157,344.39,157.18Z"/><path class="cls-9" d="M351.39,166.1s-4.08,5.67-4.08,7.75"/><path class="cls-9" d="M365.39,164.93s7.67,5.5,8.59,7.75"/><ellipse class="cls-9" cx="301.89" cy="653.77" rx="8" ry="10.75"/><ellipse class="cls-9" cx="303.89" cy="775.27" rx="8" ry="10.75"/><ellipse class="cls-9" cx="411.39" cy="774.27" rx="8" ry="10.75"/></g></g></svg>