<svg id="Layer_2" data-name="Layer 2" xmlns="http://www.w3.org/2000/svg" viewBox="0 0 386.52 356.83"><defs><style>.cls-1{fill:#fff;}</style></defs><title>TZLogo</title><path class="cls-1" d="M191.2,17.63C102,17.63,29.38,89.73,28.5,178.7,29.86,90.14,102.32,18.52,191.2,18.52S352.54,90.14,353.9,178.7C353,89.73,280.37,17.63,191.2,17.63ZM320.93,245.17A145.22,145.22,0,0,1,191.2,325.39c-79.34,0-144-64.05-145-143.16.53,79.52,65.38,144,145,144a145.21,145.21,0,0,0,130.17-81.1ZM329.21,225h.29a144.43,144.43,0,0,0,6.73-42.73A144.48,144.48,0,0,1,329.21,225Zm-8.28,20.21A145.22,145.22,0,0,1,191.2,325.39c-79.34,0-144-64.05-145-143.16.53,79.52,65.38,144,145,144a145.21,145.21,0,0,0,130.17-81.1ZM329.21,225h.29a144.43,144.43,0,0,0,6.73-42.73A144.48,144.48,0,0,1,329.21,225Z"/><path class="cls-1" d="M353.9,178.7C352.54,90.14,280.08,18.52,191.2,18.52S29.86,90.14,28.5,178.7c0,.7,0,1.4,0,2.1s0,1.39,0,2.09c1.36,88.55,73.82,160.19,162.7,160.19s161.34-71.64,162.7-160.19c0-.7,0-1.4,0-2.09S353.91,179.4,353.9,178.7ZM191.2,35.32a145.21,145.21,0,0,1,131.06,82.95H60.14A145.21,145.21,0,0,1,191.2,35.32Zm0,291c-79.64,0-144.49-64.52-145-144,0-.33,0-.66,0-1,0-.63,0-1.25,0-1.88a143.87,143.87,0,0,1,8.52-48H96V245.17h45.73V131.32h129l-84.59,99h0c-.31.35-.6.71-.89,1-.63.75-1.21,1.44-1.79,2.11h0c-7.61,9-10.08,11.69-10.08,11.69H321.37A145.21,145.21,0,0,1,191.2,326.27Zm145-144A144.43,144.43,0,0,1,329.5,225H245.65l81.14-95.21.23-.27a144.13,144.13,0,0,1,9.21,49.88c0,.63,0,1.25,0,1.88C336.24,181.57,336.24,181.9,336.23,182.23Z"/></svg>