<svg xmlns="http://www.w3.org/2000/svg" viewBox="0 0 612 792"><defs><style>.cls-1{stroke:#fff;stroke-miterlimit:10;stroke-width:19px;}.cls-2{fill:#e2b19c;}.cls-3{fill:#d1a595;}.cls-4{fill:#f43086;}.cls-5{fill:#efba9e;}.cls-6{fill:#ff89b4;}.cls-7{fill:#f08285;}.cls-8{fill:#fff;}.cls-9{fill:#05b6c5;}.cls-10{fill:#f3918c;}.cls-11{fill:#9b9b9b;}.cls-12{fill:#9b9798;}</style></defs><title>TZPic</title><g id="Outline"><path class="cls-1" d="M453.5,531.5s11,192-1,214-205,41-232,28-29-179-21-220S453.5,531.5,453.5,531.5Z"/><path class="cls-1" d="M2.5,717.5s25-94,193-110c0,0-10,115,65,148,107.68,47.38,207-34,196-143,0,0,130,45,158,64v163H2.5Z"/><path class="cls-1" d="M483.73,395.5s11.71-15.69,22.77-12c21,7,18,80.33-42.51,134.17S483.73,395.5,483.73,395.5Z"/><path class="cls-1" d="M482.83,415.83s25.67-27.33,25.67-8.33-2.65,34.74-9,44c-4.18,6.1-20.67,30-26,34s-40-9-40-9Z"/><path class="cls-1" d="M468.5,459.5s-2.06,48.26-5.14,58.24-44.19,139.79-91.47,154.77-132.57-28.29-139.25-84S468.5,459.5,468.5,459.5Z"/><path class="cls-1" d="M172.5,382.5c-5,3-27-27-30,13s23,120,43,122S172.5,382.5,172.5,382.5Z"/><path class="cls-1" d="M162.33,374.5s-31.83-148-15.83-170-25-24-4-41,8-53,20-46,67-31,88-48,31-8,35-7,21-12,34-3,43-22,98,47c0,0,21,19,24,58,0,0,50,21,61,73s0,137,0,137l-41,119Z"/><path class="cls-1" d="M165.5,394.5s-11-16-13-4,1,39,6,53,8,43.67,15,46.33S165.5,394.5,165.5,394.5Z"/><path class="cls-1" d="M297.5,223.5s-108-35-129,79,11,272,40,303,158,147,251-70c0,0,65-235.28-12-292C375.5,190.5,297.5,223.5,297.5,223.5Z"/><path class="cls-1" d="M342.5,331.5s6-14,69-15c13.31-.21,29,14,41,34,0,0-12-14-46-15s-60,3-64,5S342.5,331.5,342.5,331.5Z"/><path class="cls-1" d="M258.5,323.5c-10-6-35-13-47-13-12.37,0-27,15-31,21,0,0,13-6,28-3s39,9,42,9S277.77,335.06,258.5,323.5Z"/><path class="cls-1" d="M235.5,559.5s31.88-20.59,56.12-22c34.35-2,70.88,18,80.88,17C381.51,553.6,301.92,591.5,235.5,559.5Z"/><path class="cls-1" d="M413.5,397.88s6-2.38,6-3.38-7-8-7-8l-11-4,1.38,18.75Z"/><path class="cls-1" d="M235.5,559.5c21.76-13.4,20.61-17.87,42.37-27.27,6.6-2.85,20.34,2.33,20.63,2.25,7.81-2.22,14.88-5,22.89-3.57,9.16,2.2,16.75,9.61,51.11,23.59-9.82.53-24,2.79-40.8-1.25-14.89-3.58-38.57,3.4-55.2,1.25C258.67,552.2,248.53,556.71,235.5,559.5Z"/><path class="cls-1" d="M342.5,390.5s31-20,63-4-15,14.33-15,14.33S350.5,399.5,342.5,390.5Z"/><path class="cls-1" d="M343.86,388.5a8.73,8.73,0,0,1,.9,3.5c.27,2.65-1.3-.78-1.3-.78S339.09,390.35,343.86,388.5Z"/><circle class="cls-1" cx="381" cy="389" r="14.5"/><path class="cls-1" d="M341.5,390.5s31.39-18.83,65-3.67a71.27,71.27,0,0,1,13,7.67s-4.32-13.94-24-18C376.92,372.67,356.31,371.49,341.5,390.5Z"/><circle class="cls-1" cx="380.5" cy="390.5" r="6"/><path class="cls-1" d="M419.5,394.5s-28,17-78-4.12c0,0,8,13.12,27,16.12S401.5,410.5,419.5,394.5Z"/><path class="cls-1" d="M199.5,394.87s-6-2.37-6-3.37,7-8,7-8l11-4-1.38,18.75Z"/><path class="cls-1" d="M270.5,387.5s-31-20-63-4,15,14.33,15,14.33S262.5,396.5,270.5,387.5Z"/><path class="cls-1" d="M269.14,385.5a8.73,8.73,0,0,0-.9,3.5c-.27,2.65,1.3-.78,1.3-.78S273.91,387.35,269.14,385.5Z"/><circle class="cls-1" cx="232" cy="386" r="14.5"/><path class="cls-1" d="M271.5,387.5s-31.39-18.83-65-3.67a71.27,71.27,0,0,0-13,7.67s4.32-13.94,24-18C236.08,369.67,256.69,368.49,271.5,387.5Z"/><circle class="cls-1" cx="232.5" cy="387.5" r="6"/><path class="cls-1" d="M193.5,391.5s28,17,78-4.12c0,0-8,13.12-27,16.12S211.5,407.5,193.5,391.5Z"/><path class="cls-1" d="M285.5,479.5s-8-9-15-5-9,11-6,11S277.5,484.5,285.5,479.5Z"/><path class="cls-1" d="M315.5,478.5s10-8,17-3,10,7,3,9S316.5,483.5,315.5,478.5Z"/><path class="cls-1" d="M344.5,458.5s17,22,8,32-22,7-23,7S365.5,495.5,344.5,458.5Z"/><path class="cls-1" d="M259.5,456.5s-18.39,22-9.39,32,22,7,23,7S238.5,493.5,259.5,456.5Z"/><path class="cls-1" d="M268.5,440.5c-3,1.94,25-33,23-52s3,0,2,5S279.5,433.5,268.5,440.5Z"/><path class="cls-1" d="M315.5,379.5s14,42,22,48C337.5,427.5,323.5,421.5,315.5,379.5Z"/></g><g id="Neck"><path class="cls-2" d="M451,532s11,192-1,214-205,41-232,28-29-179-21-220S451,532,451,532Z"/></g><g id="NeckShadow"><path class="cls-3" d="M466,460s-2.06,48.26-5.14,58.24S416.67,658,369.39,673s-132.57-28.29-139.25-84S466,460,466,460Z"/></g><g id="Hair"><path class="cls-4" d="M159.83,375S128,227,144,205s-25-24-4-41,8-53,20-46,67-31,88-48,31-8,35-7,21-12,34-3,43-22,98,47c0,0,21,19,24,58,0,0,50,21,61,73s0,137,0,137L459,494Z"/></g><g id="Ears"><path class="cls-2" d="M170,383c-5,3-27-27-30,13s23,120,43,122S170,383,170,383Z"/><path class="cls-3" d="M163,395s-11-16-13-4,1,39,6,53,8,43.67,15,46.33S163,395,163,395Z"/><path class="cls-2" d="M481.23,396s11.71-15.69,22.77-12c21,7,18,80.33-42.51,134.17S481.23,396,481.23,396Z"/><path class="cls-3" d="M480.33,416.33S506,389,506,408s-2.65,34.74-9,44c-4.18,6.1-20.67,30-26,34s-40-9-40-9Z"/></g><g id="Face"><path class="cls-5" d="M295,224s-108-35-129,79,11,272,40,303,158,147,251-70c0,0,65-235.28-12-292C373,191,295,224,295,224Z"/></g><g id="Mouth"><path class="cls-6" d="M233,560s31.88-20.59,56.12-22c34.35-2,70.88,18,80.88,17C379,554.1,299.42,592,233,560Z"/><path class="cls-4" d="M233,560c21.76-13.4,20.61-17.87,42.37-27.27,6.6-2.85,20.34,2.33,20.63,2.25,7.81-2.22,14.88-5,22.89-3.57,9.16,2.2,16.75,9.61,51.11,23.59-9.82.53-24,2.79-40.8-1.25-14.89-3.58-38.57,3.4-55.2,1.25C256.17,552.7,246,557.21,233,560Z"/></g><g id="Eye_Brows" data-name="Eye Brows"><path class="cls-4" d="M340,332s6-14,69-15c13.31-.21,29,14,41,34,0,0-12-14-46-15s-60,3-64,5S340,332,340,332Z"/><path class="cls-4" d="M256,324c-10-6-35-13-47-13-12.37,0-27,15-31,21,0,0,13-6,28-3s39,9,42,9S275.27,335.56,256,324Z"/></g><g id="Eyes"><path class="cls-7" d="M411,398.38s6-2.38,6-3.38-7-8-7-8l-11-4,1.38,18.75Z"/><path class="cls-8" d="M340,391s31-20,63-4-15,14.33-15,14.33S348,400,340,391Z"/><circle class="cls-9" cx="378.5" cy="389.5" r="14.5"/><circle cx="378" cy="391" r="6"/><path class="cls-10" d="M341.36,389a8.73,8.73,0,0,1,.9,3.5c.27,2.65-1.3-.78-1.3-.78S336.59,390.85,341.36,389Z"/><path class="cls-3" d="M339,391s31.39-18.83,65-3.67A71.27,71.27,0,0,1,417,395s-4.32-13.94-24-18C374.42,373.17,353.81,372,339,391Z"/><path class="cls-3" d="M417,395s-28,17-78-4.12c0,0,8,13.12,27,16.12S399,411,417,395Z"/><path class="cls-7" d="M197,395.37s-6-2.37-6-3.37,7-8,7-8l11-4-1.38,18.75Z"/><path class="cls-8" d="M268,388s-31-20-63-4,15,14.33,15,14.33S260,397,268,388Z"/><circle class="cls-9" cx="229.5" cy="386.5" r="14.5"/><circle cx="230" cy="388" r="6"/><path class="cls-10" d="M266.64,386a8.73,8.73,0,0,0-.9,3.5c-.27,2.65,1.3-.78,1.3-.78S271.41,387.85,266.64,386Z"/><path class="cls-3" d="M269,388s-31.39-18.83-65-3.67A71.27,71.27,0,0,0,191,392s4.32-13.94,24-18C233.58,370.17,254.19,369,269,388Z"/><path class="cls-3" d="M191,392s28,17,78-4.12c0,0-8,13.12-27,16.12S209,408,191,392Z"/></g><g id="Noes"><path class="cls-4" d="M283,480s-8-9-15-5-9,11-6,11S275,485,283,480Z"/><path class="cls-4" d="M313,479s10-8,17-3,10,7,3,9S314,484,313,479Z"/><path class="cls-3" d="M342,459s17,22,8,32-22,7-23,7S363,496,342,459Z"/><path class="cls-3" d="M257,457s-18.39,22-9.39,32,22,7,23,7S236,494,257,457Z"/><path class="cls-3" d="M266,441c-3,1.94,25-33,23-52s3,0,2,5S277,434,266,441Z"/><path class="cls-3" d="M313,380s14,42,22,48C335,428,321,422,313,380Z"/></g><g id="Shirt"><path class="cls-9" d="M0,718s25-94,193-110c0,0-10,115,65,148,107.68,47.38,207-34,196-143,0,0,130,45,158,64V840H0Z"/></g><g id="Sunglasses"><path class="cls-4" d="M161.42,390.15s2,48.74,31.19,58.16,62.7,6.17,77-16.25,12-42.88,12-42.88S274.8,372.93,259.86,370s-73.43-18.19-90.32-.65S161.42,390.15,161.42,390.15Z"/><path class="cls-11" d="M284.87,377.16s-1.62-2.28,5.85-2.28h39l-11.37,9.21s-30.22,1.19-33.14-.11S284.87,377.16,284.87,377.16Z"/><path class="cls-9" d="M139,364.81s91.29-23.06,147.82,10.07c4.75,2.79,6.5,11.05-6.17,21.12-.59.47-1.53.88-1.63.34-1-5.54-5.51-17.71-12.5-19.67-71.31-20-100.88-10.23-102.83,20,0,0,.2.61-.63,1.12s-2.7.91-6.84.51c-5-.49-7.31-18-15.11-17.71Z"/><rect class="cls-12" x="145.5" y="371.96" width="14.94" height="4.55" rx="2.11"/><path class="cls-4" d="M446,390.15s-1.95,48.74-31.19,58.16-62.71,6.17-77-16.25-12-42.88-12-42.88,6.82-16.25,21.77-19.17,73.42-18.19,90.32-.65S446,390.15,446,390.15Z"/><path class="cls-9" d="M468.41,364.81s-91.29-23.06-147.82,10.07c-4.74,2.79-6.5,11.05,6.17,21.12.59.47,1.4.83,1.63.34,2-4.24,5.51-17.71,12.51-19.67,71.31-20,100.87-10.23,102.82,20,0,0-.2.61.63,1.12s2.7.91,6.85.51c5-.49,7.31-18,15.1-17.71Z"/><rect class="cls-12" x="446.97" y="371.96" width="14.94" height="4.55" rx="2.11" transform="translate(908.89 748.47) rotate(180)"/><path class="cls-9" d="M468,365l36,19s22.61,18.14-37.7-3.43"/></g></svg>